<?xml version="1.0" encoding="UTF-8" standalone="no"?>
<!DOCTYPE svg PUBLIC "-//W3C//DTD SVG 1.1//EN"
 "http://www.w3.org/Graphics/SVG/1.1/DTD/svg11.dtd">
<!-- Generated by graphviz version 2.40.1 (20161225.0304)
 -->
<!-- Title: twoDegreesRelationshipsDiagram Pages: 1 -->
<svg width="1343pt" height="807pt"
 viewBox="0.00 0.00 1342.68 806.85" xmlns="http://www.w3.org/2000/svg" xmlns:xlink="http://www.w3.org/1999/xlink">
<g id="graph0" class="graph" transform="scale(1 1) rotate(0) translate(4 802.8462)">
<title>twoDegreesRelationshipsDiagram</title>
<polygon fill="#ffffff" stroke="transparent" points="-4,4 -4,-802.8462 1338.6762,-802.8462 1338.6762,4 -4,4"/>
<text text-anchor="middle" x="72.4936" y="-7.3" font-family="Helvetica,sans-Serif" font-size="11.00" fill="#000000">Generated by SchemaSpy</text>
<!-- applicant -->
<g id="node1" class="node">
<title>applicant</title>
<g id="a_node1"><a xlink:href="../../tables/applicant.html" xlink:title="applicant" target="_top">
<polygon fill="#ffffff" stroke="transparent" points="684.6762,-239.8462 684.6762,-454.8462 824.6762,-454.8462 824.6762,-239.8462 684.6762,-239.8462"/>
<polygon fill="#f5f5f5" stroke="transparent" points="684.6762,-431.3462 684.6762,-454.3462 824.6762,-454.3462 824.6762,-431.3462 684.6762,-431.3462"/>
<polygon fill="none" stroke="#000000" points="684.6762,-431.3462 684.6762,-454.3462 824.6762,-454.3462 824.6762,-431.3462 684.6762,-431.3462"/>
<text text-anchor="start" x="689.6762" y="-440.4462" font-family="Helvetica,sans-Serif" font-weight="bold" font-size="11.00" fill="#000000">applicant</text>
<text text-anchor="start" x="789.7199" y="-439.4462" font-family="Helvetica,sans-Serif" font-size="11.00" fill="#000000">[table]</text>
<polygon fill="none" stroke="#000000" points="684.6762,-409.3462 684.6762,-431.3462 824.6762,-431.3462 824.6762,-409.3462 684.6762,-409.3462"/>
<image xlink:href="../../images/primaryKeys.png" width="11px" height="12px" preserveAspectRatio="xMinYMin meet" x="689.676" y="-426.346"/>
<text text-anchor="start" x="704.6762" y="-416.4462" font-family="Helvetica,sans-Serif" font-size="11.00" fill="#000000">id</text>
<polygon fill="#ffffff" stroke="transparent" points="684.6762,-387.3462 684.6762,-409.3462 824.6762,-409.3462 824.6762,-387.3462 684.6762,-387.3462"/>
<polygon fill="none" stroke="#000000" points="684.6762,-387.3462 684.6762,-409.3462 824.6762,-409.3462 824.6762,-387.3462 684.6762,-387.3462"/>
<text text-anchor="start" x="704.6762" y="-394.4462" font-family="Helvetica,sans-Serif" font-size="11.00" fill="#000000">created_by</text>
<polygon fill="#ffffff" stroke="transparent" points="684.6762,-365.3462 684.6762,-387.3462 824.6762,-387.3462 824.6762,-365.3462 684.6762,-365.3462"/>
<polygon fill="none" stroke="#000000" points="684.6762,-365.3462 684.6762,-387.3462 824.6762,-387.3462 824.6762,-365.3462 684.6762,-365.3462"/>
<text text-anchor="start" x="704.6762" y="-372.4462" font-family="Helvetica,sans-Serif" font-size="11.00" fill="#000000">modified_by</text>
<polygon fill="#ffffff" stroke="transparent" points="684.6762,-343.3462 684.6762,-365.3462 824.6762,-365.3462 824.6762,-343.3462 684.6762,-343.3462"/>
<polygon fill="none" stroke="#000000" points="684.6762,-343.3462 684.6762,-365.3462 824.6762,-365.3462 824.6762,-343.3462 684.6762,-343.3462"/>
<image xlink:href="../../images/foreignKeys.png" width="11px" height="12px" preserveAspectRatio="xMinYMin meet" x="689.676" y="-360.346"/>
<text text-anchor="start" x="704.6762" y="-350.4462" font-family="Helvetica,sans-Serif" font-size="11.00" fill="#000000">address_id</text>
<polygon fill="#ffffff" stroke="transparent" points="684.6762,-321.3462 684.6762,-343.3462 824.6762,-343.3462 824.6762,-321.3462 684.6762,-321.3462"/>
<polygon fill="none" stroke="#000000" points="684.6762,-321.3462 684.6762,-343.3462 824.6762,-343.3462 824.6762,-321.3462 684.6762,-321.3462"/>
<image xlink:href="../../images/foreignKeys.png" width="11px" height="12px" preserveAspectRatio="xMinYMin meet" x="689.676" y="-338.346"/>
<text text-anchor="start" x="704.6762" y="-328.4462" font-family="Helvetica,sans-Serif" font-size="11.00" fill="#000000">avatar_id</text>
<polygon fill="#ffffff" stroke="transparent" points="684.6762,-299.3462 684.6762,-321.3462 824.6762,-321.3462 824.6762,-299.3462 684.6762,-299.3462"/>
<polygon fill="none" stroke="#000000" points="684.6762,-299.3462 684.6762,-321.3462 824.6762,-321.3462 824.6762,-299.3462 684.6762,-299.3462"/>
<image xlink:href="../../images/foreignKeys.png" width="11px" height="12px" preserveAspectRatio="xMinYMin meet" x="689.676" y="-316.346"/>
<text text-anchor="start" x="704.6762" y="-306.4462" font-family="Helvetica,sans-Serif" font-size="11.00" fill="#000000">contact_person_id</text>
<polygon fill="#ffffff" stroke="transparent" points="684.6762,-277.3462 684.6762,-299.3462 824.6762,-299.3462 824.6762,-277.3462 684.6762,-277.3462"/>
<polygon fill="none" stroke="#000000" points="684.6762,-277.3462 684.6762,-299.3462 824.6762,-299.3462 824.6762,-277.3462 684.6762,-277.3462"/>
<image xlink:href="../../images/foreignKeys.png" width="11px" height="12px" preserveAspectRatio="xMinYMin meet" x="689.676" y="-294.346"/>
<text text-anchor="start" x="704.6762" y="-284.4462" font-family="Helvetica,sans-Serif" font-size="11.00" fill="#000000">supplier_id</text>
<polygon fill="none" stroke="#000000" points="684.6762,-258.3462 684.6762,-277.3462 824.6762,-277.3462 824.6762,-258.3462 684.6762,-258.3462"/>
<text text-anchor="start" x="687.6762" y="-264.4462" font-family="Helvetica,sans-Serif" font-size="11.00" fill="#000000">...</text>
<polygon fill="#ffffff" stroke="transparent" points="684.6762,-239.3462 684.6762,-258.3462 732.6762,-258.3462 732.6762,-239.3462 684.6762,-239.3462"/>
<polygon fill="none" stroke="#000000" points="684.6762,-239.3462 684.6762,-258.3462 732.6762,-258.3462 732.6762,-239.3462 684.6762,-239.3462"/>
<text text-anchor="start" x="687.6762" y="-245.4462" font-family="Helvetica,sans-Serif" font-size="11.00" fill="#000000">&lt; 4</text>
<polygon fill="#ffffff" stroke="transparent" points="732.6762,-239.3462 732.6762,-258.3462 789.6762,-258.3462 789.6762,-239.3462 732.6762,-239.3462"/>
<polygon fill="none" stroke="#000000" points="732.6762,-239.3462 732.6762,-258.3462 789.6762,-258.3462 789.6762,-239.3462 732.6762,-239.3462"/>
<text text-anchor="start" x="748.1718" y="-245.4462" font-family="Helvetica,sans-Serif" font-size="11.00" fill="#000000">90 rows</text>
<polygon fill="#ffffff" stroke="transparent" points="789.6762,-239.3462 789.6762,-258.3462 824.6762,-258.3462 824.6762,-239.3462 789.6762,-239.3462"/>
<polygon fill="none" stroke="#000000" points="789.6762,-239.3462 789.6762,-258.3462 824.6762,-258.3462 824.6762,-239.3462 789.6762,-239.3462"/>
<text text-anchor="start" x="806.0815" y="-245.4462" font-family="Helvetica,sans-Serif" font-size="11.00" fill="#000000">5 &gt;</text>
</a>
</g>
</g>
<!-- location -->
<g id="node2" class="node">
<title>location</title>
<g id="a_node2"><a xlink:href="../../tables/location.html" xlink:title="location" target="_top">
<polygon fill="#ffffff" stroke="transparent" points="514.1762,-475.8462 514.1762,-536.8462 597.1762,-536.8462 597.1762,-475.8462 514.1762,-475.8462"/>
<polygon fill="#f5f5f5" stroke="transparent" points="514.6762,-513.3462 514.6762,-536.3462 597.6762,-536.3462 597.6762,-513.3462 514.6762,-513.3462"/>
<polygon fill="none" stroke="#000000" points="514.6762,-513.3462 514.6762,-536.3462 597.6762,-536.3462 597.6762,-513.3462 514.6762,-513.3462"/>
<text text-anchor="start" x="519.6762" y="-522.4462" font-family="Helvetica,sans-Serif" font-weight="bold" font-size="11.00" fill="#000000">location</text>
<text text-anchor="start" x="562.7199" y="-521.4462" font-family="Helvetica,sans-Serif" font-size="11.00" fill="#000000">[table]</text>
<polygon fill="none" stroke="#000000" points="514.6762,-494.3462 514.6762,-513.3462 597.6762,-513.3462 597.6762,-494.3462 514.6762,-494.3462"/>
<text text-anchor="start" x="517.6762" y="-500.4462" font-family="Helvetica,sans-Serif" font-size="11.00" fill="#000000">...</text>
<polygon fill="#ffffff" stroke="transparent" points="514.6762,-475.3462 514.6762,-494.3462 526.6762,-494.3462 526.6762,-475.3462 514.6762,-475.3462"/>
<polygon fill="none" stroke="#000000" points="514.6762,-475.3462 514.6762,-494.3462 526.6762,-494.3462 526.6762,-475.3462 514.6762,-475.3462"/>
<text text-anchor="start" x="517.6193" y="-481.4462" font-family="Helvetica,sans-Serif" font-size="11.00" fill="#000000"> &#160;</text>
<polygon fill="#ffffff" stroke="transparent" points="526.6762,-475.3462 526.6762,-494.3462 576.6762,-494.3462 576.6762,-475.3462 526.6762,-475.3462"/>
<polygon fill="none" stroke="#000000" points="526.6762,-475.3462 526.6762,-494.3462 576.6762,-494.3462 576.6762,-475.3462 526.6762,-475.3462"/>
<text text-anchor="start" x="529.3666" y="-481.4462" font-family="Helvetica,sans-Serif" font-size="11.00" fill="#000000">541 rows</text>
<polygon fill="#ffffff" stroke="transparent" points="576.6762,-475.3462 576.6762,-494.3462 597.6762,-494.3462 597.6762,-475.3462 576.6762,-475.3462"/>
<polygon fill="none" stroke="#000000" points="576.6762,-475.3462 576.6762,-494.3462 597.6762,-494.3462 597.6762,-475.3462 576.6762,-475.3462"/>
<text text-anchor="start" x="579.3789" y="-481.4462" font-family="Helvetica,sans-Serif" font-size="11.00" fill="#000000">4 &gt;</text>
</a>
</g>
</g>
<!-- applicant&#45;&gt;location -->
<g id="edge1" class="edge">
<title>applicant:w&#45;&gt;location:e</title>
<path fill="none" stroke="#000000" d="M670.2031,-356.8325C640.6763,-369.4534 670.6613,-427.3134 643.6762,-465.3462 628.3312,-486.9735 624.1943,-503.3462 597.6762,-503.3462"/>
<polygon fill="#000000" stroke="#000000" points="676.7917,-355.7007 685.2858,-357.8942 680.734,-355.0234 684.6762,-354.3462 684.6762,-354.3462 684.6762,-354.3462 680.734,-355.0234 684.0667,-350.7982 676.7917,-355.7007 676.7917,-355.7007"/>
<ellipse fill="none" stroke="#000000" cx="673.6379" cy="-356.2425" rx="3.2" ry="3.2"/>
</g>
<!-- file -->
<g id="node3" class="node">
<title>file</title>
<g id="a_node3"><a xlink:href="../../tables/file.html" xlink:title="file" target="_top">
<polygon fill="#ffffff" stroke="transparent" points="303.6762,-492.8462 303.6762,-619.8462 426.6762,-619.8462 426.6762,-492.8462 303.6762,-492.8462"/>
<polygon fill="#f5f5f5" stroke="transparent" points="304.1762,-596.3462 304.1762,-619.3462 427.1762,-619.3462 427.1762,-596.3462 304.1762,-596.3462"/>
<polygon fill="none" stroke="#000000" points="304.1762,-596.3462 304.1762,-619.3462 427.1762,-619.3462 427.1762,-596.3462 304.1762,-596.3462"/>
<text text-anchor="start" x="309.1762" y="-605.4462" font-family="Helvetica,sans-Serif" font-weight="bold" font-size="11.00" fill="#000000">file</text>
<text text-anchor="start" x="392.2199" y="-604.4462" font-family="Helvetica,sans-Serif" font-size="11.00" fill="#000000">[table]</text>
<polygon fill="none" stroke="#000000" points="304.1762,-574.3462 304.1762,-596.3462 427.1762,-596.3462 427.1762,-574.3462 304.1762,-574.3462"/>
<image xlink:href="../../images/primaryKeys.png" width="11px" height="12px" preserveAspectRatio="xMinYMin meet" x="309.176" y="-591.346"/>
<text text-anchor="start" x="324.1762" y="-581.4462" font-family="Helvetica,sans-Serif" font-size="11.00" fill="#000000">id</text>
<polygon fill="#ffffff" stroke="transparent" points="304.1762,-552.3462 304.1762,-574.3462 427.1762,-574.3462 427.1762,-552.3462 304.1762,-552.3462"/>
<polygon fill="none" stroke="#000000" points="304.1762,-552.3462 304.1762,-574.3462 427.1762,-574.3462 427.1762,-552.3462 304.1762,-552.3462"/>
<image xlink:href="../../images/foreignKeys.png" width="11px" height="12px" preserveAspectRatio="xMinYMin meet" x="309.176" y="-569.346"/>
<text text-anchor="start" x="324.1762" y="-559.4462" font-family="Helvetica,sans-Serif" font-size="11.00" fill="#000000">created_by</text>
<polygon fill="#ffffff" stroke="transparent" points="304.1762,-530.3462 304.1762,-552.3462 427.1762,-552.3462 427.1762,-530.3462 304.1762,-530.3462"/>
<polygon fill="none" stroke="#000000" points="304.1762,-530.3462 304.1762,-552.3462 427.1762,-552.3462 427.1762,-530.3462 304.1762,-530.3462"/>
<image xlink:href="../../images/foreignKeys.png" width="11px" height="12px" preserveAspectRatio="xMinYMin meet" x="309.176" y="-547.346"/>
<text text-anchor="start" x="324.1762" y="-537.4462" font-family="Helvetica,sans-Serif" font-size="11.00" fill="#000000">modified_by</text>
<polygon fill="none" stroke="#000000" points="304.1762,-511.3462 304.1762,-530.3462 427.1762,-530.3462 427.1762,-511.3462 304.1762,-511.3462"/>
<text text-anchor="start" x="307.1762" y="-517.4462" font-family="Helvetica,sans-Serif" font-size="11.00" fill="#000000">...</text>
<polygon fill="#ffffff" stroke="transparent" points="304.1762,-492.3462 304.1762,-511.3462 337.1762,-511.3462 337.1762,-492.3462 304.1762,-492.3462"/>
<polygon fill="none" stroke="#000000" points="304.1762,-492.3462 304.1762,-511.3462 337.1762,-511.3462 337.1762,-492.3462 304.1762,-492.3462"/>
<text text-anchor="start" x="307.1762" y="-498.4462" font-family="Helvetica,sans-Serif" font-size="11.00" fill="#000000">&lt; 2</text>
<polygon fill="#ffffff" stroke="transparent" points="337.1762,-492.3462 337.1762,-511.3462 393.1762,-511.3462 393.1762,-492.3462 337.1762,-492.3462"/>
<polygon fill="none" stroke="#000000" points="337.1762,-492.3462 337.1762,-511.3462 393.1762,-511.3462 393.1762,-492.3462 337.1762,-492.3462"/>
<text text-anchor="start" x="345.5569" y="-498.4462" font-family="Helvetica,sans-Serif" font-size="11.00" fill="#000000">590 rows</text>
<polygon fill="#ffffff" stroke="transparent" points="393.1762,-492.3462 393.1762,-511.3462 427.1762,-511.3462 427.1762,-492.3462 393.1762,-492.3462"/>
<polygon fill="none" stroke="#000000" points="393.1762,-492.3462 393.1762,-511.3462 427.1762,-511.3462 427.1762,-492.3462 393.1762,-492.3462"/>
<text text-anchor="start" x="402.4666" y="-498.4462" font-family="Helvetica,sans-Serif" font-size="11.00" fill="#000000">13 &gt;</text>
</a>
</g>
</g>
<!-- applicant&#45;&gt;file -->
<g id="edge2" class="edge">
<title>applicant:w&#45;&gt;file:e</title>
<path fill="none" stroke="#000000" d="M670.4505,-335.9487C661.8557,-341.1117 657.5528,-350.5232 643.6762,-355.3462 568.8603,-381.3492 524.795,-328.4733 467.6762,-383.3462 401.6453,-446.7809 518.7407,-585.3462 427.1762,-585.3462"/>
<polygon fill="#000000" stroke="#000000" points="676.921,-334.3101 685.56,-335.836 680.7986,-333.3282 684.6762,-332.3462 684.6762,-332.3462 684.6762,-332.3462 680.7986,-333.3282 683.7925,-328.8563 676.921,-334.3101 676.921,-334.3101"/>
<ellipse fill="none" stroke="#000000" cx="673.819" cy="-335.0957" rx="3.2" ry="3.2"/>
</g>
<!-- contact_person -->
<g id="node4" class="node">
<title>contact_person</title>
<g id="a_node4"><a xlink:href="../../tables/contact_person.html" xlink:title="contact_person" target="_top">
<polygon fill="#ffffff" stroke="transparent" points="496.6762,-201.8462 496.6762,-262.8462 614.6762,-262.8462 614.6762,-201.8462 496.6762,-201.8462"/>
<polygon fill="#f5f5f5" stroke="transparent" points="496.6762,-239.3462 496.6762,-262.3462 614.6762,-262.3462 614.6762,-239.3462 496.6762,-239.3462"/>
<polygon fill="none" stroke="#000000" points="496.6762,-239.3462 496.6762,-262.3462 614.6762,-262.3462 614.6762,-239.3462 496.6762,-239.3462"/>
<text text-anchor="start" x="501.5788" y="-248.4462" font-family="Helvetica,sans-Serif" font-weight="bold" font-size="11.00" fill="#000000">contact_person</text>
<text text-anchor="start" x="580.1981" y="-247.4462" font-family="Helvetica,sans-Serif" font-size="11.00" fill="#000000">[table]</text>
<polygon fill="none" stroke="#000000" points="496.6762,-220.3462 496.6762,-239.3462 614.6762,-239.3462 614.6762,-220.3462 496.6762,-220.3462"/>
<text text-anchor="start" x="499.6762" y="-226.4462" font-family="Helvetica,sans-Serif" font-size="11.00" fill="#000000">...</text>
<polygon fill="#ffffff" stroke="transparent" points="496.6762,-201.3462 496.6762,-220.3462 525.6762,-220.3462 525.6762,-201.3462 496.6762,-201.3462"/>
<polygon fill="none" stroke="#000000" points="496.6762,-201.3462 496.6762,-220.3462 525.6762,-220.3462 525.6762,-201.3462 496.6762,-201.3462"/>
<text text-anchor="start" x="499.6762" y="-207.4462" font-family="Helvetica,sans-Serif" font-size="11.00" fill="#000000"> &#160;</text>
<polygon fill="#ffffff" stroke="transparent" points="525.6762,-201.3462 525.6762,-220.3462 584.6762,-220.3462 584.6762,-201.3462 525.6762,-201.3462"/>
<polygon fill="none" stroke="#000000" points="525.6762,-201.3462 525.6762,-220.3462 584.6762,-220.3462 584.6762,-201.3462 525.6762,-201.3462"/>
<text text-anchor="start" x="537.0569" y="-207.4462" font-family="Helvetica,sans-Serif" font-size="11.00" fill="#000000">109 rows</text>
<polygon fill="#ffffff" stroke="transparent" points="584.6762,-201.3462 584.6762,-220.3462 614.6762,-220.3462 614.6762,-201.3462 584.6762,-201.3462"/>
<polygon fill="none" stroke="#000000" points="584.6762,-201.3462 584.6762,-220.3462 614.6762,-220.3462 614.6762,-201.3462 584.6762,-201.3462"/>
<text text-anchor="start" x="596.0815" y="-207.4462" font-family="Helvetica,sans-Serif" font-size="11.00" fill="#000000">2 &gt;</text>
</a>
</g>
</g>
<!-- applicant&#45;&gt;contact_person -->
<g id="edge3" class="edge">
<title>applicant:w&#45;&gt;contact_person:e</title>
<path fill="none" stroke="#000000" d="M670.3328,-307.0706C642.1228,-291.9168 656.495,-229.3462 614.6762,-229.3462"/>
<polygon fill="#000000" stroke="#000000" points="676.877,-308.565 683.8747,-313.8558 680.7766,-309.4556 684.6762,-310.3462 684.6762,-310.3462 684.6762,-310.3462 680.7766,-309.4556 685.4778,-306.8365 676.877,-308.565 676.877,-308.565"/>
<ellipse fill="none" stroke="#000000" cx="673.7573" cy="-307.8526" rx="3.2" ry="3.2"/>
</g>
<!-- supplier -->
<g id="node5" class="node">
<title>supplier</title>
<g id="a_node5"><a xlink:href="../../tables/supplier.html" xlink:title="supplier" target="_top">
<polygon fill="#ffffff" stroke="transparent" points="509.6762,-64.8462 509.6762,-125.8462 601.6762,-125.8462 601.6762,-64.8462 509.6762,-64.8462"/>
<polygon fill="#f5f5f5" stroke="transparent" points="509.6762,-102.3462 509.6762,-125.3462 601.6762,-125.3462 601.6762,-102.3462 509.6762,-102.3462"/>
<polygon fill="none" stroke="#000000" points="509.6762,-102.3462 509.6762,-125.3462 601.6762,-125.3462 601.6762,-102.3462 509.6762,-102.3462"/>
<text text-anchor="start" x="514.6762" y="-111.4462" font-family="Helvetica,sans-Serif" font-weight="bold" font-size="11.00" fill="#000000">supplier</text>
<text text-anchor="start" x="566.7199" y="-110.4462" font-family="Helvetica,sans-Serif" font-size="11.00" fill="#000000">[table]</text>
<polygon fill="none" stroke="#000000" points="509.6762,-83.3462 509.6762,-102.3462 601.6762,-102.3462 601.6762,-83.3462 509.6762,-83.3462"/>
<text text-anchor="start" x="512.6762" y="-89.4462" font-family="Helvetica,sans-Serif" font-size="11.00" fill="#000000">...</text>
<polygon fill="#ffffff" stroke="transparent" points="509.6762,-64.3462 509.6762,-83.3462 530.6762,-83.3462 530.6762,-64.3462 509.6762,-64.3462"/>
<polygon fill="none" stroke="#000000" points="509.6762,-64.3462 509.6762,-83.3462 530.6762,-83.3462 530.6762,-64.3462 509.6762,-64.3462"/>
<text text-anchor="start" x="512.3789" y="-70.4462" font-family="Helvetica,sans-Serif" font-size="11.00" fill="#000000">&lt; 3</text>
<polygon fill="#ffffff" stroke="transparent" points="530.6762,-64.3462 530.6762,-83.3462 580.6762,-83.3462 580.6762,-64.3462 530.6762,-64.3462"/>
<polygon fill="none" stroke="#000000" points="530.6762,-64.3462 530.6762,-83.3462 580.6762,-83.3462 580.6762,-64.3462 530.6762,-64.3462"/>
<text text-anchor="start" x="533.3666" y="-70.4462" font-family="Helvetica,sans-Serif" font-size="11.00" fill="#000000">201 rows</text>
<polygon fill="#ffffff" stroke="transparent" points="580.6762,-64.3462 580.6762,-83.3462 601.6762,-83.3462 601.6762,-64.3462 580.6762,-64.3462"/>
<polygon fill="none" stroke="#000000" points="580.6762,-64.3462 580.6762,-83.3462 601.6762,-83.3462 601.6762,-64.3462 580.6762,-64.3462"/>
<text text-anchor="start" x="583.3789" y="-70.4462" font-family="Helvetica,sans-Serif" font-size="11.00" fill="#000000">4 &gt;</text>
</a>
</g>
</g>
<!-- applicant&#45;&gt;supplier -->
<g id="edge4" class="edge">
<title>applicant:w&#45;&gt;supplier:e</title>
<path fill="none" stroke="#000000" d="M670.2252,-285.9459C643.2249,-275.0397 659.6457,-229.0578 643.6762,-191.3462 625.0387,-147.3338 649.4721,-92.3462 601.6762,-92.3462"/>
<polygon fill="#000000" stroke="#000000" points="676.7844,-287.0353 684.0864,-291.8975 680.7303,-287.6908 684.6762,-288.3462 684.6762,-288.3462 684.6762,-288.3462 680.7303,-287.6908 685.2661,-284.7948 676.7844,-287.0353 676.7844,-287.0353"/>
<ellipse fill="none" stroke="#000000" cx="673.6276" cy="-286.511" rx="3.2" ry="3.2"/>
</g>
<!-- principal -->
<g id="node12" class="node">
<title>principal</title>
<g id="a_node12"><a xlink:href="../../tables/principal.html" xlink:title="principal" target="_top">
<polygon fill="#ffffff" stroke="transparent" points="162.6762,-586.8462 162.6762,-647.8462 254.6762,-647.8462 254.6762,-586.8462 162.6762,-586.8462"/>
<polygon fill="#f5f5f5" stroke="transparent" points="162.6762,-624.3462 162.6762,-647.3462 254.6762,-647.3462 254.6762,-624.3462 162.6762,-624.3462"/>
<polygon fill="none" stroke="#000000" points="162.6762,-624.3462 162.6762,-647.3462 254.6762,-647.3462 254.6762,-624.3462 162.6762,-624.3462"/>
<text text-anchor="start" x="167.6762" y="-633.4462" font-family="Helvetica,sans-Serif" font-weight="bold" font-size="11.00" fill="#000000">principal</text>
<text text-anchor="start" x="219.7199" y="-632.4462" font-family="Helvetica,sans-Serif" font-size="11.00" fill="#000000">[table]</text>
<polygon fill="none" stroke="#000000" points="162.6762,-605.3462 162.6762,-624.3462 254.6762,-624.3462 254.6762,-605.3462 162.6762,-605.3462"/>
<text text-anchor="start" x="165.6762" y="-611.4462" font-family="Helvetica,sans-Serif" font-size="11.00" fill="#000000">...</text>
<polygon fill="#ffffff" stroke="transparent" points="162.6762,-586.3462 162.6762,-605.3462 183.6762,-605.3462 183.6762,-586.3462 162.6762,-586.3462"/>
<polygon fill="none" stroke="#000000" points="162.6762,-586.3462 162.6762,-605.3462 183.6762,-605.3462 183.6762,-586.3462 162.6762,-586.3462"/>
<text text-anchor="start" x="165.3789" y="-592.4462" font-family="Helvetica,sans-Serif" font-size="11.00" fill="#000000">&lt; 1</text>
<polygon fill="#ffffff" stroke="transparent" points="183.6762,-586.3462 183.6762,-605.3462 227.6762,-605.3462 227.6762,-586.3462 183.6762,-586.3462"/>
<polygon fill="none" stroke="#000000" points="183.6762,-586.3462 183.6762,-605.3462 227.6762,-605.3462 227.6762,-586.3462 183.6762,-586.3462"/>
<text text-anchor="start" x="186.424" y="-592.4462" font-family="Helvetica,sans-Serif" font-size="11.00" fill="#000000">18 rows</text>
<polygon fill="#ffffff" stroke="transparent" points="227.6762,-586.3462 227.6762,-605.3462 254.6762,-605.3462 254.6762,-586.3462 227.6762,-586.3462"/>
<polygon fill="none" stroke="#000000" points="227.6762,-586.3462 227.6762,-605.3462 254.6762,-605.3462 254.6762,-586.3462 227.6762,-586.3462"/>
<text text-anchor="start" x="230.3214" y="-592.4462" font-family="Helvetica,sans-Serif" font-size="11.00" fill="#000000">56 &gt;</text>
</a>
</g>
</g>
<!-- file&#45;&gt;principal -->
<g id="edge23" class="edge">
<title>file:w&#45;&gt;principal:e</title>
<path fill="none" stroke="#000000" d="M290.1733,-568.4227C276.2039,-581.3226 280.0944,-614.3462 254.6762,-614.3462"/>
<polygon fill="#000000" stroke="#000000" points="296.6552,-566.0728 305.4032,-566.7306 300.4157,-564.7095 304.1762,-563.3462 304.1762,-563.3462 304.1762,-563.3462 300.4157,-564.7095 302.9492,-559.9617 296.6552,-566.0728 296.6552,-566.0728"/>
<ellipse fill="none" stroke="#000000" cx="293.6468" cy="-567.1635" rx="3.2" ry="3.2"/>
</g>
<!-- file&#45;&gt;principal -->
<g id="edge24" class="edge">
<title>file:w&#45;&gt;principal:e</title>
<path fill="none" stroke="#000000" d="M290.2695,-546.1359C272.3449,-562.3765 287.7513,-614.3462 254.6762,-614.3462"/>
<polygon fill="#000000" stroke="#000000" points="296.6123,-543.9514 305.3486,-544.75 300.3943,-542.6488 304.1762,-541.3462 304.1762,-541.3462 304.1762,-541.3462 300.3943,-542.6488 303.0039,-537.9424 296.6123,-543.9514 296.6123,-543.9514"/>
<ellipse fill="none" stroke="#000000" cx="293.5867" cy="-544.9934" rx="3.2" ry="3.2"/>
</g>
<!-- supplier&#45;&gt;file -->
<g id="edge39" class="edge">
<title>supplier:w&#45;&gt;file:e</title>
<path fill="none" stroke="#000000" d="M495.3135,-94.9129C479.9601,-101.4306 476.5725,-119.5827 467.6762,-140.3462 448.123,-185.9825 476.825,-585.3462 427.1762,-585.3462"/>
<polygon fill="#000000" stroke="#000000" points="501.801,-93.7536 510.3096,-95.89 505.7386,-93.0499 509.6762,-92.3462 509.6762,-92.3462 509.6762,-92.3462 505.7386,-93.0499 509.0429,-88.8023 501.801,-93.7536 501.801,-93.7536"/>
<ellipse fill="none" stroke="#000000" cx="498.6509" cy="-94.3166" rx="3.2" ry="3.2"/>
</g>
<!-- supplier&#45;&gt;principal -->
<g id="edge38" class="edge">
<title>supplier:w&#45;&gt;principal:e</title>
<path fill="none" stroke="#000000" d="M495.1637,-94.95C458.3116,-108.9443 415.2629,-186.0166 295.6762,-482.3462 272.6865,-539.3137 316.1077,-614.3462 254.6762,-614.3462"/>
<polygon fill="#000000" stroke="#000000" points="501.802,-93.759 510.312,-95.8896 505.7391,-93.0526 509.6762,-92.3462 509.6762,-92.3462 509.6762,-92.3462 505.7391,-93.0526 509.0405,-88.8028 501.802,-93.759 501.802,-93.759"/>
<ellipse fill="none" stroke="#000000" cx="498.6523" cy="-94.3242" rx="3.2" ry="3.2"/>
</g>
<!-- supplier&#45;&gt;principal -->
<g id="edge40" class="edge">
<title>supplier:w&#45;&gt;principal:e</title>
<path fill="none" stroke="#000000" d="M495.1849,-94.8723C458.7217,-108.5203 418.2465,-184.4417 295.6762,-486.3462 273.2053,-541.6946 314.4123,-614.3462 254.6762,-614.3462"/>
<polygon fill="#000000" stroke="#000000" points="501.7951,-93.72 510.2945,-95.8927 505.7357,-93.0331 509.6762,-92.3462 509.6762,-92.3462 509.6762,-92.3462 505.7357,-93.0331 509.058,-88.7997 501.7951,-93.72 501.7951,-93.72"/>
<ellipse fill="none" stroke="#000000" cx="498.6426" cy="-94.2696" rx="3.2" ry="3.2"/>
</g>
<!-- applicant_document -->
<g id="node6" class="node">
<title>applicant_document</title>
<g id="a_node6"><a xlink:href="../../tables/applicant_document.html" xlink:title="applicant_document" target="_top">
<polygon fill="#ffffff" stroke="transparent" points="873.6762,-584.3462 873.6762,-674.3462 1064.6762,-674.3462 1064.6762,-584.3462 873.6762,-584.3462"/>
<polygon fill="#f5f5f5" stroke="transparent" points="876.1762,-649.3462 876.1762,-672.3462 1063.1762,-672.3462 1063.1762,-649.3462 876.1762,-649.3462"/>
<polygon fill="none" stroke="#000000" points="876.1762,-649.3462 876.1762,-672.3462 1063.1762,-672.3462 1063.1762,-649.3462 876.1762,-649.3462"/>
<text text-anchor="start" x="881.1762" y="-658.4462" font-family="Helvetica,sans-Serif" font-weight="bold" font-size="11.00" fill="#000000">applicant_document</text>
<text text-anchor="start" x="1028.2199" y="-657.4462" font-family="Helvetica,sans-Serif" font-size="11.00" fill="#000000">[table]</text>
<polygon fill="#ffffff" stroke="transparent" points="876.1762,-627.3462 876.1762,-649.3462 1013.1762,-649.3462 1013.1762,-627.3462 876.1762,-627.3462"/>
<polygon fill="none" stroke="#000000" points="876.1762,-627.3462 876.1762,-649.3462 1013.1762,-649.3462 1013.1762,-627.3462 876.1762,-627.3462"/>
<image xlink:href="../../images/foreignKeys.png" width="11px" height="12px" preserveAspectRatio="xMinYMin meet" x="881.176" y="-644.346"/>
<text text-anchor="start" x="896.1762" y="-634.4462" font-family="Helvetica,sans-Serif" font-size="11.00" fill="#000000">applicant_id</text>
<polygon fill="none" stroke="#000000" points="1013.1762,-627.3462 1013.1762,-649.3462 1063.1762,-649.3462 1063.1762,-627.3462 1013.1762,-627.3462"/>
<text text-anchor="start" x="1015.8627" y="-635.0462" font-family="Helvetica,sans-Serif" font-size="11.00" fill="#000000">bigint[19]</text>
<polygon fill="#ffffff" stroke="transparent" points="876.1762,-605.3462 876.1762,-627.3462 1013.1762,-627.3462 1013.1762,-605.3462 876.1762,-605.3462"/>
<polygon fill="none" stroke="#000000" points="876.1762,-605.3462 876.1762,-627.3462 1013.1762,-627.3462 1013.1762,-605.3462 876.1762,-605.3462"/>
<image xlink:href="../../images/foreignKeys.png" width="11px" height="12px" preserveAspectRatio="xMinYMin meet" x="881.176" y="-622.346"/>
<text text-anchor="start" x="896.1762" y="-612.4462" font-family="Helvetica,sans-Serif" font-size="11.00" fill="#000000">file_id</text>
<polygon fill="none" stroke="#000000" points="1013.1762,-605.3462 1013.1762,-627.3462 1063.1762,-627.3462 1063.1762,-605.3462 1013.1762,-605.3462"/>
<text text-anchor="start" x="1015.8627" y="-613.0462" font-family="Helvetica,sans-Serif" font-size="11.00" fill="#000000">bigint[19]</text>
<polygon fill="#ffffff" stroke="transparent" points="876.1762,-586.3462 876.1762,-605.3462 933.1762,-605.3462 933.1762,-586.3462 876.1762,-586.3462"/>
<polygon fill="none" stroke="#000000" points="876.1762,-586.3462 876.1762,-605.3462 933.1762,-605.3462 933.1762,-586.3462 876.1762,-586.3462"/>
<text text-anchor="start" x="879.1762" y="-592.4462" font-family="Helvetica,sans-Serif" font-size="11.00" fill="#000000">&lt; 2</text>
<polygon fill="#ffffff" stroke="transparent" points="933.1762,-586.3462 933.1762,-605.3462 1013.1762,-605.3462 1013.1762,-586.3462 933.1762,-586.3462"/>
<polygon fill="none" stroke="#000000" points="933.1762,-586.3462 933.1762,-605.3462 1013.1762,-605.3462 1013.1762,-586.3462 933.1762,-586.3462"/>
<text text-anchor="start" x="971.6718" y="-592.4462" font-family="Helvetica,sans-Serif" font-size="11.00" fill="#000000">91 rows</text>
<polygon fill="#ffffff" stroke="transparent" points="1013.1762,-586.3462 1013.1762,-605.3462 1063.1762,-605.3462 1063.1762,-586.3462 1013.1762,-586.3462"/>
<polygon fill="none" stroke="#000000" points="1013.1762,-586.3462 1013.1762,-605.3462 1063.1762,-605.3462 1063.1762,-586.3462 1013.1762,-586.3462"/>
<text text-anchor="start" x="1044.5815" y="-592.4462" font-family="Helvetica,sans-Serif" font-size="11.00" fill="#000000">0 &gt;</text>
<polygon fill="none" stroke="#000000" stroke-width="2" points="874.6762,-585.3462 874.6762,-673.3462 1063.6762,-673.3462 1063.6762,-585.3462 874.6762,-585.3462"/>
</a>
</g>
</g>
<!-- applicant_document&#45;&gt;applicant -->
<g id="edge5" class="edge">
<title>applicant_document:w&#45;&gt;applicant:e</title>
<path fill="none" stroke="#000000" d="M861.5486,-636.3273C792.5491,-614.3502 918.5931,-420.3462 824.6762,-420.3462"/>
<polygon fill="#000000" stroke="#000000" points="868.2514,-637.2523 875.684,-641.9124 872.2138,-637.7993 876.1762,-638.3462 876.1762,-638.3462 876.1762,-638.3462 872.2138,-637.7993 876.6685,-634.78 868.2514,-637.2523 868.2514,-637.2523"/>
<ellipse fill="none" stroke="#000000" cx="865.0814" cy="-636.8148" rx="3.2" ry="3.2"/>
</g>
<!-- applicant_document&#45;&gt;file -->
<g id="edge6" class="edge">
<title>applicant_document:w&#45;&gt;file:e</title>
<path fill="none" stroke="#000000" d="M861.5731,-616.6977C762.3691,-621.0622 546.7067,-664.015 467.6762,-629.3462 443.3366,-618.669 453.7548,-585.3462 427.1762,-585.3462"/>
<polygon fill="#000000" stroke="#000000" points="868.1786,-616.5388 876.2629,-619.9451 872.1774,-616.4425 876.1762,-616.3462 876.1762,-616.3462 876.1762,-616.3462 872.1774,-616.4425 876.0896,-612.7472 868.1786,-616.5388 868.1786,-616.5388"/>
<ellipse fill="none" stroke="#000000" cx="864.9795" cy="-616.6158" rx="3.2" ry="3.2"/>
</g>
<!-- applicant_language -->
<g id="node7" class="node">
<title>applicant_language</title>
<g id="a_node7"><a xlink:href="../../tables/applicant_language.html" xlink:title="applicant_language" target="_top">
<polygon fill="#ffffff" stroke="transparent" points="900.1762,-310.8462 900.1762,-371.8462 1038.1762,-371.8462 1038.1762,-310.8462 900.1762,-310.8462"/>
<polygon fill="#f5f5f5" stroke="transparent" points="900.1762,-348.3462 900.1762,-371.3462 1038.1762,-371.3462 1038.1762,-348.3462 900.1762,-348.3462"/>
<polygon fill="none" stroke="#000000" points="900.1762,-348.3462 900.1762,-371.3462 1038.1762,-371.3462 1038.1762,-348.3462 900.1762,-348.3462"/>
<text text-anchor="start" x="904.9896" y="-357.4462" font-family="Helvetica,sans-Serif" font-weight="bold" font-size="11.00" fill="#000000">applicant_language</text>
<text text-anchor="start" x="1003.6981" y="-356.4462" font-family="Helvetica,sans-Serif" font-size="11.00" fill="#000000">[table]</text>
<polygon fill="none" stroke="#000000" points="900.1762,-329.3462 900.1762,-348.3462 1038.1762,-348.3462 1038.1762,-329.3462 900.1762,-329.3462"/>
<text text-anchor="start" x="903.1762" y="-335.4462" font-family="Helvetica,sans-Serif" font-size="11.00" fill="#000000">...</text>
<polygon fill="#ffffff" stroke="transparent" points="900.1762,-310.3462 900.1762,-329.3462 948.1762,-329.3462 948.1762,-310.3462 900.1762,-310.3462"/>
<polygon fill="none" stroke="#000000" points="900.1762,-310.3462 900.1762,-329.3462 948.1762,-329.3462 948.1762,-310.3462 900.1762,-310.3462"/>
<text text-anchor="start" x="903.1762" y="-316.4462" font-family="Helvetica,sans-Serif" font-size="11.00" fill="#000000">&lt; 1</text>
<polygon fill="#ffffff" stroke="transparent" points="948.1762,-310.3462 948.1762,-329.3462 1012.1762,-329.3462 1012.1762,-310.3462 948.1762,-310.3462"/>
<polygon fill="none" stroke="#000000" points="948.1762,-310.3462 948.1762,-329.3462 1012.1762,-329.3462 1012.1762,-310.3462 948.1762,-310.3462"/>
<text text-anchor="start" x="964.5569" y="-316.4462" font-family="Helvetica,sans-Serif" font-size="11.00" fill="#000000">181 rows</text>
<polygon fill="#ffffff" stroke="transparent" points="1012.1762,-310.3462 1012.1762,-329.3462 1038.1762,-329.3462 1038.1762,-310.3462 1012.1762,-310.3462"/>
<polygon fill="none" stroke="#000000" points="1012.1762,-310.3462 1012.1762,-329.3462 1038.1762,-329.3462 1038.1762,-310.3462 1012.1762,-310.3462"/>
<text text-anchor="start" x="1029.0624" y="-316.4462" font-family="Helvetica,sans-Serif" font-size="11.00" fill="#000000"> &#160;</text>
</a>
</g>
</g>
<!-- applicant_language&#45;&gt;applicant -->
<g id="edge7" class="edge">
<title>applicant_language:w&#45;&gt;applicant:e</title>
<path fill="none" stroke="#000000" d="M885.9429,-341.2646C855.0405,-355.872 868.6039,-420.3462 824.6762,-420.3462"/>
<polygon fill="#000000" stroke="#000000" points="892.3393,-339.9531 900.8994,-341.8728 896.2578,-339.1497 900.1762,-338.3462 900.1762,-338.3462 900.1762,-338.3462 896.2578,-339.1497 899.4531,-334.8196 892.3393,-339.9531 892.3393,-339.9531"/>
<ellipse fill="none" stroke="#000000" cx="889.2045" cy="-340.5959" rx="3.2" ry="3.2"/>
</g>
<!-- applicant_role -->
<g id="node8" class="node">
<title>applicant_role</title>
<g id="a_node8"><a xlink:href="../../tables/applicant_role.html" xlink:title="applicant_role" target="_top">
<polygon fill="#ffffff" stroke="transparent" points="913.6762,-474.8462 913.6762,-535.8462 1024.6762,-535.8462 1024.6762,-474.8462 913.6762,-474.8462"/>
<polygon fill="#f5f5f5" stroke="transparent" points="914.1762,-512.3462 914.1762,-535.3462 1025.1762,-535.3462 1025.1762,-512.3462 914.1762,-512.3462"/>
<polygon fill="none" stroke="#000000" points="914.1762,-512.3462 914.1762,-535.3462 1025.1762,-535.3462 1025.1762,-512.3462 914.1762,-512.3462"/>
<text text-anchor="start" x="918.9459" y="-521.4462" font-family="Helvetica,sans-Serif" font-weight="bold" font-size="11.00" fill="#000000">applicant_role</text>
<text text-anchor="start" x="990.6981" y="-520.4462" font-family="Helvetica,sans-Serif" font-size="11.00" fill="#000000">[table]</text>
<polygon fill="none" stroke="#000000" points="914.1762,-493.3462 914.1762,-512.3462 1025.1762,-512.3462 1025.1762,-493.3462 914.1762,-493.3462"/>
<text text-anchor="start" x="917.1762" y="-499.4462" font-family="Helvetica,sans-Serif" font-size="11.00" fill="#000000">...</text>
<polygon fill="#ffffff" stroke="transparent" points="914.1762,-474.3462 914.1762,-493.3462 952.1762,-493.3462 952.1762,-474.3462 914.1762,-474.3462"/>
<polygon fill="none" stroke="#000000" points="914.1762,-474.3462 914.1762,-493.3462 952.1762,-493.3462 952.1762,-474.3462 914.1762,-474.3462"/>
<text text-anchor="start" x="917.1762" y="-480.4462" font-family="Helvetica,sans-Serif" font-size="11.00" fill="#000000">&lt; 2</text>
<polygon fill="#ffffff" stroke="transparent" points="952.1762,-474.3462 952.1762,-493.3462 1004.1762,-493.3462 1004.1762,-474.3462 952.1762,-474.3462"/>
<polygon fill="none" stroke="#000000" points="952.1762,-474.3462 952.1762,-493.3462 1004.1762,-493.3462 1004.1762,-474.3462 952.1762,-474.3462"/>
<text text-anchor="start" x="962.6718" y="-480.4462" font-family="Helvetica,sans-Serif" font-size="11.00" fill="#000000">91 rows</text>
<polygon fill="#ffffff" stroke="transparent" points="1004.1762,-474.3462 1004.1762,-493.3462 1025.1762,-493.3462 1025.1762,-474.3462 1004.1762,-474.3462"/>
<polygon fill="none" stroke="#000000" points="1004.1762,-474.3462 1004.1762,-493.3462 1025.1762,-493.3462 1025.1762,-474.3462 1004.1762,-474.3462"/>
<text text-anchor="start" x="1016.0624" y="-480.4462" font-family="Helvetica,sans-Serif" font-size="11.00" fill="#000000"> &#160;</text>
</a>
</g>
</g>
<!-- applicant_role&#45;&gt;applicant -->
<g id="edge8" class="edge">
<title>applicant_role:w&#45;&gt;applicant:e</title>
<path fill="none" stroke="#000000" d="M899.9482,-499.9375C885.539,-494.1701 881.5942,-478.958 865.6762,-464.3462 845.9849,-446.2707 851.4058,-420.3462 824.6762,-420.3462"/>
<polygon fill="#000000" stroke="#000000" points="906.2885,-501.0108 913.5753,-505.8957 910.2324,-501.6785 914.1762,-502.3462 914.1762,-502.3462 914.1762,-502.3462 910.2324,-501.6785 914.7771,-498.7967 906.2885,-501.0108 906.2885,-501.0108"/>
<ellipse fill="none" stroke="#000000" cx="903.1334" cy="-500.4767" rx="3.2" ry="3.2"/>
</g>
<!-- applicant_skill -->
<g id="node9" class="node">
<title>applicant_skill</title>
<g id="a_node9"><a xlink:href="../../tables/applicant_skill.html" xlink:title="applicant_skill" target="_top">
<polygon fill="#ffffff" stroke="transparent" points="913.6762,-392.8462 913.6762,-453.8462 1024.6762,-453.8462 1024.6762,-392.8462 913.6762,-392.8462"/>
<polygon fill="#f5f5f5" stroke="transparent" points="914.1762,-430.3462 914.1762,-453.3462 1025.1762,-453.3462 1025.1762,-430.3462 914.1762,-430.3462"/>
<polygon fill="none" stroke="#000000" points="914.1762,-430.3462 914.1762,-453.3462 1025.1762,-453.3462 1025.1762,-430.3462 914.1762,-430.3462"/>
<text text-anchor="start" x="918.9508" y="-439.4462" font-family="Helvetica,sans-Serif" font-weight="bold" font-size="11.00" fill="#000000">applicant_skill</text>
<text text-anchor="start" x="990.6981" y="-438.4462" font-family="Helvetica,sans-Serif" font-size="11.00" fill="#000000">[table]</text>
<polygon fill="none" stroke="#000000" points="914.1762,-411.3462 914.1762,-430.3462 1025.1762,-430.3462 1025.1762,-411.3462 914.1762,-411.3462"/>
<text text-anchor="start" x="917.1762" y="-417.4462" font-family="Helvetica,sans-Serif" font-size="11.00" fill="#000000">...</text>
<polygon fill="#ffffff" stroke="transparent" points="914.1762,-392.3462 914.1762,-411.3462 949.1762,-411.3462 949.1762,-392.3462 914.1762,-392.3462"/>
<polygon fill="none" stroke="#000000" points="914.1762,-392.3462 914.1762,-411.3462 949.1762,-411.3462 949.1762,-392.3462 914.1762,-392.3462"/>
<text text-anchor="start" x="917.1762" y="-398.4462" font-family="Helvetica,sans-Serif" font-size="11.00" fill="#000000">&lt; 2</text>
<polygon fill="#ffffff" stroke="transparent" points="949.1762,-392.3462 949.1762,-411.3462 1006.1762,-411.3462 1006.1762,-392.3462 949.1762,-392.3462"/>
<polygon fill="none" stroke="#000000" points="949.1762,-392.3462 949.1762,-411.3462 1006.1762,-411.3462 1006.1762,-392.3462 949.1762,-392.3462"/>
<text text-anchor="start" x="958.5569" y="-398.4462" font-family="Helvetica,sans-Serif" font-size="11.00" fill="#000000">181 rows</text>
<polygon fill="#ffffff" stroke="transparent" points="1006.1762,-392.3462 1006.1762,-411.3462 1025.1762,-411.3462 1025.1762,-392.3462 1006.1762,-392.3462"/>
<polygon fill="none" stroke="#000000" points="1006.1762,-392.3462 1006.1762,-411.3462 1025.1762,-411.3462 1025.1762,-392.3462 1006.1762,-392.3462"/>
<text text-anchor="start" x="1016.0624" y="-398.4462" font-family="Helvetica,sans-Serif" font-size="11.00" fill="#000000"> &#160;</text>
</a>
</g>
</g>
<!-- applicant_skill&#45;&gt;applicant -->
<g id="edge9" class="edge">
<title>applicant_skill:w&#45;&gt;applicant:e</title>
<path fill="none" stroke="#000000" d="M899.7662,-420.3462C871.2307,-420.3462 859.171,-420.3462 824.6762,-420.3462"/>
<polygon fill="#000000" stroke="#000000" points="906.1762,-420.3462 914.1763,-423.9462 910.1762,-420.3462 914.1762,-420.3462 914.1762,-420.3462 914.1762,-420.3462 910.1762,-420.3462 914.1762,-416.7462 906.1762,-420.3462 906.1762,-420.3462"/>
<ellipse fill="none" stroke="#000000" cx="902.9762" cy="-420.3463" rx="3.2" ry="3.2"/>
</g>
<!-- client -->
<g id="node10" class="node">
<title>client</title>
<g id="a_node10"><a xlink:href="../../tables/client.html" xlink:title="client" target="_top">
<polygon fill="#ffffff" stroke="transparent" points="509.6762,-733.8462 509.6762,-794.8462 601.6762,-794.8462 601.6762,-733.8462 509.6762,-733.8462"/>
<polygon fill="#f5f5f5" stroke="transparent" points="509.6762,-771.3462 509.6762,-794.3462 601.6762,-794.3462 601.6762,-771.3462 509.6762,-771.3462"/>
<polygon fill="none" stroke="#000000" points="509.6762,-771.3462 509.6762,-794.3462 601.6762,-794.3462 601.6762,-771.3462 509.6762,-771.3462"/>
<text text-anchor="start" x="514.6762" y="-780.4462" font-family="Helvetica,sans-Serif" font-weight="bold" font-size="11.00" fill="#000000">client</text>
<text text-anchor="start" x="566.7199" y="-779.4462" font-family="Helvetica,sans-Serif" font-size="11.00" fill="#000000">[table]</text>
<polygon fill="none" stroke="#000000" points="509.6762,-752.3462 509.6762,-771.3462 601.6762,-771.3462 601.6762,-752.3462 509.6762,-752.3462"/>
<text text-anchor="start" x="512.6762" y="-758.4462" font-family="Helvetica,sans-Serif" font-size="11.00" fill="#000000">...</text>
<polygon fill="#ffffff" stroke="transparent" points="509.6762,-733.3462 509.6762,-752.3462 530.6762,-752.3462 530.6762,-733.3462 509.6762,-733.3462"/>
<polygon fill="none" stroke="#000000" points="509.6762,-733.3462 509.6762,-752.3462 530.6762,-752.3462 530.6762,-733.3462 509.6762,-733.3462"/>
<text text-anchor="start" x="512.3789" y="-739.4462" font-family="Helvetica,sans-Serif" font-size="11.00" fill="#000000">&lt; 9</text>
<polygon fill="#ffffff" stroke="transparent" points="530.6762,-733.3462 530.6762,-752.3462 580.6762,-752.3462 580.6762,-733.3462 530.6762,-733.3462"/>
<polygon fill="none" stroke="#000000" points="530.6762,-733.3462 530.6762,-752.3462 580.6762,-752.3462 580.6762,-733.3462 530.6762,-733.3462"/>
<text text-anchor="start" x="533.3666" y="-739.4462" font-family="Helvetica,sans-Serif" font-size="11.00" fill="#000000">647 rows</text>
<polygon fill="#ffffff" stroke="transparent" points="580.6762,-733.3462 580.6762,-752.3462 601.6762,-752.3462 601.6762,-733.3462 580.6762,-733.3462"/>
<polygon fill="none" stroke="#000000" points="580.6762,-733.3462 580.6762,-752.3462 601.6762,-752.3462 601.6762,-733.3462 580.6762,-733.3462"/>
<text text-anchor="start" x="583.3789" y="-739.4462" font-family="Helvetica,sans-Serif" font-size="11.00" fill="#000000">7 &gt;</text>
</a>
</g>
</g>
<!-- client&#45;&gt;file -->
<g id="edge10" class="edge">
<title>client:w&#45;&gt;file:e</title>
<path fill="none" stroke="#000000" d="M495.3574,-758.7255C473.0134,-748.694 482.4734,-711.7228 467.6762,-680.3462 448.0983,-638.8321 473.0752,-585.3462 427.1762,-585.3462"/>
<polygon fill="#000000" stroke="#000000" points="501.807,-759.9059 509.0281,-764.8874 505.7416,-760.626 509.6762,-761.3462 509.6762,-761.3462 509.6762,-761.3462 505.7416,-760.626 510.3244,-757.805 501.807,-759.9059 501.807,-759.9059"/>
<ellipse fill="none" stroke="#000000" cx="498.6592" cy="-759.3297" rx="3.2" ry="3.2"/>
</g>
<!-- eworker -->
<g id="node11" class="node">
<title>eworker</title>
<g id="a_node11"><a xlink:href="../../tables/eworker.html" xlink:title="eworker" target="_top">
<polygon fill="#ffffff" stroke="transparent" points="21.6762,-644.8462 21.6762,-705.8462 113.6762,-705.8462 113.6762,-644.8462 21.6762,-644.8462"/>
<polygon fill="#f5f5f5" stroke="transparent" points="21.6762,-682.3462 21.6762,-705.3462 113.6762,-705.3462 113.6762,-682.3462 21.6762,-682.3462"/>
<polygon fill="none" stroke="#000000" points="21.6762,-682.3462 21.6762,-705.3462 113.6762,-705.3462 113.6762,-682.3462 21.6762,-682.3462"/>
<text text-anchor="start" x="26.6762" y="-691.4462" font-family="Helvetica,sans-Serif" font-weight="bold" font-size="11.00" fill="#000000">eworker</text>
<text text-anchor="start" x="78.7199" y="-690.4462" font-family="Helvetica,sans-Serif" font-size="11.00" fill="#000000">[table]</text>
<polygon fill="none" stroke="#000000" points="21.6762,-663.3462 21.6762,-682.3462 113.6762,-682.3462 113.6762,-663.3462 21.6762,-663.3462"/>
<text text-anchor="start" x="24.6762" y="-669.4462" font-family="Helvetica,sans-Serif" font-size="11.00" fill="#000000">...</text>
<polygon fill="#ffffff" stroke="transparent" points="21.6762,-644.3462 21.6762,-663.3462 42.6762,-663.3462 42.6762,-644.3462 21.6762,-644.3462"/>
<polygon fill="none" stroke="#000000" points="21.6762,-644.3462 21.6762,-663.3462 42.6762,-663.3462 42.6762,-644.3462 21.6762,-644.3462"/>
<text text-anchor="start" x="24.3789" y="-650.4462" font-family="Helvetica,sans-Serif" font-size="11.00" fill="#000000">&lt; 4</text>
<polygon fill="#ffffff" stroke="transparent" points="42.6762,-644.3462 42.6762,-663.3462 92.6762,-663.3462 92.6762,-644.3462 42.6762,-644.3462"/>
<polygon fill="none" stroke="#000000" points="42.6762,-644.3462 42.6762,-663.3462 92.6762,-663.3462 92.6762,-644.3462 42.6762,-644.3462"/>
<text text-anchor="start" x="45.3666" y="-650.4462" font-family="Helvetica,sans-Serif" font-size="11.00" fill="#000000">347 rows</text>
<polygon fill="#ffffff" stroke="transparent" points="92.6762,-644.3462 92.6762,-663.3462 113.6762,-663.3462 113.6762,-644.3462 92.6762,-644.3462"/>
<polygon fill="none" stroke="#000000" points="92.6762,-644.3462 92.6762,-663.3462 113.6762,-663.3462 113.6762,-644.3462 92.6762,-644.3462"/>
<text text-anchor="start" x="95.3789" y="-650.4462" font-family="Helvetica,sans-Serif" font-size="11.00" fill="#000000">9 &gt;</text>
</a>
</g>
</g>
<!-- client&#45;&gt;eworker -->
<g id="edge11" class="edge">
<title>client:w&#45;&gt;eworker:e</title>
<path fill="none" stroke="#000000" d="M495.0425,-761.2589C410.7715,-760.2129 384.4574,-749.7568 295.6762,-729.3462 275.0242,-724.5983 134.867,-672.3462 113.6762,-672.3462"/>
<polygon fill="#000000" stroke="#000000" points="501.6764,-761.2984 509.6547,-764.9461 505.6763,-761.3223 509.6762,-761.3462 509.6762,-761.3462 509.6762,-761.3462 505.6763,-761.3223 509.6977,-757.7462 501.6764,-761.2984 501.6764,-761.2984"/>
<ellipse fill="none" stroke="#000000" cx="498.4764" cy="-761.2793" rx="3.2" ry="3.2"/>
</g>
<!-- client&#45;&gt;eworker -->
<g id="edge12" class="edge">
<title>client:w&#45;&gt;eworker:e</title>
<path fill="none" stroke="#000000" d="M495.2666,-760.3466C410.6035,-753.8284 384.8263,-739.7521 295.6762,-719.3462 254.6137,-709.9472 155.8007,-666.3462 113.6762,-672.3462"/>
<polygon fill="#000000" stroke="#000000" points="501.6954,-760.7925 509.4271,-764.9376 505.6858,-761.0693 509.6762,-761.3462 509.6762,-761.3462 509.6762,-761.3462 505.6858,-761.0693 509.9254,-757.7548 501.6954,-760.7925 501.6954,-760.7925"/>
<ellipse fill="none" stroke="#000000" cx="498.5031" cy="-760.571" rx="3.2" ry="3.2"/>
</g>
<!-- client&#45;&gt;eworker -->
<g id="edge15" class="edge">
<title>client:w&#45;&gt;eworker:e</title>
<path fill="none" stroke="#000000" d="M495.2666,-762.2625C410.6035,-766.8284 384.8263,-752.7521 295.6762,-732.3462 254.6137,-722.9472 155.8007,-679.3462 113.6762,-672.3462"/>
<polygon fill="#000000" stroke="#000000" points="501.6924,-761.8539 509.9047,-764.9389 505.6843,-761.6 509.6762,-761.3462 509.6762,-761.3462 509.6762,-761.3462 505.6843,-761.6 509.4478,-757.7534 501.6924,-761.8539 501.6924,-761.8539"/>
<ellipse fill="none" stroke="#000000" cx="498.4988" cy="-762.057" rx="3.2" ry="3.2"/>
</g>
<!-- client&#45;&gt;principal -->
<g id="edge13" class="edge">
<title>client:w&#45;&gt;principal:e</title>
<path fill="none" stroke="#000000" d="M495.5111,-757.617C448.2221,-743.888 299.7484,-696.7753 295.6762,-693.3462 265.4173,-667.8661 294.2343,-614.3462 254.6762,-614.3462"/>
<polygon fill="#000000" stroke="#000000" points="501.9398,-759.3094 508.7597,-764.8276 505.808,-760.3278 509.6762,-761.3462 509.6762,-761.3462 509.6762,-761.3462 505.808,-760.3278 510.5928,-757.8648 501.9398,-759.3094 501.9398,-759.3094"/>
<ellipse fill="none" stroke="#000000" cx="498.8453" cy="-758.4948" rx="3.2" ry="3.2"/>
</g>
<!-- client&#45;&gt;principal -->
<g id="edge14" class="edge">
<title>client:w&#45;&gt;principal:e</title>
<path fill="none" stroke="#000000" d="M495.4009,-758.0668C448.0818,-744.9064 303.9757,-696.3018 295.6762,-689.3462 266.5604,-664.9448 292.6652,-614.3462 254.6762,-614.3462"/>
<polygon fill="#000000" stroke="#000000" points="501.8793,-759.555 508.8702,-764.8548 505.7778,-760.4506 509.6762,-761.3462 509.6762,-761.3462 509.6762,-761.3462 505.7778,-760.4506 510.4823,-757.8376 501.8793,-759.555 501.8793,-759.555"/>
<ellipse fill="none" stroke="#000000" cx="498.7606" cy="-758.8385" rx="3.2" ry="3.2"/>
</g>
<!-- eworker&#45;&gt;file -->
<g id="edge20" class="edge">
<title>eworker:w&#45;&gt;file:e</title>
<path fill="none" stroke="#000000" d="M7.7152,-668.5391C-12.9974,-655.0165 4.2411,-611.6347 121.6762,-640.8462 137.7867,-644.8536 138.5658,-654.3388 154.6762,-658.3462 273.1441,-687.8145 350.2217,-718.6144 427.1762,-623.8462 437.9626,-610.563 444.2874,-585.3462 427.1762,-585.3462"/>
<polygon fill="#000000" stroke="#000000" points="13.9581,-670.2415 20.7291,-675.8194 17.8171,-671.2938 21.6762,-672.3462 21.6762,-672.3462 21.6762,-672.3462 17.8171,-671.2938 22.6234,-668.873 13.9581,-670.2415 13.9581,-670.2415"/>
<ellipse fill="none" stroke="#000000" cx="10.8708" cy="-669.3996" rx="3.2" ry="3.2"/>
</g>
<!-- eworker&#45;&gt;principal -->
<g id="edge21" class="edge">
<title>eworker:w&#45;&gt;principal:e</title>
<path fill="none" stroke="#000000" d="M13.4445,-660.3065C12.8261,-652.1192 17.0024,-641.9833 21.6762,-634.8462 57.0052,-580.8973 91.5473,-590.0124 154.6762,-576.8462 154.6762,-576.8462 254.6762,-608.3462 254.6762,-614.3462"/>
<polygon fill="#000000" stroke="#000000" points="17.161,-665.7422 18.7044,-674.3781 19.4186,-669.0442 21.6762,-672.3462 21.6762,-672.3462 21.6762,-672.3462 19.4186,-669.0442 24.648,-670.3143 17.161,-665.7422 17.161,-665.7422"/>
<ellipse fill="none" stroke="#000000" cx="15.3548" cy="-663.1006" rx="3.2" ry="3.2"/>
</g>
<!-- eworker&#45;&gt;principal -->
<g id="edge22" class="edge">
<title>eworker:w&#45;&gt;principal:e</title>
<path fill="none" stroke="#000000" d="M15.8196,-659.1851C17.3541,-655.292 19.4592,-651.2317 21.6762,-647.8462 57.0052,-593.8973 91.5473,-603.0124 154.6762,-589.8462 154.6762,-589.8462 254.6762,-621.3462 254.6762,-614.3462"/>
<polygon fill="#000000" stroke="#000000" points="18.4237,-665.0372 18.3872,-673.8098 20.05,-668.6917 21.6762,-672.3462 21.6762,-672.3462 21.6762,-672.3462 20.05,-668.6917 24.9653,-670.8825 18.4237,-665.0372 18.4237,-665.0372"/>
<ellipse fill="none" stroke="#000000" cx="17.1227" cy="-662.1136" rx="3.2" ry="3.2"/>
</g>
<!-- principal&#45;&gt;eworker -->
<g id="edge37" class="edge">
<title>principal:w&#45;&gt;eworker:e</title>
<path fill="none" stroke="#000000" d="M148.9389,-619.2912C133.8893,-633.3173 141.3582,-672.3462 113.6762,-672.3462"/>
<polygon fill="#000000" stroke="#000000" points="155.1491,-617.0558 163.8956,-617.7334 158.9127,-615.701 162.6762,-614.3462 162.6762,-614.3462 162.6762,-614.3462 158.9127,-615.701 161.4569,-610.959 155.1491,-617.0558 155.1491,-617.0558"/>
<ellipse fill="none" stroke="#000000" cx="152.1382" cy="-618.1396" rx="3.2" ry="3.2"/>
</g>
<!-- client_contact -->
<g id="node13" class="node">
<title>client_contact</title>
<g id="a_node13"><a xlink:href="../../tables/client_contact.html" xlink:title="client_contact" target="_top">
<polygon fill="#ffffff" stroke="transparent" points="699.6762,-675.8462 699.6762,-736.8462 809.6762,-736.8462 809.6762,-675.8462 699.6762,-675.8462"/>
<polygon fill="#f5f5f5" stroke="transparent" points="699.6762,-713.3462 699.6762,-736.3462 809.6762,-736.3462 809.6762,-713.3462 699.6762,-713.3462"/>
<polygon fill="none" stroke="#000000" points="699.6762,-713.3462 699.6762,-736.3462 809.6762,-736.3462 809.6762,-713.3462 699.6762,-713.3462"/>
<text text-anchor="start" x="704.5553" y="-722.4462" font-family="Helvetica,sans-Serif" font-weight="bold" font-size="11.00" fill="#000000">client_contact</text>
<text text-anchor="start" x="775.1981" y="-721.4462" font-family="Helvetica,sans-Serif" font-size="11.00" fill="#000000">[table]</text>
<polygon fill="none" stroke="#000000" points="699.6762,-694.3462 699.6762,-713.3462 809.6762,-713.3462 809.6762,-694.3462 699.6762,-694.3462"/>
<text text-anchor="start" x="702.6762" y="-700.4462" font-family="Helvetica,sans-Serif" font-size="11.00" fill="#000000">...</text>
<polygon fill="#ffffff" stroke="transparent" points="699.6762,-675.3462 699.6762,-694.3462 729.6762,-694.3462 729.6762,-675.3462 699.6762,-675.3462"/>
<polygon fill="none" stroke="#000000" points="699.6762,-675.3462 699.6762,-694.3462 729.6762,-694.3462 729.6762,-675.3462 699.6762,-675.3462"/>
<text text-anchor="start" x="702.6762" y="-681.4462" font-family="Helvetica,sans-Serif" font-size="11.00" fill="#000000">&lt; 4</text>
<polygon fill="#ffffff" stroke="transparent" points="729.6762,-675.3462 729.6762,-694.3462 783.6762,-694.3462 783.6762,-675.3462 729.6762,-675.3462"/>
<polygon fill="none" stroke="#000000" points="729.6762,-675.3462 729.6762,-694.3462 783.6762,-694.3462 783.6762,-675.3462 729.6762,-675.3462"/>
<text text-anchor="start" x="736.0569" y="-681.4462" font-family="Helvetica,sans-Serif" font-size="11.00" fill="#000000">561 rows</text>
<polygon fill="#ffffff" stroke="transparent" points="783.6762,-675.3462 783.6762,-694.3462 809.6762,-694.3462 809.6762,-675.3462 783.6762,-675.3462"/>
<polygon fill="none" stroke="#000000" points="783.6762,-675.3462 783.6762,-694.3462 809.6762,-694.3462 809.6762,-675.3462 783.6762,-675.3462"/>
<text text-anchor="start" x="791.0815" y="-681.4462" font-family="Helvetica,sans-Serif" font-size="11.00" fill="#000000">2 &gt;</text>
</a>
</g>
</g>
<!-- client_contact&#45;&gt;file -->
<g id="edge16" class="edge">
<title>client_contact:w&#45;&gt;file:e</title>
<path fill="none" stroke="#000000" d="M685.2651,-702.059C670.6622,-699.1681 663.345,-692.0463 643.6762,-687.3462 566.1895,-668.8296 532.8744,-699.1311 467.6762,-653.3462 438.8889,-633.1305 462.3527,-585.3462 427.1762,-585.3462"/>
<polygon fill="#000000" stroke="#000000" points="691.708,-702.6344 699.3559,-706.9319 695.6921,-702.9903 699.6762,-703.3462 699.6762,-703.3462 699.6762,-703.3462 695.6921,-702.9903 699.9965,-699.7605 691.708,-702.6344 691.708,-702.6344"/>
<ellipse fill="none" stroke="#000000" cx="688.5207" cy="-702.3497" rx="3.2" ry="3.2"/>
</g>
<!-- client_contact&#45;&gt;client -->
<g id="edge17" class="edge">
<title>client_contact:w&#45;&gt;client:e</title>
<path fill="none" stroke="#000000" d="M685.3325,-705.1456C649.1454,-714.9354 646.9503,-761.3462 601.6762,-761.3462"/>
<polygon fill="#000000" stroke="#000000" points="691.7385,-704.342 700.1244,-706.9182 695.7073,-703.8441 699.6762,-703.3462 699.6762,-703.3462 699.6762,-703.3462 695.7073,-703.8441 699.2281,-699.7742 691.7385,-704.342 691.7385,-704.342"/>
<ellipse fill="none" stroke="#000000" cx="688.5633" cy="-704.7404" rx="3.2" ry="3.2"/>
</g>
<!-- client_contact&#45;&gt;principal -->
<g id="edge18" class="edge">
<title>client_contact:w&#45;&gt;principal:e</title>
<path fill="none" stroke="#000000" d="M685.2601,-703.3146C514.504,-702.5456 463.8027,-687.4615 295.6762,-630.3462 277.1552,-624.0543 274.2368,-614.3462 254.6762,-614.3462"/>
<polygon fill="#000000" stroke="#000000" points="691.6763,-703.3286 699.6683,-706.9462 695.6762,-703.3374 699.6762,-703.3462 699.6762,-703.3462 699.6762,-703.3462 695.6762,-703.3374 699.6841,-699.7462 691.6763,-703.3286 691.6763,-703.3286"/>
<ellipse fill="none" stroke="#000000" cx="688.4763" cy="-703.3216" rx="3.2" ry="3.2"/>
</g>
<!-- client_contact&#45;&gt;principal -->
<g id="edge19" class="edge">
<title>client_contact:w&#45;&gt;principal:e</title>
<path fill="none" stroke="#000000" d="M685.024,-703.32C593.2254,-702.9692 564.3177,-698.8996 467.6762,-679.3462 464.6447,-678.7328 257.7693,-614.3462 254.6762,-614.3462"/>
<polygon fill="#000000" stroke="#000000" points="691.6763,-703.3318 699.6698,-706.9462 695.6762,-703.339 699.6762,-703.3462 699.6762,-703.3462 699.6762,-703.3462 695.6762,-703.339 699.6827,-699.7462 691.6763,-703.3318 691.6763,-703.3318"/>
<ellipse fill="none" stroke="#000000" cx="688.4763" cy="-703.3261" rx="3.2" ry="3.2"/>
</g>
<!-- file_preview -->
<g id="node14" class="node">
<title>file_preview</title>
<g id="a_node14"><a xlink:href="../../tables/file_preview.html" xlink:title="file_preview" target="_top">
<polygon fill="#ffffff" stroke="transparent" points="505.1762,-557.8462 505.1762,-618.8462 606.1762,-618.8462 606.1762,-557.8462 505.1762,-557.8462"/>
<polygon fill="#f5f5f5" stroke="transparent" points="505.6762,-595.3462 505.6762,-618.3462 606.6762,-618.3462 606.6762,-595.3462 505.6762,-595.3462"/>
<polygon fill="none" stroke="#000000" points="505.6762,-595.3462 505.6762,-618.3462 606.6762,-618.3462 606.6762,-595.3462 505.6762,-595.3462"/>
<text text-anchor="start" x="510.6478" y="-604.4462" font-family="Helvetica,sans-Serif" font-weight="bold" font-size="11.00" fill="#000000">file_preview</text>
<text text-anchor="start" x="572.1981" y="-603.4462" font-family="Helvetica,sans-Serif" font-size="11.00" fill="#000000">[table]</text>
<polygon fill="none" stroke="#000000" points="505.6762,-576.3462 505.6762,-595.3462 606.6762,-595.3462 606.6762,-576.3462 505.6762,-576.3462"/>
<text text-anchor="start" x="508.6762" y="-582.4462" font-family="Helvetica,sans-Serif" font-size="11.00" fill="#000000">...</text>
<polygon fill="#ffffff" stroke="transparent" points="505.6762,-557.3462 505.6762,-576.3462 541.6762,-576.3462 541.6762,-557.3462 505.6762,-557.3462"/>
<polygon fill="none" stroke="#000000" points="505.6762,-557.3462 505.6762,-576.3462 541.6762,-576.3462 541.6762,-557.3462 505.6762,-557.3462"/>
<text text-anchor="start" x="508.6762" y="-563.4462" font-family="Helvetica,sans-Serif" font-size="11.00" fill="#000000">&lt; 3</text>
<polygon fill="#ffffff" stroke="transparent" points="541.6762,-557.3462 541.6762,-576.3462 586.6762,-576.3462 586.6762,-557.3462 541.6762,-557.3462"/>
<polygon fill="none" stroke="#000000" points="541.6762,-557.3462 541.6762,-576.3462 586.6762,-576.3462 586.6762,-557.3462 541.6762,-557.3462"/>
<text text-anchor="start" x="551.2867" y="-563.4462" font-family="Helvetica,sans-Serif" font-size="11.00" fill="#000000">0 rows</text>
<polygon fill="#ffffff" stroke="transparent" points="586.6762,-557.3462 586.6762,-576.3462 606.6762,-576.3462 606.6762,-557.3462 586.6762,-557.3462"/>
<polygon fill="none" stroke="#000000" points="586.6762,-557.3462 586.6762,-576.3462 606.6762,-576.3462 606.6762,-557.3462 586.6762,-557.3462"/>
<text text-anchor="start" x="597.5624" y="-563.4462" font-family="Helvetica,sans-Serif" font-size="11.00" fill="#000000"> &#160;</text>
</a>
</g>
</g>
<!-- file_preview&#45;&gt;file -->
<g id="edge25" class="edge">
<title>file_preview:w&#45;&gt;file:e</title>
<path fill="none" stroke="#000000" d="M492.0304,-580.5241C467.7195,-572.6177 457.0226,-574.2251 427.1762,-585.3462"/>
<polygon fill="#000000" stroke="#000000" points="498.1333,-582.6807 504.4768,-588.7405 501.9048,-584.0134 505.6762,-585.3462 505.6762,-585.3462 505.6762,-585.3462 501.9048,-584.0134 506.8757,-581.9519 498.1333,-582.6807 498.1333,-582.6807"/>
<ellipse fill="none" stroke="#000000" cx="495.1162" cy="-581.6145" rx="3.2" ry="3.2"/>
</g>
<!-- file_preview&#45;&gt;file -->
<g id="edge26" class="edge">
<title>file_preview:w&#45;&gt;file:e</title>
<path fill="none" stroke="#000000" d="M491.0389,-585.3462C467.4228,-585.3462 456.6137,-585.3462 427.1762,-585.3462"/>
<polygon fill="#000000" stroke="#000000" points="497.6762,-585.3462 505.6763,-588.9462 501.6762,-585.3462 505.6762,-585.3462 505.6762,-585.3462 505.6762,-585.3462 501.6762,-585.3462 505.6762,-581.7462 497.6762,-585.3462 497.6762,-585.3462"/>
<ellipse fill="none" stroke="#000000" cx="494.4762" cy="-585.3463" rx="3.2" ry="3.2"/>
</g>
<!-- file_preview&#45;&gt;file -->
<g id="edge27" class="edge">
<title>file_preview:w&#45;&gt;file:e</title>
<path fill="none" stroke="#000000" d="M492.0304,-590.1682C467.7195,-598.0746 457.0226,-596.4673 427.1762,-585.3462"/>
<polygon fill="#000000" stroke="#000000" points="498.1333,-588.0117 506.8757,-588.7405 501.9048,-586.6789 505.6762,-585.3462 505.6762,-585.3462 505.6762,-585.3462 501.9048,-586.6789 504.4768,-581.9519 498.1333,-588.0117 498.1333,-588.0117"/>
<ellipse fill="none" stroke="#000000" cx="495.1162" cy="-589.0779" rx="3.2" ry="3.2"/>
</g>
<!-- invitation_document -->
<g id="node15" class="node">
<title>invitation_document</title>
<g id="a_node15"><a xlink:href="../../tables/invitation_document.html" xlink:title="invitation_document" target="_top">
<polygon fill="#ffffff" stroke="transparent" points="485.6762,-393.8462 485.6762,-454.8462 625.6762,-454.8462 625.6762,-393.8462 485.6762,-393.8462"/>
<polygon fill="#f5f5f5" stroke="transparent" points="485.6762,-431.3462 485.6762,-454.3462 625.6762,-454.3462 625.6762,-431.3462 485.6762,-431.3462"/>
<polygon fill="none" stroke="#000000" points="485.6762,-431.3462 485.6762,-454.3462 625.6762,-454.3462 625.6762,-431.3462 485.6762,-431.3462"/>
<text text-anchor="start" x="490.2741" y="-440.4462" font-family="Helvetica,sans-Serif" font-weight="bold" font-size="11.00" fill="#000000">invitation_document</text>
<text text-anchor="start" x="591.1981" y="-439.4462" font-family="Helvetica,sans-Serif" font-size="11.00" fill="#000000">[table]</text>
<polygon fill="none" stroke="#000000" points="485.6762,-412.3462 485.6762,-431.3462 625.6762,-431.3462 625.6762,-412.3462 485.6762,-412.3462"/>
<text text-anchor="start" x="488.6762" y="-418.4462" font-family="Helvetica,sans-Serif" font-size="11.00" fill="#000000">...</text>
<polygon fill="#ffffff" stroke="transparent" points="485.6762,-393.3462 485.6762,-412.3462 540.6762,-412.3462 540.6762,-393.3462 485.6762,-393.3462"/>
<polygon fill="none" stroke="#000000" points="485.6762,-393.3462 485.6762,-412.3462 540.6762,-412.3462 540.6762,-393.3462 485.6762,-393.3462"/>
<text text-anchor="start" x="488.6762" y="-399.4462" font-family="Helvetica,sans-Serif" font-size="11.00" fill="#000000">&lt; 2</text>
<polygon fill="#ffffff" stroke="transparent" points="540.6762,-393.3462 540.6762,-412.3462 595.6762,-412.3462 595.6762,-393.3462 540.6762,-393.3462"/>
<polygon fill="none" stroke="#000000" points="540.6762,-393.3462 540.6762,-412.3462 595.6762,-412.3462 595.6762,-393.3462 540.6762,-393.3462"/>
<text text-anchor="start" x="560.2867" y="-399.4462" font-family="Helvetica,sans-Serif" font-size="11.00" fill="#000000">4 rows</text>
<polygon fill="#ffffff" stroke="transparent" points="595.6762,-393.3462 595.6762,-412.3462 625.6762,-412.3462 625.6762,-393.3462 595.6762,-393.3462"/>
<polygon fill="none" stroke="#000000" points="595.6762,-393.3462 595.6762,-412.3462 625.6762,-412.3462 625.6762,-393.3462 595.6762,-393.3462"/>
<text text-anchor="start" x="616.5624" y="-399.4462" font-family="Helvetica,sans-Serif" font-size="11.00" fill="#000000"> &#160;</text>
</a>
</g>
</g>
<!-- invitation_document&#45;&gt;file -->
<g id="edge28" class="edge">
<title>invitation_document:w&#45;&gt;file:e</title>
<path fill="none" stroke="#000000" d="M471.1733,-423.9222C421.6231,-444.7866 498.8199,-585.3462 427.1762,-585.3462"/>
<polygon fill="#000000" stroke="#000000" points="477.7995,-422.7453 486.3058,-424.8907 481.7379,-422.0457 485.6762,-421.3462 485.6762,-421.3462 485.6762,-421.3462 481.7379,-422.0457 485.0466,-417.8017 477.7995,-422.7453 477.7995,-422.7453"/>
<ellipse fill="none" stroke="#000000" cx="474.6488" cy="-423.305" rx="3.2" ry="3.2"/>
</g>
<!-- job_request_application -->
<g id="node16" class="node">
<title>job_request_application</title>
<g id="a_node16"><a xlink:href="../../tables/job_request_application.html" xlink:title="job_request_application" target="_top">
<polygon fill="#ffffff" stroke="transparent" points="889.6762,-78.8462 889.6762,-139.8462 1048.6762,-139.8462 1048.6762,-78.8462 889.6762,-78.8462"/>
<polygon fill="#f5f5f5" stroke="transparent" points="890.1762,-116.3462 890.1762,-139.3462 1049.1762,-139.3462 1049.1762,-116.3462 890.1762,-116.3462"/>
<polygon fill="none" stroke="#000000" points="890.1762,-116.3462 890.1762,-139.3462 1049.1762,-139.3462 1049.1762,-116.3462 890.1762,-116.3462"/>
<text text-anchor="start" x="895.1023" y="-125.4462" font-family="Helvetica,sans-Serif" font-weight="bold" font-size="11.00" fill="#000000">job_request_application</text>
<text text-anchor="start" x="1014.6981" y="-124.4462" font-family="Helvetica,sans-Serif" font-size="11.00" fill="#000000">[table]</text>
<polygon fill="none" stroke="#000000" points="890.1762,-97.3462 890.1762,-116.3462 1049.1762,-116.3462 1049.1762,-97.3462 890.1762,-97.3462"/>
<text text-anchor="start" x="893.1762" y="-103.4462" font-family="Helvetica,sans-Serif" font-size="11.00" fill="#000000">...</text>
<polygon fill="#ffffff" stroke="transparent" points="890.1762,-78.3462 890.1762,-97.3462 947.1762,-97.3462 947.1762,-78.3462 890.1762,-78.3462"/>
<polygon fill="none" stroke="#000000" points="890.1762,-78.3462 890.1762,-97.3462 947.1762,-97.3462 947.1762,-78.3462 890.1762,-78.3462"/>
<text text-anchor="start" x="893.1762" y="-84.4462" font-family="Helvetica,sans-Serif" font-size="11.00" fill="#000000">&lt; 6</text>
<polygon fill="#ffffff" stroke="transparent" points="947.1762,-78.3462 947.1762,-97.3462 1009.1762,-97.3462 1009.1762,-78.3462 947.1762,-78.3462"/>
<polygon fill="none" stroke="#000000" points="947.1762,-78.3462 947.1762,-97.3462 1009.1762,-97.3462 1009.1762,-78.3462 947.1762,-78.3462"/>
<text text-anchor="start" x="967.6718" y="-84.4462" font-family="Helvetica,sans-Serif" font-size="11.00" fill="#000000">75 rows</text>
<polygon fill="#ffffff" stroke="transparent" points="1009.1762,-78.3462 1009.1762,-97.3462 1049.1762,-97.3462 1049.1762,-78.3462 1009.1762,-78.3462"/>
<polygon fill="none" stroke="#000000" points="1009.1762,-78.3462 1009.1762,-97.3462 1049.1762,-97.3462 1049.1762,-78.3462 1009.1762,-78.3462"/>
<text text-anchor="start" x="1030.5815" y="-84.4462" font-family="Helvetica,sans-Serif" font-size="11.00" fill="#000000">5 &gt;</text>
</a>
</g>
</g>
<!-- job_request_application&#45;&gt;applicant -->
<g id="edge29" class="edge">
<title>job_request_application:w&#45;&gt;applicant:e</title>
<path fill="none" stroke="#000000" d="M876.6354,-111.2784C829.5179,-151.2259 890.6657,-420.3462 824.6762,-420.3462"/>
<polygon fill="#000000" stroke="#000000" points="882.6594,-109.0842 891.4084,-109.7288 886.4178,-107.7152 890.1762,-106.3462 890.1762,-106.3462 890.1762,-106.3462 886.4178,-107.7152 888.9441,-102.9636 882.6594,-109.0842 882.6594,-109.0842"/>
<ellipse fill="none" stroke="#000000" cx="879.6526" cy="-110.1794" rx="3.2" ry="3.2"/>
</g>
<!-- job_request_application&#45;&gt;file -->
<g id="edge30" class="edge">
<title>job_request_application:w&#45;&gt;file:e</title>
<path fill="none" stroke="#000000" d="M875.7819,-107.8114C802.0536,-116.3545 475.0471,-159.6221 467.6762,-167.3462 403.2484,-234.8621 520.5001,-585.3462 427.1762,-585.3462"/>
<polygon fill="#000000" stroke="#000000" points="882.2174,-107.1564 890.5408,-109.9277 886.1968,-106.7513 890.1762,-106.3462 890.1762,-106.3462 890.1762,-106.3462 886.1968,-106.7513 889.8116,-102.7647 882.2174,-107.1564 882.2174,-107.1564"/>
<ellipse fill="none" stroke="#000000" cx="879.0338" cy="-107.4805" rx="3.2" ry="3.2"/>
</g>
<!-- job_request_application&#45;&gt;supplier -->
<g id="edge33" class="edge">
<title>job_request_application:w&#45;&gt;supplier:e</title>
<path fill="none" stroke="#000000" d="M875.5633,-106.2838C759.1749,-105.2738 725.0348,-92.3462 601.6762,-92.3462"/>
<polygon fill="#000000" stroke="#000000" points="882.1763,-106.312 890.1608,-109.9461 886.1763,-106.3291 890.1762,-106.3462 890.1762,-106.3462 890.1762,-106.3462 886.1763,-106.3291 890.1916,-102.7462 882.1763,-106.312 882.1763,-106.312"/>
<ellipse fill="none" stroke="#000000" cx="878.9763" cy="-106.2983" rx="3.2" ry="3.2"/>
</g>
<!-- job_request_application&#45;&gt;principal -->
<g id="edge31" class="edge">
<title>job_request_application:w&#45;&gt;principal:e</title>
<path fill="none" stroke="#000000" d="M875.4701,-105.2693C860.4939,-102.8409 852.7357,-96.8028 832.6762,-92.3462 673.4594,-56.9725 623.4593,-6.0459 467.6762,-54.3462 379.1298,-81.7999 342.6212,-92.4066 295.6762,-172.3462 270.7,-214.8766 303.9982,-614.3462 254.6762,-614.3462"/>
<polygon fill="#000000" stroke="#000000" points="882.1976,-105.7619 889.9133,-109.9366 886.1869,-106.054 890.1762,-106.3462 890.1762,-106.3462 890.1762,-106.3462 886.1869,-106.054 890.4392,-102.7558 882.1976,-105.7619 882.1976,-105.7619"/>
<ellipse fill="none" stroke="#000000" cx="879.0061" cy="-105.5281" rx="3.2" ry="3.2"/>
</g>
<!-- job_request_application&#45;&gt;principal -->
<g id="edge32" class="edge">
<title>job_request_application:w&#45;&gt;principal:e</title>
<path fill="none" stroke="#000000" d="M875.8025,-104.2783C824.0055,-95.2292 655.8004,-59.5156 643.6762,-58.3462 565.8154,-50.8359 542.3897,-35.1814 467.6762,-58.3462 379.1298,-85.7999 342.6548,-96.4263 295.6762,-176.3462 270.9064,-218.4847 303.5557,-614.3462 254.6762,-614.3462"/>
<polygon fill="#000000" stroke="#000000" points="882.2578,-105.2069 889.6636,-109.9095 886.217,-105.7766 890.1762,-106.3462 890.1762,-106.3462 890.1762,-106.3462 886.217,-105.7766 890.6889,-102.7829 882.2578,-105.2069 882.2578,-105.2069"/>
<ellipse fill="none" stroke="#000000" cx="879.0904" cy="-104.7512" rx="3.2" ry="3.2"/>
</g>
<!-- job_request_application_document -->
<g id="node17" class="node">
<title>job_request_application_document</title>
<g id="a_node17"><a xlink:href="../../tables/job_request_application_document.html" xlink:title="job_request_application_document" target="_top">
<polygon fill="#ffffff" stroke="transparent" points="1113.6762,-113.8462 1113.6762,-174.8462 1326.6762,-174.8462 1326.6762,-113.8462 1113.6762,-113.8462"/>
<polygon fill="#f5f5f5" stroke="transparent" points="1114.1762,-151.3462 1114.1762,-174.3462 1327.1762,-174.3462 1327.1762,-151.3462 1114.1762,-151.3462"/>
<polygon fill="none" stroke="#000000" points="1114.1762,-151.3462 1114.1762,-174.3462 1327.1762,-174.3462 1327.1762,-151.3462 1114.1762,-151.3462"/>
<text text-anchor="start" x="1118.8982" y="-160.4462" font-family="Helvetica,sans-Serif" font-weight="bold" font-size="11.00" fill="#000000">job_request_application_document</text>
<text text-anchor="start" x="1292.6981" y="-159.4462" font-family="Helvetica,sans-Serif" font-size="11.00" fill="#000000">[table]</text>
<polygon fill="none" stroke="#000000" points="1114.1762,-132.3462 1114.1762,-151.3462 1327.1762,-151.3462 1327.1762,-132.3462 1114.1762,-132.3462"/>
<text text-anchor="start" x="1117.1762" y="-138.4462" font-family="Helvetica,sans-Serif" font-size="11.00" fill="#000000">...</text>
<polygon fill="#ffffff" stroke="transparent" points="1114.1762,-113.3462 1114.1762,-132.3462 1203.1762,-132.3462 1203.1762,-113.3462 1114.1762,-113.3462"/>
<polygon fill="none" stroke="#000000" points="1114.1762,-113.3462 1114.1762,-132.3462 1203.1762,-132.3462 1203.1762,-113.3462 1114.1762,-113.3462"/>
<text text-anchor="start" x="1117.1762" y="-119.4462" font-family="Helvetica,sans-Serif" font-size="11.00" fill="#000000">&lt; 2</text>
<polygon fill="#ffffff" stroke="transparent" points="1203.1762,-113.3462 1203.1762,-132.3462 1281.1762,-132.3462 1281.1762,-113.3462 1203.1762,-113.3462"/>
<polygon fill="none" stroke="#000000" points="1203.1762,-113.3462 1203.1762,-132.3462 1281.1762,-132.3462 1281.1762,-113.3462 1203.1762,-113.3462"/>
<text text-anchor="start" x="1239.6718" y="-119.4462" font-family="Helvetica,sans-Serif" font-size="11.00" fill="#000000">57 rows</text>
<polygon fill="#ffffff" stroke="transparent" points="1281.1762,-113.3462 1281.1762,-132.3462 1327.1762,-132.3462 1327.1762,-113.3462 1281.1762,-113.3462"/>
<polygon fill="none" stroke="#000000" points="1281.1762,-113.3462 1281.1762,-132.3462 1327.1762,-132.3462 1327.1762,-113.3462 1281.1762,-113.3462"/>
<text text-anchor="start" x="1318.0624" y="-119.4462" font-family="Helvetica,sans-Serif" font-size="11.00" fill="#000000"> &#160;</text>
</a>
</g>
</g>
<!-- job_request_application_document&#45;&gt;file -->
<g id="edge34" class="edge">
<title>job_request_application_document:w&#45;&gt;file:e</title>
<path fill="none" stroke="#000000" d="M1099.6613,-142.9715C1091.266,-145.0367 1085.3775,-148.5484 1072.6762,-150.3462 1039.3205,-155.0676 491.9079,-167.9427 467.6762,-191.3462 404.3664,-252.4923 515.1931,-585.3462 427.1762,-585.3462"/>
<polygon fill="#000000" stroke="#000000" points="1106.2259,-142.2365 1114.5769,-144.9238 1110.2011,-141.7913 1114.1762,-141.3462 1114.1762,-141.3462 1114.1762,-141.3462 1110.2011,-141.7913 1113.7756,-137.7685 1106.2259,-142.2365 1106.2259,-142.2365"/>
<ellipse fill="none" stroke="#000000" cx="1103.0458" cy="-142.5926" rx="3.2" ry="3.2"/>
</g>
<!-- job_request_application_document&#45;&gt;job_request_application -->
<g id="edge35" class="edge">
<title>job_request_application_document:w&#45;&gt;job_request_application:e</title>
<path fill="none" stroke="#000000" d="M1099.8816,-138.5998C1080.5915,-130.3489 1076.3476,-106.3462 1049.1762,-106.3462"/>
<polygon fill="#000000" stroke="#000000" points="1106.3199,-139.8367 1113.497,-144.8815 1110.2481,-140.5915 1114.1762,-141.3462 1114.1762,-141.3462 1114.1762,-141.3462 1110.2481,-140.5915 1114.8555,-137.8108 1106.3199,-139.8367 1106.3199,-139.8367"/>
<ellipse fill="none" stroke="#000000" cx="1103.1774" cy="-139.2329" rx="3.2" ry="3.2"/>
</g>
<!-- job_request_attachment -->
<g id="node18" class="node">
<title>job_request_attachment</title>
<g id="a_node18"><a xlink:href="../../tables/job_request_attachment.html" xlink:title="job_request_attachment" target="_top">
<polygon fill="#ffffff" stroke="transparent" points="475.6762,-283.8462 475.6762,-344.8462 635.6762,-344.8462 635.6762,-283.8462 475.6762,-283.8462"/>
<polygon fill="#f5f5f5" stroke="transparent" points="475.6762,-321.3462 475.6762,-344.3462 635.6762,-344.3462 635.6762,-321.3462 475.6762,-321.3462"/>
<polygon fill="none" stroke="#000000" points="475.6762,-321.3462 475.6762,-344.3462 635.6762,-344.3462 635.6762,-321.3462 475.6762,-321.3462"/>
<text text-anchor="start" x="480.1832" y="-330.4462" font-family="Helvetica,sans-Serif" font-weight="bold" font-size="11.00" fill="#000000">job_request_attachment</text>
<text text-anchor="start" x="601.1981" y="-329.4462" font-family="Helvetica,sans-Serif" font-size="11.00" fill="#000000">[table]</text>
<polygon fill="none" stroke="#000000" points="475.6762,-302.3462 475.6762,-321.3462 635.6762,-321.3462 635.6762,-302.3462 475.6762,-302.3462"/>
<text text-anchor="start" x="478.6762" y="-308.4462" font-family="Helvetica,sans-Serif" font-size="11.00" fill="#000000">...</text>
<polygon fill="#ffffff" stroke="transparent" points="475.6762,-283.3462 475.6762,-302.3462 540.6762,-302.3462 540.6762,-283.3462 475.6762,-283.3462"/>
<polygon fill="none" stroke="#000000" points="475.6762,-283.3462 475.6762,-302.3462 540.6762,-302.3462 540.6762,-283.3462 475.6762,-283.3462"/>
<text text-anchor="start" x="478.6762" y="-289.4462" font-family="Helvetica,sans-Serif" font-size="11.00" fill="#000000">&lt; 2</text>
<polygon fill="#ffffff" stroke="transparent" points="540.6762,-283.3462 540.6762,-302.3462 600.6762,-302.3462 600.6762,-283.3462 540.6762,-283.3462"/>
<polygon fill="none" stroke="#000000" points="540.6762,-283.3462 540.6762,-302.3462 600.6762,-302.3462 600.6762,-283.3462 540.6762,-283.3462"/>
<text text-anchor="start" x="565.2867" y="-289.4462" font-family="Helvetica,sans-Serif" font-size="11.00" fill="#000000">4 rows</text>
<polygon fill="#ffffff" stroke="transparent" points="600.6762,-283.3462 600.6762,-302.3462 635.6762,-302.3462 635.6762,-283.3462 600.6762,-283.3462"/>
<polygon fill="none" stroke="#000000" points="600.6762,-283.3462 600.6762,-302.3462 635.6762,-302.3462 635.6762,-283.3462 600.6762,-283.3462"/>
<text text-anchor="start" x="626.5624" y="-289.4462" font-family="Helvetica,sans-Serif" font-size="11.00" fill="#000000"> &#160;</text>
</a>
</g>
</g>
<!-- job_request_attachment&#45;&gt;file -->
<g id="edge36" class="edge">
<title>job_request_attachment:w&#45;&gt;file:e</title>
<path fill="none" stroke="#000000" d="M462.361,-317.3239C425.9961,-357.3937 483.5769,-585.3462 427.1762,-585.3462"/>
<polygon fill="#000000" stroke="#000000" points="468.378,-314.6227 477.1507,-314.6304 472.0271,-312.9844 475.6762,-311.3462 475.6762,-311.3462 475.6762,-311.3462 472.0271,-312.9844 474.2018,-308.062 468.378,-314.6227 468.378,-314.6227"/>
<ellipse fill="none" stroke="#000000" cx="465.4586" cy="-315.9333" rx="3.2" ry="3.2"/>
</g>
</g>
</svg>
