<?xml version="1.0" encoding="UTF-8" standalone="no"?>
<!DOCTYPE svg PUBLIC "-//W3C//DTD SVG 1.1//EN"
 "http://www.w3.org/Graphics/SVG/1.1/DTD/svg11.dtd">
<!-- Generated by graphviz version 2.40.1 (20161225.0304)
 -->
<!-- Title: oneDegreeRelationshipsDiagram Pages: 1 -->
<svg width="576pt" height="324pt"
 viewBox="0.00 0.00 576.00 324.20" xmlns="http://www.w3.org/2000/svg" xmlns:xlink="http://www.w3.org/1999/xlink">
<g id="graph0" class="graph" transform="scale(1 1) rotate(0) translate(4 320.2)">
<title>oneDegreeRelationshipsDiagram</title>
<polygon fill="#ffffff" stroke="transparent" points="-4,4 -4,-320.2 572,-320.2 572,4 -4,4"/>
<text text-anchor="middle" x="72.4936" y="-7.3" font-family="Helvetica,sans-Serif" font-size="11.00" fill="#000000">Generated by SchemaSpy</text>
<!-- applicant -->
<g id="node1" class="node">
<title>applicant</title>
<g id="a_node1"><a xlink:href="../../tables/applicant.html" xlink:title="applicant" target="_top">
<polygon fill="#ffffff" stroke="transparent" points="180,-97.2 180,-312.2 320,-312.2 320,-97.2 180,-97.2"/>
<polygon fill="#f5f5f5" stroke="transparent" points="180,-288.7 180,-311.7 320,-311.7 320,-288.7 180,-288.7"/>
<polygon fill="none" stroke="#000000" points="180,-288.7 180,-311.7 320,-311.7 320,-288.7 180,-288.7"/>
<text text-anchor="start" x="185" y="-297.8" font-family="Helvetica,sans-Serif" font-weight="bold" font-size="11.00" fill="#000000">applicant</text>
<text text-anchor="start" x="285.0437" y="-296.8" font-family="Helvetica,sans-Serif" font-size="11.00" fill="#000000">[table]</text>
<polygon fill="none" stroke="#000000" points="180,-266.7 180,-288.7 320,-288.7 320,-266.7 180,-266.7"/>
<image xlink:href="../../images/primaryKeys.png" width="11px" height="12px" preserveAspectRatio="xMinYMin meet" x="185" y="-283.7"/>
<text text-anchor="start" x="200" y="-273.8" font-family="Helvetica,sans-Serif" font-size="11.00" fill="#000000">id</text>
<polygon fill="#ffffff" stroke="transparent" points="180,-244.7 180,-266.7 320,-266.7 320,-244.7 180,-244.7"/>
<polygon fill="none" stroke="#000000" points="180,-244.7 180,-266.7 320,-266.7 320,-244.7 180,-244.7"/>
<text text-anchor="start" x="200" y="-251.8" font-family="Helvetica,sans-Serif" font-size="11.00" fill="#000000">created_by</text>
<polygon fill="#ffffff" stroke="transparent" points="180,-222.7 180,-244.7 320,-244.7 320,-222.7 180,-222.7"/>
<polygon fill="none" stroke="#000000" points="180,-222.7 180,-244.7 320,-244.7 320,-222.7 180,-222.7"/>
<text text-anchor="start" x="200" y="-229.8" font-family="Helvetica,sans-Serif" font-size="11.00" fill="#000000">modified_by</text>
<polygon fill="#ffffff" stroke="transparent" points="180,-200.7 180,-222.7 320,-222.7 320,-200.7 180,-200.7"/>
<polygon fill="none" stroke="#000000" points="180,-200.7 180,-222.7 320,-222.7 320,-200.7 180,-200.7"/>
<image xlink:href="../../images/foreignKeys.png" width="11px" height="12px" preserveAspectRatio="xMinYMin meet" x="185" y="-217.7"/>
<text text-anchor="start" x="200" y="-207.8" font-family="Helvetica,sans-Serif" font-size="11.00" fill="#000000">address_id</text>
<polygon fill="#ffffff" stroke="transparent" points="180,-178.7 180,-200.7 320,-200.7 320,-178.7 180,-178.7"/>
<polygon fill="none" stroke="#000000" points="180,-178.7 180,-200.7 320,-200.7 320,-178.7 180,-178.7"/>
<image xlink:href="../../images/foreignKeys.png" width="11px" height="12px" preserveAspectRatio="xMinYMin meet" x="185" y="-195.7"/>
<text text-anchor="start" x="200" y="-185.8" font-family="Helvetica,sans-Serif" font-size="11.00" fill="#000000">avatar_id</text>
<polygon fill="#ffffff" stroke="transparent" points="180,-156.7 180,-178.7 320,-178.7 320,-156.7 180,-156.7"/>
<polygon fill="none" stroke="#000000" points="180,-156.7 180,-178.7 320,-178.7 320,-156.7 180,-156.7"/>
<image xlink:href="../../images/foreignKeys.png" width="11px" height="12px" preserveAspectRatio="xMinYMin meet" x="185" y="-173.7"/>
<text text-anchor="start" x="200" y="-163.8" font-family="Helvetica,sans-Serif" font-size="11.00" fill="#000000">contact_person_id</text>
<polygon fill="#ffffff" stroke="transparent" points="180,-134.7 180,-156.7 320,-156.7 320,-134.7 180,-134.7"/>
<polygon fill="none" stroke="#000000" points="180,-134.7 180,-156.7 320,-156.7 320,-134.7 180,-134.7"/>
<image xlink:href="../../images/foreignKeys.png" width="11px" height="12px" preserveAspectRatio="xMinYMin meet" x="185" y="-151.7"/>
<text text-anchor="start" x="200" y="-141.8" font-family="Helvetica,sans-Serif" font-size="11.00" fill="#000000">supplier_id</text>
<polygon fill="none" stroke="#000000" points="180,-115.7 180,-134.7 320,-134.7 320,-115.7 180,-115.7"/>
<text text-anchor="start" x="183" y="-121.8" font-family="Helvetica,sans-Serif" font-size="11.00" fill="#000000">...</text>
<polygon fill="#ffffff" stroke="transparent" points="180,-96.7 180,-115.7 228,-115.7 228,-96.7 180,-96.7"/>
<polygon fill="none" stroke="#000000" points="180,-96.7 180,-115.7 228,-115.7 228,-96.7 180,-96.7"/>
<text text-anchor="start" x="183" y="-102.8" font-family="Helvetica,sans-Serif" font-size="11.00" fill="#000000">&lt; 4</text>
<polygon fill="#ffffff" stroke="transparent" points="228,-96.7 228,-115.7 285,-115.7 285,-96.7 228,-96.7"/>
<polygon fill="none" stroke="#000000" points="228,-96.7 228,-115.7 285,-115.7 285,-96.7 228,-96.7"/>
<text text-anchor="start" x="243.4956" y="-102.8" font-family="Helvetica,sans-Serif" font-size="11.00" fill="#000000">90 rows</text>
<polygon fill="#ffffff" stroke="transparent" points="285,-96.7 285,-115.7 320,-115.7 320,-96.7 285,-96.7"/>
<polygon fill="none" stroke="#000000" points="285,-96.7 285,-115.7 320,-115.7 320,-96.7 285,-96.7"/>
<text text-anchor="start" x="301.4053" y="-102.8" font-family="Helvetica,sans-Serif" font-size="11.00" fill="#000000">5 &gt;</text>
</a>
</g>
</g>
<!-- file -->
<g id="node2" class="node">
<title>file</title>
<g id="a_node2"><a xlink:href="../../tables/file.html" xlink:title="file" target="_top">
<polygon fill="#ffffff" stroke="transparent" points="8,-38.2 8,-165.2 131,-165.2 131,-38.2 8,-38.2"/>
<polygon fill="#f5f5f5" stroke="transparent" points="8.5,-141.7 8.5,-164.7 131.5,-164.7 131.5,-141.7 8.5,-141.7"/>
<polygon fill="none" stroke="#000000" points="8.5,-141.7 8.5,-164.7 131.5,-164.7 131.5,-141.7 8.5,-141.7"/>
<text text-anchor="start" x="13.5" y="-150.8" font-family="Helvetica,sans-Serif" font-weight="bold" font-size="11.00" fill="#000000">file</text>
<text text-anchor="start" x="96.5437" y="-149.8" font-family="Helvetica,sans-Serif" font-size="11.00" fill="#000000">[table]</text>
<polygon fill="none" stroke="#000000" points="8.5,-119.7 8.5,-141.7 131.5,-141.7 131.5,-119.7 8.5,-119.7"/>
<image xlink:href="../../images/primaryKeys.png" width="11px" height="12px" preserveAspectRatio="xMinYMin meet" x="13.5" y="-136.7"/>
<text text-anchor="start" x="28.5" y="-126.8" font-family="Helvetica,sans-Serif" font-size="11.00" fill="#000000">id</text>
<polygon fill="#ffffff" stroke="transparent" points="8.5,-97.7 8.5,-119.7 131.5,-119.7 131.5,-97.7 8.5,-97.7"/>
<polygon fill="none" stroke="#000000" points="8.5,-97.7 8.5,-119.7 131.5,-119.7 131.5,-97.7 8.5,-97.7"/>
<image xlink:href="../../images/foreignKeys.png" width="11px" height="12px" preserveAspectRatio="xMinYMin meet" x="13.5" y="-114.7"/>
<text text-anchor="start" x="28.5" y="-104.8" font-family="Helvetica,sans-Serif" font-size="11.00" fill="#000000">created_by</text>
<polygon fill="#ffffff" stroke="transparent" points="8.5,-75.7 8.5,-97.7 131.5,-97.7 131.5,-75.7 8.5,-75.7"/>
<polygon fill="none" stroke="#000000" points="8.5,-75.7 8.5,-97.7 131.5,-97.7 131.5,-75.7 8.5,-75.7"/>
<image xlink:href="../../images/foreignKeys.png" width="11px" height="12px" preserveAspectRatio="xMinYMin meet" x="13.5" y="-92.7"/>
<text text-anchor="start" x="28.5" y="-82.8" font-family="Helvetica,sans-Serif" font-size="11.00" fill="#000000">modified_by</text>
<polygon fill="none" stroke="#000000" points="8.5,-56.7 8.5,-75.7 131.5,-75.7 131.5,-56.7 8.5,-56.7"/>
<text text-anchor="start" x="11.5" y="-62.8" font-family="Helvetica,sans-Serif" font-size="11.00" fill="#000000">...</text>
<polygon fill="#ffffff" stroke="transparent" points="8.5,-37.7 8.5,-56.7 41.5,-56.7 41.5,-37.7 8.5,-37.7"/>
<polygon fill="none" stroke="#000000" points="8.5,-37.7 8.5,-56.7 41.5,-56.7 41.5,-37.7 8.5,-37.7"/>
<text text-anchor="start" x="11.5" y="-43.8" font-family="Helvetica,sans-Serif" font-size="11.00" fill="#000000">&lt; 2</text>
<polygon fill="#ffffff" stroke="transparent" points="41.5,-37.7 41.5,-56.7 97.5,-56.7 97.5,-37.7 41.5,-37.7"/>
<polygon fill="none" stroke="#000000" points="41.5,-37.7 41.5,-56.7 97.5,-56.7 97.5,-37.7 41.5,-37.7"/>
<text text-anchor="start" x="49.8807" y="-43.8" font-family="Helvetica,sans-Serif" font-size="11.00" fill="#000000">590 rows</text>
<polygon fill="#ffffff" stroke="transparent" points="97.5,-37.7 97.5,-56.7 131.5,-56.7 131.5,-37.7 97.5,-37.7"/>
<polygon fill="none" stroke="#000000" points="97.5,-37.7 97.5,-56.7 131.5,-56.7 131.5,-37.7 97.5,-37.7"/>
<text text-anchor="start" x="106.7904" y="-43.8" font-family="Helvetica,sans-Serif" font-size="11.00" fill="#000000">13 &gt;</text>
</a>
</g>
</g>
<!-- applicant&#45;&gt;file -->
<g id="edge1" class="edge">
<title>applicant:w&#45;&gt;file:e</title>
<path fill="none" stroke="#000000" d="M166.2489,-184.6697C151.3013,-170.4018 159.3453,-130.7 131.5,-130.7"/>
<polygon fill="#000000" stroke="#000000" points="172.4869,-186.9516 178.7632,-193.0809 176.2435,-188.3258 180,-189.7 180,-189.7 180,-189.7 176.2435,-188.3258 181.2368,-186.3191 172.4869,-186.9516 172.4869,-186.9516"/>
<ellipse fill="none" stroke="#000000" cx="169.4817" cy="-185.8522" rx="3.2" ry="3.2"/>
</g>
<!-- applicant_document -->
<g id="node3" class="node">
<title>applicant_document</title>
<g id="a_node3"><a xlink:href="../../tables/applicant_document.html" xlink:title="applicant_document" target="_top">
<polygon fill="#ffffff" stroke="transparent" points="369,-131.7 369,-221.7 560,-221.7 560,-131.7 369,-131.7"/>
<polygon fill="#f5f5f5" stroke="transparent" points="371.5,-196.7 371.5,-219.7 558.5,-219.7 558.5,-196.7 371.5,-196.7"/>
<polygon fill="none" stroke="#000000" points="371.5,-196.7 371.5,-219.7 558.5,-219.7 558.5,-196.7 371.5,-196.7"/>
<text text-anchor="start" x="376.5" y="-205.8" font-family="Helvetica,sans-Serif" font-weight="bold" font-size="11.00" fill="#000000">applicant_document</text>
<text text-anchor="start" x="523.5437" y="-204.8" font-family="Helvetica,sans-Serif" font-size="11.00" fill="#000000">[table]</text>
<polygon fill="#ffffff" stroke="transparent" points="371.5,-174.7 371.5,-196.7 508.5,-196.7 508.5,-174.7 371.5,-174.7"/>
<polygon fill="none" stroke="#000000" points="371.5,-174.7 371.5,-196.7 508.5,-196.7 508.5,-174.7 371.5,-174.7"/>
<image xlink:href="../../images/foreignKeys.png" width="11px" height="12px" preserveAspectRatio="xMinYMin meet" x="376.5" y="-191.7"/>
<text text-anchor="start" x="391.5" y="-181.8" font-family="Helvetica,sans-Serif" font-size="11.00" fill="#000000">applicant_id</text>
<polygon fill="none" stroke="#000000" points="508.5,-174.7 508.5,-196.7 558.5,-196.7 558.5,-174.7 508.5,-174.7"/>
<text text-anchor="start" x="511.1865" y="-182.4" font-family="Helvetica,sans-Serif" font-size="11.00" fill="#000000">bigint[19]</text>
<polygon fill="#ffffff" stroke="transparent" points="371.5,-152.7 371.5,-174.7 508.5,-174.7 508.5,-152.7 371.5,-152.7"/>
<polygon fill="none" stroke="#000000" points="371.5,-152.7 371.5,-174.7 508.5,-174.7 508.5,-152.7 371.5,-152.7"/>
<image xlink:href="../../images/foreignKeys.png" width="11px" height="12px" preserveAspectRatio="xMinYMin meet" x="376.5" y="-169.7"/>
<text text-anchor="start" x="391.5" y="-159.8" font-family="Helvetica,sans-Serif" font-size="11.00" fill="#000000">file_id</text>
<polygon fill="none" stroke="#000000" points="508.5,-152.7 508.5,-174.7 558.5,-174.7 558.5,-152.7 508.5,-152.7"/>
<text text-anchor="start" x="511.1865" y="-160.4" font-family="Helvetica,sans-Serif" font-size="11.00" fill="#000000">bigint[19]</text>
<polygon fill="#ffffff" stroke="transparent" points="371.5,-133.7 371.5,-152.7 428.5,-152.7 428.5,-133.7 371.5,-133.7"/>
<polygon fill="none" stroke="#000000" points="371.5,-133.7 371.5,-152.7 428.5,-152.7 428.5,-133.7 371.5,-133.7"/>
<text text-anchor="start" x="374.5" y="-139.8" font-family="Helvetica,sans-Serif" font-size="11.00" fill="#000000">&lt; 2</text>
<polygon fill="#ffffff" stroke="transparent" points="428.5,-133.7 428.5,-152.7 508.5,-152.7 508.5,-133.7 428.5,-133.7"/>
<polygon fill="none" stroke="#000000" points="428.5,-133.7 428.5,-152.7 508.5,-152.7 508.5,-133.7 428.5,-133.7"/>
<text text-anchor="start" x="466.9956" y="-139.8" font-family="Helvetica,sans-Serif" font-size="11.00" fill="#000000">91 rows</text>
<polygon fill="#ffffff" stroke="transparent" points="508.5,-133.7 508.5,-152.7 558.5,-152.7 558.5,-133.7 508.5,-133.7"/>
<polygon fill="none" stroke="#000000" points="508.5,-133.7 508.5,-152.7 558.5,-152.7 558.5,-133.7 508.5,-133.7"/>
<text text-anchor="start" x="539.9053" y="-139.8" font-family="Helvetica,sans-Serif" font-size="11.00" fill="#000000">0 &gt;</text>
<polygon fill="none" stroke="#000000" stroke-width="2" points="370,-132.7 370,-220.7 559,-220.7 559,-132.7 370,-132.7"/>
</a>
</g>
</g>
<!-- applicant_document&#45;&gt;applicant -->
<g id="edge2" class="edge">
<title>applicant_document:w&#45;&gt;applicant:e</title>
<path fill="none" stroke="#000000" d="M357.4376,-189.8921C334.0449,-207.89 360.8189,-277.7 320,-277.7"/>
<polygon fill="#000000" stroke="#000000" points="363.8334,-187.9855 372.5285,-189.15 367.6667,-186.8428 371.5,-185.7 371.5,-185.7 371.5,-185.7 367.6667,-186.8428 370.4715,-182.25 363.8334,-187.9855 363.8334,-187.9855"/>
<ellipse fill="none" stroke="#000000" cx="360.7668" cy="-188.8997" rx="3.2" ry="3.2"/>
</g>
<!-- applicant_document&#45;&gt;file -->
<g id="edge3" class="edge">
<title>applicant_document:w&#45;&gt;file:e</title>
<path fill="none" stroke="#000000" d="M357.1444,-159.4997C340.2424,-145.9412 356.3779,-103.2616 328,-86.7 268.1185,-51.7527 235.4928,-58.8472 172,-86.7 147.6604,-97.3772 158.0786,-130.7 131.5,-130.7"/>
<polygon fill="#000000" stroke="#000000" points="363.8219,-161.4534 370.489,-167.1551 367.661,-162.5767 371.5,-163.7 371.5,-163.7 371.5,-163.7 367.661,-162.5767 372.511,-160.2449 363.8219,-161.4534 363.8219,-161.4534"/>
<ellipse fill="none" stroke="#000000" cx="360.7507" cy="-160.5548" rx="3.2" ry="3.2"/>
</g>
</g>
</svg>
