<?xml version="1.0" encoding="UTF-8" standalone="no"?>
<!DOCTYPE svg PUBLIC "-//W3C//DTD SVG 1.1//EN"
 "http://www.w3.org/Graphics/SVG/1.1/DTD/svg11.dtd">
<!-- Generated by graphviz version 2.40.1 (20161225.0304)
 -->
<!-- Title: twoDegreesRelationshipsDiagram Pages: 1 -->
<svg width="725pt" height="505pt"
 viewBox="0.00 0.00 725.00 504.71" xmlns="http://www.w3.org/2000/svg" xmlns:xlink="http://www.w3.org/1999/xlink">
<g id="graph0" class="graph" transform="scale(1 1) rotate(0) translate(4 500.7124)">
<title>twoDegreesRelationshipsDiagram</title>
<polygon fill="#ffffff" stroke="transparent" points="-4,4 -4,-500.7124 721,-500.7124 721,4 -4,4"/>
<text text-anchor="middle" x="72.4936" y="-7.3" font-family="Helvetica,sans-Serif" font-size="11.00" fill="#000000">Generated by SchemaSpy</text>
<!-- applicant -->
<g id="node1" class="node">
<title>applicant</title>
<g id="a_node1"><a xlink:href="../../tables/applicant.html" xlink:title="applicant" target="_top">
<polygon fill="#ffffff" stroke="transparent" points="322,-126.7124 322,-341.7124 462,-341.7124 462,-126.7124 322,-126.7124"/>
<polygon fill="#f5f5f5" stroke="transparent" points="322,-318.2124 322,-341.2124 462,-341.2124 462,-318.2124 322,-318.2124"/>
<polygon fill="none" stroke="#000000" points="322,-318.2124 322,-341.2124 462,-341.2124 462,-318.2124 322,-318.2124"/>
<text text-anchor="start" x="327" y="-327.3124" font-family="Helvetica,sans-Serif" font-weight="bold" font-size="11.00" fill="#000000">applicant</text>
<text text-anchor="start" x="427.0437" y="-326.3124" font-family="Helvetica,sans-Serif" font-size="11.00" fill="#000000">[table]</text>
<polygon fill="none" stroke="#000000" points="322,-296.2124 322,-318.2124 462,-318.2124 462,-296.2124 322,-296.2124"/>
<image xlink:href="../../images/primaryKeys.png" width="11px" height="12px" preserveAspectRatio="xMinYMin meet" x="327" y="-313.212"/>
<text text-anchor="start" x="342" y="-303.3124" font-family="Helvetica,sans-Serif" font-size="11.00" fill="#000000">id</text>
<polygon fill="#ffffff" stroke="transparent" points="322,-274.2124 322,-296.2124 462,-296.2124 462,-274.2124 322,-274.2124"/>
<polygon fill="none" stroke="#000000" points="322,-274.2124 322,-296.2124 462,-296.2124 462,-274.2124 322,-274.2124"/>
<text text-anchor="start" x="342" y="-281.3124" font-family="Helvetica,sans-Serif" font-size="11.00" fill="#000000">created_by</text>
<polygon fill="#ffffff" stroke="transparent" points="322,-252.2124 322,-274.2124 462,-274.2124 462,-252.2124 322,-252.2124"/>
<polygon fill="none" stroke="#000000" points="322,-252.2124 322,-274.2124 462,-274.2124 462,-252.2124 322,-252.2124"/>
<text text-anchor="start" x="342" y="-259.3124" font-family="Helvetica,sans-Serif" font-size="11.00" fill="#000000">modified_by</text>
<polygon fill="#ffffff" stroke="transparent" points="322,-230.2124 322,-252.2124 462,-252.2124 462,-230.2124 322,-230.2124"/>
<polygon fill="none" stroke="#000000" points="322,-230.2124 322,-252.2124 462,-252.2124 462,-230.2124 322,-230.2124"/>
<image xlink:href="../../images/foreignKeys.png" width="11px" height="12px" preserveAspectRatio="xMinYMin meet" x="327" y="-247.212"/>
<text text-anchor="start" x="342" y="-237.3124" font-family="Helvetica,sans-Serif" font-size="11.00" fill="#000000">address_id</text>
<polygon fill="#ffffff" stroke="transparent" points="322,-208.2124 322,-230.2124 462,-230.2124 462,-208.2124 322,-208.2124"/>
<polygon fill="none" stroke="#000000" points="322,-208.2124 322,-230.2124 462,-230.2124 462,-208.2124 322,-208.2124"/>
<image xlink:href="../../images/foreignKeys.png" width="11px" height="12px" preserveAspectRatio="xMinYMin meet" x="327" y="-225.212"/>
<text text-anchor="start" x="342" y="-215.3124" font-family="Helvetica,sans-Serif" font-size="11.00" fill="#000000">avatar_id</text>
<polygon fill="#ffffff" stroke="transparent" points="322,-186.2124 322,-208.2124 462,-208.2124 462,-186.2124 322,-186.2124"/>
<polygon fill="none" stroke="#000000" points="322,-186.2124 322,-208.2124 462,-208.2124 462,-186.2124 322,-186.2124"/>
<image xlink:href="../../images/foreignKeys.png" width="11px" height="12px" preserveAspectRatio="xMinYMin meet" x="327" y="-203.212"/>
<text text-anchor="start" x="342" y="-193.3124" font-family="Helvetica,sans-Serif" font-size="11.00" fill="#000000">contact_person_id</text>
<polygon fill="#ffffff" stroke="transparent" points="322,-164.2124 322,-186.2124 462,-186.2124 462,-164.2124 322,-164.2124"/>
<polygon fill="none" stroke="#000000" points="322,-164.2124 322,-186.2124 462,-186.2124 462,-164.2124 322,-164.2124"/>
<image xlink:href="../../images/foreignKeys.png" width="11px" height="12px" preserveAspectRatio="xMinYMin meet" x="327" y="-181.212"/>
<text text-anchor="start" x="342" y="-171.3124" font-family="Helvetica,sans-Serif" font-size="11.00" fill="#000000">supplier_id</text>
<polygon fill="none" stroke="#000000" points="322,-145.2124 322,-164.2124 462,-164.2124 462,-145.2124 322,-145.2124"/>
<text text-anchor="start" x="325" y="-151.3124" font-family="Helvetica,sans-Serif" font-size="11.00" fill="#000000">...</text>
<polygon fill="#ffffff" stroke="transparent" points="322,-126.2124 322,-145.2124 370,-145.2124 370,-126.2124 322,-126.2124"/>
<polygon fill="none" stroke="#000000" points="322,-126.2124 322,-145.2124 370,-145.2124 370,-126.2124 322,-126.2124"/>
<text text-anchor="start" x="325" y="-132.3124" font-family="Helvetica,sans-Serif" font-size="11.00" fill="#000000">&lt; 4</text>
<polygon fill="#ffffff" stroke="transparent" points="370,-126.2124 370,-145.2124 427,-145.2124 427,-126.2124 370,-126.2124"/>
<polygon fill="none" stroke="#000000" points="370,-126.2124 370,-145.2124 427,-145.2124 427,-126.2124 370,-126.2124"/>
<text text-anchor="start" x="385.4956" y="-132.3124" font-family="Helvetica,sans-Serif" font-size="11.00" fill="#000000">90 rows</text>
<polygon fill="#ffffff" stroke="transparent" points="427,-126.2124 427,-145.2124 462,-145.2124 462,-126.2124 427,-126.2124"/>
<polygon fill="none" stroke="#000000" points="427,-126.2124 427,-145.2124 462,-145.2124 462,-126.2124 427,-126.2124"/>
<text text-anchor="start" x="443.4053" y="-132.3124" font-family="Helvetica,sans-Serif" font-size="11.00" fill="#000000">5 &gt;</text>
</a>
</g>
</g>
<!-- location -->
<g id="node2" class="node">
<title>location</title>
<g id="a_node2"><a xlink:href="../../tables/location.html" xlink:title="location" target="_top">
<polygon fill="#ffffff" stroke="transparent" points="172.5,-279.7124 172.5,-340.7124 255.5,-340.7124 255.5,-279.7124 172.5,-279.7124"/>
<polygon fill="#f5f5f5" stroke="transparent" points="173,-317.2124 173,-340.2124 256,-340.2124 256,-317.2124 173,-317.2124"/>
<polygon fill="none" stroke="#000000" points="173,-317.2124 173,-340.2124 256,-340.2124 256,-317.2124 173,-317.2124"/>
<text text-anchor="start" x="178" y="-326.3124" font-family="Helvetica,sans-Serif" font-weight="bold" font-size="11.00" fill="#000000">location</text>
<text text-anchor="start" x="221.0437" y="-325.3124" font-family="Helvetica,sans-Serif" font-size="11.00" fill="#000000">[table]</text>
<polygon fill="none" stroke="#000000" points="173,-298.2124 173,-317.2124 256,-317.2124 256,-298.2124 173,-298.2124"/>
<text text-anchor="start" x="176" y="-304.3124" font-family="Helvetica,sans-Serif" font-size="11.00" fill="#000000">...</text>
<polygon fill="#ffffff" stroke="transparent" points="173,-279.2124 173,-298.2124 185,-298.2124 185,-279.2124 173,-279.2124"/>
<polygon fill="none" stroke="#000000" points="173,-279.2124 173,-298.2124 185,-298.2124 185,-279.2124 173,-279.2124"/>
<text text-anchor="start" x="175.9431" y="-285.3124" font-family="Helvetica,sans-Serif" font-size="11.00" fill="#000000"> &#160;</text>
<polygon fill="#ffffff" stroke="transparent" points="185,-279.2124 185,-298.2124 235,-298.2124 235,-279.2124 185,-279.2124"/>
<polygon fill="none" stroke="#000000" points="185,-279.2124 185,-298.2124 235,-298.2124 235,-279.2124 185,-279.2124"/>
<text text-anchor="start" x="187.6904" y="-285.3124" font-family="Helvetica,sans-Serif" font-size="11.00" fill="#000000">541 rows</text>
<polygon fill="#ffffff" stroke="transparent" points="235,-279.2124 235,-298.2124 256,-298.2124 256,-279.2124 235,-279.2124"/>
<polygon fill="none" stroke="#000000" points="235,-279.2124 235,-298.2124 256,-298.2124 256,-279.2124 235,-279.2124"/>
<text text-anchor="start" x="237.7027" y="-285.3124" font-family="Helvetica,sans-Serif" font-size="11.00" fill="#000000">4 &gt;</text>
</a>
</g>
</g>
<!-- applicant&#45;&gt;location -->
<g id="edge1" class="edge">
<title>applicant:w&#45;&gt;location:e</title>
<path fill="none" stroke="#000000" d="M307.9642,-244.5761C284.0633,-258.0256 291.812,-307.2124 256,-307.2124"/>
<polygon fill="#000000" stroke="#000000" points="314.2203,-243.0768 322.839,-244.7133 318.1101,-242.1446 322,-241.2124 322,-241.2124 322,-241.2124 318.1101,-242.1446 321.161,-237.7115 314.2203,-243.0768 314.2203,-243.0768"/>
<ellipse fill="none" stroke="#000000" cx="311.1084" cy="-243.8226" rx="3.2" ry="3.2"/>
</g>
<!-- file -->
<g id="node3" class="node">
<title>file</title>
<g id="a_node3"><a xlink:href="../../tables/file.html" xlink:title="file" target="_top">
<polygon fill="#ffffff" stroke="transparent" points="8,-157.7124 8,-218.7124 106,-218.7124 106,-157.7124 8,-157.7124"/>
<polygon fill="#f5f5f5" stroke="transparent" points="8,-195.2124 8,-218.2124 106,-218.2124 106,-195.2124 8,-195.2124"/>
<polygon fill="none" stroke="#000000" points="8,-195.2124 8,-218.2124 106,-218.2124 106,-195.2124 8,-195.2124"/>
<text text-anchor="start" x="13" y="-204.3124" font-family="Helvetica,sans-Serif" font-weight="bold" font-size="11.00" fill="#000000">file</text>
<text text-anchor="start" x="71.0437" y="-203.3124" font-family="Helvetica,sans-Serif" font-size="11.00" fill="#000000">[table]</text>
<polygon fill="none" stroke="#000000" points="8,-176.2124 8,-195.2124 106,-195.2124 106,-176.2124 8,-176.2124"/>
<text text-anchor="start" x="11" y="-182.3124" font-family="Helvetica,sans-Serif" font-size="11.00" fill="#000000">...</text>
<polygon fill="#ffffff" stroke="transparent" points="8,-157.2124 8,-176.2124 29,-176.2124 29,-157.2124 8,-157.2124"/>
<polygon fill="none" stroke="#000000" points="8,-157.2124 8,-176.2124 29,-176.2124 29,-157.2124 8,-157.2124"/>
<text text-anchor="start" x="10.7027" y="-163.3124" font-family="Helvetica,sans-Serif" font-size="11.00" fill="#000000">&lt; 2</text>
<polygon fill="#ffffff" stroke="transparent" points="29,-157.2124 29,-176.2124 79,-176.2124 79,-157.2124 29,-157.2124"/>
<polygon fill="none" stroke="#000000" points="29,-157.2124 29,-176.2124 79,-176.2124 79,-157.2124 29,-157.2124"/>
<text text-anchor="start" x="31.6904" y="-163.3124" font-family="Helvetica,sans-Serif" font-size="11.00" fill="#000000">590 rows</text>
<polygon fill="#ffffff" stroke="transparent" points="79,-157.2124 79,-176.2124 106,-176.2124 106,-157.2124 79,-157.2124"/>
<polygon fill="none" stroke="#000000" points="79,-157.2124 79,-176.2124 106,-176.2124 106,-157.2124 79,-157.2124"/>
<text text-anchor="start" x="81.6452" y="-163.3124" font-family="Helvetica,sans-Serif" font-size="11.00" fill="#000000">13 &gt;</text>
</a>
</g>
</g>
<!-- applicant&#45;&gt;file -->
<g id="edge2" class="edge">
<title>applicant:w&#45;&gt;file:e</title>
<path fill="none" stroke="#000000" d="M307.928,-222.9409C299.419,-228.2314 295.1019,-237.668 281,-241.2124 223.2409,-255.7298 200.1137,-268.153 147,-241.2124 119.49,-227.2586 136.8465,-185.2124 106,-185.2124"/>
<polygon fill="#000000" stroke="#000000" points="314.2668,-221.2614 322.922,-222.6923 318.1334,-220.2369 322,-219.2124 322,-219.2124 322,-219.2124 318.1334,-220.2369 321.078,-215.7325 314.2668,-221.2614 314.2668,-221.2614"/>
<ellipse fill="none" stroke="#000000" cx="311.1736" cy="-222.081" rx="3.2" ry="3.2"/>
</g>
<!-- contact_person -->
<g id="node4" class="node">
<title>contact_person</title>
<g id="a_node4"><a xlink:href="../../tables/contact_person.html" xlink:title="contact_person" target="_top">
<polygon fill="#ffffff" stroke="transparent" points="155,-169.7124 155,-230.7124 273,-230.7124 273,-169.7124 155,-169.7124"/>
<polygon fill="#f5f5f5" stroke="transparent" points="155,-207.2124 155,-230.2124 273,-230.2124 273,-207.2124 155,-207.2124"/>
<polygon fill="none" stroke="#000000" points="155,-207.2124 155,-230.2124 273,-230.2124 273,-207.2124 155,-207.2124"/>
<text text-anchor="start" x="159.9026" y="-216.3124" font-family="Helvetica,sans-Serif" font-weight="bold" font-size="11.00" fill="#000000">contact_person</text>
<text text-anchor="start" x="238.5219" y="-215.3124" font-family="Helvetica,sans-Serif" font-size="11.00" fill="#000000">[table]</text>
<polygon fill="none" stroke="#000000" points="155,-188.2124 155,-207.2124 273,-207.2124 273,-188.2124 155,-188.2124"/>
<text text-anchor="start" x="158" y="-194.3124" font-family="Helvetica,sans-Serif" font-size="11.00" fill="#000000">...</text>
<polygon fill="#ffffff" stroke="transparent" points="155,-169.2124 155,-188.2124 184,-188.2124 184,-169.2124 155,-169.2124"/>
<polygon fill="none" stroke="#000000" points="155,-169.2124 155,-188.2124 184,-188.2124 184,-169.2124 155,-169.2124"/>
<text text-anchor="start" x="158" y="-175.3124" font-family="Helvetica,sans-Serif" font-size="11.00" fill="#000000"> &#160;</text>
<polygon fill="#ffffff" stroke="transparent" points="184,-169.2124 184,-188.2124 243,-188.2124 243,-169.2124 184,-169.2124"/>
<polygon fill="none" stroke="#000000" points="184,-169.2124 184,-188.2124 243,-188.2124 243,-169.2124 184,-169.2124"/>
<text text-anchor="start" x="195.3807" y="-175.3124" font-family="Helvetica,sans-Serif" font-size="11.00" fill="#000000">109 rows</text>
<polygon fill="#ffffff" stroke="transparent" points="243,-169.2124 243,-188.2124 273,-188.2124 273,-169.2124 243,-169.2124"/>
<polygon fill="none" stroke="#000000" points="243,-169.2124 243,-188.2124 273,-188.2124 273,-169.2124 243,-169.2124"/>
<text text-anchor="start" x="254.4053" y="-175.3124" font-family="Helvetica,sans-Serif" font-size="11.00" fill="#000000">2 &gt;</text>
</a>
</g>
</g>
<!-- applicant&#45;&gt;contact_person -->
<g id="edge3" class="edge">
<title>applicant:w&#45;&gt;contact_person:e</title>
<path fill="none" stroke="#000000" d="M307.4909,-197.2124C296.1774,-197.2124 288.9931,-197.2124 273,-197.2124"/>
<polygon fill="#000000" stroke="#000000" points="314,-197.2124 322,-200.8124 318,-197.2124 322,-197.2124 322,-197.2124 322,-197.2124 318,-197.2124 322,-193.6124 314,-197.2124 314,-197.2124"/>
<ellipse fill="none" stroke="#000000" cx="310.8" cy="-197.2125" rx="3.2" ry="3.2"/>
</g>
<!-- supplier -->
<g id="node5" class="node">
<title>supplier</title>
<g id="a_node5"><a xlink:href="../../tables/supplier.html" xlink:title="supplier" target="_top">
<polygon fill="#ffffff" stroke="transparent" points="168,-87.7124 168,-148.7124 260,-148.7124 260,-87.7124 168,-87.7124"/>
<polygon fill="#f5f5f5" stroke="transparent" points="168,-125.2124 168,-148.2124 260,-148.2124 260,-125.2124 168,-125.2124"/>
<polygon fill="none" stroke="#000000" points="168,-125.2124 168,-148.2124 260,-148.2124 260,-125.2124 168,-125.2124"/>
<text text-anchor="start" x="173" y="-134.3124" font-family="Helvetica,sans-Serif" font-weight="bold" font-size="11.00" fill="#000000">supplier</text>
<text text-anchor="start" x="225.0437" y="-133.3124" font-family="Helvetica,sans-Serif" font-size="11.00" fill="#000000">[table]</text>
<polygon fill="none" stroke="#000000" points="168,-106.2124 168,-125.2124 260,-125.2124 260,-106.2124 168,-106.2124"/>
<text text-anchor="start" x="171" y="-112.3124" font-family="Helvetica,sans-Serif" font-size="11.00" fill="#000000">...</text>
<polygon fill="#ffffff" stroke="transparent" points="168,-87.2124 168,-106.2124 189,-106.2124 189,-87.2124 168,-87.2124"/>
<polygon fill="none" stroke="#000000" points="168,-87.2124 168,-106.2124 189,-106.2124 189,-87.2124 168,-87.2124"/>
<text text-anchor="start" x="170.7027" y="-93.3124" font-family="Helvetica,sans-Serif" font-size="11.00" fill="#000000">&lt; 3</text>
<polygon fill="#ffffff" stroke="transparent" points="189,-87.2124 189,-106.2124 239,-106.2124 239,-87.2124 189,-87.2124"/>
<polygon fill="none" stroke="#000000" points="189,-87.2124 189,-106.2124 239,-106.2124 239,-87.2124 189,-87.2124"/>
<text text-anchor="start" x="191.6904" y="-93.3124" font-family="Helvetica,sans-Serif" font-size="11.00" fill="#000000">201 rows</text>
<polygon fill="#ffffff" stroke="transparent" points="239,-87.2124 239,-106.2124 260,-106.2124 260,-87.2124 239,-87.2124"/>
<polygon fill="none" stroke="#000000" points="239,-87.2124 239,-106.2124 260,-106.2124 260,-87.2124 239,-87.2124"/>
<text text-anchor="start" x="241.7027" y="-93.3124" font-family="Helvetica,sans-Serif" font-size="11.00" fill="#000000">4 &gt;</text>
</a>
</g>
</g>
<!-- applicant&#45;&gt;supplier -->
<g id="edge4" class="edge">
<title>applicant:w&#45;&gt;supplier:e</title>
<path fill="none" stroke="#000000" d="M307.7924,-171.4591C286.8995,-158.3237 292.5043,-115.2124 260,-115.2124"/>
<polygon fill="#000000" stroke="#000000" points="314.2653,-173.1691 321.0805,-178.693 318.1327,-174.1907 322,-175.2124 322,-175.2124 322,-175.2124 318.1327,-174.1907 322.9195,-171.7318 314.2653,-173.1691 314.2653,-173.1691"/>
<ellipse fill="none" stroke="#000000" cx="311.1715" cy="-172.3517" rx="3.2" ry="3.2"/>
</g>
<!-- supplier&#45;&gt;file -->
<g id="edge13" class="edge">
<title>supplier:w&#45;&gt;file:e</title>
<path fill="none" stroke="#000000" d="M153.8369,-118.9759C131.1406,-133.5156 141.7154,-185.2124 106,-185.2124"/>
<polygon fill="#000000" stroke="#000000" points="160.2683,-117.2669 168.9245,-118.6917 164.1342,-116.2397 168,-115.2124 168,-115.2124 168,-115.2124 164.1342,-116.2397 167.0755,-111.7331 160.2683,-117.2669 160.2683,-117.2669"/>
<ellipse fill="none" stroke="#000000" cx="157.1756" cy="-118.0888" rx="3.2" ry="3.2"/>
</g>
<!-- applicant_document -->
<g id="node6" class="node">
<title>applicant_document</title>
<g id="a_node6"><a xlink:href="../../tables/applicant_document.html" xlink:title="applicant_document" target="_top">
<polygon fill="#ffffff" stroke="transparent" points="539.5,-431.7124 539.5,-492.7124 680.5,-492.7124 680.5,-431.7124 539.5,-431.7124"/>
<polygon fill="#f5f5f5" stroke="transparent" points="540,-469.2124 540,-492.2124 681,-492.2124 681,-469.2124 540,-469.2124"/>
<polygon fill="none" stroke="#000000" points="540,-469.2124 540,-492.2124 681,-492.2124 681,-469.2124 540,-469.2124"/>
<text text-anchor="start" x="544.7893" y="-478.3124" font-family="Helvetica,sans-Serif" font-weight="bold" font-size="11.00" fill="#000000">applicant_document</text>
<text text-anchor="start" x="646.5219" y="-477.3124" font-family="Helvetica,sans-Serif" font-size="11.00" fill="#000000">[table]</text>
<polygon fill="none" stroke="#000000" points="540,-450.2124 540,-469.2124 681,-469.2124 681,-450.2124 540,-450.2124"/>
<text text-anchor="start" x="543" y="-456.3124" font-family="Helvetica,sans-Serif" font-size="11.00" fill="#000000">...</text>
<polygon fill="#ffffff" stroke="transparent" points="540,-431.2124 540,-450.2124 593,-450.2124 593,-431.2124 540,-431.2124"/>
<polygon fill="none" stroke="#000000" points="540,-431.2124 540,-450.2124 593,-450.2124 593,-431.2124 540,-431.2124"/>
<text text-anchor="start" x="543" y="-437.3124" font-family="Helvetica,sans-Serif" font-size="11.00" fill="#000000">&lt; 2</text>
<polygon fill="#ffffff" stroke="transparent" points="593,-431.2124 593,-450.2124 653,-450.2124 653,-431.2124 593,-431.2124"/>
<polygon fill="none" stroke="#000000" points="593,-431.2124 593,-450.2124 653,-450.2124 653,-431.2124 593,-431.2124"/>
<text text-anchor="start" x="611.4956" y="-437.3124" font-family="Helvetica,sans-Serif" font-size="11.00" fill="#000000">91 rows</text>
<polygon fill="#ffffff" stroke="transparent" points="653,-431.2124 653,-450.2124 681,-450.2124 681,-431.2124 653,-431.2124"/>
<polygon fill="none" stroke="#000000" points="653,-431.2124 653,-450.2124 681,-450.2124 681,-431.2124 653,-431.2124"/>
<text text-anchor="start" x="671.8862" y="-437.3124" font-family="Helvetica,sans-Serif" font-size="11.00" fill="#000000"> &#160;</text>
</a>
</g>
</g>
<!-- applicant_document&#45;&gt;applicant -->
<g id="edge5" class="edge">
<title>applicant_document:w&#45;&gt;applicant:e</title>
<path fill="none" stroke="#000000" d="M525.6965,-455.8956C515.178,-449.7938 512.2732,-436.0477 503,-421.2124 474.4603,-375.5545 515.8439,-307.2124 462,-307.2124"/>
<polygon fill="#000000" stroke="#000000" points="532.2068,-457.4052 539.1868,-462.7193 536.1034,-458.3088 540,-459.2124 540,-459.2124 540,-459.2124 536.1034,-458.3088 540.8132,-455.7054 532.2068,-457.4052 532.2068,-457.4052"/>
<ellipse fill="none" stroke="#000000" cx="529.0895" cy="-456.6824" rx="3.2" ry="3.2"/>
</g>
<!-- applicant_document&#45;&gt;file -->
<g id="edge6" class="edge">
<title>applicant_document:w&#45;&gt;file:e</title>
<path fill="none" stroke="#000000" d="M525.3525,-459.2576C354.1543,-460.2883 269.9514,-477.4087 147,-351.2124 93.9679,-296.7807 181.9948,-185.2124 106,-185.2124"/>
<polygon fill="#000000" stroke="#000000" points="532,-459.2371 540.0111,-462.8124 536,-459.2248 540,-459.2124 540,-459.2124 540,-459.2124 536,-459.2248 539.9889,-455.6124 532,-459.2371 532,-459.2371"/>
<ellipse fill="none" stroke="#000000" cx="528.8001" cy="-459.2471" rx="3.2" ry="3.2"/>
</g>
<!-- applicant_language -->
<g id="node7" class="node">
<title>applicant_language</title>
<g id="a_node7"><a xlink:href="../../tables/applicant_language.html" xlink:title="applicant_language" target="_top">
<polygon fill="#ffffff" stroke="transparent" points="511,-298.2124 511,-410.2124 709,-410.2124 709,-298.2124 511,-298.2124"/>
<polygon fill="#f5f5f5" stroke="transparent" points="513,-385.2124 513,-408.2124 707,-408.2124 707,-385.2124 513,-385.2124"/>
<polygon fill="none" stroke="#000000" points="513,-385.2124 513,-408.2124 707,-408.2124 707,-385.2124 513,-385.2124"/>
<text text-anchor="start" x="518" y="-394.3124" font-family="Helvetica,sans-Serif" font-weight="bold" font-size="11.00" fill="#000000">applicant_language</text>
<text text-anchor="start" x="672.0437" y="-393.3124" font-family="Helvetica,sans-Serif" font-size="11.00" fill="#000000">[table]</text>
<polygon fill="#ffffff" stroke="transparent" points="513,-363.2124 513,-385.2124 646,-385.2124 646,-363.2124 513,-363.2124"/>
<polygon fill="none" stroke="#000000" points="513,-363.2124 513,-385.2124 646,-385.2124 646,-363.2124 513,-363.2124"/>
<image xlink:href="../../images/foreignKeys.png" width="11px" height="12px" preserveAspectRatio="xMinYMin meet" x="518" y="-380.212"/>
<text text-anchor="start" x="533" y="-370.3124" font-family="Helvetica,sans-Serif" font-size="11.00" fill="#000000">applicant_id</text>
<polygon fill="none" stroke="#000000" points="646,-363.2124 646,-385.2124 707,-385.2124 707,-363.2124 646,-363.2124"/>
<text text-anchor="start" x="649" y="-370.9124" font-family="Helvetica,sans-Serif" font-size="11.00" fill="#000000">bigint[19]</text>
<polygon fill="none" stroke="#000000" points="513,-341.2124 513,-363.2124 646,-363.2124 646,-341.2124 513,-341.2124"/>
<text text-anchor="start" x="533" y="-348.3124" font-family="Helvetica,sans-Serif" font-size="11.00" fill="#000000">language</text>
<polygon fill="none" stroke="#000000" points="646,-341.2124 646,-363.2124 707,-363.2124 707,-341.2124 646,-341.2124"/>
<text text-anchor="start" x="649" y="-348.9124" font-family="Helvetica,sans-Serif" font-size="11.00" fill="#000000">varchar[2]</text>
<polygon fill="none" stroke="#000000" points="513,-319.2124 513,-341.2124 646,-341.2124 646,-319.2124 513,-319.2124"/>
<text text-anchor="start" x="533" y="-326.3124" font-family="Helvetica,sans-Serif" font-size="11.00" fill="#000000">level</text>
<polygon fill="none" stroke="#000000" points="646,-319.2124 646,-341.2124 707,-341.2124 707,-319.2124 646,-319.2124"/>
<text text-anchor="start" x="648.994" y="-326.9124" font-family="Helvetica,sans-Serif" font-size="11.00" fill="#000000">varchar[15]</text>
<polygon fill="#ffffff" stroke="transparent" points="513,-300.2124 513,-319.2124 565,-319.2124 565,-300.2124 513,-300.2124"/>
<polygon fill="none" stroke="#000000" points="513,-300.2124 513,-319.2124 565,-319.2124 565,-300.2124 513,-300.2124"/>
<text text-anchor="start" x="516" y="-306.3124" font-family="Helvetica,sans-Serif" font-size="11.00" fill="#000000">&lt; 1</text>
<polygon fill="#ffffff" stroke="transparent" points="565,-300.2124 565,-319.2124 646,-319.2124 646,-300.2124 565,-300.2124"/>
<polygon fill="none" stroke="#000000" points="565,-300.2124 565,-319.2124 646,-319.2124 646,-300.2124 565,-300.2124"/>
<text text-anchor="start" x="598.3807" y="-306.3124" font-family="Helvetica,sans-Serif" font-size="11.00" fill="#000000">181 rows</text>
<polygon fill="#ffffff" stroke="transparent" points="646,-300.2124 646,-319.2124 707,-319.2124 707,-300.2124 646,-300.2124"/>
<polygon fill="none" stroke="#000000" points="646,-300.2124 646,-319.2124 707,-319.2124 707,-300.2124 646,-300.2124"/>
<text text-anchor="start" x="688.4053" y="-306.3124" font-family="Helvetica,sans-Serif" font-size="11.00" fill="#000000">0 &gt;</text>
<polygon fill="none" stroke="#000000" stroke-width="2" points="512,-299.2124 512,-409.2124 708,-409.2124 708,-299.2124 512,-299.2124"/>
</a>
</g>
</g>
<!-- applicant_language&#45;&gt;applicant -->
<g id="edge7" class="edge">
<title>applicant_language:w&#45;&gt;applicant:e</title>
<path fill="none" stroke="#000000" d="M498.9871,-369.3939C481.7522,-354.0314 493.2834,-307.2124 462,-307.2124"/>
<polygon fill="#000000" stroke="#000000" points="505.4348,-371.611 511.8294,-377.6167 509.2174,-372.9117 513,-374.2124 513,-374.2124 513,-374.2124 509.2174,-372.9117 514.1706,-370.808 505.4348,-371.611 505.4348,-371.611"/>
<ellipse fill="none" stroke="#000000" cx="502.4087" cy="-370.5704" rx="3.2" ry="3.2"/>
</g>
<!-- applicant_role -->
<g id="node8" class="node">
<title>applicant_role</title>
<g id="a_node8"><a xlink:href="../../tables/applicant_role.html" xlink:title="applicant_role" target="_top">
<polygon fill="#ffffff" stroke="transparent" points="554.5,-215.7124 554.5,-276.7124 665.5,-276.7124 665.5,-215.7124 554.5,-215.7124"/>
<polygon fill="#f5f5f5" stroke="transparent" points="555,-253.2124 555,-276.2124 666,-276.2124 666,-253.2124 555,-253.2124"/>
<polygon fill="none" stroke="#000000" points="555,-253.2124 555,-276.2124 666,-276.2124 666,-253.2124 555,-253.2124"/>
<text text-anchor="start" x="559.7697" y="-262.3124" font-family="Helvetica,sans-Serif" font-weight="bold" font-size="11.00" fill="#000000">applicant_role</text>
<text text-anchor="start" x="631.5219" y="-261.3124" font-family="Helvetica,sans-Serif" font-size="11.00" fill="#000000">[table]</text>
<polygon fill="none" stroke="#000000" points="555,-234.2124 555,-253.2124 666,-253.2124 666,-234.2124 555,-234.2124"/>
<text text-anchor="start" x="558" y="-240.3124" font-family="Helvetica,sans-Serif" font-size="11.00" fill="#000000">...</text>
<polygon fill="#ffffff" stroke="transparent" points="555,-215.2124 555,-234.2124 593,-234.2124 593,-215.2124 555,-215.2124"/>
<polygon fill="none" stroke="#000000" points="555,-215.2124 555,-234.2124 593,-234.2124 593,-215.2124 555,-215.2124"/>
<text text-anchor="start" x="558" y="-221.3124" font-family="Helvetica,sans-Serif" font-size="11.00" fill="#000000">&lt; 2</text>
<polygon fill="#ffffff" stroke="transparent" points="593,-215.2124 593,-234.2124 645,-234.2124 645,-215.2124 593,-215.2124"/>
<polygon fill="none" stroke="#000000" points="593,-215.2124 593,-234.2124 645,-234.2124 645,-215.2124 593,-215.2124"/>
<text text-anchor="start" x="603.4956" y="-221.3124" font-family="Helvetica,sans-Serif" font-size="11.00" fill="#000000">91 rows</text>
<polygon fill="#ffffff" stroke="transparent" points="645,-215.2124 645,-234.2124 666,-234.2124 666,-215.2124 645,-215.2124"/>
<polygon fill="none" stroke="#000000" points="645,-215.2124 645,-234.2124 666,-234.2124 666,-215.2124 645,-215.2124"/>
<text text-anchor="start" x="656.8862" y="-221.3124" font-family="Helvetica,sans-Serif" font-size="11.00" fill="#000000"> &#160;</text>
</a>
</g>
</g>
<!-- applicant_role&#45;&gt;applicant -->
<g id="edge8" class="edge">
<title>applicant_role:w&#45;&gt;applicant:e</title>
<path fill="none" stroke="#000000" d="M540.4503,-245.3418C505.7446,-256.4468 506.6871,-307.2124 462,-307.2124"/>
<polygon fill="#000000" stroke="#000000" points="547.0843,-244.3709 555.5213,-246.7744 551.0422,-243.7917 555,-243.2124 555,-243.2124 555,-243.2124 551.0422,-243.7917 554.4787,-239.6503 547.0843,-244.3709 547.0843,-244.3709"/>
<ellipse fill="none" stroke="#000000" cx="543.9181" cy="-244.8343" rx="3.2" ry="3.2"/>
</g>
<!-- applicant_skill -->
<g id="node9" class="node">
<title>applicant_skill</title>
<g id="a_node9"><a xlink:href="../../tables/applicant_skill.html" xlink:title="applicant_skill" target="_top">
<polygon fill="#ffffff" stroke="transparent" points="554.5,-133.7124 554.5,-194.7124 665.5,-194.7124 665.5,-133.7124 554.5,-133.7124"/>
<polygon fill="#f5f5f5" stroke="transparent" points="555,-171.2124 555,-194.2124 666,-194.2124 666,-171.2124 555,-171.2124"/>
<polygon fill="none" stroke="#000000" points="555,-171.2124 555,-194.2124 666,-194.2124 666,-171.2124 555,-171.2124"/>
<text text-anchor="start" x="559.7746" y="-180.3124" font-family="Helvetica,sans-Serif" font-weight="bold" font-size="11.00" fill="#000000">applicant_skill</text>
<text text-anchor="start" x="631.5219" y="-179.3124" font-family="Helvetica,sans-Serif" font-size="11.00" fill="#000000">[table]</text>
<polygon fill="none" stroke="#000000" points="555,-152.2124 555,-171.2124 666,-171.2124 666,-152.2124 555,-152.2124"/>
<text text-anchor="start" x="558" y="-158.3124" font-family="Helvetica,sans-Serif" font-size="11.00" fill="#000000">...</text>
<polygon fill="#ffffff" stroke="transparent" points="555,-133.2124 555,-152.2124 590,-152.2124 590,-133.2124 555,-133.2124"/>
<polygon fill="none" stroke="#000000" points="555,-133.2124 555,-152.2124 590,-152.2124 590,-133.2124 555,-133.2124"/>
<text text-anchor="start" x="558" y="-139.3124" font-family="Helvetica,sans-Serif" font-size="11.00" fill="#000000">&lt; 2</text>
<polygon fill="#ffffff" stroke="transparent" points="590,-133.2124 590,-152.2124 647,-152.2124 647,-133.2124 590,-133.2124"/>
<polygon fill="none" stroke="#000000" points="590,-133.2124 590,-152.2124 647,-152.2124 647,-133.2124 590,-133.2124"/>
<text text-anchor="start" x="599.3807" y="-139.3124" font-family="Helvetica,sans-Serif" font-size="11.00" fill="#000000">181 rows</text>
<polygon fill="#ffffff" stroke="transparent" points="647,-133.2124 647,-152.2124 666,-152.2124 666,-133.2124 647,-133.2124"/>
<polygon fill="none" stroke="#000000" points="647,-133.2124 647,-152.2124 666,-152.2124 666,-133.2124 647,-133.2124"/>
<text text-anchor="start" x="656.8862" y="-139.3124" font-family="Helvetica,sans-Serif" font-size="11.00" fill="#000000"> &#160;</text>
</a>
</g>
</g>
<!-- applicant_skill&#45;&gt;applicant -->
<g id="edge9" class="edge">
<title>applicant_skill:w&#45;&gt;applicant:e</title>
<path fill="none" stroke="#000000" d="M540.4778,-163.1696C522.7421,-168.687 517.3996,-185.2696 503,-205.2124 474.3984,-244.8244 510.8586,-307.2124 462,-307.2124"/>
<polygon fill="#000000" stroke="#000000" points="547.0717,-162.281 555.4809,-164.7801 551.0358,-161.7467 555,-161.2124 555,-161.2124 555,-161.2124 551.0358,-161.7467 554.5191,-157.6446 547.0717,-162.281 547.0717,-162.281"/>
<ellipse fill="none" stroke="#000000" cx="543.9004" cy="-162.7084" rx="3.2" ry="3.2"/>
</g>
<!-- job_request_application -->
<g id="node10" class="node">
<title>job_request_application</title>
<g id="a_node10"><a xlink:href="../../tables/job_request_application.html" xlink:title="job_request_application" target="_top">
<polygon fill="#ffffff" stroke="transparent" points="530.5,-51.7124 530.5,-112.7124 689.5,-112.7124 689.5,-51.7124 530.5,-51.7124"/>
<polygon fill="#f5f5f5" stroke="transparent" points="531,-89.2124 531,-112.2124 690,-112.2124 690,-89.2124 531,-89.2124"/>
<polygon fill="none" stroke="#000000" points="531,-89.2124 531,-112.2124 690,-112.2124 690,-89.2124 531,-89.2124"/>
<text text-anchor="start" x="535.9261" y="-98.3124" font-family="Helvetica,sans-Serif" font-weight="bold" font-size="11.00" fill="#000000">job_request_application</text>
<text text-anchor="start" x="655.5219" y="-97.3124" font-family="Helvetica,sans-Serif" font-size="11.00" fill="#000000">[table]</text>
<polygon fill="none" stroke="#000000" points="531,-70.2124 531,-89.2124 690,-89.2124 690,-70.2124 531,-70.2124"/>
<text text-anchor="start" x="534" y="-76.3124" font-family="Helvetica,sans-Serif" font-size="11.00" fill="#000000">...</text>
<polygon fill="#ffffff" stroke="transparent" points="531,-51.2124 531,-70.2124 588,-70.2124 588,-51.2124 531,-51.2124"/>
<polygon fill="none" stroke="#000000" points="531,-51.2124 531,-70.2124 588,-70.2124 588,-51.2124 531,-51.2124"/>
<text text-anchor="start" x="534" y="-57.3124" font-family="Helvetica,sans-Serif" font-size="11.00" fill="#000000">&lt; 6</text>
<polygon fill="#ffffff" stroke="transparent" points="588,-51.2124 588,-70.2124 650,-70.2124 650,-51.2124 588,-51.2124"/>
<polygon fill="none" stroke="#000000" points="588,-51.2124 588,-70.2124 650,-70.2124 650,-51.2124 588,-51.2124"/>
<text text-anchor="start" x="608.4956" y="-57.3124" font-family="Helvetica,sans-Serif" font-size="11.00" fill="#000000">75 rows</text>
<polygon fill="#ffffff" stroke="transparent" points="650,-51.2124 650,-70.2124 690,-70.2124 690,-51.2124 650,-51.2124"/>
<polygon fill="none" stroke="#000000" points="650,-51.2124 650,-70.2124 690,-70.2124 690,-51.2124 650,-51.2124"/>
<text text-anchor="start" x="671.4053" y="-57.3124" font-family="Helvetica,sans-Serif" font-size="11.00" fill="#000000">5 &gt;</text>
</a>
</g>
</g>
<!-- job_request_application&#45;&gt;applicant -->
<g id="edge10" class="edge">
<title>job_request_application:w&#45;&gt;applicant:e</title>
<path fill="none" stroke="#000000" d="M517.2734,-83.7931C509.0718,-91.4771 509.4494,-107.6549 503,-123.2124 486.9576,-161.9107 503.8917,-307.2124 462,-307.2124"/>
<polygon fill="#000000" stroke="#000000" points="523.4114,-81.7448 532.1396,-82.6273 527.2057,-80.4786 531,-79.2124 531,-79.2124 531,-79.2124 527.2057,-80.4786 529.8604,-75.7975 523.4114,-81.7448 523.4114,-81.7448"/>
<ellipse fill="none" stroke="#000000" cx="520.3759" cy="-82.7578" rx="3.2" ry="3.2"/>
</g>
<!-- job_request_application&#45;&gt;file -->
<g id="edge11" class="edge">
<title>job_request_application:w&#45;&gt;file:e</title>
<path fill="none" stroke="#000000" d="M516.2475,-78.9651C356.004,-73.5839 283.3585,16.8757 147,-77.2124 104.7411,-106.3712 157.3425,-185.2124 106,-185.2124"/>
<polygon fill="#000000" stroke="#000000" points="523.0011,-79.0782 530.9396,-82.8119 527.0006,-79.1453 531,-79.2124 531,-79.2124 531,-79.2124 527.0006,-79.1453 531.0604,-75.6129 523.0011,-79.0782 523.0011,-79.0782"/>
<ellipse fill="none" stroke="#000000" cx="519.8016" cy="-79.0246" rx="3.2" ry="3.2"/>
</g>
<!-- job_request_application&#45;&gt;supplier -->
<g id="edge12" class="edge">
<title>job_request_application:w&#45;&gt;supplier:e</title>
<path fill="none" stroke="#000000" d="M516.5085,-79.3891C407.0437,-82.105 376.519,-115.2124 260,-115.2124"/>
<polygon fill="#000000" stroke="#000000" points="523.0006,-79.31 531.0439,-82.8121 527.0003,-79.2612 531,-79.2124 531,-79.2124 531,-79.2124 527.0003,-79.2612 530.9561,-75.6127 523.0006,-79.31 523.0006,-79.31"/>
<ellipse fill="none" stroke="#000000" cx="519.8008" cy="-79.349" rx="3.2" ry="3.2"/>
</g>
</g>
</svg>
