<?xml version="1.0" encoding="UTF-8" standalone="no"?>
<!DOCTYPE svg PUBLIC "-//W3C//DTD SVG 1.1//EN"
 "http://www.w3.org/Graphics/SVG/1.1/DTD/svg11.dtd">
<!-- Generated by graphviz version 2.40.1 (20161225.0304)
 -->
<!-- Title: oneDegreeRelationshipsDiagram Pages: 1 -->
<svg width="411pt" height="267pt"
 viewBox="0.00 0.00 411.00 266.70" xmlns="http://www.w3.org/2000/svg" xmlns:xlink="http://www.w3.org/1999/xlink">
<g id="graph0" class="graph" transform="scale(1 1) rotate(0) translate(4 262.7)">
<title>oneDegreeRelationshipsDiagram</title>
<polygon fill="#ffffff" stroke="transparent" points="-4,4 -4,-262.7 407,-262.7 407,4 -4,4"/>
<text text-anchor="middle" x="72.4936" y="-7.3" font-family="Helvetica,sans-Serif" font-size="11.00" fill="#000000">Generated by SchemaSpy</text>
<!-- applicant_language -->
<g id="node1" class="node">
<title>applicant_language</title>
<g id="a_node1"><a xlink:href="../../tables/applicant_language.html" xlink:title="applicant_language" target="_top">
<polygon fill="#ffffff" stroke="transparent" points="197,-142.7 197,-254.7 395,-254.7 395,-142.7 197,-142.7"/>
<polygon fill="#f5f5f5" stroke="transparent" points="199,-229.7 199,-252.7 393,-252.7 393,-229.7 199,-229.7"/>
<polygon fill="none" stroke="#000000" points="199,-229.7 199,-252.7 393,-252.7 393,-229.7 199,-229.7"/>
<text text-anchor="start" x="204" y="-238.8" font-family="Helvetica,sans-Serif" font-weight="bold" font-size="11.00" fill="#000000">applicant_language</text>
<text text-anchor="start" x="358.0437" y="-237.8" font-family="Helvetica,sans-Serif" font-size="11.00" fill="#000000">[table]</text>
<polygon fill="#ffffff" stroke="transparent" points="199,-207.7 199,-229.7 332,-229.7 332,-207.7 199,-207.7"/>
<polygon fill="none" stroke="#000000" points="199,-207.7 199,-229.7 332,-229.7 332,-207.7 199,-207.7"/>
<image xlink:href="../../images/foreignKeys.png" width="11px" height="12px" preserveAspectRatio="xMinYMin meet" x="204" y="-224.7"/>
<text text-anchor="start" x="219" y="-214.8" font-family="Helvetica,sans-Serif" font-size="11.00" fill="#000000">applicant_id</text>
<polygon fill="none" stroke="#000000" points="332,-207.7 332,-229.7 393,-229.7 393,-207.7 332,-207.7"/>
<text text-anchor="start" x="335" y="-215.4" font-family="Helvetica,sans-Serif" font-size="11.00" fill="#000000">bigint[19]</text>
<polygon fill="none" stroke="#000000" points="199,-185.7 199,-207.7 332,-207.7 332,-185.7 199,-185.7"/>
<text text-anchor="start" x="219" y="-192.8" font-family="Helvetica,sans-Serif" font-size="11.00" fill="#000000">language</text>
<polygon fill="none" stroke="#000000" points="332,-185.7 332,-207.7 393,-207.7 393,-185.7 332,-185.7"/>
<text text-anchor="start" x="335" y="-193.4" font-family="Helvetica,sans-Serif" font-size="11.00" fill="#000000">varchar[2]</text>
<polygon fill="none" stroke="#000000" points="199,-163.7 199,-185.7 332,-185.7 332,-163.7 199,-163.7"/>
<text text-anchor="start" x="219" y="-170.8" font-family="Helvetica,sans-Serif" font-size="11.00" fill="#000000">level</text>
<polygon fill="none" stroke="#000000" points="332,-163.7 332,-185.7 393,-185.7 393,-163.7 332,-163.7"/>
<text text-anchor="start" x="334.994" y="-171.4" font-family="Helvetica,sans-Serif" font-size="11.00" fill="#000000">varchar[15]</text>
<polygon fill="#ffffff" stroke="transparent" points="199,-144.7 199,-163.7 251,-163.7 251,-144.7 199,-144.7"/>
<polygon fill="none" stroke="#000000" points="199,-144.7 199,-163.7 251,-163.7 251,-144.7 199,-144.7"/>
<text text-anchor="start" x="202" y="-150.8" font-family="Helvetica,sans-Serif" font-size="11.00" fill="#000000">&lt; 1</text>
<polygon fill="#ffffff" stroke="transparent" points="251,-144.7 251,-163.7 332,-163.7 332,-144.7 251,-144.7"/>
<polygon fill="none" stroke="#000000" points="251,-144.7 251,-163.7 332,-163.7 332,-144.7 251,-144.7"/>
<text text-anchor="start" x="284.3807" y="-150.8" font-family="Helvetica,sans-Serif" font-size="11.00" fill="#000000">181 rows</text>
<polygon fill="#ffffff" stroke="transparent" points="332,-144.7 332,-163.7 393,-163.7 393,-144.7 332,-144.7"/>
<polygon fill="none" stroke="#000000" points="332,-144.7 332,-163.7 393,-163.7 393,-144.7 332,-144.7"/>
<text text-anchor="start" x="374.4053" y="-150.8" font-family="Helvetica,sans-Serif" font-size="11.00" fill="#000000">0 &gt;</text>
<polygon fill="none" stroke="#000000" stroke-width="2" points="198,-143.7 198,-253.7 394,-253.7 394,-143.7 198,-143.7"/>
</a>
</g>
</g>
<!-- applicant -->
<g id="node2" class="node">
<title>applicant</title>
<g id="a_node2"><a xlink:href="../../tables/applicant.html" xlink:title="applicant" target="_top">
<polygon fill="#ffffff" stroke="transparent" points="8,-38.2 8,-253.2 148,-253.2 148,-38.2 8,-38.2"/>
<polygon fill="#f5f5f5" stroke="transparent" points="8,-229.7 8,-252.7 148,-252.7 148,-229.7 8,-229.7"/>
<polygon fill="none" stroke="#000000" points="8,-229.7 8,-252.7 148,-252.7 148,-229.7 8,-229.7"/>
<text text-anchor="start" x="13" y="-238.8" font-family="Helvetica,sans-Serif" font-weight="bold" font-size="11.00" fill="#000000">applicant</text>
<text text-anchor="start" x="113.0437" y="-237.8" font-family="Helvetica,sans-Serif" font-size="11.00" fill="#000000">[table]</text>
<polygon fill="none" stroke="#000000" points="8,-207.7 8,-229.7 148,-229.7 148,-207.7 8,-207.7"/>
<image xlink:href="../../images/primaryKeys.png" width="11px" height="12px" preserveAspectRatio="xMinYMin meet" x="13" y="-224.7"/>
<text text-anchor="start" x="28" y="-214.8" font-family="Helvetica,sans-Serif" font-size="11.00" fill="#000000">id</text>
<polygon fill="#ffffff" stroke="transparent" points="8,-185.7 8,-207.7 148,-207.7 148,-185.7 8,-185.7"/>
<polygon fill="none" stroke="#000000" points="8,-185.7 8,-207.7 148,-207.7 148,-185.7 8,-185.7"/>
<text text-anchor="start" x="28" y="-192.8" font-family="Helvetica,sans-Serif" font-size="11.00" fill="#000000">created_by</text>
<polygon fill="#ffffff" stroke="transparent" points="8,-163.7 8,-185.7 148,-185.7 148,-163.7 8,-163.7"/>
<polygon fill="none" stroke="#000000" points="8,-163.7 8,-185.7 148,-185.7 148,-163.7 8,-163.7"/>
<text text-anchor="start" x="28" y="-170.8" font-family="Helvetica,sans-Serif" font-size="11.00" fill="#000000">modified_by</text>
<polygon fill="#ffffff" stroke="transparent" points="8,-141.7 8,-163.7 148,-163.7 148,-141.7 8,-141.7"/>
<polygon fill="none" stroke="#000000" points="8,-141.7 8,-163.7 148,-163.7 148,-141.7 8,-141.7"/>
<image xlink:href="../../images/foreignKeys.png" width="11px" height="12px" preserveAspectRatio="xMinYMin meet" x="13" y="-158.7"/>
<text text-anchor="start" x="28" y="-148.8" font-family="Helvetica,sans-Serif" font-size="11.00" fill="#000000">address_id</text>
<polygon fill="#ffffff" stroke="transparent" points="8,-119.7 8,-141.7 148,-141.7 148,-119.7 8,-119.7"/>
<polygon fill="none" stroke="#000000" points="8,-119.7 8,-141.7 148,-141.7 148,-119.7 8,-119.7"/>
<image xlink:href="../../images/foreignKeys.png" width="11px" height="12px" preserveAspectRatio="xMinYMin meet" x="13" y="-136.7"/>
<text text-anchor="start" x="28" y="-126.8" font-family="Helvetica,sans-Serif" font-size="11.00" fill="#000000">avatar_id</text>
<polygon fill="#ffffff" stroke="transparent" points="8,-97.7 8,-119.7 148,-119.7 148,-97.7 8,-97.7"/>
<polygon fill="none" stroke="#000000" points="8,-97.7 8,-119.7 148,-119.7 148,-97.7 8,-97.7"/>
<image xlink:href="../../images/foreignKeys.png" width="11px" height="12px" preserveAspectRatio="xMinYMin meet" x="13" y="-114.7"/>
<text text-anchor="start" x="28" y="-104.8" font-family="Helvetica,sans-Serif" font-size="11.00" fill="#000000">contact_person_id</text>
<polygon fill="#ffffff" stroke="transparent" points="8,-75.7 8,-97.7 148,-97.7 148,-75.7 8,-75.7"/>
<polygon fill="none" stroke="#000000" points="8,-75.7 8,-97.7 148,-97.7 148,-75.7 8,-75.7"/>
<image xlink:href="../../images/foreignKeys.png" width="11px" height="12px" preserveAspectRatio="xMinYMin meet" x="13" y="-92.7"/>
<text text-anchor="start" x="28" y="-82.8" font-family="Helvetica,sans-Serif" font-size="11.00" fill="#000000">supplier_id</text>
<polygon fill="none" stroke="#000000" points="8,-56.7 8,-75.7 148,-75.7 148,-56.7 8,-56.7"/>
<text text-anchor="start" x="11" y="-62.8" font-family="Helvetica,sans-Serif" font-size="11.00" fill="#000000">...</text>
<polygon fill="#ffffff" stroke="transparent" points="8,-37.7 8,-56.7 56,-56.7 56,-37.7 8,-37.7"/>
<polygon fill="none" stroke="#000000" points="8,-37.7 8,-56.7 56,-56.7 56,-37.7 8,-37.7"/>
<text text-anchor="start" x="11" y="-43.8" font-family="Helvetica,sans-Serif" font-size="11.00" fill="#000000">&lt; 4</text>
<polygon fill="#ffffff" stroke="transparent" points="56,-37.7 56,-56.7 113,-56.7 113,-37.7 56,-37.7"/>
<polygon fill="none" stroke="#000000" points="56,-37.7 56,-56.7 113,-56.7 113,-37.7 56,-37.7"/>
<text text-anchor="start" x="71.4956" y="-43.8" font-family="Helvetica,sans-Serif" font-size="11.00" fill="#000000">90 rows</text>
<polygon fill="#ffffff" stroke="transparent" points="113,-37.7 113,-56.7 148,-56.7 148,-37.7 113,-37.7"/>
<polygon fill="none" stroke="#000000" points="113,-37.7 113,-56.7 148,-56.7 148,-37.7 113,-37.7"/>
<text text-anchor="start" x="129.4053" y="-43.8" font-family="Helvetica,sans-Serif" font-size="11.00" fill="#000000">5 &gt;</text>
</a>
</g>
</g>
<!-- applicant_language&#45;&gt;applicant -->
<g id="edge1" class="edge">
<title>applicant_language:w&#45;&gt;applicant:e</title>
<path fill="none" stroke="#000000" d="M184.276,-218.7C172.2815,-218.7 164.8229,-218.7 148,-218.7"/>
<polygon fill="#000000" stroke="#000000" points="191,-218.7001 199,-222.3 195,-218.7 199,-218.7 199,-218.7 199,-218.7 195,-218.7 199,-215.1 191,-218.7001 191,-218.7001"/>
<ellipse fill="none" stroke="#000000" cx="187.8" cy="-218.7001" rx="3.2" ry="3.2"/>
</g>
</g>
</svg>
