<?xml version="1.0" encoding="UTF-8" standalone="no"?>
<!DOCTYPE svg PUBLIC "-//W3C//DTD SVG 1.1//EN"
 "http://www.w3.org/Graphics/SVG/1.1/DTD/svg11.dtd">
<!-- Generated by graphviz version 2.40.1 (20161225.0304)
 -->
<!-- Title: oneDegreeRelationshipsDiagram Pages: 1 -->
<svg width="370pt" height="435pt"
 viewBox="0.00 0.00 370.00 435.20" xmlns="http://www.w3.org/2000/svg" xmlns:xlink="http://www.w3.org/1999/xlink">
<g id="graph0" class="graph" transform="scale(1 1) rotate(0) translate(4 431.2)">
<title>oneDegreeRelationshipsDiagram</title>
<polygon fill="#ffffff" stroke="transparent" points="-4,4 -4,-431.2 366,-431.2 366,4 -4,4"/>
<text text-anchor="middle" x="72.4936" y="-7.3" font-family="Helvetica,sans-Serif" font-size="11.00" fill="#000000">Generated by SchemaSpy</text>
<!-- applicant_skill -->
<g id="node1" class="node">
<title>applicant_skill</title>
<g id="a_node1"><a xlink:href="../../tables/applicant_skill.html" xlink:title="applicant_skill" target="_top">
<polygon fill="#ffffff" stroke="transparent" points="197,-227.7 197,-339.7 354,-339.7 354,-227.7 197,-227.7"/>
<polygon fill="#f5f5f5" stroke="transparent" points="199.5,-314.7 199.5,-337.7 352.5,-337.7 352.5,-314.7 199.5,-314.7"/>
<polygon fill="none" stroke="#000000" points="199.5,-314.7 199.5,-337.7 352.5,-337.7 352.5,-314.7 199.5,-314.7"/>
<text text-anchor="start" x="204.5" y="-323.8" font-family="Helvetica,sans-Serif" font-weight="bold" font-size="11.00" fill="#000000">applicant_skill</text>
<text text-anchor="start" x="317.5437" y="-322.8" font-family="Helvetica,sans-Serif" font-size="11.00" fill="#000000">[table]</text>
<polygon fill="none" stroke="#000000" points="199.5,-292.7 199.5,-314.7 302.5,-314.7 302.5,-292.7 199.5,-292.7"/>
<text text-anchor="start" x="219.5" y="-299.8" font-family="Helvetica,sans-Serif" font-size="11.00" fill="#000000">years</text>
<polygon fill="none" stroke="#000000" points="302.5,-292.7 302.5,-314.7 352.5,-314.7 352.5,-292.7 302.5,-292.7"/>
<text text-anchor="start" x="305.5" y="-300.4" font-family="Helvetica,sans-Serif" font-size="11.00" fill="#000000">int[10]</text>
<polygon fill="#ffffff" stroke="transparent" points="199.5,-270.7 199.5,-292.7 302.5,-292.7 302.5,-270.7 199.5,-270.7"/>
<polygon fill="none" stroke="#000000" points="199.5,-270.7 199.5,-292.7 302.5,-292.7 302.5,-270.7 199.5,-270.7"/>
<image xlink:href="../../images/foreignKeys.png" width="11px" height="12px" preserveAspectRatio="xMinYMin meet" x="204.5" y="-287.7"/>
<text text-anchor="start" x="219.5" y="-277.8" font-family="Helvetica,sans-Serif" font-size="11.00" fill="#000000">applicant_id</text>
<polygon fill="none" stroke="#000000" points="302.5,-270.7 302.5,-292.7 352.5,-292.7 352.5,-270.7 302.5,-270.7"/>
<text text-anchor="start" x="305.1865" y="-278.4" font-family="Helvetica,sans-Serif" font-size="11.00" fill="#000000">bigint[19]</text>
<polygon fill="#ffffff" stroke="transparent" points="199.5,-248.7 199.5,-270.7 302.5,-270.7 302.5,-248.7 199.5,-248.7"/>
<polygon fill="none" stroke="#000000" points="199.5,-248.7 199.5,-270.7 302.5,-270.7 302.5,-248.7 199.5,-248.7"/>
<image xlink:href="../../images/foreignKeys.png" width="11px" height="12px" preserveAspectRatio="xMinYMin meet" x="204.5" y="-265.7"/>
<text text-anchor="start" x="219.5" y="-255.8" font-family="Helvetica,sans-Serif" font-size="11.00" fill="#000000">skill_id</text>
<polygon fill="none" stroke="#000000" points="302.5,-248.7 302.5,-270.7 352.5,-270.7 352.5,-248.7 302.5,-248.7"/>
<text text-anchor="start" x="305.1865" y="-256.4" font-family="Helvetica,sans-Serif" font-size="11.00" fill="#000000">bigint[19]</text>
<polygon fill="#ffffff" stroke="transparent" points="199.5,-229.7 199.5,-248.7 236.5,-248.7 236.5,-229.7 199.5,-229.7"/>
<polygon fill="none" stroke="#000000" points="199.5,-229.7 199.5,-248.7 236.5,-248.7 236.5,-229.7 199.5,-229.7"/>
<text text-anchor="start" x="202.5" y="-235.8" font-family="Helvetica,sans-Serif" font-size="11.00" fill="#000000">&lt; 2</text>
<polygon fill="#ffffff" stroke="transparent" points="236.5,-229.7 236.5,-248.7 302.5,-248.7 302.5,-229.7 236.5,-229.7"/>
<polygon fill="none" stroke="#000000" points="236.5,-229.7 236.5,-248.7 302.5,-248.7 302.5,-229.7 236.5,-229.7"/>
<text text-anchor="start" x="254.8807" y="-235.8" font-family="Helvetica,sans-Serif" font-size="11.00" fill="#000000">181 rows</text>
<polygon fill="#ffffff" stroke="transparent" points="302.5,-229.7 302.5,-248.7 352.5,-248.7 352.5,-229.7 302.5,-229.7"/>
<polygon fill="none" stroke="#000000" points="302.5,-229.7 302.5,-248.7 352.5,-248.7 352.5,-229.7 302.5,-229.7"/>
<text text-anchor="start" x="333.9053" y="-235.8" font-family="Helvetica,sans-Serif" font-size="11.00" fill="#000000">0 &gt;</text>
<polygon fill="none" stroke="#000000" stroke-width="2" points="198,-228.7 198,-338.7 353,-338.7 353,-228.7 198,-228.7"/>
</a>
</g>
</g>
<!-- applicant -->
<g id="node2" class="node">
<title>applicant</title>
<g id="a_node2"><a xlink:href="../../tables/applicant.html" xlink:title="applicant" target="_top">
<polygon fill="#ffffff" stroke="transparent" points="8,-208.2 8,-423.2 148,-423.2 148,-208.2 8,-208.2"/>
<polygon fill="#f5f5f5" stroke="transparent" points="8,-399.7 8,-422.7 148,-422.7 148,-399.7 8,-399.7"/>
<polygon fill="none" stroke="#000000" points="8,-399.7 8,-422.7 148,-422.7 148,-399.7 8,-399.7"/>
<text text-anchor="start" x="13" y="-408.8" font-family="Helvetica,sans-Serif" font-weight="bold" font-size="11.00" fill="#000000">applicant</text>
<text text-anchor="start" x="113.0437" y="-407.8" font-family="Helvetica,sans-Serif" font-size="11.00" fill="#000000">[table]</text>
<polygon fill="none" stroke="#000000" points="8,-377.7 8,-399.7 148,-399.7 148,-377.7 8,-377.7"/>
<image xlink:href="../../images/primaryKeys.png" width="11px" height="12px" preserveAspectRatio="xMinYMin meet" x="13" y="-394.7"/>
<text text-anchor="start" x="28" y="-384.8" font-family="Helvetica,sans-Serif" font-size="11.00" fill="#000000">id</text>
<polygon fill="#ffffff" stroke="transparent" points="8,-355.7 8,-377.7 148,-377.7 148,-355.7 8,-355.7"/>
<polygon fill="none" stroke="#000000" points="8,-355.7 8,-377.7 148,-377.7 148,-355.7 8,-355.7"/>
<text text-anchor="start" x="28" y="-362.8" font-family="Helvetica,sans-Serif" font-size="11.00" fill="#000000">created_by</text>
<polygon fill="#ffffff" stroke="transparent" points="8,-333.7 8,-355.7 148,-355.7 148,-333.7 8,-333.7"/>
<polygon fill="none" stroke="#000000" points="8,-333.7 8,-355.7 148,-355.7 148,-333.7 8,-333.7"/>
<text text-anchor="start" x="28" y="-340.8" font-family="Helvetica,sans-Serif" font-size="11.00" fill="#000000">modified_by</text>
<polygon fill="#ffffff" stroke="transparent" points="8,-311.7 8,-333.7 148,-333.7 148,-311.7 8,-311.7"/>
<polygon fill="none" stroke="#000000" points="8,-311.7 8,-333.7 148,-333.7 148,-311.7 8,-311.7"/>
<image xlink:href="../../images/foreignKeys.png" width="11px" height="12px" preserveAspectRatio="xMinYMin meet" x="13" y="-328.7"/>
<text text-anchor="start" x="28" y="-318.8" font-family="Helvetica,sans-Serif" font-size="11.00" fill="#000000">address_id</text>
<polygon fill="#ffffff" stroke="transparent" points="8,-289.7 8,-311.7 148,-311.7 148,-289.7 8,-289.7"/>
<polygon fill="none" stroke="#000000" points="8,-289.7 8,-311.7 148,-311.7 148,-289.7 8,-289.7"/>
<image xlink:href="../../images/foreignKeys.png" width="11px" height="12px" preserveAspectRatio="xMinYMin meet" x="13" y="-306.7"/>
<text text-anchor="start" x="28" y="-296.8" font-family="Helvetica,sans-Serif" font-size="11.00" fill="#000000">avatar_id</text>
<polygon fill="#ffffff" stroke="transparent" points="8,-267.7 8,-289.7 148,-289.7 148,-267.7 8,-267.7"/>
<polygon fill="none" stroke="#000000" points="8,-267.7 8,-289.7 148,-289.7 148,-267.7 8,-267.7"/>
<image xlink:href="../../images/foreignKeys.png" width="11px" height="12px" preserveAspectRatio="xMinYMin meet" x="13" y="-284.7"/>
<text text-anchor="start" x="28" y="-274.8" font-family="Helvetica,sans-Serif" font-size="11.00" fill="#000000">contact_person_id</text>
<polygon fill="#ffffff" stroke="transparent" points="8,-245.7 8,-267.7 148,-267.7 148,-245.7 8,-245.7"/>
<polygon fill="none" stroke="#000000" points="8,-245.7 8,-267.7 148,-267.7 148,-245.7 8,-245.7"/>
<image xlink:href="../../images/foreignKeys.png" width="11px" height="12px" preserveAspectRatio="xMinYMin meet" x="13" y="-262.7"/>
<text text-anchor="start" x="28" y="-252.8" font-family="Helvetica,sans-Serif" font-size="11.00" fill="#000000">supplier_id</text>
<polygon fill="none" stroke="#000000" points="8,-226.7 8,-245.7 148,-245.7 148,-226.7 8,-226.7"/>
<text text-anchor="start" x="11" y="-232.8" font-family="Helvetica,sans-Serif" font-size="11.00" fill="#000000">...</text>
<polygon fill="#ffffff" stroke="transparent" points="8,-207.7 8,-226.7 56,-226.7 56,-207.7 8,-207.7"/>
<polygon fill="none" stroke="#000000" points="8,-207.7 8,-226.7 56,-226.7 56,-207.7 8,-207.7"/>
<text text-anchor="start" x="11" y="-213.8" font-family="Helvetica,sans-Serif" font-size="11.00" fill="#000000">&lt; 4</text>
<polygon fill="#ffffff" stroke="transparent" points="56,-207.7 56,-226.7 113,-226.7 113,-207.7 56,-207.7"/>
<polygon fill="none" stroke="#000000" points="56,-207.7 56,-226.7 113,-226.7 113,-207.7 56,-207.7"/>
<text text-anchor="start" x="71.4956" y="-213.8" font-family="Helvetica,sans-Serif" font-size="11.00" fill="#000000">90 rows</text>
<polygon fill="#ffffff" stroke="transparent" points="113,-207.7 113,-226.7 148,-226.7 148,-207.7 113,-207.7"/>
<polygon fill="none" stroke="#000000" points="113,-207.7 113,-226.7 148,-226.7 148,-207.7 113,-207.7"/>
<text text-anchor="start" x="129.4053" y="-213.8" font-family="Helvetica,sans-Serif" font-size="11.00" fill="#000000">5 &gt;</text>
</a>
</g>
</g>
<!-- applicant_skill&#45;&gt;applicant -->
<g id="edge1" class="edge">
<title>applicant_skill:w&#45;&gt;applicant:e</title>
<path fill="none" stroke="#000000" d="M185.3662,-285.5082C157.5986,-304.5691 194.7985,-388.7 148,-388.7"/>
<polygon fill="#000000" stroke="#000000" points="191.7755,-283.7813 200.4366,-285.176 195.6377,-282.7407 199.5,-281.7 199.5,-281.7 199.5,-281.7 195.6377,-282.7407 198.5634,-278.224 191.7755,-283.7813 191.7755,-283.7813"/>
<ellipse fill="none" stroke="#000000" cx="188.6857" cy="-284.6139" rx="3.2" ry="3.2"/>
</g>
<!-- skill -->
<g id="node3" class="node">
<title>skill</title>
<g id="a_node3"><a xlink:href="../../tables/skill.html" xlink:title="skill" target="_top">
<polygon fill="#ffffff" stroke="transparent" points="16.5,-38.2 16.5,-187.2 139.5,-187.2 139.5,-38.2 16.5,-38.2"/>
<polygon fill="#f5f5f5" stroke="transparent" points="17,-163.7 17,-186.7 140,-186.7 140,-163.7 17,-163.7"/>
<polygon fill="none" stroke="#000000" points="17,-163.7 17,-186.7 140,-186.7 140,-163.7 17,-163.7"/>
<text text-anchor="start" x="22" y="-172.8" font-family="Helvetica,sans-Serif" font-weight="bold" font-size="11.00" fill="#000000">skill</text>
<text text-anchor="start" x="105.0437" y="-171.8" font-family="Helvetica,sans-Serif" font-size="11.00" fill="#000000">[table]</text>
<polygon fill="none" stroke="#000000" points="17,-141.7 17,-163.7 140,-163.7 140,-141.7 17,-141.7"/>
<image xlink:href="../../images/primaryKeys.png" width="11px" height="12px" preserveAspectRatio="xMinYMin meet" x="22" y="-158.7"/>
<text text-anchor="start" x="37" y="-148.8" font-family="Helvetica,sans-Serif" font-size="11.00" fill="#000000">id</text>
<polygon fill="#ffffff" stroke="transparent" points="17,-119.7 17,-141.7 140,-141.7 140,-119.7 17,-119.7"/>
<polygon fill="none" stroke="#000000" points="17,-119.7 17,-141.7 140,-141.7 140,-119.7 17,-119.7"/>
<image xlink:href="../../images/foreignKeys.png" width="11px" height="12px" preserveAspectRatio="xMinYMin meet" x="22" y="-136.7"/>
<text text-anchor="start" x="37" y="-126.8" font-family="Helvetica,sans-Serif" font-size="11.00" fill="#000000">created_by</text>
<polygon fill="#ffffff" stroke="transparent" points="17,-97.7 17,-119.7 140,-119.7 140,-97.7 17,-97.7"/>
<polygon fill="none" stroke="#000000" points="17,-97.7 17,-119.7 140,-119.7 140,-97.7 17,-97.7"/>
<image xlink:href="../../images/foreignKeys.png" width="11px" height="12px" preserveAspectRatio="xMinYMin meet" x="22" y="-114.7"/>
<text text-anchor="start" x="37" y="-104.8" font-family="Helvetica,sans-Serif" font-size="11.00" fill="#000000">modified_by</text>
<polygon fill="#ffffff" stroke="transparent" points="17,-75.7 17,-97.7 140,-97.7 140,-75.7 17,-75.7"/>
<polygon fill="none" stroke="#000000" points="17,-75.7 17,-97.7 140,-97.7 140,-75.7 17,-75.7"/>
<text text-anchor="start" x="37" y="-82.8" font-family="Helvetica,sans-Serif" font-size="11.00" fill="#000000">name</text>
<polygon fill="none" stroke="#000000" points="17,-56.7 17,-75.7 140,-75.7 140,-56.7 17,-56.7"/>
<text text-anchor="start" x="20" y="-62.8" font-family="Helvetica,sans-Serif" font-size="11.00" fill="#000000">...</text>
<polygon fill="#ffffff" stroke="transparent" points="17,-37.7 17,-56.7 47,-56.7 47,-37.7 17,-37.7"/>
<polygon fill="none" stroke="#000000" points="17,-37.7 17,-56.7 47,-56.7 47,-37.7 17,-37.7"/>
<text text-anchor="start" x="20" y="-43.8" font-family="Helvetica,sans-Serif" font-size="11.00" fill="#000000">&lt; 2</text>
<polygon fill="#ffffff" stroke="transparent" points="47,-37.7 47,-56.7 114,-56.7 114,-37.7 47,-37.7"/>
<polygon fill="none" stroke="#000000" points="47,-37.7 47,-56.7 114,-56.7 114,-37.7 47,-37.7"/>
<text text-anchor="start" x="53.547" y="-43.8" font-family="Helvetica,sans-Serif" font-size="11.00" fill="#000000">2 737 rows</text>
<polygon fill="#ffffff" stroke="transparent" points="114,-37.7 114,-56.7 140,-56.7 140,-37.7 114,-37.7"/>
<polygon fill="none" stroke="#000000" points="114,-37.7 114,-56.7 140,-56.7 140,-37.7 114,-37.7"/>
<text text-anchor="start" x="121.4053" y="-43.8" font-family="Helvetica,sans-Serif" font-size="11.00" fill="#000000">5 &gt;</text>
</a>
</g>
</g>
<!-- applicant_skill&#45;&gt;skill -->
<g id="edge2" class="edge">
<title>applicant_skill:w&#45;&gt;skill:e</title>
<path fill="none" stroke="#000000" d="M185.0972,-256.1399C154.6357,-237.5738 188.4621,-152.7 140,-152.7"/>
<polygon fill="#000000" stroke="#000000" points="191.7337,-257.7803 198.6361,-263.1948 195.6169,-258.7401 199.5,-259.7 199.5,-259.7 199.5,-259.7 195.6169,-258.7401 200.3639,-256.2052 191.7337,-257.7803 191.7337,-257.7803"/>
<ellipse fill="none" stroke="#000000" cx="188.6272" cy="-257.0124" rx="3.2" ry="3.2"/>
</g>
</g>
</svg>
