<?xml version="1.0" encoding="UTF-8" standalone="no"?>
<!DOCTYPE svg PUBLIC "-//W3C//DTD SVG 1.1//EN"
 "http://www.w3.org/Graphics/SVG/1.1/DTD/svg11.dtd">
<!-- Generated by graphviz version 2.40.1 (20161225.0304)
 -->
<!-- Title: oneDegreeRelationshipsDiagram Pages: 1 -->
<svg width="386pt" height="373pt"
 viewBox="0.00 0.00 386.00 372.70" xmlns="http://www.w3.org/2000/svg" xmlns:xlink="http://www.w3.org/1999/xlink">
<g id="graph0" class="graph" transform="scale(1 1) rotate(0) translate(4 368.7)">
<title>oneDegreeRelationshipsDiagram</title>
<polygon fill="#ffffff" stroke="transparent" points="-4,4 -4,-368.7 382,-368.7 382,4 -4,4"/>
<text text-anchor="middle" x="72.4936" y="-7.3" font-family="Helvetica,sans-Serif" font-size="11.00" fill="#000000">Generated by SchemaSpy</text>
<!-- applicant_role -->
<g id="node1" class="node">
<title>applicant_role</title>
<g id="a_node1"><a xlink:href="../../tables/applicant_role.html" xlink:title="applicant_role" target="_top">
<polygon fill="#ffffff" stroke="transparent" points="197,-143.2 197,-255.2 370,-255.2 370,-143.2 197,-143.2"/>
<polygon fill="#f5f5f5" stroke="transparent" points="199.5,-230.2 199.5,-253.2 368.5,-253.2 368.5,-230.2 199.5,-230.2"/>
<polygon fill="none" stroke="#000000" points="199.5,-230.2 199.5,-253.2 368.5,-253.2 368.5,-230.2 199.5,-230.2"/>
<text text-anchor="start" x="204.5" y="-239.3" font-family="Helvetica,sans-Serif" font-weight="bold" font-size="11.00" fill="#000000">applicant_role</text>
<text text-anchor="start" x="333.5437" y="-238.3" font-family="Helvetica,sans-Serif" font-size="11.00" fill="#000000">[table]</text>
<polygon fill="#ffffff" stroke="transparent" points="199.5,-208.2 199.5,-230.2 301.5,-230.2 301.5,-208.2 199.5,-208.2"/>
<polygon fill="none" stroke="#000000" points="199.5,-208.2 199.5,-230.2 301.5,-230.2 301.5,-208.2 199.5,-208.2"/>
<image xlink:href="../../images/foreignKeys.png" width="11px" height="12px" preserveAspectRatio="xMinYMin meet" x="204.5" y="-225.2"/>
<text text-anchor="start" x="219.5" y="-215.3" font-family="Helvetica,sans-Serif" font-size="11.00" fill="#000000">applicant_id</text>
<polygon fill="none" stroke="#000000" points="301.5,-208.2 301.5,-230.2 368.5,-230.2 368.5,-208.2 301.5,-208.2"/>
<text text-anchor="start" x="304.5" y="-215.9" font-family="Helvetica,sans-Serif" font-size="11.00" fill="#000000">bigint[19]</text>
<polygon fill="#ffffff" stroke="transparent" points="199.5,-186.2 199.5,-208.2 301.5,-208.2 301.5,-186.2 199.5,-186.2"/>
<polygon fill="none" stroke="#000000" points="199.5,-186.2 199.5,-208.2 301.5,-208.2 301.5,-186.2 199.5,-186.2"/>
<image xlink:href="../../images/foreignKeys.png" width="11px" height="12px" preserveAspectRatio="xMinYMin meet" x="204.5" y="-203.2"/>
<text text-anchor="start" x="219.5" y="-193.3" font-family="Helvetica,sans-Serif" font-size="11.00" fill="#000000">role_id</text>
<polygon fill="none" stroke="#000000" points="301.5,-186.2 301.5,-208.2 368.5,-208.2 368.5,-186.2 301.5,-186.2"/>
<text text-anchor="start" x="304.5" y="-193.9" font-family="Helvetica,sans-Serif" font-size="11.00" fill="#000000">bigint[19]</text>
<polygon fill="none" stroke="#000000" points="199.5,-164.2 199.5,-186.2 301.5,-186.2 301.5,-164.2 199.5,-164.2"/>
<text text-anchor="start" x="219.5" y="-171.3" font-family="Helvetica,sans-Serif" font-size="11.00" fill="#000000">level</text>
<polygon fill="none" stroke="#000000" points="301.5,-164.2 301.5,-186.2 368.5,-186.2 368.5,-164.2 301.5,-164.2"/>
<text text-anchor="start" x="304.4365" y="-171.9" font-family="Helvetica,sans-Serif" font-size="11.00" fill="#000000">varchar[100]</text>
<polygon fill="#ffffff" stroke="transparent" points="199.5,-145.2 199.5,-164.2 238.5,-164.2 238.5,-145.2 199.5,-145.2"/>
<polygon fill="none" stroke="#000000" points="199.5,-145.2 199.5,-164.2 238.5,-164.2 238.5,-145.2 199.5,-145.2"/>
<text text-anchor="start" x="202.5" y="-151.3" font-family="Helvetica,sans-Serif" font-size="11.00" fill="#000000">&lt; 2</text>
<polygon fill="#ffffff" stroke="transparent" points="238.5,-145.2 238.5,-164.2 301.5,-164.2 301.5,-145.2 238.5,-145.2"/>
<polygon fill="none" stroke="#000000" points="238.5,-145.2 238.5,-164.2 301.5,-164.2 301.5,-145.2 238.5,-145.2"/>
<text text-anchor="start" x="259.9956" y="-151.3" font-family="Helvetica,sans-Serif" font-size="11.00" fill="#000000">91 rows</text>
<polygon fill="#ffffff" stroke="transparent" points="301.5,-145.2 301.5,-164.2 368.5,-164.2 368.5,-145.2 301.5,-145.2"/>
<polygon fill="none" stroke="#000000" points="301.5,-145.2 301.5,-164.2 368.5,-164.2 368.5,-145.2 301.5,-145.2"/>
<text text-anchor="start" x="349.9053" y="-151.3" font-family="Helvetica,sans-Serif" font-size="11.00" fill="#000000">0 &gt;</text>
<polygon fill="none" stroke="#000000" stroke-width="2" points="198,-144.2 198,-254.2 369,-254.2 369,-144.2 198,-144.2"/>
</a>
</g>
</g>
<!-- applicant -->
<g id="node2" class="node">
<title>applicant</title>
<g id="a_node2"><a xlink:href="../../tables/applicant.html" xlink:title="applicant" target="_top">
<polygon fill="#ffffff" stroke="transparent" points="8,-145.7 8,-360.7 148,-360.7 148,-145.7 8,-145.7"/>
<polygon fill="#f5f5f5" stroke="transparent" points="8,-337.2 8,-360.2 148,-360.2 148,-337.2 8,-337.2"/>
<polygon fill="none" stroke="#000000" points="8,-337.2 8,-360.2 148,-360.2 148,-337.2 8,-337.2"/>
<text text-anchor="start" x="13" y="-346.3" font-family="Helvetica,sans-Serif" font-weight="bold" font-size="11.00" fill="#000000">applicant</text>
<text text-anchor="start" x="113.0437" y="-345.3" font-family="Helvetica,sans-Serif" font-size="11.00" fill="#000000">[table]</text>
<polygon fill="none" stroke="#000000" points="8,-315.2 8,-337.2 148,-337.2 148,-315.2 8,-315.2"/>
<image xlink:href="../../images/primaryKeys.png" width="11px" height="12px" preserveAspectRatio="xMinYMin meet" x="13" y="-332.2"/>
<text text-anchor="start" x="28" y="-322.3" font-family="Helvetica,sans-Serif" font-size="11.00" fill="#000000">id</text>
<polygon fill="#ffffff" stroke="transparent" points="8,-293.2 8,-315.2 148,-315.2 148,-293.2 8,-293.2"/>
<polygon fill="none" stroke="#000000" points="8,-293.2 8,-315.2 148,-315.2 148,-293.2 8,-293.2"/>
<text text-anchor="start" x="28" y="-300.3" font-family="Helvetica,sans-Serif" font-size="11.00" fill="#000000">created_by</text>
<polygon fill="#ffffff" stroke="transparent" points="8,-271.2 8,-293.2 148,-293.2 148,-271.2 8,-271.2"/>
<polygon fill="none" stroke="#000000" points="8,-271.2 8,-293.2 148,-293.2 148,-271.2 8,-271.2"/>
<text text-anchor="start" x="28" y="-278.3" font-family="Helvetica,sans-Serif" font-size="11.00" fill="#000000">modified_by</text>
<polygon fill="#ffffff" stroke="transparent" points="8,-249.2 8,-271.2 148,-271.2 148,-249.2 8,-249.2"/>
<polygon fill="none" stroke="#000000" points="8,-249.2 8,-271.2 148,-271.2 148,-249.2 8,-249.2"/>
<image xlink:href="../../images/foreignKeys.png" width="11px" height="12px" preserveAspectRatio="xMinYMin meet" x="13" y="-266.2"/>
<text text-anchor="start" x="28" y="-256.3" font-family="Helvetica,sans-Serif" font-size="11.00" fill="#000000">address_id</text>
<polygon fill="#ffffff" stroke="transparent" points="8,-227.2 8,-249.2 148,-249.2 148,-227.2 8,-227.2"/>
<polygon fill="none" stroke="#000000" points="8,-227.2 8,-249.2 148,-249.2 148,-227.2 8,-227.2"/>
<image xlink:href="../../images/foreignKeys.png" width="11px" height="12px" preserveAspectRatio="xMinYMin meet" x="13" y="-244.2"/>
<text text-anchor="start" x="28" y="-234.3" font-family="Helvetica,sans-Serif" font-size="11.00" fill="#000000">avatar_id</text>
<polygon fill="#ffffff" stroke="transparent" points="8,-205.2 8,-227.2 148,-227.2 148,-205.2 8,-205.2"/>
<polygon fill="none" stroke="#000000" points="8,-205.2 8,-227.2 148,-227.2 148,-205.2 8,-205.2"/>
<image xlink:href="../../images/foreignKeys.png" width="11px" height="12px" preserveAspectRatio="xMinYMin meet" x="13" y="-222.2"/>
<text text-anchor="start" x="28" y="-212.3" font-family="Helvetica,sans-Serif" font-size="11.00" fill="#000000">contact_person_id</text>
<polygon fill="#ffffff" stroke="transparent" points="8,-183.2 8,-205.2 148,-205.2 148,-183.2 8,-183.2"/>
<polygon fill="none" stroke="#000000" points="8,-183.2 8,-205.2 148,-205.2 148,-183.2 8,-183.2"/>
<image xlink:href="../../images/foreignKeys.png" width="11px" height="12px" preserveAspectRatio="xMinYMin meet" x="13" y="-200.2"/>
<text text-anchor="start" x="28" y="-190.3" font-family="Helvetica,sans-Serif" font-size="11.00" fill="#000000">supplier_id</text>
<polygon fill="none" stroke="#000000" points="8,-164.2 8,-183.2 148,-183.2 148,-164.2 8,-164.2"/>
<text text-anchor="start" x="11" y="-170.3" font-family="Helvetica,sans-Serif" font-size="11.00" fill="#000000">...</text>
<polygon fill="#ffffff" stroke="transparent" points="8,-145.2 8,-164.2 56,-164.2 56,-145.2 8,-145.2"/>
<polygon fill="none" stroke="#000000" points="8,-145.2 8,-164.2 56,-164.2 56,-145.2 8,-145.2"/>
<text text-anchor="start" x="11" y="-151.3" font-family="Helvetica,sans-Serif" font-size="11.00" fill="#000000">&lt; 4</text>
<polygon fill="#ffffff" stroke="transparent" points="56,-145.2 56,-164.2 113,-164.2 113,-145.2 56,-145.2"/>
<polygon fill="none" stroke="#000000" points="56,-145.2 56,-164.2 113,-164.2 113,-145.2 56,-145.2"/>
<text text-anchor="start" x="71.4956" y="-151.3" font-family="Helvetica,sans-Serif" font-size="11.00" fill="#000000">90 rows</text>
<polygon fill="#ffffff" stroke="transparent" points="113,-145.2 113,-164.2 148,-164.2 148,-145.2 113,-145.2"/>
<polygon fill="none" stroke="#000000" points="113,-145.2 113,-164.2 148,-164.2 148,-145.2 113,-145.2"/>
<text text-anchor="start" x="129.4053" y="-151.3" font-family="Helvetica,sans-Serif" font-size="11.00" fill="#000000">5 &gt;</text>
</a>
</g>
</g>
<!-- applicant_role&#45;&gt;applicant -->
<g id="edge1" class="edge">
<title>applicant_role:w&#45;&gt;applicant:e</title>
<path fill="none" stroke="#000000" d="M185.3662,-223.0082C157.5986,-242.0691 194.7985,-326.2 148,-326.2"/>
<polygon fill="#000000" stroke="#000000" points="191.7755,-221.2813 200.4366,-222.676 195.6377,-220.2407 199.5,-219.2 199.5,-219.2 199.5,-219.2 195.6377,-220.2407 198.5634,-215.724 191.7755,-221.2813 191.7755,-221.2813"/>
<ellipse fill="none" stroke="#000000" cx="188.6857" cy="-222.1139" rx="3.2" ry="3.2"/>
</g>
<!-- skill_role -->
<g id="node3" class="node">
<title>skill_role</title>
<g id="a_node3"><a xlink:href="../../tables/skill_role.html" xlink:title="skill_role" target="_top">
<polygon fill="#ffffff" stroke="transparent" points="35.5,-38.2 35.5,-124.2 120.5,-124.2 120.5,-38.2 35.5,-38.2"/>
<polygon fill="#f5f5f5" stroke="transparent" points="36,-101.2 36,-124.2 121,-124.2 121,-101.2 36,-101.2"/>
<polygon fill="none" stroke="#000000" points="36,-101.2 36,-124.2 121,-124.2 121,-101.2 36,-101.2"/>
<text text-anchor="start" x="40.6149" y="-110.3" font-family="Helvetica,sans-Serif" font-weight="bold" font-size="11.00" fill="#000000">skill_role</text>
<text text-anchor="start" x="86.5219" y="-109.3" font-family="Helvetica,sans-Serif" font-size="11.00" fill="#000000">[table]</text>
<polygon fill="none" stroke="#000000" points="36,-79.2 36,-101.2 121,-101.2 121,-79.2 36,-79.2"/>
<image xlink:href="../../images/primaryKeys.png" width="11px" height="12px" preserveAspectRatio="xMinYMin meet" x="41" y="-96.2"/>
<text text-anchor="start" x="62" y="-86.3" font-family="Helvetica,sans-Serif" font-size="11.00" fill="#000000">id</text>
<polygon fill="#ffffff" stroke="transparent" points="36,-57.2 36,-79.2 121,-79.2 121,-57.2 36,-57.2"/>
<polygon fill="none" stroke="#000000" points="36,-57.2 36,-79.2 121,-79.2 121,-57.2 36,-57.2"/>
<text text-anchor="start" x="62" y="-64.3" font-family="Helvetica,sans-Serif" font-size="11.00" fill="#000000">name</text>
<polygon fill="#ffffff" stroke="transparent" points="36,-38.2 36,-57.2 49,-57.2 49,-38.2 36,-38.2"/>
<polygon fill="none" stroke="#000000" points="36,-38.2 36,-57.2 49,-57.2 49,-38.2 36,-38.2"/>
<text text-anchor="start" x="39" y="-44.3" font-family="Helvetica,sans-Serif" font-size="11.00" fill="#000000"> &#160;</text>
<polygon fill="#ffffff" stroke="transparent" points="49,-38.2 49,-57.2 99,-57.2 99,-38.2 49,-38.2"/>
<polygon fill="none" stroke="#000000" points="49,-38.2 49,-57.2 99,-57.2 99,-38.2 49,-38.2"/>
<text text-anchor="start" x="51.6903" y="-44.3" font-family="Helvetica,sans-Serif" font-size="11.00" fill="#000000">603 rows</text>
<polygon fill="#ffffff" stroke="transparent" points="99,-38.2 99,-57.2 121,-57.2 121,-38.2 99,-38.2"/>
<polygon fill="none" stroke="#000000" points="99,-38.2 99,-57.2 121,-57.2 121,-38.2 99,-38.2"/>
<text text-anchor="start" x="102.4053" y="-44.3" font-family="Helvetica,sans-Serif" font-size="11.00" fill="#000000">4 &gt;</text>
</a>
</g>
</g>
<!-- applicant_role&#45;&gt;skill_role -->
<g id="edge2" class="edge">
<title>applicant_role:w&#45;&gt;skill_role:e</title>
<path fill="none" stroke="#000000" d="M184.8535,-194.338C147.2876,-177.322 174.2212,-90.2 121,-90.2"/>
<polygon fill="#000000" stroke="#000000" points="191.6485,-195.6657 198.8096,-200.7332 195.5742,-196.4329 199.5,-197.2 199.5,-197.2 199.5,-197.2 195.5742,-196.4329 200.1904,-193.6668 191.6485,-195.6657 191.6485,-195.6657"/>
<ellipse fill="none" stroke="#000000" cx="188.5079" cy="-195.052" rx="3.2" ry="3.2"/>
</g>
</g>
</svg>
