<?xml version="1.0" encoding="UTF-8" standalone="no"?>
<!DOCTYPE svg PUBLIC "-//W3C//DTD SVG 1.1//EN"
 "http://www.w3.org/Graphics/SVG/1.1/DTD/svg11.dtd">
<!-- Generated by graphviz version 2.40.1 (20161225.0304)
 -->
<!-- Title: oneDegreeRelationshipsDiagram Pages: 1 -->
<svg width="830pt" height="857pt"
 viewBox="0.00 0.00 830.00 856.70" xmlns="http://www.w3.org/2000/svg" xmlns:xlink="http://www.w3.org/1999/xlink">
<g id="graph0" class="graph" transform="scale(1 1) rotate(0) translate(4 852.7)">
<title>oneDegreeRelationshipsDiagram</title>
<polygon fill="#ffffff" stroke="transparent" points="-4,4 -4,-852.7 826,-852.7 826,4 -4,4"/>
<text text-anchor="middle" x="72.4936" y="-7.3" font-family="Helvetica,sans-Serif" font-size="11.00" fill="#000000">Generated by SchemaSpy</text>
<!-- client_address -->
<g id="node1" class="node">
<title>client_address</title>
<g id="a_node1"><a xlink:href="../../tables/client_address.html" xlink:title="client_address" target="_top">
<polygon fill="#ffffff" stroke="transparent" points="258,-340.7 258,-650.7 452,-650.7 452,-340.7 258,-340.7"/>
<polygon fill="#f5f5f5" stroke="transparent" points="260,-625.7 260,-648.7 450,-648.7 450,-625.7 260,-625.7"/>
<polygon fill="none" stroke="#000000" points="260,-625.7 260,-648.7 450,-648.7 450,-625.7 260,-625.7"/>
<text text-anchor="start" x="265" y="-634.8" font-family="Helvetica,sans-Serif" font-weight="bold" font-size="11.00" fill="#000000">client_address</text>
<text text-anchor="start" x="415.0437" y="-633.8" font-family="Helvetica,sans-Serif" font-size="11.00" fill="#000000">[table]</text>
<polygon fill="none" stroke="#000000" points="260,-603.7 260,-625.7 383,-625.7 383,-603.7 260,-603.7"/>
<image xlink:href="../../images/primaryKeys.png" width="11px" height="12px" preserveAspectRatio="xMinYMin meet" x="265" y="-620.7"/>
<text text-anchor="start" x="280" y="-610.8" font-family="Helvetica,sans-Serif" font-size="11.00" fill="#000000">id</text>
<polygon fill="none" stroke="#000000" points="383,-603.7 383,-625.7 450,-625.7 450,-603.7 383,-603.7"/>
<text text-anchor="start" x="386" y="-611.4" font-family="Helvetica,sans-Serif" font-size="11.00" fill="#000000">bigint[19]</text>
<polygon fill="none" stroke="#000000" points="260,-581.7 260,-603.7 383,-603.7 383,-581.7 260,-581.7"/>
<text text-anchor="start" x="280" y="-588.8" font-family="Helvetica,sans-Serif" font-size="11.00" fill="#000000">created_by</text>
<polygon fill="none" stroke="#000000" points="383,-581.7 383,-603.7 450,-603.7 450,-581.7 383,-581.7"/>
<text text-anchor="start" x="386" y="-589.4" font-family="Helvetica,sans-Serif" font-size="11.00" fill="#000000">bigint[19]</text>
<polygon fill="none" stroke="#000000" points="260,-559.7 260,-581.7 383,-581.7 383,-559.7 260,-559.7"/>
<text text-anchor="start" x="280" y="-566.8" font-family="Helvetica,sans-Serif" font-size="11.00" fill="#000000">creation_date</text>
<polygon fill="none" stroke="#000000" points="383,-559.7 383,-581.7 450,-581.7 450,-559.7 383,-559.7"/>
<text text-anchor="start" x="386" y="-567.4" font-family="Helvetica,sans-Serif" font-size="11.00" fill="#000000">datetime[26]</text>
<polygon fill="none" stroke="#000000" points="260,-537.7 260,-559.7 383,-559.7 383,-537.7 260,-537.7"/>
<text text-anchor="start" x="280" y="-544.8" font-family="Helvetica,sans-Serif" font-size="11.00" fill="#000000">modified_by</text>
<polygon fill="none" stroke="#000000" points="383,-537.7 383,-559.7 450,-559.7 450,-537.7 383,-537.7"/>
<text text-anchor="start" x="386" y="-545.4" font-family="Helvetica,sans-Serif" font-size="11.00" fill="#000000">bigint[19]</text>
<polygon fill="none" stroke="#000000" points="260,-515.7 260,-537.7 383,-537.7 383,-515.7 260,-515.7"/>
<text text-anchor="start" x="280" y="-522.8" font-family="Helvetica,sans-Serif" font-size="11.00" fill="#000000">modification_date</text>
<polygon fill="none" stroke="#000000" points="383,-515.7 383,-537.7 450,-537.7 450,-515.7 383,-515.7"/>
<text text-anchor="start" x="386" y="-523.4" font-family="Helvetica,sans-Serif" font-size="11.00" fill="#000000">datetime[26]</text>
<polygon fill="none" stroke="#000000" points="260,-493.7 260,-515.7 383,-515.7 383,-493.7 260,-493.7"/>
<text text-anchor="start" x="280" y="-500.8" font-family="Helvetica,sans-Serif" font-size="11.00" fill="#000000">address_line1</text>
<polygon fill="none" stroke="#000000" points="383,-493.7 383,-515.7 450,-515.7 450,-493.7 383,-493.7"/>
<text text-anchor="start" x="385.9365" y="-501.4" font-family="Helvetica,sans-Serif" font-size="11.00" fill="#000000">varchar[255]</text>
<polygon fill="none" stroke="#000000" points="260,-471.7 260,-493.7 383,-493.7 383,-471.7 260,-471.7"/>
<text text-anchor="start" x="280" y="-478.8" font-family="Helvetica,sans-Serif" font-size="11.00" fill="#000000">address_line2</text>
<polygon fill="none" stroke="#000000" points="383,-471.7 383,-493.7 450,-493.7 450,-471.7 383,-471.7"/>
<text text-anchor="start" x="385.9365" y="-479.4" font-family="Helvetica,sans-Serif" font-size="11.00" fill="#000000">varchar[255]</text>
<polygon fill="none" stroke="#000000" points="260,-449.7 260,-471.7 383,-471.7 383,-449.7 260,-449.7"/>
<text text-anchor="start" x="280" y="-456.8" font-family="Helvetica,sans-Serif" font-size="11.00" fill="#000000">address_box</text>
<polygon fill="none" stroke="#000000" points="383,-449.7 383,-471.7 450,-471.7 450,-449.7 383,-449.7"/>
<text text-anchor="start" x="385.9365" y="-457.4" font-family="Helvetica,sans-Serif" font-size="11.00" fill="#000000">varchar[255]</text>
<polygon fill="none" stroke="#000000" points="260,-427.7 260,-449.7 383,-449.7 383,-427.7 260,-427.7"/>
<text text-anchor="start" x="280" y="-434.8" font-family="Helvetica,sans-Serif" font-size="11.00" fill="#000000">zip_code</text>
<polygon fill="none" stroke="#000000" points="383,-427.7 383,-449.7 450,-449.7 450,-427.7 383,-427.7"/>
<text text-anchor="start" x="386" y="-435.4" font-family="Helvetica,sans-Serif" font-size="11.00" fill="#000000">varchar[50]</text>
<polygon fill="none" stroke="#000000" points="260,-405.7 260,-427.7 383,-427.7 383,-405.7 260,-405.7"/>
<text text-anchor="start" x="280" y="-412.8" font-family="Helvetica,sans-Serif" font-size="11.00" fill="#000000">city</text>
<polygon fill="none" stroke="#000000" points="383,-405.7 383,-427.7 450,-427.7 450,-405.7 383,-405.7"/>
<text text-anchor="start" x="385.9365" y="-413.4" font-family="Helvetica,sans-Serif" font-size="11.00" fill="#000000">varchar[255]</text>
<polygon fill="none" stroke="#000000" points="260,-383.7 260,-405.7 383,-405.7 383,-383.7 260,-383.7"/>
<text text-anchor="start" x="280" y="-390.8" font-family="Helvetica,sans-Serif" font-size="11.00" fill="#000000">country</text>
<polygon fill="none" stroke="#000000" points="383,-383.7 383,-405.7 450,-405.7 450,-383.7 383,-383.7"/>
<text text-anchor="start" x="385.9365" y="-391.4" font-family="Helvetica,sans-Serif" font-size="11.00" fill="#000000">varchar[255]</text>
<polygon fill="#ffffff" stroke="transparent" points="260,-361.7 260,-383.7 383,-383.7 383,-361.7 260,-361.7"/>
<polygon fill="none" stroke="#000000" points="260,-361.7 260,-383.7 383,-383.7 383,-361.7 260,-361.7"/>
<image xlink:href="../../images/foreignKeys.png" width="11px" height="12px" preserveAspectRatio="xMinYMin meet" x="265" y="-378.7"/>
<text text-anchor="start" x="280" y="-368.8" font-family="Helvetica,sans-Serif" font-size="11.00" fill="#000000">client_id</text>
<polygon fill="none" stroke="#000000" points="383,-361.7 383,-383.7 450,-383.7 450,-361.7 383,-361.7"/>
<text text-anchor="start" x="386" y="-369.4" font-family="Helvetica,sans-Serif" font-size="11.00" fill="#000000">bigint[19]</text>
<polygon fill="#ffffff" stroke="transparent" points="260,-342.7 260,-361.7 307,-361.7 307,-342.7 260,-342.7"/>
<polygon fill="none" stroke="#000000" points="260,-342.7 260,-361.7 307,-361.7 307,-342.7 260,-342.7"/>
<text text-anchor="start" x="263" y="-348.8" font-family="Helvetica,sans-Serif" font-size="11.00" fill="#000000">&lt; 1</text>
<polygon fill="#ffffff" stroke="transparent" points="307,-342.7 307,-361.7 383,-361.7 383,-342.7 307,-342.7"/>
<polygon fill="none" stroke="#000000" points="307,-342.7 307,-361.7 383,-361.7 383,-342.7 307,-342.7"/>
<text text-anchor="start" x="335.3807" y="-348.8" font-family="Helvetica,sans-Serif" font-size="11.00" fill="#000000">100 rows</text>
<polygon fill="#ffffff" stroke="transparent" points="383,-342.7 383,-361.7 450,-361.7 450,-342.7 383,-342.7"/>
<polygon fill="none" stroke="#000000" points="383,-342.7 383,-361.7 450,-361.7 450,-342.7 383,-342.7"/>
<text text-anchor="start" x="431.4053" y="-348.8" font-family="Helvetica,sans-Serif" font-size="11.00" fill="#000000">3 &gt;</text>
<polygon fill="none" stroke="#000000" stroke-width="2" points="259,-341.7 259,-649.7 451,-649.7 451,-341.7 259,-341.7"/>
</a>
</g>
</g>
<!-- client -->
<g id="node2" class="node">
<title>client</title>
<g id="a_node2"><a xlink:href="../../tables/client.html" xlink:title="client" target="_top">
<polygon fill="#ffffff" stroke="transparent" points="8,-38.2 8,-407.2 209,-407.2 209,-38.2 8,-38.2"/>
<polygon fill="#f5f5f5" stroke="transparent" points="8.5,-383.7 8.5,-406.7 209.5,-406.7 209.5,-383.7 8.5,-383.7"/>
<polygon fill="none" stroke="#000000" points="8.5,-383.7 8.5,-406.7 209.5,-406.7 209.5,-383.7 8.5,-383.7"/>
<text text-anchor="start" x="13.5" y="-392.8" font-family="Helvetica,sans-Serif" font-weight="bold" font-size="11.00" fill="#000000">client</text>
<text text-anchor="start" x="174.5437" y="-391.8" font-family="Helvetica,sans-Serif" font-size="11.00" fill="#000000">[table]</text>
<polygon fill="none" stroke="#000000" points="8.5,-361.7 8.5,-383.7 209.5,-383.7 209.5,-361.7 8.5,-361.7"/>
<image xlink:href="../../images/primaryKeys.png" width="11px" height="12px" preserveAspectRatio="xMinYMin meet" x="13.5" y="-378.7"/>
<text text-anchor="start" x="28.5" y="-368.8" font-family="Helvetica,sans-Serif" font-size="11.00" fill="#000000">id</text>
<polygon fill="#ffffff" stroke="transparent" points="8.5,-339.7 8.5,-361.7 209.5,-361.7 209.5,-339.7 8.5,-339.7"/>
<polygon fill="none" stroke="#000000" points="8.5,-339.7 8.5,-361.7 209.5,-361.7 209.5,-339.7 8.5,-339.7"/>
<image xlink:href="../../images/foreignKeys.png" width="11px" height="12px" preserveAspectRatio="xMinYMin meet" x="13.5" y="-356.7"/>
<text text-anchor="start" x="28.5" y="-346.8" font-family="Helvetica,sans-Serif" font-size="11.00" fill="#000000">created_by</text>
<polygon fill="#ffffff" stroke="transparent" points="8.5,-317.7 8.5,-339.7 209.5,-339.7 209.5,-317.7 8.5,-317.7"/>
<polygon fill="none" stroke="#000000" points="8.5,-317.7 8.5,-339.7 209.5,-339.7 209.5,-317.7 8.5,-317.7"/>
<image xlink:href="../../images/foreignKeys.png" width="11px" height="12px" preserveAspectRatio="xMinYMin meet" x="13.5" y="-334.7"/>
<text text-anchor="start" x="28.5" y="-324.8" font-family="Helvetica,sans-Serif" font-size="11.00" fill="#000000">modified_by</text>
<polygon fill="#ffffff" stroke="transparent" points="8.5,-295.7 8.5,-317.7 209.5,-317.7 209.5,-295.7 8.5,-295.7"/>
<polygon fill="none" stroke="#000000" points="8.5,-295.7 8.5,-317.7 209.5,-317.7 209.5,-295.7 8.5,-295.7"/>
<text text-anchor="start" x="28.5" y="-302.8" font-family="Helvetica,sans-Serif" font-size="11.00" fill="#000000">marketplace_id</text>
<polygon fill="#ffffff" stroke="transparent" points="8.5,-273.7 8.5,-295.7 209.5,-295.7 209.5,-273.7 8.5,-273.7"/>
<polygon fill="none" stroke="#000000" points="8.5,-273.7 8.5,-295.7 209.5,-295.7 209.5,-273.7 8.5,-273.7"/>
<text text-anchor="start" x="28.5" y="-280.8" font-family="Helvetica,sans-Serif" font-size="11.00" fill="#000000">name</text>
<polygon fill="#ffffff" stroke="transparent" points="8.5,-251.7 8.5,-273.7 209.5,-273.7 209.5,-251.7 8.5,-251.7"/>
<polygon fill="none" stroke="#000000" points="8.5,-251.7 8.5,-273.7 209.5,-273.7 209.5,-251.7 8.5,-251.7"/>
<text text-anchor="start" x="28.5" y="-258.8" font-family="Helvetica,sans-Serif" font-size="11.00" fill="#000000">organizational_number</text>
<polygon fill="#ffffff" stroke="transparent" points="8.5,-229.7 8.5,-251.7 209.5,-251.7 209.5,-229.7 8.5,-229.7"/>
<polygon fill="none" stroke="#000000" points="8.5,-229.7 8.5,-251.7 209.5,-251.7 209.5,-229.7 8.5,-229.7"/>
<text text-anchor="start" x="28.5" y="-236.8" font-family="Helvetica,sans-Serif" font-size="11.00" fill="#000000">vat_number</text>
<polygon fill="#ffffff" stroke="transparent" points="8.5,-207.7 8.5,-229.7 209.5,-229.7 209.5,-207.7 8.5,-207.7"/>
<polygon fill="none" stroke="#000000" points="8.5,-207.7 8.5,-229.7 209.5,-229.7 209.5,-207.7 8.5,-207.7"/>
<image xlink:href="../../images/foreignKeys.png" width="11px" height="12px" preserveAspectRatio="xMinYMin meet" x="13.5" y="-224.7"/>
<text text-anchor="start" x="28.5" y="-214.8" font-family="Helvetica,sans-Serif" font-size="11.00" fill="#000000">client_group_id</text>
<polygon fill="#ffffff" stroke="transparent" points="8.5,-185.7 8.5,-207.7 209.5,-207.7 209.5,-185.7 8.5,-185.7"/>
<polygon fill="none" stroke="#000000" points="8.5,-185.7 8.5,-207.7 209.5,-207.7 209.5,-185.7 8.5,-185.7"/>
<image xlink:href="../../images/foreignKeys.png" width="11px" height="12px" preserveAspectRatio="xMinYMin meet" x="13.5" y="-202.7"/>
<text text-anchor="start" x="28.5" y="-192.8" font-family="Helvetica,sans-Serif" font-size="11.00" fill="#000000">client_operations_developer_id</text>
<polygon fill="#ffffff" stroke="transparent" points="8.5,-163.7 8.5,-185.7 209.5,-185.7 209.5,-163.7 8.5,-163.7"/>
<polygon fill="none" stroke="#000000" points="8.5,-163.7 8.5,-185.7 209.5,-185.7 209.5,-163.7 8.5,-163.7"/>
<image xlink:href="../../images/foreignKeys.png" width="11px" height="12px" preserveAspectRatio="xMinYMin meet" x="13.5" y="-180.7"/>
<text text-anchor="start" x="28.5" y="-170.8" font-family="Helvetica,sans-Serif" font-size="11.00" fill="#000000">responsible_bo_partner_id</text>
<polygon fill="#ffffff" stroke="transparent" points="8.5,-141.7 8.5,-163.7 209.5,-163.7 209.5,-141.7 8.5,-141.7"/>
<polygon fill="none" stroke="#000000" points="8.5,-141.7 8.5,-163.7 209.5,-163.7 209.5,-141.7 8.5,-141.7"/>
<image xlink:href="../../images/foreignKeys.png" width="11px" height="12px" preserveAspectRatio="xMinYMin meet" x="13.5" y="-158.7"/>
<text text-anchor="start" x="28.5" y="-148.8" font-family="Helvetica,sans-Serif" font-size="11.00" fill="#000000">client_responsible_id</text>
<polygon fill="#ffffff" stroke="transparent" points="8.5,-119.7 8.5,-141.7 209.5,-141.7 209.5,-119.7 8.5,-119.7"/>
<polygon fill="none" stroke="#000000" points="8.5,-119.7 8.5,-141.7 209.5,-141.7 209.5,-119.7 8.5,-119.7"/>
<image xlink:href="../../images/foreignKeys.png" width="11px" height="12px" preserveAspectRatio="xMinYMin meet" x="13.5" y="-136.7"/>
<text text-anchor="start" x="28.5" y="-126.8" font-family="Helvetica,sans-Serif" font-size="11.00" fill="#000000">responsible_bo_team_id</text>
<polygon fill="#ffffff" stroke="transparent" points="8.5,-97.7 8.5,-119.7 209.5,-119.7 209.5,-97.7 8.5,-97.7"/>
<polygon fill="none" stroke="#000000" points="8.5,-97.7 8.5,-119.7 209.5,-119.7 209.5,-97.7 8.5,-97.7"/>
<image xlink:href="../../images/foreignKeys.png" width="11px" height="12px" preserveAspectRatio="xMinYMin meet" x="13.5" y="-114.7"/>
<text text-anchor="start" x="28.5" y="-104.8" font-family="Helvetica,sans-Serif" font-size="11.00" fill="#000000">responsible_co_team_id</text>
<polygon fill="#ffffff" stroke="transparent" points="8.5,-75.7 8.5,-97.7 209.5,-97.7 209.5,-75.7 8.5,-75.7"/>
<polygon fill="none" stroke="#000000" points="8.5,-75.7 8.5,-97.7 209.5,-97.7 209.5,-75.7 8.5,-75.7"/>
<image xlink:href="../../images/foreignKeys.png" width="11px" height="12px" preserveAspectRatio="xMinYMin meet" x="13.5" y="-92.7"/>
<text text-anchor="start" x="28.5" y="-82.8" font-family="Helvetica,sans-Serif" font-size="11.00" fill="#000000">avatar_id</text>
<polygon fill="none" stroke="#000000" points="8.5,-56.7 8.5,-75.7 209.5,-75.7 209.5,-56.7 8.5,-56.7"/>
<text text-anchor="start" x="11.5" y="-62.8" font-family="Helvetica,sans-Serif" font-size="11.00" fill="#000000">...</text>
<polygon fill="#ffffff" stroke="transparent" points="8.5,-37.7 8.5,-56.7 83.5,-56.7 83.5,-37.7 8.5,-37.7"/>
<polygon fill="none" stroke="#000000" points="8.5,-37.7 8.5,-56.7 83.5,-56.7 83.5,-37.7 8.5,-37.7"/>
<text text-anchor="start" x="11.5" y="-43.8" font-family="Helvetica,sans-Serif" font-size="11.00" fill="#000000">&lt; 9</text>
<polygon fill="#ffffff" stroke="transparent" points="83.5,-37.7 83.5,-56.7 160.5,-56.7 160.5,-37.7 83.5,-37.7"/>
<polygon fill="none" stroke="#000000" points="83.5,-37.7 83.5,-56.7 160.5,-56.7 160.5,-37.7 83.5,-37.7"/>
<text text-anchor="start" x="112.8807" y="-43.8" font-family="Helvetica,sans-Serif" font-size="11.00" fill="#000000">647 rows</text>
<polygon fill="#ffffff" stroke="transparent" points="160.5,-37.7 160.5,-56.7 209.5,-56.7 209.5,-37.7 160.5,-37.7"/>
<polygon fill="none" stroke="#000000" points="160.5,-37.7 160.5,-56.7 209.5,-56.7 209.5,-37.7 160.5,-37.7"/>
<text text-anchor="start" x="190.9053" y="-43.8" font-family="Helvetica,sans-Serif" font-size="11.00" fill="#000000">7 &gt;</text>
</a>
</g>
</g>
<!-- client_address&#45;&gt;client -->
<g id="edge1" class="edge">
<title>client_address:w&#45;&gt;client:e</title>
<path fill="none" stroke="#000000" d="M245.4203,-372.7C233.5435,-372.7 226.158,-372.7 209.5,-372.7"/>
<polygon fill="#000000" stroke="#000000" points="252,-372.7001 260,-376.3 256,-372.7 260,-372.7 260,-372.7 260,-372.7 256,-372.7 260,-369.1 252,-372.7001 252,-372.7001"/>
<ellipse fill="none" stroke="#000000" cx="248.8" cy="-372.7001" rx="3.2" ry="3.2"/>
</g>
<!-- client_address_type -->
<g id="node3" class="node">
<title>client_address_type</title>
<g id="a_node3"><a xlink:href="../../tables/client_address_type.html" xlink:title="client_address_type" target="_top">
<polygon fill="#ffffff" stroke="transparent" points="587.5,-758.7 587.5,-844.7 727.5,-844.7 727.5,-758.7 587.5,-758.7"/>
<polygon fill="#f5f5f5" stroke="transparent" points="587.5,-821.7 587.5,-844.7 727.5,-844.7 727.5,-821.7 587.5,-821.7"/>
<polygon fill="none" stroke="#000000" points="587.5,-821.7 587.5,-844.7 727.5,-844.7 727.5,-821.7 587.5,-821.7"/>
<text text-anchor="start" x="592.0968" y="-830.8" font-family="Helvetica,sans-Serif" font-weight="bold" font-size="11.00" fill="#000000">client_address_type</text>
<text text-anchor="start" x="693.0219" y="-829.8" font-family="Helvetica,sans-Serif" font-size="11.00" fill="#000000">[table]</text>
<polygon fill="none" stroke="#000000" points="587.5,-799.7 587.5,-821.7 727.5,-821.7 727.5,-799.7 587.5,-799.7"/>
<image xlink:href="../../images/primaryKeys.png" width="11px" height="12px" preserveAspectRatio="xMinYMin meet" x="592.5" y="-816.7"/>
<text text-anchor="start" x="609.5" y="-806.8" font-family="Helvetica,sans-Serif" font-size="11.00" fill="#000000">address_id</text>
<polygon fill="none" stroke="#000000" points="587.5,-777.7 587.5,-799.7 727.5,-799.7 727.5,-777.7 587.5,-777.7"/>
<image xlink:href="../../images/primaryKeys.png" width="11px" height="12px" preserveAspectRatio="xMinYMin meet" x="592.5" y="-794.7"/>
<text text-anchor="start" x="609.5" y="-784.8" font-family="Helvetica,sans-Serif" font-size="11.00" fill="#000000">type</text>
<polygon fill="#ffffff" stroke="transparent" points="587.5,-758.7 587.5,-777.7 636.5,-777.7 636.5,-758.7 587.5,-758.7"/>
<polygon fill="none" stroke="#000000" points="587.5,-758.7 587.5,-777.7 636.5,-777.7 636.5,-758.7 587.5,-758.7"/>
<text text-anchor="start" x="590.5" y="-764.8" font-family="Helvetica,sans-Serif" font-size="11.00" fill="#000000">&lt; 1</text>
<polygon fill="#ffffff" stroke="transparent" points="636.5,-758.7 636.5,-777.7 700.5,-777.7 700.5,-758.7 636.5,-758.7"/>
<polygon fill="none" stroke="#000000" points="636.5,-758.7 636.5,-777.7 700.5,-777.7 700.5,-758.7 636.5,-758.7"/>
<text text-anchor="start" x="652.8807" y="-764.8" font-family="Helvetica,sans-Serif" font-size="11.00" fill="#000000">203 rows</text>
<polygon fill="#ffffff" stroke="transparent" points="700.5,-758.7 700.5,-777.7 727.5,-777.7 727.5,-758.7 700.5,-758.7"/>
<polygon fill="none" stroke="#000000" points="700.5,-758.7 700.5,-777.7 727.5,-777.7 727.5,-758.7 700.5,-758.7"/>
<text text-anchor="start" x="718.3862" y="-764.8" font-family="Helvetica,sans-Serif" font-size="11.00" fill="#000000"> &#160;</text>
</a>
</g>
</g>
<!-- client_address_type&#45;&gt;client_address -->
<g id="edge2" class="edge">
<title>client_address_type:w&#45;&gt;client_address:e</title>
<path fill="none" stroke="#000000" d="M572.9512,-809.9746C534.033,-805.8031 520.305,-783.7864 493,-747.7 455.5151,-698.1597 512.1237,-614.7 450,-614.7"/>
<polygon fill="#000000" stroke="#000000" points="579.5099,-810.3016 587.3207,-814.2955 583.505,-810.5008 587.5,-810.7 587.5,-810.7 587.5,-810.7 583.505,-810.5008 587.6793,-807.1045 579.5099,-810.3016 579.5099,-810.3016"/>
<ellipse fill="none" stroke="#000000" cx="576.3139" cy="-810.1422" rx="3.2" ry="3.2"/>
</g>
<!-- invoice_settings -->
<g id="node4" class="node">
<title>invoice_settings</title>
<g id="a_node4"><a xlink:href="../../tables/invoice_settings.html" xlink:title="invoice_settings" target="_top">
<polygon fill="#ffffff" stroke="transparent" points="501,-544.2 501,-737.2 814,-737.2 814,-544.2 501,-544.2"/>
<polygon fill="#f5f5f5" stroke="transparent" points="501.5,-713.7 501.5,-736.7 814.5,-736.7 814.5,-713.7 501.5,-713.7"/>
<polygon fill="none" stroke="#000000" points="501.5,-713.7 501.5,-736.7 814.5,-736.7 814.5,-713.7 501.5,-713.7"/>
<text text-anchor="start" x="506.5" y="-722.8" font-family="Helvetica,sans-Serif" font-weight="bold" font-size="11.00" fill="#000000">invoice_settings</text>
<text text-anchor="start" x="779.5437" y="-721.8" font-family="Helvetica,sans-Serif" font-size="11.00" fill="#000000">[table]</text>
<polygon fill="none" stroke="#000000" points="501.5,-691.7 501.5,-713.7 814.5,-713.7 814.5,-691.7 501.5,-691.7"/>
<image xlink:href="../../images/primaryKeys.png" width="11px" height="12px" preserveAspectRatio="xMinYMin meet" x="506.5" y="-708.7"/>
<text text-anchor="start" x="521.5" y="-698.8" font-family="Helvetica,sans-Serif" font-size="11.00" fill="#000000">id</text>
<polygon fill="#ffffff" stroke="transparent" points="501.5,-669.7 501.5,-691.7 814.5,-691.7 814.5,-669.7 501.5,-669.7"/>
<polygon fill="none" stroke="#000000" points="501.5,-669.7 501.5,-691.7 814.5,-691.7 814.5,-669.7 501.5,-669.7"/>
<image xlink:href="../../images/foreignKeys.png" width="11px" height="12px" preserveAspectRatio="xMinYMin meet" x="506.5" y="-686.7"/>
<text text-anchor="start" x="521.5" y="-676.8" font-family="Helvetica,sans-Serif" font-size="11.00" fill="#000000">created_by</text>
<polygon fill="#ffffff" stroke="transparent" points="501.5,-647.7 501.5,-669.7 814.5,-669.7 814.5,-647.7 501.5,-647.7"/>
<polygon fill="none" stroke="#000000" points="501.5,-647.7 501.5,-669.7 814.5,-669.7 814.5,-647.7 501.5,-647.7"/>
<image xlink:href="../../images/foreignKeys.png" width="11px" height="12px" preserveAspectRatio="xMinYMin meet" x="506.5" y="-664.7"/>
<text text-anchor="start" x="521.5" y="-654.8" font-family="Helvetica,sans-Serif" font-size="11.00" fill="#000000">modified_by</text>
<polygon fill="#ffffff" stroke="transparent" points="501.5,-625.7 501.5,-647.7 814.5,-647.7 814.5,-625.7 501.5,-625.7"/>
<polygon fill="none" stroke="#000000" points="501.5,-625.7 501.5,-647.7 814.5,-647.7 814.5,-625.7 501.5,-625.7"/>
<image xlink:href="../../images/foreignKeys.png" width="11px" height="12px" preserveAspectRatio="xMinYMin meet" x="506.5" y="-642.7"/>
<text text-anchor="start" x="521.5" y="-632.8" font-family="Helvetica,sans-Serif" font-size="11.00" fill="#000000">unit_id</text>
<polygon fill="#ffffff" stroke="transparent" points="501.5,-603.7 501.5,-625.7 814.5,-625.7 814.5,-603.7 501.5,-603.7"/>
<polygon fill="none" stroke="#000000" points="501.5,-603.7 501.5,-625.7 814.5,-625.7 814.5,-603.7 501.5,-603.7"/>
<image xlink:href="../../images/foreignKeys.png" width="11px" height="12px" preserveAspectRatio="xMinYMin meet" x="506.5" y="-620.7"/>
<text text-anchor="start" x="521.5" y="-610.8" font-family="Helvetica,sans-Serif" font-size="11.00" fill="#000000">invoice_address_id</text>
<polygon fill="#ffffff" stroke="transparent" points="501.5,-581.7 501.5,-603.7 814.5,-603.7 814.5,-581.7 501.5,-581.7"/>
<polygon fill="none" stroke="#000000" points="501.5,-581.7 501.5,-603.7 814.5,-603.7 814.5,-581.7 501.5,-581.7"/>
<image xlink:href="../../images/foreignKeys.png" width="11px" height="12px" preserveAspectRatio="xMinYMin meet" x="506.5" y="-598.7"/>
<text text-anchor="start" x="521.5" y="-588.8" font-family="Helvetica,sans-Serif" font-size="11.00" fill="#000000">postal_address_for_invoice_reminders_id</text>
<polygon fill="none" stroke="#000000" points="501.5,-562.7 501.5,-581.7 814.5,-581.7 814.5,-562.7 501.5,-562.7"/>
<text text-anchor="start" x="504.5" y="-568.8" font-family="Helvetica,sans-Serif" font-size="11.00" fill="#000000">...</text>
<polygon fill="#ffffff" stroke="transparent" points="501.5,-543.7 501.5,-562.7 643.5,-562.7 643.5,-543.7 501.5,-543.7"/>
<polygon fill="none" stroke="#000000" points="501.5,-543.7 501.5,-562.7 643.5,-562.7 643.5,-543.7 501.5,-543.7"/>
<text text-anchor="start" x="504.5" y="-549.8" font-family="Helvetica,sans-Serif" font-size="11.00" fill="#000000">&lt; 5</text>
<polygon fill="#ffffff" stroke="transparent" points="643.5,-543.7 643.5,-562.7 741.5,-562.7 741.5,-543.7 643.5,-543.7"/>
<polygon fill="none" stroke="#000000" points="643.5,-543.7 643.5,-562.7 741.5,-562.7 741.5,-543.7 643.5,-543.7"/>
<text text-anchor="start" x="706.1105" y="-549.8" font-family="Helvetica,sans-Serif" font-size="11.00" fill="#000000">8 rows</text>
<polygon fill="#ffffff" stroke="transparent" points="741.5,-543.7 741.5,-562.7 814.5,-562.7 814.5,-543.7 741.5,-543.7"/>
<polygon fill="none" stroke="#000000" points="741.5,-543.7 741.5,-562.7 814.5,-562.7 814.5,-543.7 741.5,-543.7"/>
<text text-anchor="start" x="805.3862" y="-549.8" font-family="Helvetica,sans-Serif" font-size="11.00" fill="#000000"> &#160;</text>
</a>
</g>
</g>
<!-- invoice_settings&#45;&gt;client_address -->
<g id="edge3" class="edge">
<title>invoice_settings:w&#45;&gt;client_address:e</title>
<path fill="none" stroke="#000000" d="M487.0156,-614.7C474.6771,-614.7 467.1667,-614.7 450,-614.7"/>
<polygon fill="#000000" stroke="#000000" points="493.5,-614.7001 501.5,-618.3 497.5,-614.7 501.5,-614.7 501.5,-614.7 501.5,-614.7 497.5,-614.7 501.5,-611.1 493.5,-614.7001 493.5,-614.7001"/>
<ellipse fill="none" stroke="#000000" cx="490.3" cy="-614.7001" rx="3.2" ry="3.2"/>
</g>
<!-- invoice_settings&#45;&gt;client_address -->
<g id="edge4" class="edge">
<title>invoice_settings:w&#45;&gt;client_address:e</title>
<path fill="none" stroke="#000000" d="M487.2209,-595.759C474.531,-601.804 469.0563,-614.7 450,-614.7"/>
<polygon fill="#000000" stroke="#000000" points="493.6775,-594.3759 502.2541,-596.2201 497.5887,-593.5379 501.5,-592.7 501.5,-592.7 501.5,-592.7 497.5887,-593.5379 500.7459,-589.1799 493.6775,-594.3759 493.6775,-594.3759"/>
<ellipse fill="none" stroke="#000000" cx="490.5485" cy="-595.0462" rx="3.2" ry="3.2"/>
</g>
</g>
</svg>
