<?xml version="1.0" encoding="UTF-8" standalone="no"?>
<!DOCTYPE svg PUBLIC "-//W3C//DTD SVG 1.1//EN"
 "http://www.w3.org/Graphics/SVG/1.1/DTD/svg11.dtd">
<!-- Generated by graphviz version 2.40.1 (20161225.0304)
 -->
<!-- Title: twoDegreesRelationshipsDiagram Pages: 1 -->
<svg width="544pt" height="266pt"
 viewBox="0.00 0.00 544.00 265.70" xmlns="http://www.w3.org/2000/svg" xmlns:xlink="http://www.w3.org/1999/xlink">
<g id="graph0" class="graph" transform="scale(1 1) rotate(0) translate(4 261.7)">
<title>twoDegreesRelationshipsDiagram</title>
<polygon fill="#ffffff" stroke="transparent" points="-4,4 -4,-261.7 540,-261.7 540,4 -4,4"/>
<text text-anchor="middle" x="72.4936" y="-7.3" font-family="Helvetica,sans-Serif" font-size="11.00" fill="#000000">Generated by SchemaSpy</text>
<!-- client_address -->
<g id="node1" class="node">
<title>client_address</title>
<g id="a_node1"><a xlink:href="../../tables/client_address.html" xlink:title="client_address" target="_top">
<polygon fill="#ffffff" stroke="transparent" points="149,-38.2 149,-143.2 272,-143.2 272,-38.2 149,-38.2"/>
<polygon fill="#f5f5f5" stroke="transparent" points="149.5,-119.7 149.5,-142.7 272.5,-142.7 272.5,-119.7 149.5,-119.7"/>
<polygon fill="none" stroke="#000000" points="149.5,-119.7 149.5,-142.7 272.5,-142.7 272.5,-119.7 149.5,-119.7"/>
<text text-anchor="start" x="154.5" y="-128.8" font-family="Helvetica,sans-Serif" font-weight="bold" font-size="11.00" fill="#000000">client_address</text>
<text text-anchor="start" x="237.5437" y="-127.8" font-family="Helvetica,sans-Serif" font-size="11.00" fill="#000000">[table]</text>
<polygon fill="none" stroke="#000000" points="149.5,-97.7 149.5,-119.7 272.5,-119.7 272.5,-97.7 149.5,-97.7"/>
<image xlink:href="../../images/primaryKeys.png" width="11px" height="12px" preserveAspectRatio="xMinYMin meet" x="154.5" y="-114.7"/>
<text text-anchor="start" x="169.5" y="-104.8" font-family="Helvetica,sans-Serif" font-size="11.00" fill="#000000">id</text>
<polygon fill="#ffffff" stroke="transparent" points="149.5,-75.7 149.5,-97.7 272.5,-97.7 272.5,-75.7 149.5,-75.7"/>
<polygon fill="none" stroke="#000000" points="149.5,-75.7 149.5,-97.7 272.5,-97.7 272.5,-75.7 149.5,-75.7"/>
<image xlink:href="../../images/foreignKeys.png" width="11px" height="12px" preserveAspectRatio="xMinYMin meet" x="154.5" y="-92.7"/>
<text text-anchor="start" x="169.5" y="-82.8" font-family="Helvetica,sans-Serif" font-size="11.00" fill="#000000">client_id</text>
<polygon fill="none" stroke="#000000" points="149.5,-56.7 149.5,-75.7 272.5,-75.7 272.5,-56.7 149.5,-56.7"/>
<text text-anchor="start" x="152.5" y="-62.8" font-family="Helvetica,sans-Serif" font-size="11.00" fill="#000000">...</text>
<polygon fill="#ffffff" stroke="transparent" points="149.5,-37.7 149.5,-56.7 185.5,-56.7 185.5,-37.7 149.5,-37.7"/>
<polygon fill="none" stroke="#000000" points="149.5,-37.7 149.5,-56.7 185.5,-56.7 185.5,-37.7 149.5,-37.7"/>
<text text-anchor="start" x="152.5" y="-43.8" font-family="Helvetica,sans-Serif" font-size="11.00" fill="#000000">&lt; 1</text>
<polygon fill="#ffffff" stroke="transparent" points="185.5,-37.7 185.5,-56.7 243.5,-56.7 243.5,-37.7 185.5,-37.7"/>
<polygon fill="none" stroke="#000000" points="185.5,-37.7 185.5,-56.7 243.5,-56.7 243.5,-37.7 185.5,-37.7"/>
<text text-anchor="start" x="195.8807" y="-43.8" font-family="Helvetica,sans-Serif" font-size="11.00" fill="#000000">100 rows</text>
<polygon fill="#ffffff" stroke="transparent" points="243.5,-37.7 243.5,-56.7 272.5,-56.7 272.5,-37.7 243.5,-37.7"/>
<polygon fill="none" stroke="#000000" points="243.5,-37.7 243.5,-56.7 272.5,-56.7 272.5,-37.7 243.5,-37.7"/>
<text text-anchor="start" x="253.9053" y="-43.8" font-family="Helvetica,sans-Serif" font-size="11.00" fill="#000000">3 &gt;</text>
</a>
</g>
</g>
<!-- client -->
<g id="node2" class="node">
<title>client</title>
<g id="a_node2"><a xlink:href="../../tables/client.html" xlink:title="client" target="_top">
<polygon fill="#ffffff" stroke="transparent" points="8,-59.2 8,-120.2 100,-120.2 100,-59.2 8,-59.2"/>
<polygon fill="#f5f5f5" stroke="transparent" points="8,-96.7 8,-119.7 100,-119.7 100,-96.7 8,-96.7"/>
<polygon fill="none" stroke="#000000" points="8,-96.7 8,-119.7 100,-119.7 100,-96.7 8,-96.7"/>
<text text-anchor="start" x="13" y="-105.8" font-family="Helvetica,sans-Serif" font-weight="bold" font-size="11.00" fill="#000000">client</text>
<text text-anchor="start" x="65.0437" y="-104.8" font-family="Helvetica,sans-Serif" font-size="11.00" fill="#000000">[table]</text>
<polygon fill="none" stroke="#000000" points="8,-77.7 8,-96.7 100,-96.7 100,-77.7 8,-77.7"/>
<text text-anchor="start" x="11" y="-83.8" font-family="Helvetica,sans-Serif" font-size="11.00" fill="#000000">...</text>
<polygon fill="#ffffff" stroke="transparent" points="8,-58.7 8,-77.7 29,-77.7 29,-58.7 8,-58.7"/>
<polygon fill="none" stroke="#000000" points="8,-58.7 8,-77.7 29,-77.7 29,-58.7 8,-58.7"/>
<text text-anchor="start" x="10.7027" y="-64.8" font-family="Helvetica,sans-Serif" font-size="11.00" fill="#000000">&lt; 9</text>
<polygon fill="#ffffff" stroke="transparent" points="29,-58.7 29,-77.7 79,-77.7 79,-58.7 29,-58.7"/>
<polygon fill="none" stroke="#000000" points="29,-58.7 29,-77.7 79,-77.7 79,-58.7 29,-58.7"/>
<text text-anchor="start" x="31.6904" y="-64.8" font-family="Helvetica,sans-Serif" font-size="11.00" fill="#000000">647 rows</text>
<polygon fill="#ffffff" stroke="transparent" points="79,-58.7 79,-77.7 100,-77.7 100,-58.7 79,-58.7"/>
<polygon fill="none" stroke="#000000" points="79,-58.7 79,-77.7 100,-77.7 100,-58.7 79,-58.7"/>
<text text-anchor="start" x="81.7027" y="-64.8" font-family="Helvetica,sans-Serif" font-size="11.00" fill="#000000">7 &gt;</text>
</a>
</g>
</g>
<!-- client_address&#45;&gt;client -->
<g id="edge1" class="edge">
<title>client_address:w&#45;&gt;client:e</title>
<path fill="none" stroke="#000000" d="M134.8428,-86.7C123.4139,-86.7 116.1563,-86.7 100,-86.7"/>
<polygon fill="#000000" stroke="#000000" points="141.5,-86.7001 149.5,-90.3 145.5,-86.7 149.5,-86.7 149.5,-86.7 149.5,-86.7 145.5,-86.7 149.5,-83.1 141.5,-86.7001 141.5,-86.7001"/>
<ellipse fill="none" stroke="#000000" cx="138.3" cy="-86.7001" rx="3.2" ry="3.2"/>
</g>
<!-- client_address_type -->
<g id="node3" class="node">
<title>client_address_type</title>
<g id="a_node3"><a xlink:href="../../tables/client_address_type.html" xlink:title="client_address_type" target="_top">
<polygon fill="#ffffff" stroke="transparent" points="321,-163.7 321,-253.7 528,-253.7 528,-163.7 321,-163.7"/>
<polygon fill="#f5f5f5" stroke="transparent" points="323.5,-228.7 323.5,-251.7 526.5,-251.7 526.5,-228.7 323.5,-228.7"/>
<polygon fill="none" stroke="#000000" points="323.5,-228.7 323.5,-251.7 526.5,-251.7 526.5,-228.7 323.5,-228.7"/>
<text text-anchor="start" x="328.5" y="-237.8" font-family="Helvetica,sans-Serif" font-weight="bold" font-size="11.00" fill="#000000">client_address_type</text>
<text text-anchor="start" x="491.5437" y="-236.8" font-family="Helvetica,sans-Serif" font-size="11.00" fill="#000000">[table]</text>
<polygon fill="none" stroke="#000000" points="323.5,-206.7 323.5,-228.7 459.5,-228.7 459.5,-206.7 323.5,-206.7"/>
<image xlink:href="../../images/primaryKeys.png" width="11px" height="12px" preserveAspectRatio="xMinYMin meet" x="328.5" y="-223.7"/>
<text text-anchor="start" x="343.5" y="-213.8" font-family="Helvetica,sans-Serif" font-size="11.00" fill="#000000">address_id</text>
<polygon fill="none" stroke="#000000" points="459.5,-206.7 459.5,-228.7 526.5,-228.7 526.5,-206.7 459.5,-206.7"/>
<text text-anchor="start" x="462.5" y="-214.4" font-family="Helvetica,sans-Serif" font-size="11.00" fill="#000000">bigint[19]</text>
<polygon fill="none" stroke="#000000" points="323.5,-184.7 323.5,-206.7 459.5,-206.7 459.5,-184.7 323.5,-184.7"/>
<image xlink:href="../../images/primaryKeys.png" width="11px" height="12px" preserveAspectRatio="xMinYMin meet" x="328.5" y="-201.7"/>
<text text-anchor="start" x="343.5" y="-191.8" font-family="Helvetica,sans-Serif" font-size="11.00" fill="#000000">type</text>
<polygon fill="none" stroke="#000000" points="459.5,-184.7 459.5,-206.7 526.5,-206.7 526.5,-184.7 459.5,-184.7"/>
<text text-anchor="start" x="462.4365" y="-192.4" font-family="Helvetica,sans-Serif" font-size="11.00" fill="#000000">varchar[255]</text>
<polygon fill="#ffffff" stroke="transparent" points="323.5,-165.7 323.5,-184.7 376.5,-184.7 376.5,-165.7 323.5,-165.7"/>
<polygon fill="none" stroke="#000000" points="323.5,-165.7 323.5,-184.7 376.5,-184.7 376.5,-165.7 323.5,-165.7"/>
<text text-anchor="start" x="326.5" y="-171.8" font-family="Helvetica,sans-Serif" font-size="11.00" fill="#000000">&lt; 1</text>
<polygon fill="#ffffff" stroke="transparent" points="376.5,-165.7 376.5,-184.7 459.5,-184.7 459.5,-165.7 376.5,-165.7"/>
<polygon fill="none" stroke="#000000" points="376.5,-165.7 376.5,-184.7 459.5,-184.7 459.5,-165.7 376.5,-165.7"/>
<text text-anchor="start" x="411.8807" y="-171.8" font-family="Helvetica,sans-Serif" font-size="11.00" fill="#000000">203 rows</text>
<polygon fill="#ffffff" stroke="transparent" points="459.5,-165.7 459.5,-184.7 526.5,-184.7 526.5,-165.7 459.5,-165.7"/>
<polygon fill="none" stroke="#000000" points="459.5,-165.7 459.5,-184.7 526.5,-184.7 526.5,-165.7 459.5,-165.7"/>
<text text-anchor="start" x="507.9053" y="-171.8" font-family="Helvetica,sans-Serif" font-size="11.00" fill="#000000">0 &gt;</text>
<polygon fill="none" stroke="#000000" stroke-width="2" points="322,-164.7 322,-252.7 527,-252.7 527,-164.7 322,-164.7"/>
</a>
</g>
</g>
<!-- client_address_type&#45;&gt;client_address -->
<g id="edge2" class="edge">
<title>client_address_type:w&#45;&gt;client_address:e</title>
<path fill="none" stroke="#000000" d="M309.219,-213.8206C281.2911,-194.4034 319.9261,-108.7 272.5,-108.7"/>
<polygon fill="#000000" stroke="#000000" points="315.7798,-215.6028 322.5563,-221.1741 319.6399,-216.6514 323.5,-217.7 323.5,-217.7 323.5,-217.7 319.6399,-216.6514 324.4437,-214.2259 315.7798,-215.6028 315.7798,-215.6028"/>
<ellipse fill="none" stroke="#000000" cx="312.6917" cy="-214.7639" rx="3.2" ry="3.2"/>
</g>
<!-- invoice_settings -->
<g id="node4" class="node">
<title>invoice_settings</title>
<g id="a_node4"><a xlink:href="../../tables/invoice_settings.html" xlink:title="invoice_settings" target="_top">
<polygon fill="#ffffff" stroke="transparent" points="364,-81.2 364,-142.2 485,-142.2 485,-81.2 364,-81.2"/>
<polygon fill="#f5f5f5" stroke="transparent" points="364.5,-118.7 364.5,-141.7 485.5,-141.7 485.5,-118.7 364.5,-118.7"/>
<polygon fill="none" stroke="#000000" points="364.5,-118.7 364.5,-141.7 485.5,-141.7 485.5,-118.7 364.5,-118.7"/>
<text text-anchor="start" x="369.3796" y="-127.8" font-family="Helvetica,sans-Serif" font-weight="bold" font-size="11.00" fill="#000000">invoice_settings</text>
<text text-anchor="start" x="451.0219" y="-126.8" font-family="Helvetica,sans-Serif" font-size="11.00" fill="#000000">[table]</text>
<polygon fill="none" stroke="#000000" points="364.5,-99.7 364.5,-118.7 485.5,-118.7 485.5,-99.7 364.5,-99.7"/>
<text text-anchor="start" x="367.5" y="-105.8" font-family="Helvetica,sans-Serif" font-size="11.00" fill="#000000">...</text>
<polygon fill="#ffffff" stroke="transparent" points="364.5,-80.7 364.5,-99.7 410.5,-99.7 410.5,-80.7 364.5,-80.7"/>
<polygon fill="none" stroke="#000000" points="364.5,-80.7 364.5,-99.7 410.5,-99.7 410.5,-80.7 364.5,-80.7"/>
<text text-anchor="start" x="367.5" y="-86.8" font-family="Helvetica,sans-Serif" font-size="11.00" fill="#000000">&lt; 5</text>
<polygon fill="#ffffff" stroke="transparent" points="410.5,-80.7 410.5,-99.7 460.5,-99.7 460.5,-80.7 410.5,-80.7"/>
<polygon fill="none" stroke="#000000" points="410.5,-80.7 410.5,-99.7 460.5,-99.7 460.5,-80.7 410.5,-80.7"/>
<text text-anchor="start" x="425.1105" y="-86.8" font-family="Helvetica,sans-Serif" font-size="11.00" fill="#000000">8 rows</text>
<polygon fill="#ffffff" stroke="transparent" points="460.5,-80.7 460.5,-99.7 485.5,-99.7 485.5,-80.7 460.5,-80.7"/>
<polygon fill="none" stroke="#000000" points="460.5,-80.7 460.5,-99.7 485.5,-99.7 485.5,-80.7 460.5,-80.7"/>
<text text-anchor="start" x="476.3862" y="-86.8" font-family="Helvetica,sans-Serif" font-size="11.00" fill="#000000"> &#160;</text>
</a>
</g>
</g>
<!-- invoice_settings&#45;&gt;client_address -->
<g id="edge3" class="edge">
<title>invoice_settings:w&#45;&gt;client_address:e</title>
<path fill="none" stroke="#000000" d="M350.0849,-106.6788C320.4661,-102.7997 308.1181,-103.4734 272.5,-108.7"/>
<polygon fill="#000000" stroke="#000000" points="356.5775,-107.5891 364.0001,-112.2651 360.5387,-108.1446 364.5,-108.7 364.5,-108.7 364.5,-108.7 360.5387,-108.1446 364.9999,-105.1349 356.5775,-107.5891 356.5775,-107.5891"/>
<ellipse fill="none" stroke="#000000" cx="353.4085" cy="-107.1447" rx="3.2" ry="3.2"/>
</g>
<!-- invoice_settings&#45;&gt;client_address -->
<g id="edge4" class="edge">
<title>invoice_settings:w&#45;&gt;client_address:e</title>
<path fill="none" stroke="#000000" d="M350.0849,-111.0581C320.4661,-115.5837 308.1181,-114.7977 272.5,-108.7"/>
<polygon fill="#000000" stroke="#000000" points="356.6049,-109.9915 365.0812,-112.2528 360.5525,-109.3458 364.5,-108.7 364.5,-108.7 364.5,-108.7 360.5525,-109.3458 363.9188,-105.1472 356.6049,-109.9915 356.6049,-109.9915"/>
<ellipse fill="none" stroke="#000000" cx="353.4469" cy="-110.5082" rx="3.2" ry="3.2"/>
</g>
</g>
</svg>
