<?xml version="1.0" encoding="UTF-8" standalone="no"?>
<!DOCTYPE svg PUBLIC "-//W3C//DTD SVG 1.1//EN"
 "http://www.w3.org/Graphics/SVG/1.1/DTD/svg11.dtd">
<!-- Generated by graphviz version 2.40.1 (20161225.0304)
 -->
<!-- Title: oneDegreeRelationshipsDiagram Pages: 1 -->
<svg width="608pt" height="546pt"
 viewBox="0.00 0.00 608.00 545.70" xmlns="http://www.w3.org/2000/svg" xmlns:xlink="http://www.w3.org/1999/xlink">
<g id="graph0" class="graph" transform="scale(1 1) rotate(0) translate(4 541.7)">
<title>oneDegreeRelationshipsDiagram</title>
<polygon fill="#ffffff" stroke="transparent" points="-4,4 -4,-541.7 604,-541.7 604,4 -4,4"/>
<text text-anchor="middle" x="72.4936" y="-7.3" font-family="Helvetica,sans-Serif" font-size="11.00" fill="#000000">Generated by SchemaSpy</text>
<!-- client -->
<g id="node1" class="node">
<title>client</title>
<g id="a_node1"><a xlink:href="../../tables/client.html" xlink:title="client" target="_top">
<polygon fill="#ffffff" stroke="transparent" points="149,-38.2 149,-407.2 350,-407.2 350,-38.2 149,-38.2"/>
<polygon fill="#f5f5f5" stroke="transparent" points="149.5,-383.7 149.5,-406.7 350.5,-406.7 350.5,-383.7 149.5,-383.7"/>
<polygon fill="none" stroke="#000000" points="149.5,-383.7 149.5,-406.7 350.5,-406.7 350.5,-383.7 149.5,-383.7"/>
<text text-anchor="start" x="154.5" y="-392.8" font-family="Helvetica,sans-Serif" font-weight="bold" font-size="11.00" fill="#000000">client</text>
<text text-anchor="start" x="315.5437" y="-391.8" font-family="Helvetica,sans-Serif" font-size="11.00" fill="#000000">[table]</text>
<polygon fill="none" stroke="#000000" points="149.5,-361.7 149.5,-383.7 350.5,-383.7 350.5,-361.7 149.5,-361.7"/>
<image xlink:href="../../images/primaryKeys.png" width="11px" height="12px" preserveAspectRatio="xMinYMin meet" x="154.5" y="-378.7"/>
<text text-anchor="start" x="169.5" y="-368.8" font-family="Helvetica,sans-Serif" font-size="11.00" fill="#000000">id</text>
<polygon fill="#ffffff" stroke="transparent" points="149.5,-339.7 149.5,-361.7 350.5,-361.7 350.5,-339.7 149.5,-339.7"/>
<polygon fill="none" stroke="#000000" points="149.5,-339.7 149.5,-361.7 350.5,-361.7 350.5,-339.7 149.5,-339.7"/>
<image xlink:href="../../images/foreignKeys.png" width="11px" height="12px" preserveAspectRatio="xMinYMin meet" x="154.5" y="-356.7"/>
<text text-anchor="start" x="169.5" y="-346.8" font-family="Helvetica,sans-Serif" font-size="11.00" fill="#000000">created_by</text>
<polygon fill="#ffffff" stroke="transparent" points="149.5,-317.7 149.5,-339.7 350.5,-339.7 350.5,-317.7 149.5,-317.7"/>
<polygon fill="none" stroke="#000000" points="149.5,-317.7 149.5,-339.7 350.5,-339.7 350.5,-317.7 149.5,-317.7"/>
<image xlink:href="../../images/foreignKeys.png" width="11px" height="12px" preserveAspectRatio="xMinYMin meet" x="154.5" y="-334.7"/>
<text text-anchor="start" x="169.5" y="-324.8" font-family="Helvetica,sans-Serif" font-size="11.00" fill="#000000">modified_by</text>
<polygon fill="#ffffff" stroke="transparent" points="149.5,-295.7 149.5,-317.7 350.5,-317.7 350.5,-295.7 149.5,-295.7"/>
<polygon fill="none" stroke="#000000" points="149.5,-295.7 149.5,-317.7 350.5,-317.7 350.5,-295.7 149.5,-295.7"/>
<text text-anchor="start" x="169.5" y="-302.8" font-family="Helvetica,sans-Serif" font-size="11.00" fill="#000000">marketplace_id</text>
<polygon fill="#ffffff" stroke="transparent" points="149.5,-273.7 149.5,-295.7 350.5,-295.7 350.5,-273.7 149.5,-273.7"/>
<polygon fill="none" stroke="#000000" points="149.5,-273.7 149.5,-295.7 350.5,-295.7 350.5,-273.7 149.5,-273.7"/>
<text text-anchor="start" x="169.5" y="-280.8" font-family="Helvetica,sans-Serif" font-size="11.00" fill="#000000">name</text>
<polygon fill="#ffffff" stroke="transparent" points="149.5,-251.7 149.5,-273.7 350.5,-273.7 350.5,-251.7 149.5,-251.7"/>
<polygon fill="none" stroke="#000000" points="149.5,-251.7 149.5,-273.7 350.5,-273.7 350.5,-251.7 149.5,-251.7"/>
<text text-anchor="start" x="169.5" y="-258.8" font-family="Helvetica,sans-Serif" font-size="11.00" fill="#000000">organizational_number</text>
<polygon fill="#ffffff" stroke="transparent" points="149.5,-229.7 149.5,-251.7 350.5,-251.7 350.5,-229.7 149.5,-229.7"/>
<polygon fill="none" stroke="#000000" points="149.5,-229.7 149.5,-251.7 350.5,-251.7 350.5,-229.7 149.5,-229.7"/>
<text text-anchor="start" x="169.5" y="-236.8" font-family="Helvetica,sans-Serif" font-size="11.00" fill="#000000">vat_number</text>
<polygon fill="#ffffff" stroke="transparent" points="149.5,-207.7 149.5,-229.7 350.5,-229.7 350.5,-207.7 149.5,-207.7"/>
<polygon fill="none" stroke="#000000" points="149.5,-207.7 149.5,-229.7 350.5,-229.7 350.5,-207.7 149.5,-207.7"/>
<image xlink:href="../../images/foreignKeys.png" width="11px" height="12px" preserveAspectRatio="xMinYMin meet" x="154.5" y="-224.7"/>
<text text-anchor="start" x="169.5" y="-214.8" font-family="Helvetica,sans-Serif" font-size="11.00" fill="#000000">client_group_id</text>
<polygon fill="#ffffff" stroke="transparent" points="149.5,-185.7 149.5,-207.7 350.5,-207.7 350.5,-185.7 149.5,-185.7"/>
<polygon fill="none" stroke="#000000" points="149.5,-185.7 149.5,-207.7 350.5,-207.7 350.5,-185.7 149.5,-185.7"/>
<image xlink:href="../../images/foreignKeys.png" width="11px" height="12px" preserveAspectRatio="xMinYMin meet" x="154.5" y="-202.7"/>
<text text-anchor="start" x="169.5" y="-192.8" font-family="Helvetica,sans-Serif" font-size="11.00" fill="#000000">client_operations_developer_id</text>
<polygon fill="#ffffff" stroke="transparent" points="149.5,-163.7 149.5,-185.7 350.5,-185.7 350.5,-163.7 149.5,-163.7"/>
<polygon fill="none" stroke="#000000" points="149.5,-163.7 149.5,-185.7 350.5,-185.7 350.5,-163.7 149.5,-163.7"/>
<image xlink:href="../../images/foreignKeys.png" width="11px" height="12px" preserveAspectRatio="xMinYMin meet" x="154.5" y="-180.7"/>
<text text-anchor="start" x="169.5" y="-170.8" font-family="Helvetica,sans-Serif" font-size="11.00" fill="#000000">responsible_bo_partner_id</text>
<polygon fill="#ffffff" stroke="transparent" points="149.5,-141.7 149.5,-163.7 350.5,-163.7 350.5,-141.7 149.5,-141.7"/>
<polygon fill="none" stroke="#000000" points="149.5,-141.7 149.5,-163.7 350.5,-163.7 350.5,-141.7 149.5,-141.7"/>
<image xlink:href="../../images/foreignKeys.png" width="11px" height="12px" preserveAspectRatio="xMinYMin meet" x="154.5" y="-158.7"/>
<text text-anchor="start" x="169.5" y="-148.8" font-family="Helvetica,sans-Serif" font-size="11.00" fill="#000000">client_responsible_id</text>
<polygon fill="#ffffff" stroke="transparent" points="149.5,-119.7 149.5,-141.7 350.5,-141.7 350.5,-119.7 149.5,-119.7"/>
<polygon fill="none" stroke="#000000" points="149.5,-119.7 149.5,-141.7 350.5,-141.7 350.5,-119.7 149.5,-119.7"/>
<image xlink:href="../../images/foreignKeys.png" width="11px" height="12px" preserveAspectRatio="xMinYMin meet" x="154.5" y="-136.7"/>
<text text-anchor="start" x="169.5" y="-126.8" font-family="Helvetica,sans-Serif" font-size="11.00" fill="#000000">responsible_bo_team_id</text>
<polygon fill="#ffffff" stroke="transparent" points="149.5,-97.7 149.5,-119.7 350.5,-119.7 350.5,-97.7 149.5,-97.7"/>
<polygon fill="none" stroke="#000000" points="149.5,-97.7 149.5,-119.7 350.5,-119.7 350.5,-97.7 149.5,-97.7"/>
<image xlink:href="../../images/foreignKeys.png" width="11px" height="12px" preserveAspectRatio="xMinYMin meet" x="154.5" y="-114.7"/>
<text text-anchor="start" x="169.5" y="-104.8" font-family="Helvetica,sans-Serif" font-size="11.00" fill="#000000">responsible_co_team_id</text>
<polygon fill="#ffffff" stroke="transparent" points="149.5,-75.7 149.5,-97.7 350.5,-97.7 350.5,-75.7 149.5,-75.7"/>
<polygon fill="none" stroke="#000000" points="149.5,-75.7 149.5,-97.7 350.5,-97.7 350.5,-75.7 149.5,-75.7"/>
<image xlink:href="../../images/foreignKeys.png" width="11px" height="12px" preserveAspectRatio="xMinYMin meet" x="154.5" y="-92.7"/>
<text text-anchor="start" x="169.5" y="-82.8" font-family="Helvetica,sans-Serif" font-size="11.00" fill="#000000">avatar_id</text>
<polygon fill="none" stroke="#000000" points="149.5,-56.7 149.5,-75.7 350.5,-75.7 350.5,-56.7 149.5,-56.7"/>
<text text-anchor="start" x="152.5" y="-62.8" font-family="Helvetica,sans-Serif" font-size="11.00" fill="#000000">...</text>
<polygon fill="#ffffff" stroke="transparent" points="149.5,-37.7 149.5,-56.7 224.5,-56.7 224.5,-37.7 149.5,-37.7"/>
<polygon fill="none" stroke="#000000" points="149.5,-37.7 149.5,-56.7 224.5,-56.7 224.5,-37.7 149.5,-37.7"/>
<text text-anchor="start" x="152.5" y="-43.8" font-family="Helvetica,sans-Serif" font-size="11.00" fill="#000000">&lt; 9</text>
<polygon fill="#ffffff" stroke="transparent" points="224.5,-37.7 224.5,-56.7 301.5,-56.7 301.5,-37.7 224.5,-37.7"/>
<polygon fill="none" stroke="#000000" points="224.5,-37.7 224.5,-56.7 301.5,-56.7 301.5,-37.7 224.5,-37.7"/>
<text text-anchor="start" x="253.8807" y="-43.8" font-family="Helvetica,sans-Serif" font-size="11.00" fill="#000000">647 rows</text>
<polygon fill="#ffffff" stroke="transparent" points="301.5,-37.7 301.5,-56.7 350.5,-56.7 350.5,-37.7 301.5,-37.7"/>
<polygon fill="none" stroke="#000000" points="301.5,-37.7 301.5,-56.7 350.5,-56.7 350.5,-37.7 301.5,-37.7"/>
<text text-anchor="start" x="331.9053" y="-43.8" font-family="Helvetica,sans-Serif" font-size="11.00" fill="#000000">7 &gt;</text>
</a>
</g>
</g>
<!-- principal -->
<g id="node2" class="node">
<title>principal</title>
<g id="a_node2"><a xlink:href="../../tables/principal.html" xlink:title="principal" target="_top">
<polygon fill="#ffffff" stroke="transparent" points="8,-320.2 8,-425.2 100,-425.2 100,-320.2 8,-320.2"/>
<polygon fill="#f5f5f5" stroke="transparent" points="8,-401.7 8,-424.7 100,-424.7 100,-401.7 8,-401.7"/>
<polygon fill="none" stroke="#000000" points="8,-401.7 8,-424.7 100,-424.7 100,-401.7 8,-401.7"/>
<text text-anchor="start" x="13" y="-410.8" font-family="Helvetica,sans-Serif" font-weight="bold" font-size="11.00" fill="#000000">principal</text>
<text text-anchor="start" x="65.0437" y="-409.8" font-family="Helvetica,sans-Serif" font-size="11.00" fill="#000000">[table]</text>
<polygon fill="none" stroke="#000000" points="8,-379.7 8,-401.7 100,-401.7 100,-379.7 8,-379.7"/>
<image xlink:href="../../images/primaryKeys.png" width="11px" height="12px" preserveAspectRatio="xMinYMin meet" x="13" y="-396.7"/>
<text text-anchor="start" x="32" y="-386.8" font-family="Helvetica,sans-Serif" font-size="11.00" fill="#000000">id</text>
<polygon fill="#ffffff" stroke="transparent" points="8,-357.7 8,-379.7 100,-379.7 100,-357.7 8,-357.7"/>
<polygon fill="none" stroke="#000000" points="8,-357.7 8,-379.7 100,-379.7 100,-357.7 8,-357.7"/>
<image xlink:href="../../images/foreignKeys.png" width="11px" height="12px" preserveAspectRatio="xMinYMin meet" x="13" y="-374.7"/>
<text text-anchor="start" x="32" y="-364.8" font-family="Helvetica,sans-Serif" font-size="11.00" fill="#000000">eworker_id</text>
<polygon fill="none" stroke="#000000" points="8,-338.7 8,-357.7 100,-357.7 100,-338.7 8,-338.7"/>
<text text-anchor="start" x="11" y="-344.8" font-family="Helvetica,sans-Serif" font-size="11.00" fill="#000000">...</text>
<polygon fill="#ffffff" stroke="transparent" points="8,-319.7 8,-338.7 29,-338.7 29,-319.7 8,-319.7"/>
<polygon fill="none" stroke="#000000" points="8,-319.7 8,-338.7 29,-338.7 29,-319.7 8,-319.7"/>
<text text-anchor="start" x="10.7027" y="-325.8" font-family="Helvetica,sans-Serif" font-size="11.00" fill="#000000">&lt; 1</text>
<polygon fill="#ffffff" stroke="transparent" points="29,-319.7 29,-338.7 73,-338.7 73,-319.7 29,-319.7"/>
<polygon fill="none" stroke="#000000" points="29,-319.7 29,-338.7 73,-338.7 73,-319.7 29,-319.7"/>
<text text-anchor="start" x="31.7478" y="-325.8" font-family="Helvetica,sans-Serif" font-size="11.00" fill="#000000">18 rows</text>
<polygon fill="#ffffff" stroke="transparent" points="73,-319.7 73,-338.7 100,-338.7 100,-319.7 73,-319.7"/>
<polygon fill="none" stroke="#000000" points="73,-319.7 73,-338.7 100,-338.7 100,-319.7 73,-319.7"/>
<text text-anchor="start" x="75.6452" y="-325.8" font-family="Helvetica,sans-Serif" font-size="11.00" fill="#000000">56 &gt;</text>
</a>
</g>
</g>
<!-- client&#45;&gt;principal -->
<g id="edge1" class="edge">
<title>client:w&#45;&gt;principal:e</title>
<path fill="none" stroke="#000000" d="M135.6565,-355.2885C122.6245,-365.7952 122.3187,-390.7 100,-390.7"/>
<polygon fill="#000000" stroke="#000000" points="141.9063,-353.217 150.6327,-354.1172 145.7031,-351.9585 149.5,-350.7 149.5,-350.7 149.5,-350.7 145.7031,-351.9585 148.3673,-347.2828 141.9063,-353.217 141.9063,-353.217"/>
<ellipse fill="none" stroke="#000000" cx="138.8688" cy="-354.2238" rx="3.2" ry="3.2"/>
</g>
<!-- client&#45;&gt;principal -->
<g id="edge2" class="edge">
<title>client:w&#45;&gt;principal:e</title>
<path fill="none" stroke="#000000" d="M135.7351,-333.565C119.8028,-348.181 129.2002,-390.7 100,-390.7"/>
<polygon fill="#000000" stroke="#000000" points="141.9573,-331.3659 150.6997,-332.0942 145.7286,-330.033 149.5,-328.7 149.5,-328.7 149.5,-328.7 145.7286,-330.033 148.3003,-325.3058 141.9573,-331.3659 141.9573,-331.3659"/>
<ellipse fill="none" stroke="#000000" cx="138.9402" cy="-332.4323" rx="3.2" ry="3.2"/>
</g>
<!-- client_currency -->
<g id="node3" class="node">
<title>client_currency</title>
<g id="a_node3"><a xlink:href="../../tables/client_currency.html" xlink:title="client_currency" target="_top">
<polygon fill="#ffffff" stroke="transparent" points="399,-311.7 399,-533.7 592,-533.7 592,-311.7 399,-311.7"/>
<polygon fill="#f5f5f5" stroke="transparent" points="401.5,-508.7 401.5,-531.7 590.5,-531.7 590.5,-508.7 401.5,-508.7"/>
<polygon fill="none" stroke="#000000" points="401.5,-508.7 401.5,-531.7 590.5,-531.7 590.5,-508.7 401.5,-508.7"/>
<text text-anchor="start" x="406.5" y="-517.8" font-family="Helvetica,sans-Serif" font-weight="bold" font-size="11.00" fill="#000000">client_currency</text>
<text text-anchor="start" x="555.5437" y="-516.8" font-family="Helvetica,sans-Serif" font-size="11.00" fill="#000000">[table]</text>
<polygon fill="none" stroke="#000000" points="401.5,-486.7 401.5,-508.7 524.5,-508.7 524.5,-486.7 401.5,-486.7"/>
<image xlink:href="../../images/primaryKeys.png" width="11px" height="12px" preserveAspectRatio="xMinYMin meet" x="406.5" y="-503.7"/>
<text text-anchor="start" x="421.5" y="-493.8" font-family="Helvetica,sans-Serif" font-size="11.00" fill="#000000">id</text>
<polygon fill="none" stroke="#000000" points="524.5,-486.7 524.5,-508.7 590.5,-508.7 590.5,-486.7 524.5,-486.7"/>
<text text-anchor="start" x="527.5" y="-494.4" font-family="Helvetica,sans-Serif" font-size="11.00" fill="#000000">bigint[19]</text>
<polygon fill="#ffffff" stroke="transparent" points="401.5,-464.7 401.5,-486.7 524.5,-486.7 524.5,-464.7 401.5,-464.7"/>
<polygon fill="none" stroke="#000000" points="401.5,-464.7 401.5,-486.7 524.5,-486.7 524.5,-464.7 401.5,-464.7"/>
<image xlink:href="../../images/foreignKeys.png" width="11px" height="12px" preserveAspectRatio="xMinYMin meet" x="406.5" y="-481.7"/>
<text text-anchor="start" x="421.5" y="-471.8" font-family="Helvetica,sans-Serif" font-size="11.00" fill="#000000">created_by</text>
<polygon fill="none" stroke="#000000" points="524.5,-464.7 524.5,-486.7 590.5,-486.7 590.5,-464.7 524.5,-464.7"/>
<text text-anchor="start" x="527.5" y="-472.4" font-family="Helvetica,sans-Serif" font-size="11.00" fill="#000000">bigint[19]</text>
<polygon fill="none" stroke="#000000" points="401.5,-442.7 401.5,-464.7 524.5,-464.7 524.5,-442.7 401.5,-442.7"/>
<text text-anchor="start" x="421.5" y="-449.8" font-family="Helvetica,sans-Serif" font-size="11.00" fill="#000000">creation_date</text>
<polygon fill="none" stroke="#000000" points="524.5,-442.7 524.5,-464.7 590.5,-464.7 590.5,-442.7 524.5,-442.7"/>
<text text-anchor="start" x="527.2401" y="-450.4" font-family="Helvetica,sans-Serif" font-size="11.00" fill="#000000">datetime[26]</text>
<polygon fill="#ffffff" stroke="transparent" points="401.5,-420.7 401.5,-442.7 524.5,-442.7 524.5,-420.7 401.5,-420.7"/>
<polygon fill="none" stroke="#000000" points="401.5,-420.7 401.5,-442.7 524.5,-442.7 524.5,-420.7 401.5,-420.7"/>
<image xlink:href="../../images/foreignKeys.png" width="11px" height="12px" preserveAspectRatio="xMinYMin meet" x="406.5" y="-437.7"/>
<text text-anchor="start" x="421.5" y="-427.8" font-family="Helvetica,sans-Serif" font-size="11.00" fill="#000000">modified_by</text>
<polygon fill="none" stroke="#000000" points="524.5,-420.7 524.5,-442.7 590.5,-442.7 590.5,-420.7 524.5,-420.7"/>
<text text-anchor="start" x="527.5" y="-428.4" font-family="Helvetica,sans-Serif" font-size="11.00" fill="#000000">bigint[19]</text>
<polygon fill="none" stroke="#000000" points="401.5,-398.7 401.5,-420.7 524.5,-420.7 524.5,-398.7 401.5,-398.7"/>
<text text-anchor="start" x="421.5" y="-405.8" font-family="Helvetica,sans-Serif" font-size="11.00" fill="#000000">modification_date</text>
<polygon fill="none" stroke="#000000" points="524.5,-398.7 524.5,-420.7 590.5,-420.7 590.5,-398.7 524.5,-398.7"/>
<text text-anchor="start" x="527.2401" y="-406.4" font-family="Helvetica,sans-Serif" font-size="11.00" fill="#000000">datetime[26]</text>
<polygon fill="none" stroke="#000000" points="401.5,-376.7 401.5,-398.7 524.5,-398.7 524.5,-376.7 401.5,-376.7"/>
<text text-anchor="start" x="421.5" y="-383.8" font-family="Helvetica,sans-Serif" font-size="11.00" fill="#000000">currency</text>
<polygon fill="none" stroke="#000000" points="524.5,-376.7 524.5,-398.7 590.5,-398.7 590.5,-376.7 524.5,-376.7"/>
<text text-anchor="start" x="527.5" y="-384.4" font-family="Helvetica,sans-Serif" font-size="11.00" fill="#000000">varchar[10]</text>
<polygon fill="none" stroke="#000000" points="401.5,-354.7 401.5,-376.7 524.5,-376.7 524.5,-354.7 401.5,-354.7"/>
<text text-anchor="start" x="421.5" y="-361.8" font-family="Helvetica,sans-Serif" font-size="11.00" fill="#000000">is_default</text>
<polygon fill="none" stroke="#000000" points="524.5,-354.7 524.5,-376.7 590.5,-376.7 590.5,-354.7 524.5,-354.7"/>
<text text-anchor="start" x="527.5" y="-362.4" font-family="Helvetica,sans-Serif" font-size="11.00" fill="#000000">bit[1]</text>
<polygon fill="#ffffff" stroke="transparent" points="401.5,-332.7 401.5,-354.7 524.5,-354.7 524.5,-332.7 401.5,-332.7"/>
<polygon fill="none" stroke="#000000" points="401.5,-332.7 401.5,-354.7 524.5,-354.7 524.5,-332.7 401.5,-332.7"/>
<image xlink:href="../../images/foreignKeys.png" width="11px" height="12px" preserveAspectRatio="xMinYMin meet" x="406.5" y="-349.7"/>
<text text-anchor="start" x="421.5" y="-339.8" font-family="Helvetica,sans-Serif" font-size="11.00" fill="#000000">client_id</text>
<polygon fill="none" stroke="#000000" points="524.5,-332.7 524.5,-354.7 590.5,-354.7 590.5,-332.7 524.5,-332.7"/>
<text text-anchor="start" x="527.5" y="-340.4" font-family="Helvetica,sans-Serif" font-size="11.00" fill="#000000">bigint[19]</text>
<polygon fill="#ffffff" stroke="transparent" points="401.5,-313.7 401.5,-332.7 451.5,-332.7 451.5,-313.7 401.5,-313.7"/>
<polygon fill="none" stroke="#000000" points="401.5,-313.7 401.5,-332.7 451.5,-332.7 451.5,-313.7 401.5,-313.7"/>
<text text-anchor="start" x="404.5" y="-319.8" font-family="Helvetica,sans-Serif" font-size="11.00" fill="#000000">&lt; 3</text>
<polygon fill="#ffffff" stroke="transparent" points="451.5,-313.7 451.5,-332.7 524.5,-332.7 524.5,-313.7 451.5,-313.7"/>
<polygon fill="none" stroke="#000000" points="451.5,-313.7 451.5,-332.7 524.5,-332.7 524.5,-313.7 451.5,-313.7"/>
<text text-anchor="start" x="482.9956" y="-319.8" font-family="Helvetica,sans-Serif" font-size="11.00" fill="#000000">22 rows</text>
<polygon fill="#ffffff" stroke="transparent" points="524.5,-313.7 524.5,-332.7 590.5,-332.7 590.5,-313.7 524.5,-313.7"/>
<polygon fill="none" stroke="#000000" points="524.5,-313.7 524.5,-332.7 590.5,-332.7 590.5,-313.7 524.5,-313.7"/>
<text text-anchor="start" x="571.9053" y="-319.8" font-family="Helvetica,sans-Serif" font-size="11.00" fill="#000000">0 &gt;</text>
<polygon fill="none" stroke="#000000" stroke-width="2" points="400,-312.7 400,-532.7 591,-532.7 591,-312.7 400,-312.7"/>
</a>
</g>
</g>
<!-- client_currency&#45;&gt;client -->
<g id="edge3" class="edge">
<title>client_currency:w&#45;&gt;client:e</title>
<path fill="none" stroke="#000000" d="M387.3364,-347.4912C374.5486,-355.352 370.6673,-372.7 350.5,-372.7"/>
<polygon fill="#000000" stroke="#000000" points="393.7721,-345.7686 402.4309,-347.1776 397.636,-344.7343 401.5,-343.7 401.5,-343.7 401.5,-343.7 397.636,-344.7343 400.5691,-340.2224 393.7721,-345.7686 393.7721,-345.7686"/>
<ellipse fill="none" stroke="#000000" cx="390.6809" cy="-346.5961" rx="3.2" ry="3.2"/>
</g>
<!-- client_currency&#45;&gt;principal -->
<g id="edge4" class="edge">
<title>client_currency:w&#45;&gt;principal:e</title>
<path fill="none" stroke="#000000" d="M386.8527,-475.8202C281.0257,-477.5433 238.4285,-496.4186 141,-441.7 115.6424,-427.4585 129.0831,-390.7 100,-390.7"/>
<polygon fill="#000000" stroke="#000000" points="393.5003,-475.7657 401.5296,-479.2999 397.5001,-475.7328 401.5,-475.7 401.5,-475.7 401.5,-475.7 397.5001,-475.7328 401.4704,-472.1001 393.5003,-475.7657 393.5003,-475.7657"/>
<ellipse fill="none" stroke="#000000" cx="390.3004" cy="-475.7919" rx="3.2" ry="3.2"/>
</g>
<!-- client_currency&#45;&gt;principal -->
<g id="edge5" class="edge">
<title>client_currency:w&#45;&gt;principal:e</title>
<path fill="none" stroke="#000000" d="M386.993,-431.8169C282.457,-433.5045 246.3987,-452.3968 141,-417.7 120.2755,-410.8776 121.8186,-390.7 100,-390.7"/>
<polygon fill="#000000" stroke="#000000" points="393.5003,-431.7645 401.529,-435.2999 397.5001,-431.7322 401.5,-431.7 401.5,-431.7 401.5,-431.7 397.5001,-431.7322 401.471,-428.1001 393.5003,-431.7645 393.5003,-431.7645"/>
<ellipse fill="none" stroke="#000000" cx="390.3004" cy="-431.7903" rx="3.2" ry="3.2"/>
</g>
</g>
</svg>
