<?xml version="1.0" encoding="UTF-8" standalone="no"?>
<!DOCTYPE svg PUBLIC "-//W3C//DTD SVG 1.1//EN"
 "http://www.w3.org/Graphics/SVG/1.1/DTD/svg11.dtd">
<!-- Generated by graphviz version 2.40.1 (20161225.0304)
 -->
<!-- Title: oneDegreeRelationshipsDiagram Pages: 1 -->
<svg width="1017pt" height="746pt"
 viewBox="0.00 0.00 1017.00 745.61" xmlns="http://www.w3.org/2000/svg" xmlns:xlink="http://www.w3.org/1999/xlink">
<g id="graph0" class="graph" transform="scale(1 1) rotate(0) translate(4 741.6055)">
<title>oneDegreeRelationshipsDiagram</title>
<polygon fill="#ffffff" stroke="transparent" points="-4,4 -4,-741.6055 1013,-741.6055 1013,4 -4,4"/>
<text text-anchor="middle" x="72.4936" y="-7.3" font-family="Helvetica,sans-Serif" font-size="11.00" fill="#000000">Generated by SchemaSpy</text>
<!-- client -->
<g id="node1" class="node">
<title>client</title>
<g id="a_node1"><a xlink:href="../../tables/client.html" xlink:title="client" target="_top">
<polygon fill="#ffffff" stroke="transparent" points="321,-240.7 321,-609.7 522,-609.7 522,-240.7 321,-240.7"/>
<polygon fill="#f5f5f5" stroke="transparent" points="321.5,-586.2 321.5,-609.2 522.5,-609.2 522.5,-586.2 321.5,-586.2"/>
<polygon fill="none" stroke="#000000" points="321.5,-586.2 321.5,-609.2 522.5,-609.2 522.5,-586.2 321.5,-586.2"/>
<text text-anchor="start" x="326.5" y="-595.3" font-family="Helvetica,sans-Serif" font-weight="bold" font-size="11.00" fill="#000000">client</text>
<text text-anchor="start" x="487.5437" y="-594.3" font-family="Helvetica,sans-Serif" font-size="11.00" fill="#000000">[table]</text>
<polygon fill="none" stroke="#000000" points="321.5,-564.2 321.5,-586.2 522.5,-586.2 522.5,-564.2 321.5,-564.2"/>
<image xlink:href="../../images/primaryKeys.png" width="11px" height="12px" preserveAspectRatio="xMinYMin meet" x="326.5" y="-581.2"/>
<text text-anchor="start" x="341.5" y="-571.3" font-family="Helvetica,sans-Serif" font-size="11.00" fill="#000000">id</text>
<polygon fill="#ffffff" stroke="transparent" points="321.5,-542.2 321.5,-564.2 522.5,-564.2 522.5,-542.2 321.5,-542.2"/>
<polygon fill="none" stroke="#000000" points="321.5,-542.2 321.5,-564.2 522.5,-564.2 522.5,-542.2 321.5,-542.2"/>
<image xlink:href="../../images/foreignKeys.png" width="11px" height="12px" preserveAspectRatio="xMinYMin meet" x="326.5" y="-559.2"/>
<text text-anchor="start" x="341.5" y="-549.3" font-family="Helvetica,sans-Serif" font-size="11.00" fill="#000000">created_by</text>
<polygon fill="#ffffff" stroke="transparent" points="321.5,-520.2 321.5,-542.2 522.5,-542.2 522.5,-520.2 321.5,-520.2"/>
<polygon fill="none" stroke="#000000" points="321.5,-520.2 321.5,-542.2 522.5,-542.2 522.5,-520.2 321.5,-520.2"/>
<image xlink:href="../../images/foreignKeys.png" width="11px" height="12px" preserveAspectRatio="xMinYMin meet" x="326.5" y="-537.2"/>
<text text-anchor="start" x="341.5" y="-527.3" font-family="Helvetica,sans-Serif" font-size="11.00" fill="#000000">modified_by</text>
<polygon fill="#ffffff" stroke="transparent" points="321.5,-498.2 321.5,-520.2 522.5,-520.2 522.5,-498.2 321.5,-498.2"/>
<polygon fill="none" stroke="#000000" points="321.5,-498.2 321.5,-520.2 522.5,-520.2 522.5,-498.2 321.5,-498.2"/>
<text text-anchor="start" x="341.5" y="-505.3" font-family="Helvetica,sans-Serif" font-size="11.00" fill="#000000">marketplace_id</text>
<polygon fill="#ffffff" stroke="transparent" points="321.5,-476.2 321.5,-498.2 522.5,-498.2 522.5,-476.2 321.5,-476.2"/>
<polygon fill="none" stroke="#000000" points="321.5,-476.2 321.5,-498.2 522.5,-498.2 522.5,-476.2 321.5,-476.2"/>
<text text-anchor="start" x="341.5" y="-483.3" font-family="Helvetica,sans-Serif" font-size="11.00" fill="#000000">name</text>
<polygon fill="#ffffff" stroke="transparent" points="321.5,-454.2 321.5,-476.2 522.5,-476.2 522.5,-454.2 321.5,-454.2"/>
<polygon fill="none" stroke="#000000" points="321.5,-454.2 321.5,-476.2 522.5,-476.2 522.5,-454.2 321.5,-454.2"/>
<text text-anchor="start" x="341.5" y="-461.3" font-family="Helvetica,sans-Serif" font-size="11.00" fill="#000000">organizational_number</text>
<polygon fill="#ffffff" stroke="transparent" points="321.5,-432.2 321.5,-454.2 522.5,-454.2 522.5,-432.2 321.5,-432.2"/>
<polygon fill="none" stroke="#000000" points="321.5,-432.2 321.5,-454.2 522.5,-454.2 522.5,-432.2 321.5,-432.2"/>
<text text-anchor="start" x="341.5" y="-439.3" font-family="Helvetica,sans-Serif" font-size="11.00" fill="#000000">vat_number</text>
<polygon fill="#ffffff" stroke="transparent" points="321.5,-410.2 321.5,-432.2 522.5,-432.2 522.5,-410.2 321.5,-410.2"/>
<polygon fill="none" stroke="#000000" points="321.5,-410.2 321.5,-432.2 522.5,-432.2 522.5,-410.2 321.5,-410.2"/>
<image xlink:href="../../images/foreignKeys.png" width="11px" height="12px" preserveAspectRatio="xMinYMin meet" x="326.5" y="-427.2"/>
<text text-anchor="start" x="341.5" y="-417.3" font-family="Helvetica,sans-Serif" font-size="11.00" fill="#000000">client_group_id</text>
<polygon fill="#ffffff" stroke="transparent" points="321.5,-388.2 321.5,-410.2 522.5,-410.2 522.5,-388.2 321.5,-388.2"/>
<polygon fill="none" stroke="#000000" points="321.5,-388.2 321.5,-410.2 522.5,-410.2 522.5,-388.2 321.5,-388.2"/>
<image xlink:href="../../images/foreignKeys.png" width="11px" height="12px" preserveAspectRatio="xMinYMin meet" x="326.5" y="-405.2"/>
<text text-anchor="start" x="341.5" y="-395.3" font-family="Helvetica,sans-Serif" font-size="11.00" fill="#000000">client_operations_developer_id</text>
<polygon fill="#ffffff" stroke="transparent" points="321.5,-366.2 321.5,-388.2 522.5,-388.2 522.5,-366.2 321.5,-366.2"/>
<polygon fill="none" stroke="#000000" points="321.5,-366.2 321.5,-388.2 522.5,-388.2 522.5,-366.2 321.5,-366.2"/>
<image xlink:href="../../images/foreignKeys.png" width="11px" height="12px" preserveAspectRatio="xMinYMin meet" x="326.5" y="-383.2"/>
<text text-anchor="start" x="341.5" y="-373.3" font-family="Helvetica,sans-Serif" font-size="11.00" fill="#000000">responsible_bo_partner_id</text>
<polygon fill="#ffffff" stroke="transparent" points="321.5,-344.2 321.5,-366.2 522.5,-366.2 522.5,-344.2 321.5,-344.2"/>
<polygon fill="none" stroke="#000000" points="321.5,-344.2 321.5,-366.2 522.5,-366.2 522.5,-344.2 321.5,-344.2"/>
<image xlink:href="../../images/foreignKeys.png" width="11px" height="12px" preserveAspectRatio="xMinYMin meet" x="326.5" y="-361.2"/>
<text text-anchor="start" x="341.5" y="-351.3" font-family="Helvetica,sans-Serif" font-size="11.00" fill="#000000">client_responsible_id</text>
<polygon fill="#ffffff" stroke="transparent" points="321.5,-322.2 321.5,-344.2 522.5,-344.2 522.5,-322.2 321.5,-322.2"/>
<polygon fill="none" stroke="#000000" points="321.5,-322.2 321.5,-344.2 522.5,-344.2 522.5,-322.2 321.5,-322.2"/>
<image xlink:href="../../images/foreignKeys.png" width="11px" height="12px" preserveAspectRatio="xMinYMin meet" x="326.5" y="-339.2"/>
<text text-anchor="start" x="341.5" y="-329.3" font-family="Helvetica,sans-Serif" font-size="11.00" fill="#000000">responsible_bo_team_id</text>
<polygon fill="#ffffff" stroke="transparent" points="321.5,-300.2 321.5,-322.2 522.5,-322.2 522.5,-300.2 321.5,-300.2"/>
<polygon fill="none" stroke="#000000" points="321.5,-300.2 321.5,-322.2 522.5,-322.2 522.5,-300.2 321.5,-300.2"/>
<image xlink:href="../../images/foreignKeys.png" width="11px" height="12px" preserveAspectRatio="xMinYMin meet" x="326.5" y="-317.2"/>
<text text-anchor="start" x="341.5" y="-307.3" font-family="Helvetica,sans-Serif" font-size="11.00" fill="#000000">responsible_co_team_id</text>
<polygon fill="#ffffff" stroke="transparent" points="321.5,-278.2 321.5,-300.2 522.5,-300.2 522.5,-278.2 321.5,-278.2"/>
<polygon fill="none" stroke="#000000" points="321.5,-278.2 321.5,-300.2 522.5,-300.2 522.5,-278.2 321.5,-278.2"/>
<image xlink:href="../../images/foreignKeys.png" width="11px" height="12px" preserveAspectRatio="xMinYMin meet" x="326.5" y="-295.2"/>
<text text-anchor="start" x="341.5" y="-285.3" font-family="Helvetica,sans-Serif" font-size="11.00" fill="#000000">avatar_id</text>
<polygon fill="none" stroke="#000000" points="321.5,-259.2 321.5,-278.2 522.5,-278.2 522.5,-259.2 321.5,-259.2"/>
<text text-anchor="start" x="324.5" y="-265.3" font-family="Helvetica,sans-Serif" font-size="11.00" fill="#000000">...</text>
<polygon fill="#ffffff" stroke="transparent" points="321.5,-240.2 321.5,-259.2 396.5,-259.2 396.5,-240.2 321.5,-240.2"/>
<polygon fill="none" stroke="#000000" points="321.5,-240.2 321.5,-259.2 396.5,-259.2 396.5,-240.2 321.5,-240.2"/>
<text text-anchor="start" x="324.5" y="-246.3" font-family="Helvetica,sans-Serif" font-size="11.00" fill="#000000">&lt; 9</text>
<polygon fill="#ffffff" stroke="transparent" points="396.5,-240.2 396.5,-259.2 473.5,-259.2 473.5,-240.2 396.5,-240.2"/>
<polygon fill="none" stroke="#000000" points="396.5,-240.2 396.5,-259.2 473.5,-259.2 473.5,-240.2 396.5,-240.2"/>
<text text-anchor="start" x="425.8807" y="-246.3" font-family="Helvetica,sans-Serif" font-size="11.00" fill="#000000">647 rows</text>
<polygon fill="#ffffff" stroke="transparent" points="473.5,-240.2 473.5,-259.2 522.5,-259.2 522.5,-240.2 473.5,-240.2"/>
<polygon fill="none" stroke="#000000" points="473.5,-240.2 473.5,-259.2 522.5,-259.2 522.5,-240.2 473.5,-240.2"/>
<text text-anchor="start" x="503.9053" y="-246.3" font-family="Helvetica,sans-Serif" font-size="11.00" fill="#000000">7 &gt;</text>
</a>
</g>
</g>
<!-- file -->
<g id="node2" class="node">
<title>file</title>
<g id="a_node2"><a xlink:href="../../tables/file.html" xlink:title="file" target="_top">
<polygon fill="#ffffff" stroke="transparent" points="149,-186.7 149,-313.7 272,-313.7 272,-186.7 149,-186.7"/>
<polygon fill="#f5f5f5" stroke="transparent" points="149.5,-290.2 149.5,-313.2 272.5,-313.2 272.5,-290.2 149.5,-290.2"/>
<polygon fill="none" stroke="#000000" points="149.5,-290.2 149.5,-313.2 272.5,-313.2 272.5,-290.2 149.5,-290.2"/>
<text text-anchor="start" x="154.5" y="-299.3" font-family="Helvetica,sans-Serif" font-weight="bold" font-size="11.00" fill="#000000">file</text>
<text text-anchor="start" x="237.5437" y="-298.3" font-family="Helvetica,sans-Serif" font-size="11.00" fill="#000000">[table]</text>
<polygon fill="none" stroke="#000000" points="149.5,-268.2 149.5,-290.2 272.5,-290.2 272.5,-268.2 149.5,-268.2"/>
<image xlink:href="../../images/primaryKeys.png" width="11px" height="12px" preserveAspectRatio="xMinYMin meet" x="154.5" y="-285.2"/>
<text text-anchor="start" x="169.5" y="-275.3" font-family="Helvetica,sans-Serif" font-size="11.00" fill="#000000">id</text>
<polygon fill="#ffffff" stroke="transparent" points="149.5,-246.2 149.5,-268.2 272.5,-268.2 272.5,-246.2 149.5,-246.2"/>
<polygon fill="none" stroke="#000000" points="149.5,-246.2 149.5,-268.2 272.5,-268.2 272.5,-246.2 149.5,-246.2"/>
<image xlink:href="../../images/foreignKeys.png" width="11px" height="12px" preserveAspectRatio="xMinYMin meet" x="154.5" y="-263.2"/>
<text text-anchor="start" x="169.5" y="-253.3" font-family="Helvetica,sans-Serif" font-size="11.00" fill="#000000">created_by</text>
<polygon fill="#ffffff" stroke="transparent" points="149.5,-224.2 149.5,-246.2 272.5,-246.2 272.5,-224.2 149.5,-224.2"/>
<polygon fill="none" stroke="#000000" points="149.5,-224.2 149.5,-246.2 272.5,-246.2 272.5,-224.2 149.5,-224.2"/>
<image xlink:href="../../images/foreignKeys.png" width="11px" height="12px" preserveAspectRatio="xMinYMin meet" x="154.5" y="-241.2"/>
<text text-anchor="start" x="169.5" y="-231.3" font-family="Helvetica,sans-Serif" font-size="11.00" fill="#000000">modified_by</text>
<polygon fill="none" stroke="#000000" points="149.5,-205.2 149.5,-224.2 272.5,-224.2 272.5,-205.2 149.5,-205.2"/>
<text text-anchor="start" x="152.5" y="-211.3" font-family="Helvetica,sans-Serif" font-size="11.00" fill="#000000">...</text>
<polygon fill="#ffffff" stroke="transparent" points="149.5,-186.2 149.5,-205.2 182.5,-205.2 182.5,-186.2 149.5,-186.2"/>
<polygon fill="none" stroke="#000000" points="149.5,-186.2 149.5,-205.2 182.5,-205.2 182.5,-186.2 149.5,-186.2"/>
<text text-anchor="start" x="152.5" y="-192.3" font-family="Helvetica,sans-Serif" font-size="11.00" fill="#000000">&lt; 2</text>
<polygon fill="#ffffff" stroke="transparent" points="182.5,-186.2 182.5,-205.2 238.5,-205.2 238.5,-186.2 182.5,-186.2"/>
<polygon fill="none" stroke="#000000" points="182.5,-186.2 182.5,-205.2 238.5,-205.2 238.5,-186.2 182.5,-186.2"/>
<text text-anchor="start" x="190.8807" y="-192.3" font-family="Helvetica,sans-Serif" font-size="11.00" fill="#000000">590 rows</text>
<polygon fill="#ffffff" stroke="transparent" points="238.5,-186.2 238.5,-205.2 272.5,-205.2 272.5,-186.2 238.5,-186.2"/>
<polygon fill="none" stroke="#000000" points="238.5,-186.2 238.5,-205.2 272.5,-205.2 272.5,-186.2 238.5,-186.2"/>
<text text-anchor="start" x="247.7904" y="-192.3" font-family="Helvetica,sans-Serif" font-size="11.00" fill="#000000">13 &gt;</text>
</a>
</g>
</g>
<!-- client&#45;&gt;file -->
<g id="edge1" class="edge">
<title>client:w&#45;&gt;file:e</title>
<path fill="none" stroke="#000000" d="M306.8677,-287.4581C295.6105,-284.5931 288.8227,-279.2 272.5,-279.2"/>
<polygon fill="#000000" stroke="#000000" points="313.5561,-288.2543 321.0744,-292.7748 317.528,-288.7271 321.5,-289.2 321.5,-289.2 321.5,-289.2 317.528,-288.7271 321.9256,-285.6252 313.5561,-288.2543 313.5561,-288.2543"/>
<ellipse fill="none" stroke="#000000" cx="310.3785" cy="-287.876" rx="3.2" ry="3.2"/>
</g>
<!-- principal -->
<g id="node3" class="node">
<title>principal</title>
<g id="a_node3"><a xlink:href="../../tables/principal.html" xlink:title="principal" target="_top">
<polygon fill="#ffffff" stroke="transparent" points="8,-361.7 8,-466.7 100,-466.7 100,-361.7 8,-361.7"/>
<polygon fill="#f5f5f5" stroke="transparent" points="8,-443.2 8,-466.2 100,-466.2 100,-443.2 8,-443.2"/>
<polygon fill="none" stroke="#000000" points="8,-443.2 8,-466.2 100,-466.2 100,-443.2 8,-443.2"/>
<text text-anchor="start" x="13" y="-452.3" font-family="Helvetica,sans-Serif" font-weight="bold" font-size="11.00" fill="#000000">principal</text>
<text text-anchor="start" x="65.0437" y="-451.3" font-family="Helvetica,sans-Serif" font-size="11.00" fill="#000000">[table]</text>
<polygon fill="none" stroke="#000000" points="8,-421.2 8,-443.2 100,-443.2 100,-421.2 8,-421.2"/>
<image xlink:href="../../images/primaryKeys.png" width="11px" height="12px" preserveAspectRatio="xMinYMin meet" x="13" y="-438.2"/>
<text text-anchor="start" x="32" y="-428.3" font-family="Helvetica,sans-Serif" font-size="11.00" fill="#000000">id</text>
<polygon fill="#ffffff" stroke="transparent" points="8,-399.2 8,-421.2 100,-421.2 100,-399.2 8,-399.2"/>
<polygon fill="none" stroke="#000000" points="8,-399.2 8,-421.2 100,-421.2 100,-399.2 8,-399.2"/>
<image xlink:href="../../images/foreignKeys.png" width="11px" height="12px" preserveAspectRatio="xMinYMin meet" x="13" y="-416.2"/>
<text text-anchor="start" x="32" y="-406.3" font-family="Helvetica,sans-Serif" font-size="11.00" fill="#000000">eworker_id</text>
<polygon fill="none" stroke="#000000" points="8,-380.2 8,-399.2 100,-399.2 100,-380.2 8,-380.2"/>
<text text-anchor="start" x="11" y="-386.3" font-family="Helvetica,sans-Serif" font-size="11.00" fill="#000000">...</text>
<polygon fill="#ffffff" stroke="transparent" points="8,-361.2 8,-380.2 29,-380.2 29,-361.2 8,-361.2"/>
<polygon fill="none" stroke="#000000" points="8,-361.2 8,-380.2 29,-380.2 29,-361.2 8,-361.2"/>
<text text-anchor="start" x="10.7027" y="-367.3" font-family="Helvetica,sans-Serif" font-size="11.00" fill="#000000">&lt; 1</text>
<polygon fill="#ffffff" stroke="transparent" points="29,-361.2 29,-380.2 73,-380.2 73,-361.2 29,-361.2"/>
<polygon fill="none" stroke="#000000" points="29,-361.2 29,-380.2 73,-380.2 73,-361.2 29,-361.2"/>
<text text-anchor="start" x="31.7478" y="-367.3" font-family="Helvetica,sans-Serif" font-size="11.00" fill="#000000">18 rows</text>
<polygon fill="#ffffff" stroke="transparent" points="73,-361.2 73,-380.2 100,-380.2 100,-361.2 73,-361.2"/>
<polygon fill="none" stroke="#000000" points="73,-361.2 73,-380.2 100,-380.2 100,-361.2 73,-361.2"/>
<text text-anchor="start" x="75.6452" y="-367.3" font-family="Helvetica,sans-Serif" font-size="11.00" fill="#000000">56 &gt;</text>
</a>
</g>
</g>
<!-- client&#45;&gt;principal -->
<g id="edge2" class="edge">
<title>client:w&#45;&gt;principal:e</title>
<path fill="none" stroke="#000000" d="M307.0421,-552.8311C230.3882,-548.7651 211.6951,-511.5869 141,-466.2 121.0794,-453.4108 123.6727,-432.2 100,-432.2"/>
<polygon fill="#000000" stroke="#000000" points="313.5026,-552.9959 321.4082,-556.7988 317.5013,-553.0979 321.5,-553.2 321.5,-553.2 321.5,-553.2 317.5013,-553.0979 321.5918,-549.6012 313.5026,-552.9959 313.5026,-552.9959"/>
<ellipse fill="none" stroke="#000000" cx="310.3036" cy="-552.9143" rx="3.2" ry="3.2"/>
</g>
<!-- client&#45;&gt;principal -->
<g id="edge3" class="edge">
<title>client:w&#45;&gt;principal:e</title>
<path fill="none" stroke="#000000" d="M307.4892,-526.9192C293.5776,-515.2292 302.8298,-482.6113 280,-467.2 212.4518,-421.6016 181.4983,-432.2 100,-432.2"/>
<polygon fill="#000000" stroke="#000000" points="313.8492,-528.8623 320.448,-534.6429 317.6746,-530.0312 321.5,-531.2 321.5,-531.2 321.5,-531.2 317.6746,-530.0312 322.552,-527.7571 313.8492,-528.8623 313.8492,-528.8623"/>
<ellipse fill="none" stroke="#000000" cx="310.7888" cy="-527.9273" rx="3.2" ry="3.2"/>
</g>
<!-- file&#45;&gt;principal -->
<g id="edge8" class="edge">
<title>file:w&#45;&gt;principal:e</title>
<path fill="none" stroke="#000000" d="M135.1782,-259.6739C83.4889,-280.9442 175.146,-432.2 100,-432.2"/>
<polygon fill="#000000" stroke="#000000" points="141.6167,-258.5617 150.1128,-260.7475 145.5584,-257.8809 149.5,-257.2 149.5,-257.2 149.5,-257.2 145.5584,-257.8809 148.8872,-253.6525 141.6167,-258.5617 141.6167,-258.5617"/>
<ellipse fill="none" stroke="#000000" cx="138.4634" cy="-259.1064" rx="3.2" ry="3.2"/>
</g>
<!-- file&#45;&gt;principal -->
<g id="edge9" class="edge">
<title>file:w&#45;&gt;principal:e</title>
<path fill="none" stroke="#000000" d="M135.0587,-237.4124C74.74,-259.0555 184.6349,-432.2 100,-432.2"/>
<polygon fill="#000000" stroke="#000000" points="141.5923,-236.4115 150.0452,-238.7585 145.5461,-235.8058 149.5,-235.2 149.5,-235.2 149.5,-235.2 145.5461,-235.8058 148.9548,-231.6415 141.5923,-236.4115 141.5923,-236.4115"/>
<ellipse fill="none" stroke="#000000" cx="138.4292" cy="-236.8961" rx="3.2" ry="3.2"/>
</g>
<!-- client_contact -->
<g id="node4" class="node">
<title>client_contact</title>
<g id="a_node4"><a xlink:href="../../tables/client_contact.html" xlink:title="client_contact" target="_top">
<polygon fill="#ffffff" stroke="transparent" points="571,-38.2 571,-436.2 786,-436.2 786,-38.2 571,-38.2"/>
<polygon fill="#f5f5f5" stroke="transparent" points="573.5,-411.2 573.5,-434.2 784.5,-434.2 784.5,-411.2 573.5,-411.2"/>
<polygon fill="none" stroke="#000000" points="573.5,-411.2 573.5,-434.2 784.5,-434.2 784.5,-411.2 573.5,-411.2"/>
<text text-anchor="start" x="578.5" y="-420.3" font-family="Helvetica,sans-Serif" font-weight="bold" font-size="11.00" fill="#000000">client_contact</text>
<text text-anchor="start" x="749.5437" y="-419.3" font-family="Helvetica,sans-Serif" font-size="11.00" fill="#000000">[table]</text>
<polygon fill="none" stroke="#000000" points="573.5,-389.2 573.5,-411.2 717.5,-411.2 717.5,-389.2 573.5,-389.2"/>
<image xlink:href="../../images/primaryKeys.png" width="11px" height="12px" preserveAspectRatio="xMinYMin meet" x="578.5" y="-406.2"/>
<text text-anchor="start" x="593.5" y="-396.3" font-family="Helvetica,sans-Serif" font-size="11.00" fill="#000000">id</text>
<polygon fill="none" stroke="#000000" points="717.5,-389.2 717.5,-411.2 784.5,-411.2 784.5,-389.2 717.5,-389.2"/>
<text text-anchor="start" x="720.5" y="-396.9" font-family="Helvetica,sans-Serif" font-size="11.00" fill="#000000">bigint[19]</text>
<polygon fill="#ffffff" stroke="transparent" points="573.5,-367.2 573.5,-389.2 717.5,-389.2 717.5,-367.2 573.5,-367.2"/>
<polygon fill="none" stroke="#000000" points="573.5,-367.2 573.5,-389.2 717.5,-389.2 717.5,-367.2 573.5,-367.2"/>
<image xlink:href="../../images/foreignKeys.png" width="11px" height="12px" preserveAspectRatio="xMinYMin meet" x="578.5" y="-384.2"/>
<text text-anchor="start" x="593.5" y="-374.3" font-family="Helvetica,sans-Serif" font-size="11.00" fill="#000000">created_by</text>
<polygon fill="none" stroke="#000000" points="717.5,-367.2 717.5,-389.2 784.5,-389.2 784.5,-367.2 717.5,-367.2"/>
<text text-anchor="start" x="720.5" y="-374.9" font-family="Helvetica,sans-Serif" font-size="11.00" fill="#000000">bigint[19]</text>
<polygon fill="none" stroke="#000000" points="573.5,-345.2 573.5,-367.2 717.5,-367.2 717.5,-345.2 573.5,-345.2"/>
<text text-anchor="start" x="593.5" y="-352.3" font-family="Helvetica,sans-Serif" font-size="11.00" fill="#000000">creation_date</text>
<polygon fill="none" stroke="#000000" points="717.5,-345.2 717.5,-367.2 784.5,-367.2 784.5,-345.2 717.5,-345.2"/>
<text text-anchor="start" x="720.5" y="-352.9" font-family="Helvetica,sans-Serif" font-size="11.00" fill="#000000">datetime[26]</text>
<polygon fill="#ffffff" stroke="transparent" points="573.5,-323.2 573.5,-345.2 717.5,-345.2 717.5,-323.2 573.5,-323.2"/>
<polygon fill="none" stroke="#000000" points="573.5,-323.2 573.5,-345.2 717.5,-345.2 717.5,-323.2 573.5,-323.2"/>
<image xlink:href="../../images/foreignKeys.png" width="11px" height="12px" preserveAspectRatio="xMinYMin meet" x="578.5" y="-340.2"/>
<text text-anchor="start" x="593.5" y="-330.3" font-family="Helvetica,sans-Serif" font-size="11.00" fill="#000000">modified_by</text>
<polygon fill="none" stroke="#000000" points="717.5,-323.2 717.5,-345.2 784.5,-345.2 784.5,-323.2 717.5,-323.2"/>
<text text-anchor="start" x="720.5" y="-330.9" font-family="Helvetica,sans-Serif" font-size="11.00" fill="#000000">bigint[19]</text>
<polygon fill="none" stroke="#000000" points="573.5,-301.2 573.5,-323.2 717.5,-323.2 717.5,-301.2 573.5,-301.2"/>
<text text-anchor="start" x="593.5" y="-308.3" font-family="Helvetica,sans-Serif" font-size="11.00" fill="#000000">modification_date</text>
<polygon fill="none" stroke="#000000" points="717.5,-301.2 717.5,-323.2 784.5,-323.2 784.5,-301.2 717.5,-301.2"/>
<text text-anchor="start" x="720.5" y="-308.9" font-family="Helvetica,sans-Serif" font-size="11.00" fill="#000000">datetime[26]</text>
<polygon fill="#ffffff" stroke="transparent" points="573.5,-279.2 573.5,-301.2 717.5,-301.2 717.5,-279.2 573.5,-279.2"/>
<polygon fill="none" stroke="#000000" points="573.5,-279.2 573.5,-301.2 717.5,-301.2 717.5,-279.2 573.5,-279.2"/>
<text text-anchor="start" x="593.5" y="-286.3" font-family="Helvetica,sans-Serif" font-size="11.00" fill="#000000">email</text>
<polygon fill="none" stroke="#000000" points="717.5,-279.2 717.5,-301.2 784.5,-301.2 784.5,-279.2 717.5,-279.2"/>
<text text-anchor="start" x="720.4365" y="-286.9" font-family="Helvetica,sans-Serif" font-size="11.00" fill="#000000">varchar[100]</text>
<polygon fill="none" stroke="#000000" points="573.5,-257.2 573.5,-279.2 717.5,-279.2 717.5,-257.2 573.5,-257.2"/>
<text text-anchor="start" x="593.5" y="-264.3" font-family="Helvetica,sans-Serif" font-size="11.00" fill="#000000">first_name</text>
<polygon fill="none" stroke="#000000" points="717.5,-257.2 717.5,-279.2 784.5,-279.2 784.5,-257.2 717.5,-257.2"/>
<text text-anchor="start" x="720.4365" y="-264.9" font-family="Helvetica,sans-Serif" font-size="11.00" fill="#000000">varchar[100]</text>
<polygon fill="none" stroke="#000000" points="573.5,-235.2 573.5,-257.2 717.5,-257.2 717.5,-235.2 573.5,-235.2"/>
<text text-anchor="start" x="593.5" y="-242.3" font-family="Helvetica,sans-Serif" font-size="11.00" fill="#000000">last_name</text>
<polygon fill="none" stroke="#000000" points="717.5,-235.2 717.5,-257.2 784.5,-257.2 784.5,-235.2 717.5,-235.2"/>
<text text-anchor="start" x="720.4365" y="-242.9" font-family="Helvetica,sans-Serif" font-size="11.00" fill="#000000">varchar[100]</text>
<polygon fill="none" stroke="#000000" points="573.5,-213.2 573.5,-235.2 717.5,-235.2 717.5,-213.2 573.5,-213.2"/>
<text text-anchor="start" x="593.5" y="-220.3" font-family="Helvetica,sans-Serif" font-size="11.00" fill="#000000">role</text>
<polygon fill="none" stroke="#000000" points="717.5,-213.2 717.5,-235.2 784.5,-235.2 784.5,-213.2 717.5,-213.2"/>
<text text-anchor="start" x="720.4365" y="-220.9" font-family="Helvetica,sans-Serif" font-size="11.00" fill="#000000">varchar[255]</text>
<polygon fill="none" stroke="#000000" points="573.5,-191.2 573.5,-213.2 717.5,-213.2 717.5,-191.2 573.5,-191.2"/>
<text text-anchor="start" x="593.5" y="-198.3" font-family="Helvetica,sans-Serif" font-size="11.00" fill="#000000">phone_number</text>
<polygon fill="none" stroke="#000000" points="717.5,-191.2 717.5,-213.2 784.5,-213.2 784.5,-191.2 717.5,-191.2"/>
<text text-anchor="start" x="720.5" y="-198.9" font-family="Helvetica,sans-Serif" font-size="11.00" fill="#000000">varchar[50]</text>
<polygon fill="none" stroke="#000000" points="573.5,-169.2 573.5,-191.2 717.5,-191.2 717.5,-169.2 573.5,-169.2"/>
<text text-anchor="start" x="593.5" y="-176.3" font-family="Helvetica,sans-Serif" font-size="11.00" fill="#000000">phone_code</text>
<polygon fill="none" stroke="#000000" points="717.5,-169.2 717.5,-191.2 784.5,-191.2 784.5,-169.2 717.5,-169.2"/>
<text text-anchor="start" x="720.5" y="-176.9" font-family="Helvetica,sans-Serif" font-size="11.00" fill="#000000">varchar[2]</text>
<polygon fill="none" stroke="#000000" points="573.5,-147.2 573.5,-169.2 717.5,-169.2 717.5,-147.2 573.5,-147.2"/>
<text text-anchor="start" x="593.5" y="-154.3" font-family="Helvetica,sans-Serif" font-size="11.00" fill="#000000">other_phone_number</text>
<polygon fill="none" stroke="#000000" points="717.5,-147.2 717.5,-169.2 784.5,-169.2 784.5,-147.2 717.5,-147.2"/>
<text text-anchor="start" x="720.5" y="-154.9" font-family="Helvetica,sans-Serif" font-size="11.00" fill="#000000">varchar[50]</text>
<polygon fill="none" stroke="#000000" points="573.5,-125.2 573.5,-147.2 717.5,-147.2 717.5,-125.2 573.5,-125.2"/>
<text text-anchor="start" x="593.5" y="-132.3" font-family="Helvetica,sans-Serif" font-size="11.00" fill="#000000">other_phone_code</text>
<polygon fill="none" stroke="#000000" points="717.5,-125.2 717.5,-147.2 784.5,-147.2 784.5,-125.2 717.5,-125.2"/>
<text text-anchor="start" x="720.5" y="-132.9" font-family="Helvetica,sans-Serif" font-size="11.00" fill="#000000">varchar[2]</text>
<polygon fill="#ffffff" stroke="transparent" points="573.5,-103.2 573.5,-125.2 717.5,-125.2 717.5,-103.2 573.5,-103.2"/>
<polygon fill="none" stroke="#000000" points="573.5,-103.2 573.5,-125.2 717.5,-125.2 717.5,-103.2 573.5,-103.2"/>
<image xlink:href="../../images/foreignKeys.png" width="11px" height="12px" preserveAspectRatio="xMinYMin meet" x="578.5" y="-120.2"/>
<text text-anchor="start" x="593.5" y="-110.3" font-family="Helvetica,sans-Serif" font-size="11.00" fill="#000000">client_id</text>
<polygon fill="none" stroke="#000000" points="717.5,-103.2 717.5,-125.2 784.5,-125.2 784.5,-103.2 717.5,-103.2"/>
<text text-anchor="start" x="720.5" y="-110.9" font-family="Helvetica,sans-Serif" font-size="11.00" fill="#000000">bigint[19]</text>
<polygon fill="none" stroke="#000000" points="573.5,-81.2 573.5,-103.2 717.5,-103.2 717.5,-81.2 573.5,-81.2"/>
<text text-anchor="start" x="593.5" y="-88.3" font-family="Helvetica,sans-Serif" font-size="11.00" fill="#000000">pb_id</text>
<polygon fill="none" stroke="#000000" points="717.5,-81.2 717.5,-103.2 784.5,-103.2 784.5,-81.2 717.5,-81.2"/>
<text text-anchor="start" x="720.5" y="-88.9" font-family="Helvetica,sans-Serif" font-size="11.00" fill="#000000">bigint[19]</text>
<polygon fill="#ffffff" stroke="transparent" points="573.5,-59.2 573.5,-81.2 717.5,-81.2 717.5,-59.2 573.5,-59.2"/>
<polygon fill="none" stroke="#000000" points="573.5,-59.2 573.5,-81.2 717.5,-81.2 717.5,-59.2 573.5,-59.2"/>
<image xlink:href="../../images/foreignKeys.png" width="11px" height="12px" preserveAspectRatio="xMinYMin meet" x="578.5" y="-76.2"/>
<text text-anchor="start" x="593.5" y="-66.3" font-family="Helvetica,sans-Serif" font-size="11.00" fill="#000000">avatar_id</text>
<polygon fill="none" stroke="#000000" points="717.5,-59.2 717.5,-81.2 784.5,-81.2 784.5,-59.2 717.5,-59.2"/>
<text text-anchor="start" x="720.5" y="-66.9" font-family="Helvetica,sans-Serif" font-size="11.00" fill="#000000">bigint[19]</text>
<polygon fill="#ffffff" stroke="transparent" points="573.5,-40.2 573.5,-59.2 630.5,-59.2 630.5,-40.2 573.5,-40.2"/>
<polygon fill="none" stroke="#000000" points="573.5,-40.2 573.5,-59.2 630.5,-59.2 630.5,-40.2 573.5,-40.2"/>
<text text-anchor="start" x="576.5" y="-46.3" font-family="Helvetica,sans-Serif" font-size="11.00" fill="#000000">&lt; 4</text>
<polygon fill="#ffffff" stroke="transparent" points="630.5,-40.2 630.5,-59.2 717.5,-59.2 717.5,-40.2 630.5,-40.2"/>
<polygon fill="none" stroke="#000000" points="630.5,-40.2 630.5,-59.2 717.5,-59.2 717.5,-40.2 630.5,-40.2"/>
<text text-anchor="start" x="669.8807" y="-46.3" font-family="Helvetica,sans-Serif" font-size="11.00" fill="#000000">561 rows</text>
<polygon fill="#ffffff" stroke="transparent" points="717.5,-40.2 717.5,-59.2 784.5,-59.2 784.5,-40.2 717.5,-40.2"/>
<polygon fill="none" stroke="#000000" points="717.5,-40.2 717.5,-59.2 784.5,-59.2 784.5,-40.2 717.5,-40.2"/>
<text text-anchor="start" x="765.9053" y="-46.3" font-family="Helvetica,sans-Serif" font-size="11.00" fill="#000000">2 &gt;</text>
<polygon fill="none" stroke="#000000" stroke-width="2" points="572,-39.2 572,-435.2 785,-435.2 785,-39.2 572,-39.2"/>
</a>
</g>
</g>
<!-- client_contact&#45;&gt;client -->
<g id="edge5" class="edge">
<title>client_contact:w&#45;&gt;client:e</title>
<path fill="none" stroke="#000000" d="M559.2725,-117.9108C486.0748,-161.5391 620.1341,-575.2 522.5,-575.2"/>
<polygon fill="#000000" stroke="#000000" points="565.759,-116.219 574.4086,-117.6835 569.6295,-115.2095 573.5,-114.2 573.5,-114.2 573.5,-114.2 569.6295,-115.2095 572.5914,-110.7165 565.759,-116.219 565.759,-116.219"/>
<ellipse fill="none" stroke="#000000" cx="562.6625" cy="-117.0267" rx="3.2" ry="3.2"/>
</g>
<!-- client_contact&#45;&gt;file -->
<g id="edge4" class="edge">
<title>client_contact:w&#45;&gt;file:e</title>
<path fill="none" stroke="#000000" d="M559.076,-73.341C534.0783,-87.4832 564.0261,-145.7076 530,-172.2 452.9729,-232.1726 393.0234,-150.2881 313,-206.2 282.5853,-227.4506 309.6031,-279.2 272.5,-279.2"/>
<polygon fill="#000000" stroke="#000000" points="565.6832,-71.9022 574.266,-73.7176 569.5916,-71.0511 573.5,-70.2 573.5,-70.2 573.5,-70.2 569.5916,-71.0511 572.734,-66.6824 565.6832,-71.9022 565.6832,-71.9022"/>
<ellipse fill="none" stroke="#000000" cx="562.5565" cy="-72.5831" rx="3.2" ry="3.2"/>
</g>
<!-- client_contact&#45;&gt;principal -->
<g id="edge6" class="edge">
<title>client_contact:w&#45;&gt;principal:e</title>
<path fill="none" stroke="#000000" d="M559.2007,-376.0399C517.418,-360.705 580.2808,-267.8292 530,-230.2 491.3922,-201.3067 352.3424,-202.3153 313,-230.2 276.8759,-255.8036 307.9788,-289.8827 280,-324.2 250.5235,-360.3543 146.6476,-432.2 100,-432.2"/>
<polygon fill="#000000" stroke="#000000" points="565.5897,-377.005 572.9622,-381.7596 569.5449,-377.6025 573.5,-378.2 573.5,-378.2 573.5,-378.2 569.5449,-377.6025 574.0378,-374.6404 565.5897,-377.005 565.5897,-377.005"/>
<ellipse fill="none" stroke="#000000" cx="562.4256" cy="-376.527" rx="3.2" ry="3.2"/>
</g>
<!-- client_contact&#45;&gt;principal -->
<g id="edge7" class="edge">
<title>client_contact:w&#45;&gt;principal:e</title>
<path fill="none" stroke="#000000" d="M558.9746,-332.1662C512.4535,-316.5171 584.2537,-214.7405 530,-173.2 392.7242,-68.0919 271.5835,-62.885 141,-176.2 97.4854,-213.9602 157.6139,-432.2 100,-432.2"/>
<polygon fill="#000000" stroke="#000000" points="565.5773,-333.0906 573.0008,-337.7652 569.5386,-333.6453 573.5,-334.2 573.5,-334.2 573.5,-334.2 569.5386,-333.6453 573.9992,-330.6348 565.5773,-333.0906 565.5773,-333.0906"/>
<ellipse fill="none" stroke="#000000" cx="562.4082" cy="-332.6469" rx="3.2" ry="3.2"/>
</g>
<!-- job_request -->
<g id="node5" class="node">
<title>job_request</title>
<g id="a_node5"><a xlink:href="../../tables/job_request.html" xlink:title="job_request" target="_top">
<polygon fill="#ffffff" stroke="transparent" points="835,-392.7 835,-717.7 1001,-717.7 1001,-392.7 835,-392.7"/>
<polygon fill="#f5f5f5" stroke="transparent" points="835,-694.2 835,-717.2 1001,-717.2 1001,-694.2 835,-694.2"/>
<polygon fill="none" stroke="#000000" points="835,-694.2 835,-717.2 1001,-717.2 1001,-694.2 835,-694.2"/>
<text text-anchor="start" x="840" y="-703.3" font-family="Helvetica,sans-Serif" font-weight="bold" font-size="11.00" fill="#000000">job_request</text>
<text text-anchor="start" x="966.0437" y="-702.3" font-family="Helvetica,sans-Serif" font-size="11.00" fill="#000000">[table]</text>
<polygon fill="none" stroke="#000000" points="835,-672.2 835,-694.2 1001,-694.2 1001,-672.2 835,-672.2"/>
<image xlink:href="../../images/primaryKeys.png" width="11px" height="12px" preserveAspectRatio="xMinYMin meet" x="840" y="-689.2"/>
<text text-anchor="start" x="855" y="-679.3" font-family="Helvetica,sans-Serif" font-size="11.00" fill="#000000">id</text>
<polygon fill="#ffffff" stroke="transparent" points="835,-650.2 835,-672.2 1001,-672.2 1001,-650.2 835,-650.2"/>
<polygon fill="none" stroke="#000000" points="835,-650.2 835,-672.2 1001,-672.2 1001,-650.2 835,-650.2"/>
<image xlink:href="../../images/foreignKeys.png" width="11px" height="12px" preserveAspectRatio="xMinYMin meet" x="840" y="-667.2"/>
<text text-anchor="start" x="855" y="-657.3" font-family="Helvetica,sans-Serif" font-size="11.00" fill="#000000">created_by</text>
<polygon fill="#ffffff" stroke="transparent" points="835,-628.2 835,-650.2 1001,-650.2 1001,-628.2 835,-628.2"/>
<polygon fill="none" stroke="#000000" points="835,-628.2 835,-650.2 1001,-650.2 1001,-628.2 835,-628.2"/>
<image xlink:href="../../images/foreignKeys.png" width="11px" height="12px" preserveAspectRatio="xMinYMin meet" x="840" y="-645.2"/>
<text text-anchor="start" x="855" y="-635.3" font-family="Helvetica,sans-Serif" font-size="11.00" fill="#000000">modified_by</text>
<polygon fill="#ffffff" stroke="transparent" points="835,-606.2 835,-628.2 1001,-628.2 1001,-606.2 835,-606.2"/>
<polygon fill="none" stroke="#000000" points="835,-606.2 835,-628.2 1001,-628.2 1001,-606.2 835,-606.2"/>
<image xlink:href="../../images/foreignKeys.png" width="11px" height="12px" preserveAspectRatio="xMinYMin meet" x="840" y="-623.2"/>
<text text-anchor="start" x="855" y="-613.3" font-family="Helvetica,sans-Serif" font-size="11.00" fill="#000000">location_id</text>
<polygon fill="#ffffff" stroke="transparent" points="835,-584.2 835,-606.2 1001,-606.2 1001,-584.2 835,-584.2"/>
<polygon fill="none" stroke="#000000" points="835,-584.2 835,-606.2 1001,-606.2 1001,-584.2 835,-584.2"/>
<image xlink:href="../../images/foreignKeys.png" width="11px" height="12px" preserveAspectRatio="xMinYMin meet" x="840" y="-601.2"/>
<text text-anchor="start" x="855" y="-591.3" font-family="Helvetica,sans-Serif" font-size="11.00" fill="#000000">rate_card_id</text>
<polygon fill="#ffffff" stroke="transparent" points="835,-562.2 835,-584.2 1001,-584.2 1001,-562.2 835,-562.2"/>
<polygon fill="none" stroke="#000000" points="835,-562.2 835,-584.2 1001,-584.2 1001,-562.2 835,-562.2"/>
<image xlink:href="../../images/foreignKeys.png" width="11px" height="12px" preserveAspectRatio="xMinYMin meet" x="840" y="-579.2"/>
<text text-anchor="start" x="855" y="-569.3" font-family="Helvetica,sans-Serif" font-size="11.00" fill="#000000">source_job_request_id</text>
<polygon fill="#ffffff" stroke="transparent" points="835,-540.2 835,-562.2 1001,-562.2 1001,-540.2 835,-540.2"/>
<polygon fill="none" stroke="#000000" points="835,-540.2 835,-562.2 1001,-562.2 1001,-540.2 835,-540.2"/>
<image xlink:href="../../images/foreignKeys.png" width="11px" height="12px" preserveAspectRatio="xMinYMin meet" x="840" y="-557.2"/>
<text text-anchor="start" x="855" y="-547.3" font-family="Helvetica,sans-Serif" font-size="11.00" fill="#000000">eworker_id</text>
<polygon fill="#ffffff" stroke="transparent" points="835,-518.2 835,-540.2 1001,-540.2 1001,-518.2 835,-518.2"/>
<polygon fill="none" stroke="#000000" points="835,-518.2 835,-540.2 1001,-540.2 1001,-518.2 835,-518.2"/>
<image xlink:href="../../images/foreignKeys.png" width="11px" height="12px" preserveAspectRatio="xMinYMin meet" x="840" y="-535.2"/>
<text text-anchor="start" x="855" y="-525.3" font-family="Helvetica,sans-Serif" font-size="11.00" fill="#000000">unit_id</text>
<polygon fill="#ffffff" stroke="transparent" points="835,-496.2 835,-518.2 1001,-518.2 1001,-496.2 835,-496.2"/>
<polygon fill="none" stroke="#000000" points="835,-496.2 835,-518.2 1001,-518.2 1001,-496.2 835,-496.2"/>
<image xlink:href="../../images/foreignKeys.png" width="11px" height="12px" preserveAspectRatio="xMinYMin meet" x="840" y="-513.2"/>
<text text-anchor="start" x="855" y="-503.3" font-family="Helvetica,sans-Serif" font-size="11.00" fill="#000000">closed_eworker_id</text>
<polygon fill="#ffffff" stroke="transparent" points="835,-474.2 835,-496.2 1001,-496.2 1001,-474.2 835,-474.2"/>
<polygon fill="none" stroke="#000000" points="835,-474.2 835,-496.2 1001,-496.2 1001,-474.2 835,-474.2"/>
<image xlink:href="../../images/foreignKeys.png" width="11px" height="12px" preserveAspectRatio="xMinYMin meet" x="840" y="-491.2"/>
<text text-anchor="start" x="855" y="-481.3" font-family="Helvetica,sans-Serif" font-size="11.00" fill="#000000">client_contact_id</text>
<polygon fill="#ffffff" stroke="transparent" points="835,-452.2 835,-474.2 1001,-474.2 1001,-452.2 835,-452.2"/>
<polygon fill="none" stroke="#000000" points="835,-452.2 835,-474.2 1001,-474.2 1001,-452.2 835,-452.2"/>
<image xlink:href="../../images/foreignKeys.png" width="11px" height="12px" preserveAspectRatio="xMinYMin meet" x="840" y="-469.2"/>
<text text-anchor="start" x="855" y="-459.3" font-family="Helvetica,sans-Serif" font-size="11.00" fill="#000000">client_id</text>
<polygon fill="#ffffff" stroke="transparent" points="835,-430.2 835,-452.2 1001,-452.2 1001,-430.2 835,-430.2"/>
<polygon fill="none" stroke="#000000" points="835,-430.2 835,-452.2 1001,-452.2 1001,-430.2 835,-430.2"/>
<image xlink:href="../../images/foreignKeys.png" width="11px" height="12px" preserveAspectRatio="xMinYMin meet" x="840" y="-447.2"/>
<text text-anchor="start" x="855" y="-437.3" font-family="Helvetica,sans-Serif" font-size="11.00" fill="#000000">role_id</text>
<polygon fill="none" stroke="#000000" points="835,-411.2 835,-430.2 1001,-430.2 1001,-411.2 835,-411.2"/>
<text text-anchor="start" x="838" y="-417.3" font-family="Helvetica,sans-Serif" font-size="11.00" fill="#000000">...</text>
<polygon fill="#ffffff" stroke="transparent" points="835,-392.2 835,-411.2 896,-411.2 896,-392.2 835,-392.2"/>
<polygon fill="none" stroke="#000000" points="835,-392.2 835,-411.2 896,-411.2 896,-392.2 835,-392.2"/>
<text text-anchor="start" x="838" y="-398.3" font-family="Helvetica,sans-Serif" font-size="11.00" fill="#000000">&lt; 11</text>
<polygon fill="#ffffff" stroke="transparent" points="896,-392.2 896,-411.2 963,-411.2 963,-392.2 896,-392.2"/>
<polygon fill="none" stroke="#000000" points="896,-392.2 896,-411.2 963,-411.2 963,-392.2 896,-392.2"/>
<text text-anchor="start" x="915.3807" y="-398.3" font-family="Helvetica,sans-Serif" font-size="11.00" fill="#000000">254 rows</text>
<polygon fill="#ffffff" stroke="transparent" points="963,-392.2 963,-411.2 1001,-411.2 1001,-392.2 963,-392.2"/>
<polygon fill="none" stroke="#000000" points="963,-392.2 963,-411.2 1001,-411.2 1001,-392.2 963,-392.2"/>
<text text-anchor="start" x="982.4053" y="-398.3" font-family="Helvetica,sans-Serif" font-size="11.00" fill="#000000">7 &gt;</text>
</a>
</g>
</g>
<!-- job_request&#45;&gt;client -->
<g id="edge11" class="edge">
<title>job_request:w&#45;&gt;client:e</title>
<path fill="none" stroke="#000000" d="M820.3171,-463.5836C686.1175,-470.7254 664.9968,-575.2 522.5,-575.2"/>
<polygon fill="#000000" stroke="#000000" points="827.0027,-463.409 835.094,-466.7988 831.0014,-463.3045 835,-463.2 835,-463.2 835,-463.2 831.0014,-463.3045 834.906,-459.6012 827.0027,-463.409 827.0027,-463.409"/>
<ellipse fill="none" stroke="#000000" cx="823.8038" cy="-463.4926" rx="3.2" ry="3.2"/>
</g>
<!-- job_request&#45;&gt;principal -->
<g id="edge12" class="edge">
<title>job_request:w&#45;&gt;principal:e</title>
<path fill="none" stroke="#000000" d="M820.2079,-661.3396C521.6099,-666.9747 372.7636,-840.2551 141,-644.2 67.7311,-582.2198 195.9681,-432.2 100,-432.2"/>
<polygon fill="#000000" stroke="#000000" points="827.0004,-661.2756 835.034,-664.7998 831.0002,-661.2378 835,-661.2 835,-661.2 835,-661.2 831.0002,-661.2378 834.966,-657.6002 827.0004,-661.2756 827.0004,-661.2756"/>
<ellipse fill="none" stroke="#000000" cx="823.8005" cy="-661.3058" rx="3.2" ry="3.2"/>
</g>
<!-- job_request&#45;&gt;principal -->
<g id="edge13" class="edge">
<title>job_request:w&#45;&gt;principal:e</title>
<path fill="none" stroke="#000000" d="M820.5922,-639.2606C599.9538,-641.1211 530.9203,-684.7495 313,-620.2 227.5661,-594.8939 201.1029,-582.9799 141,-517.2 112.7081,-486.2358 141.9429,-432.2 100,-432.2"/>
<polygon fill="#000000" stroke="#000000" points="827.0001,-639.2337 835.0152,-642.8 831,-639.2168 835,-639.2 835,-639.2 835,-639.2 831,-639.2168 834.9848,-635.6 827.0001,-639.2337 827.0001,-639.2337"/>
<ellipse fill="none" stroke="#000000" cx="823.8001" cy="-639.2472" rx="3.2" ry="3.2"/>
</g>
<!-- job_request&#45;&gt;client_contact -->
<g id="edge10" class="edge">
<title>job_request:w&#45;&gt;client_contact:e</title>
<path fill="none" stroke="#000000" d="M821.1216,-480.868C799.76,-463.5466 822.4344,-400.2 784.5,-400.2"/>
<polygon fill="#000000" stroke="#000000" points="827.3634,-482.8163 833.9273,-488.6365 831.1817,-484.0081 835,-485.2 835,-485.2 835,-485.2 831.1817,-484.0081 836.0727,-481.7635 827.3634,-482.8163 827.3634,-482.8163"/>
<ellipse fill="none" stroke="#000000" cx="824.3087" cy="-481.8628" rx="3.2" ry="3.2"/>
</g>
<!-- presentation_recipient -->
<g id="node6" class="node">
<title>presentation_recipient</title>
<g id="a_node6"><a xlink:href="../../tables/presentation_recipient.html" xlink:title="presentation_recipient" target="_top">
<polygon fill="#ffffff" stroke="transparent" points="842.5,-285.2 842.5,-371.2 993.5,-371.2 993.5,-285.2 842.5,-285.2"/>
<polygon fill="#f5f5f5" stroke="transparent" points="843,-348.2 843,-371.2 994,-371.2 994,-348.2 843,-348.2"/>
<polygon fill="none" stroke="#000000" points="843,-348.2 843,-371.2 994,-371.2 994,-348.2 843,-348.2"/>
<text text-anchor="start" x="847.902" y="-357.3" font-family="Helvetica,sans-Serif" font-weight="bold" font-size="11.00" fill="#000000">presentation_recipient</text>
<text text-anchor="start" x="959.5219" y="-356.3" font-family="Helvetica,sans-Serif" font-size="11.00" fill="#000000">[table]</text>
<polygon fill="#ffffff" stroke="transparent" points="843,-326.2 843,-348.2 994,-348.2 994,-326.2 843,-326.2"/>
<polygon fill="none" stroke="#000000" points="843,-326.2 843,-348.2 994,-348.2 994,-326.2 843,-326.2"/>
<image xlink:href="../../images/foreignKeys.png" width="11px" height="12px" preserveAspectRatio="xMinYMin meet" x="848" y="-343.2"/>
<text text-anchor="start" x="864" y="-333.3" font-family="Helvetica,sans-Serif" font-size="11.00" fill="#000000">presentation_id</text>
<polygon fill="#ffffff" stroke="transparent" points="843,-304.2 843,-326.2 994,-326.2 994,-304.2 843,-304.2"/>
<polygon fill="none" stroke="#000000" points="843,-304.2 843,-326.2 994,-326.2 994,-304.2 843,-304.2"/>
<image xlink:href="../../images/foreignKeys.png" width="11px" height="12px" preserveAspectRatio="xMinYMin meet" x="848" y="-321.2"/>
<text text-anchor="start" x="864" y="-311.3" font-family="Helvetica,sans-Serif" font-size="11.00" fill="#000000">recipient_id</text>
<polygon fill="#ffffff" stroke="transparent" points="843,-285.2 843,-304.2 901,-304.2 901,-285.2 843,-285.2"/>
<polygon fill="none" stroke="#000000" points="843,-285.2 843,-304.2 901,-304.2 901,-285.2 843,-285.2"/>
<text text-anchor="start" x="846" y="-291.3" font-family="Helvetica,sans-Serif" font-size="11.00" fill="#000000">&lt; 2</text>
<polygon fill="#ffffff" stroke="transparent" points="901,-285.2 901,-304.2 963,-304.2 963,-285.2 901,-285.2"/>
<polygon fill="none" stroke="#000000" points="901,-285.2 901,-304.2 963,-304.2 963,-285.2 901,-285.2"/>
<text text-anchor="start" x="921.4956" y="-291.3" font-family="Helvetica,sans-Serif" font-size="11.00" fill="#000000">16 rows</text>
<polygon fill="#ffffff" stroke="transparent" points="963,-285.2 963,-304.2 994,-304.2 994,-285.2 963,-285.2"/>
<polygon fill="none" stroke="#000000" points="963,-285.2 963,-304.2 994,-304.2 994,-285.2 963,-285.2"/>
<text text-anchor="start" x="984.8862" y="-291.3" font-family="Helvetica,sans-Serif" font-size="11.00" fill="#000000"> &#160;</text>
</a>
</g>
</g>
<!-- presentation_recipient&#45;&gt;client_contact -->
<g id="edge14" class="edge">
<title>presentation_recipient:w&#45;&gt;client_contact:e</title>
<path fill="none" stroke="#000000" d="M828.8684,-319.0731C804.3904,-335.7016 824.4486,-400.2 784.5,-400.2"/>
<polygon fill="#000000" stroke="#000000" points="835.2845,-317.3147 843.9516,-318.672 839.1423,-316.2573 843,-315.2 843,-315.2 843,-315.2 839.1423,-316.2573 842.0484,-311.728 835.2845,-317.3147 835.2845,-317.3147"/>
<ellipse fill="none" stroke="#000000" cx="832.1984" cy="-318.1605" rx="3.2" ry="3.2"/>
</g>
</g>
</svg>
