<?xml version="1.0" encoding="UTF-8" standalone="no"?>
<!DOCTYPE svg PUBLIC "-//W3C//DTD SVG 1.1//EN"
 "http://www.w3.org/Graphics/SVG/1.1/DTD/svg11.dtd">
<!-- Generated by graphviz version 2.40.1 (20161225.0304)
 -->
<!-- Title: oneDegreeRelationshipsDiagram Pages: 1 -->
<svg width="870pt" height="946pt"
 viewBox="0.00 0.00 870.00 946.20" xmlns="http://www.w3.org/2000/svg" xmlns:xlink="http://www.w3.org/1999/xlink">
<g id="graph0" class="graph" transform="scale(1 1) rotate(0) translate(4 942.2)">
<title>oneDegreeRelationshipsDiagram</title>
<polygon fill="#ffffff" stroke="transparent" points="-4,4 -4,-942.2 866,-942.2 866,4 -4,4"/>
<text text-anchor="middle" x="72.4936" y="-7.3" font-family="Helvetica,sans-Serif" font-size="11.00" fill="#000000">Generated by SchemaSpy</text>
<!-- client_unit -->
<g id="node1" class="node">
<title>client_unit</title>
<g id="a_node1"><a xlink:href="../../tables/client_unit.html" xlink:title="client_unit" target="_top">
<polygon fill="#ffffff" stroke="transparent" points="258,-260.7 258,-570.7 492,-570.7 492,-260.7 258,-260.7"/>
<polygon fill="#f5f5f5" stroke="transparent" points="260,-545.7 260,-568.7 490,-568.7 490,-545.7 260,-545.7"/>
<polygon fill="none" stroke="#000000" points="260,-545.7 260,-568.7 490,-568.7 490,-545.7 260,-545.7"/>
<text text-anchor="start" x="265" y="-554.8" font-family="Helvetica,sans-Serif" font-weight="bold" font-size="11.00" fill="#000000">client_unit</text>
<text text-anchor="start" x="455.0437" y="-553.8" font-family="Helvetica,sans-Serif" font-size="11.00" fill="#000000">[table]</text>
<polygon fill="none" stroke="#000000" points="260,-523.7 260,-545.7 423,-545.7 423,-523.7 260,-523.7"/>
<image xlink:href="../../images/primaryKeys.png" width="11px" height="12px" preserveAspectRatio="xMinYMin meet" x="265" y="-540.7"/>
<text text-anchor="start" x="280" y="-530.8" font-family="Helvetica,sans-Serif" font-size="11.00" fill="#000000">id</text>
<polygon fill="none" stroke="#000000" points="423,-523.7 423,-545.7 490,-545.7 490,-523.7 423,-523.7"/>
<text text-anchor="start" x="426" y="-531.4" font-family="Helvetica,sans-Serif" font-size="11.00" fill="#000000">bigint[19]</text>
<polygon fill="none" stroke="#000000" points="260,-501.7 260,-523.7 423,-523.7 423,-501.7 260,-501.7"/>
<text text-anchor="start" x="280" y="-508.8" font-family="Helvetica,sans-Serif" font-size="11.00" fill="#000000">created_by</text>
<polygon fill="none" stroke="#000000" points="423,-501.7 423,-523.7 490,-523.7 490,-501.7 423,-501.7"/>
<text text-anchor="start" x="426" y="-509.4" font-family="Helvetica,sans-Serif" font-size="11.00" fill="#000000">bigint[19]</text>
<polygon fill="none" stroke="#000000" points="260,-479.7 260,-501.7 423,-501.7 423,-479.7 260,-479.7"/>
<text text-anchor="start" x="280" y="-486.8" font-family="Helvetica,sans-Serif" font-size="11.00" fill="#000000">creation_date</text>
<polygon fill="none" stroke="#000000" points="423,-479.7 423,-501.7 490,-501.7 490,-479.7 423,-479.7"/>
<text text-anchor="start" x="426" y="-487.4" font-family="Helvetica,sans-Serif" font-size="11.00" fill="#000000">datetime[26]</text>
<polygon fill="none" stroke="#000000" points="260,-457.7 260,-479.7 423,-479.7 423,-457.7 260,-457.7"/>
<text text-anchor="start" x="280" y="-464.8" font-family="Helvetica,sans-Serif" font-size="11.00" fill="#000000">modified_by</text>
<polygon fill="none" stroke="#000000" points="423,-457.7 423,-479.7 490,-479.7 490,-457.7 423,-457.7"/>
<text text-anchor="start" x="426" y="-465.4" font-family="Helvetica,sans-Serif" font-size="11.00" fill="#000000">bigint[19]</text>
<polygon fill="none" stroke="#000000" points="260,-435.7 260,-457.7 423,-457.7 423,-435.7 260,-435.7"/>
<text text-anchor="start" x="280" y="-442.8" font-family="Helvetica,sans-Serif" font-size="11.00" fill="#000000">modification_date</text>
<polygon fill="none" stroke="#000000" points="423,-435.7 423,-457.7 490,-457.7 490,-435.7 423,-435.7"/>
<text text-anchor="start" x="426" y="-443.4" font-family="Helvetica,sans-Serif" font-size="11.00" fill="#000000">datetime[26]</text>
<polygon fill="#ffffff" stroke="transparent" points="260,-413.7 260,-435.7 423,-435.7 423,-413.7 260,-413.7"/>
<polygon fill="none" stroke="#000000" points="260,-413.7 260,-435.7 423,-435.7 423,-413.7 260,-413.7"/>
<text text-anchor="start" x="280" y="-420.8" font-family="Helvetica,sans-Serif" font-size="11.00" fill="#000000">name</text>
<polygon fill="none" stroke="#000000" points="423,-413.7 423,-435.7 490,-435.7 490,-413.7 423,-413.7"/>
<text text-anchor="start" x="425.9365" y="-421.4" font-family="Helvetica,sans-Serif" font-size="11.00" fill="#000000">varchar[255]</text>
<polygon fill="#ffffff" stroke="transparent" points="260,-391.7 260,-413.7 423,-413.7 423,-391.7 260,-391.7"/>
<polygon fill="none" stroke="#000000" points="260,-391.7 260,-413.7 423,-413.7 423,-391.7 260,-391.7"/>
<text text-anchor="start" x="280" y="-398.8" font-family="Helvetica,sans-Serif" font-size="11.00" fill="#000000">vat_number</text>
<polygon fill="none" stroke="#000000" points="423,-391.7 423,-413.7 490,-413.7 490,-391.7 423,-391.7"/>
<text text-anchor="start" x="426" y="-399.4" font-family="Helvetica,sans-Serif" font-size="11.00" fill="#000000">varchar[25]</text>
<polygon fill="none" stroke="#000000" points="260,-369.7 260,-391.7 423,-391.7 423,-369.7 260,-369.7"/>
<text text-anchor="start" x="280" y="-376.8" font-family="Helvetica,sans-Serif" font-size="11.00" fill="#000000">root</text>
<polygon fill="none" stroke="#000000" points="423,-369.7 423,-391.7 490,-391.7 490,-369.7 423,-369.7"/>
<text text-anchor="start" x="426" y="-377.4" font-family="Helvetica,sans-Serif" font-size="11.00" fill="#000000">bit[1]</text>
<polygon fill="#ffffff" stroke="transparent" points="260,-347.7 260,-369.7 423,-369.7 423,-347.7 260,-347.7"/>
<polygon fill="none" stroke="#000000" points="260,-347.7 260,-369.7 423,-369.7 423,-347.7 260,-347.7"/>
<image xlink:href="../../images/foreignKeys.png" width="11px" height="12px" preserveAspectRatio="xMinYMin meet" x="265" y="-364.7"/>
<text text-anchor="start" x="280" y="-354.8" font-family="Helvetica,sans-Serif" font-size="11.00" fill="#000000">client_id</text>
<polygon fill="none" stroke="#000000" points="423,-347.7 423,-369.7 490,-369.7 490,-347.7 423,-347.7"/>
<text text-anchor="start" x="426" y="-355.4" font-family="Helvetica,sans-Serif" font-size="11.00" fill="#000000">bigint[19]</text>
<polygon fill="none" stroke="#000000" points="260,-325.7 260,-347.7 423,-347.7 423,-325.7 260,-325.7"/>
<text text-anchor="start" x="280" y="-332.8" font-family="Helvetica,sans-Serif" font-size="11.00" fill="#000000">status</text>
<polygon fill="none" stroke="#000000" points="423,-325.7 423,-347.7 490,-347.7 490,-325.7 423,-325.7"/>
<text text-anchor="start" x="425.9365" y="-333.4" font-family="Helvetica,sans-Serif" font-size="11.00" fill="#000000">varchar[255]</text>
<polygon fill="none" stroke="#000000" points="260,-303.7 260,-325.7 423,-325.7 423,-303.7 260,-303.7"/>
<text text-anchor="start" x="280" y="-310.8" font-family="Helvetica,sans-Serif" font-size="11.00" fill="#000000">system_id</text>
<polygon fill="none" stroke="#000000" points="423,-303.7 423,-325.7 490,-325.7 490,-303.7 423,-303.7"/>
<text text-anchor="start" x="425.9365" y="-311.4" font-family="Helvetica,sans-Serif" font-size="11.00" fill="#000000">varchar[255]</text>
<polygon fill="#ffffff" stroke="transparent" points="260,-281.7 260,-303.7 423,-303.7 423,-281.7 260,-281.7"/>
<polygon fill="none" stroke="#000000" points="260,-281.7 260,-303.7 423,-303.7 423,-281.7 260,-281.7"/>
<image xlink:href="../../images/foreignKeys.png" width="11px" height="12px" preserveAspectRatio="xMinYMin meet" x="265" y="-298.7"/>
<text text-anchor="start" x="280" y="-288.8" font-family="Helvetica,sans-Serif" font-size="11.00" fill="#000000">time_report_schedule_id</text>
<polygon fill="none" stroke="#000000" points="423,-281.7 423,-303.7 490,-303.7 490,-281.7 423,-281.7"/>
<text text-anchor="start" x="426" y="-289.4" font-family="Helvetica,sans-Serif" font-size="11.00" fill="#000000">bigint[19]</text>
<polygon fill="#ffffff" stroke="transparent" points="260,-262.7 260,-281.7 327,-281.7 327,-262.7 260,-262.7"/>
<polygon fill="none" stroke="#000000" points="260,-262.7 260,-281.7 327,-281.7 327,-262.7 260,-262.7"/>
<text text-anchor="start" x="263" y="-268.8" font-family="Helvetica,sans-Serif" font-size="11.00" fill="#000000">&lt; 2</text>
<polygon fill="#ffffff" stroke="transparent" points="327,-262.7 327,-281.7 423,-281.7 423,-262.7 327,-262.7"/>
<polygon fill="none" stroke="#000000" points="327,-262.7 327,-281.7 423,-281.7 423,-262.7 327,-262.7"/>
<text text-anchor="start" x="375.3807" y="-268.8" font-family="Helvetica,sans-Serif" font-size="11.00" fill="#000000">117 rows</text>
<polygon fill="#ffffff" stroke="transparent" points="423,-262.7 423,-281.7 490,-281.7 490,-262.7 423,-262.7"/>
<polygon fill="none" stroke="#000000" points="423,-262.7 423,-281.7 490,-281.7 490,-262.7 423,-262.7"/>
<text text-anchor="start" x="471.4053" y="-268.8" font-family="Helvetica,sans-Serif" font-size="11.00" fill="#000000">4 &gt;</text>
<polygon fill="none" stroke="#000000" stroke-width="2" points="259,-261.7 259,-569.7 491,-569.7 491,-261.7 259,-261.7"/>
</a>
</g>
</g>
<!-- client -->
<g id="node2" class="node">
<title>client</title>
<g id="a_node2"><a xlink:href="../../tables/client.html" xlink:title="client" target="_top">
<polygon fill="#ffffff" stroke="transparent" points="8,-186.2 8,-555.2 209,-555.2 209,-186.2 8,-186.2"/>
<polygon fill="#f5f5f5" stroke="transparent" points="8.5,-531.7 8.5,-554.7 209.5,-554.7 209.5,-531.7 8.5,-531.7"/>
<polygon fill="none" stroke="#000000" points="8.5,-531.7 8.5,-554.7 209.5,-554.7 209.5,-531.7 8.5,-531.7"/>
<text text-anchor="start" x="13.5" y="-540.8" font-family="Helvetica,sans-Serif" font-weight="bold" font-size="11.00" fill="#000000">client</text>
<text text-anchor="start" x="174.5437" y="-539.8" font-family="Helvetica,sans-Serif" font-size="11.00" fill="#000000">[table]</text>
<polygon fill="none" stroke="#000000" points="8.5,-509.7 8.5,-531.7 209.5,-531.7 209.5,-509.7 8.5,-509.7"/>
<image xlink:href="../../images/primaryKeys.png" width="11px" height="12px" preserveAspectRatio="xMinYMin meet" x="13.5" y="-526.7"/>
<text text-anchor="start" x="28.5" y="-516.8" font-family="Helvetica,sans-Serif" font-size="11.00" fill="#000000">id</text>
<polygon fill="#ffffff" stroke="transparent" points="8.5,-487.7 8.5,-509.7 209.5,-509.7 209.5,-487.7 8.5,-487.7"/>
<polygon fill="none" stroke="#000000" points="8.5,-487.7 8.5,-509.7 209.5,-509.7 209.5,-487.7 8.5,-487.7"/>
<image xlink:href="../../images/foreignKeys.png" width="11px" height="12px" preserveAspectRatio="xMinYMin meet" x="13.5" y="-504.7"/>
<text text-anchor="start" x="28.5" y="-494.8" font-family="Helvetica,sans-Serif" font-size="11.00" fill="#000000">created_by</text>
<polygon fill="#ffffff" stroke="transparent" points="8.5,-465.7 8.5,-487.7 209.5,-487.7 209.5,-465.7 8.5,-465.7"/>
<polygon fill="none" stroke="#000000" points="8.5,-465.7 8.5,-487.7 209.5,-487.7 209.5,-465.7 8.5,-465.7"/>
<image xlink:href="../../images/foreignKeys.png" width="11px" height="12px" preserveAspectRatio="xMinYMin meet" x="13.5" y="-482.7"/>
<text text-anchor="start" x="28.5" y="-472.8" font-family="Helvetica,sans-Serif" font-size="11.00" fill="#000000">modified_by</text>
<polygon fill="#ffffff" stroke="transparent" points="8.5,-443.7 8.5,-465.7 209.5,-465.7 209.5,-443.7 8.5,-443.7"/>
<polygon fill="none" stroke="#000000" points="8.5,-443.7 8.5,-465.7 209.5,-465.7 209.5,-443.7 8.5,-443.7"/>
<text text-anchor="start" x="28.5" y="-450.8" font-family="Helvetica,sans-Serif" font-size="11.00" fill="#000000">marketplace_id</text>
<polygon fill="#ffffff" stroke="transparent" points="8.5,-421.7 8.5,-443.7 209.5,-443.7 209.5,-421.7 8.5,-421.7"/>
<polygon fill="none" stroke="#000000" points="8.5,-421.7 8.5,-443.7 209.5,-443.7 209.5,-421.7 8.5,-421.7"/>
<text text-anchor="start" x="28.5" y="-428.8" font-family="Helvetica,sans-Serif" font-size="11.00" fill="#000000">name</text>
<polygon fill="#ffffff" stroke="transparent" points="8.5,-399.7 8.5,-421.7 209.5,-421.7 209.5,-399.7 8.5,-399.7"/>
<polygon fill="none" stroke="#000000" points="8.5,-399.7 8.5,-421.7 209.5,-421.7 209.5,-399.7 8.5,-399.7"/>
<text text-anchor="start" x="28.5" y="-406.8" font-family="Helvetica,sans-Serif" font-size="11.00" fill="#000000">organizational_number</text>
<polygon fill="#ffffff" stroke="transparent" points="8.5,-377.7 8.5,-399.7 209.5,-399.7 209.5,-377.7 8.5,-377.7"/>
<polygon fill="none" stroke="#000000" points="8.5,-377.7 8.5,-399.7 209.5,-399.7 209.5,-377.7 8.5,-377.7"/>
<text text-anchor="start" x="28.5" y="-384.8" font-family="Helvetica,sans-Serif" font-size="11.00" fill="#000000">vat_number</text>
<polygon fill="#ffffff" stroke="transparent" points="8.5,-355.7 8.5,-377.7 209.5,-377.7 209.5,-355.7 8.5,-355.7"/>
<polygon fill="none" stroke="#000000" points="8.5,-355.7 8.5,-377.7 209.5,-377.7 209.5,-355.7 8.5,-355.7"/>
<image xlink:href="../../images/foreignKeys.png" width="11px" height="12px" preserveAspectRatio="xMinYMin meet" x="13.5" y="-372.7"/>
<text text-anchor="start" x="28.5" y="-362.8" font-family="Helvetica,sans-Serif" font-size="11.00" fill="#000000">client_group_id</text>
<polygon fill="#ffffff" stroke="transparent" points="8.5,-333.7 8.5,-355.7 209.5,-355.7 209.5,-333.7 8.5,-333.7"/>
<polygon fill="none" stroke="#000000" points="8.5,-333.7 8.5,-355.7 209.5,-355.7 209.5,-333.7 8.5,-333.7"/>
<image xlink:href="../../images/foreignKeys.png" width="11px" height="12px" preserveAspectRatio="xMinYMin meet" x="13.5" y="-350.7"/>
<text text-anchor="start" x="28.5" y="-340.8" font-family="Helvetica,sans-Serif" font-size="11.00" fill="#000000">client_operations_developer_id</text>
<polygon fill="#ffffff" stroke="transparent" points="8.5,-311.7 8.5,-333.7 209.5,-333.7 209.5,-311.7 8.5,-311.7"/>
<polygon fill="none" stroke="#000000" points="8.5,-311.7 8.5,-333.7 209.5,-333.7 209.5,-311.7 8.5,-311.7"/>
<image xlink:href="../../images/foreignKeys.png" width="11px" height="12px" preserveAspectRatio="xMinYMin meet" x="13.5" y="-328.7"/>
<text text-anchor="start" x="28.5" y="-318.8" font-family="Helvetica,sans-Serif" font-size="11.00" fill="#000000">responsible_bo_partner_id</text>
<polygon fill="#ffffff" stroke="transparent" points="8.5,-289.7 8.5,-311.7 209.5,-311.7 209.5,-289.7 8.5,-289.7"/>
<polygon fill="none" stroke="#000000" points="8.5,-289.7 8.5,-311.7 209.5,-311.7 209.5,-289.7 8.5,-289.7"/>
<image xlink:href="../../images/foreignKeys.png" width="11px" height="12px" preserveAspectRatio="xMinYMin meet" x="13.5" y="-306.7"/>
<text text-anchor="start" x="28.5" y="-296.8" font-family="Helvetica,sans-Serif" font-size="11.00" fill="#000000">client_responsible_id</text>
<polygon fill="#ffffff" stroke="transparent" points="8.5,-267.7 8.5,-289.7 209.5,-289.7 209.5,-267.7 8.5,-267.7"/>
<polygon fill="none" stroke="#000000" points="8.5,-267.7 8.5,-289.7 209.5,-289.7 209.5,-267.7 8.5,-267.7"/>
<image xlink:href="../../images/foreignKeys.png" width="11px" height="12px" preserveAspectRatio="xMinYMin meet" x="13.5" y="-284.7"/>
<text text-anchor="start" x="28.5" y="-274.8" font-family="Helvetica,sans-Serif" font-size="11.00" fill="#000000">responsible_bo_team_id</text>
<polygon fill="#ffffff" stroke="transparent" points="8.5,-245.7 8.5,-267.7 209.5,-267.7 209.5,-245.7 8.5,-245.7"/>
<polygon fill="none" stroke="#000000" points="8.5,-245.7 8.5,-267.7 209.5,-267.7 209.5,-245.7 8.5,-245.7"/>
<image xlink:href="../../images/foreignKeys.png" width="11px" height="12px" preserveAspectRatio="xMinYMin meet" x="13.5" y="-262.7"/>
<text text-anchor="start" x="28.5" y="-252.8" font-family="Helvetica,sans-Serif" font-size="11.00" fill="#000000">responsible_co_team_id</text>
<polygon fill="#ffffff" stroke="transparent" points="8.5,-223.7 8.5,-245.7 209.5,-245.7 209.5,-223.7 8.5,-223.7"/>
<polygon fill="none" stroke="#000000" points="8.5,-223.7 8.5,-245.7 209.5,-245.7 209.5,-223.7 8.5,-223.7"/>
<image xlink:href="../../images/foreignKeys.png" width="11px" height="12px" preserveAspectRatio="xMinYMin meet" x="13.5" y="-240.7"/>
<text text-anchor="start" x="28.5" y="-230.8" font-family="Helvetica,sans-Serif" font-size="11.00" fill="#000000">avatar_id</text>
<polygon fill="none" stroke="#000000" points="8.5,-204.7 8.5,-223.7 209.5,-223.7 209.5,-204.7 8.5,-204.7"/>
<text text-anchor="start" x="11.5" y="-210.8" font-family="Helvetica,sans-Serif" font-size="11.00" fill="#000000">...</text>
<polygon fill="#ffffff" stroke="transparent" points="8.5,-185.7 8.5,-204.7 83.5,-204.7 83.5,-185.7 8.5,-185.7"/>
<polygon fill="none" stroke="#000000" points="8.5,-185.7 8.5,-204.7 83.5,-204.7 83.5,-185.7 8.5,-185.7"/>
<text text-anchor="start" x="11.5" y="-191.8" font-family="Helvetica,sans-Serif" font-size="11.00" fill="#000000">&lt; 9</text>
<polygon fill="#ffffff" stroke="transparent" points="83.5,-185.7 83.5,-204.7 160.5,-204.7 160.5,-185.7 83.5,-185.7"/>
<polygon fill="none" stroke="#000000" points="83.5,-185.7 83.5,-204.7 160.5,-204.7 160.5,-185.7 83.5,-185.7"/>
<text text-anchor="start" x="112.8807" y="-191.8" font-family="Helvetica,sans-Serif" font-size="11.00" fill="#000000">647 rows</text>
<polygon fill="#ffffff" stroke="transparent" points="160.5,-185.7 160.5,-204.7 209.5,-204.7 209.5,-185.7 160.5,-185.7"/>
<polygon fill="none" stroke="#000000" points="160.5,-185.7 160.5,-204.7 209.5,-204.7 209.5,-185.7 160.5,-185.7"/>
<text text-anchor="start" x="190.9053" y="-191.8" font-family="Helvetica,sans-Serif" font-size="11.00" fill="#000000">7 &gt;</text>
</a>
</g>
</g>
<!-- client_unit&#45;&gt;client -->
<g id="edge1" class="edge">
<title>client_unit:w&#45;&gt;client:e</title>
<path fill="none" stroke="#000000" d="M245.6699,-361.3767C198.8484,-382.4397 279.1725,-520.7 209.5,-520.7"/>
<polygon fill="#000000" stroke="#000000" points="252.136,-360.1689 260.661,-362.2388 256.068,-359.4345 260,-358.7 260,-358.7 260,-358.7 256.068,-359.4345 259.339,-355.1612 252.136,-360.1689 252.136,-360.1689"/>
<ellipse fill="none" stroke="#000000" cx="248.9904" cy="-360.7565" rx="3.2" ry="3.2"/>
</g>
<!-- time_report_schedule -->
<g id="node3" class="node">
<title>time_report_schedule</title>
<g id="a_node3"><a xlink:href="../../tables/time_report_schedule.html" xlink:title="time_report_schedule" target="_top">
<polygon fill="#ffffff" stroke="transparent" points="34.5,-38.2 34.5,-165.2 182.5,-165.2 182.5,-38.2 34.5,-38.2"/>
<polygon fill="#f5f5f5" stroke="transparent" points="34.5,-141.7 34.5,-164.7 182.5,-164.7 182.5,-141.7 34.5,-141.7"/>
<polygon fill="none" stroke="#000000" points="34.5,-141.7 34.5,-164.7 182.5,-164.7 182.5,-141.7 34.5,-141.7"/>
<text text-anchor="start" x="39.1274" y="-150.8" font-family="Helvetica,sans-Serif" font-weight="bold" font-size="11.00" fill="#000000">time_report_schedule</text>
<text text-anchor="start" x="148.0219" y="-149.8" font-family="Helvetica,sans-Serif" font-size="11.00" fill="#000000">[table]</text>
<polygon fill="none" stroke="#000000" points="34.5,-119.7 34.5,-141.7 182.5,-141.7 182.5,-119.7 34.5,-119.7"/>
<image xlink:href="../../images/primaryKeys.png" width="11px" height="12px" preserveAspectRatio="xMinYMin meet" x="39.5" y="-136.7"/>
<text text-anchor="start" x="56.5" y="-126.8" font-family="Helvetica,sans-Serif" font-size="11.00" fill="#000000">id</text>
<polygon fill="#ffffff" stroke="transparent" points="34.5,-97.7 34.5,-119.7 182.5,-119.7 182.5,-97.7 34.5,-97.7"/>
<polygon fill="none" stroke="#000000" points="34.5,-97.7 34.5,-119.7 182.5,-119.7 182.5,-97.7 34.5,-97.7"/>
<image xlink:href="../../images/foreignKeys.png" width="11px" height="12px" preserveAspectRatio="xMinYMin meet" x="39.5" y="-114.7"/>
<text text-anchor="start" x="56.5" y="-104.8" font-family="Helvetica,sans-Serif" font-size="11.00" fill="#000000">created_by</text>
<polygon fill="#ffffff" stroke="transparent" points="34.5,-75.7 34.5,-97.7 182.5,-97.7 182.5,-75.7 34.5,-75.7"/>
<polygon fill="none" stroke="#000000" points="34.5,-75.7 34.5,-97.7 182.5,-97.7 182.5,-75.7 34.5,-75.7"/>
<image xlink:href="../../images/foreignKeys.png" width="11px" height="12px" preserveAspectRatio="xMinYMin meet" x="39.5" y="-92.7"/>
<text text-anchor="start" x="56.5" y="-82.8" font-family="Helvetica,sans-Serif" font-size="11.00" fill="#000000">modified_by</text>
<polygon fill="none" stroke="#000000" points="34.5,-56.7 34.5,-75.7 182.5,-75.7 182.5,-56.7 34.5,-56.7"/>
<text text-anchor="start" x="37.5" y="-62.8" font-family="Helvetica,sans-Serif" font-size="11.00" fill="#000000">...</text>
<polygon fill="#ffffff" stroke="transparent" points="34.5,-37.7 34.5,-56.7 89.5,-56.7 89.5,-37.7 34.5,-37.7"/>
<polygon fill="none" stroke="#000000" points="34.5,-37.7 34.5,-56.7 89.5,-56.7 89.5,-37.7 34.5,-37.7"/>
<text text-anchor="start" x="37.5" y="-43.8" font-family="Helvetica,sans-Serif" font-size="11.00" fill="#000000">&lt; 2</text>
<polygon fill="#ffffff" stroke="transparent" points="89.5,-37.7 89.5,-56.7 144.5,-56.7 144.5,-37.7 89.5,-37.7"/>
<polygon fill="none" stroke="#000000" points="89.5,-37.7 89.5,-56.7 144.5,-56.7 144.5,-37.7 89.5,-37.7"/>
<text text-anchor="start" x="109.1105" y="-43.8" font-family="Helvetica,sans-Serif" font-size="11.00" fill="#000000">0 rows</text>
<polygon fill="#ffffff" stroke="transparent" points="144.5,-37.7 144.5,-56.7 182.5,-56.7 182.5,-37.7 144.5,-37.7"/>
<polygon fill="none" stroke="#000000" points="144.5,-37.7 144.5,-56.7 182.5,-56.7 182.5,-37.7 144.5,-37.7"/>
<text text-anchor="start" x="163.9053" y="-43.8" font-family="Helvetica,sans-Serif" font-size="11.00" fill="#000000">2 &gt;</text>
</a>
</g>
</g>
<!-- client_unit&#45;&gt;time_report_schedule -->
<g id="edge2" class="edge">
<title>client_unit:w&#45;&gt;time_report_schedule:e</title>
<path fill="none" stroke="#000000" d="M245.4533,-290.4099C190.934,-270.7197 256.7029,-130.7 182.5,-130.7"/>
<polygon fill="#000000" stroke="#000000" points="252.0973,-291.4558 259.4401,-296.2562 256.0487,-292.0779 260,-292.7 260,-292.7 260,-292.7 256.0487,-292.0779 260.5599,-289.1438 252.0973,-291.4558 252.0973,-291.4558"/>
<ellipse fill="none" stroke="#000000" cx="248.9363" cy="-290.9582" rx="3.2" ry="3.2"/>
</g>
<!-- contracting_settings -->
<g id="node4" class="node">
<title>contracting_settings</title>
<g id="a_node4"><a xlink:href="../../tables/contracting_settings.html" xlink:title="contracting_settings" target="_top">
<polygon fill="#ffffff" stroke="transparent" points="627.5,-785.2 627.5,-934.2 767.5,-934.2 767.5,-785.2 627.5,-785.2"/>
<polygon fill="#f5f5f5" stroke="transparent" points="627.5,-910.7 627.5,-933.7 767.5,-933.7 767.5,-910.7 627.5,-910.7"/>
<polygon fill="none" stroke="#000000" points="627.5,-910.7 627.5,-933.7 767.5,-933.7 767.5,-910.7 627.5,-910.7"/>
<text text-anchor="start" x="632.0973" y="-919.8" font-family="Helvetica,sans-Serif" font-weight="bold" font-size="11.00" fill="#000000">contracting_settings</text>
<text text-anchor="start" x="733.0219" y="-918.8" font-family="Helvetica,sans-Serif" font-size="11.00" fill="#000000">[table]</text>
<polygon fill="none" stroke="#000000" points="627.5,-888.7 627.5,-910.7 767.5,-910.7 767.5,-888.7 627.5,-888.7"/>
<image xlink:href="../../images/primaryKeys.png" width="11px" height="12px" preserveAspectRatio="xMinYMin meet" x="632.5" y="-905.7"/>
<text text-anchor="start" x="648.5" y="-895.8" font-family="Helvetica,sans-Serif" font-size="11.00" fill="#000000">id</text>
<polygon fill="#ffffff" stroke="transparent" points="627.5,-866.7 627.5,-888.7 767.5,-888.7 767.5,-866.7 627.5,-866.7"/>
<polygon fill="none" stroke="#000000" points="627.5,-866.7 627.5,-888.7 767.5,-888.7 767.5,-866.7 627.5,-866.7"/>
<image xlink:href="../../images/foreignKeys.png" width="11px" height="12px" preserveAspectRatio="xMinYMin meet" x="632.5" y="-883.7"/>
<text text-anchor="start" x="648.5" y="-873.8" font-family="Helvetica,sans-Serif" font-size="11.00" fill="#000000">created_by</text>
<polygon fill="#ffffff" stroke="transparent" points="627.5,-844.7 627.5,-866.7 767.5,-866.7 767.5,-844.7 627.5,-844.7"/>
<polygon fill="none" stroke="#000000" points="627.5,-844.7 627.5,-866.7 767.5,-866.7 767.5,-844.7 627.5,-844.7"/>
<image xlink:href="../../images/foreignKeys.png" width="11px" height="12px" preserveAspectRatio="xMinYMin meet" x="632.5" y="-861.7"/>
<text text-anchor="start" x="648.5" y="-851.8" font-family="Helvetica,sans-Serif" font-size="11.00" fill="#000000">modified_by</text>
<polygon fill="#ffffff" stroke="transparent" points="627.5,-822.7 627.5,-844.7 767.5,-844.7 767.5,-822.7 627.5,-822.7"/>
<polygon fill="none" stroke="#000000" points="627.5,-822.7 627.5,-844.7 767.5,-844.7 767.5,-822.7 627.5,-822.7"/>
<image xlink:href="../../images/foreignKeys.png" width="11px" height="12px" preserveAspectRatio="xMinYMin meet" x="632.5" y="-839.7"/>
<text text-anchor="start" x="648.5" y="-829.8" font-family="Helvetica,sans-Serif" font-size="11.00" fill="#000000">unit_id</text>
<polygon fill="none" stroke="#000000" points="627.5,-803.7 627.5,-822.7 767.5,-822.7 767.5,-803.7 627.5,-803.7"/>
<text text-anchor="start" x="630.5" y="-809.8" font-family="Helvetica,sans-Serif" font-size="11.00" fill="#000000">...</text>
<polygon fill="#ffffff" stroke="transparent" points="627.5,-784.7 627.5,-803.7 682.5,-803.7 682.5,-784.7 627.5,-784.7"/>
<polygon fill="none" stroke="#000000" points="627.5,-784.7 627.5,-803.7 682.5,-803.7 682.5,-784.7 627.5,-784.7"/>
<text text-anchor="start" x="630.5" y="-790.8" font-family="Helvetica,sans-Serif" font-size="11.00" fill="#000000">&lt; 3</text>
<polygon fill="#ffffff" stroke="transparent" points="682.5,-784.7 682.5,-803.7 737.5,-803.7 737.5,-784.7 682.5,-784.7"/>
<polygon fill="none" stroke="#000000" points="682.5,-784.7 682.5,-803.7 737.5,-803.7 737.5,-784.7 682.5,-784.7"/>
<text text-anchor="start" x="702.1105" y="-790.8" font-family="Helvetica,sans-Serif" font-size="11.00" fill="#000000">8 rows</text>
<polygon fill="#ffffff" stroke="transparent" points="737.5,-784.7 737.5,-803.7 767.5,-803.7 767.5,-784.7 737.5,-784.7"/>
<polygon fill="none" stroke="#000000" points="737.5,-784.7 737.5,-803.7 767.5,-803.7 767.5,-784.7 737.5,-784.7"/>
<text text-anchor="start" x="758.3862" y="-790.8" font-family="Helvetica,sans-Serif" font-size="11.00" fill="#000000"> &#160;</text>
</a>
</g>
</g>
<!-- contracting_settings&#45;&gt;client_unit -->
<g id="edge3" class="edge">
<title>contracting_settings:w&#45;&gt;client_unit:e</title>
<path fill="none" stroke="#000000" d="M616.9914,-833.4006C575.3702,-830.9022 558.6923,-812.6619 533,-774.7 502.6311,-729.8281 544.1826,-534.7 490,-534.7"/>
<polygon fill="#000000" stroke="#000000" points="626.8143,-829.6788 626.5864,-837.6756 624.987,-837.63 625.2149,-829.6332 626.8143,-829.6788"/>
<polyline fill="none" stroke="#000000" points="627.5,-833.7 623.5016,-833.586 "/>
<ellipse fill="none" stroke="#000000" cx="620.3029" cy="-833.4949" rx="3.2" ry="3.2"/>
</g>
<!-- invoice_settings -->
<g id="node5" class="node">
<title>invoice_settings</title>
<g id="a_node5"><a xlink:href="../../tables/invoice_settings.html" xlink:title="invoice_settings" target="_top">
<polygon fill="#ffffff" stroke="transparent" points="541,-571.2 541,-764.2 854,-764.2 854,-571.2 541,-571.2"/>
<polygon fill="#f5f5f5" stroke="transparent" points="541.5,-740.7 541.5,-763.7 854.5,-763.7 854.5,-740.7 541.5,-740.7"/>
<polygon fill="none" stroke="#000000" points="541.5,-740.7 541.5,-763.7 854.5,-763.7 854.5,-740.7 541.5,-740.7"/>
<text text-anchor="start" x="546.5" y="-749.8" font-family="Helvetica,sans-Serif" font-weight="bold" font-size="11.00" fill="#000000">invoice_settings</text>
<text text-anchor="start" x="819.5437" y="-748.8" font-family="Helvetica,sans-Serif" font-size="11.00" fill="#000000">[table]</text>
<polygon fill="none" stroke="#000000" points="541.5,-718.7 541.5,-740.7 854.5,-740.7 854.5,-718.7 541.5,-718.7"/>
<image xlink:href="../../images/primaryKeys.png" width="11px" height="12px" preserveAspectRatio="xMinYMin meet" x="546.5" y="-735.7"/>
<text text-anchor="start" x="561.5" y="-725.8" font-family="Helvetica,sans-Serif" font-size="11.00" fill="#000000">id</text>
<polygon fill="#ffffff" stroke="transparent" points="541.5,-696.7 541.5,-718.7 854.5,-718.7 854.5,-696.7 541.5,-696.7"/>
<polygon fill="none" stroke="#000000" points="541.5,-696.7 541.5,-718.7 854.5,-718.7 854.5,-696.7 541.5,-696.7"/>
<image xlink:href="../../images/foreignKeys.png" width="11px" height="12px" preserveAspectRatio="xMinYMin meet" x="546.5" y="-713.7"/>
<text text-anchor="start" x="561.5" y="-703.8" font-family="Helvetica,sans-Serif" font-size="11.00" fill="#000000">created_by</text>
<polygon fill="#ffffff" stroke="transparent" points="541.5,-674.7 541.5,-696.7 854.5,-696.7 854.5,-674.7 541.5,-674.7"/>
<polygon fill="none" stroke="#000000" points="541.5,-674.7 541.5,-696.7 854.5,-696.7 854.5,-674.7 541.5,-674.7"/>
<image xlink:href="../../images/foreignKeys.png" width="11px" height="12px" preserveAspectRatio="xMinYMin meet" x="546.5" y="-691.7"/>
<text text-anchor="start" x="561.5" y="-681.8" font-family="Helvetica,sans-Serif" font-size="11.00" fill="#000000">modified_by</text>
<polygon fill="#ffffff" stroke="transparent" points="541.5,-652.7 541.5,-674.7 854.5,-674.7 854.5,-652.7 541.5,-652.7"/>
<polygon fill="none" stroke="#000000" points="541.5,-652.7 541.5,-674.7 854.5,-674.7 854.5,-652.7 541.5,-652.7"/>
<image xlink:href="../../images/foreignKeys.png" width="11px" height="12px" preserveAspectRatio="xMinYMin meet" x="546.5" y="-669.7"/>
<text text-anchor="start" x="561.5" y="-659.8" font-family="Helvetica,sans-Serif" font-size="11.00" fill="#000000">unit_id</text>
<polygon fill="#ffffff" stroke="transparent" points="541.5,-630.7 541.5,-652.7 854.5,-652.7 854.5,-630.7 541.5,-630.7"/>
<polygon fill="none" stroke="#000000" points="541.5,-630.7 541.5,-652.7 854.5,-652.7 854.5,-630.7 541.5,-630.7"/>
<image xlink:href="../../images/foreignKeys.png" width="11px" height="12px" preserveAspectRatio="xMinYMin meet" x="546.5" y="-647.7"/>
<text text-anchor="start" x="561.5" y="-637.8" font-family="Helvetica,sans-Serif" font-size="11.00" fill="#000000">invoice_address_id</text>
<polygon fill="#ffffff" stroke="transparent" points="541.5,-608.7 541.5,-630.7 854.5,-630.7 854.5,-608.7 541.5,-608.7"/>
<polygon fill="none" stroke="#000000" points="541.5,-608.7 541.5,-630.7 854.5,-630.7 854.5,-608.7 541.5,-608.7"/>
<image xlink:href="../../images/foreignKeys.png" width="11px" height="12px" preserveAspectRatio="xMinYMin meet" x="546.5" y="-625.7"/>
<text text-anchor="start" x="561.5" y="-615.8" font-family="Helvetica,sans-Serif" font-size="11.00" fill="#000000">postal_address_for_invoice_reminders_id</text>
<polygon fill="none" stroke="#000000" points="541.5,-589.7 541.5,-608.7 854.5,-608.7 854.5,-589.7 541.5,-589.7"/>
<text text-anchor="start" x="544.5" y="-595.8" font-family="Helvetica,sans-Serif" font-size="11.00" fill="#000000">...</text>
<polygon fill="#ffffff" stroke="transparent" points="541.5,-570.7 541.5,-589.7 683.5,-589.7 683.5,-570.7 541.5,-570.7"/>
<polygon fill="none" stroke="#000000" points="541.5,-570.7 541.5,-589.7 683.5,-589.7 683.5,-570.7 541.5,-570.7"/>
<text text-anchor="start" x="544.5" y="-576.8" font-family="Helvetica,sans-Serif" font-size="11.00" fill="#000000">&lt; 5</text>
<polygon fill="#ffffff" stroke="transparent" points="683.5,-570.7 683.5,-589.7 781.5,-589.7 781.5,-570.7 683.5,-570.7"/>
<polygon fill="none" stroke="#000000" points="683.5,-570.7 683.5,-589.7 781.5,-589.7 781.5,-570.7 683.5,-570.7"/>
<text text-anchor="start" x="746.1105" y="-576.8" font-family="Helvetica,sans-Serif" font-size="11.00" fill="#000000">8 rows</text>
<polygon fill="#ffffff" stroke="transparent" points="781.5,-570.7 781.5,-589.7 854.5,-589.7 854.5,-570.7 781.5,-570.7"/>
<polygon fill="none" stroke="#000000" points="781.5,-570.7 781.5,-589.7 854.5,-589.7 854.5,-570.7 781.5,-570.7"/>
<text text-anchor="start" x="845.3862" y="-576.8" font-family="Helvetica,sans-Serif" font-size="11.00" fill="#000000"> &#160;</text>
</a>
</g>
</g>
<!-- invoice_settings&#45;&gt;client_unit -->
<g id="edge4" class="edge">
<title>invoice_settings:w&#45;&gt;client_unit:e</title>
<path fill="none" stroke="#000000" d="M527.4424,-660.5112C492.0853,-640.6463 545.9459,-534.7 490,-534.7"/>
<polygon fill="#000000" stroke="#000000" points="533.6982,-661.9302 540.7036,-667.2108 537.5991,-662.8151 541.5,-663.7 541.5,-663.7 541.5,-663.7 537.5991,-662.8151 542.2964,-660.1892 533.6982,-661.9302 533.6982,-661.9302"/>
<ellipse fill="none" stroke="#000000" cx="530.5775" cy="-661.2223" rx="3.2" ry="3.2"/>
</g>
<!-- paycode -->
<g id="node6" class="node">
<title>paycode</title>
<g id="a_node6"><a xlink:href="../../tables/paycode.html" xlink:title="paycode" target="_top">
<polygon fill="#ffffff" stroke="transparent" points="636,-357.2 636,-550.2 759,-550.2 759,-357.2 636,-357.2"/>
<polygon fill="#f5f5f5" stroke="transparent" points="636.5,-526.7 636.5,-549.7 759.5,-549.7 759.5,-526.7 636.5,-526.7"/>
<polygon fill="none" stroke="#000000" points="636.5,-526.7 636.5,-549.7 759.5,-549.7 759.5,-526.7 636.5,-526.7"/>
<text text-anchor="start" x="641.5" y="-535.8" font-family="Helvetica,sans-Serif" font-weight="bold" font-size="11.00" fill="#000000">paycode</text>
<text text-anchor="start" x="724.5437" y="-534.8" font-family="Helvetica,sans-Serif" font-size="11.00" fill="#000000">[table]</text>
<polygon fill="none" stroke="#000000" points="636.5,-504.7 636.5,-526.7 759.5,-526.7 759.5,-504.7 636.5,-504.7"/>
<image xlink:href="../../images/primaryKeys.png" width="11px" height="12px" preserveAspectRatio="xMinYMin meet" x="641.5" y="-521.7"/>
<text text-anchor="start" x="656.5" y="-511.8" font-family="Helvetica,sans-Serif" font-size="11.00" fill="#000000">id</text>
<polygon fill="#ffffff" stroke="transparent" points="636.5,-482.7 636.5,-504.7 759.5,-504.7 759.5,-482.7 636.5,-482.7"/>
<polygon fill="none" stroke="#000000" points="636.5,-482.7 636.5,-504.7 759.5,-504.7 759.5,-482.7 636.5,-482.7"/>
<image xlink:href="../../images/foreignKeys.png" width="11px" height="12px" preserveAspectRatio="xMinYMin meet" x="641.5" y="-499.7"/>
<text text-anchor="start" x="656.5" y="-489.8" font-family="Helvetica,sans-Serif" font-size="11.00" fill="#000000">created_by</text>
<polygon fill="#ffffff" stroke="transparent" points="636.5,-460.7 636.5,-482.7 759.5,-482.7 759.5,-460.7 636.5,-460.7"/>
<polygon fill="none" stroke="#000000" points="636.5,-460.7 636.5,-482.7 759.5,-482.7 759.5,-460.7 636.5,-460.7"/>
<image xlink:href="../../images/foreignKeys.png" width="11px" height="12px" preserveAspectRatio="xMinYMin meet" x="641.5" y="-477.7"/>
<text text-anchor="start" x="656.5" y="-467.8" font-family="Helvetica,sans-Serif" font-size="11.00" fill="#000000">modified_by</text>
<polygon fill="#ffffff" stroke="transparent" points="636.5,-438.7 636.5,-460.7 759.5,-460.7 759.5,-438.7 636.5,-438.7"/>
<polygon fill="none" stroke="#000000" points="636.5,-438.7 636.5,-460.7 759.5,-460.7 759.5,-438.7 636.5,-438.7"/>
<text text-anchor="start" x="656.5" y="-445.8" font-family="Helvetica,sans-Serif" font-size="11.00" fill="#000000">type</text>
<polygon fill="#ffffff" stroke="transparent" points="636.5,-416.7 636.5,-438.7 759.5,-438.7 759.5,-416.7 636.5,-416.7"/>
<polygon fill="none" stroke="#000000" points="636.5,-416.7 636.5,-438.7 759.5,-438.7 759.5,-416.7 636.5,-416.7"/>
<text text-anchor="start" x="656.5" y="-423.8" font-family="Helvetica,sans-Serif" font-size="11.00" fill="#000000">order</text>
<polygon fill="#ffffff" stroke="transparent" points="636.5,-394.7 636.5,-416.7 759.5,-416.7 759.5,-394.7 636.5,-394.7"/>
<polygon fill="none" stroke="#000000" points="636.5,-394.7 636.5,-416.7 759.5,-416.7 759.5,-394.7 636.5,-394.7"/>
<image xlink:href="../../images/foreignKeys.png" width="11px" height="12px" preserveAspectRatio="xMinYMin meet" x="641.5" y="-411.7"/>
<text text-anchor="start" x="656.5" y="-401.8" font-family="Helvetica,sans-Serif" font-size="11.00" fill="#000000">client_unit_id</text>
<polygon fill="none" stroke="#000000" points="636.5,-375.7 636.5,-394.7 759.5,-394.7 759.5,-375.7 636.5,-375.7"/>
<text text-anchor="start" x="639.5" y="-381.8" font-family="Helvetica,sans-Serif" font-size="11.00" fill="#000000">...</text>
<polygon fill="#ffffff" stroke="transparent" points="636.5,-356.7 636.5,-375.7 683.5,-375.7 683.5,-356.7 636.5,-356.7"/>
<polygon fill="none" stroke="#000000" points="636.5,-356.7 636.5,-375.7 683.5,-375.7 683.5,-356.7 636.5,-356.7"/>
<text text-anchor="start" x="639.5" y="-362.8" font-family="Helvetica,sans-Serif" font-size="11.00" fill="#000000">&lt; 3</text>
<polygon fill="#ffffff" stroke="transparent" points="683.5,-356.7 683.5,-375.7 734.5,-375.7 734.5,-356.7 683.5,-356.7"/>
<polygon fill="none" stroke="#000000" points="683.5,-356.7 683.5,-375.7 734.5,-375.7 734.5,-356.7 683.5,-356.7"/>
<text text-anchor="start" x="699.1105" y="-362.8" font-family="Helvetica,sans-Serif" font-size="11.00" fill="#000000">2 rows</text>
<polygon fill="#ffffff" stroke="transparent" points="734.5,-356.7 734.5,-375.7 759.5,-375.7 759.5,-356.7 734.5,-356.7"/>
<polygon fill="none" stroke="#000000" points="734.5,-356.7 734.5,-375.7 759.5,-375.7 759.5,-356.7 734.5,-356.7"/>
<text text-anchor="start" x="750.3862" y="-362.8" font-family="Helvetica,sans-Serif" font-size="11.00" fill="#000000"> &#160;</text>
</a>
</g>
</g>
<!-- paycode&#45;&gt;client_unit -->
<g id="edge5" class="edge">
<title>paycode:w&#45;&gt;client_unit:e</title>
<path fill="none" stroke="#000000" d="M621.9423,-407.0614C552.5981,-420.8482 571.503,-534.7 490,-534.7"/>
<polygon fill="#000000" stroke="#000000" points="628.5348,-406.445 636.8352,-409.2844 632.5174,-406.0725 636.5,-405.7 636.5,-405.7 636.5,-405.7 632.5174,-406.0725 636.1648,-402.1156 628.5348,-406.445 628.5348,-406.445"/>
<ellipse fill="none" stroke="#000000" cx="625.3487" cy="-406.743" rx="3.2" ry="3.2"/>
</g>
<!-- time_and_expense_settings -->
<g id="node7" class="node">
<title>time_and_expense_settings</title>
<g id="a_node7"><a xlink:href="../../tables/time_and_expense_settings.html" xlink:title="time_and_expense_settings" target="_top">
<polygon fill="#ffffff" stroke="transparent" points="543,-187.2 543,-336.2 852,-336.2 852,-187.2 543,-187.2"/>
<polygon fill="#f5f5f5" stroke="transparent" points="543.5,-312.7 543.5,-335.7 852.5,-335.7 852.5,-312.7 543.5,-312.7"/>
<polygon fill="none" stroke="#000000" points="543.5,-312.7 543.5,-335.7 852.5,-335.7 852.5,-312.7 543.5,-312.7"/>
<text text-anchor="start" x="548.5" y="-321.8" font-family="Helvetica,sans-Serif" font-weight="bold" font-size="11.00" fill="#000000">time_and_expense_settings</text>
<text text-anchor="start" x="817.5437" y="-320.8" font-family="Helvetica,sans-Serif" font-size="11.00" fill="#000000">[table]</text>
<polygon fill="none" stroke="#000000" points="543.5,-290.7 543.5,-312.7 852.5,-312.7 852.5,-290.7 543.5,-290.7"/>
<image xlink:href="../../images/primaryKeys.png" width="11px" height="12px" preserveAspectRatio="xMinYMin meet" x="548.5" y="-307.7"/>
<text text-anchor="start" x="563.5" y="-297.8" font-family="Helvetica,sans-Serif" font-size="11.00" fill="#000000">id</text>
<polygon fill="#ffffff" stroke="transparent" points="543.5,-268.7 543.5,-290.7 852.5,-290.7 852.5,-268.7 543.5,-268.7"/>
<polygon fill="none" stroke="#000000" points="543.5,-268.7 543.5,-290.7 852.5,-290.7 852.5,-268.7 543.5,-268.7"/>
<image xlink:href="../../images/foreignKeys.png" width="11px" height="12px" preserveAspectRatio="xMinYMin meet" x="548.5" y="-285.7"/>
<text text-anchor="start" x="563.5" y="-275.8" font-family="Helvetica,sans-Serif" font-size="11.00" fill="#000000">created_by</text>
<polygon fill="#ffffff" stroke="transparent" points="543.5,-246.7 543.5,-268.7 852.5,-268.7 852.5,-246.7 543.5,-246.7"/>
<polygon fill="none" stroke="#000000" points="543.5,-246.7 543.5,-268.7 852.5,-268.7 852.5,-246.7 543.5,-246.7"/>
<image xlink:href="../../images/foreignKeys.png" width="11px" height="12px" preserveAspectRatio="xMinYMin meet" x="548.5" y="-263.7"/>
<text text-anchor="start" x="563.5" y="-253.8" font-family="Helvetica,sans-Serif" font-size="11.00" fill="#000000">modified_by</text>
<polygon fill="#ffffff" stroke="transparent" points="543.5,-224.7 543.5,-246.7 852.5,-246.7 852.5,-224.7 543.5,-224.7"/>
<polygon fill="none" stroke="#000000" points="543.5,-224.7 543.5,-246.7 852.5,-246.7 852.5,-224.7 543.5,-224.7"/>
<image xlink:href="../../images/foreignKeys.png" width="11px" height="12px" preserveAspectRatio="xMinYMin meet" x="548.5" y="-241.7"/>
<text text-anchor="start" x="563.5" y="-231.8" font-family="Helvetica,sans-Serif" font-size="11.00" fill="#000000">unit_id</text>
<polygon fill="none" stroke="#000000" points="543.5,-205.7 543.5,-224.7 852.5,-224.7 852.5,-205.7 543.5,-205.7"/>
<text text-anchor="start" x="546.5" y="-211.8" font-family="Helvetica,sans-Serif" font-size="11.00" fill="#000000">...</text>
<polygon fill="#ffffff" stroke="transparent" points="543.5,-186.7 543.5,-205.7 680.5,-205.7 680.5,-186.7 543.5,-186.7"/>
<polygon fill="none" stroke="#000000" points="543.5,-186.7 543.5,-205.7 680.5,-205.7 680.5,-186.7 543.5,-186.7"/>
<text text-anchor="start" x="546.5" y="-192.8" font-family="Helvetica,sans-Serif" font-size="11.00" fill="#000000">&lt; 3</text>
<polygon fill="#ffffff" stroke="transparent" points="680.5,-186.7 680.5,-205.7 782.5,-205.7 782.5,-186.7 680.5,-186.7"/>
<polygon fill="none" stroke="#000000" points="680.5,-186.7 680.5,-205.7 782.5,-205.7 782.5,-186.7 680.5,-186.7"/>
<text text-anchor="start" x="740.9956" y="-192.8" font-family="Helvetica,sans-Serif" font-size="11.00" fill="#000000">12 rows</text>
<polygon fill="#ffffff" stroke="transparent" points="782.5,-186.7 782.5,-205.7 852.5,-205.7 852.5,-186.7 782.5,-186.7"/>
<polygon fill="none" stroke="#000000" points="782.5,-186.7 782.5,-205.7 852.5,-205.7 852.5,-186.7 782.5,-186.7"/>
<text text-anchor="start" x="843.3862" y="-192.8" font-family="Helvetica,sans-Serif" font-size="11.00" fill="#000000"> &#160;</text>
</a>
</g>
</g>
<!-- time_and_expense_settings&#45;&gt;client_unit -->
<g id="edge6" class="edge">
<title>time_and_expense_settings:w&#45;&gt;client_unit:e</title>
<path fill="none" stroke="#000000" d="M533.4102,-238.4691C484.7546,-268.6119 553.6765,-534.7 490,-534.7"/>
<polygon fill="#000000" stroke="#000000" points="541.6699,-232.0544 543.7872,-239.7691 542.2442,-240.1926 540.1269,-232.4778 541.6699,-232.0544"/>
<polyline fill="none" stroke="#000000" points="543.5,-235.7 539.6426,-236.7587 "/>
<ellipse fill="none" stroke="#000000" cx="536.5567" cy="-237.6056" rx="3.2" ry="3.2"/>
</g>
</g>
</svg>
