<?xml version="1.0" encoding="UTF-8" standalone="no"?>
<!DOCTYPE svg PUBLIC "-//W3C//DTD SVG 1.1//EN"
 "http://www.w3.org/Graphics/SVG/1.1/DTD/svg11.dtd">
<!-- Generated by graphviz version 2.40.1 (20161225.0304)
 -->
<!-- Title: oneDegreeRelationshipsDiagram Pages: 1 -->
<svg width="403pt" height="157pt"
 viewBox="0.00 0.00 403.00 156.70" xmlns="http://www.w3.org/2000/svg" xmlns:xlink="http://www.w3.org/1999/xlink">
<g id="graph0" class="graph" transform="scale(1 1) rotate(0) translate(4 152.7)">
<title>oneDegreeRelationshipsDiagram</title>
<polygon fill="#ffffff" stroke="transparent" points="-4,4 -4,-152.7 399,-152.7 399,4 -4,4"/>
<text text-anchor="middle" x="72.4936" y="-7.3" font-family="Helvetica,sans-Serif" font-size="11.00" fill="#000000">Generated by SchemaSpy</text>
<!-- client_address_type -->
<g id="node1" class="node">
<title>client_address_type</title>
<g id="a_node1"><a xlink:href="../../tables/client_address_type.html" xlink:title="client_address_type" target="_top">
<polygon fill="#ffffff" stroke="transparent" points="180,-54.7 180,-144.7 387,-144.7 387,-54.7 180,-54.7"/>
<polygon fill="#f5f5f5" stroke="transparent" points="182.5,-119.7 182.5,-142.7 385.5,-142.7 385.5,-119.7 182.5,-119.7"/>
<polygon fill="none" stroke="#000000" points="182.5,-119.7 182.5,-142.7 385.5,-142.7 385.5,-119.7 182.5,-119.7"/>
<text text-anchor="start" x="187.5" y="-128.8" font-family="Helvetica,sans-Serif" font-weight="bold" font-size="11.00" fill="#000000">client_address_type</text>
<text text-anchor="start" x="350.5437" y="-127.8" font-family="Helvetica,sans-Serif" font-size="11.00" fill="#000000">[table]</text>
<polygon fill="none" stroke="#000000" points="182.5,-97.7 182.5,-119.7 318.5,-119.7 318.5,-97.7 182.5,-97.7"/>
<image xlink:href="../../images/primaryKeys.png" width="11px" height="12px" preserveAspectRatio="xMinYMin meet" x="187.5" y="-114.7"/>
<text text-anchor="start" x="202.5" y="-104.8" font-family="Helvetica,sans-Serif" font-size="11.00" fill="#000000">address_id</text>
<polygon fill="none" stroke="#000000" points="318.5,-97.7 318.5,-119.7 385.5,-119.7 385.5,-97.7 318.5,-97.7"/>
<text text-anchor="start" x="321.5" y="-105.4" font-family="Helvetica,sans-Serif" font-size="11.00" fill="#000000">bigint[19]</text>
<polygon fill="none" stroke="#000000" points="182.5,-75.7 182.5,-97.7 318.5,-97.7 318.5,-75.7 182.5,-75.7"/>
<image xlink:href="../../images/primaryKeys.png" width="11px" height="12px" preserveAspectRatio="xMinYMin meet" x="187.5" y="-92.7"/>
<text text-anchor="start" x="202.5" y="-82.8" font-family="Helvetica,sans-Serif" font-size="11.00" fill="#000000">type</text>
<polygon fill="none" stroke="#000000" points="318.5,-75.7 318.5,-97.7 385.5,-97.7 385.5,-75.7 318.5,-75.7"/>
<text text-anchor="start" x="321.4365" y="-83.4" font-family="Helvetica,sans-Serif" font-size="11.00" fill="#000000">varchar[255]</text>
<polygon fill="#ffffff" stroke="transparent" points="182.5,-56.7 182.5,-75.7 235.5,-75.7 235.5,-56.7 182.5,-56.7"/>
<polygon fill="none" stroke="#000000" points="182.5,-56.7 182.5,-75.7 235.5,-75.7 235.5,-56.7 182.5,-56.7"/>
<text text-anchor="start" x="185.5" y="-62.8" font-family="Helvetica,sans-Serif" font-size="11.00" fill="#000000">&lt; 1</text>
<polygon fill="#ffffff" stroke="transparent" points="235.5,-56.7 235.5,-75.7 318.5,-75.7 318.5,-56.7 235.5,-56.7"/>
<polygon fill="none" stroke="#000000" points="235.5,-56.7 235.5,-75.7 318.5,-75.7 318.5,-56.7 235.5,-56.7"/>
<text text-anchor="start" x="270.8807" y="-62.8" font-family="Helvetica,sans-Serif" font-size="11.00" fill="#000000">203 rows</text>
<polygon fill="#ffffff" stroke="transparent" points="318.5,-56.7 318.5,-75.7 385.5,-75.7 385.5,-56.7 318.5,-56.7"/>
<polygon fill="none" stroke="#000000" points="318.5,-56.7 318.5,-75.7 385.5,-75.7 385.5,-56.7 318.5,-56.7"/>
<text text-anchor="start" x="366.9053" y="-62.8" font-family="Helvetica,sans-Serif" font-size="11.00" fill="#000000">0 &gt;</text>
<polygon fill="none" stroke="#000000" stroke-width="2" points="181,-55.7 181,-143.7 386,-143.7 386,-55.7 181,-55.7"/>
</a>
</g>
</g>
<!-- client_address -->
<g id="node2" class="node">
<title>client_address</title>
<g id="a_node2"><a xlink:href="../../tables/client_address.html" xlink:title="client_address" target="_top">
<polygon fill="#ffffff" stroke="transparent" points="8,-38.2 8,-143.2 131,-143.2 131,-38.2 8,-38.2"/>
<polygon fill="#f5f5f5" stroke="transparent" points="8.5,-119.7 8.5,-142.7 131.5,-142.7 131.5,-119.7 8.5,-119.7"/>
<polygon fill="none" stroke="#000000" points="8.5,-119.7 8.5,-142.7 131.5,-142.7 131.5,-119.7 8.5,-119.7"/>
<text text-anchor="start" x="13.5" y="-128.8" font-family="Helvetica,sans-Serif" font-weight="bold" font-size="11.00" fill="#000000">client_address</text>
<text text-anchor="start" x="96.5437" y="-127.8" font-family="Helvetica,sans-Serif" font-size="11.00" fill="#000000">[table]</text>
<polygon fill="none" stroke="#000000" points="8.5,-97.7 8.5,-119.7 131.5,-119.7 131.5,-97.7 8.5,-97.7"/>
<image xlink:href="../../images/primaryKeys.png" width="11px" height="12px" preserveAspectRatio="xMinYMin meet" x="13.5" y="-114.7"/>
<text text-anchor="start" x="28.5" y="-104.8" font-family="Helvetica,sans-Serif" font-size="11.00" fill="#000000">id</text>
<polygon fill="#ffffff" stroke="transparent" points="8.5,-75.7 8.5,-97.7 131.5,-97.7 131.5,-75.7 8.5,-75.7"/>
<polygon fill="none" stroke="#000000" points="8.5,-75.7 8.5,-97.7 131.5,-97.7 131.5,-75.7 8.5,-75.7"/>
<image xlink:href="../../images/foreignKeys.png" width="11px" height="12px" preserveAspectRatio="xMinYMin meet" x="13.5" y="-92.7"/>
<text text-anchor="start" x="28.5" y="-82.8" font-family="Helvetica,sans-Serif" font-size="11.00" fill="#000000">client_id</text>
<polygon fill="none" stroke="#000000" points="8.5,-56.7 8.5,-75.7 131.5,-75.7 131.5,-56.7 8.5,-56.7"/>
<text text-anchor="start" x="11.5" y="-62.8" font-family="Helvetica,sans-Serif" font-size="11.00" fill="#000000">...</text>
<polygon fill="#ffffff" stroke="transparent" points="8.5,-37.7 8.5,-56.7 44.5,-56.7 44.5,-37.7 8.5,-37.7"/>
<polygon fill="none" stroke="#000000" points="8.5,-37.7 8.5,-56.7 44.5,-56.7 44.5,-37.7 8.5,-37.7"/>
<text text-anchor="start" x="11.5" y="-43.8" font-family="Helvetica,sans-Serif" font-size="11.00" fill="#000000">&lt; 1</text>
<polygon fill="#ffffff" stroke="transparent" points="44.5,-37.7 44.5,-56.7 102.5,-56.7 102.5,-37.7 44.5,-37.7"/>
<polygon fill="none" stroke="#000000" points="44.5,-37.7 44.5,-56.7 102.5,-56.7 102.5,-37.7 44.5,-37.7"/>
<text text-anchor="start" x="54.8807" y="-43.8" font-family="Helvetica,sans-Serif" font-size="11.00" fill="#000000">100 rows</text>
<polygon fill="#ffffff" stroke="transparent" points="102.5,-37.7 102.5,-56.7 131.5,-56.7 131.5,-37.7 102.5,-37.7"/>
<polygon fill="none" stroke="#000000" points="102.5,-37.7 102.5,-56.7 131.5,-56.7 131.5,-37.7 102.5,-37.7"/>
<text text-anchor="start" x="112.9053" y="-43.8" font-family="Helvetica,sans-Serif" font-size="11.00" fill="#000000">3 &gt;</text>
</a>
</g>
</g>
<!-- client_address_type&#45;&gt;client_address -->
<g id="edge1" class="edge">
<title>client_address_type:w&#45;&gt;client_address:e</title>
<path fill="none" stroke="#000000" d="M167.776,-108.7C155.7815,-108.7 148.3229,-108.7 131.5,-108.7"/>
<polygon fill="#000000" stroke="#000000" points="174.5,-108.7001 182.5,-112.3 178.5,-108.7 182.5,-108.7 182.5,-108.7 182.5,-108.7 178.5,-108.7 182.5,-105.1 174.5,-108.7001 174.5,-108.7001"/>
<ellipse fill="none" stroke="#000000" cx="171.3" cy="-108.7001" rx="3.2" ry="3.2"/>
</g>
</g>
</svg>
