<?xml version="1.0" encoding="UTF-8" standalone="no"?>
<!DOCTYPE svg PUBLIC "-//W3C//DTD SVG 1.1//EN"
 "http://www.w3.org/Graphics/SVG/1.1/DTD/svg11.dtd">
<!-- Generated by graphviz version 2.40.1 (20161225.0304)
 -->
<!-- Title: oneDegreeRelationshipsDiagram Pages: 1 -->
<svg width="612pt" height="419pt"
 viewBox="0.00 0.00 612.00 419.20" xmlns="http://www.w3.org/2000/svg" xmlns:xlink="http://www.w3.org/1999/xlink">
<g id="graph0" class="graph" transform="scale(1 1) rotate(0) translate(4 415.2)">
<title>oneDegreeRelationshipsDiagram</title>
<polygon fill="#ffffff" stroke="transparent" points="-4,4 -4,-415.2 608,-415.2 608,4 -4,4"/>
<text text-anchor="middle" x="72.4936" y="-7.3" font-family="Helvetica,sans-Serif" font-size="11.00" fill="#000000">Generated by SchemaSpy</text>
<!-- client -->
<g id="node1" class="node">
<title>client</title>
<g id="a_node1"><a xlink:href="../../tables/client.html" xlink:title="client" target="_top">
<polygon fill="#ffffff" stroke="transparent" points="395,-38.2 395,-407.2 596,-407.2 596,-38.2 395,-38.2"/>
<polygon fill="#f5f5f5" stroke="transparent" points="395.5,-383.7 395.5,-406.7 596.5,-406.7 596.5,-383.7 395.5,-383.7"/>
<polygon fill="none" stroke="#000000" points="395.5,-383.7 395.5,-406.7 596.5,-406.7 596.5,-383.7 395.5,-383.7"/>
<text text-anchor="start" x="400.5" y="-392.8" font-family="Helvetica,sans-Serif" font-weight="bold" font-size="11.00" fill="#000000">client</text>
<text text-anchor="start" x="561.5437" y="-391.8" font-family="Helvetica,sans-Serif" font-size="11.00" fill="#000000">[table]</text>
<polygon fill="none" stroke="#000000" points="395.5,-361.7 395.5,-383.7 596.5,-383.7 596.5,-361.7 395.5,-361.7"/>
<image xlink:href="../../images/primaryKeys.png" width="11px" height="12px" preserveAspectRatio="xMinYMin meet" x="400.5" y="-378.7"/>
<text text-anchor="start" x="415.5" y="-368.8" font-family="Helvetica,sans-Serif" font-size="11.00" fill="#000000">id</text>
<polygon fill="#ffffff" stroke="transparent" points="395.5,-339.7 395.5,-361.7 596.5,-361.7 596.5,-339.7 395.5,-339.7"/>
<polygon fill="none" stroke="#000000" points="395.5,-339.7 395.5,-361.7 596.5,-361.7 596.5,-339.7 395.5,-339.7"/>
<image xlink:href="../../images/foreignKeys.png" width="11px" height="12px" preserveAspectRatio="xMinYMin meet" x="400.5" y="-356.7"/>
<text text-anchor="start" x="415.5" y="-346.8" font-family="Helvetica,sans-Serif" font-size="11.00" fill="#000000">created_by</text>
<polygon fill="#ffffff" stroke="transparent" points="395.5,-317.7 395.5,-339.7 596.5,-339.7 596.5,-317.7 395.5,-317.7"/>
<polygon fill="none" stroke="#000000" points="395.5,-317.7 395.5,-339.7 596.5,-339.7 596.5,-317.7 395.5,-317.7"/>
<image xlink:href="../../images/foreignKeys.png" width="11px" height="12px" preserveAspectRatio="xMinYMin meet" x="400.5" y="-334.7"/>
<text text-anchor="start" x="415.5" y="-324.8" font-family="Helvetica,sans-Serif" font-size="11.00" fill="#000000">modified_by</text>
<polygon fill="#ffffff" stroke="transparent" points="395.5,-295.7 395.5,-317.7 596.5,-317.7 596.5,-295.7 395.5,-295.7"/>
<polygon fill="none" stroke="#000000" points="395.5,-295.7 395.5,-317.7 596.5,-317.7 596.5,-295.7 395.5,-295.7"/>
<text text-anchor="start" x="415.5" y="-302.8" font-family="Helvetica,sans-Serif" font-size="11.00" fill="#000000">marketplace_id</text>
<polygon fill="#ffffff" stroke="transparent" points="395.5,-273.7 395.5,-295.7 596.5,-295.7 596.5,-273.7 395.5,-273.7"/>
<polygon fill="none" stroke="#000000" points="395.5,-273.7 395.5,-295.7 596.5,-295.7 596.5,-273.7 395.5,-273.7"/>
<text text-anchor="start" x="415.5" y="-280.8" font-family="Helvetica,sans-Serif" font-size="11.00" fill="#000000">name</text>
<polygon fill="#ffffff" stroke="transparent" points="395.5,-251.7 395.5,-273.7 596.5,-273.7 596.5,-251.7 395.5,-251.7"/>
<polygon fill="none" stroke="#000000" points="395.5,-251.7 395.5,-273.7 596.5,-273.7 596.5,-251.7 395.5,-251.7"/>
<text text-anchor="start" x="415.5" y="-258.8" font-family="Helvetica,sans-Serif" font-size="11.00" fill="#000000">organizational_number</text>
<polygon fill="#ffffff" stroke="transparent" points="395.5,-229.7 395.5,-251.7 596.5,-251.7 596.5,-229.7 395.5,-229.7"/>
<polygon fill="none" stroke="#000000" points="395.5,-229.7 395.5,-251.7 596.5,-251.7 596.5,-229.7 395.5,-229.7"/>
<text text-anchor="start" x="415.5" y="-236.8" font-family="Helvetica,sans-Serif" font-size="11.00" fill="#000000">vat_number</text>
<polygon fill="#ffffff" stroke="transparent" points="395.5,-207.7 395.5,-229.7 596.5,-229.7 596.5,-207.7 395.5,-207.7"/>
<polygon fill="none" stroke="#000000" points="395.5,-207.7 395.5,-229.7 596.5,-229.7 596.5,-207.7 395.5,-207.7"/>
<image xlink:href="../../images/foreignKeys.png" width="11px" height="12px" preserveAspectRatio="xMinYMin meet" x="400.5" y="-224.7"/>
<text text-anchor="start" x="415.5" y="-214.8" font-family="Helvetica,sans-Serif" font-size="11.00" fill="#000000">client_group_id</text>
<polygon fill="#ffffff" stroke="transparent" points="395.5,-185.7 395.5,-207.7 596.5,-207.7 596.5,-185.7 395.5,-185.7"/>
<polygon fill="none" stroke="#000000" points="395.5,-185.7 395.5,-207.7 596.5,-207.7 596.5,-185.7 395.5,-185.7"/>
<image xlink:href="../../images/foreignKeys.png" width="11px" height="12px" preserveAspectRatio="xMinYMin meet" x="400.5" y="-202.7"/>
<text text-anchor="start" x="415.5" y="-192.8" font-family="Helvetica,sans-Serif" font-size="11.00" fill="#000000">client_operations_developer_id</text>
<polygon fill="#ffffff" stroke="transparent" points="395.5,-163.7 395.5,-185.7 596.5,-185.7 596.5,-163.7 395.5,-163.7"/>
<polygon fill="none" stroke="#000000" points="395.5,-163.7 395.5,-185.7 596.5,-185.7 596.5,-163.7 395.5,-163.7"/>
<image xlink:href="../../images/foreignKeys.png" width="11px" height="12px" preserveAspectRatio="xMinYMin meet" x="400.5" y="-180.7"/>
<text text-anchor="start" x="415.5" y="-170.8" font-family="Helvetica,sans-Serif" font-size="11.00" fill="#000000">responsible_bo_partner_id</text>
<polygon fill="#ffffff" stroke="transparent" points="395.5,-141.7 395.5,-163.7 596.5,-163.7 596.5,-141.7 395.5,-141.7"/>
<polygon fill="none" stroke="#000000" points="395.5,-141.7 395.5,-163.7 596.5,-163.7 596.5,-141.7 395.5,-141.7"/>
<image xlink:href="../../images/foreignKeys.png" width="11px" height="12px" preserveAspectRatio="xMinYMin meet" x="400.5" y="-158.7"/>
<text text-anchor="start" x="415.5" y="-148.8" font-family="Helvetica,sans-Serif" font-size="11.00" fill="#000000">client_responsible_id</text>
<polygon fill="#ffffff" stroke="transparent" points="395.5,-119.7 395.5,-141.7 596.5,-141.7 596.5,-119.7 395.5,-119.7"/>
<polygon fill="none" stroke="#000000" points="395.5,-119.7 395.5,-141.7 596.5,-141.7 596.5,-119.7 395.5,-119.7"/>
<image xlink:href="../../images/foreignKeys.png" width="11px" height="12px" preserveAspectRatio="xMinYMin meet" x="400.5" y="-136.7"/>
<text text-anchor="start" x="415.5" y="-126.8" font-family="Helvetica,sans-Serif" font-size="11.00" fill="#000000">responsible_bo_team_id</text>
<polygon fill="#ffffff" stroke="transparent" points="395.5,-97.7 395.5,-119.7 596.5,-119.7 596.5,-97.7 395.5,-97.7"/>
<polygon fill="none" stroke="#000000" points="395.5,-97.7 395.5,-119.7 596.5,-119.7 596.5,-97.7 395.5,-97.7"/>
<image xlink:href="../../images/foreignKeys.png" width="11px" height="12px" preserveAspectRatio="xMinYMin meet" x="400.5" y="-114.7"/>
<text text-anchor="start" x="415.5" y="-104.8" font-family="Helvetica,sans-Serif" font-size="11.00" fill="#000000">responsible_co_team_id</text>
<polygon fill="#ffffff" stroke="transparent" points="395.5,-75.7 395.5,-97.7 596.5,-97.7 596.5,-75.7 395.5,-75.7"/>
<polygon fill="none" stroke="#000000" points="395.5,-75.7 395.5,-97.7 596.5,-97.7 596.5,-75.7 395.5,-75.7"/>
<image xlink:href="../../images/foreignKeys.png" width="11px" height="12px" preserveAspectRatio="xMinYMin meet" x="400.5" y="-92.7"/>
<text text-anchor="start" x="415.5" y="-82.8" font-family="Helvetica,sans-Serif" font-size="11.00" fill="#000000">avatar_id</text>
<polygon fill="none" stroke="#000000" points="395.5,-56.7 395.5,-75.7 596.5,-75.7 596.5,-56.7 395.5,-56.7"/>
<text text-anchor="start" x="398.5" y="-62.8" font-family="Helvetica,sans-Serif" font-size="11.00" fill="#000000">...</text>
<polygon fill="#ffffff" stroke="transparent" points="395.5,-37.7 395.5,-56.7 470.5,-56.7 470.5,-37.7 395.5,-37.7"/>
<polygon fill="none" stroke="#000000" points="395.5,-37.7 395.5,-56.7 470.5,-56.7 470.5,-37.7 395.5,-37.7"/>
<text text-anchor="start" x="398.5" y="-43.8" font-family="Helvetica,sans-Serif" font-size="11.00" fill="#000000">&lt; 9</text>
<polygon fill="#ffffff" stroke="transparent" points="470.5,-37.7 470.5,-56.7 547.5,-56.7 547.5,-37.7 470.5,-37.7"/>
<polygon fill="none" stroke="#000000" points="470.5,-37.7 470.5,-56.7 547.5,-56.7 547.5,-37.7 470.5,-37.7"/>
<text text-anchor="start" x="499.8807" y="-43.8" font-family="Helvetica,sans-Serif" font-size="11.00" fill="#000000">647 rows</text>
<polygon fill="#ffffff" stroke="transparent" points="547.5,-37.7 547.5,-56.7 596.5,-56.7 596.5,-37.7 547.5,-37.7"/>
<polygon fill="none" stroke="#000000" points="547.5,-37.7 547.5,-56.7 596.5,-56.7 596.5,-37.7 547.5,-37.7"/>
<text text-anchor="start" x="577.9053" y="-43.8" font-family="Helvetica,sans-Serif" font-size="11.00" fill="#000000">7 &gt;</text>
</a>
</g>
</g>
<!-- client_group -->
<g id="node2" class="node">
<title>client_group</title>
<g id="a_node2"><a xlink:href="../../tables/client_group.html" xlink:title="client_group" target="_top">
<polygon fill="#ffffff" stroke="transparent" points="149,-77.7 149,-299.7 346,-299.7 346,-77.7 149,-77.7"/>
<polygon fill="#f5f5f5" stroke="transparent" points="151.5,-274.7 151.5,-297.7 344.5,-297.7 344.5,-274.7 151.5,-274.7"/>
<polygon fill="none" stroke="#000000" points="151.5,-274.7 151.5,-297.7 344.5,-297.7 344.5,-274.7 151.5,-274.7"/>
<text text-anchor="start" x="156.5" y="-283.8" font-family="Helvetica,sans-Serif" font-weight="bold" font-size="11.00" fill="#000000">client_group</text>
<text text-anchor="start" x="309.5437" y="-282.8" font-family="Helvetica,sans-Serif" font-size="11.00" fill="#000000">[table]</text>
<polygon fill="none" stroke="#000000" points="151.5,-252.7 151.5,-274.7 277.5,-274.7 277.5,-252.7 151.5,-252.7"/>
<image xlink:href="../../images/primaryKeys.png" width="11px" height="12px" preserveAspectRatio="xMinYMin meet" x="156.5" y="-269.7"/>
<text text-anchor="start" x="171.5" y="-259.8" font-family="Helvetica,sans-Serif" font-size="11.00" fill="#000000">id</text>
<polygon fill="none" stroke="#000000" points="277.5,-252.7 277.5,-274.7 344.5,-274.7 344.5,-252.7 277.5,-252.7"/>
<text text-anchor="start" x="280.5" y="-260.4" font-family="Helvetica,sans-Serif" font-size="11.00" fill="#000000">bigint[19]</text>
<polygon fill="#ffffff" stroke="transparent" points="151.5,-230.7 151.5,-252.7 277.5,-252.7 277.5,-230.7 151.5,-230.7"/>
<polygon fill="none" stroke="#000000" points="151.5,-230.7 151.5,-252.7 277.5,-252.7 277.5,-230.7 151.5,-230.7"/>
<image xlink:href="../../images/foreignKeys.png" width="11px" height="12px" preserveAspectRatio="xMinYMin meet" x="156.5" y="-247.7"/>
<text text-anchor="start" x="171.5" y="-237.8" font-family="Helvetica,sans-Serif" font-size="11.00" fill="#000000">created_by</text>
<polygon fill="none" stroke="#000000" points="277.5,-230.7 277.5,-252.7 344.5,-252.7 344.5,-230.7 277.5,-230.7"/>
<text text-anchor="start" x="280.5" y="-238.4" font-family="Helvetica,sans-Serif" font-size="11.00" fill="#000000">bigint[19]</text>
<polygon fill="none" stroke="#000000" points="151.5,-208.7 151.5,-230.7 277.5,-230.7 277.5,-208.7 151.5,-208.7"/>
<text text-anchor="start" x="171.5" y="-215.8" font-family="Helvetica,sans-Serif" font-size="11.00" fill="#000000">creation_date</text>
<polygon fill="none" stroke="#000000" points="277.5,-208.7 277.5,-230.7 344.5,-230.7 344.5,-208.7 277.5,-208.7"/>
<text text-anchor="start" x="280.5" y="-216.4" font-family="Helvetica,sans-Serif" font-size="11.00" fill="#000000">datetime[26]</text>
<polygon fill="#ffffff" stroke="transparent" points="151.5,-186.7 151.5,-208.7 277.5,-208.7 277.5,-186.7 151.5,-186.7"/>
<polygon fill="none" stroke="#000000" points="151.5,-186.7 151.5,-208.7 277.5,-208.7 277.5,-186.7 151.5,-186.7"/>
<image xlink:href="../../images/foreignKeys.png" width="11px" height="12px" preserveAspectRatio="xMinYMin meet" x="156.5" y="-203.7"/>
<text text-anchor="start" x="171.5" y="-193.8" font-family="Helvetica,sans-Serif" font-size="11.00" fill="#000000">modified_by</text>
<polygon fill="none" stroke="#000000" points="277.5,-186.7 277.5,-208.7 344.5,-208.7 344.5,-186.7 277.5,-186.7"/>
<text text-anchor="start" x="280.5" y="-194.4" font-family="Helvetica,sans-Serif" font-size="11.00" fill="#000000">bigint[19]</text>
<polygon fill="none" stroke="#000000" points="151.5,-164.7 151.5,-186.7 277.5,-186.7 277.5,-164.7 151.5,-164.7"/>
<text text-anchor="start" x="171.5" y="-171.8" font-family="Helvetica,sans-Serif" font-size="11.00" fill="#000000">modification_date</text>
<polygon fill="none" stroke="#000000" points="277.5,-164.7 277.5,-186.7 344.5,-186.7 344.5,-164.7 277.5,-164.7"/>
<text text-anchor="start" x="280.5" y="-172.4" font-family="Helvetica,sans-Serif" font-size="11.00" fill="#000000">datetime[26]</text>
<polygon fill="#ffffff" stroke="transparent" points="151.5,-142.7 151.5,-164.7 277.5,-164.7 277.5,-142.7 151.5,-142.7"/>
<polygon fill="none" stroke="#000000" points="151.5,-142.7 151.5,-164.7 277.5,-164.7 277.5,-142.7 151.5,-142.7"/>
<text text-anchor="start" x="171.5" y="-149.8" font-family="Helvetica,sans-Serif" font-size="11.00" fill="#000000">name</text>
<polygon fill="none" stroke="#000000" points="277.5,-142.7 277.5,-164.7 344.5,-164.7 344.5,-142.7 277.5,-142.7"/>
<text text-anchor="start" x="280.4365" y="-150.4" font-family="Helvetica,sans-Serif" font-size="11.00" fill="#000000">varchar[255]</text>
<polygon fill="none" stroke="#000000" points="151.5,-120.7 151.5,-142.7 277.5,-142.7 277.5,-120.7 151.5,-120.7"/>
<text text-anchor="start" x="171.5" y="-127.8" font-family="Helvetica,sans-Serif" font-size="11.00" fill="#000000">additional_info</text>
<polygon fill="none" stroke="#000000" points="277.5,-120.7 277.5,-142.7 344.5,-142.7 344.5,-120.7 277.5,-120.7"/>
<text text-anchor="start" x="280.5" y="-128.4" font-family="Helvetica,sans-Serif" font-size="11.00" fill="#000000">text[65535]</text>
<polygon fill="none" stroke="#000000" points="151.5,-98.7 151.5,-120.7 277.5,-120.7 277.5,-98.7 151.5,-98.7"/>
<text text-anchor="start" x="171.5" y="-105.8" font-family="Helvetica,sans-Serif" font-size="11.00" fill="#000000">client_responsible</text>
<polygon fill="none" stroke="#000000" points="277.5,-98.7 277.5,-120.7 344.5,-120.7 344.5,-98.7 277.5,-98.7"/>
<text text-anchor="start" x="280.4365" y="-106.4" font-family="Helvetica,sans-Serif" font-size="11.00" fill="#000000">varchar[255]</text>
<polygon fill="#ffffff" stroke="transparent" points="151.5,-79.7 151.5,-98.7 202.5,-98.7 202.5,-79.7 151.5,-79.7"/>
<polygon fill="none" stroke="#000000" points="151.5,-79.7 151.5,-98.7 202.5,-98.7 202.5,-79.7 151.5,-79.7"/>
<text text-anchor="start" x="154.5" y="-85.8" font-family="Helvetica,sans-Serif" font-size="11.00" fill="#000000">&lt; 2</text>
<polygon fill="#ffffff" stroke="transparent" points="202.5,-79.7 202.5,-98.7 277.5,-98.7 277.5,-79.7 202.5,-79.7"/>
<polygon fill="none" stroke="#000000" points="202.5,-79.7 202.5,-98.7 277.5,-98.7 277.5,-79.7 202.5,-79.7"/>
<text text-anchor="start" x="235.9956" y="-85.8" font-family="Helvetica,sans-Serif" font-size="11.00" fill="#000000">16 rows</text>
<polygon fill="#ffffff" stroke="transparent" points="277.5,-79.7 277.5,-98.7 344.5,-98.7 344.5,-79.7 277.5,-79.7"/>
<polygon fill="none" stroke="#000000" points="277.5,-79.7 277.5,-98.7 344.5,-98.7 344.5,-79.7 277.5,-79.7"/>
<text text-anchor="start" x="325.9053" y="-85.8" font-family="Helvetica,sans-Serif" font-size="11.00" fill="#000000">1 &gt;</text>
<polygon fill="none" stroke="#000000" stroke-width="2" points="150,-78.7 150,-298.7 345,-298.7 345,-78.7 150,-78.7"/>
</a>
</g>
</g>
<!-- client&#45;&gt;client_group -->
<g id="edge1" class="edge">
<title>client:w&#45;&gt;client_group:e</title>
<path fill="none" stroke="#000000" d="M381.7382,-223.1793C367.4517,-234.5615 368.8247,-263.7 344.5,-263.7"/>
<polygon fill="#000000" stroke="#000000" points="387.8928,-221.1761 396.6142,-222.1232 391.6964,-219.938 395.5,-218.7 395.5,-218.7 395.5,-218.7 391.6964,-219.938 394.3858,-215.2768 387.8928,-221.1761 387.8928,-221.1761"/>
<ellipse fill="none" stroke="#000000" cx="384.8499" cy="-222.1665" rx="3.2" ry="3.2"/>
</g>
<!-- principal -->
<g id="node3" class="node">
<title>principal</title>
<g id="a_node3"><a xlink:href="../../tables/principal.html" xlink:title="principal" target="_top">
<polygon fill="#ffffff" stroke="transparent" points="8,-212.2 8,-317.2 100,-317.2 100,-212.2 8,-212.2"/>
<polygon fill="#f5f5f5" stroke="transparent" points="8,-293.7 8,-316.7 100,-316.7 100,-293.7 8,-293.7"/>
<polygon fill="none" stroke="#000000" points="8,-293.7 8,-316.7 100,-316.7 100,-293.7 8,-293.7"/>
<text text-anchor="start" x="13" y="-302.8" font-family="Helvetica,sans-Serif" font-weight="bold" font-size="11.00" fill="#000000">principal</text>
<text text-anchor="start" x="65.0437" y="-301.8" font-family="Helvetica,sans-Serif" font-size="11.00" fill="#000000">[table]</text>
<polygon fill="none" stroke="#000000" points="8,-271.7 8,-293.7 100,-293.7 100,-271.7 8,-271.7"/>
<image xlink:href="../../images/primaryKeys.png" width="11px" height="12px" preserveAspectRatio="xMinYMin meet" x="13" y="-288.7"/>
<text text-anchor="start" x="32" y="-278.8" font-family="Helvetica,sans-Serif" font-size="11.00" fill="#000000">id</text>
<polygon fill="#ffffff" stroke="transparent" points="8,-249.7 8,-271.7 100,-271.7 100,-249.7 8,-249.7"/>
<polygon fill="none" stroke="#000000" points="8,-249.7 8,-271.7 100,-271.7 100,-249.7 8,-249.7"/>
<image xlink:href="../../images/foreignKeys.png" width="11px" height="12px" preserveAspectRatio="xMinYMin meet" x="13" y="-266.7"/>
<text text-anchor="start" x="32" y="-256.8" font-family="Helvetica,sans-Serif" font-size="11.00" fill="#000000">eworker_id</text>
<polygon fill="none" stroke="#000000" points="8,-230.7 8,-249.7 100,-249.7 100,-230.7 8,-230.7"/>
<text text-anchor="start" x="11" y="-236.8" font-family="Helvetica,sans-Serif" font-size="11.00" fill="#000000">...</text>
<polygon fill="#ffffff" stroke="transparent" points="8,-211.7 8,-230.7 29,-230.7 29,-211.7 8,-211.7"/>
<polygon fill="none" stroke="#000000" points="8,-211.7 8,-230.7 29,-230.7 29,-211.7 8,-211.7"/>
<text text-anchor="start" x="10.7027" y="-217.8" font-family="Helvetica,sans-Serif" font-size="11.00" fill="#000000">&lt; 1</text>
<polygon fill="#ffffff" stroke="transparent" points="29,-211.7 29,-230.7 73,-230.7 73,-211.7 29,-211.7"/>
<polygon fill="none" stroke="#000000" points="29,-211.7 29,-230.7 73,-230.7 73,-211.7 29,-211.7"/>
<text text-anchor="start" x="31.7478" y="-217.8" font-family="Helvetica,sans-Serif" font-size="11.00" fill="#000000">18 rows</text>
<polygon fill="#ffffff" stroke="transparent" points="73,-211.7 73,-230.7 100,-230.7 100,-211.7 73,-211.7"/>
<polygon fill="none" stroke="#000000" points="73,-211.7 73,-230.7 100,-230.7 100,-211.7 73,-211.7"/>
<text text-anchor="start" x="75.6452" y="-217.8" font-family="Helvetica,sans-Serif" font-size="11.00" fill="#000000">56 &gt;</text>
</a>
</g>
</g>
<!-- client&#45;&gt;principal -->
<g id="edge2" class="edge">
<title>client:w&#45;&gt;principal:e</title>
<path fill="none" stroke="#000000" d="M380.965,-350.8945C278.4532,-353.639 237.1246,-383.7659 141,-333.7 115.2059,-320.2653 129.0831,-282.7 100,-282.7"/>
<polygon fill="#000000" stroke="#000000" points="387.5007,-350.8071 395.5482,-354.2997 391.5004,-350.7535 395.5,-350.7 395.5,-350.7 395.5,-350.7 391.5004,-350.7535 395.4518,-347.1003 387.5007,-350.8071 387.5007,-350.8071"/>
<ellipse fill="none" stroke="#000000" cx="384.301" cy="-350.8499" rx="3.2" ry="3.2"/>
</g>
<!-- client&#45;&gt;principal -->
<g id="edge3" class="edge">
<title>client:w&#45;&gt;principal:e</title>
<path fill="none" stroke="#000000" d="M380.9976,-328.8052C278.9758,-330.2844 243.3879,-346.331 141,-310.7 120.1597,-303.4476 122.0661,-282.7 100,-282.7"/>
<polygon fill="#000000" stroke="#000000" points="387.5002,-328.7581 395.5261,-332.2999 391.5001,-328.729 395.5,-328.7 395.5,-328.7 395.5,-328.7 391.5001,-328.729 395.4739,-325.1001 387.5002,-328.7581 387.5002,-328.7581"/>
<ellipse fill="none" stroke="#000000" cx="384.3003" cy="-328.7813" rx="3.2" ry="3.2"/>
</g>
<!-- client_group&#45;&gt;principal -->
<g id="edge4" class="edge">
<title>client_group:w&#45;&gt;principal:e</title>
<path fill="none" stroke="#000000" d="M137.5533,-246.0877C123.596,-256.6646 123.3139,-282.7 100,-282.7"/>
<polygon fill="#000000" stroke="#000000" points="143.8687,-244.1009 152.5804,-245.1341 147.6844,-242.9004 151.5,-241.7 151.5,-241.7 151.5,-241.7 147.6844,-242.9004 150.4196,-238.2659 143.8687,-244.1009 143.8687,-244.1009"/>
<ellipse fill="none" stroke="#000000" cx="140.8162" cy="-245.0612" rx="3.2" ry="3.2"/>
</g>
<!-- client_group&#45;&gt;principal -->
<g id="edge5" class="edge">
<title>client_group:w&#45;&gt;principal:e</title>
<path fill="none" stroke="#000000" d="M137.5119,-202.032C115.8888,-219.3534 138.1318,-282.7 100,-282.7"/>
<polygon fill="#000000" stroke="#000000" points="143.8581,-200.0667 152.565,-201.1389 147.679,-198.8833 151.5,-197.7 151.5,-197.7 151.5,-197.7 147.679,-198.8833 150.435,-194.2611 143.8581,-200.0667 143.8581,-200.0667"/>
<ellipse fill="none" stroke="#000000" cx="140.8013" cy="-201.0134" rx="3.2" ry="3.2"/>
</g>
</g>
</svg>
