<?xml version="1.0" encoding="UTF-8" standalone="no"?>
<!DOCTYPE svg PUBLIC "-//W3C//DTD SVG 1.1//EN"
 "http://www.w3.org/Graphics/SVG/1.1/DTD/svg11.dtd">
<!-- Generated by graphviz version 2.40.1 (20161225.0304)
 -->
<!-- Title: twoDegreesRelationshipsDiagram Pages: 1 -->
<svg width="1501pt" height="857pt"
 viewBox="0.00 0.00 1500.50 856.75" xmlns="http://www.w3.org/2000/svg" xmlns:xlink="http://www.w3.org/1999/xlink">
<g id="graph0" class="graph" transform="scale(1 1) rotate(0) translate(4 852.7508)">
<title>twoDegreesRelationshipsDiagram</title>
<polygon fill="#ffffff" stroke="transparent" points="-4,4 -4,-852.7508 1496.5016,-852.7508 1496.5016,4 -4,4"/>
<text text-anchor="middle" x="72.4936" y="-7.3" font-family="Helvetica,sans-Serif" font-size="11.00" fill="#000000">Generated by SchemaSpy</text>
<!-- client -->
<g id="node1" class="node">
<title>client</title>
<g id="a_node1"><a xlink:href="../../tables/client.html" xlink:title="client" target="_top">
<polygon fill="#ffffff" stroke="transparent" points="757.5016,-214.2 757.5016,-583.2 958.5016,-583.2 958.5016,-214.2 757.5016,-214.2"/>
<polygon fill="#f5f5f5" stroke="transparent" points="758.0016,-559.7 758.0016,-582.7 959.0016,-582.7 959.0016,-559.7 758.0016,-559.7"/>
<polygon fill="none" stroke="#000000" points="758.0016,-559.7 758.0016,-582.7 959.0016,-582.7 959.0016,-559.7 758.0016,-559.7"/>
<text text-anchor="start" x="763.0016" y="-568.8" font-family="Helvetica,sans-Serif" font-weight="bold" font-size="11.00" fill="#000000">client</text>
<text text-anchor="start" x="924.0453" y="-567.8" font-family="Helvetica,sans-Serif" font-size="11.00" fill="#000000">[table]</text>
<polygon fill="none" stroke="#000000" points="758.0016,-537.7 758.0016,-559.7 959.0016,-559.7 959.0016,-537.7 758.0016,-537.7"/>
<image xlink:href="../../images/primaryKeys.png" width="11px" height="12px" preserveAspectRatio="xMinYMin meet" x="763.002" y="-554.7"/>
<text text-anchor="start" x="778.0016" y="-544.8" font-family="Helvetica,sans-Serif" font-size="11.00" fill="#000000">id</text>
<polygon fill="#ffffff" stroke="transparent" points="758.0016,-515.7 758.0016,-537.7 959.0016,-537.7 959.0016,-515.7 758.0016,-515.7"/>
<polygon fill="none" stroke="#000000" points="758.0016,-515.7 758.0016,-537.7 959.0016,-537.7 959.0016,-515.7 758.0016,-515.7"/>
<image xlink:href="../../images/foreignKeys.png" width="11px" height="12px" preserveAspectRatio="xMinYMin meet" x="763.002" y="-532.7"/>
<text text-anchor="start" x="778.0016" y="-522.8" font-family="Helvetica,sans-Serif" font-size="11.00" fill="#000000">created_by</text>
<polygon fill="#ffffff" stroke="transparent" points="758.0016,-493.7 758.0016,-515.7 959.0016,-515.7 959.0016,-493.7 758.0016,-493.7"/>
<polygon fill="none" stroke="#000000" points="758.0016,-493.7 758.0016,-515.7 959.0016,-515.7 959.0016,-493.7 758.0016,-493.7"/>
<image xlink:href="../../images/foreignKeys.png" width="11px" height="12px" preserveAspectRatio="xMinYMin meet" x="763.002" y="-510.7"/>
<text text-anchor="start" x="778.0016" y="-500.8" font-family="Helvetica,sans-Serif" font-size="11.00" fill="#000000">modified_by</text>
<polygon fill="#ffffff" stroke="transparent" points="758.0016,-471.7 758.0016,-493.7 959.0016,-493.7 959.0016,-471.7 758.0016,-471.7"/>
<polygon fill="none" stroke="#000000" points="758.0016,-471.7 758.0016,-493.7 959.0016,-493.7 959.0016,-471.7 758.0016,-471.7"/>
<text text-anchor="start" x="778.0016" y="-478.8" font-family="Helvetica,sans-Serif" font-size="11.00" fill="#000000">marketplace_id</text>
<polygon fill="#ffffff" stroke="transparent" points="758.0016,-449.7 758.0016,-471.7 959.0016,-471.7 959.0016,-449.7 758.0016,-449.7"/>
<polygon fill="none" stroke="#000000" points="758.0016,-449.7 758.0016,-471.7 959.0016,-471.7 959.0016,-449.7 758.0016,-449.7"/>
<text text-anchor="start" x="778.0016" y="-456.8" font-family="Helvetica,sans-Serif" font-size="11.00" fill="#000000">name</text>
<polygon fill="#ffffff" stroke="transparent" points="758.0016,-427.7 758.0016,-449.7 959.0016,-449.7 959.0016,-427.7 758.0016,-427.7"/>
<polygon fill="none" stroke="#000000" points="758.0016,-427.7 758.0016,-449.7 959.0016,-449.7 959.0016,-427.7 758.0016,-427.7"/>
<text text-anchor="start" x="778.0016" y="-434.8" font-family="Helvetica,sans-Serif" font-size="11.00" fill="#000000">organizational_number</text>
<polygon fill="#ffffff" stroke="transparent" points="758.0016,-405.7 758.0016,-427.7 959.0016,-427.7 959.0016,-405.7 758.0016,-405.7"/>
<polygon fill="none" stroke="#000000" points="758.0016,-405.7 758.0016,-427.7 959.0016,-427.7 959.0016,-405.7 758.0016,-405.7"/>
<text text-anchor="start" x="778.0016" y="-412.8" font-family="Helvetica,sans-Serif" font-size="11.00" fill="#000000">vat_number</text>
<polygon fill="#ffffff" stroke="transparent" points="758.0016,-383.7 758.0016,-405.7 959.0016,-405.7 959.0016,-383.7 758.0016,-383.7"/>
<polygon fill="none" stroke="#000000" points="758.0016,-383.7 758.0016,-405.7 959.0016,-405.7 959.0016,-383.7 758.0016,-383.7"/>
<image xlink:href="../../images/foreignKeys.png" width="11px" height="12px" preserveAspectRatio="xMinYMin meet" x="763.002" y="-400.7"/>
<text text-anchor="start" x="778.0016" y="-390.8" font-family="Helvetica,sans-Serif" font-size="11.00" fill="#000000">client_group_id</text>
<polygon fill="#ffffff" stroke="transparent" points="758.0016,-361.7 758.0016,-383.7 959.0016,-383.7 959.0016,-361.7 758.0016,-361.7"/>
<polygon fill="none" stroke="#000000" points="758.0016,-361.7 758.0016,-383.7 959.0016,-383.7 959.0016,-361.7 758.0016,-361.7"/>
<image xlink:href="../../images/foreignKeys.png" width="11px" height="12px" preserveAspectRatio="xMinYMin meet" x="763.002" y="-378.7"/>
<text text-anchor="start" x="778.0016" y="-368.8" font-family="Helvetica,sans-Serif" font-size="11.00" fill="#000000">client_operations_developer_id</text>
<polygon fill="#ffffff" stroke="transparent" points="758.0016,-339.7 758.0016,-361.7 959.0016,-361.7 959.0016,-339.7 758.0016,-339.7"/>
<polygon fill="none" stroke="#000000" points="758.0016,-339.7 758.0016,-361.7 959.0016,-361.7 959.0016,-339.7 758.0016,-339.7"/>
<image xlink:href="../../images/foreignKeys.png" width="11px" height="12px" preserveAspectRatio="xMinYMin meet" x="763.002" y="-356.7"/>
<text text-anchor="start" x="778.0016" y="-346.8" font-family="Helvetica,sans-Serif" font-size="11.00" fill="#000000">responsible_bo_partner_id</text>
<polygon fill="#ffffff" stroke="transparent" points="758.0016,-317.7 758.0016,-339.7 959.0016,-339.7 959.0016,-317.7 758.0016,-317.7"/>
<polygon fill="none" stroke="#000000" points="758.0016,-317.7 758.0016,-339.7 959.0016,-339.7 959.0016,-317.7 758.0016,-317.7"/>
<image xlink:href="../../images/foreignKeys.png" width="11px" height="12px" preserveAspectRatio="xMinYMin meet" x="763.002" y="-334.7"/>
<text text-anchor="start" x="778.0016" y="-324.8" font-family="Helvetica,sans-Serif" font-size="11.00" fill="#000000">client_responsible_id</text>
<polygon fill="#ffffff" stroke="transparent" points="758.0016,-295.7 758.0016,-317.7 959.0016,-317.7 959.0016,-295.7 758.0016,-295.7"/>
<polygon fill="none" stroke="#000000" points="758.0016,-295.7 758.0016,-317.7 959.0016,-317.7 959.0016,-295.7 758.0016,-295.7"/>
<image xlink:href="../../images/foreignKeys.png" width="11px" height="12px" preserveAspectRatio="xMinYMin meet" x="763.002" y="-312.7"/>
<text text-anchor="start" x="778.0016" y="-302.8" font-family="Helvetica,sans-Serif" font-size="11.00" fill="#000000">responsible_bo_team_id</text>
<polygon fill="#ffffff" stroke="transparent" points="758.0016,-273.7 758.0016,-295.7 959.0016,-295.7 959.0016,-273.7 758.0016,-273.7"/>
<polygon fill="none" stroke="#000000" points="758.0016,-273.7 758.0016,-295.7 959.0016,-295.7 959.0016,-273.7 758.0016,-273.7"/>
<image xlink:href="../../images/foreignKeys.png" width="11px" height="12px" preserveAspectRatio="xMinYMin meet" x="763.002" y="-290.7"/>
<text text-anchor="start" x="778.0016" y="-280.8" font-family="Helvetica,sans-Serif" font-size="11.00" fill="#000000">responsible_co_team_id</text>
<polygon fill="#ffffff" stroke="transparent" points="758.0016,-251.7 758.0016,-273.7 959.0016,-273.7 959.0016,-251.7 758.0016,-251.7"/>
<polygon fill="none" stroke="#000000" points="758.0016,-251.7 758.0016,-273.7 959.0016,-273.7 959.0016,-251.7 758.0016,-251.7"/>
<image xlink:href="../../images/foreignKeys.png" width="11px" height="12px" preserveAspectRatio="xMinYMin meet" x="763.002" y="-268.7"/>
<text text-anchor="start" x="778.0016" y="-258.8" font-family="Helvetica,sans-Serif" font-size="11.00" fill="#000000">avatar_id</text>
<polygon fill="none" stroke="#000000" points="758.0016,-232.7 758.0016,-251.7 959.0016,-251.7 959.0016,-232.7 758.0016,-232.7"/>
<text text-anchor="start" x="761.0016" y="-238.8" font-family="Helvetica,sans-Serif" font-size="11.00" fill="#000000">...</text>
<polygon fill="#ffffff" stroke="transparent" points="758.0016,-213.7 758.0016,-232.7 833.0016,-232.7 833.0016,-213.7 758.0016,-213.7"/>
<polygon fill="none" stroke="#000000" points="758.0016,-213.7 758.0016,-232.7 833.0016,-232.7 833.0016,-213.7 758.0016,-213.7"/>
<text text-anchor="start" x="761.0016" y="-219.8" font-family="Helvetica,sans-Serif" font-size="11.00" fill="#000000">&lt; 9</text>
<polygon fill="#ffffff" stroke="transparent" points="833.0016,-213.7 833.0016,-232.7 910.0016,-232.7 910.0016,-213.7 833.0016,-213.7"/>
<polygon fill="none" stroke="#000000" points="833.0016,-213.7 833.0016,-232.7 910.0016,-232.7 910.0016,-213.7 833.0016,-213.7"/>
<text text-anchor="start" x="862.3823" y="-219.8" font-family="Helvetica,sans-Serif" font-size="11.00" fill="#000000">647 rows</text>
<polygon fill="#ffffff" stroke="transparent" points="910.0016,-213.7 910.0016,-232.7 959.0016,-232.7 959.0016,-213.7 910.0016,-213.7"/>
<polygon fill="none" stroke="#000000" points="910.0016,-213.7 910.0016,-232.7 959.0016,-232.7 959.0016,-213.7 910.0016,-213.7"/>
<text text-anchor="start" x="940.4069" y="-219.8" font-family="Helvetica,sans-Serif" font-size="11.00" fill="#000000">7 &gt;</text>
</a>
</g>
</g>
<!-- file -->
<g id="node2" class="node">
<title>file</title>
<g id="a_node2"><a xlink:href="../../tables/file.html" xlink:title="file" target="_top">
<polygon fill="#ffffff" stroke="transparent" points="608.5016,-331.2 608.5016,-392.2 706.5016,-392.2 706.5016,-331.2 608.5016,-331.2"/>
<polygon fill="#f5f5f5" stroke="transparent" points="608.5016,-368.7 608.5016,-391.7 706.5016,-391.7 706.5016,-368.7 608.5016,-368.7"/>
<polygon fill="none" stroke="#000000" points="608.5016,-368.7 608.5016,-391.7 706.5016,-391.7 706.5016,-368.7 608.5016,-368.7"/>
<text text-anchor="start" x="613.5016" y="-377.8" font-family="Helvetica,sans-Serif" font-weight="bold" font-size="11.00" fill="#000000">file</text>
<text text-anchor="start" x="671.5453" y="-376.8" font-family="Helvetica,sans-Serif" font-size="11.00" fill="#000000">[table]</text>
<polygon fill="none" stroke="#000000" points="608.5016,-349.7 608.5016,-368.7 706.5016,-368.7 706.5016,-349.7 608.5016,-349.7"/>
<text text-anchor="start" x="611.5016" y="-355.8" font-family="Helvetica,sans-Serif" font-size="11.00" fill="#000000">...</text>
<polygon fill="#ffffff" stroke="transparent" points="608.5016,-330.7 608.5016,-349.7 629.5016,-349.7 629.5016,-330.7 608.5016,-330.7"/>
<polygon fill="none" stroke="#000000" points="608.5016,-330.7 608.5016,-349.7 629.5016,-349.7 629.5016,-330.7 608.5016,-330.7"/>
<text text-anchor="start" x="611.2042" y="-336.8" font-family="Helvetica,sans-Serif" font-size="11.00" fill="#000000">&lt; 2</text>
<polygon fill="#ffffff" stroke="transparent" points="629.5016,-330.7 629.5016,-349.7 679.5016,-349.7 679.5016,-330.7 629.5016,-330.7"/>
<polygon fill="none" stroke="#000000" points="629.5016,-330.7 629.5016,-349.7 679.5016,-349.7 679.5016,-330.7 629.5016,-330.7"/>
<text text-anchor="start" x="632.1919" y="-336.8" font-family="Helvetica,sans-Serif" font-size="11.00" fill="#000000">590 rows</text>
<polygon fill="#ffffff" stroke="transparent" points="679.5016,-330.7 679.5016,-349.7 706.5016,-349.7 706.5016,-330.7 679.5016,-330.7"/>
<polygon fill="none" stroke="#000000" points="679.5016,-330.7 679.5016,-349.7 706.5016,-349.7 706.5016,-330.7 679.5016,-330.7"/>
<text text-anchor="start" x="682.1468" y="-336.8" font-family="Helvetica,sans-Serif" font-size="11.00" fill="#000000">13 &gt;</text>
</a>
</g>
</g>
<!-- client&#45;&gt;file -->
<g id="edge1" class="edge">
<title>client:w&#45;&gt;file:e</title>
<path fill="none" stroke="#000000" d="M743.8732,-266.825C719.4524,-285.2 748.8677,-358.7 706.5016,-358.7"/>
<polygon fill="#000000" stroke="#000000" points="750.3222,-264.9422 759.0105,-266.1557 754.1619,-263.8211 758.0016,-262.7 758.0016,-262.7 758.0016,-262.7 754.1619,-263.8211 756.9926,-259.2443 750.3222,-264.9422 750.3222,-264.9422"/>
<ellipse fill="none" stroke="#000000" cx="747.2504" cy="-265.839" rx="3.2" ry="3.2"/>
</g>
<!-- client_group -->
<g id="node3" class="node">
<title>client_group</title>
<g id="a_node3"><a xlink:href="../../tables/client_group.html" xlink:title="client_group" target="_top">
<polygon fill="#ffffff" stroke="transparent" points="606.5016,-495.2 606.5016,-556.2 708.5016,-556.2 708.5016,-495.2 606.5016,-495.2"/>
<polygon fill="#f5f5f5" stroke="transparent" points="606.5016,-532.7 606.5016,-555.7 708.5016,-555.7 708.5016,-532.7 606.5016,-532.7"/>
<polygon fill="none" stroke="#000000" points="606.5016,-532.7 606.5016,-555.7 708.5016,-555.7 708.5016,-532.7 606.5016,-532.7"/>
<text text-anchor="start" x="611.0491" y="-541.8" font-family="Helvetica,sans-Serif" font-weight="bold" font-size="11.00" fill="#000000">client_group</text>
<text text-anchor="start" x="674.0234" y="-540.8" font-family="Helvetica,sans-Serif" font-size="11.00" fill="#000000">[table]</text>
<polygon fill="none" stroke="#000000" points="606.5016,-513.7 606.5016,-532.7 708.5016,-532.7 708.5016,-513.7 606.5016,-513.7"/>
<text text-anchor="start" x="609.5016" y="-519.8" font-family="Helvetica,sans-Serif" font-size="11.00" fill="#000000">...</text>
<polygon fill="#ffffff" stroke="transparent" points="606.5016,-494.7 606.5016,-513.7 635.5016,-513.7 635.5016,-494.7 606.5016,-494.7"/>
<polygon fill="none" stroke="#000000" points="606.5016,-494.7 606.5016,-513.7 635.5016,-513.7 635.5016,-494.7 606.5016,-494.7"/>
<text text-anchor="start" x="609.5016" y="-500.8" font-family="Helvetica,sans-Serif" font-size="11.00" fill="#000000">&lt; 2</text>
<polygon fill="#ffffff" stroke="transparent" points="635.5016,-494.7 635.5016,-513.7 683.5016,-513.7 683.5016,-494.7 635.5016,-494.7"/>
<polygon fill="none" stroke="#000000" points="635.5016,-494.7 635.5016,-513.7 683.5016,-513.7 683.5016,-494.7 635.5016,-494.7"/>
<text text-anchor="start" x="641.9972" y="-500.8" font-family="Helvetica,sans-Serif" font-size="11.00" fill="#000000">16 rows</text>
<polygon fill="#ffffff" stroke="transparent" points="683.5016,-494.7 683.5016,-513.7 708.5016,-513.7 708.5016,-494.7 683.5016,-494.7"/>
<polygon fill="none" stroke="#000000" points="683.5016,-494.7 683.5016,-513.7 708.5016,-513.7 708.5016,-494.7 683.5016,-494.7"/>
<text text-anchor="start" x="689.9069" y="-500.8" font-family="Helvetica,sans-Serif" font-size="11.00" fill="#000000">1 &gt;</text>
</a>
</g>
</g>
<!-- client&#45;&gt;client_group -->
<g id="edge2" class="edge">
<title>client:w&#45;&gt;client_group:e</title>
<path fill="none" stroke="#000000" d="M743.7024,-398.1237C709.892,-418.4793 763.5397,-522.7 708.5016,-522.7"/>
<polygon fill="#000000" stroke="#000000" points="750.2215,-396.5629 758.8398,-398.201 754.1115,-395.6314 758.0016,-394.7 758.0016,-394.7 758.0016,-394.7 754.1115,-395.6314 757.1633,-391.199 750.2215,-396.5629 750.2215,-396.5629"/>
<ellipse fill="none" stroke="#000000" cx="747.1094" cy="-397.308" rx="3.2" ry="3.2"/>
</g>
<!-- eworker -->
<g id="node4" class="node">
<title>eworker</title>
<g id="a_node4"><a xlink:href="../../tables/eworker.html" xlink:title="eworker" target="_top">
<polygon fill="#ffffff" stroke="transparent" points="324.5016,-266.2 324.5016,-327.2 416.5016,-327.2 416.5016,-266.2 324.5016,-266.2"/>
<polygon fill="#f5f5f5" stroke="transparent" points="324.5016,-303.7 324.5016,-326.7 416.5016,-326.7 416.5016,-303.7 324.5016,-303.7"/>
<polygon fill="none" stroke="#000000" points="324.5016,-303.7 324.5016,-326.7 416.5016,-326.7 416.5016,-303.7 324.5016,-303.7"/>
<text text-anchor="start" x="329.5016" y="-312.8" font-family="Helvetica,sans-Serif" font-weight="bold" font-size="11.00" fill="#000000">eworker</text>
<text text-anchor="start" x="381.5453" y="-311.8" font-family="Helvetica,sans-Serif" font-size="11.00" fill="#000000">[table]</text>
<polygon fill="none" stroke="#000000" points="324.5016,-284.7 324.5016,-303.7 416.5016,-303.7 416.5016,-284.7 324.5016,-284.7"/>
<text text-anchor="start" x="327.5016" y="-290.8" font-family="Helvetica,sans-Serif" font-size="11.00" fill="#000000">...</text>
<polygon fill="#ffffff" stroke="transparent" points="324.5016,-265.7 324.5016,-284.7 345.5016,-284.7 345.5016,-265.7 324.5016,-265.7"/>
<polygon fill="none" stroke="#000000" points="324.5016,-265.7 324.5016,-284.7 345.5016,-284.7 345.5016,-265.7 324.5016,-265.7"/>
<text text-anchor="start" x="327.2042" y="-271.8" font-family="Helvetica,sans-Serif" font-size="11.00" fill="#000000">&lt; 4</text>
<polygon fill="#ffffff" stroke="transparent" points="345.5016,-265.7 345.5016,-284.7 395.5016,-284.7 395.5016,-265.7 345.5016,-265.7"/>
<polygon fill="none" stroke="#000000" points="345.5016,-265.7 345.5016,-284.7 395.5016,-284.7 395.5016,-265.7 345.5016,-265.7"/>
<text text-anchor="start" x="348.1919" y="-271.8" font-family="Helvetica,sans-Serif" font-size="11.00" fill="#000000">347 rows</text>
<polygon fill="#ffffff" stroke="transparent" points="395.5016,-265.7 395.5016,-284.7 416.5016,-284.7 416.5016,-265.7 395.5016,-265.7"/>
<polygon fill="none" stroke="#000000" points="395.5016,-265.7 395.5016,-284.7 416.5016,-284.7 416.5016,-265.7 395.5016,-265.7"/>
<text text-anchor="start" x="398.2042" y="-271.8" font-family="Helvetica,sans-Serif" font-size="11.00" fill="#000000">9 &gt;</text>
</a>
</g>
</g>
<!-- client&#45;&gt;eworker -->
<g id="edge3" class="edge">
<title>client:w&#45;&gt;eworker:e</title>
<path fill="none" stroke="#000000" d="M743.9898,-367.8947C732.6844,-357.2258 736.846,-331.6429 716.5016,-320.7 657.552,-288.992 483.4377,-293.7 416.5016,-293.7"/>
<polygon fill="#000000" stroke="#000000" points="750.4342,-370.1048 756.8337,-376.1053 754.2179,-371.4024 758.0016,-372.7 758.0016,-372.7 758.0016,-372.7 754.2179,-371.4024 759.1694,-369.2947 750.4342,-370.1048 750.4342,-370.1048"/>
<ellipse fill="none" stroke="#000000" cx="747.4073" cy="-369.0667" rx="3.2" ry="3.2"/>
</g>
<!-- client&#45;&gt;eworker -->
<g id="edge4" class="edge">
<title>client:w&#45;&gt;eworker:e</title>
<path fill="none" stroke="#000000" d="M743.9612,-323.8431C731.7075,-311.9481 739.1749,-281.4723 716.5016,-269.7 614.3402,-216.6565 568.6006,-239.5741 457.5016,-269.7 437.1229,-275.2259 437.6162,-293.7 416.5016,-293.7"/>
<polygon fill="#000000" stroke="#000000" points="750.4411,-326.0847 756.8247,-332.1022 754.2213,-327.3923 758.0016,-328.7 758.0016,-328.7 758.0016,-328.7 754.2213,-327.3923 759.1785,-325.2978 750.4411,-326.0847 750.4411,-326.0847"/>
<ellipse fill="none" stroke="#000000" cx="747.417" cy="-325.0385" rx="3.2" ry="3.2"/>
</g>
<!-- client&#45;&gt;eworker -->
<g id="edge7" class="edge">
<title>client:w&#45;&gt;eworker:e</title>
<path fill="none" stroke="#000000" d="M744.2836,-346.1174C732.0794,-334.8894 738.4005,-306.0941 716.5016,-294.7 614.3736,-241.5624 572.5496,-286.4965 457.5016,-290.7 439.2428,-291.3671 434.7725,-293.7 416.5016,-293.7"/>
<polygon fill="#000000" stroke="#000000" points="750.4138,-348.1652 756.8609,-354.1145 754.2077,-349.4326 758.0016,-350.7 758.0016,-350.7 758.0016,-350.7 754.2077,-349.4326 759.1422,-347.2855 750.4138,-348.1652 750.4138,-348.1652"/>
<ellipse fill="none" stroke="#000000" cx="747.3786" cy="-347.1512" rx="3.2" ry="3.2"/>
</g>
<!-- principal -->
<g id="node5" class="node">
<title>principal</title>
<g id="a_node5"><a xlink:href="../../tables/principal.html" xlink:title="principal" target="_top">
<polygon fill="#ffffff" stroke="transparent" points="465.5016,-524.2 465.5016,-585.2 557.5016,-585.2 557.5016,-524.2 465.5016,-524.2"/>
<polygon fill="#f5f5f5" stroke="transparent" points="465.5016,-561.7 465.5016,-584.7 557.5016,-584.7 557.5016,-561.7 465.5016,-561.7"/>
<polygon fill="none" stroke="#000000" points="465.5016,-561.7 465.5016,-584.7 557.5016,-584.7 557.5016,-561.7 465.5016,-561.7"/>
<text text-anchor="start" x="470.5016" y="-570.8" font-family="Helvetica,sans-Serif" font-weight="bold" font-size="11.00" fill="#000000">principal</text>
<text text-anchor="start" x="522.5453" y="-569.8" font-family="Helvetica,sans-Serif" font-size="11.00" fill="#000000">[table]</text>
<polygon fill="none" stroke="#000000" points="465.5016,-542.7 465.5016,-561.7 557.5016,-561.7 557.5016,-542.7 465.5016,-542.7"/>
<text text-anchor="start" x="468.5016" y="-548.8" font-family="Helvetica,sans-Serif" font-size="11.00" fill="#000000">...</text>
<polygon fill="#ffffff" stroke="transparent" points="465.5016,-523.7 465.5016,-542.7 486.5016,-542.7 486.5016,-523.7 465.5016,-523.7"/>
<polygon fill="none" stroke="#000000" points="465.5016,-523.7 465.5016,-542.7 486.5016,-542.7 486.5016,-523.7 465.5016,-523.7"/>
<text text-anchor="start" x="468.2042" y="-529.8" font-family="Helvetica,sans-Serif" font-size="11.00" fill="#000000">&lt; 1</text>
<polygon fill="#ffffff" stroke="transparent" points="486.5016,-523.7 486.5016,-542.7 530.5016,-542.7 530.5016,-523.7 486.5016,-523.7"/>
<polygon fill="none" stroke="#000000" points="486.5016,-523.7 486.5016,-542.7 530.5016,-542.7 530.5016,-523.7 486.5016,-523.7"/>
<text text-anchor="start" x="489.2494" y="-529.8" font-family="Helvetica,sans-Serif" font-size="11.00" fill="#000000">18 rows</text>
<polygon fill="#ffffff" stroke="transparent" points="530.5016,-523.7 530.5016,-542.7 557.5016,-542.7 557.5016,-523.7 530.5016,-523.7"/>
<polygon fill="none" stroke="#000000" points="530.5016,-523.7 530.5016,-542.7 557.5016,-542.7 557.5016,-523.7 530.5016,-523.7"/>
<text text-anchor="start" x="533.1468" y="-529.8" font-family="Helvetica,sans-Serif" font-size="11.00" fill="#000000">56 &gt;</text>
</a>
</g>
</g>
<!-- client&#45;&gt;principal -->
<g id="edge5" class="edge">
<title>client:w&#45;&gt;principal:e</title>
<path fill="none" stroke="#000000" d="M744.1355,-531.2192C730.5939,-543.5182 740.7038,-577.5486 716.5016,-590.7 670.421,-615.7401 647.2009,-610.1625 598.5016,-590.7 575.1481,-581.3669 582.651,-551.7 557.5016,-551.7"/>
<polygon fill="#000000" stroke="#000000" points="750.3953,-529.179 759.1171,-530.1228 754.1985,-527.9395 758.0016,-526.7 758.0016,-526.7 758.0016,-526.7 754.1985,-527.9395 756.886,-523.2772 750.3953,-529.179 750.3953,-529.179"/>
<ellipse fill="none" stroke="#000000" cx="747.3529" cy="-530.1707" rx="3.2" ry="3.2"/>
</g>
<!-- client&#45;&gt;principal -->
<g id="edge6" class="edge">
<title>client:w&#45;&gt;principal:e</title>
<path fill="none" stroke="#000000" d="M743.9836,-509.4331C731.0968,-521.6441 740.0385,-554.1315 716.5016,-566.7 670.2397,-591.4033 650.1417,-575.8498 598.5016,-566.7 579.3957,-563.3147 576.905,-551.7 557.5016,-551.7"/>
<polygon fill="#000000" stroke="#000000" points="750.422,-507.2593 759.1532,-508.1108 754.2118,-505.9796 758.0016,-504.7 758.0016,-504.7 758.0016,-504.7 754.2118,-505.9796 756.8499,-501.2892 750.422,-507.2593 750.422,-507.2593"/>
<ellipse fill="none" stroke="#000000" cx="747.3901" cy="-508.283" rx="3.2" ry="3.2"/>
</g>
<!-- ework_team -->
<g id="node6" class="node">
<title>ework_team</title>
<g id="a_node6"><a xlink:href="../../tables/ework_team.html" xlink:title="ework_team" target="_top">
<polygon fill="#ffffff" stroke="transparent" points="606.5016,-413.2 606.5016,-474.2 708.5016,-474.2 708.5016,-413.2 606.5016,-413.2"/>
<polygon fill="#f5f5f5" stroke="transparent" points="606.5016,-450.7 606.5016,-473.7 708.5016,-473.7 708.5016,-450.7 606.5016,-450.7"/>
<polygon fill="none" stroke="#000000" points="606.5016,-450.7 606.5016,-473.7 708.5016,-473.7 708.5016,-450.7 606.5016,-450.7"/>
<text text-anchor="start" x="611.0535" y="-459.8" font-family="Helvetica,sans-Serif" font-weight="bold" font-size="11.00" fill="#000000">ework_team</text>
<text text-anchor="start" x="674.0234" y="-458.8" font-family="Helvetica,sans-Serif" font-size="11.00" fill="#000000">[table]</text>
<polygon fill="none" stroke="#000000" points="606.5016,-431.7 606.5016,-450.7 708.5016,-450.7 708.5016,-431.7 606.5016,-431.7"/>
<text text-anchor="start" x="609.5016" y="-437.8" font-family="Helvetica,sans-Serif" font-size="11.00" fill="#000000">...</text>
<polygon fill="#ffffff" stroke="transparent" points="606.5016,-412.7 606.5016,-431.7 638.5016,-431.7 638.5016,-412.7 606.5016,-412.7"/>
<polygon fill="none" stroke="#000000" points="606.5016,-412.7 606.5016,-431.7 638.5016,-431.7 638.5016,-412.7 606.5016,-412.7"/>
<text text-anchor="start" x="609.5016" y="-418.8" font-family="Helvetica,sans-Serif" font-size="11.00" fill="#000000">&lt; 2</text>
<polygon fill="#ffffff" stroke="transparent" points="638.5016,-412.7 638.5016,-431.7 681.5016,-431.7 681.5016,-412.7 638.5016,-412.7"/>
<polygon fill="none" stroke="#000000" points="638.5016,-412.7 638.5016,-431.7 681.5016,-431.7 681.5016,-412.7 638.5016,-412.7"/>
<text text-anchor="start" x="646.1121" y="-418.8" font-family="Helvetica,sans-Serif" font-size="11.00" fill="#000000">6 rows</text>
<polygon fill="#ffffff" stroke="transparent" points="681.5016,-412.7 681.5016,-431.7 708.5016,-431.7 708.5016,-412.7 681.5016,-412.7"/>
<polygon fill="none" stroke="#000000" points="681.5016,-412.7 681.5016,-431.7 708.5016,-431.7 708.5016,-412.7 681.5016,-412.7"/>
<text text-anchor="start" x="689.9069" y="-418.8" font-family="Helvetica,sans-Serif" font-size="11.00" fill="#000000">2 &gt;</text>
</a>
</g>
</g>
<!-- client&#45;&gt;ework_team -->
<g id="edge8" class="edge">
<title>client:w&#45;&gt;ework_team:e</title>
<path fill="none" stroke="#000000" d="M743.6299,-310.0124C707.8007,-330.6473 766.0385,-440.7 708.5016,-440.7"/>
<polygon fill="#000000" stroke="#000000" points="750.2059,-308.4968 758.8101,-310.208 754.1038,-307.5984 758.0016,-306.7 758.0016,-306.7 758.0016,-306.7 754.1038,-307.5984 757.193,-303.192 750.2059,-308.4968 750.2059,-308.4968"/>
<ellipse fill="none" stroke="#000000" cx="747.0877" cy="-309.2155" rx="3.2" ry="3.2"/>
</g>
<!-- client&#45;&gt;ework_team -->
<g id="edge9" class="edge">
<title>client:w&#45;&gt;ework_team:e</title>
<path fill="none" stroke="#000000" d="M743.5994,-287.5408C699.5514,-308.684 775.4167,-440.7 708.5016,-440.7"/>
<polygon fill="#000000" stroke="#000000" points="750.1528,-286.2482 758.6983,-288.2319 754.0772,-285.4741 758.0016,-284.7 758.0016,-284.7 758.0016,-284.7 754.0772,-285.4741 757.3049,-281.1681 750.1528,-286.2482 750.1528,-286.2482"/>
<ellipse fill="none" stroke="#000000" cx="747.0133" cy="-286.8675" rx="3.2" ry="3.2"/>
</g>
<!-- file&#45;&gt;principal -->
<g id="edge32" class="edge">
<title>file:w&#45;&gt;principal:e</title>
<path fill="none" stroke="#000000" d="M593.9126,-359.9166C535.1851,-376.8021 640.5052,-546.0867 557.5016,-551.7"/>
<polygon fill="#000000" stroke="#000000" points="600.5292,-359.3649 608.8007,-362.2875 604.5154,-359.0324 608.5016,-358.7 608.5016,-358.7 608.5016,-358.7 604.5154,-359.0324 608.2024,-355.1125 600.5292,-359.3649 600.5292,-359.3649"/>
<ellipse fill="none" stroke="#000000" cx="597.3403" cy="-359.6308" rx="3.2" ry="3.2"/>
</g>
<!-- file&#45;&gt;principal -->
<g id="edge33" class="edge">
<title>file:w&#45;&gt;principal:e</title>
<path fill="none" stroke="#000000" d="M594.2826,-362.0979C534.7445,-389.0438 640.6785,-558.2625 557.5016,-551.7"/>
<polygon fill="#000000" stroke="#000000" points="600.7207,-360.5595 609.3383,-362.2014 604.6111,-359.6297 608.5016,-358.7 608.5016,-358.7 608.5016,-358.7 604.6111,-359.6297 607.6648,-355.1986 600.7207,-360.5595 600.7207,-360.5595"/>
<ellipse fill="none" stroke="#000000" cx="597.6083" cy="-361.3033" rx="3.2" ry="3.2"/>
</g>
<!-- client_group&#45;&gt;principal -->
<g id="edge20" class="edge">
<title>client_group:w&#45;&gt;principal:e</title>
<path fill="none" stroke="#000000" d="M592.087,-523.6755C580.3975,-529.3978 576.6788,-547.1531 557.5016,-551.7"/>
<polygon fill="#000000" stroke="#000000" points="598.5198,-523.2402 606.7447,-526.2918 602.5107,-522.9701 606.5016,-522.7 606.5016,-522.7 606.5016,-522.7 602.5107,-522.9701 606.2585,-519.1082 598.5198,-523.2402 598.5198,-523.2402"/>
<ellipse fill="none" stroke="#000000" cx="595.3271" cy="-523.4563" rx="3.2" ry="3.2"/>
</g>
<!-- client_group&#45;&gt;principal -->
<g id="edge21" class="edge">
<title>client_group:w&#45;&gt;principal:e</title>
<path fill="none" stroke="#000000" d="M593.5754,-529.522C580.6779,-540.3326 577.4696,-557.2234 557.5016,-551.7"/>
<polygon fill="#000000" stroke="#000000" points="599.4264,-526.434 608.1819,-525.8838 602.964,-524.567 606.5016,-522.7 606.5016,-522.7 606.5016,-522.7 602.964,-524.567 604.8212,-519.5162 599.4264,-526.434 599.4264,-526.434"/>
<ellipse fill="none" stroke="#000000" cx="596.5964" cy="-527.9276" rx="3.2" ry="3.2"/>
</g>
<!-- eworker&#45;&gt;file -->
<g id="edge28" class="edge">
<title>eworker:w&#45;&gt;file:e</title>
<path fill="none" stroke="#000000" d="M313.2284,-284.5824C303.9463,-261.5589 326.0592,-206.725 424.5016,-262.2 449.1707,-276.1018 433.1308,-302.2815 457.5016,-316.7 481.3342,-330.8001 687.3378,-307.2111 706.5016,-327.2 716.1903,-337.3059 720.5016,-358.7 706.5016,-358.7"/>
<polygon fill="#000000" stroke="#000000" points="318.2813,-288.6692 322.2377,-296.4991 321.3914,-291.1846 324.5016,-293.7 324.5016,-293.7 324.5016,-293.7 321.3914,-291.1846 326.7654,-290.9009 318.2813,-288.6692 318.2813,-288.6692"/>
<ellipse fill="none" stroke="#000000" cx="315.7932" cy="-286.6569" rx="3.2" ry="3.2"/>
</g>
<!-- eworker&#45;&gt;principal -->
<g id="edge29" class="edge">
<title>eworker:w&#45;&gt;principal:e</title>
<path fill="none" stroke="#000000" d="M318.3087,-280.598C317.5802,-253.9927 347.2298,-201.529 424.5016,-256.2 460.4759,-281.6524 438.6217,-309.8813 457.5016,-349.7 494.1579,-427.0101 534.424,-431.8109 557.5016,-514.2 561.2777,-527.6811 571.5016,-545.7 557.5016,-551.7"/>
<polygon fill="#000000" stroke="#000000" points="321.0829,-286.4672 321.2468,-295.2384 322.7922,-290.0836 324.5016,-293.7 324.5016,-293.7 324.5016,-293.7 322.7922,-290.0836 327.7563,-292.1616 321.0829,-286.4672 321.0829,-286.4672"/>
<ellipse fill="none" stroke="#000000" cx="319.7154" cy="-283.5741" rx="3.2" ry="3.2"/>
</g>
<!-- eworker&#45;&gt;principal -->
<g id="edge30" class="edge">
<title>eworker:w&#45;&gt;principal:e</title>
<path fill="none" stroke="#000000" d="M318.9866,-280.3256C323.8516,-257.7355 354.8054,-219.8889 424.5016,-269.2 460.4759,-294.6524 438.6217,-322.8813 457.5016,-362.7 494.1579,-440.0101 534.424,-444.8109 557.5016,-527.2 561.2777,-540.6811 571.5016,-558.7 557.5016,-551.7"/>
<polygon fill="#000000" stroke="#000000" points="321.4518,-286.3041 321.1734,-295.0724 322.9767,-290.002 324.5016,-293.7 324.5016,-293.7 324.5016,-293.7 322.9767,-290.002 327.8297,-292.3276 321.4518,-286.3041 321.4518,-286.3041"/>
<ellipse fill="none" stroke="#000000" cx="320.2319" cy="-283.3457" rx="3.2" ry="3.2"/>
</g>
<!-- ework_unit -->
<g id="node11" class="node">
<title>ework_unit</title>
<g id="a_node11"><a xlink:href="../../tables/ework_unit.html" xlink:title="ework_unit" target="_top">
<polygon fill="#ffffff" stroke="transparent" points="152.5016,-223.2 152.5016,-328.2 275.5016,-328.2 275.5016,-223.2 152.5016,-223.2"/>
<polygon fill="#f5f5f5" stroke="transparent" points="153.0016,-304.7 153.0016,-327.7 276.0016,-327.7 276.0016,-304.7 153.0016,-304.7"/>
<polygon fill="none" stroke="#000000" points="153.0016,-304.7 153.0016,-327.7 276.0016,-327.7 276.0016,-304.7 153.0016,-304.7"/>
<text text-anchor="start" x="158.0016" y="-313.8" font-family="Helvetica,sans-Serif" font-weight="bold" font-size="11.00" fill="#000000">ework_unit</text>
<text text-anchor="start" x="241.0453" y="-312.8" font-family="Helvetica,sans-Serif" font-size="11.00" fill="#000000">[table]</text>
<polygon fill="none" stroke="#000000" points="153.0016,-282.7 153.0016,-304.7 276.0016,-304.7 276.0016,-282.7 153.0016,-282.7"/>
<image xlink:href="../../images/primaryKeys.png" width="11px" height="12px" preserveAspectRatio="xMinYMin meet" x="158.002" y="-299.7"/>
<text text-anchor="start" x="173.0016" y="-289.8" font-family="Helvetica,sans-Serif" font-size="11.00" fill="#000000">id</text>
<polygon fill="#ffffff" stroke="transparent" points="153.0016,-260.7 153.0016,-282.7 276.0016,-282.7 276.0016,-260.7 153.0016,-260.7"/>
<polygon fill="none" stroke="#000000" points="153.0016,-260.7 153.0016,-282.7 276.0016,-282.7 276.0016,-260.7 153.0016,-260.7"/>
<image xlink:href="../../images/foreignKeys.png" width="11px" height="12px" preserveAspectRatio="xMinYMin meet" x="158.002" y="-277.7"/>
<text text-anchor="start" x="173.0016" y="-267.8" font-family="Helvetica,sans-Serif" font-size="11.00" fill="#000000">site_id</text>
<polygon fill="none" stroke="#000000" points="153.0016,-241.7 153.0016,-260.7 276.0016,-260.7 276.0016,-241.7 153.0016,-241.7"/>
<text text-anchor="start" x="156.0016" y="-247.8" font-family="Helvetica,sans-Serif" font-size="11.00" fill="#000000">...</text>
<polygon fill="#ffffff" stroke="transparent" points="153.0016,-222.7 153.0016,-241.7 192.0016,-241.7 192.0016,-222.7 153.0016,-222.7"/>
<polygon fill="none" stroke="#000000" points="153.0016,-222.7 153.0016,-241.7 192.0016,-241.7 192.0016,-222.7 153.0016,-222.7"/>
<text text-anchor="start" x="156.0016" y="-228.8" font-family="Helvetica,sans-Serif" font-size="11.00" fill="#000000">&lt; 1</text>
<polygon fill="#ffffff" stroke="transparent" points="192.0016,-222.7 192.0016,-241.7 245.0016,-241.7 245.0016,-222.7 192.0016,-222.7"/>
<polygon fill="none" stroke="#000000" points="192.0016,-222.7 192.0016,-241.7 245.0016,-241.7 245.0016,-222.7 192.0016,-222.7"/>
<text text-anchor="start" x="203.4972" y="-228.8" font-family="Helvetica,sans-Serif" font-size="11.00" fill="#000000">25 rows</text>
<polygon fill="#ffffff" stroke="transparent" points="245.0016,-222.7 245.0016,-241.7 276.0016,-241.7 276.0016,-222.7 245.0016,-222.7"/>
<polygon fill="none" stroke="#000000" points="245.0016,-222.7 245.0016,-241.7 276.0016,-241.7 276.0016,-222.7 245.0016,-222.7"/>
<text text-anchor="start" x="257.4069" y="-228.8" font-family="Helvetica,sans-Serif" font-size="11.00" fill="#000000">4 &gt;</text>
</a>
</g>
</g>
<!-- eworker&#45;&gt;ework_unit -->
<g id="edge31" class="edge">
<title>eworker:w&#45;&gt;ework_unit:e</title>
<path fill="none" stroke="#000000" d="M309.7845,-293.7C298.7902,-293.7 291.663,-293.7 276.0016,-293.7"/>
<polygon fill="#000000" stroke="#000000" points="316.5016,-293.7001 324.5016,-297.3 320.5016,-293.7 324.5016,-293.7 324.5016,-293.7 324.5016,-293.7 320.5016,-293.7 324.5015,-290.1 316.5016,-293.7001 316.5016,-293.7001"/>
<ellipse fill="none" stroke="#000000" cx="313.3016" cy="-293.7001" rx="3.2" ry="3.2"/>
</g>
<!-- principal&#45;&gt;eworker -->
<g id="edge47" class="edge">
<title>principal:w&#45;&gt;eworker:e</title>
<path fill="none" stroke="#000000" d="M451.0114,-550.0525C365.414,-528.0794 527.7469,-293.7 416.5016,-293.7"/>
<polygon fill="#000000" stroke="#000000" points="457.5528,-550.7962 465.0948,-555.277 461.5272,-551.2481 465.5016,-551.7 465.5016,-551.7 465.5016,-551.7 461.5272,-551.2481 465.9083,-548.123 457.5528,-550.7962 457.5528,-550.7962"/>
<ellipse fill="none" stroke="#000000" cx="454.3733" cy="-550.4346" rx="3.2" ry="3.2"/>
</g>
<!-- ework_team&#45;&gt;principal -->
<g id="edge25" class="edge">
<title>ework_team:w&#45;&gt;principal:e</title>
<path fill="none" stroke="#000000" d="M592.1889,-442.8425C564.4618,-458.501 605.3191,-546.3797 557.5016,-551.7"/>
<polygon fill="#000000" stroke="#000000" points="598.5897,-441.8844 607.0345,-444.2603 602.5456,-441.2922 606.5016,-440.7 606.5016,-440.7 606.5016,-440.7 602.5456,-441.2922 605.9686,-437.1397 598.5897,-441.8844 598.5897,-441.8844"/>
<ellipse fill="none" stroke="#000000" cx="595.425" cy="-442.3581" rx="3.2" ry="3.2"/>
</g>
<!-- ework_team&#45;&gt;principal -->
<g id="edge26" class="edge">
<title>ework_team:w&#45;&gt;principal:e</title>
<path fill="none" stroke="#000000" d="M592.9379,-446.125C563.735,-469.8015 605.7404,-557.9617 557.5016,-551.7"/>
<polygon fill="#000000" stroke="#000000" points="599.0737,-443.6709 607.8385,-444.0426 602.7876,-442.1855 606.5016,-440.7 606.5016,-440.7 606.5016,-440.7 602.7876,-442.1855 605.1647,-437.3574 599.0737,-443.6709 599.0737,-443.6709"/>
<ellipse fill="none" stroke="#000000" cx="596.1025" cy="-444.8593" rx="3.2" ry="3.2"/>
</g>
<!-- client_address -->
<g id="node7" class="node">
<title>client_address</title>
<g id="a_node7"><a xlink:href="../../tables/client_address.html" xlink:title="client_address" target="_top">
<polygon fill="#ffffff" stroke="transparent" points="1039.0016,-470.2 1039.0016,-531.2 1152.0016,-531.2 1152.0016,-470.2 1039.0016,-470.2"/>
<polygon fill="#f5f5f5" stroke="transparent" points="1039.5016,-507.7 1039.5016,-530.7 1152.5016,-530.7 1152.5016,-507.7 1039.5016,-507.7"/>
<polygon fill="none" stroke="#000000" points="1039.5016,-507.7 1039.5016,-530.7 1152.5016,-530.7 1152.5016,-507.7 1039.5016,-507.7"/>
<text text-anchor="start" x="1044.0491" y="-516.8" font-family="Helvetica,sans-Serif" font-weight="bold" font-size="11.00" fill="#000000">client_address</text>
<text text-anchor="start" x="1118.0234" y="-515.8" font-family="Helvetica,sans-Serif" font-size="11.00" fill="#000000">[table]</text>
<polygon fill="none" stroke="#000000" points="1039.5016,-488.7 1039.5016,-507.7 1152.5016,-507.7 1152.5016,-488.7 1039.5016,-488.7"/>
<text text-anchor="start" x="1042.5016" y="-494.8" font-family="Helvetica,sans-Serif" font-size="11.00" fill="#000000">...</text>
<polygon fill="#ffffff" stroke="transparent" points="1039.5016,-469.7 1039.5016,-488.7 1070.5016,-488.7 1070.5016,-469.7 1039.5016,-469.7"/>
<polygon fill="none" stroke="#000000" points="1039.5016,-469.7 1039.5016,-488.7 1070.5016,-488.7 1070.5016,-469.7 1039.5016,-469.7"/>
<text text-anchor="start" x="1042.5016" y="-475.8" font-family="Helvetica,sans-Serif" font-size="11.00" fill="#000000">&lt; 1</text>
<polygon fill="#ffffff" stroke="transparent" points="1070.5016,-469.7 1070.5016,-488.7 1125.5016,-488.7 1125.5016,-469.7 1070.5016,-469.7"/>
<polygon fill="none" stroke="#000000" points="1070.5016,-469.7 1070.5016,-488.7 1125.5016,-488.7 1125.5016,-469.7 1070.5016,-469.7"/>
<text text-anchor="start" x="1077.8823" y="-475.8" font-family="Helvetica,sans-Serif" font-size="11.00" fill="#000000">100 rows</text>
<polygon fill="#ffffff" stroke="transparent" points="1125.5016,-469.7 1125.5016,-488.7 1152.5016,-488.7 1152.5016,-469.7 1125.5016,-469.7"/>
<polygon fill="none" stroke="#000000" points="1125.5016,-469.7 1125.5016,-488.7 1152.5016,-488.7 1152.5016,-469.7 1125.5016,-469.7"/>
<text text-anchor="start" x="1133.9069" y="-475.8" font-family="Helvetica,sans-Serif" font-size="11.00" fill="#000000">3 &gt;</text>
</a>
</g>
</g>
<!-- client_address&#45;&gt;client -->
<g id="edge10" class="edge">
<title>client_address:w&#45;&gt;client:e</title>
<path fill="none" stroke="#000000" d="M1025.2442,-500.0239C997.4589,-510.001 995.8955,-548.7 959.0016,-548.7"/>
<polygon fill="#000000" stroke="#000000" points="1031.6058,-498.987 1040.0807,-501.2531 1035.5537,-498.3435 1039.5016,-497.7 1039.5016,-497.7 1039.5016,-497.7 1035.5537,-498.3435 1038.9224,-494.1469 1031.6058,-498.987 1031.6058,-498.987"/>
<ellipse fill="none" stroke="#000000" cx="1028.4474" cy="-499.5018" rx="3.2" ry="3.2"/>
</g>
<!-- client_contact -->
<g id="node8" class="node">
<title>client_contact</title>
<g id="a_node8"><a xlink:href="../../tables/client_contact.html" xlink:title="client_contact" target="_top">
<polygon fill="#ffffff" stroke="transparent" points="1040.5016,-580.2 1040.5016,-641.2 1150.5016,-641.2 1150.5016,-580.2 1040.5016,-580.2"/>
<polygon fill="#f5f5f5" stroke="transparent" points="1040.5016,-617.7 1040.5016,-640.7 1150.5016,-640.7 1150.5016,-617.7 1040.5016,-617.7"/>
<polygon fill="none" stroke="#000000" points="1040.5016,-617.7 1040.5016,-640.7 1150.5016,-640.7 1150.5016,-617.7 1040.5016,-617.7"/>
<text text-anchor="start" x="1045.3806" y="-626.8" font-family="Helvetica,sans-Serif" font-weight="bold" font-size="11.00" fill="#000000">client_contact</text>
<text text-anchor="start" x="1116.0234" y="-625.8" font-family="Helvetica,sans-Serif" font-size="11.00" fill="#000000">[table]</text>
<polygon fill="none" stroke="#000000" points="1040.5016,-598.7 1040.5016,-617.7 1150.5016,-617.7 1150.5016,-598.7 1040.5016,-598.7"/>
<text text-anchor="start" x="1043.5016" y="-604.8" font-family="Helvetica,sans-Serif" font-size="11.00" fill="#000000">...</text>
<polygon fill="#ffffff" stroke="transparent" points="1040.5016,-579.7 1040.5016,-598.7 1070.5016,-598.7 1070.5016,-579.7 1040.5016,-579.7"/>
<polygon fill="none" stroke="#000000" points="1040.5016,-579.7 1040.5016,-598.7 1070.5016,-598.7 1070.5016,-579.7 1040.5016,-579.7"/>
<text text-anchor="start" x="1043.5016" y="-585.8" font-family="Helvetica,sans-Serif" font-size="11.00" fill="#000000">&lt; 4</text>
<polygon fill="#ffffff" stroke="transparent" points="1070.5016,-579.7 1070.5016,-598.7 1124.5016,-598.7 1124.5016,-579.7 1070.5016,-579.7"/>
<polygon fill="none" stroke="#000000" points="1070.5016,-579.7 1070.5016,-598.7 1124.5016,-598.7 1124.5016,-579.7 1070.5016,-579.7"/>
<text text-anchor="start" x="1076.8823" y="-585.8" font-family="Helvetica,sans-Serif" font-size="11.00" fill="#000000">561 rows</text>
<polygon fill="#ffffff" stroke="transparent" points="1124.5016,-579.7 1124.5016,-598.7 1150.5016,-598.7 1150.5016,-579.7 1124.5016,-579.7"/>
<polygon fill="none" stroke="#000000" points="1124.5016,-579.7 1124.5016,-598.7 1150.5016,-598.7 1150.5016,-579.7 1124.5016,-579.7"/>
<text text-anchor="start" x="1131.9069" y="-585.8" font-family="Helvetica,sans-Serif" font-size="11.00" fill="#000000">2 &gt;</text>
</a>
</g>
</g>
<!-- client_contact&#45;&gt;client -->
<g id="edge12" class="edge">
<title>client_contact:w&#45;&gt;client:e</title>
<path fill="none" stroke="#000000" d="M1025.9949,-605.1648C996.9451,-593.8719 998.1294,-548.7 959.0016,-548.7"/>
<polygon fill="#000000" stroke="#000000" points="1032.621,-606.3228 1039.8818,-611.2463 1036.5613,-607.0114 1040.5016,-607.7 1040.5016,-607.7 1040.5016,-607.7 1036.5613,-607.0114 1041.1213,-604.1537 1032.621,-606.3228 1032.621,-606.3228"/>
<ellipse fill="none" stroke="#000000" cx="1029.4688" cy="-605.7719" rx="3.2" ry="3.2"/>
</g>
<!-- client_contact&#45;&gt;file -->
<g id="edge11" class="edge">
<title>client_contact:w&#45;&gt;file:e</title>
<path fill="none" stroke="#000000" d="M1025.7176,-608.0727C952.062,-611.3129 794.6922,-633.6475 749.5016,-593.7 669.949,-523.3774 812.6801,-358.7 706.5016,-358.7"/>
<polygon fill="#000000" stroke="#000000" points="1032.5041,-607.9017 1040.5923,-611.2989 1036.5028,-607.8008 1040.5016,-607.7 1040.5016,-607.7 1040.5016,-607.7 1036.5028,-607.8008 1040.4108,-604.1011 1032.5041,-607.9017 1032.5041,-607.9017"/>
<ellipse fill="none" stroke="#000000" cx="1029.3051" cy="-607.9823" rx="3.2" ry="3.2"/>
</g>
<!-- client_contact&#45;&gt;principal -->
<g id="edge13" class="edge">
<title>client_contact:w&#45;&gt;principal:e</title>
<path fill="none" stroke="#000000" d="M1026.045,-608.0983C1004.1784,-609.3813 994.0867,-613.3982 966.5016,-614.7 803.1061,-622.411 742.5628,-686.1848 598.5016,-608.7 571.0185,-593.918 588.7078,-551.7 557.5016,-551.7"/>
<polygon fill="#000000" stroke="#000000" points="1032.5046,-607.9204 1040.6007,-611.2986 1036.5031,-607.8102 1040.5016,-607.7 1040.5016,-607.7 1040.5016,-607.7 1036.5031,-607.8102 1040.4024,-604.1014 1032.5046,-607.9204 1032.5046,-607.9204"/>
<ellipse fill="none" stroke="#000000" cx="1029.3058" cy="-608.0085" rx="3.2" ry="3.2"/>
</g>
<!-- client_contact&#45;&gt;principal -->
<g id="edge14" class="edge">
<title>client_contact:w&#45;&gt;principal:e</title>
<path fill="none" stroke="#000000" d="M1026.0554,-607.8578C840.455,-611.9245 768.7603,-692.4839 598.5016,-604.7 572.0317,-591.0524 587.2827,-551.7 557.5016,-551.7"/>
<polygon fill="#000000" stroke="#000000" points="1032.502,-607.7874 1040.5409,-611.2998 1036.5018,-607.7437 1040.5016,-607.7 1040.5016,-607.7 1040.5016,-607.7 1036.5018,-607.7437 1040.4622,-604.1002 1032.502,-607.7874 1032.502,-607.7874"/>
<ellipse fill="none" stroke="#000000" cx="1029.3022" cy="-607.8224" rx="3.2" ry="3.2"/>
</g>
<!-- client_currency -->
<g id="node9" class="node">
<title>client_currency</title>
<g id="a_node9"><a xlink:href="../../tables/client_currency.html" xlink:title="client_currency" target="_top">
<polygon fill="#ffffff" stroke="transparent" points="1037.5016,-702.2 1037.5016,-763.2 1153.5016,-763.2 1153.5016,-702.2 1037.5016,-702.2"/>
<polygon fill="#f5f5f5" stroke="transparent" points="1037.5016,-739.7 1037.5016,-762.7 1153.5016,-762.7 1153.5016,-739.7 1037.5016,-739.7"/>
<polygon fill="none" stroke="#000000" points="1037.5016,-739.7 1037.5016,-762.7 1153.5016,-762.7 1153.5016,-739.7 1037.5016,-739.7"/>
<text text-anchor="start" x="1042.0256" y="-748.8" font-family="Helvetica,sans-Serif" font-weight="bold" font-size="11.00" fill="#000000">client_currency</text>
<text text-anchor="start" x="1119.0234" y="-747.8" font-family="Helvetica,sans-Serif" font-size="11.00" fill="#000000">[table]</text>
<polygon fill="none" stroke="#000000" points="1037.5016,-720.7 1037.5016,-739.7 1153.5016,-739.7 1153.5016,-720.7 1037.5016,-720.7"/>
<text text-anchor="start" x="1040.5016" y="-726.8" font-family="Helvetica,sans-Serif" font-size="11.00" fill="#000000">...</text>
<polygon fill="#ffffff" stroke="transparent" points="1037.5016,-701.7 1037.5016,-720.7 1077.5016,-720.7 1077.5016,-701.7 1037.5016,-701.7"/>
<polygon fill="none" stroke="#000000" points="1037.5016,-701.7 1037.5016,-720.7 1077.5016,-720.7 1077.5016,-701.7 1037.5016,-701.7"/>
<text text-anchor="start" x="1040.5016" y="-707.8" font-family="Helvetica,sans-Serif" font-size="11.00" fill="#000000">&lt; 3</text>
<polygon fill="#ffffff" stroke="transparent" points="1077.5016,-701.7 1077.5016,-720.7 1131.5016,-720.7 1131.5016,-701.7 1077.5016,-701.7"/>
<polygon fill="none" stroke="#000000" points="1077.5016,-701.7 1077.5016,-720.7 1131.5016,-720.7 1131.5016,-701.7 1077.5016,-701.7"/>
<text text-anchor="start" x="1089.9972" y="-707.8" font-family="Helvetica,sans-Serif" font-size="11.00" fill="#000000">22 rows</text>
<polygon fill="#ffffff" stroke="transparent" points="1131.5016,-701.7 1131.5016,-720.7 1153.5016,-720.7 1153.5016,-701.7 1131.5016,-701.7"/>
<polygon fill="none" stroke="#000000" points="1131.5016,-701.7 1131.5016,-720.7 1153.5016,-720.7 1153.5016,-701.7 1131.5016,-701.7"/>
<text text-anchor="start" x="1144.3878" y="-707.8" font-family="Helvetica,sans-Serif" font-size="11.00" fill="#000000"> &#160;</text>
</a>
</g>
</g>
<!-- client_currency&#45;&gt;client -->
<g id="edge15" class="edge">
<title>client_currency:w&#45;&gt;client:e</title>
<path fill="none" stroke="#000000" d="M1023.1334,-727.6673C961.2049,-707.782 1041.2056,-548.7 959.0016,-548.7"/>
<polygon fill="#000000" stroke="#000000" points="1029.5804,-728.5793 1036.9973,-733.2645 1033.541,-729.1397 1037.5016,-729.7 1037.5016,-729.7 1037.5016,-729.7 1033.541,-729.1397 1038.0059,-726.1355 1029.5804,-728.5793 1029.5804,-728.5793"/>
<ellipse fill="none" stroke="#000000" cx="1026.412" cy="-728.1311" rx="3.2" ry="3.2"/>
</g>
<!-- client_currency&#45;&gt;principal -->
<g id="edge16" class="edge">
<title>client_currency:w&#45;&gt;principal:e</title>
<path fill="none" stroke="#000000" d="M1023.004,-729.8651C915.6906,-732.0748 670.7778,-754.7898 598.5016,-695.7 546.9839,-653.5814 624.0452,-551.7 557.5016,-551.7"/>
<polygon fill="#000000" stroke="#000000" points="1029.5021,-729.7912 1037.5426,-733.2998 1033.5018,-729.7456 1037.5016,-729.7 1037.5016,-729.7 1037.5016,-729.7 1033.5018,-729.7456 1037.4605,-726.1002 1029.5021,-729.7912 1029.5021,-729.7912"/>
<ellipse fill="none" stroke="#000000" cx="1026.3023" cy="-729.8276" rx="3.2" ry="3.2"/>
</g>
<!-- client_currency&#45;&gt;principal -->
<g id="edge17" class="edge">
<title>client_currency:w&#45;&gt;principal:e</title>
<path fill="none" stroke="#000000" d="M1022.995,-729.8413C915.6252,-731.7252 670.7858,-750.8895 598.5016,-691.7 548.3378,-650.6238 622.3372,-551.7 557.5016,-551.7"/>
<polygon fill="#000000" stroke="#000000" points="1029.5019,-729.778 1037.5366,-733.2998 1033.5018,-729.739 1037.5016,-729.7 1037.5016,-729.7 1037.5016,-729.7 1033.5018,-729.739 1037.4665,-726.1002 1029.5019,-729.778 1029.5019,-729.778"/>
<ellipse fill="none" stroke="#000000" cx="1026.3021" cy="-729.8091" rx="3.2" ry="3.2"/>
</g>
<!-- client_ework_unit -->
<g id="node10" class="node">
<title>client_ework_unit</title>
<g id="a_node10"><a xlink:href="../../tables/client_ework_unit.html" xlink:title="client_ework_unit" target="_top">
<polygon fill="#ffffff" stroke="transparent" points="1007.5016,-217.7 1007.5016,-307.7 1183.5016,-307.7 1183.5016,-217.7 1007.5016,-217.7"/>
<polygon fill="#f5f5f5" stroke="transparent" points="1009.5016,-282.7 1009.5016,-305.7 1181.5016,-305.7 1181.5016,-282.7 1009.5016,-282.7"/>
<polygon fill="none" stroke="#000000" points="1009.5016,-282.7 1009.5016,-305.7 1181.5016,-305.7 1181.5016,-282.7 1009.5016,-282.7"/>
<text text-anchor="start" x="1014.5016" y="-291.8" font-family="Helvetica,sans-Serif" font-weight="bold" font-size="11.00" fill="#000000">client_ework_unit</text>
<text text-anchor="start" x="1146.5453" y="-290.8" font-family="Helvetica,sans-Serif" font-size="11.00" fill="#000000">[table]</text>
<polygon fill="#ffffff" stroke="transparent" points="1009.5016,-260.7 1009.5016,-282.7 1131.5016,-282.7 1131.5016,-260.7 1009.5016,-260.7"/>
<polygon fill="none" stroke="#000000" points="1009.5016,-260.7 1009.5016,-282.7 1131.5016,-282.7 1131.5016,-260.7 1009.5016,-260.7"/>
<image xlink:href="../../images/foreignKeys.png" width="11px" height="12px" preserveAspectRatio="xMinYMin meet" x="1014.5" y="-277.7"/>
<text text-anchor="start" x="1029.5016" y="-267.8" font-family="Helvetica,sans-Serif" font-size="11.00" fill="#000000">client_id</text>
<polygon fill="none" stroke="#000000" points="1131.5016,-260.7 1131.5016,-282.7 1181.5016,-282.7 1181.5016,-260.7 1131.5016,-260.7"/>
<text text-anchor="start" x="1134.1881" y="-268.4" font-family="Helvetica,sans-Serif" font-size="11.00" fill="#000000">bigint[19]</text>
<polygon fill="#ffffff" stroke="transparent" points="1009.5016,-238.7 1009.5016,-260.7 1131.5016,-260.7 1131.5016,-238.7 1009.5016,-238.7"/>
<polygon fill="none" stroke="#000000" points="1009.5016,-238.7 1009.5016,-260.7 1131.5016,-260.7 1131.5016,-238.7 1009.5016,-238.7"/>
<image xlink:href="../../images/foreignKeys.png" width="11px" height="12px" preserveAspectRatio="xMinYMin meet" x="1014.5" y="-255.7"/>
<text text-anchor="start" x="1029.5016" y="-245.8" font-family="Helvetica,sans-Serif" font-size="11.00" fill="#000000">unit_id</text>
<polygon fill="none" stroke="#000000" points="1131.5016,-238.7 1131.5016,-260.7 1181.5016,-260.7 1181.5016,-238.7 1131.5016,-238.7"/>
<text text-anchor="start" x="1134.1881" y="-246.4" font-family="Helvetica,sans-Serif" font-size="11.00" fill="#000000">bigint[19]</text>
<polygon fill="#ffffff" stroke="transparent" points="1009.5016,-219.7 1009.5016,-238.7 1058.5016,-238.7 1058.5016,-219.7 1009.5016,-219.7"/>
<polygon fill="none" stroke="#000000" points="1009.5016,-219.7 1009.5016,-238.7 1058.5016,-238.7 1058.5016,-219.7 1009.5016,-219.7"/>
<text text-anchor="start" x="1012.5016" y="-225.8" font-family="Helvetica,sans-Serif" font-size="11.00" fill="#000000">&lt; 2</text>
<polygon fill="#ffffff" stroke="transparent" points="1058.5016,-219.7 1058.5016,-238.7 1131.5016,-238.7 1131.5016,-219.7 1058.5016,-219.7"/>
<polygon fill="none" stroke="#000000" points="1058.5016,-219.7 1058.5016,-238.7 1131.5016,-238.7 1131.5016,-219.7 1058.5016,-219.7"/>
<text text-anchor="start" x="1089.9972" y="-225.8" font-family="Helvetica,sans-Serif" font-size="11.00" fill="#000000">16 rows</text>
<polygon fill="#ffffff" stroke="transparent" points="1131.5016,-219.7 1131.5016,-238.7 1181.5016,-238.7 1181.5016,-219.7 1131.5016,-219.7"/>
<polygon fill="none" stroke="#000000" points="1131.5016,-219.7 1131.5016,-238.7 1181.5016,-238.7 1181.5016,-219.7 1131.5016,-219.7"/>
<text text-anchor="start" x="1162.9069" y="-225.8" font-family="Helvetica,sans-Serif" font-size="11.00" fill="#000000">0 &gt;</text>
<polygon fill="none" stroke="#000000" stroke-width="2" points="1008.5016,-218.7 1008.5016,-306.7 1182.5016,-306.7 1182.5016,-218.7 1008.5016,-218.7"/>
</a>
</g>
</g>
<!-- client_ework_unit&#45;&gt;client -->
<g id="edge18" class="edge">
<title>client_ework_unit:w&#45;&gt;client:e</title>
<path fill="none" stroke="#000000" d="M996.236,-277.4855C958.7469,-317.2637 1016.1946,-548.7 959.0016,-548.7"/>
<polygon fill="#000000" stroke="#000000" points="1002.1686,-274.8982 1010.9407,-274.9998 1005.8351,-273.2991 1009.5016,-271.7 1009.5016,-271.7 1009.5016,-271.7 1005.8351,-273.2991 1008.0624,-268.4002 1002.1686,-274.8982 1002.1686,-274.8982"/>
<ellipse fill="none" stroke="#000000" cx="999.2354" cy="-276.1774" rx="3.2" ry="3.2"/>
</g>
<!-- client_ework_unit&#45;&gt;ework_unit -->
<g id="edge19" class="edge">
<title>client_ework_unit:w&#45;&gt;ework_unit:e</title>
<path fill="none" stroke="#000000" d="M995.5279,-245.0824C984.3893,-235.3256 986.1567,-212.7663 966.5016,-203.7 841.6677,-146.1181 794.9758,-189.7 657.5016,-189.7 657.5016,-189.7 657.5016,-189.7 511.5016,-189.7 420.0054,-189.7 394.9805,-208.6616 316.5016,-255.7 295.3305,-268.3894 300.6842,-293.7 276.0016,-293.7"/>
<polygon fill="#000000" stroke="#000000" points="1001.9055,-247.1899 1008.372,-253.1182 1005.7036,-248.4449 1009.5016,-249.7 1009.5016,-249.7 1009.5016,-249.7 1005.7036,-248.4449 1010.6311,-246.2818 1001.9055,-247.1899 1001.9055,-247.1899"/>
<ellipse fill="none" stroke="#000000" cx="998.8671" cy="-246.1858" rx="3.2" ry="3.2"/>
</g>
<!-- ework_site -->
<g id="node13" class="node">
<title>ework_site</title>
<g id="a_node13"><a xlink:href="../../tables/ework_site.html" xlink:title="ework_site" target="_top">
<polygon fill="#ffffff" stroke="transparent" points="8.5016,-524.2 8.5016,-585.2 103.5016,-585.2 103.5016,-524.2 8.5016,-524.2"/>
<polygon fill="#f5f5f5" stroke="transparent" points="9.0016,-561.7 9.0016,-584.7 104.0016,-584.7 104.0016,-561.7 9.0016,-561.7"/>
<polygon fill="none" stroke="#000000" points="9.0016,-561.7 9.0016,-584.7 104.0016,-584.7 104.0016,-561.7 9.0016,-561.7"/>
<text text-anchor="start" x="13.7215" y="-570.8" font-family="Helvetica,sans-Serif" font-weight="bold" font-size="11.00" fill="#000000">ework_site</text>
<text text-anchor="start" x="69.5234" y="-569.8" font-family="Helvetica,sans-Serif" font-size="11.00" fill="#000000">[table]</text>
<polygon fill="none" stroke="#000000" points="9.0016,-542.7 9.0016,-561.7 104.0016,-561.7 104.0016,-542.7 9.0016,-542.7"/>
<text text-anchor="start" x="12.0016" y="-548.8" font-family="Helvetica,sans-Serif" font-size="11.00" fill="#000000">...</text>
<polygon fill="#ffffff" stroke="transparent" points="9.0016,-523.7 9.0016,-542.7 37.0016,-542.7 37.0016,-523.7 9.0016,-523.7"/>
<polygon fill="none" stroke="#000000" points="9.0016,-523.7 9.0016,-542.7 37.0016,-542.7 37.0016,-523.7 9.0016,-523.7"/>
<text text-anchor="start" x="12.0016" y="-529.8" font-family="Helvetica,sans-Serif" font-size="11.00" fill="#000000">&lt; 3</text>
<polygon fill="#ffffff" stroke="transparent" points="37.0016,-523.7 37.0016,-542.7 79.0016,-542.7 79.0016,-523.7 37.0016,-523.7"/>
<polygon fill="none" stroke="#000000" points="37.0016,-523.7 37.0016,-542.7 79.0016,-542.7 79.0016,-523.7 37.0016,-523.7"/>
<text text-anchor="start" x="43.6121" y="-529.8" font-family="Helvetica,sans-Serif" font-size="11.00" fill="#000000">9 rows</text>
<polygon fill="#ffffff" stroke="transparent" points="79.0016,-523.7 79.0016,-542.7 104.0016,-542.7 104.0016,-523.7 79.0016,-523.7"/>
<polygon fill="none" stroke="#000000" points="79.0016,-523.7 79.0016,-542.7 104.0016,-542.7 104.0016,-523.7 79.0016,-523.7"/>
<text text-anchor="start" x="85.4069" y="-529.8" font-family="Helvetica,sans-Serif" font-size="11.00" fill="#000000">1 &gt;</text>
</a>
</g>
</g>
<!-- ework_unit&#45;&gt;ework_site -->
<g id="edge27" class="edge">
<title>ework_unit:w&#45;&gt;ework_site:e</title>
<path fill="none" stroke="#000000" d="M138.4916,-273.2065C43.5596,-295.2455 224.9087,-551.7 104.0016,-551.7"/>
<polygon fill="#000000" stroke="#000000" points="145.0443,-272.5262 153.3734,-275.2808 149.023,-272.1131 153.0016,-271.7 153.0016,-271.7 153.0016,-271.7 149.023,-272.1131 152.6298,-268.1192 145.0443,-272.5262 145.0443,-272.5262"/>
<ellipse fill="none" stroke="#000000" cx="141.8614" cy="-272.8567" rx="3.2" ry="3.2"/>
</g>
<!-- client_unit -->
<g id="node12" class="node">
<title>client_unit</title>
<g id="a_node12"><a xlink:href="../../tables/client_unit.html" xlink:title="client_unit" target="_top">
<polygon fill="#ffffff" stroke="transparent" points="1049.5016,-360.2 1049.5016,-421.2 1141.5016,-421.2 1141.5016,-360.2 1049.5016,-360.2"/>
<polygon fill="#f5f5f5" stroke="transparent" points="1049.5016,-397.7 1049.5016,-420.7 1141.5016,-420.7 1141.5016,-397.7 1049.5016,-397.7"/>
<polygon fill="none" stroke="#000000" points="1049.5016,-397.7 1049.5016,-420.7 1141.5016,-420.7 1141.5016,-397.7 1049.5016,-397.7"/>
<text text-anchor="start" x="1054.2461" y="-406.8" font-family="Helvetica,sans-Serif" font-weight="bold" font-size="11.00" fill="#000000">client_unit</text>
<text text-anchor="start" x="1107.0234" y="-405.8" font-family="Helvetica,sans-Serif" font-size="11.00" fill="#000000">[table]</text>
<polygon fill="none" stroke="#000000" points="1049.5016,-378.7 1049.5016,-397.7 1141.5016,-397.7 1141.5016,-378.7 1049.5016,-378.7"/>
<text text-anchor="start" x="1052.5016" y="-384.8" font-family="Helvetica,sans-Serif" font-size="11.00" fill="#000000">...</text>
<polygon fill="#ffffff" stroke="transparent" points="1049.5016,-359.7 1049.5016,-378.7 1070.5016,-378.7 1070.5016,-359.7 1049.5016,-359.7"/>
<polygon fill="none" stroke="#000000" points="1049.5016,-359.7 1049.5016,-378.7 1070.5016,-378.7 1070.5016,-359.7 1049.5016,-359.7"/>
<text text-anchor="start" x="1052.2042" y="-365.8" font-family="Helvetica,sans-Serif" font-size="11.00" fill="#000000">&lt; 2</text>
<polygon fill="#ffffff" stroke="transparent" points="1070.5016,-359.7 1070.5016,-378.7 1120.5016,-378.7 1120.5016,-359.7 1070.5016,-359.7"/>
<polygon fill="none" stroke="#000000" points="1070.5016,-359.7 1070.5016,-378.7 1120.5016,-378.7 1120.5016,-359.7 1070.5016,-359.7"/>
<text text-anchor="start" x="1073.1919" y="-365.8" font-family="Helvetica,sans-Serif" font-size="11.00" fill="#000000">117 rows</text>
<polygon fill="#ffffff" stroke="transparent" points="1120.5016,-359.7 1120.5016,-378.7 1141.5016,-378.7 1141.5016,-359.7 1120.5016,-359.7"/>
<polygon fill="none" stroke="#000000" points="1120.5016,-359.7 1120.5016,-378.7 1141.5016,-378.7 1141.5016,-359.7 1120.5016,-359.7"/>
<text text-anchor="start" x="1123.2042" y="-365.8" font-family="Helvetica,sans-Serif" font-size="11.00" fill="#000000">4 &gt;</text>
</a>
</g>
</g>
<!-- client_unit&#45;&gt;client -->
<g id="edge22" class="edge">
<title>client_unit:w&#45;&gt;client:e</title>
<path fill="none" stroke="#000000" d="M1035.1387,-389.8255C1017.3173,-395.9574 1013.1781,-414.5946 999.5016,-435.7 970.4889,-480.472 1012.352,-548.7 959.0016,-548.7"/>
<polygon fill="#000000" stroke="#000000" points="1041.5877,-388.8712 1050.0286,-391.2612 1045.5447,-388.2856 1049.5016,-387.7 1049.5016,-387.7 1049.5016,-387.7 1045.5447,-388.2856 1048.9745,-384.1388 1041.5877,-388.8712 1041.5877,-388.8712"/>
<ellipse fill="none" stroke="#000000" cx="1038.4222" cy="-389.3397" rx="3.2" ry="3.2"/>
</g>
<!-- ework_site&#45;&gt;principal -->
<g id="edge23" class="edge">
<title>ework_site:w&#45;&gt;principal:e</title>
<path fill="none" stroke="#000000" d="M0,-540.2808C.3345,-533.5198 3.8971,-525.3044 9.0016,-520.2 181.3785,-347.8231 385.1246,-347.8231 557.5016,-520.2 567.4011,-530.0995 571.5016,-551.7 557.5016,-551.7"/>
<polygon fill="#000000" stroke="#000000" points="4.049,-545.4173 6.1743,-553.9287 6.5253,-548.5586 9.0016,-551.7 9.0016,-551.7 9.0016,-551.7 6.5253,-548.5586 11.8288,-549.4713 4.049,-545.4173 4.049,-545.4173"/>
<ellipse fill="none" stroke="#000000" cx="2.068" cy="-542.9042" rx="3.2" ry="3.2"/>
</g>
<!-- ework_site&#45;&gt;principal -->
<g id="edge24" class="edge">
<title>ework_site:w&#45;&gt;principal:e</title>
<path fill="none" stroke="#000000" d="M0,-540.2808C.3345,-533.5198 3.8971,-525.3044 9.0016,-520.2 181.3785,-347.8231 385.1246,-347.8231 557.5016,-520.2 567.4011,-530.0995 571.5016,-551.7 557.5016,-551.7"/>
<polygon fill="#000000" stroke="#000000" points="4.049,-545.4173 6.1743,-553.9287 6.5253,-548.5586 9.0016,-551.7 9.0016,-551.7 9.0016,-551.7 6.5253,-548.5586 11.8288,-549.4713 4.049,-545.4173 4.049,-545.4173"/>
<ellipse fill="none" stroke="#000000" cx="2.068" cy="-542.9042" rx="3.2" ry="3.2"/>
</g>
<!-- job_request -->
<g id="node14" class="node">
<title>job_request</title>
<g id="a_node14"><a xlink:href="../../tables/job_request.html" xlink:title="job_request" target="_top">
<polygon fill="#ffffff" stroke="transparent" points="1232.5016,-470.2 1232.5016,-531.2 1332.5016,-531.2 1332.5016,-470.2 1232.5016,-470.2"/>
<polygon fill="#f5f5f5" stroke="transparent" points="1232.5016,-507.7 1232.5016,-530.7 1332.5016,-530.7 1332.5016,-507.7 1232.5016,-507.7"/>
<polygon fill="none" stroke="#000000" points="1232.5016,-507.7 1232.5016,-530.7 1332.5016,-530.7 1332.5016,-507.7 1232.5016,-507.7"/>
<text text-anchor="start" x="1237.2696" y="-516.8" font-family="Helvetica,sans-Serif" font-weight="bold" font-size="11.00" fill="#000000">job_request</text>
<text text-anchor="start" x="1298.0234" y="-515.8" font-family="Helvetica,sans-Serif" font-size="11.00" fill="#000000">[table]</text>
<polygon fill="none" stroke="#000000" points="1232.5016,-488.7 1232.5016,-507.7 1332.5016,-507.7 1332.5016,-488.7 1232.5016,-488.7"/>
<text text-anchor="start" x="1235.5016" y="-494.8" font-family="Helvetica,sans-Serif" font-size="11.00" fill="#000000">...</text>
<polygon fill="#ffffff" stroke="transparent" points="1232.5016,-469.7 1232.5016,-488.7 1260.5016,-488.7 1260.5016,-469.7 1232.5016,-469.7"/>
<polygon fill="none" stroke="#000000" points="1232.5016,-469.7 1232.5016,-488.7 1260.5016,-488.7 1260.5016,-469.7 1232.5016,-469.7"/>
<text text-anchor="start" x="1235.5016" y="-475.8" font-family="Helvetica,sans-Serif" font-size="11.00" fill="#000000">&lt; 11</text>
<polygon fill="#ffffff" stroke="transparent" points="1260.5016,-469.7 1260.5016,-488.7 1310.5016,-488.7 1310.5016,-469.7 1260.5016,-469.7"/>
<polygon fill="none" stroke="#000000" points="1260.5016,-469.7 1260.5016,-488.7 1310.5016,-488.7 1310.5016,-469.7 1260.5016,-469.7"/>
<text text-anchor="start" x="1263.1919" y="-475.8" font-family="Helvetica,sans-Serif" font-size="11.00" fill="#000000">254 rows</text>
<polygon fill="#ffffff" stroke="transparent" points="1310.5016,-469.7 1310.5016,-488.7 1332.5016,-488.7 1332.5016,-469.7 1310.5016,-469.7"/>
<polygon fill="none" stroke="#000000" points="1310.5016,-469.7 1310.5016,-488.7 1332.5016,-488.7 1332.5016,-469.7 1310.5016,-469.7"/>
<text text-anchor="start" x="1313.9069" y="-475.8" font-family="Helvetica,sans-Serif" font-size="11.00" fill="#000000">7 &gt;</text>
</a>
</g>
</g>
<!-- job_request&#45;&gt;client -->
<g id="edge35" class="edge">
<title>job_request:w&#45;&gt;client:e</title>
<path fill="none" stroke="#000000" d="M1218.8664,-493.038C1209.2625,-484.4765 1208.8493,-466.5029 1191.5016,-459.7 1151.7799,-444.1232 1035.3795,-436.6085 999.5016,-459.7 962.9578,-483.2201 1002.4601,-548.7 959.0016,-548.7"/>
<polygon fill="#000000" stroke="#000000" points="1224.9318,-495.1118 1231.3369,-501.1064 1228.7167,-496.4059 1232.5016,-497.7 1232.5016,-497.7 1232.5016,-497.7 1228.7167,-496.4059 1233.6663,-494.2936 1224.9318,-495.1118 1224.9318,-495.1118"/>
<ellipse fill="none" stroke="#000000" cx="1221.9039" cy="-494.0765" rx="3.2" ry="3.2"/>
</g>
<!-- job_request&#45;&gt;eworker -->
<g id="edge36" class="edge">
<title>job_request:w&#45;&gt;eworker:e</title>
<path fill="none" stroke="#000000" d="M1218.7675,-492.7862C1178.1808,-458.01 1233.6137,-249.1863 1191.5016,-206.7 1085.991,-100.2521 1007.8804,-156.7 858.0016,-156.7 858.0016,-156.7 858.0016,-156.7 657.5016,-156.7 561.2622,-156.7 533.6841,-180.8932 457.5016,-239.7 433.6478,-258.1132 446.6354,-293.7 416.5016,-293.7"/>
<polygon fill="#000000" stroke="#000000" points="1224.9692,-495.005 1231.2888,-501.0896 1228.7354,-496.3525 1232.5016,-497.7 1232.5016,-497.7 1232.5016,-497.7 1228.7354,-496.3525 1233.7143,-494.3104 1224.9692,-495.005 1224.9692,-495.005"/>
<ellipse fill="none" stroke="#000000" cx="1221.9562" cy="-493.927" rx="3.2" ry="3.2"/>
</g>
<!-- job_request&#45;&gt;eworker -->
<g id="edge38" class="edge">
<title>job_request:w&#45;&gt;eworker:e</title>
<path fill="none" stroke="#000000" d="M1218.9322,-492.8631C1178.7501,-458.63 1232.6062,-253.0453 1191.5016,-210.7 1120.8112,-137.8761 1067.6192,-180.3987 966.5016,-171.7 870.412,-163.4339 845.2423,-160.0705 749.5016,-171.7 616.8121,-187.8176 570.5458,-172.3749 457.5016,-243.7 433.1969,-259.035 445.2396,-293.7 416.5016,-293.7"/>
<polygon fill="#000000" stroke="#000000" points="1224.966,-495.0139 1231.2928,-501.091 1228.7338,-496.3569 1232.5016,-497.7 1232.5016,-497.7 1232.5016,-497.7 1228.7338,-496.3569 1233.7103,-494.309 1224.966,-495.0139 1224.966,-495.0139"/>
<ellipse fill="none" stroke="#000000" cx="1221.9518" cy="-493.9394" rx="3.2" ry="3.2"/>
</g>
<!-- job_request&#45;&gt;principal -->
<g id="edge37" class="edge">
<title>job_request:w&#45;&gt;principal:e</title>
<path fill="none" stroke="#000000" d="M1218.0717,-499.839C1174.8236,-515.4289 1243.0525,-612.078 1191.5016,-651.7 1139.2498,-691.8607 653.4835,-676.0333 598.5016,-639.7 562.5037,-615.9118 600.6493,-551.7 557.5016,-551.7"/>
<polygon fill="#000000" stroke="#000000" points="1224.588,-498.8731 1233.0295,-501.2611 1228.5448,-498.2865 1232.5016,-497.7 1232.5016,-497.7 1232.5016,-497.7 1228.5448,-498.2865 1231.9737,-494.1389 1224.588,-498.8731 1224.588,-498.8731"/>
<ellipse fill="none" stroke="#000000" cx="1221.4226" cy="-499.3423" rx="3.2" ry="3.2"/>
</g>
<!-- job_request&#45;&gt;principal -->
<g id="edge39" class="edge">
<title>job_request:w&#45;&gt;principal:e</title>
<path fill="none" stroke="#000000" d="M1218.1364,-499.8835C1176.3656,-515.3851 1241.8236,-609.2867 1191.5016,-647.7 1139.1172,-687.6876 653.3312,-672.2628 598.5016,-635.7 563.9385,-612.6518 599.0446,-551.7 557.5016,-551.7"/>
<polygon fill="#000000" stroke="#000000" points="1224.5924,-498.9022 1233.0426,-501.2591 1228.547,-498.3011 1232.5016,-497.7 1232.5016,-497.7 1232.5016,-497.7 1228.547,-498.3011 1231.9606,-494.1409 1224.5924,-498.9022 1224.5924,-498.9022"/>
<ellipse fill="none" stroke="#000000" cx="1221.4287" cy="-499.3831" rx="3.2" ry="3.2"/>
</g>
<!-- job_request&#45;&gt;client_contact -->
<g id="edge34" class="edge">
<title>job_request:w&#45;&gt;client_contact:e</title>
<path fill="none" stroke="#000000" d="M1218.1042,-500.3106C1178.0087,-516.9684 1205.882,-607.7 1150.5016,-607.7"/>
<polygon fill="#000000" stroke="#000000" points="1224.6299,-499.1274 1233.1439,-501.2422 1228.5657,-498.4137 1232.5016,-497.7 1232.5016,-497.7 1232.5016,-497.7 1228.5657,-498.4137 1231.8592,-494.1578 1224.6299,-499.1274 1224.6299,-499.1274"/>
<ellipse fill="none" stroke="#000000" cx="1221.4813" cy="-499.6983" rx="3.2" ry="3.2"/>
</g>
<!-- job_request&#45;&gt;ework_unit -->
<g id="edge41" class="edge">
<title>job_request:w&#45;&gt;ework_unit:e</title>
<path fill="none" stroke="#000000" d="M1218.7443,-503.0743C1181.6732,-538.3217 1233.647,-736.167 1191.5016,-773.7 1014.1736,-931.6209 894.9551,-790.7 657.5016,-790.7 657.5016,-790.7 657.5016,-790.7 511.5016,-790.7 450.3936,-790.7 337.1096,-293.7 276.0016,-293.7"/>
<polygon fill="#000000" stroke="#000000" points="1225.05,-500.611 1233.8115,-501.0532 1228.7758,-499.1555 1232.5016,-497.7 1232.5016,-497.7 1232.5016,-497.7 1228.7758,-499.1555 1231.1916,-494.3468 1225.05,-500.611 1225.05,-500.611"/>
<ellipse fill="none" stroke="#000000" cx="1222.0693" cy="-501.7754" rx="3.2" ry="3.2"/>
</g>
<!-- rate_card -->
<g id="node15" class="node">
<title>rate_card</title>
<g id="a_node15"><a xlink:href="../../tables/rate_card.html" xlink:title="rate_card" target="_top">
<polygon fill="#ffffff" stroke="transparent" points="812.0016,-38.2 812.0016,-99.2 904.0016,-99.2 904.0016,-38.2 812.0016,-38.2"/>
<polygon fill="#f5f5f5" stroke="transparent" points="812.0016,-75.7 812.0016,-98.7 904.0016,-98.7 904.0016,-75.7 812.0016,-75.7"/>
<polygon fill="none" stroke="#000000" points="812.0016,-75.7 812.0016,-98.7 904.0016,-98.7 904.0016,-75.7 812.0016,-75.7"/>
<text text-anchor="start" x="817.0016" y="-84.8" font-family="Helvetica,sans-Serif" font-weight="bold" font-size="11.00" fill="#000000">rate_card</text>
<text text-anchor="start" x="869.0453" y="-83.8" font-family="Helvetica,sans-Serif" font-size="11.00" fill="#000000">[table]</text>
<polygon fill="none" stroke="#000000" points="812.0016,-56.7 812.0016,-75.7 904.0016,-75.7 904.0016,-56.7 812.0016,-56.7"/>
<text text-anchor="start" x="815.0016" y="-62.8" font-family="Helvetica,sans-Serif" font-size="11.00" fill="#000000">...</text>
<polygon fill="#ffffff" stroke="transparent" points="812.0016,-37.7 812.0016,-56.7 833.0016,-56.7 833.0016,-37.7 812.0016,-37.7"/>
<polygon fill="none" stroke="#000000" points="812.0016,-37.7 812.0016,-56.7 833.0016,-56.7 833.0016,-37.7 812.0016,-37.7"/>
<text text-anchor="start" x="814.7042" y="-43.8" font-family="Helvetica,sans-Serif" font-size="11.00" fill="#000000">&lt; 1</text>
<polygon fill="#ffffff" stroke="transparent" points="833.0016,-37.7 833.0016,-56.7 883.0016,-56.7 883.0016,-37.7 833.0016,-37.7"/>
<polygon fill="none" stroke="#000000" points="833.0016,-37.7 833.0016,-56.7 883.0016,-56.7 883.0016,-37.7 833.0016,-37.7"/>
<text text-anchor="start" x="835.6919" y="-43.8" font-family="Helvetica,sans-Serif" font-size="11.00" fill="#000000">239 rows</text>
<polygon fill="#ffffff" stroke="transparent" points="883.0016,-37.7 883.0016,-56.7 904.0016,-56.7 904.0016,-37.7 883.0016,-37.7"/>
<polygon fill="none" stroke="#000000" points="883.0016,-37.7 883.0016,-56.7 904.0016,-56.7 904.0016,-37.7 883.0016,-37.7"/>
<text text-anchor="start" x="885.7042" y="-43.8" font-family="Helvetica,sans-Serif" font-size="11.00" fill="#000000">1 &gt;</text>
</a>
</g>
</g>
<!-- job_request&#45;&gt;rate_card -->
<g id="edge40" class="edge">
<title>job_request:w&#45;&gt;rate_card:e</title>
<path fill="none" stroke="#000000" d="M1218.4227,-493.7108C1164.4457,-458.2401 1240.2757,-196.8769 1191.5016,-140.7 1104.9267,-40.9851 1036.0556,-65.7 904.0016,-65.7"/>
<polygon fill="#000000" stroke="#000000" points="1224.8046,-495.5191 1231.5201,-501.1636 1228.6531,-496.6095 1232.5016,-497.7 1232.5016,-497.7 1232.5016,-497.7 1228.6531,-496.6095 1233.483,-494.2364 1224.8046,-495.5191 1224.8046,-495.5191"/>
<ellipse fill="none" stroke="#000000" cx="1221.7258" cy="-494.6467" rx="3.2" ry="3.2"/>
</g>
<!-- rate_card&#45;&gt;ework_unit -->
<g id="edge48" class="edge">
<title>rate_card:w&#45;&gt;ework_unit:e</title>
<path fill="none" stroke="#000000" d="M797.5854,-65.6289C580.9561,-63.5114 465.1395,-15.9897 316.5016,-179.7 280.3578,-219.5088 329.7706,-293.7 276.0016,-293.7"/>
<polygon fill="#000000" stroke="#000000" points="804.0017,-65.6605 811.9838,-69.3 808.0016,-65.6802 812.0016,-65.7 812.0016,-65.7 812.0016,-65.7 808.0016,-65.6802 812.0193,-62.1 804.0017,-65.6605 804.0017,-65.6605"/>
<ellipse fill="none" stroke="#000000" cx="800.8017" cy="-65.6447" rx="3.2" ry="3.2"/>
</g>
<!-- presentation -->
<g id="node16" class="node">
<title>presentation</title>
<g id="a_node16"><a xlink:href="../../tables/presentation.html" xlink:title="presentation" target="_top">
<polygon fill="#ffffff" stroke="transparent" points="1381.5016,-528.2 1381.5016,-589.2 1484.5016,-589.2 1484.5016,-528.2 1381.5016,-528.2"/>
<polygon fill="#f5f5f5" stroke="transparent" points="1382.0016,-565.7 1382.0016,-588.7 1485.0016,-588.7 1485.0016,-565.7 1382.0016,-565.7"/>
<polygon fill="none" stroke="#000000" points="1382.0016,-565.7 1382.0016,-588.7 1485.0016,-588.7 1485.0016,-565.7 1382.0016,-565.7"/>
<text text-anchor="start" x="1386.7411" y="-574.8" font-family="Helvetica,sans-Serif" font-weight="bold" font-size="11.00" fill="#000000">presentation</text>
<text text-anchor="start" x="1450.5234" y="-573.8" font-family="Helvetica,sans-Serif" font-size="11.00" fill="#000000">[table]</text>
<polygon fill="none" stroke="#000000" points="1382.0016,-546.7 1382.0016,-565.7 1485.0016,-565.7 1485.0016,-546.7 1382.0016,-546.7"/>
<text text-anchor="start" x="1385.0016" y="-552.8" font-family="Helvetica,sans-Serif" font-size="11.00" fill="#000000">...</text>
<polygon fill="#ffffff" stroke="transparent" points="1382.0016,-527.7 1382.0016,-546.7 1411.0016,-546.7 1411.0016,-527.7 1382.0016,-527.7"/>
<polygon fill="none" stroke="#000000" points="1382.0016,-527.7 1382.0016,-546.7 1411.0016,-546.7 1411.0016,-527.7 1382.0016,-527.7"/>
<text text-anchor="start" x="1385.0016" y="-533.8" font-family="Helvetica,sans-Serif" font-size="11.00" fill="#000000">&lt; 5</text>
<polygon fill="#ffffff" stroke="transparent" points="1411.0016,-527.7 1411.0016,-546.7 1459.0016,-546.7 1459.0016,-527.7 1411.0016,-527.7"/>
<polygon fill="none" stroke="#000000" points="1411.0016,-527.7 1411.0016,-546.7 1459.0016,-546.7 1459.0016,-527.7 1411.0016,-527.7"/>
<text text-anchor="start" x="1417.4972" y="-533.8" font-family="Helvetica,sans-Serif" font-size="11.00" fill="#000000">16 rows</text>
<polygon fill="#ffffff" stroke="transparent" points="1459.0016,-527.7 1459.0016,-546.7 1485.0016,-546.7 1485.0016,-527.7 1459.0016,-527.7"/>
<polygon fill="none" stroke="#000000" points="1459.0016,-527.7 1459.0016,-546.7 1485.0016,-546.7 1485.0016,-527.7 1459.0016,-527.7"/>
<text text-anchor="start" x="1466.4069" y="-533.8" font-family="Helvetica,sans-Serif" font-size="11.00" fill="#000000">2 &gt;</text>
</a>
</g>
</g>
<!-- presentation&#45;&gt;client -->
<g id="edge46" class="edge">
<title>presentation:w&#45;&gt;client:e</title>
<path fill="none" stroke="#000000" d="M1367.4175,-555.6857C1191.4019,-555.3357 1142.0696,-548.7 959.0016,-548.7"/>
<polygon fill="#000000" stroke="#000000" points="1374.0016,-555.6921 1381.998,-559.3 1378.0016,-555.696 1382.0016,-555.7 1382.0016,-555.7 1382.0016,-555.7 1378.0016,-555.696 1382.0051,-552.1 1374.0016,-555.6921 1374.0016,-555.6921"/>
<ellipse fill="none" stroke="#000000" cx="1370.8016" cy="-555.6889" rx="3.2" ry="3.2"/>
</g>
<!-- presentation&#45;&gt;eworker -->
<g id="edge45" class="edge">
<title>presentation:w&#45;&gt;eworker:e</title>
<path fill="none" stroke="#000000" d="M1367.6811,-553.3017C1340.9981,-542.4088 1357.7471,-496.5352 1340.5016,-459.7 1262.1374,-292.3193 1280.3183,-123.7 1095.5016,-123.7 1095.5016,-123.7 1095.5016,-123.7 657.5016,-123.7 563.6154,-123.7 525.6719,-127.1445 457.5016,-191.7 422.0256,-225.2948 465.3601,-293.7 416.5016,-293.7"/>
<polygon fill="#000000" stroke="#000000" points="1374.1115,-554.3785 1381.4069,-559.2506 1378.0565,-555.0393 1382.0016,-555.7 1382.0016,-555.7 1382.0016,-555.7 1378.0565,-555.0393 1382.5962,-552.1494 1374.1115,-554.3785 1374.1115,-554.3785"/>
<ellipse fill="none" stroke="#000000" cx="1370.9554" cy="-553.85" rx="3.2" ry="3.2"/>
</g>
<!-- presentation&#45;&gt;principal -->
<g id="edge42" class="edge">
<title>presentation:w&#45;&gt;principal:e</title>
<path fill="none" stroke="#000000" d="M1367.6283,-558.7173C1307.6837,-583.2027 1245.7309,-749.0712 1191.5016,-773.7 1071.8435,-828.0439 643.4528,-765.8678 598.5016,-725.7 539.2573,-672.7603 636.9528,-551.7 557.5016,-551.7"/>
<polygon fill="#000000" stroke="#000000" points="1374.1722,-557.3436 1382.7412,-559.2232 1378.0869,-556.5218 1382.0016,-555.7 1382.0016,-555.7 1382.0016,-555.7 1378.0869,-556.5218 1381.2619,-552.1768 1374.1722,-557.3436 1374.1722,-557.3436"/>
<ellipse fill="none" stroke="#000000" cx="1371.0405" cy="-558.001" rx="3.2" ry="3.2"/>
</g>
<!-- presentation&#45;&gt;principal -->
<g id="edge44" class="edge">
<title>presentation:w&#45;&gt;principal:e</title>
<path fill="none" stroke="#000000" d="M1367.748,-558.6627C1308.1882,-582.7055 1245.2803,-745.5732 1191.5016,-769.7 1113.6444,-804.6291 1084.76,-773.2746 999.5016,-769.7 820.1646,-762.1811 729.156,-844.7759 598.5016,-721.7 541.9276,-668.4076 635.2234,-551.7 557.5016,-551.7"/>
<polygon fill="#000000" stroke="#000000" points="1374.169,-557.3281 1382.7342,-559.2247 1378.0853,-556.5141 1382.0016,-555.7 1382.0016,-555.7 1382.0016,-555.7 1378.0853,-556.5141 1381.2689,-552.1753 1374.169,-557.3281 1374.169,-557.3281"/>
<ellipse fill="none" stroke="#000000" cx="1371.0359" cy="-557.9794" rx="3.2" ry="3.2"/>
</g>
<!-- presentation&#45;&gt;job_request -->
<g id="edge43" class="edge">
<title>presentation:w&#45;&gt;job_request:e</title>
<path fill="none" stroke="#000000" d="M1371.7998,-553.3545C1351.7741,-542.5036 1362.2872,-497.7 1332.5016,-497.7"/>
<polygon fill="#000000" stroke="#000000" points="1382.1182,-551.6224 1380.3256,-559.419 1378.7663,-559.0605 1380.5589,-551.2639 1382.1182,-551.6224"/>
<polyline fill="none" stroke="#000000" points="1382.0016,-555.7 1378.1033,-554.8037 "/>
<ellipse fill="none" stroke="#000000" cx="1374.9846" cy="-554.0867" rx="3.2" ry="3.2"/>
</g>
</g>
</svg>
