<?xml version="1.0" encoding="UTF-8" standalone="no"?>
<!DOCTYPE svg PUBLIC "-//W3C//DTD SVG 1.1//EN"
 "http://www.w3.org/Graphics/SVG/1.1/DTD/svg11.dtd">
<!-- Generated by graphviz version 2.40.1 (20161225.0304)
 -->
<!-- Title: oneDegreeRelationshipsDiagram Pages: 1 -->
<svg width="450pt" height="545pt"
 viewBox="0.00 0.00 450.00 545.20" xmlns="http://www.w3.org/2000/svg" xmlns:xlink="http://www.w3.org/1999/xlink">
<g id="graph0" class="graph" transform="scale(1 1) rotate(0) translate(4 541.2)">
<title>oneDegreeRelationshipsDiagram</title>
<polygon fill="#ffffff" stroke="transparent" points="-4,4 -4,-541.2 446,-541.2 446,4 -4,4"/>
<text text-anchor="middle" x="72.4936" y="-7.3" font-family="Helvetica,sans-Serif" font-size="11.00" fill="#000000">Generated by SchemaSpy</text>
<!-- client_ework_unit -->
<g id="node1" class="node">
<title>client_ework_unit</title>
<g id="a_node1"><a xlink:href="../../tables/client_ework_unit.html" xlink:title="client_ework_unit" target="_top">
<polygon fill="#ffffff" stroke="transparent" points="258,-260.7 258,-350.7 434,-350.7 434,-260.7 258,-260.7"/>
<polygon fill="#f5f5f5" stroke="transparent" points="260,-325.7 260,-348.7 432,-348.7 432,-325.7 260,-325.7"/>
<polygon fill="none" stroke="#000000" points="260,-325.7 260,-348.7 432,-348.7 432,-325.7 260,-325.7"/>
<text text-anchor="start" x="265" y="-334.8" font-family="Helvetica,sans-Serif" font-weight="bold" font-size="11.00" fill="#000000">client_ework_unit</text>
<text text-anchor="start" x="397.0437" y="-333.8" font-family="Helvetica,sans-Serif" font-size="11.00" fill="#000000">[table]</text>
<polygon fill="#ffffff" stroke="transparent" points="260,-303.7 260,-325.7 382,-325.7 382,-303.7 260,-303.7"/>
<polygon fill="none" stroke="#000000" points="260,-303.7 260,-325.7 382,-325.7 382,-303.7 260,-303.7"/>
<image xlink:href="../../images/foreignKeys.png" width="11px" height="12px" preserveAspectRatio="xMinYMin meet" x="265" y="-320.7"/>
<text text-anchor="start" x="280" y="-310.8" font-family="Helvetica,sans-Serif" font-size="11.00" fill="#000000">client_id</text>
<polygon fill="none" stroke="#000000" points="382,-303.7 382,-325.7 432,-325.7 432,-303.7 382,-303.7"/>
<text text-anchor="start" x="384.6865" y="-311.4" font-family="Helvetica,sans-Serif" font-size="11.00" fill="#000000">bigint[19]</text>
<polygon fill="#ffffff" stroke="transparent" points="260,-281.7 260,-303.7 382,-303.7 382,-281.7 260,-281.7"/>
<polygon fill="none" stroke="#000000" points="260,-281.7 260,-303.7 382,-303.7 382,-281.7 260,-281.7"/>
<image xlink:href="../../images/foreignKeys.png" width="11px" height="12px" preserveAspectRatio="xMinYMin meet" x="265" y="-298.7"/>
<text text-anchor="start" x="280" y="-288.8" font-family="Helvetica,sans-Serif" font-size="11.00" fill="#000000">unit_id</text>
<polygon fill="none" stroke="#000000" points="382,-281.7 382,-303.7 432,-303.7 432,-281.7 382,-281.7"/>
<text text-anchor="start" x="384.6865" y="-289.4" font-family="Helvetica,sans-Serif" font-size="11.00" fill="#000000">bigint[19]</text>
<polygon fill="#ffffff" stroke="transparent" points="260,-262.7 260,-281.7 309,-281.7 309,-262.7 260,-262.7"/>
<polygon fill="none" stroke="#000000" points="260,-262.7 260,-281.7 309,-281.7 309,-262.7 260,-262.7"/>
<text text-anchor="start" x="263" y="-268.8" font-family="Helvetica,sans-Serif" font-size="11.00" fill="#000000">&lt; 2</text>
<polygon fill="#ffffff" stroke="transparent" points="309,-262.7 309,-281.7 382,-281.7 382,-262.7 309,-262.7"/>
<polygon fill="none" stroke="#000000" points="309,-262.7 309,-281.7 382,-281.7 382,-262.7 309,-262.7"/>
<text text-anchor="start" x="340.4956" y="-268.8" font-family="Helvetica,sans-Serif" font-size="11.00" fill="#000000">16 rows</text>
<polygon fill="#ffffff" stroke="transparent" points="382,-262.7 382,-281.7 432,-281.7 432,-262.7 382,-262.7"/>
<polygon fill="none" stroke="#000000" points="382,-262.7 382,-281.7 432,-281.7 432,-262.7 382,-262.7"/>
<text text-anchor="start" x="413.4053" y="-268.8" font-family="Helvetica,sans-Serif" font-size="11.00" fill="#000000">0 &gt;</text>
<polygon fill="none" stroke="#000000" stroke-width="2" points="259,-261.7 259,-349.7 433,-349.7 433,-261.7 259,-261.7"/>
</a>
</g>
</g>
<!-- client -->
<g id="node2" class="node">
<title>client</title>
<g id="a_node2"><a xlink:href="../../tables/client.html" xlink:title="client" target="_top">
<polygon fill="#ffffff" stroke="transparent" points="8,-164.2 8,-533.2 209,-533.2 209,-164.2 8,-164.2"/>
<polygon fill="#f5f5f5" stroke="transparent" points="8.5,-509.7 8.5,-532.7 209.5,-532.7 209.5,-509.7 8.5,-509.7"/>
<polygon fill="none" stroke="#000000" points="8.5,-509.7 8.5,-532.7 209.5,-532.7 209.5,-509.7 8.5,-509.7"/>
<text text-anchor="start" x="13.5" y="-518.8" font-family="Helvetica,sans-Serif" font-weight="bold" font-size="11.00" fill="#000000">client</text>
<text text-anchor="start" x="174.5437" y="-517.8" font-family="Helvetica,sans-Serif" font-size="11.00" fill="#000000">[table]</text>
<polygon fill="none" stroke="#000000" points="8.5,-487.7 8.5,-509.7 209.5,-509.7 209.5,-487.7 8.5,-487.7"/>
<image xlink:href="../../images/primaryKeys.png" width="11px" height="12px" preserveAspectRatio="xMinYMin meet" x="13.5" y="-504.7"/>
<text text-anchor="start" x="28.5" y="-494.8" font-family="Helvetica,sans-Serif" font-size="11.00" fill="#000000">id</text>
<polygon fill="#ffffff" stroke="transparent" points="8.5,-465.7 8.5,-487.7 209.5,-487.7 209.5,-465.7 8.5,-465.7"/>
<polygon fill="none" stroke="#000000" points="8.5,-465.7 8.5,-487.7 209.5,-487.7 209.5,-465.7 8.5,-465.7"/>
<image xlink:href="../../images/foreignKeys.png" width="11px" height="12px" preserveAspectRatio="xMinYMin meet" x="13.5" y="-482.7"/>
<text text-anchor="start" x="28.5" y="-472.8" font-family="Helvetica,sans-Serif" font-size="11.00" fill="#000000">created_by</text>
<polygon fill="#ffffff" stroke="transparent" points="8.5,-443.7 8.5,-465.7 209.5,-465.7 209.5,-443.7 8.5,-443.7"/>
<polygon fill="none" stroke="#000000" points="8.5,-443.7 8.5,-465.7 209.5,-465.7 209.5,-443.7 8.5,-443.7"/>
<image xlink:href="../../images/foreignKeys.png" width="11px" height="12px" preserveAspectRatio="xMinYMin meet" x="13.5" y="-460.7"/>
<text text-anchor="start" x="28.5" y="-450.8" font-family="Helvetica,sans-Serif" font-size="11.00" fill="#000000">modified_by</text>
<polygon fill="#ffffff" stroke="transparent" points="8.5,-421.7 8.5,-443.7 209.5,-443.7 209.5,-421.7 8.5,-421.7"/>
<polygon fill="none" stroke="#000000" points="8.5,-421.7 8.5,-443.7 209.5,-443.7 209.5,-421.7 8.5,-421.7"/>
<text text-anchor="start" x="28.5" y="-428.8" font-family="Helvetica,sans-Serif" font-size="11.00" fill="#000000">marketplace_id</text>
<polygon fill="#ffffff" stroke="transparent" points="8.5,-399.7 8.5,-421.7 209.5,-421.7 209.5,-399.7 8.5,-399.7"/>
<polygon fill="none" stroke="#000000" points="8.5,-399.7 8.5,-421.7 209.5,-421.7 209.5,-399.7 8.5,-399.7"/>
<text text-anchor="start" x="28.5" y="-406.8" font-family="Helvetica,sans-Serif" font-size="11.00" fill="#000000">name</text>
<polygon fill="#ffffff" stroke="transparent" points="8.5,-377.7 8.5,-399.7 209.5,-399.7 209.5,-377.7 8.5,-377.7"/>
<polygon fill="none" stroke="#000000" points="8.5,-377.7 8.5,-399.7 209.5,-399.7 209.5,-377.7 8.5,-377.7"/>
<text text-anchor="start" x="28.5" y="-384.8" font-family="Helvetica,sans-Serif" font-size="11.00" fill="#000000">organizational_number</text>
<polygon fill="#ffffff" stroke="transparent" points="8.5,-355.7 8.5,-377.7 209.5,-377.7 209.5,-355.7 8.5,-355.7"/>
<polygon fill="none" stroke="#000000" points="8.5,-355.7 8.5,-377.7 209.5,-377.7 209.5,-355.7 8.5,-355.7"/>
<text text-anchor="start" x="28.5" y="-362.8" font-family="Helvetica,sans-Serif" font-size="11.00" fill="#000000">vat_number</text>
<polygon fill="#ffffff" stroke="transparent" points="8.5,-333.7 8.5,-355.7 209.5,-355.7 209.5,-333.7 8.5,-333.7"/>
<polygon fill="none" stroke="#000000" points="8.5,-333.7 8.5,-355.7 209.5,-355.7 209.5,-333.7 8.5,-333.7"/>
<image xlink:href="../../images/foreignKeys.png" width="11px" height="12px" preserveAspectRatio="xMinYMin meet" x="13.5" y="-350.7"/>
<text text-anchor="start" x="28.5" y="-340.8" font-family="Helvetica,sans-Serif" font-size="11.00" fill="#000000">client_group_id</text>
<polygon fill="#ffffff" stroke="transparent" points="8.5,-311.7 8.5,-333.7 209.5,-333.7 209.5,-311.7 8.5,-311.7"/>
<polygon fill="none" stroke="#000000" points="8.5,-311.7 8.5,-333.7 209.5,-333.7 209.5,-311.7 8.5,-311.7"/>
<image xlink:href="../../images/foreignKeys.png" width="11px" height="12px" preserveAspectRatio="xMinYMin meet" x="13.5" y="-328.7"/>
<text text-anchor="start" x="28.5" y="-318.8" font-family="Helvetica,sans-Serif" font-size="11.00" fill="#000000">client_operations_developer_id</text>
<polygon fill="#ffffff" stroke="transparent" points="8.5,-289.7 8.5,-311.7 209.5,-311.7 209.5,-289.7 8.5,-289.7"/>
<polygon fill="none" stroke="#000000" points="8.5,-289.7 8.5,-311.7 209.5,-311.7 209.5,-289.7 8.5,-289.7"/>
<image xlink:href="../../images/foreignKeys.png" width="11px" height="12px" preserveAspectRatio="xMinYMin meet" x="13.5" y="-306.7"/>
<text text-anchor="start" x="28.5" y="-296.8" font-family="Helvetica,sans-Serif" font-size="11.00" fill="#000000">responsible_bo_partner_id</text>
<polygon fill="#ffffff" stroke="transparent" points="8.5,-267.7 8.5,-289.7 209.5,-289.7 209.5,-267.7 8.5,-267.7"/>
<polygon fill="none" stroke="#000000" points="8.5,-267.7 8.5,-289.7 209.5,-289.7 209.5,-267.7 8.5,-267.7"/>
<image xlink:href="../../images/foreignKeys.png" width="11px" height="12px" preserveAspectRatio="xMinYMin meet" x="13.5" y="-284.7"/>
<text text-anchor="start" x="28.5" y="-274.8" font-family="Helvetica,sans-Serif" font-size="11.00" fill="#000000">client_responsible_id</text>
<polygon fill="#ffffff" stroke="transparent" points="8.5,-245.7 8.5,-267.7 209.5,-267.7 209.5,-245.7 8.5,-245.7"/>
<polygon fill="none" stroke="#000000" points="8.5,-245.7 8.5,-267.7 209.5,-267.7 209.5,-245.7 8.5,-245.7"/>
<image xlink:href="../../images/foreignKeys.png" width="11px" height="12px" preserveAspectRatio="xMinYMin meet" x="13.5" y="-262.7"/>
<text text-anchor="start" x="28.5" y="-252.8" font-family="Helvetica,sans-Serif" font-size="11.00" fill="#000000">responsible_bo_team_id</text>
<polygon fill="#ffffff" stroke="transparent" points="8.5,-223.7 8.5,-245.7 209.5,-245.7 209.5,-223.7 8.5,-223.7"/>
<polygon fill="none" stroke="#000000" points="8.5,-223.7 8.5,-245.7 209.5,-245.7 209.5,-223.7 8.5,-223.7"/>
<image xlink:href="../../images/foreignKeys.png" width="11px" height="12px" preserveAspectRatio="xMinYMin meet" x="13.5" y="-240.7"/>
<text text-anchor="start" x="28.5" y="-230.8" font-family="Helvetica,sans-Serif" font-size="11.00" fill="#000000">responsible_co_team_id</text>
<polygon fill="#ffffff" stroke="transparent" points="8.5,-201.7 8.5,-223.7 209.5,-223.7 209.5,-201.7 8.5,-201.7"/>
<polygon fill="none" stroke="#000000" points="8.5,-201.7 8.5,-223.7 209.5,-223.7 209.5,-201.7 8.5,-201.7"/>
<image xlink:href="../../images/foreignKeys.png" width="11px" height="12px" preserveAspectRatio="xMinYMin meet" x="13.5" y="-218.7"/>
<text text-anchor="start" x="28.5" y="-208.8" font-family="Helvetica,sans-Serif" font-size="11.00" fill="#000000">avatar_id</text>
<polygon fill="none" stroke="#000000" points="8.5,-182.7 8.5,-201.7 209.5,-201.7 209.5,-182.7 8.5,-182.7"/>
<text text-anchor="start" x="11.5" y="-188.8" font-family="Helvetica,sans-Serif" font-size="11.00" fill="#000000">...</text>
<polygon fill="#ffffff" stroke="transparent" points="8.5,-163.7 8.5,-182.7 83.5,-182.7 83.5,-163.7 8.5,-163.7"/>
<polygon fill="none" stroke="#000000" points="8.5,-163.7 8.5,-182.7 83.5,-182.7 83.5,-163.7 8.5,-163.7"/>
<text text-anchor="start" x="11.5" y="-169.8" font-family="Helvetica,sans-Serif" font-size="11.00" fill="#000000">&lt; 9</text>
<polygon fill="#ffffff" stroke="transparent" points="83.5,-163.7 83.5,-182.7 160.5,-182.7 160.5,-163.7 83.5,-163.7"/>
<polygon fill="none" stroke="#000000" points="83.5,-163.7 83.5,-182.7 160.5,-182.7 160.5,-163.7 83.5,-163.7"/>
<text text-anchor="start" x="112.8807" y="-169.8" font-family="Helvetica,sans-Serif" font-size="11.00" fill="#000000">647 rows</text>
<polygon fill="#ffffff" stroke="transparent" points="160.5,-163.7 160.5,-182.7 209.5,-182.7 209.5,-163.7 160.5,-163.7"/>
<polygon fill="none" stroke="#000000" points="160.5,-163.7 160.5,-182.7 209.5,-182.7 209.5,-163.7 160.5,-163.7"/>
<text text-anchor="start" x="190.9053" y="-169.8" font-family="Helvetica,sans-Serif" font-size="11.00" fill="#000000">7 &gt;</text>
</a>
</g>
</g>
<!-- client_ework_unit&#45;&gt;client -->
<g id="edge1" class="edge">
<title>client_ework_unit:w&#45;&gt;client:e</title>
<path fill="none" stroke="#000000" d="M245.684,-317.0264C190.1174,-338.3261 288.6705,-498.7 209.5,-498.7"/>
<polygon fill="#000000" stroke="#000000" points="252.1036,-315.9833 260.5775,-318.2534 256.0518,-315.3416 260,-314.7 260,-314.7 260,-314.7 256.0518,-315.3416 259.4225,-311.1466 252.1036,-315.9833 252.1036,-315.9833"/>
<ellipse fill="none" stroke="#000000" cx="248.945" cy="-316.4966" rx="3.2" ry="3.2"/>
</g>
<!-- ework_unit -->
<g id="node3" class="node">
<title>ework_unit</title>
<g id="a_node3"><a xlink:href="../../tables/ework_unit.html" xlink:title="ework_unit" target="_top">
<polygon fill="#ffffff" stroke="transparent" points="47,-38.2 47,-143.2 170,-143.2 170,-38.2 47,-38.2"/>
<polygon fill="#f5f5f5" stroke="transparent" points="47.5,-119.7 47.5,-142.7 170.5,-142.7 170.5,-119.7 47.5,-119.7"/>
<polygon fill="none" stroke="#000000" points="47.5,-119.7 47.5,-142.7 170.5,-142.7 170.5,-119.7 47.5,-119.7"/>
<text text-anchor="start" x="52.5" y="-128.8" font-family="Helvetica,sans-Serif" font-weight="bold" font-size="11.00" fill="#000000">ework_unit</text>
<text text-anchor="start" x="135.5437" y="-127.8" font-family="Helvetica,sans-Serif" font-size="11.00" fill="#000000">[table]</text>
<polygon fill="none" stroke="#000000" points="47.5,-97.7 47.5,-119.7 170.5,-119.7 170.5,-97.7 47.5,-97.7"/>
<image xlink:href="../../images/primaryKeys.png" width="11px" height="12px" preserveAspectRatio="xMinYMin meet" x="52.5" y="-114.7"/>
<text text-anchor="start" x="67.5" y="-104.8" font-family="Helvetica,sans-Serif" font-size="11.00" fill="#000000">id</text>
<polygon fill="#ffffff" stroke="transparent" points="47.5,-75.7 47.5,-97.7 170.5,-97.7 170.5,-75.7 47.5,-75.7"/>
<polygon fill="none" stroke="#000000" points="47.5,-75.7 47.5,-97.7 170.5,-97.7 170.5,-75.7 47.5,-75.7"/>
<image xlink:href="../../images/foreignKeys.png" width="11px" height="12px" preserveAspectRatio="xMinYMin meet" x="52.5" y="-92.7"/>
<text text-anchor="start" x="67.5" y="-82.8" font-family="Helvetica,sans-Serif" font-size="11.00" fill="#000000">site_id</text>
<polygon fill="none" stroke="#000000" points="47.5,-56.7 47.5,-75.7 170.5,-75.7 170.5,-56.7 47.5,-56.7"/>
<text text-anchor="start" x="50.5" y="-62.8" font-family="Helvetica,sans-Serif" font-size="11.00" fill="#000000">...</text>
<polygon fill="#ffffff" stroke="transparent" points="47.5,-37.7 47.5,-56.7 86.5,-56.7 86.5,-37.7 47.5,-37.7"/>
<polygon fill="none" stroke="#000000" points="47.5,-37.7 47.5,-56.7 86.5,-56.7 86.5,-37.7 47.5,-37.7"/>
<text text-anchor="start" x="50.5" y="-43.8" font-family="Helvetica,sans-Serif" font-size="11.00" fill="#000000">&lt; 1</text>
<polygon fill="#ffffff" stroke="transparent" points="86.5,-37.7 86.5,-56.7 139.5,-56.7 139.5,-37.7 86.5,-37.7"/>
<polygon fill="none" stroke="#000000" points="86.5,-37.7 86.5,-56.7 139.5,-56.7 139.5,-37.7 86.5,-37.7"/>
<text text-anchor="start" x="97.9956" y="-43.8" font-family="Helvetica,sans-Serif" font-size="11.00" fill="#000000">25 rows</text>
<polygon fill="#ffffff" stroke="transparent" points="139.5,-37.7 139.5,-56.7 170.5,-56.7 170.5,-37.7 139.5,-37.7"/>
<polygon fill="none" stroke="#000000" points="139.5,-37.7 139.5,-56.7 170.5,-56.7 170.5,-37.7 139.5,-37.7"/>
<text text-anchor="start" x="151.9053" y="-43.8" font-family="Helvetica,sans-Serif" font-size="11.00" fill="#000000">4 &gt;</text>
</a>
</g>
</g>
<!-- client_ework_unit&#45;&gt;ework_unit -->
<g id="edge2" class="edge">
<title>client_ework_unit:w&#45;&gt;ework_unit:e</title>
<path fill="none" stroke="#000000" d="M245.5922,-290.8322C204.4021,-278.1743 247.8749,-203.9564 217,-153.7 201.9456,-129.1954 199.2595,-108.7 170.5,-108.7"/>
<polygon fill="#000000" stroke="#000000" points="252.0664,-291.6714 259.5371,-296.2701 256.0332,-292.1857 260,-292.7 260,-292.7 260,-292.7 256.0332,-292.1857 260.4629,-289.1299 252.0664,-291.6714 252.0664,-291.6714"/>
<ellipse fill="none" stroke="#000000" cx="248.8929" cy="-291.26" rx="3.2" ry="3.2"/>
</g>
</g>
</svg>
