<?xml version="1.0" encoding="UTF-8" standalone="no"?>
<!DOCTYPE svg PUBLIC "-//W3C//DTD SVG 1.1//EN"
 "http://www.w3.org/Graphics/SVG/1.1/DTD/svg11.dtd">
<!-- Generated by graphviz version 2.40.1 (20161225.0304)
 -->
<!-- Title: twoDegreesRelationshipsDiagram Pages: 1 -->
<svg width="1416pt" height="974pt"
 viewBox="0.00 0.00 1416.46 973.55" xmlns="http://www.w3.org/2000/svg" xmlns:xlink="http://www.w3.org/1999/xlink">
<g id="graph0" class="graph" transform="scale(1 1) rotate(0) translate(4 969.5545)">
<title>twoDegreesRelationshipsDiagram</title>
<polygon fill="#ffffff" stroke="transparent" points="-4,4 -4,-969.5545 1412.4582,-969.5545 1412.4582,4 -4,4"/>
<text text-anchor="middle" x="72.4936" y="-7.3" font-family="Helvetica,sans-Serif" font-size="11.00" fill="#000000">Generated by SchemaSpy</text>
<!-- client -->
<g id="node1" class="node">
<title>client</title>
<g id="a_node1"><a xlink:href="../../tables/client.html" xlink:title="client" target="_top">
<polygon fill="#ffffff" stroke="transparent" points="442.4582,-305.7 442.4582,-674.7 643.4582,-674.7 643.4582,-305.7 442.4582,-305.7"/>
<polygon fill="#f5f5f5" stroke="transparent" points="442.9582,-651.2 442.9582,-674.2 643.9582,-674.2 643.9582,-651.2 442.9582,-651.2"/>
<polygon fill="none" stroke="#000000" points="442.9582,-651.2 442.9582,-674.2 643.9582,-674.2 643.9582,-651.2 442.9582,-651.2"/>
<text text-anchor="start" x="447.9582" y="-660.3" font-family="Helvetica,sans-Serif" font-weight="bold" font-size="11.00" fill="#000000">client</text>
<text text-anchor="start" x="609.0019" y="-659.3" font-family="Helvetica,sans-Serif" font-size="11.00" fill="#000000">[table]</text>
<polygon fill="none" stroke="#000000" points="442.9582,-629.2 442.9582,-651.2 643.9582,-651.2 643.9582,-629.2 442.9582,-629.2"/>
<image xlink:href="../../images/primaryKeys.png" width="11px" height="12px" preserveAspectRatio="xMinYMin meet" x="447.958" y="-646.2"/>
<text text-anchor="start" x="462.9582" y="-636.3" font-family="Helvetica,sans-Serif" font-size="11.00" fill="#000000">id</text>
<polygon fill="#ffffff" stroke="transparent" points="442.9582,-607.2 442.9582,-629.2 643.9582,-629.2 643.9582,-607.2 442.9582,-607.2"/>
<polygon fill="none" stroke="#000000" points="442.9582,-607.2 442.9582,-629.2 643.9582,-629.2 643.9582,-607.2 442.9582,-607.2"/>
<image xlink:href="../../images/foreignKeys.png" width="11px" height="12px" preserveAspectRatio="xMinYMin meet" x="447.958" y="-624.2"/>
<text text-anchor="start" x="462.9582" y="-614.3" font-family="Helvetica,sans-Serif" font-size="11.00" fill="#000000">created_by</text>
<polygon fill="#ffffff" stroke="transparent" points="442.9582,-585.2 442.9582,-607.2 643.9582,-607.2 643.9582,-585.2 442.9582,-585.2"/>
<polygon fill="none" stroke="#000000" points="442.9582,-585.2 442.9582,-607.2 643.9582,-607.2 643.9582,-585.2 442.9582,-585.2"/>
<image xlink:href="../../images/foreignKeys.png" width="11px" height="12px" preserveAspectRatio="xMinYMin meet" x="447.958" y="-602.2"/>
<text text-anchor="start" x="462.9582" y="-592.3" font-family="Helvetica,sans-Serif" font-size="11.00" fill="#000000">modified_by</text>
<polygon fill="#ffffff" stroke="transparent" points="442.9582,-563.2 442.9582,-585.2 643.9582,-585.2 643.9582,-563.2 442.9582,-563.2"/>
<polygon fill="none" stroke="#000000" points="442.9582,-563.2 442.9582,-585.2 643.9582,-585.2 643.9582,-563.2 442.9582,-563.2"/>
<text text-anchor="start" x="462.9582" y="-570.3" font-family="Helvetica,sans-Serif" font-size="11.00" fill="#000000">marketplace_id</text>
<polygon fill="#ffffff" stroke="transparent" points="442.9582,-541.2 442.9582,-563.2 643.9582,-563.2 643.9582,-541.2 442.9582,-541.2"/>
<polygon fill="none" stroke="#000000" points="442.9582,-541.2 442.9582,-563.2 643.9582,-563.2 643.9582,-541.2 442.9582,-541.2"/>
<text text-anchor="start" x="462.9582" y="-548.3" font-family="Helvetica,sans-Serif" font-size="11.00" fill="#000000">name</text>
<polygon fill="#ffffff" stroke="transparent" points="442.9582,-519.2 442.9582,-541.2 643.9582,-541.2 643.9582,-519.2 442.9582,-519.2"/>
<polygon fill="none" stroke="#000000" points="442.9582,-519.2 442.9582,-541.2 643.9582,-541.2 643.9582,-519.2 442.9582,-519.2"/>
<text text-anchor="start" x="462.9582" y="-526.3" font-family="Helvetica,sans-Serif" font-size="11.00" fill="#000000">organizational_number</text>
<polygon fill="#ffffff" stroke="transparent" points="442.9582,-497.2 442.9582,-519.2 643.9582,-519.2 643.9582,-497.2 442.9582,-497.2"/>
<polygon fill="none" stroke="#000000" points="442.9582,-497.2 442.9582,-519.2 643.9582,-519.2 643.9582,-497.2 442.9582,-497.2"/>
<text text-anchor="start" x="462.9582" y="-504.3" font-family="Helvetica,sans-Serif" font-size="11.00" fill="#000000">vat_number</text>
<polygon fill="#ffffff" stroke="transparent" points="442.9582,-475.2 442.9582,-497.2 643.9582,-497.2 643.9582,-475.2 442.9582,-475.2"/>
<polygon fill="none" stroke="#000000" points="442.9582,-475.2 442.9582,-497.2 643.9582,-497.2 643.9582,-475.2 442.9582,-475.2"/>
<image xlink:href="../../images/foreignKeys.png" width="11px" height="12px" preserveAspectRatio="xMinYMin meet" x="447.958" y="-492.2"/>
<text text-anchor="start" x="462.9582" y="-482.3" font-family="Helvetica,sans-Serif" font-size="11.00" fill="#000000">client_group_id</text>
<polygon fill="#ffffff" stroke="transparent" points="442.9582,-453.2 442.9582,-475.2 643.9582,-475.2 643.9582,-453.2 442.9582,-453.2"/>
<polygon fill="none" stroke="#000000" points="442.9582,-453.2 442.9582,-475.2 643.9582,-475.2 643.9582,-453.2 442.9582,-453.2"/>
<image xlink:href="../../images/foreignKeys.png" width="11px" height="12px" preserveAspectRatio="xMinYMin meet" x="447.958" y="-470.2"/>
<text text-anchor="start" x="462.9582" y="-460.3" font-family="Helvetica,sans-Serif" font-size="11.00" fill="#000000">client_operations_developer_id</text>
<polygon fill="#ffffff" stroke="transparent" points="442.9582,-431.2 442.9582,-453.2 643.9582,-453.2 643.9582,-431.2 442.9582,-431.2"/>
<polygon fill="none" stroke="#000000" points="442.9582,-431.2 442.9582,-453.2 643.9582,-453.2 643.9582,-431.2 442.9582,-431.2"/>
<image xlink:href="../../images/foreignKeys.png" width="11px" height="12px" preserveAspectRatio="xMinYMin meet" x="447.958" y="-448.2"/>
<text text-anchor="start" x="462.9582" y="-438.3" font-family="Helvetica,sans-Serif" font-size="11.00" fill="#000000">responsible_bo_partner_id</text>
<polygon fill="#ffffff" stroke="transparent" points="442.9582,-409.2 442.9582,-431.2 643.9582,-431.2 643.9582,-409.2 442.9582,-409.2"/>
<polygon fill="none" stroke="#000000" points="442.9582,-409.2 442.9582,-431.2 643.9582,-431.2 643.9582,-409.2 442.9582,-409.2"/>
<image xlink:href="../../images/foreignKeys.png" width="11px" height="12px" preserveAspectRatio="xMinYMin meet" x="447.958" y="-426.2"/>
<text text-anchor="start" x="462.9582" y="-416.3" font-family="Helvetica,sans-Serif" font-size="11.00" fill="#000000">client_responsible_id</text>
<polygon fill="#ffffff" stroke="transparent" points="442.9582,-387.2 442.9582,-409.2 643.9582,-409.2 643.9582,-387.2 442.9582,-387.2"/>
<polygon fill="none" stroke="#000000" points="442.9582,-387.2 442.9582,-409.2 643.9582,-409.2 643.9582,-387.2 442.9582,-387.2"/>
<image xlink:href="../../images/foreignKeys.png" width="11px" height="12px" preserveAspectRatio="xMinYMin meet" x="447.958" y="-404.2"/>
<text text-anchor="start" x="462.9582" y="-394.3" font-family="Helvetica,sans-Serif" font-size="11.00" fill="#000000">responsible_bo_team_id</text>
<polygon fill="#ffffff" stroke="transparent" points="442.9582,-365.2 442.9582,-387.2 643.9582,-387.2 643.9582,-365.2 442.9582,-365.2"/>
<polygon fill="none" stroke="#000000" points="442.9582,-365.2 442.9582,-387.2 643.9582,-387.2 643.9582,-365.2 442.9582,-365.2"/>
<image xlink:href="../../images/foreignKeys.png" width="11px" height="12px" preserveAspectRatio="xMinYMin meet" x="447.958" y="-382.2"/>
<text text-anchor="start" x="462.9582" y="-372.3" font-family="Helvetica,sans-Serif" font-size="11.00" fill="#000000">responsible_co_team_id</text>
<polygon fill="#ffffff" stroke="transparent" points="442.9582,-343.2 442.9582,-365.2 643.9582,-365.2 643.9582,-343.2 442.9582,-343.2"/>
<polygon fill="none" stroke="#000000" points="442.9582,-343.2 442.9582,-365.2 643.9582,-365.2 643.9582,-343.2 442.9582,-343.2"/>
<image xlink:href="../../images/foreignKeys.png" width="11px" height="12px" preserveAspectRatio="xMinYMin meet" x="447.958" y="-360.2"/>
<text text-anchor="start" x="462.9582" y="-350.3" font-family="Helvetica,sans-Serif" font-size="11.00" fill="#000000">avatar_id</text>
<polygon fill="none" stroke="#000000" points="442.9582,-324.2 442.9582,-343.2 643.9582,-343.2 643.9582,-324.2 442.9582,-324.2"/>
<text text-anchor="start" x="445.9582" y="-330.3" font-family="Helvetica,sans-Serif" font-size="11.00" fill="#000000">...</text>
<polygon fill="#ffffff" stroke="transparent" points="442.9582,-305.2 442.9582,-324.2 517.9582,-324.2 517.9582,-305.2 442.9582,-305.2"/>
<polygon fill="none" stroke="#000000" points="442.9582,-305.2 442.9582,-324.2 517.9582,-324.2 517.9582,-305.2 442.9582,-305.2"/>
<text text-anchor="start" x="445.9582" y="-311.3" font-family="Helvetica,sans-Serif" font-size="11.00" fill="#000000">&lt; 9</text>
<polygon fill="#ffffff" stroke="transparent" points="517.9582,-305.2 517.9582,-324.2 594.9582,-324.2 594.9582,-305.2 517.9582,-305.2"/>
<polygon fill="none" stroke="#000000" points="517.9582,-305.2 517.9582,-324.2 594.9582,-324.2 594.9582,-305.2 517.9582,-305.2"/>
<text text-anchor="start" x="547.3389" y="-311.3" font-family="Helvetica,sans-Serif" font-size="11.00" fill="#000000">647 rows</text>
<polygon fill="#ffffff" stroke="transparent" points="594.9582,-305.2 594.9582,-324.2 643.9582,-324.2 643.9582,-305.2 594.9582,-305.2"/>
<polygon fill="none" stroke="#000000" points="594.9582,-305.2 594.9582,-324.2 643.9582,-324.2 643.9582,-305.2 594.9582,-305.2"/>
<text text-anchor="start" x="625.3635" y="-311.3" font-family="Helvetica,sans-Serif" font-size="11.00" fill="#000000">7 &gt;</text>
</a>
</g>
</g>
<!-- file -->
<g id="node2" class="node">
<title>file</title>
<g id="a_node2"><a xlink:href="../../tables/file.html" xlink:title="file" target="_top">
<polygon fill="#ffffff" stroke="transparent" points="293.4582,-276.7 293.4582,-337.7 391.4582,-337.7 391.4582,-276.7 293.4582,-276.7"/>
<polygon fill="#f5f5f5" stroke="transparent" points="293.4582,-314.2 293.4582,-337.2 391.4582,-337.2 391.4582,-314.2 293.4582,-314.2"/>
<polygon fill="none" stroke="#000000" points="293.4582,-314.2 293.4582,-337.2 391.4582,-337.2 391.4582,-314.2 293.4582,-314.2"/>
<text text-anchor="start" x="298.4582" y="-323.3" font-family="Helvetica,sans-Serif" font-weight="bold" font-size="11.00" fill="#000000">file</text>
<text text-anchor="start" x="356.5019" y="-322.3" font-family="Helvetica,sans-Serif" font-size="11.00" fill="#000000">[table]</text>
<polygon fill="none" stroke="#000000" points="293.4582,-295.2 293.4582,-314.2 391.4582,-314.2 391.4582,-295.2 293.4582,-295.2"/>
<text text-anchor="start" x="296.4582" y="-301.3" font-family="Helvetica,sans-Serif" font-size="11.00" fill="#000000">...</text>
<polygon fill="#ffffff" stroke="transparent" points="293.4582,-276.2 293.4582,-295.2 314.4582,-295.2 314.4582,-276.2 293.4582,-276.2"/>
<polygon fill="none" stroke="#000000" points="293.4582,-276.2 293.4582,-295.2 314.4582,-295.2 314.4582,-276.2 293.4582,-276.2"/>
<text text-anchor="start" x="296.1609" y="-282.3" font-family="Helvetica,sans-Serif" font-size="11.00" fill="#000000">&lt; 2</text>
<polygon fill="#ffffff" stroke="transparent" points="314.4582,-276.2 314.4582,-295.2 364.4582,-295.2 364.4582,-276.2 314.4582,-276.2"/>
<polygon fill="none" stroke="#000000" points="314.4582,-276.2 314.4582,-295.2 364.4582,-295.2 364.4582,-276.2 314.4582,-276.2"/>
<text text-anchor="start" x="317.1486" y="-282.3" font-family="Helvetica,sans-Serif" font-size="11.00" fill="#000000">590 rows</text>
<polygon fill="#ffffff" stroke="transparent" points="364.4582,-276.2 364.4582,-295.2 391.4582,-295.2 391.4582,-276.2 364.4582,-276.2"/>
<polygon fill="none" stroke="#000000" points="364.4582,-276.2 364.4582,-295.2 391.4582,-295.2 391.4582,-276.2 364.4582,-276.2"/>
<text text-anchor="start" x="367.1034" y="-282.3" font-family="Helvetica,sans-Serif" font-size="11.00" fill="#000000">13 &gt;</text>
</a>
</g>
</g>
<!-- client&#45;&gt;file -->
<g id="edge1" class="edge">
<title>client:w&#45;&gt;file:e</title>
<path fill="none" stroke="#000000" d="M429.0929,-349.5857C414.1161,-337.2078 417.3785,-304.2 391.4582,-304.2"/>
<polygon fill="#000000" stroke="#000000" points="435.3675,-351.6738 441.8214,-357.6158 439.1629,-352.9369 442.9582,-354.2 442.9582,-354.2 442.9582,-354.2 439.1629,-352.9369 444.095,-350.7842 435.3675,-351.6738 435.3675,-351.6738"/>
<ellipse fill="none" stroke="#000000" cx="432.3312" cy="-350.6634" rx="3.2" ry="3.2"/>
</g>
<!-- client_group -->
<g id="node3" class="node">
<title>client_group</title>
<g id="a_node3"><a xlink:href="../../tables/client_group.html" xlink:title="client_group" target="_top">
<polygon fill="#ffffff" stroke="transparent" points="291.4582,-440.7 291.4582,-501.7 393.4582,-501.7 393.4582,-440.7 291.4582,-440.7"/>
<polygon fill="#f5f5f5" stroke="transparent" points="291.4582,-478.2 291.4582,-501.2 393.4582,-501.2 393.4582,-478.2 291.4582,-478.2"/>
<polygon fill="none" stroke="#000000" points="291.4582,-478.2 291.4582,-501.2 393.4582,-501.2 393.4582,-478.2 291.4582,-478.2"/>
<text text-anchor="start" x="296.0058" y="-487.3" font-family="Helvetica,sans-Serif" font-weight="bold" font-size="11.00" fill="#000000">client_group</text>
<text text-anchor="start" x="358.9801" y="-486.3" font-family="Helvetica,sans-Serif" font-size="11.00" fill="#000000">[table]</text>
<polygon fill="none" stroke="#000000" points="291.4582,-459.2 291.4582,-478.2 393.4582,-478.2 393.4582,-459.2 291.4582,-459.2"/>
<text text-anchor="start" x="294.4582" y="-465.3" font-family="Helvetica,sans-Serif" font-size="11.00" fill="#000000">...</text>
<polygon fill="#ffffff" stroke="transparent" points="291.4582,-440.2 291.4582,-459.2 320.4582,-459.2 320.4582,-440.2 291.4582,-440.2"/>
<polygon fill="none" stroke="#000000" points="291.4582,-440.2 291.4582,-459.2 320.4582,-459.2 320.4582,-440.2 291.4582,-440.2"/>
<text text-anchor="start" x="294.4582" y="-446.3" font-family="Helvetica,sans-Serif" font-size="11.00" fill="#000000">&lt; 2</text>
<polygon fill="#ffffff" stroke="transparent" points="320.4582,-440.2 320.4582,-459.2 368.4582,-459.2 368.4582,-440.2 320.4582,-440.2"/>
<polygon fill="none" stroke="#000000" points="320.4582,-440.2 320.4582,-459.2 368.4582,-459.2 368.4582,-440.2 320.4582,-440.2"/>
<text text-anchor="start" x="326.9538" y="-446.3" font-family="Helvetica,sans-Serif" font-size="11.00" fill="#000000">16 rows</text>
<polygon fill="#ffffff" stroke="transparent" points="368.4582,-440.2 368.4582,-459.2 393.4582,-459.2 393.4582,-440.2 368.4582,-440.2"/>
<polygon fill="none" stroke="#000000" points="368.4582,-440.2 368.4582,-459.2 393.4582,-459.2 393.4582,-440.2 368.4582,-440.2"/>
<text text-anchor="start" x="374.8635" y="-446.3" font-family="Helvetica,sans-Serif" font-size="11.00" fill="#000000">1 &gt;</text>
</a>
</g>
</g>
<!-- client&#45;&gt;client_group -->
<g id="edge2" class="edge">
<title>client:w&#45;&gt;client_group:e</title>
<path fill="none" stroke="#000000" d="M428.6399,-483.3875C416.9127,-478.325 411.0153,-468.2 393.4582,-468.2"/>
<polygon fill="#000000" stroke="#000000" points="435.1082,-484.658 442.2643,-489.7325 439.0332,-485.429 442.9582,-486.2 442.9582,-486.2 442.9582,-486.2 439.0332,-485.429 443.6521,-482.6675 435.1082,-484.658 435.1082,-484.658"/>
<ellipse fill="none" stroke="#000000" cx="431.9682" cy="-484.0412" rx="3.2" ry="3.2"/>
</g>
<!-- eworker -->
<g id="node4" class="node">
<title>eworker</title>
<g id="a_node4"><a xlink:href="../../tables/eworker.html" xlink:title="eworker" target="_top">
<polygon fill="#ffffff" stroke="transparent" points="9.4582,-276.7 9.4582,-337.7 101.4582,-337.7 101.4582,-276.7 9.4582,-276.7"/>
<polygon fill="#f5f5f5" stroke="transparent" points="9.4582,-314.2 9.4582,-337.2 101.4582,-337.2 101.4582,-314.2 9.4582,-314.2"/>
<polygon fill="none" stroke="#000000" points="9.4582,-314.2 9.4582,-337.2 101.4582,-337.2 101.4582,-314.2 9.4582,-314.2"/>
<text text-anchor="start" x="14.4582" y="-323.3" font-family="Helvetica,sans-Serif" font-weight="bold" font-size="11.00" fill="#000000">eworker</text>
<text text-anchor="start" x="66.5019" y="-322.3" font-family="Helvetica,sans-Serif" font-size="11.00" fill="#000000">[table]</text>
<polygon fill="none" stroke="#000000" points="9.4582,-295.2 9.4582,-314.2 101.4582,-314.2 101.4582,-295.2 9.4582,-295.2"/>
<text text-anchor="start" x="12.4582" y="-301.3" font-family="Helvetica,sans-Serif" font-size="11.00" fill="#000000">...</text>
<polygon fill="#ffffff" stroke="transparent" points="9.4582,-276.2 9.4582,-295.2 30.4582,-295.2 30.4582,-276.2 9.4582,-276.2"/>
<polygon fill="none" stroke="#000000" points="9.4582,-276.2 9.4582,-295.2 30.4582,-295.2 30.4582,-276.2 9.4582,-276.2"/>
<text text-anchor="start" x="12.1609" y="-282.3" font-family="Helvetica,sans-Serif" font-size="11.00" fill="#000000">&lt; 4</text>
<polygon fill="#ffffff" stroke="transparent" points="30.4582,-276.2 30.4582,-295.2 80.4582,-295.2 80.4582,-276.2 30.4582,-276.2"/>
<polygon fill="none" stroke="#000000" points="30.4582,-276.2 30.4582,-295.2 80.4582,-295.2 80.4582,-276.2 30.4582,-276.2"/>
<text text-anchor="start" x="33.1486" y="-282.3" font-family="Helvetica,sans-Serif" font-size="11.00" fill="#000000">347 rows</text>
<polygon fill="#ffffff" stroke="transparent" points="80.4582,-276.2 80.4582,-295.2 101.4582,-295.2 101.4582,-276.2 80.4582,-276.2"/>
<polygon fill="none" stroke="#000000" points="80.4582,-276.2 80.4582,-295.2 101.4582,-295.2 101.4582,-276.2 80.4582,-276.2"/>
<text text-anchor="start" x="83.1609" y="-282.3" font-family="Helvetica,sans-Serif" font-size="11.00" fill="#000000">9 &gt;</text>
</a>
</g>
</g>
<!-- client&#45;&gt;eworker -->
<g id="edge3" class="edge">
<title>client:w&#45;&gt;eworker:e</title>
<path fill="none" stroke="#000000" d="M428.5885,-466.8742C396.0828,-482.1871 444.3753,-559.1504 401.4582,-590.2 308.1957,-657.6735 229.4378,-665.5997 142.4582,-590.2 93.9438,-548.1444 165.6635,-304.2 101.4582,-304.2"/>
<polygon fill="#000000" stroke="#000000" points="435.0932,-465.6637 443.6169,-467.7392 439.0257,-464.9319 442.9582,-464.2 442.9582,-464.2 442.9582,-464.2 439.0257,-464.9319 442.2995,-460.6608 435.0932,-465.6637 435.0932,-465.6637"/>
<ellipse fill="none" stroke="#000000" cx="431.9473" cy="-466.2492" rx="3.2" ry="3.2"/>
</g>
<!-- client&#45;&gt;eworker -->
<g id="edge4" class="edge">
<title>client:w&#45;&gt;eworker:e</title>
<path fill="none" stroke="#000000" d="M428.6575,-423.0753C399.3915,-438.1925 441.595,-508.8497 401.4582,-537.2 358.6221,-567.457 330.5938,-560.1926 283.4582,-537.2 268.6956,-529.9988 117.8836,-304.2 101.4582,-304.2"/>
<polygon fill="#000000" stroke="#000000" points="435.1152,-421.777 443.6679,-423.7294 439.0367,-420.9885 442.9582,-420.2 442.9582,-420.2 442.9582,-420.2 439.0367,-420.9885 442.2486,-416.6706 435.1152,-421.777 435.1152,-421.777"/>
<ellipse fill="none" stroke="#000000" cx="431.978" cy="-422.4078" rx="3.2" ry="3.2"/>
</g>
<!-- client&#45;&gt;eworker -->
<g id="edge7" class="edge">
<title>client:w&#45;&gt;eworker:e</title>
<path fill="none" stroke="#000000" d="M428.4798,-445.2269C400.2981,-460.5054 440.8886,-529.5099 401.4582,-557.2 358.5395,-587.3397 332.6026,-575.5098 283.4582,-557.2 205.8044,-528.2684 187.901,-504.4973 142.4582,-435.2 109.0035,-384.1837 162.4654,-304.2 101.4582,-304.2"/>
<polygon fill="#000000" stroke="#000000" points="435.1275,-443.8372 443.6949,-445.7238 439.0429,-443.0186 442.9582,-442.2 442.9582,-442.2 442.9582,-442.2 439.0429,-443.0186 442.2215,-438.6762 435.1275,-443.8372 435.1275,-443.8372"/>
<ellipse fill="none" stroke="#000000" cx="431.9952" cy="-444.492" rx="3.2" ry="3.2"/>
</g>
<!-- principal -->
<g id="node5" class="node">
<title>principal</title>
<g id="a_node5"><a xlink:href="../../tables/principal.html" xlink:title="principal" target="_top">
<polygon fill="#ffffff" stroke="transparent" points="150.4582,-276.7 150.4582,-337.7 242.4582,-337.7 242.4582,-276.7 150.4582,-276.7"/>
<polygon fill="#f5f5f5" stroke="transparent" points="150.4582,-314.2 150.4582,-337.2 242.4582,-337.2 242.4582,-314.2 150.4582,-314.2"/>
<polygon fill="none" stroke="#000000" points="150.4582,-314.2 150.4582,-337.2 242.4582,-337.2 242.4582,-314.2 150.4582,-314.2"/>
<text text-anchor="start" x="155.4582" y="-323.3" font-family="Helvetica,sans-Serif" font-weight="bold" font-size="11.00" fill="#000000">principal</text>
<text text-anchor="start" x="207.5019" y="-322.3" font-family="Helvetica,sans-Serif" font-size="11.00" fill="#000000">[table]</text>
<polygon fill="none" stroke="#000000" points="150.4582,-295.2 150.4582,-314.2 242.4582,-314.2 242.4582,-295.2 150.4582,-295.2"/>
<text text-anchor="start" x="153.4582" y="-301.3" font-family="Helvetica,sans-Serif" font-size="11.00" fill="#000000">...</text>
<polygon fill="#ffffff" stroke="transparent" points="150.4582,-276.2 150.4582,-295.2 171.4582,-295.2 171.4582,-276.2 150.4582,-276.2"/>
<polygon fill="none" stroke="#000000" points="150.4582,-276.2 150.4582,-295.2 171.4582,-295.2 171.4582,-276.2 150.4582,-276.2"/>
<text text-anchor="start" x="153.1609" y="-282.3" font-family="Helvetica,sans-Serif" font-size="11.00" fill="#000000">&lt; 1</text>
<polygon fill="#ffffff" stroke="transparent" points="171.4582,-276.2 171.4582,-295.2 215.4582,-295.2 215.4582,-276.2 171.4582,-276.2"/>
<polygon fill="none" stroke="#000000" points="171.4582,-276.2 171.4582,-295.2 215.4582,-295.2 215.4582,-276.2 171.4582,-276.2"/>
<text text-anchor="start" x="174.206" y="-282.3" font-family="Helvetica,sans-Serif" font-size="11.00" fill="#000000">18 rows</text>
<polygon fill="#ffffff" stroke="transparent" points="215.4582,-276.2 215.4582,-295.2 242.4582,-295.2 242.4582,-276.2 215.4582,-276.2"/>
<polygon fill="none" stroke="#000000" points="215.4582,-276.2 215.4582,-295.2 242.4582,-295.2 242.4582,-276.2 215.4582,-276.2"/>
<text text-anchor="start" x="218.1034" y="-282.3" font-family="Helvetica,sans-Serif" font-size="11.00" fill="#000000">56 &gt;</text>
</a>
</g>
</g>
<!-- client&#45;&gt;principal -->
<g id="edge5" class="edge">
<title>client:w&#45;&gt;principal:e</title>
<path fill="none" stroke="#000000" d="M428.5512,-617.9839C359.1315,-615.788 327.8098,-596.3416 283.4582,-536.2 252.3849,-494.064 294.8127,-304.2 242.4582,-304.2"/>
<polygon fill="#000000" stroke="#000000" points="434.9591,-618.08 442.9042,-621.7996 438.9587,-618.14 442.9582,-618.2 442.9582,-618.2 442.9582,-618.2 438.9587,-618.14 443.0122,-614.6004 434.9591,-618.08 434.9591,-618.08"/>
<ellipse fill="none" stroke="#000000" cx="431.7595" cy="-618.0319" rx="3.2" ry="3.2"/>
</g>
<!-- client&#45;&gt;principal -->
<g id="edge6" class="edge">
<title>client:w&#45;&gt;principal:e</title>
<path fill="none" stroke="#000000" d="M429.0429,-591.8516C416.9908,-581.6708 421.1824,-556.1707 401.4582,-543.2 356.1524,-513.4068 320.5879,-551.7175 283.4582,-512.2 218.9392,-443.5318 336.6815,-304.2 242.4582,-304.2"/>
<polygon fill="#000000" stroke="#000000" points="435.3223,-593.8138 441.8844,-599.6361 439.1403,-595.0069 442.9582,-596.2 442.9582,-596.2 442.9582,-596.2 439.1403,-595.0069 444.032,-592.7639 435.3223,-593.8138 435.3223,-593.8138"/>
<ellipse fill="none" stroke="#000000" cx="432.268" cy="-592.8594" rx="3.2" ry="3.2"/>
</g>
<!-- ework_team -->
<g id="node6" class="node">
<title>ework_team</title>
<g id="a_node6"><a xlink:href="../../tables/ework_team.html" xlink:title="ework_team" target="_top">
<polygon fill="#ffffff" stroke="transparent" points="291.4582,-358.7 291.4582,-419.7 393.4582,-419.7 393.4582,-358.7 291.4582,-358.7"/>
<polygon fill="#f5f5f5" stroke="transparent" points="291.4582,-396.2 291.4582,-419.2 393.4582,-419.2 393.4582,-396.2 291.4582,-396.2"/>
<polygon fill="none" stroke="#000000" points="291.4582,-396.2 291.4582,-419.2 393.4582,-419.2 393.4582,-396.2 291.4582,-396.2"/>
<text text-anchor="start" x="296.0102" y="-405.3" font-family="Helvetica,sans-Serif" font-weight="bold" font-size="11.00" fill="#000000">ework_team</text>
<text text-anchor="start" x="358.9801" y="-404.3" font-family="Helvetica,sans-Serif" font-size="11.00" fill="#000000">[table]</text>
<polygon fill="none" stroke="#000000" points="291.4582,-377.2 291.4582,-396.2 393.4582,-396.2 393.4582,-377.2 291.4582,-377.2"/>
<text text-anchor="start" x="294.4582" y="-383.3" font-family="Helvetica,sans-Serif" font-size="11.00" fill="#000000">...</text>
<polygon fill="#ffffff" stroke="transparent" points="291.4582,-358.2 291.4582,-377.2 323.4582,-377.2 323.4582,-358.2 291.4582,-358.2"/>
<polygon fill="none" stroke="#000000" points="291.4582,-358.2 291.4582,-377.2 323.4582,-377.2 323.4582,-358.2 291.4582,-358.2"/>
<text text-anchor="start" x="294.4582" y="-364.3" font-family="Helvetica,sans-Serif" font-size="11.00" fill="#000000">&lt; 2</text>
<polygon fill="#ffffff" stroke="transparent" points="323.4582,-358.2 323.4582,-377.2 366.4582,-377.2 366.4582,-358.2 323.4582,-358.2"/>
<polygon fill="none" stroke="#000000" points="323.4582,-358.2 323.4582,-377.2 366.4582,-377.2 366.4582,-358.2 323.4582,-358.2"/>
<text text-anchor="start" x="331.0687" y="-364.3" font-family="Helvetica,sans-Serif" font-size="11.00" fill="#000000">6 rows</text>
<polygon fill="#ffffff" stroke="transparent" points="366.4582,-358.2 366.4582,-377.2 393.4582,-377.2 393.4582,-358.2 366.4582,-358.2"/>
<polygon fill="none" stroke="#000000" points="366.4582,-358.2 366.4582,-377.2 393.4582,-377.2 393.4582,-358.2 366.4582,-358.2"/>
<text text-anchor="start" x="374.8635" y="-364.3" font-family="Helvetica,sans-Serif" font-size="11.00" fill="#000000">2 &gt;</text>
</a>
</g>
</g>
<!-- client&#45;&gt;ework_team -->
<g id="edge8" class="edge">
<title>client:w&#45;&gt;ework_team:e</title>
<path fill="none" stroke="#000000" d="M428.49,-396.2184C416.9184,-392.8101 410.2593,-386.2 393.4582,-386.2"/>
<polygon fill="#000000" stroke="#000000" points="435.0322,-397.1144 442.4697,-401.7667 438.9952,-397.6572 442.9582,-398.2 442.9582,-398.2 442.9582,-398.2 438.9952,-397.6572 443.4467,-394.6333 435.0322,-397.1144 435.0322,-397.1144"/>
<ellipse fill="none" stroke="#000000" cx="431.8618" cy="-396.6802" rx="3.2" ry="3.2"/>
</g>
<!-- client&#45;&gt;ework_team -->
<g id="edge9" class="edge">
<title>client:w&#45;&gt;ework_team:e</title>
<path fill="none" stroke="#000000" d="M428.5436,-377.8513C416.9508,-380.6916 410.1162,-386.2 393.4582,-386.2"/>
<polygon fill="#000000" stroke="#000000" points="435.0102,-377.1106 443.368,-379.7766 438.9842,-376.6553 442.9582,-376.2 442.9582,-376.2 442.9582,-376.2 438.9842,-376.6553 442.5485,-372.6234 435.0102,-377.1106 435.0102,-377.1106"/>
<ellipse fill="none" stroke="#000000" cx="431.831" cy="-377.4748" rx="3.2" ry="3.2"/>
</g>
<!-- file&#45;&gt;principal -->
<g id="edge28" class="edge">
<title>file:w&#45;&gt;principal:e</title>
<path fill="none" stroke="#000000" d="M279.1145,-300.825C266.8957,-298.575 259.4582,-299.7 242.4582,-304.2"/>
<polygon fill="#000000" stroke="#000000" points="285.6709,-302.3676 292.6337,-307.7043 289.5645,-303.2838 293.4582,-304.2 293.4582,-304.2 293.4582,-304.2 289.5645,-303.2838 294.2828,-300.6957 285.6709,-302.3676 285.6709,-302.3676"/>
<ellipse fill="none" stroke="#000000" cx="282.5559" cy="-301.6347" rx="3.2" ry="3.2"/>
</g>
<!-- file&#45;&gt;principal -->
<g id="edge29" class="edge">
<title>file:w&#45;&gt;principal:e</title>
<path fill="none" stroke="#000000" d="M279.4979,-308.0542C267.0496,-310.7894 259.6353,-309.5047 242.4582,-304.2"/>
<polygon fill="#000000" stroke="#000000" points="285.7467,-306.329 294.4163,-307.6702 289.6025,-305.2645 293.4582,-304.2 293.4582,-304.2 293.4582,-304.2 289.6025,-305.2645 292.5001,-300.7298 285.7467,-306.329 285.7467,-306.329"/>
<ellipse fill="none" stroke="#000000" cx="282.6621" cy="-307.1807" rx="3.2" ry="3.2"/>
</g>
<!-- client_group&#45;&gt;principal -->
<g id="edge20" class="edge">
<title>client_group:w&#45;&gt;principal:e</title>
<path fill="none" stroke="#000000" d="M277.3352,-464.3872C229.7089,-438.7927 312.8849,-298.6453 242.4582,-304.2"/>
<polygon fill="#000000" stroke="#000000" points="283.7347,-466.1148 290.5199,-471.6756 287.5965,-467.1574 291.4582,-468.2 291.4582,-468.2 291.4582,-468.2 287.5965,-467.1574 292.3965,-464.7244 283.7347,-466.1148 283.7347,-466.1148"/>
<ellipse fill="none" stroke="#000000" cx="280.6453" cy="-465.2808" rx="3.2" ry="3.2"/>
</g>
<!-- client_group&#45;&gt;principal -->
<g id="edge21" class="edge">
<title>client_group:w&#45;&gt;principal:e</title>
<path fill="none" stroke="#000000" d="M277.0355,-466.9681C230.0592,-451.1266 312.7363,-310.6668 242.4582,-304.2"/>
<polygon fill="#000000" stroke="#000000" points="283.4872,-467.5191 291.1518,-471.7869 287.4727,-467.8595 291.4582,-468.2 291.4582,-468.2 291.4582,-468.2 287.4727,-467.8595 291.7646,-464.6131 283.4872,-467.5191 283.4872,-467.5191"/>
<ellipse fill="none" stroke="#000000" cx="280.2988" cy="-467.2467" rx="3.2" ry="3.2"/>
</g>
<!-- eworker&#45;&gt;file -->
<g id="edge25" class="edge">
<title>eworker:w&#45;&gt;file:e</title>
<path fill="none" stroke="#000000" d="M.5454,-292.8675C.9133,-286.139 4.4799,-277.9275 9.4582,-272.7 50.2718,-229.843 83.2942,-267.6449 142.4582,-266.2 253.1296,-263.4972 315.0021,-192.6381 391.4582,-272.7 401.1271,-282.8249 405.4582,-304.2 391.4582,-304.2"/>
<polygon fill="#000000" stroke="#000000" points="4.5127,-297.9118 6.6285,-306.4255 6.9854,-301.0559 9.4582,-304.2 9.4582,-304.2 9.4582,-304.2 6.9854,-301.0559 12.2879,-301.9745 4.5127,-297.9118 4.5127,-297.9118"/>
<ellipse fill="none" stroke="#000000" cx="2.5344" cy="-295.3965" rx="3.2" ry="3.2"/>
</g>
<!-- eworker&#45;&gt;principal -->
<g id="edge26" class="edge">
<title>eworker:w&#45;&gt;principal:e</title>
<path fill="none" stroke="#000000" d="M.7486,-292.6321C-.7486,-283.9147 3.1937,-272.9645 9.4582,-266.7 18.6113,-257.5469 233.3051,-257.5469 242.4582,-266.7 252.3577,-276.5995 256.4582,-298.2 242.4582,-304.2"/>
<polygon fill="#000000" stroke="#000000" points="4.6463,-297.8089 6.5822,-306.3654 7.0522,-301.0045 9.4582,-304.2 9.4582,-304.2 9.4582,-304.2 7.0522,-301.0045 12.3342,-302.0346 4.6463,-297.8089 4.6463,-297.8089"/>
<ellipse fill="none" stroke="#000000" cx="2.7215" cy="-295.2525" rx="3.2" ry="3.2"/>
</g>
<!-- eworker&#45;&gt;principal -->
<g id="edge27" class="edge">
<title>eworker:w&#45;&gt;principal:e</title>
<path fill="none" stroke="#000000" d="M2.021,-291.8005C3.586,-287.4563 6.2099,-282.9483 9.4582,-279.7 18.6113,-270.5469 233.3051,-270.5469 242.4582,-279.7 252.3577,-289.5995 256.4582,-311.2 242.4582,-304.2"/>
<polygon fill="#000000" stroke="#000000" points="5.3433,-297.3394 6.371,-306.0517 7.4007,-300.7697 9.4582,-304.2 9.4582,-304.2 9.4582,-304.2 7.4007,-300.7697 12.5455,-302.3483 5.3433,-297.3394 5.3433,-297.3394"/>
<ellipse fill="none" stroke="#000000" cx="3.6973" cy="-294.5952" rx="3.2" ry="3.2"/>
</g>
<!-- principal&#45;&gt;eworker -->
<g id="edge46" class="edge">
<title>principal:w&#45;&gt;eworker:e</title>
<path fill="none" stroke="#000000" d="M135.9491,-304.2C124.6356,-304.2 117.4513,-304.2 101.4582,-304.2"/>
<polygon fill="#000000" stroke="#000000" points="142.4582,-304.2001 150.4582,-307.8 146.4582,-304.2 150.4582,-304.2 150.4582,-304.2 150.4582,-304.2 146.4582,-304.2 150.4582,-300.6 142.4582,-304.2001 142.4582,-304.2001"/>
<ellipse fill="none" stroke="#000000" cx="139.2582" cy="-304.2001" rx="3.2" ry="3.2"/>
</g>
<!-- ework_team&#45;&gt;principal -->
<g id="edge23" class="edge">
<title>ework_team:w&#45;&gt;principal:e</title>
<path fill="none" stroke="#000000" d="M278.3221,-380.1718C257.1593,-359.971 279.2751,-298.9969 242.4582,-304.2"/>
<polygon fill="#000000" stroke="#000000" points="284.1872,-382.8633 289.9567,-389.4719 287.8227,-384.5317 291.4582,-386.2 291.4582,-386.2 291.4582,-386.2 287.8227,-384.5317 292.9597,-382.9281 284.1872,-382.8633 284.1872,-382.8633"/>
<ellipse fill="none" stroke="#000000" cx="281.2789" cy="-381.5287" rx="3.2" ry="3.2"/>
</g>
<!-- ework_team&#45;&gt;principal -->
<g id="edge24" class="edge">
<title>ework_team:w&#45;&gt;principal:e</title>
<path fill="none" stroke="#000000" d="M277.2197,-383.9706C257.9371,-370.5088 278.6117,-310.1609 242.4582,-304.2"/>
<polygon fill="#000000" stroke="#000000" points="283.5545,-384.9624 290.9013,-389.7567 287.5064,-385.5812 291.4582,-386.2 291.4582,-386.2 291.4582,-386.2 287.5064,-385.5812 292.0151,-382.6433 283.5545,-384.9624 283.5545,-384.9624"/>
<ellipse fill="none" stroke="#000000" cx="280.393" cy="-384.4674" rx="3.2" ry="3.2"/>
</g>
<!-- client_address -->
<g id="node7" class="node">
<title>client_address</title>
<g id="a_node7"><a xlink:href="../../tables/client_address.html" xlink:title="client_address" target="_top">
<polygon fill="#ffffff" stroke="transparent" points="692.4582,-395.2 692.4582,-705.2 886.4582,-705.2 886.4582,-395.2 692.4582,-395.2"/>
<polygon fill="#f5f5f5" stroke="transparent" points="694.4582,-680.2 694.4582,-703.2 884.4582,-703.2 884.4582,-680.2 694.4582,-680.2"/>
<polygon fill="none" stroke="#000000" points="694.4582,-680.2 694.4582,-703.2 884.4582,-703.2 884.4582,-680.2 694.4582,-680.2"/>
<text text-anchor="start" x="699.4582" y="-689.3" font-family="Helvetica,sans-Serif" font-weight="bold" font-size="11.00" fill="#000000">client_address</text>
<text text-anchor="start" x="849.5019" y="-688.3" font-family="Helvetica,sans-Serif" font-size="11.00" fill="#000000">[table]</text>
<polygon fill="none" stroke="#000000" points="694.4582,-658.2 694.4582,-680.2 817.4582,-680.2 817.4582,-658.2 694.4582,-658.2"/>
<image xlink:href="../../images/primaryKeys.png" width="11px" height="12px" preserveAspectRatio="xMinYMin meet" x="699.458" y="-675.2"/>
<text text-anchor="start" x="714.4582" y="-665.3" font-family="Helvetica,sans-Serif" font-size="11.00" fill="#000000">id</text>
<polygon fill="none" stroke="#000000" points="817.4582,-658.2 817.4582,-680.2 884.4582,-680.2 884.4582,-658.2 817.4582,-658.2"/>
<text text-anchor="start" x="820.4582" y="-665.9" font-family="Helvetica,sans-Serif" font-size="11.00" fill="#000000">bigint[19]</text>
<polygon fill="none" stroke="#000000" points="694.4582,-636.2 694.4582,-658.2 817.4582,-658.2 817.4582,-636.2 694.4582,-636.2"/>
<text text-anchor="start" x="714.4582" y="-643.3" font-family="Helvetica,sans-Serif" font-size="11.00" fill="#000000">created_by</text>
<polygon fill="none" stroke="#000000" points="817.4582,-636.2 817.4582,-658.2 884.4582,-658.2 884.4582,-636.2 817.4582,-636.2"/>
<text text-anchor="start" x="820.4582" y="-643.9" font-family="Helvetica,sans-Serif" font-size="11.00" fill="#000000">bigint[19]</text>
<polygon fill="none" stroke="#000000" points="694.4582,-614.2 694.4582,-636.2 817.4582,-636.2 817.4582,-614.2 694.4582,-614.2"/>
<text text-anchor="start" x="714.4582" y="-621.3" font-family="Helvetica,sans-Serif" font-size="11.00" fill="#000000">creation_date</text>
<polygon fill="none" stroke="#000000" points="817.4582,-614.2 817.4582,-636.2 884.4582,-636.2 884.4582,-614.2 817.4582,-614.2"/>
<text text-anchor="start" x="820.4582" y="-621.9" font-family="Helvetica,sans-Serif" font-size="11.00" fill="#000000">datetime[26]</text>
<polygon fill="none" stroke="#000000" points="694.4582,-592.2 694.4582,-614.2 817.4582,-614.2 817.4582,-592.2 694.4582,-592.2"/>
<text text-anchor="start" x="714.4582" y="-599.3" font-family="Helvetica,sans-Serif" font-size="11.00" fill="#000000">modified_by</text>
<polygon fill="none" stroke="#000000" points="817.4582,-592.2 817.4582,-614.2 884.4582,-614.2 884.4582,-592.2 817.4582,-592.2"/>
<text text-anchor="start" x="820.4582" y="-599.9" font-family="Helvetica,sans-Serif" font-size="11.00" fill="#000000">bigint[19]</text>
<polygon fill="none" stroke="#000000" points="694.4582,-570.2 694.4582,-592.2 817.4582,-592.2 817.4582,-570.2 694.4582,-570.2"/>
<text text-anchor="start" x="714.4582" y="-577.3" font-family="Helvetica,sans-Serif" font-size="11.00" fill="#000000">modification_date</text>
<polygon fill="none" stroke="#000000" points="817.4582,-570.2 817.4582,-592.2 884.4582,-592.2 884.4582,-570.2 817.4582,-570.2"/>
<text text-anchor="start" x="820.4582" y="-577.9" font-family="Helvetica,sans-Serif" font-size="11.00" fill="#000000">datetime[26]</text>
<polygon fill="none" stroke="#000000" points="694.4582,-548.2 694.4582,-570.2 817.4582,-570.2 817.4582,-548.2 694.4582,-548.2"/>
<text text-anchor="start" x="714.4582" y="-555.3" font-family="Helvetica,sans-Serif" font-size="11.00" fill="#000000">address_line1</text>
<polygon fill="none" stroke="#000000" points="817.4582,-548.2 817.4582,-570.2 884.4582,-570.2 884.4582,-548.2 817.4582,-548.2"/>
<text text-anchor="start" x="820.3947" y="-555.9" font-family="Helvetica,sans-Serif" font-size="11.00" fill="#000000">varchar[255]</text>
<polygon fill="none" stroke="#000000" points="694.4582,-526.2 694.4582,-548.2 817.4582,-548.2 817.4582,-526.2 694.4582,-526.2"/>
<text text-anchor="start" x="714.4582" y="-533.3" font-family="Helvetica,sans-Serif" font-size="11.00" fill="#000000">address_line2</text>
<polygon fill="none" stroke="#000000" points="817.4582,-526.2 817.4582,-548.2 884.4582,-548.2 884.4582,-526.2 817.4582,-526.2"/>
<text text-anchor="start" x="820.3947" y="-533.9" font-family="Helvetica,sans-Serif" font-size="11.00" fill="#000000">varchar[255]</text>
<polygon fill="none" stroke="#000000" points="694.4582,-504.2 694.4582,-526.2 817.4582,-526.2 817.4582,-504.2 694.4582,-504.2"/>
<text text-anchor="start" x="714.4582" y="-511.3" font-family="Helvetica,sans-Serif" font-size="11.00" fill="#000000">address_box</text>
<polygon fill="none" stroke="#000000" points="817.4582,-504.2 817.4582,-526.2 884.4582,-526.2 884.4582,-504.2 817.4582,-504.2"/>
<text text-anchor="start" x="820.3947" y="-511.9" font-family="Helvetica,sans-Serif" font-size="11.00" fill="#000000">varchar[255]</text>
<polygon fill="none" stroke="#000000" points="694.4582,-482.2 694.4582,-504.2 817.4582,-504.2 817.4582,-482.2 694.4582,-482.2"/>
<text text-anchor="start" x="714.4582" y="-489.3" font-family="Helvetica,sans-Serif" font-size="11.00" fill="#000000">zip_code</text>
<polygon fill="none" stroke="#000000" points="817.4582,-482.2 817.4582,-504.2 884.4582,-504.2 884.4582,-482.2 817.4582,-482.2"/>
<text text-anchor="start" x="820.4582" y="-489.9" font-family="Helvetica,sans-Serif" font-size="11.00" fill="#000000">varchar[50]</text>
<polygon fill="none" stroke="#000000" points="694.4582,-460.2 694.4582,-482.2 817.4582,-482.2 817.4582,-460.2 694.4582,-460.2"/>
<text text-anchor="start" x="714.4582" y="-467.3" font-family="Helvetica,sans-Serif" font-size="11.00" fill="#000000">city</text>
<polygon fill="none" stroke="#000000" points="817.4582,-460.2 817.4582,-482.2 884.4582,-482.2 884.4582,-460.2 817.4582,-460.2"/>
<text text-anchor="start" x="820.3947" y="-467.9" font-family="Helvetica,sans-Serif" font-size="11.00" fill="#000000">varchar[255]</text>
<polygon fill="none" stroke="#000000" points="694.4582,-438.2 694.4582,-460.2 817.4582,-460.2 817.4582,-438.2 694.4582,-438.2"/>
<text text-anchor="start" x="714.4582" y="-445.3" font-family="Helvetica,sans-Serif" font-size="11.00" fill="#000000">country</text>
<polygon fill="none" stroke="#000000" points="817.4582,-438.2 817.4582,-460.2 884.4582,-460.2 884.4582,-438.2 817.4582,-438.2"/>
<text text-anchor="start" x="820.3947" y="-445.9" font-family="Helvetica,sans-Serif" font-size="11.00" fill="#000000">varchar[255]</text>
<polygon fill="#ffffff" stroke="transparent" points="694.4582,-416.2 694.4582,-438.2 817.4582,-438.2 817.4582,-416.2 694.4582,-416.2"/>
<polygon fill="none" stroke="#000000" points="694.4582,-416.2 694.4582,-438.2 817.4582,-438.2 817.4582,-416.2 694.4582,-416.2"/>
<image xlink:href="../../images/foreignKeys.png" width="11px" height="12px" preserveAspectRatio="xMinYMin meet" x="699.458" y="-433.2"/>
<text text-anchor="start" x="714.4582" y="-423.3" font-family="Helvetica,sans-Serif" font-size="11.00" fill="#000000">client_id</text>
<polygon fill="none" stroke="#000000" points="817.4582,-416.2 817.4582,-438.2 884.4582,-438.2 884.4582,-416.2 817.4582,-416.2"/>
<text text-anchor="start" x="820.4582" y="-423.9" font-family="Helvetica,sans-Serif" font-size="11.00" fill="#000000">bigint[19]</text>
<polygon fill="#ffffff" stroke="transparent" points="694.4582,-397.2 694.4582,-416.2 741.4582,-416.2 741.4582,-397.2 694.4582,-397.2"/>
<polygon fill="none" stroke="#000000" points="694.4582,-397.2 694.4582,-416.2 741.4582,-416.2 741.4582,-397.2 694.4582,-397.2"/>
<text text-anchor="start" x="697.4582" y="-403.3" font-family="Helvetica,sans-Serif" font-size="11.00" fill="#000000">&lt; 1</text>
<polygon fill="#ffffff" stroke="transparent" points="741.4582,-397.2 741.4582,-416.2 817.4582,-416.2 817.4582,-397.2 741.4582,-397.2"/>
<polygon fill="none" stroke="#000000" points="741.4582,-397.2 741.4582,-416.2 817.4582,-416.2 817.4582,-397.2 741.4582,-397.2"/>
<text text-anchor="start" x="769.8389" y="-403.3" font-family="Helvetica,sans-Serif" font-size="11.00" fill="#000000">100 rows</text>
<polygon fill="#ffffff" stroke="transparent" points="817.4582,-397.2 817.4582,-416.2 884.4582,-416.2 884.4582,-397.2 817.4582,-397.2"/>
<polygon fill="none" stroke="#000000" points="817.4582,-397.2 817.4582,-416.2 884.4582,-416.2 884.4582,-397.2 817.4582,-397.2"/>
<text text-anchor="start" x="865.8635" y="-403.3" font-family="Helvetica,sans-Serif" font-size="11.00" fill="#000000">3 &gt;</text>
<polygon fill="none" stroke="#000000" stroke-width="2" points="693.4582,-396.2 693.4582,-704.2 885.4582,-704.2 885.4582,-396.2 693.4582,-396.2"/>
</a>
</g>
</g>
<!-- client_address&#45;&gt;client -->
<g id="edge10" class="edge">
<title>client_address:w&#45;&gt;client:e</title>
<path fill="none" stroke="#000000" d="M680.1617,-429.1726C612.7147,-450.6456 735.7386,-640.2 643.9582,-640.2"/>
<polygon fill="#000000" stroke="#000000" points="686.5333,-428.2935 694.9503,-430.7662 690.4958,-427.7468 694.4582,-427.2 694.4582,-427.2 694.4582,-427.2 690.4958,-427.7468 693.9661,-423.6338 686.5333,-428.2935 686.5333,-428.2935"/>
<ellipse fill="none" stroke="#000000" cx="683.3633" cy="-428.7309" rx="3.2" ry="3.2"/>
</g>
<!-- client_address_type -->
<g id="node8" class="node">
<title>client_address_type</title>
<g id="a_node8"><a xlink:href="../../tables/client_address_type.html" xlink:title="client_address_type" target="_top">
<polygon fill="#ffffff" stroke="transparent" points="1021.9582,-585.2 1021.9582,-671.2 1161.9582,-671.2 1161.9582,-585.2 1021.9582,-585.2"/>
<polygon fill="#f5f5f5" stroke="transparent" points="1021.9582,-648.2 1021.9582,-671.2 1161.9582,-671.2 1161.9582,-648.2 1021.9582,-648.2"/>
<polygon fill="none" stroke="#000000" points="1021.9582,-648.2 1021.9582,-671.2 1161.9582,-671.2 1161.9582,-648.2 1021.9582,-648.2"/>
<text text-anchor="start" x="1026.555" y="-657.3" font-family="Helvetica,sans-Serif" font-weight="bold" font-size="11.00" fill="#000000">client_address_type</text>
<text text-anchor="start" x="1127.4801" y="-656.3" font-family="Helvetica,sans-Serif" font-size="11.00" fill="#000000">[table]</text>
<polygon fill="none" stroke="#000000" points="1021.9582,-626.2 1021.9582,-648.2 1161.9582,-648.2 1161.9582,-626.2 1021.9582,-626.2"/>
<image xlink:href="../../images/primaryKeys.png" width="11px" height="12px" preserveAspectRatio="xMinYMin meet" x="1026.96" y="-643.2"/>
<text text-anchor="start" x="1043.9582" y="-633.3" font-family="Helvetica,sans-Serif" font-size="11.00" fill="#000000">address_id</text>
<polygon fill="none" stroke="#000000" points="1021.9582,-604.2 1021.9582,-626.2 1161.9582,-626.2 1161.9582,-604.2 1021.9582,-604.2"/>
<image xlink:href="../../images/primaryKeys.png" width="11px" height="12px" preserveAspectRatio="xMinYMin meet" x="1026.96" y="-621.2"/>
<text text-anchor="start" x="1043.9582" y="-611.3" font-family="Helvetica,sans-Serif" font-size="11.00" fill="#000000">type</text>
<polygon fill="#ffffff" stroke="transparent" points="1021.9582,-585.2 1021.9582,-604.2 1070.9582,-604.2 1070.9582,-585.2 1021.9582,-585.2"/>
<polygon fill="none" stroke="#000000" points="1021.9582,-585.2 1021.9582,-604.2 1070.9582,-604.2 1070.9582,-585.2 1021.9582,-585.2"/>
<text text-anchor="start" x="1024.9582" y="-591.3" font-family="Helvetica,sans-Serif" font-size="11.00" fill="#000000">&lt; 1</text>
<polygon fill="#ffffff" stroke="transparent" points="1070.9582,-585.2 1070.9582,-604.2 1134.9582,-604.2 1134.9582,-585.2 1070.9582,-585.2"/>
<polygon fill="none" stroke="#000000" points="1070.9582,-585.2 1070.9582,-604.2 1134.9582,-604.2 1134.9582,-585.2 1070.9582,-585.2"/>
<text text-anchor="start" x="1087.3389" y="-591.3" font-family="Helvetica,sans-Serif" font-size="11.00" fill="#000000">203 rows</text>
<polygon fill="#ffffff" stroke="transparent" points="1134.9582,-585.2 1134.9582,-604.2 1161.9582,-604.2 1161.9582,-585.2 1134.9582,-585.2"/>
<polygon fill="none" stroke="#000000" points="1134.9582,-585.2 1134.9582,-604.2 1161.9582,-604.2 1161.9582,-585.2 1134.9582,-585.2"/>
<text text-anchor="start" x="1152.8444" y="-591.3" font-family="Helvetica,sans-Serif" font-size="11.00" fill="#000000"> &#160;</text>
</a>
</g>
</g>
<!-- client_address_type&#45;&gt;client_address -->
<g id="edge11" class="edge">
<title>client_address_type:w&#45;&gt;client_address:e</title>
<path fill="none" stroke="#000000" d="M1007.4854,-637.8107C956.9019,-642.2347 942.0555,-669.2 884.4582,-669.2"/>
<polygon fill="#000000" stroke="#000000" points="1013.9653,-637.5373 1022.11,-640.7968 1017.9618,-637.3687 1021.9582,-637.2 1021.9582,-637.2 1021.9582,-637.2 1017.9618,-637.3687 1021.8064,-633.6032 1013.9653,-637.5373 1013.9653,-637.5373"/>
<ellipse fill="none" stroke="#000000" cx="1010.7682" cy="-637.6722" rx="3.2" ry="3.2"/>
</g>
<!-- client_contact -->
<g id="node9" class="node">
<title>client_contact</title>
<g id="a_node9"><a xlink:href="../../tables/client_contact.html" xlink:title="client_contact" target="_top">
<polygon fill="#ffffff" stroke="transparent" points="734.4582,-258.7 734.4582,-319.7 844.4582,-319.7 844.4582,-258.7 734.4582,-258.7"/>
<polygon fill="#f5f5f5" stroke="transparent" points="734.4582,-296.2 734.4582,-319.2 844.4582,-319.2 844.4582,-296.2 734.4582,-296.2"/>
<polygon fill="none" stroke="#000000" points="734.4582,-296.2 734.4582,-319.2 844.4582,-319.2 844.4582,-296.2 734.4582,-296.2"/>
<text text-anchor="start" x="739.3373" y="-305.3" font-family="Helvetica,sans-Serif" font-weight="bold" font-size="11.00" fill="#000000">client_contact</text>
<text text-anchor="start" x="809.9801" y="-304.3" font-family="Helvetica,sans-Serif" font-size="11.00" fill="#000000">[table]</text>
<polygon fill="none" stroke="#000000" points="734.4582,-277.2 734.4582,-296.2 844.4582,-296.2 844.4582,-277.2 734.4582,-277.2"/>
<text text-anchor="start" x="737.4582" y="-283.3" font-family="Helvetica,sans-Serif" font-size="11.00" fill="#000000">...</text>
<polygon fill="#ffffff" stroke="transparent" points="734.4582,-258.2 734.4582,-277.2 764.4582,-277.2 764.4582,-258.2 734.4582,-258.2"/>
<polygon fill="none" stroke="#000000" points="734.4582,-258.2 734.4582,-277.2 764.4582,-277.2 764.4582,-258.2 734.4582,-258.2"/>
<text text-anchor="start" x="737.4582" y="-264.3" font-family="Helvetica,sans-Serif" font-size="11.00" fill="#000000">&lt; 4</text>
<polygon fill="#ffffff" stroke="transparent" points="764.4582,-258.2 764.4582,-277.2 818.4582,-277.2 818.4582,-258.2 764.4582,-258.2"/>
<polygon fill="none" stroke="#000000" points="764.4582,-258.2 764.4582,-277.2 818.4582,-277.2 818.4582,-258.2 764.4582,-258.2"/>
<text text-anchor="start" x="770.8389" y="-264.3" font-family="Helvetica,sans-Serif" font-size="11.00" fill="#000000">561 rows</text>
<polygon fill="#ffffff" stroke="transparent" points="818.4582,-258.2 818.4582,-277.2 844.4582,-277.2 844.4582,-258.2 818.4582,-258.2"/>
<polygon fill="none" stroke="#000000" points="818.4582,-258.2 818.4582,-277.2 844.4582,-277.2 844.4582,-258.2 818.4582,-258.2"/>
<text text-anchor="start" x="825.8635" y="-264.3" font-family="Helvetica,sans-Serif" font-size="11.00" fill="#000000">2 &gt;</text>
</a>
</g>
</g>
<!-- client_contact&#45;&gt;client -->
<g id="edge13" class="edge">
<title>client_contact:w&#45;&gt;client:e</title>
<path fill="none" stroke="#000000" d="M720.1267,-288.1087C701.4771,-293.7983 695.8731,-311.6555 684.4582,-334.2 653.4732,-395.3958 712.5512,-640.2 643.9582,-640.2"/>
<polygon fill="#000000" stroke="#000000" points="726.5282,-287.2562 734.9335,-289.7685 730.4932,-286.7281 734.4582,-286.2 734.4582,-286.2 734.4582,-286.2 730.4932,-286.7281 733.9829,-282.6315 726.5282,-287.2562 726.5282,-287.2562"/>
<ellipse fill="none" stroke="#000000" cx="723.3562" cy="-287.6787" rx="3.2" ry="3.2"/>
</g>
<!-- client_contact&#45;&gt;file -->
<g id="edge12" class="edge">
<title>client_contact:w&#45;&gt;file:e</title>
<path fill="none" stroke="#000000" d="M720.0077,-286.1737C598.3954,-285.7318 562.0058,-280.0588 434.4582,-295.2 415.0691,-297.5017 410.9834,-304.2 391.4582,-304.2"/>
<polygon fill="#000000" stroke="#000000" points="726.4582,-286.1854 734.4516,-289.8 730.4582,-286.1927 734.4582,-286.2 734.4582,-286.2 734.4582,-286.2 730.4582,-286.1927 734.4648,-282.6 726.4582,-286.1854 726.4582,-286.1854"/>
<ellipse fill="none" stroke="#000000" cx="723.2582" cy="-286.1795" rx="3.2" ry="3.2"/>
</g>
<!-- client_contact&#45;&gt;principal -->
<g id="edge14" class="edge">
<title>client_contact:w&#45;&gt;principal:e</title>
<path fill="none" stroke="#000000" d="M720.0041,-286.037C530.6395,-281.746 465.6901,-194.7378 283.4582,-266.2 260.3279,-275.2705 267.3034,-304.2 242.4582,-304.2"/>
<polygon fill="#000000" stroke="#000000" points="726.4587,-286.1098 734.4176,-289.7998 730.4585,-286.1549 734.4582,-286.2 734.4582,-286.2 734.4582,-286.2 730.4585,-286.1549 734.4988,-282.6002 726.4587,-286.1098 726.4587,-286.1098"/>
<ellipse fill="none" stroke="#000000" cx="723.2589" cy="-286.0737" rx="3.2" ry="3.2"/>
</g>
<!-- client_contact&#45;&gt;principal -->
<g id="edge15" class="edge">
<title>client_contact:w&#45;&gt;principal:e</title>
<path fill="none" stroke="#000000" d="M720.0123,-286.0531C530.7966,-282.1865 467.5247,-203.8089 283.4582,-270.2 261.1898,-278.232 266.1309,-304.2 242.4582,-304.2"/>
<polygon fill="#000000" stroke="#000000" points="726.4586,-286.1186 734.4216,-289.7998 730.4584,-286.1593 734.4582,-286.2 734.4582,-286.2 734.4582,-286.2 730.4584,-286.1593 734.4948,-282.6002 726.4586,-286.1186 726.4586,-286.1186"/>
<ellipse fill="none" stroke="#000000" cx="723.2588" cy="-286.0861" rx="3.2" ry="3.2"/>
</g>
<!-- client_currency -->
<g id="node10" class="node">
<title>client_currency</title>
<g id="a_node10"><a xlink:href="../../tables/client_currency.html" xlink:title="client_currency" target="_top">
<polygon fill="#ffffff" stroke="transparent" points="731.4582,-136.7 731.4582,-197.7 847.4582,-197.7 847.4582,-136.7 731.4582,-136.7"/>
<polygon fill="#f5f5f5" stroke="transparent" points="731.4582,-174.2 731.4582,-197.2 847.4582,-197.2 847.4582,-174.2 731.4582,-174.2"/>
<polygon fill="none" stroke="#000000" points="731.4582,-174.2 731.4582,-197.2 847.4582,-197.2 847.4582,-174.2 731.4582,-174.2"/>
<text text-anchor="start" x="735.9823" y="-183.3" font-family="Helvetica,sans-Serif" font-weight="bold" font-size="11.00" fill="#000000">client_currency</text>
<text text-anchor="start" x="812.9801" y="-182.3" font-family="Helvetica,sans-Serif" font-size="11.00" fill="#000000">[table]</text>
<polygon fill="none" stroke="#000000" points="731.4582,-155.2 731.4582,-174.2 847.4582,-174.2 847.4582,-155.2 731.4582,-155.2"/>
<text text-anchor="start" x="734.4582" y="-161.3" font-family="Helvetica,sans-Serif" font-size="11.00" fill="#000000">...</text>
<polygon fill="#ffffff" stroke="transparent" points="731.4582,-136.2 731.4582,-155.2 771.4582,-155.2 771.4582,-136.2 731.4582,-136.2"/>
<polygon fill="none" stroke="#000000" points="731.4582,-136.2 731.4582,-155.2 771.4582,-155.2 771.4582,-136.2 731.4582,-136.2"/>
<text text-anchor="start" x="734.4582" y="-142.3" font-family="Helvetica,sans-Serif" font-size="11.00" fill="#000000">&lt; 3</text>
<polygon fill="#ffffff" stroke="transparent" points="771.4582,-136.2 771.4582,-155.2 825.4582,-155.2 825.4582,-136.2 771.4582,-136.2"/>
<polygon fill="none" stroke="#000000" points="771.4582,-136.2 771.4582,-155.2 825.4582,-155.2 825.4582,-136.2 771.4582,-136.2"/>
<text text-anchor="start" x="783.9538" y="-142.3" font-family="Helvetica,sans-Serif" font-size="11.00" fill="#000000">22 rows</text>
<polygon fill="#ffffff" stroke="transparent" points="825.4582,-136.2 825.4582,-155.2 847.4582,-155.2 847.4582,-136.2 825.4582,-136.2"/>
<polygon fill="none" stroke="#000000" points="825.4582,-136.2 825.4582,-155.2 847.4582,-155.2 847.4582,-136.2 825.4582,-136.2"/>
<text text-anchor="start" x="838.3444" y="-142.3" font-family="Helvetica,sans-Serif" font-size="11.00" fill="#000000"> &#160;</text>
</a>
</g>
</g>
<!-- client_currency&#45;&gt;client -->
<g id="edge16" class="edge">
<title>client_currency:w&#45;&gt;client:e</title>
<path fill="none" stroke="#000000" d="M716.9655,-166.3799C690.6054,-175.636 695.653,-212.8311 684.4582,-248.2 671.2449,-289.9462 687.7456,-640.2 643.9582,-640.2"/>
<polygon fill="#000000" stroke="#000000" points="723.5472,-165.39 731.9937,-167.76 727.5027,-164.795 731.4582,-164.2 731.4582,-164.2 731.4582,-164.2 727.5027,-164.795 730.9227,-160.64 723.5472,-165.39 723.5472,-165.39"/>
<ellipse fill="none" stroke="#000000" cx="720.3828" cy="-165.8659" rx="3.2" ry="3.2"/>
</g>
<!-- client_currency&#45;&gt;principal -->
<g id="edge17" class="edge">
<title>client_currency:w&#45;&gt;principal:e</title>
<path fill="none" stroke="#000000" d="M717.0438,-164.0393C527.6121,-159.8165 439.3775,-74.7557 283.4582,-191.2 240.6524,-223.1684 295.8841,-304.2 242.4582,-304.2"/>
<polygon fill="#000000" stroke="#000000" points="723.4587,-164.1107 731.418,-167.7998 727.4585,-164.1554 731.4582,-164.2 731.4582,-164.2 731.4582,-164.2 727.4585,-164.1554 731.4984,-160.6002 723.4587,-164.1107 723.4587,-164.1107"/>
<ellipse fill="none" stroke="#000000" cx="720.2589" cy="-164.075" rx="3.2" ry="3.2"/>
</g>
<!-- client_currency&#45;&gt;principal -->
<g id="edge18" class="edge">
<title>client_currency:w&#45;&gt;principal:e</title>
<path fill="none" stroke="#000000" d="M717.0363,-164.0466C527.5152,-160.0169 439.6317,-78.909 283.4582,-195.2 241.9448,-226.112 294.2164,-304.2 242.4582,-304.2"/>
<polygon fill="#000000" stroke="#000000" points="723.4587,-164.1148 731.4199,-167.7998 727.4584,-164.1574 731.4582,-164.2 731.4582,-164.2 731.4582,-164.2 727.4584,-164.1574 731.4965,-160.6002 723.4587,-164.1148 723.4587,-164.1148"/>
<ellipse fill="none" stroke="#000000" cx="720.2588" cy="-164.0808" rx="3.2" ry="3.2"/>
</g>
<!-- client_ework_unit -->
<g id="node11" class="node">
<title>client_ework_unit</title>
<g id="a_node11"><a xlink:href="../../tables/client_ework_unit.html" xlink:title="client_ework_unit" target="_top">
<polygon fill="#ffffff" stroke="transparent" points="725.9582,-808.7 725.9582,-869.7 852.9582,-869.7 852.9582,-808.7 725.9582,-808.7"/>
<polygon fill="#f5f5f5" stroke="transparent" points="726.4582,-846.2 726.4582,-869.2 853.4582,-869.2 853.4582,-846.2 726.4582,-846.2"/>
<polygon fill="none" stroke="#000000" points="726.4582,-846.2 726.4582,-869.2 853.4582,-869.2 853.4582,-846.2 726.4582,-846.2"/>
<text text-anchor="start" x="730.979" y="-855.3" font-family="Helvetica,sans-Serif" font-weight="bold" font-size="11.00" fill="#000000">client_ework_unit</text>
<text text-anchor="start" x="818.9801" y="-854.3" font-family="Helvetica,sans-Serif" font-size="11.00" fill="#000000">[table]</text>
<polygon fill="none" stroke="#000000" points="726.4582,-827.2 726.4582,-846.2 853.4582,-846.2 853.4582,-827.2 726.4582,-827.2"/>
<text text-anchor="start" x="729.4582" y="-833.3" font-family="Helvetica,sans-Serif" font-size="11.00" fill="#000000">...</text>
<polygon fill="#ffffff" stroke="transparent" points="726.4582,-808.2 726.4582,-827.2 772.4582,-827.2 772.4582,-808.2 726.4582,-808.2"/>
<polygon fill="none" stroke="#000000" points="726.4582,-808.2 726.4582,-827.2 772.4582,-827.2 772.4582,-808.2 726.4582,-808.2"/>
<text text-anchor="start" x="729.4582" y="-814.3" font-family="Helvetica,sans-Serif" font-size="11.00" fill="#000000">&lt; 2</text>
<polygon fill="#ffffff" stroke="transparent" points="772.4582,-808.2 772.4582,-827.2 828.4582,-827.2 828.4582,-808.2 772.4582,-808.2"/>
<polygon fill="none" stroke="#000000" points="772.4582,-808.2 772.4582,-827.2 828.4582,-827.2 828.4582,-808.2 772.4582,-808.2"/>
<text text-anchor="start" x="786.9538" y="-814.3" font-family="Helvetica,sans-Serif" font-size="11.00" fill="#000000">16 rows</text>
<polygon fill="#ffffff" stroke="transparent" points="828.4582,-808.2 828.4582,-827.2 853.4582,-827.2 853.4582,-808.2 828.4582,-808.2"/>
<polygon fill="none" stroke="#000000" points="828.4582,-808.2 828.4582,-827.2 853.4582,-827.2 853.4582,-808.2 828.4582,-808.2"/>
<text text-anchor="start" x="844.3444" y="-814.3" font-family="Helvetica,sans-Serif" font-size="11.00" fill="#000000"> &#160;</text>
</a>
</g>
</g>
<!-- client_ework_unit&#45;&gt;client -->
<g id="edge19" class="edge">
<title>client_ework_unit:w&#45;&gt;client:e</title>
<path fill="none" stroke="#000000" d="M711.8845,-833.6353C698.9911,-828.209 694.4191,-814.6995 684.4582,-798.2 646.9921,-736.14 716.4507,-640.2 643.9582,-640.2"/>
<polygon fill="#000000" stroke="#000000" points="718.5793,-834.8134 725.8342,-839.7455 722.5187,-835.5067 726.4582,-836.2 726.4582,-836.2 726.4582,-836.2 722.5187,-835.5067 727.0822,-832.6545 718.5793,-834.8134 718.5793,-834.8134"/>
<ellipse fill="none" stroke="#000000" cx="715.4277" cy="-834.2588" rx="3.2" ry="3.2"/>
</g>
<!-- client_unit -->
<g id="node12" class="node">
<title>client_unit</title>
<g id="a_node12"><a xlink:href="../../tables/client_unit.html" xlink:title="client_unit" target="_top">
<polygon fill="#ffffff" stroke="transparent" points="743.4582,-726.7 743.4582,-787.7 835.4582,-787.7 835.4582,-726.7 743.4582,-726.7"/>
<polygon fill="#f5f5f5" stroke="transparent" points="743.4582,-764.2 743.4582,-787.2 835.4582,-787.2 835.4582,-764.2 743.4582,-764.2"/>
<polygon fill="none" stroke="#000000" points="743.4582,-764.2 743.4582,-787.2 835.4582,-787.2 835.4582,-764.2 743.4582,-764.2"/>
<text text-anchor="start" x="748.2027" y="-773.3" font-family="Helvetica,sans-Serif" font-weight="bold" font-size="11.00" fill="#000000">client_unit</text>
<text text-anchor="start" x="800.9801" y="-772.3" font-family="Helvetica,sans-Serif" font-size="11.00" fill="#000000">[table]</text>
<polygon fill="none" stroke="#000000" points="743.4582,-745.2 743.4582,-764.2 835.4582,-764.2 835.4582,-745.2 743.4582,-745.2"/>
<text text-anchor="start" x="746.4582" y="-751.3" font-family="Helvetica,sans-Serif" font-size="11.00" fill="#000000">...</text>
<polygon fill="#ffffff" stroke="transparent" points="743.4582,-726.2 743.4582,-745.2 764.4582,-745.2 764.4582,-726.2 743.4582,-726.2"/>
<polygon fill="none" stroke="#000000" points="743.4582,-726.2 743.4582,-745.2 764.4582,-745.2 764.4582,-726.2 743.4582,-726.2"/>
<text text-anchor="start" x="746.1609" y="-732.3" font-family="Helvetica,sans-Serif" font-size="11.00" fill="#000000">&lt; 2</text>
<polygon fill="#ffffff" stroke="transparent" points="764.4582,-726.2 764.4582,-745.2 814.4582,-745.2 814.4582,-726.2 764.4582,-726.2"/>
<polygon fill="none" stroke="#000000" points="764.4582,-726.2 764.4582,-745.2 814.4582,-745.2 814.4582,-726.2 764.4582,-726.2"/>
<text text-anchor="start" x="767.1486" y="-732.3" font-family="Helvetica,sans-Serif" font-size="11.00" fill="#000000">117 rows</text>
<polygon fill="#ffffff" stroke="transparent" points="814.4582,-726.2 814.4582,-745.2 835.4582,-745.2 835.4582,-726.2 814.4582,-726.2"/>
<polygon fill="none" stroke="#000000" points="814.4582,-726.2 814.4582,-745.2 835.4582,-745.2 835.4582,-726.2 814.4582,-726.2"/>
<text text-anchor="start" x="817.1609" y="-732.3" font-family="Helvetica,sans-Serif" font-size="11.00" fill="#000000">4 &gt;</text>
</a>
</g>
</g>
<!-- client_unit&#45;&gt;client -->
<g id="edge22" class="edge">
<title>client_unit:w&#45;&gt;client:e</title>
<path fill="none" stroke="#000000" d="M729.0703,-752.8435C709.4718,-748.6639 701.8705,-735.1129 684.4582,-716.2 658.5342,-688.0418 682.2327,-640.2 643.9582,-640.2"/>
<polygon fill="#000000" stroke="#000000" points="735.4935,-753.449 743.1203,-757.7841 739.4759,-753.8245 743.4582,-754.2 743.4582,-754.2 743.4582,-754.2 739.4759,-753.8245 743.7962,-750.6159 735.4935,-753.449 735.4935,-753.449"/>
<ellipse fill="none" stroke="#000000" cx="732.3077" cy="-753.1486" rx="3.2" ry="3.2"/>
</g>
<!-- invoice_settings -->
<g id="node13" class="node">
<title>invoice_settings</title>
<g id="a_node13"><a xlink:href="../../tables/invoice_settings.html" xlink:title="invoice_settings" target="_top">
<polygon fill="#ffffff" stroke="transparent" points="935.4582,-692.7 935.4582,-885.7 1248.4582,-885.7 1248.4582,-692.7 935.4582,-692.7"/>
<polygon fill="#f5f5f5" stroke="transparent" points="935.9582,-862.2 935.9582,-885.2 1248.9582,-885.2 1248.9582,-862.2 935.9582,-862.2"/>
<polygon fill="none" stroke="#000000" points="935.9582,-862.2 935.9582,-885.2 1248.9582,-885.2 1248.9582,-862.2 935.9582,-862.2"/>
<text text-anchor="start" x="940.9582" y="-871.3" font-family="Helvetica,sans-Serif" font-weight="bold" font-size="11.00" fill="#000000">invoice_settings</text>
<text text-anchor="start" x="1214.0019" y="-870.3" font-family="Helvetica,sans-Serif" font-size="11.00" fill="#000000">[table]</text>
<polygon fill="none" stroke="#000000" points="935.9582,-840.2 935.9582,-862.2 1248.9582,-862.2 1248.9582,-840.2 935.9582,-840.2"/>
<image xlink:href="../../images/primaryKeys.png" width="11px" height="12px" preserveAspectRatio="xMinYMin meet" x="940.958" y="-857.2"/>
<text text-anchor="start" x="955.9582" y="-847.3" font-family="Helvetica,sans-Serif" font-size="11.00" fill="#000000">id</text>
<polygon fill="#ffffff" stroke="transparent" points="935.9582,-818.2 935.9582,-840.2 1248.9582,-840.2 1248.9582,-818.2 935.9582,-818.2"/>
<polygon fill="none" stroke="#000000" points="935.9582,-818.2 935.9582,-840.2 1248.9582,-840.2 1248.9582,-818.2 935.9582,-818.2"/>
<image xlink:href="../../images/foreignKeys.png" width="11px" height="12px" preserveAspectRatio="xMinYMin meet" x="940.958" y="-835.2"/>
<text text-anchor="start" x="955.9582" y="-825.3" font-family="Helvetica,sans-Serif" font-size="11.00" fill="#000000">created_by</text>
<polygon fill="#ffffff" stroke="transparent" points="935.9582,-796.2 935.9582,-818.2 1248.9582,-818.2 1248.9582,-796.2 935.9582,-796.2"/>
<polygon fill="none" stroke="#000000" points="935.9582,-796.2 935.9582,-818.2 1248.9582,-818.2 1248.9582,-796.2 935.9582,-796.2"/>
<image xlink:href="../../images/foreignKeys.png" width="11px" height="12px" preserveAspectRatio="xMinYMin meet" x="940.958" y="-813.2"/>
<text text-anchor="start" x="955.9582" y="-803.3" font-family="Helvetica,sans-Serif" font-size="11.00" fill="#000000">modified_by</text>
<polygon fill="#ffffff" stroke="transparent" points="935.9582,-774.2 935.9582,-796.2 1248.9582,-796.2 1248.9582,-774.2 935.9582,-774.2"/>
<polygon fill="none" stroke="#000000" points="935.9582,-774.2 935.9582,-796.2 1248.9582,-796.2 1248.9582,-774.2 935.9582,-774.2"/>
<image xlink:href="../../images/foreignKeys.png" width="11px" height="12px" preserveAspectRatio="xMinYMin meet" x="940.958" y="-791.2"/>
<text text-anchor="start" x="955.9582" y="-781.3" font-family="Helvetica,sans-Serif" font-size="11.00" fill="#000000">unit_id</text>
<polygon fill="#ffffff" stroke="transparent" points="935.9582,-752.2 935.9582,-774.2 1248.9582,-774.2 1248.9582,-752.2 935.9582,-752.2"/>
<polygon fill="none" stroke="#000000" points="935.9582,-752.2 935.9582,-774.2 1248.9582,-774.2 1248.9582,-752.2 935.9582,-752.2"/>
<image xlink:href="../../images/foreignKeys.png" width="11px" height="12px" preserveAspectRatio="xMinYMin meet" x="940.958" y="-769.2"/>
<text text-anchor="start" x="955.9582" y="-759.3" font-family="Helvetica,sans-Serif" font-size="11.00" fill="#000000">invoice_address_id</text>
<polygon fill="#ffffff" stroke="transparent" points="935.9582,-730.2 935.9582,-752.2 1248.9582,-752.2 1248.9582,-730.2 935.9582,-730.2"/>
<polygon fill="none" stroke="#000000" points="935.9582,-730.2 935.9582,-752.2 1248.9582,-752.2 1248.9582,-730.2 935.9582,-730.2"/>
<image xlink:href="../../images/foreignKeys.png" width="11px" height="12px" preserveAspectRatio="xMinYMin meet" x="940.958" y="-747.2"/>
<text text-anchor="start" x="955.9582" y="-737.3" font-family="Helvetica,sans-Serif" font-size="11.00" fill="#000000">postal_address_for_invoice_reminders_id</text>
<polygon fill="none" stroke="#000000" points="935.9582,-711.2 935.9582,-730.2 1248.9582,-730.2 1248.9582,-711.2 935.9582,-711.2"/>
<text text-anchor="start" x="938.9582" y="-717.3" font-family="Helvetica,sans-Serif" font-size="11.00" fill="#000000">...</text>
<polygon fill="#ffffff" stroke="transparent" points="935.9582,-692.2 935.9582,-711.2 1077.9582,-711.2 1077.9582,-692.2 935.9582,-692.2"/>
<polygon fill="none" stroke="#000000" points="935.9582,-692.2 935.9582,-711.2 1077.9582,-711.2 1077.9582,-692.2 935.9582,-692.2"/>
<text text-anchor="start" x="938.9582" y="-698.3" font-family="Helvetica,sans-Serif" font-size="11.00" fill="#000000">&lt; 5</text>
<polygon fill="#ffffff" stroke="transparent" points="1077.9582,-692.2 1077.9582,-711.2 1175.9582,-711.2 1175.9582,-692.2 1077.9582,-692.2"/>
<polygon fill="none" stroke="#000000" points="1077.9582,-692.2 1077.9582,-711.2 1175.9582,-711.2 1175.9582,-692.2 1077.9582,-692.2"/>
<text text-anchor="start" x="1140.5687" y="-698.3" font-family="Helvetica,sans-Serif" font-size="11.00" fill="#000000">8 rows</text>
<polygon fill="#ffffff" stroke="transparent" points="1175.9582,-692.2 1175.9582,-711.2 1248.9582,-711.2 1248.9582,-692.2 1175.9582,-692.2"/>
<polygon fill="none" stroke="#000000" points="1175.9582,-692.2 1175.9582,-711.2 1248.9582,-711.2 1248.9582,-692.2 1175.9582,-692.2"/>
<text text-anchor="start" x="1239.8444" y="-698.3" font-family="Helvetica,sans-Serif" font-size="11.00" fill="#000000"> &#160;</text>
</a>
</g>
</g>
<!-- invoice_settings&#45;&gt;principal -->
<g id="edge30" class="edge">
<title>invoice_settings:w&#45;&gt;principal:e</title>
<path fill="none" stroke="#000000" d="M922.0862,-833.2878C905.8384,-846.4838 921.8915,-888.0267 894.4582,-904.2 777.4939,-973.1561 382.6863,-996.8789 283.4582,-904.2 234.6237,-858.5887 309.2803,-304.2 242.4582,-304.2"/>
<polygon fill="#000000" stroke="#000000" points="928.2845,-831.4614 936.9758,-832.6532 932.1213,-830.3307 935.9582,-829.2 935.9582,-829.2 935.9582,-829.2 932.1213,-830.3307 934.9406,-825.7468 928.2845,-831.4614 928.2845,-831.4614"/>
<ellipse fill="none" stroke="#000000" cx="925.215" cy="-832.3659" rx="3.2" ry="3.2"/>
</g>
<!-- invoice_settings&#45;&gt;principal -->
<g id="edge32" class="edge">
<title>invoice_settings:w&#45;&gt;principal:e</title>
<path fill="none" stroke="#000000" d="M921.8722,-811.5508C906.5072,-824.7946 921.1721,-864.6577 894.4582,-880.2 854.1217,-903.668 728.7978,-894.7526 684.4582,-880.2 474.2373,-811.2039 397.3476,-774.8905 283.4582,-585.2 250.9749,-531.0968 305.5638,-304.2 242.4582,-304.2"/>
<polygon fill="#000000" stroke="#000000" points="928.3145,-809.561 937.0206,-810.6397 932.1364,-808.3805 935.9582,-807.2 935.9582,-807.2 935.9582,-807.2 932.1364,-808.3805 934.8958,-803.7603 928.3145,-809.561 928.3145,-809.561"/>
<ellipse fill="none" stroke="#000000" cx="925.257" cy="-810.5054" rx="3.2" ry="3.2"/>
</g>
<!-- invoice_settings&#45;&gt;client_address -->
<g id="edge31" class="edge">
<title>invoice_settings:w&#45;&gt;client_address:e</title>
<path fill="none" stroke="#000000" d="M922.0222,-759.1609C897.8364,-741.1688 926.1406,-669.2 884.4582,-669.2"/>
<polygon fill="#000000" stroke="#000000" points="928.2744,-760.973 934.9561,-766.6577 932.1163,-762.0865 935.9582,-763.2 935.9582,-763.2 935.9582,-763.2 932.1163,-762.0865 936.9604,-759.7423 928.2744,-760.973 928.2744,-760.973"/>
<ellipse fill="none" stroke="#000000" cx="925.2009" cy="-760.0822" rx="3.2" ry="3.2"/>
</g>
<!-- invoice_settings&#45;&gt;client_address -->
<g id="edge33" class="edge">
<title>invoice_settings:w&#45;&gt;client_address:e</title>
<path fill="none" stroke="#000000" d="M922.1388,-736.6961C903.3542,-720.9335 917.8079,-669.2 884.4582,-669.2"/>
<polygon fill="#000000" stroke="#000000" points="928.352,-738.721 934.8427,-744.6228 932.1551,-739.9605 935.9582,-741.2 935.9582,-741.2 935.9582,-741.2 932.1551,-739.9605 937.0738,-737.7772 928.352,-738.721 928.352,-738.721"/>
<ellipse fill="none" stroke="#000000" cx="925.3095" cy="-737.7294" rx="3.2" ry="3.2"/>
</g>
<!-- invoice_settings&#45;&gt;client_unit -->
<g id="edge34" class="edge">
<title>invoice_settings:w&#45;&gt;client_unit:e</title>
<path fill="none" stroke="#000000" d="M921.4868,-784.0967C887.1161,-778.5744 876.9064,-754.2 835.4582,-754.2"/>
<polygon fill="#000000" stroke="#000000" points="927.9814,-784.5918 935.6845,-788.7896 931.9698,-784.8959 935.9582,-785.2 935.9582,-785.2 935.9582,-785.2 931.9698,-784.8959 936.2319,-781.6104 927.9814,-784.5918 927.9814,-784.5918"/>
<ellipse fill="none" stroke="#000000" cx="924.7906" cy="-784.3485" rx="3.2" ry="3.2"/>
</g>
<!-- job_request -->
<g id="node14" class="node">
<title>job_request</title>
<g id="a_node14"><a xlink:href="../../tables/job_request.html" xlink:title="job_request" target="_top">
<polygon fill="#ffffff" stroke="transparent" points="1041.9582,-200.7 1041.9582,-261.7 1141.9582,-261.7 1141.9582,-200.7 1041.9582,-200.7"/>
<polygon fill="#f5f5f5" stroke="transparent" points="1041.9582,-238.2 1041.9582,-261.2 1141.9582,-261.2 1141.9582,-238.2 1041.9582,-238.2"/>
<polygon fill="none" stroke="#000000" points="1041.9582,-238.2 1041.9582,-261.2 1141.9582,-261.2 1141.9582,-238.2 1041.9582,-238.2"/>
<text text-anchor="start" x="1046.7262" y="-247.3" font-family="Helvetica,sans-Serif" font-weight="bold" font-size="11.00" fill="#000000">job_request</text>
<text text-anchor="start" x="1107.4801" y="-246.3" font-family="Helvetica,sans-Serif" font-size="11.00" fill="#000000">[table]</text>
<polygon fill="none" stroke="#000000" points="1041.9582,-219.2 1041.9582,-238.2 1141.9582,-238.2 1141.9582,-219.2 1041.9582,-219.2"/>
<text text-anchor="start" x="1044.9582" y="-225.3" font-family="Helvetica,sans-Serif" font-size="11.00" fill="#000000">...</text>
<polygon fill="#ffffff" stroke="transparent" points="1041.9582,-200.2 1041.9582,-219.2 1069.9582,-219.2 1069.9582,-200.2 1041.9582,-200.2"/>
<polygon fill="none" stroke="#000000" points="1041.9582,-200.2 1041.9582,-219.2 1069.9582,-219.2 1069.9582,-200.2 1041.9582,-200.2"/>
<text text-anchor="start" x="1044.9582" y="-206.3" font-family="Helvetica,sans-Serif" font-size="11.00" fill="#000000">&lt; 11</text>
<polygon fill="#ffffff" stroke="transparent" points="1069.9582,-200.2 1069.9582,-219.2 1119.9582,-219.2 1119.9582,-200.2 1069.9582,-200.2"/>
<polygon fill="none" stroke="#000000" points="1069.9582,-200.2 1069.9582,-219.2 1119.9582,-219.2 1119.9582,-200.2 1069.9582,-200.2"/>
<text text-anchor="start" x="1072.6486" y="-206.3" font-family="Helvetica,sans-Serif" font-size="11.00" fill="#000000">254 rows</text>
<polygon fill="#ffffff" stroke="transparent" points="1119.9582,-200.2 1119.9582,-219.2 1141.9582,-219.2 1141.9582,-200.2 1119.9582,-200.2"/>
<polygon fill="none" stroke="#000000" points="1119.9582,-200.2 1119.9582,-219.2 1141.9582,-219.2 1141.9582,-200.2 1119.9582,-200.2"/>
<text text-anchor="start" x="1123.3635" y="-206.3" font-family="Helvetica,sans-Serif" font-size="11.00" fill="#000000">7 &gt;</text>
</a>
</g>
</g>
<!-- job_request&#45;&gt;client -->
<g id="edge36" class="edge">
<title>job_request:w&#45;&gt;client:e</title>
<path fill="none" stroke="#000000" d="M1027.5746,-229.0755C962.7383,-237.397 963.8212,-302.8337 894.4582,-330.2 806.6969,-364.8251 751.0897,-294.408 684.4582,-361.2 640.2114,-405.5534 706.608,-640.2 643.9582,-640.2"/>
<polygon fill="#000000" stroke="#000000" points="1033.973,-228.6861 1042.177,-231.7933 1037.9656,-228.4431 1041.9582,-228.2 1041.9582,-228.2 1041.9582,-228.2 1037.9656,-228.4431 1041.7395,-224.6067 1033.973,-228.6861 1033.973,-228.6861"/>
<ellipse fill="none" stroke="#000000" cx="1030.7789" cy="-228.8805" rx="3.2" ry="3.2"/>
</g>
<!-- job_request&#45;&gt;eworker -->
<g id="edge37" class="edge">
<title>job_request:w&#45;&gt;eworker:e</title>
<path fill="none" stroke="#000000" d="M1027.5712,-227.333C962.7031,-219.0911 963.5477,-154.2496 894.4582,-126.2 747.6855,-66.6119 701.3659,-67.2 542.9582,-67.2 542.9582,-67.2 542.9582,-67.2 342.4582,-67.2 224.0523,-67.2 215.8185,-150.258 142.4582,-243.2 122.2195,-268.8409 134.1241,-304.2 101.4582,-304.2"/>
<polygon fill="#000000" stroke="#000000" points="1033.9727,-227.7187 1041.7416,-231.7935 1037.9655,-227.9594 1041.9582,-228.2 1041.9582,-228.2 1041.9582,-228.2 1037.9655,-227.9594 1042.1748,-224.6065 1033.9727,-227.7187 1033.9727,-227.7187"/>
<ellipse fill="none" stroke="#000000" cx="1030.7785" cy="-227.5262" rx="3.2" ry="3.2"/>
</g>
<!-- job_request&#45;&gt;eworker -->
<g id="edge39" class="edge">
<title>job_request:w&#45;&gt;eworker:e</title>
<path fill="none" stroke="#000000" d="M1027.3454,-227.2793C963.6396,-218.813 963.8843,-154.2673 894.4582,-130.2 765.8956,-85.6323 407.7275,-34.7764 283.4582,-90.2 197.8037,-128.4015 201.2601,-174.1358 142.4582,-247.2 122.8928,-271.511 132.6644,-304.2 101.4582,-304.2"/>
<polygon fill="#000000" stroke="#000000" points="1033.974,-227.6969 1041.7318,-231.7929 1037.9661,-227.9485 1041.9582,-228.2 1041.9582,-228.2 1041.9582,-228.2 1037.9661,-227.9485 1042.1846,-224.6071 1033.974,-227.6969 1033.974,-227.6969"/>
<ellipse fill="none" stroke="#000000" cx="1030.7804" cy="-227.4957" rx="3.2" ry="3.2"/>
</g>
<!-- job_request&#45;&gt;principal -->
<g id="edge38" class="edge">
<title>job_request:w&#45;&gt;principal:e</title>
<path fill="none" stroke="#000000" d="M1027.191,-228.041C903.6662,-225.9001 353.94,-203.4674 283.4582,-242.2 254.5062,-258.1103 275.4939,-304.2 242.4582,-304.2"/>
<polygon fill="#000000" stroke="#000000" points="1033.9587,-228.1138 1041.9194,-231.7998 1037.9584,-228.1569 1041.9582,-228.2 1041.9582,-228.2 1041.9582,-228.2 1037.9584,-228.1569 1041.997,-224.6002 1033.9587,-228.1138 1033.9587,-228.1138"/>
<ellipse fill="none" stroke="#000000" cx="1030.7589" cy="-228.0793" rx="3.2" ry="3.2"/>
</g>
<!-- job_request&#45;&gt;principal -->
<g id="edge40" class="edge">
<title>job_request:w&#45;&gt;principal:e</title>
<path fill="none" stroke="#000000" d="M1027.527,-228.0651C849.4312,-224.9164 427.8229,-168.4024 283.4582,-246.2 255.6685,-261.1758 274.0263,-304.2 242.4582,-304.2"/>
<polygon fill="#000000" stroke="#000000" points="1033.9586,-228.1252 1041.9245,-231.7998 1037.9584,-228.1626 1041.9582,-228.2 1041.9582,-228.2 1041.9582,-228.2 1037.9584,-228.1626 1041.9919,-224.6002 1033.9586,-228.1252 1033.9586,-228.1252"/>
<ellipse fill="none" stroke="#000000" cx="1030.7587" cy="-228.0953" rx="3.2" ry="3.2"/>
</g>
<!-- job_request&#45;&gt;client_contact -->
<g id="edge35" class="edge">
<title>job_request:w&#45;&gt;client_contact:e</title>
<path fill="none" stroke="#000000" d="M1027.1257,-228.7371C948.5807,-234.5842 930.7611,-286.2 844.4582,-286.2"/>
<polygon fill="#000000" stroke="#000000" points="1033.9635,-228.4896 1042.0885,-231.7976 1037.9608,-228.3448 1041.9582,-228.2 1041.9582,-228.2 1041.9582,-228.2 1037.9608,-228.3448 1041.8279,-224.6024 1033.9635,-228.4896 1033.9635,-228.4896"/>
<ellipse fill="none" stroke="#000000" cx="1030.7655" cy="-228.6054" rx="3.2" ry="3.2"/>
</g>
<!-- presentation -->
<g id="node15" class="node">
<title>presentation</title>
<g id="a_node15"><a xlink:href="../../tables/presentation.html" xlink:title="presentation" target="_top">
<polygon fill="#ffffff" stroke="transparent" points="1297.4582,-78.7 1297.4582,-139.7 1400.4582,-139.7 1400.4582,-78.7 1297.4582,-78.7"/>
<polygon fill="#f5f5f5" stroke="transparent" points="1297.9582,-116.2 1297.9582,-139.2 1400.9582,-139.2 1400.9582,-116.2 1297.9582,-116.2"/>
<polygon fill="none" stroke="#000000" points="1297.9582,-116.2 1297.9582,-139.2 1400.9582,-139.2 1400.9582,-116.2 1297.9582,-116.2"/>
<text text-anchor="start" x="1302.6978" y="-125.3" font-family="Helvetica,sans-Serif" font-weight="bold" font-size="11.00" fill="#000000">presentation</text>
<text text-anchor="start" x="1366.4801" y="-124.3" font-family="Helvetica,sans-Serif" font-size="11.00" fill="#000000">[table]</text>
<polygon fill="none" stroke="#000000" points="1297.9582,-97.2 1297.9582,-116.2 1400.9582,-116.2 1400.9582,-97.2 1297.9582,-97.2"/>
<text text-anchor="start" x="1300.9582" y="-103.3" font-family="Helvetica,sans-Serif" font-size="11.00" fill="#000000">...</text>
<polygon fill="#ffffff" stroke="transparent" points="1297.9582,-78.2 1297.9582,-97.2 1326.9582,-97.2 1326.9582,-78.2 1297.9582,-78.2"/>
<polygon fill="none" stroke="#000000" points="1297.9582,-78.2 1297.9582,-97.2 1326.9582,-97.2 1326.9582,-78.2 1297.9582,-78.2"/>
<text text-anchor="start" x="1300.9582" y="-84.3" font-family="Helvetica,sans-Serif" font-size="11.00" fill="#000000">&lt; 5</text>
<polygon fill="#ffffff" stroke="transparent" points="1326.9582,-78.2 1326.9582,-97.2 1374.9582,-97.2 1374.9582,-78.2 1326.9582,-78.2"/>
<polygon fill="none" stroke="#000000" points="1326.9582,-78.2 1326.9582,-97.2 1374.9582,-97.2 1374.9582,-78.2 1326.9582,-78.2"/>
<text text-anchor="start" x="1333.4538" y="-84.3" font-family="Helvetica,sans-Serif" font-size="11.00" fill="#000000">16 rows</text>
<polygon fill="#ffffff" stroke="transparent" points="1374.9582,-78.2 1374.9582,-97.2 1400.9582,-97.2 1400.9582,-78.2 1374.9582,-78.2"/>
<polygon fill="none" stroke="#000000" points="1374.9582,-78.2 1374.9582,-97.2 1400.9582,-97.2 1400.9582,-78.2 1374.9582,-78.2"/>
<text text-anchor="start" x="1382.3635" y="-84.3" font-family="Helvetica,sans-Serif" font-size="11.00" fill="#000000">2 &gt;</text>
</a>
</g>
</g>
<!-- presentation&#45;&gt;client -->
<g id="edge45" class="edge">
<title>presentation:w&#45;&gt;client:e</title>
<path fill="none" stroke="#000000" d="M1283.6235,-107.9918C1234.2999,-122.5995 1306.6621,-222.8409 1256.4582,-272.2 1138.6832,-387.9932 1056.9451,-326.5853 894.4582,-356.2 848.1416,-364.6416 718.1514,-351.3174 684.4582,-384.2 643.2386,-424.4279 701.5546,-640.2 643.9582,-640.2"/>
<polygon fill="#000000" stroke="#000000" points="1290.02,-107.1923 1298.4047,-109.7722 1293.9891,-106.6962 1297.9582,-106.2 1297.9582,-106.2 1297.9582,-106.2 1293.9891,-106.6962 1297.5117,-102.6278 1290.02,-107.1923 1290.02,-107.1923"/>
<ellipse fill="none" stroke="#000000" cx="1286.8447" cy="-107.5892" rx="3.2" ry="3.2"/>
</g>
<!-- presentation&#45;&gt;eworker -->
<g id="edge44" class="edge">
<title>presentation:w&#45;&gt;eworker:e</title>
<path fill="none" stroke="#000000" d="M1283.6486,-104.3915C1275.099,-101.9838 1269.3293,-97.7354 1256.4582,-95.2 1051.0861,-54.745 998.7769,-34.2 789.4582,-34.2 789.4582,-34.2 789.4582,-34.2 342.4582,-34.2 247.9848,-34.2 204.3762,-34.8459 142.4582,-106.2 83.5594,-174.0748 191.3251,-304.2 101.4582,-304.2"/>
<polygon fill="#000000" stroke="#000000" points="1290.0213,-105.1969 1297.5068,-109.7716 1293.9898,-105.6984 1297.9582,-106.2 1297.9582,-106.2 1297.9582,-106.2 1293.9898,-105.6984 1298.4096,-102.6284 1290.0213,-105.1969 1290.0213,-105.1969"/>
<ellipse fill="none" stroke="#000000" cx="1286.8466" cy="-104.7956" rx="3.2" ry="3.2"/>
</g>
<!-- presentation&#45;&gt;principal -->
<g id="edge41" class="edge">
<title>presentation:w&#45;&gt;principal:e</title>
<path fill="none" stroke="#000000" d="M1283.3027,-106.2C1069.3935,-106.2 1010.4924,-106.2 789.4582,-106.2 789.4582,-106.2 789.4582,-106.2 542.9582,-106.2 426.8048,-106.2 370.4395,-60.2204 283.4582,-137.2 226.2264,-187.8509 318.8846,-304.2 242.4582,-304.2"/>
<polygon fill="#000000" stroke="#000000" points="1289.9582,-106.2001 1297.9582,-109.8 1293.9582,-106.2 1297.9582,-106.2 1297.9582,-106.2 1297.9582,-106.2 1293.9582,-106.2 1297.9582,-102.6 1289.9582,-106.2001 1289.9582,-106.2001"/>
<ellipse fill="none" stroke="#000000" cx="1286.7582" cy="-106.2001" rx="3.2" ry="3.2"/>
</g>
<!-- presentation&#45;&gt;principal -->
<g id="edge43" class="edge">
<title>presentation:w&#45;&gt;principal:e</title>
<path fill="none" stroke="#000000" d="M1283.5197,-106.0672C1128.7414,-103.6968 366.7932,-71.2146 283.4582,-141.2 226.2538,-189.2407 317.1593,-304.2 242.4582,-304.2"/>
<polygon fill="#000000" stroke="#000000" points="1289.9585,-106.1264 1297.9251,-109.7998 1293.9584,-106.1632 1297.9582,-106.2 1297.9582,-106.2 1297.9582,-106.2 1293.9584,-106.1632 1297.9913,-102.6002 1289.9585,-106.1264 1289.9585,-106.1264"/>
<ellipse fill="none" stroke="#000000" cx="1286.7587" cy="-106.0969" rx="3.2" ry="3.2"/>
</g>
<!-- presentation&#45;&gt;job_request -->
<g id="edge42" class="edge">
<title>presentation:w&#45;&gt;job_request:e</title>
<path fill="none" stroke="#000000" d="M1287.5054,-108.2158C1243.7317,-124.0781 1182.6149,-228.2 1141.9582,-228.2"/>
<polygon fill="#000000" stroke="#000000" points="1296.4152,-102.4239 1297.9301,-110.2791 1296.3591,-110.5821 1294.8442,-102.7268 1296.4152,-102.4239"/>
<polyline fill="none" stroke="#000000" points="1297.9582,-106.2 1294.0306,-106.9574 "/>
<ellipse fill="none" stroke="#000000" cx="1290.8885" cy="-107.5634" rx="3.2" ry="3.2"/>
</g>
</g>
</svg>
