<?xml version="1.0" encoding="UTF-8" standalone="no"?>
<!DOCTYPE svg PUBLIC "-//W3C//DTD SVG 1.1//EN"
 "http://www.w3.org/Graphics/SVG/1.1/DTD/svg11.dtd">
<!-- Generated by graphviz version 2.40.1 (20161225.0304)
 -->
<!-- Title: oneDegreeRelationshipsDiagram Pages: 1 -->
<svg width="407pt" height="543pt"
 viewBox="0.00 0.00 407.00 542.70" xmlns="http://www.w3.org/2000/svg" xmlns:xlink="http://www.w3.org/1999/xlink">
<g id="graph0" class="graph" transform="scale(1 1) rotate(0) translate(4 538.7)">
<title>oneDegreeRelationshipsDiagram</title>
<polygon fill="#ffffff" stroke="transparent" points="-4,4 -4,-538.7 403,-538.7 403,4 -4,4"/>
<text text-anchor="middle" x="72.4936" y="-7.3" font-family="Helvetica,sans-Serif" font-size="11.00" fill="#000000">Generated by SchemaSpy</text>
<!-- applicant -->
<g id="node1" class="node">
<title>applicant</title>
<g id="a_node1"><a xlink:href="../../tables/applicant.html" xlink:title="applicant" target="_top">
<polygon fill="#ffffff" stroke="transparent" points="251,-315.7 251,-530.7 391,-530.7 391,-315.7 251,-315.7"/>
<polygon fill="#f5f5f5" stroke="transparent" points="251,-507.2 251,-530.2 391,-530.2 391,-507.2 251,-507.2"/>
<polygon fill="none" stroke="#000000" points="251,-507.2 251,-530.2 391,-530.2 391,-507.2 251,-507.2"/>
<text text-anchor="start" x="256" y="-516.3" font-family="Helvetica,sans-Serif" font-weight="bold" font-size="11.00" fill="#000000">applicant</text>
<text text-anchor="start" x="356.0437" y="-515.3" font-family="Helvetica,sans-Serif" font-size="11.00" fill="#000000">[table]</text>
<polygon fill="none" stroke="#000000" points="251,-485.2 251,-507.2 391,-507.2 391,-485.2 251,-485.2"/>
<image xlink:href="../../images/primaryKeys.png" width="11px" height="12px" preserveAspectRatio="xMinYMin meet" x="256" y="-502.2"/>
<text text-anchor="start" x="271" y="-492.3" font-family="Helvetica,sans-Serif" font-size="11.00" fill="#000000">id</text>
<polygon fill="#ffffff" stroke="transparent" points="251,-463.2 251,-485.2 391,-485.2 391,-463.2 251,-463.2"/>
<polygon fill="none" stroke="#000000" points="251,-463.2 251,-485.2 391,-485.2 391,-463.2 251,-463.2"/>
<text text-anchor="start" x="271" y="-470.3" font-family="Helvetica,sans-Serif" font-size="11.00" fill="#000000">created_by</text>
<polygon fill="#ffffff" stroke="transparent" points="251,-441.2 251,-463.2 391,-463.2 391,-441.2 251,-441.2"/>
<polygon fill="none" stroke="#000000" points="251,-441.2 251,-463.2 391,-463.2 391,-441.2 251,-441.2"/>
<text text-anchor="start" x="271" y="-448.3" font-family="Helvetica,sans-Serif" font-size="11.00" fill="#000000">modified_by</text>
<polygon fill="#ffffff" stroke="transparent" points="251,-419.2 251,-441.2 391,-441.2 391,-419.2 251,-419.2"/>
<polygon fill="none" stroke="#000000" points="251,-419.2 251,-441.2 391,-441.2 391,-419.2 251,-419.2"/>
<image xlink:href="../../images/foreignKeys.png" width="11px" height="12px" preserveAspectRatio="xMinYMin meet" x="256" y="-436.2"/>
<text text-anchor="start" x="271" y="-426.3" font-family="Helvetica,sans-Serif" font-size="11.00" fill="#000000">address_id</text>
<polygon fill="#ffffff" stroke="transparent" points="251,-397.2 251,-419.2 391,-419.2 391,-397.2 251,-397.2"/>
<polygon fill="none" stroke="#000000" points="251,-397.2 251,-419.2 391,-419.2 391,-397.2 251,-397.2"/>
<image xlink:href="../../images/foreignKeys.png" width="11px" height="12px" preserveAspectRatio="xMinYMin meet" x="256" y="-414.2"/>
<text text-anchor="start" x="271" y="-404.3" font-family="Helvetica,sans-Serif" font-size="11.00" fill="#000000">avatar_id</text>
<polygon fill="#ffffff" stroke="transparent" points="251,-375.2 251,-397.2 391,-397.2 391,-375.2 251,-375.2"/>
<polygon fill="none" stroke="#000000" points="251,-375.2 251,-397.2 391,-397.2 391,-375.2 251,-375.2"/>
<image xlink:href="../../images/foreignKeys.png" width="11px" height="12px" preserveAspectRatio="xMinYMin meet" x="256" y="-392.2"/>
<text text-anchor="start" x="271" y="-382.3" font-family="Helvetica,sans-Serif" font-size="11.00" fill="#000000">contact_person_id</text>
<polygon fill="#ffffff" stroke="transparent" points="251,-353.2 251,-375.2 391,-375.2 391,-353.2 251,-353.2"/>
<polygon fill="none" stroke="#000000" points="251,-353.2 251,-375.2 391,-375.2 391,-353.2 251,-353.2"/>
<image xlink:href="../../images/foreignKeys.png" width="11px" height="12px" preserveAspectRatio="xMinYMin meet" x="256" y="-370.2"/>
<text text-anchor="start" x="271" y="-360.3" font-family="Helvetica,sans-Serif" font-size="11.00" fill="#000000">supplier_id</text>
<polygon fill="none" stroke="#000000" points="251,-334.2 251,-353.2 391,-353.2 391,-334.2 251,-334.2"/>
<text text-anchor="start" x="254" y="-340.3" font-family="Helvetica,sans-Serif" font-size="11.00" fill="#000000">...</text>
<polygon fill="#ffffff" stroke="transparent" points="251,-315.2 251,-334.2 299,-334.2 299,-315.2 251,-315.2"/>
<polygon fill="none" stroke="#000000" points="251,-315.2 251,-334.2 299,-334.2 299,-315.2 251,-315.2"/>
<text text-anchor="start" x="254" y="-321.3" font-family="Helvetica,sans-Serif" font-size="11.00" fill="#000000">&lt; 4</text>
<polygon fill="#ffffff" stroke="transparent" points="299,-315.2 299,-334.2 356,-334.2 356,-315.2 299,-315.2"/>
<polygon fill="none" stroke="#000000" points="299,-315.2 299,-334.2 356,-334.2 356,-315.2 299,-315.2"/>
<text text-anchor="start" x="314.4956" y="-321.3" font-family="Helvetica,sans-Serif" font-size="11.00" fill="#000000">90 rows</text>
<polygon fill="#ffffff" stroke="transparent" points="356,-315.2 356,-334.2 391,-334.2 391,-315.2 356,-315.2"/>
<polygon fill="none" stroke="#000000" points="356,-315.2 356,-334.2 391,-334.2 391,-315.2 356,-315.2"/>
<text text-anchor="start" x="372.4053" y="-321.3" font-family="Helvetica,sans-Serif" font-size="11.00" fill="#000000">5 &gt;</text>
</a>
</g>
</g>
<!-- contact_person -->
<g id="node2" class="node">
<title>contact_person</title>
<g id="a_node2"><a xlink:href="../../tables/contact_person.html" xlink:title="contact_person" target="_top">
<polygon fill="#ffffff" stroke="transparent" points="8,-38.2 8,-326.2 202,-326.2 202,-38.2 8,-38.2"/>
<polygon fill="#f5f5f5" stroke="transparent" points="10,-301.2 10,-324.2 200,-324.2 200,-301.2 10,-301.2"/>
<polygon fill="none" stroke="#000000" points="10,-301.2 10,-324.2 200,-324.2 200,-301.2 10,-301.2"/>
<text text-anchor="start" x="15" y="-310.3" font-family="Helvetica,sans-Serif" font-weight="bold" font-size="11.00" fill="#000000">contact_person</text>
<text text-anchor="start" x="165.0437" y="-309.3" font-family="Helvetica,sans-Serif" font-size="11.00" fill="#000000">[table]</text>
<polygon fill="none" stroke="#000000" points="10,-279.2 10,-301.2 133,-301.2 133,-279.2 10,-279.2"/>
<image xlink:href="../../images/primaryKeys.png" width="11px" height="12px" preserveAspectRatio="xMinYMin meet" x="15" y="-296.2"/>
<text text-anchor="start" x="30" y="-286.3" font-family="Helvetica,sans-Serif" font-size="11.00" fill="#000000">id</text>
<polygon fill="none" stroke="#000000" points="133,-279.2 133,-301.2 200,-301.2 200,-279.2 133,-279.2"/>
<text text-anchor="start" x="136" y="-286.9" font-family="Helvetica,sans-Serif" font-size="11.00" fill="#000000">bigint[19]</text>
<polygon fill="none" stroke="#000000" points="10,-257.2 10,-279.2 133,-279.2 133,-257.2 10,-257.2"/>
<text text-anchor="start" x="30" y="-264.3" font-family="Helvetica,sans-Serif" font-size="11.00" fill="#000000">created_by</text>
<polygon fill="none" stroke="#000000" points="133,-257.2 133,-279.2 200,-279.2 200,-257.2 133,-257.2"/>
<text text-anchor="start" x="136" y="-264.9" font-family="Helvetica,sans-Serif" font-size="11.00" fill="#000000">bigint[19]</text>
<polygon fill="none" stroke="#000000" points="10,-235.2 10,-257.2 133,-257.2 133,-235.2 10,-235.2"/>
<text text-anchor="start" x="30" y="-242.3" font-family="Helvetica,sans-Serif" font-size="11.00" fill="#000000">creation_date</text>
<polygon fill="none" stroke="#000000" points="133,-235.2 133,-257.2 200,-257.2 200,-235.2 133,-235.2"/>
<text text-anchor="start" x="136" y="-242.9" font-family="Helvetica,sans-Serif" font-size="11.00" fill="#000000">datetime[26]</text>
<polygon fill="none" stroke="#000000" points="10,-213.2 10,-235.2 133,-235.2 133,-213.2 10,-213.2"/>
<text text-anchor="start" x="30" y="-220.3" font-family="Helvetica,sans-Serif" font-size="11.00" fill="#000000">modified_by</text>
<polygon fill="none" stroke="#000000" points="133,-213.2 133,-235.2 200,-235.2 200,-213.2 133,-213.2"/>
<text text-anchor="start" x="136" y="-220.9" font-family="Helvetica,sans-Serif" font-size="11.00" fill="#000000">bigint[19]</text>
<polygon fill="none" stroke="#000000" points="10,-191.2 10,-213.2 133,-213.2 133,-191.2 10,-191.2"/>
<text text-anchor="start" x="30" y="-198.3" font-family="Helvetica,sans-Serif" font-size="11.00" fill="#000000">modification_date</text>
<polygon fill="none" stroke="#000000" points="133,-191.2 133,-213.2 200,-213.2 200,-191.2 133,-191.2"/>
<text text-anchor="start" x="136" y="-198.9" font-family="Helvetica,sans-Serif" font-size="11.00" fill="#000000">datetime[26]</text>
<polygon fill="none" stroke="#000000" points="10,-169.2 10,-191.2 133,-191.2 133,-169.2 10,-169.2"/>
<text text-anchor="start" x="30" y="-176.3" font-family="Helvetica,sans-Serif" font-size="11.00" fill="#000000">marketplace_id</text>
<polygon fill="none" stroke="#000000" points="133,-169.2 133,-191.2 200,-191.2 200,-169.2 133,-169.2"/>
<text text-anchor="start" x="136" y="-176.9" font-family="Helvetica,sans-Serif" font-size="11.00" fill="#000000">bigint[19]</text>
<polygon fill="none" stroke="#000000" points="10,-147.2 10,-169.2 133,-169.2 133,-147.2 10,-147.2"/>
<text text-anchor="start" x="30" y="-154.3" font-family="Helvetica,sans-Serif" font-size="11.00" fill="#000000">first_name</text>
<polygon fill="none" stroke="#000000" points="133,-147.2 133,-169.2 200,-169.2 200,-147.2 133,-147.2"/>
<text text-anchor="start" x="135.9365" y="-154.9" font-family="Helvetica,sans-Serif" font-size="11.00" fill="#000000">varchar[100]</text>
<polygon fill="none" stroke="#000000" points="10,-125.2 10,-147.2 133,-147.2 133,-125.2 10,-125.2"/>
<text text-anchor="start" x="30" y="-132.3" font-family="Helvetica,sans-Serif" font-size="11.00" fill="#000000">last_name</text>
<polygon fill="none" stroke="#000000" points="133,-125.2 133,-147.2 200,-147.2 200,-125.2 133,-125.2"/>
<text text-anchor="start" x="135.9365" y="-132.9" font-family="Helvetica,sans-Serif" font-size="11.00" fill="#000000">varchar[100]</text>
<polygon fill="none" stroke="#000000" points="10,-103.2 10,-125.2 133,-125.2 133,-103.2 10,-103.2"/>
<text text-anchor="start" x="30" y="-110.3" font-family="Helvetica,sans-Serif" font-size="11.00" fill="#000000">phone_number</text>
<polygon fill="none" stroke="#000000" points="133,-103.2 133,-125.2 200,-125.2 200,-103.2 133,-103.2"/>
<text text-anchor="start" x="136" y="-110.9" font-family="Helvetica,sans-Serif" font-size="11.00" fill="#000000">varchar[50]</text>
<polygon fill="none" stroke="#000000" points="10,-81.2 10,-103.2 133,-103.2 133,-81.2 10,-81.2"/>
<text text-anchor="start" x="30" y="-88.3" font-family="Helvetica,sans-Serif" font-size="11.00" fill="#000000">email</text>
<polygon fill="none" stroke="#000000" points="133,-81.2 133,-103.2 200,-103.2 200,-81.2 133,-81.2"/>
<text text-anchor="start" x="135.9365" y="-88.9" font-family="Helvetica,sans-Serif" font-size="11.00" fill="#000000">varchar[100]</text>
<polygon fill="none" stroke="#000000" points="10,-59.2 10,-81.2 133,-81.2 133,-59.2 10,-59.2"/>
<text text-anchor="start" x="30" y="-66.3" font-family="Helvetica,sans-Serif" font-size="11.00" fill="#000000">phone_code</text>
<polygon fill="none" stroke="#000000" points="133,-59.2 133,-81.2 200,-81.2 200,-59.2 133,-59.2"/>
<text text-anchor="start" x="136" y="-66.9" font-family="Helvetica,sans-Serif" font-size="11.00" fill="#000000">varchar[2]</text>
<polygon fill="#ffffff" stroke="transparent" points="10,-40.2 10,-59.2 57,-59.2 57,-40.2 10,-40.2"/>
<polygon fill="none" stroke="#000000" points="10,-40.2 10,-59.2 57,-59.2 57,-40.2 10,-40.2"/>
<text text-anchor="start" x="13" y="-46.3" font-family="Helvetica,sans-Serif" font-size="11.00" fill="#000000">&lt; 0</text>
<polygon fill="#ffffff" stroke="transparent" points="57,-40.2 57,-59.2 133,-59.2 133,-40.2 57,-40.2"/>
<polygon fill="none" stroke="#000000" points="57,-40.2 57,-59.2 133,-59.2 133,-40.2 57,-40.2"/>
<text text-anchor="start" x="85.3807" y="-46.3" font-family="Helvetica,sans-Serif" font-size="11.00" fill="#000000">109 rows</text>
<polygon fill="#ffffff" stroke="transparent" points="133,-40.2 133,-59.2 200,-59.2 200,-40.2 133,-40.2"/>
<polygon fill="none" stroke="#000000" points="133,-40.2 133,-59.2 200,-59.2 200,-40.2 133,-40.2"/>
<text text-anchor="start" x="181.4053" y="-46.3" font-family="Helvetica,sans-Serif" font-size="11.00" fill="#000000">2 &gt;</text>
<polygon fill="none" stroke="#000000" stroke-width="2" points="9,-39.2 9,-325.2 201,-325.2 201,-39.2 9,-39.2"/>
</a>
</g>
</g>
<!-- applicant&#45;&gt;contact_person -->
<g id="edge1" class="edge">
<title>applicant:w&#45;&gt;contact_person:e</title>
<path fill="none" stroke="#000000" d="M236.9189,-382.075C212.6253,-363.7 242.2746,-290.2 200,-290.2"/>
<polygon fill="#000000" stroke="#000000" points="243.3226,-383.9509 249.9879,-389.6548 247.1613,-385.0755 251,-386.2 251,-386.2 251,-386.2 247.1613,-385.0755 252.0121,-382.7452 243.3226,-383.9509 243.3226,-383.9509"/>
<ellipse fill="none" stroke="#000000" cx="240.2517" cy="-383.0513" rx="3.2" ry="3.2"/>
</g>
<!-- invitation -->
<g id="node3" class="node">
<title>invitation</title>
<g id="a_node3"><a xlink:href="../../tables/invitation.html" xlink:title="invitation" target="_top">
<polygon fill="#ffffff" stroke="transparent" points="257.5,-145.7 257.5,-294.7 384.5,-294.7 384.5,-145.7 257.5,-145.7"/>
<polygon fill="#f5f5f5" stroke="transparent" points="258,-271.2 258,-294.2 385,-294.2 385,-271.2 258,-271.2"/>
<polygon fill="none" stroke="#000000" points="258,-271.2 258,-294.2 385,-294.2 385,-271.2 258,-271.2"/>
<text text-anchor="start" x="263" y="-280.3" font-family="Helvetica,sans-Serif" font-weight="bold" font-size="11.00" fill="#000000">invitation</text>
<text text-anchor="start" x="350.0437" y="-279.3" font-family="Helvetica,sans-Serif" font-size="11.00" fill="#000000">[table]</text>
<polygon fill="none" stroke="#000000" points="258,-249.2 258,-271.2 385,-271.2 385,-249.2 258,-249.2"/>
<image xlink:href="../../images/primaryKeys.png" width="11px" height="12px" preserveAspectRatio="xMinYMin meet" x="263" y="-266.2"/>
<text text-anchor="start" x="278" y="-256.3" font-family="Helvetica,sans-Serif" font-size="11.00" fill="#000000">id</text>
<polygon fill="#ffffff" stroke="transparent" points="258,-227.2 258,-249.2 385,-249.2 385,-227.2 258,-227.2"/>
<polygon fill="none" stroke="#000000" points="258,-227.2 258,-249.2 385,-249.2 385,-227.2 258,-227.2"/>
<image xlink:href="../../images/foreignKeys.png" width="11px" height="12px" preserveAspectRatio="xMinYMin meet" x="263" y="-244.2"/>
<text text-anchor="start" x="278" y="-234.3" font-family="Helvetica,sans-Serif" font-size="11.00" fill="#000000">location_id</text>
<polygon fill="#ffffff" stroke="transparent" points="258,-205.2 258,-227.2 385,-227.2 385,-205.2 258,-205.2"/>
<polygon fill="none" stroke="#000000" points="258,-205.2 258,-227.2 385,-227.2 385,-205.2 258,-205.2"/>
<image xlink:href="../../images/foreignKeys.png" width="11px" height="12px" preserveAspectRatio="xMinYMin meet" x="263" y="-222.2"/>
<text text-anchor="start" x="278" y="-212.3" font-family="Helvetica,sans-Serif" font-size="11.00" fill="#000000">role_id</text>
<polygon fill="#ffffff" stroke="transparent" points="258,-183.2 258,-205.2 385,-205.2 385,-183.2 258,-183.2"/>
<polygon fill="none" stroke="#000000" points="258,-183.2 258,-205.2 385,-205.2 385,-183.2 258,-183.2"/>
<image xlink:href="../../images/foreignKeys.png" width="11px" height="12px" preserveAspectRatio="xMinYMin meet" x="263" y="-200.2"/>
<text text-anchor="start" x="278" y="-190.3" font-family="Helvetica,sans-Serif" font-size="11.00" fill="#000000">contact_person_id</text>
<polygon fill="none" stroke="#000000" points="258,-164.2 258,-183.2 385,-183.2 385,-164.2 258,-164.2"/>
<text text-anchor="start" x="261" y="-170.3" font-family="Helvetica,sans-Serif" font-size="11.00" fill="#000000">...</text>
<polygon fill="#ffffff" stroke="transparent" points="258,-145.2 258,-164.2 302,-164.2 302,-145.2 258,-145.2"/>
<polygon fill="none" stroke="#000000" points="258,-145.2 258,-164.2 302,-164.2 302,-145.2 258,-145.2"/>
<text text-anchor="start" x="261" y="-151.3" font-family="Helvetica,sans-Serif" font-size="11.00" fill="#000000">&lt; 3</text>
<polygon fill="#ffffff" stroke="transparent" points="302,-145.2 302,-164.2 352,-164.2 352,-145.2 302,-145.2"/>
<polygon fill="none" stroke="#000000" points="302,-145.2 302,-164.2 352,-164.2 352,-145.2 302,-145.2"/>
<text text-anchor="start" x="316.6105" y="-151.3" font-family="Helvetica,sans-Serif" font-size="11.00" fill="#000000">4 rows</text>
<polygon fill="#ffffff" stroke="transparent" points="352,-145.2 352,-164.2 385,-164.2 385,-145.2 352,-145.2"/>
<polygon fill="none" stroke="#000000" points="352,-145.2 352,-164.2 385,-164.2 385,-145.2 352,-145.2"/>
<text text-anchor="start" x="366.4053" y="-151.3" font-family="Helvetica,sans-Serif" font-size="11.00" fill="#000000">2 &gt;</text>
</a>
</g>
</g>
<!-- invitation&#45;&gt;contact_person -->
<g id="edge2" class="edge">
<title>invitation:w&#45;&gt;contact_person:e</title>
<path fill="none" stroke="#000000" d="M243.9519,-197.8461C216.6667,-215.3816 244.0075,-290.2 200,-290.2"/>
<polygon fill="#000000" stroke="#000000" points="250.2566,-196.2098 258.9044,-197.6845 254.1283,-195.2049 258,-194.2 258,-194.2 258,-194.2 254.1283,-195.2049 257.0956,-190.7155 250.2566,-196.2098 250.2566,-196.2098"/>
<ellipse fill="none" stroke="#000000" cx="247.1592" cy="-197.0137" rx="3.2" ry="3.2"/>
</g>
</g>
</svg>
