<?xml version="1.0" encoding="UTF-8" standalone="no"?>
<!DOCTYPE svg PUBLIC "-//W3C//DTD SVG 1.1//EN"
 "http://www.w3.org/Graphics/SVG/1.1/DTD/svg11.dtd">
<!-- Generated by graphviz version 2.40.1 (20161225.0304)
 -->
<!-- Title: oneDegreeRelationshipsDiagram Pages: 1 -->
<svg width="445pt" height="377pt"
 viewBox="0.00 0.00 445.00 376.70" xmlns="http://www.w3.org/2000/svg" xmlns:xlink="http://www.w3.org/1999/xlink">
<g id="graph0" class="graph" transform="scale(1 1) rotate(0) translate(4 372.7)">
<title>oneDegreeRelationshipsDiagram</title>
<polygon fill="#ffffff" stroke="transparent" points="-4,4 -4,-372.7 441,-372.7 441,4 -4,4"/>
<text text-anchor="middle" x="72.4936" y="-7.3" font-family="Helvetica,sans-Serif" font-size="11.00" fill="#000000">Generated by SchemaSpy</text>
<!-- contracting_settings -->
<g id="node1" class="node">
<title>contracting_settings</title>
<g id="a_node1"><a xlink:href="../../tables/contracting_settings.html" xlink:title="contracting_settings" target="_top">
<polygon fill="#ffffff" stroke="transparent" points="220,-142.7 220,-364.7 429,-364.7 429,-142.7 220,-142.7"/>
<polygon fill="#f5f5f5" stroke="transparent" points="222.5,-339.7 222.5,-362.7 427.5,-362.7 427.5,-339.7 222.5,-339.7"/>
<polygon fill="none" stroke="#000000" points="222.5,-339.7 222.5,-362.7 427.5,-362.7 427.5,-339.7 222.5,-339.7"/>
<text text-anchor="start" x="227.5" y="-348.8" font-family="Helvetica,sans-Serif" font-weight="bold" font-size="11.00" fill="#000000">contracting_settings</text>
<text text-anchor="start" x="392.5437" y="-347.8" font-family="Helvetica,sans-Serif" font-size="11.00" fill="#000000">[table]</text>
<polygon fill="none" stroke="#000000" points="222.5,-317.7 222.5,-339.7 361.5,-339.7 361.5,-317.7 222.5,-317.7"/>
<image xlink:href="../../images/primaryKeys.png" width="11px" height="12px" preserveAspectRatio="xMinYMin meet" x="227.5" y="-334.7"/>
<text text-anchor="start" x="242.5" y="-324.8" font-family="Helvetica,sans-Serif" font-size="11.00" fill="#000000">id</text>
<polygon fill="none" stroke="#000000" points="361.5,-317.7 361.5,-339.7 427.5,-339.7 427.5,-317.7 361.5,-317.7"/>
<text text-anchor="start" x="364.5" y="-325.4" font-family="Helvetica,sans-Serif" font-size="11.00" fill="#000000">bigint[19]</text>
<polygon fill="#ffffff" stroke="transparent" points="222.5,-295.7 222.5,-317.7 361.5,-317.7 361.5,-295.7 222.5,-295.7"/>
<polygon fill="none" stroke="#000000" points="222.5,-295.7 222.5,-317.7 361.5,-317.7 361.5,-295.7 222.5,-295.7"/>
<image xlink:href="../../images/foreignKeys.png" width="11px" height="12px" preserveAspectRatio="xMinYMin meet" x="227.5" y="-312.7"/>
<text text-anchor="start" x="242.5" y="-302.8" font-family="Helvetica,sans-Serif" font-size="11.00" fill="#000000">created_by</text>
<polygon fill="none" stroke="#000000" points="361.5,-295.7 361.5,-317.7 427.5,-317.7 427.5,-295.7 361.5,-295.7"/>
<text text-anchor="start" x="364.5" y="-303.4" font-family="Helvetica,sans-Serif" font-size="11.00" fill="#000000">bigint[19]</text>
<polygon fill="none" stroke="#000000" points="222.5,-273.7 222.5,-295.7 361.5,-295.7 361.5,-273.7 222.5,-273.7"/>
<text text-anchor="start" x="242.5" y="-280.8" font-family="Helvetica,sans-Serif" font-size="11.00" fill="#000000">creation_date</text>
<polygon fill="none" stroke="#000000" points="361.5,-273.7 361.5,-295.7 427.5,-295.7 427.5,-273.7 361.5,-273.7"/>
<text text-anchor="start" x="364.2401" y="-281.4" font-family="Helvetica,sans-Serif" font-size="11.00" fill="#000000">datetime[26]</text>
<polygon fill="#ffffff" stroke="transparent" points="222.5,-251.7 222.5,-273.7 361.5,-273.7 361.5,-251.7 222.5,-251.7"/>
<polygon fill="none" stroke="#000000" points="222.5,-251.7 222.5,-273.7 361.5,-273.7 361.5,-251.7 222.5,-251.7"/>
<image xlink:href="../../images/foreignKeys.png" width="11px" height="12px" preserveAspectRatio="xMinYMin meet" x="227.5" y="-268.7"/>
<text text-anchor="start" x="242.5" y="-258.8" font-family="Helvetica,sans-Serif" font-size="11.00" fill="#000000">modified_by</text>
<polygon fill="none" stroke="#000000" points="361.5,-251.7 361.5,-273.7 427.5,-273.7 427.5,-251.7 361.5,-251.7"/>
<text text-anchor="start" x="364.5" y="-259.4" font-family="Helvetica,sans-Serif" font-size="11.00" fill="#000000">bigint[19]</text>
<polygon fill="none" stroke="#000000" points="222.5,-229.7 222.5,-251.7 361.5,-251.7 361.5,-229.7 222.5,-229.7"/>
<text text-anchor="start" x="242.5" y="-236.8" font-family="Helvetica,sans-Serif" font-size="11.00" fill="#000000">modification_date</text>
<polygon fill="none" stroke="#000000" points="361.5,-229.7 361.5,-251.7 427.5,-251.7 427.5,-229.7 361.5,-229.7"/>
<text text-anchor="start" x="364.2401" y="-237.4" font-family="Helvetica,sans-Serif" font-size="11.00" fill="#000000">datetime[26]</text>
<polygon fill="none" stroke="#000000" points="222.5,-207.7 222.5,-229.7 361.5,-229.7 361.5,-207.7 222.5,-207.7"/>
<text text-anchor="start" x="242.5" y="-214.8" font-family="Helvetica,sans-Serif" font-size="11.00" fill="#000000">evaluation_allowed</text>
<polygon fill="none" stroke="#000000" points="361.5,-207.7 361.5,-229.7 427.5,-229.7 427.5,-207.7 361.5,-207.7"/>
<text text-anchor="start" x="364.5" y="-215.4" font-family="Helvetica,sans-Serif" font-size="11.00" fill="#000000">bit[1]</text>
<polygon fill="none" stroke="#000000" points="222.5,-185.7 222.5,-207.7 361.5,-207.7 361.5,-185.7 222.5,-185.7"/>
<text text-anchor="start" x="242.5" y="-192.8" font-family="Helvetica,sans-Serif" font-size="11.00" fill="#000000">esigning_required</text>
<polygon fill="none" stroke="#000000" points="361.5,-185.7 361.5,-207.7 427.5,-207.7 427.5,-185.7 361.5,-185.7"/>
<text text-anchor="start" x="364.5" y="-193.4" font-family="Helvetica,sans-Serif" font-size="11.00" fill="#000000">bit[1]</text>
<polygon fill="#ffffff" stroke="transparent" points="222.5,-163.7 222.5,-185.7 361.5,-185.7 361.5,-163.7 222.5,-163.7"/>
<polygon fill="none" stroke="#000000" points="222.5,-163.7 222.5,-185.7 361.5,-185.7 361.5,-163.7 222.5,-163.7"/>
<image xlink:href="../../images/foreignKeys.png" width="11px" height="12px" preserveAspectRatio="xMinYMin meet" x="227.5" y="-180.7"/>
<text text-anchor="start" x="242.5" y="-170.8" font-family="Helvetica,sans-Serif" font-size="11.00" fill="#000000">unit_id</text>
<polygon fill="none" stroke="#000000" points="361.5,-163.7 361.5,-185.7 427.5,-185.7 427.5,-163.7 361.5,-163.7"/>
<text text-anchor="start" x="364.5" y="-171.4" font-family="Helvetica,sans-Serif" font-size="11.00" fill="#000000">bigint[19]</text>
<polygon fill="#ffffff" stroke="transparent" points="222.5,-144.7 222.5,-163.7 283.5,-163.7 283.5,-144.7 222.5,-144.7"/>
<polygon fill="none" stroke="#000000" points="222.5,-144.7 222.5,-163.7 283.5,-163.7 283.5,-144.7 222.5,-144.7"/>
<text text-anchor="start" x="225.5" y="-150.8" font-family="Helvetica,sans-Serif" font-size="11.00" fill="#000000">&lt; 3</text>
<polygon fill="#ffffff" stroke="transparent" points="283.5,-144.7 283.5,-163.7 361.5,-163.7 361.5,-144.7 283.5,-144.7"/>
<polygon fill="none" stroke="#000000" points="283.5,-144.7 283.5,-163.7 361.5,-163.7 361.5,-144.7 283.5,-144.7"/>
<text text-anchor="start" x="326.1105" y="-150.8" font-family="Helvetica,sans-Serif" font-size="11.00" fill="#000000">8 rows</text>
<polygon fill="#ffffff" stroke="transparent" points="361.5,-144.7 361.5,-163.7 427.5,-163.7 427.5,-144.7 361.5,-144.7"/>
<polygon fill="none" stroke="#000000" points="361.5,-144.7 361.5,-163.7 427.5,-163.7 427.5,-144.7 361.5,-144.7"/>
<text text-anchor="start" x="408.9053" y="-150.8" font-family="Helvetica,sans-Serif" font-size="11.00" fill="#000000">0 &gt;</text>
<polygon fill="none" stroke="#000000" stroke-width="2" points="221,-143.7 221,-363.7 428,-363.7 428,-143.7 221,-143.7"/>
</a>
</g>
</g>
<!-- principal -->
<g id="node2" class="node">
<title>principal</title>
<g id="a_node2"><a xlink:href="../../tables/principal.html" xlink:title="principal" target="_top">
<polygon fill="#ffffff" stroke="transparent" points="43.5,-233.2 43.5,-338.2 135.5,-338.2 135.5,-233.2 43.5,-233.2"/>
<polygon fill="#f5f5f5" stroke="transparent" points="43.5,-314.7 43.5,-337.7 135.5,-337.7 135.5,-314.7 43.5,-314.7"/>
<polygon fill="none" stroke="#000000" points="43.5,-314.7 43.5,-337.7 135.5,-337.7 135.5,-314.7 43.5,-314.7"/>
<text text-anchor="start" x="48.5" y="-323.8" font-family="Helvetica,sans-Serif" font-weight="bold" font-size="11.00" fill="#000000">principal</text>
<text text-anchor="start" x="100.5437" y="-322.8" font-family="Helvetica,sans-Serif" font-size="11.00" fill="#000000">[table]</text>
<polygon fill="none" stroke="#000000" points="43.5,-292.7 43.5,-314.7 135.5,-314.7 135.5,-292.7 43.5,-292.7"/>
<image xlink:href="../../images/primaryKeys.png" width="11px" height="12px" preserveAspectRatio="xMinYMin meet" x="48.5" y="-309.7"/>
<text text-anchor="start" x="67.5" y="-299.8" font-family="Helvetica,sans-Serif" font-size="11.00" fill="#000000">id</text>
<polygon fill="#ffffff" stroke="transparent" points="43.5,-270.7 43.5,-292.7 135.5,-292.7 135.5,-270.7 43.5,-270.7"/>
<polygon fill="none" stroke="#000000" points="43.5,-270.7 43.5,-292.7 135.5,-292.7 135.5,-270.7 43.5,-270.7"/>
<image xlink:href="../../images/foreignKeys.png" width="11px" height="12px" preserveAspectRatio="xMinYMin meet" x="48.5" y="-287.7"/>
<text text-anchor="start" x="67.5" y="-277.8" font-family="Helvetica,sans-Serif" font-size="11.00" fill="#000000">eworker_id</text>
<polygon fill="none" stroke="#000000" points="43.5,-251.7 43.5,-270.7 135.5,-270.7 135.5,-251.7 43.5,-251.7"/>
<text text-anchor="start" x="46.5" y="-257.8" font-family="Helvetica,sans-Serif" font-size="11.00" fill="#000000">...</text>
<polygon fill="#ffffff" stroke="transparent" points="43.5,-232.7 43.5,-251.7 64.5,-251.7 64.5,-232.7 43.5,-232.7"/>
<polygon fill="none" stroke="#000000" points="43.5,-232.7 43.5,-251.7 64.5,-251.7 64.5,-232.7 43.5,-232.7"/>
<text text-anchor="start" x="46.2027" y="-238.8" font-family="Helvetica,sans-Serif" font-size="11.00" fill="#000000">&lt; 1</text>
<polygon fill="#ffffff" stroke="transparent" points="64.5,-232.7 64.5,-251.7 108.5,-251.7 108.5,-232.7 64.5,-232.7"/>
<polygon fill="none" stroke="#000000" points="64.5,-232.7 64.5,-251.7 108.5,-251.7 108.5,-232.7 64.5,-232.7"/>
<text text-anchor="start" x="67.2478" y="-238.8" font-family="Helvetica,sans-Serif" font-size="11.00" fill="#000000">18 rows</text>
<polygon fill="#ffffff" stroke="transparent" points="108.5,-232.7 108.5,-251.7 135.5,-251.7 135.5,-232.7 108.5,-232.7"/>
<polygon fill="none" stroke="#000000" points="108.5,-232.7 108.5,-251.7 135.5,-251.7 135.5,-232.7 108.5,-232.7"/>
<text text-anchor="start" x="111.1452" y="-238.8" font-family="Helvetica,sans-Serif" font-size="11.00" fill="#000000">56 &gt;</text>
</a>
</g>
</g>
<!-- contracting_settings&#45;&gt;principal -->
<g id="edge1" class="edge">
<title>contracting_settings:w&#45;&gt;principal:e</title>
<path fill="none" stroke="#000000" d="M207.7407,-306.5387C180.5297,-305.9156 168.7489,-303.7 135.5,-303.7"/>
<polygon fill="#000000" stroke="#000000" points="214.5005,-306.6125 222.4606,-310.2998 218.5002,-306.6563 222.5,-306.7 222.5,-306.7 222.5,-306.7 218.5002,-306.6563 222.5394,-303.1002 214.5005,-306.6125 214.5005,-306.6125"/>
<ellipse fill="none" stroke="#000000" cx="211.3007" cy="-306.5775" rx="3.2" ry="3.2"/>
</g>
<!-- contracting_settings&#45;&gt;principal -->
<g id="edge2" class="edge">
<title>contracting_settings:w&#45;&gt;principal:e</title>
<path fill="none" stroke="#000000" d="M207.8486,-264.5682C178.6803,-272.589 172.7352,-303.7 135.5,-303.7"/>
<polygon fill="#000000" stroke="#000000" points="214.5643,-263.7119 222.9554,-266.2711 218.5321,-263.206 222.5,-262.7 222.5,-262.7 222.5,-262.7 218.5321,-263.206 222.0446,-259.1289 214.5643,-263.7119 214.5643,-263.7119"/>
<ellipse fill="none" stroke="#000000" cx="211.39" cy="-264.1167" rx="3.2" ry="3.2"/>
</g>
<!-- client_unit -->
<g id="node3" class="node">
<title>client_unit</title>
<g id="a_node3"><a xlink:href="../../tables/client_unit.html" xlink:title="client_unit" target="_top">
<polygon fill="#ffffff" stroke="transparent" points="8,-38.2 8,-209.2 171,-209.2 171,-38.2 8,-38.2"/>
<polygon fill="#f5f5f5" stroke="transparent" points="8.5,-185.7 8.5,-208.7 171.5,-208.7 171.5,-185.7 8.5,-185.7"/>
<polygon fill="none" stroke="#000000" points="8.5,-185.7 8.5,-208.7 171.5,-208.7 171.5,-185.7 8.5,-185.7"/>
<text text-anchor="start" x="13.5" y="-194.8" font-family="Helvetica,sans-Serif" font-weight="bold" font-size="11.00" fill="#000000">client_unit</text>
<text text-anchor="start" x="136.5437" y="-193.8" font-family="Helvetica,sans-Serif" font-size="11.00" fill="#000000">[table]</text>
<polygon fill="none" stroke="#000000" points="8.5,-163.7 8.5,-185.7 171.5,-185.7 171.5,-163.7 8.5,-163.7"/>
<image xlink:href="../../images/primaryKeys.png" width="11px" height="12px" preserveAspectRatio="xMinYMin meet" x="13.5" y="-180.7"/>
<text text-anchor="start" x="28.5" y="-170.8" font-family="Helvetica,sans-Serif" font-size="11.00" fill="#000000">id</text>
<polygon fill="#ffffff" stroke="transparent" points="8.5,-141.7 8.5,-163.7 171.5,-163.7 171.5,-141.7 8.5,-141.7"/>
<polygon fill="none" stroke="#000000" points="8.5,-141.7 8.5,-163.7 171.5,-163.7 171.5,-141.7 8.5,-141.7"/>
<text text-anchor="start" x="28.5" y="-148.8" font-family="Helvetica,sans-Serif" font-size="11.00" fill="#000000">name</text>
<polygon fill="#ffffff" stroke="transparent" points="8.5,-119.7 8.5,-141.7 171.5,-141.7 171.5,-119.7 8.5,-119.7"/>
<polygon fill="none" stroke="#000000" points="8.5,-119.7 8.5,-141.7 171.5,-141.7 171.5,-119.7 8.5,-119.7"/>
<text text-anchor="start" x="28.5" y="-126.8" font-family="Helvetica,sans-Serif" font-size="11.00" fill="#000000">vat_number</text>
<polygon fill="#ffffff" stroke="transparent" points="8.5,-97.7 8.5,-119.7 171.5,-119.7 171.5,-97.7 8.5,-97.7"/>
<polygon fill="none" stroke="#000000" points="8.5,-97.7 8.5,-119.7 171.5,-119.7 171.5,-97.7 8.5,-97.7"/>
<image xlink:href="../../images/foreignKeys.png" width="11px" height="12px" preserveAspectRatio="xMinYMin meet" x="13.5" y="-114.7"/>
<text text-anchor="start" x="28.5" y="-104.8" font-family="Helvetica,sans-Serif" font-size="11.00" fill="#000000">client_id</text>
<polygon fill="#ffffff" stroke="transparent" points="8.5,-75.7 8.5,-97.7 171.5,-97.7 171.5,-75.7 8.5,-75.7"/>
<polygon fill="none" stroke="#000000" points="8.5,-75.7 8.5,-97.7 171.5,-97.7 171.5,-75.7 8.5,-75.7"/>
<image xlink:href="../../images/foreignKeys.png" width="11px" height="12px" preserveAspectRatio="xMinYMin meet" x="13.5" y="-92.7"/>
<text text-anchor="start" x="28.5" y="-82.8" font-family="Helvetica,sans-Serif" font-size="11.00" fill="#000000">time_report_schedule_id</text>
<polygon fill="none" stroke="#000000" points="8.5,-56.7 8.5,-75.7 171.5,-75.7 171.5,-56.7 8.5,-56.7"/>
<text text-anchor="start" x="11.5" y="-62.8" font-family="Helvetica,sans-Serif" font-size="11.00" fill="#000000">...</text>
<polygon fill="#ffffff" stroke="transparent" points="8.5,-37.7 8.5,-56.7 64.5,-56.7 64.5,-37.7 8.5,-37.7"/>
<polygon fill="none" stroke="#000000" points="8.5,-37.7 8.5,-56.7 64.5,-56.7 64.5,-37.7 8.5,-37.7"/>
<text text-anchor="start" x="11.5" y="-43.8" font-family="Helvetica,sans-Serif" font-size="11.00" fill="#000000">&lt; 2</text>
<polygon fill="#ffffff" stroke="transparent" points="64.5,-37.7 64.5,-56.7 132.5,-56.7 132.5,-37.7 64.5,-37.7"/>
<polygon fill="none" stroke="#000000" points="64.5,-37.7 64.5,-56.7 132.5,-56.7 132.5,-37.7 64.5,-37.7"/>
<text text-anchor="start" x="84.8807" y="-43.8" font-family="Helvetica,sans-Serif" font-size="11.00" fill="#000000">117 rows</text>
<polygon fill="#ffffff" stroke="transparent" points="132.5,-37.7 132.5,-56.7 171.5,-56.7 171.5,-37.7 132.5,-37.7"/>
<polygon fill="none" stroke="#000000" points="132.5,-37.7 132.5,-56.7 171.5,-56.7 171.5,-37.7 132.5,-37.7"/>
<text text-anchor="start" x="152.9053" y="-43.8" font-family="Helvetica,sans-Serif" font-size="11.00" fill="#000000">4 &gt;</text>
</a>
</g>
</g>
<!-- contracting_settings&#45;&gt;client_unit -->
<g id="edge3" class="edge">
<title>contracting_settings:w&#45;&gt;client_unit:e</title>
<path fill="none" stroke="#000000" d="M211.7307,-174.7C197.248,-174.7 190.0938,-174.7 171.5,-174.7"/>
<polygon fill="#000000" stroke="#000000" points="221.7,-170.7 221.7,-178.7 220.1,-178.7 220.1,-170.7 221.7,-170.7"/>
<polyline fill="none" stroke="#000000" points="222.5,-174.7 218.5,-174.7 "/>
<ellipse fill="none" stroke="#000000" cx="215.3" cy="-174.7001" rx="3.2" ry="3.2"/>
</g>
</g>
</svg>
