<?xml version="1.0" encoding="UTF-8" standalone="no"?>
<!DOCTYPE svg PUBLIC "-//W3C//DTD SVG 1.1//EN"
 "http://www.w3.org/Graphics/SVG/1.1/DTD/svg11.dtd">
<!-- Generated by graphviz version 2.40.1 (20161225.0304)
 -->
<!-- Title: oneDegreeRelationshipsDiagram Pages: 1 -->
<svg width="359pt" height="382pt"
 viewBox="0.00 0.00 359.00 382.20" xmlns="http://www.w3.org/2000/svg" xmlns:xlink="http://www.w3.org/1999/xlink">
<g id="graph0" class="graph" transform="scale(1 1) rotate(0) translate(4 378.2)">
<title>oneDegreeRelationshipsDiagram</title>
<polygon fill="#ffffff" stroke="transparent" points="-4,4 -4,-378.2 355,-378.2 355,4 -4,4"/>
<text text-anchor="middle" x="72.4936" y="-7.3" font-family="Helvetica,sans-Serif" font-size="11.00" fill="#000000">Generated by SchemaSpy</text>
<!-- email_task -->
<g id="node1" class="node">
<title>email_task</title>
<g id="a_node1"><a xlink:href="../../tables/email_task.html" xlink:title="email_task" target="_top">
<polygon fill="#ffffff" stroke="transparent" points="149,-38.2 149,-370.2 343,-370.2 343,-38.2 149,-38.2"/>
<polygon fill="#f5f5f5" stroke="transparent" points="151,-345.2 151,-368.2 341,-368.2 341,-345.2 151,-345.2"/>
<polygon fill="none" stroke="#000000" points="151,-345.2 151,-368.2 341,-368.2 341,-345.2 151,-345.2"/>
<text text-anchor="start" x="156" y="-354.3" font-family="Helvetica,sans-Serif" font-weight="bold" font-size="11.00" fill="#000000">email_task</text>
<text text-anchor="start" x="306.0437" y="-353.3" font-family="Helvetica,sans-Serif" font-size="11.00" fill="#000000">[table]</text>
<polygon fill="none" stroke="#000000" points="151,-323.2 151,-345.2 274,-345.2 274,-323.2 151,-323.2"/>
<image xlink:href="../../images/primaryKeys.png" width="11px" height="12px" preserveAspectRatio="xMinYMin meet" x="156" y="-340.2"/>
<text text-anchor="start" x="171" y="-330.3" font-family="Helvetica,sans-Serif" font-size="11.00" fill="#000000">id</text>
<polygon fill="none" stroke="#000000" points="274,-323.2 274,-345.2 341,-345.2 341,-323.2 274,-323.2"/>
<text text-anchor="start" x="277" y="-330.9" font-family="Helvetica,sans-Serif" font-size="11.00" fill="#000000">bigint[19]</text>
<polygon fill="#ffffff" stroke="transparent" points="151,-301.2 151,-323.2 274,-323.2 274,-301.2 151,-301.2"/>
<polygon fill="none" stroke="#000000" points="151,-301.2 151,-323.2 274,-323.2 274,-301.2 151,-301.2"/>
<image xlink:href="../../images/foreignKeys.png" width="11px" height="12px" preserveAspectRatio="xMinYMin meet" x="156" y="-318.2"/>
<text text-anchor="start" x="171" y="-308.3" font-family="Helvetica,sans-Serif" font-size="11.00" fill="#000000">created_by</text>
<polygon fill="none" stroke="#000000" points="274,-301.2 274,-323.2 341,-323.2 341,-301.2 274,-301.2"/>
<text text-anchor="start" x="277" y="-308.9" font-family="Helvetica,sans-Serif" font-size="11.00" fill="#000000">bigint[19]</text>
<polygon fill="none" stroke="#000000" points="151,-279.2 151,-301.2 274,-301.2 274,-279.2 151,-279.2"/>
<text text-anchor="start" x="171" y="-286.3" font-family="Helvetica,sans-Serif" font-size="11.00" fill="#000000">creation_date</text>
<polygon fill="none" stroke="#000000" points="274,-279.2 274,-301.2 341,-301.2 341,-279.2 274,-279.2"/>
<text text-anchor="start" x="277" y="-286.9" font-family="Helvetica,sans-Serif" font-size="11.00" fill="#000000">datetime[26]</text>
<polygon fill="#ffffff" stroke="transparent" points="151,-257.2 151,-279.2 274,-279.2 274,-257.2 151,-257.2"/>
<polygon fill="none" stroke="#000000" points="151,-257.2 151,-279.2 274,-279.2 274,-257.2 151,-257.2"/>
<image xlink:href="../../images/foreignKeys.png" width="11px" height="12px" preserveAspectRatio="xMinYMin meet" x="156" y="-274.2"/>
<text text-anchor="start" x="171" y="-264.3" font-family="Helvetica,sans-Serif" font-size="11.00" fill="#000000">modified_by</text>
<polygon fill="none" stroke="#000000" points="274,-257.2 274,-279.2 341,-279.2 341,-257.2 274,-257.2"/>
<text text-anchor="start" x="277" y="-264.9" font-family="Helvetica,sans-Serif" font-size="11.00" fill="#000000">bigint[19]</text>
<polygon fill="none" stroke="#000000" points="151,-235.2 151,-257.2 274,-257.2 274,-235.2 151,-235.2"/>
<text text-anchor="start" x="171" y="-242.3" font-family="Helvetica,sans-Serif" font-size="11.00" fill="#000000">modification_date</text>
<polygon fill="none" stroke="#000000" points="274,-235.2 274,-257.2 341,-257.2 341,-235.2 274,-235.2"/>
<text text-anchor="start" x="277" y="-242.9" font-family="Helvetica,sans-Serif" font-size="11.00" fill="#000000">datetime[26]</text>
<polygon fill="none" stroke="#000000" points="151,-213.2 151,-235.2 274,-235.2 274,-213.2 151,-213.2"/>
<text text-anchor="start" x="171" y="-220.3" font-family="Helvetica,sans-Serif" font-size="11.00" fill="#000000">subject</text>
<polygon fill="none" stroke="#000000" points="274,-213.2 274,-235.2 341,-235.2 341,-213.2 274,-213.2"/>
<text text-anchor="start" x="276.9365" y="-220.9" font-family="Helvetica,sans-Serif" font-size="11.00" fill="#000000">varchar[255]</text>
<polygon fill="none" stroke="#000000" points="151,-191.2 151,-213.2 274,-213.2 274,-191.2 151,-191.2"/>
<text text-anchor="start" x="171" y="-198.3" font-family="Helvetica,sans-Serif" font-size="11.00" fill="#000000">template_name</text>
<polygon fill="none" stroke="#000000" points="274,-191.2 274,-213.2 341,-213.2 341,-191.2 274,-191.2"/>
<text text-anchor="start" x="276.9365" y="-198.9" font-family="Helvetica,sans-Serif" font-size="11.00" fill="#000000">varchar[255]</text>
<polygon fill="none" stroke="#000000" points="151,-169.2 151,-191.2 274,-191.2 274,-169.2 151,-169.2"/>
<text text-anchor="start" x="171" y="-176.3" font-family="Helvetica,sans-Serif" font-size="11.00" fill="#000000">variables</text>
<polygon fill="none" stroke="#000000" points="274,-169.2 274,-191.2 341,-191.2 341,-169.2 274,-169.2"/>
<text text-anchor="start" x="277" y="-176.9" font-family="Helvetica,sans-Serif" font-size="11.00" fill="#000000">text[65535]</text>
<polygon fill="none" stroke="#000000" points="151,-147.2 151,-169.2 274,-169.2 274,-147.2 151,-147.2"/>
<text text-anchor="start" x="171" y="-154.3" font-family="Helvetica,sans-Serif" font-size="11.00" fill="#000000">last_attempt_date</text>
<polygon fill="none" stroke="#000000" points="274,-147.2 274,-169.2 341,-169.2 341,-147.2 274,-147.2"/>
<text text-anchor="start" x="277" y="-154.9" font-family="Helvetica,sans-Serif" font-size="11.00" fill="#000000">datetime[26]</text>
<polygon fill="none" stroke="#000000" points="151,-125.2 151,-147.2 274,-147.2 274,-125.2 151,-125.2"/>
<text text-anchor="start" x="171" y="-132.3" font-family="Helvetica,sans-Serif" font-size="11.00" fill="#000000">recipient</text>
<polygon fill="none" stroke="#000000" points="274,-125.2 274,-147.2 341,-147.2 341,-125.2 274,-125.2"/>
<text text-anchor="start" x="276.9365" y="-132.9" font-family="Helvetica,sans-Serif" font-size="11.00" fill="#000000">varchar[255]</text>
<polygon fill="none" stroke="#000000" points="151,-103.2 151,-125.2 274,-125.2 274,-103.2 151,-103.2"/>
<text text-anchor="start" x="171" y="-110.3" font-family="Helvetica,sans-Serif" font-size="11.00" fill="#000000">type</text>
<polygon fill="none" stroke="#000000" points="274,-103.2 274,-125.2 341,-125.2 341,-103.2 274,-103.2"/>
<text text-anchor="start" x="276.9365" y="-110.9" font-family="Helvetica,sans-Serif" font-size="11.00" fill="#000000">varchar[255]</text>
<polygon fill="none" stroke="#000000" points="151,-81.2 151,-103.2 274,-103.2 274,-81.2 151,-81.2"/>
<text text-anchor="start" x="171" y="-88.3" font-family="Helvetica,sans-Serif" font-size="11.00" fill="#000000">status</text>
<polygon fill="none" stroke="#000000" points="274,-81.2 274,-103.2 341,-103.2 341,-81.2 274,-81.2"/>
<text text-anchor="start" x="276.9365" y="-88.9" font-family="Helvetica,sans-Serif" font-size="11.00" fill="#000000">varchar[255]</text>
<polygon fill="none" stroke="#000000" points="151,-59.2 151,-81.2 274,-81.2 274,-59.2 151,-59.2"/>
<text text-anchor="start" x="171" y="-66.3" font-family="Helvetica,sans-Serif" font-size="11.00" fill="#000000">attempts_count</text>
<polygon fill="none" stroke="#000000" points="274,-59.2 274,-81.2 341,-81.2 341,-59.2 274,-59.2"/>
<text text-anchor="start" x="277" y="-66.9" font-family="Helvetica,sans-Serif" font-size="11.00" fill="#000000">int[10]</text>
<polygon fill="#ffffff" stroke="transparent" points="151,-40.2 151,-59.2 201,-59.2 201,-40.2 151,-40.2"/>
<polygon fill="none" stroke="#000000" points="151,-40.2 151,-59.2 201,-59.2 201,-40.2 151,-40.2"/>
<text text-anchor="start" x="154" y="-46.3" font-family="Helvetica,sans-Serif" font-size="11.00" fill="#000000">&lt; 2</text>
<polygon fill="#ffffff" stroke="transparent" points="201,-40.2 201,-59.2 274,-59.2 274,-40.2 201,-40.2"/>
<polygon fill="none" stroke="#000000" points="201,-40.2 201,-59.2 274,-59.2 274,-40.2 201,-40.2"/>
<text text-anchor="start" x="232.4956" y="-46.3" font-family="Helvetica,sans-Serif" font-size="11.00" fill="#000000">24 rows</text>
<polygon fill="#ffffff" stroke="transparent" points="274,-40.2 274,-59.2 341,-59.2 341,-40.2 274,-40.2"/>
<polygon fill="none" stroke="#000000" points="274,-40.2 274,-59.2 341,-59.2 341,-40.2 274,-40.2"/>
<text text-anchor="start" x="322.4053" y="-46.3" font-family="Helvetica,sans-Serif" font-size="11.00" fill="#000000">0 &gt;</text>
<polygon fill="none" stroke="#000000" stroke-width="2" points="150,-39.2 150,-369.2 342,-369.2 342,-39.2 150,-39.2"/>
</a>
</g>
</g>
<!-- principal -->
<g id="node2" class="node">
<title>principal</title>
<g id="a_node2"><a xlink:href="../../tables/principal.html" xlink:title="principal" target="_top">
<polygon fill="#ffffff" stroke="transparent" points="8,-219.7 8,-324.7 100,-324.7 100,-219.7 8,-219.7"/>
<polygon fill="#f5f5f5" stroke="transparent" points="8,-301.2 8,-324.2 100,-324.2 100,-301.2 8,-301.2"/>
<polygon fill="none" stroke="#000000" points="8,-301.2 8,-324.2 100,-324.2 100,-301.2 8,-301.2"/>
<text text-anchor="start" x="13" y="-310.3" font-family="Helvetica,sans-Serif" font-weight="bold" font-size="11.00" fill="#000000">principal</text>
<text text-anchor="start" x="65.0437" y="-309.3" font-family="Helvetica,sans-Serif" font-size="11.00" fill="#000000">[table]</text>
<polygon fill="none" stroke="#000000" points="8,-279.2 8,-301.2 100,-301.2 100,-279.2 8,-279.2"/>
<image xlink:href="../../images/primaryKeys.png" width="11px" height="12px" preserveAspectRatio="xMinYMin meet" x="13" y="-296.2"/>
<text text-anchor="start" x="32" y="-286.3" font-family="Helvetica,sans-Serif" font-size="11.00" fill="#000000">id</text>
<polygon fill="#ffffff" stroke="transparent" points="8,-257.2 8,-279.2 100,-279.2 100,-257.2 8,-257.2"/>
<polygon fill="none" stroke="#000000" points="8,-257.2 8,-279.2 100,-279.2 100,-257.2 8,-257.2"/>
<image xlink:href="../../images/foreignKeys.png" width="11px" height="12px" preserveAspectRatio="xMinYMin meet" x="13" y="-274.2"/>
<text text-anchor="start" x="32" y="-264.3" font-family="Helvetica,sans-Serif" font-size="11.00" fill="#000000">eworker_id</text>
<polygon fill="none" stroke="#000000" points="8,-238.2 8,-257.2 100,-257.2 100,-238.2 8,-238.2"/>
<text text-anchor="start" x="11" y="-244.3" font-family="Helvetica,sans-Serif" font-size="11.00" fill="#000000">...</text>
<polygon fill="#ffffff" stroke="transparent" points="8,-219.2 8,-238.2 29,-238.2 29,-219.2 8,-219.2"/>
<polygon fill="none" stroke="#000000" points="8,-219.2 8,-238.2 29,-238.2 29,-219.2 8,-219.2"/>
<text text-anchor="start" x="10.7027" y="-225.3" font-family="Helvetica,sans-Serif" font-size="11.00" fill="#000000">&lt; 1</text>
<polygon fill="#ffffff" stroke="transparent" points="29,-219.2 29,-238.2 73,-238.2 73,-219.2 29,-219.2"/>
<polygon fill="none" stroke="#000000" points="29,-219.2 29,-238.2 73,-238.2 73,-219.2 29,-219.2"/>
<text text-anchor="start" x="31.7478" y="-225.3" font-family="Helvetica,sans-Serif" font-size="11.00" fill="#000000">18 rows</text>
<polygon fill="#ffffff" stroke="transparent" points="73,-219.2 73,-238.2 100,-238.2 100,-219.2 73,-219.2"/>
<polygon fill="none" stroke="#000000" points="73,-219.2 73,-238.2 100,-238.2 100,-219.2 73,-219.2"/>
<text text-anchor="start" x="75.6452" y="-225.3" font-family="Helvetica,sans-Serif" font-size="11.00" fill="#000000">56 &gt;</text>
</a>
</g>
</g>
<!-- email_task&#45;&gt;principal -->
<g id="edge1" class="edge">
<title>email_task:w&#45;&gt;principal:e</title>
<path fill="none" stroke="#000000" d="M136.8489,-309.141C124.2843,-303.096 118.9,-290.2 100,-290.2"/>
<polygon fill="#000000" stroke="#000000" points="143.1806,-310.5097 150.2393,-315.7187 147.0903,-311.3548 151,-312.2 151,-312.2 151,-312.2 147.0903,-311.3548 151.7607,-308.6813 143.1806,-310.5097 143.1806,-310.5097"/>
<ellipse fill="none" stroke="#000000" cx="140.0528" cy="-309.8335" rx="3.2" ry="3.2"/>
</g>
<!-- email_task&#45;&gt;principal -->
<g id="edge2" class="edge">
<title>email_task:w&#45;&gt;principal:e</title>
<path fill="none" stroke="#000000" d="M136.8489,-271.259C124.2843,-277.304 118.9,-290.2 100,-290.2"/>
<polygon fill="#000000" stroke="#000000" points="143.1806,-269.8903 151.7607,-271.7187 147.0903,-269.0452 151,-268.2 151,-268.2 151,-268.2 147.0903,-269.0452 150.2393,-264.6813 143.1806,-269.8903 143.1806,-269.8903"/>
<ellipse fill="none" stroke="#000000" cx="140.0528" cy="-270.5665" rx="3.2" ry="3.2"/>
</g>
</g>
</svg>
