<?xml version="1.0" encoding="UTF-8" standalone="no"?>
<!DOCTYPE svg PUBLIC "-//W3C//DTD SVG 1.1//EN"
 "http://www.w3.org/Graphics/SVG/1.1/DTD/svg11.dtd">
<!-- Generated by graphviz version 2.40.1 (20161225.0304)
 -->
<!-- Title: oneDegreeRelationshipsDiagram Pages: 1 -->
<svg width="1378pt" height="971pt"
 viewBox="0.00 0.00 1378.00 970.69" xmlns="http://www.w3.org/2000/svg" xmlns:xlink="http://www.w3.org/1999/xlink">
<g id="graph0" class="graph" transform="scale(1 1) rotate(0) translate(4 966.6911)">
<title>oneDegreeRelationshipsDiagram</title>
<polygon fill="#ffffff" stroke="transparent" points="-4,4 -4,-966.6911 1374,-966.6911 1374,4 -4,4"/>
<text text-anchor="middle" x="72.4936" y="-7.3" font-family="Helvetica,sans-Serif" font-size="11.00" fill="#000000">Generated by SchemaSpy</text>
<!-- client -->
<g id="node1" class="node">
<title>client</title>
<g id="a_node1"><a xlink:href="../../tables/client.html" xlink:title="client" target="_top">
<polygon fill="#ffffff" stroke="transparent" points="750,-118.4322 750,-487.4322 951,-487.4322 951,-118.4322 750,-118.4322"/>
<polygon fill="#f5f5f5" stroke="transparent" points="750.5,-463.9322 750.5,-486.9322 951.5,-486.9322 951.5,-463.9322 750.5,-463.9322"/>
<polygon fill="none" stroke="#000000" points="750.5,-463.9322 750.5,-486.9322 951.5,-486.9322 951.5,-463.9322 750.5,-463.9322"/>
<text text-anchor="start" x="755.5" y="-473.0322" font-family="Helvetica,sans-Serif" font-weight="bold" font-size="11.00" fill="#000000">client</text>
<text text-anchor="start" x="916.5437" y="-472.0322" font-family="Helvetica,sans-Serif" font-size="11.00" fill="#000000">[table]</text>
<polygon fill="none" stroke="#000000" points="750.5,-441.9322 750.5,-463.9322 951.5,-463.9322 951.5,-441.9322 750.5,-441.9322"/>
<image xlink:href="../../images/primaryKeys.png" width="11px" height="12px" preserveAspectRatio="xMinYMin meet" x="755.5" y="-458.932"/>
<text text-anchor="start" x="770.5" y="-449.0322" font-family="Helvetica,sans-Serif" font-size="11.00" fill="#000000">id</text>
<polygon fill="#ffffff" stroke="transparent" points="750.5,-419.9322 750.5,-441.9322 951.5,-441.9322 951.5,-419.9322 750.5,-419.9322"/>
<polygon fill="none" stroke="#000000" points="750.5,-419.9322 750.5,-441.9322 951.5,-441.9322 951.5,-419.9322 750.5,-419.9322"/>
<image xlink:href="../../images/foreignKeys.png" width="11px" height="12px" preserveAspectRatio="xMinYMin meet" x="755.5" y="-436.932"/>
<text text-anchor="start" x="770.5" y="-427.0322" font-family="Helvetica,sans-Serif" font-size="11.00" fill="#000000">created_by</text>
<polygon fill="#ffffff" stroke="transparent" points="750.5,-397.9322 750.5,-419.9322 951.5,-419.9322 951.5,-397.9322 750.5,-397.9322"/>
<polygon fill="none" stroke="#000000" points="750.5,-397.9322 750.5,-419.9322 951.5,-419.9322 951.5,-397.9322 750.5,-397.9322"/>
<image xlink:href="../../images/foreignKeys.png" width="11px" height="12px" preserveAspectRatio="xMinYMin meet" x="755.5" y="-414.932"/>
<text text-anchor="start" x="770.5" y="-405.0322" font-family="Helvetica,sans-Serif" font-size="11.00" fill="#000000">modified_by</text>
<polygon fill="#ffffff" stroke="transparent" points="750.5,-375.9322 750.5,-397.9322 951.5,-397.9322 951.5,-375.9322 750.5,-375.9322"/>
<polygon fill="none" stroke="#000000" points="750.5,-375.9322 750.5,-397.9322 951.5,-397.9322 951.5,-375.9322 750.5,-375.9322"/>
<text text-anchor="start" x="770.5" y="-383.0322" font-family="Helvetica,sans-Serif" font-size="11.00" fill="#000000">marketplace_id</text>
<polygon fill="#ffffff" stroke="transparent" points="750.5,-353.9322 750.5,-375.9322 951.5,-375.9322 951.5,-353.9322 750.5,-353.9322"/>
<polygon fill="none" stroke="#000000" points="750.5,-353.9322 750.5,-375.9322 951.5,-375.9322 951.5,-353.9322 750.5,-353.9322"/>
<text text-anchor="start" x="770.5" y="-361.0322" font-family="Helvetica,sans-Serif" font-size="11.00" fill="#000000">name</text>
<polygon fill="#ffffff" stroke="transparent" points="750.5,-331.9322 750.5,-353.9322 951.5,-353.9322 951.5,-331.9322 750.5,-331.9322"/>
<polygon fill="none" stroke="#000000" points="750.5,-331.9322 750.5,-353.9322 951.5,-353.9322 951.5,-331.9322 750.5,-331.9322"/>
<text text-anchor="start" x="770.5" y="-339.0322" font-family="Helvetica,sans-Serif" font-size="11.00" fill="#000000">organizational_number</text>
<polygon fill="#ffffff" stroke="transparent" points="750.5,-309.9322 750.5,-331.9322 951.5,-331.9322 951.5,-309.9322 750.5,-309.9322"/>
<polygon fill="none" stroke="#000000" points="750.5,-309.9322 750.5,-331.9322 951.5,-331.9322 951.5,-309.9322 750.5,-309.9322"/>
<text text-anchor="start" x="770.5" y="-317.0322" font-family="Helvetica,sans-Serif" font-size="11.00" fill="#000000">vat_number</text>
<polygon fill="#ffffff" stroke="transparent" points="750.5,-287.9322 750.5,-309.9322 951.5,-309.9322 951.5,-287.9322 750.5,-287.9322"/>
<polygon fill="none" stroke="#000000" points="750.5,-287.9322 750.5,-309.9322 951.5,-309.9322 951.5,-287.9322 750.5,-287.9322"/>
<image xlink:href="../../images/foreignKeys.png" width="11px" height="12px" preserveAspectRatio="xMinYMin meet" x="755.5" y="-304.932"/>
<text text-anchor="start" x="770.5" y="-295.0322" font-family="Helvetica,sans-Serif" font-size="11.00" fill="#000000">client_group_id</text>
<polygon fill="#ffffff" stroke="transparent" points="750.5,-265.9322 750.5,-287.9322 951.5,-287.9322 951.5,-265.9322 750.5,-265.9322"/>
<polygon fill="none" stroke="#000000" points="750.5,-265.9322 750.5,-287.9322 951.5,-287.9322 951.5,-265.9322 750.5,-265.9322"/>
<image xlink:href="../../images/foreignKeys.png" width="11px" height="12px" preserveAspectRatio="xMinYMin meet" x="755.5" y="-282.932"/>
<text text-anchor="start" x="770.5" y="-273.0322" font-family="Helvetica,sans-Serif" font-size="11.00" fill="#000000">client_operations_developer_id</text>
<polygon fill="#ffffff" stroke="transparent" points="750.5,-243.9322 750.5,-265.9322 951.5,-265.9322 951.5,-243.9322 750.5,-243.9322"/>
<polygon fill="none" stroke="#000000" points="750.5,-243.9322 750.5,-265.9322 951.5,-265.9322 951.5,-243.9322 750.5,-243.9322"/>
<image xlink:href="../../images/foreignKeys.png" width="11px" height="12px" preserveAspectRatio="xMinYMin meet" x="755.5" y="-260.932"/>
<text text-anchor="start" x="770.5" y="-251.0322" font-family="Helvetica,sans-Serif" font-size="11.00" fill="#000000">responsible_bo_partner_id</text>
<polygon fill="#ffffff" stroke="transparent" points="750.5,-221.9322 750.5,-243.9322 951.5,-243.9322 951.5,-221.9322 750.5,-221.9322"/>
<polygon fill="none" stroke="#000000" points="750.5,-221.9322 750.5,-243.9322 951.5,-243.9322 951.5,-221.9322 750.5,-221.9322"/>
<image xlink:href="../../images/foreignKeys.png" width="11px" height="12px" preserveAspectRatio="xMinYMin meet" x="755.5" y="-238.932"/>
<text text-anchor="start" x="770.5" y="-229.0322" font-family="Helvetica,sans-Serif" font-size="11.00" fill="#000000">client_responsible_id</text>
<polygon fill="#ffffff" stroke="transparent" points="750.5,-199.9322 750.5,-221.9322 951.5,-221.9322 951.5,-199.9322 750.5,-199.9322"/>
<polygon fill="none" stroke="#000000" points="750.5,-199.9322 750.5,-221.9322 951.5,-221.9322 951.5,-199.9322 750.5,-199.9322"/>
<image xlink:href="../../images/foreignKeys.png" width="11px" height="12px" preserveAspectRatio="xMinYMin meet" x="755.5" y="-216.932"/>
<text text-anchor="start" x="770.5" y="-207.0322" font-family="Helvetica,sans-Serif" font-size="11.00" fill="#000000">responsible_bo_team_id</text>
<polygon fill="#ffffff" stroke="transparent" points="750.5,-177.9322 750.5,-199.9322 951.5,-199.9322 951.5,-177.9322 750.5,-177.9322"/>
<polygon fill="none" stroke="#000000" points="750.5,-177.9322 750.5,-199.9322 951.5,-199.9322 951.5,-177.9322 750.5,-177.9322"/>
<image xlink:href="../../images/foreignKeys.png" width="11px" height="12px" preserveAspectRatio="xMinYMin meet" x="755.5" y="-194.932"/>
<text text-anchor="start" x="770.5" y="-185.0322" font-family="Helvetica,sans-Serif" font-size="11.00" fill="#000000">responsible_co_team_id</text>
<polygon fill="#ffffff" stroke="transparent" points="750.5,-155.9322 750.5,-177.9322 951.5,-177.9322 951.5,-155.9322 750.5,-155.9322"/>
<polygon fill="none" stroke="#000000" points="750.5,-155.9322 750.5,-177.9322 951.5,-177.9322 951.5,-155.9322 750.5,-155.9322"/>
<image xlink:href="../../images/foreignKeys.png" width="11px" height="12px" preserveAspectRatio="xMinYMin meet" x="755.5" y="-172.932"/>
<text text-anchor="start" x="770.5" y="-163.0322" font-family="Helvetica,sans-Serif" font-size="11.00" fill="#000000">avatar_id</text>
<polygon fill="none" stroke="#000000" points="750.5,-136.9322 750.5,-155.9322 951.5,-155.9322 951.5,-136.9322 750.5,-136.9322"/>
<text text-anchor="start" x="753.5" y="-143.0322" font-family="Helvetica,sans-Serif" font-size="11.00" fill="#000000">...</text>
<polygon fill="#ffffff" stroke="transparent" points="750.5,-117.9322 750.5,-136.9322 825.5,-136.9322 825.5,-117.9322 750.5,-117.9322"/>
<polygon fill="none" stroke="#000000" points="750.5,-117.9322 750.5,-136.9322 825.5,-136.9322 825.5,-117.9322 750.5,-117.9322"/>
<text text-anchor="start" x="753.5" y="-124.0322" font-family="Helvetica,sans-Serif" font-size="11.00" fill="#000000">&lt; 9</text>
<polygon fill="#ffffff" stroke="transparent" points="825.5,-117.9322 825.5,-136.9322 902.5,-136.9322 902.5,-117.9322 825.5,-117.9322"/>
<polygon fill="none" stroke="#000000" points="825.5,-117.9322 825.5,-136.9322 902.5,-136.9322 902.5,-117.9322 825.5,-117.9322"/>
<text text-anchor="start" x="854.8807" y="-124.0322" font-family="Helvetica,sans-Serif" font-size="11.00" fill="#000000">647 rows</text>
<polygon fill="#ffffff" stroke="transparent" points="902.5,-117.9322 902.5,-136.9322 951.5,-136.9322 951.5,-117.9322 902.5,-117.9322"/>
<polygon fill="none" stroke="#000000" points="902.5,-117.9322 902.5,-136.9322 951.5,-136.9322 951.5,-117.9322 902.5,-117.9322"/>
<text text-anchor="start" x="932.9053" y="-124.0322" font-family="Helvetica,sans-Serif" font-size="11.00" fill="#000000">7 &gt;</text>
</a>
</g>
</g>
<!-- file -->
<g id="node2" class="node">
<title>file</title>
<g id="a_node2"><a xlink:href="../../tables/file.html" xlink:title="file" target="_top">
<polygon fill="#ffffff" stroke="transparent" points="578,-78.4322 578,-205.4322 701,-205.4322 701,-78.4322 578,-78.4322"/>
<polygon fill="#f5f5f5" stroke="transparent" points="578.5,-181.9322 578.5,-204.9322 701.5,-204.9322 701.5,-181.9322 578.5,-181.9322"/>
<polygon fill="none" stroke="#000000" points="578.5,-181.9322 578.5,-204.9322 701.5,-204.9322 701.5,-181.9322 578.5,-181.9322"/>
<text text-anchor="start" x="583.5" y="-191.0322" font-family="Helvetica,sans-Serif" font-weight="bold" font-size="11.00" fill="#000000">file</text>
<text text-anchor="start" x="666.5437" y="-190.0322" font-family="Helvetica,sans-Serif" font-size="11.00" fill="#000000">[table]</text>
<polygon fill="none" stroke="#000000" points="578.5,-159.9322 578.5,-181.9322 701.5,-181.9322 701.5,-159.9322 578.5,-159.9322"/>
<image xlink:href="../../images/primaryKeys.png" width="11px" height="12px" preserveAspectRatio="xMinYMin meet" x="583.5" y="-176.932"/>
<text text-anchor="start" x="598.5" y="-167.0322" font-family="Helvetica,sans-Serif" font-size="11.00" fill="#000000">id</text>
<polygon fill="#ffffff" stroke="transparent" points="578.5,-137.9322 578.5,-159.9322 701.5,-159.9322 701.5,-137.9322 578.5,-137.9322"/>
<polygon fill="none" stroke="#000000" points="578.5,-137.9322 578.5,-159.9322 701.5,-159.9322 701.5,-137.9322 578.5,-137.9322"/>
<image xlink:href="../../images/foreignKeys.png" width="11px" height="12px" preserveAspectRatio="xMinYMin meet" x="583.5" y="-154.932"/>
<text text-anchor="start" x="598.5" y="-145.0322" font-family="Helvetica,sans-Serif" font-size="11.00" fill="#000000">created_by</text>
<polygon fill="#ffffff" stroke="transparent" points="578.5,-115.9322 578.5,-137.9322 701.5,-137.9322 701.5,-115.9322 578.5,-115.9322"/>
<polygon fill="none" stroke="#000000" points="578.5,-115.9322 578.5,-137.9322 701.5,-137.9322 701.5,-115.9322 578.5,-115.9322"/>
<image xlink:href="../../images/foreignKeys.png" width="11px" height="12px" preserveAspectRatio="xMinYMin meet" x="583.5" y="-132.932"/>
<text text-anchor="start" x="598.5" y="-123.0322" font-family="Helvetica,sans-Serif" font-size="11.00" fill="#000000">modified_by</text>
<polygon fill="none" stroke="#000000" points="578.5,-96.9322 578.5,-115.9322 701.5,-115.9322 701.5,-96.9322 578.5,-96.9322"/>
<text text-anchor="start" x="581.5" y="-103.0322" font-family="Helvetica,sans-Serif" font-size="11.00" fill="#000000">...</text>
<polygon fill="#ffffff" stroke="transparent" points="578.5,-77.9322 578.5,-96.9322 611.5,-96.9322 611.5,-77.9322 578.5,-77.9322"/>
<polygon fill="none" stroke="#000000" points="578.5,-77.9322 578.5,-96.9322 611.5,-96.9322 611.5,-77.9322 578.5,-77.9322"/>
<text text-anchor="start" x="581.5" y="-84.0322" font-family="Helvetica,sans-Serif" font-size="11.00" fill="#000000">&lt; 2</text>
<polygon fill="#ffffff" stroke="transparent" points="611.5,-77.9322 611.5,-96.9322 667.5,-96.9322 667.5,-77.9322 611.5,-77.9322"/>
<polygon fill="none" stroke="#000000" points="611.5,-77.9322 611.5,-96.9322 667.5,-96.9322 667.5,-77.9322 611.5,-77.9322"/>
<text text-anchor="start" x="619.8807" y="-84.0322" font-family="Helvetica,sans-Serif" font-size="11.00" fill="#000000">590 rows</text>
<polygon fill="#ffffff" stroke="transparent" points="667.5,-77.9322 667.5,-96.9322 701.5,-96.9322 701.5,-77.9322 667.5,-77.9322"/>
<polygon fill="none" stroke="#000000" points="667.5,-77.9322 667.5,-96.9322 701.5,-96.9322 701.5,-77.9322 667.5,-77.9322"/>
<text text-anchor="start" x="676.7904" y="-84.0322" font-family="Helvetica,sans-Serif" font-size="11.00" fill="#000000">13 &gt;</text>
</a>
</g>
</g>
<!-- client&#45;&gt;file -->
<g id="edge1" class="edge">
<title>client:w&#45;&gt;file:e</title>
<path fill="none" stroke="#000000" d="M735.971,-167.6289C724.6666,-168.7749 717.5463,-170.9322 701.5,-170.9322"/>
<polygon fill="#000000" stroke="#000000" points="742.5092,-167.3154 750.6725,-170.528 746.5046,-167.1238 750.5,-166.9322 750.5,-166.9322 750.5,-166.9322 746.5046,-167.1238 750.3275,-163.3363 742.5092,-167.3154 742.5092,-167.3154"/>
<ellipse fill="none" stroke="#000000" cx="739.3129" cy="-167.4687" rx="3.2" ry="3.2"/>
</g>
<!-- eworker -->
<g id="node3" class="node">
<title>eworker</title>
<g id="a_node3"><a xlink:href="../../tables/eworker.html" xlink:title="eworker" target="_top">
<polygon fill="#ffffff" stroke="transparent" points="180,-60.9322 180,-480.9322 374,-480.9322 374,-60.9322 180,-60.9322"/>
<polygon fill="#f5f5f5" stroke="transparent" points="182,-455.9322 182,-478.9322 372,-478.9322 372,-455.9322 182,-455.9322"/>
<polygon fill="none" stroke="#000000" points="182,-455.9322 182,-478.9322 372,-478.9322 372,-455.9322 182,-455.9322"/>
<text text-anchor="start" x="187" y="-465.0322" font-family="Helvetica,sans-Serif" font-weight="bold" font-size="11.00" fill="#000000">eworker</text>
<text text-anchor="start" x="337.0437" y="-464.0322" font-family="Helvetica,sans-Serif" font-size="11.00" fill="#000000">[table]</text>
<polygon fill="none" stroke="#000000" points="182,-433.9322 182,-455.9322 305,-455.9322 305,-433.9322 182,-433.9322"/>
<image xlink:href="../../images/primaryKeys.png" width="11px" height="12px" preserveAspectRatio="xMinYMin meet" x="187" y="-450.932"/>
<text text-anchor="start" x="202" y="-441.0322" font-family="Helvetica,sans-Serif" font-size="11.00" fill="#000000">id</text>
<polygon fill="none" stroke="#000000" points="305,-433.9322 305,-455.9322 372,-455.9322 372,-433.9322 305,-433.9322"/>
<text text-anchor="start" x="308" y="-441.6322" font-family="Helvetica,sans-Serif" font-size="11.00" fill="#000000">bigint[19]</text>
<polygon fill="#ffffff" stroke="transparent" points="182,-411.9322 182,-433.9322 305,-433.9322 305,-411.9322 182,-411.9322"/>
<polygon fill="none" stroke="#000000" points="182,-411.9322 182,-433.9322 305,-433.9322 305,-411.9322 182,-411.9322"/>
<image xlink:href="../../images/foreignKeys.png" width="11px" height="12px" preserveAspectRatio="xMinYMin meet" x="187" y="-428.932"/>
<text text-anchor="start" x="202" y="-419.0322" font-family="Helvetica,sans-Serif" font-size="11.00" fill="#000000">created_by</text>
<polygon fill="none" stroke="#000000" points="305,-411.9322 305,-433.9322 372,-433.9322 372,-411.9322 305,-411.9322"/>
<text text-anchor="start" x="308" y="-419.6322" font-family="Helvetica,sans-Serif" font-size="11.00" fill="#000000">bigint[19]</text>
<polygon fill="none" stroke="#000000" points="182,-389.9322 182,-411.9322 305,-411.9322 305,-389.9322 182,-389.9322"/>
<text text-anchor="start" x="202" y="-397.0322" font-family="Helvetica,sans-Serif" font-size="11.00" fill="#000000">creation_date</text>
<polygon fill="none" stroke="#000000" points="305,-389.9322 305,-411.9322 372,-411.9322 372,-389.9322 305,-389.9322"/>
<text text-anchor="start" x="308" y="-397.6322" font-family="Helvetica,sans-Serif" font-size="11.00" fill="#000000">datetime[26]</text>
<polygon fill="#ffffff" stroke="transparent" points="182,-367.9322 182,-389.9322 305,-389.9322 305,-367.9322 182,-367.9322"/>
<polygon fill="none" stroke="#000000" points="182,-367.9322 182,-389.9322 305,-389.9322 305,-367.9322 182,-367.9322"/>
<image xlink:href="../../images/foreignKeys.png" width="11px" height="12px" preserveAspectRatio="xMinYMin meet" x="187" y="-384.932"/>
<text text-anchor="start" x="202" y="-375.0322" font-family="Helvetica,sans-Serif" font-size="11.00" fill="#000000">modified_by</text>
<polygon fill="none" stroke="#000000" points="305,-367.9322 305,-389.9322 372,-389.9322 372,-367.9322 305,-367.9322"/>
<text text-anchor="start" x="308" y="-375.6322" font-family="Helvetica,sans-Serif" font-size="11.00" fill="#000000">bigint[19]</text>
<polygon fill="none" stroke="#000000" points="182,-345.9322 182,-367.9322 305,-367.9322 305,-345.9322 182,-345.9322"/>
<text text-anchor="start" x="202" y="-353.0322" font-family="Helvetica,sans-Serif" font-size="11.00" fill="#000000">modification_date</text>
<polygon fill="none" stroke="#000000" points="305,-345.9322 305,-367.9322 372,-367.9322 372,-345.9322 305,-345.9322"/>
<text text-anchor="start" x="308" y="-353.6322" font-family="Helvetica,sans-Serif" font-size="11.00" fill="#000000">datetime[26]</text>
<polygon fill="none" stroke="#000000" points="182,-323.9322 182,-345.9322 305,-345.9322 305,-323.9322 182,-323.9322"/>
<text text-anchor="start" x="202" y="-331.0322" font-family="Helvetica,sans-Serif" font-size="11.00" fill="#000000">system_id</text>
<polygon fill="none" stroke="#000000" points="305,-323.9322 305,-345.9322 372,-345.9322 372,-323.9322 305,-323.9322"/>
<text text-anchor="start" x="307.9365" y="-331.6322" font-family="Helvetica,sans-Serif" font-size="11.00" fill="#000000">varchar[255]</text>
<polygon fill="#ffffff" stroke="transparent" points="182,-301.9322 182,-323.9322 305,-323.9322 305,-301.9322 182,-301.9322"/>
<polygon fill="none" stroke="#000000" points="182,-301.9322 182,-323.9322 305,-323.9322 305,-301.9322 182,-301.9322"/>
<text text-anchor="start" x="202" y="-309.0322" font-family="Helvetica,sans-Serif" font-size="11.00" fill="#000000">email</text>
<polygon fill="none" stroke="#000000" points="305,-301.9322 305,-323.9322 372,-323.9322 372,-301.9322 305,-301.9322"/>
<text text-anchor="start" x="307.9365" y="-309.6322" font-family="Helvetica,sans-Serif" font-size="11.00" fill="#000000">varchar[100]</text>
<polygon fill="none" stroke="#000000" points="182,-279.9322 182,-301.9322 305,-301.9322 305,-279.9322 182,-279.9322"/>
<text text-anchor="start" x="202" y="-287.0322" font-family="Helvetica,sans-Serif" font-size="11.00" fill="#000000">password_hash</text>
<polygon fill="none" stroke="#000000" points="305,-279.9322 305,-301.9322 372,-301.9322 372,-279.9322 305,-279.9322"/>
<text text-anchor="start" x="307.9365" y="-287.6322" font-family="Helvetica,sans-Serif" font-size="11.00" fill="#000000">varchar[255]</text>
<polygon fill="none" stroke="#000000" points="182,-257.9322 182,-279.9322 305,-279.9322 305,-257.9322 182,-257.9322"/>
<text text-anchor="start" x="202" y="-265.0322" font-family="Helvetica,sans-Serif" font-size="11.00" fill="#000000">phone_number</text>
<polygon fill="none" stroke="#000000" points="305,-257.9322 305,-279.9322 372,-279.9322 372,-257.9322 305,-257.9322"/>
<text text-anchor="start" x="308" y="-265.6322" font-family="Helvetica,sans-Serif" font-size="11.00" fill="#000000">varchar[50]</text>
<polygon fill="none" stroke="#000000" points="182,-235.9322 182,-257.9322 305,-257.9322 305,-235.9322 182,-235.9322"/>
<text text-anchor="start" x="202" y="-243.0322" font-family="Helvetica,sans-Serif" font-size="11.00" fill="#000000">phone_code</text>
<polygon fill="none" stroke="#000000" points="305,-235.9322 305,-257.9322 372,-257.9322 372,-235.9322 305,-235.9322"/>
<text text-anchor="start" x="308" y="-243.6322" font-family="Helvetica,sans-Serif" font-size="11.00" fill="#000000">varchar[2]</text>
<polygon fill="none" stroke="#000000" points="182,-213.9322 182,-235.9322 305,-235.9322 305,-213.9322 182,-213.9322"/>
<text text-anchor="start" x="202" y="-221.0322" font-family="Helvetica,sans-Serif" font-size="11.00" fill="#000000">status</text>
<polygon fill="none" stroke="#000000" points="305,-213.9322 305,-235.9322 372,-235.9322 372,-213.9322 305,-213.9322"/>
<text text-anchor="start" x="307.9365" y="-221.6322" font-family="Helvetica,sans-Serif" font-size="11.00" fill="#000000">varchar[255]</text>
<polygon fill="none" stroke="#000000" points="182,-191.9322 182,-213.9322 305,-213.9322 305,-191.9322 182,-191.9322"/>
<text text-anchor="start" x="202" y="-199.0322" font-family="Helvetica,sans-Serif" font-size="11.00" fill="#000000">first_name</text>
<polygon fill="none" stroke="#000000" points="305,-191.9322 305,-213.9322 372,-213.9322 372,-191.9322 305,-191.9322"/>
<text text-anchor="start" x="307.9365" y="-199.6322" font-family="Helvetica,sans-Serif" font-size="11.00" fill="#000000">varchar[100]</text>
<polygon fill="none" stroke="#000000" points="182,-169.9322 182,-191.9322 305,-191.9322 305,-169.9322 182,-169.9322"/>
<text text-anchor="start" x="202" y="-177.0322" font-family="Helvetica,sans-Serif" font-size="11.00" fill="#000000">last_name</text>
<polygon fill="none" stroke="#000000" points="305,-169.9322 305,-191.9322 372,-191.9322 372,-169.9322 305,-169.9322"/>
<text text-anchor="start" x="307.9365" y="-177.6322" font-family="Helvetica,sans-Serif" font-size="11.00" fill="#000000">varchar[100]</text>
<polygon fill="none" stroke="#000000" points="182,-147.9322 182,-169.9322 305,-169.9322 305,-147.9322 182,-147.9322"/>
<text text-anchor="start" x="202" y="-155.0322" font-family="Helvetica,sans-Serif" font-size="11.00" fill="#000000">linked_in</text>
<polygon fill="none" stroke="#000000" points="305,-147.9322 305,-169.9322 372,-169.9322 372,-147.9322 305,-147.9322"/>
<text text-anchor="start" x="307.9365" y="-155.6322" font-family="Helvetica,sans-Serif" font-size="11.00" fill="#000000">varchar[255]</text>
<polygon fill="none" stroke="#000000" points="182,-125.9322 182,-147.9322 305,-147.9322 305,-125.9322 182,-125.9322"/>
<text text-anchor="start" x="202" y="-133.0322" font-family="Helvetica,sans-Serif" font-size="11.00" fill="#000000">pb_id</text>
<polygon fill="none" stroke="#000000" points="305,-125.9322 305,-147.9322 372,-147.9322 372,-125.9322 305,-125.9322"/>
<text text-anchor="start" x="308" y="-133.6322" font-family="Helvetica,sans-Serif" font-size="11.00" fill="#000000">bigint[19]</text>
<polygon fill="#ffffff" stroke="transparent" points="182,-103.9322 182,-125.9322 305,-125.9322 305,-103.9322 182,-103.9322"/>
<polygon fill="none" stroke="#000000" points="182,-103.9322 182,-125.9322 305,-125.9322 305,-103.9322 182,-103.9322"/>
<image xlink:href="../../images/foreignKeys.png" width="11px" height="12px" preserveAspectRatio="xMinYMin meet" x="187" y="-120.932"/>
<text text-anchor="start" x="202" y="-111.0322" font-family="Helvetica,sans-Serif" font-size="11.00" fill="#000000">avatar_id</text>
<polygon fill="none" stroke="#000000" points="305,-103.9322 305,-125.9322 372,-125.9322 372,-103.9322 305,-103.9322"/>
<text text-anchor="start" x="308" y="-111.6322" font-family="Helvetica,sans-Serif" font-size="11.00" fill="#000000">bigint[19]</text>
<polygon fill="#ffffff" stroke="transparent" points="182,-81.9322 182,-103.9322 305,-103.9322 305,-81.9322 182,-81.9322"/>
<polygon fill="none" stroke="#000000" points="182,-81.9322 182,-103.9322 305,-103.9322 305,-81.9322 182,-81.9322"/>
<image xlink:href="../../images/foreignKeys.png" width="11px" height="12px" preserveAspectRatio="xMinYMin meet" x="187" y="-98.9322"/>
<text text-anchor="start" x="202" y="-89.0322" font-family="Helvetica,sans-Serif" font-size="11.00" fill="#000000">unit_id</text>
<polygon fill="none" stroke="#000000" points="305,-81.9322 305,-103.9322 372,-103.9322 372,-81.9322 305,-81.9322"/>
<text text-anchor="start" x="308" y="-89.6322" font-family="Helvetica,sans-Serif" font-size="11.00" fill="#000000">bigint[19]</text>
<polygon fill="#ffffff" stroke="transparent" points="182,-62.9322 182,-81.9322 229,-81.9322 229,-62.9322 182,-62.9322"/>
<polygon fill="none" stroke="#000000" points="182,-62.9322 182,-81.9322 229,-81.9322 229,-62.9322 182,-62.9322"/>
<text text-anchor="start" x="185" y="-69.0322" font-family="Helvetica,sans-Serif" font-size="11.00" fill="#000000">&lt; 4</text>
<polygon fill="#ffffff" stroke="transparent" points="229,-62.9322 229,-81.9322 305,-81.9322 305,-62.9322 229,-62.9322"/>
<polygon fill="none" stroke="#000000" points="229,-62.9322 229,-81.9322 305,-81.9322 305,-62.9322 229,-62.9322"/>
<text text-anchor="start" x="257.3807" y="-69.0322" font-family="Helvetica,sans-Serif" font-size="11.00" fill="#000000">347 rows</text>
<polygon fill="#ffffff" stroke="transparent" points="305,-62.9322 305,-81.9322 372,-81.9322 372,-62.9322 305,-62.9322"/>
<polygon fill="none" stroke="#000000" points="305,-62.9322 305,-81.9322 372,-81.9322 372,-62.9322 305,-62.9322"/>
<text text-anchor="start" x="353.4053" y="-69.0322" font-family="Helvetica,sans-Serif" font-size="11.00" fill="#000000">9 &gt;</text>
<polygon fill="none" stroke="#000000" stroke-width="2" points="181,-61.9322 181,-479.9322 373,-479.9322 373,-61.9322 181,-61.9322"/>
</a>
</g>
</g>
<!-- client&#45;&gt;eworker -->
<g id="edge2" class="edge">
<title>client:w&#45;&gt;eworker:e</title>
<path fill="none" stroke="#000000" d="M735.8475,-276.6799C652.19,-274.1335 469.8737,-254.067 415,-297.9322 361.8294,-340.4359 440.0711,-444.9322 372,-444.9322"/>
<polygon fill="#000000" stroke="#000000" points="742.5012,-276.7944 750.438,-280.5316 746.5006,-276.8633 750.5,-276.9322 750.5,-276.9322 750.5,-276.9322 746.5006,-276.8633 750.562,-273.3327 742.5012,-276.7944 742.5012,-276.7944"/>
<ellipse fill="none" stroke="#000000" cx="739.3017" cy="-276.7393" rx="3.2" ry="3.2"/>
</g>
<!-- client&#45;&gt;eworker -->
<g id="edge3" class="edge">
<title>client:w&#45;&gt;eworker:e</title>
<path fill="none" stroke="#000000" d="M735.8479,-232.5944C652.1222,-229.1686 468.7035,-201.7602 415,-246.9322 346.0858,-304.8983 462.0513,-444.9322 372,-444.9322"/>
<polygon fill="#000000" stroke="#000000" points="742.5021,-232.7477 750.417,-236.5312 746.5011,-232.8399 750.5,-232.9322 750.5,-232.9322 750.5,-232.9322 746.5011,-232.8399 750.583,-229.3331 742.5021,-232.7477 742.5021,-232.7477"/>
<ellipse fill="none" stroke="#000000" cx="739.303" cy="-232.674" rx="3.2" ry="3.2"/>
</g>
<!-- client&#45;&gt;eworker -->
<g id="edge6" class="edge">
<title>client:w&#45;&gt;eworker:e</title>
<path fill="none" stroke="#000000" d="M736.0416,-254.7253C668.6809,-253.3598 441.3945,-246.3422 415,-267.9322 352.3379,-319.1878 452.9548,-444.9322 372,-444.9322"/>
<polygon fill="#000000" stroke="#000000" points="742.5008,-254.8177 750.4485,-258.5318 746.5004,-254.8749 750.5,-254.9322 750.5,-254.9322 750.5,-254.9322 746.5004,-254.8749 750.5515,-251.3325 742.5008,-254.8177 742.5008,-254.8177"/>
<ellipse fill="none" stroke="#000000" cx="739.3011" cy="-254.7719" rx="3.2" ry="3.2"/>
</g>
<!-- principal -->
<g id="node4" class="node">
<title>principal</title>
<g id="a_node4"><a xlink:href="../../tables/principal.html" xlink:title="principal" target="_top">
<polygon fill="#ffffff" stroke="transparent" points="430,-308.4322 430,-413.4322 522,-413.4322 522,-308.4322 430,-308.4322"/>
<polygon fill="#f5f5f5" stroke="transparent" points="430,-389.9322 430,-412.9322 522,-412.9322 522,-389.9322 430,-389.9322"/>
<polygon fill="none" stroke="#000000" points="430,-389.9322 430,-412.9322 522,-412.9322 522,-389.9322 430,-389.9322"/>
<text text-anchor="start" x="435" y="-399.0322" font-family="Helvetica,sans-Serif" font-weight="bold" font-size="11.00" fill="#000000">principal</text>
<text text-anchor="start" x="487.0437" y="-398.0322" font-family="Helvetica,sans-Serif" font-size="11.00" fill="#000000">[table]</text>
<polygon fill="none" stroke="#000000" points="430,-367.9322 430,-389.9322 522,-389.9322 522,-367.9322 430,-367.9322"/>
<image xlink:href="../../images/primaryKeys.png" width="11px" height="12px" preserveAspectRatio="xMinYMin meet" x="435" y="-384.932"/>
<text text-anchor="start" x="454" y="-375.0322" font-family="Helvetica,sans-Serif" font-size="11.00" fill="#000000">id</text>
<polygon fill="#ffffff" stroke="transparent" points="430,-345.9322 430,-367.9322 522,-367.9322 522,-345.9322 430,-345.9322"/>
<polygon fill="none" stroke="#000000" points="430,-345.9322 430,-367.9322 522,-367.9322 522,-345.9322 430,-345.9322"/>
<image xlink:href="../../images/foreignKeys.png" width="11px" height="12px" preserveAspectRatio="xMinYMin meet" x="435" y="-362.932"/>
<text text-anchor="start" x="454" y="-353.0322" font-family="Helvetica,sans-Serif" font-size="11.00" fill="#000000">eworker_id</text>
<polygon fill="none" stroke="#000000" points="430,-326.9322 430,-345.9322 522,-345.9322 522,-326.9322 430,-326.9322"/>
<text text-anchor="start" x="433" y="-333.0322" font-family="Helvetica,sans-Serif" font-size="11.00" fill="#000000">...</text>
<polygon fill="#ffffff" stroke="transparent" points="430,-307.9322 430,-326.9322 451,-326.9322 451,-307.9322 430,-307.9322"/>
<polygon fill="none" stroke="#000000" points="430,-307.9322 430,-326.9322 451,-326.9322 451,-307.9322 430,-307.9322"/>
<text text-anchor="start" x="432.7027" y="-314.0322" font-family="Helvetica,sans-Serif" font-size="11.00" fill="#000000">&lt; 1</text>
<polygon fill="#ffffff" stroke="transparent" points="451,-307.9322 451,-326.9322 495,-326.9322 495,-307.9322 451,-307.9322"/>
<polygon fill="none" stroke="#000000" points="451,-307.9322 451,-326.9322 495,-326.9322 495,-307.9322 451,-307.9322"/>
<text text-anchor="start" x="453.7478" y="-314.0322" font-family="Helvetica,sans-Serif" font-size="11.00" fill="#000000">18 rows</text>
<polygon fill="#ffffff" stroke="transparent" points="495,-307.9322 495,-326.9322 522,-326.9322 522,-307.9322 495,-307.9322"/>
<polygon fill="none" stroke="#000000" points="495,-307.9322 495,-326.9322 522,-326.9322 522,-307.9322 495,-307.9322"/>
<text text-anchor="start" x="497.6452" y="-314.0322" font-family="Helvetica,sans-Serif" font-size="11.00" fill="#000000">56 &gt;</text>
</a>
</g>
</g>
<!-- client&#45;&gt;principal -->
<g id="edge4" class="edge">
<title>client:w&#45;&gt;principal:e</title>
<path fill="none" stroke="#000000" d="M735.9351,-430.8729C666.3182,-430.2622 642.7012,-424.6663 570,-401.9322 547.4222,-394.8719 545.656,-378.9322 522,-378.9322"/>
<polygon fill="#000000" stroke="#000000" points="742.5001,-430.8995 750.4853,-434.5321 746.5,-430.9159 750.5,-430.9322 750.5,-430.9322 750.5,-430.9322 746.5,-430.9159 750.5147,-427.3322 742.5001,-430.8995 742.5001,-430.8995"/>
<ellipse fill="none" stroke="#000000" cx="739.3001" cy="-430.8865" rx="3.2" ry="3.2"/>
</g>
<!-- client&#45;&gt;principal -->
<g id="edge5" class="edge">
<title>client:w&#45;&gt;principal:e</title>
<path fill="none" stroke="#000000" d="M736.0439,-408.0068C727.6027,-406.8011 721.5505,-404.6447 709,-402.9322 625.9765,-391.6035 605.7928,-378.9322 522,-378.9322"/>
<polygon fill="#000000" stroke="#000000" points="742.5163,-408.4211 750.27,-412.5248 746.5082,-408.6766 750.5,-408.9322 750.5,-408.9322 750.5,-408.9322 746.5082,-408.6766 750.73,-405.3395 742.5163,-408.4211 742.5163,-408.4211"/>
<ellipse fill="none" stroke="#000000" cx="739.3229" cy="-408.2167" rx="3.2" ry="3.2"/>
</g>
<!-- file&#45;&gt;principal -->
<g id="edge12" class="edge">
<title>file:w&#45;&gt;principal:e</title>
<path fill="none" stroke="#000000" d="M563.9344,-150.7835C488.7622,-172.5504 621.7105,-378.9322 522,-378.9322"/>
<polygon fill="#000000" stroke="#000000" points="570.5639,-149.9409 578.954,-152.5034 574.5319,-149.4365 578.5,-148.9322 578.5,-148.9322 578.5,-148.9322 574.5319,-149.4365 578.046,-145.3609 570.5639,-149.9409 570.5639,-149.9409"/>
<ellipse fill="none" stroke="#000000" cx="567.3894" cy="-150.3444" rx="3.2" ry="3.2"/>
</g>
<!-- file&#45;&gt;principal -->
<g id="edge13" class="edge">
<title>file:w&#45;&gt;principal:e</title>
<path fill="none" stroke="#000000" d="M563.9369,-128.608C479.6229,-150.4723 631.2881,-378.9322 522,-378.9322"/>
<polygon fill="#000000" stroke="#000000" points="570.5524,-127.8468 578.9116,-130.5086 574.5262,-127.3895 578.5,-126.9322 578.5,-126.9322 578.5,-126.9322 574.5262,-127.3895 578.0884,-123.3558 570.5524,-127.8468 570.5524,-127.8468"/>
<ellipse fill="none" stroke="#000000" cx="567.3734" cy="-128.2126" rx="3.2" ry="3.2"/>
</g>
<!-- eworker&#45;&gt;file -->
<g id="edge7" class="edge">
<title>eworker:w&#45;&gt;file:e</title>
<path fill="none" stroke="#000000" d="M196.0636,-110.8537C241.5879,-97.6517 382,-56.9322 382,-56.9322 483.4027,-92.8885 468.5973,-173.4758 570,-209.4322 570,-209.4322 701.5,-170.9322 701.5,-170.9322"/>
<polygon fill="#000000" stroke="#000000" points="189.6834,-112.7039 180.9973,-111.4746 185.8417,-113.818 182,-114.9322 182,-114.9322 182,-114.9322 185.8417,-113.818 183.0027,-118.3897 189.6834,-112.7039 189.6834,-112.7039"/>
<ellipse fill="none" stroke="#000000" cx="192.7568" cy="-111.8126" rx="3.2" ry="3.2"/>
</g>
<!-- eworker&#45;&gt;principal -->
<g id="edge8" class="edge">
<title>eworker:w&#45;&gt;principal:e</title>
<path fill="none" stroke="#000000" d="M168.628,-428.9857C138.0144,-461.4261 172.6891,-608.6917 382,-484.9322 408.1972,-469.4425 389.3607,-441.3288 415,-424.9322 435.0809,-412.0902 505.7453,-434.8661 522,-417.4322 533.6687,-404.9169 539.1111,-378.9322 522,-378.9322"/>
<polygon fill="#000000" stroke="#000000" points="174.712,-426.2315 183.4847,-426.2118 178.356,-424.5818 182,-422.9322 182,-422.9322 182,-422.9322 178.356,-424.5818 180.5153,-419.6526 174.712,-426.2315 174.712,-426.2315"/>
<ellipse fill="none" stroke="#000000" cx="171.7968" cy="-427.5512" rx="3.2" ry="3.2"/>
</g>
<!-- eworker&#45;&gt;principal -->
<g id="edge9" class="edge">
<title>eworker:w&#45;&gt;principal:e</title>
<path fill="none" stroke="#000000" d="M171.242,-388.6331C161.6498,-412.229 168.727,-471.6592 182,-484.9322 244.8539,-547.7861 305.4853,-530.1731 382,-484.9322 408.1972,-469.4425 389.3607,-441.3288 415,-424.9322 435.0809,-412.0902 505.7453,-434.8661 522,-417.4322 533.6687,-404.9169 539.1111,-378.9322 522,-378.9322"/>
<polygon fill="#000000" stroke="#000000" points="176.0588,-384.2896 184.4109,-381.6057 179.0294,-381.6109 182,-378.9322 182,-378.9322 182,-378.9322 179.0294,-381.6109 179.5891,-376.2586 176.0588,-384.2896 176.0588,-384.2896"/>
<ellipse fill="none" stroke="#000000" cx="173.6823" cy="-386.4326" rx="3.2" ry="3.2"/>
</g>
<!-- ework_unit -->
<g id="node5" class="node">
<title>ework_unit</title>
<g id="a_node5"><a xlink:href="../../tables/ework_unit.html" xlink:title="ework_unit" target="_top">
<polygon fill="#ffffff" stroke="transparent" points="8,-336.4322 8,-441.4322 131,-441.4322 131,-336.4322 8,-336.4322"/>
<polygon fill="#f5f5f5" stroke="transparent" points="8.5,-417.9322 8.5,-440.9322 131.5,-440.9322 131.5,-417.9322 8.5,-417.9322"/>
<polygon fill="none" stroke="#000000" points="8.5,-417.9322 8.5,-440.9322 131.5,-440.9322 131.5,-417.9322 8.5,-417.9322"/>
<text text-anchor="start" x="13.5" y="-427.0322" font-family="Helvetica,sans-Serif" font-weight="bold" font-size="11.00" fill="#000000">ework_unit</text>
<text text-anchor="start" x="96.5437" y="-426.0322" font-family="Helvetica,sans-Serif" font-size="11.00" fill="#000000">[table]</text>
<polygon fill="none" stroke="#000000" points="8.5,-395.9322 8.5,-417.9322 131.5,-417.9322 131.5,-395.9322 8.5,-395.9322"/>
<image xlink:href="../../images/primaryKeys.png" width="11px" height="12px" preserveAspectRatio="xMinYMin meet" x="13.5" y="-412.932"/>
<text text-anchor="start" x="28.5" y="-403.0322" font-family="Helvetica,sans-Serif" font-size="11.00" fill="#000000">id</text>
<polygon fill="#ffffff" stroke="transparent" points="8.5,-373.9322 8.5,-395.9322 131.5,-395.9322 131.5,-373.9322 8.5,-373.9322"/>
<polygon fill="none" stroke="#000000" points="8.5,-373.9322 8.5,-395.9322 131.5,-395.9322 131.5,-373.9322 8.5,-373.9322"/>
<image xlink:href="../../images/foreignKeys.png" width="11px" height="12px" preserveAspectRatio="xMinYMin meet" x="13.5" y="-390.932"/>
<text text-anchor="start" x="28.5" y="-381.0322" font-family="Helvetica,sans-Serif" font-size="11.00" fill="#000000">site_id</text>
<polygon fill="none" stroke="#000000" points="8.5,-354.9322 8.5,-373.9322 131.5,-373.9322 131.5,-354.9322 8.5,-354.9322"/>
<text text-anchor="start" x="11.5" y="-361.0322" font-family="Helvetica,sans-Serif" font-size="11.00" fill="#000000">...</text>
<polygon fill="#ffffff" stroke="transparent" points="8.5,-335.9322 8.5,-354.9322 47.5,-354.9322 47.5,-335.9322 8.5,-335.9322"/>
<polygon fill="none" stroke="#000000" points="8.5,-335.9322 8.5,-354.9322 47.5,-354.9322 47.5,-335.9322 8.5,-335.9322"/>
<text text-anchor="start" x="11.5" y="-342.0322" font-family="Helvetica,sans-Serif" font-size="11.00" fill="#000000">&lt; 1</text>
<polygon fill="#ffffff" stroke="transparent" points="47.5,-335.9322 47.5,-354.9322 100.5,-354.9322 100.5,-335.9322 47.5,-335.9322"/>
<polygon fill="none" stroke="#000000" points="47.5,-335.9322 47.5,-354.9322 100.5,-354.9322 100.5,-335.9322 47.5,-335.9322"/>
<text text-anchor="start" x="58.9956" y="-342.0322" font-family="Helvetica,sans-Serif" font-size="11.00" fill="#000000">25 rows</text>
<polygon fill="#ffffff" stroke="transparent" points="100.5,-335.9322 100.5,-354.9322 131.5,-354.9322 131.5,-335.9322 100.5,-335.9322"/>
<polygon fill="none" stroke="#000000" points="100.5,-335.9322 100.5,-354.9322 131.5,-354.9322 131.5,-335.9322 100.5,-335.9322"/>
<text text-anchor="start" x="112.9053" y="-342.0322" font-family="Helvetica,sans-Serif" font-size="11.00" fill="#000000">4 &gt;</text>
</a>
</g>
</g>
<!-- eworker&#45;&gt;ework_unit -->
<g id="edge10" class="edge">
<title>eworker:w&#45;&gt;ework_unit:e</title>
<path fill="none" stroke="#000000" d="M167.434,-94.2639C57.7962,-116.3947 267.4655,-406.9322 131.5,-406.9322"/>
<polygon fill="#000000" stroke="#000000" points="174.0332,-93.6606 182.3278,-96.5172 178.0166,-93.2964 182,-92.9322 182,-92.9322 182,-92.9322 178.0166,-93.2964 181.6722,-89.3471 174.0332,-93.6606 174.0332,-93.6606"/>
<ellipse fill="none" stroke="#000000" cx="170.8465" cy="-93.952" rx="3.2" ry="3.2"/>
</g>
<!-- principal&#45;&gt;eworker -->
<g id="edge25" class="edge">
<title>principal:w&#45;&gt;eworker:e</title>
<path fill="none" stroke="#000000" d="M415.9803,-360.7134C390.7895,-377.5572 412.9867,-444.9322 372,-444.9322"/>
<polygon fill="#000000" stroke="#000000" points="422.276,-359.0154 430.9375,-360.408 426.138,-357.9738 430,-356.9322 430,-356.9322 430,-356.9322 426.138,-357.9738 429.0625,-353.4564 422.276,-359.0154 422.276,-359.0154"/>
<ellipse fill="none" stroke="#000000" cx="419.1864" cy="-359.8487" rx="3.2" ry="3.2"/>
</g>
<!-- eworker_role -->
<g id="node6" class="node">
<title>eworker_role</title>
<g id="a_node6"><a xlink:href="../../tables/eworker_role.html" xlink:title="eworker_role" target="_top">
<polygon fill="#ffffff" stroke="transparent" points="423,-434.9322 423,-520.9322 529,-520.9322 529,-434.9322 423,-434.9322"/>
<polygon fill="#f5f5f5" stroke="transparent" points="423,-497.9322 423,-520.9322 529,-520.9322 529,-497.9322 423,-497.9322"/>
<polygon fill="none" stroke="#000000" points="423,-497.9322 423,-520.9322 529,-520.9322 529,-497.9322 423,-497.9322"/>
<text text-anchor="start" x="427.7216" y="-507.0322" font-family="Helvetica,sans-Serif" font-weight="bold" font-size="11.00" fill="#000000">eworker_role</text>
<text text-anchor="start" x="494.5219" y="-506.0322" font-family="Helvetica,sans-Serif" font-size="11.00" fill="#000000">[table]</text>
<polygon fill="#ffffff" stroke="transparent" points="423,-475.9322 423,-497.9322 529,-497.9322 529,-475.9322 423,-475.9322"/>
<polygon fill="none" stroke="#000000" points="423,-475.9322 423,-497.9322 529,-497.9322 529,-475.9322 423,-475.9322"/>
<image xlink:href="../../images/foreignKeys.png" width="11px" height="12px" preserveAspectRatio="xMinYMin meet" x="428" y="-492.932"/>
<text text-anchor="start" x="449" y="-483.0322" font-family="Helvetica,sans-Serif" font-size="11.00" fill="#000000">eworker_id</text>
<polygon fill="#ffffff" stroke="transparent" points="423,-453.9322 423,-475.9322 529,-475.9322 529,-453.9322 423,-453.9322"/>
<polygon fill="none" stroke="#000000" points="423,-453.9322 423,-475.9322 529,-475.9322 529,-453.9322 423,-453.9322"/>
<text text-anchor="start" x="449" y="-461.0322" font-family="Helvetica,sans-Serif" font-size="11.00" fill="#000000">role</text>
<polygon fill="#ffffff" stroke="transparent" points="423,-434.9322 423,-453.9322 461,-453.9322 461,-434.9322 423,-434.9322"/>
<polygon fill="none" stroke="#000000" points="423,-434.9322 423,-453.9322 461,-453.9322 461,-434.9322 423,-434.9322"/>
<text text-anchor="start" x="426" y="-441.0322" font-family="Helvetica,sans-Serif" font-size="11.00" fill="#000000">&lt; 1</text>
<polygon fill="#ffffff" stroke="transparent" points="461,-434.9322 461,-453.9322 508,-453.9322 508,-434.9322 461,-434.9322"/>
<polygon fill="none" stroke="#000000" points="461,-434.9322 461,-453.9322 508,-453.9322 508,-434.9322 461,-434.9322"/>
<text text-anchor="start" x="472.6105" y="-441.0322" font-family="Helvetica,sans-Serif" font-size="11.00" fill="#000000">0 rows</text>
<polygon fill="#ffffff" stroke="transparent" points="508,-434.9322 508,-453.9322 529,-453.9322 529,-434.9322 508,-434.9322"/>
<polygon fill="none" stroke="#000000" points="508,-434.9322 508,-453.9322 529,-453.9322 529,-434.9322 508,-434.9322"/>
<text text-anchor="start" x="519.8862" y="-441.0322" font-family="Helvetica,sans-Serif" font-size="11.00" fill="#000000"> &#160;</text>
</a>
</g>
</g>
<!-- eworker_role&#45;&gt;eworker -->
<g id="edge11" class="edge">
<title>eworker_role:w&#45;&gt;eworker:e</title>
<path fill="none" stroke="#000000" d="M409.0759,-482.4374C395.2452,-471.6026 395.3991,-444.9322 372,-444.9322"/>
<polygon fill="#000000" stroke="#000000" points="415.3868,-484.4746 421.8941,-490.3581 419.1934,-485.7034 423,-486.9322 423,-486.9322 423,-486.9322 419.1934,-485.7034 424.1059,-483.5062 415.3868,-484.4746 415.3868,-484.4746"/>
<ellipse fill="none" stroke="#000000" cx="412.3416" cy="-483.4915" rx="3.2" ry="3.2"/>
</g>
<!-- job_request -->
<g id="node7" class="node">
<title>job_request</title>
<g id="a_node7"><a xlink:href="../../tables/job_request.html" xlink:title="job_request" target="_top">
<polygon fill="#ffffff" stroke="transparent" points="1000,-503.4322 1000,-828.4322 1166,-828.4322 1166,-503.4322 1000,-503.4322"/>
<polygon fill="#f5f5f5" stroke="transparent" points="1000,-804.9322 1000,-827.9322 1166,-827.9322 1166,-804.9322 1000,-804.9322"/>
<polygon fill="none" stroke="#000000" points="1000,-804.9322 1000,-827.9322 1166,-827.9322 1166,-804.9322 1000,-804.9322"/>
<text text-anchor="start" x="1005" y="-814.0322" font-family="Helvetica,sans-Serif" font-weight="bold" font-size="11.00" fill="#000000">job_request</text>
<text text-anchor="start" x="1131.0437" y="-813.0322" font-family="Helvetica,sans-Serif" font-size="11.00" fill="#000000">[table]</text>
<polygon fill="none" stroke="#000000" points="1000,-782.9322 1000,-804.9322 1166,-804.9322 1166,-782.9322 1000,-782.9322"/>
<image xlink:href="../../images/primaryKeys.png" width="11px" height="12px" preserveAspectRatio="xMinYMin meet" x="1005" y="-799.932"/>
<text text-anchor="start" x="1020" y="-790.0322" font-family="Helvetica,sans-Serif" font-size="11.00" fill="#000000">id</text>
<polygon fill="#ffffff" stroke="transparent" points="1000,-760.9322 1000,-782.9322 1166,-782.9322 1166,-760.9322 1000,-760.9322"/>
<polygon fill="none" stroke="#000000" points="1000,-760.9322 1000,-782.9322 1166,-782.9322 1166,-760.9322 1000,-760.9322"/>
<image xlink:href="../../images/foreignKeys.png" width="11px" height="12px" preserveAspectRatio="xMinYMin meet" x="1005" y="-777.932"/>
<text text-anchor="start" x="1020" y="-768.0322" font-family="Helvetica,sans-Serif" font-size="11.00" fill="#000000">created_by</text>
<polygon fill="#ffffff" stroke="transparent" points="1000,-738.9322 1000,-760.9322 1166,-760.9322 1166,-738.9322 1000,-738.9322"/>
<polygon fill="none" stroke="#000000" points="1000,-738.9322 1000,-760.9322 1166,-760.9322 1166,-738.9322 1000,-738.9322"/>
<image xlink:href="../../images/foreignKeys.png" width="11px" height="12px" preserveAspectRatio="xMinYMin meet" x="1005" y="-755.932"/>
<text text-anchor="start" x="1020" y="-746.0322" font-family="Helvetica,sans-Serif" font-size="11.00" fill="#000000">modified_by</text>
<polygon fill="#ffffff" stroke="transparent" points="1000,-716.9322 1000,-738.9322 1166,-738.9322 1166,-716.9322 1000,-716.9322"/>
<polygon fill="none" stroke="#000000" points="1000,-716.9322 1000,-738.9322 1166,-738.9322 1166,-716.9322 1000,-716.9322"/>
<image xlink:href="../../images/foreignKeys.png" width="11px" height="12px" preserveAspectRatio="xMinYMin meet" x="1005" y="-733.932"/>
<text text-anchor="start" x="1020" y="-724.0322" font-family="Helvetica,sans-Serif" font-size="11.00" fill="#000000">location_id</text>
<polygon fill="#ffffff" stroke="transparent" points="1000,-694.9322 1000,-716.9322 1166,-716.9322 1166,-694.9322 1000,-694.9322"/>
<polygon fill="none" stroke="#000000" points="1000,-694.9322 1000,-716.9322 1166,-716.9322 1166,-694.9322 1000,-694.9322"/>
<image xlink:href="../../images/foreignKeys.png" width="11px" height="12px" preserveAspectRatio="xMinYMin meet" x="1005" y="-711.932"/>
<text text-anchor="start" x="1020" y="-702.0322" font-family="Helvetica,sans-Serif" font-size="11.00" fill="#000000">rate_card_id</text>
<polygon fill="#ffffff" stroke="transparent" points="1000,-672.9322 1000,-694.9322 1166,-694.9322 1166,-672.9322 1000,-672.9322"/>
<polygon fill="none" stroke="#000000" points="1000,-672.9322 1000,-694.9322 1166,-694.9322 1166,-672.9322 1000,-672.9322"/>
<image xlink:href="../../images/foreignKeys.png" width="11px" height="12px" preserveAspectRatio="xMinYMin meet" x="1005" y="-689.932"/>
<text text-anchor="start" x="1020" y="-680.0322" font-family="Helvetica,sans-Serif" font-size="11.00" fill="#000000">source_job_request_id</text>
<polygon fill="#ffffff" stroke="transparent" points="1000,-650.9322 1000,-672.9322 1166,-672.9322 1166,-650.9322 1000,-650.9322"/>
<polygon fill="none" stroke="#000000" points="1000,-650.9322 1000,-672.9322 1166,-672.9322 1166,-650.9322 1000,-650.9322"/>
<image xlink:href="../../images/foreignKeys.png" width="11px" height="12px" preserveAspectRatio="xMinYMin meet" x="1005" y="-667.932"/>
<text text-anchor="start" x="1020" y="-658.0322" font-family="Helvetica,sans-Serif" font-size="11.00" fill="#000000">eworker_id</text>
<polygon fill="#ffffff" stroke="transparent" points="1000,-628.9322 1000,-650.9322 1166,-650.9322 1166,-628.9322 1000,-628.9322"/>
<polygon fill="none" stroke="#000000" points="1000,-628.9322 1000,-650.9322 1166,-650.9322 1166,-628.9322 1000,-628.9322"/>
<image xlink:href="../../images/foreignKeys.png" width="11px" height="12px" preserveAspectRatio="xMinYMin meet" x="1005" y="-645.932"/>
<text text-anchor="start" x="1020" y="-636.0322" font-family="Helvetica,sans-Serif" font-size="11.00" fill="#000000">unit_id</text>
<polygon fill="#ffffff" stroke="transparent" points="1000,-606.9322 1000,-628.9322 1166,-628.9322 1166,-606.9322 1000,-606.9322"/>
<polygon fill="none" stroke="#000000" points="1000,-606.9322 1000,-628.9322 1166,-628.9322 1166,-606.9322 1000,-606.9322"/>
<image xlink:href="../../images/foreignKeys.png" width="11px" height="12px" preserveAspectRatio="xMinYMin meet" x="1005" y="-623.932"/>
<text text-anchor="start" x="1020" y="-614.0322" font-family="Helvetica,sans-Serif" font-size="11.00" fill="#000000">closed_eworker_id</text>
<polygon fill="#ffffff" stroke="transparent" points="1000,-584.9322 1000,-606.9322 1166,-606.9322 1166,-584.9322 1000,-584.9322"/>
<polygon fill="none" stroke="#000000" points="1000,-584.9322 1000,-606.9322 1166,-606.9322 1166,-584.9322 1000,-584.9322"/>
<image xlink:href="../../images/foreignKeys.png" width="11px" height="12px" preserveAspectRatio="xMinYMin meet" x="1005" y="-601.932"/>
<text text-anchor="start" x="1020" y="-592.0322" font-family="Helvetica,sans-Serif" font-size="11.00" fill="#000000">client_contact_id</text>
<polygon fill="#ffffff" stroke="transparent" points="1000,-562.9322 1000,-584.9322 1166,-584.9322 1166,-562.9322 1000,-562.9322"/>
<polygon fill="none" stroke="#000000" points="1000,-562.9322 1000,-584.9322 1166,-584.9322 1166,-562.9322 1000,-562.9322"/>
<image xlink:href="../../images/foreignKeys.png" width="11px" height="12px" preserveAspectRatio="xMinYMin meet" x="1005" y="-579.932"/>
<text text-anchor="start" x="1020" y="-570.0322" font-family="Helvetica,sans-Serif" font-size="11.00" fill="#000000">client_id</text>
<polygon fill="#ffffff" stroke="transparent" points="1000,-540.9322 1000,-562.9322 1166,-562.9322 1166,-540.9322 1000,-540.9322"/>
<polygon fill="none" stroke="#000000" points="1000,-540.9322 1000,-562.9322 1166,-562.9322 1166,-540.9322 1000,-540.9322"/>
<image xlink:href="../../images/foreignKeys.png" width="11px" height="12px" preserveAspectRatio="xMinYMin meet" x="1005" y="-557.932"/>
<text text-anchor="start" x="1020" y="-548.0322" font-family="Helvetica,sans-Serif" font-size="11.00" fill="#000000">role_id</text>
<polygon fill="none" stroke="#000000" points="1000,-521.9322 1000,-540.9322 1166,-540.9322 1166,-521.9322 1000,-521.9322"/>
<text text-anchor="start" x="1003" y="-528.0322" font-family="Helvetica,sans-Serif" font-size="11.00" fill="#000000">...</text>
<polygon fill="#ffffff" stroke="transparent" points="1000,-502.9322 1000,-521.9322 1061,-521.9322 1061,-502.9322 1000,-502.9322"/>
<polygon fill="none" stroke="#000000" points="1000,-502.9322 1000,-521.9322 1061,-521.9322 1061,-502.9322 1000,-502.9322"/>
<text text-anchor="start" x="1003" y="-509.0322" font-family="Helvetica,sans-Serif" font-size="11.00" fill="#000000">&lt; 11</text>
<polygon fill="#ffffff" stroke="transparent" points="1061,-502.9322 1061,-521.9322 1128,-521.9322 1128,-502.9322 1061,-502.9322"/>
<polygon fill="none" stroke="#000000" points="1061,-502.9322 1061,-521.9322 1128,-521.9322 1128,-502.9322 1061,-502.9322"/>
<text text-anchor="start" x="1080.3807" y="-509.0322" font-family="Helvetica,sans-Serif" font-size="11.00" fill="#000000">254 rows</text>
<polygon fill="#ffffff" stroke="transparent" points="1128,-502.9322 1128,-521.9322 1166,-521.9322 1166,-502.9322 1128,-502.9322"/>
<polygon fill="none" stroke="#000000" points="1128,-502.9322 1128,-521.9322 1166,-521.9322 1166,-502.9322 1128,-502.9322"/>
<text text-anchor="start" x="1147.4053" y="-509.0322" font-family="Helvetica,sans-Serif" font-size="11.00" fill="#000000">7 &gt;</text>
</a>
</g>
</g>
<!-- job_request&#45;&gt;client -->
<g id="edge14" class="edge">
<title>job_request:w&#45;&gt;client:e</title>
<path fill="none" stroke="#000000" d="M985.9625,-570.4414C954.4558,-550.6021 1003.5527,-452.9322 951.5,-452.9322"/>
<polygon fill="#000000" stroke="#000000" points="992.2364,-572.0015 999.1312,-577.4258 996.1182,-572.9668 1000,-573.9322 1000,-573.9322 1000,-573.9322 996.1182,-572.9668 1000.8688,-570.4386 992.2364,-572.0015 992.2364,-572.0015"/>
<ellipse fill="none" stroke="#000000" cx="989.131" cy="-571.2292" rx="3.2" ry="3.2"/>
</g>
<!-- job_request&#45;&gt;eworker -->
<g id="edge15" class="edge">
<title>job_request:w&#45;&gt;eworker:e</title>
<path fill="none" stroke="#000000" d="M985.4056,-618.4561C844.7045,-627.8937 511.8836,-760.6966 415,-679.9322 333.4431,-611.9443 478.1785,-444.9322 372,-444.9322"/>
<polygon fill="#000000" stroke="#000000" points="992.0052,-618.2192 1000.1292,-621.5298 996.0026,-618.0757 1000,-617.9322 1000,-617.9322 1000,-617.9322 996.0026,-618.0757 999.8708,-614.3345 992.0052,-618.2192 992.0052,-618.2192"/>
<ellipse fill="none" stroke="#000000" cx="988.8072" cy="-618.3341" rx="3.2" ry="3.2"/>
</g>
<!-- job_request&#45;&gt;eworker -->
<g id="edge17" class="edge">
<title>job_request:w&#45;&gt;eworker:e</title>
<path fill="none" stroke="#000000" d="M986.0281,-666.4133C971.7253,-679.3004 984.4331,-716.4603 959,-730.9322 886.4007,-772.2423 431.5407,-717.2408 415,-701.9322 372.5029,-662.6004 429.905,-444.9322 372,-444.9322"/>
<polygon fill="#000000" stroke="#000000" points="992.3822,-664.3754 1001.0995,-665.3602 996.1911,-663.1538 1000,-661.9322 1000,-661.9322 1000,-661.9322 996.1911,-663.1538 998.9005,-658.5042 992.3822,-664.3754 992.3822,-664.3754"/>
<ellipse fill="none" stroke="#000000" cx="989.3351" cy="-665.3527" rx="3.2" ry="3.2"/>
</g>
<!-- job_request&#45;&gt;principal -->
<g id="edge16" class="edge">
<title>job_request:w&#45;&gt;principal:e</title>
<path fill="none" stroke="#000000" d="M985.541,-774.4675C977.3355,-777.6536 971.8403,-782.9452 959,-784.9322 873.5723,-798.1513 633.8544,-843.201 570,-784.9322 502.8909,-723.6933 612.8506,-378.9322 522,-378.9322"/>
<polygon fill="#000000" stroke="#000000" points="992.1202,-773.3139 1000.6218,-775.4781 996.0601,-772.623 1000,-771.9322 1000,-771.9322 1000,-771.9322 996.0601,-772.623 999.3782,-768.3863 992.1202,-773.3139 992.1202,-773.3139"/>
<ellipse fill="none" stroke="#000000" cx="988.9683" cy="-773.8666" rx="3.2" ry="3.2"/>
</g>
<!-- job_request&#45;&gt;principal -->
<g id="edge18" class="edge">
<title>job_request:w&#45;&gt;principal:e</title>
<path fill="none" stroke="#000000" d="M985.5648,-749.7218C760.2571,-743.0478 747.7005,-578.7639 570,-425.9322 547.3632,-406.4634 551.8573,-378.9322 522,-378.9322"/>
<polygon fill="#000000" stroke="#000000" points="992.0008,-749.8155 999.9475,-753.5318 996.0004,-749.8738 1000,-749.9322 1000,-749.9322 1000,-749.9322 996.0004,-749.8738 1000.0525,-746.3325 992.0008,-749.8155 992.0008,-749.8155"/>
<ellipse fill="none" stroke="#000000" cx="988.8012" cy="-749.7689" rx="3.2" ry="3.2"/>
</g>
<!-- job_request&#45;&gt;ework_unit -->
<g id="edge19" class="edge">
<title>job_request:w&#45;&gt;ework_unit:e</title>
<path fill="none" stroke="#000000" d="M985.6517,-642.3416C977.2268,-645.5605 971.8306,-651.2813 959,-654.9322 819.5379,-694.6153 784.4981,-720.9322 639.5,-720.9322 639.5,-720.9322 639.5,-720.9322 476,-720.9322 333.5058,-720.9322 204.1457,-534.0967 172,-491.9322 146.6288,-458.6536 173.3469,-406.9322 131.5,-406.9322"/>
<polygon fill="#000000" stroke="#000000" points="992.1105,-641.257 1000.5962,-643.4824 996.0552,-640.5946 1000,-639.9322 1000,-639.9322 1000,-639.9322 996.0552,-640.5946 999.4038,-636.3819 992.1105,-641.257 992.1105,-641.257"/>
<ellipse fill="none" stroke="#000000" cx="988.9546" cy="-641.787" rx="3.2" ry="3.2"/>
</g>
<!-- presentation -->
<g id="node8" class="node">
<title>presentation</title>
<g id="a_node8"><a xlink:href="../../tables/presentation.html" xlink:title="presentation" target="_top">
<polygon fill="#ffffff" stroke="transparent" points="1215,-701.4322 1215,-894.4322 1362,-894.4322 1362,-701.4322 1215,-701.4322"/>
<polygon fill="#f5f5f5" stroke="transparent" points="1215.5,-870.9322 1215.5,-893.9322 1362.5,-893.9322 1362.5,-870.9322 1215.5,-870.9322"/>
<polygon fill="none" stroke="#000000" points="1215.5,-870.9322 1215.5,-893.9322 1362.5,-893.9322 1362.5,-870.9322 1215.5,-870.9322"/>
<text text-anchor="start" x="1220.5" y="-880.0322" font-family="Helvetica,sans-Serif" font-weight="bold" font-size="11.00" fill="#000000">presentation</text>
<text text-anchor="start" x="1327.5437" y="-879.0322" font-family="Helvetica,sans-Serif" font-size="11.00" fill="#000000">[table]</text>
<polygon fill="none" stroke="#000000" points="1215.5,-848.9322 1215.5,-870.9322 1362.5,-870.9322 1362.5,-848.9322 1215.5,-848.9322"/>
<image xlink:href="../../images/primaryKeys.png" width="11px" height="12px" preserveAspectRatio="xMinYMin meet" x="1220.5" y="-865.932"/>
<text text-anchor="start" x="1235.5" y="-856.0322" font-family="Helvetica,sans-Serif" font-size="11.00" fill="#000000">id</text>
<polygon fill="#ffffff" stroke="transparent" points="1215.5,-826.9322 1215.5,-848.9322 1362.5,-848.9322 1362.5,-826.9322 1215.5,-826.9322"/>
<polygon fill="none" stroke="#000000" points="1215.5,-826.9322 1215.5,-848.9322 1362.5,-848.9322 1362.5,-826.9322 1215.5,-826.9322"/>
<image xlink:href="../../images/foreignKeys.png" width="11px" height="12px" preserveAspectRatio="xMinYMin meet" x="1220.5" y="-843.932"/>
<text text-anchor="start" x="1235.5" y="-834.0322" font-family="Helvetica,sans-Serif" font-size="11.00" fill="#000000">created_by</text>
<polygon fill="#ffffff" stroke="transparent" points="1215.5,-804.9322 1215.5,-826.9322 1362.5,-826.9322 1362.5,-804.9322 1215.5,-804.9322"/>
<polygon fill="none" stroke="#000000" points="1215.5,-804.9322 1215.5,-826.9322 1362.5,-826.9322 1362.5,-804.9322 1215.5,-804.9322"/>
<image xlink:href="../../images/foreignKeys.png" width="11px" height="12px" preserveAspectRatio="xMinYMin meet" x="1220.5" y="-821.932"/>
<text text-anchor="start" x="1235.5" y="-812.0322" font-family="Helvetica,sans-Serif" font-size="11.00" fill="#000000">modified_by</text>
<polygon fill="#ffffff" stroke="transparent" points="1215.5,-782.9322 1215.5,-804.9322 1362.5,-804.9322 1362.5,-782.9322 1215.5,-782.9322"/>
<polygon fill="none" stroke="#000000" points="1215.5,-782.9322 1215.5,-804.9322 1362.5,-804.9322 1362.5,-782.9322 1215.5,-782.9322"/>
<image xlink:href="../../images/foreignKeys.png" width="11px" height="12px" preserveAspectRatio="xMinYMin meet" x="1220.5" y="-799.932"/>
<text text-anchor="start" x="1235.5" y="-790.0322" font-family="Helvetica,sans-Serif" font-size="11.00" fill="#000000">job_request_id</text>
<polygon fill="#ffffff" stroke="transparent" points="1215.5,-760.9322 1215.5,-782.9322 1362.5,-782.9322 1362.5,-760.9322 1215.5,-760.9322"/>
<polygon fill="none" stroke="#000000" points="1215.5,-760.9322 1215.5,-782.9322 1362.5,-782.9322 1362.5,-760.9322 1215.5,-760.9322"/>
<image xlink:href="../../images/foreignKeys.png" width="11px" height="12px" preserveAspectRatio="xMinYMin meet" x="1220.5" y="-777.932"/>
<text text-anchor="start" x="1235.5" y="-768.0322" font-family="Helvetica,sans-Serif" font-size="11.00" fill="#000000">presenter_id</text>
<polygon fill="#ffffff" stroke="transparent" points="1215.5,-738.9322 1215.5,-760.9322 1362.5,-760.9322 1362.5,-738.9322 1215.5,-738.9322"/>
<polygon fill="none" stroke="#000000" points="1215.5,-738.9322 1215.5,-760.9322 1362.5,-760.9322 1362.5,-738.9322 1215.5,-738.9322"/>
<image xlink:href="../../images/foreignKeys.png" width="11px" height="12px" preserveAspectRatio="xMinYMin meet" x="1220.5" y="-755.932"/>
<text text-anchor="start" x="1235.5" y="-746.0322" font-family="Helvetica,sans-Serif" font-size="11.00" fill="#000000">recipient_company_id</text>
<polygon fill="none" stroke="#000000" points="1215.5,-719.9322 1215.5,-738.9322 1362.5,-738.9322 1362.5,-719.9322 1215.5,-719.9322"/>
<text text-anchor="start" x="1218.5" y="-726.0322" font-family="Helvetica,sans-Serif" font-size="11.00" fill="#000000">...</text>
<polygon fill="#ffffff" stroke="transparent" points="1215.5,-700.9322 1215.5,-719.9322 1266.5,-719.9322 1266.5,-700.9322 1215.5,-700.9322"/>
<polygon fill="none" stroke="#000000" points="1215.5,-700.9322 1215.5,-719.9322 1266.5,-719.9322 1266.5,-700.9322 1215.5,-700.9322"/>
<text text-anchor="start" x="1218.5" y="-707.0322" font-family="Helvetica,sans-Serif" font-size="11.00" fill="#000000">&lt; 5</text>
<polygon fill="#ffffff" stroke="transparent" points="1266.5,-700.9322 1266.5,-719.9322 1325.5,-719.9322 1325.5,-700.9322 1266.5,-700.9322"/>
<polygon fill="none" stroke="#000000" points="1266.5,-700.9322 1266.5,-719.9322 1325.5,-719.9322 1325.5,-700.9322 1266.5,-700.9322"/>
<text text-anchor="start" x="1283.9956" y="-707.0322" font-family="Helvetica,sans-Serif" font-size="11.00" fill="#000000">16 rows</text>
<polygon fill="#ffffff" stroke="transparent" points="1325.5,-700.9322 1325.5,-719.9322 1362.5,-719.9322 1362.5,-700.9322 1325.5,-700.9322"/>
<polygon fill="none" stroke="#000000" points="1325.5,-700.9322 1325.5,-719.9322 1362.5,-719.9322 1362.5,-700.9322 1325.5,-700.9322"/>
<text text-anchor="start" x="1343.9053" y="-707.0322" font-family="Helvetica,sans-Serif" font-size="11.00" fill="#000000">2 &gt;</text>
</a>
</g>
</g>
<!-- presentation&#45;&gt;client -->
<g id="edge24" class="edge">
<title>presentation:w&#45;&gt;client:e</title>
<path fill="none" stroke="#000000" d="M1202.0801,-744.5654C1167.4601,-711.0159 1210.7408,-530.332 1174,-492.9322 1103.5884,-421.2574 1051.9742,-452.9322 951.5,-452.9322"/>
<polygon fill="#000000" stroke="#000000" points="1208.0719,-746.9616 1214.1632,-753.2748 1211.786,-748.4469 1215.5,-749.9322 1215.5,-749.9322 1215.5,-749.9322 1211.786,-748.4469 1216.8368,-746.5895 1208.0719,-746.9616 1208.0719,-746.9616"/>
<ellipse fill="none" stroke="#000000" cx="1205.1007" cy="-745.7734" rx="3.2" ry="3.2"/>
</g>
<!-- presentation&#45;&gt;eworker -->
<g id="edge23" class="edge">
<title>presentation:w&#45;&gt;eworker:e</title>
<path fill="none" stroke="#000000" d="M1201.5407,-767.3064C1159.479,-735.3606 1192.4839,-547.1641 1174,-492.9322 1095.8117,-263.5264 1092.8642,-53.9322 850.5,-53.9322 850.5,-53.9322 850.5,-53.9322 639.5,-53.9322 539.4691,-53.9322 487.2374,-.7373 415,-69.9322 354.4264,-127.9545 455.8794,-444.9322 372,-444.9322"/>
<polygon fill="#000000" stroke="#000000" points="1207.9061,-769.4157 1214.3676,-775.3494 1211.703,-770.6739 1215.5,-771.9322 1215.5,-771.9322 1215.5,-771.9322 1211.703,-770.6739 1216.6324,-768.5149 1207.9061,-769.4157 1207.9061,-769.4157"/>
<ellipse fill="none" stroke="#000000" cx="1204.8685" cy="-768.4091" rx="3.2" ry="3.2"/>
</g>
<!-- presentation&#45;&gt;principal -->
<g id="edge20" class="edge">
<title>presentation:w&#45;&gt;principal:e</title>
<path fill="none" stroke="#000000" d="M1201.3612,-841.9637C1192.6191,-847.9264 1188.7493,-858.8328 1174,-862.9322 915.3596,-934.8179 766.8203,-1045.4813 570,-862.9322 490.7547,-789.4328 630.0832,-378.9322 522,-378.9322"/>
<polygon fill="#000000" stroke="#000000" points="1207.8066,-840.1259 1216.4872,-841.3942 1211.6533,-839.029 1215.5,-837.9322 1215.5,-837.9322 1215.5,-837.9322 1211.6533,-839.029 1214.5128,-834.4701 1207.8066,-840.1259 1207.8066,-840.1259"/>
<ellipse fill="none" stroke="#000000" cx="1204.7293" cy="-841.0034" rx="3.2" ry="3.2"/>
</g>
<!-- presentation&#45;&gt;principal -->
<g id="edge22" class="edge">
<title>presentation:w&#45;&gt;principal:e</title>
<path fill="none" stroke="#000000" d="M1201.4974,-819.6457C1192.7083,-825.1374 1188.5146,-835.179 1174,-838.9322 1036.2513,-874.5512 607.6127,-845.9939 570,-808.9322 501.5126,-741.448 618.1491,-378.9322 522,-378.9322"/>
<polygon fill="#000000" stroke="#000000" points="1207.7673,-817.983 1216.4229,-819.4119 1211.6337,-816.9576 1215.5,-815.9322 1215.5,-815.9322 1215.5,-815.9322 1211.6337,-816.9576 1214.5771,-812.4524 1207.7673,-817.983 1207.7673,-817.983"/>
<ellipse fill="none" stroke="#000000" cx="1204.6742" cy="-818.8033" rx="3.2" ry="3.2"/>
</g>
<!-- presentation&#45;&gt;job_request -->
<g id="edge21" class="edge">
<title>presentation:w&#45;&gt;job_request:e</title>
<path fill="none" stroke="#000000" d="M1205.0474,-793.9322C1190.9907,-793.9322 1184.0469,-793.9322 1166,-793.9322"/>
<polygon fill="#000000" stroke="#000000" points="1214.7,-789.9322 1214.7,-797.9322 1213.1,-797.9322 1213.1,-789.9322 1214.7,-789.9322"/>
<polyline fill="none" stroke="#000000" points="1215.5,-793.9322 1211.5,-793.9322 "/>
<ellipse fill="none" stroke="#000000" cx="1208.3" cy="-793.9322" rx="3.2" ry="3.2"/>
</g>
<!-- token -->
<g id="node9" class="node">
<title>token</title>
<g id="a_node9"><a xlink:href="../../tables/token.html" xlink:title="token" target="_top">
<polygon fill="#ffffff" stroke="transparent" points="434,-542.4322 434,-669.4322 518,-669.4322 518,-542.4322 434,-542.4322"/>
<polygon fill="#f5f5f5" stroke="transparent" points="434,-645.9322 434,-668.9322 518,-668.9322 518,-645.9322 434,-645.9322"/>
<polygon fill="none" stroke="#000000" points="434,-645.9322 434,-668.9322 518,-668.9322 518,-645.9322 434,-645.9322"/>
<text text-anchor="start" x="439" y="-655.0322" font-family="Helvetica,sans-Serif" font-weight="bold" font-size="11.00" fill="#000000">token</text>
<text text-anchor="start" x="483.0437" y="-654.0322" font-family="Helvetica,sans-Serif" font-size="11.00" fill="#000000">[table]</text>
<polygon fill="none" stroke="#000000" points="434,-623.9322 434,-645.9322 518,-645.9322 518,-623.9322 434,-623.9322"/>
<image xlink:href="../../images/primaryKeys.png" width="11px" height="12px" preserveAspectRatio="xMinYMin meet" x="439" y="-640.932"/>
<text text-anchor="start" x="454" y="-631.0322" font-family="Helvetica,sans-Serif" font-size="11.00" fill="#000000">id</text>
<polygon fill="#ffffff" stroke="transparent" points="434,-601.9322 434,-623.9322 518,-623.9322 518,-601.9322 434,-601.9322"/>
<polygon fill="none" stroke="#000000" points="434,-601.9322 434,-623.9322 518,-623.9322 518,-601.9322 434,-601.9322"/>
<text text-anchor="start" x="454" y="-609.0322" font-family="Helvetica,sans-Serif" font-size="11.00" fill="#000000">token</text>
<polygon fill="#ffffff" stroke="transparent" points="434,-579.9322 434,-601.9322 518,-601.9322 518,-579.9322 434,-579.9322"/>
<polygon fill="none" stroke="#000000" points="434,-579.9322 434,-601.9322 518,-601.9322 518,-579.9322 434,-579.9322"/>
<image xlink:href="../../images/foreignKeys.png" width="11px" height="12px" preserveAspectRatio="xMinYMin meet" x="439" y="-596.932"/>
<text text-anchor="start" x="454" y="-587.0322" font-family="Helvetica,sans-Serif" font-size="11.00" fill="#000000">eworker_id</text>
<polygon fill="none" stroke="#000000" points="434,-560.9322 434,-579.9322 518,-579.9322 518,-560.9322 434,-560.9322"/>
<text text-anchor="start" x="437" y="-567.0322" font-family="Helvetica,sans-Serif" font-size="11.00" fill="#000000">...</text>
<polygon fill="#ffffff" stroke="transparent" points="434,-541.9322 434,-560.9322 461,-560.9322 461,-541.9322 434,-541.9322"/>
<polygon fill="none" stroke="#000000" points="434,-541.9322 434,-560.9322 461,-560.9322 461,-541.9322 434,-541.9322"/>
<text text-anchor="start" x="437" y="-548.0322" font-family="Helvetica,sans-Serif" font-size="11.00" fill="#000000">&lt; 1</text>
<polygon fill="#ffffff" stroke="transparent" points="461,-541.9322 461,-560.9322 502,-560.9322 502,-541.9322 461,-541.9322"/>
<polygon fill="none" stroke="#000000" points="461,-541.9322 461,-560.9322 502,-560.9322 502,-541.9322 461,-541.9322"/>
<text text-anchor="start" x="466.6105" y="-548.0322" font-family="Helvetica,sans-Serif" font-size="11.00" fill="#000000">0 rows</text>
<polygon fill="#ffffff" stroke="transparent" points="502,-541.9322 502,-560.9322 518,-560.9322 518,-541.9322 502,-541.9322"/>
<polygon fill="none" stroke="#000000" points="502,-541.9322 502,-560.9322 518,-560.9322 518,-541.9322 502,-541.9322"/>
<text text-anchor="start" x="508.8862" y="-548.0322" font-family="Helvetica,sans-Serif" font-size="11.00" fill="#000000"> &#160;</text>
</a>
</g>
</g>
<!-- token&#45;&gt;eworker -->
<g id="edge26" class="edge">
<title>token:w&#45;&gt;eworker:e</title>
<path fill="none" stroke="#000000" d="M419.7864,-588.2734C375.1955,-568.4856 436.8521,-444.9322 372,-444.9322"/>
<polygon fill="#000000" stroke="#000000" points="426.1364,-589.4612 433.3381,-594.4708 430.0682,-590.1967 434,-590.9322 434,-590.9322 434,-590.9322 430.0682,-590.1967 434.6619,-587.3935 426.1364,-589.4612 426.1364,-589.4612"/>
<ellipse fill="none" stroke="#000000" cx="422.9909" cy="-588.8728" rx="3.2" ry="3.2"/>
</g>
</g>
</svg>
