<?xml version="1.0" encoding="UTF-8" standalone="no"?>
<!DOCTYPE svg PUBLIC "-//W3C//DTD SVG 1.1//EN"
 "http://www.w3.org/Graphics/SVG/1.1/DTD/svg11.dtd">
<!-- Generated by graphviz version 2.40.1 (20161225.0304)
 -->
<!-- Title: oneDegreeRelationshipsDiagram Pages: 1 -->
<svg width="814pt" height="656pt"
 viewBox="0.00 0.00 814.00 655.70" xmlns="http://www.w3.org/2000/svg" xmlns:xlink="http://www.w3.org/1999/xlink">
<g id="graph0" class="graph" transform="scale(1 1) rotate(0) translate(4 651.7)">
<title>oneDegreeRelationshipsDiagram</title>
<polygon fill="#ffffff" stroke="transparent" points="-4,4 -4,-651.7 810,-651.7 810,4 -4,4"/>
<text text-anchor="middle" x="72.4936" y="-7.3" font-family="Helvetica,sans-Serif" font-size="11.00" fill="#000000">Generated by SchemaSpy</text>
<!-- client_ework_unit -->
<g id="node1" class="node">
<title>client_ework_unit</title>
<g id="a_node1"><a xlink:href="../../tables/client_ework_unit.html" xlink:title="client_ework_unit" target="_top">
<polygon fill="#ffffff" stroke="transparent" points="456,-557.7 456,-643.7 583,-643.7 583,-557.7 456,-557.7"/>
<polygon fill="#f5f5f5" stroke="transparent" points="456.5,-620.7 456.5,-643.7 583.5,-643.7 583.5,-620.7 456.5,-620.7"/>
<polygon fill="none" stroke="#000000" points="456.5,-620.7 456.5,-643.7 583.5,-643.7 583.5,-620.7 456.5,-620.7"/>
<text text-anchor="start" x="461.0208" y="-629.8" font-family="Helvetica,sans-Serif" font-weight="bold" font-size="11.00" fill="#000000">client_ework_unit</text>
<text text-anchor="start" x="549.0219" y="-628.8" font-family="Helvetica,sans-Serif" font-size="11.00" fill="#000000">[table]</text>
<polygon fill="#ffffff" stroke="transparent" points="456.5,-598.7 456.5,-620.7 583.5,-620.7 583.5,-598.7 456.5,-598.7"/>
<polygon fill="none" stroke="#000000" points="456.5,-598.7 456.5,-620.7 583.5,-620.7 583.5,-598.7 456.5,-598.7"/>
<image xlink:href="../../images/foreignKeys.png" width="11px" height="12px" preserveAspectRatio="xMinYMin meet" x="461.5" y="-615.7"/>
<text text-anchor="start" x="479.5" y="-605.8" font-family="Helvetica,sans-Serif" font-size="11.00" fill="#000000">client_id</text>
<polygon fill="#ffffff" stroke="transparent" points="456.5,-576.7 456.5,-598.7 583.5,-598.7 583.5,-576.7 456.5,-576.7"/>
<polygon fill="none" stroke="#000000" points="456.5,-576.7 456.5,-598.7 583.5,-598.7 583.5,-576.7 456.5,-576.7"/>
<image xlink:href="../../images/foreignKeys.png" width="11px" height="12px" preserveAspectRatio="xMinYMin meet" x="461.5" y="-593.7"/>
<text text-anchor="start" x="479.5" y="-583.8" font-family="Helvetica,sans-Serif" font-size="11.00" fill="#000000">unit_id</text>
<polygon fill="#ffffff" stroke="transparent" points="456.5,-557.7 456.5,-576.7 502.5,-576.7 502.5,-557.7 456.5,-557.7"/>
<polygon fill="none" stroke="#000000" points="456.5,-557.7 456.5,-576.7 502.5,-576.7 502.5,-557.7 456.5,-557.7"/>
<text text-anchor="start" x="459.5" y="-563.8" font-family="Helvetica,sans-Serif" font-size="11.00" fill="#000000">&lt; 2</text>
<polygon fill="#ffffff" stroke="transparent" points="502.5,-557.7 502.5,-576.7 558.5,-576.7 558.5,-557.7 502.5,-557.7"/>
<polygon fill="none" stroke="#000000" points="502.5,-557.7 502.5,-576.7 558.5,-576.7 558.5,-557.7 502.5,-557.7"/>
<text text-anchor="start" x="516.9956" y="-563.8" font-family="Helvetica,sans-Serif" font-size="11.00" fill="#000000">16 rows</text>
<polygon fill="#ffffff" stroke="transparent" points="558.5,-557.7 558.5,-576.7 583.5,-576.7 583.5,-557.7 558.5,-557.7"/>
<polygon fill="none" stroke="#000000" points="558.5,-557.7 558.5,-576.7 583.5,-576.7 583.5,-557.7 558.5,-557.7"/>
<text text-anchor="start" x="574.3862" y="-563.8" font-family="Helvetica,sans-Serif" font-size="11.00" fill="#000000"> &#160;</text>
</a>
</g>
</g>
<!-- ework_unit -->
<g id="node2" class="node">
<title>ework_unit</title>
<g id="a_node2"><a xlink:href="../../tables/ework_unit.html" xlink:title="ework_unit" target="_top">
<polygon fill="#ffffff" stroke="transparent" points="213,-142.7 213,-386.7 407,-386.7 407,-142.7 213,-142.7"/>
<polygon fill="#f5f5f5" stroke="transparent" points="215,-361.7 215,-384.7 405,-384.7 405,-361.7 215,-361.7"/>
<polygon fill="none" stroke="#000000" points="215,-361.7 215,-384.7 405,-384.7 405,-361.7 215,-361.7"/>
<text text-anchor="start" x="220" y="-370.8" font-family="Helvetica,sans-Serif" font-weight="bold" font-size="11.00" fill="#000000">ework_unit</text>
<text text-anchor="start" x="370.0437" y="-369.8" font-family="Helvetica,sans-Serif" font-size="11.00" fill="#000000">[table]</text>
<polygon fill="none" stroke="#000000" points="215,-339.7 215,-361.7 338,-361.7 338,-339.7 215,-339.7"/>
<image xlink:href="../../images/primaryKeys.png" width="11px" height="12px" preserveAspectRatio="xMinYMin meet" x="220" y="-356.7"/>
<text text-anchor="start" x="235" y="-346.8" font-family="Helvetica,sans-Serif" font-size="11.00" fill="#000000">id</text>
<polygon fill="none" stroke="#000000" points="338,-339.7 338,-361.7 405,-361.7 405,-339.7 338,-339.7"/>
<text text-anchor="start" x="341" y="-347.4" font-family="Helvetica,sans-Serif" font-size="11.00" fill="#000000">bigint[19]</text>
<polygon fill="none" stroke="#000000" points="215,-317.7 215,-339.7 338,-339.7 338,-317.7 215,-317.7"/>
<text text-anchor="start" x="235" y="-324.8" font-family="Helvetica,sans-Serif" font-size="11.00" fill="#000000">system_id</text>
<polygon fill="none" stroke="#000000" points="338,-317.7 338,-339.7 405,-339.7 405,-317.7 338,-317.7"/>
<text text-anchor="start" x="340.9365" y="-325.4" font-family="Helvetica,sans-Serif" font-size="11.00" fill="#000000">varchar[255]</text>
<polygon fill="none" stroke="#000000" points="215,-295.7 215,-317.7 338,-317.7 338,-295.7 215,-295.7"/>
<text text-anchor="start" x="235" y="-302.8" font-family="Helvetica,sans-Serif" font-size="11.00" fill="#000000">created_by</text>
<polygon fill="none" stroke="#000000" points="338,-295.7 338,-317.7 405,-317.7 405,-295.7 338,-295.7"/>
<text text-anchor="start" x="341" y="-303.4" font-family="Helvetica,sans-Serif" font-size="11.00" fill="#000000">bigint[19]</text>
<polygon fill="none" stroke="#000000" points="215,-273.7 215,-295.7 338,-295.7 338,-273.7 215,-273.7"/>
<text text-anchor="start" x="235" y="-280.8" font-family="Helvetica,sans-Serif" font-size="11.00" fill="#000000">creation_date</text>
<polygon fill="none" stroke="#000000" points="338,-273.7 338,-295.7 405,-295.7 405,-273.7 338,-273.7"/>
<text text-anchor="start" x="341" y="-281.4" font-family="Helvetica,sans-Serif" font-size="11.00" fill="#000000">datetime[26]</text>
<polygon fill="none" stroke="#000000" points="215,-251.7 215,-273.7 338,-273.7 338,-251.7 215,-251.7"/>
<text text-anchor="start" x="235" y="-258.8" font-family="Helvetica,sans-Serif" font-size="11.00" fill="#000000">modified_by</text>
<polygon fill="none" stroke="#000000" points="338,-251.7 338,-273.7 405,-273.7 405,-251.7 338,-251.7"/>
<text text-anchor="start" x="341" y="-259.4" font-family="Helvetica,sans-Serif" font-size="11.00" fill="#000000">bigint[19]</text>
<polygon fill="none" stroke="#000000" points="215,-229.7 215,-251.7 338,-251.7 338,-229.7 215,-229.7"/>
<text text-anchor="start" x="235" y="-236.8" font-family="Helvetica,sans-Serif" font-size="11.00" fill="#000000">modification_date</text>
<polygon fill="none" stroke="#000000" points="338,-229.7 338,-251.7 405,-251.7 405,-229.7 338,-229.7"/>
<text text-anchor="start" x="341" y="-237.4" font-family="Helvetica,sans-Serif" font-size="11.00" fill="#000000">datetime[26]</text>
<polygon fill="none" stroke="#000000" points="215,-207.7 215,-229.7 338,-229.7 338,-207.7 215,-207.7"/>
<text text-anchor="start" x="235" y="-214.8" font-family="Helvetica,sans-Serif" font-size="11.00" fill="#000000">name</text>
<polygon fill="none" stroke="#000000" points="338,-207.7 338,-229.7 405,-229.7 405,-207.7 338,-207.7"/>
<text text-anchor="start" x="340.9365" y="-215.4" font-family="Helvetica,sans-Serif" font-size="11.00" fill="#000000">varchar[100]</text>
<polygon fill="none" stroke="#000000" points="215,-185.7 215,-207.7 338,-207.7 338,-185.7 215,-185.7"/>
<text text-anchor="start" x="235" y="-192.8" font-family="Helvetica,sans-Serif" font-size="11.00" fill="#000000">cost_center</text>
<polygon fill="none" stroke="#000000" points="338,-185.7 338,-207.7 405,-207.7 405,-185.7 338,-185.7"/>
<text text-anchor="start" x="340.9365" y="-193.4" font-family="Helvetica,sans-Serif" font-size="11.00" fill="#000000">varchar[255]</text>
<polygon fill="#ffffff" stroke="transparent" points="215,-163.7 215,-185.7 338,-185.7 338,-163.7 215,-163.7"/>
<polygon fill="none" stroke="#000000" points="215,-163.7 215,-185.7 338,-185.7 338,-163.7 215,-163.7"/>
<image xlink:href="../../images/foreignKeys.png" width="11px" height="12px" preserveAspectRatio="xMinYMin meet" x="220" y="-180.7"/>
<text text-anchor="start" x="235" y="-170.8" font-family="Helvetica,sans-Serif" font-size="11.00" fill="#000000">site_id</text>
<polygon fill="none" stroke="#000000" points="338,-163.7 338,-185.7 405,-185.7 405,-163.7 338,-163.7"/>
<text text-anchor="start" x="341" y="-171.4" font-family="Helvetica,sans-Serif" font-size="11.00" fill="#000000">bigint[19]</text>
<polygon fill="#ffffff" stroke="transparent" points="215,-144.7 215,-163.7 265,-163.7 265,-144.7 215,-144.7"/>
<polygon fill="none" stroke="#000000" points="215,-144.7 215,-163.7 265,-163.7 265,-144.7 215,-144.7"/>
<text text-anchor="start" x="218" y="-150.8" font-family="Helvetica,sans-Serif" font-size="11.00" fill="#000000">&lt; 1</text>
<polygon fill="#ffffff" stroke="transparent" points="265,-144.7 265,-163.7 338,-163.7 338,-144.7 265,-144.7"/>
<polygon fill="none" stroke="#000000" points="265,-144.7 265,-163.7 338,-163.7 338,-144.7 265,-144.7"/>
<text text-anchor="start" x="296.4956" y="-150.8" font-family="Helvetica,sans-Serif" font-size="11.00" fill="#000000">25 rows</text>
<polygon fill="#ffffff" stroke="transparent" points="338,-144.7 338,-163.7 405,-163.7 405,-144.7 338,-144.7"/>
<polygon fill="none" stroke="#000000" points="338,-144.7 338,-163.7 405,-163.7 405,-144.7 338,-144.7"/>
<text text-anchor="start" x="386.4053" y="-150.8" font-family="Helvetica,sans-Serif" font-size="11.00" fill="#000000">4 &gt;</text>
<polygon fill="none" stroke="#000000" stroke-width="2" points="214,-143.7 214,-385.7 406,-385.7 406,-143.7 214,-143.7"/>
</a>
</g>
</g>
<!-- client_ework_unit&#45;&gt;ework_unit -->
<g id="edge1" class="edge">
<title>client_ework_unit:w&#45;&gt;ework_unit:e</title>
<path fill="none" stroke="#000000" d="M442.1107,-585.9286C364.6721,-564.2408 507.3177,-350.7 405,-350.7"/>
<polygon fill="#000000" stroke="#000000" points="448.5599,-586.7225 456.0601,-591.273 452.53,-587.2112 456.5,-587.7 456.5,-587.7 456.5,-587.7 452.53,-587.2112 456.9399,-584.127 448.5599,-586.7225 448.5599,-586.7225"/>
<ellipse fill="none" stroke="#000000" cx="445.3839" cy="-586.3315" rx="3.2" ry="3.2"/>
</g>
<!-- ework_site -->
<g id="node3" class="node">
<title>ework_site</title>
<g id="a_node3"><a xlink:href="../../tables/ework_site.html" xlink:title="ework_site" target="_top">
<polygon fill="#ffffff" stroke="transparent" points="8,-38.2 8,-209.2 164,-209.2 164,-38.2 8,-38.2"/>
<polygon fill="#f5f5f5" stroke="transparent" points="8,-185.7 8,-208.7 164,-208.7 164,-185.7 8,-185.7"/>
<polygon fill="none" stroke="#000000" points="8,-185.7 8,-208.7 164,-208.7 164,-185.7 8,-185.7"/>
<text text-anchor="start" x="13" y="-194.8" font-family="Helvetica,sans-Serif" font-weight="bold" font-size="11.00" fill="#000000">ework_site</text>
<text text-anchor="start" x="129.0437" y="-193.8" font-family="Helvetica,sans-Serif" font-size="11.00" fill="#000000">[table]</text>
<polygon fill="none" stroke="#000000" points="8,-163.7 8,-185.7 164,-185.7 164,-163.7 8,-163.7"/>
<image xlink:href="../../images/primaryKeys.png" width="11px" height="12px" preserveAspectRatio="xMinYMin meet" x="13" y="-180.7"/>
<text text-anchor="start" x="28" y="-170.8" font-family="Helvetica,sans-Serif" font-size="11.00" fill="#000000">id</text>
<polygon fill="#ffffff" stroke="transparent" points="8,-141.7 8,-163.7 164,-163.7 164,-141.7 8,-141.7"/>
<polygon fill="none" stroke="#000000" points="8,-141.7 8,-163.7 164,-163.7 164,-141.7 8,-141.7"/>
<image xlink:href="../../images/foreignKeys.png" width="11px" height="12px" preserveAspectRatio="xMinYMin meet" x="13" y="-158.7"/>
<text text-anchor="start" x="28" y="-148.8" font-family="Helvetica,sans-Serif" font-size="11.00" fill="#000000">created_by</text>
<polygon fill="#ffffff" stroke="transparent" points="8,-119.7 8,-141.7 164,-141.7 164,-119.7 8,-119.7"/>
<polygon fill="none" stroke="#000000" points="8,-119.7 8,-141.7 164,-141.7 164,-119.7 8,-119.7"/>
<image xlink:href="../../images/foreignKeys.png" width="11px" height="12px" preserveAspectRatio="xMinYMin meet" x="13" y="-136.7"/>
<text text-anchor="start" x="28" y="-126.8" font-family="Helvetica,sans-Serif" font-size="11.00" fill="#000000">modified_by</text>
<polygon fill="#ffffff" stroke="transparent" points="8,-97.7 8,-119.7 164,-119.7 164,-97.7 8,-97.7"/>
<polygon fill="none" stroke="#000000" points="8,-97.7 8,-119.7 164,-119.7 164,-97.7 8,-97.7"/>
<text text-anchor="start" x="28" y="-104.8" font-family="Helvetica,sans-Serif" font-size="11.00" fill="#000000">logo_id</text>
<polygon fill="#ffffff" stroke="transparent" points="8,-75.7 8,-97.7 164,-97.7 164,-75.7 8,-75.7"/>
<polygon fill="none" stroke="#000000" points="8,-75.7 8,-97.7 164,-97.7 164,-75.7 8,-75.7"/>
<image xlink:href="../../images/foreignKeys.png" width="11px" height="12px" preserveAspectRatio="xMinYMin meet" x="13" y="-92.7"/>
<text text-anchor="start" x="28" y="-82.8" font-family="Helvetica,sans-Serif" font-size="11.00" fill="#000000">company_id</text>
<polygon fill="none" stroke="#000000" points="8,-56.7 8,-75.7 164,-75.7 164,-56.7 8,-56.7"/>
<text text-anchor="start" x="11" y="-62.8" font-family="Helvetica,sans-Serif" font-size="11.00" fill="#000000">...</text>
<polygon fill="#ffffff" stroke="transparent" points="8,-37.7 8,-56.7 67,-56.7 67,-37.7 8,-37.7"/>
<polygon fill="none" stroke="#000000" points="8,-37.7 8,-56.7 67,-56.7 67,-37.7 8,-37.7"/>
<text text-anchor="start" x="11" y="-43.8" font-family="Helvetica,sans-Serif" font-size="11.00" fill="#000000">&lt; 3</text>
<polygon fill="#ffffff" stroke="transparent" points="67,-37.7 67,-56.7 124,-56.7 124,-37.7 67,-37.7"/>
<polygon fill="none" stroke="#000000" points="67,-37.7 67,-56.7 124,-56.7 124,-37.7 67,-37.7"/>
<text text-anchor="start" x="88.6105" y="-43.8" font-family="Helvetica,sans-Serif" font-size="11.00" fill="#000000">9 rows</text>
<polygon fill="#ffffff" stroke="transparent" points="124,-37.7 124,-56.7 164,-56.7 164,-37.7 124,-37.7"/>
<polygon fill="none" stroke="#000000" points="124,-37.7 124,-56.7 164,-56.7 164,-37.7 124,-37.7"/>
<text text-anchor="start" x="145.4053" y="-43.8" font-family="Helvetica,sans-Serif" font-size="11.00" fill="#000000">1 &gt;</text>
</a>
</g>
</g>
<!-- ework_unit&#45;&gt;ework_site -->
<g id="edge2" class="edge">
<title>ework_unit:w&#45;&gt;ework_site:e</title>
<path fill="none" stroke="#000000" d="M200.276,-174.7C188.2815,-174.7 180.8229,-174.7 164,-174.7"/>
<polygon fill="#000000" stroke="#000000" points="207,-174.7001 215,-178.3 211,-174.7 215,-174.7 215,-174.7 215,-174.7 211,-174.7 215,-171.1 207,-174.7001 207,-174.7001"/>
<ellipse fill="none" stroke="#000000" cx="203.8" cy="-174.7001" rx="3.2" ry="3.2"/>
</g>
<!-- eworker -->
<g id="node4" class="node">
<title>eworker</title>
<g id="a_node4"><a xlink:href="../../tables/eworker.html" xlink:title="eworker" target="_top">
<polygon fill="#ffffff" stroke="transparent" points="458,-195.2 458,-388.2 581,-388.2 581,-195.2 458,-195.2"/>
<polygon fill="#f5f5f5" stroke="transparent" points="458.5,-364.7 458.5,-387.7 581.5,-387.7 581.5,-364.7 458.5,-364.7"/>
<polygon fill="none" stroke="#000000" points="458.5,-364.7 458.5,-387.7 581.5,-387.7 581.5,-364.7 458.5,-364.7"/>
<text text-anchor="start" x="463.5" y="-373.8" font-family="Helvetica,sans-Serif" font-weight="bold" font-size="11.00" fill="#000000">eworker</text>
<text text-anchor="start" x="546.5437" y="-372.8" font-family="Helvetica,sans-Serif" font-size="11.00" fill="#000000">[table]</text>
<polygon fill="none" stroke="#000000" points="458.5,-342.7 458.5,-364.7 581.5,-364.7 581.5,-342.7 458.5,-342.7"/>
<image xlink:href="../../images/primaryKeys.png" width="11px" height="12px" preserveAspectRatio="xMinYMin meet" x="463.5" y="-359.7"/>
<text text-anchor="start" x="478.5" y="-349.8" font-family="Helvetica,sans-Serif" font-size="11.00" fill="#000000">id</text>
<polygon fill="#ffffff" stroke="transparent" points="458.5,-320.7 458.5,-342.7 581.5,-342.7 581.5,-320.7 458.5,-320.7"/>
<polygon fill="none" stroke="#000000" points="458.5,-320.7 458.5,-342.7 581.5,-342.7 581.5,-320.7 458.5,-320.7"/>
<image xlink:href="../../images/foreignKeys.png" width="11px" height="12px" preserveAspectRatio="xMinYMin meet" x="463.5" y="-337.7"/>
<text text-anchor="start" x="478.5" y="-327.8" font-family="Helvetica,sans-Serif" font-size="11.00" fill="#000000">created_by</text>
<polygon fill="#ffffff" stroke="transparent" points="458.5,-298.7 458.5,-320.7 581.5,-320.7 581.5,-298.7 458.5,-298.7"/>
<polygon fill="none" stroke="#000000" points="458.5,-298.7 458.5,-320.7 581.5,-320.7 581.5,-298.7 458.5,-298.7"/>
<image xlink:href="../../images/foreignKeys.png" width="11px" height="12px" preserveAspectRatio="xMinYMin meet" x="463.5" y="-315.7"/>
<text text-anchor="start" x="478.5" y="-305.8" font-family="Helvetica,sans-Serif" font-size="11.00" fill="#000000">modified_by</text>
<polygon fill="#ffffff" stroke="transparent" points="458.5,-276.7 458.5,-298.7 581.5,-298.7 581.5,-276.7 458.5,-276.7"/>
<polygon fill="none" stroke="#000000" points="458.5,-276.7 458.5,-298.7 581.5,-298.7 581.5,-276.7 458.5,-276.7"/>
<text text-anchor="start" x="478.5" y="-283.8" font-family="Helvetica,sans-Serif" font-size="11.00" fill="#000000">email</text>
<polygon fill="#ffffff" stroke="transparent" points="458.5,-254.7 458.5,-276.7 581.5,-276.7 581.5,-254.7 458.5,-254.7"/>
<polygon fill="none" stroke="#000000" points="458.5,-254.7 458.5,-276.7 581.5,-276.7 581.5,-254.7 458.5,-254.7"/>
<image xlink:href="../../images/foreignKeys.png" width="11px" height="12px" preserveAspectRatio="xMinYMin meet" x="463.5" y="-271.7"/>
<text text-anchor="start" x="478.5" y="-261.8" font-family="Helvetica,sans-Serif" font-size="11.00" fill="#000000">avatar_id</text>
<polygon fill="#ffffff" stroke="transparent" points="458.5,-232.7 458.5,-254.7 581.5,-254.7 581.5,-232.7 458.5,-232.7"/>
<polygon fill="none" stroke="#000000" points="458.5,-232.7 458.5,-254.7 581.5,-254.7 581.5,-232.7 458.5,-232.7"/>
<image xlink:href="../../images/foreignKeys.png" width="11px" height="12px" preserveAspectRatio="xMinYMin meet" x="463.5" y="-249.7"/>
<text text-anchor="start" x="478.5" y="-239.8" font-family="Helvetica,sans-Serif" font-size="11.00" fill="#000000">unit_id</text>
<polygon fill="none" stroke="#000000" points="458.5,-213.7 458.5,-232.7 581.5,-232.7 581.5,-213.7 458.5,-213.7"/>
<text text-anchor="start" x="461.5" y="-219.8" font-family="Helvetica,sans-Serif" font-size="11.00" fill="#000000">...</text>
<polygon fill="#ffffff" stroke="transparent" points="458.5,-194.7 458.5,-213.7 494.5,-213.7 494.5,-194.7 458.5,-194.7"/>
<polygon fill="none" stroke="#000000" points="458.5,-194.7 458.5,-213.7 494.5,-213.7 494.5,-194.7 458.5,-194.7"/>
<text text-anchor="start" x="461.5" y="-200.8" font-family="Helvetica,sans-Serif" font-size="11.00" fill="#000000">&lt; 4</text>
<polygon fill="#ffffff" stroke="transparent" points="494.5,-194.7 494.5,-213.7 552.5,-213.7 552.5,-194.7 494.5,-194.7"/>
<polygon fill="none" stroke="#000000" points="494.5,-194.7 494.5,-213.7 552.5,-213.7 552.5,-194.7 494.5,-194.7"/>
<text text-anchor="start" x="504.8807" y="-200.8" font-family="Helvetica,sans-Serif" font-size="11.00" fill="#000000">347 rows</text>
<polygon fill="#ffffff" stroke="transparent" points="552.5,-194.7 552.5,-213.7 581.5,-213.7 581.5,-194.7 552.5,-194.7"/>
<polygon fill="none" stroke="#000000" points="552.5,-194.7 552.5,-213.7 581.5,-213.7 581.5,-194.7 552.5,-194.7"/>
<text text-anchor="start" x="562.9053" y="-200.8" font-family="Helvetica,sans-Serif" font-size="11.00" fill="#000000">9 &gt;</text>
</a>
</g>
</g>
<!-- eworker&#45;&gt;ework_unit -->
<g id="edge3" class="edge">
<title>eworker:w&#45;&gt;ework_unit:e</title>
<path fill="none" stroke="#000000" d="M444.2038,-247.5082C415.9419,-266.5691 452.1457,-350.7 405,-350.7"/>
<polygon fill="#000000" stroke="#000000" points="450.7696,-245.7592 459.4267,-247.1787 454.6348,-244.7296 458.5,-243.7 458.5,-243.7 458.5,-243.7 454.6348,-244.7296 457.5733,-240.2213 450.7696,-245.7592 450.7696,-245.7592"/>
<ellipse fill="none" stroke="#000000" cx="447.6774" cy="-246.5829" rx="3.2" ry="3.2"/>
</g>
<!-- job_request -->
<g id="node5" class="node">
<title>job_request</title>
<g id="a_node5"><a xlink:href="../../tables/job_request.html" xlink:title="job_request" target="_top">
<polygon fill="#ffffff" stroke="transparent" points="632,-217.2 632,-542.2 798,-542.2 798,-217.2 632,-217.2"/>
<polygon fill="#f5f5f5" stroke="transparent" points="632,-518.7 632,-541.7 798,-541.7 798,-518.7 632,-518.7"/>
<polygon fill="none" stroke="#000000" points="632,-518.7 632,-541.7 798,-541.7 798,-518.7 632,-518.7"/>
<text text-anchor="start" x="637" y="-527.8" font-family="Helvetica,sans-Serif" font-weight="bold" font-size="11.00" fill="#000000">job_request</text>
<text text-anchor="start" x="763.0437" y="-526.8" font-family="Helvetica,sans-Serif" font-size="11.00" fill="#000000">[table]</text>
<polygon fill="none" stroke="#000000" points="632,-496.7 632,-518.7 798,-518.7 798,-496.7 632,-496.7"/>
<image xlink:href="../../images/primaryKeys.png" width="11px" height="12px" preserveAspectRatio="xMinYMin meet" x="637" y="-513.7"/>
<text text-anchor="start" x="652" y="-503.8" font-family="Helvetica,sans-Serif" font-size="11.00" fill="#000000">id</text>
<polygon fill="#ffffff" stroke="transparent" points="632,-474.7 632,-496.7 798,-496.7 798,-474.7 632,-474.7"/>
<polygon fill="none" stroke="#000000" points="632,-474.7 632,-496.7 798,-496.7 798,-474.7 632,-474.7"/>
<image xlink:href="../../images/foreignKeys.png" width="11px" height="12px" preserveAspectRatio="xMinYMin meet" x="637" y="-491.7"/>
<text text-anchor="start" x="652" y="-481.8" font-family="Helvetica,sans-Serif" font-size="11.00" fill="#000000">created_by</text>
<polygon fill="#ffffff" stroke="transparent" points="632,-452.7 632,-474.7 798,-474.7 798,-452.7 632,-452.7"/>
<polygon fill="none" stroke="#000000" points="632,-452.7 632,-474.7 798,-474.7 798,-452.7 632,-452.7"/>
<image xlink:href="../../images/foreignKeys.png" width="11px" height="12px" preserveAspectRatio="xMinYMin meet" x="637" y="-469.7"/>
<text text-anchor="start" x="652" y="-459.8" font-family="Helvetica,sans-Serif" font-size="11.00" fill="#000000">modified_by</text>
<polygon fill="#ffffff" stroke="transparent" points="632,-430.7 632,-452.7 798,-452.7 798,-430.7 632,-430.7"/>
<polygon fill="none" stroke="#000000" points="632,-430.7 632,-452.7 798,-452.7 798,-430.7 632,-430.7"/>
<image xlink:href="../../images/foreignKeys.png" width="11px" height="12px" preserveAspectRatio="xMinYMin meet" x="637" y="-447.7"/>
<text text-anchor="start" x="652" y="-437.8" font-family="Helvetica,sans-Serif" font-size="11.00" fill="#000000">location_id</text>
<polygon fill="#ffffff" stroke="transparent" points="632,-408.7 632,-430.7 798,-430.7 798,-408.7 632,-408.7"/>
<polygon fill="none" stroke="#000000" points="632,-408.7 632,-430.7 798,-430.7 798,-408.7 632,-408.7"/>
<image xlink:href="../../images/foreignKeys.png" width="11px" height="12px" preserveAspectRatio="xMinYMin meet" x="637" y="-425.7"/>
<text text-anchor="start" x="652" y="-415.8" font-family="Helvetica,sans-Serif" font-size="11.00" fill="#000000">rate_card_id</text>
<polygon fill="#ffffff" stroke="transparent" points="632,-386.7 632,-408.7 798,-408.7 798,-386.7 632,-386.7"/>
<polygon fill="none" stroke="#000000" points="632,-386.7 632,-408.7 798,-408.7 798,-386.7 632,-386.7"/>
<image xlink:href="../../images/foreignKeys.png" width="11px" height="12px" preserveAspectRatio="xMinYMin meet" x="637" y="-403.7"/>
<text text-anchor="start" x="652" y="-393.8" font-family="Helvetica,sans-Serif" font-size="11.00" fill="#000000">source_job_request_id</text>
<polygon fill="#ffffff" stroke="transparent" points="632,-364.7 632,-386.7 798,-386.7 798,-364.7 632,-364.7"/>
<polygon fill="none" stroke="#000000" points="632,-364.7 632,-386.7 798,-386.7 798,-364.7 632,-364.7"/>
<image xlink:href="../../images/foreignKeys.png" width="11px" height="12px" preserveAspectRatio="xMinYMin meet" x="637" y="-381.7"/>
<text text-anchor="start" x="652" y="-371.8" font-family="Helvetica,sans-Serif" font-size="11.00" fill="#000000">eworker_id</text>
<polygon fill="#ffffff" stroke="transparent" points="632,-342.7 632,-364.7 798,-364.7 798,-342.7 632,-342.7"/>
<polygon fill="none" stroke="#000000" points="632,-342.7 632,-364.7 798,-364.7 798,-342.7 632,-342.7"/>
<image xlink:href="../../images/foreignKeys.png" width="11px" height="12px" preserveAspectRatio="xMinYMin meet" x="637" y="-359.7"/>
<text text-anchor="start" x="652" y="-349.8" font-family="Helvetica,sans-Serif" font-size="11.00" fill="#000000">unit_id</text>
<polygon fill="#ffffff" stroke="transparent" points="632,-320.7 632,-342.7 798,-342.7 798,-320.7 632,-320.7"/>
<polygon fill="none" stroke="#000000" points="632,-320.7 632,-342.7 798,-342.7 798,-320.7 632,-320.7"/>
<image xlink:href="../../images/foreignKeys.png" width="11px" height="12px" preserveAspectRatio="xMinYMin meet" x="637" y="-337.7"/>
<text text-anchor="start" x="652" y="-327.8" font-family="Helvetica,sans-Serif" font-size="11.00" fill="#000000">closed_eworker_id</text>
<polygon fill="#ffffff" stroke="transparent" points="632,-298.7 632,-320.7 798,-320.7 798,-298.7 632,-298.7"/>
<polygon fill="none" stroke="#000000" points="632,-298.7 632,-320.7 798,-320.7 798,-298.7 632,-298.7"/>
<image xlink:href="../../images/foreignKeys.png" width="11px" height="12px" preserveAspectRatio="xMinYMin meet" x="637" y="-315.7"/>
<text text-anchor="start" x="652" y="-305.8" font-family="Helvetica,sans-Serif" font-size="11.00" fill="#000000">client_contact_id</text>
<polygon fill="#ffffff" stroke="transparent" points="632,-276.7 632,-298.7 798,-298.7 798,-276.7 632,-276.7"/>
<polygon fill="none" stroke="#000000" points="632,-276.7 632,-298.7 798,-298.7 798,-276.7 632,-276.7"/>
<image xlink:href="../../images/foreignKeys.png" width="11px" height="12px" preserveAspectRatio="xMinYMin meet" x="637" y="-293.7"/>
<text text-anchor="start" x="652" y="-283.8" font-family="Helvetica,sans-Serif" font-size="11.00" fill="#000000">client_id</text>
<polygon fill="#ffffff" stroke="transparent" points="632,-254.7 632,-276.7 798,-276.7 798,-254.7 632,-254.7"/>
<polygon fill="none" stroke="#000000" points="632,-254.7 632,-276.7 798,-276.7 798,-254.7 632,-254.7"/>
<image xlink:href="../../images/foreignKeys.png" width="11px" height="12px" preserveAspectRatio="xMinYMin meet" x="637" y="-271.7"/>
<text text-anchor="start" x="652" y="-261.8" font-family="Helvetica,sans-Serif" font-size="11.00" fill="#000000">role_id</text>
<polygon fill="none" stroke="#000000" points="632,-235.7 632,-254.7 798,-254.7 798,-235.7 632,-235.7"/>
<text text-anchor="start" x="635" y="-241.8" font-family="Helvetica,sans-Serif" font-size="11.00" fill="#000000">...</text>
<polygon fill="#ffffff" stroke="transparent" points="632,-216.7 632,-235.7 693,-235.7 693,-216.7 632,-216.7"/>
<polygon fill="none" stroke="#000000" points="632,-216.7 632,-235.7 693,-235.7 693,-216.7 632,-216.7"/>
<text text-anchor="start" x="635" y="-222.8" font-family="Helvetica,sans-Serif" font-size="11.00" fill="#000000">&lt; 11</text>
<polygon fill="#ffffff" stroke="transparent" points="693,-216.7 693,-235.7 760,-235.7 760,-216.7 693,-216.7"/>
<polygon fill="none" stroke="#000000" points="693,-216.7 693,-235.7 760,-235.7 760,-216.7 693,-216.7"/>
<text text-anchor="start" x="712.3807" y="-222.8" font-family="Helvetica,sans-Serif" font-size="11.00" fill="#000000">254 rows</text>
<polygon fill="#ffffff" stroke="transparent" points="760,-216.7 760,-235.7 798,-235.7 798,-216.7 760,-216.7"/>
<polygon fill="none" stroke="#000000" points="760,-216.7 760,-235.7 798,-235.7 798,-216.7 760,-216.7"/>
<text text-anchor="start" x="779.4053" y="-222.8" font-family="Helvetica,sans-Serif" font-size="11.00" fill="#000000">7 &gt;</text>
</a>
</g>
</g>
<!-- job_request&#45;&gt;ework_unit -->
<g id="edge7" class="edge">
<title>job_request:w&#45;&gt;ework_unit:e</title>
<path fill="none" stroke="#000000" d="M617.5361,-351.7763C568.2459,-336.1106 647.245,-228.9313 591,-184.7 541.0418,-145.4127 498.2603,-145.8 448,-184.7 387.7302,-231.347 481.2128,-350.7 405,-350.7"/>
<polygon fill="#000000" stroke="#000000" points="624.0698,-352.6453 631.5254,-357.2686 628.0349,-353.1726 632,-353.7 632,-353.7 632,-353.7 628.0349,-353.1726 632.4746,-350.1314 624.0698,-352.6453 624.0698,-352.6453"/>
<ellipse fill="none" stroke="#000000" cx="620.8978" cy="-352.2234" rx="3.2" ry="3.2"/>
</g>
<!-- job_request&#45;&gt;eworker -->
<g id="edge4" class="edge">
<title>job_request:w&#45;&gt;eworker:e</title>
<path fill="none" stroke="#000000" d="M617.5981,-334.9462C605.4282,-341.0658 600.0526,-353.7 581.5,-353.7"/>
<polygon fill="#000000" stroke="#000000" points="624.1958,-333.4591 632.7916,-335.2119 628.0979,-332.5796 632,-331.7 632,-331.7 632,-331.7 628.0979,-332.5796 631.2084,-328.1881 624.1958,-333.4591 624.1958,-333.4591"/>
<ellipse fill="none" stroke="#000000" cx="621.0741" cy="-334.1627" rx="3.2" ry="3.2"/>
</g>
<!-- job_request&#45;&gt;eworker -->
<g id="edge5" class="edge">
<title>job_request:w&#45;&gt;eworker:e</title>
<path fill="none" stroke="#000000" d="M617.5981,-372.4538C605.4282,-366.3342 600.0526,-353.7 581.5,-353.7"/>
<polygon fill="#000000" stroke="#000000" points="624.1958,-373.9409 631.2084,-379.2119 628.0979,-374.8204 632,-375.7 632,-375.7 632,-375.7 628.0979,-374.8204 632.7916,-372.1881 624.1958,-373.9409 624.1958,-373.9409"/>
<ellipse fill="none" stroke="#000000" cx="621.0741" cy="-373.2373" rx="3.2" ry="3.2"/>
</g>
<!-- rate_card -->
<g id="node6" class="node">
<title>rate_card</title>
<g id="a_node6"><a xlink:href="../../tables/rate_card.html" xlink:title="rate_card" target="_top">
<polygon fill="#ffffff" stroke="transparent" points="469,-409.2 469,-536.2 570,-536.2 570,-409.2 469,-409.2"/>
<polygon fill="#f5f5f5" stroke="transparent" points="469.5,-512.7 469.5,-535.7 570.5,-535.7 570.5,-512.7 469.5,-512.7"/>
<polygon fill="none" stroke="#000000" points="469.5,-512.7 469.5,-535.7 570.5,-535.7 570.5,-512.7 469.5,-512.7"/>
<text text-anchor="start" x="474.5" y="-521.8" font-family="Helvetica,sans-Serif" font-weight="bold" font-size="11.00" fill="#000000">rate_card</text>
<text text-anchor="start" x="535.5437" y="-520.8" font-family="Helvetica,sans-Serif" font-size="11.00" fill="#000000">[table]</text>
<polygon fill="none" stroke="#000000" points="469.5,-490.7 469.5,-512.7 570.5,-512.7 570.5,-490.7 469.5,-490.7"/>
<image xlink:href="../../images/primaryKeys.png" width="11px" height="12px" preserveAspectRatio="xMinYMin meet" x="474.5" y="-507.7"/>
<text text-anchor="start" x="489.5" y="-497.8" font-family="Helvetica,sans-Serif" font-size="11.00" fill="#000000">id</text>
<polygon fill="#ffffff" stroke="transparent" points="469.5,-468.7 469.5,-490.7 570.5,-490.7 570.5,-468.7 469.5,-468.7"/>
<polygon fill="none" stroke="#000000" points="469.5,-468.7 469.5,-490.7 570.5,-490.7 570.5,-468.7 469.5,-468.7"/>
<text text-anchor="start" x="489.5" y="-475.8" font-family="Helvetica,sans-Serif" font-size="11.00" fill="#000000">name</text>
<polygon fill="#ffffff" stroke="transparent" points="469.5,-446.7 469.5,-468.7 570.5,-468.7 570.5,-446.7 469.5,-446.7"/>
<polygon fill="none" stroke="#000000" points="469.5,-446.7 469.5,-468.7 570.5,-468.7 570.5,-446.7 469.5,-446.7"/>
<image xlink:href="../../images/foreignKeys.png" width="11px" height="12px" preserveAspectRatio="xMinYMin meet" x="474.5" y="-463.7"/>
<text text-anchor="start" x="489.5" y="-453.8" font-family="Helvetica,sans-Serif" font-size="11.00" fill="#000000">unit_id</text>
<polygon fill="none" stroke="#000000" points="469.5,-427.7 469.5,-446.7 570.5,-446.7 570.5,-427.7 469.5,-427.7"/>
<text text-anchor="start" x="472.5" y="-433.8" font-family="Helvetica,sans-Serif" font-size="11.00" fill="#000000">...</text>
<polygon fill="#ffffff" stroke="transparent" points="469.5,-408.7 469.5,-427.7 494.5,-427.7 494.5,-408.7 469.5,-408.7"/>
<polygon fill="none" stroke="#000000" points="469.5,-408.7 469.5,-427.7 494.5,-427.7 494.5,-408.7 469.5,-408.7"/>
<text text-anchor="start" x="472.5" y="-414.8" font-family="Helvetica,sans-Serif" font-size="11.00" fill="#000000">&lt; 1</text>
<polygon fill="#ffffff" stroke="transparent" points="494.5,-408.7 494.5,-427.7 546.5,-427.7 546.5,-408.7 494.5,-408.7"/>
<polygon fill="none" stroke="#000000" points="494.5,-408.7 494.5,-427.7 546.5,-427.7 546.5,-408.7 494.5,-408.7"/>
<text text-anchor="start" x="498.8807" y="-414.8" font-family="Helvetica,sans-Serif" font-size="11.00" fill="#000000">239 rows</text>
<polygon fill="#ffffff" stroke="transparent" points="546.5,-408.7 546.5,-427.7 570.5,-427.7 570.5,-408.7 546.5,-408.7"/>
<polygon fill="none" stroke="#000000" points="546.5,-408.7 546.5,-427.7 570.5,-427.7 570.5,-408.7 546.5,-408.7"/>
<text text-anchor="start" x="551.9053" y="-414.8" font-family="Helvetica,sans-Serif" font-size="11.00" fill="#000000">1 &gt;</text>
</a>
</g>
</g>
<!-- job_request&#45;&gt;rate_card -->
<g id="edge6" class="edge">
<title>job_request:w&#45;&gt;rate_card:e</title>
<path fill="none" stroke="#000000" d="M617.8079,-423.4364C592.8295,-439.478 610.1832,-501.7 570.5,-501.7"/>
<polygon fill="#000000" stroke="#000000" points="624.2636,-421.7368 632.9166,-423.1814 628.1318,-420.7184 632,-419.7 632,-419.7 632,-419.7 628.1318,-420.7184 631.0834,-416.2186 624.2636,-421.7368 624.2636,-421.7368"/>
<ellipse fill="none" stroke="#000000" cx="621.1691" cy="-422.5516" rx="3.2" ry="3.2"/>
</g>
<!-- rate_card&#45;&gt;ework_unit -->
<g id="edge8" class="edge">
<title>rate_card:w&#45;&gt;ework_unit:e</title>
<path fill="none" stroke="#000000" d="M455.0978,-454.3804C422.6571,-436.3199 454.6711,-350.7 405,-350.7"/>
<polygon fill="#000000" stroke="#000000" points="461.7044,-455.9031 468.6914,-461.208 465.6022,-456.8016 469.5,-457.7 469.5,-457.7 469.5,-457.7 465.6022,-456.8016 470.3086,-454.192 461.7044,-455.9031 461.7044,-455.9031"/>
<ellipse fill="none" stroke="#000000" cx="458.5862" cy="-455.1844" rx="3.2" ry="3.2"/>
</g>
</g>
</svg>
