<?xml version="1.0" encoding="UTF-8" standalone="no"?>
<!DOCTYPE svg PUBLIC "-//W3C//DTD SVG 1.1//EN"
 "http://www.w3.org/Graphics/SVG/1.1/DTD/svg11.dtd">
<!-- Generated by graphviz version 2.40.1 (20161225.0304)
 -->
<!-- Title: oneDegreeRelationshipsDiagram Pages: 1 -->
<svg width="609pt" height="474pt"
 viewBox="0.00 0.00 609.00 473.70" xmlns="http://www.w3.org/2000/svg" xmlns:xlink="http://www.w3.org/1999/xlink">
<g id="graph0" class="graph" transform="scale(1 1) rotate(0) translate(4 469.7)">
<title>oneDegreeRelationshipsDiagram</title>
<polygon fill="#ffffff" stroke="transparent" points="-4,4 -4,-469.7 605,-469.7 605,4 -4,4"/>
<text text-anchor="middle" x="72.4936" y="-7.3" font-family="Helvetica,sans-Serif" font-size="11.00" fill="#000000">Generated by SchemaSpy</text>
<!-- client -->
<g id="node1" class="node">
<title>client</title>
<g id="a_node1"><a xlink:href="../../tables/client.html" xlink:title="client" target="_top">
<polygon fill="#ffffff" stroke="transparent" points="392,-92.7 392,-461.7 593,-461.7 593,-92.7 392,-92.7"/>
<polygon fill="#f5f5f5" stroke="transparent" points="392.5,-438.2 392.5,-461.2 593.5,-461.2 593.5,-438.2 392.5,-438.2"/>
<polygon fill="none" stroke="#000000" points="392.5,-438.2 392.5,-461.2 593.5,-461.2 593.5,-438.2 392.5,-438.2"/>
<text text-anchor="start" x="397.5" y="-447.3" font-family="Helvetica,sans-Serif" font-weight="bold" font-size="11.00" fill="#000000">client</text>
<text text-anchor="start" x="558.5437" y="-446.3" font-family="Helvetica,sans-Serif" font-size="11.00" fill="#000000">[table]</text>
<polygon fill="none" stroke="#000000" points="392.5,-416.2 392.5,-438.2 593.5,-438.2 593.5,-416.2 392.5,-416.2"/>
<image xlink:href="../../images/primaryKeys.png" width="11px" height="12px" preserveAspectRatio="xMinYMin meet" x="397.5" y="-433.2"/>
<text text-anchor="start" x="412.5" y="-423.3" font-family="Helvetica,sans-Serif" font-size="11.00" fill="#000000">id</text>
<polygon fill="#ffffff" stroke="transparent" points="392.5,-394.2 392.5,-416.2 593.5,-416.2 593.5,-394.2 392.5,-394.2"/>
<polygon fill="none" stroke="#000000" points="392.5,-394.2 392.5,-416.2 593.5,-416.2 593.5,-394.2 392.5,-394.2"/>
<image xlink:href="../../images/foreignKeys.png" width="11px" height="12px" preserveAspectRatio="xMinYMin meet" x="397.5" y="-411.2"/>
<text text-anchor="start" x="412.5" y="-401.3" font-family="Helvetica,sans-Serif" font-size="11.00" fill="#000000">created_by</text>
<polygon fill="#ffffff" stroke="transparent" points="392.5,-372.2 392.5,-394.2 593.5,-394.2 593.5,-372.2 392.5,-372.2"/>
<polygon fill="none" stroke="#000000" points="392.5,-372.2 392.5,-394.2 593.5,-394.2 593.5,-372.2 392.5,-372.2"/>
<image xlink:href="../../images/foreignKeys.png" width="11px" height="12px" preserveAspectRatio="xMinYMin meet" x="397.5" y="-389.2"/>
<text text-anchor="start" x="412.5" y="-379.3" font-family="Helvetica,sans-Serif" font-size="11.00" fill="#000000">modified_by</text>
<polygon fill="#ffffff" stroke="transparent" points="392.5,-350.2 392.5,-372.2 593.5,-372.2 593.5,-350.2 392.5,-350.2"/>
<polygon fill="none" stroke="#000000" points="392.5,-350.2 392.5,-372.2 593.5,-372.2 593.5,-350.2 392.5,-350.2"/>
<text text-anchor="start" x="412.5" y="-357.3" font-family="Helvetica,sans-Serif" font-size="11.00" fill="#000000">marketplace_id</text>
<polygon fill="#ffffff" stroke="transparent" points="392.5,-328.2 392.5,-350.2 593.5,-350.2 593.5,-328.2 392.5,-328.2"/>
<polygon fill="none" stroke="#000000" points="392.5,-328.2 392.5,-350.2 593.5,-350.2 593.5,-328.2 392.5,-328.2"/>
<text text-anchor="start" x="412.5" y="-335.3" font-family="Helvetica,sans-Serif" font-size="11.00" fill="#000000">name</text>
<polygon fill="#ffffff" stroke="transparent" points="392.5,-306.2 392.5,-328.2 593.5,-328.2 593.5,-306.2 392.5,-306.2"/>
<polygon fill="none" stroke="#000000" points="392.5,-306.2 392.5,-328.2 593.5,-328.2 593.5,-306.2 392.5,-306.2"/>
<text text-anchor="start" x="412.5" y="-313.3" font-family="Helvetica,sans-Serif" font-size="11.00" fill="#000000">organizational_number</text>
<polygon fill="#ffffff" stroke="transparent" points="392.5,-284.2 392.5,-306.2 593.5,-306.2 593.5,-284.2 392.5,-284.2"/>
<polygon fill="none" stroke="#000000" points="392.5,-284.2 392.5,-306.2 593.5,-306.2 593.5,-284.2 392.5,-284.2"/>
<text text-anchor="start" x="412.5" y="-291.3" font-family="Helvetica,sans-Serif" font-size="11.00" fill="#000000">vat_number</text>
<polygon fill="#ffffff" stroke="transparent" points="392.5,-262.2 392.5,-284.2 593.5,-284.2 593.5,-262.2 392.5,-262.2"/>
<polygon fill="none" stroke="#000000" points="392.5,-262.2 392.5,-284.2 593.5,-284.2 593.5,-262.2 392.5,-262.2"/>
<image xlink:href="../../images/foreignKeys.png" width="11px" height="12px" preserveAspectRatio="xMinYMin meet" x="397.5" y="-279.2"/>
<text text-anchor="start" x="412.5" y="-269.3" font-family="Helvetica,sans-Serif" font-size="11.00" fill="#000000">client_group_id</text>
<polygon fill="#ffffff" stroke="transparent" points="392.5,-240.2 392.5,-262.2 593.5,-262.2 593.5,-240.2 392.5,-240.2"/>
<polygon fill="none" stroke="#000000" points="392.5,-240.2 392.5,-262.2 593.5,-262.2 593.5,-240.2 392.5,-240.2"/>
<image xlink:href="../../images/foreignKeys.png" width="11px" height="12px" preserveAspectRatio="xMinYMin meet" x="397.5" y="-257.2"/>
<text text-anchor="start" x="412.5" y="-247.3" font-family="Helvetica,sans-Serif" font-size="11.00" fill="#000000">client_operations_developer_id</text>
<polygon fill="#ffffff" stroke="transparent" points="392.5,-218.2 392.5,-240.2 593.5,-240.2 593.5,-218.2 392.5,-218.2"/>
<polygon fill="none" stroke="#000000" points="392.5,-218.2 392.5,-240.2 593.5,-240.2 593.5,-218.2 392.5,-218.2"/>
<image xlink:href="../../images/foreignKeys.png" width="11px" height="12px" preserveAspectRatio="xMinYMin meet" x="397.5" y="-235.2"/>
<text text-anchor="start" x="412.5" y="-225.3" font-family="Helvetica,sans-Serif" font-size="11.00" fill="#000000">responsible_bo_partner_id</text>
<polygon fill="#ffffff" stroke="transparent" points="392.5,-196.2 392.5,-218.2 593.5,-218.2 593.5,-196.2 392.5,-196.2"/>
<polygon fill="none" stroke="#000000" points="392.5,-196.2 392.5,-218.2 593.5,-218.2 593.5,-196.2 392.5,-196.2"/>
<image xlink:href="../../images/foreignKeys.png" width="11px" height="12px" preserveAspectRatio="xMinYMin meet" x="397.5" y="-213.2"/>
<text text-anchor="start" x="412.5" y="-203.3" font-family="Helvetica,sans-Serif" font-size="11.00" fill="#000000">client_responsible_id</text>
<polygon fill="#ffffff" stroke="transparent" points="392.5,-174.2 392.5,-196.2 593.5,-196.2 593.5,-174.2 392.5,-174.2"/>
<polygon fill="none" stroke="#000000" points="392.5,-174.2 392.5,-196.2 593.5,-196.2 593.5,-174.2 392.5,-174.2"/>
<image xlink:href="../../images/foreignKeys.png" width="11px" height="12px" preserveAspectRatio="xMinYMin meet" x="397.5" y="-191.2"/>
<text text-anchor="start" x="412.5" y="-181.3" font-family="Helvetica,sans-Serif" font-size="11.00" fill="#000000">responsible_bo_team_id</text>
<polygon fill="#ffffff" stroke="transparent" points="392.5,-152.2 392.5,-174.2 593.5,-174.2 593.5,-152.2 392.5,-152.2"/>
<polygon fill="none" stroke="#000000" points="392.5,-152.2 392.5,-174.2 593.5,-174.2 593.5,-152.2 392.5,-152.2"/>
<image xlink:href="../../images/foreignKeys.png" width="11px" height="12px" preserveAspectRatio="xMinYMin meet" x="397.5" y="-169.2"/>
<text text-anchor="start" x="412.5" y="-159.3" font-family="Helvetica,sans-Serif" font-size="11.00" fill="#000000">responsible_co_team_id</text>
<polygon fill="#ffffff" stroke="transparent" points="392.5,-130.2 392.5,-152.2 593.5,-152.2 593.5,-130.2 392.5,-130.2"/>
<polygon fill="none" stroke="#000000" points="392.5,-130.2 392.5,-152.2 593.5,-152.2 593.5,-130.2 392.5,-130.2"/>
<image xlink:href="../../images/foreignKeys.png" width="11px" height="12px" preserveAspectRatio="xMinYMin meet" x="397.5" y="-147.2"/>
<text text-anchor="start" x="412.5" y="-137.3" font-family="Helvetica,sans-Serif" font-size="11.00" fill="#000000">avatar_id</text>
<polygon fill="none" stroke="#000000" points="392.5,-111.2 392.5,-130.2 593.5,-130.2 593.5,-111.2 392.5,-111.2"/>
<text text-anchor="start" x="395.5" y="-117.3" font-family="Helvetica,sans-Serif" font-size="11.00" fill="#000000">...</text>
<polygon fill="#ffffff" stroke="transparent" points="392.5,-92.2 392.5,-111.2 467.5,-111.2 467.5,-92.2 392.5,-92.2"/>
<polygon fill="none" stroke="#000000" points="392.5,-92.2 392.5,-111.2 467.5,-111.2 467.5,-92.2 392.5,-92.2"/>
<text text-anchor="start" x="395.5" y="-98.3" font-family="Helvetica,sans-Serif" font-size="11.00" fill="#000000">&lt; 9</text>
<polygon fill="#ffffff" stroke="transparent" points="467.5,-92.2 467.5,-111.2 544.5,-111.2 544.5,-92.2 467.5,-92.2"/>
<polygon fill="none" stroke="#000000" points="467.5,-92.2 467.5,-111.2 544.5,-111.2 544.5,-92.2 467.5,-92.2"/>
<text text-anchor="start" x="496.8807" y="-98.3" font-family="Helvetica,sans-Serif" font-size="11.00" fill="#000000">647 rows</text>
<polygon fill="#ffffff" stroke="transparent" points="544.5,-92.2 544.5,-111.2 593.5,-111.2 593.5,-92.2 544.5,-92.2"/>
<polygon fill="none" stroke="#000000" points="544.5,-92.2 544.5,-111.2 593.5,-111.2 593.5,-92.2 544.5,-92.2"/>
<text text-anchor="start" x="574.9053" y="-98.3" font-family="Helvetica,sans-Serif" font-size="11.00" fill="#000000">7 &gt;</text>
</a>
</g>
</g>
<!-- principal -->
<g id="node2" class="node">
<title>principal</title>
<g id="a_node2"><a xlink:href="../../tables/principal.html" xlink:title="principal" target="_top">
<polygon fill="#ffffff" stroke="transparent" points="8,-183.7 8,-288.7 100,-288.7 100,-183.7 8,-183.7"/>
<polygon fill="#f5f5f5" stroke="transparent" points="8,-265.2 8,-288.2 100,-288.2 100,-265.2 8,-265.2"/>
<polygon fill="none" stroke="#000000" points="8,-265.2 8,-288.2 100,-288.2 100,-265.2 8,-265.2"/>
<text text-anchor="start" x="13" y="-274.3" font-family="Helvetica,sans-Serif" font-weight="bold" font-size="11.00" fill="#000000">principal</text>
<text text-anchor="start" x="65.0437" y="-273.3" font-family="Helvetica,sans-Serif" font-size="11.00" fill="#000000">[table]</text>
<polygon fill="none" stroke="#000000" points="8,-243.2 8,-265.2 100,-265.2 100,-243.2 8,-243.2"/>
<image xlink:href="../../images/primaryKeys.png" width="11px" height="12px" preserveAspectRatio="xMinYMin meet" x="13" y="-260.2"/>
<text text-anchor="start" x="32" y="-250.3" font-family="Helvetica,sans-Serif" font-size="11.00" fill="#000000">id</text>
<polygon fill="#ffffff" stroke="transparent" points="8,-221.2 8,-243.2 100,-243.2 100,-221.2 8,-221.2"/>
<polygon fill="none" stroke="#000000" points="8,-221.2 8,-243.2 100,-243.2 100,-221.2 8,-221.2"/>
<image xlink:href="../../images/foreignKeys.png" width="11px" height="12px" preserveAspectRatio="xMinYMin meet" x="13" y="-238.2"/>
<text text-anchor="start" x="32" y="-228.3" font-family="Helvetica,sans-Serif" font-size="11.00" fill="#000000">eworker_id</text>
<polygon fill="none" stroke="#000000" points="8,-202.2 8,-221.2 100,-221.2 100,-202.2 8,-202.2"/>
<text text-anchor="start" x="11" y="-208.3" font-family="Helvetica,sans-Serif" font-size="11.00" fill="#000000">...</text>
<polygon fill="#ffffff" stroke="transparent" points="8,-183.2 8,-202.2 29,-202.2 29,-183.2 8,-183.2"/>
<polygon fill="none" stroke="#000000" points="8,-183.2 8,-202.2 29,-202.2 29,-183.2 8,-183.2"/>
<text text-anchor="start" x="10.7027" y="-189.3" font-family="Helvetica,sans-Serif" font-size="11.00" fill="#000000">&lt; 1</text>
<polygon fill="#ffffff" stroke="transparent" points="29,-183.2 29,-202.2 73,-202.2 73,-183.2 29,-183.2"/>
<polygon fill="none" stroke="#000000" points="29,-183.2 29,-202.2 73,-202.2 73,-183.2 29,-183.2"/>
<text text-anchor="start" x="31.7478" y="-189.3" font-family="Helvetica,sans-Serif" font-size="11.00" fill="#000000">18 rows</text>
<polygon fill="#ffffff" stroke="transparent" points="73,-183.2 73,-202.2 100,-202.2 100,-183.2 73,-183.2"/>
<polygon fill="none" stroke="#000000" points="73,-183.2 73,-202.2 100,-202.2 100,-183.2 73,-183.2"/>
<text text-anchor="start" x="75.6452" y="-189.3" font-family="Helvetica,sans-Serif" font-size="11.00" fill="#000000">56 &gt;</text>
</a>
</g>
</g>
<!-- client&#45;&gt;principal -->
<g id="edge1" class="edge">
<title>client:w&#45;&gt;principal:e</title>
<path fill="none" stroke="#000000" d="M377.9629,-405.2291C272.7485,-405.611 226.4844,-408.5433 141,-338.2 108.9214,-311.8032 141.5431,-254.2 100,-254.2"/>
<polygon fill="#000000" stroke="#000000" points="384.5,-405.2161 392.5072,-408.8 388.5,-405.208 392.5,-405.2 392.5,-405.2 392.5,-405.2 388.5,-405.208 392.4928,-401.6 384.5,-405.2161 384.5,-405.2161"/>
<ellipse fill="none" stroke="#000000" cx="381.3" cy="-405.2225" rx="3.2" ry="3.2"/>
</g>
<!-- client&#45;&gt;principal -->
<g id="edge2" class="edge">
<title>client:w&#45;&gt;principal:e</title>
<path fill="none" stroke="#000000" d="M378.5045,-378.9139C367.6882,-370.2027 368.3209,-350.3163 351,-339.2 251.8787,-275.5857 217.7786,-254.2 100,-254.2"/>
<polygon fill="#000000" stroke="#000000" points="384.8507,-380.8574 391.4458,-386.6422 388.6753,-382.0287 392.5,-383.2 392.5,-383.2 392.5,-383.2 388.6753,-382.0287 393.5542,-379.7578 384.8507,-380.8574 384.8507,-380.8574"/>
<ellipse fill="none" stroke="#000000" cx="381.7909" cy="-379.9203" rx="3.2" ry="3.2"/>
</g>
<!-- ework_team -->
<g id="node3" class="node">
<title>ework_team</title>
<g id="a_node3"><a xlink:href="../../tables/ework_team.html" xlink:title="ework_team" target="_top">
<polygon fill="#ffffff" stroke="transparent" points="149,-38.2 149,-238.2 343,-238.2 343,-38.2 149,-38.2"/>
<polygon fill="#f5f5f5" stroke="transparent" points="151,-213.2 151,-236.2 341,-236.2 341,-213.2 151,-213.2"/>
<polygon fill="none" stroke="#000000" points="151,-213.2 151,-236.2 341,-236.2 341,-213.2 151,-213.2"/>
<text text-anchor="start" x="156" y="-222.3" font-family="Helvetica,sans-Serif" font-weight="bold" font-size="11.00" fill="#000000">ework_team</text>
<text text-anchor="start" x="306.0437" y="-221.3" font-family="Helvetica,sans-Serif" font-size="11.00" fill="#000000">[table]</text>
<polygon fill="none" stroke="#000000" points="151,-191.2 151,-213.2 274,-213.2 274,-191.2 151,-191.2"/>
<image xlink:href="../../images/primaryKeys.png" width="11px" height="12px" preserveAspectRatio="xMinYMin meet" x="156" y="-208.2"/>
<text text-anchor="start" x="171" y="-198.3" font-family="Helvetica,sans-Serif" font-size="11.00" fill="#000000">id</text>
<polygon fill="none" stroke="#000000" points="274,-191.2 274,-213.2 341,-213.2 341,-191.2 274,-191.2"/>
<text text-anchor="start" x="277" y="-198.9" font-family="Helvetica,sans-Serif" font-size="11.00" fill="#000000">bigint[19]</text>
<polygon fill="#ffffff" stroke="transparent" points="151,-169.2 151,-191.2 274,-191.2 274,-169.2 151,-169.2"/>
<polygon fill="none" stroke="#000000" points="151,-169.2 151,-191.2 274,-191.2 274,-169.2 151,-169.2"/>
<image xlink:href="../../images/foreignKeys.png" width="11px" height="12px" preserveAspectRatio="xMinYMin meet" x="156" y="-186.2"/>
<text text-anchor="start" x="171" y="-176.3" font-family="Helvetica,sans-Serif" font-size="11.00" fill="#000000">created_by</text>
<polygon fill="none" stroke="#000000" points="274,-169.2 274,-191.2 341,-191.2 341,-169.2 274,-169.2"/>
<text text-anchor="start" x="277" y="-176.9" font-family="Helvetica,sans-Serif" font-size="11.00" fill="#000000">bigint[19]</text>
<polygon fill="none" stroke="#000000" points="151,-147.2 151,-169.2 274,-169.2 274,-147.2 151,-147.2"/>
<text text-anchor="start" x="171" y="-154.3" font-family="Helvetica,sans-Serif" font-size="11.00" fill="#000000">creation_date</text>
<polygon fill="none" stroke="#000000" points="274,-147.2 274,-169.2 341,-169.2 341,-147.2 274,-147.2"/>
<text text-anchor="start" x="277" y="-154.9" font-family="Helvetica,sans-Serif" font-size="11.00" fill="#000000">datetime[26]</text>
<polygon fill="#ffffff" stroke="transparent" points="151,-125.2 151,-147.2 274,-147.2 274,-125.2 151,-125.2"/>
<polygon fill="none" stroke="#000000" points="151,-125.2 151,-147.2 274,-147.2 274,-125.2 151,-125.2"/>
<image xlink:href="../../images/foreignKeys.png" width="11px" height="12px" preserveAspectRatio="xMinYMin meet" x="156" y="-142.2"/>
<text text-anchor="start" x="171" y="-132.3" font-family="Helvetica,sans-Serif" font-size="11.00" fill="#000000">modified_by</text>
<polygon fill="none" stroke="#000000" points="274,-125.2 274,-147.2 341,-147.2 341,-125.2 274,-125.2"/>
<text text-anchor="start" x="277" y="-132.9" font-family="Helvetica,sans-Serif" font-size="11.00" fill="#000000">bigint[19]</text>
<polygon fill="none" stroke="#000000" points="151,-103.2 151,-125.2 274,-125.2 274,-103.2 151,-103.2"/>
<text text-anchor="start" x="171" y="-110.3" font-family="Helvetica,sans-Serif" font-size="11.00" fill="#000000">modification_date</text>
<polygon fill="none" stroke="#000000" points="274,-103.2 274,-125.2 341,-125.2 341,-103.2 274,-103.2"/>
<text text-anchor="start" x="277" y="-110.9" font-family="Helvetica,sans-Serif" font-size="11.00" fill="#000000">datetime[26]</text>
<polygon fill="none" stroke="#000000" points="151,-81.2 151,-103.2 274,-103.2 274,-81.2 151,-81.2"/>
<text text-anchor="start" x="171" y="-88.3" font-family="Helvetica,sans-Serif" font-size="11.00" fill="#000000">name</text>
<polygon fill="none" stroke="#000000" points="274,-81.2 274,-103.2 341,-103.2 341,-81.2 274,-81.2"/>
<text text-anchor="start" x="276.9365" y="-88.9" font-family="Helvetica,sans-Serif" font-size="11.00" fill="#000000">varchar[255]</text>
<polygon fill="none" stroke="#000000" points="151,-59.2 151,-81.2 274,-81.2 274,-59.2 151,-59.2"/>
<text text-anchor="start" x="171" y="-66.3" font-family="Helvetica,sans-Serif" font-size="11.00" fill="#000000">description</text>
<polygon fill="none" stroke="#000000" points="274,-59.2 274,-81.2 341,-81.2 341,-59.2 274,-59.2"/>
<text text-anchor="start" x="276.9365" y="-66.9" font-family="Helvetica,sans-Serif" font-size="11.00" fill="#000000">varchar[255]</text>
<polygon fill="#ffffff" stroke="transparent" points="151,-40.2 151,-59.2 204,-59.2 204,-40.2 151,-40.2"/>
<polygon fill="none" stroke="#000000" points="151,-40.2 151,-59.2 204,-59.2 204,-40.2 151,-40.2"/>
<text text-anchor="start" x="154" y="-46.3" font-family="Helvetica,sans-Serif" font-size="11.00" fill="#000000">&lt; 2</text>
<polygon fill="#ffffff" stroke="transparent" points="204,-40.2 204,-59.2 274,-59.2 274,-40.2 204,-40.2"/>
<polygon fill="none" stroke="#000000" points="204,-40.2 204,-59.2 274,-59.2 274,-40.2 204,-40.2"/>
<text text-anchor="start" x="238.6105" y="-46.3" font-family="Helvetica,sans-Serif" font-size="11.00" fill="#000000">6 rows</text>
<polygon fill="#ffffff" stroke="transparent" points="274,-40.2 274,-59.2 341,-59.2 341,-40.2 274,-40.2"/>
<polygon fill="none" stroke="#000000" points="274,-40.2 274,-59.2 341,-59.2 341,-40.2 274,-40.2"/>
<text text-anchor="start" x="322.4053" y="-46.3" font-family="Helvetica,sans-Serif" font-size="11.00" fill="#000000">2 &gt;</text>
<polygon fill="none" stroke="#000000" stroke-width="2" points="150,-39.2 150,-237.2 342,-237.2 342,-39.2 150,-39.2"/>
</a>
</g>
</g>
<!-- client&#45;&gt;ework_team -->
<g id="edge3" class="edge">
<title>client:w&#45;&gt;ework_team:e</title>
<path fill="none" stroke="#000000" d="M378.0579,-187.7084C365.5808,-192.4372 359.2661,-202.2 341,-202.2"/>
<polygon fill="#000000" stroke="#000000" points="384.618,-186.569 393.1161,-188.7469 388.559,-185.8845 392.5,-185.2 392.5,-185.2 392.5,-185.2 388.559,-185.8845 391.8839,-181.6531 384.618,-186.569 384.618,-186.569"/>
<ellipse fill="none" stroke="#000000" cx="381.4652" cy="-187.1167" rx="3.2" ry="3.2"/>
</g>
<!-- client&#45;&gt;ework_team -->
<g id="edge4" class="edge">
<title>client:w&#45;&gt;ework_team:e</title>
<path fill="none" stroke="#000000" d="M378.7105,-167.3737C364.7657,-177.4346 363.8794,-202.2 341,-202.2"/>
<polygon fill="#000000" stroke="#000000" points="384.843,-165.5176 393.5429,-166.6456 388.6715,-164.3588 392.5,-163.2 392.5,-163.2 392.5,-163.2 388.6715,-164.3588 391.4571,-159.7544 384.843,-165.5176 384.843,-165.5176"/>
<ellipse fill="none" stroke="#000000" cx="381.7803" cy="-166.4446" rx="3.2" ry="3.2"/>
</g>
<!-- ework_team&#45;&gt;principal -->
<g id="edge5" class="edge">
<title>ework_team:w&#45;&gt;principal:e</title>
<path fill="none" stroke="#000000" d="M137.0503,-184.829C118.2607,-201.0294 133.8581,-254.2 100,-254.2"/>
<polygon fill="#000000" stroke="#000000" points="143.4071,-182.7196 152.1338,-183.6168 147.2036,-181.4598 151,-180.2 151,-180.2 151,-180.2 147.2036,-181.4598 149.8662,-176.7832 143.4071,-182.7196 143.4071,-182.7196"/>
<ellipse fill="none" stroke="#000000" cx="140.37" cy="-183.7275" rx="3.2" ry="3.2"/>
</g>
<!-- ework_team&#45;&gt;principal -->
<g id="edge6" class="edge">
<title>ework_team:w&#45;&gt;principal:e</title>
<path fill="none" stroke="#000000" d="M136.6581,-139.8609C105.8728,-159.778 151.1074,-254.2 100,-254.2"/>
<polygon fill="#000000" stroke="#000000" points="143.2485,-138.1787 151.8904,-139.6882 147.1243,-137.1893 151,-136.2 151,-136.2 151,-136.2 147.1243,-137.1893 150.1096,-132.7118 143.2485,-138.1787 143.2485,-138.1787"/>
<ellipse fill="none" stroke="#000000" cx="140.148" cy="-138.9701" rx="3.2" ry="3.2"/>
</g>
</g>
</svg>
