<?xml version="1.0" encoding="UTF-8" standalone="no"?>
<!DOCTYPE svg PUBLIC "-//W3C//DTD SVG 1.1//EN"
 "http://www.w3.org/Graphics/SVG/1.1/DTD/svg11.dtd">
<!-- Generated by graphviz version 2.40.1 (20161225.0304)
 -->
<!-- Title: twoDegreesRelationshipsDiagram Pages: 1 -->
<svg width="588pt" height="598pt"
 viewBox="0.00 0.00 588.00 597.70" xmlns="http://www.w3.org/2000/svg" xmlns:xlink="http://www.w3.org/1999/xlink">
<g id="graph0" class="graph" transform="scale(1 1) rotate(0) translate(4 593.7)">
<title>twoDegreesRelationshipsDiagram</title>
<polygon fill="#ffffff" stroke="transparent" points="-4,4 -4,-593.7 584,-593.7 584,4 -4,4"/>
<text text-anchor="middle" x="72.4936" y="-7.3" font-family="Helvetica,sans-Serif" font-size="11.00" fill="#000000">Generated by SchemaSpy</text>
<!-- ework_site -->
<g id="node1" class="node">
<title>ework_site</title>
<g id="a_node1"><a xlink:href="../../tables/ework_site.html" xlink:title="ework_site" target="_top">
<polygon fill="#ffffff" stroke="transparent" points="271,-414.7 271,-585.7 427,-585.7 427,-414.7 271,-414.7"/>
<polygon fill="#f5f5f5" stroke="transparent" points="271,-562.2 271,-585.2 427,-585.2 427,-562.2 271,-562.2"/>
<polygon fill="none" stroke="#000000" points="271,-562.2 271,-585.2 427,-585.2 427,-562.2 271,-562.2"/>
<text text-anchor="start" x="276" y="-571.3" font-family="Helvetica,sans-Serif" font-weight="bold" font-size="11.00" fill="#000000">ework_site</text>
<text text-anchor="start" x="392.0437" y="-570.3" font-family="Helvetica,sans-Serif" font-size="11.00" fill="#000000">[table]</text>
<polygon fill="none" stroke="#000000" points="271,-540.2 271,-562.2 427,-562.2 427,-540.2 271,-540.2"/>
<image xlink:href="../../images/primaryKeys.png" width="11px" height="12px" preserveAspectRatio="xMinYMin meet" x="276" y="-557.2"/>
<text text-anchor="start" x="291" y="-547.3" font-family="Helvetica,sans-Serif" font-size="11.00" fill="#000000">id</text>
<polygon fill="#ffffff" stroke="transparent" points="271,-518.2 271,-540.2 427,-540.2 427,-518.2 271,-518.2"/>
<polygon fill="none" stroke="#000000" points="271,-518.2 271,-540.2 427,-540.2 427,-518.2 271,-518.2"/>
<image xlink:href="../../images/foreignKeys.png" width="11px" height="12px" preserveAspectRatio="xMinYMin meet" x="276" y="-535.2"/>
<text text-anchor="start" x="291" y="-525.3" font-family="Helvetica,sans-Serif" font-size="11.00" fill="#000000">created_by</text>
<polygon fill="#ffffff" stroke="transparent" points="271,-496.2 271,-518.2 427,-518.2 427,-496.2 271,-496.2"/>
<polygon fill="none" stroke="#000000" points="271,-496.2 271,-518.2 427,-518.2 427,-496.2 271,-496.2"/>
<image xlink:href="../../images/foreignKeys.png" width="11px" height="12px" preserveAspectRatio="xMinYMin meet" x="276" y="-513.2"/>
<text text-anchor="start" x="291" y="-503.3" font-family="Helvetica,sans-Serif" font-size="11.00" fill="#000000">modified_by</text>
<polygon fill="#ffffff" stroke="transparent" points="271,-474.2 271,-496.2 427,-496.2 427,-474.2 271,-474.2"/>
<polygon fill="none" stroke="#000000" points="271,-474.2 271,-496.2 427,-496.2 427,-474.2 271,-474.2"/>
<text text-anchor="start" x="291" y="-481.3" font-family="Helvetica,sans-Serif" font-size="11.00" fill="#000000">logo_id</text>
<polygon fill="#ffffff" stroke="transparent" points="271,-452.2 271,-474.2 427,-474.2 427,-452.2 271,-452.2"/>
<polygon fill="none" stroke="#000000" points="271,-452.2 271,-474.2 427,-474.2 427,-452.2 271,-452.2"/>
<image xlink:href="../../images/foreignKeys.png" width="11px" height="12px" preserveAspectRatio="xMinYMin meet" x="276" y="-469.2"/>
<text text-anchor="start" x="291" y="-459.3" font-family="Helvetica,sans-Serif" font-size="11.00" fill="#000000">company_id</text>
<polygon fill="none" stroke="#000000" points="271,-433.2 271,-452.2 427,-452.2 427,-433.2 271,-433.2"/>
<text text-anchor="start" x="274" y="-439.3" font-family="Helvetica,sans-Serif" font-size="11.00" fill="#000000">...</text>
<polygon fill="#ffffff" stroke="transparent" points="271,-414.2 271,-433.2 330,-433.2 330,-414.2 271,-414.2"/>
<polygon fill="none" stroke="#000000" points="271,-414.2 271,-433.2 330,-433.2 330,-414.2 271,-414.2"/>
<text text-anchor="start" x="274" y="-420.3" font-family="Helvetica,sans-Serif" font-size="11.00" fill="#000000">&lt; 3</text>
<polygon fill="#ffffff" stroke="transparent" points="330,-414.2 330,-433.2 387,-433.2 387,-414.2 330,-414.2"/>
<polygon fill="none" stroke="#000000" points="330,-414.2 330,-433.2 387,-433.2 387,-414.2 330,-414.2"/>
<text text-anchor="start" x="351.6105" y="-420.3" font-family="Helvetica,sans-Serif" font-size="11.00" fill="#000000">9 rows</text>
<polygon fill="#ffffff" stroke="transparent" points="387,-414.2 387,-433.2 427,-433.2 427,-414.2 387,-414.2"/>
<polygon fill="none" stroke="#000000" points="387,-414.2 387,-433.2 427,-433.2 427,-414.2 387,-414.2"/>
<text text-anchor="start" x="408.4053" y="-420.3" font-family="Helvetica,sans-Serif" font-size="11.00" fill="#000000">1 &gt;</text>
</a>
</g>
</g>
<!-- ework_company -->
<g id="node2" class="node">
<title>ework_company</title>
<g id="a_node2"><a xlink:href="../../tables/ework_company.html" xlink:title="ework_company" target="_top">
<polygon fill="#ffffff" stroke="transparent" points="8,-38.2 8,-480.2 222,-480.2 222,-38.2 8,-38.2"/>
<polygon fill="#f5f5f5" stroke="transparent" points="10,-455.2 10,-478.2 220,-478.2 220,-455.2 10,-455.2"/>
<polygon fill="none" stroke="#000000" points="10,-455.2 10,-478.2 220,-478.2 220,-455.2 10,-455.2"/>
<text text-anchor="start" x="15" y="-464.3" font-family="Helvetica,sans-Serif" font-weight="bold" font-size="11.00" fill="#000000">ework_company</text>
<text text-anchor="start" x="185.0437" y="-463.3" font-family="Helvetica,sans-Serif" font-size="11.00" fill="#000000">[table]</text>
<polygon fill="none" stroke="#000000" points="10,-433.2 10,-455.2 153,-455.2 153,-433.2 10,-433.2"/>
<image xlink:href="../../images/primaryKeys.png" width="11px" height="12px" preserveAspectRatio="xMinYMin meet" x="15" y="-450.2"/>
<text text-anchor="start" x="30" y="-440.3" font-family="Helvetica,sans-Serif" font-size="11.00" fill="#000000">id</text>
<polygon fill="none" stroke="#000000" points="153,-433.2 153,-455.2 220,-455.2 220,-433.2 153,-433.2"/>
<text text-anchor="start" x="156" y="-440.9" font-family="Helvetica,sans-Serif" font-size="11.00" fill="#000000">bigint[19]</text>
<polygon fill="none" stroke="#000000" points="10,-411.2 10,-433.2 153,-433.2 153,-411.2 10,-411.2"/>
<text text-anchor="start" x="30" y="-418.3" font-family="Helvetica,sans-Serif" font-size="11.00" fill="#000000">created_by</text>
<polygon fill="none" stroke="#000000" points="153,-411.2 153,-433.2 220,-433.2 220,-411.2 153,-411.2"/>
<text text-anchor="start" x="156" y="-418.9" font-family="Helvetica,sans-Serif" font-size="11.00" fill="#000000">bigint[19]</text>
<polygon fill="none" stroke="#000000" points="10,-389.2 10,-411.2 153,-411.2 153,-389.2 10,-389.2"/>
<text text-anchor="start" x="30" y="-396.3" font-family="Helvetica,sans-Serif" font-size="11.00" fill="#000000">creation_date</text>
<polygon fill="none" stroke="#000000" points="153,-389.2 153,-411.2 220,-411.2 220,-389.2 153,-389.2"/>
<text text-anchor="start" x="156" y="-396.9" font-family="Helvetica,sans-Serif" font-size="11.00" fill="#000000">datetime[26]</text>
<polygon fill="none" stroke="#000000" points="10,-367.2 10,-389.2 153,-389.2 153,-367.2 10,-367.2"/>
<text text-anchor="start" x="30" y="-374.3" font-family="Helvetica,sans-Serif" font-size="11.00" fill="#000000">modified_by</text>
<polygon fill="none" stroke="#000000" points="153,-367.2 153,-389.2 220,-389.2 220,-367.2 153,-367.2"/>
<text text-anchor="start" x="156" y="-374.9" font-family="Helvetica,sans-Serif" font-size="11.00" fill="#000000">bigint[19]</text>
<polygon fill="none" stroke="#000000" points="10,-345.2 10,-367.2 153,-367.2 153,-345.2 10,-345.2"/>
<text text-anchor="start" x="30" y="-352.3" font-family="Helvetica,sans-Serif" font-size="11.00" fill="#000000">modification_date</text>
<polygon fill="none" stroke="#000000" points="153,-345.2 153,-367.2 220,-367.2 220,-345.2 153,-345.2"/>
<text text-anchor="start" x="156" y="-352.9" font-family="Helvetica,sans-Serif" font-size="11.00" fill="#000000">datetime[26]</text>
<polygon fill="none" stroke="#000000" points="10,-323.2 10,-345.2 153,-345.2 153,-323.2 10,-323.2"/>
<text text-anchor="start" x="30" y="-330.3" font-family="Helvetica,sans-Serif" font-size="11.00" fill="#000000">name</text>
<polygon fill="none" stroke="#000000" points="153,-323.2 153,-345.2 220,-345.2 220,-323.2 153,-323.2"/>
<text text-anchor="start" x="155.9365" y="-330.9" font-family="Helvetica,sans-Serif" font-size="11.00" fill="#000000">varchar[100]</text>
<polygon fill="none" stroke="#000000" points="10,-301.2 10,-323.2 153,-323.2 153,-301.2 10,-301.2"/>
<text text-anchor="start" x="30" y="-308.3" font-family="Helvetica,sans-Serif" font-size="11.00" fill="#000000">phone_number</text>
<polygon fill="none" stroke="#000000" points="153,-301.2 153,-323.2 220,-323.2 220,-301.2 153,-301.2"/>
<text text-anchor="start" x="156" y="-308.9" font-family="Helvetica,sans-Serif" font-size="11.00" fill="#000000">varchar[50]</text>
<polygon fill="none" stroke="#000000" points="10,-279.2 10,-301.2 153,-301.2 153,-279.2 10,-279.2"/>
<text text-anchor="start" x="30" y="-286.3" font-family="Helvetica,sans-Serif" font-size="11.00" fill="#000000">support_email</text>
<polygon fill="none" stroke="#000000" points="153,-279.2 153,-301.2 220,-301.2 220,-279.2 153,-279.2"/>
<text text-anchor="start" x="155.9365" y="-286.9" font-family="Helvetica,sans-Serif" font-size="11.00" fill="#000000">varchar[100]</text>
<polygon fill="#ffffff" stroke="transparent" points="10,-257.2 10,-279.2 153,-279.2 153,-257.2 10,-257.2"/>
<polygon fill="none" stroke="#000000" points="10,-257.2 10,-279.2 153,-279.2 153,-257.2 10,-257.2"/>
<text text-anchor="start" x="30" y="-264.3" font-family="Helvetica,sans-Serif" font-size="11.00" fill="#000000">vat_number</text>
<polygon fill="none" stroke="#000000" points="153,-257.2 153,-279.2 220,-279.2 220,-257.2 153,-257.2"/>
<text text-anchor="start" x="155.9365" y="-264.9" font-family="Helvetica,sans-Serif" font-size="11.00" fill="#000000">varchar[255]</text>
<polygon fill="#ffffff" stroke="transparent" points="10,-235.2 10,-257.2 153,-257.2 153,-235.2 10,-235.2"/>
<polygon fill="none" stroke="#000000" points="10,-235.2 10,-257.2 153,-257.2 153,-235.2 10,-235.2"/>
<text text-anchor="start" x="30" y="-242.3" font-family="Helvetica,sans-Serif" font-size="11.00" fill="#000000">organization_number</text>
<polygon fill="none" stroke="#000000" points="153,-235.2 153,-257.2 220,-257.2 220,-235.2 153,-235.2"/>
<text text-anchor="start" x="155.9365" y="-242.9" font-family="Helvetica,sans-Serif" font-size="11.00" fill="#000000">varchar[255]</text>
<polygon fill="none" stroke="#000000" points="10,-213.2 10,-235.2 153,-235.2 153,-213.2 10,-213.2"/>
<text text-anchor="start" x="30" y="-220.3" font-family="Helvetica,sans-Serif" font-size="11.00" fill="#000000">address_line1</text>
<polygon fill="none" stroke="#000000" points="153,-213.2 153,-235.2 220,-235.2 220,-213.2 153,-213.2"/>
<text text-anchor="start" x="155.9365" y="-220.9" font-family="Helvetica,sans-Serif" font-size="11.00" fill="#000000">varchar[255]</text>
<polygon fill="none" stroke="#000000" points="10,-191.2 10,-213.2 153,-213.2 153,-191.2 10,-191.2"/>
<text text-anchor="start" x="30" y="-198.3" font-family="Helvetica,sans-Serif" font-size="11.00" fill="#000000">address_line2</text>
<polygon fill="none" stroke="#000000" points="153,-191.2 153,-213.2 220,-213.2 220,-191.2 153,-191.2"/>
<text text-anchor="start" x="155.9365" y="-198.9" font-family="Helvetica,sans-Serif" font-size="11.00" fill="#000000">varchar[255]</text>
<polygon fill="none" stroke="#000000" points="10,-169.2 10,-191.2 153,-191.2 153,-169.2 10,-169.2"/>
<text text-anchor="start" x="30" y="-176.3" font-family="Helvetica,sans-Serif" font-size="11.00" fill="#000000">address_box</text>
<polygon fill="none" stroke="#000000" points="153,-169.2 153,-191.2 220,-191.2 220,-169.2 153,-169.2"/>
<text text-anchor="start" x="155.9365" y="-176.9" font-family="Helvetica,sans-Serif" font-size="11.00" fill="#000000">varchar[255]</text>
<polygon fill="none" stroke="#000000" points="10,-147.2 10,-169.2 153,-169.2 153,-147.2 10,-147.2"/>
<text text-anchor="start" x="30" y="-154.3" font-family="Helvetica,sans-Serif" font-size="11.00" fill="#000000">zip_code</text>
<polygon fill="none" stroke="#000000" points="153,-147.2 153,-169.2 220,-169.2 220,-147.2 153,-147.2"/>
<text text-anchor="start" x="156" y="-154.9" font-family="Helvetica,sans-Serif" font-size="11.00" fill="#000000">varchar[50]</text>
<polygon fill="none" stroke="#000000" points="10,-125.2 10,-147.2 153,-147.2 153,-125.2 10,-125.2"/>
<text text-anchor="start" x="30" y="-132.3" font-family="Helvetica,sans-Serif" font-size="11.00" fill="#000000">city</text>
<polygon fill="none" stroke="#000000" points="153,-125.2 153,-147.2 220,-147.2 220,-125.2 153,-125.2"/>
<text text-anchor="start" x="155.9365" y="-132.9" font-family="Helvetica,sans-Serif" font-size="11.00" fill="#000000">varchar[255]</text>
<polygon fill="none" stroke="#000000" points="10,-103.2 10,-125.2 153,-125.2 153,-103.2 10,-103.2"/>
<text text-anchor="start" x="30" y="-110.3" font-family="Helvetica,sans-Serif" font-size="11.00" fill="#000000">country</text>
<polygon fill="none" stroke="#000000" points="153,-103.2 153,-125.2 220,-125.2 220,-103.2 153,-103.2"/>
<text text-anchor="start" x="155.9365" y="-110.9" font-family="Helvetica,sans-Serif" font-size="11.00" fill="#000000">varchar[255]</text>
<polygon fill="none" stroke="#000000" points="10,-81.2 10,-103.2 153,-103.2 153,-81.2 10,-81.2"/>
<text text-anchor="start" x="30" y="-88.3" font-family="Helvetica,sans-Serif" font-size="11.00" fill="#000000">marketplace_token</text>
<polygon fill="none" stroke="#000000" points="153,-81.2 153,-103.2 220,-103.2 220,-81.2 153,-81.2"/>
<text text-anchor="start" x="155.9365" y="-88.9" font-family="Helvetica,sans-Serif" font-size="11.00" fill="#000000">varchar[255]</text>
<polygon fill="none" stroke="#000000" points="10,-59.2 10,-81.2 153,-81.2 153,-59.2 10,-59.2"/>
<text text-anchor="start" x="30" y="-66.3" font-family="Helvetica,sans-Serif" font-size="11.00" fill="#000000">phone_code</text>
<polygon fill="none" stroke="#000000" points="153,-59.2 153,-81.2 220,-81.2 220,-59.2 153,-59.2"/>
<text text-anchor="start" x="156" y="-66.9" font-family="Helvetica,sans-Serif" font-size="11.00" fill="#000000">varchar[2]</text>
<polygon fill="#ffffff" stroke="transparent" points="10,-40.2 10,-59.2 73,-59.2 73,-40.2 10,-40.2"/>
<polygon fill="none" stroke="#000000" points="10,-40.2 10,-59.2 73,-59.2 73,-40.2 10,-40.2"/>
<text text-anchor="start" x="13" y="-46.3" font-family="Helvetica,sans-Serif" font-size="11.00" fill="#000000">&lt; 0</text>
<polygon fill="#ffffff" stroke="transparent" points="73,-40.2 73,-59.2 153,-59.2 153,-40.2 73,-40.2"/>
<polygon fill="none" stroke="#000000" points="73,-40.2 73,-59.2 153,-59.2 153,-40.2 73,-40.2"/>
<text text-anchor="start" x="117.6105" y="-46.3" font-family="Helvetica,sans-Serif" font-size="11.00" fill="#000000">5 rows</text>
<polygon fill="#ffffff" stroke="transparent" points="153,-40.2 153,-59.2 220,-59.2 220,-40.2 153,-40.2"/>
<polygon fill="none" stroke="#000000" points="153,-40.2 153,-59.2 220,-59.2 220,-40.2 153,-40.2"/>
<text text-anchor="start" x="201.4053" y="-46.3" font-family="Helvetica,sans-Serif" font-size="11.00" fill="#000000">1 &gt;</text>
<polygon fill="none" stroke="#000000" stroke-width="2" points="9,-39.2 9,-479.2 221,-479.2 221,-39.2 9,-39.2"/>
</a>
</g>
</g>
<!-- ework_site&#45;&gt;ework_company -->
<g id="edge1" class="edge">
<title>ework_site:w&#45;&gt;ework_company:e</title>
<path fill="none" stroke="#000000" d="M256.6076,-460.3965C244.2761,-455.1113 238.3304,-444.2 220,-444.2"/>
<polygon fill="#000000" stroke="#000000" points="263.1476,-461.6704 270.3117,-466.7336 267.0738,-462.4352 271,-463.2 271,-463.2 271,-463.2 267.0738,-462.4352 271.6883,-459.6664 263.1476,-461.6704 263.1476,-461.6704"/>
<ellipse fill="none" stroke="#000000" cx="260.0066" cy="-461.0585" rx="3.2" ry="3.2"/>
</g>
<!-- principal -->
<g id="node3" class="node">
<title>principal</title>
<g id="a_node3"><a xlink:href="../../tables/principal.html" xlink:title="principal" target="_top">
<polygon fill="#ffffff" stroke="transparent" points="69,-501.7 69,-562.7 161,-562.7 161,-501.7 69,-501.7"/>
<polygon fill="#f5f5f5" stroke="transparent" points="69,-539.2 69,-562.2 161,-562.2 161,-539.2 69,-539.2"/>
<polygon fill="none" stroke="#000000" points="69,-539.2 69,-562.2 161,-562.2 161,-539.2 69,-539.2"/>
<text text-anchor="start" x="74" y="-548.3" font-family="Helvetica,sans-Serif" font-weight="bold" font-size="11.00" fill="#000000">principal</text>
<text text-anchor="start" x="126.0437" y="-547.3" font-family="Helvetica,sans-Serif" font-size="11.00" fill="#000000">[table]</text>
<polygon fill="none" stroke="#000000" points="69,-520.2 69,-539.2 161,-539.2 161,-520.2 69,-520.2"/>
<text text-anchor="start" x="72" y="-526.3" font-family="Helvetica,sans-Serif" font-size="11.00" fill="#000000">...</text>
<polygon fill="#ffffff" stroke="transparent" points="69,-501.2 69,-520.2 90,-520.2 90,-501.2 69,-501.2"/>
<polygon fill="none" stroke="#000000" points="69,-501.2 69,-520.2 90,-520.2 90,-501.2 69,-501.2"/>
<text text-anchor="start" x="71.7027" y="-507.3" font-family="Helvetica,sans-Serif" font-size="11.00" fill="#000000">&lt; 1</text>
<polygon fill="#ffffff" stroke="transparent" points="90,-501.2 90,-520.2 134,-520.2 134,-501.2 90,-501.2"/>
<polygon fill="none" stroke="#000000" points="90,-501.2 90,-520.2 134,-520.2 134,-501.2 90,-501.2"/>
<text text-anchor="start" x="92.7478" y="-507.3" font-family="Helvetica,sans-Serif" font-size="11.00" fill="#000000">18 rows</text>
<polygon fill="#ffffff" stroke="transparent" points="134,-501.2 134,-520.2 161,-520.2 161,-501.2 134,-501.2"/>
<polygon fill="none" stroke="#000000" points="134,-501.2 134,-520.2 161,-520.2 161,-501.2 134,-501.2"/>
<text text-anchor="start" x="136.6452" y="-507.3" font-family="Helvetica,sans-Serif" font-size="11.00" fill="#000000">56 &gt;</text>
</a>
</g>
</g>
<!-- ework_site&#45;&gt;principal -->
<g id="edge2" class="edge">
<title>ework_site:w&#45;&gt;principal:e</title>
<path fill="none" stroke="#000000" d="M256.1783,-529.2C218.9989,-529.2 204.5417,-529.2 161,-529.2"/>
<polygon fill="#000000" stroke="#000000" points="263,-529.2001 271,-532.8 267,-529.2 271,-529.2 271,-529.2 271,-529.2 267,-529.2 271,-525.6 263,-529.2001 263,-529.2001"/>
<ellipse fill="none" stroke="#000000" cx="259.8" cy="-529.2001" rx="3.2" ry="3.2"/>
</g>
<!-- ework_site&#45;&gt;principal -->
<g id="edge3" class="edge">
<title>ework_site:w&#45;&gt;principal:e</title>
<path fill="none" stroke="#000000" d="M256.4526,-507.8825C218.5331,-511.5959 205.5987,-529.2 161,-529.2"/>
<polygon fill="#000000" stroke="#000000" points="263.0088,-507.575 271.1687,-510.796 267.0044,-507.3875 271,-507.2 271,-507.2 271,-507.2 267.0044,-507.3875 270.8313,-503.604 263.0088,-507.575 263.0088,-507.575"/>
<ellipse fill="none" stroke="#000000" cx="259.8123" cy="-507.725" rx="3.2" ry="3.2"/>
</g>
<!-- ework_unit -->
<g id="node4" class="node">
<title>ework_unit</title>
<g id="a_node4"><a xlink:href="../../tables/ework_unit.html" xlink:title="ework_unit" target="_top">
<polygon fill="#ffffff" stroke="transparent" points="476,-523.7 476,-584.7 572,-584.7 572,-523.7 476,-523.7"/>
<polygon fill="#f5f5f5" stroke="transparent" points="476,-561.2 476,-584.2 572,-584.2 572,-561.2 476,-561.2"/>
<polygon fill="none" stroke="#000000" points="476,-561.2 476,-584.2 572,-584.2 572,-561.2 476,-561.2"/>
<text text-anchor="start" x="480.9125" y="-570.3" font-family="Helvetica,sans-Serif" font-weight="bold" font-size="11.00" fill="#000000">ework_unit</text>
<text text-anchor="start" x="537.5219" y="-569.3" font-family="Helvetica,sans-Serif" font-size="11.00" fill="#000000">[table]</text>
<polygon fill="none" stroke="#000000" points="476,-542.2 476,-561.2 572,-561.2 572,-542.2 476,-542.2"/>
<text text-anchor="start" x="479" y="-548.3" font-family="Helvetica,sans-Serif" font-size="11.00" fill="#000000">...</text>
<polygon fill="#ffffff" stroke="transparent" points="476,-523.2 476,-542.2 502,-542.2 502,-523.2 476,-523.2"/>
<polygon fill="none" stroke="#000000" points="476,-523.2 476,-542.2 502,-542.2 502,-523.2 476,-523.2"/>
<text text-anchor="start" x="479" y="-529.3" font-family="Helvetica,sans-Serif" font-size="11.00" fill="#000000">&lt; 1</text>
<polygon fill="#ffffff" stroke="transparent" points="502,-523.2 502,-542.2 548,-542.2 548,-523.2 502,-523.2"/>
<polygon fill="none" stroke="#000000" points="502,-523.2 502,-542.2 548,-542.2 548,-523.2 502,-523.2"/>
<text text-anchor="start" x="506.4956" y="-529.3" font-family="Helvetica,sans-Serif" font-size="11.00" fill="#000000">25 rows</text>
<polygon fill="#ffffff" stroke="transparent" points="548,-523.2 548,-542.2 572,-542.2 572,-523.2 548,-523.2"/>
<polygon fill="none" stroke="#000000" points="548,-523.2 548,-542.2 572,-542.2 572,-523.2 548,-523.2"/>
<text text-anchor="start" x="553.4053" y="-529.3" font-family="Helvetica,sans-Serif" font-size="11.00" fill="#000000">4 &gt;</text>
</a>
</g>
</g>
<!-- ework_unit&#45;&gt;ework_site -->
<g id="edge4" class="edge">
<title>ework_unit:w&#45;&gt;ework_site:e</title>
<path fill="none" stroke="#000000" d="M461.4909,-551.2C450.1774,-551.2 442.9931,-551.2 427,-551.2"/>
<polygon fill="#000000" stroke="#000000" points="468,-551.2001 476,-554.8 472,-551.2 476,-551.2 476,-551.2 476,-551.2 472,-551.2 476,-547.6 468,-551.2001 468,-551.2001"/>
<ellipse fill="none" stroke="#000000" cx="464.8" cy="-551.2001" rx="3.2" ry="3.2"/>
</g>
</g>
</svg>
