<?xml version="1.0" encoding="UTF-8" standalone="no"?>
<!DOCTYPE svg PUBLIC "-//W3C//DTD SVG 1.1//EN"
 "http://www.w3.org/Graphics/SVG/1.1/DTD/svg11.dtd">
<!-- Generated by graphviz version 2.40.1 (20161225.0304)
 -->
<!-- Title: oneDegreeRelationshipsDiagram Pages: 1 -->
<svg width="443pt" height="579pt"
 viewBox="0.00 0.00 443.00 578.70" xmlns="http://www.w3.org/2000/svg" xmlns:xlink="http://www.w3.org/1999/xlink">
<g id="graph0" class="graph" transform="scale(1 1) rotate(0) translate(4 574.7)">
<title>oneDegreeRelationshipsDiagram</title>
<polygon fill="#ffffff" stroke="transparent" points="-4,4 -4,-574.7 439,-574.7 439,4 -4,4"/>
<text text-anchor="middle" x="72.4936" y="-7.3" font-family="Helvetica,sans-Serif" font-size="11.00" fill="#000000">Generated by SchemaSpy</text>
<!-- ework_site -->
<g id="node1" class="node">
<title>ework_site</title>
<g id="a_node1"><a xlink:href="../../tables/ework_site.html" xlink:title="ework_site" target="_top">
<polygon fill="#ffffff" stroke="transparent" points="271,-395.7 271,-566.7 427,-566.7 427,-395.7 271,-395.7"/>
<polygon fill="#f5f5f5" stroke="transparent" points="271,-543.2 271,-566.2 427,-566.2 427,-543.2 271,-543.2"/>
<polygon fill="none" stroke="#000000" points="271,-543.2 271,-566.2 427,-566.2 427,-543.2 271,-543.2"/>
<text text-anchor="start" x="276" y="-552.3" font-family="Helvetica,sans-Serif" font-weight="bold" font-size="11.00" fill="#000000">ework_site</text>
<text text-anchor="start" x="392.0437" y="-551.3" font-family="Helvetica,sans-Serif" font-size="11.00" fill="#000000">[table]</text>
<polygon fill="none" stroke="#000000" points="271,-521.2 271,-543.2 427,-543.2 427,-521.2 271,-521.2"/>
<image xlink:href="../../images/primaryKeys.png" width="11px" height="12px" preserveAspectRatio="xMinYMin meet" x="276" y="-538.2"/>
<text text-anchor="start" x="291" y="-528.3" font-family="Helvetica,sans-Serif" font-size="11.00" fill="#000000">id</text>
<polygon fill="#ffffff" stroke="transparent" points="271,-499.2 271,-521.2 427,-521.2 427,-499.2 271,-499.2"/>
<polygon fill="none" stroke="#000000" points="271,-499.2 271,-521.2 427,-521.2 427,-499.2 271,-499.2"/>
<image xlink:href="../../images/foreignKeys.png" width="11px" height="12px" preserveAspectRatio="xMinYMin meet" x="276" y="-516.2"/>
<text text-anchor="start" x="291" y="-506.3" font-family="Helvetica,sans-Serif" font-size="11.00" fill="#000000">created_by</text>
<polygon fill="#ffffff" stroke="transparent" points="271,-477.2 271,-499.2 427,-499.2 427,-477.2 271,-477.2"/>
<polygon fill="none" stroke="#000000" points="271,-477.2 271,-499.2 427,-499.2 427,-477.2 271,-477.2"/>
<image xlink:href="../../images/foreignKeys.png" width="11px" height="12px" preserveAspectRatio="xMinYMin meet" x="276" y="-494.2"/>
<text text-anchor="start" x="291" y="-484.3" font-family="Helvetica,sans-Serif" font-size="11.00" fill="#000000">modified_by</text>
<polygon fill="#ffffff" stroke="transparent" points="271,-455.2 271,-477.2 427,-477.2 427,-455.2 271,-455.2"/>
<polygon fill="none" stroke="#000000" points="271,-455.2 271,-477.2 427,-477.2 427,-455.2 271,-455.2"/>
<text text-anchor="start" x="291" y="-462.3" font-family="Helvetica,sans-Serif" font-size="11.00" fill="#000000">logo_id</text>
<polygon fill="#ffffff" stroke="transparent" points="271,-433.2 271,-455.2 427,-455.2 427,-433.2 271,-433.2"/>
<polygon fill="none" stroke="#000000" points="271,-433.2 271,-455.2 427,-455.2 427,-433.2 271,-433.2"/>
<image xlink:href="../../images/foreignKeys.png" width="11px" height="12px" preserveAspectRatio="xMinYMin meet" x="276" y="-450.2"/>
<text text-anchor="start" x="291" y="-440.3" font-family="Helvetica,sans-Serif" font-size="11.00" fill="#000000">company_id</text>
<polygon fill="none" stroke="#000000" points="271,-414.2 271,-433.2 427,-433.2 427,-414.2 271,-414.2"/>
<text text-anchor="start" x="274" y="-420.3" font-family="Helvetica,sans-Serif" font-size="11.00" fill="#000000">...</text>
<polygon fill="#ffffff" stroke="transparent" points="271,-395.2 271,-414.2 330,-414.2 330,-395.2 271,-395.2"/>
<polygon fill="none" stroke="#000000" points="271,-395.2 271,-414.2 330,-414.2 330,-395.2 271,-395.2"/>
<text text-anchor="start" x="274" y="-401.3" font-family="Helvetica,sans-Serif" font-size="11.00" fill="#000000">&lt; 3</text>
<polygon fill="#ffffff" stroke="transparent" points="330,-395.2 330,-414.2 387,-414.2 387,-395.2 330,-395.2"/>
<polygon fill="none" stroke="#000000" points="330,-395.2 330,-414.2 387,-414.2 387,-395.2 330,-395.2"/>
<text text-anchor="start" x="351.6105" y="-401.3" font-family="Helvetica,sans-Serif" font-size="11.00" fill="#000000">9 rows</text>
<polygon fill="#ffffff" stroke="transparent" points="387,-395.2 387,-414.2 427,-414.2 427,-395.2 387,-395.2"/>
<polygon fill="none" stroke="#000000" points="387,-395.2 387,-414.2 427,-414.2 427,-395.2 387,-395.2"/>
<text text-anchor="start" x="408.4053" y="-401.3" font-family="Helvetica,sans-Serif" font-size="11.00" fill="#000000">1 &gt;</text>
</a>
</g>
</g>
<!-- ework_company -->
<g id="node2" class="node">
<title>ework_company</title>
<g id="a_node2"><a xlink:href="../../tables/ework_company.html" xlink:title="ework_company" target="_top">
<polygon fill="#ffffff" stroke="transparent" points="8,-38.2 8,-480.2 222,-480.2 222,-38.2 8,-38.2"/>
<polygon fill="#f5f5f5" stroke="transparent" points="10,-455.2 10,-478.2 220,-478.2 220,-455.2 10,-455.2"/>
<polygon fill="none" stroke="#000000" points="10,-455.2 10,-478.2 220,-478.2 220,-455.2 10,-455.2"/>
<text text-anchor="start" x="15" y="-464.3" font-family="Helvetica,sans-Serif" font-weight="bold" font-size="11.00" fill="#000000">ework_company</text>
<text text-anchor="start" x="185.0437" y="-463.3" font-family="Helvetica,sans-Serif" font-size="11.00" fill="#000000">[table]</text>
<polygon fill="none" stroke="#000000" points="10,-433.2 10,-455.2 153,-455.2 153,-433.2 10,-433.2"/>
<image xlink:href="../../images/primaryKeys.png" width="11px" height="12px" preserveAspectRatio="xMinYMin meet" x="15" y="-450.2"/>
<text text-anchor="start" x="30" y="-440.3" font-family="Helvetica,sans-Serif" font-size="11.00" fill="#000000">id</text>
<polygon fill="none" stroke="#000000" points="153,-433.2 153,-455.2 220,-455.2 220,-433.2 153,-433.2"/>
<text text-anchor="start" x="156" y="-440.9" font-family="Helvetica,sans-Serif" font-size="11.00" fill="#000000">bigint[19]</text>
<polygon fill="none" stroke="#000000" points="10,-411.2 10,-433.2 153,-433.2 153,-411.2 10,-411.2"/>
<text text-anchor="start" x="30" y="-418.3" font-family="Helvetica,sans-Serif" font-size="11.00" fill="#000000">created_by</text>
<polygon fill="none" stroke="#000000" points="153,-411.2 153,-433.2 220,-433.2 220,-411.2 153,-411.2"/>
<text text-anchor="start" x="156" y="-418.9" font-family="Helvetica,sans-Serif" font-size="11.00" fill="#000000">bigint[19]</text>
<polygon fill="none" stroke="#000000" points="10,-389.2 10,-411.2 153,-411.2 153,-389.2 10,-389.2"/>
<text text-anchor="start" x="30" y="-396.3" font-family="Helvetica,sans-Serif" font-size="11.00" fill="#000000">creation_date</text>
<polygon fill="none" stroke="#000000" points="153,-389.2 153,-411.2 220,-411.2 220,-389.2 153,-389.2"/>
<text text-anchor="start" x="156" y="-396.9" font-family="Helvetica,sans-Serif" font-size="11.00" fill="#000000">datetime[26]</text>
<polygon fill="none" stroke="#000000" points="10,-367.2 10,-389.2 153,-389.2 153,-367.2 10,-367.2"/>
<text text-anchor="start" x="30" y="-374.3" font-family="Helvetica,sans-Serif" font-size="11.00" fill="#000000">modified_by</text>
<polygon fill="none" stroke="#000000" points="153,-367.2 153,-389.2 220,-389.2 220,-367.2 153,-367.2"/>
<text text-anchor="start" x="156" y="-374.9" font-family="Helvetica,sans-Serif" font-size="11.00" fill="#000000">bigint[19]</text>
<polygon fill="none" stroke="#000000" points="10,-345.2 10,-367.2 153,-367.2 153,-345.2 10,-345.2"/>
<text text-anchor="start" x="30" y="-352.3" font-family="Helvetica,sans-Serif" font-size="11.00" fill="#000000">modification_date</text>
<polygon fill="none" stroke="#000000" points="153,-345.2 153,-367.2 220,-367.2 220,-345.2 153,-345.2"/>
<text text-anchor="start" x="156" y="-352.9" font-family="Helvetica,sans-Serif" font-size="11.00" fill="#000000">datetime[26]</text>
<polygon fill="none" stroke="#000000" points="10,-323.2 10,-345.2 153,-345.2 153,-323.2 10,-323.2"/>
<text text-anchor="start" x="30" y="-330.3" font-family="Helvetica,sans-Serif" font-size="11.00" fill="#000000">name</text>
<polygon fill="none" stroke="#000000" points="153,-323.2 153,-345.2 220,-345.2 220,-323.2 153,-323.2"/>
<text text-anchor="start" x="155.9365" y="-330.9" font-family="Helvetica,sans-Serif" font-size="11.00" fill="#000000">varchar[100]</text>
<polygon fill="none" stroke="#000000" points="10,-301.2 10,-323.2 153,-323.2 153,-301.2 10,-301.2"/>
<text text-anchor="start" x="30" y="-308.3" font-family="Helvetica,sans-Serif" font-size="11.00" fill="#000000">phone_number</text>
<polygon fill="none" stroke="#000000" points="153,-301.2 153,-323.2 220,-323.2 220,-301.2 153,-301.2"/>
<text text-anchor="start" x="156" y="-308.9" font-family="Helvetica,sans-Serif" font-size="11.00" fill="#000000">varchar[50]</text>
<polygon fill="none" stroke="#000000" points="10,-279.2 10,-301.2 153,-301.2 153,-279.2 10,-279.2"/>
<text text-anchor="start" x="30" y="-286.3" font-family="Helvetica,sans-Serif" font-size="11.00" fill="#000000">support_email</text>
<polygon fill="none" stroke="#000000" points="153,-279.2 153,-301.2 220,-301.2 220,-279.2 153,-279.2"/>
<text text-anchor="start" x="155.9365" y="-286.9" font-family="Helvetica,sans-Serif" font-size="11.00" fill="#000000">varchar[100]</text>
<polygon fill="#ffffff" stroke="transparent" points="10,-257.2 10,-279.2 153,-279.2 153,-257.2 10,-257.2"/>
<polygon fill="none" stroke="#000000" points="10,-257.2 10,-279.2 153,-279.2 153,-257.2 10,-257.2"/>
<text text-anchor="start" x="30" y="-264.3" font-family="Helvetica,sans-Serif" font-size="11.00" fill="#000000">vat_number</text>
<polygon fill="none" stroke="#000000" points="153,-257.2 153,-279.2 220,-279.2 220,-257.2 153,-257.2"/>
<text text-anchor="start" x="155.9365" y="-264.9" font-family="Helvetica,sans-Serif" font-size="11.00" fill="#000000">varchar[255]</text>
<polygon fill="#ffffff" stroke="transparent" points="10,-235.2 10,-257.2 153,-257.2 153,-235.2 10,-235.2"/>
<polygon fill="none" stroke="#000000" points="10,-235.2 10,-257.2 153,-257.2 153,-235.2 10,-235.2"/>
<text text-anchor="start" x="30" y="-242.3" font-family="Helvetica,sans-Serif" font-size="11.00" fill="#000000">organization_number</text>
<polygon fill="none" stroke="#000000" points="153,-235.2 153,-257.2 220,-257.2 220,-235.2 153,-235.2"/>
<text text-anchor="start" x="155.9365" y="-242.9" font-family="Helvetica,sans-Serif" font-size="11.00" fill="#000000">varchar[255]</text>
<polygon fill="none" stroke="#000000" points="10,-213.2 10,-235.2 153,-235.2 153,-213.2 10,-213.2"/>
<text text-anchor="start" x="30" y="-220.3" font-family="Helvetica,sans-Serif" font-size="11.00" fill="#000000">address_line1</text>
<polygon fill="none" stroke="#000000" points="153,-213.2 153,-235.2 220,-235.2 220,-213.2 153,-213.2"/>
<text text-anchor="start" x="155.9365" y="-220.9" font-family="Helvetica,sans-Serif" font-size="11.00" fill="#000000">varchar[255]</text>
<polygon fill="none" stroke="#000000" points="10,-191.2 10,-213.2 153,-213.2 153,-191.2 10,-191.2"/>
<text text-anchor="start" x="30" y="-198.3" font-family="Helvetica,sans-Serif" font-size="11.00" fill="#000000">address_line2</text>
<polygon fill="none" stroke="#000000" points="153,-191.2 153,-213.2 220,-213.2 220,-191.2 153,-191.2"/>
<text text-anchor="start" x="155.9365" y="-198.9" font-family="Helvetica,sans-Serif" font-size="11.00" fill="#000000">varchar[255]</text>
<polygon fill="none" stroke="#000000" points="10,-169.2 10,-191.2 153,-191.2 153,-169.2 10,-169.2"/>
<text text-anchor="start" x="30" y="-176.3" font-family="Helvetica,sans-Serif" font-size="11.00" fill="#000000">address_box</text>
<polygon fill="none" stroke="#000000" points="153,-169.2 153,-191.2 220,-191.2 220,-169.2 153,-169.2"/>
<text text-anchor="start" x="155.9365" y="-176.9" font-family="Helvetica,sans-Serif" font-size="11.00" fill="#000000">varchar[255]</text>
<polygon fill="none" stroke="#000000" points="10,-147.2 10,-169.2 153,-169.2 153,-147.2 10,-147.2"/>
<text text-anchor="start" x="30" y="-154.3" font-family="Helvetica,sans-Serif" font-size="11.00" fill="#000000">zip_code</text>
<polygon fill="none" stroke="#000000" points="153,-147.2 153,-169.2 220,-169.2 220,-147.2 153,-147.2"/>
<text text-anchor="start" x="156" y="-154.9" font-family="Helvetica,sans-Serif" font-size="11.00" fill="#000000">varchar[50]</text>
<polygon fill="none" stroke="#000000" points="10,-125.2 10,-147.2 153,-147.2 153,-125.2 10,-125.2"/>
<text text-anchor="start" x="30" y="-132.3" font-family="Helvetica,sans-Serif" font-size="11.00" fill="#000000">city</text>
<polygon fill="none" stroke="#000000" points="153,-125.2 153,-147.2 220,-147.2 220,-125.2 153,-125.2"/>
<text text-anchor="start" x="155.9365" y="-132.9" font-family="Helvetica,sans-Serif" font-size="11.00" fill="#000000">varchar[255]</text>
<polygon fill="none" stroke="#000000" points="10,-103.2 10,-125.2 153,-125.2 153,-103.2 10,-103.2"/>
<text text-anchor="start" x="30" y="-110.3" font-family="Helvetica,sans-Serif" font-size="11.00" fill="#000000">country</text>
<polygon fill="none" stroke="#000000" points="153,-103.2 153,-125.2 220,-125.2 220,-103.2 153,-103.2"/>
<text text-anchor="start" x="155.9365" y="-110.9" font-family="Helvetica,sans-Serif" font-size="11.00" fill="#000000">varchar[255]</text>
<polygon fill="none" stroke="#000000" points="10,-81.2 10,-103.2 153,-103.2 153,-81.2 10,-81.2"/>
<text text-anchor="start" x="30" y="-88.3" font-family="Helvetica,sans-Serif" font-size="11.00" fill="#000000">marketplace_token</text>
<polygon fill="none" stroke="#000000" points="153,-81.2 153,-103.2 220,-103.2 220,-81.2 153,-81.2"/>
<text text-anchor="start" x="155.9365" y="-88.9" font-family="Helvetica,sans-Serif" font-size="11.00" fill="#000000">varchar[255]</text>
<polygon fill="none" stroke="#000000" points="10,-59.2 10,-81.2 153,-81.2 153,-59.2 10,-59.2"/>
<text text-anchor="start" x="30" y="-66.3" font-family="Helvetica,sans-Serif" font-size="11.00" fill="#000000">phone_code</text>
<polygon fill="none" stroke="#000000" points="153,-59.2 153,-81.2 220,-81.2 220,-59.2 153,-59.2"/>
<text text-anchor="start" x="156" y="-66.9" font-family="Helvetica,sans-Serif" font-size="11.00" fill="#000000">varchar[2]</text>
<polygon fill="#ffffff" stroke="transparent" points="10,-40.2 10,-59.2 73,-59.2 73,-40.2 10,-40.2"/>
<polygon fill="none" stroke="#000000" points="10,-40.2 10,-59.2 73,-59.2 73,-40.2 10,-40.2"/>
<text text-anchor="start" x="13" y="-46.3" font-family="Helvetica,sans-Serif" font-size="11.00" fill="#000000">&lt; 0</text>
<polygon fill="#ffffff" stroke="transparent" points="73,-40.2 73,-59.2 153,-59.2 153,-40.2 73,-40.2"/>
<polygon fill="none" stroke="#000000" points="73,-40.2 73,-59.2 153,-59.2 153,-40.2 73,-40.2"/>
<text text-anchor="start" x="117.6105" y="-46.3" font-family="Helvetica,sans-Serif" font-size="11.00" fill="#000000">5 rows</text>
<polygon fill="#ffffff" stroke="transparent" points="153,-40.2 153,-59.2 220,-59.2 220,-40.2 153,-40.2"/>
<polygon fill="none" stroke="#000000" points="153,-40.2 153,-59.2 220,-59.2 220,-40.2 153,-40.2"/>
<text text-anchor="start" x="201.4053" y="-46.3" font-family="Helvetica,sans-Serif" font-size="11.00" fill="#000000">1 &gt;</text>
<polygon fill="none" stroke="#000000" stroke-width="2" points="9,-39.2 9,-479.2 221,-479.2 221,-39.2 9,-39.2"/>
</a>
</g>
</g>
<!-- ework_site&#45;&gt;ework_company -->
<g id="edge1" class="edge">
<title>ework_site:w&#45;&gt;ework_company:e</title>
<path fill="none" stroke="#000000" d="M256.276,-444.2C244.2815,-444.2 236.8229,-444.2 220,-444.2"/>
<polygon fill="#000000" stroke="#000000" points="263,-444.2001 271,-447.8 267,-444.2 271,-444.2 271,-444.2 271,-444.2 267,-444.2 271,-440.6 263,-444.2001 263,-444.2001"/>
<ellipse fill="none" stroke="#000000" cx="259.8" cy="-444.2001" rx="3.2" ry="3.2"/>
</g>
</g>
</svg>
