<?xml version="1.0" encoding="UTF-8" standalone="no"?>
<!DOCTYPE svg PUBLIC "-//W3C//DTD SVG 1.1//EN"
 "http://www.w3.org/Graphics/SVG/1.1/DTD/svg11.dtd">
<!-- Generated by graphviz version 2.40.1 (20161225.0304)
 -->
<!-- Title: oneDegreeRelationshipsDiagram Pages: 1 -->
<svg width="615pt" height="463pt"
 viewBox="0.00 0.00 615.00 463.20" xmlns="http://www.w3.org/2000/svg" xmlns:xlink="http://www.w3.org/1999/xlink">
<g id="graph0" class="graph" transform="scale(1 1) rotate(0) translate(4 459.2)">
<title>oneDegreeRelationshipsDiagram</title>
<polygon fill="#ffffff" stroke="transparent" points="-4,4 -4,-459.2 611,-459.2 611,4 -4,4"/>
<text text-anchor="middle" x="72.4936" y="-7.3" font-family="Helvetica,sans-Serif" font-size="11.00" fill="#000000">Generated by SchemaSpy</text>
<!-- ework_site -->
<g id="node1" class="node">
<title>ework_site</title>
<g id="a_node1"><a xlink:href="../../tables/ework_site.html" xlink:title="ework_site" target="_top">
<polygon fill="#ffffff" stroke="transparent" points="200,-98.7 200,-430.7 427,-430.7 427,-98.7 200,-98.7"/>
<polygon fill="#f5f5f5" stroke="transparent" points="202.5,-405.7 202.5,-428.7 425.5,-428.7 425.5,-405.7 202.5,-405.7"/>
<polygon fill="none" stroke="#000000" points="202.5,-405.7 202.5,-428.7 425.5,-428.7 425.5,-405.7 202.5,-405.7"/>
<text text-anchor="start" x="207.5" y="-414.8" font-family="Helvetica,sans-Serif" font-weight="bold" font-size="11.00" fill="#000000">ework_site</text>
<text text-anchor="start" x="390.5437" y="-413.8" font-family="Helvetica,sans-Serif" font-size="11.00" fill="#000000">[table]</text>
<polygon fill="none" stroke="#000000" points="202.5,-383.7 202.5,-405.7 358.5,-405.7 358.5,-383.7 202.5,-383.7"/>
<image xlink:href="../../images/primaryKeys.png" width="11px" height="12px" preserveAspectRatio="xMinYMin meet" x="207.5" y="-400.7"/>
<text text-anchor="start" x="222.5" y="-390.8" font-family="Helvetica,sans-Serif" font-size="11.00" fill="#000000">id</text>
<polygon fill="none" stroke="#000000" points="358.5,-383.7 358.5,-405.7 425.5,-405.7 425.5,-383.7 358.5,-383.7"/>
<text text-anchor="start" x="361.5" y="-391.4" font-family="Helvetica,sans-Serif" font-size="11.00" fill="#000000">bigint[19]</text>
<polygon fill="#ffffff" stroke="transparent" points="202.5,-361.7 202.5,-383.7 358.5,-383.7 358.5,-361.7 202.5,-361.7"/>
<polygon fill="none" stroke="#000000" points="202.5,-361.7 202.5,-383.7 358.5,-383.7 358.5,-361.7 202.5,-361.7"/>
<image xlink:href="../../images/foreignKeys.png" width="11px" height="12px" preserveAspectRatio="xMinYMin meet" x="207.5" y="-378.7"/>
<text text-anchor="start" x="222.5" y="-368.8" font-family="Helvetica,sans-Serif" font-size="11.00" fill="#000000">created_by</text>
<polygon fill="none" stroke="#000000" points="358.5,-361.7 358.5,-383.7 425.5,-383.7 425.5,-361.7 358.5,-361.7"/>
<text text-anchor="start" x="361.5" y="-369.4" font-family="Helvetica,sans-Serif" font-size="11.00" fill="#000000">bigint[19]</text>
<polygon fill="none" stroke="#000000" points="202.5,-339.7 202.5,-361.7 358.5,-361.7 358.5,-339.7 202.5,-339.7"/>
<text text-anchor="start" x="222.5" y="-346.8" font-family="Helvetica,sans-Serif" font-size="11.00" fill="#000000">creation_date</text>
<polygon fill="none" stroke="#000000" points="358.5,-339.7 358.5,-361.7 425.5,-361.7 425.5,-339.7 358.5,-339.7"/>
<text text-anchor="start" x="361.5" y="-347.4" font-family="Helvetica,sans-Serif" font-size="11.00" fill="#000000">datetime[26]</text>
<polygon fill="#ffffff" stroke="transparent" points="202.5,-317.7 202.5,-339.7 358.5,-339.7 358.5,-317.7 202.5,-317.7"/>
<polygon fill="none" stroke="#000000" points="202.5,-317.7 202.5,-339.7 358.5,-339.7 358.5,-317.7 202.5,-317.7"/>
<image xlink:href="../../images/foreignKeys.png" width="11px" height="12px" preserveAspectRatio="xMinYMin meet" x="207.5" y="-334.7"/>
<text text-anchor="start" x="222.5" y="-324.8" font-family="Helvetica,sans-Serif" font-size="11.00" fill="#000000">modified_by</text>
<polygon fill="none" stroke="#000000" points="358.5,-317.7 358.5,-339.7 425.5,-339.7 425.5,-317.7 358.5,-317.7"/>
<text text-anchor="start" x="361.5" y="-325.4" font-family="Helvetica,sans-Serif" font-size="11.00" fill="#000000">bigint[19]</text>
<polygon fill="none" stroke="#000000" points="202.5,-295.7 202.5,-317.7 358.5,-317.7 358.5,-295.7 202.5,-295.7"/>
<text text-anchor="start" x="222.5" y="-302.8" font-family="Helvetica,sans-Serif" font-size="11.00" fill="#000000">modification_date</text>
<polygon fill="none" stroke="#000000" points="358.5,-295.7 358.5,-317.7 425.5,-317.7 425.5,-295.7 358.5,-295.7"/>
<text text-anchor="start" x="361.5" y="-303.4" font-family="Helvetica,sans-Serif" font-size="11.00" fill="#000000">datetime[26]</text>
<polygon fill="none" stroke="#000000" points="202.5,-273.7 202.5,-295.7 358.5,-295.7 358.5,-273.7 202.5,-273.7"/>
<text text-anchor="start" x="222.5" y="-280.8" font-family="Helvetica,sans-Serif" font-size="11.00" fill="#000000">system_id</text>
<polygon fill="none" stroke="#000000" points="358.5,-273.7 358.5,-295.7 425.5,-295.7 425.5,-273.7 358.5,-273.7"/>
<text text-anchor="start" x="361.4365" y="-281.4" font-family="Helvetica,sans-Serif" font-size="11.00" fill="#000000">varchar[255]</text>
<polygon fill="none" stroke="#000000" points="202.5,-251.7 202.5,-273.7 358.5,-273.7 358.5,-251.7 202.5,-251.7"/>
<text text-anchor="start" x="222.5" y="-258.8" font-family="Helvetica,sans-Serif" font-size="11.00" fill="#000000">name</text>
<polygon fill="none" stroke="#000000" points="358.5,-251.7 358.5,-273.7 425.5,-273.7 425.5,-251.7 358.5,-251.7"/>
<text text-anchor="start" x="361.4365" y="-259.4" font-family="Helvetica,sans-Serif" font-size="11.00" fill="#000000">varchar[100]</text>
<polygon fill="none" stroke="#000000" points="202.5,-229.7 202.5,-251.7 358.5,-251.7 358.5,-229.7 202.5,-229.7"/>
<text text-anchor="start" x="222.5" y="-236.8" font-family="Helvetica,sans-Serif" font-size="11.00" fill="#000000">theme_color</text>
<polygon fill="none" stroke="#000000" points="358.5,-229.7 358.5,-251.7 425.5,-251.7 425.5,-229.7 358.5,-229.7"/>
<text text-anchor="start" x="361.4365" y="-237.4" font-family="Helvetica,sans-Serif" font-size="11.00" fill="#000000">varchar[255]</text>
<polygon fill="none" stroke="#000000" points="202.5,-207.7 202.5,-229.7 358.5,-229.7 358.5,-207.7 202.5,-207.7"/>
<text text-anchor="start" x="222.5" y="-214.8" font-family="Helvetica,sans-Serif" font-size="11.00" fill="#000000">url</text>
<polygon fill="none" stroke="#000000" points="358.5,-207.7 358.5,-229.7 425.5,-229.7 425.5,-207.7 358.5,-207.7"/>
<text text-anchor="start" x="361.4365" y="-215.4" font-family="Helvetica,sans-Serif" font-size="11.00" fill="#000000">varchar[255]</text>
<polygon fill="none" stroke="#000000" points="202.5,-185.7 202.5,-207.7 358.5,-207.7 358.5,-185.7 202.5,-185.7"/>
<text text-anchor="start" x="222.5" y="-192.8" font-family="Helvetica,sans-Serif" font-size="11.00" fill="#000000">vat_no</text>
<polygon fill="none" stroke="#000000" points="358.5,-185.7 358.5,-207.7 425.5,-207.7 425.5,-185.7 358.5,-185.7"/>
<text text-anchor="start" x="361.4365" y="-193.4" font-family="Helvetica,sans-Serif" font-size="11.00" fill="#000000">varchar[255]</text>
<polygon fill="none" stroke="#000000" points="202.5,-163.7 202.5,-185.7 358.5,-185.7 358.5,-163.7 202.5,-163.7"/>
<text text-anchor="start" x="222.5" y="-170.8" font-family="Helvetica,sans-Serif" font-size="11.00" fill="#000000">default_full_time_hours</text>
<polygon fill="none" stroke="#000000" points="358.5,-163.7 358.5,-185.7 425.5,-185.7 425.5,-163.7 358.5,-163.7"/>
<text text-anchor="start" x="361.5" y="-171.4" font-family="Helvetica,sans-Serif" font-size="11.00" fill="#000000">decimal[4,1]</text>
<polygon fill="#ffffff" stroke="transparent" points="202.5,-141.7 202.5,-163.7 358.5,-163.7 358.5,-141.7 202.5,-141.7"/>
<polygon fill="none" stroke="#000000" points="202.5,-141.7 202.5,-163.7 358.5,-163.7 358.5,-141.7 202.5,-141.7"/>
<text text-anchor="start" x="222.5" y="-148.8" font-family="Helvetica,sans-Serif" font-size="11.00" fill="#000000">logo_id</text>
<polygon fill="none" stroke="#000000" points="358.5,-141.7 358.5,-163.7 425.5,-163.7 425.5,-141.7 358.5,-141.7"/>
<text text-anchor="start" x="361.5" y="-149.4" font-family="Helvetica,sans-Serif" font-size="11.00" fill="#000000">bigint[19]</text>
<polygon fill="#ffffff" stroke="transparent" points="202.5,-119.7 202.5,-141.7 358.5,-141.7 358.5,-119.7 202.5,-119.7"/>
<polygon fill="none" stroke="#000000" points="202.5,-119.7 202.5,-141.7 358.5,-141.7 358.5,-119.7 202.5,-119.7"/>
<image xlink:href="../../images/foreignKeys.png" width="11px" height="12px" preserveAspectRatio="xMinYMin meet" x="207.5" y="-136.7"/>
<text text-anchor="start" x="222.5" y="-126.8" font-family="Helvetica,sans-Serif" font-size="11.00" fill="#000000">company_id</text>
<polygon fill="none" stroke="#000000" points="358.5,-119.7 358.5,-141.7 425.5,-141.7 425.5,-119.7 358.5,-119.7"/>
<text text-anchor="start" x="361.5" y="-127.4" font-family="Helvetica,sans-Serif" font-size="11.00" fill="#000000">bigint[19]</text>
<polygon fill="#ffffff" stroke="transparent" points="202.5,-100.7 202.5,-119.7 271.5,-119.7 271.5,-100.7 202.5,-100.7"/>
<polygon fill="none" stroke="#000000" points="202.5,-100.7 202.5,-119.7 271.5,-119.7 271.5,-100.7 202.5,-100.7"/>
<text text-anchor="start" x="205.5" y="-106.8" font-family="Helvetica,sans-Serif" font-size="11.00" fill="#000000">&lt; 3</text>
<polygon fill="#ffffff" stroke="transparent" points="271.5,-100.7 271.5,-119.7 358.5,-119.7 358.5,-100.7 271.5,-100.7"/>
<polygon fill="none" stroke="#000000" points="271.5,-100.7 271.5,-119.7 358.5,-119.7 358.5,-100.7 271.5,-100.7"/>
<text text-anchor="start" x="323.1105" y="-106.8" font-family="Helvetica,sans-Serif" font-size="11.00" fill="#000000">9 rows</text>
<polygon fill="#ffffff" stroke="transparent" points="358.5,-100.7 358.5,-119.7 425.5,-119.7 425.5,-100.7 358.5,-100.7"/>
<polygon fill="none" stroke="#000000" points="358.5,-100.7 358.5,-119.7 425.5,-119.7 425.5,-100.7 358.5,-100.7"/>
<text text-anchor="start" x="406.9053" y="-106.8" font-family="Helvetica,sans-Serif" font-size="11.00" fill="#000000">1 &gt;</text>
<polygon fill="none" stroke="#000000" stroke-width="2" points="201,-99.7 201,-429.7 426,-429.7 426,-99.7 201,-99.7"/>
</a>
</g>
</g>
<!-- ework_company -->
<g id="node2" class="node">
<title>ework_company</title>
<g id="a_node2"><a xlink:href="../../tables/ework_company.html" xlink:title="ework_company" target="_top">
<polygon fill="#ffffff" stroke="transparent" points="8,-38.2 8,-165.2 151,-165.2 151,-38.2 8,-38.2"/>
<polygon fill="#f5f5f5" stroke="transparent" points="8.5,-141.7 8.5,-164.7 151.5,-164.7 151.5,-141.7 8.5,-141.7"/>
<polygon fill="none" stroke="#000000" points="8.5,-141.7 8.5,-164.7 151.5,-164.7 151.5,-141.7 8.5,-141.7"/>
<text text-anchor="start" x="13.5" y="-150.8" font-family="Helvetica,sans-Serif" font-weight="bold" font-size="11.00" fill="#000000">ework_company</text>
<text text-anchor="start" x="116.5437" y="-149.8" font-family="Helvetica,sans-Serif" font-size="11.00" fill="#000000">[table]</text>
<polygon fill="none" stroke="#000000" points="8.5,-119.7 8.5,-141.7 151.5,-141.7 151.5,-119.7 8.5,-119.7"/>
<image xlink:href="../../images/primaryKeys.png" width="11px" height="12px" preserveAspectRatio="xMinYMin meet" x="13.5" y="-136.7"/>
<text text-anchor="start" x="28.5" y="-126.8" font-family="Helvetica,sans-Serif" font-size="11.00" fill="#000000">id</text>
<polygon fill="#ffffff" stroke="transparent" points="8.5,-97.7 8.5,-119.7 151.5,-119.7 151.5,-97.7 8.5,-97.7"/>
<polygon fill="none" stroke="#000000" points="8.5,-97.7 8.5,-119.7 151.5,-119.7 151.5,-97.7 8.5,-97.7"/>
<text text-anchor="start" x="28.5" y="-104.8" font-family="Helvetica,sans-Serif" font-size="11.00" fill="#000000">vat_number</text>
<polygon fill="#ffffff" stroke="transparent" points="8.5,-75.7 8.5,-97.7 151.5,-97.7 151.5,-75.7 8.5,-75.7"/>
<polygon fill="none" stroke="#000000" points="8.5,-75.7 8.5,-97.7 151.5,-97.7 151.5,-75.7 8.5,-75.7"/>
<text text-anchor="start" x="28.5" y="-82.8" font-family="Helvetica,sans-Serif" font-size="11.00" fill="#000000">organization_number</text>
<polygon fill="none" stroke="#000000" points="8.5,-56.7 8.5,-75.7 151.5,-75.7 151.5,-56.7 8.5,-56.7"/>
<text text-anchor="start" x="11.5" y="-62.8" font-family="Helvetica,sans-Serif" font-size="11.00" fill="#000000">...</text>
<polygon fill="#ffffff" stroke="transparent" points="8.5,-37.7 8.5,-56.7 56.5,-56.7 56.5,-37.7 8.5,-37.7"/>
<polygon fill="none" stroke="#000000" points="8.5,-37.7 8.5,-56.7 56.5,-56.7 56.5,-37.7 8.5,-37.7"/>
<text text-anchor="start" x="11.5" y="-43.8" font-family="Helvetica,sans-Serif" font-size="11.00" fill="#000000"> &#160;</text>
<polygon fill="#ffffff" stroke="transparent" points="56.5,-37.7 56.5,-56.7 112.5,-56.7 112.5,-37.7 56.5,-37.7"/>
<polygon fill="none" stroke="#000000" points="56.5,-37.7 56.5,-56.7 112.5,-56.7 112.5,-37.7 56.5,-37.7"/>
<text text-anchor="start" x="77.1105" y="-43.8" font-family="Helvetica,sans-Serif" font-size="11.00" fill="#000000">5 rows</text>
<polygon fill="#ffffff" stroke="transparent" points="112.5,-37.7 112.5,-56.7 151.5,-56.7 151.5,-37.7 112.5,-37.7"/>
<polygon fill="none" stroke="#000000" points="112.5,-37.7 112.5,-56.7 151.5,-56.7 151.5,-37.7 112.5,-37.7"/>
<text text-anchor="start" x="132.9053" y="-43.8" font-family="Helvetica,sans-Serif" font-size="11.00" fill="#000000">1 &gt;</text>
</a>
</g>
</g>
<!-- ework_site&#45;&gt;ework_company -->
<g id="edge1" class="edge">
<title>ework_site:w&#45;&gt;ework_company:e</title>
<path fill="none" stroke="#000000" d="M187.776,-130.7C175.7815,-130.7 168.3229,-130.7 151.5,-130.7"/>
<polygon fill="#000000" stroke="#000000" points="194.5,-130.7001 202.5,-134.3 198.5,-130.7 202.5,-130.7 202.5,-130.7 202.5,-130.7 198.5,-130.7 202.5,-127.1 194.5,-130.7001 194.5,-130.7001"/>
<ellipse fill="none" stroke="#000000" cx="191.3" cy="-130.7001" rx="3.2" ry="3.2"/>
</g>
<!-- principal -->
<g id="node3" class="node">
<title>principal</title>
<g id="a_node3"><a xlink:href="../../tables/principal.html" xlink:title="principal" target="_top">
<polygon fill="#ffffff" stroke="transparent" points="33.5,-280.2 33.5,-385.2 125.5,-385.2 125.5,-280.2 33.5,-280.2"/>
<polygon fill="#f5f5f5" stroke="transparent" points="33.5,-361.7 33.5,-384.7 125.5,-384.7 125.5,-361.7 33.5,-361.7"/>
<polygon fill="none" stroke="#000000" points="33.5,-361.7 33.5,-384.7 125.5,-384.7 125.5,-361.7 33.5,-361.7"/>
<text text-anchor="start" x="38.5" y="-370.8" font-family="Helvetica,sans-Serif" font-weight="bold" font-size="11.00" fill="#000000">principal</text>
<text text-anchor="start" x="90.5437" y="-369.8" font-family="Helvetica,sans-Serif" font-size="11.00" fill="#000000">[table]</text>
<polygon fill="none" stroke="#000000" points="33.5,-339.7 33.5,-361.7 125.5,-361.7 125.5,-339.7 33.5,-339.7"/>
<image xlink:href="../../images/primaryKeys.png" width="11px" height="12px" preserveAspectRatio="xMinYMin meet" x="38.5" y="-356.7"/>
<text text-anchor="start" x="57.5" y="-346.8" font-family="Helvetica,sans-Serif" font-size="11.00" fill="#000000">id</text>
<polygon fill="#ffffff" stroke="transparent" points="33.5,-317.7 33.5,-339.7 125.5,-339.7 125.5,-317.7 33.5,-317.7"/>
<polygon fill="none" stroke="#000000" points="33.5,-317.7 33.5,-339.7 125.5,-339.7 125.5,-317.7 33.5,-317.7"/>
<image xlink:href="../../images/foreignKeys.png" width="11px" height="12px" preserveAspectRatio="xMinYMin meet" x="38.5" y="-334.7"/>
<text text-anchor="start" x="57.5" y="-324.8" font-family="Helvetica,sans-Serif" font-size="11.00" fill="#000000">eworker_id</text>
<polygon fill="none" stroke="#000000" points="33.5,-298.7 33.5,-317.7 125.5,-317.7 125.5,-298.7 33.5,-298.7"/>
<text text-anchor="start" x="36.5" y="-304.8" font-family="Helvetica,sans-Serif" font-size="11.00" fill="#000000">...</text>
<polygon fill="#ffffff" stroke="transparent" points="33.5,-279.7 33.5,-298.7 54.5,-298.7 54.5,-279.7 33.5,-279.7"/>
<polygon fill="none" stroke="#000000" points="33.5,-279.7 33.5,-298.7 54.5,-298.7 54.5,-279.7 33.5,-279.7"/>
<text text-anchor="start" x="36.2027" y="-285.8" font-family="Helvetica,sans-Serif" font-size="11.00" fill="#000000">&lt; 1</text>
<polygon fill="#ffffff" stroke="transparent" points="54.5,-279.7 54.5,-298.7 98.5,-298.7 98.5,-279.7 54.5,-279.7"/>
<polygon fill="none" stroke="#000000" points="54.5,-279.7 54.5,-298.7 98.5,-298.7 98.5,-279.7 54.5,-279.7"/>
<text text-anchor="start" x="57.2478" y="-285.8" font-family="Helvetica,sans-Serif" font-size="11.00" fill="#000000">18 rows</text>
<polygon fill="#ffffff" stroke="transparent" points="98.5,-279.7 98.5,-298.7 125.5,-298.7 125.5,-279.7 98.5,-279.7"/>
<polygon fill="none" stroke="#000000" points="98.5,-279.7 98.5,-298.7 125.5,-298.7 125.5,-279.7 98.5,-279.7"/>
<text text-anchor="start" x="101.1452" y="-285.8" font-family="Helvetica,sans-Serif" font-size="11.00" fill="#000000">56 &gt;</text>
</a>
</g>
</g>
<!-- ework_site&#45;&gt;principal -->
<g id="edge2" class="edge">
<title>ework_site:w&#45;&gt;principal:e</title>
<path fill="none" stroke="#000000" d="M188.0961,-371.3238C164.445,-366.5075 155.6695,-350.7 125.5,-350.7"/>
<polygon fill="#000000" stroke="#000000" points="194.5363,-371.9391 202.1576,-376.2837 198.5181,-372.3195 202.5,-372.7 202.5,-372.7 202.5,-372.7 198.5181,-372.3195 202.8424,-369.1163 194.5363,-371.9391 194.5363,-371.9391"/>
<ellipse fill="none" stroke="#000000" cx="191.3508" cy="-371.6347" rx="3.2" ry="3.2"/>
</g>
<!-- ework_site&#45;&gt;principal -->
<g id="edge3" class="edge">
<title>ework_site:w&#45;&gt;principal:e</title>
<path fill="none" stroke="#000000" d="M188.0961,-330.0762C164.445,-334.8925 155.6695,-350.7 125.5,-350.7"/>
<polygon fill="#000000" stroke="#000000" points="194.5363,-329.4609 202.8424,-332.2837 198.5181,-329.0805 202.5,-328.7 202.5,-328.7 202.5,-328.7 198.5181,-329.0805 202.1576,-325.1163 194.5363,-329.4609 194.5363,-329.4609"/>
<ellipse fill="none" stroke="#000000" cx="191.3508" cy="-329.7653" rx="3.2" ry="3.2"/>
</g>
<!-- ework_unit -->
<g id="node4" class="node">
<title>ework_unit</title>
<g id="a_node4"><a xlink:href="../../tables/ework_unit.html" xlink:title="ework_unit" target="_top">
<polygon fill="#ffffff" stroke="transparent" points="476,-346.2 476,-451.2 599,-451.2 599,-346.2 476,-346.2"/>
<polygon fill="#f5f5f5" stroke="transparent" points="476.5,-427.7 476.5,-450.7 599.5,-450.7 599.5,-427.7 476.5,-427.7"/>
<polygon fill="none" stroke="#000000" points="476.5,-427.7 476.5,-450.7 599.5,-450.7 599.5,-427.7 476.5,-427.7"/>
<text text-anchor="start" x="481.5" y="-436.8" font-family="Helvetica,sans-Serif" font-weight="bold" font-size="11.00" fill="#000000">ework_unit</text>
<text text-anchor="start" x="564.5437" y="-435.8" font-family="Helvetica,sans-Serif" font-size="11.00" fill="#000000">[table]</text>
<polygon fill="none" stroke="#000000" points="476.5,-405.7 476.5,-427.7 599.5,-427.7 599.5,-405.7 476.5,-405.7"/>
<image xlink:href="../../images/primaryKeys.png" width="11px" height="12px" preserveAspectRatio="xMinYMin meet" x="481.5" y="-422.7"/>
<text text-anchor="start" x="496.5" y="-412.8" font-family="Helvetica,sans-Serif" font-size="11.00" fill="#000000">id</text>
<polygon fill="#ffffff" stroke="transparent" points="476.5,-383.7 476.5,-405.7 599.5,-405.7 599.5,-383.7 476.5,-383.7"/>
<polygon fill="none" stroke="#000000" points="476.5,-383.7 476.5,-405.7 599.5,-405.7 599.5,-383.7 476.5,-383.7"/>
<image xlink:href="../../images/foreignKeys.png" width="11px" height="12px" preserveAspectRatio="xMinYMin meet" x="481.5" y="-400.7"/>
<text text-anchor="start" x="496.5" y="-390.8" font-family="Helvetica,sans-Serif" font-size="11.00" fill="#000000">site_id</text>
<polygon fill="none" stroke="#000000" points="476.5,-364.7 476.5,-383.7 599.5,-383.7 599.5,-364.7 476.5,-364.7"/>
<text text-anchor="start" x="479.5" y="-370.8" font-family="Helvetica,sans-Serif" font-size="11.00" fill="#000000">...</text>
<polygon fill="#ffffff" stroke="transparent" points="476.5,-345.7 476.5,-364.7 515.5,-364.7 515.5,-345.7 476.5,-345.7"/>
<polygon fill="none" stroke="#000000" points="476.5,-345.7 476.5,-364.7 515.5,-364.7 515.5,-345.7 476.5,-345.7"/>
<text text-anchor="start" x="479.5" y="-351.8" font-family="Helvetica,sans-Serif" font-size="11.00" fill="#000000">&lt; 1</text>
<polygon fill="#ffffff" stroke="transparent" points="515.5,-345.7 515.5,-364.7 568.5,-364.7 568.5,-345.7 515.5,-345.7"/>
<polygon fill="none" stroke="#000000" points="515.5,-345.7 515.5,-364.7 568.5,-364.7 568.5,-345.7 515.5,-345.7"/>
<text text-anchor="start" x="526.9956" y="-351.8" font-family="Helvetica,sans-Serif" font-size="11.00" fill="#000000">25 rows</text>
<polygon fill="#ffffff" stroke="transparent" points="568.5,-345.7 568.5,-364.7 599.5,-364.7 599.5,-345.7 568.5,-345.7"/>
<polygon fill="none" stroke="#000000" points="568.5,-345.7 568.5,-364.7 599.5,-364.7 599.5,-345.7 568.5,-345.7"/>
<text text-anchor="start" x="580.9053" y="-351.8" font-family="Helvetica,sans-Serif" font-size="11.00" fill="#000000">4 &gt;</text>
</a>
</g>
</g>
<!-- ework_unit&#45;&gt;ework_site -->
<g id="edge4" class="edge">
<title>ework_unit:w&#45;&gt;ework_site:e</title>
<path fill="none" stroke="#000000" d="M461.776,-394.7C449.7815,-394.7 442.3229,-394.7 425.5,-394.7"/>
<polygon fill="#000000" stroke="#000000" points="468.5,-394.7001 476.5,-398.3 472.5,-394.7 476.5,-394.7 476.5,-394.7 476.5,-394.7 472.5,-394.7 476.5,-391.1 468.5,-394.7001 468.5,-394.7001"/>
<ellipse fill="none" stroke="#000000" cx="465.3" cy="-394.7001" rx="3.2" ry="3.2"/>
</g>
</g>
</svg>
