<?xml version="1.0" encoding="UTF-8" standalone="no"?>
<!DOCTYPE svg PUBLIC "-//W3C//DTD SVG 1.1//EN"
 "http://www.w3.org/Graphics/SVG/1.1/DTD/svg11.dtd">
<!-- Generated by graphviz version 2.40.1 (20161225.0304)
 -->
<!-- Title: twoDegreesRelationshipsDiagram Pages: 1 -->
<svg width="1096pt" height="465pt"
 viewBox="0.00 0.00 1096.00 464.64" xmlns="http://www.w3.org/2000/svg" xmlns:xlink="http://www.w3.org/1999/xlink">
<g id="graph0" class="graph" transform="scale(1 1) rotate(0) translate(4 460.6446)">
<title>twoDegreesRelationshipsDiagram</title>
<polygon fill="#ffffff" stroke="transparent" points="-4,4 -4,-460.6446 1092,-460.6446 1092,4 -4,4"/>
<text text-anchor="middle" x="72.4936" y="-7.3" font-family="Helvetica,sans-Serif" font-size="11.00" fill="#000000">Generated by SchemaSpy</text>
<!-- client -->
<g id="node1" class="node">
<title>client</title>
<g id="a_node1"><a xlink:href="../../tables/client.html" xlink:title="client" target="_top">
<polygon fill="#ffffff" stroke="transparent" points="687,-143.979 687,-204.979 779,-204.979 779,-143.979 687,-143.979"/>
<polygon fill="#f5f5f5" stroke="transparent" points="687,-181.479 687,-204.479 779,-204.479 779,-181.479 687,-181.479"/>
<polygon fill="none" stroke="#000000" points="687,-181.479 687,-204.479 779,-204.479 779,-181.479 687,-181.479"/>
<text text-anchor="start" x="692" y="-190.579" font-family="Helvetica,sans-Serif" font-weight="bold" font-size="11.00" fill="#000000">client</text>
<text text-anchor="start" x="744.0437" y="-189.579" font-family="Helvetica,sans-Serif" font-size="11.00" fill="#000000">[table]</text>
<polygon fill="none" stroke="#000000" points="687,-162.479 687,-181.479 779,-181.479 779,-162.479 687,-162.479"/>
<text text-anchor="start" x="690" y="-168.579" font-family="Helvetica,sans-Serif" font-size="11.00" fill="#000000">...</text>
<polygon fill="#ffffff" stroke="transparent" points="687,-143.479 687,-162.479 708,-162.479 708,-143.479 687,-143.479"/>
<polygon fill="none" stroke="#000000" points="687,-143.479 687,-162.479 708,-162.479 708,-143.479 687,-143.479"/>
<text text-anchor="start" x="689.7026" y="-149.579" font-family="Helvetica,sans-Serif" font-size="11.00" fill="#000000">&lt; 9</text>
<polygon fill="#ffffff" stroke="transparent" points="708,-143.479 708,-162.479 758,-162.479 758,-143.479 708,-143.479"/>
<polygon fill="none" stroke="#000000" points="708,-143.479 708,-162.479 758,-162.479 758,-143.479 708,-143.479"/>
<text text-anchor="start" x="710.6904" y="-149.579" font-family="Helvetica,sans-Serif" font-size="11.00" fill="#000000">647 rows</text>
<polygon fill="#ffffff" stroke="transparent" points="758,-143.479 758,-162.479 779,-162.479 779,-143.479 758,-143.479"/>
<polygon fill="none" stroke="#000000" points="758,-143.479 758,-162.479 779,-162.479 779,-143.479 758,-143.479"/>
<text text-anchor="start" x="760.7026" y="-149.579" font-family="Helvetica,sans-Serif" font-size="11.00" fill="#000000">7 &gt;</text>
</a>
</g>
</g>
<!-- file -->
<g id="node2" class="node">
<title>file</title>
<g id="a_node2"><a xlink:href="../../tables/file.html" xlink:title="file" target="_top">
<polygon fill="#ffffff" stroke="transparent" points="540,-53.979 540,-114.979 638,-114.979 638,-53.979 540,-53.979"/>
<polygon fill="#f5f5f5" stroke="transparent" points="540,-91.479 540,-114.479 638,-114.479 638,-91.479 540,-91.479"/>
<polygon fill="none" stroke="#000000" points="540,-91.479 540,-114.479 638,-114.479 638,-91.479 540,-91.479"/>
<text text-anchor="start" x="545" y="-100.579" font-family="Helvetica,sans-Serif" font-weight="bold" font-size="11.00" fill="#000000">file</text>
<text text-anchor="start" x="603.0437" y="-99.579" font-family="Helvetica,sans-Serif" font-size="11.00" fill="#000000">[table]</text>
<polygon fill="none" stroke="#000000" points="540,-72.479 540,-91.479 638,-91.479 638,-72.479 540,-72.479"/>
<text text-anchor="start" x="543" y="-78.579" font-family="Helvetica,sans-Serif" font-size="11.00" fill="#000000">...</text>
<polygon fill="#ffffff" stroke="transparent" points="540,-53.479 540,-72.479 561,-72.479 561,-53.479 540,-53.479"/>
<polygon fill="none" stroke="#000000" points="540,-53.479 540,-72.479 561,-72.479 561,-53.479 540,-53.479"/>
<text text-anchor="start" x="542.7026" y="-59.579" font-family="Helvetica,sans-Serif" font-size="11.00" fill="#000000">&lt; 2</text>
<polygon fill="#ffffff" stroke="transparent" points="561,-53.479 561,-72.479 611,-72.479 611,-53.479 561,-53.479"/>
<polygon fill="none" stroke="#000000" points="561,-53.479 561,-72.479 611,-72.479 611,-53.479 561,-53.479"/>
<text text-anchor="start" x="563.6904" y="-59.579" font-family="Helvetica,sans-Serif" font-size="11.00" fill="#000000">590 rows</text>
<polygon fill="#ffffff" stroke="transparent" points="611,-53.479 611,-72.479 638,-72.479 638,-53.479 611,-53.479"/>
<polygon fill="none" stroke="#000000" points="611,-53.479 611,-72.479 638,-72.479 638,-53.479 611,-53.479"/>
<text text-anchor="start" x="613.6452" y="-59.579" font-family="Helvetica,sans-Serif" font-size="11.00" fill="#000000">13 &gt;</text>
</a>
</g>
</g>
<!-- client&#45;&gt;file -->
<g id="edge1" class="edge">
<title>client:w&#45;&gt;file:e</title>
<path fill="none" stroke="#000000" d="M673.0802,-167.1381C651.0898,-149.1603 677.4953,-81.479 638,-81.479"/>
<polygon fill="#000000" stroke="#000000" points="679.3627,-169.0973 685.9282,-174.9158 683.1814,-170.2881 687,-171.479 687,-171.479 687,-171.479 683.1814,-170.2881 688.0718,-168.0422 679.3627,-169.0973 679.3627,-169.0973"/>
<ellipse fill="none" stroke="#000000" cx="676.3078" cy="-168.1446" rx="3.2" ry="3.2"/>
</g>
<!-- eworker -->
<g id="node3" class="node">
<title>eworker</title>
<g id="a_node3"><a xlink:href="../../tables/eworker.html" xlink:title="eworker" target="_top">
<polygon fill="#ffffff" stroke="transparent" points="153,-70.979 153,-263.979 276,-263.979 276,-70.979 153,-70.979"/>
<polygon fill="#f5f5f5" stroke="transparent" points="153.5,-240.479 153.5,-263.479 276.5,-263.479 276.5,-240.479 153.5,-240.479"/>
<polygon fill="none" stroke="#000000" points="153.5,-240.479 153.5,-263.479 276.5,-263.479 276.5,-240.479 153.5,-240.479"/>
<text text-anchor="start" x="158.5" y="-249.579" font-family="Helvetica,sans-Serif" font-weight="bold" font-size="11.00" fill="#000000">eworker</text>
<text text-anchor="start" x="241.5437" y="-248.579" font-family="Helvetica,sans-Serif" font-size="11.00" fill="#000000">[table]</text>
<polygon fill="none" stroke="#000000" points="153.5,-218.479 153.5,-240.479 276.5,-240.479 276.5,-218.479 153.5,-218.479"/>
<image xlink:href="../../images/primaryKeys.png" width="11px" height="12px" preserveAspectRatio="xMinYMin meet" x="158.5" y="-235.479"/>
<text text-anchor="start" x="173.5" y="-225.579" font-family="Helvetica,sans-Serif" font-size="11.00" fill="#000000">id</text>
<polygon fill="#ffffff" stroke="transparent" points="153.5,-196.479 153.5,-218.479 276.5,-218.479 276.5,-196.479 153.5,-196.479"/>
<polygon fill="none" stroke="#000000" points="153.5,-196.479 153.5,-218.479 276.5,-218.479 276.5,-196.479 153.5,-196.479"/>
<image xlink:href="../../images/foreignKeys.png" width="11px" height="12px" preserveAspectRatio="xMinYMin meet" x="158.5" y="-213.479"/>
<text text-anchor="start" x="173.5" y="-203.579" font-family="Helvetica,sans-Serif" font-size="11.00" fill="#000000">created_by</text>
<polygon fill="#ffffff" stroke="transparent" points="153.5,-174.479 153.5,-196.479 276.5,-196.479 276.5,-174.479 153.5,-174.479"/>
<polygon fill="none" stroke="#000000" points="153.5,-174.479 153.5,-196.479 276.5,-196.479 276.5,-174.479 153.5,-174.479"/>
<image xlink:href="../../images/foreignKeys.png" width="11px" height="12px" preserveAspectRatio="xMinYMin meet" x="158.5" y="-191.479"/>
<text text-anchor="start" x="173.5" y="-181.579" font-family="Helvetica,sans-Serif" font-size="11.00" fill="#000000">modified_by</text>
<polygon fill="#ffffff" stroke="transparent" points="153.5,-152.479 153.5,-174.479 276.5,-174.479 276.5,-152.479 153.5,-152.479"/>
<polygon fill="none" stroke="#000000" points="153.5,-152.479 153.5,-174.479 276.5,-174.479 276.5,-152.479 153.5,-152.479"/>
<text text-anchor="start" x="173.5" y="-159.579" font-family="Helvetica,sans-Serif" font-size="11.00" fill="#000000">email</text>
<polygon fill="#ffffff" stroke="transparent" points="153.5,-130.479 153.5,-152.479 276.5,-152.479 276.5,-130.479 153.5,-130.479"/>
<polygon fill="none" stroke="#000000" points="153.5,-130.479 153.5,-152.479 276.5,-152.479 276.5,-130.479 153.5,-130.479"/>
<image xlink:href="../../images/foreignKeys.png" width="11px" height="12px" preserveAspectRatio="xMinYMin meet" x="158.5" y="-147.479"/>
<text text-anchor="start" x="173.5" y="-137.579" font-family="Helvetica,sans-Serif" font-size="11.00" fill="#000000">avatar_id</text>
<polygon fill="#ffffff" stroke="transparent" points="153.5,-108.479 153.5,-130.479 276.5,-130.479 276.5,-108.479 153.5,-108.479"/>
<polygon fill="none" stroke="#000000" points="153.5,-108.479 153.5,-130.479 276.5,-130.479 276.5,-108.479 153.5,-108.479"/>
<image xlink:href="../../images/foreignKeys.png" width="11px" height="12px" preserveAspectRatio="xMinYMin meet" x="158.5" y="-125.479"/>
<text text-anchor="start" x="173.5" y="-115.579" font-family="Helvetica,sans-Serif" font-size="11.00" fill="#000000">unit_id</text>
<polygon fill="none" stroke="#000000" points="153.5,-89.479 153.5,-108.479 276.5,-108.479 276.5,-89.479 153.5,-89.479"/>
<text text-anchor="start" x="156.5" y="-95.579" font-family="Helvetica,sans-Serif" font-size="11.00" fill="#000000">...</text>
<polygon fill="#ffffff" stroke="transparent" points="153.5,-70.479 153.5,-89.479 189.5,-89.479 189.5,-70.479 153.5,-70.479"/>
<polygon fill="none" stroke="#000000" points="153.5,-70.479 153.5,-89.479 189.5,-89.479 189.5,-70.479 153.5,-70.479"/>
<text text-anchor="start" x="156.5" y="-76.579" font-family="Helvetica,sans-Serif" font-size="11.00" fill="#000000">&lt; 4</text>
<polygon fill="#ffffff" stroke="transparent" points="189.5,-70.479 189.5,-89.479 247.5,-89.479 247.5,-70.479 189.5,-70.479"/>
<polygon fill="none" stroke="#000000" points="189.5,-70.479 189.5,-89.479 247.5,-89.479 247.5,-70.479 189.5,-70.479"/>
<text text-anchor="start" x="199.8807" y="-76.579" font-family="Helvetica,sans-Serif" font-size="11.00" fill="#000000">347 rows</text>
<polygon fill="#ffffff" stroke="transparent" points="247.5,-70.479 247.5,-89.479 276.5,-89.479 276.5,-70.479 247.5,-70.479"/>
<polygon fill="none" stroke="#000000" points="247.5,-70.479 247.5,-89.479 276.5,-89.479 276.5,-70.479 247.5,-70.479"/>
<text text-anchor="start" x="257.9053" y="-76.579" font-family="Helvetica,sans-Serif" font-size="11.00" fill="#000000">9 &gt;</text>
</a>
</g>
</g>
<!-- client&#45;&gt;eworker -->
<g id="edge2" class="edge">
<title>client:w&#45;&gt;eworker:e</title>
<path fill="none" stroke="#000000" d="M672.2952,-171.6924C599.6636,-173.8677 577.8189,-192.1738 499,-203.479 400.4469,-217.6148 376.0618,-229.479 276.5,-229.479"/>
<polygon fill="#000000" stroke="#000000" points="679.0008,-171.5951 687.0523,-175.0786 683.0004,-171.5371 687,-171.479 687,-171.479 687,-171.479 683.0004,-171.5371 686.9477,-167.8794 679.0008,-171.5951 679.0008,-171.5951"/>
<ellipse fill="none" stroke="#000000" cx="675.8012" cy="-171.6416" rx="3.2" ry="3.2"/>
</g>
<!-- client&#45;&gt;eworker -->
<g id="edge3" class="edge">
<title>client:w&#45;&gt;eworker:e</title>
<path fill="none" stroke="#000000" d="M672.3374,-170.6267C599.8814,-167.417 577.5755,-182.331 499,-193.479 400.2056,-207.4956 376.2837,-223.479 276.5,-229.479"/>
<polygon fill="#000000" stroke="#000000" points="679.0135,-171.0147 686.7911,-175.0729 683.0067,-171.2469 687,-171.479 687,-171.479 687,-171.479 683.0067,-171.2469 687.2089,-167.8851 679.0135,-171.0147 679.0135,-171.0147"/>
<ellipse fill="none" stroke="#000000" cx="675.8189" cy="-170.829" rx="3.2" ry="3.2"/>
</g>
<!-- client&#45;&gt;eworker -->
<g id="edge6" class="edge">
<title>client:w&#45;&gt;eworker:e</title>
<path fill="none" stroke="#000000" d="M672.3374,-172.848C599.8814,-180.417 577.5755,-195.331 499,-206.479 400.2056,-220.4956 376.2837,-236.479 276.5,-229.479"/>
<polygon fill="#000000" stroke="#000000" points="679.0346,-172.2227 687.3347,-175.0634 683.0173,-171.8509 687,-171.479 687,-171.479 687,-171.479 683.0173,-171.8509 686.6653,-167.8946 679.0346,-172.2227 679.0346,-172.2227"/>
<ellipse fill="none" stroke="#000000" cx="675.8485" cy="-172.5202" rx="3.2" ry="3.2"/>
</g>
<!-- principal -->
<g id="node4" class="node">
<title>principal</title>
<g id="a_node4"><a xlink:href="../../tables/principal.html" xlink:title="principal" target="_top">
<polygon fill="#ffffff" stroke="transparent" points="362,-49.979 362,-110.979 454,-110.979 454,-49.979 362,-49.979"/>
<polygon fill="#f5f5f5" stroke="transparent" points="362,-87.479 362,-110.479 454,-110.479 454,-87.479 362,-87.479"/>
<polygon fill="none" stroke="#000000" points="362,-87.479 362,-110.479 454,-110.479 454,-87.479 362,-87.479"/>
<text text-anchor="start" x="367" y="-96.579" font-family="Helvetica,sans-Serif" font-weight="bold" font-size="11.00" fill="#000000">principal</text>
<text text-anchor="start" x="419.0437" y="-95.579" font-family="Helvetica,sans-Serif" font-size="11.00" fill="#000000">[table]</text>
<polygon fill="none" stroke="#000000" points="362,-68.479 362,-87.479 454,-87.479 454,-68.479 362,-68.479"/>
<text text-anchor="start" x="365" y="-74.579" font-family="Helvetica,sans-Serif" font-size="11.00" fill="#000000">...</text>
<polygon fill="#ffffff" stroke="transparent" points="362,-49.479 362,-68.479 383,-68.479 383,-49.479 362,-49.479"/>
<polygon fill="none" stroke="#000000" points="362,-49.479 362,-68.479 383,-68.479 383,-49.479 362,-49.479"/>
<text text-anchor="start" x="364.7027" y="-55.579" font-family="Helvetica,sans-Serif" font-size="11.00" fill="#000000">&lt; 1</text>
<polygon fill="#ffffff" stroke="transparent" points="383,-49.479 383,-68.479 427,-68.479 427,-49.479 383,-49.479"/>
<polygon fill="none" stroke="#000000" points="383,-49.479 383,-68.479 427,-68.479 427,-49.479 383,-49.479"/>
<text text-anchor="start" x="385.7478" y="-55.579" font-family="Helvetica,sans-Serif" font-size="11.00" fill="#000000">18 rows</text>
<polygon fill="#ffffff" stroke="transparent" points="427,-49.479 427,-68.479 454,-68.479 454,-49.479 427,-49.479"/>
<polygon fill="none" stroke="#000000" points="427,-49.479 427,-68.479 454,-68.479 454,-49.479 427,-49.479"/>
<text text-anchor="start" x="429.6452" y="-55.579" font-family="Helvetica,sans-Serif" font-size="11.00" fill="#000000">56 &gt;</text>
</a>
</g>
</g>
<!-- client&#45;&gt;principal -->
<g id="edge4" class="edge">
<title>client:w&#45;&gt;principal:e</title>
<path fill="none" stroke="#000000" d="M672.4619,-170.2649C631.5865,-164.3613 560.9611,-138.4149 532,-125.479 494.834,-108.8784 494.7049,-77.479 454,-77.479"/>
<polygon fill="#000000" stroke="#000000" points="679.0278,-170.8132 686.7004,-175.0665 683.0139,-171.1461 687,-171.479 687,-171.479 687,-171.479 683.0139,-171.1461 687.2996,-167.8915 679.0278,-170.8132 679.0278,-170.8132"/>
<ellipse fill="none" stroke="#000000" cx="675.8389" cy="-170.5468" rx="3.2" ry="3.2"/>
</g>
<!-- client&#45;&gt;principal -->
<g id="edge5" class="edge">
<title>client:w&#45;&gt;principal:e</title>
<path fill="none" stroke="#000000" d="M672.4024,-170.1081C631.4532,-163.4513 561.2668,-134.2976 532,-121.479 495.5417,-105.5105 493.802,-77.479 454,-77.479"/>
<polygon fill="#000000" stroke="#000000" points="679.035,-170.7309 686.6634,-175.0632 683.0175,-171.105 687,-171.479 687,-171.479 687,-171.479 683.0175,-171.105 687.3366,-167.8948 679.035,-170.7309 679.035,-170.7309"/>
<ellipse fill="none" stroke="#000000" cx="675.8491" cy="-170.4317" rx="3.2" ry="3.2"/>
</g>
<!-- file&#45;&gt;principal -->
<g id="edge12" class="edge">
<title>file:w&#45;&gt;principal:e</title>
<path fill="none" stroke="#000000" d="M525.7733,-79.1507C498.6081,-74.5722 487.0322,-72.2993 454,-77.479"/>
<polygon fill="#000000" stroke="#000000" points="532.105,-80.1869 539.4185,-85.0317 536.0525,-80.8329 540,-81.479 540,-81.479 540,-81.479 536.0525,-80.8329 540.5815,-77.9263 532.105,-80.1869 532.105,-80.1869"/>
<ellipse fill="none" stroke="#000000" cx="528.947" cy="-79.67" rx="3.2" ry="3.2"/>
</g>
<!-- file&#45;&gt;principal -->
<g id="edge13" class="edge">
<title>file:w&#45;&gt;principal:e</title>
<path fill="none" stroke="#000000" d="M525.7733,-83.7537C498.6081,-87.3292 487.0322,-83.522 454,-77.479"/>
<polygon fill="#000000" stroke="#000000" points="532.1003,-82.7421 540.5684,-85.0339 536.0502,-82.1106 540,-81.479 540,-81.479 540,-81.479 536.0502,-82.1106 539.4316,-77.9242 532.1003,-82.7421 532.1003,-82.7421"/>
<ellipse fill="none" stroke="#000000" cx="528.9405" cy="-83.2474" rx="3.2" ry="3.2"/>
</g>
<!-- eworker&#45;&gt;file -->
<g id="edge7" class="edge">
<title>eworker:w&#45;&gt;file:e</title>
<path fill="none" stroke="#000000" d="M139.3722,-136.7701C125.1262,-123.8633 136.126,-87.5193 153.5,-66.979 201.0878,-10.7187 243.5683,-45.6114 317,-39.479 334.0226,-38.0574 618.358,-28.7972 638,-49.979 647.5194,-60.2446 652,-81.479 638,-81.479"/>
<polygon fill="#000000" stroke="#000000" points="145.9105,-138.9493 152.3616,-144.8943 149.7052,-140.2142 153.5,-141.479 153.5,-141.479 153.5,-141.479 149.7052,-140.2142 154.6384,-138.0637 145.9105,-138.9493 145.9105,-138.9493"/>
<ellipse fill="none" stroke="#000000" cx="142.8747" cy="-137.9375" rx="3.2" ry="3.2"/>
</g>
<!-- eworker&#45;&gt;principal -->
<g id="edge8" class="edge">
<title>eworker:w&#45;&gt;principal:e</title>
<path fill="none" stroke="#000000" d="M166.9743,-213.7257C200.3168,-229.1833 284,-267.979 284,-267.979 336.1223,-226.2916 294.8295,-184.4317 317,-121.479 329.413,-86.2326 322.2912,-65.7514 354,-45.979 354,-45.979 454,-77.479 454,-77.479"/>
<polygon fill="#000000" stroke="#000000" points="160.758,-210.8438 155.0142,-204.2129 157.129,-209.1614 153.5,-207.479 153.5,-207.479 153.5,-207.479 157.129,-209.1614 151.9858,-210.7451 160.758,-210.8438 160.758,-210.8438"/>
<ellipse fill="none" stroke="#000000" cx="163.6612" cy="-212.1898" rx="3.2" ry="3.2"/>
</g>
<!-- eworker&#45;&gt;principal -->
<g id="edge9" class="edge">
<title>eworker:w&#45;&gt;principal:e</title>
<path fill="none" stroke="#000000" d="M141.5678,-193.9527C118.1379,-232.533 137.9852,-384.7617 284,-267.979 336.1223,-226.2916 294.8295,-184.4317 317,-121.479 329.413,-86.2326 322.2912,-65.7514 354,-45.979 354,-45.979 454,-77.479 454,-77.479"/>
<polygon fill="#000000" stroke="#000000" points="146.9774,-190.1111 155.5844,-188.4142 150.2387,-187.795 153.5,-185.479 153.5,-185.479 153.5,-185.479 150.2387,-187.795 151.4156,-182.5438 146.9774,-190.1111 146.9774,-190.1111"/>
<ellipse fill="none" stroke="#000000" cx="144.3684" cy="-191.9639" rx="3.2" ry="3.2"/>
</g>
<!-- ework_unit -->
<g id="node5" class="node">
<title>ework_unit</title>
<g id="a_node5"><a xlink:href="../../tables/ework_unit.html" xlink:title="ework_unit" target="_top">
<polygon fill="#ffffff" stroke="transparent" points="8,-240.979 8,-301.979 104,-301.979 104,-240.979 8,-240.979"/>
<polygon fill="#f5f5f5" stroke="transparent" points="8,-278.479 8,-301.479 104,-301.479 104,-278.479 8,-278.479"/>
<polygon fill="none" stroke="#000000" points="8,-278.479 8,-301.479 104,-301.479 104,-278.479 8,-278.479"/>
<text text-anchor="start" x="12.9125" y="-287.579" font-family="Helvetica,sans-Serif" font-weight="bold" font-size="11.00" fill="#000000">ework_unit</text>
<text text-anchor="start" x="69.5219" y="-286.579" font-family="Helvetica,sans-Serif" font-size="11.00" fill="#000000">[table]</text>
<polygon fill="none" stroke="#000000" points="8,-259.479 8,-278.479 104,-278.479 104,-259.479 8,-259.479"/>
<text text-anchor="start" x="11" y="-265.579" font-family="Helvetica,sans-Serif" font-size="11.00" fill="#000000">...</text>
<polygon fill="#ffffff" stroke="transparent" points="8,-240.479 8,-259.479 34,-259.479 34,-240.479 8,-240.479"/>
<polygon fill="none" stroke="#000000" points="8,-240.479 8,-259.479 34,-259.479 34,-240.479 8,-240.479"/>
<text text-anchor="start" x="11" y="-246.579" font-family="Helvetica,sans-Serif" font-size="11.00" fill="#000000">&lt; 1</text>
<polygon fill="#ffffff" stroke="transparent" points="34,-240.479 34,-259.479 80,-259.479 80,-240.479 34,-240.479"/>
<polygon fill="none" stroke="#000000" points="34,-240.479 34,-259.479 80,-259.479 80,-240.479 34,-240.479"/>
<text text-anchor="start" x="38.4956" y="-246.579" font-family="Helvetica,sans-Serif" font-size="11.00" fill="#000000">25 rows</text>
<polygon fill="#ffffff" stroke="transparent" points="80,-240.479 80,-259.479 104,-259.479 104,-240.479 80,-240.479"/>
<polygon fill="none" stroke="#000000" points="80,-240.479 80,-259.479 104,-259.479 104,-240.479 80,-240.479"/>
<text text-anchor="start" x="85.4053" y="-246.579" font-family="Helvetica,sans-Serif" font-size="11.00" fill="#000000">4 &gt;</text>
</a>
</g>
</g>
<!-- eworker&#45;&gt;ework_unit -->
<g id="edge10" class="edge">
<title>eworker:w&#45;&gt;ework_unit:e</title>
<path fill="none" stroke="#000000" d="M139.3777,-122.3224C97.4192,-142.9217 168.0567,-268.479 104,-268.479"/>
<polygon fill="#000000" stroke="#000000" points="145.6574,-121.0581 154.2106,-123.0082 149.5787,-120.2686 153.5,-119.479 153.5,-119.479 153.5,-119.479 149.5787,-120.2686 152.7894,-115.9498 145.6574,-121.0581 145.6574,-121.0581"/>
<ellipse fill="none" stroke="#000000" cx="142.5203" cy="-121.6897" rx="3.2" ry="3.2"/>
</g>
<!-- principal&#45;&gt;eworker -->
<g id="edge25" class="edge">
<title>principal:w&#45;&gt;eworker:e</title>
<path fill="none" stroke="#000000" d="M347.4259,-80.0583C332.6871,-86.2834 329.0532,-102.9893 317,-121.479 289.0047,-164.4239 327.764,-229.479 276.5,-229.479"/>
<polygon fill="#000000" stroke="#000000" points="354.1224,-78.8732 362.6274,-81.0239 358.0612,-78.1761 362,-77.479 362,-77.479 362,-77.479 358.0612,-78.1761 361.3726,-73.9341 354.1224,-78.8732 354.1224,-78.8732"/>
<ellipse fill="none" stroke="#000000" cx="350.9714" cy="-79.4309" rx="3.2" ry="3.2"/>
</g>
<!-- eworker_role -->
<g id="node6" class="node">
<title>eworker_role</title>
<g id="a_node6"><a xlink:href="../../tables/eworker_role.html" xlink:title="eworker_role" target="_top">
<polygon fill="#ffffff" stroke="transparent" points="325,-304.479 325,-394.479 491,-394.479 491,-304.479 325,-304.479"/>
<polygon fill="#f5f5f5" stroke="transparent" points="327,-369.479 327,-392.479 489,-392.479 489,-369.479 327,-369.479"/>
<polygon fill="none" stroke="#000000" points="327,-369.479 327,-392.479 489,-392.479 489,-369.479 327,-369.479"/>
<text text-anchor="start" x="332" y="-378.579" font-family="Helvetica,sans-Serif" font-weight="bold" font-size="11.00" fill="#000000">eworker_role</text>
<text text-anchor="start" x="454.0437" y="-377.579" font-family="Helvetica,sans-Serif" font-size="11.00" fill="#000000">[table]</text>
<polygon fill="#ffffff" stroke="transparent" points="327,-347.479 327,-369.479 422,-369.479 422,-347.479 327,-347.479"/>
<polygon fill="none" stroke="#000000" points="327,-347.479 327,-369.479 422,-369.479 422,-347.479 327,-347.479"/>
<image xlink:href="../../images/foreignKeys.png" width="11px" height="12px" preserveAspectRatio="xMinYMin meet" x="332" y="-364.479"/>
<text text-anchor="start" x="347" y="-354.579" font-family="Helvetica,sans-Serif" font-size="11.00" fill="#000000">eworker_id</text>
<polygon fill="none" stroke="#000000" points="422,-347.479 422,-369.479 489,-369.479 489,-347.479 422,-347.479"/>
<text text-anchor="start" x="425" y="-355.179" font-family="Helvetica,sans-Serif" font-size="11.00" fill="#000000">bigint[19]</text>
<polygon fill="#ffffff" stroke="transparent" points="327,-325.479 327,-347.479 422,-347.479 422,-325.479 327,-325.479"/>
<polygon fill="none" stroke="#000000" points="327,-325.479 327,-347.479 422,-347.479 422,-325.479 327,-325.479"/>
<text text-anchor="start" x="347" y="-332.579" font-family="Helvetica,sans-Serif" font-size="11.00" fill="#000000">role</text>
<polygon fill="none" stroke="#000000" points="422,-325.479 422,-347.479 489,-347.479 489,-325.479 422,-325.479"/>
<text text-anchor="start" x="424.9365" y="-333.179" font-family="Helvetica,sans-Serif" font-size="11.00" fill="#000000">varchar[255]</text>
<polygon fill="#ffffff" stroke="transparent" points="327,-306.479 327,-325.479 366,-325.479 366,-306.479 327,-306.479"/>
<polygon fill="none" stroke="#000000" points="327,-306.479 327,-325.479 366,-325.479 366,-306.479 327,-306.479"/>
<text text-anchor="start" x="330" y="-312.579" font-family="Helvetica,sans-Serif" font-size="11.00" fill="#000000">&lt; 1</text>
<polygon fill="#ffffff" stroke="transparent" points="366,-306.479 366,-325.479 422,-325.479 422,-306.479 366,-306.479"/>
<polygon fill="none" stroke="#000000" points="366,-306.479 366,-325.479 422,-325.479 422,-306.479 366,-306.479"/>
<text text-anchor="start" x="386.6105" y="-312.579" font-family="Helvetica,sans-Serif" font-size="11.00" fill="#000000">0 rows</text>
<polygon fill="#ffffff" stroke="transparent" points="422,-306.479 422,-325.479 489,-325.479 489,-306.479 422,-306.479"/>
<polygon fill="none" stroke="#000000" points="422,-306.479 422,-325.479 489,-325.479 489,-306.479 422,-306.479"/>
<text text-anchor="start" x="470.4053" y="-312.579" font-family="Helvetica,sans-Serif" font-size="11.00" fill="#000000">0 &gt;</text>
<polygon fill="none" stroke="#000000" stroke-width="2" points="326,-305.479 326,-393.479 490,-393.479 490,-305.479 326,-305.479"/>
</a>
</g>
</g>
<!-- eworker_role&#45;&gt;eworker -->
<g id="edge11" class="edge">
<title>eworker_role:w&#45;&gt;eworker:e</title>
<path fill="none" stroke="#000000" d="M312.5517,-355.0286C278.3376,-334.5139 332.0573,-229.479 276.5,-229.479"/>
<polygon fill="#000000" stroke="#000000" points="319.2188,-356.6207 326.1638,-361.9805 323.1094,-357.5499 327,-358.479 327,-358.479 327,-358.479 323.1094,-357.5499 327.8362,-354.9775 319.2188,-356.6207 319.2188,-356.6207"/>
<ellipse fill="none" stroke="#000000" cx="316.1063" cy="-355.8774" rx="3.2" ry="3.2"/>
</g>
<!-- job_request -->
<g id="node7" class="node">
<title>job_request</title>
<g id="a_node7"><a xlink:href="../../tables/job_request.html" xlink:title="job_request" target="_top">
<polygon fill="#ffffff" stroke="transparent" points="828,-207.979 828,-268.979 928,-268.979 928,-207.979 828,-207.979"/>
<polygon fill="#f5f5f5" stroke="transparent" points="828,-245.479 828,-268.479 928,-268.479 928,-245.479 828,-245.479"/>
<polygon fill="none" stroke="#000000" points="828,-245.479 828,-268.479 928,-268.479 928,-245.479 828,-245.479"/>
<text text-anchor="start" x="832.768" y="-254.579" font-family="Helvetica,sans-Serif" font-weight="bold" font-size="11.00" fill="#000000">job_request</text>
<text text-anchor="start" x="893.5219" y="-253.579" font-family="Helvetica,sans-Serif" font-size="11.00" fill="#000000">[table]</text>
<polygon fill="none" stroke="#000000" points="828,-226.479 828,-245.479 928,-245.479 928,-226.479 828,-226.479"/>
<text text-anchor="start" x="831" y="-232.579" font-family="Helvetica,sans-Serif" font-size="11.00" fill="#000000">...</text>
<polygon fill="#ffffff" stroke="transparent" points="828,-207.479 828,-226.479 856,-226.479 856,-207.479 828,-207.479"/>
<polygon fill="none" stroke="#000000" points="828,-207.479 828,-226.479 856,-226.479 856,-207.479 828,-207.479"/>
<text text-anchor="start" x="831" y="-213.579" font-family="Helvetica,sans-Serif" font-size="11.00" fill="#000000">&lt; 11</text>
<polygon fill="#ffffff" stroke="transparent" points="856,-207.479 856,-226.479 906,-226.479 906,-207.479 856,-207.479"/>
<polygon fill="none" stroke="#000000" points="856,-207.479 856,-226.479 906,-226.479 906,-207.479 856,-207.479"/>
<text text-anchor="start" x="858.6904" y="-213.579" font-family="Helvetica,sans-Serif" font-size="11.00" fill="#000000">254 rows</text>
<polygon fill="#ffffff" stroke="transparent" points="906,-207.479 906,-226.479 928,-226.479 928,-207.479 906,-207.479"/>
<polygon fill="none" stroke="#000000" points="906,-207.479 906,-226.479 928,-226.479 928,-207.479 906,-207.479"/>
<text text-anchor="start" x="909.4053" y="-213.579" font-family="Helvetica,sans-Serif" font-size="11.00" fill="#000000">7 &gt;</text>
</a>
</g>
</g>
<!-- job_request&#45;&gt;client -->
<g id="edge14" class="edge">
<title>job_request:w&#45;&gt;client:e</title>
<path fill="none" stroke="#000000" d="M814.1165,-230.457C798.2339,-215.3696 808.6667,-171.479 779,-171.479"/>
<polygon fill="#000000" stroke="#000000" points="820.477,-232.7578 826.7754,-238.8643 824.2385,-234.1184 828,-235.479 828,-235.479 828,-235.479 824.2385,-234.1184 829.2246,-232.0937 820.477,-232.7578 820.477,-232.7578"/>
<ellipse fill="none" stroke="#000000" cx="817.4678" cy="-231.6693" rx="3.2" ry="3.2"/>
</g>
<!-- job_request&#45;&gt;eworker -->
<g id="edge15" class="edge">
<title>job_request:w&#45;&gt;eworker:e</title>
<path fill="none" stroke="#000000" d="M813.6445,-237.4315C805.3846,-239.8847 799.6574,-243.9577 787,-245.479 739.343,-251.2069 726.9954,-246.1418 679,-245.479 518.0651,-243.2566 477.3367,-249.5198 317,-235.479 298.8729,-233.8916 294.6965,-229.479 276.5,-229.479"/>
<polygon fill="#000000" stroke="#000000" points="820.073,-236.5572 828.4852,-239.0462 824.0365,-236.0181 828,-235.479 828,-235.479 828,-235.479 824.0365,-236.0181 827.5148,-231.9118 820.073,-236.5572 820.073,-236.5572"/>
<ellipse fill="none" stroke="#000000" cx="816.9022" cy="-236.9885" rx="3.2" ry="3.2"/>
</g>
<!-- job_request&#45;&gt;eworker -->
<g id="edge17" class="edge">
<title>job_request:w&#45;&gt;eworker:e</title>
<path fill="none" stroke="#000000" d="M813.4565,-236.7029C805.2933,-238.1811 799.3408,-240.5808 787,-241.479 739.1266,-244.9634 726.9954,-242.1418 679,-241.479 518.0651,-239.2566 477.8311,-237.6708 317,-231.479 298.9914,-230.7857 294.5219,-229.479 276.5,-229.479"/>
<polygon fill="#000000" stroke="#000000" points="820.0282,-236.1499 828.3019,-239.0663 824.0141,-235.8145 828,-235.479 828,-235.479 828,-235.479 824.0141,-235.8145 827.6981,-231.8917 820.0282,-236.1499 820.0282,-236.1499"/>
<ellipse fill="none" stroke="#000000" cx="816.8395" cy="-236.4183" rx="3.2" ry="3.2"/>
</g>
<!-- job_request&#45;&gt;principal -->
<g id="edge16" class="edge">
<title>job_request:w&#45;&gt;principal:e</title>
<path fill="none" stroke="#000000" d="M813.591,-235.4718C688.4118,-235.313 640.0542,-231.7727 532,-157.479 491.0804,-129.3443 503.6586,-77.479 454,-77.479"/>
<polygon fill="#000000" stroke="#000000" points="820,-235.475 827.9982,-239.079 824,-235.477 828,-235.479 828,-235.479 828,-235.479 824,-235.477 828.0018,-231.879 820,-235.475 820,-235.475"/>
<ellipse fill="none" stroke="#000000" cx="816.8" cy="-235.4734" rx="3.2" ry="3.2"/>
</g>
<!-- job_request&#45;&gt;principal -->
<g id="edge18" class="edge">
<title>job_request:w&#45;&gt;principal:e</title>
<path fill="none" stroke="#000000" d="M813.5505,-235.4505C688.0956,-234.917 641.6419,-226.2208 532,-153.479 491.6676,-126.7206 502.4016,-77.479 454,-77.479"/>
<polygon fill="#000000" stroke="#000000" points="820,-235.4632 827.9929,-239.079 824,-235.4711 828,-235.479 828,-235.479 828,-235.479 824,-235.4711 828.0071,-231.879 820,-235.4632 820,-235.4632"/>
<ellipse fill="none" stroke="#000000" cx="816.8" cy="-235.4568" rx="3.2" ry="3.2"/>
</g>
<!-- job_request&#45;&gt;ework_unit -->
<g id="edge19" class="edge">
<title>job_request:w&#45;&gt;ework_unit:e</title>
<path fill="none" stroke="#000000" d="M814.152,-240.5645C761.6426,-270.1203 619.1146,-418.479 589,-418.479 589,-418.479 589,-418.479 408,-418.479 367.1449,-418.479 355.2829,-419.7463 317,-405.479 264.2644,-385.8254 160.2788,-268.479 104,-268.479"/>
<polygon fill="#000000" stroke="#000000" points="820.4904,-238.2368 829.241,-238.8583 824.2452,-236.8579 828,-235.479 828,-235.479 828,-235.479 824.2452,-236.8579 826.759,-232.0997 820.4904,-238.2368 820.4904,-238.2368"/>
<ellipse fill="none" stroke="#000000" cx="817.4865" cy="-239.34" rx="3.2" ry="3.2"/>
</g>
<!-- presentation -->
<g id="node8" class="node">
<title>presentation</title>
<g id="a_node8"><a xlink:href="../../tables/presentation.html" xlink:title="presentation" target="_top">
<polygon fill="#ffffff" stroke="transparent" points="977,-143.979 977,-204.979 1080,-204.979 1080,-143.979 977,-143.979"/>
<polygon fill="#f5f5f5" stroke="transparent" points="977.5,-181.479 977.5,-204.479 1080.5,-204.479 1080.5,-181.479 977.5,-181.479"/>
<polygon fill="none" stroke="#000000" points="977.5,-181.479 977.5,-204.479 1080.5,-204.479 1080.5,-181.479 977.5,-181.479"/>
<text text-anchor="start" x="982.2396" y="-190.579" font-family="Helvetica,sans-Serif" font-weight="bold" font-size="11.00" fill="#000000">presentation</text>
<text text-anchor="start" x="1046.0219" y="-189.579" font-family="Helvetica,sans-Serif" font-size="11.00" fill="#000000">[table]</text>
<polygon fill="none" stroke="#000000" points="977.5,-162.479 977.5,-181.479 1080.5,-181.479 1080.5,-162.479 977.5,-162.479"/>
<text text-anchor="start" x="980.5" y="-168.579" font-family="Helvetica,sans-Serif" font-size="11.00" fill="#000000">...</text>
<polygon fill="#ffffff" stroke="transparent" points="977.5,-143.479 977.5,-162.479 1006.5,-162.479 1006.5,-143.479 977.5,-143.479"/>
<polygon fill="none" stroke="#000000" points="977.5,-143.479 977.5,-162.479 1006.5,-162.479 1006.5,-143.479 977.5,-143.479"/>
<text text-anchor="start" x="980.5" y="-149.579" font-family="Helvetica,sans-Serif" font-size="11.00" fill="#000000">&lt; 5</text>
<polygon fill="#ffffff" stroke="transparent" points="1006.5,-143.479 1006.5,-162.479 1054.5,-162.479 1054.5,-143.479 1006.5,-143.479"/>
<polygon fill="none" stroke="#000000" points="1006.5,-143.479 1006.5,-162.479 1054.5,-162.479 1054.5,-143.479 1006.5,-143.479"/>
<text text-anchor="start" x="1012.9956" y="-149.579" font-family="Helvetica,sans-Serif" font-size="11.00" fill="#000000">16 rows</text>
<polygon fill="#ffffff" stroke="transparent" points="1054.5,-143.479 1054.5,-162.479 1080.5,-162.479 1080.5,-143.479 1054.5,-143.479"/>
<polygon fill="none" stroke="#000000" points="1054.5,-143.479 1054.5,-162.479 1080.5,-162.479 1080.5,-143.479 1054.5,-143.479"/>
<text text-anchor="start" x="1061.9053" y="-149.579" font-family="Helvetica,sans-Serif" font-size="11.00" fill="#000000">2 &gt;</text>
</a>
</g>
</g>
<!-- presentation&#45;&gt;client -->
<g id="edge24" class="edge">
<title>presentation:w&#45;&gt;client:e</title>
<path fill="none" stroke="#000000" d="M962.6471,-171.479C886.466,-171.479 862.053,-171.479 779,-171.479"/>
<polygon fill="#000000" stroke="#000000" points="969.5,-171.4791 977.5,-175.079 973.5,-171.479 977.5,-171.479 977.5,-171.479 977.5,-171.479 973.5,-171.479 977.5,-167.879 969.5,-171.4791 969.5,-171.4791"/>
<ellipse fill="none" stroke="#000000" cx="966.3" cy="-171.4791" rx="3.2" ry="3.2"/>
</g>
<!-- presentation&#45;&gt;eworker -->
<g id="edge23" class="edge">
<title>presentation:w&#45;&gt;eworker:e</title>
<path fill="none" stroke="#000000" d="M963.2389,-173.8508C933.8267,-185.8989 960.8403,-241.2427 936,-279.479 872.5071,-377.2126 849.547,-445.479 733,-445.479 733,-445.479 733,-445.479 589,-445.479 466.8109,-445.479 406.7935,-488.3482 317,-405.479 258.0143,-351.0419 356.7665,-229.479 276.5,-229.479"/>
<polygon fill="#000000" stroke="#000000" points="969.6084,-172.7915 978.0906,-175.0302 973.5542,-172.1353 977.5,-171.479 977.5,-171.479 977.5,-171.479 973.5542,-172.1353 976.9094,-167.9278 969.6084,-172.7915 969.6084,-172.7915"/>
<ellipse fill="none" stroke="#000000" cx="966.4517" cy="-173.3165" rx="3.2" ry="3.2"/>
</g>
<!-- presentation&#45;&gt;principal -->
<g id="edge20" class="edge">
<title>presentation:w&#45;&gt;principal:e</title>
<path fill="none" stroke="#000000" d="M962.9319,-170.389C878.7008,-158.725 719.1581,-57.1125 646,-43.479 596.1909,-34.1967 581.6003,-33.1385 532,-43.479 494.979,-51.197 491.817,-77.479 454,-77.479"/>
<polygon fill="#000000" stroke="#000000" points="969.5223,-170.882 977.2314,-175.069 973.5112,-171.1805 977.5,-171.479 977.5,-171.479 977.5,-171.479 973.5112,-171.1805 977.7686,-167.889 969.5223,-170.882 969.5223,-170.882"/>
<ellipse fill="none" stroke="#000000" cx="966.3312" cy="-170.6432" rx="3.2" ry="3.2"/>
</g>
<!-- presentation&#45;&gt;principal -->
<g id="edge22" class="edge">
<title>presentation:w&#45;&gt;principal:e</title>
<path fill="none" stroke="#000000" d="M962.9781,-170.4229C878.9556,-159.1221 718.9361,-60.6737 646,-47.479 596.1426,-38.4594 581.8152,-38.2294 532,-47.479 495.4818,-54.2596 491.1424,-77.479 454,-77.479"/>
<polygon fill="#000000" stroke="#000000" points="969.5211,-170.8987 977.2389,-175.0695 973.5105,-171.1888 977.5,-171.479 977.5,-171.479 977.5,-171.479 973.5105,-171.1888 977.7611,-167.8885 969.5211,-170.8987 969.5211,-170.8987"/>
<ellipse fill="none" stroke="#000000" cx="966.3295" cy="-170.6666" rx="3.2" ry="3.2"/>
</g>
<!-- presentation&#45;&gt;job_request -->
<g id="edge21" class="edge">
<title>presentation:w&#45;&gt;job_request:e</title>
<path fill="none" stroke="#000000" d="M967.0752,-173.9097C945.9932,-185.6001 959.7455,-235.479 928,-235.479"/>
<polygon fill="#000000" stroke="#000000" points="975.8126,-167.7652 977.6292,-175.5562 976.071,-175.9195 974.2544,-168.1285 975.8126,-167.7652"/>
<polyline fill="none" stroke="#000000" points="977.5,-171.479 973.6045,-172.3873 "/>
<ellipse fill="none" stroke="#000000" cx="970.4881" cy="-173.114" rx="3.2" ry="3.2"/>
</g>
<!-- token -->
<g id="node9" class="node">
<title>token</title>
<g id="a_node9"><a xlink:href="../../tables/token.html" xlink:title="token" target="_top">
<polygon fill="#ffffff" stroke="transparent" points="372.5,-131.979 372.5,-192.979 443.5,-192.979 443.5,-131.979 372.5,-131.979"/>
<polygon fill="#f5f5f5" stroke="transparent" points="373,-169.479 373,-192.479 444,-192.479 444,-169.479 373,-169.479"/>
<polygon fill="none" stroke="#000000" points="373,-169.479 373,-192.479 444,-192.479 444,-169.479 373,-169.479"/>
<text text-anchor="start" x="378" y="-178.579" font-family="Helvetica,sans-Serif" font-weight="bold" font-size="11.00" fill="#000000">token</text>
<text text-anchor="start" x="409.0437" y="-177.579" font-family="Helvetica,sans-Serif" font-size="11.00" fill="#000000">[table]</text>
<polygon fill="none" stroke="#000000" points="373,-150.479 373,-169.479 444,-169.479 444,-150.479 373,-150.479"/>
<text text-anchor="start" x="376" y="-156.579" font-family="Helvetica,sans-Serif" font-size="11.00" fill="#000000">...</text>
<polygon fill="#ffffff" stroke="transparent" points="373,-131.479 373,-150.479 394,-150.479 394,-131.479 373,-131.479"/>
<polygon fill="none" stroke="#000000" points="373,-131.479 373,-150.479 394,-150.479 394,-131.479 373,-131.479"/>
<text text-anchor="start" x="375.7027" y="-137.579" font-family="Helvetica,sans-Serif" font-size="11.00" fill="#000000">&lt; 1</text>
<polygon fill="#ffffff" stroke="transparent" points="394,-131.479 394,-150.479 432,-150.479 432,-131.479 394,-131.479"/>
<polygon fill="none" stroke="#000000" points="394,-131.479 394,-150.479 432,-150.479 432,-131.479 394,-131.479"/>
<text text-anchor="start" x="396.8053" y="-137.579" font-family="Helvetica,sans-Serif" font-size="11.00" fill="#000000">0 rows</text>
<polygon fill="#ffffff" stroke="transparent" points="432,-131.479 432,-150.479 444,-150.479 444,-131.479 432,-131.479"/>
<polygon fill="none" stroke="#000000" points="432,-131.479 432,-150.479 444,-150.479 444,-131.479 432,-131.479"/>
<text text-anchor="start" x="434.9431" y="-137.579" font-family="Helvetica,sans-Serif" font-size="11.00" fill="#000000"> &#160;</text>
</a>
</g>
</g>
<!-- token&#45;&gt;eworker -->
<g id="edge26" class="edge">
<title>token:w&#45;&gt;eworker:e</title>
<path fill="none" stroke="#000000" d="M358.658,-161.4985C321.2947,-172.9757 324.1033,-229.479 276.5,-229.479"/>
<polygon fill="#000000" stroke="#000000" points="365.0781,-160.5945 373.502,-163.0438 369.0391,-160.0368 373,-159.479 373,-159.479 373,-159.479 369.0391,-160.0368 372.498,-155.9142 365.0781,-160.5945 365.0781,-160.5945"/>
<ellipse fill="none" stroke="#000000" cx="361.9094" cy="-161.0407" rx="3.2" ry="3.2"/>
</g>
</g>
</svg>
