<?xml version="1.0" encoding="UTF-8" standalone="no"?>
<!DOCTYPE svg PUBLIC "-//W3C//DTD SVG 1.1//EN"
 "http://www.w3.org/Graphics/SVG/1.1/DTD/svg11.dtd">
<!-- Generated by graphviz version 2.40.1 (20161225.0304)
 -->
<!-- Title: oneDegreeRelationshipsDiagram Pages: 1 -->
<svg width="362pt" height="245pt"
 viewBox="0.00 0.00 362.00 244.70" xmlns="http://www.w3.org/2000/svg" xmlns:xlink="http://www.w3.org/1999/xlink">
<g id="graph0" class="graph" transform="scale(1 1) rotate(0) translate(4 240.7)">
<title>oneDegreeRelationshipsDiagram</title>
<polygon fill="#ffffff" stroke="transparent" points="-4,4 -4,-240.7 358,-240.7 358,4 -4,4"/>
<text text-anchor="middle" x="72.4936" y="-7.3" font-family="Helvetica,sans-Serif" font-size="11.00" fill="#000000">Generated by SchemaSpy</text>
<!-- eworker_role -->
<g id="node1" class="node">
<title>eworker_role</title>
<g id="a_node1"><a xlink:href="../../tables/eworker_role.html" xlink:title="eworker_role" target="_top">
<polygon fill="#ffffff" stroke="transparent" points="180,-142.7 180,-232.7 346,-232.7 346,-142.7 180,-142.7"/>
<polygon fill="#f5f5f5" stroke="transparent" points="182,-207.7 182,-230.7 344,-230.7 344,-207.7 182,-207.7"/>
<polygon fill="none" stroke="#000000" points="182,-207.7 182,-230.7 344,-230.7 344,-207.7 182,-207.7"/>
<text text-anchor="start" x="187" y="-216.8" font-family="Helvetica,sans-Serif" font-weight="bold" font-size="11.00" fill="#000000">eworker_role</text>
<text text-anchor="start" x="309.0437" y="-215.8" font-family="Helvetica,sans-Serif" font-size="11.00" fill="#000000">[table]</text>
<polygon fill="#ffffff" stroke="transparent" points="182,-185.7 182,-207.7 277,-207.7 277,-185.7 182,-185.7"/>
<polygon fill="none" stroke="#000000" points="182,-185.7 182,-207.7 277,-207.7 277,-185.7 182,-185.7"/>
<image xlink:href="../../images/foreignKeys.png" width="11px" height="12px" preserveAspectRatio="xMinYMin meet" x="187" y="-202.7"/>
<text text-anchor="start" x="202" y="-192.8" font-family="Helvetica,sans-Serif" font-size="11.00" fill="#000000">eworker_id</text>
<polygon fill="none" stroke="#000000" points="277,-185.7 277,-207.7 344,-207.7 344,-185.7 277,-185.7"/>
<text text-anchor="start" x="280" y="-193.4" font-family="Helvetica,sans-Serif" font-size="11.00" fill="#000000">bigint[19]</text>
<polygon fill="#ffffff" stroke="transparent" points="182,-163.7 182,-185.7 277,-185.7 277,-163.7 182,-163.7"/>
<polygon fill="none" stroke="#000000" points="182,-163.7 182,-185.7 277,-185.7 277,-163.7 182,-163.7"/>
<text text-anchor="start" x="202" y="-170.8" font-family="Helvetica,sans-Serif" font-size="11.00" fill="#000000">role</text>
<polygon fill="none" stroke="#000000" points="277,-163.7 277,-185.7 344,-185.7 344,-163.7 277,-163.7"/>
<text text-anchor="start" x="279.9365" y="-171.4" font-family="Helvetica,sans-Serif" font-size="11.00" fill="#000000">varchar[255]</text>
<polygon fill="#ffffff" stroke="transparent" points="182,-144.7 182,-163.7 221,-163.7 221,-144.7 182,-144.7"/>
<polygon fill="none" stroke="#000000" points="182,-144.7 182,-163.7 221,-163.7 221,-144.7 182,-144.7"/>
<text text-anchor="start" x="185" y="-150.8" font-family="Helvetica,sans-Serif" font-size="11.00" fill="#000000">&lt; 1</text>
<polygon fill="#ffffff" stroke="transparent" points="221,-144.7 221,-163.7 277,-163.7 277,-144.7 221,-144.7"/>
<polygon fill="none" stroke="#000000" points="221,-144.7 221,-163.7 277,-163.7 277,-144.7 221,-144.7"/>
<text text-anchor="start" x="241.6105" y="-150.8" font-family="Helvetica,sans-Serif" font-size="11.00" fill="#000000">0 rows</text>
<polygon fill="#ffffff" stroke="transparent" points="277,-144.7 277,-163.7 344,-163.7 344,-144.7 277,-144.7"/>
<polygon fill="none" stroke="#000000" points="277,-144.7 277,-163.7 344,-163.7 344,-144.7 277,-144.7"/>
<text text-anchor="start" x="325.4053" y="-150.8" font-family="Helvetica,sans-Serif" font-size="11.00" fill="#000000">0 &gt;</text>
<polygon fill="none" stroke="#000000" stroke-width="2" points="181,-143.7 181,-231.7 345,-231.7 345,-143.7 181,-143.7"/>
</a>
</g>
</g>
<!-- eworker -->
<g id="node2" class="node">
<title>eworker</title>
<g id="a_node2"><a xlink:href="../../tables/eworker.html" xlink:title="eworker" target="_top">
<polygon fill="#ffffff" stroke="transparent" points="8,-38.2 8,-231.2 131,-231.2 131,-38.2 8,-38.2"/>
<polygon fill="#f5f5f5" stroke="transparent" points="8.5,-207.7 8.5,-230.7 131.5,-230.7 131.5,-207.7 8.5,-207.7"/>
<polygon fill="none" stroke="#000000" points="8.5,-207.7 8.5,-230.7 131.5,-230.7 131.5,-207.7 8.5,-207.7"/>
<text text-anchor="start" x="13.5" y="-216.8" font-family="Helvetica,sans-Serif" font-weight="bold" font-size="11.00" fill="#000000">eworker</text>
<text text-anchor="start" x="96.5437" y="-215.8" font-family="Helvetica,sans-Serif" font-size="11.00" fill="#000000">[table]</text>
<polygon fill="none" stroke="#000000" points="8.5,-185.7 8.5,-207.7 131.5,-207.7 131.5,-185.7 8.5,-185.7"/>
<image xlink:href="../../images/primaryKeys.png" width="11px" height="12px" preserveAspectRatio="xMinYMin meet" x="13.5" y="-202.7"/>
<text text-anchor="start" x="28.5" y="-192.8" font-family="Helvetica,sans-Serif" font-size="11.00" fill="#000000">id</text>
<polygon fill="#ffffff" stroke="transparent" points="8.5,-163.7 8.5,-185.7 131.5,-185.7 131.5,-163.7 8.5,-163.7"/>
<polygon fill="none" stroke="#000000" points="8.5,-163.7 8.5,-185.7 131.5,-185.7 131.5,-163.7 8.5,-163.7"/>
<image xlink:href="../../images/foreignKeys.png" width="11px" height="12px" preserveAspectRatio="xMinYMin meet" x="13.5" y="-180.7"/>
<text text-anchor="start" x="28.5" y="-170.8" font-family="Helvetica,sans-Serif" font-size="11.00" fill="#000000">created_by</text>
<polygon fill="#ffffff" stroke="transparent" points="8.5,-141.7 8.5,-163.7 131.5,-163.7 131.5,-141.7 8.5,-141.7"/>
<polygon fill="none" stroke="#000000" points="8.5,-141.7 8.5,-163.7 131.5,-163.7 131.5,-141.7 8.5,-141.7"/>
<image xlink:href="../../images/foreignKeys.png" width="11px" height="12px" preserveAspectRatio="xMinYMin meet" x="13.5" y="-158.7"/>
<text text-anchor="start" x="28.5" y="-148.8" font-family="Helvetica,sans-Serif" font-size="11.00" fill="#000000">modified_by</text>
<polygon fill="#ffffff" stroke="transparent" points="8.5,-119.7 8.5,-141.7 131.5,-141.7 131.5,-119.7 8.5,-119.7"/>
<polygon fill="none" stroke="#000000" points="8.5,-119.7 8.5,-141.7 131.5,-141.7 131.5,-119.7 8.5,-119.7"/>
<text text-anchor="start" x="28.5" y="-126.8" font-family="Helvetica,sans-Serif" font-size="11.00" fill="#000000">email</text>
<polygon fill="#ffffff" stroke="transparent" points="8.5,-97.7 8.5,-119.7 131.5,-119.7 131.5,-97.7 8.5,-97.7"/>
<polygon fill="none" stroke="#000000" points="8.5,-97.7 8.5,-119.7 131.5,-119.7 131.5,-97.7 8.5,-97.7"/>
<image xlink:href="../../images/foreignKeys.png" width="11px" height="12px" preserveAspectRatio="xMinYMin meet" x="13.5" y="-114.7"/>
<text text-anchor="start" x="28.5" y="-104.8" font-family="Helvetica,sans-Serif" font-size="11.00" fill="#000000">avatar_id</text>
<polygon fill="#ffffff" stroke="transparent" points="8.5,-75.7 8.5,-97.7 131.5,-97.7 131.5,-75.7 8.5,-75.7"/>
<polygon fill="none" stroke="#000000" points="8.5,-75.7 8.5,-97.7 131.5,-97.7 131.5,-75.7 8.5,-75.7"/>
<image xlink:href="../../images/foreignKeys.png" width="11px" height="12px" preserveAspectRatio="xMinYMin meet" x="13.5" y="-92.7"/>
<text text-anchor="start" x="28.5" y="-82.8" font-family="Helvetica,sans-Serif" font-size="11.00" fill="#000000">unit_id</text>
<polygon fill="none" stroke="#000000" points="8.5,-56.7 8.5,-75.7 131.5,-75.7 131.5,-56.7 8.5,-56.7"/>
<text text-anchor="start" x="11.5" y="-62.8" font-family="Helvetica,sans-Serif" font-size="11.00" fill="#000000">...</text>
<polygon fill="#ffffff" stroke="transparent" points="8.5,-37.7 8.5,-56.7 44.5,-56.7 44.5,-37.7 8.5,-37.7"/>
<polygon fill="none" stroke="#000000" points="8.5,-37.7 8.5,-56.7 44.5,-56.7 44.5,-37.7 8.5,-37.7"/>
<text text-anchor="start" x="11.5" y="-43.8" font-family="Helvetica,sans-Serif" font-size="11.00" fill="#000000">&lt; 4</text>
<polygon fill="#ffffff" stroke="transparent" points="44.5,-37.7 44.5,-56.7 102.5,-56.7 102.5,-37.7 44.5,-37.7"/>
<polygon fill="none" stroke="#000000" points="44.5,-37.7 44.5,-56.7 102.5,-56.7 102.5,-37.7 44.5,-37.7"/>
<text text-anchor="start" x="54.8807" y="-43.8" font-family="Helvetica,sans-Serif" font-size="11.00" fill="#000000">347 rows</text>
<polygon fill="#ffffff" stroke="transparent" points="102.5,-37.7 102.5,-56.7 131.5,-56.7 131.5,-37.7 102.5,-37.7"/>
<polygon fill="none" stroke="#000000" points="102.5,-37.7 102.5,-56.7 131.5,-56.7 131.5,-37.7 102.5,-37.7"/>
<text text-anchor="start" x="112.9053" y="-43.8" font-family="Helvetica,sans-Serif" font-size="11.00" fill="#000000">9 &gt;</text>
</a>
</g>
</g>
<!-- eworker_role&#45;&gt;eworker -->
<g id="edge1" class="edge">
<title>eworker_role:w&#45;&gt;eworker:e</title>
<path fill="none" stroke="#000000" d="M167.4203,-196.7C155.5435,-196.7 148.158,-196.7 131.5,-196.7"/>
<polygon fill="#000000" stroke="#000000" points="174,-196.7001 182,-200.3 178,-196.7 182,-196.7 182,-196.7 182,-196.7 178,-196.7 182,-193.1 174,-196.7001 174,-196.7001"/>
<ellipse fill="none" stroke="#000000" cx="170.8" cy="-196.7001" rx="3.2" ry="3.2"/>
</g>
</g>
</svg>
