<?xml version="1.0" encoding="UTF-8" standalone="no"?>
<!DOCTYPE svg PUBLIC "-//W3C//DTD SVG 1.1//EN"
 "http://www.w3.org/Graphics/SVG/1.1/DTD/svg11.dtd">
<!-- Generated by graphviz version 2.40.1 (20161225.0304)
 -->
<!-- Title: oneDegreeRelationshipsDiagram Pages: 1 -->
<svg width="466pt" height="259pt"
 viewBox="0.00 0.00 466.00 259.20" xmlns="http://www.w3.org/2000/svg" xmlns:xlink="http://www.w3.org/1999/xlink">
<g id="graph0" class="graph" transform="scale(1 1) rotate(0) translate(4 255.2)">
<title>oneDegreeRelationshipsDiagram</title>
<polygon fill="#ffffff" stroke="transparent" points="-4,4 -4,-255.2 462,-255.2 462,4 -4,4"/>
<text text-anchor="middle" x="72.4936" y="-7.3" font-family="Helvetica,sans-Serif" font-size="11.00" fill="#000000">Generated by SchemaSpy</text>
<!-- feedback_interview_time -->
<g id="node1" class="node">
<title>feedback_interview_time</title>
<g id="a_node1"><a xlink:href="../../tables/feedback_interview_time.html" xlink:title="feedback_interview_time" target="_top">
<polygon fill="#ffffff" stroke="transparent" points="233,-106.7 233,-196.7 450,-196.7 450,-106.7 233,-106.7"/>
<polygon fill="#f5f5f5" stroke="transparent" points="235.5,-171.7 235.5,-194.7 448.5,-194.7 448.5,-171.7 235.5,-171.7"/>
<polygon fill="none" stroke="#000000" points="235.5,-171.7 235.5,-194.7 448.5,-194.7 448.5,-171.7 235.5,-171.7"/>
<text text-anchor="start" x="240.5" y="-180.8" font-family="Helvetica,sans-Serif" font-weight="bold" font-size="11.00" fill="#000000">feedback_interview_time</text>
<text text-anchor="start" x="413.5437" y="-179.8" font-family="Helvetica,sans-Serif" font-size="11.00" fill="#000000">[table]</text>
<polygon fill="#ffffff" stroke="transparent" points="235.5,-149.7 235.5,-171.7 398.5,-171.7 398.5,-149.7 235.5,-149.7"/>
<polygon fill="none" stroke="#000000" points="235.5,-149.7 235.5,-171.7 398.5,-171.7 398.5,-149.7 235.5,-149.7"/>
<image xlink:href="../../images/foreignKeys.png" width="11px" height="12px" preserveAspectRatio="xMinYMin meet" x="240.5" y="-166.7"/>
<text text-anchor="start" x="255.5" y="-156.8" font-family="Helvetica,sans-Serif" font-size="11.00" fill="#000000">feedback_id</text>
<polygon fill="none" stroke="#000000" points="398.5,-149.7 398.5,-171.7 448.5,-171.7 448.5,-149.7 398.5,-149.7"/>
<text text-anchor="start" x="401.1865" y="-157.4" font-family="Helvetica,sans-Serif" font-size="11.00" fill="#000000">bigint[19]</text>
<polygon fill="#ffffff" stroke="transparent" points="235.5,-127.7 235.5,-149.7 398.5,-149.7 398.5,-127.7 235.5,-127.7"/>
<polygon fill="none" stroke="#000000" points="235.5,-127.7 235.5,-149.7 398.5,-149.7 398.5,-127.7 235.5,-127.7"/>
<image xlink:href="../../images/foreignKeys.png" width="11px" height="12px" preserveAspectRatio="xMinYMin meet" x="240.5" y="-144.7"/>
<text text-anchor="start" x="255.5" y="-134.8" font-family="Helvetica,sans-Serif" font-size="11.00" fill="#000000">interview_time_id</text>
<polygon fill="none" stroke="#000000" points="398.5,-127.7 398.5,-149.7 448.5,-149.7 448.5,-127.7 398.5,-127.7"/>
<text text-anchor="start" x="401.1865" y="-135.4" font-family="Helvetica,sans-Serif" font-size="11.00" fill="#000000">bigint[19]</text>
<polygon fill="#ffffff" stroke="transparent" points="235.5,-108.7 235.5,-127.7 302.5,-127.7 302.5,-108.7 235.5,-108.7"/>
<polygon fill="none" stroke="#000000" points="235.5,-108.7 235.5,-127.7 302.5,-127.7 302.5,-108.7 235.5,-108.7"/>
<text text-anchor="start" x="238.5" y="-114.8" font-family="Helvetica,sans-Serif" font-size="11.00" fill="#000000">&lt; 2</text>
<polygon fill="#ffffff" stroke="transparent" points="302.5,-108.7 302.5,-127.7 398.5,-127.7 398.5,-108.7 302.5,-108.7"/>
<polygon fill="none" stroke="#000000" points="302.5,-108.7 302.5,-127.7 398.5,-127.7 398.5,-108.7 302.5,-108.7"/>
<text text-anchor="start" x="350.8807" y="-114.8" font-family="Helvetica,sans-Serif" font-size="11.00" fill="#000000">120 rows</text>
<polygon fill="#ffffff" stroke="transparent" points="398.5,-108.7 398.5,-127.7 448.5,-127.7 448.5,-108.7 398.5,-108.7"/>
<polygon fill="none" stroke="#000000" points="398.5,-108.7 398.5,-127.7 448.5,-127.7 448.5,-108.7 398.5,-108.7"/>
<text text-anchor="start" x="429.9053" y="-114.8" font-family="Helvetica,sans-Serif" font-size="11.00" fill="#000000">0 &gt;</text>
<polygon fill="none" stroke="#000000" stroke-width="2" points="234,-107.7 234,-195.7 449,-195.7 449,-107.7 234,-107.7"/>
</a>
</g>
</g>
<!-- feedback -->
<g id="node2" class="node">
<title>feedback</title>
<g id="a_node2"><a xlink:href="../../tables/feedback.html" xlink:title="feedback" target="_top">
<polygon fill="#ffffff" stroke="transparent" points="8,-142.2 8,-247.2 184,-247.2 184,-142.2 8,-142.2"/>
<polygon fill="#f5f5f5" stroke="transparent" points="8,-223.7 8,-246.7 184,-246.7 184,-223.7 8,-223.7"/>
<polygon fill="none" stroke="#000000" points="8,-223.7 8,-246.7 184,-246.7 184,-223.7 8,-223.7"/>
<text text-anchor="start" x="13" y="-232.8" font-family="Helvetica,sans-Serif" font-weight="bold" font-size="11.00" fill="#000000">feedback</text>
<text text-anchor="start" x="149.0437" y="-231.8" font-family="Helvetica,sans-Serif" font-size="11.00" fill="#000000">[table]</text>
<polygon fill="none" stroke="#000000" points="8,-201.7 8,-223.7 184,-223.7 184,-201.7 8,-201.7"/>
<image xlink:href="../../images/primaryKeys.png" width="11px" height="12px" preserveAspectRatio="xMinYMin meet" x="13" y="-218.7"/>
<text text-anchor="start" x="28" y="-208.8" font-family="Helvetica,sans-Serif" font-size="11.00" fill="#000000">id</text>
<polygon fill="#ffffff" stroke="transparent" points="8,-179.7 8,-201.7 184,-201.7 184,-179.7 8,-179.7"/>
<polygon fill="none" stroke="#000000" points="8,-179.7 8,-201.7 184,-201.7 184,-179.7 8,-179.7"/>
<image xlink:href="../../images/foreignKeys.png" width="11px" height="12px" preserveAspectRatio="xMinYMin meet" x="13" y="-196.7"/>
<text text-anchor="start" x="28" y="-186.8" font-family="Helvetica,sans-Serif" font-size="11.00" fill="#000000">job_request_application_id</text>
<polygon fill="none" stroke="#000000" points="8,-160.7 8,-179.7 184,-179.7 184,-160.7 8,-160.7"/>
<text text-anchor="start" x="11" y="-166.8" font-family="Helvetica,sans-Serif" font-size="11.00" fill="#000000">...</text>
<polygon fill="#ffffff" stroke="transparent" points="8,-141.7 8,-160.7 74,-160.7 74,-141.7 8,-141.7"/>
<polygon fill="none" stroke="#000000" points="8,-141.7 8,-160.7 74,-160.7 74,-141.7 8,-141.7"/>
<text text-anchor="start" x="11" y="-147.8" font-family="Helvetica,sans-Serif" font-size="11.00" fill="#000000">&lt; 1</text>
<polygon fill="#ffffff" stroke="transparent" points="74,-141.7 74,-160.7 140,-160.7 140,-141.7 74,-141.7"/>
<polygon fill="none" stroke="#000000" points="74,-141.7 74,-160.7 140,-160.7 140,-141.7 74,-141.7"/>
<text text-anchor="start" x="98.4956" y="-147.8" font-family="Helvetica,sans-Serif" font-size="11.00" fill="#000000">60 rows</text>
<polygon fill="#ffffff" stroke="transparent" points="140,-141.7 140,-160.7 184,-160.7 184,-141.7 140,-141.7"/>
<polygon fill="none" stroke="#000000" points="140,-141.7 140,-160.7 184,-160.7 184,-141.7 140,-141.7"/>
<text text-anchor="start" x="165.4053" y="-147.8" font-family="Helvetica,sans-Serif" font-size="11.00" fill="#000000">1 &gt;</text>
</a>
</g>
</g>
<!-- feedback_interview_time&#45;&gt;feedback -->
<g id="edge1" class="edge">
<title>feedback_interview_time:w&#45;&gt;feedback:e</title>
<path fill="none" stroke="#000000" d="M221.4561,-165.4988C206.4356,-178.3719 210.4284,-212.7 184,-212.7"/>
<polygon fill="#000000" stroke="#000000" points="227.9297,-163.2868 236.6641,-164.1066 231.7149,-161.9934 235.5,-160.7 235.5,-160.7 235.5,-160.7 231.7149,-161.9934 234.3359,-157.2934 227.9297,-163.2868 227.9297,-163.2868"/>
<ellipse fill="none" stroke="#000000" cx="224.9016" cy="-164.3215" rx="3.2" ry="3.2"/>
</g>
<!-- interview_time -->
<g id="node3" class="node">
<title>interview_time</title>
<g id="a_node3"><a xlink:href="../../tables/interview_time.html" xlink:title="interview_time" target="_top">
<polygon fill="#ffffff" stroke="transparent" points="39.5,-38.2 39.5,-121.2 152.5,-121.2 152.5,-38.2 39.5,-38.2"/>
<polygon fill="#f5f5f5" stroke="transparent" points="40,-97.7 40,-120.7 153,-120.7 153,-97.7 40,-97.7"/>
<polygon fill="none" stroke="#000000" points="40,-97.7 40,-120.7 153,-120.7 153,-97.7 40,-97.7"/>
<text text-anchor="start" x="44.8622" y="-106.8" font-family="Helvetica,sans-Serif" font-weight="bold" font-size="11.00" fill="#000000">interview_time</text>
<text text-anchor="start" x="118.5219" y="-105.8" font-family="Helvetica,sans-Serif" font-size="11.00" fill="#000000">[table]</text>
<polygon fill="none" stroke="#000000" points="40,-75.7 40,-97.7 153,-97.7 153,-75.7 40,-75.7"/>
<image xlink:href="../../images/primaryKeys.png" width="11px" height="12px" preserveAspectRatio="xMinYMin meet" x="45" y="-92.7"/>
<text text-anchor="start" x="65" y="-82.8" font-family="Helvetica,sans-Serif" font-size="11.00" fill="#000000">id</text>
<polygon fill="none" stroke="#000000" points="40,-56.7 40,-75.7 153,-75.7 153,-56.7 40,-56.7"/>
<text text-anchor="start" x="43" y="-62.8" font-family="Helvetica,sans-Serif" font-size="11.00" fill="#000000">...</text>
<polygon fill="#ffffff" stroke="transparent" points="40,-37.7 40,-56.7 67,-56.7 67,-37.7 40,-37.7"/>
<polygon fill="none" stroke="#000000" points="40,-37.7 40,-56.7 67,-56.7 67,-37.7 40,-37.7"/>
<text text-anchor="start" x="43" y="-43.8" font-family="Helvetica,sans-Serif" font-size="11.00" fill="#000000"> &#160;</text>
<polygon fill="#ffffff" stroke="transparent" points="67,-37.7 67,-56.7 124,-56.7 124,-37.7 67,-37.7"/>
<polygon fill="none" stroke="#000000" points="67,-37.7 67,-56.7 124,-56.7 124,-37.7 67,-37.7"/>
<text text-anchor="start" x="76.3807" y="-43.8" font-family="Helvetica,sans-Serif" font-size="11.00" fill="#000000">120 rows</text>
<polygon fill="#ffffff" stroke="transparent" points="124,-37.7 124,-56.7 153,-56.7 153,-37.7 124,-37.7"/>
<polygon fill="none" stroke="#000000" points="124,-37.7 124,-56.7 153,-56.7 153,-37.7 124,-37.7"/>
<text text-anchor="start" x="134.4053" y="-43.8" font-family="Helvetica,sans-Serif" font-size="11.00" fill="#000000">1 &gt;</text>
</a>
</g>
</g>
<!-- feedback_interview_time&#45;&gt;interview_time -->
<g id="edge2" class="edge">
<title>feedback_interview_time:w&#45;&gt;interview_time:e</title>
<path fill="none" stroke="#000000" d="M220.9043,-136.3305C192.4467,-126.1578 190.7553,-86.7 153,-86.7"/>
<polygon fill="#000000" stroke="#000000" points="227.6034,-137.418 234.9231,-142.2535 231.5517,-138.059 235.5,-138.7 235.5,-138.7 235.5,-138.7 231.5517,-138.059 236.0769,-135.1465 227.6034,-137.418 227.6034,-137.418"/>
<ellipse fill="none" stroke="#000000" cx="224.4447" cy="-136.9052" rx="3.2" ry="3.2"/>
</g>
</g>
</svg>
