<?xml version="1.0" encoding="UTF-8" standalone="no"?>
<!DOCTYPE svg PUBLIC "-//W3C//DTD SVG 1.1//EN"
 "http://www.w3.org/Graphics/SVG/1.1/DTD/svg11.dtd">
<!-- Generated by graphviz version 2.40.1 (20161225.0304)
 -->
<!-- Title: oneDegreeRelationshipsDiagram Pages: 1 -->
<svg width="563pt" height="425pt"
 viewBox="0.00 0.00 563.00 424.70" xmlns="http://www.w3.org/2000/svg" xmlns:xlink="http://www.w3.org/1999/xlink">
<g id="graph0" class="graph" transform="scale(1 1) rotate(0) translate(4 420.7)">
<title>oneDegreeRelationshipsDiagram</title>
<polygon fill="#ffffff" stroke="transparent" points="-4,4 -4,-420.7 559,-420.7 559,4 -4,4"/>
<text text-anchor="middle" x="72.4936" y="-7.3" font-family="Helvetica,sans-Serif" font-size="11.00" fill="#000000">Generated by SchemaSpy</text>
<!-- feed -->
<g id="node1" class="node">
<title>feed</title>
<g id="a_node1"><a xlink:href="../../tables/feed.html" xlink:title="feed" target="_top">
<polygon fill="#ffffff" stroke="transparent" points="353,-102.7 353,-412.7 547,-412.7 547,-102.7 353,-102.7"/>
<polygon fill="#f5f5f5" stroke="transparent" points="355,-387.7 355,-410.7 545,-410.7 545,-387.7 355,-387.7"/>
<polygon fill="none" stroke="#000000" points="355,-387.7 355,-410.7 545,-410.7 545,-387.7 355,-387.7"/>
<text text-anchor="start" x="360" y="-396.8" font-family="Helvetica,sans-Serif" font-weight="bold" font-size="11.00" fill="#000000">feed</text>
<text text-anchor="start" x="510.0437" y="-395.8" font-family="Helvetica,sans-Serif" font-size="11.00" fill="#000000">[table]</text>
<polygon fill="none" stroke="#000000" points="355,-365.7 355,-387.7 478,-387.7 478,-365.7 355,-365.7"/>
<image xlink:href="../../images/primaryKeys.png" width="11px" height="12px" preserveAspectRatio="xMinYMin meet" x="360" y="-382.7"/>
<text text-anchor="start" x="375" y="-372.8" font-family="Helvetica,sans-Serif" font-size="11.00" fill="#000000">id</text>
<polygon fill="none" stroke="#000000" points="478,-365.7 478,-387.7 545,-387.7 545,-365.7 478,-365.7"/>
<text text-anchor="start" x="481" y="-373.4" font-family="Helvetica,sans-Serif" font-size="11.00" fill="#000000">bigint[19]</text>
<polygon fill="#ffffff" stroke="transparent" points="355,-343.7 355,-365.7 478,-365.7 478,-343.7 355,-343.7"/>
<polygon fill="none" stroke="#000000" points="355,-343.7 355,-365.7 478,-365.7 478,-343.7 355,-343.7"/>
<image xlink:href="../../images/foreignKeys.png" width="11px" height="12px" preserveAspectRatio="xMinYMin meet" x="360" y="-360.7"/>
<text text-anchor="start" x="375" y="-350.8" font-family="Helvetica,sans-Serif" font-size="11.00" fill="#000000">created_by</text>
<polygon fill="none" stroke="#000000" points="478,-343.7 478,-365.7 545,-365.7 545,-343.7 478,-343.7"/>
<text text-anchor="start" x="481" y="-351.4" font-family="Helvetica,sans-Serif" font-size="11.00" fill="#000000">bigint[19]</text>
<polygon fill="none" stroke="#000000" points="355,-321.7 355,-343.7 478,-343.7 478,-321.7 355,-321.7"/>
<text text-anchor="start" x="375" y="-328.8" font-family="Helvetica,sans-Serif" font-size="11.00" fill="#000000">creation_date</text>
<polygon fill="none" stroke="#000000" points="478,-321.7 478,-343.7 545,-343.7 545,-321.7 478,-321.7"/>
<text text-anchor="start" x="481" y="-329.4" font-family="Helvetica,sans-Serif" font-size="11.00" fill="#000000">datetime[26]</text>
<polygon fill="none" stroke="#000000" points="355,-299.7 355,-321.7 478,-321.7 478,-299.7 355,-299.7"/>
<text text-anchor="start" x="375" y="-306.8" font-family="Helvetica,sans-Serif" font-size="11.00" fill="#000000">modified_by</text>
<polygon fill="none" stroke="#000000" points="478,-299.7 478,-321.7 545,-321.7 545,-299.7 478,-299.7"/>
<text text-anchor="start" x="481" y="-307.4" font-family="Helvetica,sans-Serif" font-size="11.00" fill="#000000">bigint[19]</text>
<polygon fill="none" stroke="#000000" points="355,-277.7 355,-299.7 478,-299.7 478,-277.7 355,-277.7"/>
<text text-anchor="start" x="375" y="-284.8" font-family="Helvetica,sans-Serif" font-size="11.00" fill="#000000">modification_date</text>
<polygon fill="none" stroke="#000000" points="478,-277.7 478,-299.7 545,-299.7 545,-277.7 478,-277.7"/>
<text text-anchor="start" x="481" y="-285.4" font-family="Helvetica,sans-Serif" font-size="11.00" fill="#000000">datetime[26]</text>
<polygon fill="none" stroke="#000000" points="355,-255.7 355,-277.7 478,-277.7 478,-255.7 355,-255.7"/>
<text text-anchor="start" x="375" y="-262.8" font-family="Helvetica,sans-Serif" font-size="11.00" fill="#000000">type</text>
<polygon fill="none" stroke="#000000" points="478,-255.7 478,-277.7 545,-277.7 545,-255.7 478,-255.7"/>
<text text-anchor="start" x="481" y="-263.4" font-family="Helvetica,sans-Serif" font-size="11.00" fill="#000000">varchar[25]</text>
<polygon fill="none" stroke="#000000" points="355,-233.7 355,-255.7 478,-255.7 478,-233.7 355,-233.7"/>
<text text-anchor="start" x="375" y="-240.8" font-family="Helvetica,sans-Serif" font-size="11.00" fill="#000000">comment</text>
<polygon fill="none" stroke="#000000" points="478,-233.7 478,-255.7 545,-255.7 545,-233.7 478,-233.7"/>
<text text-anchor="start" x="481" y="-241.4" font-family="Helvetica,sans-Serif" font-size="11.00" fill="#000000">text[65535]</text>
<polygon fill="none" stroke="#000000" points="355,-211.7 355,-233.7 478,-233.7 478,-211.7 355,-211.7"/>
<text text-anchor="start" x="375" y="-218.8" font-family="Helvetica,sans-Serif" font-size="11.00" fill="#000000">name</text>
<polygon fill="none" stroke="#000000" points="478,-211.7 478,-233.7 545,-233.7 545,-211.7 478,-211.7"/>
<text text-anchor="start" x="480.9365" y="-219.4" font-family="Helvetica,sans-Serif" font-size="11.00" fill="#000000">varchar[255]</text>
<polygon fill="none" stroke="#000000" points="355,-189.7 355,-211.7 478,-211.7 478,-189.7 355,-189.7"/>
<text text-anchor="start" x="375" y="-196.8" font-family="Helvetica,sans-Serif" font-size="11.00" fill="#000000">vat_number</text>
<polygon fill="none" stroke="#000000" points="478,-189.7 478,-211.7 545,-211.7 545,-189.7 478,-189.7"/>
<text text-anchor="start" x="481" y="-197.4" font-family="Helvetica,sans-Serif" font-size="11.00" fill="#000000">varchar[25]</text>
<polygon fill="none" stroke="#000000" points="355,-167.7 355,-189.7 478,-189.7 478,-167.7 355,-167.7"/>
<text text-anchor="start" x="375" y="-174.8" font-family="Helvetica,sans-Serif" font-size="11.00" fill="#000000">org_number</text>
<polygon fill="none" stroke="#000000" points="478,-167.7 478,-189.7 545,-189.7 545,-167.7 478,-167.7"/>
<text text-anchor="start" x="481" y="-175.4" font-family="Helvetica,sans-Serif" font-size="11.00" fill="#000000">varchar[25]</text>
<polygon fill="none" stroke="#000000" points="355,-145.7 355,-167.7 478,-167.7 478,-145.7 355,-145.7"/>
<text text-anchor="start" x="375" y="-152.8" font-family="Helvetica,sans-Serif" font-size="11.00" fill="#000000">location</text>
<polygon fill="none" stroke="#000000" points="478,-145.7 478,-167.7 545,-167.7 545,-145.7 478,-145.7"/>
<text text-anchor="start" x="480.9365" y="-153.4" font-family="Helvetica,sans-Serif" font-size="11.00" fill="#000000">varchar[255]</text>
<polygon fill="#ffffff" stroke="transparent" points="355,-123.7 355,-145.7 478,-145.7 478,-123.7 355,-123.7"/>
<polygon fill="none" stroke="#000000" points="355,-123.7 355,-145.7 478,-145.7 478,-123.7 355,-123.7"/>
<image xlink:href="../../images/foreignKeys.png" width="11px" height="12px" preserveAspectRatio="xMinYMin meet" x="360" y="-140.7"/>
<text text-anchor="start" x="375" y="-130.8" font-family="Helvetica,sans-Serif" font-size="11.00" fill="#000000">supplier_id</text>
<polygon fill="none" stroke="#000000" points="478,-123.7 478,-145.7 545,-145.7 545,-123.7 478,-123.7"/>
<text text-anchor="start" x="481" y="-131.4" font-family="Helvetica,sans-Serif" font-size="11.00" fill="#000000">bigint[19]</text>
<polygon fill="#ffffff" stroke="transparent" points="355,-104.7 355,-123.7 402,-123.7 402,-104.7 355,-104.7"/>
<polygon fill="none" stroke="#000000" points="355,-104.7 355,-123.7 402,-123.7 402,-104.7 355,-104.7"/>
<text text-anchor="start" x="358" y="-110.8" font-family="Helvetica,sans-Serif" font-size="11.00" fill="#000000">&lt; 2</text>
<polygon fill="#ffffff" stroke="transparent" points="402,-104.7 402,-123.7 478,-123.7 478,-104.7 402,-104.7"/>
<polygon fill="none" stroke="#000000" points="402,-104.7 402,-123.7 478,-123.7 478,-104.7 402,-104.7"/>
<text text-anchor="start" x="430.3807" y="-110.8" font-family="Helvetica,sans-Serif" font-size="11.00" fill="#000000">221 rows</text>
<polygon fill="#ffffff" stroke="transparent" points="478,-104.7 478,-123.7 545,-123.7 545,-104.7 478,-104.7"/>
<polygon fill="none" stroke="#000000" points="478,-104.7 478,-123.7 545,-123.7 545,-104.7 478,-104.7"/>
<text text-anchor="start" x="526.4053" y="-110.8" font-family="Helvetica,sans-Serif" font-size="11.00" fill="#000000">0 &gt;</text>
<polygon fill="none" stroke="#000000" stroke-width="2" points="354,-103.7 354,-411.7 546,-411.7 546,-103.7 354,-103.7"/>
</a>
</g>
</g>
<!-- principal -->
<g id="node2" class="node">
<title>principal</title>
<g id="a_node2"><a xlink:href="../../tables/principal.html" xlink:title="principal" target="_top">
<polygon fill="#ffffff" stroke="transparent" points="8,-82.2 8,-187.2 100,-187.2 100,-82.2 8,-82.2"/>
<polygon fill="#f5f5f5" stroke="transparent" points="8,-163.7 8,-186.7 100,-186.7 100,-163.7 8,-163.7"/>
<polygon fill="none" stroke="#000000" points="8,-163.7 8,-186.7 100,-186.7 100,-163.7 8,-163.7"/>
<text text-anchor="start" x="13" y="-172.8" font-family="Helvetica,sans-Serif" font-weight="bold" font-size="11.00" fill="#000000">principal</text>
<text text-anchor="start" x="65.0437" y="-171.8" font-family="Helvetica,sans-Serif" font-size="11.00" fill="#000000">[table]</text>
<polygon fill="none" stroke="#000000" points="8,-141.7 8,-163.7 100,-163.7 100,-141.7 8,-141.7"/>
<image xlink:href="../../images/primaryKeys.png" width="11px" height="12px" preserveAspectRatio="xMinYMin meet" x="13" y="-158.7"/>
<text text-anchor="start" x="32" y="-148.8" font-family="Helvetica,sans-Serif" font-size="11.00" fill="#000000">id</text>
<polygon fill="#ffffff" stroke="transparent" points="8,-119.7 8,-141.7 100,-141.7 100,-119.7 8,-119.7"/>
<polygon fill="none" stroke="#000000" points="8,-119.7 8,-141.7 100,-141.7 100,-119.7 8,-119.7"/>
<image xlink:href="../../images/foreignKeys.png" width="11px" height="12px" preserveAspectRatio="xMinYMin meet" x="13" y="-136.7"/>
<text text-anchor="start" x="32" y="-126.8" font-family="Helvetica,sans-Serif" font-size="11.00" fill="#000000">eworker_id</text>
<polygon fill="none" stroke="#000000" points="8,-100.7 8,-119.7 100,-119.7 100,-100.7 8,-100.7"/>
<text text-anchor="start" x="11" y="-106.8" font-family="Helvetica,sans-Serif" font-size="11.00" fill="#000000">...</text>
<polygon fill="#ffffff" stroke="transparent" points="8,-81.7 8,-100.7 29,-100.7 29,-81.7 8,-81.7"/>
<polygon fill="none" stroke="#000000" points="8,-81.7 8,-100.7 29,-100.7 29,-81.7 8,-81.7"/>
<text text-anchor="start" x="10.7027" y="-87.8" font-family="Helvetica,sans-Serif" font-size="11.00" fill="#000000">&lt; 1</text>
<polygon fill="#ffffff" stroke="transparent" points="29,-81.7 29,-100.7 73,-100.7 73,-81.7 29,-81.7"/>
<polygon fill="none" stroke="#000000" points="29,-81.7 29,-100.7 73,-100.7 73,-81.7 29,-81.7"/>
<text text-anchor="start" x="31.7478" y="-87.8" font-family="Helvetica,sans-Serif" font-size="11.00" fill="#000000">18 rows</text>
<polygon fill="#ffffff" stroke="transparent" points="73,-81.7 73,-100.7 100,-100.7 100,-81.7 73,-81.7"/>
<polygon fill="none" stroke="#000000" points="73,-81.7 73,-100.7 100,-100.7 100,-81.7 73,-81.7"/>
<text text-anchor="start" x="75.6452" y="-87.8" font-family="Helvetica,sans-Serif" font-size="11.00" fill="#000000">56 &gt;</text>
</a>
</g>
</g>
<!-- feed&#45;&gt;principal -->
<g id="edge1" class="edge">
<title>feed:w&#45;&gt;principal:e</title>
<path fill="none" stroke="#000000" d="M340.3758,-354.3701C240.4033,-349.7131 216.426,-296.1616 141,-219.7 116.4832,-194.8466 134.9108,-152.7 100,-152.7"/>
<polygon fill="#000000" stroke="#000000" points="347.002,-354.5195 354.9188,-358.2991 351.001,-354.6098 355,-354.7 355,-354.7 355,-354.7 351.001,-354.6098 355.0812,-351.1009 347.002,-354.5195 347.002,-354.5195"/>
<ellipse fill="none" stroke="#000000" cx="343.8028" cy="-354.4473" rx="3.2" ry="3.2"/>
</g>
<!-- supplier -->
<g id="node3" class="node">
<title>supplier</title>
<g id="a_node3"><a xlink:href="../../tables/supplier.html" xlink:title="supplier" target="_top">
<polygon fill="#ffffff" stroke="transparent" points="149,-38.2 149,-209.2 304,-209.2 304,-38.2 149,-38.2"/>
<polygon fill="#f5f5f5" stroke="transparent" points="149.5,-185.7 149.5,-208.7 304.5,-208.7 304.5,-185.7 149.5,-185.7"/>
<polygon fill="none" stroke="#000000" points="149.5,-185.7 149.5,-208.7 304.5,-208.7 304.5,-185.7 149.5,-185.7"/>
<text text-anchor="start" x="154.5" y="-194.8" font-family="Helvetica,sans-Serif" font-weight="bold" font-size="11.00" fill="#000000">supplier</text>
<text text-anchor="start" x="269.5437" y="-193.8" font-family="Helvetica,sans-Serif" font-size="11.00" fill="#000000">[table]</text>
<polygon fill="none" stroke="#000000" points="149.5,-163.7 149.5,-185.7 304.5,-185.7 304.5,-163.7 149.5,-163.7"/>
<image xlink:href="../../images/primaryKeys.png" width="11px" height="12px" preserveAspectRatio="xMinYMin meet" x="154.5" y="-180.7"/>
<text text-anchor="start" x="169.5" y="-170.8" font-family="Helvetica,sans-Serif" font-size="11.00" fill="#000000">id</text>
<polygon fill="#ffffff" stroke="transparent" points="149.5,-141.7 149.5,-163.7 304.5,-163.7 304.5,-141.7 149.5,-141.7"/>
<polygon fill="none" stroke="#000000" points="149.5,-141.7 149.5,-163.7 304.5,-163.7 304.5,-141.7 149.5,-141.7"/>
<image xlink:href="../../images/foreignKeys.png" width="11px" height="12px" preserveAspectRatio="xMinYMin meet" x="154.5" y="-158.7"/>
<text text-anchor="start" x="169.5" y="-148.8" font-family="Helvetica,sans-Serif" font-size="11.00" fill="#000000">created_by</text>
<polygon fill="#ffffff" stroke="transparent" points="149.5,-119.7 149.5,-141.7 304.5,-141.7 304.5,-119.7 149.5,-119.7"/>
<polygon fill="none" stroke="#000000" points="149.5,-119.7 149.5,-141.7 304.5,-141.7 304.5,-119.7 149.5,-119.7"/>
<image xlink:href="../../images/foreignKeys.png" width="11px" height="12px" preserveAspectRatio="xMinYMin meet" x="154.5" y="-136.7"/>
<text text-anchor="start" x="169.5" y="-126.8" font-family="Helvetica,sans-Serif" font-size="11.00" fill="#000000">modified_by</text>
<polygon fill="#ffffff" stroke="transparent" points="149.5,-97.7 149.5,-119.7 304.5,-119.7 304.5,-97.7 149.5,-97.7"/>
<polygon fill="none" stroke="#000000" points="149.5,-97.7 149.5,-119.7 304.5,-119.7 304.5,-97.7 149.5,-97.7"/>
<text text-anchor="start" x="169.5" y="-104.8" font-family="Helvetica,sans-Serif" font-size="11.00" fill="#000000">marketplace_id</text>
<polygon fill="#ffffff" stroke="transparent" points="149.5,-75.7 149.5,-97.7 304.5,-97.7 304.5,-75.7 149.5,-75.7"/>
<polygon fill="none" stroke="#000000" points="149.5,-75.7 149.5,-97.7 304.5,-97.7 304.5,-75.7 149.5,-75.7"/>
<image xlink:href="../../images/foreignKeys.png" width="11px" height="12px" preserveAspectRatio="xMinYMin meet" x="154.5" y="-92.7"/>
<text text-anchor="start" x="169.5" y="-82.8" font-family="Helvetica,sans-Serif" font-size="11.00" fill="#000000">logo_id</text>
<polygon fill="none" stroke="#000000" points="149.5,-56.7 149.5,-75.7 304.5,-75.7 304.5,-56.7 149.5,-56.7"/>
<text text-anchor="start" x="152.5" y="-62.8" font-family="Helvetica,sans-Serif" font-size="11.00" fill="#000000">...</text>
<polygon fill="#ffffff" stroke="transparent" points="149.5,-37.7 149.5,-56.7 201.5,-56.7 201.5,-37.7 149.5,-37.7"/>
<polygon fill="none" stroke="#000000" points="149.5,-37.7 149.5,-56.7 201.5,-56.7 201.5,-37.7 149.5,-37.7"/>
<text text-anchor="start" x="152.5" y="-43.8" font-family="Helvetica,sans-Serif" font-size="11.00" fill="#000000">&lt; 3</text>
<polygon fill="#ffffff" stroke="transparent" points="201.5,-37.7 201.5,-56.7 267.5,-56.7 267.5,-37.7 201.5,-37.7"/>
<polygon fill="none" stroke="#000000" points="201.5,-37.7 201.5,-56.7 267.5,-56.7 267.5,-37.7 201.5,-37.7"/>
<text text-anchor="start" x="219.8807" y="-43.8" font-family="Helvetica,sans-Serif" font-size="11.00" fill="#000000">201 rows</text>
<polygon fill="#ffffff" stroke="transparent" points="267.5,-37.7 267.5,-56.7 304.5,-56.7 304.5,-37.7 267.5,-37.7"/>
<polygon fill="none" stroke="#000000" points="267.5,-37.7 267.5,-56.7 304.5,-56.7 304.5,-37.7 267.5,-37.7"/>
<text text-anchor="start" x="285.9053" y="-43.8" font-family="Helvetica,sans-Serif" font-size="11.00" fill="#000000">4 &gt;</text>
</a>
</g>
</g>
<!-- feed&#45;&gt;supplier -->
<g id="edge2" class="edge">
<title>feed:w&#45;&gt;supplier:e</title>
<path fill="none" stroke="#000000" d="M340.9416,-139.2885C327.6466,-149.7952 327.0926,-174.7 304.5,-174.7"/>
<polygon fill="#000000" stroke="#000000" points="347.3948,-137.1823 356.117,-138.1223 351.1974,-135.9411 355,-134.7 355,-134.7 355,-134.7 351.1974,-135.9411 353.883,-131.2777 347.3948,-137.1823 347.3948,-137.1823"/>
<ellipse fill="none" stroke="#000000" cx="344.3528" cy="-138.1752" rx="3.2" ry="3.2"/>
</g>
<!-- supplier&#45;&gt;principal -->
<g id="edge3" class="edge">
<title>supplier:w&#45;&gt;principal:e</title>
<path fill="none" stroke="#000000" d="M134.8428,-152.7C123.4139,-152.7 116.1563,-152.7 100,-152.7"/>
<polygon fill="#000000" stroke="#000000" points="141.5,-152.7001 149.5,-156.3 145.5,-152.7 149.5,-152.7 149.5,-152.7 149.5,-152.7 145.5,-152.7 149.5,-149.1 141.5,-152.7001 141.5,-152.7001"/>
<ellipse fill="none" stroke="#000000" cx="138.3" cy="-152.7001" rx="3.2" ry="3.2"/>
</g>
<!-- supplier&#45;&gt;principal -->
<g id="edge4" class="edge">
<title>supplier:w&#45;&gt;principal:e</title>
<path fill="none" stroke="#000000" d="M135.3612,-133.9462C123.4382,-140.0658 118.2443,-152.7 100,-152.7"/>
<polygon fill="#000000" stroke="#000000" points="141.7029,-132.4902 150.3056,-134.2087 145.6014,-131.5951 149.5,-130.7 149.5,-130.7 149.5,-130.7 145.6014,-131.5951 148.6944,-127.1913 141.7029,-132.4902 141.7029,-132.4902"/>
<ellipse fill="none" stroke="#000000" cx="138.584" cy="-133.2063" rx="3.2" ry="3.2"/>
</g>
</g>
</svg>
