<?xml version="1.0" encoding="UTF-8" standalone="no"?>
<!DOCTYPE svg PUBLIC "-//W3C//DTD SVG 1.1//EN"
 "http://www.w3.org/Graphics/SVG/1.1/DTD/svg11.dtd">
<!-- Generated by graphviz version 2.40.1 (20161225.0304)
 -->
<!-- Title: twoDegreesRelationshipsDiagram Pages: 1 -->
<svg width="674pt" height="259pt"
 viewBox="0.00 0.00 674.00 259.20" xmlns="http://www.w3.org/2000/svg" xmlns:xlink="http://www.w3.org/1999/xlink">
<g id="graph0" class="graph" transform="scale(1 1) rotate(0) translate(4 255.2)">
<title>twoDegreesRelationshipsDiagram</title>
<polygon fill="#ffffff" stroke="transparent" points="-4,4 -4,-255.2 670,-255.2 670,4 -4,4"/>
<text text-anchor="middle" x="72.4936" y="-7.3" font-family="Helvetica,sans-Serif" font-size="11.00" fill="#000000">Generated by SchemaSpy</text>
<!-- feedback -->
<g id="node1" class="node">
<title>feedback</title>
<g id="a_node1"><a xlink:href="../../tables/feedback.html" xlink:title="feedback" target="_top">
<polygon fill="#ffffff" stroke="transparent" points="216,-142.2 216,-247.2 392,-247.2 392,-142.2 216,-142.2"/>
<polygon fill="#f5f5f5" stroke="transparent" points="216,-223.7 216,-246.7 392,-246.7 392,-223.7 216,-223.7"/>
<polygon fill="none" stroke="#000000" points="216,-223.7 216,-246.7 392,-246.7 392,-223.7 216,-223.7"/>
<text text-anchor="start" x="221" y="-232.8" font-family="Helvetica,sans-Serif" font-weight="bold" font-size="11.00" fill="#000000">feedback</text>
<text text-anchor="start" x="357.0437" y="-231.8" font-family="Helvetica,sans-Serif" font-size="11.00" fill="#000000">[table]</text>
<polygon fill="none" stroke="#000000" points="216,-201.7 216,-223.7 392,-223.7 392,-201.7 216,-201.7"/>
<image xlink:href="../../images/primaryKeys.png" width="11px" height="12px" preserveAspectRatio="xMinYMin meet" x="221" y="-218.7"/>
<text text-anchor="start" x="236" y="-208.8" font-family="Helvetica,sans-Serif" font-size="11.00" fill="#000000">id</text>
<polygon fill="#ffffff" stroke="transparent" points="216,-179.7 216,-201.7 392,-201.7 392,-179.7 216,-179.7"/>
<polygon fill="none" stroke="#000000" points="216,-179.7 216,-201.7 392,-201.7 392,-179.7 216,-179.7"/>
<image xlink:href="../../images/foreignKeys.png" width="11px" height="12px" preserveAspectRatio="xMinYMin meet" x="221" y="-196.7"/>
<text text-anchor="start" x="236" y="-186.8" font-family="Helvetica,sans-Serif" font-size="11.00" fill="#000000">job_request_application_id</text>
<polygon fill="none" stroke="#000000" points="216,-160.7 216,-179.7 392,-179.7 392,-160.7 216,-160.7"/>
<text text-anchor="start" x="219" y="-166.8" font-family="Helvetica,sans-Serif" font-size="11.00" fill="#000000">...</text>
<polygon fill="#ffffff" stroke="transparent" points="216,-141.7 216,-160.7 282,-160.7 282,-141.7 216,-141.7"/>
<polygon fill="none" stroke="#000000" points="216,-141.7 216,-160.7 282,-160.7 282,-141.7 216,-141.7"/>
<text text-anchor="start" x="219" y="-147.8" font-family="Helvetica,sans-Serif" font-size="11.00" fill="#000000">&lt; 1</text>
<polygon fill="#ffffff" stroke="transparent" points="282,-141.7 282,-160.7 348,-160.7 348,-141.7 282,-141.7"/>
<polygon fill="none" stroke="#000000" points="282,-141.7 282,-160.7 348,-160.7 348,-141.7 282,-141.7"/>
<text text-anchor="start" x="306.4956" y="-147.8" font-family="Helvetica,sans-Serif" font-size="11.00" fill="#000000">60 rows</text>
<polygon fill="#ffffff" stroke="transparent" points="348,-141.7 348,-160.7 392,-160.7 392,-141.7 348,-141.7"/>
<polygon fill="none" stroke="#000000" points="348,-141.7 348,-160.7 392,-160.7 392,-141.7 348,-141.7"/>
<text text-anchor="start" x="373.4053" y="-147.8" font-family="Helvetica,sans-Serif" font-size="11.00" fill="#000000">1 &gt;</text>
</a>
</g>
</g>
<!-- job_request_application -->
<g id="node2" class="node">
<title>job_request_application</title>
<g id="a_node2"><a xlink:href="../../tables/job_request_application.html" xlink:title="job_request_application" target="_top">
<polygon fill="#ffffff" stroke="transparent" points="8,-163.2 8,-224.2 167,-224.2 167,-163.2 8,-163.2"/>
<polygon fill="#f5f5f5" stroke="transparent" points="8.5,-200.7 8.5,-223.7 167.5,-223.7 167.5,-200.7 8.5,-200.7"/>
<polygon fill="none" stroke="#000000" points="8.5,-200.7 8.5,-223.7 167.5,-223.7 167.5,-200.7 8.5,-200.7"/>
<text text-anchor="start" x="13.4261" y="-209.8" font-family="Helvetica,sans-Serif" font-weight="bold" font-size="11.00" fill="#000000">job_request_application</text>
<text text-anchor="start" x="133.0219" y="-208.8" font-family="Helvetica,sans-Serif" font-size="11.00" fill="#000000">[table]</text>
<polygon fill="none" stroke="#000000" points="8.5,-181.7 8.5,-200.7 167.5,-200.7 167.5,-181.7 8.5,-181.7"/>
<text text-anchor="start" x="11.5" y="-187.8" font-family="Helvetica,sans-Serif" font-size="11.00" fill="#000000">...</text>
<polygon fill="#ffffff" stroke="transparent" points="8.5,-162.7 8.5,-181.7 65.5,-181.7 65.5,-162.7 8.5,-162.7"/>
<polygon fill="none" stroke="#000000" points="8.5,-162.7 8.5,-181.7 65.5,-181.7 65.5,-162.7 8.5,-162.7"/>
<text text-anchor="start" x="11.5" y="-168.8" font-family="Helvetica,sans-Serif" font-size="11.00" fill="#000000">&lt; 6</text>
<polygon fill="#ffffff" stroke="transparent" points="65.5,-162.7 65.5,-181.7 127.5,-181.7 127.5,-162.7 65.5,-162.7"/>
<polygon fill="none" stroke="#000000" points="65.5,-162.7 65.5,-181.7 127.5,-181.7 127.5,-162.7 65.5,-162.7"/>
<text text-anchor="start" x="85.9956" y="-168.8" font-family="Helvetica,sans-Serif" font-size="11.00" fill="#000000">75 rows</text>
<polygon fill="#ffffff" stroke="transparent" points="127.5,-162.7 127.5,-181.7 167.5,-181.7 167.5,-162.7 127.5,-162.7"/>
<polygon fill="none" stroke="#000000" points="127.5,-162.7 127.5,-181.7 167.5,-181.7 167.5,-162.7 127.5,-162.7"/>
<text text-anchor="start" x="148.9053" y="-168.8" font-family="Helvetica,sans-Serif" font-size="11.00" fill="#000000">5 &gt;</text>
</a>
</g>
</g>
<!-- feedback&#45;&gt;job_request_application -->
<g id="edge1" class="edge">
<title>feedback:w&#45;&gt;job_request_application:e</title>
<path fill="none" stroke="#000000" d="M201.2829,-190.7C190.2886,-190.7 183.1615,-190.7 167.5,-190.7"/>
<polygon fill="#000000" stroke="#000000" points="208,-190.7001 216,-194.3 212,-190.7 216,-190.7 216,-190.7 216,-190.7 212,-190.7 216,-187.1 208,-190.7001 208,-190.7001"/>
<ellipse fill="none" stroke="#000000" cx="204.8" cy="-190.7001" rx="3.2" ry="3.2"/>
</g>
<!-- feedback_interview_time -->
<g id="node3" class="node">
<title>feedback_interview_time</title>
<g id="a_node3"><a xlink:href="../../tables/feedback_interview_time.html" xlink:title="feedback_interview_time" target="_top">
<polygon fill="#ffffff" stroke="transparent" points="441,-106.7 441,-196.7 658,-196.7 658,-106.7 441,-106.7"/>
<polygon fill="#f5f5f5" stroke="transparent" points="443.5,-171.7 443.5,-194.7 656.5,-194.7 656.5,-171.7 443.5,-171.7"/>
<polygon fill="none" stroke="#000000" points="443.5,-171.7 443.5,-194.7 656.5,-194.7 656.5,-171.7 443.5,-171.7"/>
<text text-anchor="start" x="448.5" y="-180.8" font-family="Helvetica,sans-Serif" font-weight="bold" font-size="11.00" fill="#000000">feedback_interview_time</text>
<text text-anchor="start" x="621.5437" y="-179.8" font-family="Helvetica,sans-Serif" font-size="11.00" fill="#000000">[table]</text>
<polygon fill="#ffffff" stroke="transparent" points="443.5,-149.7 443.5,-171.7 606.5,-171.7 606.5,-149.7 443.5,-149.7"/>
<polygon fill="none" stroke="#000000" points="443.5,-149.7 443.5,-171.7 606.5,-171.7 606.5,-149.7 443.5,-149.7"/>
<image xlink:href="../../images/foreignKeys.png" width="11px" height="12px" preserveAspectRatio="xMinYMin meet" x="448.5" y="-166.7"/>
<text text-anchor="start" x="463.5" y="-156.8" font-family="Helvetica,sans-Serif" font-size="11.00" fill="#000000">feedback_id</text>
<polygon fill="none" stroke="#000000" points="606.5,-149.7 606.5,-171.7 656.5,-171.7 656.5,-149.7 606.5,-149.7"/>
<text text-anchor="start" x="609.1865" y="-157.4" font-family="Helvetica,sans-Serif" font-size="11.00" fill="#000000">bigint[19]</text>
<polygon fill="#ffffff" stroke="transparent" points="443.5,-127.7 443.5,-149.7 606.5,-149.7 606.5,-127.7 443.5,-127.7"/>
<polygon fill="none" stroke="#000000" points="443.5,-127.7 443.5,-149.7 606.5,-149.7 606.5,-127.7 443.5,-127.7"/>
<image xlink:href="../../images/foreignKeys.png" width="11px" height="12px" preserveAspectRatio="xMinYMin meet" x="448.5" y="-144.7"/>
<text text-anchor="start" x="463.5" y="-134.8" font-family="Helvetica,sans-Serif" font-size="11.00" fill="#000000">interview_time_id</text>
<polygon fill="none" stroke="#000000" points="606.5,-127.7 606.5,-149.7 656.5,-149.7 656.5,-127.7 606.5,-127.7"/>
<text text-anchor="start" x="609.1865" y="-135.4" font-family="Helvetica,sans-Serif" font-size="11.00" fill="#000000">bigint[19]</text>
<polygon fill="#ffffff" stroke="transparent" points="443.5,-108.7 443.5,-127.7 510.5,-127.7 510.5,-108.7 443.5,-108.7"/>
<polygon fill="none" stroke="#000000" points="443.5,-108.7 443.5,-127.7 510.5,-127.7 510.5,-108.7 443.5,-108.7"/>
<text text-anchor="start" x="446.5" y="-114.8" font-family="Helvetica,sans-Serif" font-size="11.00" fill="#000000">&lt; 2</text>
<polygon fill="#ffffff" stroke="transparent" points="510.5,-108.7 510.5,-127.7 606.5,-127.7 606.5,-108.7 510.5,-108.7"/>
<polygon fill="none" stroke="#000000" points="510.5,-108.7 510.5,-127.7 606.5,-127.7 606.5,-108.7 510.5,-108.7"/>
<text text-anchor="start" x="558.8807" y="-114.8" font-family="Helvetica,sans-Serif" font-size="11.00" fill="#000000">120 rows</text>
<polygon fill="#ffffff" stroke="transparent" points="606.5,-108.7 606.5,-127.7 656.5,-127.7 656.5,-108.7 606.5,-108.7"/>
<polygon fill="none" stroke="#000000" points="606.5,-108.7 606.5,-127.7 656.5,-127.7 656.5,-108.7 606.5,-108.7"/>
<text text-anchor="start" x="637.9053" y="-114.8" font-family="Helvetica,sans-Serif" font-size="11.00" fill="#000000">0 &gt;</text>
<polygon fill="none" stroke="#000000" stroke-width="2" points="442,-107.7 442,-195.7 657,-195.7 657,-107.7 442,-107.7"/>
</a>
</g>
</g>
<!-- feedback_interview_time&#45;&gt;feedback -->
<g id="edge2" class="edge">
<title>feedback_interview_time:w&#45;&gt;feedback:e</title>
<path fill="none" stroke="#000000" d="M429.4561,-165.4988C414.4356,-178.3719 418.4284,-212.7 392,-212.7"/>
<polygon fill="#000000" stroke="#000000" points="435.9297,-163.2868 444.6641,-164.1066 439.7149,-161.9934 443.5,-160.7 443.5,-160.7 443.5,-160.7 439.7149,-161.9934 442.3359,-157.2934 435.9297,-163.2868 435.9297,-163.2868"/>
<ellipse fill="none" stroke="#000000" cx="432.9016" cy="-164.3215" rx="3.2" ry="3.2"/>
</g>
<!-- interview_time -->
<g id="node4" class="node">
<title>interview_time</title>
<g id="a_node4"><a xlink:href="../../tables/interview_time.html" xlink:title="interview_time" target="_top">
<polygon fill="#ffffff" stroke="transparent" points="247.5,-38.2 247.5,-121.2 360.5,-121.2 360.5,-38.2 247.5,-38.2"/>
<polygon fill="#f5f5f5" stroke="transparent" points="248,-97.7 248,-120.7 361,-120.7 361,-97.7 248,-97.7"/>
<polygon fill="none" stroke="#000000" points="248,-97.7 248,-120.7 361,-120.7 361,-97.7 248,-97.7"/>
<text text-anchor="start" x="252.8622" y="-106.8" font-family="Helvetica,sans-Serif" font-weight="bold" font-size="11.00" fill="#000000">interview_time</text>
<text text-anchor="start" x="326.5219" y="-105.8" font-family="Helvetica,sans-Serif" font-size="11.00" fill="#000000">[table]</text>
<polygon fill="none" stroke="#000000" points="248,-75.7 248,-97.7 361,-97.7 361,-75.7 248,-75.7"/>
<image xlink:href="../../images/primaryKeys.png" width="11px" height="12px" preserveAspectRatio="xMinYMin meet" x="253" y="-92.7"/>
<text text-anchor="start" x="273" y="-82.8" font-family="Helvetica,sans-Serif" font-size="11.00" fill="#000000">id</text>
<polygon fill="none" stroke="#000000" points="248,-56.7 248,-75.7 361,-75.7 361,-56.7 248,-56.7"/>
<text text-anchor="start" x="251" y="-62.8" font-family="Helvetica,sans-Serif" font-size="11.00" fill="#000000">...</text>
<polygon fill="#ffffff" stroke="transparent" points="248,-37.7 248,-56.7 275,-56.7 275,-37.7 248,-37.7"/>
<polygon fill="none" stroke="#000000" points="248,-37.7 248,-56.7 275,-56.7 275,-37.7 248,-37.7"/>
<text text-anchor="start" x="251" y="-43.8" font-family="Helvetica,sans-Serif" font-size="11.00" fill="#000000"> &#160;</text>
<polygon fill="#ffffff" stroke="transparent" points="275,-37.7 275,-56.7 332,-56.7 332,-37.7 275,-37.7"/>
<polygon fill="none" stroke="#000000" points="275,-37.7 275,-56.7 332,-56.7 332,-37.7 275,-37.7"/>
<text text-anchor="start" x="284.3807" y="-43.8" font-family="Helvetica,sans-Serif" font-size="11.00" fill="#000000">120 rows</text>
<polygon fill="#ffffff" stroke="transparent" points="332,-37.7 332,-56.7 361,-56.7 361,-37.7 332,-37.7"/>
<polygon fill="none" stroke="#000000" points="332,-37.7 332,-56.7 361,-56.7 361,-37.7 332,-37.7"/>
<text text-anchor="start" x="342.4053" y="-43.8" font-family="Helvetica,sans-Serif" font-size="11.00" fill="#000000">1 &gt;</text>
</a>
</g>
</g>
<!-- feedback_interview_time&#45;&gt;interview_time -->
<g id="edge3" class="edge">
<title>feedback_interview_time:w&#45;&gt;interview_time:e</title>
<path fill="none" stroke="#000000" d="M428.9043,-136.3305C400.4467,-126.1578 398.7553,-86.7 361,-86.7"/>
<polygon fill="#000000" stroke="#000000" points="435.6034,-137.418 442.9231,-142.2535 439.5517,-138.059 443.5,-138.7 443.5,-138.7 443.5,-138.7 439.5517,-138.059 444.0769,-135.1465 435.6034,-137.418 435.6034,-137.418"/>
<ellipse fill="none" stroke="#000000" cx="432.4447" cy="-136.9052" rx="3.2" ry="3.2"/>
</g>
</g>
</svg>
