<?xml version="1.0" encoding="UTF-8" standalone="no"?>
<!DOCTYPE svg PUBLIC "-//W3C//DTD SVG 1.1//EN"
 "http://www.w3.org/Graphics/SVG/1.1/DTD/svg11.dtd">
<!-- Generated by graphviz version 2.40.1 (20161225.0304)
 -->
<!-- Title: oneDegreeRelationshipsDiagram Pages: 1 -->
<svg width="692pt" height="509pt"
 viewBox="0.00 0.00 692.00 508.70" xmlns="http://www.w3.org/2000/svg" xmlns:xlink="http://www.w3.org/1999/xlink">
<g id="graph0" class="graph" transform="scale(1 1) rotate(0) translate(4 504.7)">
<title>oneDegreeRelationshipsDiagram</title>
<polygon fill="#ffffff" stroke="transparent" points="-4,4 -4,-504.7 688,-504.7 688,4 -4,4"/>
<text text-anchor="middle" x="72.4936" y="-7.3" font-family="Helvetica,sans-Serif" font-size="11.00" fill="#000000">Generated by SchemaSpy</text>
<!-- feedback -->
<g id="node1" class="node">
<title>feedback</title>
<g id="a_node1"><a xlink:href="../../tables/feedback.html" xlink:title="feedback" target="_top">
<polygon fill="#ffffff" stroke="transparent" points="216,-186.7 216,-496.7 463,-496.7 463,-186.7 216,-186.7"/>
<polygon fill="#f5f5f5" stroke="transparent" points="218.5,-471.7 218.5,-494.7 461.5,-494.7 461.5,-471.7 218.5,-471.7"/>
<polygon fill="none" stroke="#000000" points="218.5,-471.7 218.5,-494.7 461.5,-494.7 461.5,-471.7 218.5,-471.7"/>
<text text-anchor="start" x="223.5" y="-480.8" font-family="Helvetica,sans-Serif" font-weight="bold" font-size="11.00" fill="#000000">feedback</text>
<text text-anchor="start" x="426.5437" y="-479.8" font-family="Helvetica,sans-Serif" font-size="11.00" fill="#000000">[table]</text>
<polygon fill="none" stroke="#000000" points="218.5,-449.7 218.5,-471.7 394.5,-471.7 394.5,-449.7 218.5,-449.7"/>
<image xlink:href="../../images/primaryKeys.png" width="11px" height="12px" preserveAspectRatio="xMinYMin meet" x="223.5" y="-466.7"/>
<text text-anchor="start" x="238.5" y="-456.8" font-family="Helvetica,sans-Serif" font-size="11.00" fill="#000000">id</text>
<polygon fill="none" stroke="#000000" points="394.5,-449.7 394.5,-471.7 461.5,-471.7 461.5,-449.7 394.5,-449.7"/>
<text text-anchor="start" x="397.5" y="-457.4" font-family="Helvetica,sans-Serif" font-size="11.00" fill="#000000">bigint[19]</text>
<polygon fill="none" stroke="#000000" points="218.5,-427.7 218.5,-449.7 394.5,-449.7 394.5,-427.7 218.5,-427.7"/>
<text text-anchor="start" x="238.5" y="-434.8" font-family="Helvetica,sans-Serif" font-size="11.00" fill="#000000">created_date</text>
<polygon fill="none" stroke="#000000" points="394.5,-427.7 394.5,-449.7 461.5,-449.7 461.5,-427.7 394.5,-427.7"/>
<text text-anchor="start" x="397.5" y="-435.4" font-family="Helvetica,sans-Serif" font-size="11.00" fill="#000000">datetime[26]</text>
<polygon fill="none" stroke="#000000" points="218.5,-405.7 218.5,-427.7 394.5,-427.7 394.5,-405.7 218.5,-405.7"/>
<text text-anchor="start" x="238.5" y="-412.8" font-family="Helvetica,sans-Serif" font-size="11.00" fill="#000000">type</text>
<polygon fill="none" stroke="#000000" points="394.5,-405.7 394.5,-427.7 461.5,-427.7 461.5,-405.7 394.5,-405.7"/>
<text text-anchor="start" x="397.5" y="-413.4" font-family="Helvetica,sans-Serif" font-size="11.00" fill="#000000">varchar[50]</text>
<polygon fill="none" stroke="#000000" points="218.5,-383.7 218.5,-405.7 394.5,-405.7 394.5,-383.7 218.5,-383.7"/>
<text text-anchor="start" x="238.5" y="-390.8" font-family="Helvetica,sans-Serif" font-size="11.00" fill="#000000">reason</text>
<polygon fill="none" stroke="#000000" points="394.5,-383.7 394.5,-405.7 461.5,-405.7 461.5,-383.7 394.5,-383.7"/>
<text text-anchor="start" x="397.5" y="-391.4" font-family="Helvetica,sans-Serif" font-size="11.00" fill="#000000">varchar[50]</text>
<polygon fill="none" stroke="#000000" points="218.5,-361.7 218.5,-383.7 394.5,-383.7 394.5,-361.7 218.5,-361.7"/>
<text text-anchor="start" x="238.5" y="-368.8" font-family="Helvetica,sans-Serif" font-size="11.00" fill="#000000">comment</text>
<polygon fill="none" stroke="#000000" points="394.5,-361.7 394.5,-383.7 461.5,-383.7 461.5,-361.7 394.5,-361.7"/>
<text text-anchor="start" x="397.4365" y="-369.4" font-family="Helvetica,sans-Serif" font-size="11.00" fill="#000000">varchar[255]</text>
<polygon fill="none" stroke="#000000" points="218.5,-339.7 218.5,-361.7 394.5,-361.7 394.5,-339.7 218.5,-339.7"/>
<text text-anchor="start" x="238.5" y="-346.8" font-family="Helvetica,sans-Serif" font-size="11.00" fill="#000000">first_name</text>
<polygon fill="none" stroke="#000000" points="394.5,-339.7 394.5,-361.7 461.5,-361.7 461.5,-339.7 394.5,-339.7"/>
<text text-anchor="start" x="397.5" y="-347.4" font-family="Helvetica,sans-Serif" font-size="11.00" fill="#000000">varchar[50]</text>
<polygon fill="none" stroke="#000000" points="218.5,-317.7 218.5,-339.7 394.5,-339.7 394.5,-317.7 218.5,-317.7"/>
<text text-anchor="start" x="238.5" y="-324.8" font-family="Helvetica,sans-Serif" font-size="11.00" fill="#000000">last_name</text>
<polygon fill="none" stroke="#000000" points="394.5,-317.7 394.5,-339.7 461.5,-339.7 461.5,-317.7 394.5,-317.7"/>
<text text-anchor="start" x="397.5" y="-325.4" font-family="Helvetica,sans-Serif" font-size="11.00" fill="#000000">varchar[50]</text>
<polygon fill="none" stroke="#000000" points="218.5,-295.7 218.5,-317.7 394.5,-317.7 394.5,-295.7 218.5,-295.7"/>
<text text-anchor="start" x="238.5" y="-302.8" font-family="Helvetica,sans-Serif" font-size="11.00" fill="#000000">email</text>
<polygon fill="none" stroke="#000000" points="394.5,-295.7 394.5,-317.7 461.5,-317.7 461.5,-295.7 394.5,-295.7"/>
<text text-anchor="start" x="397.4365" y="-303.4" font-family="Helvetica,sans-Serif" font-size="11.00" fill="#000000">varchar[255]</text>
<polygon fill="none" stroke="#000000" points="218.5,-273.7 218.5,-295.7 394.5,-295.7 394.5,-273.7 218.5,-273.7"/>
<text text-anchor="start" x="238.5" y="-280.8" font-family="Helvetica,sans-Serif" font-size="11.00" fill="#000000">phone_code</text>
<polygon fill="none" stroke="#000000" points="394.5,-273.7 394.5,-295.7 461.5,-295.7 461.5,-273.7 394.5,-273.7"/>
<text text-anchor="start" x="397.5" y="-281.4" font-family="Helvetica,sans-Serif" font-size="11.00" fill="#000000">varchar[2]</text>
<polygon fill="none" stroke="#000000" points="218.5,-251.7 218.5,-273.7 394.5,-273.7 394.5,-251.7 218.5,-251.7"/>
<text text-anchor="start" x="238.5" y="-258.8" font-family="Helvetica,sans-Serif" font-size="11.00" fill="#000000">phone_number</text>
<polygon fill="none" stroke="#000000" points="394.5,-251.7 394.5,-273.7 461.5,-273.7 461.5,-251.7 394.5,-251.7"/>
<text text-anchor="start" x="397.4365" y="-259.4" font-family="Helvetica,sans-Serif" font-size="11.00" fill="#000000">varchar[255]</text>
<polygon fill="#ffffff" stroke="transparent" points="218.5,-229.7 218.5,-251.7 394.5,-251.7 394.5,-229.7 218.5,-229.7"/>
<polygon fill="none" stroke="#000000" points="218.5,-229.7 218.5,-251.7 394.5,-251.7 394.5,-229.7 218.5,-229.7"/>
<image xlink:href="../../images/foreignKeys.png" width="11px" height="12px" preserveAspectRatio="xMinYMin meet" x="223.5" y="-246.7"/>
<text text-anchor="start" x="238.5" y="-236.8" font-family="Helvetica,sans-Serif" font-size="11.00" fill="#000000">job_request_application_id</text>
<polygon fill="none" stroke="#000000" points="394.5,-229.7 394.5,-251.7 461.5,-251.7 461.5,-229.7 394.5,-229.7"/>
<text text-anchor="start" x="397.5" y="-237.4" font-family="Helvetica,sans-Serif" font-size="11.00" fill="#000000">bigint[19]</text>
<polygon fill="none" stroke="#000000" points="218.5,-207.7 218.5,-229.7 394.5,-229.7 394.5,-207.7 218.5,-207.7"/>
<text text-anchor="start" x="238.5" y="-214.8" font-family="Helvetica,sans-Serif" font-size="11.00" fill="#000000">client_portal_id</text>
<polygon fill="none" stroke="#000000" points="394.5,-207.7 394.5,-229.7 461.5,-229.7 461.5,-207.7 394.5,-207.7"/>
<text text-anchor="start" x="397.5" y="-215.4" font-family="Helvetica,sans-Serif" font-size="11.00" fill="#000000">bigint[19]</text>
<polygon fill="#ffffff" stroke="transparent" points="218.5,-188.7 218.5,-207.7 294.5,-207.7 294.5,-188.7 218.5,-188.7"/>
<polygon fill="none" stroke="#000000" points="218.5,-188.7 218.5,-207.7 294.5,-207.7 294.5,-188.7 218.5,-188.7"/>
<text text-anchor="start" x="221.5" y="-194.8" font-family="Helvetica,sans-Serif" font-size="11.00" fill="#000000">&lt; 1</text>
<polygon fill="#ffffff" stroke="transparent" points="294.5,-188.7 294.5,-207.7 394.5,-207.7 394.5,-188.7 294.5,-188.7"/>
<polygon fill="none" stroke="#000000" points="294.5,-188.7 294.5,-207.7 394.5,-207.7 394.5,-188.7 294.5,-188.7"/>
<text text-anchor="start" x="352.9956" y="-194.8" font-family="Helvetica,sans-Serif" font-size="11.00" fill="#000000">60 rows</text>
<polygon fill="#ffffff" stroke="transparent" points="394.5,-188.7 394.5,-207.7 461.5,-207.7 461.5,-188.7 394.5,-188.7"/>
<polygon fill="none" stroke="#000000" points="394.5,-188.7 394.5,-207.7 461.5,-207.7 461.5,-188.7 394.5,-188.7"/>
<text text-anchor="start" x="442.9053" y="-194.8" font-family="Helvetica,sans-Serif" font-size="11.00" fill="#000000">1 &gt;</text>
<polygon fill="none" stroke="#000000" stroke-width="2" points="217,-187.7 217,-495.7 462,-495.7 462,-187.7 217,-187.7"/>
</a>
</g>
</g>
<!-- job_request_application -->
<g id="node2" class="node">
<title>job_request_application</title>
<g id="a_node2"><a xlink:href="../../tables/job_request_application.html" xlink:title="job_request_application" target="_top">
<polygon fill="#ffffff" stroke="transparent" points="8,-38.2 8,-275.2 167,-275.2 167,-38.2 8,-38.2"/>
<polygon fill="#f5f5f5" stroke="transparent" points="8.5,-251.7 8.5,-274.7 167.5,-274.7 167.5,-251.7 8.5,-251.7"/>
<polygon fill="none" stroke="#000000" points="8.5,-251.7 8.5,-274.7 167.5,-274.7 167.5,-251.7 8.5,-251.7"/>
<text text-anchor="start" x="13.4261" y="-260.8" font-family="Helvetica,sans-Serif" font-weight="bold" font-size="11.00" fill="#000000">job_request_application</text>
<text text-anchor="start" x="133.0219" y="-259.8" font-family="Helvetica,sans-Serif" font-size="11.00" fill="#000000">[table]</text>
<polygon fill="none" stroke="#000000" points="8.5,-229.7 8.5,-251.7 167.5,-251.7 167.5,-229.7 8.5,-229.7"/>
<image xlink:href="../../images/primaryKeys.png" width="11px" height="12px" preserveAspectRatio="xMinYMin meet" x="13.5" y="-246.7"/>
<text text-anchor="start" x="28.5" y="-236.8" font-family="Helvetica,sans-Serif" font-size="11.00" fill="#000000">id</text>
<polygon fill="#ffffff" stroke="transparent" points="8.5,-207.7 8.5,-229.7 167.5,-229.7 167.5,-207.7 8.5,-207.7"/>
<polygon fill="none" stroke="#000000" points="8.5,-207.7 8.5,-229.7 167.5,-229.7 167.5,-207.7 8.5,-207.7"/>
<image xlink:href="../../images/foreignKeys.png" width="11px" height="12px" preserveAspectRatio="xMinYMin meet" x="13.5" y="-224.7"/>
<text text-anchor="start" x="28.5" y="-214.8" font-family="Helvetica,sans-Serif" font-size="11.00" fill="#000000">created_by</text>
<polygon fill="#ffffff" stroke="transparent" points="8.5,-185.7 8.5,-207.7 167.5,-207.7 167.5,-185.7 8.5,-185.7"/>
<polygon fill="none" stroke="#000000" points="8.5,-185.7 8.5,-207.7 167.5,-207.7 167.5,-185.7 8.5,-185.7"/>
<image xlink:href="../../images/foreignKeys.png" width="11px" height="12px" preserveAspectRatio="xMinYMin meet" x="13.5" y="-202.7"/>
<text text-anchor="start" x="28.5" y="-192.8" font-family="Helvetica,sans-Serif" font-size="11.00" fill="#000000">modified_by</text>
<polygon fill="#ffffff" stroke="transparent" points="8.5,-163.7 8.5,-185.7 167.5,-185.7 167.5,-163.7 8.5,-163.7"/>
<polygon fill="none" stroke="#000000" points="8.5,-163.7 8.5,-185.7 167.5,-185.7 167.5,-163.7 8.5,-163.7"/>
<image xlink:href="../../images/foreignKeys.png" width="11px" height="12px" preserveAspectRatio="xMinYMin meet" x="13.5" y="-180.7"/>
<text text-anchor="start" x="28.5" y="-170.8" font-family="Helvetica,sans-Serif" font-size="11.00" fill="#000000">job_request_id</text>
<polygon fill="#ffffff" stroke="transparent" points="8.5,-141.7 8.5,-163.7 167.5,-163.7 167.5,-141.7 8.5,-141.7"/>
<polygon fill="none" stroke="#000000" points="8.5,-141.7 8.5,-163.7 167.5,-163.7 167.5,-141.7 8.5,-141.7"/>
<image xlink:href="../../images/foreignKeys.png" width="11px" height="12px" preserveAspectRatio="xMinYMin meet" x="13.5" y="-158.7"/>
<text text-anchor="start" x="28.5" y="-148.8" font-family="Helvetica,sans-Serif" font-size="11.00" fill="#000000">supplier_id</text>
<polygon fill="#ffffff" stroke="transparent" points="8.5,-119.7 8.5,-141.7 167.5,-141.7 167.5,-119.7 8.5,-119.7"/>
<polygon fill="none" stroke="#000000" points="8.5,-119.7 8.5,-141.7 167.5,-141.7 167.5,-119.7 8.5,-119.7"/>
<text text-anchor="start" x="28.5" y="-126.8" font-family="Helvetica,sans-Serif" font-size="11.00" fill="#000000">marketplace_id</text>
<polygon fill="#ffffff" stroke="transparent" points="8.5,-97.7 8.5,-119.7 167.5,-119.7 167.5,-97.7 8.5,-97.7"/>
<polygon fill="none" stroke="#000000" points="8.5,-97.7 8.5,-119.7 167.5,-119.7 167.5,-97.7 8.5,-97.7"/>
<image xlink:href="../../images/foreignKeys.png" width="11px" height="12px" preserveAspectRatio="xMinYMin meet" x="13.5" y="-114.7"/>
<text text-anchor="start" x="28.5" y="-104.8" font-family="Helvetica,sans-Serif" font-size="11.00" fill="#000000">applicant_id</text>
<polygon fill="#ffffff" stroke="transparent" points="8.5,-75.7 8.5,-97.7 167.5,-97.7 167.5,-75.7 8.5,-75.7"/>
<polygon fill="none" stroke="#000000" points="8.5,-75.7 8.5,-97.7 167.5,-97.7 167.5,-75.7 8.5,-75.7"/>
<image xlink:href="../../images/foreignKeys.png" width="11px" height="12px" preserveAspectRatio="xMinYMin meet" x="13.5" y="-92.7"/>
<text text-anchor="start" x="28.5" y="-82.8" font-family="Helvetica,sans-Serif" font-size="11.00" fill="#000000">avatar_id</text>
<polygon fill="none" stroke="#000000" points="8.5,-56.7 8.5,-75.7 167.5,-75.7 167.5,-56.7 8.5,-56.7"/>
<text text-anchor="start" x="11.5" y="-62.8" font-family="Helvetica,sans-Serif" font-size="11.00" fill="#000000">...</text>
<polygon fill="#ffffff" stroke="transparent" points="8.5,-37.7 8.5,-56.7 65.5,-56.7 65.5,-37.7 8.5,-37.7"/>
<polygon fill="none" stroke="#000000" points="8.5,-37.7 8.5,-56.7 65.5,-56.7 65.5,-37.7 8.5,-37.7"/>
<text text-anchor="start" x="11.5" y="-43.8" font-family="Helvetica,sans-Serif" font-size="11.00" fill="#000000">&lt; 6</text>
<polygon fill="#ffffff" stroke="transparent" points="65.5,-37.7 65.5,-56.7 127.5,-56.7 127.5,-37.7 65.5,-37.7"/>
<polygon fill="none" stroke="#000000" points="65.5,-37.7 65.5,-56.7 127.5,-56.7 127.5,-37.7 65.5,-37.7"/>
<text text-anchor="start" x="85.9956" y="-43.8" font-family="Helvetica,sans-Serif" font-size="11.00" fill="#000000">75 rows</text>
<polygon fill="#ffffff" stroke="transparent" points="127.5,-37.7 127.5,-56.7 167.5,-56.7 167.5,-37.7 127.5,-37.7"/>
<polygon fill="none" stroke="#000000" points="127.5,-37.7 127.5,-56.7 167.5,-56.7 167.5,-37.7 127.5,-37.7"/>
<text text-anchor="start" x="148.9053" y="-43.8" font-family="Helvetica,sans-Serif" font-size="11.00" fill="#000000">5 &gt;</text>
</a>
</g>
</g>
<!-- feedback&#45;&gt;job_request_application -->
<g id="edge1" class="edge">
<title>feedback:w&#45;&gt;job_request_application:e</title>
<path fill="none" stroke="#000000" d="M203.776,-240.7C191.7815,-240.7 184.3229,-240.7 167.5,-240.7"/>
<polygon fill="#000000" stroke="#000000" points="210.5,-240.7001 218.5,-244.3 214.5,-240.7 218.5,-240.7 218.5,-240.7 218.5,-240.7 214.5,-240.7 218.5,-237.1 210.5,-240.7001 210.5,-240.7001"/>
<ellipse fill="none" stroke="#000000" cx="207.3" cy="-240.7001" rx="3.2" ry="3.2"/>
</g>
<!-- feedback_interview_time -->
<g id="node3" class="node">
<title>feedback_interview_time</title>
<g id="a_node3"><a xlink:href="../../tables/feedback_interview_time.html" xlink:title="feedback_interview_time" target="_top">
<polygon fill="#ffffff" stroke="transparent" points="512,-408.7 512,-494.7 676,-494.7 676,-408.7 512,-408.7"/>
<polygon fill="#f5f5f5" stroke="transparent" points="512,-471.7 512,-494.7 676,-494.7 676,-471.7 512,-471.7"/>
<polygon fill="none" stroke="#000000" points="512,-471.7 512,-494.7 676,-494.7 676,-471.7 512,-471.7"/>
<text text-anchor="start" x="516.989" y="-480.8" font-family="Helvetica,sans-Serif" font-weight="bold" font-size="11.00" fill="#000000">feedback_interview_time</text>
<text text-anchor="start" x="641.5219" y="-479.8" font-family="Helvetica,sans-Serif" font-size="11.00" fill="#000000">[table]</text>
<polygon fill="#ffffff" stroke="transparent" points="512,-449.7 512,-471.7 676,-471.7 676,-449.7 512,-449.7"/>
<polygon fill="none" stroke="#000000" points="512,-449.7 512,-471.7 676,-471.7 676,-449.7 512,-449.7"/>
<image xlink:href="../../images/foreignKeys.png" width="11px" height="12px" preserveAspectRatio="xMinYMin meet" x="517" y="-466.7"/>
<text text-anchor="start" x="533" y="-456.8" font-family="Helvetica,sans-Serif" font-size="11.00" fill="#000000">feedback_id</text>
<polygon fill="#ffffff" stroke="transparent" points="512,-427.7 512,-449.7 676,-449.7 676,-427.7 512,-427.7"/>
<polygon fill="none" stroke="#000000" points="512,-427.7 512,-449.7 676,-449.7 676,-427.7 512,-427.7"/>
<image xlink:href="../../images/foreignKeys.png" width="11px" height="12px" preserveAspectRatio="xMinYMin meet" x="517" y="-444.7"/>
<text text-anchor="start" x="533" y="-434.8" font-family="Helvetica,sans-Serif" font-size="11.00" fill="#000000">interview_time_id</text>
<polygon fill="#ffffff" stroke="transparent" points="512,-408.7 512,-427.7 573,-427.7 573,-408.7 512,-408.7"/>
<polygon fill="none" stroke="#000000" points="512,-408.7 512,-427.7 573,-427.7 573,-408.7 512,-408.7"/>
<text text-anchor="start" x="515" y="-414.8" font-family="Helvetica,sans-Serif" font-size="11.00" fill="#000000">&lt; 2</text>
<polygon fill="#ffffff" stroke="transparent" points="573,-408.7 573,-427.7 643,-427.7 643,-408.7 573,-408.7"/>
<polygon fill="none" stroke="#000000" points="573,-408.7 573,-427.7 643,-427.7 643,-408.7 573,-408.7"/>
<text text-anchor="start" x="595.3807" y="-414.8" font-family="Helvetica,sans-Serif" font-size="11.00" fill="#000000">120 rows</text>
<polygon fill="#ffffff" stroke="transparent" points="643,-408.7 643,-427.7 676,-427.7 676,-408.7 643,-408.7"/>
<polygon fill="none" stroke="#000000" points="643,-408.7 643,-427.7 676,-427.7 676,-408.7 643,-408.7"/>
<text text-anchor="start" x="666.8862" y="-414.8" font-family="Helvetica,sans-Serif" font-size="11.00" fill="#000000"> &#160;</text>
</a>
</g>
</g>
<!-- feedback_interview_time&#45;&gt;feedback -->
<g id="edge2" class="edge">
<title>feedback_interview_time:w&#45;&gt;feedback:e</title>
<path fill="none" stroke="#000000" d="M497.4203,-460.7C485.5435,-460.7 478.158,-460.7 461.5,-460.7"/>
<polygon fill="#000000" stroke="#000000" points="504,-460.7001 512,-464.3 508,-460.7 512,-460.7 512,-460.7 512,-460.7 508,-460.7 512,-457.1 504,-460.7001 504,-460.7001"/>
<ellipse fill="none" stroke="#000000" cx="500.8" cy="-460.7001" rx="3.2" ry="3.2"/>
</g>
</g>
</svg>
