<?xml version="1.0" encoding="UTF-8" standalone="no"?>
<!DOCTYPE svg PUBLIC "-//W3C//DTD SVG 1.1//EN"
 "http://www.w3.org/Graphics/SVG/1.1/DTD/svg11.dtd">
<!-- Generated by graphviz version 2.40.1 (20161225.0304)
 -->
<!-- Title: oneDegreeRelationshipsDiagram Pages: 1 -->
<svg width="351pt" height="223pt"
 viewBox="0.00 0.00 351.00 222.70" xmlns="http://www.w3.org/2000/svg" xmlns:xlink="http://www.w3.org/1999/xlink">
<g id="graph0" class="graph" transform="scale(1 1) rotate(0) translate(4 218.7)">
<title>oneDegreeRelationshipsDiagram</title>
<polygon fill="#ffffff" stroke="transparent" points="-4,4 -4,-218.7 347,-218.7 347,4 -4,4"/>
<text text-anchor="middle" x="72.4936" y="-7.3" font-family="Helvetica,sans-Serif" font-size="11.00" fill="#000000">Generated by SchemaSpy</text>
<!-- file_preview -->
<g id="node1" class="node">
<title>file_preview</title>
<g id="a_node1"><a xlink:href="../../tables/file_preview.html" xlink:title="file_preview" target="_top">
<polygon fill="#ffffff" stroke="transparent" points="180,-76.7 180,-210.7 335,-210.7 335,-76.7 180,-76.7"/>
<polygon fill="#f5f5f5" stroke="transparent" points="182.5,-185.7 182.5,-208.7 333.5,-208.7 333.5,-185.7 182.5,-185.7"/>
<polygon fill="none" stroke="#000000" points="182.5,-185.7 182.5,-208.7 333.5,-208.7 333.5,-185.7 182.5,-185.7"/>
<text text-anchor="start" x="187.5" y="-194.8" font-family="Helvetica,sans-Serif" font-weight="bold" font-size="11.00" fill="#000000">file_preview</text>
<text text-anchor="start" x="298.5437" y="-193.8" font-family="Helvetica,sans-Serif" font-size="11.00" fill="#000000">[table]</text>
<polygon fill="none" stroke="#000000" points="182.5,-163.7 182.5,-185.7 283.5,-185.7 283.5,-163.7 182.5,-163.7"/>
<image xlink:href="../../images/primaryKeys.png" width="11px" height="12px" preserveAspectRatio="xMinYMin meet" x="187.5" y="-180.7"/>
<text text-anchor="start" x="202.5" y="-170.8" font-family="Helvetica,sans-Serif" font-size="11.00" fill="#000000">id</text>
<polygon fill="none" stroke="#000000" points="283.5,-163.7 283.5,-185.7 333.5,-185.7 333.5,-163.7 283.5,-163.7"/>
<text text-anchor="start" x="286.1865" y="-171.4" font-family="Helvetica,sans-Serif" font-size="11.00" fill="#000000">bigint[19]</text>
<polygon fill="#ffffff" stroke="transparent" points="182.5,-141.7 182.5,-163.7 283.5,-163.7 283.5,-141.7 182.5,-141.7"/>
<polygon fill="none" stroke="#000000" points="182.5,-141.7 182.5,-163.7 283.5,-163.7 283.5,-141.7 182.5,-141.7"/>
<image xlink:href="../../images/foreignKeys.png" width="11px" height="12px" preserveAspectRatio="xMinYMin meet" x="187.5" y="-158.7"/>
<text text-anchor="start" x="202.5" y="-148.8" font-family="Helvetica,sans-Serif" font-size="11.00" fill="#000000">source_file_id</text>
<polygon fill="none" stroke="#000000" points="283.5,-141.7 283.5,-163.7 333.5,-163.7 333.5,-141.7 283.5,-141.7"/>
<text text-anchor="start" x="286.1865" y="-149.4" font-family="Helvetica,sans-Serif" font-size="11.00" fill="#000000">bigint[19]</text>
<polygon fill="#ffffff" stroke="transparent" points="182.5,-119.7 182.5,-141.7 283.5,-141.7 283.5,-119.7 182.5,-119.7"/>
<polygon fill="none" stroke="#000000" points="182.5,-119.7 182.5,-141.7 283.5,-141.7 283.5,-119.7 182.5,-119.7"/>
<image xlink:href="../../images/foreignKeys.png" width="11px" height="12px" preserveAspectRatio="xMinYMin meet" x="187.5" y="-136.7"/>
<text text-anchor="start" x="202.5" y="-126.8" font-family="Helvetica,sans-Serif" font-size="11.00" fill="#000000">image_file_id</text>
<polygon fill="none" stroke="#000000" points="283.5,-119.7 283.5,-141.7 333.5,-141.7 333.5,-119.7 283.5,-119.7"/>
<text text-anchor="start" x="286.1865" y="-127.4" font-family="Helvetica,sans-Serif" font-size="11.00" fill="#000000">bigint[19]</text>
<polygon fill="#ffffff" stroke="transparent" points="182.5,-97.7 182.5,-119.7 283.5,-119.7 283.5,-97.7 182.5,-97.7"/>
<polygon fill="none" stroke="#000000" points="182.5,-97.7 182.5,-119.7 283.5,-119.7 283.5,-97.7 182.5,-97.7"/>
<image xlink:href="../../images/foreignKeys.png" width="11px" height="12px" preserveAspectRatio="xMinYMin meet" x="187.5" y="-114.7"/>
<text text-anchor="start" x="202.5" y="-104.8" font-family="Helvetica,sans-Serif" font-size="11.00" fill="#000000">pdf_file_id</text>
<polygon fill="none" stroke="#000000" points="283.5,-97.7 283.5,-119.7 333.5,-119.7 333.5,-97.7 283.5,-97.7"/>
<text text-anchor="start" x="286.1865" y="-105.4" font-family="Helvetica,sans-Serif" font-size="11.00" fill="#000000">bigint[19]</text>
<polygon fill="#ffffff" stroke="transparent" points="182.5,-78.7 182.5,-97.7 224.5,-97.7 224.5,-78.7 182.5,-78.7"/>
<polygon fill="none" stroke="#000000" points="182.5,-78.7 182.5,-97.7 224.5,-97.7 224.5,-78.7 182.5,-78.7"/>
<text text-anchor="start" x="185.5" y="-84.8" font-family="Helvetica,sans-Serif" font-size="11.00" fill="#000000">&lt; 3</text>
<polygon fill="#ffffff" stroke="transparent" points="224.5,-78.7 224.5,-97.7 283.5,-97.7 283.5,-78.7 224.5,-78.7"/>
<polygon fill="none" stroke="#000000" points="224.5,-78.7 224.5,-97.7 283.5,-97.7 283.5,-78.7 224.5,-78.7"/>
<text text-anchor="start" x="248.1105" y="-84.8" font-family="Helvetica,sans-Serif" font-size="11.00" fill="#000000">0 rows</text>
<polygon fill="#ffffff" stroke="transparent" points="283.5,-78.7 283.5,-97.7 333.5,-97.7 333.5,-78.7 283.5,-78.7"/>
<polygon fill="none" stroke="#000000" points="283.5,-78.7 283.5,-97.7 333.5,-97.7 333.5,-78.7 283.5,-78.7"/>
<text text-anchor="start" x="314.9053" y="-84.8" font-family="Helvetica,sans-Serif" font-size="11.00" fill="#000000">0 &gt;</text>
<polygon fill="none" stroke="#000000" stroke-width="2" points="181,-77.7 181,-209.7 334,-209.7 334,-77.7 181,-77.7"/>
</a>
</g>
</g>
<!-- file -->
<g id="node2" class="node">
<title>file</title>
<g id="a_node2"><a xlink:href="../../tables/file.html" xlink:title="file" target="_top">
<polygon fill="#ffffff" stroke="transparent" points="8,-38.2 8,-165.2 131,-165.2 131,-38.2 8,-38.2"/>
<polygon fill="#f5f5f5" stroke="transparent" points="8.5,-141.7 8.5,-164.7 131.5,-164.7 131.5,-141.7 8.5,-141.7"/>
<polygon fill="none" stroke="#000000" points="8.5,-141.7 8.5,-164.7 131.5,-164.7 131.5,-141.7 8.5,-141.7"/>
<text text-anchor="start" x="13.5" y="-150.8" font-family="Helvetica,sans-Serif" font-weight="bold" font-size="11.00" fill="#000000">file</text>
<text text-anchor="start" x="96.5437" y="-149.8" font-family="Helvetica,sans-Serif" font-size="11.00" fill="#000000">[table]</text>
<polygon fill="none" stroke="#000000" points="8.5,-119.7 8.5,-141.7 131.5,-141.7 131.5,-119.7 8.5,-119.7"/>
<image xlink:href="../../images/primaryKeys.png" width="11px" height="12px" preserveAspectRatio="xMinYMin meet" x="13.5" y="-136.7"/>
<text text-anchor="start" x="28.5" y="-126.8" font-family="Helvetica,sans-Serif" font-size="11.00" fill="#000000">id</text>
<polygon fill="#ffffff" stroke="transparent" points="8.5,-97.7 8.5,-119.7 131.5,-119.7 131.5,-97.7 8.5,-97.7"/>
<polygon fill="none" stroke="#000000" points="8.5,-97.7 8.5,-119.7 131.5,-119.7 131.5,-97.7 8.5,-97.7"/>
<image xlink:href="../../images/foreignKeys.png" width="11px" height="12px" preserveAspectRatio="xMinYMin meet" x="13.5" y="-114.7"/>
<text text-anchor="start" x="28.5" y="-104.8" font-family="Helvetica,sans-Serif" font-size="11.00" fill="#000000">created_by</text>
<polygon fill="#ffffff" stroke="transparent" points="8.5,-75.7 8.5,-97.7 131.5,-97.7 131.5,-75.7 8.5,-75.7"/>
<polygon fill="none" stroke="#000000" points="8.5,-75.7 8.5,-97.7 131.5,-97.7 131.5,-75.7 8.5,-75.7"/>
<image xlink:href="../../images/foreignKeys.png" width="11px" height="12px" preserveAspectRatio="xMinYMin meet" x="13.5" y="-92.7"/>
<text text-anchor="start" x="28.5" y="-82.8" font-family="Helvetica,sans-Serif" font-size="11.00" fill="#000000">modified_by</text>
<polygon fill="none" stroke="#000000" points="8.5,-56.7 8.5,-75.7 131.5,-75.7 131.5,-56.7 8.5,-56.7"/>
<text text-anchor="start" x="11.5" y="-62.8" font-family="Helvetica,sans-Serif" font-size="11.00" fill="#000000">...</text>
<polygon fill="#ffffff" stroke="transparent" points="8.5,-37.7 8.5,-56.7 41.5,-56.7 41.5,-37.7 8.5,-37.7"/>
<polygon fill="none" stroke="#000000" points="8.5,-37.7 8.5,-56.7 41.5,-56.7 41.5,-37.7 8.5,-37.7"/>
<text text-anchor="start" x="11.5" y="-43.8" font-family="Helvetica,sans-Serif" font-size="11.00" fill="#000000">&lt; 2</text>
<polygon fill="#ffffff" stroke="transparent" points="41.5,-37.7 41.5,-56.7 97.5,-56.7 97.5,-37.7 41.5,-37.7"/>
<polygon fill="none" stroke="#000000" points="41.5,-37.7 41.5,-56.7 97.5,-56.7 97.5,-37.7 41.5,-37.7"/>
<text text-anchor="start" x="49.8807" y="-43.8" font-family="Helvetica,sans-Serif" font-size="11.00" fill="#000000">590 rows</text>
<polygon fill="#ffffff" stroke="transparent" points="97.5,-37.7 97.5,-56.7 131.5,-56.7 131.5,-37.7 97.5,-37.7"/>
<polygon fill="none" stroke="#000000" points="97.5,-37.7 97.5,-56.7 131.5,-56.7 131.5,-37.7 97.5,-37.7"/>
<text text-anchor="start" x="106.7904" y="-43.8" font-family="Helvetica,sans-Serif" font-size="11.00" fill="#000000">13 &gt;</text>
</a>
</g>
</g>
<!-- file_preview&#45;&gt;file -->
<g id="edge1" class="edge">
<title>file_preview:w&#45;&gt;file:e</title>
<path fill="none" stroke="#000000" d="M167.776,-130.7C155.7815,-130.7 148.3229,-130.7 131.5,-130.7"/>
<polygon fill="#000000" stroke="#000000" points="174.5,-130.7001 182.5,-134.3 178.5,-130.7 182.5,-130.7 182.5,-130.7 182.5,-130.7 178.5,-130.7 182.5,-127.1 174.5,-130.7001 174.5,-130.7001"/>
<ellipse fill="none" stroke="#000000" cx="171.3" cy="-130.7001" rx="3.2" ry="3.2"/>
</g>
<!-- file_preview&#45;&gt;file -->
<g id="edge2" class="edge">
<title>file_preview:w&#45;&gt;file:e</title>
<path fill="none" stroke="#000000" d="M168.3489,-111.759C155.7843,-117.804 150.4,-130.7 131.5,-130.7"/>
<polygon fill="#000000" stroke="#000000" points="174.6806,-110.3903 183.2607,-112.2187 178.5903,-109.5452 182.5,-108.7 182.5,-108.7 182.5,-108.7 178.5903,-109.5452 181.7393,-105.1813 174.6806,-110.3903 174.6806,-110.3903"/>
<ellipse fill="none" stroke="#000000" cx="171.5528" cy="-111.0665" rx="3.2" ry="3.2"/>
</g>
<!-- file_preview&#45;&gt;file -->
<g id="edge3" class="edge">
<title>file_preview:w&#45;&gt;file:e</title>
<path fill="none" stroke="#000000" d="M168.3489,-149.641C155.7843,-143.596 150.4,-130.7 131.5,-130.7"/>
<polygon fill="#000000" stroke="#000000" points="174.6806,-151.0097 181.7393,-156.2187 178.5903,-151.8548 182.5,-152.7 182.5,-152.7 182.5,-152.7 178.5903,-151.8548 183.2607,-149.1813 174.6806,-151.0097 174.6806,-151.0097"/>
<ellipse fill="none" stroke="#000000" cx="171.5528" cy="-150.3335" rx="3.2" ry="3.2"/>
</g>
</g>
</svg>
