<?xml version="1.0" encoding="UTF-8" standalone="no"?>
<!DOCTYPE svg PUBLIC "-//W3C//DTD SVG 1.1//EN"
 "http://www.w3.org/Graphics/SVG/1.1/DTD/svg11.dtd">
<!-- Generated by graphviz version 2.40.1 (20161225.0304)
 -->
<!-- Title: twoDegreesRelationshipsDiagram Pages: 1 -->
<svg width="1281pt" height="744pt"
 viewBox="0.00 0.00 1280.68 743.52" xmlns="http://www.w3.org/2000/svg" xmlns:xlink="http://www.w3.org/1999/xlink">
<g id="graph0" class="graph" transform="scale(1 1) rotate(0) translate(4 739.5204)">
<title>twoDegreesRelationshipsDiagram</title>
<polygon fill="#ffffff" stroke="transparent" points="-4,4 -4,-739.5204 1276.6762,-739.5204 1276.6762,4 -4,4"/>
<text text-anchor="middle" x="72.4936" y="-7.3" font-family="Helvetica,sans-Serif" font-size="11.00" fill="#000000">Generated by SchemaSpy</text>
<!-- applicant -->
<g id="node1" class="node">
<title>applicant</title>
<g id="a_node1"><a xlink:href="../../tables/applicant.html" xlink:title="applicant" target="_top">
<polygon fill="#ffffff" stroke="transparent" points="696.1762,-131.5204 696.1762,-192.5204 783.1762,-192.5204 783.1762,-131.5204 696.1762,-131.5204"/>
<polygon fill="#f5f5f5" stroke="transparent" points="696.6762,-169.0204 696.6762,-192.0204 783.6762,-192.0204 783.6762,-169.0204 696.6762,-169.0204"/>
<polygon fill="none" stroke="#000000" points="696.6762,-169.0204 696.6762,-192.0204 783.6762,-192.0204 783.6762,-169.0204 696.6762,-169.0204"/>
<text text-anchor="start" x="701.6696" y="-178.1204" font-family="Helvetica,sans-Serif" font-weight="bold" font-size="11.00" fill="#000000">applicant</text>
<text text-anchor="start" x="749.1981" y="-177.1204" font-family="Helvetica,sans-Serif" font-size="11.00" fill="#000000">[table]</text>
<polygon fill="none" stroke="#000000" points="696.6762,-150.0204 696.6762,-169.0204 783.6762,-169.0204 783.6762,-150.0204 696.6762,-150.0204"/>
<text text-anchor="start" x="699.6762" y="-156.1204" font-family="Helvetica,sans-Serif" font-size="11.00" fill="#000000">...</text>
<polygon fill="#ffffff" stroke="transparent" points="696.6762,-131.0204 696.6762,-150.0204 717.6762,-150.0204 717.6762,-131.0204 696.6762,-131.0204"/>
<polygon fill="none" stroke="#000000" points="696.6762,-131.0204 696.6762,-150.0204 717.6762,-150.0204 717.6762,-131.0204 696.6762,-131.0204"/>
<text text-anchor="start" x="699.3789" y="-137.1204" font-family="Helvetica,sans-Serif" font-size="11.00" fill="#000000">&lt; 4</text>
<polygon fill="#ffffff" stroke="transparent" points="717.6762,-131.0204 717.6762,-150.0204 761.6762,-150.0204 761.6762,-131.0204 717.6762,-131.0204"/>
<polygon fill="none" stroke="#000000" points="717.6762,-131.0204 717.6762,-150.0204 761.6762,-150.0204 761.6762,-131.0204 717.6762,-131.0204"/>
<text text-anchor="start" x="720.424" y="-137.1204" font-family="Helvetica,sans-Serif" font-size="11.00" fill="#000000">90 rows</text>
<polygon fill="#ffffff" stroke="transparent" points="761.6762,-131.0204 761.6762,-150.0204 783.6762,-150.0204 783.6762,-131.0204 761.6762,-131.0204"/>
<polygon fill="none" stroke="#000000" points="761.6762,-131.0204 761.6762,-150.0204 783.6762,-150.0204 783.6762,-131.0204 761.6762,-131.0204"/>
<text text-anchor="start" x="765.0815" y="-137.1204" font-family="Helvetica,sans-Serif" font-size="11.00" fill="#000000">5 &gt;</text>
</a>
</g>
</g>
<!-- file -->
<g id="node2" class="node">
<title>file</title>
<g id="a_node2"><a xlink:href="../../tables/file.html" xlink:title="file" target="_top">
<polygon fill="#ffffff" stroke="transparent" points="303.6762,-269.5204 303.6762,-396.5204 426.6762,-396.5204 426.6762,-269.5204 303.6762,-269.5204"/>
<polygon fill="#f5f5f5" stroke="transparent" points="304.1762,-373.0204 304.1762,-396.0204 427.1762,-396.0204 427.1762,-373.0204 304.1762,-373.0204"/>
<polygon fill="none" stroke="#000000" points="304.1762,-373.0204 304.1762,-396.0204 427.1762,-396.0204 427.1762,-373.0204 304.1762,-373.0204"/>
<text text-anchor="start" x="309.1762" y="-382.1204" font-family="Helvetica,sans-Serif" font-weight="bold" font-size="11.00" fill="#000000">file</text>
<text text-anchor="start" x="392.2199" y="-381.1204" font-family="Helvetica,sans-Serif" font-size="11.00" fill="#000000">[table]</text>
<polygon fill="none" stroke="#000000" points="304.1762,-351.0204 304.1762,-373.0204 427.1762,-373.0204 427.1762,-351.0204 304.1762,-351.0204"/>
<image xlink:href="../../images/primaryKeys.png" width="11px" height="12px" preserveAspectRatio="xMinYMin meet" x="309.176" y="-368.02"/>
<text text-anchor="start" x="324.1762" y="-358.1204" font-family="Helvetica,sans-Serif" font-size="11.00" fill="#000000">id</text>
<polygon fill="#ffffff" stroke="transparent" points="304.1762,-329.0204 304.1762,-351.0204 427.1762,-351.0204 427.1762,-329.0204 304.1762,-329.0204"/>
<polygon fill="none" stroke="#000000" points="304.1762,-329.0204 304.1762,-351.0204 427.1762,-351.0204 427.1762,-329.0204 304.1762,-329.0204"/>
<image xlink:href="../../images/foreignKeys.png" width="11px" height="12px" preserveAspectRatio="xMinYMin meet" x="309.176" y="-346.02"/>
<text text-anchor="start" x="324.1762" y="-336.1204" font-family="Helvetica,sans-Serif" font-size="11.00" fill="#000000">created_by</text>
<polygon fill="#ffffff" stroke="transparent" points="304.1762,-307.0204 304.1762,-329.0204 427.1762,-329.0204 427.1762,-307.0204 304.1762,-307.0204"/>
<polygon fill="none" stroke="#000000" points="304.1762,-307.0204 304.1762,-329.0204 427.1762,-329.0204 427.1762,-307.0204 304.1762,-307.0204"/>
<image xlink:href="../../images/foreignKeys.png" width="11px" height="12px" preserveAspectRatio="xMinYMin meet" x="309.176" y="-324.02"/>
<text text-anchor="start" x="324.1762" y="-314.1204" font-family="Helvetica,sans-Serif" font-size="11.00" fill="#000000">modified_by</text>
<polygon fill="none" stroke="#000000" points="304.1762,-288.0204 304.1762,-307.0204 427.1762,-307.0204 427.1762,-288.0204 304.1762,-288.0204"/>
<text text-anchor="start" x="307.1762" y="-294.1204" font-family="Helvetica,sans-Serif" font-size="11.00" fill="#000000">...</text>
<polygon fill="#ffffff" stroke="transparent" points="304.1762,-269.0204 304.1762,-288.0204 337.1762,-288.0204 337.1762,-269.0204 304.1762,-269.0204"/>
<polygon fill="none" stroke="#000000" points="304.1762,-269.0204 304.1762,-288.0204 337.1762,-288.0204 337.1762,-269.0204 304.1762,-269.0204"/>
<text text-anchor="start" x="307.1762" y="-275.1204" font-family="Helvetica,sans-Serif" font-size="11.00" fill="#000000">&lt; 2</text>
<polygon fill="#ffffff" stroke="transparent" points="337.1762,-269.0204 337.1762,-288.0204 393.1762,-288.0204 393.1762,-269.0204 337.1762,-269.0204"/>
<polygon fill="none" stroke="#000000" points="337.1762,-269.0204 337.1762,-288.0204 393.1762,-288.0204 393.1762,-269.0204 337.1762,-269.0204"/>
<text text-anchor="start" x="345.5569" y="-275.1204" font-family="Helvetica,sans-Serif" font-size="11.00" fill="#000000">590 rows</text>
<polygon fill="#ffffff" stroke="transparent" points="393.1762,-269.0204 393.1762,-288.0204 427.1762,-288.0204 427.1762,-269.0204 393.1762,-269.0204"/>
<polygon fill="none" stroke="#000000" points="393.1762,-269.0204 393.1762,-288.0204 427.1762,-288.0204 427.1762,-269.0204 393.1762,-269.0204"/>
<text text-anchor="start" x="402.4666" y="-275.1204" font-family="Helvetica,sans-Serif" font-size="11.00" fill="#000000">13 &gt;</text>
</a>
</g>
</g>
<!-- applicant&#45;&gt;file -->
<g id="edge1" class="edge">
<title>applicant:w&#45;&gt;file:e</title>
<path fill="none" stroke="#000000" d="M682.8049,-163.6444C633.6151,-181.8463 471.7882,-247.7705 467.6762,-252.0204 431.4505,-289.4613 479.2735,-362.0204 427.1762,-362.0204"/>
<polygon fill="#000000" stroke="#000000" points="689.0868,-161.5504 697.8147,-162.4357 692.8815,-160.2854 696.6762,-159.0204 696.6762,-159.0204 696.6762,-159.0204 692.8815,-160.2854 695.5378,-155.6052 689.0868,-161.5504 689.0868,-161.5504"/>
<ellipse fill="none" stroke="#000000" cx="686.051" cy="-162.5623" rx="3.2" ry="3.2"/>
</g>
<!-- supplier -->
<g id="node3" class="node">
<title>supplier</title>
<g id="a_node3"><a xlink:href="../../tables/supplier.html" xlink:title="supplier" target="_top">
<polygon fill="#ffffff" stroke="transparent" points="509.6762,-81.5204 509.6762,-142.5204 601.6762,-142.5204 601.6762,-81.5204 509.6762,-81.5204"/>
<polygon fill="#f5f5f5" stroke="transparent" points="509.6762,-119.0204 509.6762,-142.0204 601.6762,-142.0204 601.6762,-119.0204 509.6762,-119.0204"/>
<polygon fill="none" stroke="#000000" points="509.6762,-119.0204 509.6762,-142.0204 601.6762,-142.0204 601.6762,-119.0204 509.6762,-119.0204"/>
<text text-anchor="start" x="514.6762" y="-128.1204" font-family="Helvetica,sans-Serif" font-weight="bold" font-size="11.00" fill="#000000">supplier</text>
<text text-anchor="start" x="566.7199" y="-127.1204" font-family="Helvetica,sans-Serif" font-size="11.00" fill="#000000">[table]</text>
<polygon fill="none" stroke="#000000" points="509.6762,-100.0204 509.6762,-119.0204 601.6762,-119.0204 601.6762,-100.0204 509.6762,-100.0204"/>
<text text-anchor="start" x="512.6762" y="-106.1204" font-family="Helvetica,sans-Serif" font-size="11.00" fill="#000000">...</text>
<polygon fill="#ffffff" stroke="transparent" points="509.6762,-81.0204 509.6762,-100.0204 530.6762,-100.0204 530.6762,-81.0204 509.6762,-81.0204"/>
<polygon fill="none" stroke="#000000" points="509.6762,-81.0204 509.6762,-100.0204 530.6762,-100.0204 530.6762,-81.0204 509.6762,-81.0204"/>
<text text-anchor="start" x="512.3789" y="-87.1204" font-family="Helvetica,sans-Serif" font-size="11.00" fill="#000000">&lt; 3</text>
<polygon fill="#ffffff" stroke="transparent" points="530.6762,-81.0204 530.6762,-100.0204 580.6762,-100.0204 580.6762,-81.0204 530.6762,-81.0204"/>
<polygon fill="none" stroke="#000000" points="530.6762,-81.0204 530.6762,-100.0204 580.6762,-100.0204 580.6762,-81.0204 530.6762,-81.0204"/>
<text text-anchor="start" x="533.3666" y="-87.1204" font-family="Helvetica,sans-Serif" font-size="11.00" fill="#000000">201 rows</text>
<polygon fill="#ffffff" stroke="transparent" points="580.6762,-81.0204 580.6762,-100.0204 601.6762,-100.0204 601.6762,-81.0204 580.6762,-81.0204"/>
<polygon fill="none" stroke="#000000" points="580.6762,-81.0204 580.6762,-100.0204 601.6762,-100.0204 601.6762,-81.0204 580.6762,-81.0204"/>
<text text-anchor="start" x="583.3789" y="-87.1204" font-family="Helvetica,sans-Serif" font-size="11.00" fill="#000000">4 &gt;</text>
</a>
</g>
</g>
<!-- applicant&#45;&gt;supplier -->
<g id="edge2" class="edge">
<title>applicant:w&#45;&gt;supplier:e</title>
<path fill="none" stroke="#000000" d="M682.1745,-157.2409C648.4419,-148.3339 643.9844,-109.0204 601.6762,-109.0204"/>
<polygon fill="#000000" stroke="#000000" points="688.7358,-158.046 696.2377,-162.5936 692.706,-158.5332 696.6762,-159.0204 696.6762,-159.0204 696.6762,-159.0204 692.706,-158.5332 697.1147,-155.4472 688.7358,-158.046 688.7358,-158.046"/>
<ellipse fill="none" stroke="#000000" cx="685.5596" cy="-157.6562" rx="3.2" ry="3.2"/>
</g>
<!-- principal -->
<g id="node7" class="node">
<title>principal</title>
<g id="a_node7"><a xlink:href="../../tables/principal.html" xlink:title="principal" target="_top">
<polygon fill="#ffffff" stroke="transparent" points="162.6762,-283.5204 162.6762,-344.5204 254.6762,-344.5204 254.6762,-283.5204 162.6762,-283.5204"/>
<polygon fill="#f5f5f5" stroke="transparent" points="162.6762,-321.0204 162.6762,-344.0204 254.6762,-344.0204 254.6762,-321.0204 162.6762,-321.0204"/>
<polygon fill="none" stroke="#000000" points="162.6762,-321.0204 162.6762,-344.0204 254.6762,-344.0204 254.6762,-321.0204 162.6762,-321.0204"/>
<text text-anchor="start" x="167.6762" y="-330.1204" font-family="Helvetica,sans-Serif" font-weight="bold" font-size="11.00" fill="#000000">principal</text>
<text text-anchor="start" x="219.7199" y="-329.1204" font-family="Helvetica,sans-Serif" font-size="11.00" fill="#000000">[table]</text>
<polygon fill="none" stroke="#000000" points="162.6762,-302.0204 162.6762,-321.0204 254.6762,-321.0204 254.6762,-302.0204 162.6762,-302.0204"/>
<text text-anchor="start" x="165.6762" y="-308.1204" font-family="Helvetica,sans-Serif" font-size="11.00" fill="#000000">...</text>
<polygon fill="#ffffff" stroke="transparent" points="162.6762,-283.0204 162.6762,-302.0204 183.6762,-302.0204 183.6762,-283.0204 162.6762,-283.0204"/>
<polygon fill="none" stroke="#000000" points="162.6762,-283.0204 162.6762,-302.0204 183.6762,-302.0204 183.6762,-283.0204 162.6762,-283.0204"/>
<text text-anchor="start" x="165.3789" y="-289.1204" font-family="Helvetica,sans-Serif" font-size="11.00" fill="#000000">&lt; 1</text>
<polygon fill="#ffffff" stroke="transparent" points="183.6762,-283.0204 183.6762,-302.0204 227.6762,-302.0204 227.6762,-283.0204 183.6762,-283.0204"/>
<polygon fill="none" stroke="#000000" points="183.6762,-283.0204 183.6762,-302.0204 227.6762,-302.0204 227.6762,-283.0204 183.6762,-283.0204"/>
<text text-anchor="start" x="186.424" y="-289.1204" font-family="Helvetica,sans-Serif" font-size="11.00" fill="#000000">18 rows</text>
<polygon fill="#ffffff" stroke="transparent" points="227.6762,-283.0204 227.6762,-302.0204 254.6762,-302.0204 254.6762,-283.0204 227.6762,-283.0204"/>
<polygon fill="none" stroke="#000000" points="227.6762,-283.0204 227.6762,-302.0204 254.6762,-302.0204 254.6762,-283.0204 227.6762,-283.0204"/>
<text text-anchor="start" x="230.3214" y="-289.1204" font-family="Helvetica,sans-Serif" font-size="11.00" fill="#000000">56 &gt;</text>
</a>
</g>
</g>
<!-- file&#45;&gt;principal -->
<g id="edge18" class="edge">
<title>file:w&#45;&gt;principal:e</title>
<path fill="none" stroke="#000000" d="M290.0015,-335.9881C277.8968,-328.0197 274.1978,-311.0204 254.6762,-311.0204"/>
<polygon fill="#000000" stroke="#000000" points="296.4815,-337.8314 303.1912,-343.483 300.3289,-338.9259 304.1762,-340.0204 304.1762,-340.0204 304.1762,-340.0204 300.3289,-338.9259 305.1613,-336.5578 296.4815,-337.8314 296.4815,-337.8314"/>
<ellipse fill="none" stroke="#000000" cx="293.4036" cy="-336.9558" rx="3.2" ry="3.2"/>
</g>
<!-- file&#45;&gt;principal -->
<g id="edge19" class="edge">
<title>file:w&#45;&gt;principal:e</title>
<path fill="none" stroke="#000000" d="M289.459,-316.8011C278.0575,-314.7956 270.9932,-311.0204 254.6762,-311.0204"/>
<polygon fill="#000000" stroke="#000000" points="296.2036,-317.3598 303.879,-321.6081 300.1899,-317.6901 304.1762,-318.0204 304.1762,-318.0204 304.1762,-318.0204 300.1899,-317.6901 304.4735,-314.4327 296.2036,-317.3598 296.2036,-317.3598"/>
<ellipse fill="none" stroke="#000000" cx="293.0145" cy="-317.0956" rx="3.2" ry="3.2"/>
</g>
<!-- supplier&#45;&gt;file -->
<g id="edge34" class="edge">
<title>supplier:w&#45;&gt;file:e</title>
<path fill="none" stroke="#000000" d="M495.446,-111.648C480.3948,-118.3046 477.6426,-136.7488 467.6762,-157.0204 447.1885,-198.6925 473.6123,-362.0204 427.1762,-362.0204"/>
<polygon fill="#000000" stroke="#000000" points="501.8092,-110.4731 510.33,-112.5606 505.7427,-109.7468 509.6762,-109.0204 509.6762,-109.0204 509.6762,-109.0204 505.7427,-109.7468 509.0225,-105.4803 501.8092,-110.4731 501.8092,-110.4731"/>
<ellipse fill="none" stroke="#000000" cx="498.6624" cy="-111.0542" rx="3.2" ry="3.2"/>
</g>
<!-- supplier&#45;&gt;principal -->
<g id="edge33" class="edge">
<title>supplier:w&#45;&gt;principal:e</title>
<path fill="none" stroke="#000000" d="M495.0085,-109.257C398.8099,-112.4689 366.3381,-148.4757 295.6762,-223.0204 265.9926,-254.3351 297.824,-311.0204 254.6762,-311.0204"/>
<polygon fill="#000000" stroke="#000000" points="501.6773,-109.1495 509.7343,-112.6199 505.6768,-109.085 509.6762,-109.0204 509.6762,-109.0204 509.6762,-109.0204 505.6768,-109.085 509.6182,-105.4209 501.6773,-109.1495 501.6773,-109.1495"/>
<ellipse fill="none" stroke="#000000" cx="498.4777" cy="-109.2011" rx="3.2" ry="3.2"/>
</g>
<!-- supplier&#45;&gt;principal -->
<g id="edge35" class="edge">
<title>supplier:w&#45;&gt;principal:e</title>
<path fill="none" stroke="#000000" d="M495.2026,-109.2689C398.1688,-112.7119 367.1028,-151.9421 295.6762,-227.0204 267.0419,-257.1186 296.2193,-311.0204 254.6762,-311.0204"/>
<polygon fill="#000000" stroke="#000000" points="501.6774,-109.1578 509.7381,-112.6199 505.6768,-109.0891 509.6762,-109.0204 509.6762,-109.0204 509.6762,-109.0204 505.6768,-109.0891 509.6144,-105.4209 501.6774,-109.1578 501.6774,-109.1578"/>
<ellipse fill="none" stroke="#000000" cx="498.4779" cy="-109.2127" rx="3.2" ry="3.2"/>
</g>
<!-- applicant_document -->
<g id="node4" class="node">
<title>applicant_document</title>
<g id="a_node4"><a xlink:href="../../tables/applicant_document.html" xlink:title="applicant_document" target="_top">
<polygon fill="#ffffff" stroke="transparent" points="852.6762,-194.5204 852.6762,-255.5204 993.6762,-255.5204 993.6762,-194.5204 852.6762,-194.5204"/>
<polygon fill="#f5f5f5" stroke="transparent" points="853.1762,-232.0204 853.1762,-255.0204 994.1762,-255.0204 994.1762,-232.0204 853.1762,-232.0204"/>
<polygon fill="none" stroke="#000000" points="853.1762,-232.0204 853.1762,-255.0204 994.1762,-255.0204 994.1762,-232.0204 853.1762,-232.0204"/>
<text text-anchor="start" x="857.9655" y="-241.1204" font-family="Helvetica,sans-Serif" font-weight="bold" font-size="11.00" fill="#000000">applicant_document</text>
<text text-anchor="start" x="959.6981" y="-240.1204" font-family="Helvetica,sans-Serif" font-size="11.00" fill="#000000">[table]</text>
<polygon fill="none" stroke="#000000" points="853.1762,-213.0204 853.1762,-232.0204 994.1762,-232.0204 994.1762,-213.0204 853.1762,-213.0204"/>
<text text-anchor="start" x="856.1762" y="-219.1204" font-family="Helvetica,sans-Serif" font-size="11.00" fill="#000000">...</text>
<polygon fill="#ffffff" stroke="transparent" points="853.1762,-194.0204 853.1762,-213.0204 906.1762,-213.0204 906.1762,-194.0204 853.1762,-194.0204"/>
<polygon fill="none" stroke="#000000" points="853.1762,-194.0204 853.1762,-213.0204 906.1762,-213.0204 906.1762,-194.0204 853.1762,-194.0204"/>
<text text-anchor="start" x="856.1762" y="-200.1204" font-family="Helvetica,sans-Serif" font-size="11.00" fill="#000000">&lt; 2</text>
<polygon fill="#ffffff" stroke="transparent" points="906.1762,-194.0204 906.1762,-213.0204 966.1762,-213.0204 966.1762,-194.0204 906.1762,-194.0204"/>
<polygon fill="none" stroke="#000000" points="906.1762,-194.0204 906.1762,-213.0204 966.1762,-213.0204 966.1762,-194.0204 906.1762,-194.0204"/>
<text text-anchor="start" x="924.6718" y="-200.1204" font-family="Helvetica,sans-Serif" font-size="11.00" fill="#000000">91 rows</text>
<polygon fill="#ffffff" stroke="transparent" points="966.1762,-194.0204 966.1762,-213.0204 994.1762,-213.0204 994.1762,-194.0204 966.1762,-194.0204"/>
<polygon fill="none" stroke="#000000" points="966.1762,-194.0204 966.1762,-213.0204 994.1762,-213.0204 994.1762,-194.0204 966.1762,-194.0204"/>
<text text-anchor="start" x="985.0624" y="-200.1204" font-family="Helvetica,sans-Serif" font-size="11.00" fill="#000000"> &#160;</text>
</a>
</g>
</g>
<!-- applicant_document&#45;&gt;applicant -->
<g id="edge3" class="edge">
<title>applicant_document:w&#45;&gt;applicant:e</title>
<path fill="none" stroke="#000000" d="M838.9087,-218.8096C814.2424,-205.9714 819.6671,-159.0204 783.6762,-159.0204"/>
<polygon fill="#000000" stroke="#000000" points="845.3714,-220.264 852.3858,-225.5326 849.2738,-221.1422 853.1762,-222.0204 853.1762,-222.0204 853.1762,-222.0204 849.2738,-221.1422 853.9666,-218.5082 845.3714,-220.264 845.3714,-220.264"/>
<ellipse fill="none" stroke="#000000" cx="842.2495" cy="-219.5614" rx="3.2" ry="3.2"/>
</g>
<!-- applicant_document&#45;&gt;file -->
<g id="edge4" class="edge">
<title>applicant_document:w&#45;&gt;file:e</title>
<path fill="none" stroke="#000000" d="M838.8433,-225.7159C821.6945,-236.9748 828.8453,-270.9382 802.6762,-285.0204 671.0054,-355.876 600.9483,-248.2245 467.6762,-316.0204 443.3978,-328.3709 454.4155,-362.0204 427.1762,-362.0204"/>
<polygon fill="#000000" stroke="#000000" points="845.4296,-224.0178 854.0751,-225.5064 849.3029,-223.0191 853.1762,-222.0204 853.1762,-222.0204 853.1762,-222.0204 849.3029,-223.0191 852.2774,-218.5344 845.4296,-224.0178 845.4296,-224.0178"/>
<ellipse fill="none" stroke="#000000" cx="842.3309" cy="-224.8167" rx="3.2" ry="3.2"/>
</g>
<!-- client -->
<g id="node5" class="node">
<title>client</title>
<g id="a_node5"><a xlink:href="../../tables/client.html" xlink:title="client" target="_top">
<polygon fill="#ffffff" stroke="transparent" points="509.6762,-670.5204 509.6762,-731.5204 601.6762,-731.5204 601.6762,-670.5204 509.6762,-670.5204"/>
<polygon fill="#f5f5f5" stroke="transparent" points="509.6762,-708.0204 509.6762,-731.0204 601.6762,-731.0204 601.6762,-708.0204 509.6762,-708.0204"/>
<polygon fill="none" stroke="#000000" points="509.6762,-708.0204 509.6762,-731.0204 601.6762,-731.0204 601.6762,-708.0204 509.6762,-708.0204"/>
<text text-anchor="start" x="514.6762" y="-717.1204" font-family="Helvetica,sans-Serif" font-weight="bold" font-size="11.00" fill="#000000">client</text>
<text text-anchor="start" x="566.7199" y="-716.1204" font-family="Helvetica,sans-Serif" font-size="11.00" fill="#000000">[table]</text>
<polygon fill="none" stroke="#000000" points="509.6762,-689.0204 509.6762,-708.0204 601.6762,-708.0204 601.6762,-689.0204 509.6762,-689.0204"/>
<text text-anchor="start" x="512.6762" y="-695.1204" font-family="Helvetica,sans-Serif" font-size="11.00" fill="#000000">...</text>
<polygon fill="#ffffff" stroke="transparent" points="509.6762,-670.0204 509.6762,-689.0204 530.6762,-689.0204 530.6762,-670.0204 509.6762,-670.0204"/>
<polygon fill="none" stroke="#000000" points="509.6762,-670.0204 509.6762,-689.0204 530.6762,-689.0204 530.6762,-670.0204 509.6762,-670.0204"/>
<text text-anchor="start" x="512.3789" y="-676.1204" font-family="Helvetica,sans-Serif" font-size="11.00" fill="#000000">&lt; 9</text>
<polygon fill="#ffffff" stroke="transparent" points="530.6762,-670.0204 530.6762,-689.0204 580.6762,-689.0204 580.6762,-670.0204 530.6762,-670.0204"/>
<polygon fill="none" stroke="#000000" points="530.6762,-670.0204 530.6762,-689.0204 580.6762,-689.0204 580.6762,-670.0204 530.6762,-670.0204"/>
<text text-anchor="start" x="533.3666" y="-676.1204" font-family="Helvetica,sans-Serif" font-size="11.00" fill="#000000">647 rows</text>
<polygon fill="#ffffff" stroke="transparent" points="580.6762,-670.0204 580.6762,-689.0204 601.6762,-689.0204 601.6762,-670.0204 580.6762,-670.0204"/>
<polygon fill="none" stroke="#000000" points="580.6762,-670.0204 580.6762,-689.0204 601.6762,-689.0204 601.6762,-670.0204 580.6762,-670.0204"/>
<text text-anchor="start" x="583.3789" y="-676.1204" font-family="Helvetica,sans-Serif" font-size="11.00" fill="#000000">7 &gt;</text>
</a>
</g>
</g>
<!-- client&#45;&gt;file -->
<g id="edge5" class="edge">
<title>client:w&#45;&gt;file:e</title>
<path fill="none" stroke="#000000" d="M495.3487,-695.7047C481.8569,-690.5561 476.7569,-677.2428 467.6762,-660.0204 436.5062,-600.9035 494.0072,-362.0204 427.1762,-362.0204"/>
<polygon fill="#000000" stroke="#000000" points="501.7787,-696.7439 509.1018,-701.5743 505.7275,-697.3822 509.6762,-698.0204 509.6762,-698.0204 509.6762,-698.0204 505.7275,-697.3822 510.2507,-694.4665 501.7787,-696.7439 501.7787,-696.7439"/>
<ellipse fill="none" stroke="#000000" cx="498.6197" cy="-696.2333" rx="3.2" ry="3.2"/>
</g>
<!-- eworker -->
<g id="node6" class="node">
<title>eworker</title>
<g id="a_node6"><a xlink:href="../../tables/eworker.html" xlink:title="eworker" target="_top">
<polygon fill="#ffffff" stroke="transparent" points="21.6762,-341.5204 21.6762,-402.5204 113.6762,-402.5204 113.6762,-341.5204 21.6762,-341.5204"/>
<polygon fill="#f5f5f5" stroke="transparent" points="21.6762,-379.0204 21.6762,-402.0204 113.6762,-402.0204 113.6762,-379.0204 21.6762,-379.0204"/>
<polygon fill="none" stroke="#000000" points="21.6762,-379.0204 21.6762,-402.0204 113.6762,-402.0204 113.6762,-379.0204 21.6762,-379.0204"/>
<text text-anchor="start" x="26.6762" y="-388.1204" font-family="Helvetica,sans-Serif" font-weight="bold" font-size="11.00" fill="#000000">eworker</text>
<text text-anchor="start" x="78.7199" y="-387.1204" font-family="Helvetica,sans-Serif" font-size="11.00" fill="#000000">[table]</text>
<polygon fill="none" stroke="#000000" points="21.6762,-360.0204 21.6762,-379.0204 113.6762,-379.0204 113.6762,-360.0204 21.6762,-360.0204"/>
<text text-anchor="start" x="24.6762" y="-366.1204" font-family="Helvetica,sans-Serif" font-size="11.00" fill="#000000">...</text>
<polygon fill="#ffffff" stroke="transparent" points="21.6762,-341.0204 21.6762,-360.0204 42.6762,-360.0204 42.6762,-341.0204 21.6762,-341.0204"/>
<polygon fill="none" stroke="#000000" points="21.6762,-341.0204 21.6762,-360.0204 42.6762,-360.0204 42.6762,-341.0204 21.6762,-341.0204"/>
<text text-anchor="start" x="24.3789" y="-347.1204" font-family="Helvetica,sans-Serif" font-size="11.00" fill="#000000">&lt; 4</text>
<polygon fill="#ffffff" stroke="transparent" points="42.6762,-341.0204 42.6762,-360.0204 92.6762,-360.0204 92.6762,-341.0204 42.6762,-341.0204"/>
<polygon fill="none" stroke="#000000" points="42.6762,-341.0204 42.6762,-360.0204 92.6762,-360.0204 92.6762,-341.0204 42.6762,-341.0204"/>
<text text-anchor="start" x="45.3666" y="-347.1204" font-family="Helvetica,sans-Serif" font-size="11.00" fill="#000000">347 rows</text>
<polygon fill="#ffffff" stroke="transparent" points="92.6762,-341.0204 92.6762,-360.0204 113.6762,-360.0204 113.6762,-341.0204 92.6762,-341.0204"/>
<polygon fill="none" stroke="#000000" points="92.6762,-341.0204 92.6762,-360.0204 113.6762,-360.0204 113.6762,-341.0204 92.6762,-341.0204"/>
<text text-anchor="start" x="95.3789" y="-347.1204" font-family="Helvetica,sans-Serif" font-size="11.00" fill="#000000">9 &gt;</text>
</a>
</g>
</g>
<!-- client&#45;&gt;eworker -->
<g id="edge6" class="edge">
<title>client:w&#45;&gt;eworker:e</title>
<path fill="none" stroke="#000000" d="M495.2103,-697.5458C387.1604,-690.2081 386.0356,-599.216 295.6762,-524.0204 254.8421,-490.0389 166.8004,-369.0204 113.6762,-369.0204"/>
<polygon fill="#000000" stroke="#000000" points="501.6805,-697.758 509.5582,-701.6185 505.6784,-697.8892 509.6762,-698.0204 509.6762,-698.0204 509.6762,-698.0204 505.6784,-697.8892 509.7943,-694.4223 501.6805,-697.758 501.6805,-697.758"/>
<ellipse fill="none" stroke="#000000" cx="498.4823" cy="-697.6531" rx="3.2" ry="3.2"/>
</g>
<!-- client&#45;&gt;eworker -->
<g id="edge7" class="edge">
<title>client:w&#45;&gt;eworker:e</title>
<path fill="none" stroke="#000000" d="M498.7389,-687.9994C435.2015,-632.116 116.9093,-363.5946 113.6762,-369.0204"/>
<polygon fill="#000000" stroke="#000000" points="503.7777,-692.616 507.2443,-700.6748 506.727,-695.3182 509.6762,-698.0204 509.6762,-698.0204 509.6762,-698.0204 506.727,-695.3182 512.1082,-695.3661 503.7777,-692.616 503.7777,-692.616"/>
<ellipse fill="none" stroke="#000000" cx="501.4183" cy="-690.4543" rx="3.2" ry="3.2"/>
</g>
<!-- client&#45;&gt;eworker -->
<g id="edge10" class="edge">
<title>client:w&#45;&gt;eworker:e</title>
<path fill="none" stroke="#000000" d="M497.0355,-690.1229C429.7254,-640.3575 116.8814,-375.2958 113.6762,-369.0204"/>
<polygon fill="#000000" stroke="#000000" points="502.8915,-693.7815 507.7687,-701.0735 506.2839,-695.901 509.6762,-698.0204 509.6762,-698.0204 509.6762,-698.0204 506.2839,-695.901 511.5837,-694.9673 502.8915,-693.7815 502.8915,-693.7815"/>
<ellipse fill="none" stroke="#000000" cx="500.1776" cy="-692.086" rx="3.2" ry="3.2"/>
</g>
<!-- client&#45;&gt;principal -->
<g id="edge8" class="edge">
<title>client:w&#45;&gt;principal:e</title>
<path fill="none" stroke="#000000" d="M495.5463,-695.1324C483.4712,-689.1098 480.3296,-674.558 467.6762,-660.0204 423.0423,-608.7399 328.2906,-466.6709 295.6762,-407.0204 273.419,-366.3128 301.0712,-311.0204 254.6762,-311.0204"/>
<polygon fill="#000000" stroke="#000000" points="501.8383,-696.4184 508.9553,-701.5475 505.7573,-697.2194 509.6762,-698.0204 509.6762,-698.0204 509.6762,-698.0204 505.7573,-697.2194 510.3972,-694.4933 501.8383,-696.4184 501.8383,-696.4184"/>
<ellipse fill="none" stroke="#000000" cx="498.7031" cy="-695.7776" rx="3.2" ry="3.2"/>
</g>
<!-- client&#45;&gt;principal -->
<g id="edge9" class="edge">
<title>client:w&#45;&gt;principal:e</title>
<path fill="none" stroke="#000000" d="M495.5375,-695.14C483.4464,-689.1313 480.2767,-674.604 467.6762,-660.0204 422.7473,-608.0204 328.8949,-463.1797 295.6762,-403.0204 274.0374,-363.8323 299.4417,-311.0204 254.6762,-311.0204"/>
<polygon fill="#000000" stroke="#000000" points="501.8373,-696.4234 508.9576,-701.548 505.7568,-697.2219 509.6762,-698.0204 509.6762,-698.0204 509.6762,-698.0204 505.7568,-697.2219 510.3949,-694.4929 501.8373,-696.4234 501.8373,-696.4234"/>
<ellipse fill="none" stroke="#000000" cx="498.7017" cy="-695.7845" rx="3.2" ry="3.2"/>
</g>
<!-- eworker&#45;&gt;file -->
<g id="edge15" class="edge">
<title>eworker:w&#45;&gt;file:e</title>
<path fill="none" stroke="#000000" d="M7.7152,-365.2134C-12.9974,-351.6908 4.2411,-308.309 121.6762,-337.5204 137.7867,-341.5278 139.3845,-348.5575 154.6762,-355.0204 215.3302,-380.6552 230.6279,-390.2849 295.6762,-400.5204 295.6762,-400.5204 427.1762,-362.0204 427.1762,-362.0204"/>
<polygon fill="#000000" stroke="#000000" points="13.9581,-366.9157 20.7291,-372.4936 17.8171,-367.9681 21.6762,-369.0204 21.6762,-369.0204 21.6762,-369.0204 17.8171,-367.9681 22.6234,-365.5472 13.9581,-366.9157 13.9581,-366.9157"/>
<ellipse fill="none" stroke="#000000" cx="10.8708" cy="-366.0738" rx="3.2" ry="3.2"/>
</g>
<!-- eworker&#45;&gt;principal -->
<g id="edge16" class="edge">
<title>eworker:w&#45;&gt;principal:e</title>
<path fill="none" stroke="#000000" d="M13.4445,-356.9807C12.8261,-348.7934 17.0024,-338.6575 21.6762,-331.5204 57.0052,-277.5716 91.5473,-286.6866 154.6762,-273.5204 154.6762,-273.5204 254.6762,-305.0204 254.6762,-311.0204"/>
<polygon fill="#000000" stroke="#000000" points="17.161,-362.4164 18.7044,-371.0523 19.4186,-365.7184 21.6762,-369.0204 21.6762,-369.0204 21.6762,-369.0204 19.4186,-365.7184 24.648,-366.9885 17.161,-362.4164 17.161,-362.4164"/>
<ellipse fill="none" stroke="#000000" cx="15.3548" cy="-359.7748" rx="3.2" ry="3.2"/>
</g>
<!-- eworker&#45;&gt;principal -->
<g id="edge17" class="edge">
<title>eworker:w&#45;&gt;principal:e</title>
<path fill="none" stroke="#000000" d="M15.8196,-355.8593C17.3541,-351.9663 19.4592,-347.9059 21.6762,-344.5204 57.0052,-290.5716 91.5473,-299.6866 154.6762,-286.5204 154.6762,-286.5204 254.6762,-318.0204 254.6762,-311.0204"/>
<polygon fill="#000000" stroke="#000000" points="18.4237,-361.7114 18.3872,-370.484 20.05,-365.3659 21.6762,-369.0204 21.6762,-369.0204 21.6762,-369.0204 20.05,-365.3659 24.9653,-367.5568 18.4237,-361.7114 18.4237,-361.7114"/>
<ellipse fill="none" stroke="#000000" cx="17.1227" cy="-358.7878" rx="3.2" ry="3.2"/>
</g>
<!-- principal&#45;&gt;eworker -->
<g id="edge32" class="edge">
<title>principal:w&#45;&gt;eworker:e</title>
<path fill="none" stroke="#000000" d="M148.9389,-315.9655C133.8893,-329.9915 141.3582,-369.0204 113.6762,-369.0204"/>
<polygon fill="#000000" stroke="#000000" points="155.1491,-313.73 163.8956,-314.4076 158.9127,-312.3752 162.6762,-311.0204 162.6762,-311.0204 162.6762,-311.0204 158.9127,-312.3752 161.4569,-307.6332 155.1491,-313.73 155.1491,-313.73"/>
<ellipse fill="none" stroke="#000000" cx="152.1382" cy="-314.8139" rx="3.2" ry="3.2"/>
</g>
<!-- client_contact -->
<g id="node8" class="node">
<title>client_contact</title>
<g id="a_node8"><a xlink:href="../../tables/client_contact.html" xlink:title="client_contact" target="_top">
<polygon fill="#ffffff" stroke="transparent" points="684.6762,-213.5204 684.6762,-274.5204 794.6762,-274.5204 794.6762,-213.5204 684.6762,-213.5204"/>
<polygon fill="#f5f5f5" stroke="transparent" points="684.6762,-251.0204 684.6762,-274.0204 794.6762,-274.0204 794.6762,-251.0204 684.6762,-251.0204"/>
<polygon fill="none" stroke="#000000" points="684.6762,-251.0204 684.6762,-274.0204 794.6762,-274.0204 794.6762,-251.0204 684.6762,-251.0204"/>
<text text-anchor="start" x="689.5553" y="-260.1204" font-family="Helvetica,sans-Serif" font-weight="bold" font-size="11.00" fill="#000000">client_contact</text>
<text text-anchor="start" x="760.1981" y="-259.1204" font-family="Helvetica,sans-Serif" font-size="11.00" fill="#000000">[table]</text>
<polygon fill="none" stroke="#000000" points="684.6762,-232.0204 684.6762,-251.0204 794.6762,-251.0204 794.6762,-232.0204 684.6762,-232.0204"/>
<text text-anchor="start" x="687.6762" y="-238.1204" font-family="Helvetica,sans-Serif" font-size="11.00" fill="#000000">...</text>
<polygon fill="#ffffff" stroke="transparent" points="684.6762,-213.0204 684.6762,-232.0204 714.6762,-232.0204 714.6762,-213.0204 684.6762,-213.0204"/>
<polygon fill="none" stroke="#000000" points="684.6762,-213.0204 684.6762,-232.0204 714.6762,-232.0204 714.6762,-213.0204 684.6762,-213.0204"/>
<text text-anchor="start" x="687.6762" y="-219.1204" font-family="Helvetica,sans-Serif" font-size="11.00" fill="#000000">&lt; 4</text>
<polygon fill="#ffffff" stroke="transparent" points="714.6762,-213.0204 714.6762,-232.0204 768.6762,-232.0204 768.6762,-213.0204 714.6762,-213.0204"/>
<polygon fill="none" stroke="#000000" points="714.6762,-213.0204 714.6762,-232.0204 768.6762,-232.0204 768.6762,-213.0204 714.6762,-213.0204"/>
<text text-anchor="start" x="721.0569" y="-219.1204" font-family="Helvetica,sans-Serif" font-size="11.00" fill="#000000">561 rows</text>
<polygon fill="#ffffff" stroke="transparent" points="768.6762,-213.0204 768.6762,-232.0204 794.6762,-232.0204 794.6762,-213.0204 768.6762,-213.0204"/>
<polygon fill="none" stroke="#000000" points="768.6762,-213.0204 768.6762,-232.0204 794.6762,-232.0204 794.6762,-213.0204 768.6762,-213.0204"/>
<text text-anchor="start" x="776.0815" y="-219.1204" font-family="Helvetica,sans-Serif" font-size="11.00" fill="#000000">2 &gt;</text>
</a>
</g>
</g>
<!-- client_contact&#45;&gt;file -->
<g id="edge11" class="edge">
<title>client_contact:w&#45;&gt;file:e</title>
<path fill="none" stroke="#000000" d="M670.3827,-243.2707C661.9498,-246.2767 656.4695,-251.6179 643.6762,-255.0204 566.6842,-275.497 532.1651,-242.2417 467.6762,-289.0204 437.6425,-310.8062 464.2794,-362.0204 427.1762,-362.0204"/>
<polygon fill="#000000" stroke="#000000" points="676.7736,-242.2646 685.2361,-244.5766 680.7249,-241.6425 684.6762,-241.0204 684.6762,-241.0204 684.6762,-241.0204 680.7249,-241.6425 684.1164,-237.4642 676.7736,-242.2646 676.7736,-242.2646"/>
<ellipse fill="none" stroke="#000000" cx="673.6125" cy="-242.7623" rx="3.2" ry="3.2"/>
</g>
<!-- client_contact&#45;&gt;client -->
<g id="edge12" class="edge">
<title>client_contact:w&#45;&gt;client:e</title>
<path fill="none" stroke="#000000" d="M673.3603,-250.3794C642.5055,-308.8008 662.7409,-622.1567 643.6762,-660.0204 632.3555,-682.5042 626.8492,-698.0204 601.6762,-698.0204"/>
<polygon fill="#000000" stroke="#000000" points="678.5115,-246.1191 686.9706,-243.7945 681.5939,-243.5697 684.6762,-241.0204 684.6762,-241.0204 684.6762,-241.0204 681.5939,-243.5697 682.3818,-238.2463 678.5115,-246.1191 678.5115,-246.1191"/>
<ellipse fill="none" stroke="#000000" cx="676.0456" cy="-248.1585" rx="3.2" ry="3.2"/>
</g>
<!-- client_contact&#45;&gt;principal -->
<g id="edge13" class="edge">
<title>client_contact:w&#45;&gt;principal:e</title>
<path fill="none" stroke="#000000" d="M670.2344,-240.878C508.0176,-237.6718 445.2549,-182.1558 295.6762,-259.0204 269.4994,-272.472 284.1071,-311.0204 254.6762,-311.0204"/>
<polygon fill="#000000" stroke="#000000" points="676.6766,-240.9414 684.6407,-244.6202 680.6764,-240.9809 684.6762,-241.0204 684.6762,-241.0204 684.6762,-241.0204 680.6764,-240.9809 684.7118,-237.4206 676.6766,-240.9414 676.6766,-240.9414"/>
<ellipse fill="none" stroke="#000000" cx="673.4768" cy="-240.9099" rx="3.2" ry="3.2"/>
</g>
<!-- client_contact&#45;&gt;principal -->
<g id="edge14" class="edge">
<title>client_contact:w&#45;&gt;principal:e</title>
<path fill="none" stroke="#000000" d="M670.2292,-240.8912C507.9824,-237.9848 446.1562,-187.7372 295.6762,-263.0204 270.5847,-275.5734 282.7326,-311.0204 254.6762,-311.0204"/>
<polygon fill="#000000" stroke="#000000" points="676.6766,-240.9488 684.644,-244.6203 680.6764,-240.9846 684.6762,-241.0204 684.6762,-241.0204 684.6762,-241.0204 680.6764,-240.9846 684.7085,-237.4206 676.6766,-240.9488 676.6766,-240.9488"/>
<ellipse fill="none" stroke="#000000" cx="673.4767" cy="-240.9202" rx="3.2" ry="3.2"/>
</g>
<!-- file_preview -->
<g id="node9" class="node">
<title>file_preview</title>
<g id="a_node9"><a xlink:href="../../tables/file_preview.html" xlink:title="file_preview" target="_top">
<polygon fill="#ffffff" stroke="transparent" points="478.1762,-515.0204 478.1762,-649.0204 633.1762,-649.0204 633.1762,-515.0204 478.1762,-515.0204"/>
<polygon fill="#f5f5f5" stroke="transparent" points="480.6762,-624.0204 480.6762,-647.0204 631.6762,-647.0204 631.6762,-624.0204 480.6762,-624.0204"/>
<polygon fill="none" stroke="#000000" points="480.6762,-624.0204 480.6762,-647.0204 631.6762,-647.0204 631.6762,-624.0204 480.6762,-624.0204"/>
<text text-anchor="start" x="485.6762" y="-633.1204" font-family="Helvetica,sans-Serif" font-weight="bold" font-size="11.00" fill="#000000">file_preview</text>
<text text-anchor="start" x="596.7199" y="-632.1204" font-family="Helvetica,sans-Serif" font-size="11.00" fill="#000000">[table]</text>
<polygon fill="none" stroke="#000000" points="480.6762,-602.0204 480.6762,-624.0204 581.6762,-624.0204 581.6762,-602.0204 480.6762,-602.0204"/>
<image xlink:href="../../images/primaryKeys.png" width="11px" height="12px" preserveAspectRatio="xMinYMin meet" x="485.676" y="-619.02"/>
<text text-anchor="start" x="500.6762" y="-609.1204" font-family="Helvetica,sans-Serif" font-size="11.00" fill="#000000">id</text>
<polygon fill="none" stroke="#000000" points="581.6762,-602.0204 581.6762,-624.0204 631.6762,-624.0204 631.6762,-602.0204 581.6762,-602.0204"/>
<text text-anchor="start" x="584.3627" y="-609.7204" font-family="Helvetica,sans-Serif" font-size="11.00" fill="#000000">bigint[19]</text>
<polygon fill="#ffffff" stroke="transparent" points="480.6762,-580.0204 480.6762,-602.0204 581.6762,-602.0204 581.6762,-580.0204 480.6762,-580.0204"/>
<polygon fill="none" stroke="#000000" points="480.6762,-580.0204 480.6762,-602.0204 581.6762,-602.0204 581.6762,-580.0204 480.6762,-580.0204"/>
<image xlink:href="../../images/foreignKeys.png" width="11px" height="12px" preserveAspectRatio="xMinYMin meet" x="485.676" y="-597.02"/>
<text text-anchor="start" x="500.6762" y="-587.1204" font-family="Helvetica,sans-Serif" font-size="11.00" fill="#000000">source_file_id</text>
<polygon fill="none" stroke="#000000" points="581.6762,-580.0204 581.6762,-602.0204 631.6762,-602.0204 631.6762,-580.0204 581.6762,-580.0204"/>
<text text-anchor="start" x="584.3627" y="-587.7204" font-family="Helvetica,sans-Serif" font-size="11.00" fill="#000000">bigint[19]</text>
<polygon fill="#ffffff" stroke="transparent" points="480.6762,-558.0204 480.6762,-580.0204 581.6762,-580.0204 581.6762,-558.0204 480.6762,-558.0204"/>
<polygon fill="none" stroke="#000000" points="480.6762,-558.0204 480.6762,-580.0204 581.6762,-580.0204 581.6762,-558.0204 480.6762,-558.0204"/>
<image xlink:href="../../images/foreignKeys.png" width="11px" height="12px" preserveAspectRatio="xMinYMin meet" x="485.676" y="-575.02"/>
<text text-anchor="start" x="500.6762" y="-565.1204" font-family="Helvetica,sans-Serif" font-size="11.00" fill="#000000">image_file_id</text>
<polygon fill="none" stroke="#000000" points="581.6762,-558.0204 581.6762,-580.0204 631.6762,-580.0204 631.6762,-558.0204 581.6762,-558.0204"/>
<text text-anchor="start" x="584.3627" y="-565.7204" font-family="Helvetica,sans-Serif" font-size="11.00" fill="#000000">bigint[19]</text>
<polygon fill="#ffffff" stroke="transparent" points="480.6762,-536.0204 480.6762,-558.0204 581.6762,-558.0204 581.6762,-536.0204 480.6762,-536.0204"/>
<polygon fill="none" stroke="#000000" points="480.6762,-536.0204 480.6762,-558.0204 581.6762,-558.0204 581.6762,-536.0204 480.6762,-536.0204"/>
<image xlink:href="../../images/foreignKeys.png" width="11px" height="12px" preserveAspectRatio="xMinYMin meet" x="485.676" y="-553.02"/>
<text text-anchor="start" x="500.6762" y="-543.1204" font-family="Helvetica,sans-Serif" font-size="11.00" fill="#000000">pdf_file_id</text>
<polygon fill="none" stroke="#000000" points="581.6762,-536.0204 581.6762,-558.0204 631.6762,-558.0204 631.6762,-536.0204 581.6762,-536.0204"/>
<text text-anchor="start" x="584.3627" y="-543.7204" font-family="Helvetica,sans-Serif" font-size="11.00" fill="#000000">bigint[19]</text>
<polygon fill="#ffffff" stroke="transparent" points="480.6762,-517.0204 480.6762,-536.0204 522.6762,-536.0204 522.6762,-517.0204 480.6762,-517.0204"/>
<polygon fill="none" stroke="#000000" points="480.6762,-517.0204 480.6762,-536.0204 522.6762,-536.0204 522.6762,-517.0204 480.6762,-517.0204"/>
<text text-anchor="start" x="483.6762" y="-523.1204" font-family="Helvetica,sans-Serif" font-size="11.00" fill="#000000">&lt; 3</text>
<polygon fill="#ffffff" stroke="transparent" points="522.6762,-517.0204 522.6762,-536.0204 581.6762,-536.0204 581.6762,-517.0204 522.6762,-517.0204"/>
<polygon fill="none" stroke="#000000" points="522.6762,-517.0204 522.6762,-536.0204 581.6762,-536.0204 581.6762,-517.0204 522.6762,-517.0204"/>
<text text-anchor="start" x="546.2867" y="-523.1204" font-family="Helvetica,sans-Serif" font-size="11.00" fill="#000000">0 rows</text>
<polygon fill="#ffffff" stroke="transparent" points="581.6762,-517.0204 581.6762,-536.0204 631.6762,-536.0204 631.6762,-517.0204 581.6762,-517.0204"/>
<polygon fill="none" stroke="#000000" points="581.6762,-517.0204 581.6762,-536.0204 631.6762,-536.0204 631.6762,-517.0204 581.6762,-517.0204"/>
<text text-anchor="start" x="613.0815" y="-523.1204" font-family="Helvetica,sans-Serif" font-size="11.00" fill="#000000">0 &gt;</text>
<polygon fill="none" stroke="#000000" stroke-width="2" points="479.1762,-516.0204 479.1762,-648.0204 632.1762,-648.0204 632.1762,-516.0204 479.1762,-516.0204"/>
</a>
</g>
</g>
<!-- file_preview&#45;&gt;file -->
<g id="edge20" class="edge">
<title>file_preview:w&#45;&gt;file:e</title>
<path fill="none" stroke="#000000" d="M466.2649,-566.9717C400.8596,-545.4733 516.6315,-362.0204 427.1762,-362.0204"/>
<polygon fill="#000000" stroke="#000000" points="472.7559,-567.8944 480.1695,-572.5846 476.7161,-568.4574 480.6762,-569.0204 480.6762,-569.0204 480.6762,-569.0204 476.7161,-568.4574 481.183,-565.4562 472.7559,-567.8944 472.7559,-567.8944"/>
<ellipse fill="none" stroke="#000000" cx="469.5877" cy="-567.444" rx="3.2" ry="3.2"/>
</g>
<!-- file_preview&#45;&gt;file -->
<g id="edge21" class="edge">
<title>file_preview:w&#45;&gt;file:e</title>
<path fill="none" stroke="#000000" d="M466.195,-544.6813C409.8182,-523.2659 507.0838,-362.0204 427.1762,-362.0204"/>
<polygon fill="#000000" stroke="#000000" points="472.7786,-545.7447 480.1022,-550.5743 476.7274,-546.3826 480.6762,-547.0204 480.6762,-547.0204 480.6762,-547.0204 476.7274,-546.3826 481.2503,-543.4665 472.7786,-545.7447 472.7786,-545.7447"/>
<ellipse fill="none" stroke="#000000" cx="469.6195" cy="-545.2344" rx="3.2" ry="3.2"/>
</g>
<!-- file_preview&#45;&gt;file -->
<g id="edge22" class="edge">
<title>file_preview:w&#45;&gt;file:e</title>
<path fill="none" stroke="#000000" d="M466.2344,-589.1771C391.8389,-567.5049 526.1829,-362.0204 427.1762,-362.0204"/>
<polygon fill="#000000" stroke="#000000" points="472.7406,-590.0075 480.2204,-594.5914 476.7084,-590.5139 480.6762,-591.0204 480.6762,-591.0204 480.6762,-591.0204 476.7084,-590.5139 481.1321,-587.4494 472.7406,-590.0075 472.7406,-590.0075"/>
<ellipse fill="none" stroke="#000000" cx="469.5664" cy="-589.6023" rx="3.2" ry="3.2"/>
</g>
<!-- invitation_document -->
<g id="node10" class="node">
<title>invitation_document</title>
<g id="a_node10"><a xlink:href="../../tables/invitation_document.html" xlink:title="invitation_document" target="_top">
<polygon fill="#ffffff" stroke="transparent" points="485.6762,-432.5204 485.6762,-493.5204 625.6762,-493.5204 625.6762,-432.5204 485.6762,-432.5204"/>
<polygon fill="#f5f5f5" stroke="transparent" points="485.6762,-470.0204 485.6762,-493.0204 625.6762,-493.0204 625.6762,-470.0204 485.6762,-470.0204"/>
<polygon fill="none" stroke="#000000" points="485.6762,-470.0204 485.6762,-493.0204 625.6762,-493.0204 625.6762,-470.0204 485.6762,-470.0204"/>
<text text-anchor="start" x="490.2741" y="-479.1204" font-family="Helvetica,sans-Serif" font-weight="bold" font-size="11.00" fill="#000000">invitation_document</text>
<text text-anchor="start" x="591.1981" y="-478.1204" font-family="Helvetica,sans-Serif" font-size="11.00" fill="#000000">[table]</text>
<polygon fill="none" stroke="#000000" points="485.6762,-451.0204 485.6762,-470.0204 625.6762,-470.0204 625.6762,-451.0204 485.6762,-451.0204"/>
<text text-anchor="start" x="488.6762" y="-457.1204" font-family="Helvetica,sans-Serif" font-size="11.00" fill="#000000">...</text>
<polygon fill="#ffffff" stroke="transparent" points="485.6762,-432.0204 485.6762,-451.0204 540.6762,-451.0204 540.6762,-432.0204 485.6762,-432.0204"/>
<polygon fill="none" stroke="#000000" points="485.6762,-432.0204 485.6762,-451.0204 540.6762,-451.0204 540.6762,-432.0204 485.6762,-432.0204"/>
<text text-anchor="start" x="488.6762" y="-438.1204" font-family="Helvetica,sans-Serif" font-size="11.00" fill="#000000">&lt; 2</text>
<polygon fill="#ffffff" stroke="transparent" points="540.6762,-432.0204 540.6762,-451.0204 595.6762,-451.0204 595.6762,-432.0204 540.6762,-432.0204"/>
<polygon fill="none" stroke="#000000" points="540.6762,-432.0204 540.6762,-451.0204 595.6762,-451.0204 595.6762,-432.0204 540.6762,-432.0204"/>
<text text-anchor="start" x="560.2867" y="-438.1204" font-family="Helvetica,sans-Serif" font-size="11.00" fill="#000000">4 rows</text>
<polygon fill="#ffffff" stroke="transparent" points="595.6762,-432.0204 595.6762,-451.0204 625.6762,-451.0204 625.6762,-432.0204 595.6762,-432.0204"/>
<polygon fill="none" stroke="#000000" points="595.6762,-432.0204 595.6762,-451.0204 625.6762,-451.0204 625.6762,-432.0204 595.6762,-432.0204"/>
<text text-anchor="start" x="616.5624" y="-438.1204" font-family="Helvetica,sans-Serif" font-size="11.00" fill="#000000"> &#160;</text>
</a>
</g>
</g>
<!-- invitation_document&#45;&gt;file -->
<g id="edge23" class="edge">
<title>invitation_document:w&#45;&gt;file:e</title>
<path fill="none" stroke="#000000" d="M471.4009,-456.2984C443.7309,-438.3975 471.9574,-362.0204 427.1762,-362.0204"/>
<polygon fill="#000000" stroke="#000000" points="477.935,-458.002 484.768,-463.504 481.8056,-459.0112 485.6762,-460.0204 485.6762,-460.0204 485.6762,-460.0204 481.8056,-459.0112 486.5845,-456.5369 477.935,-458.002 477.935,-458.002"/>
<ellipse fill="none" stroke="#000000" cx="474.8386" cy="-457.1946" rx="3.2" ry="3.2"/>
</g>
<!-- job_request_application -->
<g id="node11" class="node">
<title>job_request_application</title>
<g id="a_node11"><a xlink:href="../../tables/job_request_application.html" xlink:title="job_request_application" target="_top">
<polygon fill="#ffffff" stroke="transparent" points="843.6762,-66.5204 843.6762,-127.5204 1002.6762,-127.5204 1002.6762,-66.5204 843.6762,-66.5204"/>
<polygon fill="#f5f5f5" stroke="transparent" points="844.1762,-104.0204 844.1762,-127.0204 1003.1762,-127.0204 1003.1762,-104.0204 844.1762,-104.0204"/>
<polygon fill="none" stroke="#000000" points="844.1762,-104.0204 844.1762,-127.0204 1003.1762,-127.0204 1003.1762,-104.0204 844.1762,-104.0204"/>
<text text-anchor="start" x="849.1023" y="-113.1204" font-family="Helvetica,sans-Serif" font-weight="bold" font-size="11.00" fill="#000000">job_request_application</text>
<text text-anchor="start" x="968.6981" y="-112.1204" font-family="Helvetica,sans-Serif" font-size="11.00" fill="#000000">[table]</text>
<polygon fill="none" stroke="#000000" points="844.1762,-85.0204 844.1762,-104.0204 1003.1762,-104.0204 1003.1762,-85.0204 844.1762,-85.0204"/>
<text text-anchor="start" x="847.1762" y="-91.1204" font-family="Helvetica,sans-Serif" font-size="11.00" fill="#000000">...</text>
<polygon fill="#ffffff" stroke="transparent" points="844.1762,-66.0204 844.1762,-85.0204 901.1762,-85.0204 901.1762,-66.0204 844.1762,-66.0204"/>
<polygon fill="none" stroke="#000000" points="844.1762,-66.0204 844.1762,-85.0204 901.1762,-85.0204 901.1762,-66.0204 844.1762,-66.0204"/>
<text text-anchor="start" x="847.1762" y="-72.1204" font-family="Helvetica,sans-Serif" font-size="11.00" fill="#000000">&lt; 6</text>
<polygon fill="#ffffff" stroke="transparent" points="901.1762,-66.0204 901.1762,-85.0204 963.1762,-85.0204 963.1762,-66.0204 901.1762,-66.0204"/>
<polygon fill="none" stroke="#000000" points="901.1762,-66.0204 901.1762,-85.0204 963.1762,-85.0204 963.1762,-66.0204 901.1762,-66.0204"/>
<text text-anchor="start" x="921.6718" y="-72.1204" font-family="Helvetica,sans-Serif" font-size="11.00" fill="#000000">75 rows</text>
<polygon fill="#ffffff" stroke="transparent" points="963.1762,-66.0204 963.1762,-85.0204 1003.1762,-85.0204 1003.1762,-66.0204 963.1762,-66.0204"/>
<polygon fill="none" stroke="#000000" points="963.1762,-66.0204 963.1762,-85.0204 1003.1762,-85.0204 1003.1762,-66.0204 963.1762,-66.0204"/>
<text text-anchor="start" x="984.5815" y="-72.1204" font-family="Helvetica,sans-Serif" font-size="11.00" fill="#000000">5 &gt;</text>
</a>
</g>
</g>
<!-- job_request_application&#45;&gt;applicant -->
<g id="edge24" class="edge">
<title>job_request_application:w&#45;&gt;applicant:e</title>
<path fill="none" stroke="#000000" d="M830.0499,-97.8918C808.9064,-111.8851 817.2842,-159.0204 783.6762,-159.0204"/>
<polygon fill="#000000" stroke="#000000" points="836.4607,-96.1349 845.1278,-97.4924 840.3185,-95.0777 844.1762,-94.0204 844.1762,-94.0204 844.1762,-94.0204 840.3185,-95.0777 843.2247,-90.5484 836.4607,-96.1349 836.4607,-96.1349"/>
<ellipse fill="none" stroke="#000000" cx="833.3745" cy="-96.9807" rx="3.2" ry="3.2"/>
</g>
<!-- job_request_application&#45;&gt;file -->
<g id="edge25" class="edge">
<title>job_request_application:w&#45;&gt;file:e</title>
<path fill="none" stroke="#000000" d="M829.5796,-94.3913C785.8504,-96.3527 706.6253,-105.9983 676.6762,-121.0204 658.4148,-130.1801 662.0227,-144.032 643.6762,-153.0204 572.7263,-187.7808 525.613,-124.3035 467.6762,-178.0204 406.2725,-234.9518 510.9116,-362.0204 427.1762,-362.0204"/>
<polygon fill="#000000" stroke="#000000" points="836.1788,-94.2237 844.2677,-97.6192 840.1775,-94.122 844.1762,-94.0204 844.1762,-94.0204 844.1762,-94.0204 840.1775,-94.122 844.0848,-90.4216 836.1788,-94.2237 836.1788,-94.2237"/>
<ellipse fill="none" stroke="#000000" cx="832.9799" cy="-94.3049" rx="3.2" ry="3.2"/>
</g>
<!-- job_request_application&#45;&gt;supplier -->
<g id="edge28" class="edge">
<title>job_request_application:w&#45;&gt;supplier:e</title>
<path fill="none" stroke="#000000" d="M829.6506,-93.9748C766.8806,-93.5804 745.7727,-90.9045 676.6762,-97.0204 643.0504,-99.9967 635.4335,-109.0204 601.6762,-109.0204"/>
<polygon fill="#000000" stroke="#000000" points="836.1763,-93.9952 844.1649,-97.6204 840.1763,-94.0078 844.1762,-94.0204 844.1762,-94.0204 844.1762,-94.0204 840.1763,-94.0078 844.1876,-90.4204 836.1763,-93.9952 836.1763,-93.9952"/>
<ellipse fill="none" stroke="#000000" cx="832.9763" cy="-93.9852" rx="3.2" ry="3.2"/>
</g>
<!-- job_request_application&#45;&gt;principal -->
<g id="edge26" class="edge">
<title>job_request_application:w&#45;&gt;principal:e</title>
<path fill="none" stroke="#000000" d="M829.7378,-93.0565C784.3704,-88.835 663.2214,-72.1378 643.6762,-71.0204 565.5815,-66.5558 545.2591,-61.0395 467.6762,-71.0204 389.3047,-81.1028 350.1743,-58.8041 295.6762,-116.0204 234.5955,-180.1477 343.2379,-311.0204 254.6762,-311.0204"/>
<polygon fill="#000000" stroke="#000000" points="836.194,-93.4875 843.9364,-97.6124 840.1851,-93.7539 844.1762,-94.0204 844.1762,-94.0204 844.1762,-94.0204 840.1851,-93.7539 844.4161,-90.4284 836.194,-93.4875 836.194,-93.4875"/>
<ellipse fill="none" stroke="#000000" cx="833.0011" cy="-93.2743" rx="3.2" ry="3.2"/>
</g>
<!-- job_request_application&#45;&gt;principal -->
<g id="edge27" class="edge">
<title>job_request_application:w&#45;&gt;principal:e</title>
<path fill="none" stroke="#000000" d="M829.6479,-93.8435C594.676,-88.131 460.9926,52.8111 295.6762,-120.0204 235.6626,-182.7622 341.4989,-311.0204 254.6762,-311.0204"/>
<polygon fill="#000000" stroke="#000000" points="836.1768,-93.9229 844.1324,-97.6201 840.1765,-93.9717 844.1762,-94.0204 844.1762,-94.0204 844.1762,-94.0204 840.1765,-93.9717 844.2201,-90.4207 836.1768,-93.9229 836.1768,-93.9229"/>
<ellipse fill="none" stroke="#000000" cx="832.9771" cy="-93.8839" rx="3.2" ry="3.2"/>
</g>
<!-- job_request_application_document -->
<g id="node12" class="node">
<title>job_request_application_document</title>
<g id="a_node12"><a xlink:href="../../tables/job_request_application_document.html" xlink:title="job_request_application_document" target="_top">
<polygon fill="#ffffff" stroke="transparent" points="1051.6762,-182.5204 1051.6762,-243.5204 1264.6762,-243.5204 1264.6762,-182.5204 1051.6762,-182.5204"/>
<polygon fill="#f5f5f5" stroke="transparent" points="1052.1762,-220.0204 1052.1762,-243.0204 1265.1762,-243.0204 1265.1762,-220.0204 1052.1762,-220.0204"/>
<polygon fill="none" stroke="#000000" points="1052.1762,-220.0204 1052.1762,-243.0204 1265.1762,-243.0204 1265.1762,-220.0204 1052.1762,-220.0204"/>
<text text-anchor="start" x="1056.8982" y="-229.1204" font-family="Helvetica,sans-Serif" font-weight="bold" font-size="11.00" fill="#000000">job_request_application_document</text>
<text text-anchor="start" x="1230.6981" y="-228.1204" font-family="Helvetica,sans-Serif" font-size="11.00" fill="#000000">[table]</text>
<polygon fill="none" stroke="#000000" points="1052.1762,-201.0204 1052.1762,-220.0204 1265.1762,-220.0204 1265.1762,-201.0204 1052.1762,-201.0204"/>
<text text-anchor="start" x="1055.1762" y="-207.1204" font-family="Helvetica,sans-Serif" font-size="11.00" fill="#000000">...</text>
<polygon fill="#ffffff" stroke="transparent" points="1052.1762,-182.0204 1052.1762,-201.0204 1141.1762,-201.0204 1141.1762,-182.0204 1052.1762,-182.0204"/>
<polygon fill="none" stroke="#000000" points="1052.1762,-182.0204 1052.1762,-201.0204 1141.1762,-201.0204 1141.1762,-182.0204 1052.1762,-182.0204"/>
<text text-anchor="start" x="1055.1762" y="-188.1204" font-family="Helvetica,sans-Serif" font-size="11.00" fill="#000000">&lt; 2</text>
<polygon fill="#ffffff" stroke="transparent" points="1141.1762,-182.0204 1141.1762,-201.0204 1219.1762,-201.0204 1219.1762,-182.0204 1141.1762,-182.0204"/>
<polygon fill="none" stroke="#000000" points="1141.1762,-182.0204 1141.1762,-201.0204 1219.1762,-201.0204 1219.1762,-182.0204 1141.1762,-182.0204"/>
<text text-anchor="start" x="1177.6718" y="-188.1204" font-family="Helvetica,sans-Serif" font-size="11.00" fill="#000000">57 rows</text>
<polygon fill="#ffffff" stroke="transparent" points="1219.1762,-182.0204 1219.1762,-201.0204 1265.1762,-201.0204 1265.1762,-182.0204 1219.1762,-182.0204"/>
<polygon fill="none" stroke="#000000" points="1219.1762,-182.0204 1219.1762,-201.0204 1265.1762,-201.0204 1265.1762,-182.0204 1219.1762,-182.0204"/>
<text text-anchor="start" x="1256.0624" y="-188.1204" font-family="Helvetica,sans-Serif" font-size="11.00" fill="#000000"> &#160;</text>
</a>
</g>
</g>
<!-- job_request_application_document&#45;&gt;file -->
<g id="edge29" class="edge">
<title>job_request_application_document:w&#45;&gt;file:e</title>
<path fill="none" stroke="#000000" d="M1038.3265,-214.3744C1025.8216,-225.0807 1031.5105,-252.7795 1010.6762,-266.0204 931.0805,-316.6063 895.966,-294.1844 802.6762,-308.0204 654.7279,-329.9629 610.7198,-296.3317 467.6762,-340.0204 448.0854,-346.0039 447.6605,-362.0204 427.1762,-362.0204"/>
<polygon fill="#000000" stroke="#000000" points="1044.5445,-212.4197 1053.2559,-213.4547 1048.3604,-211.2201 1052.1762,-210.0204 1052.1762,-210.0204 1052.1762,-210.0204 1048.3604,-211.2201 1051.0966,-206.5861 1044.5445,-212.4197 1044.5445,-212.4197"/>
<ellipse fill="none" stroke="#000000" cx="1041.4918" cy="-213.3794" rx="3.2" ry="3.2"/>
</g>
<!-- job_request_application_document&#45;&gt;job_request_application -->
<g id="edge30" class="edge">
<title>job_request_application_document:w&#45;&gt;job_request_application:e</title>
<path fill="none" stroke="#000000" d="M1038.1569,-206.4216C1008.1621,-186.842 1053.24,-94.0204 1003.1762,-94.0204"/>
<polygon fill="#000000" stroke="#000000" points="1044.4275,-208.0312 1051.2811,-213.5074 1048.3019,-209.0258 1052.1762,-210.0204 1052.1762,-210.0204 1052.1762,-210.0204 1048.3019,-209.0258 1053.0714,-206.5335 1044.4275,-208.0312 1044.4275,-208.0312"/>
<ellipse fill="none" stroke="#000000" cx="1041.328" cy="-207.2355" rx="3.2" ry="3.2"/>
</g>
<!-- job_request_attachment -->
<g id="node13" class="node">
<title>job_request_attachment</title>
<g id="a_node13"><a xlink:href="../../tables/job_request_attachment.html" xlink:title="job_request_attachment" target="_top">
<polygon fill="#ffffff" stroke="transparent" points="475.6762,-350.5204 475.6762,-411.5204 635.6762,-411.5204 635.6762,-350.5204 475.6762,-350.5204"/>
<polygon fill="#f5f5f5" stroke="transparent" points="475.6762,-388.0204 475.6762,-411.0204 635.6762,-411.0204 635.6762,-388.0204 475.6762,-388.0204"/>
<polygon fill="none" stroke="#000000" points="475.6762,-388.0204 475.6762,-411.0204 635.6762,-411.0204 635.6762,-388.0204 475.6762,-388.0204"/>
<text text-anchor="start" x="480.1832" y="-397.1204" font-family="Helvetica,sans-Serif" font-weight="bold" font-size="11.00" fill="#000000">job_request_attachment</text>
<text text-anchor="start" x="601.1981" y="-396.1204" font-family="Helvetica,sans-Serif" font-size="11.00" fill="#000000">[table]</text>
<polygon fill="none" stroke="#000000" points="475.6762,-369.0204 475.6762,-388.0204 635.6762,-388.0204 635.6762,-369.0204 475.6762,-369.0204"/>
<text text-anchor="start" x="478.6762" y="-375.1204" font-family="Helvetica,sans-Serif" font-size="11.00" fill="#000000">...</text>
<polygon fill="#ffffff" stroke="transparent" points="475.6762,-350.0204 475.6762,-369.0204 540.6762,-369.0204 540.6762,-350.0204 475.6762,-350.0204"/>
<polygon fill="none" stroke="#000000" points="475.6762,-350.0204 475.6762,-369.0204 540.6762,-369.0204 540.6762,-350.0204 475.6762,-350.0204"/>
<text text-anchor="start" x="478.6762" y="-356.1204" font-family="Helvetica,sans-Serif" font-size="11.00" fill="#000000">&lt; 2</text>
<polygon fill="#ffffff" stroke="transparent" points="540.6762,-350.0204 540.6762,-369.0204 600.6762,-369.0204 600.6762,-350.0204 540.6762,-350.0204"/>
<polygon fill="none" stroke="#000000" points="540.6762,-350.0204 540.6762,-369.0204 600.6762,-369.0204 600.6762,-350.0204 540.6762,-350.0204"/>
<text text-anchor="start" x="565.2867" y="-356.1204" font-family="Helvetica,sans-Serif" font-size="11.00" fill="#000000">4 rows</text>
<polygon fill="#ffffff" stroke="transparent" points="600.6762,-350.0204 600.6762,-369.0204 635.6762,-369.0204 635.6762,-350.0204 600.6762,-350.0204"/>
<polygon fill="none" stroke="#000000" points="600.6762,-350.0204 600.6762,-369.0204 635.6762,-369.0204 635.6762,-350.0204 600.6762,-350.0204"/>
<text text-anchor="start" x="626.5624" y="-356.1204" font-family="Helvetica,sans-Serif" font-size="11.00" fill="#000000"> &#160;</text>
</a>
</g>
</g>
<!-- job_request_attachment&#45;&gt;file -->
<g id="edge31" class="edge">
<title>job_request_attachment:w&#45;&gt;file:e</title>
<path fill="none" stroke="#000000" d="M461.3562,-375.3783C450.0753,-370.8339 444.0226,-362.0204 427.1762,-362.0204"/>
<polygon fill="#000000" stroke="#000000" points="467.809,-376.5688 475.023,-381.5607 471.7426,-377.2946 475.6762,-378.0204 475.6762,-378.0204 475.6762,-378.0204 471.7426,-377.2946 476.3294,-374.4802 467.809,-376.5688 467.809,-376.5688"/>
<ellipse fill="none" stroke="#000000" cx="464.6621" cy="-375.9882" rx="3.2" ry="3.2"/>
</g>
</g>
</svg>
