<?xml version="1.0" encoding="UTF-8" standalone="no"?>
<!DOCTYPE svg PUBLIC "-//W3C//DTD SVG 1.1//EN"
 "http://www.w3.org/Graphics/SVG/1.1/DTD/svg11.dtd">
<!-- Generated by graphviz version 2.40.1 (20161225.0304)
 -->
<!-- Title: oneDegreeRelationshipsDiagram Pages: 1 -->
<svg width="1476pt" height="1329pt"
 viewBox="0.00 0.00 1475.62 1329.30" xmlns="http://www.w3.org/2000/svg" xmlns:xlink="http://www.w3.org/1999/xlink">
<g id="graph0" class="graph" transform="scale(1 1) rotate(0) translate(4 1325.3019)">
<title>oneDegreeRelationshipsDiagram</title>
<polygon fill="#ffffff" stroke="transparent" points="-4,4 -4,-1325.3019 1471.6217,-1325.3019 1471.6217,4 -4,4"/>
<text text-anchor="middle" x="72.4936" y="-7.3" font-family="Helvetica,sans-Serif" font-size="11.00" fill="#000000">Generated by SchemaSpy</text>
<!-- applicant -->
<g id="node1" class="node">
<title>applicant</title>
<g id="a_node1"><a xlink:href="../../tables/applicant.html" xlink:title="applicant" target="_top">
<polygon fill="#ffffff" stroke="transparent" points="837.6217,-405.5311 837.6217,-620.5311 977.6217,-620.5311 977.6217,-405.5311 837.6217,-405.5311"/>
<polygon fill="#f5f5f5" stroke="transparent" points="837.6217,-597.0311 837.6217,-620.0311 977.6217,-620.0311 977.6217,-597.0311 837.6217,-597.0311"/>
<polygon fill="none" stroke="#000000" points="837.6217,-597.0311 837.6217,-620.0311 977.6217,-620.0311 977.6217,-597.0311 837.6217,-597.0311"/>
<text text-anchor="start" x="842.6217" y="-606.1311" font-family="Helvetica,sans-Serif" font-weight="bold" font-size="11.00" fill="#000000">applicant</text>
<text text-anchor="start" x="942.6654" y="-605.1311" font-family="Helvetica,sans-Serif" font-size="11.00" fill="#000000">[table]</text>
<polygon fill="none" stroke="#000000" points="837.6217,-575.0311 837.6217,-597.0311 977.6217,-597.0311 977.6217,-575.0311 837.6217,-575.0311"/>
<image xlink:href="../../images/primaryKeys.png" width="11px" height="12px" preserveAspectRatio="xMinYMin meet" x="842.622" y="-592.031"/>
<text text-anchor="start" x="857.6217" y="-582.1311" font-family="Helvetica,sans-Serif" font-size="11.00" fill="#000000">id</text>
<polygon fill="#ffffff" stroke="transparent" points="837.6217,-553.0311 837.6217,-575.0311 977.6217,-575.0311 977.6217,-553.0311 837.6217,-553.0311"/>
<polygon fill="none" stroke="#000000" points="837.6217,-553.0311 837.6217,-575.0311 977.6217,-575.0311 977.6217,-553.0311 837.6217,-553.0311"/>
<text text-anchor="start" x="857.6217" y="-560.1311" font-family="Helvetica,sans-Serif" font-size="11.00" fill="#000000">created_by</text>
<polygon fill="#ffffff" stroke="transparent" points="837.6217,-531.0311 837.6217,-553.0311 977.6217,-553.0311 977.6217,-531.0311 837.6217,-531.0311"/>
<polygon fill="none" stroke="#000000" points="837.6217,-531.0311 837.6217,-553.0311 977.6217,-553.0311 977.6217,-531.0311 837.6217,-531.0311"/>
<text text-anchor="start" x="857.6217" y="-538.1311" font-family="Helvetica,sans-Serif" font-size="11.00" fill="#000000">modified_by</text>
<polygon fill="#ffffff" stroke="transparent" points="837.6217,-509.0311 837.6217,-531.0311 977.6217,-531.0311 977.6217,-509.0311 837.6217,-509.0311"/>
<polygon fill="none" stroke="#000000" points="837.6217,-509.0311 837.6217,-531.0311 977.6217,-531.0311 977.6217,-509.0311 837.6217,-509.0311"/>
<image xlink:href="../../images/foreignKeys.png" width="11px" height="12px" preserveAspectRatio="xMinYMin meet" x="842.622" y="-526.031"/>
<text text-anchor="start" x="857.6217" y="-516.1311" font-family="Helvetica,sans-Serif" font-size="11.00" fill="#000000">address_id</text>
<polygon fill="#ffffff" stroke="transparent" points="837.6217,-487.0311 837.6217,-509.0311 977.6217,-509.0311 977.6217,-487.0311 837.6217,-487.0311"/>
<polygon fill="none" stroke="#000000" points="837.6217,-487.0311 837.6217,-509.0311 977.6217,-509.0311 977.6217,-487.0311 837.6217,-487.0311"/>
<image xlink:href="../../images/foreignKeys.png" width="11px" height="12px" preserveAspectRatio="xMinYMin meet" x="842.622" y="-504.031"/>
<text text-anchor="start" x="857.6217" y="-494.1311" font-family="Helvetica,sans-Serif" font-size="11.00" fill="#000000">avatar_id</text>
<polygon fill="#ffffff" stroke="transparent" points="837.6217,-465.0311 837.6217,-487.0311 977.6217,-487.0311 977.6217,-465.0311 837.6217,-465.0311"/>
<polygon fill="none" stroke="#000000" points="837.6217,-465.0311 837.6217,-487.0311 977.6217,-487.0311 977.6217,-465.0311 837.6217,-465.0311"/>
<image xlink:href="../../images/foreignKeys.png" width="11px" height="12px" preserveAspectRatio="xMinYMin meet" x="842.622" y="-482.031"/>
<text text-anchor="start" x="857.6217" y="-472.1311" font-family="Helvetica,sans-Serif" font-size="11.00" fill="#000000">contact_person_id</text>
<polygon fill="#ffffff" stroke="transparent" points="837.6217,-443.0311 837.6217,-465.0311 977.6217,-465.0311 977.6217,-443.0311 837.6217,-443.0311"/>
<polygon fill="none" stroke="#000000" points="837.6217,-443.0311 837.6217,-465.0311 977.6217,-465.0311 977.6217,-443.0311 837.6217,-443.0311"/>
<image xlink:href="../../images/foreignKeys.png" width="11px" height="12px" preserveAspectRatio="xMinYMin meet" x="842.622" y="-460.031"/>
<text text-anchor="start" x="857.6217" y="-450.1311" font-family="Helvetica,sans-Serif" font-size="11.00" fill="#000000">supplier_id</text>
<polygon fill="none" stroke="#000000" points="837.6217,-424.0311 837.6217,-443.0311 977.6217,-443.0311 977.6217,-424.0311 837.6217,-424.0311"/>
<text text-anchor="start" x="840.6217" y="-430.1311" font-family="Helvetica,sans-Serif" font-size="11.00" fill="#000000">...</text>
<polygon fill="#ffffff" stroke="transparent" points="837.6217,-405.0311 837.6217,-424.0311 885.6217,-424.0311 885.6217,-405.0311 837.6217,-405.0311"/>
<polygon fill="none" stroke="#000000" points="837.6217,-405.0311 837.6217,-424.0311 885.6217,-424.0311 885.6217,-405.0311 837.6217,-405.0311"/>
<text text-anchor="start" x="840.6217" y="-411.1311" font-family="Helvetica,sans-Serif" font-size="11.00" fill="#000000">&lt; 4</text>
<polygon fill="#ffffff" stroke="transparent" points="885.6217,-405.0311 885.6217,-424.0311 942.6217,-424.0311 942.6217,-405.0311 885.6217,-405.0311"/>
<polygon fill="none" stroke="#000000" points="885.6217,-405.0311 885.6217,-424.0311 942.6217,-424.0311 942.6217,-405.0311 885.6217,-405.0311"/>
<text text-anchor="start" x="901.1173" y="-411.1311" font-family="Helvetica,sans-Serif" font-size="11.00" fill="#000000">90 rows</text>
<polygon fill="#ffffff" stroke="transparent" points="942.6217,-405.0311 942.6217,-424.0311 977.6217,-424.0311 977.6217,-405.0311 942.6217,-405.0311"/>
<polygon fill="none" stroke="#000000" points="942.6217,-405.0311 942.6217,-424.0311 977.6217,-424.0311 977.6217,-405.0311 942.6217,-405.0311"/>
<text text-anchor="start" x="959.027" y="-411.1311" font-family="Helvetica,sans-Serif" font-size="11.00" fill="#000000">5 &gt;</text>
</a>
</g>
</g>
<!-- file -->
<g id="node2" class="node">
<title>file</title>
<g id="a_node2"><a xlink:href="../../tables/file.html" xlink:title="file" target="_top">
<polygon fill="#ffffff" stroke="transparent" points="336.6217,-97.0311 336.6217,-429.0311 536.6217,-429.0311 536.6217,-97.0311 336.6217,-97.0311"/>
<polygon fill="#f5f5f5" stroke="transparent" points="338.6217,-404.0311 338.6217,-427.0311 534.6217,-427.0311 534.6217,-404.0311 338.6217,-404.0311"/>
<polygon fill="none" stroke="#000000" points="338.6217,-404.0311 338.6217,-427.0311 534.6217,-427.0311 534.6217,-404.0311 338.6217,-404.0311"/>
<text text-anchor="start" x="343.6217" y="-413.1311" font-family="Helvetica,sans-Serif" font-weight="bold" font-size="11.00" fill="#000000">file</text>
<text text-anchor="start" x="499.6654" y="-412.1311" font-family="Helvetica,sans-Serif" font-size="11.00" fill="#000000">[table]</text>
<polygon fill="none" stroke="#000000" points="338.6217,-382.0311 338.6217,-404.0311 461.6217,-404.0311 461.6217,-382.0311 338.6217,-382.0311"/>
<image xlink:href="../../images/primaryKeys.png" width="11px" height="12px" preserveAspectRatio="xMinYMin meet" x="343.622" y="-399.031"/>
<text text-anchor="start" x="358.6217" y="-389.1311" font-family="Helvetica,sans-Serif" font-size="11.00" fill="#000000">id</text>
<polygon fill="none" stroke="#000000" points="461.6217,-382.0311 461.6217,-404.0311 534.6217,-404.0311 534.6217,-382.0311 461.6217,-382.0311"/>
<text text-anchor="start" x="464.6217" y="-389.7311" font-family="Helvetica,sans-Serif" font-size="11.00" fill="#000000">bigint[19]</text>
<polygon fill="#ffffff" stroke="transparent" points="338.6217,-360.0311 338.6217,-382.0311 461.6217,-382.0311 461.6217,-360.0311 338.6217,-360.0311"/>
<polygon fill="none" stroke="#000000" points="338.6217,-360.0311 338.6217,-382.0311 461.6217,-382.0311 461.6217,-360.0311 338.6217,-360.0311"/>
<image xlink:href="../../images/foreignKeys.png" width="11px" height="12px" preserveAspectRatio="xMinYMin meet" x="343.622" y="-377.031"/>
<text text-anchor="start" x="358.6217" y="-367.1311" font-family="Helvetica,sans-Serif" font-size="11.00" fill="#000000">created_by</text>
<polygon fill="none" stroke="#000000" points="461.6217,-360.0311 461.6217,-382.0311 534.6217,-382.0311 534.6217,-360.0311 461.6217,-360.0311"/>
<text text-anchor="start" x="464.6217" y="-367.7311" font-family="Helvetica,sans-Serif" font-size="11.00" fill="#000000">bigint[19]</text>
<polygon fill="none" stroke="#000000" points="338.6217,-338.0311 338.6217,-360.0311 461.6217,-360.0311 461.6217,-338.0311 338.6217,-338.0311"/>
<text text-anchor="start" x="358.6217" y="-345.1311" font-family="Helvetica,sans-Serif" font-size="11.00" fill="#000000">creation_date</text>
<polygon fill="none" stroke="#000000" points="461.6217,-338.0311 461.6217,-360.0311 534.6217,-360.0311 534.6217,-338.0311 461.6217,-338.0311"/>
<text text-anchor="start" x="464.6217" y="-345.7311" font-family="Helvetica,sans-Serif" font-size="11.00" fill="#000000">datetime[26]</text>
<polygon fill="#ffffff" stroke="transparent" points="338.6217,-316.0311 338.6217,-338.0311 461.6217,-338.0311 461.6217,-316.0311 338.6217,-316.0311"/>
<polygon fill="none" stroke="#000000" points="338.6217,-316.0311 338.6217,-338.0311 461.6217,-338.0311 461.6217,-316.0311 338.6217,-316.0311"/>
<image xlink:href="../../images/foreignKeys.png" width="11px" height="12px" preserveAspectRatio="xMinYMin meet" x="343.622" y="-333.031"/>
<text text-anchor="start" x="358.6217" y="-323.1311" font-family="Helvetica,sans-Serif" font-size="11.00" fill="#000000">modified_by</text>
<polygon fill="none" stroke="#000000" points="461.6217,-316.0311 461.6217,-338.0311 534.6217,-338.0311 534.6217,-316.0311 461.6217,-316.0311"/>
<text text-anchor="start" x="464.6217" y="-323.7311" font-family="Helvetica,sans-Serif" font-size="11.00" fill="#000000">bigint[19]</text>
<polygon fill="none" stroke="#000000" points="338.6217,-294.0311 338.6217,-316.0311 461.6217,-316.0311 461.6217,-294.0311 338.6217,-294.0311"/>
<text text-anchor="start" x="358.6217" y="-301.1311" font-family="Helvetica,sans-Serif" font-size="11.00" fill="#000000">modification_date</text>
<polygon fill="none" stroke="#000000" points="461.6217,-294.0311 461.6217,-316.0311 534.6217,-316.0311 534.6217,-294.0311 461.6217,-294.0311"/>
<text text-anchor="start" x="464.6217" y="-301.7311" font-family="Helvetica,sans-Serif" font-size="11.00" fill="#000000">datetime[26]</text>
<polygon fill="none" stroke="#000000" points="338.6217,-272.0311 338.6217,-294.0311 461.6217,-294.0311 461.6217,-272.0311 338.6217,-272.0311"/>
<text text-anchor="start" x="358.6217" y="-279.1311" font-family="Helvetica,sans-Serif" font-size="11.00" fill="#000000">bytes</text>
<polygon fill="none" stroke="#000000" points="461.6217,-272.0311 461.6217,-294.0311 534.6217,-294.0311 534.6217,-272.0311 461.6217,-272.0311"/>
<text text-anchor="start" x="464.6217" y="-279.7311" font-family="Helvetica,sans-Serif" font-size="11.00" fill="#000000">bigint[19]</text>
<polygon fill="none" stroke="#000000" points="338.6217,-250.0311 338.6217,-272.0311 461.6217,-272.0311 461.6217,-250.0311 338.6217,-250.0311"/>
<text text-anchor="start" x="358.6217" y="-257.1311" font-family="Helvetica,sans-Serif" font-size="11.00" fill="#000000">content_type</text>
<polygon fill="none" stroke="#000000" points="461.6217,-250.0311 461.6217,-272.0311 534.6217,-272.0311 534.6217,-250.0311 461.6217,-250.0311"/>
<text text-anchor="start" x="464.6217" y="-257.7311" font-family="Helvetica,sans-Serif" font-size="11.00" fill="#000000">varchar[127]</text>
<polygon fill="none" stroke="#000000" points="338.6217,-228.0311 338.6217,-250.0311 461.6217,-250.0311 461.6217,-228.0311 338.6217,-228.0311"/>
<text text-anchor="start" x="358.6217" y="-235.1311" font-family="Helvetica,sans-Serif" font-size="11.00" fill="#000000">description</text>
<polygon fill="none" stroke="#000000" points="461.6217,-228.0311 461.6217,-250.0311 534.6217,-250.0311 534.6217,-228.0311 461.6217,-228.0311"/>
<text text-anchor="start" x="464.6217" y="-235.7311" font-family="Helvetica,sans-Serif" font-size="11.00" fill="#000000">varchar[255]</text>
<polygon fill="none" stroke="#000000" points="338.6217,-206.0311 338.6217,-228.0311 461.6217,-228.0311 461.6217,-206.0311 338.6217,-206.0311"/>
<text text-anchor="start" x="358.6217" y="-213.1311" font-family="Helvetica,sans-Serif" font-size="11.00" fill="#000000">name</text>
<polygon fill="none" stroke="#000000" points="461.6217,-206.0311 461.6217,-228.0311 534.6217,-228.0311 534.6217,-206.0311 461.6217,-206.0311"/>
<text text-anchor="start" x="464.5008" y="-213.7311" font-family="Helvetica,sans-Serif" font-size="11.00" fill="#000000">varchar[2000]</text>
<polygon fill="none" stroke="#000000" points="338.6217,-184.0311 338.6217,-206.0311 461.6217,-206.0311 461.6217,-184.0311 338.6217,-184.0311"/>
<text text-anchor="start" x="358.6217" y="-191.1311" font-family="Helvetica,sans-Serif" font-size="11.00" fill="#000000">s3file_key</text>
<polygon fill="none" stroke="#000000" points="461.6217,-184.0311 461.6217,-206.0311 534.6217,-206.0311 534.6217,-184.0311 461.6217,-184.0311"/>
<text text-anchor="start" x="464.5008" y="-191.7311" font-family="Helvetica,sans-Serif" font-size="11.00" fill="#000000">varchar[2000]</text>
<polygon fill="none" stroke="#000000" points="338.6217,-162.0311 338.6217,-184.0311 461.6217,-184.0311 461.6217,-162.0311 338.6217,-162.0311"/>
<text text-anchor="start" x="358.6217" y="-169.1311" font-family="Helvetica,sans-Serif" font-size="11.00" fill="#000000">type</text>
<polygon fill="none" stroke="#000000" points="461.6217,-162.0311 461.6217,-184.0311 534.6217,-184.0311 534.6217,-162.0311 461.6217,-162.0311"/>
<text text-anchor="start" x="464.6217" y="-169.7311" font-family="Helvetica,sans-Serif" font-size="11.00" fill="#000000">varchar[20]</text>
<polygon fill="none" stroke="#000000" points="338.6217,-140.0311 338.6217,-162.0311 461.6217,-162.0311 461.6217,-140.0311 338.6217,-140.0311"/>
<text text-anchor="start" x="358.6217" y="-147.1311" font-family="Helvetica,sans-Serif" font-size="11.00" fill="#000000">source</text>
<polygon fill="none" stroke="#000000" points="461.6217,-140.0311 461.6217,-162.0311 534.6217,-162.0311 534.6217,-140.0311 461.6217,-140.0311"/>
<text text-anchor="start" x="464.6217" y="-147.7311" font-family="Helvetica,sans-Serif" font-size="11.00" fill="#000000">varchar[50]</text>
<polygon fill="none" stroke="#000000" points="338.6217,-118.0311 338.6217,-140.0311 461.6217,-140.0311 461.6217,-118.0311 338.6217,-118.0311"/>
<text text-anchor="start" x="358.6217" y="-125.1311" font-family="Helvetica,sans-Serif" font-size="11.00" fill="#000000">bucket</text>
<polygon fill="none" stroke="#000000" points="461.6217,-118.0311 461.6217,-140.0311 534.6217,-140.0311 534.6217,-118.0311 461.6217,-118.0311"/>
<text text-anchor="start" x="464.6217" y="-125.7311" font-family="Helvetica,sans-Serif" font-size="11.00" fill="#000000">varchar[20]</text>
<polygon fill="#ffffff" stroke="transparent" points="338.6217,-99.0311 338.6217,-118.0311 385.6217,-118.0311 385.6217,-99.0311 338.6217,-99.0311"/>
<polygon fill="none" stroke="#000000" points="338.6217,-99.0311 338.6217,-118.0311 385.6217,-118.0311 385.6217,-99.0311 338.6217,-99.0311"/>
<text text-anchor="start" x="341.6217" y="-105.1311" font-family="Helvetica,sans-Serif" font-size="11.00" fill="#000000">&lt; 2</text>
<polygon fill="#ffffff" stroke="transparent" points="385.6217,-99.0311 385.6217,-118.0311 461.6217,-118.0311 461.6217,-99.0311 385.6217,-99.0311"/>
<polygon fill="none" stroke="#000000" points="385.6217,-99.0311 385.6217,-118.0311 461.6217,-118.0311 461.6217,-99.0311 385.6217,-99.0311"/>
<text text-anchor="start" x="414.0024" y="-105.1311" font-family="Helvetica,sans-Serif" font-size="11.00" fill="#000000">590 rows</text>
<polygon fill="#ffffff" stroke="transparent" points="461.6217,-99.0311 461.6217,-118.0311 534.6217,-118.0311 534.6217,-99.0311 461.6217,-99.0311"/>
<polygon fill="none" stroke="#000000" points="461.6217,-99.0311 461.6217,-118.0311 534.6217,-118.0311 534.6217,-99.0311 461.6217,-99.0311"/>
<text text-anchor="start" x="509.9121" y="-105.1311" font-family="Helvetica,sans-Serif" font-size="11.00" fill="#000000">13 &gt;</text>
<polygon fill="none" stroke="#000000" stroke-width="2" points="337.6217,-98.0311 337.6217,-428.0311 535.6217,-428.0311 535.6217,-98.0311 337.6217,-98.0311"/>
</a>
</g>
</g>
<!-- applicant&#45;&gt;file -->
<g id="edge1" class="edge">
<title>applicant:w&#45;&gt;file:e</title>
<path fill="none" stroke="#000000" d="M823.2496,-495.8022C782.5411,-480.3808 844.1356,-389.0649 794.6217,-352.0311 756.006,-323.1485 622.3897,-334.1088 577.6217,-352.0311 553.1071,-361.8452 561.0279,-393.0311 534.6217,-393.0311"/>
<polygon fill="#000000" stroke="#000000" points="829.7162,-496.805 837.07,-501.5886 833.669,-497.418 837.6217,-498.0311 837.6217,-498.0311 837.6217,-498.0311 833.669,-497.418 838.1735,-494.4736 829.7162,-496.805 829.7162,-496.805"/>
<ellipse fill="none" stroke="#000000" cx="826.554" cy="-496.3146" rx="3.2" ry="3.2"/>
</g>
<!-- supplier -->
<g id="node3" class="node">
<title>supplier</title>
<g id="a_node3"><a xlink:href="../../tables/supplier.html" xlink:title="supplier" target="_top">
<polygon fill="#ffffff" stroke="transparent" points="608.6217,-577.5311 608.6217,-748.5311 763.6217,-748.5311 763.6217,-577.5311 608.6217,-577.5311"/>
<polygon fill="#f5f5f5" stroke="transparent" points="609.1217,-725.0311 609.1217,-748.0311 764.1217,-748.0311 764.1217,-725.0311 609.1217,-725.0311"/>
<polygon fill="none" stroke="#000000" points="609.1217,-725.0311 609.1217,-748.0311 764.1217,-748.0311 764.1217,-725.0311 609.1217,-725.0311"/>
<text text-anchor="start" x="614.1217" y="-734.1311" font-family="Helvetica,sans-Serif" font-weight="bold" font-size="11.00" fill="#000000">supplier</text>
<text text-anchor="start" x="729.1654" y="-733.1311" font-family="Helvetica,sans-Serif" font-size="11.00" fill="#000000">[table]</text>
<polygon fill="none" stroke="#000000" points="609.1217,-703.0311 609.1217,-725.0311 764.1217,-725.0311 764.1217,-703.0311 609.1217,-703.0311"/>
<image xlink:href="../../images/primaryKeys.png" width="11px" height="12px" preserveAspectRatio="xMinYMin meet" x="614.122" y="-720.031"/>
<text text-anchor="start" x="629.1217" y="-710.1311" font-family="Helvetica,sans-Serif" font-size="11.00" fill="#000000">id</text>
<polygon fill="#ffffff" stroke="transparent" points="609.1217,-681.0311 609.1217,-703.0311 764.1217,-703.0311 764.1217,-681.0311 609.1217,-681.0311"/>
<polygon fill="none" stroke="#000000" points="609.1217,-681.0311 609.1217,-703.0311 764.1217,-703.0311 764.1217,-681.0311 609.1217,-681.0311"/>
<image xlink:href="../../images/foreignKeys.png" width="11px" height="12px" preserveAspectRatio="xMinYMin meet" x="614.122" y="-698.031"/>
<text text-anchor="start" x="629.1217" y="-688.1311" font-family="Helvetica,sans-Serif" font-size="11.00" fill="#000000">created_by</text>
<polygon fill="#ffffff" stroke="transparent" points="609.1217,-659.0311 609.1217,-681.0311 764.1217,-681.0311 764.1217,-659.0311 609.1217,-659.0311"/>
<polygon fill="none" stroke="#000000" points="609.1217,-659.0311 609.1217,-681.0311 764.1217,-681.0311 764.1217,-659.0311 609.1217,-659.0311"/>
<image xlink:href="../../images/foreignKeys.png" width="11px" height="12px" preserveAspectRatio="xMinYMin meet" x="614.122" y="-676.031"/>
<text text-anchor="start" x="629.1217" y="-666.1311" font-family="Helvetica,sans-Serif" font-size="11.00" fill="#000000">modified_by</text>
<polygon fill="#ffffff" stroke="transparent" points="609.1217,-637.0311 609.1217,-659.0311 764.1217,-659.0311 764.1217,-637.0311 609.1217,-637.0311"/>
<polygon fill="none" stroke="#000000" points="609.1217,-637.0311 609.1217,-659.0311 764.1217,-659.0311 764.1217,-637.0311 609.1217,-637.0311"/>
<text text-anchor="start" x="629.1217" y="-644.1311" font-family="Helvetica,sans-Serif" font-size="11.00" fill="#000000">marketplace_id</text>
<polygon fill="#ffffff" stroke="transparent" points="609.1217,-615.0311 609.1217,-637.0311 764.1217,-637.0311 764.1217,-615.0311 609.1217,-615.0311"/>
<polygon fill="none" stroke="#000000" points="609.1217,-615.0311 609.1217,-637.0311 764.1217,-637.0311 764.1217,-615.0311 609.1217,-615.0311"/>
<image xlink:href="../../images/foreignKeys.png" width="11px" height="12px" preserveAspectRatio="xMinYMin meet" x="614.122" y="-632.031"/>
<text text-anchor="start" x="629.1217" y="-622.1311" font-family="Helvetica,sans-Serif" font-size="11.00" fill="#000000">logo_id</text>
<polygon fill="none" stroke="#000000" points="609.1217,-596.0311 609.1217,-615.0311 764.1217,-615.0311 764.1217,-596.0311 609.1217,-596.0311"/>
<text text-anchor="start" x="612.1217" y="-602.1311" font-family="Helvetica,sans-Serif" font-size="11.00" fill="#000000">...</text>
<polygon fill="#ffffff" stroke="transparent" points="609.1217,-577.0311 609.1217,-596.0311 661.1217,-596.0311 661.1217,-577.0311 609.1217,-577.0311"/>
<polygon fill="none" stroke="#000000" points="609.1217,-577.0311 609.1217,-596.0311 661.1217,-596.0311 661.1217,-577.0311 609.1217,-577.0311"/>
<text text-anchor="start" x="612.1217" y="-583.1311" font-family="Helvetica,sans-Serif" font-size="11.00" fill="#000000">&lt; 3</text>
<polygon fill="#ffffff" stroke="transparent" points="661.1217,-577.0311 661.1217,-596.0311 727.1217,-596.0311 727.1217,-577.0311 661.1217,-577.0311"/>
<polygon fill="none" stroke="#000000" points="661.1217,-577.0311 661.1217,-596.0311 727.1217,-596.0311 727.1217,-577.0311 661.1217,-577.0311"/>
<text text-anchor="start" x="679.5024" y="-583.1311" font-family="Helvetica,sans-Serif" font-size="11.00" fill="#000000">201 rows</text>
<polygon fill="#ffffff" stroke="transparent" points="727.1217,-577.0311 727.1217,-596.0311 764.1217,-596.0311 764.1217,-577.0311 727.1217,-577.0311"/>
<polygon fill="none" stroke="#000000" points="727.1217,-577.0311 727.1217,-596.0311 764.1217,-596.0311 764.1217,-577.0311 727.1217,-577.0311"/>
<text text-anchor="start" x="745.527" y="-583.1311" font-family="Helvetica,sans-Serif" font-size="11.00" fill="#000000">4 &gt;</text>
</a>
</g>
</g>
<!-- applicant&#45;&gt;supplier -->
<g id="edge2" class="edge">
<title>applicant:w&#45;&gt;supplier:e</title>
<path fill="none" stroke="#000000" d="M824.1165,-459.7034C784.9446,-497.7258 818.8867,-714.0311 764.1217,-714.0311"/>
<polygon fill="#000000" stroke="#000000" points="830.2459,-457.129 839.0158,-457.3502 833.9338,-455.5801 837.6217,-454.0311 837.6217,-454.0311 837.6217,-454.0311 833.9338,-455.5801 836.2277,-450.712 830.2459,-457.129 830.2459,-457.129"/>
<ellipse fill="none" stroke="#000000" cx="827.2956" cy="-458.3682" rx="3.2" ry="3.2"/>
</g>
<!-- principal -->
<g id="node7" class="node">
<title>principal</title>
<g id="a_node7"><a xlink:href="../../tables/principal.html" xlink:title="principal" target="_top">
<polygon fill="#ffffff" stroke="transparent" points="195.6217,-762.5311 195.6217,-867.5311 287.6217,-867.5311 287.6217,-762.5311 195.6217,-762.5311"/>
<polygon fill="#f5f5f5" stroke="transparent" points="195.6217,-844.0311 195.6217,-867.0311 287.6217,-867.0311 287.6217,-844.0311 195.6217,-844.0311"/>
<polygon fill="none" stroke="#000000" points="195.6217,-844.0311 195.6217,-867.0311 287.6217,-867.0311 287.6217,-844.0311 195.6217,-844.0311"/>
<text text-anchor="start" x="200.6217" y="-853.1311" font-family="Helvetica,sans-Serif" font-weight="bold" font-size="11.00" fill="#000000">principal</text>
<text text-anchor="start" x="252.6654" y="-852.1311" font-family="Helvetica,sans-Serif" font-size="11.00" fill="#000000">[table]</text>
<polygon fill="none" stroke="#000000" points="195.6217,-822.0311 195.6217,-844.0311 287.6217,-844.0311 287.6217,-822.0311 195.6217,-822.0311"/>
<image xlink:href="../../images/primaryKeys.png" width="11px" height="12px" preserveAspectRatio="xMinYMin meet" x="200.622" y="-839.031"/>
<text text-anchor="start" x="219.6217" y="-829.1311" font-family="Helvetica,sans-Serif" font-size="11.00" fill="#000000">id</text>
<polygon fill="#ffffff" stroke="transparent" points="195.6217,-800.0311 195.6217,-822.0311 287.6217,-822.0311 287.6217,-800.0311 195.6217,-800.0311"/>
<polygon fill="none" stroke="#000000" points="195.6217,-800.0311 195.6217,-822.0311 287.6217,-822.0311 287.6217,-800.0311 195.6217,-800.0311"/>
<image xlink:href="../../images/foreignKeys.png" width="11px" height="12px" preserveAspectRatio="xMinYMin meet" x="200.622" y="-817.031"/>
<text text-anchor="start" x="219.6217" y="-807.1311" font-family="Helvetica,sans-Serif" font-size="11.00" fill="#000000">eworker_id</text>
<polygon fill="none" stroke="#000000" points="195.6217,-781.0311 195.6217,-800.0311 287.6217,-800.0311 287.6217,-781.0311 195.6217,-781.0311"/>
<text text-anchor="start" x="198.6217" y="-787.1311" font-family="Helvetica,sans-Serif" font-size="11.00" fill="#000000">...</text>
<polygon fill="#ffffff" stroke="transparent" points="195.6217,-762.0311 195.6217,-781.0311 216.6217,-781.0311 216.6217,-762.0311 195.6217,-762.0311"/>
<polygon fill="none" stroke="#000000" points="195.6217,-762.0311 195.6217,-781.0311 216.6217,-781.0311 216.6217,-762.0311 195.6217,-762.0311"/>
<text text-anchor="start" x="198.3244" y="-768.1311" font-family="Helvetica,sans-Serif" font-size="11.00" fill="#000000">&lt; 1</text>
<polygon fill="#ffffff" stroke="transparent" points="216.6217,-762.0311 216.6217,-781.0311 260.6217,-781.0311 260.6217,-762.0311 216.6217,-762.0311"/>
<polygon fill="none" stroke="#000000" points="216.6217,-762.0311 216.6217,-781.0311 260.6217,-781.0311 260.6217,-762.0311 216.6217,-762.0311"/>
<text text-anchor="start" x="219.3695" y="-768.1311" font-family="Helvetica,sans-Serif" font-size="11.00" fill="#000000">18 rows</text>
<polygon fill="#ffffff" stroke="transparent" points="260.6217,-762.0311 260.6217,-781.0311 287.6217,-781.0311 287.6217,-762.0311 260.6217,-762.0311"/>
<polygon fill="none" stroke="#000000" points="260.6217,-762.0311 260.6217,-781.0311 287.6217,-781.0311 287.6217,-762.0311 260.6217,-762.0311"/>
<text text-anchor="start" x="263.2669" y="-768.1311" font-family="Helvetica,sans-Serif" font-size="11.00" fill="#000000">56 &gt;</text>
</a>
</g>
</g>
<!-- file&#45;&gt;principal -->
<g id="edge18" class="edge">
<title>file:w&#45;&gt;principal:e</title>
<path fill="none" stroke="#000000" d="M324.3647,-374.7499C251.0204,-418.4729 385.4651,-833.0311 287.6217,-833.0311"/>
<polygon fill="#000000" stroke="#000000" points="330.8807,-373.0503 339.5304,-374.5145 334.7512,-372.0407 338.6217,-371.0311 338.6217,-371.0311 338.6217,-371.0311 334.7512,-372.0407 337.7131,-367.5476 330.8807,-373.0503 330.8807,-373.0503"/>
<ellipse fill="none" stroke="#000000" cx="327.7843" cy="-373.858" rx="3.2" ry="3.2"/>
</g>
<!-- file&#45;&gt;principal -->
<g id="edge19" class="edge">
<title>file:w&#45;&gt;principal:e</title>
<path fill="none" stroke="#000000" d="M324.5685,-330.2623C241.3836,-373.3568 395.3383,-833.0311 287.6217,-833.0311"/>
<polygon fill="#000000" stroke="#000000" points="330.8252,-328.8238 339.4284,-330.5395 334.7235,-327.9274 338.6217,-327.0311 338.6217,-327.0311 338.6217,-327.0311 334.7235,-327.9274 337.815,-323.5226 330.8252,-328.8238 330.8252,-328.8238"/>
<ellipse fill="none" stroke="#000000" cx="327.7065" cy="-329.5408" rx="3.2" ry="3.2"/>
</g>
<!-- supplier&#45;&gt;file -->
<g id="edge34" class="edge">
<title>supplier:w&#45;&gt;file:e</title>
<path fill="none" stroke="#000000" d="M594.9179,-622.1862C582.271,-613.0043 586.0233,-588.93 577.6217,-567.0311 549.0879,-492.657 614.2815,-393.0311 534.6217,-393.0311"/>
<polygon fill="#000000" stroke="#000000" points="601.3997,-623.9407 608.1811,-629.506 605.2607,-624.9859 609.1217,-626.0311 609.1217,-626.0311 609.1217,-626.0311 605.2607,-624.9859 610.0624,-622.5561 601.3997,-623.9407 601.3997,-623.9407"/>
<ellipse fill="none" stroke="#000000" cx="598.3108" cy="-623.1046" rx="3.2" ry="3.2"/>
</g>
<!-- supplier&#45;&gt;principal -->
<g id="edge33" class="edge">
<title>supplier:w&#45;&gt;principal:e</title>
<path fill="none" stroke="#000000" d="M594.3405,-692.875C521.8419,-700.4143 380.3223,-756.6982 328.6217,-790.0311 306.4284,-804.3398 314.0279,-833.0311 287.6217,-833.0311"/>
<polygon fill="#000000" stroke="#000000" points="601.1347,-692.4872 609.327,-695.6252 605.1282,-692.2591 609.1217,-692.0311 609.1217,-692.0311 609.1217,-692.0311 605.1282,-692.2591 608.9165,-688.4369 601.1347,-692.4872 601.1347,-692.4872"/>
<ellipse fill="none" stroke="#000000" cx="597.9399" cy="-692.6696" rx="3.2" ry="3.2"/>
</g>
<!-- supplier&#45;&gt;principal -->
<g id="edge35" class="edge">
<title>supplier:w&#45;&gt;principal:e</title>
<path fill="none" stroke="#000000" d="M594.3773,-669.8034C479.0093,-666.2566 421.5116,-623.4972 328.6217,-700.0311 280.8824,-739.3646 349.4778,-833.0311 287.6217,-833.0311"/>
<polygon fill="#000000" stroke="#000000" points="601.1227,-669.9075 609.0661,-673.6307 605.1222,-669.9693 609.1217,-670.0311 609.1217,-670.0311 609.1217,-670.0311 605.1222,-669.9693 609.1773,-666.4315 601.1227,-669.9075 601.1227,-669.9075"/>
<ellipse fill="none" stroke="#000000" cx="597.9231" cy="-669.8581" rx="3.2" ry="3.2"/>
</g>
<!-- applicant_document -->
<g id="node4" class="node">
<title>applicant_document</title>
<g id="a_node4"><a xlink:href="../../tables/applicant_document.html" xlink:title="applicant_document" target="_top">
<polygon fill="#ffffff" stroke="transparent" points="1037.6217,-297.0311 1037.6217,-383.0311 1178.6217,-383.0311 1178.6217,-297.0311 1037.6217,-297.0311"/>
<polygon fill="#f5f5f5" stroke="transparent" points="1038.1217,-360.0311 1038.1217,-383.0311 1179.1217,-383.0311 1179.1217,-360.0311 1038.1217,-360.0311"/>
<polygon fill="none" stroke="#000000" points="1038.1217,-360.0311 1038.1217,-383.0311 1179.1217,-383.0311 1179.1217,-360.0311 1038.1217,-360.0311"/>
<text text-anchor="start" x="1042.911" y="-369.1311" font-family="Helvetica,sans-Serif" font-weight="bold" font-size="11.00" fill="#000000">applicant_document</text>
<text text-anchor="start" x="1144.6436" y="-368.1311" font-family="Helvetica,sans-Serif" font-size="11.00" fill="#000000">[table]</text>
<polygon fill="#ffffff" stroke="transparent" points="1038.1217,-338.0311 1038.1217,-360.0311 1179.1217,-360.0311 1179.1217,-338.0311 1038.1217,-338.0311"/>
<polygon fill="none" stroke="#000000" points="1038.1217,-338.0311 1038.1217,-360.0311 1179.1217,-360.0311 1179.1217,-338.0311 1038.1217,-338.0311"/>
<image xlink:href="../../images/foreignKeys.png" width="11px" height="12px" preserveAspectRatio="xMinYMin meet" x="1043.12" y="-355.031"/>
<text text-anchor="start" x="1060.1217" y="-345.1311" font-family="Helvetica,sans-Serif" font-size="11.00" fill="#000000">applicant_id</text>
<polygon fill="#ffffff" stroke="transparent" points="1038.1217,-316.0311 1038.1217,-338.0311 1179.1217,-338.0311 1179.1217,-316.0311 1038.1217,-316.0311"/>
<polygon fill="none" stroke="#000000" points="1038.1217,-316.0311 1038.1217,-338.0311 1179.1217,-338.0311 1179.1217,-316.0311 1038.1217,-316.0311"/>
<image xlink:href="../../images/foreignKeys.png" width="11px" height="12px" preserveAspectRatio="xMinYMin meet" x="1043.12" y="-333.031"/>
<text text-anchor="start" x="1060.1217" y="-323.1311" font-family="Helvetica,sans-Serif" font-size="11.00" fill="#000000">file_id</text>
<polygon fill="#ffffff" stroke="transparent" points="1038.1217,-297.0311 1038.1217,-316.0311 1091.1217,-316.0311 1091.1217,-297.0311 1038.1217,-297.0311"/>
<polygon fill="none" stroke="#000000" points="1038.1217,-297.0311 1038.1217,-316.0311 1091.1217,-316.0311 1091.1217,-297.0311 1038.1217,-297.0311"/>
<text text-anchor="start" x="1041.1217" y="-303.1311" font-family="Helvetica,sans-Serif" font-size="11.00" fill="#000000">&lt; 2</text>
<polygon fill="#ffffff" stroke="transparent" points="1091.1217,-297.0311 1091.1217,-316.0311 1151.1217,-316.0311 1151.1217,-297.0311 1091.1217,-297.0311"/>
<polygon fill="none" stroke="#000000" points="1091.1217,-297.0311 1091.1217,-316.0311 1151.1217,-316.0311 1151.1217,-297.0311 1091.1217,-297.0311"/>
<text text-anchor="start" x="1109.6173" y="-303.1311" font-family="Helvetica,sans-Serif" font-size="11.00" fill="#000000">91 rows</text>
<polygon fill="#ffffff" stroke="transparent" points="1151.1217,-297.0311 1151.1217,-316.0311 1179.1217,-316.0311 1179.1217,-297.0311 1151.1217,-297.0311"/>
<polygon fill="none" stroke="#000000" points="1151.1217,-297.0311 1151.1217,-316.0311 1179.1217,-316.0311 1179.1217,-297.0311 1151.1217,-297.0311"/>
<text text-anchor="start" x="1170.0079" y="-303.1311" font-family="Helvetica,sans-Serif" font-size="11.00" fill="#000000"> &#160;</text>
</a>
</g>
</g>
<!-- applicant_document&#45;&gt;applicant -->
<g id="edge3" class="edge">
<title>applicant_document:w&#45;&gt;applicant:e</title>
<path fill="none" stroke="#000000" d="M1023.5457,-350.8025C944.663,-372.4902 1080.8124,-586.0311 977.6217,-586.0311"/>
<polygon fill="#000000" stroke="#000000" points="1030.1802,-349.9963 1038.5561,-352.6048 1034.151,-349.5137 1038.1217,-349.0311 1038.1217,-349.0311 1038.1217,-349.0311 1034.151,-349.5137 1037.6874,-345.4574 1030.1802,-349.9963 1030.1802,-349.9963"/>
<ellipse fill="none" stroke="#000000" cx="1027.0035" cy="-350.3823" rx="3.2" ry="3.2"/>
</g>
<!-- applicant_document&#45;&gt;file -->
<g id="edge4" class="edge">
<title>applicant_document:w&#45;&gt;file:e</title>
<path fill="none" stroke="#000000" d="M1023.8545,-324.2748C1011.2951,-318.7333 1006.2919,-306.3994 987.6217,-302.0311 898.9066,-281.274 654.5886,-253.2731 577.6217,-302.0311 539.8337,-325.9696 579.3541,-393.0311 534.6217,-393.0311"/>
<polygon fill="#000000" stroke="#000000" points="1030.267,-325.5136 1037.4389,-330.5657 1034.1944,-326.2723 1038.1217,-327.0311 1038.1217,-327.0311 1038.1217,-327.0311 1034.1944,-326.2723 1038.8046,-323.4964 1030.267,-325.5136 1030.267,-325.5136"/>
<ellipse fill="none" stroke="#000000" cx="1027.1251" cy="-324.9066" rx="3.2" ry="3.2"/>
</g>
<!-- client -->
<g id="node5" class="node">
<title>client</title>
<g id="a_node5"><a xlink:href="../../tables/client.html" xlink:title="client" target="_top">
<polygon fill="#ffffff" stroke="transparent" points="585.6217,-878.5311 585.6217,-1247.5311 786.6217,-1247.5311 786.6217,-878.5311 585.6217,-878.5311"/>
<polygon fill="#f5f5f5" stroke="transparent" points="586.1217,-1224.0311 586.1217,-1247.0311 787.1217,-1247.0311 787.1217,-1224.0311 586.1217,-1224.0311"/>
<polygon fill="none" stroke="#000000" points="586.1217,-1224.0311 586.1217,-1247.0311 787.1217,-1247.0311 787.1217,-1224.0311 586.1217,-1224.0311"/>
<text text-anchor="start" x="591.1217" y="-1233.1311" font-family="Helvetica,sans-Serif" font-weight="bold" font-size="11.00" fill="#000000">client</text>
<text text-anchor="start" x="752.1654" y="-1232.1311" font-family="Helvetica,sans-Serif" font-size="11.00" fill="#000000">[table]</text>
<polygon fill="none" stroke="#000000" points="586.1217,-1202.0311 586.1217,-1224.0311 787.1217,-1224.0311 787.1217,-1202.0311 586.1217,-1202.0311"/>
<image xlink:href="../../images/primaryKeys.png" width="11px" height="12px" preserveAspectRatio="xMinYMin meet" x="591.122" y="-1219.03"/>
<text text-anchor="start" x="606.1217" y="-1209.1311" font-family="Helvetica,sans-Serif" font-size="11.00" fill="#000000">id</text>
<polygon fill="#ffffff" stroke="transparent" points="586.1217,-1180.0311 586.1217,-1202.0311 787.1217,-1202.0311 787.1217,-1180.0311 586.1217,-1180.0311"/>
<polygon fill="none" stroke="#000000" points="586.1217,-1180.0311 586.1217,-1202.0311 787.1217,-1202.0311 787.1217,-1180.0311 586.1217,-1180.0311"/>
<image xlink:href="../../images/foreignKeys.png" width="11px" height="12px" preserveAspectRatio="xMinYMin meet" x="591.122" y="-1197.03"/>
<text text-anchor="start" x="606.1217" y="-1187.1311" font-family="Helvetica,sans-Serif" font-size="11.00" fill="#000000">created_by</text>
<polygon fill="#ffffff" stroke="transparent" points="586.1217,-1158.0311 586.1217,-1180.0311 787.1217,-1180.0311 787.1217,-1158.0311 586.1217,-1158.0311"/>
<polygon fill="none" stroke="#000000" points="586.1217,-1158.0311 586.1217,-1180.0311 787.1217,-1180.0311 787.1217,-1158.0311 586.1217,-1158.0311"/>
<image xlink:href="../../images/foreignKeys.png" width="11px" height="12px" preserveAspectRatio="xMinYMin meet" x="591.122" y="-1175.03"/>
<text text-anchor="start" x="606.1217" y="-1165.1311" font-family="Helvetica,sans-Serif" font-size="11.00" fill="#000000">modified_by</text>
<polygon fill="#ffffff" stroke="transparent" points="586.1217,-1136.0311 586.1217,-1158.0311 787.1217,-1158.0311 787.1217,-1136.0311 586.1217,-1136.0311"/>
<polygon fill="none" stroke="#000000" points="586.1217,-1136.0311 586.1217,-1158.0311 787.1217,-1158.0311 787.1217,-1136.0311 586.1217,-1136.0311"/>
<text text-anchor="start" x="606.1217" y="-1143.1311" font-family="Helvetica,sans-Serif" font-size="11.00" fill="#000000">marketplace_id</text>
<polygon fill="#ffffff" stroke="transparent" points="586.1217,-1114.0311 586.1217,-1136.0311 787.1217,-1136.0311 787.1217,-1114.0311 586.1217,-1114.0311"/>
<polygon fill="none" stroke="#000000" points="586.1217,-1114.0311 586.1217,-1136.0311 787.1217,-1136.0311 787.1217,-1114.0311 586.1217,-1114.0311"/>
<text text-anchor="start" x="606.1217" y="-1121.1311" font-family="Helvetica,sans-Serif" font-size="11.00" fill="#000000">name</text>
<polygon fill="#ffffff" stroke="transparent" points="586.1217,-1092.0311 586.1217,-1114.0311 787.1217,-1114.0311 787.1217,-1092.0311 586.1217,-1092.0311"/>
<polygon fill="none" stroke="#000000" points="586.1217,-1092.0311 586.1217,-1114.0311 787.1217,-1114.0311 787.1217,-1092.0311 586.1217,-1092.0311"/>
<text text-anchor="start" x="606.1217" y="-1099.1311" font-family="Helvetica,sans-Serif" font-size="11.00" fill="#000000">organizational_number</text>
<polygon fill="#ffffff" stroke="transparent" points="586.1217,-1070.0311 586.1217,-1092.0311 787.1217,-1092.0311 787.1217,-1070.0311 586.1217,-1070.0311"/>
<polygon fill="none" stroke="#000000" points="586.1217,-1070.0311 586.1217,-1092.0311 787.1217,-1092.0311 787.1217,-1070.0311 586.1217,-1070.0311"/>
<text text-anchor="start" x="606.1217" y="-1077.1311" font-family="Helvetica,sans-Serif" font-size="11.00" fill="#000000">vat_number</text>
<polygon fill="#ffffff" stroke="transparent" points="586.1217,-1048.0311 586.1217,-1070.0311 787.1217,-1070.0311 787.1217,-1048.0311 586.1217,-1048.0311"/>
<polygon fill="none" stroke="#000000" points="586.1217,-1048.0311 586.1217,-1070.0311 787.1217,-1070.0311 787.1217,-1048.0311 586.1217,-1048.0311"/>
<image xlink:href="../../images/foreignKeys.png" width="11px" height="12px" preserveAspectRatio="xMinYMin meet" x="591.122" y="-1065.03"/>
<text text-anchor="start" x="606.1217" y="-1055.1311" font-family="Helvetica,sans-Serif" font-size="11.00" fill="#000000">client_group_id</text>
<polygon fill="#ffffff" stroke="transparent" points="586.1217,-1026.0311 586.1217,-1048.0311 787.1217,-1048.0311 787.1217,-1026.0311 586.1217,-1026.0311"/>
<polygon fill="none" stroke="#000000" points="586.1217,-1026.0311 586.1217,-1048.0311 787.1217,-1048.0311 787.1217,-1026.0311 586.1217,-1026.0311"/>
<image xlink:href="../../images/foreignKeys.png" width="11px" height="12px" preserveAspectRatio="xMinYMin meet" x="591.122" y="-1043.03"/>
<text text-anchor="start" x="606.1217" y="-1033.1311" font-family="Helvetica,sans-Serif" font-size="11.00" fill="#000000">client_operations_developer_id</text>
<polygon fill="#ffffff" stroke="transparent" points="586.1217,-1004.0311 586.1217,-1026.0311 787.1217,-1026.0311 787.1217,-1004.0311 586.1217,-1004.0311"/>
<polygon fill="none" stroke="#000000" points="586.1217,-1004.0311 586.1217,-1026.0311 787.1217,-1026.0311 787.1217,-1004.0311 586.1217,-1004.0311"/>
<image xlink:href="../../images/foreignKeys.png" width="11px" height="12px" preserveAspectRatio="xMinYMin meet" x="591.122" y="-1021.03"/>
<text text-anchor="start" x="606.1217" y="-1011.1311" font-family="Helvetica,sans-Serif" font-size="11.00" fill="#000000">responsible_bo_partner_id</text>
<polygon fill="#ffffff" stroke="transparent" points="586.1217,-982.0311 586.1217,-1004.0311 787.1217,-1004.0311 787.1217,-982.0311 586.1217,-982.0311"/>
<polygon fill="none" stroke="#000000" points="586.1217,-982.0311 586.1217,-1004.0311 787.1217,-1004.0311 787.1217,-982.0311 586.1217,-982.0311"/>
<image xlink:href="../../images/foreignKeys.png" width="11px" height="12px" preserveAspectRatio="xMinYMin meet" x="591.122" y="-999.031"/>
<text text-anchor="start" x="606.1217" y="-989.1311" font-family="Helvetica,sans-Serif" font-size="11.00" fill="#000000">client_responsible_id</text>
<polygon fill="#ffffff" stroke="transparent" points="586.1217,-960.0311 586.1217,-982.0311 787.1217,-982.0311 787.1217,-960.0311 586.1217,-960.0311"/>
<polygon fill="none" stroke="#000000" points="586.1217,-960.0311 586.1217,-982.0311 787.1217,-982.0311 787.1217,-960.0311 586.1217,-960.0311"/>
<image xlink:href="../../images/foreignKeys.png" width="11px" height="12px" preserveAspectRatio="xMinYMin meet" x="591.122" y="-977.031"/>
<text text-anchor="start" x="606.1217" y="-967.1311" font-family="Helvetica,sans-Serif" font-size="11.00" fill="#000000">responsible_bo_team_id</text>
<polygon fill="#ffffff" stroke="transparent" points="586.1217,-938.0311 586.1217,-960.0311 787.1217,-960.0311 787.1217,-938.0311 586.1217,-938.0311"/>
<polygon fill="none" stroke="#000000" points="586.1217,-938.0311 586.1217,-960.0311 787.1217,-960.0311 787.1217,-938.0311 586.1217,-938.0311"/>
<image xlink:href="../../images/foreignKeys.png" width="11px" height="12px" preserveAspectRatio="xMinYMin meet" x="591.122" y="-955.031"/>
<text text-anchor="start" x="606.1217" y="-945.1311" font-family="Helvetica,sans-Serif" font-size="11.00" fill="#000000">responsible_co_team_id</text>
<polygon fill="#ffffff" stroke="transparent" points="586.1217,-916.0311 586.1217,-938.0311 787.1217,-938.0311 787.1217,-916.0311 586.1217,-916.0311"/>
<polygon fill="none" stroke="#000000" points="586.1217,-916.0311 586.1217,-938.0311 787.1217,-938.0311 787.1217,-916.0311 586.1217,-916.0311"/>
<image xlink:href="../../images/foreignKeys.png" width="11px" height="12px" preserveAspectRatio="xMinYMin meet" x="591.122" y="-933.031"/>
<text text-anchor="start" x="606.1217" y="-923.1311" font-family="Helvetica,sans-Serif" font-size="11.00" fill="#000000">avatar_id</text>
<polygon fill="none" stroke="#000000" points="586.1217,-897.0311 586.1217,-916.0311 787.1217,-916.0311 787.1217,-897.0311 586.1217,-897.0311"/>
<text text-anchor="start" x="589.1217" y="-903.1311" font-family="Helvetica,sans-Serif" font-size="11.00" fill="#000000">...</text>
<polygon fill="#ffffff" stroke="transparent" points="586.1217,-878.0311 586.1217,-897.0311 661.1217,-897.0311 661.1217,-878.0311 586.1217,-878.0311"/>
<polygon fill="none" stroke="#000000" points="586.1217,-878.0311 586.1217,-897.0311 661.1217,-897.0311 661.1217,-878.0311 586.1217,-878.0311"/>
<text text-anchor="start" x="589.1217" y="-884.1311" font-family="Helvetica,sans-Serif" font-size="11.00" fill="#000000">&lt; 9</text>
<polygon fill="#ffffff" stroke="transparent" points="661.1217,-878.0311 661.1217,-897.0311 738.1217,-897.0311 738.1217,-878.0311 661.1217,-878.0311"/>
<polygon fill="none" stroke="#000000" points="661.1217,-878.0311 661.1217,-897.0311 738.1217,-897.0311 738.1217,-878.0311 661.1217,-878.0311"/>
<text text-anchor="start" x="690.5024" y="-884.1311" font-family="Helvetica,sans-Serif" font-size="11.00" fill="#000000">647 rows</text>
<polygon fill="#ffffff" stroke="transparent" points="738.1217,-878.0311 738.1217,-897.0311 787.1217,-897.0311 787.1217,-878.0311 738.1217,-878.0311"/>
<polygon fill="none" stroke="#000000" points="738.1217,-878.0311 738.1217,-897.0311 787.1217,-897.0311 787.1217,-878.0311 738.1217,-878.0311"/>
<text text-anchor="start" x="768.527" y="-884.1311" font-family="Helvetica,sans-Serif" font-size="11.00" fill="#000000">7 &gt;</text>
</a>
</g>
</g>
<!-- client&#45;&gt;file -->
<g id="edge5" class="edge">
<title>client:w&#45;&gt;file:e</title>
<path fill="none" stroke="#000000" d="M571.8533,-923.8951C483.0816,-880.1321 648.4835,-393.0311 534.6217,-393.0311"/>
<polygon fill="#000000" stroke="#000000" points="578.3082,-925.3138 585.3489,-930.5472 582.215,-926.1724 586.1217,-927.0311 586.1217,-927.0311 586.1217,-927.0311 582.215,-926.1724 586.8945,-923.515 578.3082,-925.3138 578.3082,-925.3138"/>
<ellipse fill="none" stroke="#000000" cx="575.1828" cy="-924.6268" rx="3.2" ry="3.2"/>
</g>
<!-- eworker -->
<g id="node6" class="node">
<title>eworker</title>
<g id="a_node6"><a xlink:href="../../tables/eworker.html" xlink:title="eworker" target="_top">
<polygon fill="#ffffff" stroke="transparent" points="23.6217,-718.5311 23.6217,-911.5311 146.6217,-911.5311 146.6217,-718.5311 23.6217,-718.5311"/>
<polygon fill="#f5f5f5" stroke="transparent" points="24.1217,-888.0311 24.1217,-911.0311 147.1217,-911.0311 147.1217,-888.0311 24.1217,-888.0311"/>
<polygon fill="none" stroke="#000000" points="24.1217,-888.0311 24.1217,-911.0311 147.1217,-911.0311 147.1217,-888.0311 24.1217,-888.0311"/>
<text text-anchor="start" x="29.1217" y="-897.1311" font-family="Helvetica,sans-Serif" font-weight="bold" font-size="11.00" fill="#000000">eworker</text>
<text text-anchor="start" x="112.1654" y="-896.1311" font-family="Helvetica,sans-Serif" font-size="11.00" fill="#000000">[table]</text>
<polygon fill="none" stroke="#000000" points="24.1217,-866.0311 24.1217,-888.0311 147.1217,-888.0311 147.1217,-866.0311 24.1217,-866.0311"/>
<image xlink:href="../../images/primaryKeys.png" width="11px" height="12px" preserveAspectRatio="xMinYMin meet" x="29.1217" y="-883.031"/>
<text text-anchor="start" x="44.1217" y="-873.1311" font-family="Helvetica,sans-Serif" font-size="11.00" fill="#000000">id</text>
<polygon fill="#ffffff" stroke="transparent" points="24.1217,-844.0311 24.1217,-866.0311 147.1217,-866.0311 147.1217,-844.0311 24.1217,-844.0311"/>
<polygon fill="none" stroke="#000000" points="24.1217,-844.0311 24.1217,-866.0311 147.1217,-866.0311 147.1217,-844.0311 24.1217,-844.0311"/>
<image xlink:href="../../images/foreignKeys.png" width="11px" height="12px" preserveAspectRatio="xMinYMin meet" x="29.1217" y="-861.031"/>
<text text-anchor="start" x="44.1217" y="-851.1311" font-family="Helvetica,sans-Serif" font-size="11.00" fill="#000000">created_by</text>
<polygon fill="#ffffff" stroke="transparent" points="24.1217,-822.0311 24.1217,-844.0311 147.1217,-844.0311 147.1217,-822.0311 24.1217,-822.0311"/>
<polygon fill="none" stroke="#000000" points="24.1217,-822.0311 24.1217,-844.0311 147.1217,-844.0311 147.1217,-822.0311 24.1217,-822.0311"/>
<image xlink:href="../../images/foreignKeys.png" width="11px" height="12px" preserveAspectRatio="xMinYMin meet" x="29.1217" y="-839.031"/>
<text text-anchor="start" x="44.1217" y="-829.1311" font-family="Helvetica,sans-Serif" font-size="11.00" fill="#000000">modified_by</text>
<polygon fill="#ffffff" stroke="transparent" points="24.1217,-800.0311 24.1217,-822.0311 147.1217,-822.0311 147.1217,-800.0311 24.1217,-800.0311"/>
<polygon fill="none" stroke="#000000" points="24.1217,-800.0311 24.1217,-822.0311 147.1217,-822.0311 147.1217,-800.0311 24.1217,-800.0311"/>
<text text-anchor="start" x="44.1217" y="-807.1311" font-family="Helvetica,sans-Serif" font-size="11.00" fill="#000000">email</text>
<polygon fill="#ffffff" stroke="transparent" points="24.1217,-778.0311 24.1217,-800.0311 147.1217,-800.0311 147.1217,-778.0311 24.1217,-778.0311"/>
<polygon fill="none" stroke="#000000" points="24.1217,-778.0311 24.1217,-800.0311 147.1217,-800.0311 147.1217,-778.0311 24.1217,-778.0311"/>
<image xlink:href="../../images/foreignKeys.png" width="11px" height="12px" preserveAspectRatio="xMinYMin meet" x="29.1217" y="-795.031"/>
<text text-anchor="start" x="44.1217" y="-785.1311" font-family="Helvetica,sans-Serif" font-size="11.00" fill="#000000">avatar_id</text>
<polygon fill="#ffffff" stroke="transparent" points="24.1217,-756.0311 24.1217,-778.0311 147.1217,-778.0311 147.1217,-756.0311 24.1217,-756.0311"/>
<polygon fill="none" stroke="#000000" points="24.1217,-756.0311 24.1217,-778.0311 147.1217,-778.0311 147.1217,-756.0311 24.1217,-756.0311"/>
<image xlink:href="../../images/foreignKeys.png" width="11px" height="12px" preserveAspectRatio="xMinYMin meet" x="29.1217" y="-773.031"/>
<text text-anchor="start" x="44.1217" y="-763.1311" font-family="Helvetica,sans-Serif" font-size="11.00" fill="#000000">unit_id</text>
<polygon fill="none" stroke="#000000" points="24.1217,-737.0311 24.1217,-756.0311 147.1217,-756.0311 147.1217,-737.0311 24.1217,-737.0311"/>
<text text-anchor="start" x="27.1217" y="-743.1311" font-family="Helvetica,sans-Serif" font-size="11.00" fill="#000000">...</text>
<polygon fill="#ffffff" stroke="transparent" points="24.1217,-718.0311 24.1217,-737.0311 60.1217,-737.0311 60.1217,-718.0311 24.1217,-718.0311"/>
<polygon fill="none" stroke="#000000" points="24.1217,-718.0311 24.1217,-737.0311 60.1217,-737.0311 60.1217,-718.0311 24.1217,-718.0311"/>
<text text-anchor="start" x="27.1217" y="-724.1311" font-family="Helvetica,sans-Serif" font-size="11.00" fill="#000000">&lt; 4</text>
<polygon fill="#ffffff" stroke="transparent" points="60.1217,-718.0311 60.1217,-737.0311 118.1217,-737.0311 118.1217,-718.0311 60.1217,-718.0311"/>
<polygon fill="none" stroke="#000000" points="60.1217,-718.0311 60.1217,-737.0311 118.1217,-737.0311 118.1217,-718.0311 60.1217,-718.0311"/>
<text text-anchor="start" x="70.5024" y="-724.1311" font-family="Helvetica,sans-Serif" font-size="11.00" fill="#000000">347 rows</text>
<polygon fill="#ffffff" stroke="transparent" points="118.1217,-718.0311 118.1217,-737.0311 147.1217,-737.0311 147.1217,-718.0311 118.1217,-718.0311"/>
<polygon fill="none" stroke="#000000" points="118.1217,-718.0311 118.1217,-737.0311 147.1217,-737.0311 147.1217,-718.0311 118.1217,-718.0311"/>
<text text-anchor="start" x="128.527" y="-724.1311" font-family="Helvetica,sans-Serif" font-size="11.00" fill="#000000">9 &gt;</text>
</a>
</g>
</g>
<!-- client&#45;&gt;eworker -->
<g id="edge6" class="edge">
<title>client:w&#45;&gt;eworker:e</title>
<path fill="none" stroke="#000000" d="M571.4791,-1037.0703C400.7062,-1037.9647 329.6146,-1052.8862 187.6217,-948.0311 158.3978,-926.4506 183.4501,-877.0311 147.1217,-877.0311"/>
<polygon fill="#000000" stroke="#000000" points="578.1218,-1037.0526 586.1314,-1040.6311 582.1218,-1037.0418 586.1217,-1037.0311 586.1217,-1037.0311 586.1217,-1037.0311 582.1218,-1037.0418 586.1121,-1033.4311 578.1218,-1037.0526 578.1218,-1037.0526"/>
<ellipse fill="none" stroke="#000000" cx="574.9218" cy="-1037.0611" rx="3.2" ry="3.2"/>
</g>
<!-- client&#45;&gt;eworker -->
<g id="edge7" class="edge">
<title>client:w&#45;&gt;eworker:e</title>
<path fill="none" stroke="#000000" d="M572.0449,-988.6054C558.2111,-976.5334 568.1408,-942.9436 544.6217,-928.0311 507.0154,-904.1863 191.6504,-877.0311 147.1217,-877.0311"/>
<polygon fill="#000000" stroke="#000000" points="578.49,-990.6317 585.042,-996.4654 582.3059,-991.8314 586.1217,-993.0311 586.1217,-993.0311 586.1217,-993.0311 582.3059,-991.8314 587.2015,-989.5968 578.49,-990.6317 578.49,-990.6317"/>
<ellipse fill="none" stroke="#000000" cx="575.4373" cy="-989.6719" rx="3.2" ry="3.2"/>
</g>
<!-- client&#45;&gt;eworker -->
<g id="edge10" class="edge">
<title>client:w&#45;&gt;eworker:e</title>
<path fill="none" stroke="#000000" d="M571.5109,-1014.9007C398.7331,-1011.7645 357.7537,-952.5754 187.6217,-893.0311 169.3545,-886.6377 166.4755,-877.0311 147.1217,-877.0311"/>
<polygon fill="#000000" stroke="#000000" points="578.1221,-1014.9596 586.0896,-1018.6309 582.1219,-1014.9954 586.1217,-1015.0311 586.1217,-1015.0311 586.1217,-1015.0311 582.1219,-1014.9954 586.1539,-1011.4312 578.1221,-1014.9596 578.1221,-1014.9596"/>
<ellipse fill="none" stroke="#000000" cx="574.9222" cy="-1014.931" rx="3.2" ry="3.2"/>
</g>
<!-- client&#45;&gt;principal -->
<g id="edge8" class="edge">
<title>client:w&#45;&gt;principal:e</title>
<path fill="none" stroke="#000000" d="M571.4809,-1190.9103C454.1356,-1188.9053 402.2541,-1161.3214 328.6217,-1063.0311 297.4947,-1021.4803 339.5386,-833.0311 287.6217,-833.0311"/>
<polygon fill="#000000" stroke="#000000" points="578.122,-1190.9651 586.092,-1194.631 582.1219,-1190.9981 586.1217,-1191.0311 586.1217,-1191.0311 586.1217,-1191.0311 582.1219,-1190.9981 586.1514,-1187.4312 578.122,-1190.9651 578.122,-1190.9651"/>
<ellipse fill="none" stroke="#000000" cx="574.9221" cy="-1190.9386" rx="3.2" ry="3.2"/>
</g>
<!-- client&#45;&gt;principal -->
<g id="edge9" class="edge">
<title>client:w&#45;&gt;principal:e</title>
<path fill="none" stroke="#000000" d="M571.8385,-1166.5417C543.784,-1154.3885 569.9087,-1100.4038 544.6217,-1064.0311 539.1425,-1056.1498 297.2206,-833.0311 287.6217,-833.0311"/>
<polygon fill="#000000" stroke="#000000" points="578.2405,-1167.6574 585.5036,-1172.5776 582.1811,-1168.3443 586.1217,-1169.0311 586.1217,-1169.0311 586.1217,-1169.0311 582.1811,-1168.3443 586.7399,-1165.4845 578.2405,-1167.6574 578.2405,-1167.6574"/>
<ellipse fill="none" stroke="#000000" cx="575.0881" cy="-1167.108" rx="3.2" ry="3.2"/>
</g>
<!-- eworker&#45;&gt;file -->
<g id="edge15" class="edge">
<title>eworker:w&#45;&gt;file:e</title>
<path fill="none" stroke="#000000" d="M10.0856,-784.2848C-2.3482,-771.8832 11.2455,-737.8572 24.1217,-714.5311 24.1217,-714.5311 534.6217,-393.0311 534.6217,-393.0311"/>
<polygon fill="#000000" stroke="#000000" points="16.5433,-786.4684 22.9685,-792.4414 20.3325,-787.7498 24.1217,-789.0311 24.1217,-789.0311 24.1217,-789.0311 20.3325,-787.7498 25.2749,-785.6208 16.5433,-786.4684 16.5433,-786.4684"/>
<ellipse fill="none" stroke="#000000" cx="13.5119" cy="-785.4434" rx="3.2" ry="3.2"/>
</g>
<!-- eworker&#45;&gt;principal -->
<g id="edge16" class="edge">
<title>eworker:w&#45;&gt;principal:e</title>
<path fill="none" stroke="#000000" d="M37.596,-861.2778C70.9385,-876.7354 154.6217,-915.5311 154.6217,-915.5311 172.1632,-909.5434 170.7005,-897.596 187.6217,-890.0311 228.8845,-871.584 258.7143,-906.2769 287.6217,-871.5311 298.5654,-858.3771 304.7328,-833.0311 287.6217,-833.0311"/>
<polygon fill="#000000" stroke="#000000" points="31.3797,-858.3959 25.6359,-851.765 27.7507,-856.7135 24.1217,-855.0311 24.1217,-855.0311 24.1217,-855.0311 27.7507,-856.7135 22.6076,-858.2972 31.3797,-858.3959 31.3797,-858.3959"/>
<ellipse fill="none" stroke="#000000" cx="34.2829" cy="-859.7419" rx="3.2" ry="3.2"/>
</g>
<!-- eworker&#45;&gt;principal -->
<g id="edge17" class="edge">
<title>eworker:w&#45;&gt;principal:e</title>
<path fill="none" stroke="#000000" d="M10.0201,-837.0261C-8.7154,-850.366 2.3469,-893.7562 24.1217,-915.5311 65.1339,-956.5433 99.7315,-934.2676 154.6217,-915.5311 172.1632,-909.5434 170.7005,-897.596 187.6217,-890.0311 228.8845,-871.584 258.7143,-906.2769 287.6217,-871.5311 298.5654,-858.3771 304.7328,-833.0311 287.6217,-833.0311"/>
<polygon fill="#000000" stroke="#000000" points="16.4247,-835.2117 25.103,-836.4948 20.2732,-834.1214 24.1217,-833.0311 24.1217,-833.0311 24.1217,-833.0311 20.2732,-834.1214 23.1405,-829.5674 16.4247,-835.2117 16.4247,-835.2117"/>
<ellipse fill="none" stroke="#000000" cx="13.3458" cy="-836.0839" rx="3.2" ry="3.2"/>
</g>
<!-- principal&#45;&gt;eworker -->
<g id="edge32" class="edge">
<title>principal:w&#45;&gt;eworker:e</title>
<path fill="none" stroke="#000000" d="M181.6155,-816.21C165.781,-831.7689 177.2669,-877.0311 147.1217,-877.0311"/>
<polygon fill="#000000" stroke="#000000" points="188.1182,-813.8056 196.8703,-814.4077 191.87,-812.4183 195.6217,-811.0311 195.6217,-811.0311 195.6217,-811.0311 191.87,-812.4183 194.3732,-807.6545 188.1182,-813.8056 188.1182,-813.8056"/>
<ellipse fill="none" stroke="#000000" cx="185.1169" cy="-814.9154" rx="3.2" ry="3.2"/>
</g>
<!-- client_contact -->
<g id="node8" class="node">
<title>client_contact</title>
<g id="a_node8"><a xlink:href="../../tables/client_contact.html" xlink:title="client_contact" target="_top">
<polygon fill="#ffffff" stroke="transparent" points="835.6217,-993.5311 835.6217,-1186.5311 979.6217,-1186.5311 979.6217,-993.5311 835.6217,-993.5311"/>
<polygon fill="#f5f5f5" stroke="transparent" points="835.6217,-1163.0311 835.6217,-1186.0311 979.6217,-1186.0311 979.6217,-1163.0311 835.6217,-1163.0311"/>
<polygon fill="none" stroke="#000000" points="835.6217,-1163.0311 835.6217,-1186.0311 979.6217,-1186.0311 979.6217,-1163.0311 835.6217,-1163.0311"/>
<text text-anchor="start" x="840.6217" y="-1172.1311" font-family="Helvetica,sans-Serif" font-weight="bold" font-size="11.00" fill="#000000">client_contact</text>
<text text-anchor="start" x="944.6654" y="-1171.1311" font-family="Helvetica,sans-Serif" font-size="11.00" fill="#000000">[table]</text>
<polygon fill="none" stroke="#000000" points="835.6217,-1141.0311 835.6217,-1163.0311 979.6217,-1163.0311 979.6217,-1141.0311 835.6217,-1141.0311"/>
<image xlink:href="../../images/primaryKeys.png" width="11px" height="12px" preserveAspectRatio="xMinYMin meet" x="840.622" y="-1158.03"/>
<text text-anchor="start" x="855.6217" y="-1148.1311" font-family="Helvetica,sans-Serif" font-size="11.00" fill="#000000">id</text>
<polygon fill="#ffffff" stroke="transparent" points="835.6217,-1119.0311 835.6217,-1141.0311 979.6217,-1141.0311 979.6217,-1119.0311 835.6217,-1119.0311"/>
<polygon fill="none" stroke="#000000" points="835.6217,-1119.0311 835.6217,-1141.0311 979.6217,-1141.0311 979.6217,-1119.0311 835.6217,-1119.0311"/>
<image xlink:href="../../images/foreignKeys.png" width="11px" height="12px" preserveAspectRatio="xMinYMin meet" x="840.622" y="-1136.03"/>
<text text-anchor="start" x="855.6217" y="-1126.1311" font-family="Helvetica,sans-Serif" font-size="11.00" fill="#000000">created_by</text>
<polygon fill="#ffffff" stroke="transparent" points="835.6217,-1097.0311 835.6217,-1119.0311 979.6217,-1119.0311 979.6217,-1097.0311 835.6217,-1097.0311"/>
<polygon fill="none" stroke="#000000" points="835.6217,-1097.0311 835.6217,-1119.0311 979.6217,-1119.0311 979.6217,-1097.0311 835.6217,-1097.0311"/>
<image xlink:href="../../images/foreignKeys.png" width="11px" height="12px" preserveAspectRatio="xMinYMin meet" x="840.622" y="-1114.03"/>
<text text-anchor="start" x="855.6217" y="-1104.1311" font-family="Helvetica,sans-Serif" font-size="11.00" fill="#000000">modified_by</text>
<polygon fill="#ffffff" stroke="transparent" points="835.6217,-1075.0311 835.6217,-1097.0311 979.6217,-1097.0311 979.6217,-1075.0311 835.6217,-1075.0311"/>
<polygon fill="none" stroke="#000000" points="835.6217,-1075.0311 835.6217,-1097.0311 979.6217,-1097.0311 979.6217,-1075.0311 835.6217,-1075.0311"/>
<text text-anchor="start" x="855.6217" y="-1082.1311" font-family="Helvetica,sans-Serif" font-size="11.00" fill="#000000">email</text>
<polygon fill="#ffffff" stroke="transparent" points="835.6217,-1053.0311 835.6217,-1075.0311 979.6217,-1075.0311 979.6217,-1053.0311 835.6217,-1053.0311"/>
<polygon fill="none" stroke="#000000" points="835.6217,-1053.0311 835.6217,-1075.0311 979.6217,-1075.0311 979.6217,-1053.0311 835.6217,-1053.0311"/>
<image xlink:href="../../images/foreignKeys.png" width="11px" height="12px" preserveAspectRatio="xMinYMin meet" x="840.622" y="-1070.03"/>
<text text-anchor="start" x="855.6217" y="-1060.1311" font-family="Helvetica,sans-Serif" font-size="11.00" fill="#000000">client_id</text>
<polygon fill="#ffffff" stroke="transparent" points="835.6217,-1031.0311 835.6217,-1053.0311 979.6217,-1053.0311 979.6217,-1031.0311 835.6217,-1031.0311"/>
<polygon fill="none" stroke="#000000" points="835.6217,-1031.0311 835.6217,-1053.0311 979.6217,-1053.0311 979.6217,-1031.0311 835.6217,-1031.0311"/>
<image xlink:href="../../images/foreignKeys.png" width="11px" height="12px" preserveAspectRatio="xMinYMin meet" x="840.622" y="-1048.03"/>
<text text-anchor="start" x="855.6217" y="-1038.1311" font-family="Helvetica,sans-Serif" font-size="11.00" fill="#000000">avatar_id</text>
<polygon fill="none" stroke="#000000" points="835.6217,-1012.0311 835.6217,-1031.0311 979.6217,-1031.0311 979.6217,-1012.0311 835.6217,-1012.0311"/>
<text text-anchor="start" x="838.6217" y="-1018.1311" font-family="Helvetica,sans-Serif" font-size="11.00" fill="#000000">...</text>
<polygon fill="#ffffff" stroke="transparent" points="835.6217,-993.0311 835.6217,-1012.0311 882.6217,-1012.0311 882.6217,-993.0311 835.6217,-993.0311"/>
<polygon fill="none" stroke="#000000" points="835.6217,-993.0311 835.6217,-1012.0311 882.6217,-1012.0311 882.6217,-993.0311 835.6217,-993.0311"/>
<text text-anchor="start" x="838.6217" y="-999.1311" font-family="Helvetica,sans-Serif" font-size="11.00" fill="#000000">&lt; 4</text>
<polygon fill="#ffffff" stroke="transparent" points="882.6217,-993.0311 882.6217,-1012.0311 945.6217,-1012.0311 945.6217,-993.0311 882.6217,-993.0311"/>
<polygon fill="none" stroke="#000000" points="882.6217,-993.0311 882.6217,-1012.0311 945.6217,-1012.0311 945.6217,-993.0311 882.6217,-993.0311"/>
<text text-anchor="start" x="898.0024" y="-999.1311" font-family="Helvetica,sans-Serif" font-size="11.00" fill="#000000">561 rows</text>
<polygon fill="#ffffff" stroke="transparent" points="945.6217,-993.0311 945.6217,-1012.0311 979.6217,-1012.0311 979.6217,-993.0311 945.6217,-993.0311"/>
<polygon fill="none" stroke="#000000" points="945.6217,-993.0311 945.6217,-1012.0311 979.6217,-1012.0311 979.6217,-993.0311 945.6217,-993.0311"/>
<text text-anchor="start" x="961.027" y="-999.1311" font-family="Helvetica,sans-Serif" font-size="11.00" fill="#000000">2 &gt;</text>
</a>
</g>
</g>
<!-- client_contact&#45;&gt;file -->
<g id="edge11" class="edge">
<title>client_contact:w&#45;&gt;file:e</title>
<path fill="none" stroke="#000000" d="M820.9883,-1040.5621C758.4634,-1026.1037 848.9502,-908.4245 794.6217,-844.0311 727.8289,-764.8641 640.8991,-841.0351 577.6217,-759.0311 527.5929,-694.1964 616.5145,-393.0311 534.6217,-393.0311"/>
<polygon fill="#000000" stroke="#000000" points="827.6617,-1041.2319 835.2621,-1045.6131 831.6417,-1041.6315 835.6217,-1042.0311 835.6217,-1042.0311 835.6217,-1042.0311 831.6417,-1041.6315 835.9813,-1038.4491 827.6617,-1041.2319 827.6617,-1041.2319"/>
<ellipse fill="none" stroke="#000000" cx="824.4777" cy="-1040.9123" rx="3.2" ry="3.2"/>
</g>
<!-- client_contact&#45;&gt;client -->
<g id="edge12" class="edge">
<title>client_contact:w&#45;&gt;client:e</title>
<path fill="none" stroke="#000000" d="M821.2798,-1067.0074C780.097,-1088.0075 850.915,-1213.0311 787.1217,-1213.0311"/>
<polygon fill="#000000" stroke="#000000" points="827.7886,-1065.6567 836.3533,-1067.556 831.7052,-1064.8439 835.6217,-1064.0311 835.6217,-1064.0311 835.6217,-1064.0311 831.7052,-1064.8439 834.8902,-1060.5062 827.7886,-1065.6567 827.7886,-1065.6567"/>
<ellipse fill="none" stroke="#000000" cx="824.6554" cy="-1066.3069" rx="3.2" ry="3.2"/>
</g>
<!-- client_contact&#45;&gt;principal -->
<g id="edge13" class="edge">
<title>client_contact:w&#45;&gt;principal:e</title>
<path fill="none" stroke="#000000" d="M821.0889,-1132.7448C788.3043,-1148.2846 837.975,-1226.3947 794.6217,-1258.0311 621.6812,-1384.2319 453.8607,-1309.6694 328.6217,-1136.0311 288.8742,-1080.9228 355.5687,-833.0311 287.6217,-833.0311"/>
<polygon fill="#000000" stroke="#000000" points="827.7577,-1131.4996 836.2826,-1133.5699 831.6897,-1130.7654 835.6217,-1130.0311 835.6217,-1130.0311 835.6217,-1130.0311 831.6897,-1130.7654 834.9609,-1126.4923 827.7577,-1131.4996 827.7577,-1131.4996"/>
<ellipse fill="none" stroke="#000000" cx="824.612" cy="-1132.087" rx="3.2" ry="3.2"/>
</g>
<!-- client_contact&#45;&gt;principal -->
<g id="edge14" class="edge">
<title>client_contact:w&#45;&gt;principal:e</title>
<path fill="none" stroke="#000000" d="M822.2489,-1102.1148C791.3742,-1068.3709 830.715,-900.5932 794.6217,-868.0311 756.0921,-833.2709 380.3403,-841.2732 328.6217,-837.0311 310.3743,-835.5344 305.9305,-833.0311 287.6217,-833.0311"/>
<polygon fill="#000000" stroke="#000000" points="828.3057,-1104.7944 834.1652,-1111.3233 831.9637,-1106.4127 835.6217,-1108.0311 835.6217,-1108.0311 835.6217,-1108.0311 831.9637,-1106.4127 837.0783,-1104.7389 828.3057,-1104.7944 828.3057,-1104.7944"/>
<ellipse fill="none" stroke="#000000" cx="825.3793" cy="-1103.4997" rx="3.2" ry="3.2"/>
</g>
<!-- file_preview -->
<g id="node9" class="node">
<title>file_preview</title>
<g id="a_node9"><a xlink:href="../../tables/file_preview.html" xlink:title="file_preview" target="_top">
<polygon fill="#ffffff" stroke="transparent" points="635.6217,-131.0311 635.6217,-261.0311 736.6217,-261.0311 736.6217,-131.0311 635.6217,-131.0311"/>
<polygon fill="#f5f5f5" stroke="transparent" points="636.1217,-238.0311 636.1217,-261.0311 737.1217,-261.0311 737.1217,-238.0311 636.1217,-238.0311"/>
<polygon fill="none" stroke="#000000" points="636.1217,-238.0311 636.1217,-261.0311 737.1217,-261.0311 737.1217,-238.0311 636.1217,-238.0311"/>
<text text-anchor="start" x="641.0933" y="-247.1311" font-family="Helvetica,sans-Serif" font-weight="bold" font-size="11.00" fill="#000000">file_preview</text>
<text text-anchor="start" x="702.6436" y="-246.1311" font-family="Helvetica,sans-Serif" font-size="11.00" fill="#000000">[table]</text>
<polygon fill="none" stroke="#000000" points="636.1217,-216.0311 636.1217,-238.0311 737.1217,-238.0311 737.1217,-216.0311 636.1217,-216.0311"/>
<image xlink:href="../../images/primaryKeys.png" width="11px" height="12px" preserveAspectRatio="xMinYMin meet" x="641.122" y="-233.031"/>
<text text-anchor="start" x="656.1217" y="-223.1311" font-family="Helvetica,sans-Serif" font-size="11.00" fill="#000000">id</text>
<polygon fill="#ffffff" stroke="transparent" points="636.1217,-194.0311 636.1217,-216.0311 737.1217,-216.0311 737.1217,-194.0311 636.1217,-194.0311"/>
<polygon fill="none" stroke="#000000" points="636.1217,-194.0311 636.1217,-216.0311 737.1217,-216.0311 737.1217,-194.0311 636.1217,-194.0311"/>
<image xlink:href="../../images/foreignKeys.png" width="11px" height="12px" preserveAspectRatio="xMinYMin meet" x="641.122" y="-211.031"/>
<text text-anchor="start" x="656.1217" y="-201.1311" font-family="Helvetica,sans-Serif" font-size="11.00" fill="#000000">source_file_id</text>
<polygon fill="#ffffff" stroke="transparent" points="636.1217,-172.0311 636.1217,-194.0311 737.1217,-194.0311 737.1217,-172.0311 636.1217,-172.0311"/>
<polygon fill="none" stroke="#000000" points="636.1217,-172.0311 636.1217,-194.0311 737.1217,-194.0311 737.1217,-172.0311 636.1217,-172.0311"/>
<image xlink:href="../../images/foreignKeys.png" width="11px" height="12px" preserveAspectRatio="xMinYMin meet" x="641.122" y="-189.031"/>
<text text-anchor="start" x="656.1217" y="-179.1311" font-family="Helvetica,sans-Serif" font-size="11.00" fill="#000000">image_file_id</text>
<polygon fill="#ffffff" stroke="transparent" points="636.1217,-150.0311 636.1217,-172.0311 737.1217,-172.0311 737.1217,-150.0311 636.1217,-150.0311"/>
<polygon fill="none" stroke="#000000" points="636.1217,-150.0311 636.1217,-172.0311 737.1217,-172.0311 737.1217,-150.0311 636.1217,-150.0311"/>
<image xlink:href="../../images/foreignKeys.png" width="11px" height="12px" preserveAspectRatio="xMinYMin meet" x="641.122" y="-167.031"/>
<text text-anchor="start" x="656.1217" y="-157.1311" font-family="Helvetica,sans-Serif" font-size="11.00" fill="#000000">pdf_file_id</text>
<polygon fill="#ffffff" stroke="transparent" points="636.1217,-131.0311 636.1217,-150.0311 672.1217,-150.0311 672.1217,-131.0311 636.1217,-131.0311"/>
<polygon fill="none" stroke="#000000" points="636.1217,-131.0311 636.1217,-150.0311 672.1217,-150.0311 672.1217,-131.0311 636.1217,-131.0311"/>
<text text-anchor="start" x="639.1217" y="-137.1311" font-family="Helvetica,sans-Serif" font-size="11.00" fill="#000000">&lt; 3</text>
<polygon fill="#ffffff" stroke="transparent" points="672.1217,-131.0311 672.1217,-150.0311 717.1217,-150.0311 717.1217,-131.0311 672.1217,-131.0311"/>
<polygon fill="none" stroke="#000000" points="672.1217,-131.0311 672.1217,-150.0311 717.1217,-150.0311 717.1217,-131.0311 672.1217,-131.0311"/>
<text text-anchor="start" x="681.7322" y="-137.1311" font-family="Helvetica,sans-Serif" font-size="11.00" fill="#000000">0 rows</text>
<polygon fill="#ffffff" stroke="transparent" points="717.1217,-131.0311 717.1217,-150.0311 737.1217,-150.0311 737.1217,-131.0311 717.1217,-131.0311"/>
<polygon fill="none" stroke="#000000" points="717.1217,-131.0311 717.1217,-150.0311 737.1217,-150.0311 737.1217,-131.0311 717.1217,-131.0311"/>
<text text-anchor="start" x="728.0079" y="-137.1311" font-family="Helvetica,sans-Serif" font-size="11.00" fill="#000000"> &#160;</text>
</a>
</g>
</g>
<!-- file_preview&#45;&gt;file -->
<g id="edge20" class="edge">
<title>file_preview:w&#45;&gt;file:e</title>
<path fill="none" stroke="#000000" d="M621.8233,-184.8217C589.8231,-193.9626 596.6161,-236.4915 577.6217,-275.0311 552.9458,-325.0986 590.4398,-393.0311 534.6217,-393.0311"/>
<polygon fill="#000000" stroke="#000000" points="628.1837,-184.0252 636.5691,-186.6032 632.1527,-183.5282 636.1217,-183.0311 636.1217,-183.0311 636.1217,-183.0311 632.1527,-183.5282 635.6744,-179.459 628.1837,-184.0252 628.1837,-184.0252"/>
<ellipse fill="none" stroke="#000000" cx="625.0085" cy="-184.4229" rx="3.2" ry="3.2"/>
</g>
<!-- file_preview&#45;&gt;file -->
<g id="edge21" class="edge">
<title>file_preview:w&#45;&gt;file:e</title>
<path fill="none" stroke="#000000" d="M621.5609,-162.733C582.9022,-173.012 598.1891,-227.9397 577.6217,-275.0311 555.2808,-326.1832 590.4398,-393.0311 534.6217,-393.0311"/>
<polygon fill="#000000" stroke="#000000" points="628.1758,-161.9599 636.5397,-164.6067 632.1488,-161.4955 636.1217,-161.0311 636.1217,-161.0311 636.1217,-161.0311 632.1488,-161.4955 635.7038,-157.4554 628.1758,-161.9599 628.1758,-161.9599"/>
<ellipse fill="none" stroke="#000000" cx="624.9975" cy="-162.3314" rx="3.2" ry="3.2"/>
</g>
<!-- file_preview&#45;&gt;file -->
<g id="edge22" class="edge">
<title>file_preview:w&#45;&gt;file:e</title>
<path fill="none" stroke="#000000" d="M621.7269,-206.898C595.7815,-214.5709 595.0983,-244.7046 577.6217,-275.0311 549.7515,-323.3933 590.4398,-393.0311 534.6217,-393.0311"/>
<polygon fill="#000000" stroke="#000000" points="628.1882,-206.0601 636.5848,-208.6012 632.155,-205.5456 636.1217,-205.0311 636.1217,-205.0311 636.1217,-205.0311 632.155,-205.5456 635.6587,-201.461 628.1882,-206.0601 628.1882,-206.0601"/>
<ellipse fill="none" stroke="#000000" cx="625.0148" cy="-206.4717" rx="3.2" ry="3.2"/>
</g>
<!-- invitation_document -->
<g id="node10" class="node">
<title>invitation_document</title>
<g id="a_node10"><a xlink:href="../../tables/invitation_document.html" xlink:title="invitation_document" target="_top">
<polygon fill="#ffffff" stroke="transparent" points="616.1217,-470.0311 616.1217,-556.0311 756.1217,-556.0311 756.1217,-470.0311 616.1217,-470.0311"/>
<polygon fill="#f5f5f5" stroke="transparent" points="616.1217,-533.0311 616.1217,-556.0311 756.1217,-556.0311 756.1217,-533.0311 616.1217,-533.0311"/>
<polygon fill="none" stroke="#000000" points="616.1217,-533.0311 616.1217,-556.0311 756.1217,-556.0311 756.1217,-533.0311 616.1217,-533.0311"/>
<text text-anchor="start" x="620.7196" y="-542.1311" font-family="Helvetica,sans-Serif" font-weight="bold" font-size="11.00" fill="#000000">invitation_document</text>
<text text-anchor="start" x="721.6436" y="-541.1311" font-family="Helvetica,sans-Serif" font-size="11.00" fill="#000000">[table]</text>
<polygon fill="#ffffff" stroke="transparent" points="616.1217,-511.0311 616.1217,-533.0311 756.1217,-533.0311 756.1217,-511.0311 616.1217,-511.0311"/>
<polygon fill="none" stroke="#000000" points="616.1217,-511.0311 616.1217,-533.0311 756.1217,-533.0311 756.1217,-511.0311 616.1217,-511.0311"/>
<image xlink:href="../../images/foreignKeys.png" width="11px" height="12px" preserveAspectRatio="xMinYMin meet" x="621.122" y="-528.031"/>
<text text-anchor="start" x="637.1217" y="-518.1311" font-family="Helvetica,sans-Serif" font-size="11.00" fill="#000000">invitation_id</text>
<polygon fill="#ffffff" stroke="transparent" points="616.1217,-489.0311 616.1217,-511.0311 756.1217,-511.0311 756.1217,-489.0311 616.1217,-489.0311"/>
<polygon fill="none" stroke="#000000" points="616.1217,-489.0311 616.1217,-511.0311 756.1217,-511.0311 756.1217,-489.0311 616.1217,-489.0311"/>
<image xlink:href="../../images/foreignKeys.png" width="11px" height="12px" preserveAspectRatio="xMinYMin meet" x="621.122" y="-506.031"/>
<text text-anchor="start" x="637.1217" y="-496.1311" font-family="Helvetica,sans-Serif" font-size="11.00" fill="#000000">file_id</text>
<polygon fill="#ffffff" stroke="transparent" points="616.1217,-470.0311 616.1217,-489.0311 671.1217,-489.0311 671.1217,-470.0311 616.1217,-470.0311"/>
<polygon fill="none" stroke="#000000" points="616.1217,-470.0311 616.1217,-489.0311 671.1217,-489.0311 671.1217,-470.0311 616.1217,-470.0311"/>
<text text-anchor="start" x="619.1217" y="-476.1311" font-family="Helvetica,sans-Serif" font-size="11.00" fill="#000000">&lt; 2</text>
<polygon fill="#ffffff" stroke="transparent" points="671.1217,-470.0311 671.1217,-489.0311 726.1217,-489.0311 726.1217,-470.0311 671.1217,-470.0311"/>
<polygon fill="none" stroke="#000000" points="671.1217,-470.0311 671.1217,-489.0311 726.1217,-489.0311 726.1217,-470.0311 671.1217,-470.0311"/>
<text text-anchor="start" x="690.7322" y="-476.1311" font-family="Helvetica,sans-Serif" font-size="11.00" fill="#000000">4 rows</text>
<polygon fill="#ffffff" stroke="transparent" points="726.1217,-470.0311 726.1217,-489.0311 756.1217,-489.0311 756.1217,-470.0311 726.1217,-470.0311"/>
<polygon fill="none" stroke="#000000" points="726.1217,-470.0311 726.1217,-489.0311 756.1217,-489.0311 756.1217,-470.0311 726.1217,-470.0311"/>
<text text-anchor="start" x="747.0079" y="-476.1311" font-family="Helvetica,sans-Serif" font-size="11.00" fill="#000000"> &#160;</text>
</a>
</g>
</g>
<!-- invitation_document&#45;&gt;file -->
<g id="edge23" class="edge">
<title>invitation_document:w&#45;&gt;file:e</title>
<path fill="none" stroke="#000000" d="M601.847,-496.5042C591.1331,-489.7928 589.091,-474.5544 577.6217,-460.0311 555.6928,-432.2629 570.0046,-393.0311 534.6217,-393.0311"/>
<polygon fill="#000000" stroke="#000000" points="608.3553,-498.1122 615.2582,-503.526 612.2385,-499.0716 616.1217,-500.0311 616.1217,-500.0311 616.1217,-500.0311 612.2385,-499.0716 616.9852,-496.5362 608.3553,-498.1122 608.3553,-498.1122"/>
<ellipse fill="none" stroke="#000000" cx="605.2487" cy="-497.3446" rx="3.2" ry="3.2"/>
</g>
<!-- job_request_application -->
<g id="node11" class="node">
<title>job_request_application</title>
<g id="a_node11"><a xlink:href="../../tables/job_request_application.html" xlink:title="job_request_application" target="_top">
<polygon fill="#ffffff" stroke="transparent" points="1028.6217,-540.5311 1028.6217,-777.5311 1187.6217,-777.5311 1187.6217,-540.5311 1028.6217,-540.5311"/>
<polygon fill="#f5f5f5" stroke="transparent" points="1029.1217,-754.0311 1029.1217,-777.0311 1188.1217,-777.0311 1188.1217,-754.0311 1029.1217,-754.0311"/>
<polygon fill="none" stroke="#000000" points="1029.1217,-754.0311 1029.1217,-777.0311 1188.1217,-777.0311 1188.1217,-754.0311 1029.1217,-754.0311"/>
<text text-anchor="start" x="1034.0478" y="-763.1311" font-family="Helvetica,sans-Serif" font-weight="bold" font-size="11.00" fill="#000000">job_request_application</text>
<text text-anchor="start" x="1153.6436" y="-762.1311" font-family="Helvetica,sans-Serif" font-size="11.00" fill="#000000">[table]</text>
<polygon fill="none" stroke="#000000" points="1029.1217,-732.0311 1029.1217,-754.0311 1188.1217,-754.0311 1188.1217,-732.0311 1029.1217,-732.0311"/>
<image xlink:href="../../images/primaryKeys.png" width="11px" height="12px" preserveAspectRatio="xMinYMin meet" x="1034.12" y="-749.031"/>
<text text-anchor="start" x="1049.1217" y="-739.1311" font-family="Helvetica,sans-Serif" font-size="11.00" fill="#000000">id</text>
<polygon fill="#ffffff" stroke="transparent" points="1029.1217,-710.0311 1029.1217,-732.0311 1188.1217,-732.0311 1188.1217,-710.0311 1029.1217,-710.0311"/>
<polygon fill="none" stroke="#000000" points="1029.1217,-710.0311 1029.1217,-732.0311 1188.1217,-732.0311 1188.1217,-710.0311 1029.1217,-710.0311"/>
<image xlink:href="../../images/foreignKeys.png" width="11px" height="12px" preserveAspectRatio="xMinYMin meet" x="1034.12" y="-727.031"/>
<text text-anchor="start" x="1049.1217" y="-717.1311" font-family="Helvetica,sans-Serif" font-size="11.00" fill="#000000">created_by</text>
<polygon fill="#ffffff" stroke="transparent" points="1029.1217,-688.0311 1029.1217,-710.0311 1188.1217,-710.0311 1188.1217,-688.0311 1029.1217,-688.0311"/>
<polygon fill="none" stroke="#000000" points="1029.1217,-688.0311 1029.1217,-710.0311 1188.1217,-710.0311 1188.1217,-688.0311 1029.1217,-688.0311"/>
<image xlink:href="../../images/foreignKeys.png" width="11px" height="12px" preserveAspectRatio="xMinYMin meet" x="1034.12" y="-705.031"/>
<text text-anchor="start" x="1049.1217" y="-695.1311" font-family="Helvetica,sans-Serif" font-size="11.00" fill="#000000">modified_by</text>
<polygon fill="#ffffff" stroke="transparent" points="1029.1217,-666.0311 1029.1217,-688.0311 1188.1217,-688.0311 1188.1217,-666.0311 1029.1217,-666.0311"/>
<polygon fill="none" stroke="#000000" points="1029.1217,-666.0311 1029.1217,-688.0311 1188.1217,-688.0311 1188.1217,-666.0311 1029.1217,-666.0311"/>
<image xlink:href="../../images/foreignKeys.png" width="11px" height="12px" preserveAspectRatio="xMinYMin meet" x="1034.12" y="-683.031"/>
<text text-anchor="start" x="1049.1217" y="-673.1311" font-family="Helvetica,sans-Serif" font-size="11.00" fill="#000000">job_request_id</text>
<polygon fill="#ffffff" stroke="transparent" points="1029.1217,-644.0311 1029.1217,-666.0311 1188.1217,-666.0311 1188.1217,-644.0311 1029.1217,-644.0311"/>
<polygon fill="none" stroke="#000000" points="1029.1217,-644.0311 1029.1217,-666.0311 1188.1217,-666.0311 1188.1217,-644.0311 1029.1217,-644.0311"/>
<image xlink:href="../../images/foreignKeys.png" width="11px" height="12px" preserveAspectRatio="xMinYMin meet" x="1034.12" y="-661.031"/>
<text text-anchor="start" x="1049.1217" y="-651.1311" font-family="Helvetica,sans-Serif" font-size="11.00" fill="#000000">supplier_id</text>
<polygon fill="#ffffff" stroke="transparent" points="1029.1217,-622.0311 1029.1217,-644.0311 1188.1217,-644.0311 1188.1217,-622.0311 1029.1217,-622.0311"/>
<polygon fill="none" stroke="#000000" points="1029.1217,-622.0311 1029.1217,-644.0311 1188.1217,-644.0311 1188.1217,-622.0311 1029.1217,-622.0311"/>
<text text-anchor="start" x="1049.1217" y="-629.1311" font-family="Helvetica,sans-Serif" font-size="11.00" fill="#000000">marketplace_id</text>
<polygon fill="#ffffff" stroke="transparent" points="1029.1217,-600.0311 1029.1217,-622.0311 1188.1217,-622.0311 1188.1217,-600.0311 1029.1217,-600.0311"/>
<polygon fill="none" stroke="#000000" points="1029.1217,-600.0311 1029.1217,-622.0311 1188.1217,-622.0311 1188.1217,-600.0311 1029.1217,-600.0311"/>
<image xlink:href="../../images/foreignKeys.png" width="11px" height="12px" preserveAspectRatio="xMinYMin meet" x="1034.12" y="-617.031"/>
<text text-anchor="start" x="1049.1217" y="-607.1311" font-family="Helvetica,sans-Serif" font-size="11.00" fill="#000000">applicant_id</text>
<polygon fill="#ffffff" stroke="transparent" points="1029.1217,-578.0311 1029.1217,-600.0311 1188.1217,-600.0311 1188.1217,-578.0311 1029.1217,-578.0311"/>
<polygon fill="none" stroke="#000000" points="1029.1217,-578.0311 1029.1217,-600.0311 1188.1217,-600.0311 1188.1217,-578.0311 1029.1217,-578.0311"/>
<image xlink:href="../../images/foreignKeys.png" width="11px" height="12px" preserveAspectRatio="xMinYMin meet" x="1034.12" y="-595.031"/>
<text text-anchor="start" x="1049.1217" y="-585.1311" font-family="Helvetica,sans-Serif" font-size="11.00" fill="#000000">avatar_id</text>
<polygon fill="none" stroke="#000000" points="1029.1217,-559.0311 1029.1217,-578.0311 1188.1217,-578.0311 1188.1217,-559.0311 1029.1217,-559.0311"/>
<text text-anchor="start" x="1032.1217" y="-565.1311" font-family="Helvetica,sans-Serif" font-size="11.00" fill="#000000">...</text>
<polygon fill="#ffffff" stroke="transparent" points="1029.1217,-540.0311 1029.1217,-559.0311 1086.1217,-559.0311 1086.1217,-540.0311 1029.1217,-540.0311"/>
<polygon fill="none" stroke="#000000" points="1029.1217,-540.0311 1029.1217,-559.0311 1086.1217,-559.0311 1086.1217,-540.0311 1029.1217,-540.0311"/>
<text text-anchor="start" x="1032.1217" y="-546.1311" font-family="Helvetica,sans-Serif" font-size="11.00" fill="#000000">&lt; 6</text>
<polygon fill="#ffffff" stroke="transparent" points="1086.1217,-540.0311 1086.1217,-559.0311 1148.1217,-559.0311 1148.1217,-540.0311 1086.1217,-540.0311"/>
<polygon fill="none" stroke="#000000" points="1086.1217,-540.0311 1086.1217,-559.0311 1148.1217,-559.0311 1148.1217,-540.0311 1086.1217,-540.0311"/>
<text text-anchor="start" x="1106.6173" y="-546.1311" font-family="Helvetica,sans-Serif" font-size="11.00" fill="#000000">75 rows</text>
<polygon fill="#ffffff" stroke="transparent" points="1148.1217,-540.0311 1148.1217,-559.0311 1188.1217,-559.0311 1188.1217,-540.0311 1148.1217,-540.0311"/>
<polygon fill="none" stroke="#000000" points="1148.1217,-540.0311 1148.1217,-559.0311 1188.1217,-559.0311 1188.1217,-540.0311 1148.1217,-540.0311"/>
<text text-anchor="start" x="1169.527" y="-546.1311" font-family="Helvetica,sans-Serif" font-size="11.00" fill="#000000">5 &gt;</text>
</a>
</g>
</g>
<!-- job_request_application&#45;&gt;applicant -->
<g id="edge24" class="edge">
<title>job_request_application:w&#45;&gt;applicant:e</title>
<path fill="none" stroke="#000000" d="M1015.0743,-607.7628C1002.126,-600.9862 997.3005,-586.0311 977.6217,-586.0311"/>
<polygon fill="#000000" stroke="#000000" points="1021.3299,-609.2182 1028.3059,-614.5374 1025.2258,-610.1246 1029.1217,-611.0311 1029.1217,-611.0311 1029.1217,-611.0311 1025.2258,-610.1246 1029.9376,-607.5247 1021.3299,-609.2182 1021.3299,-609.2182"/>
<ellipse fill="none" stroke="#000000" cx="1018.2131" cy="-608.493" rx="3.2" ry="3.2"/>
</g>
<!-- job_request_application&#45;&gt;file -->
<g id="edge25" class="edge">
<title>job_request_application:w&#45;&gt;file:e</title>
<path fill="none" stroke="#000000" d="M1014.7734,-587.5723C953.5143,-573.2178 1042.9317,-456.4627 987.6217,-395.0311 925.943,-326.5258 659.4538,-289.5959 577.6217,-332.0311 548.1755,-347.3009 567.7917,-393.0311 534.6217,-393.0311"/>
<polygon fill="#000000" stroke="#000000" points="1021.1628,-588.2218 1028.7576,-592.6126 1025.1423,-588.6265 1029.1217,-589.0311 1029.1217,-589.0311 1029.1217,-589.0311 1025.1423,-588.6265 1029.4859,-585.4495 1021.1628,-588.2218 1021.1628,-588.2218"/>
<ellipse fill="none" stroke="#000000" cx="1017.9792" cy="-587.8981" rx="3.2" ry="3.2"/>
</g>
<!-- job_request_application&#45;&gt;supplier -->
<g id="edge28" class="edge">
<title>job_request_application:w&#45;&gt;supplier:e</title>
<path fill="none" stroke="#000000" d="M1014.4199,-655.3345C906.3007,-659.8821 879.7164,-714.0311 764.1217,-714.0311"/>
<polygon fill="#000000" stroke="#000000" points="1021.1234,-655.1962 1029.196,-658.6303 1025.1226,-655.1136 1029.1217,-655.0311 1029.1217,-655.0311 1029.1217,-655.0311 1025.1226,-655.1136 1029.0474,-651.4319 1021.1234,-655.1962 1021.1234,-655.1962"/>
<ellipse fill="none" stroke="#000000" cx="1017.9241" cy="-655.2622" rx="3.2" ry="3.2"/>
</g>
<!-- job_request_application&#45;&gt;principal -->
<g id="edge26" class="edge">
<title>job_request_application:w&#45;&gt;principal:e</title>
<path fill="none" stroke="#000000" d="M1015.1492,-724.5899C994.8405,-738.489 1018.9194,-789.3617 987.6217,-810.0311 922.685,-852.9162 365.4415,-833.0311 287.6217,-833.0311"/>
<polygon fill="#000000" stroke="#000000" points="1021.3692,-723.0057 1030.0103,-724.5197 1025.2455,-722.0184 1029.1217,-721.0311 1029.1217,-721.0311 1029.1217,-721.0311 1025.2455,-722.0184 1028.2332,-717.5425 1021.3692,-723.0057 1021.3692,-723.0057"/>
<ellipse fill="none" stroke="#000000" cx="1018.2682" cy="-723.7955" rx="3.2" ry="3.2"/>
</g>
<!-- job_request_application&#45;&gt;principal -->
<g id="edge27" class="edge">
<title>job_request_application:w&#45;&gt;principal:e</title>
<path fill="none" stroke="#000000" d="M1014.5437,-699.2815C919.3477,-702.636 895.161,-738.8902 794.6217,-759.0311 738.8006,-770.2137 344.552,-833.0311 287.6217,-833.0311"/>
<polygon fill="#000000" stroke="#000000" points="1021.1229,-699.1685 1029.1836,-702.6306 1025.1223,-699.0998 1029.1217,-699.0311 1029.1217,-699.0311 1029.1217,-699.0311 1025.1223,-699.0998 1029.0599,-695.4316 1021.1229,-699.1685 1021.1229,-699.1685"/>
<ellipse fill="none" stroke="#000000" cx="1017.9234" cy="-699.2235" rx="3.2" ry="3.2"/>
</g>
<!-- job_request_application_document -->
<g id="node12" class="node">
<title>job_request_application_document</title>
<g id="a_node12"><a xlink:href="../../tables/job_request_application_document.html" xlink:title="job_request_application_document" target="_top">
<polygon fill="#ffffff" stroke="transparent" points="1236.6217,-384.0311 1236.6217,-470.0311 1459.6217,-470.0311 1459.6217,-384.0311 1236.6217,-384.0311"/>
<polygon fill="#f5f5f5" stroke="transparent" points="1237.1217,-447.0311 1237.1217,-470.0311 1460.1217,-470.0311 1460.1217,-447.0311 1237.1217,-447.0311"/>
<polygon fill="none" stroke="#000000" points="1237.1217,-447.0311 1237.1217,-470.0311 1460.1217,-470.0311 1460.1217,-447.0311 1237.1217,-447.0311"/>
<text text-anchor="start" x="1242.1217" y="-456.1311" font-family="Helvetica,sans-Serif" font-weight="bold" font-size="11.00" fill="#000000">job_request_application_document</text>
<text text-anchor="start" x="1425.1654" y="-455.1311" font-family="Helvetica,sans-Serif" font-size="11.00" fill="#000000">[table]</text>
<polygon fill="#ffffff" stroke="transparent" points="1237.1217,-425.0311 1237.1217,-447.0311 1460.1217,-447.0311 1460.1217,-425.0311 1237.1217,-425.0311"/>
<polygon fill="none" stroke="#000000" points="1237.1217,-425.0311 1237.1217,-447.0311 1460.1217,-447.0311 1460.1217,-425.0311 1237.1217,-425.0311"/>
<image xlink:href="../../images/foreignKeys.png" width="11px" height="12px" preserveAspectRatio="xMinYMin meet" x="1242.12" y="-442.031"/>
<text text-anchor="start" x="1257.1217" y="-432.1311" font-family="Helvetica,sans-Serif" font-size="11.00" fill="#000000">job_request_application_id</text>
<polygon fill="#ffffff" stroke="transparent" points="1237.1217,-403.0311 1237.1217,-425.0311 1460.1217,-425.0311 1460.1217,-403.0311 1237.1217,-403.0311"/>
<polygon fill="none" stroke="#000000" points="1237.1217,-403.0311 1237.1217,-425.0311 1460.1217,-425.0311 1460.1217,-403.0311 1237.1217,-403.0311"/>
<image xlink:href="../../images/foreignKeys.png" width="11px" height="12px" preserveAspectRatio="xMinYMin meet" x="1242.12" y="-420.031"/>
<text text-anchor="start" x="1257.1217" y="-410.1311" font-family="Helvetica,sans-Serif" font-size="11.00" fill="#000000">file_id</text>
<polygon fill="#ffffff" stroke="transparent" points="1237.1217,-384.0311 1237.1217,-403.0311 1331.1217,-403.0311 1331.1217,-384.0311 1237.1217,-384.0311"/>
<polygon fill="none" stroke="#000000" points="1237.1217,-384.0311 1237.1217,-403.0311 1331.1217,-403.0311 1331.1217,-384.0311 1237.1217,-384.0311"/>
<text text-anchor="start" x="1240.1217" y="-390.1311" font-family="Helvetica,sans-Serif" font-size="11.00" fill="#000000">&lt; 2</text>
<polygon fill="#ffffff" stroke="transparent" points="1331.1217,-384.0311 1331.1217,-403.0311 1411.1217,-403.0311 1411.1217,-384.0311 1331.1217,-384.0311"/>
<polygon fill="none" stroke="#000000" points="1331.1217,-384.0311 1331.1217,-403.0311 1411.1217,-403.0311 1411.1217,-384.0311 1331.1217,-384.0311"/>
<text text-anchor="start" x="1369.6173" y="-390.1311" font-family="Helvetica,sans-Serif" font-size="11.00" fill="#000000">57 rows</text>
<polygon fill="#ffffff" stroke="transparent" points="1411.1217,-384.0311 1411.1217,-403.0311 1460.1217,-403.0311 1460.1217,-384.0311 1411.1217,-384.0311"/>
<polygon fill="none" stroke="#000000" points="1411.1217,-384.0311 1411.1217,-403.0311 1460.1217,-403.0311 1460.1217,-384.0311 1411.1217,-384.0311"/>
<text text-anchor="start" x="1451.0079" y="-390.1311" font-family="Helvetica,sans-Serif" font-size="11.00" fill="#000000"> &#160;</text>
</a>
</g>
</g>
<!-- job_request_application_document&#45;&gt;file -->
<g id="edge29" class="edge">
<title>job_request_application_document:w&#45;&gt;file:e</title>
<path fill="none" stroke="#000000" d="M1222.7937,-411.7414C1187.8708,-397.9929 1232.2441,-325.6658 1195.6217,-286.0311 1002.613,-77.147 793.8044,64.7661 577.6217,-120.0311 530.9387,-159.9366 596.0363,-393.0311 534.6217,-393.0311"/>
<polygon fill="#000000" stroke="#000000" points="1229.222,-412.7686 1236.5536,-417.586 1233.1719,-413.3998 1237.1217,-414.0311 1237.1217,-414.0311 1237.1217,-414.0311 1233.1719,-413.3998 1237.6899,-410.4762 1229.222,-412.7686 1229.222,-412.7686"/>
<ellipse fill="none" stroke="#000000" cx="1226.0621" cy="-412.2636" rx="3.2" ry="3.2"/>
</g>
<!-- job_request_application_document&#45;&gt;job_request_application -->
<g id="edge30" class="edge">
<title>job_request_application_document:w&#45;&gt;job_request_application:e</title>
<path fill="none" stroke="#000000" d="M1222.5594,-437.3998C1116.1537,-459.547 1320.8959,-743.0311 1188.1217,-743.0311"/>
<polygon fill="#000000" stroke="#000000" points="1229.1568,-436.7798 1237.4586,-439.6153 1233.1393,-436.4054 1237.1217,-436.0311 1237.1217,-436.0311 1237.1217,-436.0311 1233.1393,-436.4054 1236.7848,-432.4469 1229.1568,-436.7798 1229.1568,-436.7798"/>
<ellipse fill="none" stroke="#000000" cx="1225.9709" cy="-437.0792" rx="3.2" ry="3.2"/>
</g>
<!-- job_request_attachment -->
<g id="node13" class="node">
<title>job_request_attachment</title>
<g id="a_node13"><a xlink:href="../../tables/job_request_attachment.html" xlink:title="job_request_attachment" target="_top">
<polygon fill="#ffffff" stroke="transparent" points="606.1217,-363.0311 606.1217,-449.0311 766.1217,-449.0311 766.1217,-363.0311 606.1217,-363.0311"/>
<polygon fill="#f5f5f5" stroke="transparent" points="606.1217,-426.0311 606.1217,-449.0311 766.1217,-449.0311 766.1217,-426.0311 606.1217,-426.0311"/>
<polygon fill="none" stroke="#000000" points="606.1217,-426.0311 606.1217,-449.0311 766.1217,-449.0311 766.1217,-426.0311 606.1217,-426.0311"/>
<text text-anchor="start" x="610.6287" y="-435.1311" font-family="Helvetica,sans-Serif" font-weight="bold" font-size="11.00" fill="#000000">job_request_attachment</text>
<text text-anchor="start" x="731.6436" y="-434.1311" font-family="Helvetica,sans-Serif" font-size="11.00" fill="#000000">[table]</text>
<polygon fill="none" stroke="#000000" points="606.1217,-404.0311 606.1217,-426.0311 766.1217,-426.0311 766.1217,-404.0311 606.1217,-404.0311"/>
<image xlink:href="../../images/primaryKeys.png" width="11px" height="12px" preserveAspectRatio="xMinYMin meet" x="611.122" y="-421.031"/>
<text text-anchor="start" x="627.1217" y="-411.1311" font-family="Helvetica,sans-Serif" font-size="11.00" fill="#000000">job_request_id</text>
<polygon fill="none" stroke="#000000" points="606.1217,-382.0311 606.1217,-404.0311 766.1217,-404.0311 766.1217,-382.0311 606.1217,-382.0311"/>
<image xlink:href="../../images/primaryKeys.png" width="11px" height="12px" preserveAspectRatio="xMinYMin meet" x="611.122" y="-399.031"/>
<text text-anchor="start" x="627.1217" y="-389.1311" font-family="Helvetica,sans-Serif" font-size="11.00" fill="#000000">file_id</text>
<polygon fill="#ffffff" stroke="transparent" points="606.1217,-363.0311 606.1217,-382.0311 671.1217,-382.0311 671.1217,-363.0311 606.1217,-363.0311"/>
<polygon fill="none" stroke="#000000" points="606.1217,-363.0311 606.1217,-382.0311 671.1217,-382.0311 671.1217,-363.0311 606.1217,-363.0311"/>
<text text-anchor="start" x="609.1217" y="-369.1311" font-family="Helvetica,sans-Serif" font-size="11.00" fill="#000000">&lt; 2</text>
<polygon fill="#ffffff" stroke="transparent" points="671.1217,-363.0311 671.1217,-382.0311 731.1217,-382.0311 731.1217,-363.0311 671.1217,-363.0311"/>
<polygon fill="none" stroke="#000000" points="671.1217,-363.0311 671.1217,-382.0311 731.1217,-382.0311 731.1217,-363.0311 671.1217,-363.0311"/>
<text text-anchor="start" x="695.7322" y="-369.1311" font-family="Helvetica,sans-Serif" font-size="11.00" fill="#000000">4 rows</text>
<polygon fill="#ffffff" stroke="transparent" points="731.1217,-363.0311 731.1217,-382.0311 766.1217,-382.0311 766.1217,-363.0311 731.1217,-363.0311"/>
<polygon fill="none" stroke="#000000" points="731.1217,-363.0311 731.1217,-382.0311 766.1217,-382.0311 766.1217,-363.0311 731.1217,-363.0311"/>
<text text-anchor="start" x="757.0079" y="-369.1311" font-family="Helvetica,sans-Serif" font-size="11.00" fill="#000000"> &#160;</text>
</a>
</g>
</g>
<!-- job_request_attachment&#45;&gt;file -->
<g id="edge31" class="edge">
<title>job_request_attachment:w&#45;&gt;file:e</title>
<path fill="none" stroke="#000000" d="M591.6065,-393.0311C570.909,-393.0311 560.9377,-393.0311 534.6217,-393.0311"/>
<polygon fill="#000000" stroke="#000000" points="598.1217,-393.0311 606.1218,-396.6311 602.1217,-393.0311 606.1217,-393.0311 606.1217,-393.0311 606.1217,-393.0311 602.1217,-393.0311 606.1217,-389.4311 598.1217,-393.0311 598.1217,-393.0311"/>
<ellipse fill="none" stroke="#000000" cx="594.9217" cy="-393.0312" rx="3.2" ry="3.2"/>
</g>
</g>
</svg>
