<?xml version="1.0" encoding="UTF-8" standalone="no"?>
<!DOCTYPE svg PUBLIC "-//W3C//DTD SVG 1.1//EN"
 "http://www.w3.org/Graphics/SVG/1.1/DTD/svg11.dtd">
<!-- Generated by graphviz version 2.40.1 (20161225.0304)
 -->
<!-- Title: oneDegreeRelationshipsDiagram Pages: 1 -->
<svg width="411pt" height="182pt"
 viewBox="0.00 0.00 411.00 182.20" xmlns="http://www.w3.org/2000/svg" xmlns:xlink="http://www.w3.org/1999/xlink">
<g id="graph0" class="graph" transform="scale(1 1) rotate(0) translate(4 178.2)">
<title>oneDegreeRelationshipsDiagram</title>
<polygon fill="#ffffff" stroke="transparent" points="-4,4 -4,-178.2 407,-178.2 407,4 -4,4"/>
<text text-anchor="middle" x="72.4936" y="-7.3" font-family="Helvetica,sans-Serif" font-size="11.00" fill="#000000">Generated by SchemaSpy</text>
<!-- feedback_interview_time -->
<g id="node1" class="node">
<title>feedback_interview_time</title>
<g id="a_node1"><a xlink:href="../../tables/feedback_interview_time.html" xlink:title="feedback_interview_time" target="_top">
<polygon fill="#ffffff" stroke="transparent" points="231,-84.2 231,-170.2 395,-170.2 395,-84.2 231,-84.2"/>
<polygon fill="#f5f5f5" stroke="transparent" points="231,-147.2 231,-170.2 395,-170.2 395,-147.2 231,-147.2"/>
<polygon fill="none" stroke="#000000" points="231,-147.2 231,-170.2 395,-170.2 395,-147.2 231,-147.2"/>
<text text-anchor="start" x="235.989" y="-156.3" font-family="Helvetica,sans-Serif" font-weight="bold" font-size="11.00" fill="#000000">feedback_interview_time</text>
<text text-anchor="start" x="360.5219" y="-155.3" font-family="Helvetica,sans-Serif" font-size="11.00" fill="#000000">[table]</text>
<polygon fill="#ffffff" stroke="transparent" points="231,-125.2 231,-147.2 395,-147.2 395,-125.2 231,-125.2"/>
<polygon fill="none" stroke="#000000" points="231,-125.2 231,-147.2 395,-147.2 395,-125.2 231,-125.2"/>
<image xlink:href="../../images/foreignKeys.png" width="11px" height="12px" preserveAspectRatio="xMinYMin meet" x="236" y="-142.2"/>
<text text-anchor="start" x="252" y="-132.3" font-family="Helvetica,sans-Serif" font-size="11.00" fill="#000000">feedback_id</text>
<polygon fill="#ffffff" stroke="transparent" points="231,-103.2 231,-125.2 395,-125.2 395,-103.2 231,-103.2"/>
<polygon fill="none" stroke="#000000" points="231,-103.2 231,-125.2 395,-125.2 395,-103.2 231,-103.2"/>
<image xlink:href="../../images/foreignKeys.png" width="11px" height="12px" preserveAspectRatio="xMinYMin meet" x="236" y="-120.2"/>
<text text-anchor="start" x="252" y="-110.3" font-family="Helvetica,sans-Serif" font-size="11.00" fill="#000000">interview_time_id</text>
<polygon fill="#ffffff" stroke="transparent" points="231,-84.2 231,-103.2 292,-103.2 292,-84.2 231,-84.2"/>
<polygon fill="none" stroke="#000000" points="231,-84.2 231,-103.2 292,-103.2 292,-84.2 231,-84.2"/>
<text text-anchor="start" x="234" y="-90.3" font-family="Helvetica,sans-Serif" font-size="11.00" fill="#000000">&lt; 2</text>
<polygon fill="#ffffff" stroke="transparent" points="292,-84.2 292,-103.2 362,-103.2 362,-84.2 292,-84.2"/>
<polygon fill="none" stroke="#000000" points="292,-84.2 292,-103.2 362,-103.2 362,-84.2 292,-84.2"/>
<text text-anchor="start" x="314.3807" y="-90.3" font-family="Helvetica,sans-Serif" font-size="11.00" fill="#000000">120 rows</text>
<polygon fill="#ffffff" stroke="transparent" points="362,-84.2 362,-103.2 395,-103.2 395,-84.2 362,-84.2"/>
<polygon fill="none" stroke="#000000" points="362,-84.2 362,-103.2 395,-103.2 395,-84.2 362,-84.2"/>
<text text-anchor="start" x="385.8862" y="-90.3" font-family="Helvetica,sans-Serif" font-size="11.00" fill="#000000"> &#160;</text>
</a>
</g>
</g>
<!-- interview_time -->
<g id="node2" class="node">
<title>interview_time</title>
<g id="a_node2"><a xlink:href="../../tables/interview_time.html" xlink:title="interview_time" target="_top">
<polygon fill="#ffffff" stroke="transparent" points="8,-38.2 8,-150.2 182,-150.2 182,-38.2 8,-38.2"/>
<polygon fill="#f5f5f5" stroke="transparent" points="10,-125.2 10,-148.2 180,-148.2 180,-125.2 10,-125.2"/>
<polygon fill="none" stroke="#000000" points="10,-125.2 10,-148.2 180,-148.2 180,-125.2 10,-125.2"/>
<text text-anchor="start" x="15" y="-134.3" font-family="Helvetica,sans-Serif" font-weight="bold" font-size="11.00" fill="#000000">interview_time</text>
<text text-anchor="start" x="145.0437" y="-133.3" font-family="Helvetica,sans-Serif" font-size="11.00" fill="#000000">[table]</text>
<polygon fill="none" stroke="#000000" points="10,-103.2 10,-125.2 114,-125.2 114,-103.2 10,-103.2"/>
<image xlink:href="../../images/primaryKeys.png" width="11px" height="12px" preserveAspectRatio="xMinYMin meet" x="15" y="-120.2"/>
<text text-anchor="start" x="30" y="-110.3" font-family="Helvetica,sans-Serif" font-size="11.00" fill="#000000">id</text>
<polygon fill="none" stroke="#000000" points="114,-103.2 114,-125.2 180,-125.2 180,-103.2 114,-103.2"/>
<text text-anchor="start" x="117" y="-110.9" font-family="Helvetica,sans-Serif" font-size="11.00" fill="#000000">bigint[19]</text>
<polygon fill="none" stroke="#000000" points="10,-81.2 10,-103.2 114,-103.2 114,-81.2 10,-81.2"/>
<text text-anchor="start" x="30" y="-88.3" font-family="Helvetica,sans-Serif" font-size="11.00" fill="#000000">date_from</text>
<polygon fill="none" stroke="#000000" points="114,-81.2 114,-103.2 180,-103.2 180,-81.2 114,-81.2"/>
<text text-anchor="start" x="116.7401" y="-88.9" font-family="Helvetica,sans-Serif" font-size="11.00" fill="#000000">datetime[26]</text>
<polygon fill="none" stroke="#000000" points="10,-59.2 10,-81.2 114,-81.2 114,-59.2 10,-59.2"/>
<text text-anchor="start" x="30" y="-66.3" font-family="Helvetica,sans-Serif" font-size="11.00" fill="#000000">date_to</text>
<polygon fill="none" stroke="#000000" points="114,-59.2 114,-81.2 180,-81.2 180,-59.2 114,-59.2"/>
<text text-anchor="start" x="116.7401" y="-66.9" font-family="Helvetica,sans-Serif" font-size="11.00" fill="#000000">datetime[26]</text>
<polygon fill="#ffffff" stroke="transparent" points="10,-40.2 10,-59.2 47,-59.2 47,-40.2 10,-40.2"/>
<polygon fill="none" stroke="#000000" points="10,-40.2 10,-59.2 47,-59.2 47,-40.2 10,-40.2"/>
<text text-anchor="start" x="13" y="-46.3" font-family="Helvetica,sans-Serif" font-size="11.00" fill="#000000">&lt; 0</text>
<polygon fill="#ffffff" stroke="transparent" points="47,-40.2 47,-59.2 114,-59.2 114,-40.2 47,-40.2"/>
<polygon fill="none" stroke="#000000" points="47,-40.2 47,-59.2 114,-59.2 114,-40.2 47,-40.2"/>
<text text-anchor="start" x="66.3807" y="-46.3" font-family="Helvetica,sans-Serif" font-size="11.00" fill="#000000">120 rows</text>
<polygon fill="#ffffff" stroke="transparent" points="114,-40.2 114,-59.2 180,-59.2 180,-40.2 114,-40.2"/>
<polygon fill="none" stroke="#000000" points="114,-40.2 114,-59.2 180,-59.2 180,-40.2 114,-40.2"/>
<text text-anchor="start" x="161.4053" y="-46.3" font-family="Helvetica,sans-Serif" font-size="11.00" fill="#000000">1 &gt;</text>
<polygon fill="none" stroke="#000000" stroke-width="2" points="9,-39.2 9,-149.2 181,-149.2 181,-39.2 9,-39.2"/>
</a>
</g>
</g>
<!-- feedback_interview_time&#45;&gt;interview_time -->
<g id="edge1" class="edge">
<title>feedback_interview_time:w&#45;&gt;interview_time:e</title>
<path fill="none" stroke="#000000" d="M216.276,-114.2C204.2815,-114.2 196.8229,-114.2 180,-114.2"/>
<polygon fill="#000000" stroke="#000000" points="223,-114.2001 231,-117.8 227,-114.2 231,-114.2 231,-114.2 231,-114.2 227,-114.2 231,-110.6 223,-114.2001 223,-114.2001"/>
<ellipse fill="none" stroke="#000000" cx="219.8" cy="-114.2001" rx="3.2" ry="3.2"/>
</g>
</g>
</svg>
