<?xml version="1.0" encoding="UTF-8" standalone="no"?>
<!DOCTYPE svg PUBLIC "-//W3C//DTD SVG 1.1//EN"
 "http://www.w3.org/Graphics/SVG/1.1/DTD/svg11.dtd">
<!-- Generated by graphviz version 2.40.1 (20161225.0304)
 -->
<!-- Title: twoDegreesRelationshipsDiagram Pages: 1 -->
<svg width="411pt" height="245pt"
 viewBox="0.00 0.00 411.00 244.70" xmlns="http://www.w3.org/2000/svg" xmlns:xlink="http://www.w3.org/1999/xlink">
<g id="graph0" class="graph" transform="scale(1 1) rotate(0) translate(4 240.7)">
<title>twoDegreesRelationshipsDiagram</title>
<polygon fill="#ffffff" stroke="transparent" points="-4,4 -4,-240.7 407,-240.7 407,4 -4,4"/>
<text text-anchor="middle" x="72.4936" y="-7.3" font-family="Helvetica,sans-Serif" font-size="11.00" fill="#000000">Generated by SchemaSpy</text>
<!-- feedback_interview_time -->
<g id="node1" class="node">
<title>feedback_interview_time</title>
<g id="a_node1"><a xlink:href="../../tables/feedback_interview_time.html" xlink:title="feedback_interview_time" target="_top">
<polygon fill="#ffffff" stroke="transparent" points="231,-115.2 231,-201.2 395,-201.2 395,-115.2 231,-115.2"/>
<polygon fill="#f5f5f5" stroke="transparent" points="231,-178.2 231,-201.2 395,-201.2 395,-178.2 231,-178.2"/>
<polygon fill="none" stroke="#000000" points="231,-178.2 231,-201.2 395,-201.2 395,-178.2 231,-178.2"/>
<text text-anchor="start" x="235.989" y="-187.3" font-family="Helvetica,sans-Serif" font-weight="bold" font-size="11.00" fill="#000000">feedback_interview_time</text>
<text text-anchor="start" x="360.5219" y="-186.3" font-family="Helvetica,sans-Serif" font-size="11.00" fill="#000000">[table]</text>
<polygon fill="#ffffff" stroke="transparent" points="231,-156.2 231,-178.2 395,-178.2 395,-156.2 231,-156.2"/>
<polygon fill="none" stroke="#000000" points="231,-156.2 231,-178.2 395,-178.2 395,-156.2 231,-156.2"/>
<image xlink:href="../../images/foreignKeys.png" width="11px" height="12px" preserveAspectRatio="xMinYMin meet" x="236" y="-173.2"/>
<text text-anchor="start" x="252" y="-163.3" font-family="Helvetica,sans-Serif" font-size="11.00" fill="#000000">feedback_id</text>
<polygon fill="#ffffff" stroke="transparent" points="231,-134.2 231,-156.2 395,-156.2 395,-134.2 231,-134.2"/>
<polygon fill="none" stroke="#000000" points="231,-134.2 231,-156.2 395,-156.2 395,-134.2 231,-134.2"/>
<image xlink:href="../../images/foreignKeys.png" width="11px" height="12px" preserveAspectRatio="xMinYMin meet" x="236" y="-151.2"/>
<text text-anchor="start" x="252" y="-141.3" font-family="Helvetica,sans-Serif" font-size="11.00" fill="#000000">interview_time_id</text>
<polygon fill="#ffffff" stroke="transparent" points="231,-115.2 231,-134.2 292,-134.2 292,-115.2 231,-115.2"/>
<polygon fill="none" stroke="#000000" points="231,-115.2 231,-134.2 292,-134.2 292,-115.2 231,-115.2"/>
<text text-anchor="start" x="234" y="-121.3" font-family="Helvetica,sans-Serif" font-size="11.00" fill="#000000">&lt; 2</text>
<polygon fill="#ffffff" stroke="transparent" points="292,-115.2 292,-134.2 362,-134.2 362,-115.2 292,-115.2"/>
<polygon fill="none" stroke="#000000" points="292,-115.2 292,-134.2 362,-134.2 362,-115.2 292,-115.2"/>
<text text-anchor="start" x="314.3807" y="-121.3" font-family="Helvetica,sans-Serif" font-size="11.00" fill="#000000">120 rows</text>
<polygon fill="#ffffff" stroke="transparent" points="362,-115.2 362,-134.2 395,-134.2 395,-115.2 362,-115.2"/>
<polygon fill="none" stroke="#000000" points="362,-115.2 362,-134.2 395,-134.2 395,-115.2 362,-115.2"/>
<text text-anchor="start" x="385.8862" y="-121.3" font-family="Helvetica,sans-Serif" font-size="11.00" fill="#000000"> &#160;</text>
</a>
</g>
</g>
<!-- feedback -->
<g id="node2" class="node">
<title>feedback</title>
<g id="a_node2"><a xlink:href="../../tables/feedback.html" xlink:title="feedback" target="_top">
<polygon fill="#ffffff" stroke="transparent" points="51.5,-171.7 51.5,-232.7 138.5,-232.7 138.5,-171.7 51.5,-171.7"/>
<polygon fill="#f5f5f5" stroke="transparent" points="52,-209.2 52,-232.2 139,-232.2 139,-209.2 52,-209.2"/>
<polygon fill="none" stroke="#000000" points="52,-209.2 52,-232.2 139,-232.2 139,-209.2 52,-209.2"/>
<text text-anchor="start" x="56.6843" y="-218.3" font-family="Helvetica,sans-Serif" font-weight="bold" font-size="11.00" fill="#000000">feedback</text>
<text text-anchor="start" x="104.5219" y="-217.3" font-family="Helvetica,sans-Serif" font-size="11.00" fill="#000000">[table]</text>
<polygon fill="none" stroke="#000000" points="52,-190.2 52,-209.2 139,-209.2 139,-190.2 52,-190.2"/>
<text text-anchor="start" x="55" y="-196.3" font-family="Helvetica,sans-Serif" font-size="11.00" fill="#000000">...</text>
<polygon fill="#ffffff" stroke="transparent" points="52,-171.2 52,-190.2 73,-190.2 73,-171.2 52,-171.2"/>
<polygon fill="none" stroke="#000000" points="52,-171.2 52,-190.2 73,-190.2 73,-171.2 52,-171.2"/>
<text text-anchor="start" x="54.7027" y="-177.3" font-family="Helvetica,sans-Serif" font-size="11.00" fill="#000000">&lt; 1</text>
<polygon fill="#ffffff" stroke="transparent" points="73,-171.2 73,-190.2 117,-190.2 117,-171.2 73,-171.2"/>
<polygon fill="none" stroke="#000000" points="73,-171.2 73,-190.2 117,-190.2 117,-171.2 73,-171.2"/>
<text text-anchor="start" x="75.7478" y="-177.3" font-family="Helvetica,sans-Serif" font-size="11.00" fill="#000000">60 rows</text>
<polygon fill="#ffffff" stroke="transparent" points="117,-171.2 117,-190.2 139,-190.2 139,-171.2 117,-171.2"/>
<polygon fill="none" stroke="#000000" points="117,-171.2 117,-190.2 139,-190.2 139,-171.2 117,-171.2"/>
<text text-anchor="start" x="120.4053" y="-177.3" font-family="Helvetica,sans-Serif" font-size="11.00" fill="#000000">1 &gt;</text>
</a>
</g>
</g>
<!-- feedback_interview_time&#45;&gt;feedback -->
<g id="edge1" class="edge">
<title>feedback_interview_time:w&#45;&gt;feedback:e</title>
<path fill="none" stroke="#000000" d="M216.3931,-168.575C185.7623,-174.7 176.8803,-199.2 139,-199.2"/>
<polygon fill="#000000" stroke="#000000" points="223.0352,-167.9498 231.3374,-170.7842 227.0176,-167.5749 231,-167.2 231,-167.2 231,-167.2 227.0176,-167.5749 230.6626,-163.6158 223.0352,-167.9498 223.0352,-167.9498"/>
<ellipse fill="none" stroke="#000000" cx="219.8493" cy="-168.2497" rx="3.2" ry="3.2"/>
</g>
<!-- interview_time -->
<g id="node3" class="node">
<title>interview_time</title>
<g id="a_node3"><a xlink:href="../../tables/interview_time.html" xlink:title="interview_time" target="_top">
<polygon fill="#ffffff" stroke="transparent" points="8,-38.2 8,-150.2 182,-150.2 182,-38.2 8,-38.2"/>
<polygon fill="#f5f5f5" stroke="transparent" points="10,-125.2 10,-148.2 180,-148.2 180,-125.2 10,-125.2"/>
<polygon fill="none" stroke="#000000" points="10,-125.2 10,-148.2 180,-148.2 180,-125.2 10,-125.2"/>
<text text-anchor="start" x="15" y="-134.3" font-family="Helvetica,sans-Serif" font-weight="bold" font-size="11.00" fill="#000000">interview_time</text>
<text text-anchor="start" x="145.0437" y="-133.3" font-family="Helvetica,sans-Serif" font-size="11.00" fill="#000000">[table]</text>
<polygon fill="none" stroke="#000000" points="10,-103.2 10,-125.2 114,-125.2 114,-103.2 10,-103.2"/>
<image xlink:href="../../images/primaryKeys.png" width="11px" height="12px" preserveAspectRatio="xMinYMin meet" x="15" y="-120.2"/>
<text text-anchor="start" x="30" y="-110.3" font-family="Helvetica,sans-Serif" font-size="11.00" fill="#000000">id</text>
<polygon fill="none" stroke="#000000" points="114,-103.2 114,-125.2 180,-125.2 180,-103.2 114,-103.2"/>
<text text-anchor="start" x="117" y="-110.9" font-family="Helvetica,sans-Serif" font-size="11.00" fill="#000000">bigint[19]</text>
<polygon fill="none" stroke="#000000" points="10,-81.2 10,-103.2 114,-103.2 114,-81.2 10,-81.2"/>
<text text-anchor="start" x="30" y="-88.3" font-family="Helvetica,sans-Serif" font-size="11.00" fill="#000000">date_from</text>
<polygon fill="none" stroke="#000000" points="114,-81.2 114,-103.2 180,-103.2 180,-81.2 114,-81.2"/>
<text text-anchor="start" x="116.7401" y="-88.9" font-family="Helvetica,sans-Serif" font-size="11.00" fill="#000000">datetime[26]</text>
<polygon fill="none" stroke="#000000" points="10,-59.2 10,-81.2 114,-81.2 114,-59.2 10,-59.2"/>
<text text-anchor="start" x="30" y="-66.3" font-family="Helvetica,sans-Serif" font-size="11.00" fill="#000000">date_to</text>
<polygon fill="none" stroke="#000000" points="114,-59.2 114,-81.2 180,-81.2 180,-59.2 114,-59.2"/>
<text text-anchor="start" x="116.7401" y="-66.9" font-family="Helvetica,sans-Serif" font-size="11.00" fill="#000000">datetime[26]</text>
<polygon fill="#ffffff" stroke="transparent" points="10,-40.2 10,-59.2 47,-59.2 47,-40.2 10,-40.2"/>
<polygon fill="none" stroke="#000000" points="10,-40.2 10,-59.2 47,-59.2 47,-40.2 10,-40.2"/>
<text text-anchor="start" x="13" y="-46.3" font-family="Helvetica,sans-Serif" font-size="11.00" fill="#000000">&lt; 0</text>
<polygon fill="#ffffff" stroke="transparent" points="47,-40.2 47,-59.2 114,-59.2 114,-40.2 47,-40.2"/>
<polygon fill="none" stroke="#000000" points="47,-40.2 47,-59.2 114,-59.2 114,-40.2 47,-40.2"/>
<text text-anchor="start" x="66.3807" y="-46.3" font-family="Helvetica,sans-Serif" font-size="11.00" fill="#000000">120 rows</text>
<polygon fill="#ffffff" stroke="transparent" points="114,-40.2 114,-59.2 180,-59.2 180,-40.2 114,-40.2"/>
<polygon fill="none" stroke="#000000" points="114,-40.2 114,-59.2 180,-59.2 180,-40.2 114,-40.2"/>
<text text-anchor="start" x="161.4053" y="-46.3" font-family="Helvetica,sans-Serif" font-size="11.00" fill="#000000">1 &gt;</text>
<polygon fill="none" stroke="#000000" stroke-width="2" points="9,-39.2 9,-149.2 181,-149.2 181,-39.2 9,-39.2"/>
</a>
</g>
</g>
<!-- feedback_interview_time&#45;&gt;interview_time -->
<g id="edge2" class="edge">
<title>feedback_interview_time:w&#45;&gt;interview_time:e</title>
<path fill="none" stroke="#000000" d="M217.0967,-141.3988C204.0044,-133.1209 200.7231,-114.2 180,-114.2"/>
<polygon fill="#000000" stroke="#000000" points="223.2832,-143.0902 230.0506,-148.6726 227.1416,-144.1451 231,-145.2 231,-145.2 231,-145.2 227.1416,-144.1451 231.9494,-141.7274 223.2832,-143.0902 223.2832,-143.0902"/>
<ellipse fill="none" stroke="#000000" cx="220.1965" cy="-142.2462" rx="3.2" ry="3.2"/>
</g>
</g>
</svg>
