<?xml version="1.0" encoding="UTF-8" standalone="no"?>
<!DOCTYPE svg PUBLIC "-//W3C//DTD SVG 1.1//EN"
 "http://www.w3.org/Graphics/SVG/1.1/DTD/svg11.dtd">
<!-- Generated by graphviz version 2.40.1 (20161225.0304)
 -->
<!-- Title: oneDegreeRelationshipsDiagram Pages: 1 -->
<svg width="583pt" height="558pt"
 viewBox="0.00 0.00 583.00 557.70" xmlns="http://www.w3.org/2000/svg" xmlns:xlink="http://www.w3.org/1999/xlink">
<g id="graph0" class="graph" transform="scale(1 1) rotate(0) translate(4 553.7)">
<title>oneDegreeRelationshipsDiagram</title>
<polygon fill="#ffffff" stroke="transparent" points="-4,4 -4,-553.7 579,-553.7 579,4 -4,4"/>
<text text-anchor="middle" x="72.4936" y="-7.3" font-family="Helvetica,sans-Serif" font-size="11.00" fill="#000000">Generated by SchemaSpy</text>
<!-- invitation -->
<g id="node1" class="node">
<title>invitation</title>
<g id="a_node1"><a xlink:href="../../tables/invitation.html" xlink:title="invitation" target="_top">
<polygon fill="#ffffff" stroke="transparent" points="180,-140.7 180,-494.7 378,-494.7 378,-140.7 180,-140.7"/>
<polygon fill="#f5f5f5" stroke="transparent" points="182,-469.7 182,-492.7 376,-492.7 376,-469.7 182,-469.7"/>
<polygon fill="none" stroke="#000000" points="182,-469.7 182,-492.7 376,-492.7 376,-469.7 182,-469.7"/>
<text text-anchor="start" x="187" y="-478.8" font-family="Helvetica,sans-Serif" font-weight="bold" font-size="11.00" fill="#000000">invitation</text>
<text text-anchor="start" x="341.0437" y="-477.8" font-family="Helvetica,sans-Serif" font-size="11.00" fill="#000000">[table]</text>
<polygon fill="none" stroke="#000000" points="182,-447.7 182,-469.7 309,-469.7 309,-447.7 182,-447.7"/>
<image xlink:href="../../images/primaryKeys.png" width="11px" height="12px" preserveAspectRatio="xMinYMin meet" x="187" y="-464.7"/>
<text text-anchor="start" x="202" y="-454.8" font-family="Helvetica,sans-Serif" font-size="11.00" fill="#000000">id</text>
<polygon fill="none" stroke="#000000" points="309,-447.7 309,-469.7 376,-469.7 376,-447.7 309,-447.7"/>
<text text-anchor="start" x="312" y="-455.4" font-family="Helvetica,sans-Serif" font-size="11.00" fill="#000000">bigint[19]</text>
<polygon fill="none" stroke="#000000" points="182,-425.7 182,-447.7 309,-447.7 309,-425.7 182,-425.7"/>
<text text-anchor="start" x="202" y="-432.8" font-family="Helvetica,sans-Serif" font-size="11.00" fill="#000000">created_by</text>
<polygon fill="none" stroke="#000000" points="309,-425.7 309,-447.7 376,-447.7 376,-425.7 309,-425.7"/>
<text text-anchor="start" x="312" y="-433.4" font-family="Helvetica,sans-Serif" font-size="11.00" fill="#000000">bigint[19]</text>
<polygon fill="none" stroke="#000000" points="182,-403.7 182,-425.7 309,-425.7 309,-403.7 182,-403.7"/>
<text text-anchor="start" x="202" y="-410.8" font-family="Helvetica,sans-Serif" font-size="11.00" fill="#000000">creation_date</text>
<polygon fill="none" stroke="#000000" points="309,-403.7 309,-425.7 376,-425.7 376,-403.7 309,-403.7"/>
<text text-anchor="start" x="312" y="-411.4" font-family="Helvetica,sans-Serif" font-size="11.00" fill="#000000">datetime[26]</text>
<polygon fill="none" stroke="#000000" points="182,-381.7 182,-403.7 309,-403.7 309,-381.7 182,-381.7"/>
<text text-anchor="start" x="202" y="-388.8" font-family="Helvetica,sans-Serif" font-size="11.00" fill="#000000">modified_by</text>
<polygon fill="none" stroke="#000000" points="309,-381.7 309,-403.7 376,-403.7 376,-381.7 309,-381.7"/>
<text text-anchor="start" x="312" y="-389.4" font-family="Helvetica,sans-Serif" font-size="11.00" fill="#000000">bigint[19]</text>
<polygon fill="none" stroke="#000000" points="182,-359.7 182,-381.7 309,-381.7 309,-359.7 182,-359.7"/>
<text text-anchor="start" x="202" y="-366.8" font-family="Helvetica,sans-Serif" font-size="11.00" fill="#000000">modification_date</text>
<polygon fill="none" stroke="#000000" points="309,-359.7 309,-381.7 376,-381.7 376,-359.7 309,-359.7"/>
<text text-anchor="start" x="312" y="-367.4" font-family="Helvetica,sans-Serif" font-size="11.00" fill="#000000">datetime[26]</text>
<polygon fill="none" stroke="#000000" points="182,-337.7 182,-359.7 309,-359.7 309,-337.7 182,-337.7"/>
<text text-anchor="start" x="202" y="-344.8" font-family="Helvetica,sans-Serif" font-size="11.00" fill="#000000">first_name</text>
<polygon fill="none" stroke="#000000" points="309,-337.7 309,-359.7 376,-359.7 376,-337.7 309,-337.7"/>
<text text-anchor="start" x="311.9365" y="-345.4" font-family="Helvetica,sans-Serif" font-size="11.00" fill="#000000">varchar[100]</text>
<polygon fill="none" stroke="#000000" points="182,-315.7 182,-337.7 309,-337.7 309,-315.7 182,-315.7"/>
<text text-anchor="start" x="202" y="-322.8" font-family="Helvetica,sans-Serif" font-size="11.00" fill="#000000">last_name</text>
<polygon fill="none" stroke="#000000" points="309,-315.7 309,-337.7 376,-337.7 376,-315.7 309,-315.7"/>
<text text-anchor="start" x="311.9365" y="-323.4" font-family="Helvetica,sans-Serif" font-size="11.00" fill="#000000">varchar[100]</text>
<polygon fill="none" stroke="#000000" points="182,-293.7 182,-315.7 309,-315.7 309,-293.7 182,-293.7"/>
<text text-anchor="start" x="202" y="-300.8" font-family="Helvetica,sans-Serif" font-size="11.00" fill="#000000">email</text>
<polygon fill="none" stroke="#000000" points="309,-293.7 309,-315.7 376,-315.7 376,-293.7 309,-293.7"/>
<text text-anchor="start" x="311.9365" y="-301.4" font-family="Helvetica,sans-Serif" font-size="11.00" fill="#000000">varchar[100]</text>
<polygon fill="none" stroke="#000000" points="182,-271.7 182,-293.7 309,-293.7 309,-271.7 182,-271.7"/>
<text text-anchor="start" x="202" y="-278.8" font-family="Helvetica,sans-Serif" font-size="11.00" fill="#000000">phone_number</text>
<polygon fill="none" stroke="#000000" points="309,-271.7 309,-293.7 376,-293.7 376,-271.7 309,-271.7"/>
<text text-anchor="start" x="312" y="-279.4" font-family="Helvetica,sans-Serif" font-size="11.00" fill="#000000">varchar[50]</text>
<polygon fill="none" stroke="#000000" points="182,-249.7 182,-271.7 309,-271.7 309,-249.7 182,-249.7"/>
<text text-anchor="start" x="202" y="-256.8" font-family="Helvetica,sans-Serif" font-size="11.00" fill="#000000">phone_code</text>
<polygon fill="none" stroke="#000000" points="309,-249.7 309,-271.7 376,-271.7 376,-249.7 309,-249.7"/>
<text text-anchor="start" x="312" y="-257.4" font-family="Helvetica,sans-Serif" font-size="11.00" fill="#000000">varchar[2]</text>
<polygon fill="none" stroke="#000000" points="182,-227.7 182,-249.7 309,-249.7 309,-227.7 182,-227.7"/>
<text text-anchor="start" x="202" y="-234.8" font-family="Helvetica,sans-Serif" font-size="11.00" fill="#000000">level</text>
<polygon fill="none" stroke="#000000" points="309,-227.7 309,-249.7 376,-249.7 376,-227.7 309,-227.7"/>
<text text-anchor="start" x="311.9365" y="-235.4" font-family="Helvetica,sans-Serif" font-size="11.00" fill="#000000">varchar[100]</text>
<polygon fill="#ffffff" stroke="transparent" points="182,-205.7 182,-227.7 309,-227.7 309,-205.7 182,-205.7"/>
<polygon fill="none" stroke="#000000" points="182,-205.7 182,-227.7 309,-227.7 309,-205.7 182,-205.7"/>
<image xlink:href="../../images/foreignKeys.png" width="11px" height="12px" preserveAspectRatio="xMinYMin meet" x="187" y="-222.7"/>
<text text-anchor="start" x="202" y="-212.8" font-family="Helvetica,sans-Serif" font-size="11.00" fill="#000000">location_id</text>
<polygon fill="none" stroke="#000000" points="309,-205.7 309,-227.7 376,-227.7 376,-205.7 309,-205.7"/>
<text text-anchor="start" x="312" y="-213.4" font-family="Helvetica,sans-Serif" font-size="11.00" fill="#000000">bigint[19]</text>
<polygon fill="#ffffff" stroke="transparent" points="182,-183.7 182,-205.7 309,-205.7 309,-183.7 182,-183.7"/>
<polygon fill="none" stroke="#000000" points="182,-183.7 182,-205.7 309,-205.7 309,-183.7 182,-183.7"/>
<image xlink:href="../../images/foreignKeys.png" width="11px" height="12px" preserveAspectRatio="xMinYMin meet" x="187" y="-200.7"/>
<text text-anchor="start" x="202" y="-190.8" font-family="Helvetica,sans-Serif" font-size="11.00" fill="#000000">role_id</text>
<polygon fill="none" stroke="#000000" points="309,-183.7 309,-205.7 376,-205.7 376,-183.7 309,-183.7"/>
<text text-anchor="start" x="312" y="-191.4" font-family="Helvetica,sans-Serif" font-size="11.00" fill="#000000">bigint[19]</text>
<polygon fill="#ffffff" stroke="transparent" points="182,-161.7 182,-183.7 309,-183.7 309,-161.7 182,-161.7"/>
<polygon fill="none" stroke="#000000" points="182,-161.7 182,-183.7 309,-183.7 309,-161.7 182,-161.7"/>
<image xlink:href="../../images/foreignKeys.png" width="11px" height="12px" preserveAspectRatio="xMinYMin meet" x="187" y="-178.7"/>
<text text-anchor="start" x="202" y="-168.8" font-family="Helvetica,sans-Serif" font-size="11.00" fill="#000000">contact_person_id</text>
<polygon fill="none" stroke="#000000" points="309,-161.7 309,-183.7 376,-183.7 376,-161.7 309,-161.7"/>
<text text-anchor="start" x="312" y="-169.4" font-family="Helvetica,sans-Serif" font-size="11.00" fill="#000000">bigint[19]</text>
<polygon fill="#ffffff" stroke="transparent" points="182,-142.7 182,-161.7 237,-161.7 237,-142.7 182,-142.7"/>
<polygon fill="none" stroke="#000000" points="182,-142.7 182,-161.7 237,-161.7 237,-142.7 182,-142.7"/>
<text text-anchor="start" x="185" y="-148.8" font-family="Helvetica,sans-Serif" font-size="11.00" fill="#000000">&lt; 3</text>
<polygon fill="#ffffff" stroke="transparent" points="237,-142.7 237,-161.7 309,-161.7 309,-142.7 237,-142.7"/>
<polygon fill="none" stroke="#000000" points="237,-142.7 237,-161.7 309,-161.7 309,-142.7 237,-142.7"/>
<text text-anchor="start" x="273.6105" y="-148.8" font-family="Helvetica,sans-Serif" font-size="11.00" fill="#000000">4 rows</text>
<polygon fill="#ffffff" stroke="transparent" points="309,-142.7 309,-161.7 376,-161.7 376,-142.7 309,-142.7"/>
<polygon fill="none" stroke="#000000" points="309,-142.7 309,-161.7 376,-161.7 376,-142.7 309,-142.7"/>
<text text-anchor="start" x="357.4053" y="-148.8" font-family="Helvetica,sans-Serif" font-size="11.00" fill="#000000">2 &gt;</text>
<polygon fill="none" stroke="#000000" stroke-width="2" points="181,-141.7 181,-493.7 377,-493.7 377,-141.7 181,-141.7"/>
</a>
</g>
</g>
<!-- contact_person -->
<g id="node2" class="node">
<title>contact_person</title>
<g id="a_node2"><a xlink:href="../../tables/contact_person.html" xlink:title="contact_person" target="_top">
<polygon fill="#ffffff" stroke="transparent" points="8,-38.2 8,-121.2 131,-121.2 131,-38.2 8,-38.2"/>
<polygon fill="#f5f5f5" stroke="transparent" points="8.5,-97.7 8.5,-120.7 131.5,-120.7 131.5,-97.7 8.5,-97.7"/>
<polygon fill="none" stroke="#000000" points="8.5,-97.7 8.5,-120.7 131.5,-120.7 131.5,-97.7 8.5,-97.7"/>
<text text-anchor="start" x="13.5" y="-106.8" font-family="Helvetica,sans-Serif" font-weight="bold" font-size="11.00" fill="#000000">contact_person</text>
<text text-anchor="start" x="96.5437" y="-105.8" font-family="Helvetica,sans-Serif" font-size="11.00" fill="#000000">[table]</text>
<polygon fill="none" stroke="#000000" points="8.5,-75.7 8.5,-97.7 131.5,-97.7 131.5,-75.7 8.5,-75.7"/>
<image xlink:href="../../images/primaryKeys.png" width="11px" height="12px" preserveAspectRatio="xMinYMin meet" x="13.5" y="-92.7"/>
<text text-anchor="start" x="28.5" y="-82.8" font-family="Helvetica,sans-Serif" font-size="11.00" fill="#000000">id</text>
<polygon fill="none" stroke="#000000" points="8.5,-56.7 8.5,-75.7 131.5,-75.7 131.5,-56.7 8.5,-56.7"/>
<text text-anchor="start" x="11.5" y="-62.8" font-family="Helvetica,sans-Serif" font-size="11.00" fill="#000000">...</text>
<polygon fill="#ffffff" stroke="transparent" points="8.5,-37.7 8.5,-56.7 40.5,-56.7 40.5,-37.7 8.5,-37.7"/>
<polygon fill="none" stroke="#000000" points="8.5,-37.7 8.5,-56.7 40.5,-56.7 40.5,-37.7 8.5,-37.7"/>
<text text-anchor="start" x="11.5" y="-43.8" font-family="Helvetica,sans-Serif" font-size="11.00" fill="#000000"> &#160;</text>
<polygon fill="#ffffff" stroke="transparent" points="40.5,-37.7 40.5,-56.7 100.5,-56.7 100.5,-37.7 40.5,-37.7"/>
<polygon fill="none" stroke="#000000" points="40.5,-37.7 40.5,-56.7 100.5,-56.7 100.5,-37.7 40.5,-37.7"/>
<text text-anchor="start" x="52.8807" y="-43.8" font-family="Helvetica,sans-Serif" font-size="11.00" fill="#000000">109 rows</text>
<polygon fill="#ffffff" stroke="transparent" points="100.5,-37.7 100.5,-56.7 131.5,-56.7 131.5,-37.7 100.5,-37.7"/>
<polygon fill="none" stroke="#000000" points="100.5,-37.7 100.5,-56.7 131.5,-56.7 131.5,-37.7 100.5,-37.7"/>
<text text-anchor="start" x="112.9053" y="-43.8" font-family="Helvetica,sans-Serif" font-size="11.00" fill="#000000">2 &gt;</text>
</a>
</g>
</g>
<!-- invitation&#45;&gt;contact_person -->
<g id="edge1" class="edge">
<title>invitation:w&#45;&gt;contact_person:e</title>
<path fill="none" stroke="#000000" d="M168.0232,-168.317C146.5651,-150.7919 169.7648,-86.7 131.5,-86.7"/>
<polygon fill="#000000" stroke="#000000" points="174.3665,-170.3062 180.9228,-176.1351 178.1833,-171.5031 182,-172.7 182,-172.7 182,-172.7 178.1833,-171.5031 183.0772,-169.2649 174.3665,-170.3062 174.3665,-170.3062"/>
<ellipse fill="none" stroke="#000000" cx="171.3131" cy="-169.3487" rx="3.2" ry="3.2"/>
</g>
<!-- location -->
<g id="node3" class="node">
<title>location</title>
<g id="a_node3"><a xlink:href="../../tables/location.html" xlink:title="location" target="_top">
<polygon fill="#ffffff" stroke="transparent" points="28,-250.2 28,-333.2 111,-333.2 111,-250.2 28,-250.2"/>
<polygon fill="#f5f5f5" stroke="transparent" points="28.5,-309.7 28.5,-332.7 111.5,-332.7 111.5,-309.7 28.5,-309.7"/>
<polygon fill="none" stroke="#000000" points="28.5,-309.7 28.5,-332.7 111.5,-332.7 111.5,-309.7 28.5,-309.7"/>
<text text-anchor="start" x="33.5" y="-318.8" font-family="Helvetica,sans-Serif" font-weight="bold" font-size="11.00" fill="#000000">location</text>
<text text-anchor="start" x="76.5437" y="-317.8" font-family="Helvetica,sans-Serif" font-size="11.00" fill="#000000">[table]</text>
<polygon fill="none" stroke="#000000" points="28.5,-287.7 28.5,-309.7 111.5,-309.7 111.5,-287.7 28.5,-287.7"/>
<image xlink:href="../../images/primaryKeys.png" width="11px" height="12px" preserveAspectRatio="xMinYMin meet" x="33.5" y="-304.7"/>
<text text-anchor="start" x="56.5" y="-294.8" font-family="Helvetica,sans-Serif" font-size="11.00" fill="#000000">id</text>
<polygon fill="none" stroke="#000000" points="28.5,-268.7 28.5,-287.7 111.5,-287.7 111.5,-268.7 28.5,-268.7"/>
<text text-anchor="start" x="31.5" y="-274.8" font-family="Helvetica,sans-Serif" font-size="11.00" fill="#000000">...</text>
<polygon fill="#ffffff" stroke="transparent" points="28.5,-249.7 28.5,-268.7 40.5,-268.7 40.5,-249.7 28.5,-249.7"/>
<polygon fill="none" stroke="#000000" points="28.5,-249.7 28.5,-268.7 40.5,-268.7 40.5,-249.7 28.5,-249.7"/>
<text text-anchor="start" x="31.4431" y="-255.8" font-family="Helvetica,sans-Serif" font-size="11.00" fill="#000000"> &#160;</text>
<polygon fill="#ffffff" stroke="transparent" points="40.5,-249.7 40.5,-268.7 90.5,-268.7 90.5,-249.7 40.5,-249.7"/>
<polygon fill="none" stroke="#000000" points="40.5,-249.7 40.5,-268.7 90.5,-268.7 90.5,-249.7 40.5,-249.7"/>
<text text-anchor="start" x="43.1903" y="-255.8" font-family="Helvetica,sans-Serif" font-size="11.00" fill="#000000">541 rows</text>
<polygon fill="#ffffff" stroke="transparent" points="90.5,-249.7 90.5,-268.7 111.5,-268.7 111.5,-249.7 90.5,-249.7"/>
<polygon fill="none" stroke="#000000" points="90.5,-249.7 90.5,-268.7 111.5,-268.7 111.5,-249.7 90.5,-249.7"/>
<text text-anchor="start" x="93.2027" y="-255.8" font-family="Helvetica,sans-Serif" font-size="11.00" fill="#000000">4 &gt;</text>
</a>
</g>
</g>
<!-- invitation&#45;&gt;location -->
<g id="edge2" class="edge">
<title>invitation:w&#45;&gt;location:e</title>
<path fill="none" stroke="#000000" d="M167.9018,-219.8144C138.9316,-234.7927 153.9299,-298.7 111.5,-298.7"/>
<polygon fill="#000000" stroke="#000000" points="174.1883,-218.4257 182.7766,-220.2153 178.0942,-217.5628 182,-216.7 182,-216.7 182,-216.7 178.0942,-217.5628 181.2234,-213.1847 174.1883,-218.4257 174.1883,-218.4257"/>
<ellipse fill="none" stroke="#000000" cx="171.0637" cy="-219.1159" rx="3.2" ry="3.2"/>
</g>
<!-- skill_role -->
<g id="node4" class="node">
<title>skill_role</title>
<g id="a_node4"><a xlink:href="../../tables/skill_role.html" xlink:title="skill_role" target="_top">
<polygon fill="#ffffff" stroke="transparent" points="27,-142.7 27,-228.7 112,-228.7 112,-142.7 27,-142.7"/>
<polygon fill="#f5f5f5" stroke="transparent" points="27.5,-205.7 27.5,-228.7 112.5,-228.7 112.5,-205.7 27.5,-205.7"/>
<polygon fill="none" stroke="#000000" points="27.5,-205.7 27.5,-228.7 112.5,-228.7 112.5,-205.7 27.5,-205.7"/>
<text text-anchor="start" x="32.1149" y="-214.8" font-family="Helvetica,sans-Serif" font-weight="bold" font-size="11.00" fill="#000000">skill_role</text>
<text text-anchor="start" x="78.0219" y="-213.8" font-family="Helvetica,sans-Serif" font-size="11.00" fill="#000000">[table]</text>
<polygon fill="none" stroke="#000000" points="27.5,-183.7 27.5,-205.7 112.5,-205.7 112.5,-183.7 27.5,-183.7"/>
<image xlink:href="../../images/primaryKeys.png" width="11px" height="12px" preserveAspectRatio="xMinYMin meet" x="32.5" y="-200.7"/>
<text text-anchor="start" x="53.5" y="-190.8" font-family="Helvetica,sans-Serif" font-size="11.00" fill="#000000">id</text>
<polygon fill="#ffffff" stroke="transparent" points="27.5,-161.7 27.5,-183.7 112.5,-183.7 112.5,-161.7 27.5,-161.7"/>
<polygon fill="none" stroke="#000000" points="27.5,-161.7 27.5,-183.7 112.5,-183.7 112.5,-161.7 27.5,-161.7"/>
<text text-anchor="start" x="53.5" y="-168.8" font-family="Helvetica,sans-Serif" font-size="11.00" fill="#000000">name</text>
<polygon fill="#ffffff" stroke="transparent" points="27.5,-142.7 27.5,-161.7 40.5,-161.7 40.5,-142.7 27.5,-142.7"/>
<polygon fill="none" stroke="#000000" points="27.5,-142.7 27.5,-161.7 40.5,-161.7 40.5,-142.7 27.5,-142.7"/>
<text text-anchor="start" x="30.5" y="-148.8" font-family="Helvetica,sans-Serif" font-size="11.00" fill="#000000"> &#160;</text>
<polygon fill="#ffffff" stroke="transparent" points="40.5,-142.7 40.5,-161.7 90.5,-161.7 90.5,-142.7 40.5,-142.7"/>
<polygon fill="none" stroke="#000000" points="40.5,-142.7 40.5,-161.7 90.5,-161.7 90.5,-142.7 40.5,-142.7"/>
<text text-anchor="start" x="43.1903" y="-148.8" font-family="Helvetica,sans-Serif" font-size="11.00" fill="#000000">603 rows</text>
<polygon fill="#ffffff" stroke="transparent" points="90.5,-142.7 90.5,-161.7 112.5,-161.7 112.5,-142.7 90.5,-142.7"/>
<polygon fill="none" stroke="#000000" points="90.5,-142.7 90.5,-161.7 112.5,-161.7 112.5,-142.7 90.5,-142.7"/>
<text text-anchor="start" x="93.9053" y="-148.8" font-family="Helvetica,sans-Serif" font-size="11.00" fill="#000000">4 &gt;</text>
</a>
</g>
</g>
<!-- invitation&#45;&gt;skill_role -->
<g id="edge3" class="edge">
<title>invitation:w&#45;&gt;skill_role:e</title>
<path fill="none" stroke="#000000" d="M167.3241,-194.7C147.5879,-194.7 137.8385,-194.7 112.5,-194.7"/>
<polygon fill="#000000" stroke="#000000" points="174,-194.7001 182,-198.3 178,-194.7 182,-194.7 182,-194.7 182,-194.7 178,-194.7 182,-191.1 174,-194.7001 174,-194.7001"/>
<ellipse fill="none" stroke="#000000" cx="170.8" cy="-194.7001" rx="3.2" ry="3.2"/>
</g>
<!-- invitation_document -->
<g id="node5" class="node">
<title>invitation_document</title>
<g id="a_node5"><a xlink:href="../../tables/invitation_document.html" xlink:title="invitation_document" target="_top">
<polygon fill="#ffffff" stroke="transparent" points="427,-459.7 427,-545.7 567,-545.7 567,-459.7 427,-459.7"/>
<polygon fill="#f5f5f5" stroke="transparent" points="427,-522.7 427,-545.7 567,-545.7 567,-522.7 427,-522.7"/>
<polygon fill="none" stroke="#000000" points="427,-522.7 427,-545.7 567,-545.7 567,-522.7 427,-522.7"/>
<text text-anchor="start" x="431.5979" y="-531.8" font-family="Helvetica,sans-Serif" font-weight="bold" font-size="11.00" fill="#000000">invitation_document</text>
<text text-anchor="start" x="532.5219" y="-530.8" font-family="Helvetica,sans-Serif" font-size="11.00" fill="#000000">[table]</text>
<polygon fill="#ffffff" stroke="transparent" points="427,-500.7 427,-522.7 567,-522.7 567,-500.7 427,-500.7"/>
<polygon fill="none" stroke="#000000" points="427,-500.7 427,-522.7 567,-522.7 567,-500.7 427,-500.7"/>
<image xlink:href="../../images/foreignKeys.png" width="11px" height="12px" preserveAspectRatio="xMinYMin meet" x="432" y="-517.7"/>
<text text-anchor="start" x="448" y="-507.8" font-family="Helvetica,sans-Serif" font-size="11.00" fill="#000000">invitation_id</text>
<polygon fill="#ffffff" stroke="transparent" points="427,-478.7 427,-500.7 567,-500.7 567,-478.7 427,-478.7"/>
<polygon fill="none" stroke="#000000" points="427,-478.7 427,-500.7 567,-500.7 567,-478.7 427,-478.7"/>
<image xlink:href="../../images/foreignKeys.png" width="11px" height="12px" preserveAspectRatio="xMinYMin meet" x="432" y="-495.7"/>
<text text-anchor="start" x="448" y="-485.8" font-family="Helvetica,sans-Serif" font-size="11.00" fill="#000000">file_id</text>
<polygon fill="#ffffff" stroke="transparent" points="427,-459.7 427,-478.7 482,-478.7 482,-459.7 427,-459.7"/>
<polygon fill="none" stroke="#000000" points="427,-459.7 427,-478.7 482,-478.7 482,-459.7 427,-459.7"/>
<text text-anchor="start" x="430" y="-465.8" font-family="Helvetica,sans-Serif" font-size="11.00" fill="#000000">&lt; 2</text>
<polygon fill="#ffffff" stroke="transparent" points="482,-459.7 482,-478.7 537,-478.7 537,-459.7 482,-459.7"/>
<polygon fill="none" stroke="#000000" points="482,-459.7 482,-478.7 537,-478.7 537,-459.7 482,-459.7"/>
<text text-anchor="start" x="501.6105" y="-465.8" font-family="Helvetica,sans-Serif" font-size="11.00" fill="#000000">4 rows</text>
<polygon fill="#ffffff" stroke="transparent" points="537,-459.7 537,-478.7 567,-478.7 567,-459.7 537,-459.7"/>
<polygon fill="none" stroke="#000000" points="537,-459.7 537,-478.7 567,-478.7 567,-459.7 537,-459.7"/>
<text text-anchor="start" x="557.8862" y="-465.8" font-family="Helvetica,sans-Serif" font-size="11.00" fill="#000000"> &#160;</text>
</a>
</g>
</g>
<!-- invitation_document&#45;&gt;invitation -->
<g id="edge4" class="edge">
<title>invitation_document:w&#45;&gt;invitation:e</title>
<path fill="none" stroke="#000000" d="M412.9557,-506.8089C398.0477,-493.6883 402.5607,-458.7 376,-458.7"/>
<polygon fill="#000000" stroke="#000000" points="419.445,-509.0689 425.816,-515.0997 423.2225,-510.3844 427,-511.7 427,-511.7 427,-511.7 423.2225,-510.3844 428.184,-508.3003 419.445,-509.0689 419.445,-509.0689"/>
<ellipse fill="none" stroke="#000000" cx="416.4231" cy="-508.0164" rx="3.2" ry="3.2"/>
</g>
<!-- invitation_skill -->
<g id="node6" class="node">
<title>invitation_skill</title>
<g id="a_node6"><a xlink:href="../../tables/invitation_skill.html" xlink:title="invitation_skill" target="_top">
<polygon fill="#ffffff" stroke="transparent" points="442,-352.7 442,-438.7 552,-438.7 552,-352.7 442,-352.7"/>
<polygon fill="#f5f5f5" stroke="transparent" points="442,-415.7 442,-438.7 552,-438.7 552,-415.7 442,-415.7"/>
<polygon fill="none" stroke="#000000" points="442,-415.7 442,-438.7 552,-438.7 552,-415.7 442,-415.7"/>
<text text-anchor="start" x="446.5832" y="-424.8" font-family="Helvetica,sans-Serif" font-weight="bold" font-size="11.00" fill="#000000">invitation_skill</text>
<text text-anchor="start" x="517.5219" y="-423.8" font-family="Helvetica,sans-Serif" font-size="11.00" fill="#000000">[table]</text>
<polygon fill="#ffffff" stroke="transparent" points="442,-393.7 442,-415.7 552,-415.7 552,-393.7 442,-393.7"/>
<polygon fill="none" stroke="#000000" points="442,-393.7 442,-415.7 552,-415.7 552,-393.7 442,-393.7"/>
<image xlink:href="../../images/foreignKeys.png" width="11px" height="12px" preserveAspectRatio="xMinYMin meet" x="447" y="-410.7"/>
<text text-anchor="start" x="465" y="-400.8" font-family="Helvetica,sans-Serif" font-size="11.00" fill="#000000">invitation_id</text>
<polygon fill="#ffffff" stroke="transparent" points="442,-371.7 442,-393.7 552,-393.7 552,-371.7 442,-371.7"/>
<polygon fill="none" stroke="#000000" points="442,-371.7 442,-393.7 552,-393.7 552,-371.7 442,-371.7"/>
<image xlink:href="../../images/foreignKeys.png" width="11px" height="12px" preserveAspectRatio="xMinYMin meet" x="447" y="-388.7"/>
<text text-anchor="start" x="465" y="-378.8" font-family="Helvetica,sans-Serif" font-size="11.00" fill="#000000">skill_id</text>
<polygon fill="#ffffff" stroke="transparent" points="442,-352.7 442,-371.7 482,-371.7 482,-352.7 442,-352.7"/>
<polygon fill="none" stroke="#000000" points="442,-352.7 442,-371.7 482,-371.7 482,-352.7 442,-352.7"/>
<text text-anchor="start" x="445" y="-358.8" font-family="Helvetica,sans-Serif" font-size="11.00" fill="#000000">&lt; 2</text>
<polygon fill="#ffffff" stroke="transparent" points="482,-352.7 482,-371.7 530,-371.7 530,-352.7 482,-352.7"/>
<polygon fill="none" stroke="#000000" points="482,-352.7 482,-371.7 530,-371.7 530,-352.7 482,-352.7"/>
<text text-anchor="start" x="494.6105" y="-358.8" font-family="Helvetica,sans-Serif" font-size="11.00" fill="#000000">4 rows</text>
<polygon fill="#ffffff" stroke="transparent" points="530,-352.7 530,-371.7 552,-371.7 552,-352.7 530,-352.7"/>
<polygon fill="none" stroke="#000000" points="530,-352.7 530,-371.7 552,-371.7 552,-352.7 530,-352.7"/>
<text text-anchor="start" x="542.8862" y="-358.8" font-family="Helvetica,sans-Serif" font-size="11.00" fill="#000000"> &#160;</text>
</a>
</g>
</g>
<!-- invitation_skill&#45;&gt;invitation -->
<g id="edge5" class="edge">
<title>invitation_skill:w&#45;&gt;invitation:e</title>
<path fill="none" stroke="#000000" d="M427.9635,-407.9162C405.9582,-419.5414 408.2746,-458.7 376,-458.7"/>
<polygon fill="#000000" stroke="#000000" points="434.2021,-406.4868 442.8041,-408.2091 438.101,-405.5934 442,-404.7 442,-404.7 442,-404.7 438.101,-405.5934 441.1959,-401.1909 434.2021,-406.4868 434.2021,-406.4868"/>
<ellipse fill="none" stroke="#000000" cx="431.0829" cy="-407.2015" rx="3.2" ry="3.2"/>
</g>
</g>
</svg>
