<?xml version="1.0" encoding="UTF-8" standalone="no"?>
<!DOCTYPE svg PUBLIC "-//W3C//DTD SVG 1.1//EN"
 "http://www.w3.org/Graphics/SVG/1.1/DTD/svg11.dtd">
<!-- Generated by graphviz version 2.40.1 (20161225.0304)
 -->
<!-- Title: oneDegreeRelationshipsDiagram Pages: 1 -->
<svg width="392pt" height="347pt"
 viewBox="0.00 0.00 392.00 347.20" xmlns="http://www.w3.org/2000/svg" xmlns:xlink="http://www.w3.org/1999/xlink">
<g id="graph0" class="graph" transform="scale(1 1) rotate(0) translate(4 343.2)">
<title>oneDegreeRelationshipsDiagram</title>
<polygon fill="#ffffff" stroke="transparent" points="-4,4 -4,-343.2 388,-343.2 388,4 -4,4"/>
<text text-anchor="middle" x="72.4936" y="-7.3" font-family="Helvetica,sans-Serif" font-size="11.00" fill="#000000">Generated by SchemaSpy</text>
<!-- invitation_document -->
<g id="node1" class="node">
<title>invitation_document</title>
<g id="a_node1"><a xlink:href="../../tables/invitation_document.html" xlink:title="invitation_document" target="_top">
<polygon fill="#ffffff" stroke="transparent" points="184,-172.7 184,-262.7 376,-262.7 376,-172.7 184,-172.7"/>
<polygon fill="#f5f5f5" stroke="transparent" points="186,-237.7 186,-260.7 374,-260.7 374,-237.7 186,-237.7"/>
<polygon fill="none" stroke="#000000" points="186,-237.7 186,-260.7 374,-260.7 374,-237.7 186,-237.7"/>
<text text-anchor="start" x="191" y="-246.8" font-family="Helvetica,sans-Serif" font-weight="bold" font-size="11.00" fill="#000000">invitation_document</text>
<text text-anchor="start" x="339.0437" y="-245.8" font-family="Helvetica,sans-Serif" font-size="11.00" fill="#000000">[table]</text>
<polygon fill="#ffffff" stroke="transparent" points="186,-215.7 186,-237.7 324,-237.7 324,-215.7 186,-215.7"/>
<polygon fill="none" stroke="#000000" points="186,-215.7 186,-237.7 324,-237.7 324,-215.7 186,-215.7"/>
<image xlink:href="../../images/foreignKeys.png" width="11px" height="12px" preserveAspectRatio="xMinYMin meet" x="191" y="-232.7"/>
<text text-anchor="start" x="206" y="-222.8" font-family="Helvetica,sans-Serif" font-size="11.00" fill="#000000">invitation_id</text>
<polygon fill="none" stroke="#000000" points="324,-215.7 324,-237.7 374,-237.7 374,-215.7 324,-215.7"/>
<text text-anchor="start" x="326.6865" y="-223.4" font-family="Helvetica,sans-Serif" font-size="11.00" fill="#000000">bigint[19]</text>
<polygon fill="#ffffff" stroke="transparent" points="186,-193.7 186,-215.7 324,-215.7 324,-193.7 186,-193.7"/>
<polygon fill="none" stroke="#000000" points="186,-193.7 186,-215.7 324,-215.7 324,-193.7 186,-193.7"/>
<image xlink:href="../../images/foreignKeys.png" width="11px" height="12px" preserveAspectRatio="xMinYMin meet" x="191" y="-210.7"/>
<text text-anchor="start" x="206" y="-200.8" font-family="Helvetica,sans-Serif" font-size="11.00" fill="#000000">file_id</text>
<polygon fill="none" stroke="#000000" points="324,-193.7 324,-215.7 374,-215.7 374,-193.7 324,-193.7"/>
<text text-anchor="start" x="326.6865" y="-201.4" font-family="Helvetica,sans-Serif" font-size="11.00" fill="#000000">bigint[19]</text>
<polygon fill="#ffffff" stroke="transparent" points="186,-174.7 186,-193.7 246,-193.7 246,-174.7 186,-174.7"/>
<polygon fill="none" stroke="#000000" points="186,-174.7 186,-193.7 246,-193.7 246,-174.7 186,-174.7"/>
<text text-anchor="start" x="189" y="-180.8" font-family="Helvetica,sans-Serif" font-size="11.00" fill="#000000">&lt; 2</text>
<polygon fill="#ffffff" stroke="transparent" points="246,-174.7 246,-193.7 324,-193.7 324,-174.7 246,-174.7"/>
<polygon fill="none" stroke="#000000" points="246,-174.7 246,-193.7 324,-193.7 324,-174.7 246,-174.7"/>
<text text-anchor="start" x="288.6105" y="-180.8" font-family="Helvetica,sans-Serif" font-size="11.00" fill="#000000">4 rows</text>
<polygon fill="#ffffff" stroke="transparent" points="324,-174.7 324,-193.7 374,-193.7 374,-174.7 324,-174.7"/>
<polygon fill="none" stroke="#000000" points="324,-174.7 324,-193.7 374,-193.7 374,-174.7 324,-174.7"/>
<text text-anchor="start" x="355.4053" y="-180.8" font-family="Helvetica,sans-Serif" font-size="11.00" fill="#000000">0 &gt;</text>
<polygon fill="none" stroke="#000000" stroke-width="2" points="185,-173.7 185,-261.7 375,-261.7 375,-173.7 185,-173.7"/>
</a>
</g>
</g>
<!-- file -->
<g id="node2" class="node">
<title>file</title>
<g id="a_node2"><a xlink:href="../../tables/file.html" xlink:title="file" target="_top">
<polygon fill="#ffffff" stroke="transparent" points="10,-38.2 10,-165.2 133,-165.2 133,-38.2 10,-38.2"/>
<polygon fill="#f5f5f5" stroke="transparent" points="10.5,-141.7 10.5,-164.7 133.5,-164.7 133.5,-141.7 10.5,-141.7"/>
<polygon fill="none" stroke="#000000" points="10.5,-141.7 10.5,-164.7 133.5,-164.7 133.5,-141.7 10.5,-141.7"/>
<text text-anchor="start" x="15.5" y="-150.8" font-family="Helvetica,sans-Serif" font-weight="bold" font-size="11.00" fill="#000000">file</text>
<text text-anchor="start" x="98.5437" y="-149.8" font-family="Helvetica,sans-Serif" font-size="11.00" fill="#000000">[table]</text>
<polygon fill="none" stroke="#000000" points="10.5,-119.7 10.5,-141.7 133.5,-141.7 133.5,-119.7 10.5,-119.7"/>
<image xlink:href="../../images/primaryKeys.png" width="11px" height="12px" preserveAspectRatio="xMinYMin meet" x="15.5" y="-136.7"/>
<text text-anchor="start" x="30.5" y="-126.8" font-family="Helvetica,sans-Serif" font-size="11.00" fill="#000000">id</text>
<polygon fill="#ffffff" stroke="transparent" points="10.5,-97.7 10.5,-119.7 133.5,-119.7 133.5,-97.7 10.5,-97.7"/>
<polygon fill="none" stroke="#000000" points="10.5,-97.7 10.5,-119.7 133.5,-119.7 133.5,-97.7 10.5,-97.7"/>
<image xlink:href="../../images/foreignKeys.png" width="11px" height="12px" preserveAspectRatio="xMinYMin meet" x="15.5" y="-114.7"/>
<text text-anchor="start" x="30.5" y="-104.8" font-family="Helvetica,sans-Serif" font-size="11.00" fill="#000000">created_by</text>
<polygon fill="#ffffff" stroke="transparent" points="10.5,-75.7 10.5,-97.7 133.5,-97.7 133.5,-75.7 10.5,-75.7"/>
<polygon fill="none" stroke="#000000" points="10.5,-75.7 10.5,-97.7 133.5,-97.7 133.5,-75.7 10.5,-75.7"/>
<image xlink:href="../../images/foreignKeys.png" width="11px" height="12px" preserveAspectRatio="xMinYMin meet" x="15.5" y="-92.7"/>
<text text-anchor="start" x="30.5" y="-82.8" font-family="Helvetica,sans-Serif" font-size="11.00" fill="#000000">modified_by</text>
<polygon fill="none" stroke="#000000" points="10.5,-56.7 10.5,-75.7 133.5,-75.7 133.5,-56.7 10.5,-56.7"/>
<text text-anchor="start" x="13.5" y="-62.8" font-family="Helvetica,sans-Serif" font-size="11.00" fill="#000000">...</text>
<polygon fill="#ffffff" stroke="transparent" points="10.5,-37.7 10.5,-56.7 43.5,-56.7 43.5,-37.7 10.5,-37.7"/>
<polygon fill="none" stroke="#000000" points="10.5,-37.7 10.5,-56.7 43.5,-56.7 43.5,-37.7 10.5,-37.7"/>
<text text-anchor="start" x="13.5" y="-43.8" font-family="Helvetica,sans-Serif" font-size="11.00" fill="#000000">&lt; 2</text>
<polygon fill="#ffffff" stroke="transparent" points="43.5,-37.7 43.5,-56.7 99.5,-56.7 99.5,-37.7 43.5,-37.7"/>
<polygon fill="none" stroke="#000000" points="43.5,-37.7 43.5,-56.7 99.5,-56.7 99.5,-37.7 43.5,-37.7"/>
<text text-anchor="start" x="51.8807" y="-43.8" font-family="Helvetica,sans-Serif" font-size="11.00" fill="#000000">590 rows</text>
<polygon fill="#ffffff" stroke="transparent" points="99.5,-37.7 99.5,-56.7 133.5,-56.7 133.5,-37.7 99.5,-37.7"/>
<polygon fill="none" stroke="#000000" points="99.5,-37.7 99.5,-56.7 133.5,-56.7 133.5,-37.7 99.5,-37.7"/>
<text text-anchor="start" x="108.7904" y="-43.8" font-family="Helvetica,sans-Serif" font-size="11.00" fill="#000000">13 &gt;</text>
</a>
</g>
</g>
<!-- invitation_document&#45;&gt;file -->
<g id="edge1" class="edge">
<title>invitation_document:w&#45;&gt;file:e</title>
<path fill="none" stroke="#000000" d="M172.1211,-200.2926C152.5232,-184.3617 167.8394,-130.7 133.5,-130.7"/>
<polygon fill="#000000" stroke="#000000" points="178.3752,-202.2786 184.9104,-208.1311 182.1876,-203.4893 186,-204.7 186,-204.7 186,-204.7 182.1876,-203.4893 187.0896,-201.2689 178.3752,-202.2786 178.3752,-202.2786"/>
<ellipse fill="none" stroke="#000000" cx="175.3253" cy="-201.3101" rx="3.2" ry="3.2"/>
</g>
<!-- invitation -->
<g id="node3" class="node">
<title>invitation</title>
<g id="a_node3"><a xlink:href="../../tables/invitation.html" xlink:title="invitation" target="_top">
<polygon fill="#ffffff" stroke="transparent" points="8,-186.2 8,-335.2 135,-335.2 135,-186.2 8,-186.2"/>
<polygon fill="#f5f5f5" stroke="transparent" points="8.5,-311.7 8.5,-334.7 135.5,-334.7 135.5,-311.7 8.5,-311.7"/>
<polygon fill="none" stroke="#000000" points="8.5,-311.7 8.5,-334.7 135.5,-334.7 135.5,-311.7 8.5,-311.7"/>
<text text-anchor="start" x="13.5" y="-320.8" font-family="Helvetica,sans-Serif" font-weight="bold" font-size="11.00" fill="#000000">invitation</text>
<text text-anchor="start" x="100.5437" y="-319.8" font-family="Helvetica,sans-Serif" font-size="11.00" fill="#000000">[table]</text>
<polygon fill="none" stroke="#000000" points="8.5,-289.7 8.5,-311.7 135.5,-311.7 135.5,-289.7 8.5,-289.7"/>
<image xlink:href="../../images/primaryKeys.png" width="11px" height="12px" preserveAspectRatio="xMinYMin meet" x="13.5" y="-306.7"/>
<text text-anchor="start" x="28.5" y="-296.8" font-family="Helvetica,sans-Serif" font-size="11.00" fill="#000000">id</text>
<polygon fill="#ffffff" stroke="transparent" points="8.5,-267.7 8.5,-289.7 135.5,-289.7 135.5,-267.7 8.5,-267.7"/>
<polygon fill="none" stroke="#000000" points="8.5,-267.7 8.5,-289.7 135.5,-289.7 135.5,-267.7 8.5,-267.7"/>
<image xlink:href="../../images/foreignKeys.png" width="11px" height="12px" preserveAspectRatio="xMinYMin meet" x="13.5" y="-284.7"/>
<text text-anchor="start" x="28.5" y="-274.8" font-family="Helvetica,sans-Serif" font-size="11.00" fill="#000000">location_id</text>
<polygon fill="#ffffff" stroke="transparent" points="8.5,-245.7 8.5,-267.7 135.5,-267.7 135.5,-245.7 8.5,-245.7"/>
<polygon fill="none" stroke="#000000" points="8.5,-245.7 8.5,-267.7 135.5,-267.7 135.5,-245.7 8.5,-245.7"/>
<image xlink:href="../../images/foreignKeys.png" width="11px" height="12px" preserveAspectRatio="xMinYMin meet" x="13.5" y="-262.7"/>
<text text-anchor="start" x="28.5" y="-252.8" font-family="Helvetica,sans-Serif" font-size="11.00" fill="#000000">role_id</text>
<polygon fill="#ffffff" stroke="transparent" points="8.5,-223.7 8.5,-245.7 135.5,-245.7 135.5,-223.7 8.5,-223.7"/>
<polygon fill="none" stroke="#000000" points="8.5,-223.7 8.5,-245.7 135.5,-245.7 135.5,-223.7 8.5,-223.7"/>
<image xlink:href="../../images/foreignKeys.png" width="11px" height="12px" preserveAspectRatio="xMinYMin meet" x="13.5" y="-240.7"/>
<text text-anchor="start" x="28.5" y="-230.8" font-family="Helvetica,sans-Serif" font-size="11.00" fill="#000000">contact_person_id</text>
<polygon fill="none" stroke="#000000" points="8.5,-204.7 8.5,-223.7 135.5,-223.7 135.5,-204.7 8.5,-204.7"/>
<text text-anchor="start" x="11.5" y="-210.8" font-family="Helvetica,sans-Serif" font-size="11.00" fill="#000000">...</text>
<polygon fill="#ffffff" stroke="transparent" points="8.5,-185.7 8.5,-204.7 52.5,-204.7 52.5,-185.7 8.5,-185.7"/>
<polygon fill="none" stroke="#000000" points="8.5,-185.7 8.5,-204.7 52.5,-204.7 52.5,-185.7 8.5,-185.7"/>
<text text-anchor="start" x="11.5" y="-191.8" font-family="Helvetica,sans-Serif" font-size="11.00" fill="#000000">&lt; 3</text>
<polygon fill="#ffffff" stroke="transparent" points="52.5,-185.7 52.5,-204.7 102.5,-204.7 102.5,-185.7 52.5,-185.7"/>
<polygon fill="none" stroke="#000000" points="52.5,-185.7 52.5,-204.7 102.5,-204.7 102.5,-185.7 52.5,-185.7"/>
<text text-anchor="start" x="67.1105" y="-191.8" font-family="Helvetica,sans-Serif" font-size="11.00" fill="#000000">4 rows</text>
<polygon fill="#ffffff" stroke="transparent" points="102.5,-185.7 102.5,-204.7 135.5,-204.7 135.5,-185.7 102.5,-185.7"/>
<polygon fill="none" stroke="#000000" points="102.5,-185.7 102.5,-204.7 135.5,-204.7 135.5,-185.7 102.5,-185.7"/>
<text text-anchor="start" x="116.9053" y="-191.8" font-family="Helvetica,sans-Serif" font-size="11.00" fill="#000000">2 &gt;</text>
</a>
</g>
</g>
<!-- invitation_document&#45;&gt;invitation -->
<g id="edge2" class="edge">
<title>invitation_document:w&#45;&gt;invitation:e</title>
<path fill="none" stroke="#000000" d="M172.1154,-231.329C153.4593,-247.5294 169.2515,-300.7 135.5,-300.7"/>
<polygon fill="#000000" stroke="#000000" points="178.4107,-229.2303 187.1386,-230.1152 182.2053,-227.9651 186,-226.7 186,-226.7 186,-226.7 182.2053,-227.9651 184.8614,-223.2848 178.4107,-229.2303 178.4107,-229.2303"/>
<ellipse fill="none" stroke="#000000" cx="175.3749" cy="-230.2424" rx="3.2" ry="3.2"/>
</g>
</g>
</svg>
