<?xml version="1.0" encoding="UTF-8" standalone="no"?>
<!DOCTYPE svg PUBLIC "-//W3C//DTD SVG 1.1//EN"
 "http://www.w3.org/Graphics/SVG/1.1/DTD/svg11.dtd">
<!-- Generated by graphviz version 2.40.1 (20161225.0304)
 -->
<!-- Title: oneDegreeRelationshipsDiagram Pages: 1 -->
<svg width="358pt" height="369pt"
 viewBox="0.00 0.00 358.00 369.20" xmlns="http://www.w3.org/2000/svg" xmlns:xlink="http://www.w3.org/1999/xlink">
<g id="graph0" class="graph" transform="scale(1 1) rotate(0) translate(4 365.2)">
<title>oneDegreeRelationshipsDiagram</title>
<polygon fill="#ffffff" stroke="transparent" points="-4,4 -4,-365.2 354,-365.2 354,4 -4,4"/>
<text text-anchor="middle" x="72.4936" y="-7.3" font-family="Helvetica,sans-Serif" font-size="11.00" fill="#000000">Generated by SchemaSpy</text>
<!-- invitation_skill -->
<g id="node1" class="node">
<title>invitation_skill</title>
<g id="a_node1"><a xlink:href="../../tables/invitation_skill.html" xlink:title="invitation_skill" target="_top">
<polygon fill="#ffffff" stroke="transparent" points="184,-194.7 184,-284.7 342,-284.7 342,-194.7 184,-194.7"/>
<polygon fill="#f5f5f5" stroke="transparent" points="186,-259.7 186,-282.7 340,-282.7 340,-259.7 186,-259.7"/>
<polygon fill="none" stroke="#000000" points="186,-259.7 186,-282.7 340,-282.7 340,-259.7 186,-259.7"/>
<text text-anchor="start" x="191" y="-268.8" font-family="Helvetica,sans-Serif" font-weight="bold" font-size="11.00" fill="#000000">invitation_skill</text>
<text text-anchor="start" x="305.0437" y="-267.8" font-family="Helvetica,sans-Serif" font-size="11.00" fill="#000000">[table]</text>
<polygon fill="#ffffff" stroke="transparent" points="186,-237.7 186,-259.7 290,-259.7 290,-237.7 186,-237.7"/>
<polygon fill="none" stroke="#000000" points="186,-237.7 186,-259.7 290,-259.7 290,-237.7 186,-237.7"/>
<image xlink:href="../../images/foreignKeys.png" width="11px" height="12px" preserveAspectRatio="xMinYMin meet" x="191" y="-254.7"/>
<text text-anchor="start" x="206" y="-244.8" font-family="Helvetica,sans-Serif" font-size="11.00" fill="#000000">invitation_id</text>
<polygon fill="none" stroke="#000000" points="290,-237.7 290,-259.7 340,-259.7 340,-237.7 290,-237.7"/>
<text text-anchor="start" x="292.6865" y="-245.4" font-family="Helvetica,sans-Serif" font-size="11.00" fill="#000000">bigint[19]</text>
<polygon fill="#ffffff" stroke="transparent" points="186,-215.7 186,-237.7 290,-237.7 290,-215.7 186,-215.7"/>
<polygon fill="none" stroke="#000000" points="186,-215.7 186,-237.7 290,-237.7 290,-215.7 186,-215.7"/>
<image xlink:href="../../images/foreignKeys.png" width="11px" height="12px" preserveAspectRatio="xMinYMin meet" x="191" y="-232.7"/>
<text text-anchor="start" x="206" y="-222.8" font-family="Helvetica,sans-Serif" font-size="11.00" fill="#000000">skill_id</text>
<polygon fill="none" stroke="#000000" points="290,-215.7 290,-237.7 340,-237.7 340,-215.7 290,-215.7"/>
<text text-anchor="start" x="292.6865" y="-223.4" font-family="Helvetica,sans-Serif" font-size="11.00" fill="#000000">bigint[19]</text>
<polygon fill="#ffffff" stroke="transparent" points="186,-196.7 186,-215.7 229,-215.7 229,-196.7 186,-196.7"/>
<polygon fill="none" stroke="#000000" points="186,-196.7 186,-215.7 229,-215.7 229,-196.7 186,-196.7"/>
<text text-anchor="start" x="189" y="-202.8" font-family="Helvetica,sans-Serif" font-size="11.00" fill="#000000">&lt; 2</text>
<polygon fill="#ffffff" stroke="transparent" points="229,-196.7 229,-215.7 290,-215.7 290,-196.7 229,-196.7"/>
<polygon fill="none" stroke="#000000" points="229,-196.7 229,-215.7 290,-215.7 290,-196.7 229,-196.7"/>
<text text-anchor="start" x="254.6105" y="-202.8" font-family="Helvetica,sans-Serif" font-size="11.00" fill="#000000">4 rows</text>
<polygon fill="#ffffff" stroke="transparent" points="290,-196.7 290,-215.7 340,-215.7 340,-196.7 290,-196.7"/>
<polygon fill="none" stroke="#000000" points="290,-196.7 290,-215.7 340,-215.7 340,-196.7 290,-196.7"/>
<text text-anchor="start" x="321.4053" y="-202.8" font-family="Helvetica,sans-Serif" font-size="11.00" fill="#000000">0 &gt;</text>
<polygon fill="none" stroke="#000000" stroke-width="2" points="185,-195.7 185,-283.7 341,-283.7 341,-195.7 185,-195.7"/>
</a>
</g>
</g>
<!-- invitation -->
<g id="node2" class="node">
<title>invitation</title>
<g id="a_node2"><a xlink:href="../../tables/invitation.html" xlink:title="invitation" target="_top">
<polygon fill="#ffffff" stroke="transparent" points="8,-208.2 8,-357.2 135,-357.2 135,-208.2 8,-208.2"/>
<polygon fill="#f5f5f5" stroke="transparent" points="8.5,-333.7 8.5,-356.7 135.5,-356.7 135.5,-333.7 8.5,-333.7"/>
<polygon fill="none" stroke="#000000" points="8.5,-333.7 8.5,-356.7 135.5,-356.7 135.5,-333.7 8.5,-333.7"/>
<text text-anchor="start" x="13.5" y="-342.8" font-family="Helvetica,sans-Serif" font-weight="bold" font-size="11.00" fill="#000000">invitation</text>
<text text-anchor="start" x="100.5437" y="-341.8" font-family="Helvetica,sans-Serif" font-size="11.00" fill="#000000">[table]</text>
<polygon fill="none" stroke="#000000" points="8.5,-311.7 8.5,-333.7 135.5,-333.7 135.5,-311.7 8.5,-311.7"/>
<image xlink:href="../../images/primaryKeys.png" width="11px" height="12px" preserveAspectRatio="xMinYMin meet" x="13.5" y="-328.7"/>
<text text-anchor="start" x="28.5" y="-318.8" font-family="Helvetica,sans-Serif" font-size="11.00" fill="#000000">id</text>
<polygon fill="#ffffff" stroke="transparent" points="8.5,-289.7 8.5,-311.7 135.5,-311.7 135.5,-289.7 8.5,-289.7"/>
<polygon fill="none" stroke="#000000" points="8.5,-289.7 8.5,-311.7 135.5,-311.7 135.5,-289.7 8.5,-289.7"/>
<image xlink:href="../../images/foreignKeys.png" width="11px" height="12px" preserveAspectRatio="xMinYMin meet" x="13.5" y="-306.7"/>
<text text-anchor="start" x="28.5" y="-296.8" font-family="Helvetica,sans-Serif" font-size="11.00" fill="#000000">location_id</text>
<polygon fill="#ffffff" stroke="transparent" points="8.5,-267.7 8.5,-289.7 135.5,-289.7 135.5,-267.7 8.5,-267.7"/>
<polygon fill="none" stroke="#000000" points="8.5,-267.7 8.5,-289.7 135.5,-289.7 135.5,-267.7 8.5,-267.7"/>
<image xlink:href="../../images/foreignKeys.png" width="11px" height="12px" preserveAspectRatio="xMinYMin meet" x="13.5" y="-284.7"/>
<text text-anchor="start" x="28.5" y="-274.8" font-family="Helvetica,sans-Serif" font-size="11.00" fill="#000000">role_id</text>
<polygon fill="#ffffff" stroke="transparent" points="8.5,-245.7 8.5,-267.7 135.5,-267.7 135.5,-245.7 8.5,-245.7"/>
<polygon fill="none" stroke="#000000" points="8.5,-245.7 8.5,-267.7 135.5,-267.7 135.5,-245.7 8.5,-245.7"/>
<image xlink:href="../../images/foreignKeys.png" width="11px" height="12px" preserveAspectRatio="xMinYMin meet" x="13.5" y="-262.7"/>
<text text-anchor="start" x="28.5" y="-252.8" font-family="Helvetica,sans-Serif" font-size="11.00" fill="#000000">contact_person_id</text>
<polygon fill="none" stroke="#000000" points="8.5,-226.7 8.5,-245.7 135.5,-245.7 135.5,-226.7 8.5,-226.7"/>
<text text-anchor="start" x="11.5" y="-232.8" font-family="Helvetica,sans-Serif" font-size="11.00" fill="#000000">...</text>
<polygon fill="#ffffff" stroke="transparent" points="8.5,-207.7 8.5,-226.7 52.5,-226.7 52.5,-207.7 8.5,-207.7"/>
<polygon fill="none" stroke="#000000" points="8.5,-207.7 8.5,-226.7 52.5,-226.7 52.5,-207.7 8.5,-207.7"/>
<text text-anchor="start" x="11.5" y="-213.8" font-family="Helvetica,sans-Serif" font-size="11.00" fill="#000000">&lt; 3</text>
<polygon fill="#ffffff" stroke="transparent" points="52.5,-207.7 52.5,-226.7 102.5,-226.7 102.5,-207.7 52.5,-207.7"/>
<polygon fill="none" stroke="#000000" points="52.5,-207.7 52.5,-226.7 102.5,-226.7 102.5,-207.7 52.5,-207.7"/>
<text text-anchor="start" x="67.1105" y="-213.8" font-family="Helvetica,sans-Serif" font-size="11.00" fill="#000000">4 rows</text>
<polygon fill="#ffffff" stroke="transparent" points="102.5,-207.7 102.5,-226.7 135.5,-226.7 135.5,-207.7 102.5,-207.7"/>
<polygon fill="none" stroke="#000000" points="102.5,-207.7 102.5,-226.7 135.5,-226.7 135.5,-207.7 102.5,-207.7"/>
<text text-anchor="start" x="116.9053" y="-213.8" font-family="Helvetica,sans-Serif" font-size="11.00" fill="#000000">2 &gt;</text>
</a>
</g>
</g>
<!-- invitation_skill&#45;&gt;invitation -->
<g id="edge1" class="edge">
<title>invitation_skill:w&#45;&gt;invitation:e</title>
<path fill="none" stroke="#000000" d="M172.1154,-253.329C153.4593,-269.5294 169.2515,-322.7 135.5,-322.7"/>
<polygon fill="#000000" stroke="#000000" points="178.4107,-251.2303 187.1386,-252.1152 182.2053,-249.9651 186,-248.7 186,-248.7 186,-248.7 182.2053,-249.9651 184.8614,-245.2848 178.4107,-251.2303 178.4107,-251.2303"/>
<ellipse fill="none" stroke="#000000" cx="175.3749" cy="-252.2424" rx="3.2" ry="3.2"/>
</g>
<!-- skill -->
<g id="node3" class="node">
<title>skill</title>
<g id="a_node3"><a xlink:href="../../tables/skill.html" xlink:title="skill" target="_top">
<polygon fill="#ffffff" stroke="transparent" points="10,-38.2 10,-187.2 133,-187.2 133,-38.2 10,-38.2"/>
<polygon fill="#f5f5f5" stroke="transparent" points="10.5,-163.7 10.5,-186.7 133.5,-186.7 133.5,-163.7 10.5,-163.7"/>
<polygon fill="none" stroke="#000000" points="10.5,-163.7 10.5,-186.7 133.5,-186.7 133.5,-163.7 10.5,-163.7"/>
<text text-anchor="start" x="15.5" y="-172.8" font-family="Helvetica,sans-Serif" font-weight="bold" font-size="11.00" fill="#000000">skill</text>
<text text-anchor="start" x="98.5437" y="-171.8" font-family="Helvetica,sans-Serif" font-size="11.00" fill="#000000">[table]</text>
<polygon fill="none" stroke="#000000" points="10.5,-141.7 10.5,-163.7 133.5,-163.7 133.5,-141.7 10.5,-141.7"/>
<image xlink:href="../../images/primaryKeys.png" width="11px" height="12px" preserveAspectRatio="xMinYMin meet" x="15.5" y="-158.7"/>
<text text-anchor="start" x="30.5" y="-148.8" font-family="Helvetica,sans-Serif" font-size="11.00" fill="#000000">id</text>
<polygon fill="#ffffff" stroke="transparent" points="10.5,-119.7 10.5,-141.7 133.5,-141.7 133.5,-119.7 10.5,-119.7"/>
<polygon fill="none" stroke="#000000" points="10.5,-119.7 10.5,-141.7 133.5,-141.7 133.5,-119.7 10.5,-119.7"/>
<image xlink:href="../../images/foreignKeys.png" width="11px" height="12px" preserveAspectRatio="xMinYMin meet" x="15.5" y="-136.7"/>
<text text-anchor="start" x="30.5" y="-126.8" font-family="Helvetica,sans-Serif" font-size="11.00" fill="#000000">created_by</text>
<polygon fill="#ffffff" stroke="transparent" points="10.5,-97.7 10.5,-119.7 133.5,-119.7 133.5,-97.7 10.5,-97.7"/>
<polygon fill="none" stroke="#000000" points="10.5,-97.7 10.5,-119.7 133.5,-119.7 133.5,-97.7 10.5,-97.7"/>
<image xlink:href="../../images/foreignKeys.png" width="11px" height="12px" preserveAspectRatio="xMinYMin meet" x="15.5" y="-114.7"/>
<text text-anchor="start" x="30.5" y="-104.8" font-family="Helvetica,sans-Serif" font-size="11.00" fill="#000000">modified_by</text>
<polygon fill="#ffffff" stroke="transparent" points="10.5,-75.7 10.5,-97.7 133.5,-97.7 133.5,-75.7 10.5,-75.7"/>
<polygon fill="none" stroke="#000000" points="10.5,-75.7 10.5,-97.7 133.5,-97.7 133.5,-75.7 10.5,-75.7"/>
<text text-anchor="start" x="30.5" y="-82.8" font-family="Helvetica,sans-Serif" font-size="11.00" fill="#000000">name</text>
<polygon fill="none" stroke="#000000" points="10.5,-56.7 10.5,-75.7 133.5,-75.7 133.5,-56.7 10.5,-56.7"/>
<text text-anchor="start" x="13.5" y="-62.8" font-family="Helvetica,sans-Serif" font-size="11.00" fill="#000000">...</text>
<polygon fill="#ffffff" stroke="transparent" points="10.5,-37.7 10.5,-56.7 40.5,-56.7 40.5,-37.7 10.5,-37.7"/>
<polygon fill="none" stroke="#000000" points="10.5,-37.7 10.5,-56.7 40.5,-56.7 40.5,-37.7 10.5,-37.7"/>
<text text-anchor="start" x="13.5" y="-43.8" font-family="Helvetica,sans-Serif" font-size="11.00" fill="#000000">&lt; 2</text>
<polygon fill="#ffffff" stroke="transparent" points="40.5,-37.7 40.5,-56.7 107.5,-56.7 107.5,-37.7 40.5,-37.7"/>
<polygon fill="none" stroke="#000000" points="40.5,-37.7 40.5,-56.7 107.5,-56.7 107.5,-37.7 40.5,-37.7"/>
<text text-anchor="start" x="47.047" y="-43.8" font-family="Helvetica,sans-Serif" font-size="11.00" fill="#000000">2 737 rows</text>
<polygon fill="#ffffff" stroke="transparent" points="107.5,-37.7 107.5,-56.7 133.5,-56.7 133.5,-37.7 107.5,-37.7"/>
<polygon fill="none" stroke="#000000" points="107.5,-37.7 107.5,-56.7 133.5,-56.7 133.5,-37.7 107.5,-37.7"/>
<text text-anchor="start" x="114.9053" y="-43.8" font-family="Helvetica,sans-Serif" font-size="11.00" fill="#000000">5 &gt;</text>
</a>
</g>
</g>
<!-- invitation_skill&#45;&gt;skill -->
<g id="edge2" class="edge">
<title>invitation_skill:w&#45;&gt;skill:e</title>
<path fill="none" stroke="#000000" d="M172.1211,-222.2926C152.5232,-206.3617 167.8394,-152.7 133.5,-152.7"/>
<polygon fill="#000000" stroke="#000000" points="178.3752,-224.2786 184.9104,-230.1311 182.1876,-225.4893 186,-226.7 186,-226.7 186,-226.7 182.1876,-225.4893 187.0896,-223.2689 178.3752,-224.2786 178.3752,-224.2786"/>
<ellipse fill="none" stroke="#000000" cx="175.3253" cy="-223.3101" rx="3.2" ry="3.2"/>
</g>
</g>
</svg>
