<?xml version="1.0" encoding="UTF-8" standalone="no"?>
<!DOCTYPE svg PUBLIC "-//W3C//DTD SVG 1.1//EN"
 "http://www.w3.org/Graphics/SVG/1.1/DTD/svg11.dtd">
<!-- Generated by graphviz version 2.40.1 (20161225.0304)
 -->
<!-- Title: twoDegreesRelationshipsDiagram Pages: 1 -->
<svg width="525pt" height="554pt"
 viewBox="0.00 0.00 525.00 554.20" xmlns="http://www.w3.org/2000/svg" xmlns:xlink="http://www.w3.org/1999/xlink">
<g id="graph0" class="graph" transform="scale(1 1) rotate(0) translate(4 550.2)">
<title>twoDegreesRelationshipsDiagram</title>
<polygon fill="#ffffff" stroke="transparent" points="-4,4 -4,-550.2 521,-550.2 521,4 -4,4"/>
<text text-anchor="middle" x="72.4936" y="-7.3" font-family="Helvetica,sans-Serif" font-size="11.00" fill="#000000">Generated by SchemaSpy</text>
<!-- applicant_skill -->
<g id="node1" class="node">
<title>applicant_skill</title>
<g id="a_node1"><a xlink:href="../../tables/applicant_skill.html" xlink:title="applicant_skill" target="_top">
<polygon fill="#ffffff" stroke="transparent" points="374.5,-317.2 374.5,-378.2 485.5,-378.2 485.5,-317.2 374.5,-317.2"/>
<polygon fill="#f5f5f5" stroke="transparent" points="375,-354.7 375,-377.7 486,-377.7 486,-354.7 375,-354.7"/>
<polygon fill="none" stroke="#000000" points="375,-354.7 375,-377.7 486,-377.7 486,-354.7 375,-354.7"/>
<text text-anchor="start" x="379.7746" y="-363.8" font-family="Helvetica,sans-Serif" font-weight="bold" font-size="11.00" fill="#000000">applicant_skill</text>
<text text-anchor="start" x="451.5219" y="-362.8" font-family="Helvetica,sans-Serif" font-size="11.00" fill="#000000">[table]</text>
<polygon fill="none" stroke="#000000" points="375,-335.7 375,-354.7 486,-354.7 486,-335.7 375,-335.7"/>
<text text-anchor="start" x="378" y="-341.8" font-family="Helvetica,sans-Serif" font-size="11.00" fill="#000000">...</text>
<polygon fill="#ffffff" stroke="transparent" points="375,-316.7 375,-335.7 410,-335.7 410,-316.7 375,-316.7"/>
<polygon fill="none" stroke="#000000" points="375,-316.7 375,-335.7 410,-335.7 410,-316.7 375,-316.7"/>
<text text-anchor="start" x="378" y="-322.8" font-family="Helvetica,sans-Serif" font-size="11.00" fill="#000000">&lt; 2</text>
<polygon fill="#ffffff" stroke="transparent" points="410,-316.7 410,-335.7 467,-335.7 467,-316.7 410,-316.7"/>
<polygon fill="none" stroke="#000000" points="410,-316.7 410,-335.7 467,-335.7 467,-316.7 410,-316.7"/>
<text text-anchor="start" x="419.3807" y="-322.8" font-family="Helvetica,sans-Serif" font-size="11.00" fill="#000000">181 rows</text>
<polygon fill="#ffffff" stroke="transparent" points="467,-316.7 467,-335.7 486,-335.7 486,-316.7 467,-316.7"/>
<polygon fill="none" stroke="#000000" points="467,-316.7 467,-335.7 486,-335.7 486,-316.7 467,-316.7"/>
<text text-anchor="start" x="476.8862" y="-322.8" font-family="Helvetica,sans-Serif" font-size="11.00" fill="#000000"> &#160;</text>
</a>
</g>
</g>
<!-- skill -->
<g id="node2" class="node">
<title>skill</title>
<g id="a_node2"><a xlink:href="../../tables/skill.html" xlink:title="skill" target="_top">
<polygon fill="#ffffff" stroke="transparent" points="177,-254.2 177,-403.2 300,-403.2 300,-254.2 177,-254.2"/>
<polygon fill="#f5f5f5" stroke="transparent" points="177.5,-379.7 177.5,-402.7 300.5,-402.7 300.5,-379.7 177.5,-379.7"/>
<polygon fill="none" stroke="#000000" points="177.5,-379.7 177.5,-402.7 300.5,-402.7 300.5,-379.7 177.5,-379.7"/>
<text text-anchor="start" x="182.5" y="-388.8" font-family="Helvetica,sans-Serif" font-weight="bold" font-size="11.00" fill="#000000">skill</text>
<text text-anchor="start" x="265.5437" y="-387.8" font-family="Helvetica,sans-Serif" font-size="11.00" fill="#000000">[table]</text>
<polygon fill="none" stroke="#000000" points="177.5,-357.7 177.5,-379.7 300.5,-379.7 300.5,-357.7 177.5,-357.7"/>
<image xlink:href="../../images/primaryKeys.png" width="11px" height="12px" preserveAspectRatio="xMinYMin meet" x="182.5" y="-374.7"/>
<text text-anchor="start" x="197.5" y="-364.8" font-family="Helvetica,sans-Serif" font-size="11.00" fill="#000000">id</text>
<polygon fill="#ffffff" stroke="transparent" points="177.5,-335.7 177.5,-357.7 300.5,-357.7 300.5,-335.7 177.5,-335.7"/>
<polygon fill="none" stroke="#000000" points="177.5,-335.7 177.5,-357.7 300.5,-357.7 300.5,-335.7 177.5,-335.7"/>
<image xlink:href="../../images/foreignKeys.png" width="11px" height="12px" preserveAspectRatio="xMinYMin meet" x="182.5" y="-352.7"/>
<text text-anchor="start" x="197.5" y="-342.8" font-family="Helvetica,sans-Serif" font-size="11.00" fill="#000000">created_by</text>
<polygon fill="#ffffff" stroke="transparent" points="177.5,-313.7 177.5,-335.7 300.5,-335.7 300.5,-313.7 177.5,-313.7"/>
<polygon fill="none" stroke="#000000" points="177.5,-313.7 177.5,-335.7 300.5,-335.7 300.5,-313.7 177.5,-313.7"/>
<image xlink:href="../../images/foreignKeys.png" width="11px" height="12px" preserveAspectRatio="xMinYMin meet" x="182.5" y="-330.7"/>
<text text-anchor="start" x="197.5" y="-320.8" font-family="Helvetica,sans-Serif" font-size="11.00" fill="#000000">modified_by</text>
<polygon fill="#ffffff" stroke="transparent" points="177.5,-291.7 177.5,-313.7 300.5,-313.7 300.5,-291.7 177.5,-291.7"/>
<polygon fill="none" stroke="#000000" points="177.5,-291.7 177.5,-313.7 300.5,-313.7 300.5,-291.7 177.5,-291.7"/>
<text text-anchor="start" x="197.5" y="-298.8" font-family="Helvetica,sans-Serif" font-size="11.00" fill="#000000">name</text>
<polygon fill="none" stroke="#000000" points="177.5,-272.7 177.5,-291.7 300.5,-291.7 300.5,-272.7 177.5,-272.7"/>
<text text-anchor="start" x="180.5" y="-278.8" font-family="Helvetica,sans-Serif" font-size="11.00" fill="#000000">...</text>
<polygon fill="#ffffff" stroke="transparent" points="177.5,-253.7 177.5,-272.7 207.5,-272.7 207.5,-253.7 177.5,-253.7"/>
<polygon fill="none" stroke="#000000" points="177.5,-253.7 177.5,-272.7 207.5,-272.7 207.5,-253.7 177.5,-253.7"/>
<text text-anchor="start" x="180.5" y="-259.8" font-family="Helvetica,sans-Serif" font-size="11.00" fill="#000000">&lt; 2</text>
<polygon fill="#ffffff" stroke="transparent" points="207.5,-253.7 207.5,-272.7 274.5,-272.7 274.5,-253.7 207.5,-253.7"/>
<polygon fill="none" stroke="#000000" points="207.5,-253.7 207.5,-272.7 274.5,-272.7 274.5,-253.7 207.5,-253.7"/>
<text text-anchor="start" x="214.047" y="-259.8" font-family="Helvetica,sans-Serif" font-size="11.00" fill="#000000">2 737 rows</text>
<polygon fill="#ffffff" stroke="transparent" points="274.5,-253.7 274.5,-272.7 300.5,-272.7 300.5,-253.7 274.5,-253.7"/>
<polygon fill="none" stroke="#000000" points="274.5,-253.7 274.5,-272.7 300.5,-272.7 300.5,-253.7 274.5,-253.7"/>
<text text-anchor="start" x="281.9053" y="-259.8" font-family="Helvetica,sans-Serif" font-size="11.00" fill="#000000">5 &gt;</text>
</a>
</g>
</g>
<!-- applicant_skill&#45;&gt;skill -->
<g id="edge1" class="edge">
<title>applicant_skill:w&#45;&gt;skill:e</title>
<path fill="none" stroke="#000000" d="M360.6529,-346.2747C337.9447,-351.6141 329.8514,-368.7 300.5,-368.7"/>
<polygon fill="#000000" stroke="#000000" points="367.0478,-345.5729 375.3928,-348.2785 371.0239,-345.1364 375,-344.7 375,-344.7 375,-344.7 371.0239,-345.1364 374.6072,-341.1215 367.0478,-345.5729 367.0478,-345.5729"/>
<ellipse fill="none" stroke="#000000" cx="363.8669" cy="-345.922" rx="3.2" ry="3.2"/>
</g>
<!-- principal -->
<g id="node10" class="node">
<title>principal</title>
<g id="a_node10"><a xlink:href="../../tables/principal.html" xlink:title="principal" target="_top">
<polygon fill="#ffffff" stroke="transparent" points="21,-406.2 21,-467.2 113,-467.2 113,-406.2 21,-406.2"/>
<polygon fill="#f5f5f5" stroke="transparent" points="21,-443.7 21,-466.7 113,-466.7 113,-443.7 21,-443.7"/>
<polygon fill="none" stroke="#000000" points="21,-443.7 21,-466.7 113,-466.7 113,-443.7 21,-443.7"/>
<text text-anchor="start" x="26" y="-452.8" font-family="Helvetica,sans-Serif" font-weight="bold" font-size="11.00" fill="#000000">principal</text>
<text text-anchor="start" x="78.0437" y="-451.8" font-family="Helvetica,sans-Serif" font-size="11.00" fill="#000000">[table]</text>
<polygon fill="none" stroke="#000000" points="21,-424.7 21,-443.7 113,-443.7 113,-424.7 21,-424.7"/>
<text text-anchor="start" x="24" y="-430.8" font-family="Helvetica,sans-Serif" font-size="11.00" fill="#000000">...</text>
<polygon fill="#ffffff" stroke="transparent" points="21,-405.7 21,-424.7 42,-424.7 42,-405.7 21,-405.7"/>
<polygon fill="none" stroke="#000000" points="21,-405.7 21,-424.7 42,-424.7 42,-405.7 21,-405.7"/>
<text text-anchor="start" x="23.7026" y="-411.8" font-family="Helvetica,sans-Serif" font-size="11.00" fill="#000000">&lt; 1</text>
<polygon fill="#ffffff" stroke="transparent" points="42,-405.7 42,-424.7 86,-424.7 86,-405.7 42,-405.7"/>
<polygon fill="none" stroke="#000000" points="42,-405.7 42,-424.7 86,-424.7 86,-405.7 42,-405.7"/>
<text text-anchor="start" x="44.7478" y="-411.8" font-family="Helvetica,sans-Serif" font-size="11.00" fill="#000000">18 rows</text>
<polygon fill="#ffffff" stroke="transparent" points="86,-405.7 86,-424.7 113,-424.7 113,-405.7 86,-405.7"/>
<polygon fill="none" stroke="#000000" points="86,-405.7 86,-424.7 113,-424.7 113,-405.7 86,-405.7"/>
<text text-anchor="start" x="88.6452" y="-411.8" font-family="Helvetica,sans-Serif" font-size="11.00" fill="#000000">56 &gt;</text>
</a>
</g>
</g>
<!-- skill&#45;&gt;principal -->
<g id="edge14" class="edge">
<title>skill:w&#45;&gt;principal:e</title>
<path fill="none" stroke="#000000" d="M163.245,-350.2183C135.8881,-366.4946 155.3053,-433.7 113,-433.7"/>
<polygon fill="#000000" stroke="#000000" points="169.7331,-348.617 178.3626,-350.1951 173.6165,-347.6585 177.5,-346.7 177.5,-346.7 177.5,-346.7 173.6165,-347.6585 176.6374,-343.2049 169.7331,-348.617 169.7331,-348.617"/>
<ellipse fill="none" stroke="#000000" cx="166.6263" cy="-349.3838" rx="3.2" ry="3.2"/>
</g>
<!-- skill&#45;&gt;principal -->
<g id="edge15" class="edge">
<title>skill:w&#45;&gt;principal:e</title>
<path fill="none" stroke="#000000" d="M163.36,-327.8446C129.8992,-345.7163 163.5737,-433.7 113,-433.7"/>
<polygon fill="#000000" stroke="#000000" points="169.6908,-326.4367 178.2815,-328.2141 173.5954,-325.5684 177.5,-324.7 177.5,-324.7 177.5,-324.7 173.5954,-325.5684 176.7185,-321.1859 169.6908,-326.4367 169.6908,-326.4367"/>
<ellipse fill="none" stroke="#000000" cx="166.5671" cy="-327.1314" rx="3.2" ry="3.2"/>
</g>
<!-- invitation -->
<g id="node3" class="node">
<title>invitation</title>
<g id="a_node3"><a xlink:href="../../tables/invitation.html" xlink:title="invitation" target="_top">
<polygon fill="#ffffff" stroke="transparent" points="175,-55.2 175,-204.2 302,-204.2 302,-55.2 175,-55.2"/>
<polygon fill="#f5f5f5" stroke="transparent" points="175.5,-180.7 175.5,-203.7 302.5,-203.7 302.5,-180.7 175.5,-180.7"/>
<polygon fill="none" stroke="#000000" points="175.5,-180.7 175.5,-203.7 302.5,-203.7 302.5,-180.7 175.5,-180.7"/>
<text text-anchor="start" x="180.5" y="-189.8" font-family="Helvetica,sans-Serif" font-weight="bold" font-size="11.00" fill="#000000">invitation</text>
<text text-anchor="start" x="267.5437" y="-188.8" font-family="Helvetica,sans-Serif" font-size="11.00" fill="#000000">[table]</text>
<polygon fill="none" stroke="#000000" points="175.5,-158.7 175.5,-180.7 302.5,-180.7 302.5,-158.7 175.5,-158.7"/>
<image xlink:href="../../images/primaryKeys.png" width="11px" height="12px" preserveAspectRatio="xMinYMin meet" x="180.5" y="-175.7"/>
<text text-anchor="start" x="195.5" y="-165.8" font-family="Helvetica,sans-Serif" font-size="11.00" fill="#000000">id</text>
<polygon fill="#ffffff" stroke="transparent" points="175.5,-136.7 175.5,-158.7 302.5,-158.7 302.5,-136.7 175.5,-136.7"/>
<polygon fill="none" stroke="#000000" points="175.5,-136.7 175.5,-158.7 302.5,-158.7 302.5,-136.7 175.5,-136.7"/>
<image xlink:href="../../images/foreignKeys.png" width="11px" height="12px" preserveAspectRatio="xMinYMin meet" x="180.5" y="-153.7"/>
<text text-anchor="start" x="195.5" y="-143.8" font-family="Helvetica,sans-Serif" font-size="11.00" fill="#000000">location_id</text>
<polygon fill="#ffffff" stroke="transparent" points="175.5,-114.7 175.5,-136.7 302.5,-136.7 302.5,-114.7 175.5,-114.7"/>
<polygon fill="none" stroke="#000000" points="175.5,-114.7 175.5,-136.7 302.5,-136.7 302.5,-114.7 175.5,-114.7"/>
<image xlink:href="../../images/foreignKeys.png" width="11px" height="12px" preserveAspectRatio="xMinYMin meet" x="180.5" y="-131.7"/>
<text text-anchor="start" x="195.5" y="-121.8" font-family="Helvetica,sans-Serif" font-size="11.00" fill="#000000">role_id</text>
<polygon fill="#ffffff" stroke="transparent" points="175.5,-92.7 175.5,-114.7 302.5,-114.7 302.5,-92.7 175.5,-92.7"/>
<polygon fill="none" stroke="#000000" points="175.5,-92.7 175.5,-114.7 302.5,-114.7 302.5,-92.7 175.5,-92.7"/>
<image xlink:href="../../images/foreignKeys.png" width="11px" height="12px" preserveAspectRatio="xMinYMin meet" x="180.5" y="-109.7"/>
<text text-anchor="start" x="195.5" y="-99.8" font-family="Helvetica,sans-Serif" font-size="11.00" fill="#000000">contact_person_id</text>
<polygon fill="none" stroke="#000000" points="175.5,-73.7 175.5,-92.7 302.5,-92.7 302.5,-73.7 175.5,-73.7"/>
<text text-anchor="start" x="178.5" y="-79.8" font-family="Helvetica,sans-Serif" font-size="11.00" fill="#000000">...</text>
<polygon fill="#ffffff" stroke="transparent" points="175.5,-54.7 175.5,-73.7 219.5,-73.7 219.5,-54.7 175.5,-54.7"/>
<polygon fill="none" stroke="#000000" points="175.5,-54.7 175.5,-73.7 219.5,-73.7 219.5,-54.7 175.5,-54.7"/>
<text text-anchor="start" x="178.5" y="-60.8" font-family="Helvetica,sans-Serif" font-size="11.00" fill="#000000">&lt; 3</text>
<polygon fill="#ffffff" stroke="transparent" points="219.5,-54.7 219.5,-73.7 269.5,-73.7 269.5,-54.7 219.5,-54.7"/>
<polygon fill="none" stroke="#000000" points="219.5,-54.7 219.5,-73.7 269.5,-73.7 269.5,-54.7 219.5,-54.7"/>
<text text-anchor="start" x="234.1105" y="-60.8" font-family="Helvetica,sans-Serif" font-size="11.00" fill="#000000">4 rows</text>
<polygon fill="#ffffff" stroke="transparent" points="269.5,-54.7 269.5,-73.7 302.5,-73.7 302.5,-54.7 269.5,-54.7"/>
<polygon fill="none" stroke="#000000" points="269.5,-54.7 269.5,-73.7 302.5,-73.7 302.5,-54.7 269.5,-54.7"/>
<text text-anchor="start" x="283.9053" y="-60.8" font-family="Helvetica,sans-Serif" font-size="11.00" fill="#000000">2 &gt;</text>
</a>
</g>
</g>
<!-- contact_person -->
<g id="node4" class="node">
<title>contact_person</title>
<g id="a_node4"><a xlink:href="../../tables/contact_person.html" xlink:title="contact_person" target="_top">
<polygon fill="#ffffff" stroke="transparent" points="8,-38.2 8,-99.2 126,-99.2 126,-38.2 8,-38.2"/>
<polygon fill="#f5f5f5" stroke="transparent" points="8,-75.7 8,-98.7 126,-98.7 126,-75.7 8,-75.7"/>
<polygon fill="none" stroke="#000000" points="8,-75.7 8,-98.7 126,-98.7 126,-75.7 8,-75.7"/>
<text text-anchor="start" x="12.9025" y="-84.8" font-family="Helvetica,sans-Serif" font-weight="bold" font-size="11.00" fill="#000000">contact_person</text>
<text text-anchor="start" x="91.5219" y="-83.8" font-family="Helvetica,sans-Serif" font-size="11.00" fill="#000000">[table]</text>
<polygon fill="none" stroke="#000000" points="8,-56.7 8,-75.7 126,-75.7 126,-56.7 8,-56.7"/>
<text text-anchor="start" x="11" y="-62.8" font-family="Helvetica,sans-Serif" font-size="11.00" fill="#000000">...</text>
<polygon fill="#ffffff" stroke="transparent" points="8,-37.7 8,-56.7 37,-56.7 37,-37.7 8,-37.7"/>
<polygon fill="none" stroke="#000000" points="8,-37.7 8,-56.7 37,-56.7 37,-37.7 8,-37.7"/>
<text text-anchor="start" x="11" y="-43.8" font-family="Helvetica,sans-Serif" font-size="11.00" fill="#000000"> &#160;</text>
<polygon fill="#ffffff" stroke="transparent" points="37,-37.7 37,-56.7 96,-56.7 96,-37.7 37,-37.7"/>
<polygon fill="none" stroke="#000000" points="37,-37.7 37,-56.7 96,-56.7 96,-37.7 37,-37.7"/>
<text text-anchor="start" x="48.3807" y="-43.8" font-family="Helvetica,sans-Serif" font-size="11.00" fill="#000000">109 rows</text>
<polygon fill="#ffffff" stroke="transparent" points="96,-37.7 96,-56.7 126,-56.7 126,-37.7 96,-37.7"/>
<polygon fill="none" stroke="#000000" points="96,-37.7 96,-56.7 126,-56.7 126,-37.7 96,-37.7"/>
<text text-anchor="start" x="107.4053" y="-43.8" font-family="Helvetica,sans-Serif" font-size="11.00" fill="#000000">2 &gt;</text>
</a>
</g>
</g>
<!-- invitation&#45;&gt;contact_person -->
<g id="edge2" class="edge">
<title>invitation:w&#45;&gt;contact_person:e</title>
<path fill="none" stroke="#000000" d="M161.4318,-99.0405C148.764,-88.8934 147.668,-65.7 126,-65.7"/>
<polygon fill="#000000" stroke="#000000" points="167.9057,-101.1847 174.3681,-107.1174 171.7029,-102.4423 175.5,-103.7 175.5,-103.7 175.5,-103.7 171.7029,-102.4423 176.6319,-100.2826 167.9057,-101.1847 167.9057,-101.1847"/>
<ellipse fill="none" stroke="#000000" cx="164.868" cy="-100.1785" rx="3.2" ry="3.2"/>
</g>
<!-- location -->
<g id="node5" class="node">
<title>location</title>
<g id="a_node5"><a xlink:href="../../tables/location.html" xlink:title="location" target="_top">
<polygon fill="#ffffff" stroke="transparent" points="25.5,-120.2 25.5,-181.2 108.5,-181.2 108.5,-120.2 25.5,-120.2"/>
<polygon fill="#f5f5f5" stroke="transparent" points="26,-157.7 26,-180.7 109,-180.7 109,-157.7 26,-157.7"/>
<polygon fill="none" stroke="#000000" points="26,-157.7 26,-180.7 109,-180.7 109,-157.7 26,-157.7"/>
<text text-anchor="start" x="31" y="-166.8" font-family="Helvetica,sans-Serif" font-weight="bold" font-size="11.00" fill="#000000">location</text>
<text text-anchor="start" x="74.0437" y="-165.8" font-family="Helvetica,sans-Serif" font-size="11.00" fill="#000000">[table]</text>
<polygon fill="none" stroke="#000000" points="26,-138.7 26,-157.7 109,-157.7 109,-138.7 26,-138.7"/>
<text text-anchor="start" x="29" y="-144.8" font-family="Helvetica,sans-Serif" font-size="11.00" fill="#000000">...</text>
<polygon fill="#ffffff" stroke="transparent" points="26,-119.7 26,-138.7 38,-138.7 38,-119.7 26,-119.7"/>
<polygon fill="none" stroke="#000000" points="26,-119.7 26,-138.7 38,-138.7 38,-119.7 26,-119.7"/>
<text text-anchor="start" x="28.9431" y="-125.8" font-family="Helvetica,sans-Serif" font-size="11.00" fill="#000000"> &#160;</text>
<polygon fill="#ffffff" stroke="transparent" points="38,-119.7 38,-138.7 88,-138.7 88,-119.7 38,-119.7"/>
<polygon fill="none" stroke="#000000" points="38,-119.7 38,-138.7 88,-138.7 88,-119.7 38,-119.7"/>
<text text-anchor="start" x="40.6903" y="-125.8" font-family="Helvetica,sans-Serif" font-size="11.00" fill="#000000">541 rows</text>
<polygon fill="#ffffff" stroke="transparent" points="88,-119.7 88,-138.7 109,-138.7 109,-119.7 88,-119.7"/>
<polygon fill="none" stroke="#000000" points="88,-119.7 88,-138.7 109,-138.7 109,-119.7 88,-119.7"/>
<text text-anchor="start" x="90.7027" y="-125.8" font-family="Helvetica,sans-Serif" font-size="11.00" fill="#000000">4 &gt;</text>
</a>
</g>
</g>
<!-- invitation&#45;&gt;location -->
<g id="edge3" class="edge">
<title>invitation:w&#45;&gt;location:e</title>
<path fill="none" stroke="#000000" d="M160.9207,-147.7C142.3943,-147.7 133.0139,-147.7 109,-147.7"/>
<polygon fill="#000000" stroke="#000000" points="167.5,-147.7001 175.5,-151.3 171.5,-147.7 175.5,-147.7 175.5,-147.7 175.5,-147.7 171.5,-147.7 175.5,-144.1 167.5,-147.7001 167.5,-147.7001"/>
<ellipse fill="none" stroke="#000000" cx="164.3" cy="-147.7001" rx="3.2" ry="3.2"/>
</g>
<!-- skill_role -->
<g id="node6" class="node">
<title>skill_role</title>
<g id="a_node6"><a xlink:href="../../tables/skill_role.html" xlink:title="skill_role" target="_top">
<polygon fill="#ffffff" stroke="transparent" points="24.5,-202.2 24.5,-263.2 109.5,-263.2 109.5,-202.2 24.5,-202.2"/>
<polygon fill="#f5f5f5" stroke="transparent" points="25,-239.7 25,-262.7 110,-262.7 110,-239.7 25,-239.7"/>
<polygon fill="none" stroke="#000000" points="25,-239.7 25,-262.7 110,-262.7 110,-239.7 25,-239.7"/>
<text text-anchor="start" x="29.6149" y="-248.8" font-family="Helvetica,sans-Serif" font-weight="bold" font-size="11.00" fill="#000000">skill_role</text>
<text text-anchor="start" x="75.5219" y="-247.8" font-family="Helvetica,sans-Serif" font-size="11.00" fill="#000000">[table]</text>
<polygon fill="none" stroke="#000000" points="25,-220.7 25,-239.7 110,-239.7 110,-220.7 25,-220.7"/>
<text text-anchor="start" x="28" y="-226.8" font-family="Helvetica,sans-Serif" font-size="11.00" fill="#000000">...</text>
<polygon fill="#ffffff" stroke="transparent" points="25,-201.7 25,-220.7 38,-220.7 38,-201.7 25,-201.7"/>
<polygon fill="none" stroke="#000000" points="25,-201.7 25,-220.7 38,-220.7 38,-201.7 25,-201.7"/>
<text text-anchor="start" x="28" y="-207.8" font-family="Helvetica,sans-Serif" font-size="11.00" fill="#000000"> &#160;</text>
<polygon fill="#ffffff" stroke="transparent" points="38,-201.7 38,-220.7 88,-220.7 88,-201.7 38,-201.7"/>
<polygon fill="none" stroke="#000000" points="38,-201.7 38,-220.7 88,-220.7 88,-201.7 38,-201.7"/>
<text text-anchor="start" x="40.6903" y="-207.8" font-family="Helvetica,sans-Serif" font-size="11.00" fill="#000000">603 rows</text>
<polygon fill="#ffffff" stroke="transparent" points="88,-201.7 88,-220.7 110,-220.7 110,-201.7 88,-201.7"/>
<polygon fill="none" stroke="#000000" points="88,-201.7 88,-220.7 110,-220.7 110,-201.7 88,-201.7"/>
<text text-anchor="start" x="91.4053" y="-207.8" font-family="Helvetica,sans-Serif" font-size="11.00" fill="#000000">4 &gt;</text>
</a>
</g>
</g>
<!-- invitation&#45;&gt;skill_role -->
<g id="edge4" class="edge">
<title>invitation:w&#45;&gt;skill_role:e</title>
<path fill="none" stroke="#000000" d="M161.2682,-128.9266C129.0089,-146.4806 158.8643,-229.7 110,-229.7"/>
<polygon fill="#000000" stroke="#000000" points="167.698,-127.4689 176.296,-129.2109 171.599,-126.5844 175.5,-125.7 175.5,-125.7 175.5,-125.7 171.599,-126.5844 174.704,-122.1891 167.698,-127.4689 167.698,-127.4689"/>
<ellipse fill="none" stroke="#000000" cx="164.5772" cy="-128.1764" rx="3.2" ry="3.2"/>
</g>
<!-- invitation_document -->
<g id="node7" class="node">
<title>invitation_document</title>
<g id="a_node7"><a xlink:href="../../tables/invitation_document.html" xlink:title="invitation_document" target="_top">
<polygon fill="#ffffff" stroke="transparent" points="360,-41.2 360,-102.2 500,-102.2 500,-41.2 360,-41.2"/>
<polygon fill="#f5f5f5" stroke="transparent" points="360,-78.7 360,-101.7 500,-101.7 500,-78.7 360,-78.7"/>
<polygon fill="none" stroke="#000000" points="360,-78.7 360,-101.7 500,-101.7 500,-78.7 360,-78.7"/>
<text text-anchor="start" x="364.5979" y="-87.8" font-family="Helvetica,sans-Serif" font-weight="bold" font-size="11.00" fill="#000000">invitation_document</text>
<text text-anchor="start" x="465.5219" y="-86.8" font-family="Helvetica,sans-Serif" font-size="11.00" fill="#000000">[table]</text>
<polygon fill="none" stroke="#000000" points="360,-59.7 360,-78.7 500,-78.7 500,-59.7 360,-59.7"/>
<text text-anchor="start" x="363" y="-65.8" font-family="Helvetica,sans-Serif" font-size="11.00" fill="#000000">...</text>
<polygon fill="#ffffff" stroke="transparent" points="360,-40.7 360,-59.7 415,-59.7 415,-40.7 360,-40.7"/>
<polygon fill="none" stroke="#000000" points="360,-40.7 360,-59.7 415,-59.7 415,-40.7 360,-40.7"/>
<text text-anchor="start" x="363" y="-46.8" font-family="Helvetica,sans-Serif" font-size="11.00" fill="#000000">&lt; 2</text>
<polygon fill="#ffffff" stroke="transparent" points="415,-40.7 415,-59.7 470,-59.7 470,-40.7 415,-40.7"/>
<polygon fill="none" stroke="#000000" points="415,-40.7 415,-59.7 470,-59.7 470,-40.7 415,-40.7"/>
<text text-anchor="start" x="434.6105" y="-46.8" font-family="Helvetica,sans-Serif" font-size="11.00" fill="#000000">4 rows</text>
<polygon fill="#ffffff" stroke="transparent" points="470,-40.7 470,-59.7 500,-59.7 500,-40.7 470,-40.7"/>
<polygon fill="none" stroke="#000000" points="470,-40.7 470,-59.7 500,-59.7 500,-40.7 470,-40.7"/>
<text text-anchor="start" x="490.8862" y="-46.8" font-family="Helvetica,sans-Serif" font-size="11.00" fill="#000000"> &#160;</text>
</a>
</g>
</g>
<!-- invitation_document&#45;&gt;invitation -->
<g id="edge5" class="edge">
<title>invitation_document:w&#45;&gt;invitation:e</title>
<path fill="none" stroke="#000000" d="M345.9145,-72.2946C317.4739,-90.2867 348.3023,-169.7 302.5,-169.7"/>
<polygon fill="#000000" stroke="#000000" points="352.2484,-70.6783 360.8902,-72.1882 356.1242,-69.6891 360,-68.7 360,-68.7 360,-68.7 356.1242,-69.6891 359.1098,-65.2118 352.2484,-70.6783 352.2484,-70.6783"/>
<ellipse fill="none" stroke="#000000" cx="349.1478" cy="-71.4696" rx="3.2" ry="3.2"/>
</g>
<!-- invitation_skill -->
<g id="node8" class="node">
<title>invitation_skill</title>
<g id="a_node8"><a xlink:href="../../tables/invitation_skill.html" xlink:title="invitation_skill" target="_top">
<polygon fill="#ffffff" stroke="transparent" points="351,-123.7 351,-213.7 509,-213.7 509,-123.7 351,-123.7"/>
<polygon fill="#f5f5f5" stroke="transparent" points="353,-188.7 353,-211.7 507,-211.7 507,-188.7 353,-188.7"/>
<polygon fill="none" stroke="#000000" points="353,-188.7 353,-211.7 507,-211.7 507,-188.7 353,-188.7"/>
<text text-anchor="start" x="358" y="-197.8" font-family="Helvetica,sans-Serif" font-weight="bold" font-size="11.00" fill="#000000">invitation_skill</text>
<text text-anchor="start" x="472.0437" y="-196.8" font-family="Helvetica,sans-Serif" font-size="11.00" fill="#000000">[table]</text>
<polygon fill="#ffffff" stroke="transparent" points="353,-166.7 353,-188.7 457,-188.7 457,-166.7 353,-166.7"/>
<polygon fill="none" stroke="#000000" points="353,-166.7 353,-188.7 457,-188.7 457,-166.7 353,-166.7"/>
<image xlink:href="../../images/foreignKeys.png" width="11px" height="12px" preserveAspectRatio="xMinYMin meet" x="358" y="-183.7"/>
<text text-anchor="start" x="373" y="-173.8" font-family="Helvetica,sans-Serif" font-size="11.00" fill="#000000">invitation_id</text>
<polygon fill="none" stroke="#000000" points="457,-166.7 457,-188.7 507,-188.7 507,-166.7 457,-166.7"/>
<text text-anchor="start" x="459.6865" y="-174.4" font-family="Helvetica,sans-Serif" font-size="11.00" fill="#000000">bigint[19]</text>
<polygon fill="#ffffff" stroke="transparent" points="353,-144.7 353,-166.7 457,-166.7 457,-144.7 353,-144.7"/>
<polygon fill="none" stroke="#000000" points="353,-144.7 353,-166.7 457,-166.7 457,-144.7 353,-144.7"/>
<image xlink:href="../../images/foreignKeys.png" width="11px" height="12px" preserveAspectRatio="xMinYMin meet" x="358" y="-161.7"/>
<text text-anchor="start" x="373" y="-151.8" font-family="Helvetica,sans-Serif" font-size="11.00" fill="#000000">skill_id</text>
<polygon fill="none" stroke="#000000" points="457,-144.7 457,-166.7 507,-166.7 507,-144.7 457,-144.7"/>
<text text-anchor="start" x="459.6865" y="-152.4" font-family="Helvetica,sans-Serif" font-size="11.00" fill="#000000">bigint[19]</text>
<polygon fill="#ffffff" stroke="transparent" points="353,-125.7 353,-144.7 396,-144.7 396,-125.7 353,-125.7"/>
<polygon fill="none" stroke="#000000" points="353,-125.7 353,-144.7 396,-144.7 396,-125.7 353,-125.7"/>
<text text-anchor="start" x="356" y="-131.8" font-family="Helvetica,sans-Serif" font-size="11.00" fill="#000000">&lt; 2</text>
<polygon fill="#ffffff" stroke="transparent" points="396,-125.7 396,-144.7 457,-144.7 457,-125.7 396,-125.7"/>
<polygon fill="none" stroke="#000000" points="396,-125.7 396,-144.7 457,-144.7 457,-125.7 396,-125.7"/>
<text text-anchor="start" x="421.6105" y="-131.8" font-family="Helvetica,sans-Serif" font-size="11.00" fill="#000000">4 rows</text>
<polygon fill="#ffffff" stroke="transparent" points="457,-125.7 457,-144.7 507,-144.7 507,-125.7 457,-125.7"/>
<polygon fill="none" stroke="#000000" points="457,-125.7 457,-144.7 507,-144.7 507,-125.7 457,-125.7"/>
<text text-anchor="start" x="488.4053" y="-131.8" font-family="Helvetica,sans-Serif" font-size="11.00" fill="#000000">0 &gt;</text>
<polygon fill="none" stroke="#000000" stroke-width="2" points="352,-124.7 352,-212.7 508,-212.7 508,-124.7 352,-124.7"/>
</a>
</g>
</g>
<!-- invitation_skill&#45;&gt;skill -->
<g id="edge7" class="edge">
<title>invitation_skill:w&#45;&gt;skill:e</title>
<path fill="none" stroke="#000000" d="M338.6553,-157.6726C270.8727,-179.1456 392.4774,-368.7 300.5,-368.7"/>
<polygon fill="#000000" stroke="#000000" points="345.0746,-156.7899 353.4905,-159.2664 349.0373,-156.245 353,-155.7 353,-155.7 353,-155.7 349.0373,-156.245 352.5095,-152.1336 345.0746,-156.7899 345.0746,-156.7899"/>
<ellipse fill="none" stroke="#000000" cx="341.9044" cy="-157.2259" rx="3.2" ry="3.2"/>
</g>
<!-- invitation_skill&#45;&gt;invitation -->
<g id="edge6" class="edge">
<title>invitation_skill:w&#45;&gt;invitation:e</title>
<path fill="none" stroke="#000000" d="M338.3425,-176.379C326.4964,-174.1067 319.3657,-169.7 302.5,-169.7"/>
<polygon fill="#000000" stroke="#000000" points="345.0323,-176.9818 352.6768,-181.2855 349.0161,-177.3409 353,-177.7 353,-177.7 353,-177.7 349.0161,-177.3409 353.3232,-174.1145 345.0323,-176.9818 345.0323,-176.9818"/>
<ellipse fill="none" stroke="#000000" cx="341.8452" cy="-176.6946" rx="3.2" ry="3.2"/>
</g>
<!-- job_ad_skill -->
<g id="node9" class="node">
<title>job_ad_skill</title>
<g id="a_node9"><a xlink:href="../../tables/job_ad_skill.html" xlink:title="job_ad_skill" target="_top">
<polygon fill="#ffffff" stroke="transparent" points="380,-399.2 380,-460.2 480,-460.2 480,-399.2 380,-399.2"/>
<polygon fill="#f5f5f5" stroke="transparent" points="380,-436.7 380,-459.7 480,-459.7 480,-436.7 380,-436.7"/>
<polygon fill="none" stroke="#000000" points="380,-436.7 380,-459.7 480,-459.7 480,-436.7 380,-436.7"/>
<text text-anchor="start" x="384.7735" y="-445.8" font-family="Helvetica,sans-Serif" font-weight="bold" font-size="11.00" fill="#000000">job_ad_skill</text>
<text text-anchor="start" x="445.5219" y="-444.8" font-family="Helvetica,sans-Serif" font-size="11.00" fill="#000000">[table]</text>
<polygon fill="none" stroke="#000000" points="380,-417.7 380,-436.7 480,-436.7 480,-417.7 380,-417.7"/>
<text text-anchor="start" x="383" y="-423.8" font-family="Helvetica,sans-Serif" font-size="11.00" fill="#000000">...</text>
<polygon fill="#ffffff" stroke="transparent" points="380,-398.7 380,-417.7 409,-417.7 409,-398.7 380,-398.7"/>
<polygon fill="none" stroke="#000000" points="380,-398.7 380,-417.7 409,-417.7 409,-398.7 380,-398.7"/>
<text text-anchor="start" x="383" y="-404.8" font-family="Helvetica,sans-Serif" font-size="11.00" fill="#000000">&lt; 4</text>
<polygon fill="#ffffff" stroke="transparent" points="409,-398.7 409,-417.7 463,-417.7 463,-398.7 409,-398.7"/>
<polygon fill="none" stroke="#000000" points="409,-398.7 409,-417.7 463,-417.7 463,-398.7 409,-398.7"/>
<text text-anchor="start" x="415.3807" y="-404.8" font-family="Helvetica,sans-Serif" font-size="11.00" fill="#000000">138 rows</text>
<polygon fill="#ffffff" stroke="transparent" points="463,-398.7 463,-417.7 480,-417.7 480,-398.7 463,-398.7"/>
<polygon fill="none" stroke="#000000" points="463,-398.7 463,-417.7 480,-417.7 480,-398.7 463,-398.7"/>
<text text-anchor="start" x="470.8862" y="-404.8" font-family="Helvetica,sans-Serif" font-size="11.00" fill="#000000"> &#160;</text>
</a>
</g>
</g>
<!-- job_ad_skill&#45;&gt;skill -->
<g id="edge10" class="edge">
<title>job_ad_skill:w&#45;&gt;skill:e</title>
<path fill="none" stroke="#000000" d="M365.4423,-424.0571C337.4594,-412.7107 338.5992,-368.7 300.5,-368.7"/>
<polygon fill="#000000" stroke="#000000" points="372.1287,-425.271 379.3569,-430.2421 376.0643,-425.9855 380,-426.7 380,-426.7 380,-426.7 376.0643,-425.9855 380.6431,-423.1579 372.1287,-425.271 372.1287,-425.271"/>
<ellipse fill="none" stroke="#000000" cx="368.9801" cy="-424.6993" rx="3.2" ry="3.2"/>
</g>
<!-- job_ad_skill&#45;&gt;principal -->
<g id="edge8" class="edge">
<title>job_ad_skill:w&#45;&gt;principal:e</title>
<path fill="none" stroke="#000000" d="M365.5039,-426.736C258.6507,-427.2755 226.7227,-433.7 113,-433.7"/>
<polygon fill="#000000" stroke="#000000" points="372,-426.7199 380.009,-430.3 376,-426.71 380,-426.7 380,-426.7 380,-426.7 376,-426.71 379.991,-423.1 372,-426.7199 372,-426.7199"/>
<ellipse fill="none" stroke="#000000" cx="368.8" cy="-426.7279" rx="3.2" ry="3.2"/>
</g>
<!-- job_ad_skill&#45;&gt;principal -->
<g id="edge9" class="edge">
<title>job_ad_skill:w&#45;&gt;principal:e</title>
<path fill="none" stroke="#000000" d="M365.5039,-426.736C258.6507,-427.2755 226.7227,-433.7 113,-433.7"/>
<polygon fill="#000000" stroke="#000000" points="372,-426.7199 380.009,-430.3 376,-426.71 380,-426.7 380,-426.7 380,-426.7 376,-426.71 379.991,-423.1 372,-426.7199 372,-426.7199"/>
<ellipse fill="none" stroke="#000000" cx="368.8" cy="-426.7279" rx="3.2" ry="3.2"/>
</g>
<!-- job_request_skill -->
<g id="node11" class="node">
<title>job_request_skill</title>
<g id="a_node11"><a xlink:href="../../tables/job_request_skill.html" xlink:title="job_request_skill" target="_top">
<polygon fill="#ffffff" stroke="transparent" points="368,-481.2 368,-542.2 492,-542.2 492,-481.2 368,-481.2"/>
<polygon fill="#f5f5f5" stroke="transparent" points="368,-518.7 368,-541.7 492,-541.7 492,-518.7 368,-518.7"/>
<polygon fill="none" stroke="#000000" points="368,-518.7 368,-541.7 492,-541.7 492,-518.7 368,-518.7"/>
<text text-anchor="start" x="372.5492" y="-527.8" font-family="Helvetica,sans-Serif" font-weight="bold" font-size="11.00" fill="#000000">job_request_skill</text>
<text text-anchor="start" x="457.5219" y="-526.8" font-family="Helvetica,sans-Serif" font-size="11.00" fill="#000000">[table]</text>
<polygon fill="none" stroke="#000000" points="368,-499.7 368,-518.7 492,-518.7 492,-499.7 368,-499.7"/>
<text text-anchor="start" x="371" y="-505.8" font-family="Helvetica,sans-Serif" font-size="11.00" fill="#000000">...</text>
<polygon fill="#ffffff" stroke="transparent" points="368,-480.7 368,-499.7 409,-499.7 409,-480.7 368,-480.7"/>
<polygon fill="none" stroke="#000000" points="368,-480.7 368,-499.7 409,-499.7 409,-480.7 368,-480.7"/>
<text text-anchor="start" x="371" y="-486.8" font-family="Helvetica,sans-Serif" font-size="11.00" fill="#000000">&lt; 4</text>
<polygon fill="#ffffff" stroke="transparent" points="409,-480.7 409,-499.7 469,-499.7 469,-480.7 409,-480.7"/>
<polygon fill="none" stroke="#000000" points="409,-480.7 409,-499.7 469,-499.7 469,-480.7 409,-480.7"/>
<text text-anchor="start" x="421.3807" y="-486.8" font-family="Helvetica,sans-Serif" font-size="11.00" fill="#000000">494 rows</text>
<polygon fill="#ffffff" stroke="transparent" points="469,-480.7 469,-499.7 492,-499.7 492,-480.7 469,-480.7"/>
<polygon fill="none" stroke="#000000" points="469,-480.7 469,-499.7 492,-499.7 492,-480.7 469,-480.7"/>
<text text-anchor="start" x="482.8862" y="-486.8" font-family="Helvetica,sans-Serif" font-size="11.00" fill="#000000"> &#160;</text>
</a>
</g>
</g>
<!-- job_request_skill&#45;&gt;skill -->
<g id="edge13" class="edge">
<title>job_request_skill:w&#45;&gt;skill:e</title>
<path fill="none" stroke="#000000" d="M353.6672,-506.0283C309.5745,-486.6733 363.9103,-368.7 300.5,-368.7"/>
<polygon fill="#000000" stroke="#000000" points="360.1355,-507.234 367.3403,-512.239 364.0677,-507.967 368,-508.7 368,-508.7 368,-508.7 364.0677,-507.967 368.6597,-505.161 360.1355,-507.234 360.1355,-507.234"/>
<ellipse fill="none" stroke="#000000" cx="356.9896" cy="-506.6476" rx="3.2" ry="3.2"/>
</g>
<!-- job_request_skill&#45;&gt;principal -->
<g id="edge11" class="edge">
<title>job_request_skill:w&#45;&gt;principal:e</title>
<path fill="none" stroke="#000000" d="M353.493,-506.3732C298.9879,-493.714 139.4186,-433.7 113,-433.7"/>
<polygon fill="#000000" stroke="#000000" points="360.101,-507.433 367.4298,-512.2546 364.0505,-508.0665 368,-508.7 368,-508.7 368,-508.7 364.0505,-508.0665 368.5702,-505.1454 360.101,-507.433 360.101,-507.433"/>
<ellipse fill="none" stroke="#000000" cx="356.9413" cy="-506.9262" rx="3.2" ry="3.2"/>
</g>
<!-- job_request_skill&#45;&gt;principal -->
<g id="edge12" class="edge">
<title>job_request_skill:w&#45;&gt;principal:e</title>
<path fill="none" stroke="#000000" d="M353.6264,-507.5219C289.0456,-497.9803 167.683,-433.7 113,-433.7"/>
<polygon fill="#000000" stroke="#000000" points="360.0267,-508.0465 367.7059,-512.288 364.0134,-508.3732 368,-508.7 368,-508.7 368,-508.7 364.0134,-508.3732 368.2941,-505.112 360.0267,-508.0465 360.0267,-508.0465"/>
<ellipse fill="none" stroke="#000000" cx="356.8374" cy="-507.785" rx="3.2" ry="3.2"/>
</g>
<!-- skill_role_skill -->
<g id="node12" class="node">
<title>skill_role_skill</title>
<g id="a_node12"><a xlink:href="../../tables/skill_role_skill.html" xlink:title="skill_role_skill" target="_top">
<polygon fill="#ffffff" stroke="transparent" points="375,-235.2 375,-296.2 485,-296.2 485,-235.2 375,-235.2"/>
<polygon fill="#f5f5f5" stroke="transparent" points="375,-272.7 375,-295.7 485,-295.7 485,-272.7 375,-272.7"/>
<polygon fill="none" stroke="#000000" points="375,-272.7 375,-295.7 485,-295.7 485,-272.7 375,-272.7"/>
<text text-anchor="start" x="379.8961" y="-281.8" font-family="Helvetica,sans-Serif" font-weight="bold" font-size="11.00" fill="#000000">skill_role_skill</text>
<text text-anchor="start" x="450.5219" y="-280.8" font-family="Helvetica,sans-Serif" font-size="11.00" fill="#000000">[table]</text>
<polygon fill="none" stroke="#000000" points="375,-253.7 375,-272.7 485,-272.7 485,-253.7 375,-253.7"/>
<text text-anchor="start" x="378" y="-259.8" font-family="Helvetica,sans-Serif" font-size="11.00" fill="#000000">...</text>
<polygon fill="#ffffff" stroke="transparent" points="375,-234.7 375,-253.7 403,-253.7 403,-234.7 375,-234.7"/>
<polygon fill="none" stroke="#000000" points="375,-234.7 375,-253.7 403,-253.7 403,-234.7 375,-234.7"/>
<text text-anchor="start" x="378" y="-240.8" font-family="Helvetica,sans-Serif" font-size="11.00" fill="#000000">&lt; 2</text>
<polygon fill="#ffffff" stroke="transparent" points="403,-234.7 403,-253.7 469,-253.7 469,-234.7 403,-234.7"/>
<polygon fill="none" stroke="#000000" points="403,-234.7 403,-253.7 469,-253.7 469,-234.7 403,-234.7"/>
<text text-anchor="start" x="408.547" y="-240.8" font-family="Helvetica,sans-Serif" font-size="11.00" fill="#000000">8 110 rows</text>
<polygon fill="#ffffff" stroke="transparent" points="469,-234.7 469,-253.7 485,-253.7 485,-234.7 469,-234.7"/>
<polygon fill="none" stroke="#000000" points="469,-234.7 469,-253.7 485,-253.7 485,-234.7 469,-234.7"/>
<text text-anchor="start" x="475.8862" y="-240.8" font-family="Helvetica,sans-Serif" font-size="11.00" fill="#000000"> &#160;</text>
</a>
</g>
</g>
<!-- skill_role_skill&#45;&gt;skill -->
<g id="edge16" class="edge">
<title>skill_role_skill:w&#45;&gt;skill:e</title>
<path fill="none" stroke="#000000" d="M360.7579,-265.5352C324.4226,-282.3922 352.4597,-368.7 300.5,-368.7"/>
<polygon fill="#000000" stroke="#000000" points="367.154,-264.262 375.7029,-266.2307 371.077,-263.481 375,-262.7 375,-262.7 375,-262.7 371.077,-263.481 374.2971,-259.1693 367.154,-264.262 367.154,-264.262"/>
<ellipse fill="none" stroke="#000000" cx="364.0155" cy="-264.8868" rx="3.2" ry="3.2"/>
</g>
<!-- skill_role_skill&#45;&gt;skill_role -->
<g id="edge17" class="edge">
<title>skill_role_skill:w&#45;&gt;skill_role:e</title>
<path fill="none" stroke="#000000" d="M360.6284,-261.4517C342.1444,-257.9537 334.1875,-248.0298 310,-243.7 222.2879,-227.9985 199.1064,-229.7 110,-229.7"/>
<polygon fill="#000000" stroke="#000000" points="367.03,-262.0077 374.6885,-266.2865 371.015,-262.3538 375,-262.7 375,-262.7 375,-262.7 371.015,-262.3538 375.3115,-259.1135 367.03,-262.0077 367.03,-262.0077"/>
<ellipse fill="none" stroke="#000000" cx="363.842" cy="-261.7308" rx="3.2" ry="3.2"/>
</g>
</g>
</svg>
