<?xml version="1.0" encoding="UTF-8" standalone="no"?>
<!DOCTYPE svg PUBLIC "-//W3C//DTD SVG 1.1//EN"
 "http://www.w3.org/Graphics/SVG/1.1/DTD/svg11.dtd">
<!-- Generated by graphviz version 2.40.1 (20161225.0304)
 -->
<!-- Title: twoDegreesRelationshipsDiagram Pages: 1 -->
<svg width="1318pt" height="872pt"
 viewBox="0.00 0.00 1318.46 871.56" xmlns="http://www.w3.org/2000/svg" xmlns:xlink="http://www.w3.org/1999/xlink">
<g id="graph0" class="graph" transform="scale(1 1) rotate(0) translate(4 867.559)">
<title>twoDegreesRelationshipsDiagram</title>
<polygon fill="#ffffff" stroke="transparent" points="-4,4 -4,-867.559 1314.4582,-867.559 1314.4582,4 -4,4"/>
<text text-anchor="middle" x="72.4936" y="-7.3" font-family="Helvetica,sans-Serif" font-size="11.00" fill="#000000">Generated by SchemaSpy</text>
<!-- applicant -->
<g id="node1" class="node">
<title>applicant</title>
<g id="a_node1"><a xlink:href="../../tables/applicant.html" xlink:title="applicant" target="_top">
<polygon fill="#ffffff" stroke="transparent" points="692.4582,-528.2 692.4582,-589.2 779.4582,-589.2 779.4582,-528.2 692.4582,-528.2"/>
<polygon fill="#f5f5f5" stroke="transparent" points="692.9582,-565.7 692.9582,-588.7 779.9582,-588.7 779.9582,-565.7 692.9582,-565.7"/>
<polygon fill="none" stroke="#000000" points="692.9582,-565.7 692.9582,-588.7 779.9582,-588.7 779.9582,-565.7 692.9582,-565.7"/>
<text text-anchor="start" x="697.9516" y="-574.8" font-family="Helvetica,sans-Serif" font-weight="bold" font-size="11.00" fill="#000000">applicant</text>
<text text-anchor="start" x="745.4801" y="-573.8" font-family="Helvetica,sans-Serif" font-size="11.00" fill="#000000">[table]</text>
<polygon fill="none" stroke="#000000" points="692.9582,-546.7 692.9582,-565.7 779.9582,-565.7 779.9582,-546.7 692.9582,-546.7"/>
<text text-anchor="start" x="695.9582" y="-552.8" font-family="Helvetica,sans-Serif" font-size="11.00" fill="#000000">...</text>
<polygon fill="#ffffff" stroke="transparent" points="692.9582,-527.7 692.9582,-546.7 713.9582,-546.7 713.9582,-527.7 692.9582,-527.7"/>
<polygon fill="none" stroke="#000000" points="692.9582,-527.7 692.9582,-546.7 713.9582,-546.7 713.9582,-527.7 692.9582,-527.7"/>
<text text-anchor="start" x="695.6609" y="-533.8" font-family="Helvetica,sans-Serif" font-size="11.00" fill="#000000">&lt; 4</text>
<polygon fill="#ffffff" stroke="transparent" points="713.9582,-527.7 713.9582,-546.7 757.9582,-546.7 757.9582,-527.7 713.9582,-527.7"/>
<polygon fill="none" stroke="#000000" points="713.9582,-527.7 713.9582,-546.7 757.9582,-546.7 757.9582,-527.7 713.9582,-527.7"/>
<text text-anchor="start" x="716.706" y="-533.8" font-family="Helvetica,sans-Serif" font-size="11.00" fill="#000000">90 rows</text>
<polygon fill="#ffffff" stroke="transparent" points="757.9582,-527.7 757.9582,-546.7 779.9582,-546.7 779.9582,-527.7 757.9582,-527.7"/>
<polygon fill="none" stroke="#000000" points="757.9582,-527.7 757.9582,-546.7 779.9582,-546.7 779.9582,-527.7 757.9582,-527.7"/>
<text text-anchor="start" x="761.3635" y="-533.8" font-family="Helvetica,sans-Serif" font-size="11.00" fill="#000000">5 &gt;</text>
</a>
</g>
</g>
<!-- location -->
<g id="node2" class="node">
<title>location</title>
<g id="a_node2"><a xlink:href="../../tables/location.html" xlink:title="location" target="_top">
<polygon fill="#ffffff" stroke="transparent" points="501.9582,-514.2 501.9582,-575.2 584.9582,-575.2 584.9582,-514.2 501.9582,-514.2"/>
<polygon fill="#f5f5f5" stroke="transparent" points="502.4582,-551.7 502.4582,-574.7 585.4582,-574.7 585.4582,-551.7 502.4582,-551.7"/>
<polygon fill="none" stroke="#000000" points="502.4582,-551.7 502.4582,-574.7 585.4582,-574.7 585.4582,-551.7 502.4582,-551.7"/>
<text text-anchor="start" x="507.4582" y="-560.8" font-family="Helvetica,sans-Serif" font-weight="bold" font-size="11.00" fill="#000000">location</text>
<text text-anchor="start" x="550.5019" y="-559.8" font-family="Helvetica,sans-Serif" font-size="11.00" fill="#000000">[table]</text>
<polygon fill="none" stroke="#000000" points="502.4582,-532.7 502.4582,-551.7 585.4582,-551.7 585.4582,-532.7 502.4582,-532.7"/>
<text text-anchor="start" x="505.4582" y="-538.8" font-family="Helvetica,sans-Serif" font-size="11.00" fill="#000000">...</text>
<polygon fill="#ffffff" stroke="transparent" points="502.4582,-513.7 502.4582,-532.7 514.4582,-532.7 514.4582,-513.7 502.4582,-513.7"/>
<polygon fill="none" stroke="#000000" points="502.4582,-513.7 502.4582,-532.7 514.4582,-532.7 514.4582,-513.7 502.4582,-513.7"/>
<text text-anchor="start" x="505.4013" y="-519.8" font-family="Helvetica,sans-Serif" font-size="11.00" fill="#000000"> &#160;</text>
<polygon fill="#ffffff" stroke="transparent" points="514.4582,-513.7 514.4582,-532.7 564.4582,-532.7 564.4582,-513.7 514.4582,-513.7"/>
<polygon fill="none" stroke="#000000" points="514.4582,-513.7 514.4582,-532.7 564.4582,-532.7 564.4582,-513.7 514.4582,-513.7"/>
<text text-anchor="start" x="517.1486" y="-519.8" font-family="Helvetica,sans-Serif" font-size="11.00" fill="#000000">541 rows</text>
<polygon fill="#ffffff" stroke="transparent" points="564.4582,-513.7 564.4582,-532.7 585.4582,-532.7 585.4582,-513.7 564.4582,-513.7"/>
<polygon fill="none" stroke="#000000" points="564.4582,-513.7 564.4582,-532.7 585.4582,-532.7 585.4582,-513.7 564.4582,-513.7"/>
<text text-anchor="start" x="567.1609" y="-519.8" font-family="Helvetica,sans-Serif" font-size="11.00" fill="#000000">4 &gt;</text>
</a>
</g>
</g>
<!-- applicant&#45;&gt;location -->
<g id="edge1" class="edge">
<title>applicant:w&#45;&gt;location:e</title>
<path fill="none" stroke="#000000" d="M678.3813,-555.2342C641.8975,-552.805 628.3696,-541.7 585.4582,-541.7"/>
<polygon fill="#000000" stroke="#000000" points="684.9623,-555.4444 692.8432,-559.2982 688.9603,-555.5722 692.9582,-555.7 692.9582,-555.7 692.9582,-555.7 688.9603,-555.5722 693.0732,-552.1018 684.9623,-555.4444 684.9623,-555.4444"/>
<ellipse fill="none" stroke="#000000" cx="681.7639" cy="-555.3422" rx="3.2" ry="3.2"/>
</g>
<!-- file -->
<g id="node3" class="node">
<title>file</title>
<g id="a_node3"><a xlink:href="../../tables/file.html" xlink:title="file" target="_top">
<polygon fill="#ffffff" stroke="transparent" points="291.4582,-180.2 291.4582,-307.2 414.4582,-307.2 414.4582,-180.2 291.4582,-180.2"/>
<polygon fill="#f5f5f5" stroke="transparent" points="291.9582,-283.7 291.9582,-306.7 414.9582,-306.7 414.9582,-283.7 291.9582,-283.7"/>
<polygon fill="none" stroke="#000000" points="291.9582,-283.7 291.9582,-306.7 414.9582,-306.7 414.9582,-283.7 291.9582,-283.7"/>
<text text-anchor="start" x="296.9582" y="-292.8" font-family="Helvetica,sans-Serif" font-weight="bold" font-size="11.00" fill="#000000">file</text>
<text text-anchor="start" x="380.0019" y="-291.8" font-family="Helvetica,sans-Serif" font-size="11.00" fill="#000000">[table]</text>
<polygon fill="none" stroke="#000000" points="291.9582,-261.7 291.9582,-283.7 414.9582,-283.7 414.9582,-261.7 291.9582,-261.7"/>
<image xlink:href="../../images/primaryKeys.png" width="11px" height="12px" preserveAspectRatio="xMinYMin meet" x="296.958" y="-278.7"/>
<text text-anchor="start" x="311.9582" y="-268.8" font-family="Helvetica,sans-Serif" font-size="11.00" fill="#000000">id</text>
<polygon fill="#ffffff" stroke="transparent" points="291.9582,-239.7 291.9582,-261.7 414.9582,-261.7 414.9582,-239.7 291.9582,-239.7"/>
<polygon fill="none" stroke="#000000" points="291.9582,-239.7 291.9582,-261.7 414.9582,-261.7 414.9582,-239.7 291.9582,-239.7"/>
<image xlink:href="../../images/foreignKeys.png" width="11px" height="12px" preserveAspectRatio="xMinYMin meet" x="296.958" y="-256.7"/>
<text text-anchor="start" x="311.9582" y="-246.8" font-family="Helvetica,sans-Serif" font-size="11.00" fill="#000000">created_by</text>
<polygon fill="#ffffff" stroke="transparent" points="291.9582,-217.7 291.9582,-239.7 414.9582,-239.7 414.9582,-217.7 291.9582,-217.7"/>
<polygon fill="none" stroke="#000000" points="291.9582,-217.7 291.9582,-239.7 414.9582,-239.7 414.9582,-217.7 291.9582,-217.7"/>
<image xlink:href="../../images/foreignKeys.png" width="11px" height="12px" preserveAspectRatio="xMinYMin meet" x="296.958" y="-234.7"/>
<text text-anchor="start" x="311.9582" y="-224.8" font-family="Helvetica,sans-Serif" font-size="11.00" fill="#000000">modified_by</text>
<polygon fill="none" stroke="#000000" points="291.9582,-198.7 291.9582,-217.7 414.9582,-217.7 414.9582,-198.7 291.9582,-198.7"/>
<text text-anchor="start" x="294.9582" y="-204.8" font-family="Helvetica,sans-Serif" font-size="11.00" fill="#000000">...</text>
<polygon fill="#ffffff" stroke="transparent" points="291.9582,-179.7 291.9582,-198.7 324.9582,-198.7 324.9582,-179.7 291.9582,-179.7"/>
<polygon fill="none" stroke="#000000" points="291.9582,-179.7 291.9582,-198.7 324.9582,-198.7 324.9582,-179.7 291.9582,-179.7"/>
<text text-anchor="start" x="294.9582" y="-185.8" font-family="Helvetica,sans-Serif" font-size="11.00" fill="#000000">&lt; 2</text>
<polygon fill="#ffffff" stroke="transparent" points="324.9582,-179.7 324.9582,-198.7 380.9582,-198.7 380.9582,-179.7 324.9582,-179.7"/>
<polygon fill="none" stroke="#000000" points="324.9582,-179.7 324.9582,-198.7 380.9582,-198.7 380.9582,-179.7 324.9582,-179.7"/>
<text text-anchor="start" x="333.3389" y="-185.8" font-family="Helvetica,sans-Serif" font-size="11.00" fill="#000000">590 rows</text>
<polygon fill="#ffffff" stroke="transparent" points="380.9582,-179.7 380.9582,-198.7 414.9582,-198.7 414.9582,-179.7 380.9582,-179.7"/>
<polygon fill="none" stroke="#000000" points="380.9582,-179.7 380.9582,-198.7 414.9582,-198.7 414.9582,-179.7 380.9582,-179.7"/>
<text text-anchor="start" x="390.2486" y="-185.8" font-family="Helvetica,sans-Serif" font-size="11.00" fill="#000000">13 &gt;</text>
</a>
</g>
</g>
<!-- applicant&#45;&gt;file -->
<g id="edge2" class="edge">
<title>applicant:w&#45;&gt;file:e</title>
<path fill="none" stroke="#000000" d="M678.5288,-557.8822C661.0098,-563.8106 655.5345,-580.1408 631.4582,-585.7 555.2413,-603.2984 514.2115,-637.3408 455.4582,-585.7 402.779,-539.398 485.0936,-272.7 414.9582,-272.7"/>
<polygon fill="#000000" stroke="#000000" points="685.0482,-556.8963 693.4966,-559.2595 689.0032,-556.2982 692.9582,-555.7 692.9582,-555.7 692.9582,-555.7 689.0032,-556.2982 692.4199,-552.1405 685.0482,-556.8963 685.0482,-556.8963"/>
<ellipse fill="none" stroke="#000000" cx="681.8841" cy="-557.3749" rx="3.2" ry="3.2"/>
</g>
<!-- contact_person -->
<g id="node4" class="node">
<title>contact_person</title>
<g id="a_node4"><a xlink:href="../../tables/contact_person.html" xlink:title="contact_person" target="_top">
<polygon fill="#ffffff" stroke="transparent" points="484.4582,-268.2 484.4582,-329.2 602.4582,-329.2 602.4582,-268.2 484.4582,-268.2"/>
<polygon fill="#f5f5f5" stroke="transparent" points="484.4582,-305.7 484.4582,-328.7 602.4582,-328.7 602.4582,-305.7 484.4582,-305.7"/>
<polygon fill="none" stroke="#000000" points="484.4582,-305.7 484.4582,-328.7 602.4582,-328.7 602.4582,-305.7 484.4582,-305.7"/>
<text text-anchor="start" x="489.3608" y="-314.8" font-family="Helvetica,sans-Serif" font-weight="bold" font-size="11.00" fill="#000000">contact_person</text>
<text text-anchor="start" x="567.9801" y="-313.8" font-family="Helvetica,sans-Serif" font-size="11.00" fill="#000000">[table]</text>
<polygon fill="none" stroke="#000000" points="484.4582,-286.7 484.4582,-305.7 602.4582,-305.7 602.4582,-286.7 484.4582,-286.7"/>
<text text-anchor="start" x="487.4582" y="-292.8" font-family="Helvetica,sans-Serif" font-size="11.00" fill="#000000">...</text>
<polygon fill="#ffffff" stroke="transparent" points="484.4582,-267.7 484.4582,-286.7 513.4582,-286.7 513.4582,-267.7 484.4582,-267.7"/>
<polygon fill="none" stroke="#000000" points="484.4582,-267.7 484.4582,-286.7 513.4582,-286.7 513.4582,-267.7 484.4582,-267.7"/>
<text text-anchor="start" x="487.4582" y="-273.8" font-family="Helvetica,sans-Serif" font-size="11.00" fill="#000000"> &#160;</text>
<polygon fill="#ffffff" stroke="transparent" points="513.4582,-267.7 513.4582,-286.7 572.4582,-286.7 572.4582,-267.7 513.4582,-267.7"/>
<polygon fill="none" stroke="#000000" points="513.4582,-267.7 513.4582,-286.7 572.4582,-286.7 572.4582,-267.7 513.4582,-267.7"/>
<text text-anchor="start" x="524.8389" y="-273.8" font-family="Helvetica,sans-Serif" font-size="11.00" fill="#000000">109 rows</text>
<polygon fill="#ffffff" stroke="transparent" points="572.4582,-267.7 572.4582,-286.7 602.4582,-286.7 602.4582,-267.7 572.4582,-267.7"/>
<polygon fill="none" stroke="#000000" points="572.4582,-267.7 572.4582,-286.7 602.4582,-286.7 602.4582,-267.7 572.4582,-267.7"/>
<text text-anchor="start" x="583.8635" y="-273.8" font-family="Helvetica,sans-Serif" font-size="11.00" fill="#000000">2 &gt;</text>
</a>
</g>
</g>
<!-- applicant&#45;&gt;contact_person -->
<g id="edge3" class="edge">
<title>applicant:w&#45;&gt;contact_person:e</title>
<path fill="none" stroke="#000000" d="M678.3827,-554.2378C583.6222,-533.3505 719.4369,-295.7 602.4582,-295.7"/>
<polygon fill="#000000" stroke="#000000" points="684.9982,-554.9014 692.5988,-559.282 688.9782,-555.3007 692.9582,-555.7 692.9582,-555.7 692.9582,-555.7 688.9782,-555.3007 693.3176,-552.118 684.9982,-554.9014 684.9982,-554.9014"/>
<ellipse fill="none" stroke="#000000" cx="681.8141" cy="-554.582" rx="3.2" ry="3.2"/>
</g>
<!-- supplier -->
<g id="node5" class="node">
<title>supplier</title>
<g id="a_node5"><a xlink:href="../../tables/supplier.html" xlink:title="supplier" target="_top">
<polygon fill="#ffffff" stroke="transparent" points="497.4582,-733.2 497.4582,-794.2 589.4582,-794.2 589.4582,-733.2 497.4582,-733.2"/>
<polygon fill="#f5f5f5" stroke="transparent" points="497.4582,-770.7 497.4582,-793.7 589.4582,-793.7 589.4582,-770.7 497.4582,-770.7"/>
<polygon fill="none" stroke="#000000" points="497.4582,-770.7 497.4582,-793.7 589.4582,-793.7 589.4582,-770.7 497.4582,-770.7"/>
<text text-anchor="start" x="502.4582" y="-779.8" font-family="Helvetica,sans-Serif" font-weight="bold" font-size="11.00" fill="#000000">supplier</text>
<text text-anchor="start" x="554.5019" y="-778.8" font-family="Helvetica,sans-Serif" font-size="11.00" fill="#000000">[table]</text>
<polygon fill="none" stroke="#000000" points="497.4582,-751.7 497.4582,-770.7 589.4582,-770.7 589.4582,-751.7 497.4582,-751.7"/>
<text text-anchor="start" x="500.4582" y="-757.8" font-family="Helvetica,sans-Serif" font-size="11.00" fill="#000000">...</text>
<polygon fill="#ffffff" stroke="transparent" points="497.4582,-732.7 497.4582,-751.7 518.4582,-751.7 518.4582,-732.7 497.4582,-732.7"/>
<polygon fill="none" stroke="#000000" points="497.4582,-732.7 497.4582,-751.7 518.4582,-751.7 518.4582,-732.7 497.4582,-732.7"/>
<text text-anchor="start" x="500.1609" y="-738.8" font-family="Helvetica,sans-Serif" font-size="11.00" fill="#000000">&lt; 3</text>
<polygon fill="#ffffff" stroke="transparent" points="518.4582,-732.7 518.4582,-751.7 568.4582,-751.7 568.4582,-732.7 518.4582,-732.7"/>
<polygon fill="none" stroke="#000000" points="518.4582,-732.7 518.4582,-751.7 568.4582,-751.7 568.4582,-732.7 518.4582,-732.7"/>
<text text-anchor="start" x="521.1486" y="-738.8" font-family="Helvetica,sans-Serif" font-size="11.00" fill="#000000">201 rows</text>
<polygon fill="#ffffff" stroke="transparent" points="568.4582,-732.7 568.4582,-751.7 589.4582,-751.7 589.4582,-732.7 568.4582,-732.7"/>
<polygon fill="none" stroke="#000000" points="568.4582,-732.7 568.4582,-751.7 589.4582,-751.7 589.4582,-732.7 568.4582,-732.7"/>
<text text-anchor="start" x="571.1609" y="-738.8" font-family="Helvetica,sans-Serif" font-size="11.00" fill="#000000">4 &gt;</text>
</a>
</g>
</g>
<!-- applicant&#45;&gt;supplier -->
<g id="edge4" class="edge">
<title>applicant:w&#45;&gt;supplier:e</title>
<path fill="none" stroke="#000000" d="M678.4428,-557.3501C600.943,-576.751 686.1407,-760.7 589.4582,-760.7"/>
<polygon fill="#000000" stroke="#000000" points="685.0094,-556.6037 693.3649,-559.277 688.9838,-556.1518 692.9582,-555.7 692.9582,-555.7 692.9582,-555.7 688.9838,-556.1518 692.5516,-552.123 685.0094,-556.6037 685.0094,-556.6037"/>
<ellipse fill="none" stroke="#000000" cx="681.8299" cy="-556.9652" rx="3.2" ry="3.2"/>
</g>
<!-- principal -->
<g id="node9" class="node">
<title>principal</title>
<g id="a_node9"><a xlink:href="../../tables/principal.html" xlink:title="principal" target="_top">
<polygon fill="#ffffff" stroke="transparent" points="150.4582,-138.2 150.4582,-199.2 242.4582,-199.2 242.4582,-138.2 150.4582,-138.2"/>
<polygon fill="#f5f5f5" stroke="transparent" points="150.4582,-175.7 150.4582,-198.7 242.4582,-198.7 242.4582,-175.7 150.4582,-175.7"/>
<polygon fill="none" stroke="#000000" points="150.4582,-175.7 150.4582,-198.7 242.4582,-198.7 242.4582,-175.7 150.4582,-175.7"/>
<text text-anchor="start" x="155.4582" y="-184.8" font-family="Helvetica,sans-Serif" font-weight="bold" font-size="11.00" fill="#000000">principal</text>
<text text-anchor="start" x="207.5019" y="-183.8" font-family="Helvetica,sans-Serif" font-size="11.00" fill="#000000">[table]</text>
<polygon fill="none" stroke="#000000" points="150.4582,-156.7 150.4582,-175.7 242.4582,-175.7 242.4582,-156.7 150.4582,-156.7"/>
<text text-anchor="start" x="153.4582" y="-162.8" font-family="Helvetica,sans-Serif" font-size="11.00" fill="#000000">...</text>
<polygon fill="#ffffff" stroke="transparent" points="150.4582,-137.7 150.4582,-156.7 171.4582,-156.7 171.4582,-137.7 150.4582,-137.7"/>
<polygon fill="none" stroke="#000000" points="150.4582,-137.7 150.4582,-156.7 171.4582,-156.7 171.4582,-137.7 150.4582,-137.7"/>
<text text-anchor="start" x="153.1609" y="-143.8" font-family="Helvetica,sans-Serif" font-size="11.00" fill="#000000">&lt; 1</text>
<polygon fill="#ffffff" stroke="transparent" points="171.4582,-137.7 171.4582,-156.7 215.4582,-156.7 215.4582,-137.7 171.4582,-137.7"/>
<polygon fill="none" stroke="#000000" points="171.4582,-137.7 171.4582,-156.7 215.4582,-156.7 215.4582,-137.7 171.4582,-137.7"/>
<text text-anchor="start" x="174.206" y="-143.8" font-family="Helvetica,sans-Serif" font-size="11.00" fill="#000000">18 rows</text>
<polygon fill="#ffffff" stroke="transparent" points="215.4582,-137.7 215.4582,-156.7 242.4582,-156.7 242.4582,-137.7 215.4582,-137.7"/>
<polygon fill="none" stroke="#000000" points="215.4582,-137.7 215.4582,-156.7 242.4582,-156.7 242.4582,-137.7 215.4582,-137.7"/>
<text text-anchor="start" x="218.1034" y="-143.8" font-family="Helvetica,sans-Serif" font-size="11.00" fill="#000000">56 &gt;</text>
</a>
</g>
</g>
<!-- file&#45;&gt;principal -->
<g id="edge20" class="edge">
<title>file:w&#45;&gt;principal:e</title>
<path fill="none" stroke="#000000" d="M278.1888,-246.368C257.0877,-229.0466 280.1981,-165.7 242.4582,-165.7"/>
<polygon fill="#000000" stroke="#000000" points="284.327,-248.2991 290.8778,-254.1341 288.1426,-249.4995 291.9582,-250.7 291.9582,-250.7 291.9582,-250.7 288.1426,-249.4995 293.0386,-247.2659 284.327,-248.2991 284.327,-248.2991"/>
<ellipse fill="none" stroke="#000000" cx="281.2745" cy="-247.3387" rx="3.2" ry="3.2"/>
</g>
<!-- file&#45;&gt;principal -->
<g id="edge21" class="edge">
<title>file:w&#45;&gt;principal:e</title>
<path fill="none" stroke="#000000" d="M278.0957,-223.7565C262.1213,-208.9048 271.9469,-165.7 242.4582,-165.7"/>
<polygon fill="#000000" stroke="#000000" points="284.423,-226.0128 290.749,-232.0908 288.1906,-227.3564 291.9582,-228.7 291.9582,-228.7 291.9582,-228.7 288.1906,-227.3564 293.1674,-225.3092 284.423,-226.0128 284.423,-226.0128"/>
<ellipse fill="none" stroke="#000000" cx="281.4089" cy="-224.938" rx="3.2" ry="3.2"/>
</g>
<!-- supplier&#45;&gt;file -->
<g id="edge41" class="edge">
<title>supplier:w&#45;&gt;file:e</title>
<path fill="none" stroke="#000000" d="M483.0702,-758.4153C469.461,-753.3269 464.1463,-740.1237 455.4582,-722.7 433.0561,-677.7734 465.1603,-272.7 414.9582,-272.7"/>
<polygon fill="#000000" stroke="#000000" points="489.5572,-759.4453 496.8936,-764.2555 493.5077,-760.0727 497.4582,-760.7 497.4582,-760.7 497.4582,-760.7 493.5077,-760.0727 498.0228,-757.1445 489.5572,-759.4453 489.5572,-759.4453"/>
<ellipse fill="none" stroke="#000000" cx="486.3968" cy="-758.9435" rx="3.2" ry="3.2"/>
</g>
<!-- supplier&#45;&gt;principal -->
<g id="edge40" class="edge">
<title>supplier:w&#45;&gt;principal:e</title>
<path fill="none" stroke="#000000" d="M483.15,-762.5493C381.165,-791.255 565.1696,-1133.3967 283.4582,-317.7 260.617,-251.5632 312.4282,-165.7 242.4582,-165.7"/>
<polygon fill="#000000" stroke="#000000" points="489.5242,-761.7255 497.9197,-764.2703 493.4912,-761.2128 497.4582,-760.7 497.4582,-760.7 497.4582,-760.7 493.4912,-761.2128 496.9967,-757.1297 489.5242,-761.7255 489.5242,-761.7255"/>
<ellipse fill="none" stroke="#000000" cx="486.3506" cy="-762.1357" rx="3.2" ry="3.2"/>
</g>
<!-- supplier&#45;&gt;principal -->
<g id="edge42" class="edge">
<title>supplier:w&#45;&gt;principal:e</title>
<path fill="none" stroke="#000000" d="M483.0786,-762.6002C380.831,-792.0996 571.6808,-1143.863 283.4582,-313.7 261.0717,-249.2205 310.7134,-165.7 242.4582,-165.7"/>
<polygon fill="#000000" stroke="#000000" points="489.5272,-761.7481 497.9298,-764.269 493.4927,-761.224 497.4582,-760.7 497.4582,-760.7 497.4582,-760.7 493.4927,-761.224 496.9866,-757.131 489.5272,-761.7481 489.5272,-761.7481"/>
<ellipse fill="none" stroke="#000000" cx="486.3547" cy="-762.1673" rx="3.2" ry="3.2"/>
</g>
<!-- applicant_document -->
<g id="node6" class="node">
<title>applicant_document</title>
<g id="a_node6"><a xlink:href="../../tables/applicant_document.html" xlink:title="applicant_document" target="_top">
<polygon fill="#ffffff" stroke="transparent" points="873.9582,-502.2 873.9582,-563.2 1014.9582,-563.2 1014.9582,-502.2 873.9582,-502.2"/>
<polygon fill="#f5f5f5" stroke="transparent" points="874.4582,-539.7 874.4582,-562.7 1015.4582,-562.7 1015.4582,-539.7 874.4582,-539.7"/>
<polygon fill="none" stroke="#000000" points="874.4582,-539.7 874.4582,-562.7 1015.4582,-562.7 1015.4582,-539.7 874.4582,-539.7"/>
<text text-anchor="start" x="879.2475" y="-548.8" font-family="Helvetica,sans-Serif" font-weight="bold" font-size="11.00" fill="#000000">applicant_document</text>
<text text-anchor="start" x="980.9801" y="-547.8" font-family="Helvetica,sans-Serif" font-size="11.00" fill="#000000">[table]</text>
<polygon fill="none" stroke="#000000" points="874.4582,-520.7 874.4582,-539.7 1015.4582,-539.7 1015.4582,-520.7 874.4582,-520.7"/>
<text text-anchor="start" x="877.4582" y="-526.8" font-family="Helvetica,sans-Serif" font-size="11.00" fill="#000000">...</text>
<polygon fill="#ffffff" stroke="transparent" points="874.4582,-501.7 874.4582,-520.7 927.4582,-520.7 927.4582,-501.7 874.4582,-501.7"/>
<polygon fill="none" stroke="#000000" points="874.4582,-501.7 874.4582,-520.7 927.4582,-520.7 927.4582,-501.7 874.4582,-501.7"/>
<text text-anchor="start" x="877.4582" y="-507.8" font-family="Helvetica,sans-Serif" font-size="11.00" fill="#000000">&lt; 2</text>
<polygon fill="#ffffff" stroke="transparent" points="927.4582,-501.7 927.4582,-520.7 987.4582,-520.7 987.4582,-501.7 927.4582,-501.7"/>
<polygon fill="none" stroke="#000000" points="927.4582,-501.7 927.4582,-520.7 987.4582,-520.7 987.4582,-501.7 927.4582,-501.7"/>
<text text-anchor="start" x="945.9538" y="-507.8" font-family="Helvetica,sans-Serif" font-size="11.00" fill="#000000">91 rows</text>
<polygon fill="#ffffff" stroke="transparent" points="987.4582,-501.7 987.4582,-520.7 1015.4582,-520.7 1015.4582,-501.7 987.4582,-501.7"/>
<polygon fill="none" stroke="#000000" points="987.4582,-501.7 987.4582,-520.7 1015.4582,-520.7 1015.4582,-501.7 987.4582,-501.7"/>
<text text-anchor="start" x="1006.3444" y="-507.8" font-family="Helvetica,sans-Serif" font-size="11.00" fill="#000000"> &#160;</text>
</a>
</g>
</g>
<!-- applicant_document&#45;&gt;applicant -->
<g id="edge5" class="edge">
<title>applicant_document:w&#45;&gt;applicant:e</title>
<path fill="none" stroke="#000000" d="M860.0966,-530.7514C828.58,-535.6156 818.2439,-555.7 779.9582,-555.7"/>
<polygon fill="#000000" stroke="#000000" points="866.4796,-530.2842 874.7211,-533.2904 870.4689,-529.9921 874.4582,-529.7 874.4582,-529.7 874.4582,-529.7 870.4689,-529.9921 874.1953,-526.1096 866.4796,-530.2842 866.4796,-530.2842"/>
<ellipse fill="none" stroke="#000000" cx="863.2881" cy="-530.5179" rx="3.2" ry="3.2"/>
</g>
<!-- applicant_document&#45;&gt;file -->
<g id="edge6" class="edge">
<title>applicant_document:w&#45;&gt;file:e</title>
<path fill="none" stroke="#000000" d="M859.9841,-528.6243C770.0657,-513.8985 889.2087,-351.7584 807.4582,-276.7 749.7548,-223.7202 532.5655,-243.8796 455.4582,-257.7 436.5644,-261.0865 434.1531,-272.7 414.9582,-272.7"/>
<polygon fill="#000000" stroke="#000000" points="866.4802,-529.1071 874.1914,-533.2901 870.4692,-529.4035 874.4582,-529.7 874.4582,-529.7 874.4582,-529.7 870.4692,-529.4035 874.725,-526.1099 866.4802,-529.1071 866.4802,-529.1071"/>
<ellipse fill="none" stroke="#000000" cx="863.289" cy="-528.8699" rx="3.2" ry="3.2"/>
</g>
<!-- client -->
<g id="node7" class="node">
<title>client</title>
<g id="a_node7"><a xlink:href="../../tables/client.html" xlink:title="client" target="_top">
<polygon fill="#ffffff" stroke="transparent" points="497.4582,-38.2 497.4582,-99.2 589.4582,-99.2 589.4582,-38.2 497.4582,-38.2"/>
<polygon fill="#f5f5f5" stroke="transparent" points="497.4582,-75.7 497.4582,-98.7 589.4582,-98.7 589.4582,-75.7 497.4582,-75.7"/>
<polygon fill="none" stroke="#000000" points="497.4582,-75.7 497.4582,-98.7 589.4582,-98.7 589.4582,-75.7 497.4582,-75.7"/>
<text text-anchor="start" x="502.4582" y="-84.8" font-family="Helvetica,sans-Serif" font-weight="bold" font-size="11.00" fill="#000000">client</text>
<text text-anchor="start" x="554.5019" y="-83.8" font-family="Helvetica,sans-Serif" font-size="11.00" fill="#000000">[table]</text>
<polygon fill="none" stroke="#000000" points="497.4582,-56.7 497.4582,-75.7 589.4582,-75.7 589.4582,-56.7 497.4582,-56.7"/>
<text text-anchor="start" x="500.4582" y="-62.8" font-family="Helvetica,sans-Serif" font-size="11.00" fill="#000000">...</text>
<polygon fill="#ffffff" stroke="transparent" points="497.4582,-37.7 497.4582,-56.7 518.4582,-56.7 518.4582,-37.7 497.4582,-37.7"/>
<polygon fill="none" stroke="#000000" points="497.4582,-37.7 497.4582,-56.7 518.4582,-56.7 518.4582,-37.7 497.4582,-37.7"/>
<text text-anchor="start" x="500.1609" y="-43.8" font-family="Helvetica,sans-Serif" font-size="11.00" fill="#000000">&lt; 9</text>
<polygon fill="#ffffff" stroke="transparent" points="518.4582,-37.7 518.4582,-56.7 568.4582,-56.7 568.4582,-37.7 518.4582,-37.7"/>
<polygon fill="none" stroke="#000000" points="518.4582,-37.7 518.4582,-56.7 568.4582,-56.7 568.4582,-37.7 518.4582,-37.7"/>
<text text-anchor="start" x="521.1486" y="-43.8" font-family="Helvetica,sans-Serif" font-size="11.00" fill="#000000">647 rows</text>
<polygon fill="#ffffff" stroke="transparent" points="568.4582,-37.7 568.4582,-56.7 589.4582,-56.7 589.4582,-37.7 568.4582,-37.7"/>
<polygon fill="none" stroke="#000000" points="568.4582,-37.7 568.4582,-56.7 589.4582,-56.7 589.4582,-37.7 568.4582,-37.7"/>
<text text-anchor="start" x="571.1609" y="-43.8" font-family="Helvetica,sans-Serif" font-size="11.00" fill="#000000">7 &gt;</text>
</a>
</g>
</g>
<!-- client&#45;&gt;file -->
<g id="edge7" class="edge">
<title>client:w&#45;&gt;file:e</title>
<path fill="none" stroke="#000000" d="M482.9789,-68.2096C458.5913,-78.4795 469.4691,-118.3836 455.4582,-152.7 434.1814,-204.8128 471.2471,-272.7 414.9582,-272.7"/>
<polygon fill="#000000" stroke="#000000" points="489.5757,-67.0663 498.073,-69.2471 493.517,-66.3831 497.4582,-65.7 497.4582,-65.7 497.4582,-65.7 493.517,-66.3831 496.8434,-62.1529 489.5757,-67.0663 489.5757,-67.0663"/>
<ellipse fill="none" stroke="#000000" cx="486.4227" cy="-67.6128" rx="3.2" ry="3.2"/>
</g>
<!-- eworker -->
<g id="node8" class="node">
<title>eworker</title>
<g id="a_node8"><a xlink:href="../../tables/eworker.html" xlink:title="eworker" target="_top">
<polygon fill="#ffffff" stroke="transparent" points="9.4582,-138.2 9.4582,-199.2 101.4582,-199.2 101.4582,-138.2 9.4582,-138.2"/>
<polygon fill="#f5f5f5" stroke="transparent" points="9.4582,-175.7 9.4582,-198.7 101.4582,-198.7 101.4582,-175.7 9.4582,-175.7"/>
<polygon fill="none" stroke="#000000" points="9.4582,-175.7 9.4582,-198.7 101.4582,-198.7 101.4582,-175.7 9.4582,-175.7"/>
<text text-anchor="start" x="14.4582" y="-184.8" font-family="Helvetica,sans-Serif" font-weight="bold" font-size="11.00" fill="#000000">eworker</text>
<text text-anchor="start" x="66.5019" y="-183.8" font-family="Helvetica,sans-Serif" font-size="11.00" fill="#000000">[table]</text>
<polygon fill="none" stroke="#000000" points="9.4582,-156.7 9.4582,-175.7 101.4582,-175.7 101.4582,-156.7 9.4582,-156.7"/>
<text text-anchor="start" x="12.4582" y="-162.8" font-family="Helvetica,sans-Serif" font-size="11.00" fill="#000000">...</text>
<polygon fill="#ffffff" stroke="transparent" points="9.4582,-137.7 9.4582,-156.7 30.4582,-156.7 30.4582,-137.7 9.4582,-137.7"/>
<polygon fill="none" stroke="#000000" points="9.4582,-137.7 9.4582,-156.7 30.4582,-156.7 30.4582,-137.7 9.4582,-137.7"/>
<text text-anchor="start" x="12.1609" y="-143.8" font-family="Helvetica,sans-Serif" font-size="11.00" fill="#000000">&lt; 4</text>
<polygon fill="#ffffff" stroke="transparent" points="30.4582,-137.7 30.4582,-156.7 80.4582,-156.7 80.4582,-137.7 30.4582,-137.7"/>
<polygon fill="none" stroke="#000000" points="30.4582,-137.7 30.4582,-156.7 80.4582,-156.7 80.4582,-137.7 30.4582,-137.7"/>
<text text-anchor="start" x="33.1486" y="-143.8" font-family="Helvetica,sans-Serif" font-size="11.00" fill="#000000">347 rows</text>
<polygon fill="#ffffff" stroke="transparent" points="80.4582,-137.7 80.4582,-156.7 101.4582,-156.7 101.4582,-137.7 80.4582,-137.7"/>
<polygon fill="none" stroke="#000000" points="80.4582,-137.7 80.4582,-156.7 101.4582,-156.7 101.4582,-137.7 80.4582,-137.7"/>
<text text-anchor="start" x="83.1609" y="-143.8" font-family="Helvetica,sans-Serif" font-size="11.00" fill="#000000">9 &gt;</text>
</a>
</g>
</g>
<!-- client&#45;&gt;eworker -->
<g id="edge8" class="edge">
<title>client:w&#45;&gt;eworker:e</title>
<path fill="none" stroke="#000000" d="M482.7451,-65.6565C333.7753,-64.7918 277.9764,-52.1375 142.4582,-127.7 120.7583,-139.7995 126.3034,-165.7 101.4582,-165.7"/>
<polygon fill="#000000" stroke="#000000" points="489.4582,-65.6763 497.4475,-69.3 493.4582,-65.6881 497.4582,-65.7 497.4582,-65.7 497.4582,-65.7 493.4582,-65.6881 497.4689,-62.1 489.4582,-65.6763 489.4582,-65.6763"/>
<ellipse fill="none" stroke="#000000" cx="486.2583" cy="-65.6668" rx="3.2" ry="3.2"/>
</g>
<!-- client&#45;&gt;eworker -->
<g id="edge9" class="edge">
<title>client:w&#45;&gt;eworker:e</title>
<path fill="none" stroke="#000000" d="M482.9143,-64.8078C399.112,-59.8178 372.065,-61.3442 283.4582,-79.7 218.9114,-93.0715 200.1841,-93.8754 142.4582,-125.7 121.7273,-137.1291 125.1309,-159.7 101.4582,-165.7"/>
<polygon fill="#000000" stroke="#000000" points="489.4732,-65.2101 497.2378,-69.2932 493.4657,-65.4551 497.4582,-65.7 497.4582,-65.7 497.4582,-65.7 493.4657,-65.4551 497.6787,-62.1068 489.4732,-65.2101 489.4732,-65.2101"/>
<ellipse fill="none" stroke="#000000" cx="486.2792" cy="-65.0142" rx="3.2" ry="3.2"/>
</g>
<!-- client&#45;&gt;eworker -->
<g id="edge12" class="edge">
<title>client:w&#45;&gt;eworker:e</title>
<path fill="none" stroke="#000000" d="M482.9143,-66.7579C399.112,-72.8178 372.065,-74.3442 283.4582,-92.7 218.9114,-106.0715 200.1841,-106.8754 142.4582,-138.7 121.7273,-150.1291 125.1309,-172.7 101.4582,-165.7"/>
<polygon fill="#000000" stroke="#000000" points="489.4793,-66.2804 497.7194,-69.2905 493.4688,-65.9902 497.4582,-65.7 497.4582,-65.7 497.4582,-65.7 493.4688,-65.9902 497.197,-62.1095 489.4793,-66.2804 489.4793,-66.2804"/>
<ellipse fill="none" stroke="#000000" cx="486.2877" cy="-66.5126" rx="3.2" ry="3.2"/>
</g>
<!-- client&#45;&gt;principal -->
<g id="edge10" class="edge">
<title>client:w&#45;&gt;principal:e</title>
<path fill="none" stroke="#000000" d="M483.334,-69.4901C436.1907,-83.4354 288.1674,-131.2171 283.4582,-133.7 263.0107,-144.4806 265.5736,-165.7 242.4582,-165.7"/>
<polygon fill="#000000" stroke="#000000" points="489.7316,-67.7734 498.3912,-69.177 493.5949,-66.7367 497.4582,-65.7 497.4582,-65.7 497.4582,-65.7 493.5949,-66.7367 496.5252,-62.223 489.7316,-67.7734 489.7316,-67.7734"/>
<ellipse fill="none" stroke="#000000" cx="486.6409" cy="-68.6028" rx="3.2" ry="3.2"/>
</g>
<!-- client&#45;&gt;principal -->
<g id="edge11" class="edge">
<title>client:w&#45;&gt;principal:e</title>
<path fill="none" stroke="#000000" d="M482.9541,-68.1031C434.7519,-79.4878 303.2414,-127.8525 283.4582,-137.7 263.7041,-147.533 264.5243,-165.7 242.4582,-165.7"/>
<polygon fill="#000000" stroke="#000000" points="489.5658,-67.0077 498.0467,-69.2516 493.512,-66.3539 497.4582,-65.7 497.4582,-65.7 497.4582,-65.7 493.512,-66.3539 496.8697,-62.1484 489.5658,-67.0077 489.5658,-67.0077"/>
<ellipse fill="none" stroke="#000000" cx="486.4088" cy="-67.5308" rx="3.2" ry="3.2"/>
</g>
<!-- eworker&#45;&gt;file -->
<g id="edge17" class="edge">
<title>eworker:w&#45;&gt;file:e</title>
<path fill="none" stroke="#000000" d="M1.3508,-153.7787C-.2155,-129.4853 27.9452,-80.869 109.4582,-134.2 140.1029,-154.2497 119.4465,-181.2123 142.4582,-209.7 190.9782,-269.7661 209.9704,-287.5005 283.4582,-311.2 283.4582,-311.2 414.9582,-272.7 414.9582,-272.7"/>
<polygon fill="#000000" stroke="#000000" points="4.9594,-159.0848 6.4814,-167.7245 7.2088,-162.3924 9.4582,-165.7 9.4582,-165.7 9.4582,-165.7 7.2088,-162.3924 12.435,-163.6755 4.9594,-159.0848 4.9594,-159.0848"/>
<ellipse fill="none" stroke="#000000" cx="3.1598" cy="-156.4387" rx="3.2" ry="3.2"/>
</g>
<!-- eworker&#45;&gt;principal -->
<g id="edge18" class="edge">
<title>eworker:w&#45;&gt;principal:e</title>
<path fill="none" stroke="#000000" d="M.7486,-154.1321C-.7486,-145.4147 3.1937,-134.4645 9.4582,-128.2 46.0706,-91.5876 205.8458,-91.5876 242.4582,-128.2 252.3577,-138.0995 256.4582,-159.7 242.4582,-165.7"/>
<polygon fill="#000000" stroke="#000000" points="4.6463,-159.3089 6.5822,-167.8654 7.0522,-162.5045 9.4582,-165.7 9.4582,-165.7 9.4582,-165.7 7.0522,-162.5045 12.3342,-163.5346 4.6463,-159.3089 4.6463,-159.3089"/>
<ellipse fill="none" stroke="#000000" cx="2.7215" cy="-156.7525" rx="3.2" ry="3.2"/>
</g>
<!-- eworker&#45;&gt;principal -->
<g id="edge19" class="edge">
<title>eworker:w&#45;&gt;principal:e</title>
<path fill="none" stroke="#000000" d="M2.021,-153.3005C3.586,-148.9563 6.2099,-144.4483 9.4582,-141.2 46.0706,-104.5876 205.8458,-104.5876 242.4582,-141.2 252.3577,-151.0995 256.4582,-172.7 242.4582,-165.7"/>
<polygon fill="#000000" stroke="#000000" points="5.3433,-158.8394 6.371,-167.5517 7.4007,-162.2697 9.4582,-165.7 9.4582,-165.7 9.4582,-165.7 7.4007,-162.2697 12.5455,-163.8483 5.3433,-158.8394 5.3433,-158.8394"/>
<ellipse fill="none" stroke="#000000" cx="3.6973" cy="-156.0952" rx="3.2" ry="3.2"/>
</g>
<!-- principal&#45;&gt;eworker -->
<g id="edge39" class="edge">
<title>principal:w&#45;&gt;eworker:e</title>
<path fill="none" stroke="#000000" d="M135.9491,-165.7C124.6356,-165.7 117.4513,-165.7 101.4582,-165.7"/>
<polygon fill="#000000" stroke="#000000" points="142.4582,-165.7001 150.4582,-169.3 146.4582,-165.7 150.4582,-165.7 150.4582,-165.7 150.4582,-165.7 146.4582,-165.7 150.4582,-162.1 142.4582,-165.7001 142.4582,-165.7001"/>
<ellipse fill="none" stroke="#000000" cx="139.2582" cy="-165.7001" rx="3.2" ry="3.2"/>
</g>
<!-- client_contact -->
<g id="node10" class="node">
<title>client_contact</title>
<g id="a_node10"><a xlink:href="../../tables/client_contact.html" xlink:title="client_contact" target="_top">
<polygon fill="#ffffff" stroke="transparent" points="680.9582,-102.2 680.9582,-163.2 790.9582,-163.2 790.9582,-102.2 680.9582,-102.2"/>
<polygon fill="#f5f5f5" stroke="transparent" points="680.9582,-139.7 680.9582,-162.7 790.9582,-162.7 790.9582,-139.7 680.9582,-139.7"/>
<polygon fill="none" stroke="#000000" points="680.9582,-139.7 680.9582,-162.7 790.9582,-162.7 790.9582,-139.7 680.9582,-139.7"/>
<text text-anchor="start" x="685.8373" y="-148.8" font-family="Helvetica,sans-Serif" font-weight="bold" font-size="11.00" fill="#000000">client_contact</text>
<text text-anchor="start" x="756.4801" y="-147.8" font-family="Helvetica,sans-Serif" font-size="11.00" fill="#000000">[table]</text>
<polygon fill="none" stroke="#000000" points="680.9582,-120.7 680.9582,-139.7 790.9582,-139.7 790.9582,-120.7 680.9582,-120.7"/>
<text text-anchor="start" x="683.9582" y="-126.8" font-family="Helvetica,sans-Serif" font-size="11.00" fill="#000000">...</text>
<polygon fill="#ffffff" stroke="transparent" points="680.9582,-101.7 680.9582,-120.7 710.9582,-120.7 710.9582,-101.7 680.9582,-101.7"/>
<polygon fill="none" stroke="#000000" points="680.9582,-101.7 680.9582,-120.7 710.9582,-120.7 710.9582,-101.7 680.9582,-101.7"/>
<text text-anchor="start" x="683.9582" y="-107.8" font-family="Helvetica,sans-Serif" font-size="11.00" fill="#000000">&lt; 4</text>
<polygon fill="#ffffff" stroke="transparent" points="710.9582,-101.7 710.9582,-120.7 764.9582,-120.7 764.9582,-101.7 710.9582,-101.7"/>
<polygon fill="none" stroke="#000000" points="710.9582,-101.7 710.9582,-120.7 764.9582,-120.7 764.9582,-101.7 710.9582,-101.7"/>
<text text-anchor="start" x="717.3389" y="-107.8" font-family="Helvetica,sans-Serif" font-size="11.00" fill="#000000">561 rows</text>
<polygon fill="#ffffff" stroke="transparent" points="764.9582,-101.7 764.9582,-120.7 790.9582,-120.7 790.9582,-101.7 764.9582,-101.7"/>
<polygon fill="none" stroke="#000000" points="764.9582,-101.7 764.9582,-120.7 790.9582,-120.7 790.9582,-101.7 764.9582,-101.7"/>
<text text-anchor="start" x="772.3635" y="-107.8" font-family="Helvetica,sans-Serif" font-size="11.00" fill="#000000">2 &gt;</text>
</a>
</g>
</g>
<!-- client_contact&#45;&gt;file -->
<g id="edge13" class="edge">
<title>client_contact:w&#45;&gt;file:e</title>
<path fill="none" stroke="#000000" d="M666.6187,-131.3901C654.6936,-134.5404 648.2522,-141.3808 631.4582,-145.7 554.3007,-165.5439 517.6333,-129.8871 455.4582,-179.7 420.2747,-207.888 460.0409,-272.7 414.9582,-272.7"/>
<polygon fill="#000000" stroke="#000000" points="673.0132,-130.6365 681.3796,-133.2753 676.9857,-130.1682 680.9582,-129.7 680.9582,-129.7 680.9582,-129.7 676.9857,-130.1682 680.5368,-126.1247 673.0132,-130.6365 673.0132,-130.6365"/>
<ellipse fill="none" stroke="#000000" cx="669.8352" cy="-131.0111" rx="3.2" ry="3.2"/>
</g>
<!-- client_contact&#45;&gt;client -->
<g id="edge14" class="edge">
<title>client_contact:w&#45;&gt;client:e</title>
<path fill="none" stroke="#000000" d="M666.5835,-127.5706C632.3408,-116.4656 633.6575,-65.7 589.4582,-65.7"/>
<polygon fill="#000000" stroke="#000000" points="673.0446,-128.5277 680.4307,-133.2611 677.0014,-129.1138 680.9582,-129.7 680.9582,-129.7 680.9582,-129.7 677.0014,-129.1138 681.4858,-126.1389 673.0446,-128.5277 673.0446,-128.5277"/>
<ellipse fill="none" stroke="#000000" cx="669.8791" cy="-128.0587" rx="3.2" ry="3.2"/>
</g>
<!-- client_contact&#45;&gt;principal -->
<g id="edge15" class="edge">
<title>client_contact:w&#45;&gt;principal:e</title>
<path fill="none" stroke="#000000" d="M666.4856,-129.764C577.7919,-130.571 550.6374,-138.8676 455.4582,-146.7 360.7358,-154.4948 337.5008,-165.7 242.4582,-165.7"/>
<polygon fill="#000000" stroke="#000000" points="672.9583,-129.7354 680.9742,-133.3 676.9583,-129.7177 680.9582,-129.7 680.9582,-129.7 680.9582,-129.7 676.9583,-129.7177 680.9423,-126.1 672.9583,-129.7354 672.9583,-129.7354"/>
<ellipse fill="none" stroke="#000000" cx="669.7583" cy="-129.7496" rx="3.2" ry="3.2"/>
</g>
<!-- client_contact&#45;&gt;principal -->
<g id="edge16" class="edge">
<title>client_contact:w&#45;&gt;principal:e</title>
<path fill="none" stroke="#000000" d="M666.3449,-129.7684C482.9106,-131.5049 433.0378,-165.7 242.4582,-165.7"/>
<polygon fill="#000000" stroke="#000000" points="672.9583,-129.7375 680.9751,-133.3 676.9583,-129.7188 680.9582,-129.7 680.9582,-129.7 680.9582,-129.7 676.9583,-129.7188 680.9413,-126.1 672.9583,-129.7375 672.9583,-129.7375"/>
<ellipse fill="none" stroke="#000000" cx="669.7583" cy="-129.7525" rx="3.2" ry="3.2"/>
</g>
<!-- file_preview -->
<g id="node11" class="node">
<title>file_preview</title>
<g id="a_node11"><a xlink:href="../../tables/file_preview.html" xlink:title="file_preview" target="_top">
<polygon fill="#ffffff" stroke="transparent" points="492.9582,-651.2 492.9582,-712.2 593.9582,-712.2 593.9582,-651.2 492.9582,-651.2"/>
<polygon fill="#f5f5f5" stroke="transparent" points="493.4582,-688.7 493.4582,-711.7 594.4582,-711.7 594.4582,-688.7 493.4582,-688.7"/>
<polygon fill="none" stroke="#000000" points="493.4582,-688.7 493.4582,-711.7 594.4582,-711.7 594.4582,-688.7 493.4582,-688.7"/>
<text text-anchor="start" x="498.4298" y="-697.8" font-family="Helvetica,sans-Serif" font-weight="bold" font-size="11.00" fill="#000000">file_preview</text>
<text text-anchor="start" x="559.9801" y="-696.8" font-family="Helvetica,sans-Serif" font-size="11.00" fill="#000000">[table]</text>
<polygon fill="none" stroke="#000000" points="493.4582,-669.7 493.4582,-688.7 594.4582,-688.7 594.4582,-669.7 493.4582,-669.7"/>
<text text-anchor="start" x="496.4582" y="-675.8" font-family="Helvetica,sans-Serif" font-size="11.00" fill="#000000">...</text>
<polygon fill="#ffffff" stroke="transparent" points="493.4582,-650.7 493.4582,-669.7 529.4582,-669.7 529.4582,-650.7 493.4582,-650.7"/>
<polygon fill="none" stroke="#000000" points="493.4582,-650.7 493.4582,-669.7 529.4582,-669.7 529.4582,-650.7 493.4582,-650.7"/>
<text text-anchor="start" x="496.4582" y="-656.8" font-family="Helvetica,sans-Serif" font-size="11.00" fill="#000000">&lt; 3</text>
<polygon fill="#ffffff" stroke="transparent" points="529.4582,-650.7 529.4582,-669.7 574.4582,-669.7 574.4582,-650.7 529.4582,-650.7"/>
<polygon fill="none" stroke="#000000" points="529.4582,-650.7 529.4582,-669.7 574.4582,-669.7 574.4582,-650.7 529.4582,-650.7"/>
<text text-anchor="start" x="539.0687" y="-656.8" font-family="Helvetica,sans-Serif" font-size="11.00" fill="#000000">0 rows</text>
<polygon fill="#ffffff" stroke="transparent" points="574.4582,-650.7 574.4582,-669.7 594.4582,-669.7 594.4582,-650.7 574.4582,-650.7"/>
<polygon fill="none" stroke="#000000" points="574.4582,-650.7 574.4582,-669.7 594.4582,-669.7 594.4582,-650.7 574.4582,-650.7"/>
<text text-anchor="start" x="585.3444" y="-656.8" font-family="Helvetica,sans-Serif" font-size="11.00" fill="#000000"> &#160;</text>
</a>
</g>
</g>
<!-- file_preview&#45;&gt;file -->
<g id="edge22" class="edge">
<title>file_preview:w&#45;&gt;file:e</title>
<path fill="none" stroke="#000000" d="M481.0767,-670.4067C467.013,-658.1108 463.7757,-642.17 455.4582,-623.7 422.0394,-549.4895 496.3462,-259.7 414.9582,-272.7"/>
<polygon fill="#000000" stroke="#000000" points="486.8115,-674.2479 491.4548,-681.691 490.1348,-676.474 493.4582,-678.7 493.4582,-678.7 493.4582,-678.7 490.1348,-676.474 495.4617,-675.709 486.8115,-674.2479 486.8115,-674.2479"/>
<ellipse fill="none" stroke="#000000" cx="484.1528" cy="-672.4671" rx="3.2" ry="3.2"/>
</g>
<!-- file_preview&#45;&gt;file -->
<g id="edge23" class="edge">
<title>file_preview:w&#45;&gt;file:e</title>
<path fill="none" stroke="#000000" d="M479.1033,-675.7561C466.6867,-669.5572 463.3719,-654.2734 455.4582,-636.7 422.0394,-562.4895 496.3462,-272.7 414.9582,-272.7"/>
<polygon fill="#000000" stroke="#000000" points="485.6213,-677.0928 492.735,-682.2266 489.5398,-677.8964 493.4582,-678.7 493.4582,-678.7 493.4582,-678.7 489.5398,-677.8964 494.1815,-675.1734 485.6213,-677.0928 485.6213,-677.0928"/>
<ellipse fill="none" stroke="#000000" cx="482.4866" cy="-676.4499" rx="3.2" ry="3.2"/>
</g>
<!-- file_preview&#45;&gt;file -->
<g id="edge24" class="edge">
<title>file_preview:w&#45;&gt;file:e</title>
<path fill="none" stroke="#000000" d="M479.4863,-682.9282C466.7539,-682.8688 463.4527,-667.4527 455.4582,-649.7 422.0394,-575.4895 496.3462,-285.7 414.9582,-272.7"/>
<polygon fill="#000000" stroke="#000000" points="485.8012,-681.0172 494.501,-682.1457 489.6297,-679.8586 493.4582,-678.7 493.4582,-678.7 493.4582,-678.7 489.6297,-679.8586 492.4155,-675.2543 485.8012,-681.0172 485.8012,-681.0172"/>
<ellipse fill="none" stroke="#000000" cx="482.7383" cy="-681.9441" rx="3.2" ry="3.2"/>
</g>
<!-- invitation -->
<g id="node12" class="node">
<title>invitation</title>
<g id="a_node12"><a xlink:href="../../tables/invitation.html" xlink:title="invitation" target="_top">
<polygon fill="#ffffff" stroke="transparent" points="672.4582,-287.2 672.4582,-436.2 799.4582,-436.2 799.4582,-287.2 672.4582,-287.2"/>
<polygon fill="#f5f5f5" stroke="transparent" points="672.9582,-412.7 672.9582,-435.7 799.9582,-435.7 799.9582,-412.7 672.9582,-412.7"/>
<polygon fill="none" stroke="#000000" points="672.9582,-412.7 672.9582,-435.7 799.9582,-435.7 799.9582,-412.7 672.9582,-412.7"/>
<text text-anchor="start" x="677.9582" y="-421.8" font-family="Helvetica,sans-Serif" font-weight="bold" font-size="11.00" fill="#000000">invitation</text>
<text text-anchor="start" x="765.0019" y="-420.8" font-family="Helvetica,sans-Serif" font-size="11.00" fill="#000000">[table]</text>
<polygon fill="none" stroke="#000000" points="672.9582,-390.7 672.9582,-412.7 799.9582,-412.7 799.9582,-390.7 672.9582,-390.7"/>
<image xlink:href="../../images/primaryKeys.png" width="11px" height="12px" preserveAspectRatio="xMinYMin meet" x="677.958" y="-407.7"/>
<text text-anchor="start" x="692.9582" y="-397.8" font-family="Helvetica,sans-Serif" font-size="11.00" fill="#000000">id</text>
<polygon fill="#ffffff" stroke="transparent" points="672.9582,-368.7 672.9582,-390.7 799.9582,-390.7 799.9582,-368.7 672.9582,-368.7"/>
<polygon fill="none" stroke="#000000" points="672.9582,-368.7 672.9582,-390.7 799.9582,-390.7 799.9582,-368.7 672.9582,-368.7"/>
<image xlink:href="../../images/foreignKeys.png" width="11px" height="12px" preserveAspectRatio="xMinYMin meet" x="677.958" y="-385.7"/>
<text text-anchor="start" x="692.9582" y="-375.8" font-family="Helvetica,sans-Serif" font-size="11.00" fill="#000000">location_id</text>
<polygon fill="#ffffff" stroke="transparent" points="672.9582,-346.7 672.9582,-368.7 799.9582,-368.7 799.9582,-346.7 672.9582,-346.7"/>
<polygon fill="none" stroke="#000000" points="672.9582,-346.7 672.9582,-368.7 799.9582,-368.7 799.9582,-346.7 672.9582,-346.7"/>
<image xlink:href="../../images/foreignKeys.png" width="11px" height="12px" preserveAspectRatio="xMinYMin meet" x="677.958" y="-363.7"/>
<text text-anchor="start" x="692.9582" y="-353.8" font-family="Helvetica,sans-Serif" font-size="11.00" fill="#000000">role_id</text>
<polygon fill="#ffffff" stroke="transparent" points="672.9582,-324.7 672.9582,-346.7 799.9582,-346.7 799.9582,-324.7 672.9582,-324.7"/>
<polygon fill="none" stroke="#000000" points="672.9582,-324.7 672.9582,-346.7 799.9582,-346.7 799.9582,-324.7 672.9582,-324.7"/>
<image xlink:href="../../images/foreignKeys.png" width="11px" height="12px" preserveAspectRatio="xMinYMin meet" x="677.958" y="-341.7"/>
<text text-anchor="start" x="692.9582" y="-331.8" font-family="Helvetica,sans-Serif" font-size="11.00" fill="#000000">contact_person_id</text>
<polygon fill="none" stroke="#000000" points="672.9582,-305.7 672.9582,-324.7 799.9582,-324.7 799.9582,-305.7 672.9582,-305.7"/>
<text text-anchor="start" x="675.9582" y="-311.8" font-family="Helvetica,sans-Serif" font-size="11.00" fill="#000000">...</text>
<polygon fill="#ffffff" stroke="transparent" points="672.9582,-286.7 672.9582,-305.7 716.9582,-305.7 716.9582,-286.7 672.9582,-286.7"/>
<polygon fill="none" stroke="#000000" points="672.9582,-286.7 672.9582,-305.7 716.9582,-305.7 716.9582,-286.7 672.9582,-286.7"/>
<text text-anchor="start" x="675.9582" y="-292.8" font-family="Helvetica,sans-Serif" font-size="11.00" fill="#000000">&lt; 3</text>
<polygon fill="#ffffff" stroke="transparent" points="716.9582,-286.7 716.9582,-305.7 766.9582,-305.7 766.9582,-286.7 716.9582,-286.7"/>
<polygon fill="none" stroke="#000000" points="716.9582,-286.7 716.9582,-305.7 766.9582,-305.7 766.9582,-286.7 716.9582,-286.7"/>
<text text-anchor="start" x="731.5687" y="-292.8" font-family="Helvetica,sans-Serif" font-size="11.00" fill="#000000">4 rows</text>
<polygon fill="#ffffff" stroke="transparent" points="766.9582,-286.7 766.9582,-305.7 799.9582,-305.7 799.9582,-286.7 766.9582,-286.7"/>
<polygon fill="none" stroke="#000000" points="766.9582,-286.7 766.9582,-305.7 799.9582,-305.7 799.9582,-286.7 766.9582,-286.7"/>
<text text-anchor="start" x="781.3635" y="-292.8" font-family="Helvetica,sans-Serif" font-size="11.00" fill="#000000">2 &gt;</text>
</a>
</g>
</g>
<!-- invitation&#45;&gt;location -->
<g id="edge26" class="edge">
<title>invitation:w&#45;&gt;location:e</title>
<path fill="none" stroke="#000000" d="M658.3825,-381.9453C624.0492,-394.865 661.0113,-460.6553 631.4582,-503.7 616.4488,-525.5615 611.9763,-541.7 585.4582,-541.7"/>
<polygon fill="#000000" stroke="#000000" points="665.0515,-380.918 673.5063,-383.258 669.0048,-380.309 672.9582,-379.7 672.9582,-379.7 672.9582,-379.7 669.0048,-380.309 672.4101,-376.142 665.0515,-380.918 665.0515,-380.918"/>
<ellipse fill="none" stroke="#000000" cx="661.8888" cy="-381.4053" rx="3.2" ry="3.2"/>
</g>
<!-- invitation&#45;&gt;contact_person -->
<g id="edge25" class="edge">
<title>invitation:w&#45;&gt;contact_person:e</title>
<path fill="none" stroke="#000000" d="M658.5368,-333.0755C636.5001,-324.1766 632.8546,-295.7 602.4582,-295.7"/>
<polygon fill="#000000" stroke="#000000" points="665.0875,-334.2676 672.3136,-339.2418 669.0228,-334.9838 672.9582,-335.7 672.9582,-335.7 672.9582,-335.7 669.0228,-334.9838 673.6028,-332.1582 665.0875,-334.2676 665.0875,-334.2676"/>
<ellipse fill="none" stroke="#000000" cx="661.9392" cy="-333.6946" rx="3.2" ry="3.2"/>
</g>
<!-- skill_role -->
<g id="node13" class="node">
<title>skill_role</title>
<g id="a_node13"><a xlink:href="../../tables/skill_role.html" xlink:title="skill_role" target="_top">
<polygon fill="#ffffff" stroke="transparent" points="500.9582,-350.2 500.9582,-411.2 585.9582,-411.2 585.9582,-350.2 500.9582,-350.2"/>
<polygon fill="#f5f5f5" stroke="transparent" points="501.4582,-387.7 501.4582,-410.7 586.4582,-410.7 586.4582,-387.7 501.4582,-387.7"/>
<polygon fill="none" stroke="#000000" points="501.4582,-387.7 501.4582,-410.7 586.4582,-410.7 586.4582,-387.7 501.4582,-387.7"/>
<text text-anchor="start" x="506.0731" y="-396.8" font-family="Helvetica,sans-Serif" font-weight="bold" font-size="11.00" fill="#000000">skill_role</text>
<text text-anchor="start" x="551.9801" y="-395.8" font-family="Helvetica,sans-Serif" font-size="11.00" fill="#000000">[table]</text>
<polygon fill="none" stroke="#000000" points="501.4582,-368.7 501.4582,-387.7 586.4582,-387.7 586.4582,-368.7 501.4582,-368.7"/>
<text text-anchor="start" x="504.4582" y="-374.8" font-family="Helvetica,sans-Serif" font-size="11.00" fill="#000000">...</text>
<polygon fill="#ffffff" stroke="transparent" points="501.4582,-349.7 501.4582,-368.7 514.4582,-368.7 514.4582,-349.7 501.4582,-349.7"/>
<polygon fill="none" stroke="#000000" points="501.4582,-349.7 501.4582,-368.7 514.4582,-368.7 514.4582,-349.7 501.4582,-349.7"/>
<text text-anchor="start" x="504.4582" y="-355.8" font-family="Helvetica,sans-Serif" font-size="11.00" fill="#000000"> &#160;</text>
<polygon fill="#ffffff" stroke="transparent" points="514.4582,-349.7 514.4582,-368.7 564.4582,-368.7 564.4582,-349.7 514.4582,-349.7"/>
<polygon fill="none" stroke="#000000" points="514.4582,-349.7 514.4582,-368.7 564.4582,-368.7 564.4582,-349.7 514.4582,-349.7"/>
<text text-anchor="start" x="517.1486" y="-355.8" font-family="Helvetica,sans-Serif" font-size="11.00" fill="#000000">603 rows</text>
<polygon fill="#ffffff" stroke="transparent" points="564.4582,-349.7 564.4582,-368.7 586.4582,-368.7 586.4582,-349.7 564.4582,-349.7"/>
<polygon fill="none" stroke="#000000" points="564.4582,-349.7 564.4582,-368.7 586.4582,-368.7 586.4582,-349.7 564.4582,-349.7"/>
<text text-anchor="start" x="567.8635" y="-355.8" font-family="Helvetica,sans-Serif" font-size="11.00" fill="#000000">4 &gt;</text>
</a>
</g>
</g>
<!-- invitation&#45;&gt;skill_role -->
<g id="edge27" class="edge">
<title>invitation:w&#45;&gt;skill_role:e</title>
<path fill="none" stroke="#000000" d="M658.3985,-358.7193C630.8303,-362.7949 620.5222,-377.7 586.4582,-377.7"/>
<polygon fill="#000000" stroke="#000000" points="664.9777,-358.2588 673.2096,-361.2912 668.968,-357.9794 672.9582,-357.7 672.9582,-357.7 672.9582,-357.7 668.968,-357.9794 672.7068,-354.1088 664.9777,-358.2588 664.9777,-358.2588"/>
<ellipse fill="none" stroke="#000000" cx="661.7856" cy="-358.4823" rx="3.2" ry="3.2"/>
</g>
<!-- invitation_document -->
<g id="node14" class="node">
<title>invitation_document</title>
<g id="a_node14"><a xlink:href="../../tables/invitation_document.html" xlink:title="invitation_document" target="_top">
<polygon fill="#ffffff" stroke="transparent" points="848.4582,-228.7 848.4582,-318.7 1040.4582,-318.7 1040.4582,-228.7 848.4582,-228.7"/>
<polygon fill="#f5f5f5" stroke="transparent" points="850.4582,-293.7 850.4582,-316.7 1038.4582,-316.7 1038.4582,-293.7 850.4582,-293.7"/>
<polygon fill="none" stroke="#000000" points="850.4582,-293.7 850.4582,-316.7 1038.4582,-316.7 1038.4582,-293.7 850.4582,-293.7"/>
<text text-anchor="start" x="855.4582" y="-302.8" font-family="Helvetica,sans-Serif" font-weight="bold" font-size="11.00" fill="#000000">invitation_document</text>
<text text-anchor="start" x="1003.5019" y="-301.8" font-family="Helvetica,sans-Serif" font-size="11.00" fill="#000000">[table]</text>
<polygon fill="#ffffff" stroke="transparent" points="850.4582,-271.7 850.4582,-293.7 988.4582,-293.7 988.4582,-271.7 850.4582,-271.7"/>
<polygon fill="none" stroke="#000000" points="850.4582,-271.7 850.4582,-293.7 988.4582,-293.7 988.4582,-271.7 850.4582,-271.7"/>
<image xlink:href="../../images/foreignKeys.png" width="11px" height="12px" preserveAspectRatio="xMinYMin meet" x="855.458" y="-288.7"/>
<text text-anchor="start" x="870.4582" y="-278.8" font-family="Helvetica,sans-Serif" font-size="11.00" fill="#000000">invitation_id</text>
<polygon fill="none" stroke="#000000" points="988.4582,-271.7 988.4582,-293.7 1038.4582,-293.7 1038.4582,-271.7 988.4582,-271.7"/>
<text text-anchor="start" x="991.1447" y="-279.4" font-family="Helvetica,sans-Serif" font-size="11.00" fill="#000000">bigint[19]</text>
<polygon fill="#ffffff" stroke="transparent" points="850.4582,-249.7 850.4582,-271.7 988.4582,-271.7 988.4582,-249.7 850.4582,-249.7"/>
<polygon fill="none" stroke="#000000" points="850.4582,-249.7 850.4582,-271.7 988.4582,-271.7 988.4582,-249.7 850.4582,-249.7"/>
<image xlink:href="../../images/foreignKeys.png" width="11px" height="12px" preserveAspectRatio="xMinYMin meet" x="855.458" y="-266.7"/>
<text text-anchor="start" x="870.4582" y="-256.8" font-family="Helvetica,sans-Serif" font-size="11.00" fill="#000000">file_id</text>
<polygon fill="none" stroke="#000000" points="988.4582,-249.7 988.4582,-271.7 1038.4582,-271.7 1038.4582,-249.7 988.4582,-249.7"/>
<text text-anchor="start" x="991.1447" y="-257.4" font-family="Helvetica,sans-Serif" font-size="11.00" fill="#000000">bigint[19]</text>
<polygon fill="#ffffff" stroke="transparent" points="850.4582,-230.7 850.4582,-249.7 910.4582,-249.7 910.4582,-230.7 850.4582,-230.7"/>
<polygon fill="none" stroke="#000000" points="850.4582,-230.7 850.4582,-249.7 910.4582,-249.7 910.4582,-230.7 850.4582,-230.7"/>
<text text-anchor="start" x="853.4582" y="-236.8" font-family="Helvetica,sans-Serif" font-size="11.00" fill="#000000">&lt; 2</text>
<polygon fill="#ffffff" stroke="transparent" points="910.4582,-230.7 910.4582,-249.7 988.4582,-249.7 988.4582,-230.7 910.4582,-230.7"/>
<polygon fill="none" stroke="#000000" points="910.4582,-230.7 910.4582,-249.7 988.4582,-249.7 988.4582,-230.7 910.4582,-230.7"/>
<text text-anchor="start" x="953.0687" y="-236.8" font-family="Helvetica,sans-Serif" font-size="11.00" fill="#000000">4 rows</text>
<polygon fill="#ffffff" stroke="transparent" points="988.4582,-230.7 988.4582,-249.7 1038.4582,-249.7 1038.4582,-230.7 988.4582,-230.7"/>
<polygon fill="none" stroke="#000000" points="988.4582,-230.7 988.4582,-249.7 1038.4582,-249.7 1038.4582,-230.7 988.4582,-230.7"/>
<text text-anchor="start" x="1019.8635" y="-236.8" font-family="Helvetica,sans-Serif" font-size="11.00" fill="#000000">0 &gt;</text>
<polygon fill="none" stroke="#000000" stroke-width="2" points="849.4582,-229.7 849.4582,-317.7 1039.4582,-317.7 1039.4582,-229.7 849.4582,-229.7"/>
</a>
</g>
</g>
<!-- invitation_document&#45;&gt;file -->
<g id="edge28" class="edge">
<title>invitation_document:w&#45;&gt;file:e</title>
<path fill="none" stroke="#000000" d="M836.3334,-256.7653C826.8615,-250.434 823.2139,-238.2365 807.4582,-233.7 732.2897,-212.057 528.0053,-204.4487 455.4582,-233.7 432.2823,-243.0446 439.9471,-272.7 414.9582,-272.7"/>
<polygon fill="#000000" stroke="#000000" points="842.7516,-258.5532 849.4921,-264.168 846.6049,-259.6266 850.4582,-260.7 850.4582,-260.7 850.4582,-260.7 846.6049,-259.6266 851.4243,-257.232 842.7516,-258.5532 842.7516,-258.5532"/>
<ellipse fill="none" stroke="#000000" cx="839.669" cy="-257.6945" rx="3.2" ry="3.2"/>
</g>
<!-- invitation_document&#45;&gt;invitation -->
<g id="edge29" class="edge">
<title>invitation_document:w&#45;&gt;invitation:e</title>
<path fill="none" stroke="#000000" d="M836.4683,-286.1331C804.8299,-305.6444 851.5772,-401.7 799.9582,-401.7"/>
<polygon fill="#000000" stroke="#000000" points="842.6887,-284.6067 851.3162,-286.1963 846.5735,-283.6533 850.4582,-282.7 850.4582,-282.7 850.4582,-282.7 846.5735,-283.6533 849.6002,-279.2037 842.6887,-284.6067 842.6887,-284.6067"/>
<ellipse fill="none" stroke="#000000" cx="839.5809" cy="-285.3693" rx="3.2" ry="3.2"/>
</g>
<!-- invitation_skill -->
<g id="node15" class="node">
<title>invitation_skill</title>
<g id="a_node15"><a xlink:href="../../tables/invitation_skill.html" xlink:title="invitation_skill" target="_top">
<polygon fill="#ffffff" stroke="transparent" points="889.4582,-374.2 889.4582,-435.2 999.4582,-435.2 999.4582,-374.2 889.4582,-374.2"/>
<polygon fill="#f5f5f5" stroke="transparent" points="889.4582,-411.7 889.4582,-434.7 999.4582,-434.7 999.4582,-411.7 889.4582,-411.7"/>
<polygon fill="none" stroke="#000000" points="889.4582,-411.7 889.4582,-434.7 999.4582,-434.7 999.4582,-411.7 889.4582,-411.7"/>
<text text-anchor="start" x="894.0414" y="-420.8" font-family="Helvetica,sans-Serif" font-weight="bold" font-size="11.00" fill="#000000">invitation_skill</text>
<text text-anchor="start" x="964.9801" y="-419.8" font-family="Helvetica,sans-Serif" font-size="11.00" fill="#000000">[table]</text>
<polygon fill="none" stroke="#000000" points="889.4582,-392.7 889.4582,-411.7 999.4582,-411.7 999.4582,-392.7 889.4582,-392.7"/>
<text text-anchor="start" x="892.4582" y="-398.8" font-family="Helvetica,sans-Serif" font-size="11.00" fill="#000000">...</text>
<polygon fill="#ffffff" stroke="transparent" points="889.4582,-373.7 889.4582,-392.7 929.4582,-392.7 929.4582,-373.7 889.4582,-373.7"/>
<polygon fill="none" stroke="#000000" points="889.4582,-373.7 889.4582,-392.7 929.4582,-392.7 929.4582,-373.7 889.4582,-373.7"/>
<text text-anchor="start" x="892.4582" y="-379.8" font-family="Helvetica,sans-Serif" font-size="11.00" fill="#000000">&lt; 2</text>
<polygon fill="#ffffff" stroke="transparent" points="929.4582,-373.7 929.4582,-392.7 977.4582,-392.7 977.4582,-373.7 929.4582,-373.7"/>
<polygon fill="none" stroke="#000000" points="929.4582,-373.7 929.4582,-392.7 977.4582,-392.7 977.4582,-373.7 929.4582,-373.7"/>
<text text-anchor="start" x="942.0687" y="-379.8" font-family="Helvetica,sans-Serif" font-size="11.00" fill="#000000">4 rows</text>
<polygon fill="#ffffff" stroke="transparent" points="977.4582,-373.7 977.4582,-392.7 999.4582,-392.7 999.4582,-373.7 977.4582,-373.7"/>
<polygon fill="none" stroke="#000000" points="977.4582,-373.7 977.4582,-392.7 999.4582,-392.7 999.4582,-373.7 977.4582,-373.7"/>
<text text-anchor="start" x="990.3444" y="-379.8" font-family="Helvetica,sans-Serif" font-size="11.00" fill="#000000"> &#160;</text>
</a>
</g>
</g>
<!-- invitation_skill&#45;&gt;invitation -->
<g id="edge30" class="edge">
<title>invitation_skill:w&#45;&gt;invitation:e</title>
<path fill="none" stroke="#000000" d="M875.0482,-401.7C846.5127,-401.7 834.453,-401.7 799.9582,-401.7"/>
<polygon fill="#000000" stroke="#000000" points="881.4582,-401.7001 889.4582,-405.3 885.4582,-401.7 889.4582,-401.7 889.4582,-401.7 889.4582,-401.7 885.4582,-401.7 889.4582,-398.1 881.4582,-401.7001 881.4582,-401.7001"/>
<ellipse fill="none" stroke="#000000" cx="878.2582" cy="-401.7001" rx="3.2" ry="3.2"/>
</g>
<!-- job_request_application -->
<g id="node16" class="node">
<title>job_request_application</title>
<g id="a_node16"><a xlink:href="../../tables/job_request_application.html" xlink:title="job_request_application" target="_top">
<polygon fill="#ffffff" stroke="transparent" points="864.9582,-624.2 864.9582,-685.2 1023.9582,-685.2 1023.9582,-624.2 864.9582,-624.2"/>
<polygon fill="#f5f5f5" stroke="transparent" points="865.4582,-661.7 865.4582,-684.7 1024.4582,-684.7 1024.4582,-661.7 865.4582,-661.7"/>
<polygon fill="none" stroke="#000000" points="865.4582,-661.7 865.4582,-684.7 1024.4582,-684.7 1024.4582,-661.7 865.4582,-661.7"/>
<text text-anchor="start" x="870.3843" y="-670.8" font-family="Helvetica,sans-Serif" font-weight="bold" font-size="11.00" fill="#000000">job_request_application</text>
<text text-anchor="start" x="989.9801" y="-669.8" font-family="Helvetica,sans-Serif" font-size="11.00" fill="#000000">[table]</text>
<polygon fill="none" stroke="#000000" points="865.4582,-642.7 865.4582,-661.7 1024.4582,-661.7 1024.4582,-642.7 865.4582,-642.7"/>
<text text-anchor="start" x="868.4582" y="-648.8" font-family="Helvetica,sans-Serif" font-size="11.00" fill="#000000">...</text>
<polygon fill="#ffffff" stroke="transparent" points="865.4582,-623.7 865.4582,-642.7 922.4582,-642.7 922.4582,-623.7 865.4582,-623.7"/>
<polygon fill="none" stroke="#000000" points="865.4582,-623.7 865.4582,-642.7 922.4582,-642.7 922.4582,-623.7 865.4582,-623.7"/>
<text text-anchor="start" x="868.4582" y="-629.8" font-family="Helvetica,sans-Serif" font-size="11.00" fill="#000000">&lt; 6</text>
<polygon fill="#ffffff" stroke="transparent" points="922.4582,-623.7 922.4582,-642.7 984.4582,-642.7 984.4582,-623.7 922.4582,-623.7"/>
<polygon fill="none" stroke="#000000" points="922.4582,-623.7 922.4582,-642.7 984.4582,-642.7 984.4582,-623.7 922.4582,-623.7"/>
<text text-anchor="start" x="942.9538" y="-629.8" font-family="Helvetica,sans-Serif" font-size="11.00" fill="#000000">75 rows</text>
<polygon fill="#ffffff" stroke="transparent" points="984.4582,-623.7 984.4582,-642.7 1024.4582,-642.7 1024.4582,-623.7 984.4582,-623.7"/>
<polygon fill="none" stroke="#000000" points="984.4582,-623.7 984.4582,-642.7 1024.4582,-642.7 1024.4582,-623.7 984.4582,-623.7"/>
<text text-anchor="start" x="1005.8635" y="-629.8" font-family="Helvetica,sans-Serif" font-size="11.00" fill="#000000">5 &gt;</text>
</a>
</g>
</g>
<!-- job_request_application&#45;&gt;applicant -->
<g id="edge31" class="edge">
<title>job_request_application:w&#45;&gt;applicant:e</title>
<path fill="none" stroke="#000000" d="M851.0171,-649.1322C813.1229,-633.8655 831.5139,-555.7 779.9582,-555.7"/>
<polygon fill="#000000" stroke="#000000" points="857.5818,-650.2994 864.828,-655.2444 861.52,-650.9997 865.4582,-651.7 865.4582,-651.7 865.4582,-651.7 861.52,-650.9997 866.0885,-648.1556 857.5818,-650.2994 857.5818,-650.2994"/>
<ellipse fill="none" stroke="#000000" cx="854.4312" cy="-649.7392" rx="3.2" ry="3.2"/>
</g>
<!-- job_request_application&#45;&gt;file -->
<g id="edge32" class="edge">
<title>job_request_application:w&#45;&gt;file:e</title>
<path fill="none" stroke="#000000" d="M850.7743,-651.5183C772.0659,-649.9888 485.5526,-638.5761 455.4582,-608.7 402.0855,-555.7145 490.1653,-272.7 414.9582,-272.7"/>
<polygon fill="#000000" stroke="#000000" points="857.4588,-651.601 865.4136,-655.2997 861.4585,-651.6505 865.4582,-651.7 865.4582,-651.7 865.4582,-651.7 861.4585,-651.6505 865.5028,-648.1003 857.4588,-651.601 857.4588,-651.601"/>
<ellipse fill="none" stroke="#000000" cx="854.2591" cy="-651.5613" rx="3.2" ry="3.2"/>
</g>
<!-- job_request_application&#45;&gt;supplier -->
<g id="edge35" class="edge">
<title>job_request_application:w&#45;&gt;supplier:e</title>
<path fill="none" stroke="#000000" d="M850.8967,-652.1623C732.467,-659.8446 716.3214,-760.7 589.4582,-760.7"/>
<polygon fill="#000000" stroke="#000000" points="857.4622,-651.9539 865.5725,-655.2982 861.4602,-651.8269 865.4582,-651.7 865.4582,-651.7 865.4582,-651.7 861.4602,-651.8269 865.344,-648.1018 857.4622,-651.9539 857.4622,-651.9539"/>
<ellipse fill="none" stroke="#000000" cx="854.2639" cy="-652.0555" rx="3.2" ry="3.2"/>
</g>
<!-- job_request_application&#45;&gt;principal -->
<g id="edge33" class="edge">
<title>job_request_application:w&#45;&gt;principal:e</title>
<path fill="none" stroke="#000000" d="M851.0144,-654.3104C829.9921,-663.3341 832.66,-693.6948 807.4582,-712.7 736.9863,-765.8444 717.1754,-783.648 631.4582,-804.7 555.4935,-823.3568 524.2612,-841.9138 455.4582,-804.7 332.6097,-738.2544 330.5477,-673.1889 283.4582,-541.7 269.2891,-502.1352 284.4836,-165.7 242.4582,-165.7"/>
<polygon fill="#000000" stroke="#000000" points="857.5857,-653.1228 866.0985,-655.2426 861.522,-652.4114 865.4582,-651.7 865.4582,-651.7 865.4582,-651.7 861.522,-652.4114 864.8179,-648.1574 857.5857,-653.1228 857.5857,-653.1228"/>
<ellipse fill="none" stroke="#000000" cx="854.4368" cy="-653.6919" rx="3.2" ry="3.2"/>
</g>
<!-- job_request_application&#45;&gt;principal -->
<g id="edge34" class="edge">
<title>job_request_application:w&#45;&gt;principal:e</title>
<path fill="none" stroke="#000000" d="M851.1117,-654.2433C830.7361,-662.7741 831.9996,-690.8372 807.4582,-708.7 736.0956,-760.6423 717.1754,-779.648 631.4582,-800.7 555.4935,-819.3568 524.2612,-837.9138 455.4582,-800.7 332.6097,-734.2544 330.6239,-669.1616 283.4582,-537.7 269.4153,-498.5593 284.0418,-165.7 242.4582,-165.7"/>
<polygon fill="#000000" stroke="#000000" points="857.581,-653.0965 866.0866,-655.2447 861.5196,-652.3982 865.4582,-651.7 865.4582,-651.7 865.4582,-651.7 861.5196,-652.3982 864.8298,-648.1553 857.581,-653.0965 857.581,-653.0965"/>
<ellipse fill="none" stroke="#000000" cx="854.4302" cy="-653.6551" rx="3.2" ry="3.2"/>
</g>
<!-- job_request_application_document -->
<g id="node17" class="node">
<title>job_request_application_document</title>
<g id="a_node17"><a xlink:href="../../tables/job_request_application_document.html" xlink:title="job_request_application_document" target="_top">
<polygon fill="#ffffff" stroke="transparent" points="1089.4582,-380.2 1089.4582,-441.2 1302.4582,-441.2 1302.4582,-380.2 1089.4582,-380.2"/>
<polygon fill="#f5f5f5" stroke="transparent" points="1089.9582,-417.7 1089.9582,-440.7 1302.9582,-440.7 1302.9582,-417.7 1089.9582,-417.7"/>
<polygon fill="none" stroke="#000000" points="1089.9582,-417.7 1089.9582,-440.7 1302.9582,-440.7 1302.9582,-417.7 1089.9582,-417.7"/>
<text text-anchor="start" x="1094.6802" y="-426.8" font-family="Helvetica,sans-Serif" font-weight="bold" font-size="11.00" fill="#000000">job_request_application_document</text>
<text text-anchor="start" x="1268.4801" y="-425.8" font-family="Helvetica,sans-Serif" font-size="11.00" fill="#000000">[table]</text>
<polygon fill="none" stroke="#000000" points="1089.9582,-398.7 1089.9582,-417.7 1302.9582,-417.7 1302.9582,-398.7 1089.9582,-398.7"/>
<text text-anchor="start" x="1092.9582" y="-404.8" font-family="Helvetica,sans-Serif" font-size="11.00" fill="#000000">...</text>
<polygon fill="#ffffff" stroke="transparent" points="1089.9582,-379.7 1089.9582,-398.7 1178.9582,-398.7 1178.9582,-379.7 1089.9582,-379.7"/>
<polygon fill="none" stroke="#000000" points="1089.9582,-379.7 1089.9582,-398.7 1178.9582,-398.7 1178.9582,-379.7 1089.9582,-379.7"/>
<text text-anchor="start" x="1092.9582" y="-385.8" font-family="Helvetica,sans-Serif" font-size="11.00" fill="#000000">&lt; 2</text>
<polygon fill="#ffffff" stroke="transparent" points="1178.9582,-379.7 1178.9582,-398.7 1256.9582,-398.7 1256.9582,-379.7 1178.9582,-379.7"/>
<polygon fill="none" stroke="#000000" points="1178.9582,-379.7 1178.9582,-398.7 1256.9582,-398.7 1256.9582,-379.7 1178.9582,-379.7"/>
<text text-anchor="start" x="1215.4538" y="-385.8" font-family="Helvetica,sans-Serif" font-size="11.00" fill="#000000">57 rows</text>
<polygon fill="#ffffff" stroke="transparent" points="1256.9582,-379.7 1256.9582,-398.7 1302.9582,-398.7 1302.9582,-379.7 1256.9582,-379.7"/>
<polygon fill="none" stroke="#000000" points="1256.9582,-379.7 1256.9582,-398.7 1302.9582,-398.7 1302.9582,-379.7 1256.9582,-379.7"/>
<text text-anchor="start" x="1293.8444" y="-385.8" font-family="Helvetica,sans-Serif" font-size="11.00" fill="#000000"> &#160;</text>
</a>
</g>
</g>
<!-- job_request_application_document&#45;&gt;file -->
<g id="edge36" class="edge">
<title>job_request_application_document:w&#45;&gt;file:e</title>
<path fill="none" stroke="#000000" d="M1075.6135,-406.074C1017.1797,-390.6182 1110.9145,-269.0638 1048.4582,-217.7 997.5657,-175.8462 513.5243,-180.5532 455.4582,-211.7 426.7809,-227.0826 447.5007,-272.7 414.9582,-272.7"/>
<polygon fill="#000000" stroke="#000000" points="1082.0091,-406.7989 1089.5527,-411.2771 1085.9837,-407.2494 1089.9582,-407.7 1089.9582,-407.7 1089.9582,-407.7 1085.9837,-407.2494 1090.3637,-404.1229 1082.0091,-406.7989 1082.0091,-406.7989"/>
<ellipse fill="none" stroke="#000000" cx="1078.8295" cy="-406.4384" rx="3.2" ry="3.2"/>
</g>
<!-- job_request_application_document&#45;&gt;job_request_application -->
<g id="edge37" class="edge">
<title>job_request_application_document:w&#45;&gt;job_request_application:e</title>
<path fill="none" stroke="#000000" d="M1076.7125,-413.7315C1041.6836,-451.3055 1075.3368,-651.7 1024.4582,-651.7"/>
<polygon fill="#000000" stroke="#000000" points="1082.6775,-411.0153 1091.4501,-410.9763 1086.3179,-409.3577 1089.9582,-407.7 1089.9582,-407.7 1089.9582,-407.7 1086.3179,-409.3577 1088.4663,-404.4237 1082.6775,-411.0153 1082.6775,-411.0153"/>
<ellipse fill="none" stroke="#000000" cx="1079.7652" cy="-412.3415" rx="3.2" ry="3.2"/>
</g>
<!-- job_request_attachment -->
<g id="node18" class="node">
<title>job_request_attachment</title>
<g id="a_node18"><a xlink:href="../../tables/job_request_attachment.html" xlink:title="job_request_attachment" target="_top">
<polygon fill="#ffffff" stroke="transparent" points="463.4582,-432.2 463.4582,-493.2 623.4582,-493.2 623.4582,-432.2 463.4582,-432.2"/>
<polygon fill="#f5f5f5" stroke="transparent" points="463.4582,-469.7 463.4582,-492.7 623.4582,-492.7 623.4582,-469.7 463.4582,-469.7"/>
<polygon fill="none" stroke="#000000" points="463.4582,-469.7 463.4582,-492.7 623.4582,-492.7 623.4582,-469.7 463.4582,-469.7"/>
<text text-anchor="start" x="467.9652" y="-478.8" font-family="Helvetica,sans-Serif" font-weight="bold" font-size="11.00" fill="#000000">job_request_attachment</text>
<text text-anchor="start" x="588.9801" y="-477.8" font-family="Helvetica,sans-Serif" font-size="11.00" fill="#000000">[table]</text>
<polygon fill="none" stroke="#000000" points="463.4582,-450.7 463.4582,-469.7 623.4582,-469.7 623.4582,-450.7 463.4582,-450.7"/>
<text text-anchor="start" x="466.4582" y="-456.8" font-family="Helvetica,sans-Serif" font-size="11.00" fill="#000000">...</text>
<polygon fill="#ffffff" stroke="transparent" points="463.4582,-431.7 463.4582,-450.7 528.4582,-450.7 528.4582,-431.7 463.4582,-431.7"/>
<polygon fill="none" stroke="#000000" points="463.4582,-431.7 463.4582,-450.7 528.4582,-450.7 528.4582,-431.7 463.4582,-431.7"/>
<text text-anchor="start" x="466.4582" y="-437.8" font-family="Helvetica,sans-Serif" font-size="11.00" fill="#000000">&lt; 2</text>
<polygon fill="#ffffff" stroke="transparent" points="528.4582,-431.7 528.4582,-450.7 588.4582,-450.7 588.4582,-431.7 528.4582,-431.7"/>
<polygon fill="none" stroke="#000000" points="528.4582,-431.7 528.4582,-450.7 588.4582,-450.7 588.4582,-431.7 528.4582,-431.7"/>
<text text-anchor="start" x="553.0687" y="-437.8" font-family="Helvetica,sans-Serif" font-size="11.00" fill="#000000">4 rows</text>
<polygon fill="#ffffff" stroke="transparent" points="588.4582,-431.7 588.4582,-450.7 623.4582,-450.7 623.4582,-431.7 588.4582,-431.7"/>
<polygon fill="none" stroke="#000000" points="588.4582,-431.7 588.4582,-450.7 623.4582,-450.7 623.4582,-431.7 588.4582,-431.7"/>
<text text-anchor="start" x="614.3444" y="-437.8" font-family="Helvetica,sans-Serif" font-size="11.00" fill="#000000"> &#160;</text>
</a>
</g>
</g>
<!-- job_request_attachment&#45;&gt;file -->
<g id="edge38" class="edge">
<title>job_request_attachment:w&#45;&gt;file:e</title>
<path fill="none" stroke="#000000" d="M448.9967,-457.3356C393.0407,-435.6887 495.1174,-272.7 414.9582,-272.7"/>
<polygon fill="#000000" stroke="#000000" points="455.563,-458.4091 462.8773,-463.2528 459.5106,-459.0546 463.4582,-459.7 463.4582,-459.7 463.4582,-459.7 459.5106,-459.0546 464.0391,-456.1472 455.563,-458.4091 455.563,-458.4091"/>
<ellipse fill="none" stroke="#000000" cx="452.405" cy="-457.8928" rx="3.2" ry="3.2"/>
</g>
</g>
</svg>
