<?xml version="1.0" encoding="UTF-8" standalone="no"?>
<!DOCTYPE svg PUBLIC "-//W3C//DTD SVG 1.1//EN"
 "http://www.w3.org/Graphics/SVG/1.1/DTD/svg11.dtd">
<!-- Generated by graphviz version 2.40.1 (20161225.0304)
 -->
<!-- Title: oneDegreeRelationshipsDiagram Pages: 1 -->
<svg width="620pt" height="641pt"
 viewBox="0.00 0.00 620.00 640.70" xmlns="http://www.w3.org/2000/svg" xmlns:xlink="http://www.w3.org/1999/xlink">
<g id="graph0" class="graph" transform="scale(1 1) rotate(0) translate(4 636.7)">
<title>oneDegreeRelationshipsDiagram</title>
<polygon fill="#ffffff" stroke="transparent" points="-4,4 -4,-636.7 616,-636.7 616,4 -4,4"/>
<text text-anchor="middle" x="72.4936" y="-7.3" font-family="Helvetica,sans-Serif" font-size="11.00" fill="#000000">Generated by SchemaSpy</text>
<!-- invoice_settings -->
<g id="node1" class="node">
<title>invoice_settings</title>
<g id="a_node1"><a xlink:href="../../tables/invoice_settings.html" xlink:title="invoice_settings" target="_top">
<polygon fill="#ffffff" stroke="transparent" points="220,-76.7 220,-628.7 604,-628.7 604,-76.7 220,-76.7"/>
<polygon fill="#f5f5f5" stroke="transparent" points="222,-603.7 222,-626.7 602,-626.7 602,-603.7 222,-603.7"/>
<polygon fill="none" stroke="#000000" points="222,-603.7 222,-626.7 602,-626.7 602,-603.7 222,-603.7"/>
<text text-anchor="start" x="227" y="-612.8" font-family="Helvetica,sans-Serif" font-weight="bold" font-size="11.00" fill="#000000">invoice_settings</text>
<text text-anchor="start" x="567.0437" y="-611.8" font-family="Helvetica,sans-Serif" font-size="11.00" fill="#000000">[table]</text>
<polygon fill="none" stroke="#000000" points="222,-581.7 222,-603.7 535,-603.7 535,-581.7 222,-581.7"/>
<image xlink:href="../../images/primaryKeys.png" width="11px" height="12px" preserveAspectRatio="xMinYMin meet" x="227" y="-598.7"/>
<text text-anchor="start" x="242" y="-588.8" font-family="Helvetica,sans-Serif" font-size="11.00" fill="#000000">id</text>
<polygon fill="none" stroke="#000000" points="535,-581.7 535,-603.7 602,-603.7 602,-581.7 535,-581.7"/>
<text text-anchor="start" x="538" y="-589.4" font-family="Helvetica,sans-Serif" font-size="11.00" fill="#000000">bigint[19]</text>
<polygon fill="#ffffff" stroke="transparent" points="222,-559.7 222,-581.7 535,-581.7 535,-559.7 222,-559.7"/>
<polygon fill="none" stroke="#000000" points="222,-559.7 222,-581.7 535,-581.7 535,-559.7 222,-559.7"/>
<image xlink:href="../../images/foreignKeys.png" width="11px" height="12px" preserveAspectRatio="xMinYMin meet" x="227" y="-576.7"/>
<text text-anchor="start" x="242" y="-566.8" font-family="Helvetica,sans-Serif" font-size="11.00" fill="#000000">created_by</text>
<polygon fill="none" stroke="#000000" points="535,-559.7 535,-581.7 602,-581.7 602,-559.7 535,-559.7"/>
<text text-anchor="start" x="538" y="-567.4" font-family="Helvetica,sans-Serif" font-size="11.00" fill="#000000">bigint[19]</text>
<polygon fill="none" stroke="#000000" points="222,-537.7 222,-559.7 535,-559.7 535,-537.7 222,-537.7"/>
<text text-anchor="start" x="242" y="-544.8" font-family="Helvetica,sans-Serif" font-size="11.00" fill="#000000">creation_date</text>
<polygon fill="none" stroke="#000000" points="535,-537.7 535,-559.7 602,-559.7 602,-537.7 535,-537.7"/>
<text text-anchor="start" x="538" y="-545.4" font-family="Helvetica,sans-Serif" font-size="11.00" fill="#000000">datetime[26]</text>
<polygon fill="#ffffff" stroke="transparent" points="222,-515.7 222,-537.7 535,-537.7 535,-515.7 222,-515.7"/>
<polygon fill="none" stroke="#000000" points="222,-515.7 222,-537.7 535,-537.7 535,-515.7 222,-515.7"/>
<image xlink:href="../../images/foreignKeys.png" width="11px" height="12px" preserveAspectRatio="xMinYMin meet" x="227" y="-532.7"/>
<text text-anchor="start" x="242" y="-522.8" font-family="Helvetica,sans-Serif" font-size="11.00" fill="#000000">modified_by</text>
<polygon fill="none" stroke="#000000" points="535,-515.7 535,-537.7 602,-537.7 602,-515.7 535,-515.7"/>
<text text-anchor="start" x="538" y="-523.4" font-family="Helvetica,sans-Serif" font-size="11.00" fill="#000000">bigint[19]</text>
<polygon fill="none" stroke="#000000" points="222,-493.7 222,-515.7 535,-515.7 535,-493.7 222,-493.7"/>
<text text-anchor="start" x="242" y="-500.8" font-family="Helvetica,sans-Serif" font-size="11.00" fill="#000000">modification_date</text>
<polygon fill="none" stroke="#000000" points="535,-493.7 535,-515.7 602,-515.7 602,-493.7 535,-493.7"/>
<text text-anchor="start" x="538" y="-501.4" font-family="Helvetica,sans-Serif" font-size="11.00" fill="#000000">datetime[26]</text>
<polygon fill="none" stroke="#000000" points="222,-471.7 222,-493.7 535,-493.7 535,-471.7 222,-471.7"/>
<text text-anchor="start" x="242" y="-478.8" font-family="Helvetica,sans-Serif" font-size="11.00" fill="#000000">group_expenses_on_client_invoice</text>
<polygon fill="none" stroke="#000000" points="535,-471.7 535,-493.7 602,-493.7 602,-471.7 535,-471.7"/>
<text text-anchor="start" x="538" y="-479.4" font-family="Helvetica,sans-Serif" font-size="11.00" fill="#000000">bit[1]</text>
<polygon fill="none" stroke="#000000" points="222,-449.7 222,-471.7 535,-471.7 535,-449.7 222,-449.7"/>
<text text-anchor="start" x="242" y="-456.8" font-family="Helvetica,sans-Serif" font-size="11.00" fill="#000000">activities_specified_on_client_invoice</text>
<polygon fill="none" stroke="#000000" points="535,-449.7 535,-471.7 602,-471.7 602,-449.7 535,-449.7"/>
<text text-anchor="start" x="538" y="-457.4" font-family="Helvetica,sans-Serif" font-size="11.00" fill="#000000">bit[1]</text>
<polygon fill="none" stroke="#000000" points="222,-427.7 222,-449.7 535,-449.7 535,-427.7 222,-427.7"/>
<text text-anchor="start" x="242" y="-434.8" font-family="Helvetica,sans-Serif" font-size="11.00" fill="#000000">split_invoice_per_activity</text>
<polygon fill="none" stroke="#000000" points="535,-427.7 535,-449.7 602,-449.7 602,-427.7 535,-427.7"/>
<text text-anchor="start" x="538" y="-435.4" font-family="Helvetica,sans-Serif" font-size="11.00" fill="#000000">bit[1]</text>
<polygon fill="none" stroke="#000000" points="222,-405.7 222,-427.7 535,-427.7 535,-405.7 222,-405.7"/>
<text text-anchor="start" x="242" y="-412.8" font-family="Helvetica,sans-Serif" font-size="11.00" fill="#000000">split_invoice_per_pay_code</text>
<polygon fill="none" stroke="#000000" points="535,-405.7 535,-427.7 602,-427.7 602,-405.7 535,-405.7"/>
<text text-anchor="start" x="538" y="-413.4" font-family="Helvetica,sans-Serif" font-size="11.00" fill="#000000">bit[1]</text>
<polygon fill="none" stroke="#000000" points="222,-383.7 222,-405.7 535,-405.7 535,-383.7 222,-383.7"/>
<text text-anchor="start" x="242" y="-390.8" font-family="Helvetica,sans-Serif" font-size="11.00" fill="#000000">reference_number_mandatory_for_client_invoicing</text>
<polygon fill="none" stroke="#000000" points="535,-383.7 535,-405.7 602,-405.7 602,-383.7 535,-383.7"/>
<text text-anchor="start" x="538" y="-391.4" font-family="Helvetica,sans-Serif" font-size="11.00" fill="#000000">bit[1]</text>
<polygon fill="none" stroke="#000000" points="222,-361.7 222,-383.7 535,-383.7 535,-361.7 222,-361.7"/>
<text text-anchor="start" x="242" y="-368.8" font-family="Helvetica,sans-Serif" font-size="11.00" fill="#000000">reference_number_format</text>
<polygon fill="none" stroke="#000000" points="535,-361.7 535,-383.7 602,-383.7 602,-361.7 535,-361.7"/>
<text text-anchor="start" x="537.9365" y="-369.4" font-family="Helvetica,sans-Serif" font-size="11.00" fill="#000000">varchar[255]</text>
<polygon fill="none" stroke="#000000" points="222,-339.7 222,-361.7 535,-361.7 535,-339.7 222,-339.7"/>
<text text-anchor="start" x="242" y="-346.8" font-family="Helvetica,sans-Serif" font-size="11.00" fill="#000000">allowed_to_invoice_in_current_month</text>
<polygon fill="none" stroke="#000000" points="535,-339.7 535,-361.7 602,-361.7 602,-339.7 535,-339.7"/>
<text text-anchor="start" x="538" y="-347.4" font-family="Helvetica,sans-Serif" font-size="11.00" fill="#000000">bit[1]</text>
<polygon fill="none" stroke="#000000" points="222,-317.7 222,-339.7 535,-339.7 535,-317.7 222,-317.7"/>
<text text-anchor="start" x="242" y="-324.8" font-family="Helvetica,sans-Serif" font-size="11.00" fill="#000000">invoice_attachment_mandatory</text>
<polygon fill="none" stroke="#000000" points="535,-317.7 535,-339.7 602,-339.7 602,-317.7 535,-317.7"/>
<text text-anchor="start" x="538" y="-325.4" font-family="Helvetica,sans-Serif" font-size="11.00" fill="#000000">bit[1]</text>
<polygon fill="none" stroke="#000000" points="222,-295.7 222,-317.7 535,-317.7 535,-295.7 222,-295.7"/>
<text text-anchor="start" x="242" y="-302.8" font-family="Helvetica,sans-Serif" font-size="11.00" fill="#000000">client_payment_term</text>
<polygon fill="none" stroke="#000000" points="535,-295.7 535,-317.7 602,-317.7 602,-295.7 535,-295.7"/>
<text text-anchor="start" x="538" y="-303.4" font-family="Helvetica,sans-Serif" font-size="11.00" fill="#000000">int[10]</text>
<polygon fill="none" stroke="#000000" points="222,-273.7 222,-295.7 535,-295.7 535,-273.7 222,-273.7"/>
<text text-anchor="start" x="242" y="-280.8" font-family="Helvetica,sans-Serif" font-size="11.00" fill="#000000">supplier_payment_term</text>
<polygon fill="none" stroke="#000000" points="535,-273.7 535,-295.7 602,-295.7 602,-273.7 535,-273.7"/>
<text text-anchor="start" x="538" y="-281.4" font-family="Helvetica,sans-Serif" font-size="11.00" fill="#000000">int[10]</text>
<polygon fill="none" stroke="#000000" points="222,-251.7 222,-273.7 535,-273.7 535,-251.7 222,-251.7"/>
<text text-anchor="start" x="242" y="-258.8" font-family="Helvetica,sans-Serif" font-size="11.00" fill="#000000">time_report_invoice_type</text>
<polygon fill="none" stroke="#000000" points="535,-251.7 535,-273.7 602,-273.7 602,-251.7 535,-251.7"/>
<text text-anchor="start" x="538" y="-259.4" font-family="Helvetica,sans-Serif" font-size="11.00" fill="#000000">varchar[10]</text>
<polygon fill="none" stroke="#000000" points="222,-229.7 222,-251.7 535,-251.7 535,-229.7 222,-229.7"/>
<text text-anchor="start" x="242" y="-236.8" font-family="Helvetica,sans-Serif" font-size="11.00" fill="#000000">expense_report_invoice_type</text>
<polygon fill="none" stroke="#000000" points="535,-229.7 535,-251.7 602,-251.7 602,-229.7 535,-229.7"/>
<text text-anchor="start" x="538" y="-237.4" font-family="Helvetica,sans-Serif" font-size="11.00" fill="#000000">varchar[10]</text>
<polygon fill="none" stroke="#000000" points="222,-207.7 222,-229.7 535,-229.7 535,-207.7 222,-207.7"/>
<text text-anchor="start" x="242" y="-214.8" font-family="Helvetica,sans-Serif" font-size="11.00" fill="#000000">language_on_client_invoice</text>
<polygon fill="none" stroke="#000000" points="535,-207.7 535,-229.7 602,-229.7 602,-207.7 535,-207.7"/>
<text text-anchor="start" x="538" y="-215.4" font-family="Helvetica,sans-Serif" font-size="11.00" fill="#000000">varchar[10]</text>
<polygon fill="none" stroke="#000000" points="222,-185.7 222,-207.7 535,-207.7 535,-185.7 222,-185.7"/>
<text text-anchor="start" x="242" y="-192.8" font-family="Helvetica,sans-Serif" font-size="11.00" fill="#000000">gln_number</text>
<polygon fill="none" stroke="#000000" points="535,-185.7 535,-207.7 602,-207.7 602,-185.7 535,-185.7"/>
<text text-anchor="start" x="537.9365" y="-193.4" font-family="Helvetica,sans-Serif" font-size="11.00" fill="#000000">varchar[255]</text>
<polygon fill="none" stroke="#000000" points="222,-163.7 222,-185.7 535,-185.7 535,-163.7 222,-163.7"/>
<text text-anchor="start" x="242" y="-170.8" font-family="Helvetica,sans-Serif" font-size="11.00" fill="#000000">invoice_email_address</text>
<polygon fill="none" stroke="#000000" points="535,-163.7 535,-185.7 602,-185.7 602,-163.7 535,-163.7"/>
<text text-anchor="start" x="537.9365" y="-171.4" font-family="Helvetica,sans-Serif" font-size="11.00" fill="#000000">varchar[100]</text>
<polygon fill="#ffffff" stroke="transparent" points="222,-141.7 222,-163.7 535,-163.7 535,-141.7 222,-141.7"/>
<polygon fill="none" stroke="#000000" points="222,-141.7 222,-163.7 535,-163.7 535,-141.7 222,-141.7"/>
<image xlink:href="../../images/foreignKeys.png" width="11px" height="12px" preserveAspectRatio="xMinYMin meet" x="227" y="-158.7"/>
<text text-anchor="start" x="242" y="-148.8" font-family="Helvetica,sans-Serif" font-size="11.00" fill="#000000">unit_id</text>
<polygon fill="none" stroke="#000000" points="535,-141.7 535,-163.7 602,-163.7 602,-141.7 535,-141.7"/>
<text text-anchor="start" x="538" y="-149.4" font-family="Helvetica,sans-Serif" font-size="11.00" fill="#000000">bigint[19]</text>
<polygon fill="#ffffff" stroke="transparent" points="222,-119.7 222,-141.7 535,-141.7 535,-119.7 222,-119.7"/>
<polygon fill="none" stroke="#000000" points="222,-119.7 222,-141.7 535,-141.7 535,-119.7 222,-119.7"/>
<image xlink:href="../../images/foreignKeys.png" width="11px" height="12px" preserveAspectRatio="xMinYMin meet" x="227" y="-136.7"/>
<text text-anchor="start" x="242" y="-126.8" font-family="Helvetica,sans-Serif" font-size="11.00" fill="#000000">invoice_address_id</text>
<polygon fill="none" stroke="#000000" points="535,-119.7 535,-141.7 602,-141.7 602,-119.7 535,-119.7"/>
<text text-anchor="start" x="538" y="-127.4" font-family="Helvetica,sans-Serif" font-size="11.00" fill="#000000">bigint[19]</text>
<polygon fill="#ffffff" stroke="transparent" points="222,-97.7 222,-119.7 535,-119.7 535,-97.7 222,-97.7"/>
<polygon fill="none" stroke="#000000" points="222,-97.7 222,-119.7 535,-119.7 535,-97.7 222,-97.7"/>
<image xlink:href="../../images/foreignKeys.png" width="11px" height="12px" preserveAspectRatio="xMinYMin meet" x="227" y="-114.7"/>
<text text-anchor="start" x="242" y="-104.8" font-family="Helvetica,sans-Serif" font-size="11.00" fill="#000000">postal_address_for_invoice_reminders_id</text>
<polygon fill="none" stroke="#000000" points="535,-97.7 535,-119.7 602,-119.7 602,-97.7 535,-97.7"/>
<text text-anchor="start" x="538" y="-105.4" font-family="Helvetica,sans-Serif" font-size="11.00" fill="#000000">bigint[19]</text>
<polygon fill="#ffffff" stroke="transparent" points="222,-78.7 222,-97.7 370,-97.7 370,-78.7 222,-78.7"/>
<polygon fill="none" stroke="#000000" points="222,-78.7 222,-97.7 370,-97.7 370,-78.7 222,-78.7"/>
<text text-anchor="start" x="225" y="-84.8" font-family="Helvetica,sans-Serif" font-size="11.00" fill="#000000">&lt; 5</text>
<polygon fill="#ffffff" stroke="transparent" points="370,-78.7 370,-97.7 535,-97.7 535,-78.7 370,-78.7"/>
<polygon fill="none" stroke="#000000" points="370,-78.7 370,-97.7 535,-97.7 535,-78.7 370,-78.7"/>
<text text-anchor="start" x="499.6105" y="-84.8" font-family="Helvetica,sans-Serif" font-size="11.00" fill="#000000">8 rows</text>
<polygon fill="#ffffff" stroke="transparent" points="535,-78.7 535,-97.7 602,-97.7 602,-78.7 535,-78.7"/>
<polygon fill="none" stroke="#000000" points="535,-78.7 535,-97.7 602,-97.7 602,-78.7 535,-78.7"/>
<text text-anchor="start" x="583.4053" y="-84.8" font-family="Helvetica,sans-Serif" font-size="11.00" fill="#000000">0 &gt;</text>
<polygon fill="none" stroke="#000000" stroke-width="2" points="221,-77.7 221,-627.7 603,-627.7 603,-77.7 221,-77.7"/>
</a>
</g>
</g>
<!-- principal -->
<g id="node2" class="node">
<title>principal</title>
<g id="a_node2"><a xlink:href="../../tables/principal.html" xlink:title="principal" target="_top">
<polygon fill="#ffffff" stroke="transparent" points="43.5,-478.2 43.5,-583.2 135.5,-583.2 135.5,-478.2 43.5,-478.2"/>
<polygon fill="#f5f5f5" stroke="transparent" points="43.5,-559.7 43.5,-582.7 135.5,-582.7 135.5,-559.7 43.5,-559.7"/>
<polygon fill="none" stroke="#000000" points="43.5,-559.7 43.5,-582.7 135.5,-582.7 135.5,-559.7 43.5,-559.7"/>
<text text-anchor="start" x="48.5" y="-568.8" font-family="Helvetica,sans-Serif" font-weight="bold" font-size="11.00" fill="#000000">principal</text>
<text text-anchor="start" x="100.5437" y="-567.8" font-family="Helvetica,sans-Serif" font-size="11.00" fill="#000000">[table]</text>
<polygon fill="none" stroke="#000000" points="43.5,-537.7 43.5,-559.7 135.5,-559.7 135.5,-537.7 43.5,-537.7"/>
<image xlink:href="../../images/primaryKeys.png" width="11px" height="12px" preserveAspectRatio="xMinYMin meet" x="48.5" y="-554.7"/>
<text text-anchor="start" x="67.5" y="-544.8" font-family="Helvetica,sans-Serif" font-size="11.00" fill="#000000">id</text>
<polygon fill="#ffffff" stroke="transparent" points="43.5,-515.7 43.5,-537.7 135.5,-537.7 135.5,-515.7 43.5,-515.7"/>
<polygon fill="none" stroke="#000000" points="43.5,-515.7 43.5,-537.7 135.5,-537.7 135.5,-515.7 43.5,-515.7"/>
<image xlink:href="../../images/foreignKeys.png" width="11px" height="12px" preserveAspectRatio="xMinYMin meet" x="48.5" y="-532.7"/>
<text text-anchor="start" x="67.5" y="-522.8" font-family="Helvetica,sans-Serif" font-size="11.00" fill="#000000">eworker_id</text>
<polygon fill="none" stroke="#000000" points="43.5,-496.7 43.5,-515.7 135.5,-515.7 135.5,-496.7 43.5,-496.7"/>
<text text-anchor="start" x="46.5" y="-502.8" font-family="Helvetica,sans-Serif" font-size="11.00" fill="#000000">...</text>
<polygon fill="#ffffff" stroke="transparent" points="43.5,-477.7 43.5,-496.7 64.5,-496.7 64.5,-477.7 43.5,-477.7"/>
<polygon fill="none" stroke="#000000" points="43.5,-477.7 43.5,-496.7 64.5,-496.7 64.5,-477.7 43.5,-477.7"/>
<text text-anchor="start" x="46.2027" y="-483.8" font-family="Helvetica,sans-Serif" font-size="11.00" fill="#000000">&lt; 1</text>
<polygon fill="#ffffff" stroke="transparent" points="64.5,-477.7 64.5,-496.7 108.5,-496.7 108.5,-477.7 64.5,-477.7"/>
<polygon fill="none" stroke="#000000" points="64.5,-477.7 64.5,-496.7 108.5,-496.7 108.5,-477.7 64.5,-477.7"/>
<text text-anchor="start" x="67.2478" y="-483.8" font-family="Helvetica,sans-Serif" font-size="11.00" fill="#000000">18 rows</text>
<polygon fill="#ffffff" stroke="transparent" points="108.5,-477.7 108.5,-496.7 135.5,-496.7 135.5,-477.7 108.5,-477.7"/>
<polygon fill="none" stroke="#000000" points="108.5,-477.7 108.5,-496.7 135.5,-496.7 135.5,-477.7 108.5,-477.7"/>
<text text-anchor="start" x="111.1452" y="-483.8" font-family="Helvetica,sans-Serif" font-size="11.00" fill="#000000">56 &gt;</text>
</a>
</g>
</g>
<!-- invoice_settings&#45;&gt;principal -->
<g id="edge1" class="edge">
<title>invoice_settings:w&#45;&gt;principal:e</title>
<path fill="none" stroke="#000000" d="M207.3864,-569.5788C179.7653,-565.0956 169.745,-548.7 135.5,-548.7"/>
<polygon fill="#000000" stroke="#000000" points="214.0234,-570.0879 221.7246,-574.2895 218.0117,-570.394 222,-570.7 222,-570.7 222,-570.7 218.0117,-570.394 222.2754,-567.1105 214.0234,-570.0879 214.0234,-570.0879"/>
<ellipse fill="none" stroke="#000000" cx="210.8328" cy="-569.8431" rx="3.2" ry="3.2"/>
</g>
<!-- invoice_settings&#45;&gt;principal -->
<g id="edge3" class="edge">
<title>invoice_settings:w&#45;&gt;principal:e</title>
<path fill="none" stroke="#000000" d="M207.3864,-527.8212C179.7653,-532.3044 169.745,-548.7 135.5,-548.7"/>
<polygon fill="#000000" stroke="#000000" points="214.0234,-527.3121 222.2754,-530.2895 218.0117,-527.006 222,-526.7 222,-526.7 222,-526.7 218.0117,-527.006 221.7246,-523.1105 214.0234,-527.3121 214.0234,-527.3121"/>
<ellipse fill="none" stroke="#000000" cx="210.8328" cy="-527.5569" rx="3.2" ry="3.2"/>
</g>
<!-- client_address -->
<g id="node3" class="node">
<title>client_address</title>
<g id="a_node3"><a xlink:href="../../tables/client_address.html" xlink:title="client_address" target="_top">
<polygon fill="#ffffff" stroke="transparent" points="28,-38.2 28,-143.2 151,-143.2 151,-38.2 28,-38.2"/>
<polygon fill="#f5f5f5" stroke="transparent" points="28.5,-119.7 28.5,-142.7 151.5,-142.7 151.5,-119.7 28.5,-119.7"/>
<polygon fill="none" stroke="#000000" points="28.5,-119.7 28.5,-142.7 151.5,-142.7 151.5,-119.7 28.5,-119.7"/>
<text text-anchor="start" x="33.5" y="-128.8" font-family="Helvetica,sans-Serif" font-weight="bold" font-size="11.00" fill="#000000">client_address</text>
<text text-anchor="start" x="116.5437" y="-127.8" font-family="Helvetica,sans-Serif" font-size="11.00" fill="#000000">[table]</text>
<polygon fill="none" stroke="#000000" points="28.5,-97.7 28.5,-119.7 151.5,-119.7 151.5,-97.7 28.5,-97.7"/>
<image xlink:href="../../images/primaryKeys.png" width="11px" height="12px" preserveAspectRatio="xMinYMin meet" x="33.5" y="-114.7"/>
<text text-anchor="start" x="48.5" y="-104.8" font-family="Helvetica,sans-Serif" font-size="11.00" fill="#000000">id</text>
<polygon fill="#ffffff" stroke="transparent" points="28.5,-75.7 28.5,-97.7 151.5,-97.7 151.5,-75.7 28.5,-75.7"/>
<polygon fill="none" stroke="#000000" points="28.5,-75.7 28.5,-97.7 151.5,-97.7 151.5,-75.7 28.5,-75.7"/>
<image xlink:href="../../images/foreignKeys.png" width="11px" height="12px" preserveAspectRatio="xMinYMin meet" x="33.5" y="-92.7"/>
<text text-anchor="start" x="48.5" y="-82.8" font-family="Helvetica,sans-Serif" font-size="11.00" fill="#000000">client_id</text>
<polygon fill="none" stroke="#000000" points="28.5,-56.7 28.5,-75.7 151.5,-75.7 151.5,-56.7 28.5,-56.7"/>
<text text-anchor="start" x="31.5" y="-62.8" font-family="Helvetica,sans-Serif" font-size="11.00" fill="#000000">...</text>
<polygon fill="#ffffff" stroke="transparent" points="28.5,-37.7 28.5,-56.7 64.5,-56.7 64.5,-37.7 28.5,-37.7"/>
<polygon fill="none" stroke="#000000" points="28.5,-37.7 28.5,-56.7 64.5,-56.7 64.5,-37.7 28.5,-37.7"/>
<text text-anchor="start" x="31.5" y="-43.8" font-family="Helvetica,sans-Serif" font-size="11.00" fill="#000000">&lt; 1</text>
<polygon fill="#ffffff" stroke="transparent" points="64.5,-37.7 64.5,-56.7 122.5,-56.7 122.5,-37.7 64.5,-37.7"/>
<polygon fill="none" stroke="#000000" points="64.5,-37.7 64.5,-56.7 122.5,-56.7 122.5,-37.7 64.5,-37.7"/>
<text text-anchor="start" x="74.8807" y="-43.8" font-family="Helvetica,sans-Serif" font-size="11.00" fill="#000000">100 rows</text>
<polygon fill="#ffffff" stroke="transparent" points="122.5,-37.7 122.5,-56.7 151.5,-56.7 151.5,-37.7 122.5,-37.7"/>
<polygon fill="none" stroke="#000000" points="122.5,-37.7 122.5,-56.7 151.5,-56.7 151.5,-37.7 122.5,-37.7"/>
<text text-anchor="start" x="132.9053" y="-43.8" font-family="Helvetica,sans-Serif" font-size="11.00" fill="#000000">3 &gt;</text>
</a>
</g>
</g>
<!-- invoice_settings&#45;&gt;client_address -->
<g id="edge2" class="edge">
<title>invoice_settings:w&#45;&gt;client_address:e</title>
<path fill="none" stroke="#000000" d="M207.5624,-129.0464C186.757,-123.9301 178.8102,-108.7 151.5,-108.7"/>
<polygon fill="#000000" stroke="#000000" points="214.052,-129.7896 221.5903,-134.2766 218.026,-130.2448 222,-130.7 222,-130.7 222,-130.7 218.026,-130.2448 222.4097,-127.1234 214.052,-129.7896 214.052,-129.7896"/>
<ellipse fill="none" stroke="#000000" cx="210.8727" cy="-129.4255" rx="3.2" ry="3.2"/>
</g>
<!-- invoice_settings&#45;&gt;client_address -->
<g id="edge4" class="edge">
<title>invoice_settings:w&#45;&gt;client_address:e</title>
<path fill="none" stroke="#000000" d="M207.3997,-108.7C187.1866,-108.7 177.3255,-108.7 151.5,-108.7"/>
<polygon fill="#000000" stroke="#000000" points="214,-108.7001 222,-112.3 218,-108.7 222,-108.7 222,-108.7 222,-108.7 218,-108.7 222,-105.1 214,-108.7001 214,-108.7001"/>
<ellipse fill="none" stroke="#000000" cx="210.8" cy="-108.7001" rx="3.2" ry="3.2"/>
</g>
<!-- client_unit -->
<g id="node4" class="node">
<title>client_unit</title>
<g id="a_node4"><a xlink:href="../../tables/client_unit.html" xlink:title="client_unit" target="_top">
<polygon fill="#ffffff" stroke="transparent" points="8,-164.2 8,-335.2 171,-335.2 171,-164.2 8,-164.2"/>
<polygon fill="#f5f5f5" stroke="transparent" points="8.5,-311.7 8.5,-334.7 171.5,-334.7 171.5,-311.7 8.5,-311.7"/>
<polygon fill="none" stroke="#000000" points="8.5,-311.7 8.5,-334.7 171.5,-334.7 171.5,-311.7 8.5,-311.7"/>
<text text-anchor="start" x="13.5" y="-320.8" font-family="Helvetica,sans-Serif" font-weight="bold" font-size="11.00" fill="#000000">client_unit</text>
<text text-anchor="start" x="136.5437" y="-319.8" font-family="Helvetica,sans-Serif" font-size="11.00" fill="#000000">[table]</text>
<polygon fill="none" stroke="#000000" points="8.5,-289.7 8.5,-311.7 171.5,-311.7 171.5,-289.7 8.5,-289.7"/>
<image xlink:href="../../images/primaryKeys.png" width="11px" height="12px" preserveAspectRatio="xMinYMin meet" x="13.5" y="-306.7"/>
<text text-anchor="start" x="28.5" y="-296.8" font-family="Helvetica,sans-Serif" font-size="11.00" fill="#000000">id</text>
<polygon fill="#ffffff" stroke="transparent" points="8.5,-267.7 8.5,-289.7 171.5,-289.7 171.5,-267.7 8.5,-267.7"/>
<polygon fill="none" stroke="#000000" points="8.5,-267.7 8.5,-289.7 171.5,-289.7 171.5,-267.7 8.5,-267.7"/>
<text text-anchor="start" x="28.5" y="-274.8" font-family="Helvetica,sans-Serif" font-size="11.00" fill="#000000">name</text>
<polygon fill="#ffffff" stroke="transparent" points="8.5,-245.7 8.5,-267.7 171.5,-267.7 171.5,-245.7 8.5,-245.7"/>
<polygon fill="none" stroke="#000000" points="8.5,-245.7 8.5,-267.7 171.5,-267.7 171.5,-245.7 8.5,-245.7"/>
<text text-anchor="start" x="28.5" y="-252.8" font-family="Helvetica,sans-Serif" font-size="11.00" fill="#000000">vat_number</text>
<polygon fill="#ffffff" stroke="transparent" points="8.5,-223.7 8.5,-245.7 171.5,-245.7 171.5,-223.7 8.5,-223.7"/>
<polygon fill="none" stroke="#000000" points="8.5,-223.7 8.5,-245.7 171.5,-245.7 171.5,-223.7 8.5,-223.7"/>
<image xlink:href="../../images/foreignKeys.png" width="11px" height="12px" preserveAspectRatio="xMinYMin meet" x="13.5" y="-240.7"/>
<text text-anchor="start" x="28.5" y="-230.8" font-family="Helvetica,sans-Serif" font-size="11.00" fill="#000000">client_id</text>
<polygon fill="#ffffff" stroke="transparent" points="8.5,-201.7 8.5,-223.7 171.5,-223.7 171.5,-201.7 8.5,-201.7"/>
<polygon fill="none" stroke="#000000" points="8.5,-201.7 8.5,-223.7 171.5,-223.7 171.5,-201.7 8.5,-201.7"/>
<image xlink:href="../../images/foreignKeys.png" width="11px" height="12px" preserveAspectRatio="xMinYMin meet" x="13.5" y="-218.7"/>
<text text-anchor="start" x="28.5" y="-208.8" font-family="Helvetica,sans-Serif" font-size="11.00" fill="#000000">time_report_schedule_id</text>
<polygon fill="none" stroke="#000000" points="8.5,-182.7 8.5,-201.7 171.5,-201.7 171.5,-182.7 8.5,-182.7"/>
<text text-anchor="start" x="11.5" y="-188.8" font-family="Helvetica,sans-Serif" font-size="11.00" fill="#000000">...</text>
<polygon fill="#ffffff" stroke="transparent" points="8.5,-163.7 8.5,-182.7 64.5,-182.7 64.5,-163.7 8.5,-163.7"/>
<polygon fill="none" stroke="#000000" points="8.5,-163.7 8.5,-182.7 64.5,-182.7 64.5,-163.7 8.5,-163.7"/>
<text text-anchor="start" x="11.5" y="-169.8" font-family="Helvetica,sans-Serif" font-size="11.00" fill="#000000">&lt; 2</text>
<polygon fill="#ffffff" stroke="transparent" points="64.5,-163.7 64.5,-182.7 132.5,-182.7 132.5,-163.7 64.5,-163.7"/>
<polygon fill="none" stroke="#000000" points="64.5,-163.7 64.5,-182.7 132.5,-182.7 132.5,-163.7 64.5,-163.7"/>
<text text-anchor="start" x="84.8807" y="-169.8" font-family="Helvetica,sans-Serif" font-size="11.00" fill="#000000">117 rows</text>
<polygon fill="#ffffff" stroke="transparent" points="132.5,-163.7 132.5,-182.7 171.5,-182.7 171.5,-163.7 132.5,-163.7"/>
<polygon fill="none" stroke="#000000" points="132.5,-163.7 132.5,-182.7 171.5,-182.7 171.5,-163.7 132.5,-163.7"/>
<text text-anchor="start" x="152.9053" y="-169.8" font-family="Helvetica,sans-Serif" font-size="11.00" fill="#000000">4 &gt;</text>
</a>
</g>
</g>
<!-- invoice_settings&#45;&gt;client_unit -->
<g id="edge5" class="edge">
<title>invoice_settings:w&#45;&gt;client_unit:e</title>
<path fill="none" stroke="#000000" d="M207.6451,-155.6564C166.2497,-176.5155 235.1645,-300.7 171.5,-300.7"/>
<polygon fill="#000000" stroke="#000000" points="214.1644,-154.3138 222.7262,-156.226 218.0822,-153.5069 222,-152.7 222,-152.7 222,-152.7 218.0822,-153.5069 221.2738,-149.174 214.1644,-154.3138 214.1644,-154.3138"/>
<ellipse fill="none" stroke="#000000" cx="211.0302" cy="-154.9593" rx="3.2" ry="3.2"/>
</g>
</g>
</svg>
