<?xml version="1.0" encoding="UTF-8" standalone="no"?>
<!DOCTYPE svg PUBLIC "-//W3C//DTD SVG 1.1//EN"
 "http://www.w3.org/Graphics/SVG/1.1/DTD/svg11.dtd">
<!-- Generated by graphviz version 2.40.1 (20161225.0304)
 -->
<!-- Title: oneDegreeRelationshipsDiagram Pages: 1 -->
<svg width="452pt" height="523pt"
 viewBox="0.00 0.00 452.00 523.20" xmlns="http://www.w3.org/2000/svg" xmlns:xlink="http://www.w3.org/1999/xlink">
<g id="graph0" class="graph" transform="scale(1 1) rotate(0) translate(4 519.2)">
<title>oneDegreeRelationshipsDiagram</title>
<polygon fill="#ffffff" stroke="transparent" points="-4,4 -4,-519.2 448,-519.2 448,4 -4,4"/>
<text text-anchor="middle" x="72.4936" y="-7.3" font-family="Helvetica,sans-Serif" font-size="11.00" fill="#000000">Generated by SchemaSpy</text>
<!-- job_request_attachment -->
<g id="node1" class="node">
<title>job_request_attachment</title>
<g id="a_node1"><a xlink:href="../../tables/job_request_attachment.html" xlink:title="job_request_attachment" target="_top">
<polygon fill="#ffffff" stroke="transparent" points="223,-260.7 223,-350.7 436,-350.7 436,-260.7 223,-260.7"/>
<polygon fill="#f5f5f5" stroke="transparent" points="225.5,-325.7 225.5,-348.7 434.5,-348.7 434.5,-325.7 225.5,-325.7"/>
<polygon fill="none" stroke="#000000" points="225.5,-325.7 225.5,-348.7 434.5,-348.7 434.5,-325.7 225.5,-325.7"/>
<text text-anchor="start" x="230.5" y="-334.8" font-family="Helvetica,sans-Serif" font-weight="bold" font-size="11.00" fill="#000000">job_request_attachment</text>
<text text-anchor="start" x="399.5437" y="-333.8" font-family="Helvetica,sans-Serif" font-size="11.00" fill="#000000">[table]</text>
<polygon fill="none" stroke="#000000" points="225.5,-303.7 225.5,-325.7 384.5,-325.7 384.5,-303.7 225.5,-303.7"/>
<image xlink:href="../../images/primaryKeys.png" width="11px" height="12px" preserveAspectRatio="xMinYMin meet" x="230.5" y="-320.7"/>
<text text-anchor="start" x="245.5" y="-310.8" font-family="Helvetica,sans-Serif" font-size="11.00" fill="#000000">job_request_id</text>
<polygon fill="none" stroke="#000000" points="384.5,-303.7 384.5,-325.7 434.5,-325.7 434.5,-303.7 384.5,-303.7"/>
<text text-anchor="start" x="387.1865" y="-311.4" font-family="Helvetica,sans-Serif" font-size="11.00" fill="#000000">bigint[19]</text>
<polygon fill="none" stroke="#000000" points="225.5,-281.7 225.5,-303.7 384.5,-303.7 384.5,-281.7 225.5,-281.7"/>
<image xlink:href="../../images/primaryKeys.png" width="11px" height="12px" preserveAspectRatio="xMinYMin meet" x="230.5" y="-298.7"/>
<text text-anchor="start" x="245.5" y="-288.8" font-family="Helvetica,sans-Serif" font-size="11.00" fill="#000000">file_id</text>
<polygon fill="none" stroke="#000000" points="384.5,-281.7 384.5,-303.7 434.5,-303.7 434.5,-281.7 384.5,-281.7"/>
<text text-anchor="start" x="387.1865" y="-289.4" font-family="Helvetica,sans-Serif" font-size="11.00" fill="#000000">bigint[19]</text>
<polygon fill="#ffffff" stroke="transparent" points="225.5,-262.7 225.5,-281.7 296.5,-281.7 296.5,-262.7 225.5,-262.7"/>
<polygon fill="none" stroke="#000000" points="225.5,-262.7 225.5,-281.7 296.5,-281.7 296.5,-262.7 225.5,-262.7"/>
<text text-anchor="start" x="228.5" y="-268.8" font-family="Helvetica,sans-Serif" font-size="11.00" fill="#000000">&lt; 2</text>
<polygon fill="#ffffff" stroke="transparent" points="296.5,-262.7 296.5,-281.7 384.5,-281.7 384.5,-262.7 296.5,-262.7"/>
<polygon fill="none" stroke="#000000" points="296.5,-262.7 296.5,-281.7 384.5,-281.7 384.5,-262.7 296.5,-262.7"/>
<text text-anchor="start" x="349.1105" y="-268.8" font-family="Helvetica,sans-Serif" font-size="11.00" fill="#000000">4 rows</text>
<polygon fill="#ffffff" stroke="transparent" points="384.5,-262.7 384.5,-281.7 434.5,-281.7 434.5,-262.7 384.5,-262.7"/>
<polygon fill="none" stroke="#000000" points="384.5,-262.7 384.5,-281.7 434.5,-281.7 434.5,-262.7 384.5,-262.7"/>
<text text-anchor="start" x="415.9053" y="-268.8" font-family="Helvetica,sans-Serif" font-size="11.00" fill="#000000">0 &gt;</text>
<polygon fill="none" stroke="#000000" stroke-width="2" points="224,-261.7 224,-349.7 435,-349.7 435,-261.7 224,-261.7"/>
</a>
</g>
</g>
<!-- file -->
<g id="node2" class="node">
<title>file</title>
<g id="a_node2"><a xlink:href="../../tables/file.html" xlink:title="file" target="_top">
<polygon fill="#ffffff" stroke="transparent" points="29.5,-38.2 29.5,-165.2 152.5,-165.2 152.5,-38.2 29.5,-38.2"/>
<polygon fill="#f5f5f5" stroke="transparent" points="30,-141.7 30,-164.7 153,-164.7 153,-141.7 30,-141.7"/>
<polygon fill="none" stroke="#000000" points="30,-141.7 30,-164.7 153,-164.7 153,-141.7 30,-141.7"/>
<text text-anchor="start" x="35" y="-150.8" font-family="Helvetica,sans-Serif" font-weight="bold" font-size="11.00" fill="#000000">file</text>
<text text-anchor="start" x="118.0437" y="-149.8" font-family="Helvetica,sans-Serif" font-size="11.00" fill="#000000">[table]</text>
<polygon fill="none" stroke="#000000" points="30,-119.7 30,-141.7 153,-141.7 153,-119.7 30,-119.7"/>
<image xlink:href="../../images/primaryKeys.png" width="11px" height="12px" preserveAspectRatio="xMinYMin meet" x="35" y="-136.7"/>
<text text-anchor="start" x="50" y="-126.8" font-family="Helvetica,sans-Serif" font-size="11.00" fill="#000000">id</text>
<polygon fill="#ffffff" stroke="transparent" points="30,-97.7 30,-119.7 153,-119.7 153,-97.7 30,-97.7"/>
<polygon fill="none" stroke="#000000" points="30,-97.7 30,-119.7 153,-119.7 153,-97.7 30,-97.7"/>
<image xlink:href="../../images/foreignKeys.png" width="11px" height="12px" preserveAspectRatio="xMinYMin meet" x="35" y="-114.7"/>
<text text-anchor="start" x="50" y="-104.8" font-family="Helvetica,sans-Serif" font-size="11.00" fill="#000000">created_by</text>
<polygon fill="#ffffff" stroke="transparent" points="30,-75.7 30,-97.7 153,-97.7 153,-75.7 30,-75.7"/>
<polygon fill="none" stroke="#000000" points="30,-75.7 30,-97.7 153,-97.7 153,-75.7 30,-75.7"/>
<image xlink:href="../../images/foreignKeys.png" width="11px" height="12px" preserveAspectRatio="xMinYMin meet" x="35" y="-92.7"/>
<text text-anchor="start" x="50" y="-82.8" font-family="Helvetica,sans-Serif" font-size="11.00" fill="#000000">modified_by</text>
<polygon fill="none" stroke="#000000" points="30,-56.7 30,-75.7 153,-75.7 153,-56.7 30,-56.7"/>
<text text-anchor="start" x="33" y="-62.8" font-family="Helvetica,sans-Serif" font-size="11.00" fill="#000000">...</text>
<polygon fill="#ffffff" stroke="transparent" points="30,-37.7 30,-56.7 63,-56.7 63,-37.7 30,-37.7"/>
<polygon fill="none" stroke="#000000" points="30,-37.7 30,-56.7 63,-56.7 63,-37.7 30,-37.7"/>
<text text-anchor="start" x="33" y="-43.8" font-family="Helvetica,sans-Serif" font-size="11.00" fill="#000000">&lt; 2</text>
<polygon fill="#ffffff" stroke="transparent" points="63,-37.7 63,-56.7 119,-56.7 119,-37.7 63,-37.7"/>
<polygon fill="none" stroke="#000000" points="63,-37.7 63,-56.7 119,-56.7 119,-37.7 63,-37.7"/>
<text text-anchor="start" x="71.3807" y="-43.8" font-family="Helvetica,sans-Serif" font-size="11.00" fill="#000000">590 rows</text>
<polygon fill="#ffffff" stroke="transparent" points="119,-37.7 119,-56.7 153,-56.7 153,-37.7 119,-37.7"/>
<polygon fill="none" stroke="#000000" points="119,-37.7 119,-56.7 153,-56.7 153,-37.7 119,-37.7"/>
<text text-anchor="start" x="128.2904" y="-43.8" font-family="Helvetica,sans-Serif" font-size="11.00" fill="#000000">13 &gt;</text>
</a>
</g>
</g>
<!-- job_request_attachment&#45;&gt;file -->
<g id="edge1" class="edge">
<title>job_request_attachment:w&#45;&gt;file:e</title>
<path fill="none" stroke="#000000" d="M211.1814,-290.4099C157.7972,-270.7197 226.335,-130.7 153,-130.7"/>
<polygon fill="#000000" stroke="#000000" points="217.6004,-291.4365 224.9314,-296.2548 221.5502,-292.0683 225.5,-292.7 225.5,-292.7 225.5,-292.7 221.5502,-292.0683 226.0686,-289.1452 217.6004,-291.4365 217.6004,-291.4365"/>
<ellipse fill="none" stroke="#000000" cx="214.4406" cy="-290.9311" rx="3.2" ry="3.2"/>
</g>
<!-- job_request -->
<g id="node3" class="node">
<title>job_request</title>
<g id="a_node3"><a xlink:href="../../tables/job_request.html" xlink:title="job_request" target="_top">
<polygon fill="#ffffff" stroke="transparent" points="8,-186.2 8,-511.2 174,-511.2 174,-186.2 8,-186.2"/>
<polygon fill="#f5f5f5" stroke="transparent" points="8,-487.7 8,-510.7 174,-510.7 174,-487.7 8,-487.7"/>
<polygon fill="none" stroke="#000000" points="8,-487.7 8,-510.7 174,-510.7 174,-487.7 8,-487.7"/>
<text text-anchor="start" x="13" y="-496.8" font-family="Helvetica,sans-Serif" font-weight="bold" font-size="11.00" fill="#000000">job_request</text>
<text text-anchor="start" x="139.0437" y="-495.8" font-family="Helvetica,sans-Serif" font-size="11.00" fill="#000000">[table]</text>
<polygon fill="none" stroke="#000000" points="8,-465.7 8,-487.7 174,-487.7 174,-465.7 8,-465.7"/>
<image xlink:href="../../images/primaryKeys.png" width="11px" height="12px" preserveAspectRatio="xMinYMin meet" x="13" y="-482.7"/>
<text text-anchor="start" x="28" y="-472.8" font-family="Helvetica,sans-Serif" font-size="11.00" fill="#000000">id</text>
<polygon fill="#ffffff" stroke="transparent" points="8,-443.7 8,-465.7 174,-465.7 174,-443.7 8,-443.7"/>
<polygon fill="none" stroke="#000000" points="8,-443.7 8,-465.7 174,-465.7 174,-443.7 8,-443.7"/>
<image xlink:href="../../images/foreignKeys.png" width="11px" height="12px" preserveAspectRatio="xMinYMin meet" x="13" y="-460.7"/>
<text text-anchor="start" x="28" y="-450.8" font-family="Helvetica,sans-Serif" font-size="11.00" fill="#000000">created_by</text>
<polygon fill="#ffffff" stroke="transparent" points="8,-421.7 8,-443.7 174,-443.7 174,-421.7 8,-421.7"/>
<polygon fill="none" stroke="#000000" points="8,-421.7 8,-443.7 174,-443.7 174,-421.7 8,-421.7"/>
<image xlink:href="../../images/foreignKeys.png" width="11px" height="12px" preserveAspectRatio="xMinYMin meet" x="13" y="-438.7"/>
<text text-anchor="start" x="28" y="-428.8" font-family="Helvetica,sans-Serif" font-size="11.00" fill="#000000">modified_by</text>
<polygon fill="#ffffff" stroke="transparent" points="8,-399.7 8,-421.7 174,-421.7 174,-399.7 8,-399.7"/>
<polygon fill="none" stroke="#000000" points="8,-399.7 8,-421.7 174,-421.7 174,-399.7 8,-399.7"/>
<image xlink:href="../../images/foreignKeys.png" width="11px" height="12px" preserveAspectRatio="xMinYMin meet" x="13" y="-416.7"/>
<text text-anchor="start" x="28" y="-406.8" font-family="Helvetica,sans-Serif" font-size="11.00" fill="#000000">location_id</text>
<polygon fill="#ffffff" stroke="transparent" points="8,-377.7 8,-399.7 174,-399.7 174,-377.7 8,-377.7"/>
<polygon fill="none" stroke="#000000" points="8,-377.7 8,-399.7 174,-399.7 174,-377.7 8,-377.7"/>
<image xlink:href="../../images/foreignKeys.png" width="11px" height="12px" preserveAspectRatio="xMinYMin meet" x="13" y="-394.7"/>
<text text-anchor="start" x="28" y="-384.8" font-family="Helvetica,sans-Serif" font-size="11.00" fill="#000000">rate_card_id</text>
<polygon fill="#ffffff" stroke="transparent" points="8,-355.7 8,-377.7 174,-377.7 174,-355.7 8,-355.7"/>
<polygon fill="none" stroke="#000000" points="8,-355.7 8,-377.7 174,-377.7 174,-355.7 8,-355.7"/>
<image xlink:href="../../images/foreignKeys.png" width="11px" height="12px" preserveAspectRatio="xMinYMin meet" x="13" y="-372.7"/>
<text text-anchor="start" x="28" y="-362.8" font-family="Helvetica,sans-Serif" font-size="11.00" fill="#000000">source_job_request_id</text>
<polygon fill="#ffffff" stroke="transparent" points="8,-333.7 8,-355.7 174,-355.7 174,-333.7 8,-333.7"/>
<polygon fill="none" stroke="#000000" points="8,-333.7 8,-355.7 174,-355.7 174,-333.7 8,-333.7"/>
<image xlink:href="../../images/foreignKeys.png" width="11px" height="12px" preserveAspectRatio="xMinYMin meet" x="13" y="-350.7"/>
<text text-anchor="start" x="28" y="-340.8" font-family="Helvetica,sans-Serif" font-size="11.00" fill="#000000">eworker_id</text>
<polygon fill="#ffffff" stroke="transparent" points="8,-311.7 8,-333.7 174,-333.7 174,-311.7 8,-311.7"/>
<polygon fill="none" stroke="#000000" points="8,-311.7 8,-333.7 174,-333.7 174,-311.7 8,-311.7"/>
<image xlink:href="../../images/foreignKeys.png" width="11px" height="12px" preserveAspectRatio="xMinYMin meet" x="13" y="-328.7"/>
<text text-anchor="start" x="28" y="-318.8" font-family="Helvetica,sans-Serif" font-size="11.00" fill="#000000">unit_id</text>
<polygon fill="#ffffff" stroke="transparent" points="8,-289.7 8,-311.7 174,-311.7 174,-289.7 8,-289.7"/>
<polygon fill="none" stroke="#000000" points="8,-289.7 8,-311.7 174,-311.7 174,-289.7 8,-289.7"/>
<image xlink:href="../../images/foreignKeys.png" width="11px" height="12px" preserveAspectRatio="xMinYMin meet" x="13" y="-306.7"/>
<text text-anchor="start" x="28" y="-296.8" font-family="Helvetica,sans-Serif" font-size="11.00" fill="#000000">closed_eworker_id</text>
<polygon fill="#ffffff" stroke="transparent" points="8,-267.7 8,-289.7 174,-289.7 174,-267.7 8,-267.7"/>
<polygon fill="none" stroke="#000000" points="8,-267.7 8,-289.7 174,-289.7 174,-267.7 8,-267.7"/>
<image xlink:href="../../images/foreignKeys.png" width="11px" height="12px" preserveAspectRatio="xMinYMin meet" x="13" y="-284.7"/>
<text text-anchor="start" x="28" y="-274.8" font-family="Helvetica,sans-Serif" font-size="11.00" fill="#000000">client_contact_id</text>
<polygon fill="#ffffff" stroke="transparent" points="8,-245.7 8,-267.7 174,-267.7 174,-245.7 8,-245.7"/>
<polygon fill="none" stroke="#000000" points="8,-245.7 8,-267.7 174,-267.7 174,-245.7 8,-245.7"/>
<image xlink:href="../../images/foreignKeys.png" width="11px" height="12px" preserveAspectRatio="xMinYMin meet" x="13" y="-262.7"/>
<text text-anchor="start" x="28" y="-252.8" font-family="Helvetica,sans-Serif" font-size="11.00" fill="#000000">client_id</text>
<polygon fill="#ffffff" stroke="transparent" points="8,-223.7 8,-245.7 174,-245.7 174,-223.7 8,-223.7"/>
<polygon fill="none" stroke="#000000" points="8,-223.7 8,-245.7 174,-245.7 174,-223.7 8,-223.7"/>
<image xlink:href="../../images/foreignKeys.png" width="11px" height="12px" preserveAspectRatio="xMinYMin meet" x="13" y="-240.7"/>
<text text-anchor="start" x="28" y="-230.8" font-family="Helvetica,sans-Serif" font-size="11.00" fill="#000000">role_id</text>
<polygon fill="none" stroke="#000000" points="8,-204.7 8,-223.7 174,-223.7 174,-204.7 8,-204.7"/>
<text text-anchor="start" x="11" y="-210.8" font-family="Helvetica,sans-Serif" font-size="11.00" fill="#000000">...</text>
<polygon fill="#ffffff" stroke="transparent" points="8,-185.7 8,-204.7 69,-204.7 69,-185.7 8,-185.7"/>
<polygon fill="none" stroke="#000000" points="8,-185.7 8,-204.7 69,-204.7 69,-185.7 8,-185.7"/>
<text text-anchor="start" x="11" y="-191.8" font-family="Helvetica,sans-Serif" font-size="11.00" fill="#000000">&lt; 11</text>
<polygon fill="#ffffff" stroke="transparent" points="69,-185.7 69,-204.7 136,-204.7 136,-185.7 69,-185.7"/>
<polygon fill="none" stroke="#000000" points="69,-185.7 69,-204.7 136,-204.7 136,-185.7 69,-185.7"/>
<text text-anchor="start" x="88.3807" y="-191.8" font-family="Helvetica,sans-Serif" font-size="11.00" fill="#000000">254 rows</text>
<polygon fill="#ffffff" stroke="transparent" points="136,-185.7 136,-204.7 174,-204.7 174,-185.7 136,-185.7"/>
<polygon fill="none" stroke="#000000" points="136,-185.7 136,-204.7 174,-204.7 174,-185.7 136,-185.7"/>
<text text-anchor="start" x="155.4053" y="-191.8" font-family="Helvetica,sans-Serif" font-size="11.00" fill="#000000">7 &gt;</text>
</a>
</g>
</g>
<!-- job_request_attachment&#45;&gt;job_request -->
<g id="edge2" class="edge">
<title>job_request_attachment:w&#45;&gt;job_request:e</title>
<path fill="none" stroke="#000000" d="M211.1295,-317.3767C164.1067,-338.4397 243.7958,-476.7 174,-476.7"/>
<polygon fill="#000000" stroke="#000000" points="217.6353,-316.1649 226.1592,-318.2391 221.5676,-315.4325 225.5,-314.7 225.5,-314.7 225.5,-314.7 221.5676,-315.4325 224.8408,-311.1609 217.6353,-316.1649 217.6353,-316.1649"/>
<ellipse fill="none" stroke="#000000" cx="214.4894" cy="-316.7509" rx="3.2" ry="3.2"/>
</g>
</g>
</svg>
