<?xml version="1.0" encoding="UTF-8" standalone="no"?>
<!DOCTYPE svg PUBLIC "-//W3C//DTD SVG 1.1//EN"
 "http://www.w3.org/Graphics/SVG/1.1/DTD/svg11.dtd">
<!-- Generated by graphviz version 2.40.1 (20161225.0304)
 -->
<!-- Title: oneDegreeRelationshipsDiagram Pages: 1 -->
<svg width="574pt" height="535pt"
 viewBox="0.00 0.00 574.00 534.70" xmlns="http://www.w3.org/2000/svg" xmlns:xlink="http://www.w3.org/1999/xlink">
<g id="graph0" class="graph" transform="scale(1 1) rotate(0) translate(4 530.7)">
<title>oneDegreeRelationshipsDiagram</title>
<polygon fill="#ffffff" stroke="transparent" points="-4,4 -4,-530.7 570,-530.7 570,4 -4,4"/>
<text text-anchor="middle" x="72.4936" y="-7.3" font-family="Helvetica,sans-Serif" font-size="11.00" fill="#000000">Generated by SchemaSpy</text>
<!-- job_ad -->
<g id="node1" class="node">
<title>job_ad</title>
<g id="a_node1"><a xlink:href="../../tables/job_ad.html" xlink:title="job_ad" target="_top">
<polygon fill="#ffffff" stroke="transparent" points="149,-208.2 149,-401.2 315,-401.2 315,-208.2 149,-208.2"/>
<polygon fill="#f5f5f5" stroke="transparent" points="149,-377.7 149,-400.7 315,-400.7 315,-377.7 149,-377.7"/>
<polygon fill="none" stroke="#000000" points="149,-377.7 149,-400.7 315,-400.7 315,-377.7 149,-377.7"/>
<text text-anchor="start" x="154" y="-386.8" font-family="Helvetica,sans-Serif" font-weight="bold" font-size="11.00" fill="#000000">job_ad</text>
<text text-anchor="start" x="280.0437" y="-385.8" font-family="Helvetica,sans-Serif" font-size="11.00" fill="#000000">[table]</text>
<polygon fill="none" stroke="#000000" points="149,-355.7 149,-377.7 315,-377.7 315,-355.7 149,-355.7"/>
<image xlink:href="../../images/primaryKeys.png" width="11px" height="12px" preserveAspectRatio="xMinYMin meet" x="154" y="-372.7"/>
<text text-anchor="start" x="169" y="-362.8" font-family="Helvetica,sans-Serif" font-size="11.00" fill="#000000">id</text>
<polygon fill="#ffffff" stroke="transparent" points="149,-333.7 149,-355.7 315,-355.7 315,-333.7 149,-333.7"/>
<polygon fill="none" stroke="#000000" points="149,-333.7 149,-355.7 315,-355.7 315,-333.7 149,-333.7"/>
<image xlink:href="../../images/foreignKeys.png" width="11px" height="12px" preserveAspectRatio="xMinYMin meet" x="154" y="-350.7"/>
<text text-anchor="start" x="169" y="-340.8" font-family="Helvetica,sans-Serif" font-size="11.00" fill="#000000">created_by</text>
<polygon fill="#ffffff" stroke="transparent" points="149,-311.7 149,-333.7 315,-333.7 315,-311.7 149,-311.7"/>
<polygon fill="none" stroke="#000000" points="149,-311.7 149,-333.7 315,-333.7 315,-311.7 149,-311.7"/>
<image xlink:href="../../images/foreignKeys.png" width="11px" height="12px" preserveAspectRatio="xMinYMin meet" x="154" y="-328.7"/>
<text text-anchor="start" x="169" y="-318.8" font-family="Helvetica,sans-Serif" font-size="11.00" fill="#000000">modified_by</text>
<polygon fill="#ffffff" stroke="transparent" points="149,-289.7 149,-311.7 315,-311.7 315,-289.7 149,-289.7"/>
<polygon fill="none" stroke="#000000" points="149,-289.7 149,-311.7 315,-311.7 315,-289.7 149,-289.7"/>
<text text-anchor="start" x="169" y="-296.8" font-family="Helvetica,sans-Serif" font-size="11.00" fill="#000000">marketplace_id</text>
<polygon fill="#ffffff" stroke="transparent" points="149,-267.7 149,-289.7 315,-289.7 315,-267.7 149,-267.7"/>
<polygon fill="none" stroke="#000000" points="149,-267.7 149,-289.7 315,-289.7 315,-267.7 149,-267.7"/>
<image xlink:href="../../images/foreignKeys.png" width="11px" height="12px" preserveAspectRatio="xMinYMin meet" x="154" y="-284.7"/>
<text text-anchor="start" x="169" y="-274.8" font-family="Helvetica,sans-Serif" font-size="11.00" fill="#000000">job_request_id</text>
<polygon fill="#ffffff" stroke="transparent" points="149,-245.7 149,-267.7 315,-267.7 315,-245.7 149,-245.7"/>
<polygon fill="none" stroke="#000000" points="149,-245.7 149,-267.7 315,-267.7 315,-245.7 149,-245.7"/>
<image xlink:href="../../images/foreignKeys.png" width="11px" height="12px" preserveAspectRatio="xMinYMin meet" x="154" y="-262.7"/>
<text text-anchor="start" x="169" y="-252.8" font-family="Helvetica,sans-Serif" font-size="11.00" fill="#000000">location_id</text>
<polygon fill="none" stroke="#000000" points="149,-226.7 149,-245.7 315,-245.7 315,-226.7 149,-226.7"/>
<text text-anchor="start" x="152" y="-232.8" font-family="Helvetica,sans-Serif" font-size="11.00" fill="#000000">...</text>
<polygon fill="#ffffff" stroke="transparent" points="149,-207.7 149,-226.7 210,-226.7 210,-207.7 149,-207.7"/>
<polygon fill="none" stroke="#000000" points="149,-207.7 149,-226.7 210,-226.7 210,-207.7 149,-207.7"/>
<text text-anchor="start" x="152" y="-213.8" font-family="Helvetica,sans-Serif" font-size="11.00" fill="#000000">&lt; 4</text>
<polygon fill="#ffffff" stroke="transparent" points="210,-207.7 210,-226.7 274,-226.7 274,-207.7 210,-207.7"/>
<polygon fill="none" stroke="#000000" points="210,-207.7 210,-226.7 274,-226.7 274,-207.7 210,-207.7"/>
<text text-anchor="start" x="232.4956" y="-213.8" font-family="Helvetica,sans-Serif" font-size="11.00" fill="#000000">34 rows</text>
<polygon fill="#ffffff" stroke="transparent" points="274,-207.7 274,-226.7 315,-226.7 315,-207.7 274,-207.7"/>
<polygon fill="none" stroke="#000000" points="274,-207.7 274,-226.7 315,-226.7 315,-207.7 274,-207.7"/>
<text text-anchor="start" x="296.4053" y="-213.8" font-family="Helvetica,sans-Serif" font-size="11.00" fill="#000000">2 &gt;</text>
</a>
</g>
</g>
<!-- principal -->
<g id="node2" class="node">
<title>principal</title>
<g id="a_node2"><a xlink:href="../../tables/principal.html" xlink:title="principal" target="_top">
<polygon fill="#ffffff" stroke="transparent" points="8,-263.2 8,-368.2 100,-368.2 100,-263.2 8,-263.2"/>
<polygon fill="#f5f5f5" stroke="transparent" points="8,-344.7 8,-367.7 100,-367.7 100,-344.7 8,-344.7"/>
<polygon fill="none" stroke="#000000" points="8,-344.7 8,-367.7 100,-367.7 100,-344.7 8,-344.7"/>
<text text-anchor="start" x="13" y="-353.8" font-family="Helvetica,sans-Serif" font-weight="bold" font-size="11.00" fill="#000000">principal</text>
<text text-anchor="start" x="65.0437" y="-352.8" font-family="Helvetica,sans-Serif" font-size="11.00" fill="#000000">[table]</text>
<polygon fill="none" stroke="#000000" points="8,-322.7 8,-344.7 100,-344.7 100,-322.7 8,-322.7"/>
<image xlink:href="../../images/primaryKeys.png" width="11px" height="12px" preserveAspectRatio="xMinYMin meet" x="13" y="-339.7"/>
<text text-anchor="start" x="32" y="-329.8" font-family="Helvetica,sans-Serif" font-size="11.00" fill="#000000">id</text>
<polygon fill="#ffffff" stroke="transparent" points="8,-300.7 8,-322.7 100,-322.7 100,-300.7 8,-300.7"/>
<polygon fill="none" stroke="#000000" points="8,-300.7 8,-322.7 100,-322.7 100,-300.7 8,-300.7"/>
<image xlink:href="../../images/foreignKeys.png" width="11px" height="12px" preserveAspectRatio="xMinYMin meet" x="13" y="-317.7"/>
<text text-anchor="start" x="32" y="-307.8" font-family="Helvetica,sans-Serif" font-size="11.00" fill="#000000">eworker_id</text>
<polygon fill="none" stroke="#000000" points="8,-281.7 8,-300.7 100,-300.7 100,-281.7 8,-281.7"/>
<text text-anchor="start" x="11" y="-287.8" font-family="Helvetica,sans-Serif" font-size="11.00" fill="#000000">...</text>
<polygon fill="#ffffff" stroke="transparent" points="8,-262.7 8,-281.7 29,-281.7 29,-262.7 8,-262.7"/>
<polygon fill="none" stroke="#000000" points="8,-262.7 8,-281.7 29,-281.7 29,-262.7 8,-262.7"/>
<text text-anchor="start" x="10.7027" y="-268.8" font-family="Helvetica,sans-Serif" font-size="11.00" fill="#000000">&lt; 1</text>
<polygon fill="#ffffff" stroke="transparent" points="29,-262.7 29,-281.7 73,-281.7 73,-262.7 29,-262.7"/>
<polygon fill="none" stroke="#000000" points="29,-262.7 29,-281.7 73,-281.7 73,-262.7 29,-262.7"/>
<text text-anchor="start" x="31.7478" y="-268.8" font-family="Helvetica,sans-Serif" font-size="11.00" fill="#000000">18 rows</text>
<polygon fill="#ffffff" stroke="transparent" points="73,-262.7 73,-281.7 100,-281.7 100,-262.7 73,-262.7"/>
<polygon fill="none" stroke="#000000" points="73,-262.7 73,-281.7 100,-281.7 100,-262.7 73,-262.7"/>
<text text-anchor="start" x="75.6452" y="-268.8" font-family="Helvetica,sans-Serif" font-size="11.00" fill="#000000">56 &gt;</text>
</a>
</g>
</g>
<!-- job_ad&#45;&gt;principal -->
<g id="edge1" class="edge">
<title>job_ad:w&#45;&gt;principal:e</title>
<path fill="none" stroke="#000000" d="M134.7027,-342.8836C123.2382,-339.7593 116.5655,-333.7 100,-333.7"/>
<polygon fill="#000000" stroke="#000000" points="141.0638,-343.6917 148.5463,-348.2713 145.0319,-344.1958 149,-344.7 149,-344.7 149,-344.7 145.0319,-344.1958 149.4537,-341.1287 141.0638,-343.6917 141.0638,-343.6917"/>
<ellipse fill="none" stroke="#000000" cx="137.8893" cy="-343.2884" rx="3.2" ry="3.2"/>
</g>
<!-- job_ad&#45;&gt;principal -->
<g id="edge2" class="edge">
<title>job_ad:w&#45;&gt;principal:e</title>
<path fill="none" stroke="#000000" d="M134.7027,-324.5164C123.2382,-327.6407 116.5655,-333.7 100,-333.7"/>
<polygon fill="#000000" stroke="#000000" points="141.0638,-323.7083 149.4537,-326.2713 145.0319,-323.2042 149,-322.7 149,-322.7 149,-322.7 145.0319,-323.2042 148.5463,-319.1287 141.0638,-323.7083 141.0638,-323.7083"/>
<ellipse fill="none" stroke="#000000" cx="137.8893" cy="-324.1116" rx="3.2" ry="3.2"/>
</g>
<!-- job_ad_skill -->
<g id="node3" class="node">
<title>job_ad_skill</title>
<g id="a_node3"><a xlink:href="../../tables/job_ad_skill.html" xlink:title="job_ad_skill" target="_top">
<polygon fill="#ffffff" stroke="transparent" points="364,-300.7 364,-522.7 558,-522.7 558,-300.7 364,-300.7"/>
<polygon fill="#f5f5f5" stroke="transparent" points="366,-497.7 366,-520.7 556,-520.7 556,-497.7 366,-497.7"/>
<polygon fill="none" stroke="#000000" points="366,-497.7 366,-520.7 556,-520.7 556,-497.7 366,-497.7"/>
<text text-anchor="start" x="371" y="-506.8" font-family="Helvetica,sans-Serif" font-weight="bold" font-size="11.00" fill="#000000">job_ad_skill</text>
<text text-anchor="start" x="521.0437" y="-505.8" font-family="Helvetica,sans-Serif" font-size="11.00" fill="#000000">[table]</text>
<polygon fill="none" stroke="#000000" points="366,-475.7 366,-497.7 489,-497.7 489,-475.7 366,-475.7"/>
<image xlink:href="../../images/primaryKeys.png" width="11px" height="12px" preserveAspectRatio="xMinYMin meet" x="371" y="-492.7"/>
<text text-anchor="start" x="386" y="-482.8" font-family="Helvetica,sans-Serif" font-size="11.00" fill="#000000">id</text>
<polygon fill="none" stroke="#000000" points="489,-475.7 489,-497.7 556,-497.7 556,-475.7 489,-475.7"/>
<text text-anchor="start" x="492" y="-483.4" font-family="Helvetica,sans-Serif" font-size="11.00" fill="#000000">bigint[19]</text>
<polygon fill="#ffffff" stroke="transparent" points="366,-453.7 366,-475.7 489,-475.7 489,-453.7 366,-453.7"/>
<polygon fill="none" stroke="#000000" points="366,-453.7 366,-475.7 489,-475.7 489,-453.7 366,-453.7"/>
<image xlink:href="../../images/foreignKeys.png" width="11px" height="12px" preserveAspectRatio="xMinYMin meet" x="371" y="-470.7"/>
<text text-anchor="start" x="386" y="-460.8" font-family="Helvetica,sans-Serif" font-size="11.00" fill="#000000">created_by</text>
<polygon fill="none" stroke="#000000" points="489,-453.7 489,-475.7 556,-475.7 556,-453.7 489,-453.7"/>
<text text-anchor="start" x="492" y="-461.4" font-family="Helvetica,sans-Serif" font-size="11.00" fill="#000000">bigint[19]</text>
<polygon fill="none" stroke="#000000" points="366,-431.7 366,-453.7 489,-453.7 489,-431.7 366,-431.7"/>
<text text-anchor="start" x="386" y="-438.8" font-family="Helvetica,sans-Serif" font-size="11.00" fill="#000000">creation_date</text>
<polygon fill="none" stroke="#000000" points="489,-431.7 489,-453.7 556,-453.7 556,-431.7 489,-431.7"/>
<text text-anchor="start" x="492" y="-439.4" font-family="Helvetica,sans-Serif" font-size="11.00" fill="#000000">datetime[26]</text>
<polygon fill="#ffffff" stroke="transparent" points="366,-409.7 366,-431.7 489,-431.7 489,-409.7 366,-409.7"/>
<polygon fill="none" stroke="#000000" points="366,-409.7 366,-431.7 489,-431.7 489,-409.7 366,-409.7"/>
<image xlink:href="../../images/foreignKeys.png" width="11px" height="12px" preserveAspectRatio="xMinYMin meet" x="371" y="-426.7"/>
<text text-anchor="start" x="386" y="-416.8" font-family="Helvetica,sans-Serif" font-size="11.00" fill="#000000">modified_by</text>
<polygon fill="none" stroke="#000000" points="489,-409.7 489,-431.7 556,-431.7 556,-409.7 489,-409.7"/>
<text text-anchor="start" x="492" y="-417.4" font-family="Helvetica,sans-Serif" font-size="11.00" fill="#000000">bigint[19]</text>
<polygon fill="none" stroke="#000000" points="366,-387.7 366,-409.7 489,-409.7 489,-387.7 366,-387.7"/>
<text text-anchor="start" x="386" y="-394.8" font-family="Helvetica,sans-Serif" font-size="11.00" fill="#000000">modification_date</text>
<polygon fill="none" stroke="#000000" points="489,-387.7 489,-409.7 556,-409.7 556,-387.7 489,-387.7"/>
<text text-anchor="start" x="492" y="-395.4" font-family="Helvetica,sans-Serif" font-size="11.00" fill="#000000">datetime[26]</text>
<polygon fill="none" stroke="#000000" points="366,-365.7 366,-387.7 489,-387.7 489,-365.7 366,-365.7"/>
<text text-anchor="start" x="386" y="-372.8" font-family="Helvetica,sans-Serif" font-size="11.00" fill="#000000">priority</text>
<polygon fill="none" stroke="#000000" points="489,-365.7 489,-387.7 556,-387.7 556,-365.7 489,-365.7"/>
<text text-anchor="start" x="491.9365" y="-373.4" font-family="Helvetica,sans-Serif" font-size="11.00" fill="#000000">varchar[255]</text>
<polygon fill="#ffffff" stroke="transparent" points="366,-343.7 366,-365.7 489,-365.7 489,-343.7 366,-343.7"/>
<polygon fill="none" stroke="#000000" points="366,-343.7 366,-365.7 489,-365.7 489,-343.7 366,-343.7"/>
<image xlink:href="../../images/foreignKeys.png" width="11px" height="12px" preserveAspectRatio="xMinYMin meet" x="371" y="-360.7"/>
<text text-anchor="start" x="386" y="-350.8" font-family="Helvetica,sans-Serif" font-size="11.00" fill="#000000">job_ad_id</text>
<polygon fill="none" stroke="#000000" points="489,-343.7 489,-365.7 556,-365.7 556,-343.7 489,-343.7"/>
<text text-anchor="start" x="492" y="-351.4" font-family="Helvetica,sans-Serif" font-size="11.00" fill="#000000">bigint[19]</text>
<polygon fill="#ffffff" stroke="transparent" points="366,-321.7 366,-343.7 489,-343.7 489,-321.7 366,-321.7"/>
<polygon fill="none" stroke="#000000" points="366,-321.7 366,-343.7 489,-343.7 489,-321.7 366,-321.7"/>
<image xlink:href="../../images/foreignKeys.png" width="11px" height="12px" preserveAspectRatio="xMinYMin meet" x="371" y="-338.7"/>
<text text-anchor="start" x="386" y="-328.8" font-family="Helvetica,sans-Serif" font-size="11.00" fill="#000000">skill_id</text>
<polygon fill="none" stroke="#000000" points="489,-321.7 489,-343.7 556,-343.7 556,-321.7 489,-321.7"/>
<text text-anchor="start" x="492" y="-329.4" font-family="Helvetica,sans-Serif" font-size="11.00" fill="#000000">bigint[19]</text>
<polygon fill="#ffffff" stroke="transparent" points="366,-302.7 366,-321.7 413,-321.7 413,-302.7 366,-302.7"/>
<polygon fill="none" stroke="#000000" points="366,-302.7 366,-321.7 413,-321.7 413,-302.7 366,-302.7"/>
<text text-anchor="start" x="369" y="-308.8" font-family="Helvetica,sans-Serif" font-size="11.00" fill="#000000">&lt; 4</text>
<polygon fill="#ffffff" stroke="transparent" points="413,-302.7 413,-321.7 489,-321.7 489,-302.7 413,-302.7"/>
<polygon fill="none" stroke="#000000" points="413,-302.7 413,-321.7 489,-321.7 489,-302.7 413,-302.7"/>
<text text-anchor="start" x="441.3807" y="-308.8" font-family="Helvetica,sans-Serif" font-size="11.00" fill="#000000">138 rows</text>
<polygon fill="#ffffff" stroke="transparent" points="489,-302.7 489,-321.7 556,-321.7 556,-302.7 489,-302.7"/>
<polygon fill="none" stroke="#000000" points="489,-302.7 489,-321.7 556,-321.7 556,-302.7 489,-302.7"/>
<text text-anchor="start" x="537.4053" y="-308.8" font-family="Helvetica,sans-Serif" font-size="11.00" fill="#000000">0 &gt;</text>
<polygon fill="none" stroke="#000000" stroke-width="2" points="365,-301.7 365,-521.7 557,-521.7 557,-301.7 365,-301.7"/>
</a>
</g>
</g>
<!-- job_ad_skill&#45;&gt;job_ad -->
<g id="edge4" class="edge">
<title>job_ad_skill:w&#45;&gt;job_ad:e</title>
<path fill="none" stroke="#000000" d="M351.4822,-356.575C339.3214,-359.95 332.4642,-366.7 315,-366.7"/>
<polygon fill="#000000" stroke="#000000" points="358.0659,-355.7247 366.4611,-358.2703 362.0329,-355.2124 366,-354.7 366,-354.7 366,-354.7 362.0329,-355.2124 365.5389,-351.1297 358.0659,-355.7247 358.0659,-355.7247"/>
<ellipse fill="none" stroke="#000000" cx="354.8923" cy="-356.1346" rx="3.2" ry="3.2"/>
</g>
<!-- job_ad_skill&#45;&gt;principal -->
<g id="edge3" class="edge">
<title>job_ad_skill:w&#45;&gt;principal:e</title>
<path fill="none" stroke="#000000" d="M351.3434,-464.9276C260.6604,-467.7222 216.78,-494.3182 141,-435.7 102.354,-405.8061 148.8586,-333.7 100,-333.7"/>
<polygon fill="#000000" stroke="#000000" points="358.001,-464.8243 366.0559,-468.2996 362.0005,-464.7621 366,-464.7 366,-464.7 366,-464.7 362.0005,-464.7621 365.9441,-461.1004 358.001,-464.8243 358.001,-464.8243"/>
<ellipse fill="none" stroke="#000000" cx="354.8013" cy="-464.874" rx="3.2" ry="3.2"/>
</g>
<!-- job_ad_skill&#45;&gt;principal -->
<g id="edge5" class="edge">
<title>job_ad_skill:w&#45;&gt;principal:e</title>
<path fill="none" stroke="#000000" d="M351.3785,-421.0533C293.8273,-423.4182 179.67,-436.1284 141,-411.7 107.8892,-390.7834 139.1641,-333.7 100,-333.7"/>
<polygon fill="#000000" stroke="#000000" points="358.0023,-420.8933 366.087,-424.2989 362.0012,-420.7966 366,-420.7 366,-420.7 366,-420.7 362.0012,-420.7966 365.913,-417.1011 358.0023,-420.8933 358.0023,-420.8933"/>
<ellipse fill="none" stroke="#000000" cx="354.8033" cy="-420.9706" rx="3.2" ry="3.2"/>
</g>
<!-- skill -->
<g id="node4" class="node">
<title>skill</title>
<g id="a_node4"><a xlink:href="../../tables/skill.html" xlink:title="skill" target="_top">
<polygon fill="#ffffff" stroke="transparent" points="170.5,-38.2 170.5,-187.2 293.5,-187.2 293.5,-38.2 170.5,-38.2"/>
<polygon fill="#f5f5f5" stroke="transparent" points="171,-163.7 171,-186.7 294,-186.7 294,-163.7 171,-163.7"/>
<polygon fill="none" stroke="#000000" points="171,-163.7 171,-186.7 294,-186.7 294,-163.7 171,-163.7"/>
<text text-anchor="start" x="176" y="-172.8" font-family="Helvetica,sans-Serif" font-weight="bold" font-size="11.00" fill="#000000">skill</text>
<text text-anchor="start" x="259.0437" y="-171.8" font-family="Helvetica,sans-Serif" font-size="11.00" fill="#000000">[table]</text>
<polygon fill="none" stroke="#000000" points="171,-141.7 171,-163.7 294,-163.7 294,-141.7 171,-141.7"/>
<image xlink:href="../../images/primaryKeys.png" width="11px" height="12px" preserveAspectRatio="xMinYMin meet" x="176" y="-158.7"/>
<text text-anchor="start" x="191" y="-148.8" font-family="Helvetica,sans-Serif" font-size="11.00" fill="#000000">id</text>
<polygon fill="#ffffff" stroke="transparent" points="171,-119.7 171,-141.7 294,-141.7 294,-119.7 171,-119.7"/>
<polygon fill="none" stroke="#000000" points="171,-119.7 171,-141.7 294,-141.7 294,-119.7 171,-119.7"/>
<image xlink:href="../../images/foreignKeys.png" width="11px" height="12px" preserveAspectRatio="xMinYMin meet" x="176" y="-136.7"/>
<text text-anchor="start" x="191" y="-126.8" font-family="Helvetica,sans-Serif" font-size="11.00" fill="#000000">created_by</text>
<polygon fill="#ffffff" stroke="transparent" points="171,-97.7 171,-119.7 294,-119.7 294,-97.7 171,-97.7"/>
<polygon fill="none" stroke="#000000" points="171,-97.7 171,-119.7 294,-119.7 294,-97.7 171,-97.7"/>
<image xlink:href="../../images/foreignKeys.png" width="11px" height="12px" preserveAspectRatio="xMinYMin meet" x="176" y="-114.7"/>
<text text-anchor="start" x="191" y="-104.8" font-family="Helvetica,sans-Serif" font-size="11.00" fill="#000000">modified_by</text>
<polygon fill="#ffffff" stroke="transparent" points="171,-75.7 171,-97.7 294,-97.7 294,-75.7 171,-75.7"/>
<polygon fill="none" stroke="#000000" points="171,-75.7 171,-97.7 294,-97.7 294,-75.7 171,-75.7"/>
<text text-anchor="start" x="191" y="-82.8" font-family="Helvetica,sans-Serif" font-size="11.00" fill="#000000">name</text>
<polygon fill="none" stroke="#000000" points="171,-56.7 171,-75.7 294,-75.7 294,-56.7 171,-56.7"/>
<text text-anchor="start" x="174" y="-62.8" font-family="Helvetica,sans-Serif" font-size="11.00" fill="#000000">...</text>
<polygon fill="#ffffff" stroke="transparent" points="171,-37.7 171,-56.7 201,-56.7 201,-37.7 171,-37.7"/>
<polygon fill="none" stroke="#000000" points="171,-37.7 171,-56.7 201,-56.7 201,-37.7 171,-37.7"/>
<text text-anchor="start" x="174" y="-43.8" font-family="Helvetica,sans-Serif" font-size="11.00" fill="#000000">&lt; 2</text>
<polygon fill="#ffffff" stroke="transparent" points="201,-37.7 201,-56.7 268,-56.7 268,-37.7 201,-37.7"/>
<polygon fill="none" stroke="#000000" points="201,-37.7 201,-56.7 268,-56.7 268,-37.7 201,-37.7"/>
<text text-anchor="start" x="207.547" y="-43.8" font-family="Helvetica,sans-Serif" font-size="11.00" fill="#000000">2 737 rows</text>
<polygon fill="#ffffff" stroke="transparent" points="268,-37.7 268,-56.7 294,-56.7 294,-37.7 268,-37.7"/>
<polygon fill="none" stroke="#000000" points="268,-37.7 268,-56.7 294,-56.7 294,-37.7 268,-37.7"/>
<text text-anchor="start" x="275.4053" y="-43.8" font-family="Helvetica,sans-Serif" font-size="11.00" fill="#000000">5 &gt;</text>
</a>
</g>
</g>
<!-- job_ad_skill&#45;&gt;skill -->
<g id="edge6" class="edge">
<title>job_ad_skill:w&#45;&gt;skill:e</title>
<path fill="none" stroke="#000000" d="M351.5639,-330.5531C291.9952,-310.2446 374.6092,-152.7 294,-152.7"/>
<polygon fill="#000000" stroke="#000000" points="358.087,-331.5232 365.4704,-336.2608 362.0435,-332.1116 366,-332.7 366,-332.7 366,-332.7 362.0435,-332.1116 366.5296,-329.1392 358.087,-331.5232 358.087,-331.5232"/>
<ellipse fill="none" stroke="#000000" cx="354.9218" cy="-331.0524" rx="3.2" ry="3.2"/>
</g>
<!-- skill&#45;&gt;principal -->
<g id="edge7" class="edge">
<title>skill:w&#45;&gt;principal:e</title>
<path fill="none" stroke="#000000" d="M156.3339,-132.7092C88.7595,-153.7921 189.9809,-333.7 100,-333.7"/>
<polygon fill="#000000" stroke="#000000" points="163.074,-131.7859 171.4886,-134.2667 167.037,-131.2429 171,-130.7 171,-130.7 171,-130.7 167.037,-131.2429 170.5114,-127.1333 163.074,-131.7859 163.074,-131.7859"/>
<ellipse fill="none" stroke="#000000" cx="159.9036" cy="-132.2202" rx="3.2" ry="3.2"/>
</g>
<!-- skill&#45;&gt;principal -->
<g id="edge8" class="edge">
<title>skill:w&#45;&gt;principal:e</title>
<path fill="none" stroke="#000000" d="M157.5146,-115.1912C124.5575,-152.0823 147.1054,-333.7 100,-333.7"/>
<polygon fill="#000000" stroke="#000000" points="163.7916,-112.1698 172.5614,-111.9438 167.3958,-110.4349 171,-108.7 171,-108.7 171,-108.7 167.3958,-110.4349 169.4386,-105.4562 163.7916,-112.1698 163.7916,-112.1698"/>
<ellipse fill="none" stroke="#000000" cx="160.9082" cy="-113.5577" rx="3.2" ry="3.2"/>
</g>
</g>
</svg>
