<?xml version="1.0" encoding="UTF-8" standalone="no"?>
<!DOCTYPE svg PUBLIC "-//W3C//DTD SVG 1.1//EN"
 "http://www.w3.org/Graphics/SVG/1.1/DTD/svg11.dtd">
<!-- Generated by graphviz version 2.40.1 (20161225.0304)
 -->
<!-- Title: oneDegreeRelationshipsDiagram Pages: 1 -->
<svg width="797pt" height="882pt"
 viewBox="0.00 0.00 797.00 881.57" xmlns="http://www.w3.org/2000/svg" xmlns:xlink="http://www.w3.org/1999/xlink">
<g id="graph0" class="graph" transform="scale(1 1) rotate(0) translate(4 877.5702)">
<title>oneDegreeRelationshipsDiagram</title>
<polygon fill="#ffffff" stroke="transparent" points="-4,4 -4,-877.5702 793,-877.5702 793,4 -4,4"/>
<text text-anchor="middle" x="72.4936" y="-7.3" font-family="Helvetica,sans-Serif" font-size="11.00" fill="#000000">Generated by SchemaSpy</text>
<!-- job_ad -->
<g id="node1" class="node">
<title>job_ad</title>
<g id="a_node1"><a xlink:href="../../tables/job_ad.html" xlink:title="job_ad" target="_top">
<polygon fill="#ffffff" stroke="transparent" points="364,-318.0702 364,-738.0702 605,-738.0702 605,-318.0702 364,-318.0702"/>
<polygon fill="#f5f5f5" stroke="transparent" points="366.5,-713.0702 366.5,-736.0702 603.5,-736.0702 603.5,-713.0702 366.5,-713.0702"/>
<polygon fill="none" stroke="#000000" points="366.5,-713.0702 366.5,-736.0702 603.5,-736.0702 603.5,-713.0702 366.5,-713.0702"/>
<text text-anchor="start" x="371.5" y="-722.1702" font-family="Helvetica,sans-Serif" font-weight="bold" font-size="11.00" fill="#000000">job_ad</text>
<text text-anchor="start" x="568.5437" y="-721.1702" font-family="Helvetica,sans-Serif" font-size="11.00" fill="#000000">[table]</text>
<polygon fill="none" stroke="#000000" points="366.5,-691.0702 366.5,-713.0702 532.5,-713.0702 532.5,-691.0702 366.5,-691.0702"/>
<image xlink:href="../../images/primaryKeys.png" width="11px" height="12px" preserveAspectRatio="xMinYMin meet" x="371.5" y="-708.07"/>
<text text-anchor="start" x="386.5" y="-698.1702" font-family="Helvetica,sans-Serif" font-size="11.00" fill="#000000">id</text>
<polygon fill="none" stroke="#000000" points="532.5,-691.0702 532.5,-713.0702 603.5,-713.0702 603.5,-691.0702 532.5,-691.0702"/>
<text text-anchor="start" x="535.5" y="-698.7702" font-family="Helvetica,sans-Serif" font-size="11.00" fill="#000000">bigint[19]</text>
<polygon fill="#ffffff" stroke="transparent" points="366.5,-669.0702 366.5,-691.0702 532.5,-691.0702 532.5,-669.0702 366.5,-669.0702"/>
<polygon fill="none" stroke="#000000" points="366.5,-669.0702 366.5,-691.0702 532.5,-691.0702 532.5,-669.0702 366.5,-669.0702"/>
<image xlink:href="../../images/foreignKeys.png" width="11px" height="12px" preserveAspectRatio="xMinYMin meet" x="371.5" y="-686.07"/>
<text text-anchor="start" x="386.5" y="-676.1702" font-family="Helvetica,sans-Serif" font-size="11.00" fill="#000000">created_by</text>
<polygon fill="none" stroke="#000000" points="532.5,-669.0702 532.5,-691.0702 603.5,-691.0702 603.5,-669.0702 532.5,-669.0702"/>
<text text-anchor="start" x="535.5" y="-676.7702" font-family="Helvetica,sans-Serif" font-size="11.00" fill="#000000">bigint[19]</text>
<polygon fill="none" stroke="#000000" points="366.5,-647.0702 366.5,-669.0702 532.5,-669.0702 532.5,-647.0702 366.5,-647.0702"/>
<text text-anchor="start" x="386.5" y="-654.1702" font-family="Helvetica,sans-Serif" font-size="11.00" fill="#000000">creation_date</text>
<polygon fill="none" stroke="#000000" points="532.5,-647.0702 532.5,-669.0702 603.5,-669.0702 603.5,-647.0702 532.5,-647.0702"/>
<text text-anchor="start" x="535.5" y="-654.7702" font-family="Helvetica,sans-Serif" font-size="11.00" fill="#000000">datetime[26]</text>
<polygon fill="#ffffff" stroke="transparent" points="366.5,-625.0702 366.5,-647.0702 532.5,-647.0702 532.5,-625.0702 366.5,-625.0702"/>
<polygon fill="none" stroke="#000000" points="366.5,-625.0702 366.5,-647.0702 532.5,-647.0702 532.5,-625.0702 366.5,-625.0702"/>
<image xlink:href="../../images/foreignKeys.png" width="11px" height="12px" preserveAspectRatio="xMinYMin meet" x="371.5" y="-642.07"/>
<text text-anchor="start" x="386.5" y="-632.1702" font-family="Helvetica,sans-Serif" font-size="11.00" fill="#000000">modified_by</text>
<polygon fill="none" stroke="#000000" points="532.5,-625.0702 532.5,-647.0702 603.5,-647.0702 603.5,-625.0702 532.5,-625.0702"/>
<text text-anchor="start" x="535.5" y="-632.7702" font-family="Helvetica,sans-Serif" font-size="11.00" fill="#000000">bigint[19]</text>
<polygon fill="none" stroke="#000000" points="366.5,-603.0702 366.5,-625.0702 532.5,-625.0702 532.5,-603.0702 366.5,-603.0702"/>
<text text-anchor="start" x="386.5" y="-610.1702" font-family="Helvetica,sans-Serif" font-size="11.00" fill="#000000">modification_date</text>
<polygon fill="none" stroke="#000000" points="532.5,-603.0702 532.5,-625.0702 603.5,-625.0702 603.5,-603.0702 532.5,-603.0702"/>
<text text-anchor="start" x="535.5" y="-610.7702" font-family="Helvetica,sans-Serif" font-size="11.00" fill="#000000">datetime[26]</text>
<polygon fill="#ffffff" stroke="transparent" points="366.5,-581.0702 366.5,-603.0702 532.5,-603.0702 532.5,-581.0702 366.5,-581.0702"/>
<polygon fill="none" stroke="#000000" points="366.5,-581.0702 366.5,-603.0702 532.5,-603.0702 532.5,-581.0702 366.5,-581.0702"/>
<text text-anchor="start" x="386.5" y="-588.1702" font-family="Helvetica,sans-Serif" font-size="11.00" fill="#000000">marketplace_id</text>
<polygon fill="none" stroke="#000000" points="532.5,-581.0702 532.5,-603.0702 603.5,-603.0702 603.5,-581.0702 532.5,-581.0702"/>
<text text-anchor="start" x="535.5" y="-588.7702" font-family="Helvetica,sans-Serif" font-size="11.00" fill="#000000">bigint[19]</text>
<polygon fill="none" stroke="#000000" points="366.5,-559.0702 366.5,-581.0702 532.5,-581.0702 532.5,-559.0702 366.5,-559.0702"/>
<text text-anchor="start" x="386.5" y="-566.1702" font-family="Helvetica,sans-Serif" font-size="11.00" fill="#000000">title</text>
<polygon fill="none" stroke="#000000" points="532.5,-559.0702 532.5,-581.0702 603.5,-581.0702 603.5,-559.0702 532.5,-559.0702"/>
<text text-anchor="start" x="535.5" y="-566.7702" font-family="Helvetica,sans-Serif" font-size="11.00" fill="#000000">varchar[100]</text>
<polygon fill="none" stroke="#000000" points="366.5,-537.0702 366.5,-559.0702 532.5,-559.0702 532.5,-537.0702 366.5,-537.0702"/>
<text text-anchor="start" x="386.5" y="-544.1702" font-family="Helvetica,sans-Serif" font-size="11.00" fill="#000000">description</text>
<polygon fill="none" stroke="#000000" points="532.5,-537.0702 532.5,-559.0702 603.5,-559.0702 603.5,-537.0702 532.5,-537.0702"/>
<text text-anchor="start" x="535.5" y="-544.7702" font-family="Helvetica,sans-Serif" font-size="11.00" fill="#000000">text[65535]</text>
<polygon fill="none" stroke="#000000" points="366.5,-515.0702 366.5,-537.0702 532.5,-537.0702 532.5,-515.0702 366.5,-515.0702"/>
<text text-anchor="start" x="386.5" y="-522.1702" font-family="Helvetica,sans-Serif" font-size="11.00" fill="#000000">start_date</text>
<polygon fill="none" stroke="#000000" points="532.5,-515.0702 532.5,-537.0702 603.5,-537.0702 603.5,-515.0702 532.5,-515.0702"/>
<text text-anchor="start" x="535.5" y="-522.7702" font-family="Helvetica,sans-Serif" font-size="11.00" fill="#000000">datetime[26]</text>
<polygon fill="none" stroke="#000000" points="366.5,-493.0702 366.5,-515.0702 532.5,-515.0702 532.5,-493.0702 366.5,-493.0702"/>
<text text-anchor="start" x="386.5" y="-500.1702" font-family="Helvetica,sans-Serif" font-size="11.00" fill="#000000">end_date</text>
<polygon fill="none" stroke="#000000" points="532.5,-493.0702 532.5,-515.0702 603.5,-515.0702 603.5,-493.0702 532.5,-493.0702"/>
<text text-anchor="start" x="535.5" y="-500.7702" font-family="Helvetica,sans-Serif" font-size="11.00" fill="#000000">datetime[26]</text>
<polygon fill="none" stroke="#000000" points="366.5,-471.0702 366.5,-493.0702 532.5,-493.0702 532.5,-471.0702 366.5,-471.0702"/>
<text text-anchor="start" x="386.5" y="-478.1702" font-family="Helvetica,sans-Serif" font-size="11.00" fill="#000000">max_rate</text>
<polygon fill="none" stroke="#000000" points="532.5,-471.0702 532.5,-493.0702 603.5,-493.0702 603.5,-471.0702 532.5,-471.0702"/>
<text text-anchor="start" x="535.2981" y="-478.7702" font-family="Helvetica,sans-Serif" font-size="11.00" fill="#000000">decimal[19,2]</text>
<polygon fill="none" stroke="#000000" points="366.5,-449.0702 366.5,-471.0702 532.5,-471.0702 532.5,-449.0702 366.5,-449.0702"/>
<text text-anchor="start" x="386.5" y="-456.1702" font-family="Helvetica,sans-Serif" font-size="11.00" fill="#000000">rate_currency</text>
<polygon fill="none" stroke="#000000" points="532.5,-449.0702 532.5,-471.0702 603.5,-471.0702 603.5,-449.0702 532.5,-449.0702"/>
<text text-anchor="start" x="535.5" y="-456.7702" font-family="Helvetica,sans-Serif" font-size="11.00" fill="#000000">varchar[255]</text>
<polygon fill="none" stroke="#000000" points="366.5,-427.0702 366.5,-449.0702 532.5,-449.0702 532.5,-427.0702 366.5,-427.0702"/>
<text text-anchor="start" x="386.5" y="-434.1702" font-family="Helvetica,sans-Serif" font-size="11.00" fill="#000000">publication_end_date</text>
<polygon fill="none" stroke="#000000" points="532.5,-427.0702 532.5,-449.0702 603.5,-449.0702 603.5,-427.0702 532.5,-427.0702"/>
<text text-anchor="start" x="535.5" y="-434.7702" font-family="Helvetica,sans-Serif" font-size="11.00" fill="#000000">datetime[26]</text>
<polygon fill="none" stroke="#000000" points="366.5,-405.0702 366.5,-427.0702 532.5,-427.0702 532.5,-405.0702 366.5,-405.0702"/>
<text text-anchor="start" x="386.5" y="-412.1702" font-family="Helvetica,sans-Serif" font-size="11.00" fill="#000000">publication_start_date</text>
<polygon fill="none" stroke="#000000" points="532.5,-405.0702 532.5,-427.0702 603.5,-427.0702 603.5,-405.0702 532.5,-405.0702"/>
<text text-anchor="start" x="535.5" y="-412.7702" font-family="Helvetica,sans-Serif" font-size="11.00" fill="#000000">datetime[26]</text>
<polygon fill="none" stroke="#000000" points="366.5,-383.0702 366.5,-405.0702 532.5,-405.0702 532.5,-383.0702 366.5,-383.0702"/>
<text text-anchor="start" x="386.5" y="-390.1702" font-family="Helvetica,sans-Serif" font-size="11.00" fill="#000000">remote_work_percentage</text>
<polygon fill="none" stroke="#000000" points="532.5,-383.0702 532.5,-405.0702 603.5,-405.0702 603.5,-383.0702 532.5,-383.0702"/>
<text text-anchor="start" x="535.5" y="-390.7702" font-family="Helvetica,sans-Serif" font-size="11.00" fill="#000000">decimal[3]</text>
<polygon fill="#ffffff" stroke="transparent" points="366.5,-361.0702 366.5,-383.0702 532.5,-383.0702 532.5,-361.0702 366.5,-361.0702"/>
<polygon fill="none" stroke="#000000" points="366.5,-361.0702 366.5,-383.0702 532.5,-383.0702 532.5,-361.0702 366.5,-361.0702"/>
<image xlink:href="../../images/foreignKeys.png" width="11px" height="12px" preserveAspectRatio="xMinYMin meet" x="371.5" y="-378.07"/>
<text text-anchor="start" x="386.5" y="-368.1702" font-family="Helvetica,sans-Serif" font-size="11.00" fill="#000000">job_request_id</text>
<polygon fill="none" stroke="#000000" points="532.5,-361.0702 532.5,-383.0702 603.5,-383.0702 603.5,-361.0702 532.5,-361.0702"/>
<text text-anchor="start" x="535.5" y="-368.7702" font-family="Helvetica,sans-Serif" font-size="11.00" fill="#000000">bigint[19]</text>
<polygon fill="#ffffff" stroke="transparent" points="366.5,-339.0702 366.5,-361.0702 532.5,-361.0702 532.5,-339.0702 366.5,-339.0702"/>
<polygon fill="none" stroke="#000000" points="366.5,-339.0702 366.5,-361.0702 532.5,-361.0702 532.5,-339.0702 366.5,-339.0702"/>
<image xlink:href="../../images/foreignKeys.png" width="11px" height="12px" preserveAspectRatio="xMinYMin meet" x="371.5" y="-356.07"/>
<text text-anchor="start" x="386.5" y="-346.1702" font-family="Helvetica,sans-Serif" font-size="11.00" fill="#000000">location_id</text>
<polygon fill="none" stroke="#000000" points="532.5,-339.0702 532.5,-361.0702 603.5,-361.0702 603.5,-339.0702 532.5,-339.0702"/>
<text text-anchor="start" x="535.5" y="-346.7702" font-family="Helvetica,sans-Serif" font-size="11.00" fill="#000000">bigint[19]</text>
<polygon fill="#ffffff" stroke="transparent" points="366.5,-320.0702 366.5,-339.0702 437.5,-339.0702 437.5,-320.0702 366.5,-320.0702"/>
<polygon fill="none" stroke="#000000" points="366.5,-320.0702 366.5,-339.0702 437.5,-339.0702 437.5,-320.0702 366.5,-320.0702"/>
<text text-anchor="start" x="369.5" y="-326.1702" font-family="Helvetica,sans-Serif" font-size="11.00" fill="#000000">&lt; 4</text>
<polygon fill="#ffffff" stroke="transparent" points="437.5,-320.0702 437.5,-339.0702 532.5,-339.0702 532.5,-320.0702 437.5,-320.0702"/>
<polygon fill="none" stroke="#000000" points="437.5,-320.0702 437.5,-339.0702 532.5,-339.0702 532.5,-320.0702 437.5,-320.0702"/>
<text text-anchor="start" x="490.9956" y="-326.1702" font-family="Helvetica,sans-Serif" font-size="11.00" fill="#000000">34 rows</text>
<polygon fill="#ffffff" stroke="transparent" points="532.5,-320.0702 532.5,-339.0702 603.5,-339.0702 603.5,-320.0702 532.5,-320.0702"/>
<polygon fill="none" stroke="#000000" points="532.5,-320.0702 532.5,-339.0702 603.5,-339.0702 603.5,-320.0702 532.5,-320.0702"/>
<text text-anchor="start" x="584.9053" y="-326.1702" font-family="Helvetica,sans-Serif" font-size="11.00" fill="#000000">2 &gt;</text>
<polygon fill="none" stroke="#000000" stroke-width="2" points="365,-319.0702 365,-737.0702 604,-737.0702 604,-319.0702 365,-319.0702"/>
</a>
</g>
</g>
<!-- principal -->
<g id="node2" class="node">
<title>principal</title>
<g id="a_node2"><a xlink:href="../../tables/principal.html" xlink:title="principal" target="_top">
<polygon fill="#ffffff" stroke="transparent" points="8,-587.5702 8,-692.5702 100,-692.5702 100,-587.5702 8,-587.5702"/>
<polygon fill="#f5f5f5" stroke="transparent" points="8,-669.0702 8,-692.0702 100,-692.0702 100,-669.0702 8,-669.0702"/>
<polygon fill="none" stroke="#000000" points="8,-669.0702 8,-692.0702 100,-692.0702 100,-669.0702 8,-669.0702"/>
<text text-anchor="start" x="13" y="-678.1702" font-family="Helvetica,sans-Serif" font-weight="bold" font-size="11.00" fill="#000000">principal</text>
<text text-anchor="start" x="65.0437" y="-677.1702" font-family="Helvetica,sans-Serif" font-size="11.00" fill="#000000">[table]</text>
<polygon fill="none" stroke="#000000" points="8,-647.0702 8,-669.0702 100,-669.0702 100,-647.0702 8,-647.0702"/>
<image xlink:href="../../images/primaryKeys.png" width="11px" height="12px" preserveAspectRatio="xMinYMin meet" x="13" y="-664.07"/>
<text text-anchor="start" x="32" y="-654.1702" font-family="Helvetica,sans-Serif" font-size="11.00" fill="#000000">id</text>
<polygon fill="#ffffff" stroke="transparent" points="8,-625.0702 8,-647.0702 100,-647.0702 100,-625.0702 8,-625.0702"/>
<polygon fill="none" stroke="#000000" points="8,-625.0702 8,-647.0702 100,-647.0702 100,-625.0702 8,-625.0702"/>
<image xlink:href="../../images/foreignKeys.png" width="11px" height="12px" preserveAspectRatio="xMinYMin meet" x="13" y="-642.07"/>
<text text-anchor="start" x="32" y="-632.1702" font-family="Helvetica,sans-Serif" font-size="11.00" fill="#000000">eworker_id</text>
<polygon fill="none" stroke="#000000" points="8,-606.0702 8,-625.0702 100,-625.0702 100,-606.0702 8,-606.0702"/>
<text text-anchor="start" x="11" y="-612.1702" font-family="Helvetica,sans-Serif" font-size="11.00" fill="#000000">...</text>
<polygon fill="#ffffff" stroke="transparent" points="8,-587.0702 8,-606.0702 29,-606.0702 29,-587.0702 8,-587.0702"/>
<polygon fill="none" stroke="#000000" points="8,-587.0702 8,-606.0702 29,-606.0702 29,-587.0702 8,-587.0702"/>
<text text-anchor="start" x="10.7027" y="-593.1702" font-family="Helvetica,sans-Serif" font-size="11.00" fill="#000000">&lt; 1</text>
<polygon fill="#ffffff" stroke="transparent" points="29,-587.0702 29,-606.0702 73,-606.0702 73,-587.0702 29,-587.0702"/>
<polygon fill="none" stroke="#000000" points="29,-587.0702 29,-606.0702 73,-606.0702 73,-587.0702 29,-587.0702"/>
<text text-anchor="start" x="31.7478" y="-593.1702" font-family="Helvetica,sans-Serif" font-size="11.00" fill="#000000">18 rows</text>
<polygon fill="#ffffff" stroke="transparent" points="73,-587.0702 73,-606.0702 100,-606.0702 100,-587.0702 73,-587.0702"/>
<polygon fill="none" stroke="#000000" points="73,-587.0702 73,-606.0702 100,-606.0702 100,-587.0702 73,-587.0702"/>
<text text-anchor="start" x="75.6452" y="-593.1702" font-family="Helvetica,sans-Serif" font-size="11.00" fill="#000000">56 &gt;</text>
</a>
</g>
</g>
<!-- job_ad&#45;&gt;principal -->
<g id="edge1" class="edge">
<title>job_ad:w&#45;&gt;principal:e</title>
<path fill="none" stroke="#000000" d="M351.991,-679.9571C245.0747,-678.2614 213.8567,-658.0702 100,-658.0702"/>
<polygon fill="#000000" stroke="#000000" points="358.5002,-680.0078 366.4719,-683.6701 362.5001,-680.039 366.5,-680.0702 366.5,-680.0702 366.5,-680.0702 362.5001,-680.039 366.5281,-676.4703 358.5002,-680.0078 358.5002,-680.0078"/>
<ellipse fill="none" stroke="#000000" cx="355.3003" cy="-679.9828" rx="3.2" ry="3.2"/>
</g>
<!-- job_ad&#45;&gt;principal -->
<g id="edge4" class="edge">
<title>job_ad:w&#45;&gt;principal:e</title>
<path fill="none" stroke="#000000" d="M351.9649,-636.7286C295.8174,-640.3892 126.6362,-658.0702 100,-658.0702"/>
<polygon fill="#000000" stroke="#000000" points="358.5082,-636.4323 366.6629,-639.6665 362.5041,-636.2513 366.5,-636.0702 366.5,-636.0702 366.5,-636.0702 362.5041,-636.2513 366.3371,-632.4739 358.5082,-636.4323 358.5082,-636.4323"/>
<ellipse fill="none" stroke="#000000" cx="355.3115" cy="-636.5771" rx="3.2" ry="3.2"/>
</g>
<!-- job_request -->
<g id="node3" class="node">
<title>job_request</title>
<g id="a_node3"><a xlink:href="../../tables/job_request.html" xlink:title="job_request" target="_top">
<polygon fill="#ffffff" stroke="transparent" points="149,-81.5702 149,-406.5702 315,-406.5702 315,-81.5702 149,-81.5702"/>
<polygon fill="#f5f5f5" stroke="transparent" points="149,-383.0702 149,-406.0702 315,-406.0702 315,-383.0702 149,-383.0702"/>
<polygon fill="none" stroke="#000000" points="149,-383.0702 149,-406.0702 315,-406.0702 315,-383.0702 149,-383.0702"/>
<text text-anchor="start" x="154" y="-392.1702" font-family="Helvetica,sans-Serif" font-weight="bold" font-size="11.00" fill="#000000">job_request</text>
<text text-anchor="start" x="280.0437" y="-391.1702" font-family="Helvetica,sans-Serif" font-size="11.00" fill="#000000">[table]</text>
<polygon fill="none" stroke="#000000" points="149,-361.0702 149,-383.0702 315,-383.0702 315,-361.0702 149,-361.0702"/>
<image xlink:href="../../images/primaryKeys.png" width="11px" height="12px" preserveAspectRatio="xMinYMin meet" x="154" y="-378.07"/>
<text text-anchor="start" x="169" y="-368.1702" font-family="Helvetica,sans-Serif" font-size="11.00" fill="#000000">id</text>
<polygon fill="#ffffff" stroke="transparent" points="149,-339.0702 149,-361.0702 315,-361.0702 315,-339.0702 149,-339.0702"/>
<polygon fill="none" stroke="#000000" points="149,-339.0702 149,-361.0702 315,-361.0702 315,-339.0702 149,-339.0702"/>
<image xlink:href="../../images/foreignKeys.png" width="11px" height="12px" preserveAspectRatio="xMinYMin meet" x="154" y="-356.07"/>
<text text-anchor="start" x="169" y="-346.1702" font-family="Helvetica,sans-Serif" font-size="11.00" fill="#000000">created_by</text>
<polygon fill="#ffffff" stroke="transparent" points="149,-317.0702 149,-339.0702 315,-339.0702 315,-317.0702 149,-317.0702"/>
<polygon fill="none" stroke="#000000" points="149,-317.0702 149,-339.0702 315,-339.0702 315,-317.0702 149,-317.0702"/>
<image xlink:href="../../images/foreignKeys.png" width="11px" height="12px" preserveAspectRatio="xMinYMin meet" x="154" y="-334.07"/>
<text text-anchor="start" x="169" y="-324.1702" font-family="Helvetica,sans-Serif" font-size="11.00" fill="#000000">modified_by</text>
<polygon fill="#ffffff" stroke="transparent" points="149,-295.0702 149,-317.0702 315,-317.0702 315,-295.0702 149,-295.0702"/>
<polygon fill="none" stroke="#000000" points="149,-295.0702 149,-317.0702 315,-317.0702 315,-295.0702 149,-295.0702"/>
<image xlink:href="../../images/foreignKeys.png" width="11px" height="12px" preserveAspectRatio="xMinYMin meet" x="154" y="-312.07"/>
<text text-anchor="start" x="169" y="-302.1702" font-family="Helvetica,sans-Serif" font-size="11.00" fill="#000000">location_id</text>
<polygon fill="#ffffff" stroke="transparent" points="149,-273.0702 149,-295.0702 315,-295.0702 315,-273.0702 149,-273.0702"/>
<polygon fill="none" stroke="#000000" points="149,-273.0702 149,-295.0702 315,-295.0702 315,-273.0702 149,-273.0702"/>
<image xlink:href="../../images/foreignKeys.png" width="11px" height="12px" preserveAspectRatio="xMinYMin meet" x="154" y="-290.07"/>
<text text-anchor="start" x="169" y="-280.1702" font-family="Helvetica,sans-Serif" font-size="11.00" fill="#000000">rate_card_id</text>
<polygon fill="#ffffff" stroke="transparent" points="149,-251.0702 149,-273.0702 315,-273.0702 315,-251.0702 149,-251.0702"/>
<polygon fill="none" stroke="#000000" points="149,-251.0702 149,-273.0702 315,-273.0702 315,-251.0702 149,-251.0702"/>
<image xlink:href="../../images/foreignKeys.png" width="11px" height="12px" preserveAspectRatio="xMinYMin meet" x="154" y="-268.07"/>
<text text-anchor="start" x="169" y="-258.1702" font-family="Helvetica,sans-Serif" font-size="11.00" fill="#000000">source_job_request_id</text>
<polygon fill="#ffffff" stroke="transparent" points="149,-229.0702 149,-251.0702 315,-251.0702 315,-229.0702 149,-229.0702"/>
<polygon fill="none" stroke="#000000" points="149,-229.0702 149,-251.0702 315,-251.0702 315,-229.0702 149,-229.0702"/>
<image xlink:href="../../images/foreignKeys.png" width="11px" height="12px" preserveAspectRatio="xMinYMin meet" x="154" y="-246.07"/>
<text text-anchor="start" x="169" y="-236.1702" font-family="Helvetica,sans-Serif" font-size="11.00" fill="#000000">eworker_id</text>
<polygon fill="#ffffff" stroke="transparent" points="149,-207.0702 149,-229.0702 315,-229.0702 315,-207.0702 149,-207.0702"/>
<polygon fill="none" stroke="#000000" points="149,-207.0702 149,-229.0702 315,-229.0702 315,-207.0702 149,-207.0702"/>
<image xlink:href="../../images/foreignKeys.png" width="11px" height="12px" preserveAspectRatio="xMinYMin meet" x="154" y="-224.07"/>
<text text-anchor="start" x="169" y="-214.1702" font-family="Helvetica,sans-Serif" font-size="11.00" fill="#000000">unit_id</text>
<polygon fill="#ffffff" stroke="transparent" points="149,-185.0702 149,-207.0702 315,-207.0702 315,-185.0702 149,-185.0702"/>
<polygon fill="none" stroke="#000000" points="149,-185.0702 149,-207.0702 315,-207.0702 315,-185.0702 149,-185.0702"/>
<image xlink:href="../../images/foreignKeys.png" width="11px" height="12px" preserveAspectRatio="xMinYMin meet" x="154" y="-202.07"/>
<text text-anchor="start" x="169" y="-192.1702" font-family="Helvetica,sans-Serif" font-size="11.00" fill="#000000">closed_eworker_id</text>
<polygon fill="#ffffff" stroke="transparent" points="149,-163.0702 149,-185.0702 315,-185.0702 315,-163.0702 149,-163.0702"/>
<polygon fill="none" stroke="#000000" points="149,-163.0702 149,-185.0702 315,-185.0702 315,-163.0702 149,-163.0702"/>
<image xlink:href="../../images/foreignKeys.png" width="11px" height="12px" preserveAspectRatio="xMinYMin meet" x="154" y="-180.07"/>
<text text-anchor="start" x="169" y="-170.1702" font-family="Helvetica,sans-Serif" font-size="11.00" fill="#000000">client_contact_id</text>
<polygon fill="#ffffff" stroke="transparent" points="149,-141.0702 149,-163.0702 315,-163.0702 315,-141.0702 149,-141.0702"/>
<polygon fill="none" stroke="#000000" points="149,-141.0702 149,-163.0702 315,-163.0702 315,-141.0702 149,-141.0702"/>
<image xlink:href="../../images/foreignKeys.png" width="11px" height="12px" preserveAspectRatio="xMinYMin meet" x="154" y="-158.07"/>
<text text-anchor="start" x="169" y="-148.1702" font-family="Helvetica,sans-Serif" font-size="11.00" fill="#000000">client_id</text>
<polygon fill="#ffffff" stroke="transparent" points="149,-119.0702 149,-141.0702 315,-141.0702 315,-119.0702 149,-119.0702"/>
<polygon fill="none" stroke="#000000" points="149,-119.0702 149,-141.0702 315,-141.0702 315,-119.0702 149,-119.0702"/>
<image xlink:href="../../images/foreignKeys.png" width="11px" height="12px" preserveAspectRatio="xMinYMin meet" x="154" y="-136.07"/>
<text text-anchor="start" x="169" y="-126.1702" font-family="Helvetica,sans-Serif" font-size="11.00" fill="#000000">role_id</text>
<polygon fill="none" stroke="#000000" points="149,-100.0702 149,-119.0702 315,-119.0702 315,-100.0702 149,-100.0702"/>
<text text-anchor="start" x="152" y="-106.1702" font-family="Helvetica,sans-Serif" font-size="11.00" fill="#000000">...</text>
<polygon fill="#ffffff" stroke="transparent" points="149,-81.0702 149,-100.0702 210,-100.0702 210,-81.0702 149,-81.0702"/>
<polygon fill="none" stroke="#000000" points="149,-81.0702 149,-100.0702 210,-100.0702 210,-81.0702 149,-81.0702"/>
<text text-anchor="start" x="152" y="-87.1702" font-family="Helvetica,sans-Serif" font-size="11.00" fill="#000000">&lt; 11</text>
<polygon fill="#ffffff" stroke="transparent" points="210,-81.0702 210,-100.0702 277,-100.0702 277,-81.0702 210,-81.0702"/>
<polygon fill="none" stroke="#000000" points="210,-81.0702 210,-100.0702 277,-100.0702 277,-81.0702 210,-81.0702"/>
<text text-anchor="start" x="229.3807" y="-87.1702" font-family="Helvetica,sans-Serif" font-size="11.00" fill="#000000">254 rows</text>
<polygon fill="#ffffff" stroke="transparent" points="277,-81.0702 277,-100.0702 315,-100.0702 315,-81.0702 277,-81.0702"/>
<polygon fill="none" stroke="#000000" points="277,-81.0702 277,-100.0702 315,-100.0702 315,-81.0702 277,-81.0702"/>
<text text-anchor="start" x="296.4053" y="-87.1702" font-family="Helvetica,sans-Serif" font-size="11.00" fill="#000000">7 &gt;</text>
</a>
</g>
</g>
<!-- job_ad&#45;&gt;job_request -->
<g id="edge2" class="edge">
<title>job_ad:w&#45;&gt;job_request:e</title>
<path fill="none" stroke="#000000" d="M352.0156,-372.0702C339.6771,-372.0702 332.1667,-372.0702 315,-372.0702"/>
<polygon fill="#000000" stroke="#000000" points="358.5,-372.0703 366.5,-375.6702 362.5,-372.0703 366.5,-372.0702 366.5,-372.0702 366.5,-372.0702 362.5,-372.0703 366.5,-368.4702 358.5,-372.0703 358.5,-372.0703"/>
<ellipse fill="none" stroke="#000000" cx="355.3" cy="-372.0703" rx="3.2" ry="3.2"/>
</g>
<!-- location -->
<g id="node4" class="node">
<title>location</title>
<g id="a_node4"><a xlink:href="../../tables/location.html" xlink:title="location" target="_top">
<polygon fill="#ffffff" stroke="transparent" points="12.5,-132.5702 12.5,-215.5702 95.5,-215.5702 95.5,-132.5702 12.5,-132.5702"/>
<polygon fill="#f5f5f5" stroke="transparent" points="13,-192.0702 13,-215.0702 96,-215.0702 96,-192.0702 13,-192.0702"/>
<polygon fill="none" stroke="#000000" points="13,-192.0702 13,-215.0702 96,-215.0702 96,-192.0702 13,-192.0702"/>
<text text-anchor="start" x="18" y="-201.1702" font-family="Helvetica,sans-Serif" font-weight="bold" font-size="11.00" fill="#000000">location</text>
<text text-anchor="start" x="61.0437" y="-200.1702" font-family="Helvetica,sans-Serif" font-size="11.00" fill="#000000">[table]</text>
<polygon fill="none" stroke="#000000" points="13,-170.0702 13,-192.0702 96,-192.0702 96,-170.0702 13,-170.0702"/>
<image xlink:href="../../images/primaryKeys.png" width="11px" height="12px" preserveAspectRatio="xMinYMin meet" x="18" y="-187.07"/>
<text text-anchor="start" x="41" y="-177.1702" font-family="Helvetica,sans-Serif" font-size="11.00" fill="#000000">id</text>
<polygon fill="none" stroke="#000000" points="13,-151.0702 13,-170.0702 96,-170.0702 96,-151.0702 13,-151.0702"/>
<text text-anchor="start" x="16" y="-157.1702" font-family="Helvetica,sans-Serif" font-size="11.00" fill="#000000">...</text>
<polygon fill="#ffffff" stroke="transparent" points="13,-132.0702 13,-151.0702 25,-151.0702 25,-132.0702 13,-132.0702"/>
<polygon fill="none" stroke="#000000" points="13,-132.0702 13,-151.0702 25,-151.0702 25,-132.0702 13,-132.0702"/>
<text text-anchor="start" x="15.9431" y="-138.1702" font-family="Helvetica,sans-Serif" font-size="11.00" fill="#000000"> &#160;</text>
<polygon fill="#ffffff" stroke="transparent" points="25,-132.0702 25,-151.0702 75,-151.0702 75,-132.0702 25,-132.0702"/>
<polygon fill="none" stroke="#000000" points="25,-132.0702 25,-151.0702 75,-151.0702 75,-132.0702 25,-132.0702"/>
<text text-anchor="start" x="27.6904" y="-138.1702" font-family="Helvetica,sans-Serif" font-size="11.00" fill="#000000">541 rows</text>
<polygon fill="#ffffff" stroke="transparent" points="75,-132.0702 75,-151.0702 96,-151.0702 96,-132.0702 75,-132.0702"/>
<polygon fill="none" stroke="#000000" points="75,-132.0702 75,-151.0702 96,-151.0702 96,-132.0702 75,-132.0702"/>
<text text-anchor="start" x="77.7027" y="-138.1702" font-family="Helvetica,sans-Serif" font-size="11.00" fill="#000000">4 &gt;</text>
</a>
</g>
</g>
<!-- job_ad&#45;&gt;location -->
<g id="edge3" class="edge">
<title>job_ad:w&#45;&gt;location:e</title>
<path fill="none" stroke="#000000" d="M352.5499,-344.6182C314.8498,-308.8637 366.3831,-108.2135 323,-71.0702 261.555,-18.463 208.1581,-25.9836 141,-71.0702 97.1448,-100.5125 148.8216,-181.0702 96,-181.0702"/>
<polygon fill="#000000" stroke="#000000" points="359.0488,-347.1581 365.1895,-353.4232 362.7744,-348.6142 366.5,-350.0702 366.5,-350.0702 366.5,-350.0702 362.7744,-348.6142 367.8105,-346.7172 359.0488,-347.1581 359.0488,-347.1581"/>
<ellipse fill="none" stroke="#000000" cx="356.0684" cy="-345.9932" rx="3.2" ry="3.2"/>
</g>
<!-- job_request&#45;&gt;principal -->
<g id="edge11" class="edge">
<title>job_request:w&#45;&gt;principal:e</title>
<path fill="none" stroke="#000000" d="M135.5149,-355.4161C92.7265,-396.3153 163.8907,-658.0702 100,-658.0702"/>
<polygon fill="#000000" stroke="#000000" points="141.5631,-353.0185 150.3267,-353.4168 145.2815,-351.5444 149,-350.0702 149,-350.0702 149,-350.0702 145.2815,-351.5444 147.6733,-346.7236 141.5631,-353.0185 141.5631,-353.0185"/>
<ellipse fill="none" stroke="#000000" cx="138.5883" cy="-354.1978" rx="3.2" ry="3.2"/>
</g>
<!-- job_request&#45;&gt;principal -->
<g id="edge13" class="edge">
<title>job_request:w&#45;&gt;principal:e</title>
<path fill="none" stroke="#000000" d="M135.2167,-333.2537C88.6435,-375.2368 168.635,-658.0702 100,-658.0702"/>
<polygon fill="#000000" stroke="#000000" points="141.512,-330.8863 150.2672,-331.4398 145.256,-329.4783 149,-328.0702 149,-328.0702 149,-328.0702 145.256,-329.4783 147.7328,-324.7006 141.512,-330.8863 141.512,-330.8863"/>
<ellipse fill="none" stroke="#000000" cx="138.5168" cy="-332.0127" rx="3.2" ry="3.2"/>
</g>
<!-- job_request&#45;&gt;location -->
<g id="edge12" class="edge">
<title>job_request:w&#45;&gt;location:e</title>
<path fill="none" stroke="#000000" d="M134.7458,-302.7268C100.6559,-282.8483 150.4502,-181.0702 96,-181.0702"/>
<polygon fill="#000000" stroke="#000000" points="141.2114,-304.2433 148.1779,-309.5751 145.1057,-305.1568 149,-306.0702 149,-306.0702 149,-306.0702 145.1057,-305.1568 149.8221,-302.5654 141.2114,-304.2433 141.2114,-304.2433"/>
<ellipse fill="none" stroke="#000000" cx="138.0959" cy="-303.5125" rx="3.2" ry="3.2"/>
</g>
<!-- job_ad_language -->
<g id="node5" class="node">
<title>job_ad_language</title>
<g id="a_node5"><a xlink:href="../../tables/job_ad_language.html" xlink:title="job_ad_language" target="_top">
<polygon fill="#ffffff" stroke="transparent" points="654,-720.5702 654,-869.5702 781,-869.5702 781,-720.5702 654,-720.5702"/>
<polygon fill="#f5f5f5" stroke="transparent" points="654.5,-846.0702 654.5,-869.0702 781.5,-869.0702 781.5,-846.0702 654.5,-846.0702"/>
<polygon fill="none" stroke="#000000" points="654.5,-846.0702 654.5,-869.0702 781.5,-869.0702 781.5,-846.0702 654.5,-846.0702"/>
<text text-anchor="start" x="659.3122" y="-855.1702" font-family="Helvetica,sans-Serif" font-weight="bold" font-size="11.00" fill="#000000">job_ad_language</text>
<text text-anchor="start" x="747.0219" y="-854.1702" font-family="Helvetica,sans-Serif" font-size="11.00" fill="#000000">[table]</text>
<polygon fill="none" stroke="#000000" points="654.5,-824.0702 654.5,-846.0702 781.5,-846.0702 781.5,-824.0702 654.5,-824.0702"/>
<image xlink:href="../../images/primaryKeys.png" width="11px" height="12px" preserveAspectRatio="xMinYMin meet" x="659.5" y="-841.07"/>
<text text-anchor="start" x="676.5" y="-831.1702" font-family="Helvetica,sans-Serif" font-size="11.00" fill="#000000">id</text>
<polygon fill="#ffffff" stroke="transparent" points="654.5,-802.0702 654.5,-824.0702 781.5,-824.0702 781.5,-802.0702 654.5,-802.0702"/>
<polygon fill="none" stroke="#000000" points="654.5,-802.0702 654.5,-824.0702 781.5,-824.0702 781.5,-802.0702 654.5,-802.0702"/>
<image xlink:href="../../images/foreignKeys.png" width="11px" height="12px" preserveAspectRatio="xMinYMin meet" x="659.5" y="-819.07"/>
<text text-anchor="start" x="676.5" y="-809.1702" font-family="Helvetica,sans-Serif" font-size="11.00" fill="#000000">created_by</text>
<polygon fill="#ffffff" stroke="transparent" points="654.5,-780.0702 654.5,-802.0702 781.5,-802.0702 781.5,-780.0702 654.5,-780.0702"/>
<polygon fill="none" stroke="#000000" points="654.5,-780.0702 654.5,-802.0702 781.5,-802.0702 781.5,-780.0702 654.5,-780.0702"/>
<image xlink:href="../../images/foreignKeys.png" width="11px" height="12px" preserveAspectRatio="xMinYMin meet" x="659.5" y="-797.07"/>
<text text-anchor="start" x="676.5" y="-787.1702" font-family="Helvetica,sans-Serif" font-size="11.00" fill="#000000">modified_by</text>
<polygon fill="#ffffff" stroke="transparent" points="654.5,-758.0702 654.5,-780.0702 781.5,-780.0702 781.5,-758.0702 654.5,-758.0702"/>
<polygon fill="none" stroke="#000000" points="654.5,-758.0702 654.5,-780.0702 781.5,-780.0702 781.5,-758.0702 654.5,-758.0702"/>
<image xlink:href="../../images/foreignKeys.png" width="11px" height="12px" preserveAspectRatio="xMinYMin meet" x="659.5" y="-775.07"/>
<text text-anchor="start" x="676.5" y="-765.1702" font-family="Helvetica,sans-Serif" font-size="11.00" fill="#000000">job_ad_id</text>
<polygon fill="none" stroke="#000000" points="654.5,-739.0702 654.5,-758.0702 781.5,-758.0702 781.5,-739.0702 654.5,-739.0702"/>
<text text-anchor="start" x="657.5" y="-745.1702" font-family="Helvetica,sans-Serif" font-size="11.00" fill="#000000">...</text>
<polygon fill="#ffffff" stroke="transparent" points="654.5,-720.0702 654.5,-739.0702 703.5,-739.0702 703.5,-720.0702 654.5,-720.0702"/>
<polygon fill="none" stroke="#000000" points="654.5,-720.0702 654.5,-739.0702 703.5,-739.0702 703.5,-720.0702 654.5,-720.0702"/>
<text text-anchor="start" x="657.5" y="-726.1702" font-family="Helvetica,sans-Serif" font-size="11.00" fill="#000000">&lt; 3</text>
<polygon fill="#ffffff" stroke="transparent" points="703.5,-720.0702 703.5,-739.0702 755.5,-739.0702 755.5,-720.0702 703.5,-720.0702"/>
<polygon fill="none" stroke="#000000" points="703.5,-720.0702 703.5,-739.0702 755.5,-739.0702 755.5,-720.0702 703.5,-720.0702"/>
<text text-anchor="start" x="720.1105" y="-726.1702" font-family="Helvetica,sans-Serif" font-size="11.00" fill="#000000">2 rows</text>
<polygon fill="#ffffff" stroke="transparent" points="755.5,-720.0702 755.5,-739.0702 781.5,-739.0702 781.5,-720.0702 755.5,-720.0702"/>
<polygon fill="none" stroke="#000000" points="755.5,-720.0702 755.5,-739.0702 781.5,-739.0702 781.5,-720.0702 755.5,-720.0702"/>
<text text-anchor="start" x="772.3862" y="-726.1702" font-family="Helvetica,sans-Serif" font-size="11.00" fill="#000000"> &#160;</text>
</a>
</g>
</g>
<!-- job_ad_language&#45;&gt;job_ad -->
<g id="edge6" class="edge">
<title>job_ad_language:w&#45;&gt;job_ad:e</title>
<path fill="none" stroke="#000000" d="M640.4871,-764.2518C623.2522,-748.8893 634.7834,-702.0702 603.5,-702.0702"/>
<polygon fill="#000000" stroke="#000000" points="646.9348,-766.4688 653.3294,-772.4746 650.7174,-767.7695 654.5,-769.0702 654.5,-769.0702 654.5,-769.0702 650.7174,-767.7695 655.6706,-765.6659 646.9348,-766.4688 646.9348,-766.4688"/>
<ellipse fill="none" stroke="#000000" cx="643.9087" cy="-765.4282" rx="3.2" ry="3.2"/>
</g>
<!-- job_ad_language&#45;&gt;principal -->
<g id="edge5" class="edge">
<title>job_ad_language:w&#45;&gt;principal:e</title>
<path fill="none" stroke="#000000" d="M639.9544,-813.2402C421.6681,-818.3419 317.8225,-935.6069 141,-799.0702 89.345,-759.1839 165.2622,-658.0702 100,-658.0702"/>
<polygon fill="#000000" stroke="#000000" points="646.5005,-813.1638 654.5421,-816.67 650.5003,-813.117 654.5,-813.0702 654.5,-813.0702 654.5,-813.0702 650.5003,-813.117 654.4579,-809.4705 646.5005,-813.1638 646.5005,-813.1638"/>
<ellipse fill="none" stroke="#000000" cx="643.3008" cy="-813.2012" rx="3.2" ry="3.2"/>
</g>
<!-- job_ad_language&#45;&gt;principal -->
<g id="edge7" class="edge">
<title>job_ad_language:w&#45;&gt;principal:e</title>
<path fill="none" stroke="#000000" d="M639.8383,-791.1498C420.0628,-793.5289 326.9555,-847.5275 141,-720.0702 113.7507,-701.3931 133.0357,-658.0702 100,-658.0702"/>
<polygon fill="#000000" stroke="#000000" points="646.5001,-791.1137 654.5196,-794.6702 650.5001,-791.092 654.5,-791.0702 654.5,-791.0702 654.5,-791.0702 650.5001,-791.092 654.4804,-787.4703 646.5001,-791.1137 646.5001,-791.1137"/>
<ellipse fill="none" stroke="#000000" cx="643.3002" cy="-791.1311" rx="3.2" ry="3.2"/>
</g>
<!-- job_ad_skill -->
<g id="node6" class="node">
<title>job_ad_skill</title>
<g id="a_node6"><a xlink:href="../../tables/job_ad_skill.html" xlink:title="job_ad_skill" target="_top">
<polygon fill="#ffffff" stroke="transparent" points="656,-528.5702 656,-699.5702 779,-699.5702 779,-528.5702 656,-528.5702"/>
<polygon fill="#f5f5f5" stroke="transparent" points="656.5,-676.0702 656.5,-699.0702 779.5,-699.0702 779.5,-676.0702 656.5,-676.0702"/>
<polygon fill="none" stroke="#000000" points="656.5,-676.0702 656.5,-699.0702 779.5,-699.0702 779.5,-676.0702 656.5,-676.0702"/>
<text text-anchor="start" x="661.5" y="-685.1702" font-family="Helvetica,sans-Serif" font-weight="bold" font-size="11.00" fill="#000000">job_ad_skill</text>
<text text-anchor="start" x="744.5437" y="-684.1702" font-family="Helvetica,sans-Serif" font-size="11.00" fill="#000000">[table]</text>
<polygon fill="none" stroke="#000000" points="656.5,-654.0702 656.5,-676.0702 779.5,-676.0702 779.5,-654.0702 656.5,-654.0702"/>
<image xlink:href="../../images/primaryKeys.png" width="11px" height="12px" preserveAspectRatio="xMinYMin meet" x="661.5" y="-671.07"/>
<text text-anchor="start" x="676.5" y="-661.1702" font-family="Helvetica,sans-Serif" font-size="11.00" fill="#000000">id</text>
<polygon fill="#ffffff" stroke="transparent" points="656.5,-632.0702 656.5,-654.0702 779.5,-654.0702 779.5,-632.0702 656.5,-632.0702"/>
<polygon fill="none" stroke="#000000" points="656.5,-632.0702 656.5,-654.0702 779.5,-654.0702 779.5,-632.0702 656.5,-632.0702"/>
<image xlink:href="../../images/foreignKeys.png" width="11px" height="12px" preserveAspectRatio="xMinYMin meet" x="661.5" y="-649.07"/>
<text text-anchor="start" x="676.5" y="-639.1702" font-family="Helvetica,sans-Serif" font-size="11.00" fill="#000000">created_by</text>
<polygon fill="#ffffff" stroke="transparent" points="656.5,-610.0702 656.5,-632.0702 779.5,-632.0702 779.5,-610.0702 656.5,-610.0702"/>
<polygon fill="none" stroke="#000000" points="656.5,-610.0702 656.5,-632.0702 779.5,-632.0702 779.5,-610.0702 656.5,-610.0702"/>
<image xlink:href="../../images/foreignKeys.png" width="11px" height="12px" preserveAspectRatio="xMinYMin meet" x="661.5" y="-627.07"/>
<text text-anchor="start" x="676.5" y="-617.1702" font-family="Helvetica,sans-Serif" font-size="11.00" fill="#000000">modified_by</text>
<polygon fill="#ffffff" stroke="transparent" points="656.5,-588.0702 656.5,-610.0702 779.5,-610.0702 779.5,-588.0702 656.5,-588.0702"/>
<polygon fill="none" stroke="#000000" points="656.5,-588.0702 656.5,-610.0702 779.5,-610.0702 779.5,-588.0702 656.5,-588.0702"/>
<image xlink:href="../../images/foreignKeys.png" width="11px" height="12px" preserveAspectRatio="xMinYMin meet" x="661.5" y="-605.07"/>
<text text-anchor="start" x="676.5" y="-595.1702" font-family="Helvetica,sans-Serif" font-size="11.00" fill="#000000">job_ad_id</text>
<polygon fill="#ffffff" stroke="transparent" points="656.5,-566.0702 656.5,-588.0702 779.5,-588.0702 779.5,-566.0702 656.5,-566.0702"/>
<polygon fill="none" stroke="#000000" points="656.5,-566.0702 656.5,-588.0702 779.5,-588.0702 779.5,-566.0702 656.5,-566.0702"/>
<image xlink:href="../../images/foreignKeys.png" width="11px" height="12px" preserveAspectRatio="xMinYMin meet" x="661.5" y="-583.07"/>
<text text-anchor="start" x="676.5" y="-573.1702" font-family="Helvetica,sans-Serif" font-size="11.00" fill="#000000">skill_id</text>
<polygon fill="none" stroke="#000000" points="656.5,-547.0702 656.5,-566.0702 779.5,-566.0702 779.5,-547.0702 656.5,-547.0702"/>
<text text-anchor="start" x="659.5" y="-553.1702" font-family="Helvetica,sans-Serif" font-size="11.00" fill="#000000">...</text>
<polygon fill="#ffffff" stroke="transparent" points="656.5,-528.0702 656.5,-547.0702 697.5,-547.0702 697.5,-528.0702 656.5,-528.0702"/>
<polygon fill="none" stroke="#000000" points="656.5,-528.0702 656.5,-547.0702 697.5,-547.0702 697.5,-528.0702 656.5,-528.0702"/>
<text text-anchor="start" x="659.5" y="-534.1702" font-family="Helvetica,sans-Serif" font-size="11.00" fill="#000000">&lt; 4</text>
<polygon fill="#ffffff" stroke="transparent" points="697.5,-528.0702 697.5,-547.0702 757.5,-547.0702 757.5,-528.0702 697.5,-528.0702"/>
<polygon fill="none" stroke="#000000" points="697.5,-528.0702 697.5,-547.0702 757.5,-547.0702 757.5,-528.0702 697.5,-528.0702"/>
<text text-anchor="start" x="709.8807" y="-534.1702" font-family="Helvetica,sans-Serif" font-size="11.00" fill="#000000">138 rows</text>
<polygon fill="#ffffff" stroke="transparent" points="757.5,-528.0702 757.5,-547.0702 779.5,-547.0702 779.5,-528.0702 757.5,-528.0702"/>
<polygon fill="none" stroke="#000000" points="757.5,-528.0702 757.5,-547.0702 779.5,-547.0702 779.5,-528.0702 757.5,-528.0702"/>
<text text-anchor="start" x="770.3862" y="-534.1702" font-family="Helvetica,sans-Serif" font-size="11.00" fill="#000000"> &#160;</text>
</a>
</g>
</g>
<!-- job_ad_skill&#45;&gt;job_ad -->
<g id="edge9" class="edge">
<title>job_ad_skill:w&#45;&gt;job_ad:e</title>
<path fill="none" stroke="#000000" d="M642.2536,-602.9822C615.3348,-621.7964 648.9496,-702.0702 603.5,-702.0702"/>
<polygon fill="#000000" stroke="#000000" points="648.7856,-601.1886 657.4533,-602.5417 652.6428,-600.1294 656.5,-599.0702 656.5,-599.0702 656.5,-599.0702 652.6428,-600.1294 655.5467,-595.5987 648.7856,-601.1886 648.7856,-601.1886"/>
<ellipse fill="none" stroke="#000000" cx="645.6998" cy="-602.0359" rx="3.2" ry="3.2"/>
</g>
<!-- job_ad_skill&#45;&gt;principal -->
<g id="edge8" class="edge">
<title>job_ad_skill:w&#45;&gt;principal:e</title>
<path fill="none" stroke="#000000" d="M642.0856,-646.2603C616.2682,-661.1508 650.1735,-724.1435 613,-749.0702 565.5659,-780.8773 412.4053,-758.0213 356,-749.0702 256.7493,-733.32 233.7908,-717.6531 141,-679.0702 122.0957,-671.2097 120.4734,-658.0702 100,-658.0702"/>
<polygon fill="#000000" stroke="#000000" points="648.689,-644.7989 657.2779,-646.5852 652.5945,-643.9346 656.5,-643.0702 656.5,-643.0702 656.5,-643.0702 652.5945,-643.9346 655.7221,-639.5553 648.689,-644.7989 648.689,-644.7989"/>
<ellipse fill="none" stroke="#000000" cx="645.5646" cy="-645.4904" rx="3.2" ry="3.2"/>
</g>
<!-- job_ad_skill&#45;&gt;principal -->
<g id="edge10" class="edge">
<title>job_ad_skill:w&#45;&gt;principal:e</title>
<path fill="none" stroke="#000000" d="M642.6103,-616.4012C597.7529,-580.5888 661.9695,-349.7234 613,-307.0702 526.8692,-232.0489 447.6397,-238.8875 356,-307.0702 315.0498,-337.5385 348.319,-372.7511 323,-417.0702 304.9029,-448.748 136.4827,-658.0702 100,-658.0702"/>
<polygon fill="#000000" stroke="#000000" points="648.917,-618.5211 655.3529,-624.4826 652.7085,-619.7957 656.5,-621.0702 656.5,-621.0702 656.5,-621.0702 652.7085,-619.7957 657.6471,-617.6579 648.917,-618.5211 648.917,-618.5211"/>
<ellipse fill="none" stroke="#000000" cx="645.8838" cy="-617.5015" rx="3.2" ry="3.2"/>
</g>
</g>
</svg>
