<?xml version="1.0" encoding="UTF-8" standalone="no"?>
<!DOCTYPE svg PUBLIC "-//W3C//DTD SVG 1.1//EN"
 "http://www.w3.org/Graphics/SVG/1.1/DTD/svg11.dtd">
<!-- Generated by graphviz version 2.40.1 (20161225.0304)
 -->
<!-- Title: oneDegreeRelationshipsDiagram Pages: 1 -->
<svg width="452pt" height="399pt"
 viewBox="0.00 0.00 452.00 398.70" xmlns="http://www.w3.org/2000/svg" xmlns:xlink="http://www.w3.org/1999/xlink">
<g id="graph0" class="graph" transform="scale(1 1) rotate(0) translate(4 394.7)">
<title>oneDegreeRelationshipsDiagram</title>
<polygon fill="#ffffff" stroke="transparent" points="-4,4 -4,-394.7 448,-394.7 448,4 -4,4"/>
<text text-anchor="middle" x="72.4936" y="-7.3" font-family="Helvetica,sans-Serif" font-size="11.00" fill="#000000">Generated by SchemaSpy</text>
<!-- job_request_language -->
<g id="node1" class="node">
<title>job_request_language</title>
<g id="a_node1"><a xlink:href="../../tables/job_request_language.html" xlink:title="job_request_language" target="_top">
<polygon fill="#ffffff" stroke="transparent" points="223,-252.7 223,-386.7 436,-386.7 436,-252.7 223,-252.7"/>
<polygon fill="#f5f5f5" stroke="transparent" points="225.5,-361.7 225.5,-384.7 434.5,-384.7 434.5,-361.7 225.5,-361.7"/>
<polygon fill="none" stroke="#000000" points="225.5,-361.7 225.5,-384.7 434.5,-384.7 434.5,-361.7 225.5,-361.7"/>
<text text-anchor="start" x="230.5" y="-370.8" font-family="Helvetica,sans-Serif" font-weight="bold" font-size="11.00" fill="#000000">job_request_language</text>
<text text-anchor="start" x="399.5437" y="-369.8" font-family="Helvetica,sans-Serif" font-size="11.00" fill="#000000">[table]</text>
<polygon fill="none" stroke="#000000" points="225.5,-339.7 225.5,-361.7 373.5,-361.7 373.5,-339.7 225.5,-339.7"/>
<image xlink:href="../../images/primaryKeys.png" width="11px" height="12px" preserveAspectRatio="xMinYMin meet" x="230.5" y="-356.7"/>
<text text-anchor="start" x="245.5" y="-346.8" font-family="Helvetica,sans-Serif" font-size="11.00" fill="#000000">id</text>
<polygon fill="none" stroke="#000000" points="373.5,-339.7 373.5,-361.7 434.5,-361.7 434.5,-339.7 373.5,-339.7"/>
<text text-anchor="start" x="376.5" y="-347.4" font-family="Helvetica,sans-Serif" font-size="11.00" fill="#000000">bigint[19]</text>
<polygon fill="#ffffff" stroke="transparent" points="225.5,-317.7 225.5,-339.7 373.5,-339.7 373.5,-317.7 225.5,-317.7"/>
<polygon fill="none" stroke="#000000" points="225.5,-317.7 225.5,-339.7 373.5,-339.7 373.5,-317.7 225.5,-317.7"/>
<image xlink:href="../../images/foreignKeys.png" width="11px" height="12px" preserveAspectRatio="xMinYMin meet" x="230.5" y="-334.7"/>
<text text-anchor="start" x="245.5" y="-324.8" font-family="Helvetica,sans-Serif" font-size="11.00" fill="#000000">job_request_id</text>
<polygon fill="none" stroke="#000000" points="373.5,-317.7 373.5,-339.7 434.5,-339.7 434.5,-317.7 373.5,-317.7"/>
<text text-anchor="start" x="376.5" y="-325.4" font-family="Helvetica,sans-Serif" font-size="11.00" fill="#000000">bigint[19]</text>
<polygon fill="none" stroke="#000000" points="225.5,-295.7 225.5,-317.7 373.5,-317.7 373.5,-295.7 225.5,-295.7"/>
<text text-anchor="start" x="245.5" y="-302.8" font-family="Helvetica,sans-Serif" font-size="11.00" fill="#000000">level</text>
<polygon fill="none" stroke="#000000" points="373.5,-295.7 373.5,-317.7 434.5,-317.7 434.5,-295.7 373.5,-295.7"/>
<text text-anchor="start" x="376.494" y="-303.4" font-family="Helvetica,sans-Serif" font-size="11.00" fill="#000000">varchar[15]</text>
<polygon fill="none" stroke="#000000" points="225.5,-273.7 225.5,-295.7 373.5,-295.7 373.5,-273.7 225.5,-273.7"/>
<text text-anchor="start" x="245.5" y="-280.8" font-family="Helvetica,sans-Serif" font-size="11.00" fill="#000000">language</text>
<polygon fill="none" stroke="#000000" points="373.5,-273.7 373.5,-295.7 434.5,-295.7 434.5,-273.7 373.5,-273.7"/>
<text text-anchor="start" x="376.5" y="-281.4" font-family="Helvetica,sans-Serif" font-size="11.00" fill="#000000">varchar[2]</text>
<polygon fill="#ffffff" stroke="transparent" points="225.5,-254.7 225.5,-273.7 287.5,-273.7 287.5,-254.7 225.5,-254.7"/>
<polygon fill="none" stroke="#000000" points="225.5,-254.7 225.5,-273.7 287.5,-273.7 287.5,-254.7 225.5,-254.7"/>
<text text-anchor="start" x="228.5" y="-260.8" font-family="Helvetica,sans-Serif" font-size="11.00" fill="#000000">&lt; 1</text>
<polygon fill="#ffffff" stroke="transparent" points="287.5,-254.7 287.5,-273.7 373.5,-273.7 373.5,-254.7 287.5,-254.7"/>
<polygon fill="none" stroke="#000000" points="287.5,-254.7 287.5,-273.7 373.5,-273.7 373.5,-254.7 287.5,-254.7"/>
<text text-anchor="start" x="331.9956" y="-260.8" font-family="Helvetica,sans-Serif" font-size="11.00" fill="#000000">32 rows</text>
<polygon fill="#ffffff" stroke="transparent" points="373.5,-254.7 373.5,-273.7 434.5,-273.7 434.5,-254.7 373.5,-254.7"/>
<polygon fill="none" stroke="#000000" points="373.5,-254.7 373.5,-273.7 434.5,-273.7 434.5,-254.7 373.5,-254.7"/>
<text text-anchor="start" x="415.9053" y="-260.8" font-family="Helvetica,sans-Serif" font-size="11.00" fill="#000000">0 &gt;</text>
<polygon fill="none" stroke="#000000" stroke-width="2" points="224,-253.7 224,-385.7 435,-385.7 435,-253.7 224,-253.7"/>
</a>
</g>
</g>
<!-- job_request -->
<g id="node2" class="node">
<title>job_request</title>
<g id="a_node2"><a xlink:href="../../tables/job_request.html" xlink:title="job_request" target="_top">
<polygon fill="#ffffff" stroke="transparent" points="8,-38.2 8,-363.2 174,-363.2 174,-38.2 8,-38.2"/>
<polygon fill="#f5f5f5" stroke="transparent" points="8,-339.7 8,-362.7 174,-362.7 174,-339.7 8,-339.7"/>
<polygon fill="none" stroke="#000000" points="8,-339.7 8,-362.7 174,-362.7 174,-339.7 8,-339.7"/>
<text text-anchor="start" x="13" y="-348.8" font-family="Helvetica,sans-Serif" font-weight="bold" font-size="11.00" fill="#000000">job_request</text>
<text text-anchor="start" x="139.0437" y="-347.8" font-family="Helvetica,sans-Serif" font-size="11.00" fill="#000000">[table]</text>
<polygon fill="none" stroke="#000000" points="8,-317.7 8,-339.7 174,-339.7 174,-317.7 8,-317.7"/>
<image xlink:href="../../images/primaryKeys.png" width="11px" height="12px" preserveAspectRatio="xMinYMin meet" x="13" y="-334.7"/>
<text text-anchor="start" x="28" y="-324.8" font-family="Helvetica,sans-Serif" font-size="11.00" fill="#000000">id</text>
<polygon fill="#ffffff" stroke="transparent" points="8,-295.7 8,-317.7 174,-317.7 174,-295.7 8,-295.7"/>
<polygon fill="none" stroke="#000000" points="8,-295.7 8,-317.7 174,-317.7 174,-295.7 8,-295.7"/>
<image xlink:href="../../images/foreignKeys.png" width="11px" height="12px" preserveAspectRatio="xMinYMin meet" x="13" y="-312.7"/>
<text text-anchor="start" x="28" y="-302.8" font-family="Helvetica,sans-Serif" font-size="11.00" fill="#000000">created_by</text>
<polygon fill="#ffffff" stroke="transparent" points="8,-273.7 8,-295.7 174,-295.7 174,-273.7 8,-273.7"/>
<polygon fill="none" stroke="#000000" points="8,-273.7 8,-295.7 174,-295.7 174,-273.7 8,-273.7"/>
<image xlink:href="../../images/foreignKeys.png" width="11px" height="12px" preserveAspectRatio="xMinYMin meet" x="13" y="-290.7"/>
<text text-anchor="start" x="28" y="-280.8" font-family="Helvetica,sans-Serif" font-size="11.00" fill="#000000">modified_by</text>
<polygon fill="#ffffff" stroke="transparent" points="8,-251.7 8,-273.7 174,-273.7 174,-251.7 8,-251.7"/>
<polygon fill="none" stroke="#000000" points="8,-251.7 8,-273.7 174,-273.7 174,-251.7 8,-251.7"/>
<image xlink:href="../../images/foreignKeys.png" width="11px" height="12px" preserveAspectRatio="xMinYMin meet" x="13" y="-268.7"/>
<text text-anchor="start" x="28" y="-258.8" font-family="Helvetica,sans-Serif" font-size="11.00" fill="#000000">location_id</text>
<polygon fill="#ffffff" stroke="transparent" points="8,-229.7 8,-251.7 174,-251.7 174,-229.7 8,-229.7"/>
<polygon fill="none" stroke="#000000" points="8,-229.7 8,-251.7 174,-251.7 174,-229.7 8,-229.7"/>
<image xlink:href="../../images/foreignKeys.png" width="11px" height="12px" preserveAspectRatio="xMinYMin meet" x="13" y="-246.7"/>
<text text-anchor="start" x="28" y="-236.8" font-family="Helvetica,sans-Serif" font-size="11.00" fill="#000000">rate_card_id</text>
<polygon fill="#ffffff" stroke="transparent" points="8,-207.7 8,-229.7 174,-229.7 174,-207.7 8,-207.7"/>
<polygon fill="none" stroke="#000000" points="8,-207.7 8,-229.7 174,-229.7 174,-207.7 8,-207.7"/>
<image xlink:href="../../images/foreignKeys.png" width="11px" height="12px" preserveAspectRatio="xMinYMin meet" x="13" y="-224.7"/>
<text text-anchor="start" x="28" y="-214.8" font-family="Helvetica,sans-Serif" font-size="11.00" fill="#000000">source_job_request_id</text>
<polygon fill="#ffffff" stroke="transparent" points="8,-185.7 8,-207.7 174,-207.7 174,-185.7 8,-185.7"/>
<polygon fill="none" stroke="#000000" points="8,-185.7 8,-207.7 174,-207.7 174,-185.7 8,-185.7"/>
<image xlink:href="../../images/foreignKeys.png" width="11px" height="12px" preserveAspectRatio="xMinYMin meet" x="13" y="-202.7"/>
<text text-anchor="start" x="28" y="-192.8" font-family="Helvetica,sans-Serif" font-size="11.00" fill="#000000">eworker_id</text>
<polygon fill="#ffffff" stroke="transparent" points="8,-163.7 8,-185.7 174,-185.7 174,-163.7 8,-163.7"/>
<polygon fill="none" stroke="#000000" points="8,-163.7 8,-185.7 174,-185.7 174,-163.7 8,-163.7"/>
<image xlink:href="../../images/foreignKeys.png" width="11px" height="12px" preserveAspectRatio="xMinYMin meet" x="13" y="-180.7"/>
<text text-anchor="start" x="28" y="-170.8" font-family="Helvetica,sans-Serif" font-size="11.00" fill="#000000">unit_id</text>
<polygon fill="#ffffff" stroke="transparent" points="8,-141.7 8,-163.7 174,-163.7 174,-141.7 8,-141.7"/>
<polygon fill="none" stroke="#000000" points="8,-141.7 8,-163.7 174,-163.7 174,-141.7 8,-141.7"/>
<image xlink:href="../../images/foreignKeys.png" width="11px" height="12px" preserveAspectRatio="xMinYMin meet" x="13" y="-158.7"/>
<text text-anchor="start" x="28" y="-148.8" font-family="Helvetica,sans-Serif" font-size="11.00" fill="#000000">closed_eworker_id</text>
<polygon fill="#ffffff" stroke="transparent" points="8,-119.7 8,-141.7 174,-141.7 174,-119.7 8,-119.7"/>
<polygon fill="none" stroke="#000000" points="8,-119.7 8,-141.7 174,-141.7 174,-119.7 8,-119.7"/>
<image xlink:href="../../images/foreignKeys.png" width="11px" height="12px" preserveAspectRatio="xMinYMin meet" x="13" y="-136.7"/>
<text text-anchor="start" x="28" y="-126.8" font-family="Helvetica,sans-Serif" font-size="11.00" fill="#000000">client_contact_id</text>
<polygon fill="#ffffff" stroke="transparent" points="8,-97.7 8,-119.7 174,-119.7 174,-97.7 8,-97.7"/>
<polygon fill="none" stroke="#000000" points="8,-97.7 8,-119.7 174,-119.7 174,-97.7 8,-97.7"/>
<image xlink:href="../../images/foreignKeys.png" width="11px" height="12px" preserveAspectRatio="xMinYMin meet" x="13" y="-114.7"/>
<text text-anchor="start" x="28" y="-104.8" font-family="Helvetica,sans-Serif" font-size="11.00" fill="#000000">client_id</text>
<polygon fill="#ffffff" stroke="transparent" points="8,-75.7 8,-97.7 174,-97.7 174,-75.7 8,-75.7"/>
<polygon fill="none" stroke="#000000" points="8,-75.7 8,-97.7 174,-97.7 174,-75.7 8,-75.7"/>
<image xlink:href="../../images/foreignKeys.png" width="11px" height="12px" preserveAspectRatio="xMinYMin meet" x="13" y="-92.7"/>
<text text-anchor="start" x="28" y="-82.8" font-family="Helvetica,sans-Serif" font-size="11.00" fill="#000000">role_id</text>
<polygon fill="none" stroke="#000000" points="8,-56.7 8,-75.7 174,-75.7 174,-56.7 8,-56.7"/>
<text text-anchor="start" x="11" y="-62.8" font-family="Helvetica,sans-Serif" font-size="11.00" fill="#000000">...</text>
<polygon fill="#ffffff" stroke="transparent" points="8,-37.7 8,-56.7 69,-56.7 69,-37.7 8,-37.7"/>
<polygon fill="none" stroke="#000000" points="8,-37.7 8,-56.7 69,-56.7 69,-37.7 8,-37.7"/>
<text text-anchor="start" x="11" y="-43.8" font-family="Helvetica,sans-Serif" font-size="11.00" fill="#000000">&lt; 11</text>
<polygon fill="#ffffff" stroke="transparent" points="69,-37.7 69,-56.7 136,-56.7 136,-37.7 69,-37.7"/>
<polygon fill="none" stroke="#000000" points="69,-37.7 69,-56.7 136,-56.7 136,-37.7 69,-37.7"/>
<text text-anchor="start" x="88.3807" y="-43.8" font-family="Helvetica,sans-Serif" font-size="11.00" fill="#000000">254 rows</text>
<polygon fill="#ffffff" stroke="transparent" points="136,-37.7 136,-56.7 174,-56.7 174,-37.7 136,-37.7"/>
<polygon fill="none" stroke="#000000" points="136,-37.7 136,-56.7 174,-56.7 174,-37.7 136,-37.7"/>
<text text-anchor="start" x="155.4053" y="-43.8" font-family="Helvetica,sans-Serif" font-size="11.00" fill="#000000">7 &gt;</text>
</a>
</g>
</g>
<!-- job_request_language&#45;&gt;job_request -->
<g id="edge1" class="edge">
<title>job_request_language:w&#45;&gt;job_request:e</title>
<path fill="none" stroke="#000000" d="M211.0156,-328.7C198.6771,-328.7 191.1667,-328.7 174,-328.7"/>
<polygon fill="#000000" stroke="#000000" points="217.5,-328.7001 225.5,-332.3 221.5,-328.7 225.5,-328.7 225.5,-328.7 225.5,-328.7 221.5,-328.7 225.5,-325.1 217.5,-328.7001 217.5,-328.7001"/>
<ellipse fill="none" stroke="#000000" cx="214.3" cy="-328.7001" rx="3.2" ry="3.2"/>
</g>
</g>
</svg>
