<?xml version="1.0" encoding="UTF-8" standalone="no"?>
<!DOCTYPE svg PUBLIC "-//W3C//DTD SVG 1.1//EN"
 "http://www.w3.org/Graphics/SVG/1.1/DTD/svg11.dtd">
<!-- Generated by graphviz version 2.40.1 (20161225.0304)
 -->
<!-- Title: oneDegreeRelationshipsDiagram Pages: 1 -->
<svg width="649pt" height="414pt"
 viewBox="0.00 0.00 649.00 413.70" xmlns="http://www.w3.org/2000/svg" xmlns:xlink="http://www.w3.org/1999/xlink">
<g id="graph0" class="graph" transform="scale(1 1) rotate(0) translate(4 409.7)">
<title>oneDegreeRelationshipsDiagram</title>
<polygon fill="#ffffff" stroke="transparent" points="-4,4 -4,-409.7 645,-409.7 645,4 -4,4"/>
<text text-anchor="middle" x="72.4936" y="-7.3" font-family="Helvetica,sans-Serif" font-size="11.00" fill="#000000">Generated by SchemaSpy</text>
<!-- job_request_application -->
<g id="node1" class="node">
<title>job_request_application</title>
<g id="a_node1"><a xlink:href="../../tables/job_request_application.html" xlink:title="job_request_application" target="_top">
<polygon fill="#ffffff" stroke="transparent" points="149,-38.2 149,-275.2 308,-275.2 308,-38.2 149,-38.2"/>
<polygon fill="#f5f5f5" stroke="transparent" points="149.5,-251.7 149.5,-274.7 308.5,-274.7 308.5,-251.7 149.5,-251.7"/>
<polygon fill="none" stroke="#000000" points="149.5,-251.7 149.5,-274.7 308.5,-274.7 308.5,-251.7 149.5,-251.7"/>
<text text-anchor="start" x="154.4261" y="-260.8" font-family="Helvetica,sans-Serif" font-weight="bold" font-size="11.00" fill="#000000">job_request_application</text>
<text text-anchor="start" x="274.0219" y="-259.8" font-family="Helvetica,sans-Serif" font-size="11.00" fill="#000000">[table]</text>
<polygon fill="none" stroke="#000000" points="149.5,-229.7 149.5,-251.7 308.5,-251.7 308.5,-229.7 149.5,-229.7"/>
<image xlink:href="../../images/primaryKeys.png" width="11px" height="12px" preserveAspectRatio="xMinYMin meet" x="154.5" y="-246.7"/>
<text text-anchor="start" x="169.5" y="-236.8" font-family="Helvetica,sans-Serif" font-size="11.00" fill="#000000">id</text>
<polygon fill="#ffffff" stroke="transparent" points="149.5,-207.7 149.5,-229.7 308.5,-229.7 308.5,-207.7 149.5,-207.7"/>
<polygon fill="none" stroke="#000000" points="149.5,-207.7 149.5,-229.7 308.5,-229.7 308.5,-207.7 149.5,-207.7"/>
<image xlink:href="../../images/foreignKeys.png" width="11px" height="12px" preserveAspectRatio="xMinYMin meet" x="154.5" y="-224.7"/>
<text text-anchor="start" x="169.5" y="-214.8" font-family="Helvetica,sans-Serif" font-size="11.00" fill="#000000">created_by</text>
<polygon fill="#ffffff" stroke="transparent" points="149.5,-185.7 149.5,-207.7 308.5,-207.7 308.5,-185.7 149.5,-185.7"/>
<polygon fill="none" stroke="#000000" points="149.5,-185.7 149.5,-207.7 308.5,-207.7 308.5,-185.7 149.5,-185.7"/>
<image xlink:href="../../images/foreignKeys.png" width="11px" height="12px" preserveAspectRatio="xMinYMin meet" x="154.5" y="-202.7"/>
<text text-anchor="start" x="169.5" y="-192.8" font-family="Helvetica,sans-Serif" font-size="11.00" fill="#000000">modified_by</text>
<polygon fill="#ffffff" stroke="transparent" points="149.5,-163.7 149.5,-185.7 308.5,-185.7 308.5,-163.7 149.5,-163.7"/>
<polygon fill="none" stroke="#000000" points="149.5,-163.7 149.5,-185.7 308.5,-185.7 308.5,-163.7 149.5,-163.7"/>
<image xlink:href="../../images/foreignKeys.png" width="11px" height="12px" preserveAspectRatio="xMinYMin meet" x="154.5" y="-180.7"/>
<text text-anchor="start" x="169.5" y="-170.8" font-family="Helvetica,sans-Serif" font-size="11.00" fill="#000000">job_request_id</text>
<polygon fill="#ffffff" stroke="transparent" points="149.5,-141.7 149.5,-163.7 308.5,-163.7 308.5,-141.7 149.5,-141.7"/>
<polygon fill="none" stroke="#000000" points="149.5,-141.7 149.5,-163.7 308.5,-163.7 308.5,-141.7 149.5,-141.7"/>
<image xlink:href="../../images/foreignKeys.png" width="11px" height="12px" preserveAspectRatio="xMinYMin meet" x="154.5" y="-158.7"/>
<text text-anchor="start" x="169.5" y="-148.8" font-family="Helvetica,sans-Serif" font-size="11.00" fill="#000000">supplier_id</text>
<polygon fill="#ffffff" stroke="transparent" points="149.5,-119.7 149.5,-141.7 308.5,-141.7 308.5,-119.7 149.5,-119.7"/>
<polygon fill="none" stroke="#000000" points="149.5,-119.7 149.5,-141.7 308.5,-141.7 308.5,-119.7 149.5,-119.7"/>
<text text-anchor="start" x="169.5" y="-126.8" font-family="Helvetica,sans-Serif" font-size="11.00" fill="#000000">marketplace_id</text>
<polygon fill="#ffffff" stroke="transparent" points="149.5,-97.7 149.5,-119.7 308.5,-119.7 308.5,-97.7 149.5,-97.7"/>
<polygon fill="none" stroke="#000000" points="149.5,-97.7 149.5,-119.7 308.5,-119.7 308.5,-97.7 149.5,-97.7"/>
<image xlink:href="../../images/foreignKeys.png" width="11px" height="12px" preserveAspectRatio="xMinYMin meet" x="154.5" y="-114.7"/>
<text text-anchor="start" x="169.5" y="-104.8" font-family="Helvetica,sans-Serif" font-size="11.00" fill="#000000">applicant_id</text>
<polygon fill="#ffffff" stroke="transparent" points="149.5,-75.7 149.5,-97.7 308.5,-97.7 308.5,-75.7 149.5,-75.7"/>
<polygon fill="none" stroke="#000000" points="149.5,-75.7 149.5,-97.7 308.5,-97.7 308.5,-75.7 149.5,-75.7"/>
<image xlink:href="../../images/foreignKeys.png" width="11px" height="12px" preserveAspectRatio="xMinYMin meet" x="154.5" y="-92.7"/>
<text text-anchor="start" x="169.5" y="-82.8" font-family="Helvetica,sans-Serif" font-size="11.00" fill="#000000">avatar_id</text>
<polygon fill="none" stroke="#000000" points="149.5,-56.7 149.5,-75.7 308.5,-75.7 308.5,-56.7 149.5,-56.7"/>
<text text-anchor="start" x="152.5" y="-62.8" font-family="Helvetica,sans-Serif" font-size="11.00" fill="#000000">...</text>
<polygon fill="#ffffff" stroke="transparent" points="149.5,-37.7 149.5,-56.7 206.5,-56.7 206.5,-37.7 149.5,-37.7"/>
<polygon fill="none" stroke="#000000" points="149.5,-37.7 149.5,-56.7 206.5,-56.7 206.5,-37.7 149.5,-37.7"/>
<text text-anchor="start" x="152.5" y="-43.8" font-family="Helvetica,sans-Serif" font-size="11.00" fill="#000000">&lt; 6</text>
<polygon fill="#ffffff" stroke="transparent" points="206.5,-37.7 206.5,-56.7 268.5,-56.7 268.5,-37.7 206.5,-37.7"/>
<polygon fill="none" stroke="#000000" points="206.5,-37.7 206.5,-56.7 268.5,-56.7 268.5,-37.7 206.5,-37.7"/>
<text text-anchor="start" x="226.9956" y="-43.8" font-family="Helvetica,sans-Serif" font-size="11.00" fill="#000000">75 rows</text>
<polygon fill="#ffffff" stroke="transparent" points="268.5,-37.7 268.5,-56.7 308.5,-56.7 308.5,-37.7 268.5,-37.7"/>
<polygon fill="none" stroke="#000000" points="268.5,-37.7 268.5,-56.7 308.5,-56.7 308.5,-37.7 268.5,-37.7"/>
<text text-anchor="start" x="289.9053" y="-43.8" font-family="Helvetica,sans-Serif" font-size="11.00" fill="#000000">5 &gt;</text>
</a>
</g>
</g>
<!-- principal -->
<g id="node2" class="node">
<title>principal</title>
<g id="a_node2"><a xlink:href="../../tables/principal.html" xlink:title="principal" target="_top">
<polygon fill="#ffffff" stroke="transparent" points="8,-188.2 8,-293.2 100,-293.2 100,-188.2 8,-188.2"/>
<polygon fill="#f5f5f5" stroke="transparent" points="8,-269.7 8,-292.7 100,-292.7 100,-269.7 8,-269.7"/>
<polygon fill="none" stroke="#000000" points="8,-269.7 8,-292.7 100,-292.7 100,-269.7 8,-269.7"/>
<text text-anchor="start" x="13" y="-278.8" font-family="Helvetica,sans-Serif" font-weight="bold" font-size="11.00" fill="#000000">principal</text>
<text text-anchor="start" x="65.0437" y="-277.8" font-family="Helvetica,sans-Serif" font-size="11.00" fill="#000000">[table]</text>
<polygon fill="none" stroke="#000000" points="8,-247.7 8,-269.7 100,-269.7 100,-247.7 8,-247.7"/>
<image xlink:href="../../images/primaryKeys.png" width="11px" height="12px" preserveAspectRatio="xMinYMin meet" x="13" y="-264.7"/>
<text text-anchor="start" x="32" y="-254.8" font-family="Helvetica,sans-Serif" font-size="11.00" fill="#000000">id</text>
<polygon fill="#ffffff" stroke="transparent" points="8,-225.7 8,-247.7 100,-247.7 100,-225.7 8,-225.7"/>
<polygon fill="none" stroke="#000000" points="8,-225.7 8,-247.7 100,-247.7 100,-225.7 8,-225.7"/>
<image xlink:href="../../images/foreignKeys.png" width="11px" height="12px" preserveAspectRatio="xMinYMin meet" x="13" y="-242.7"/>
<text text-anchor="start" x="32" y="-232.8" font-family="Helvetica,sans-Serif" font-size="11.00" fill="#000000">eworker_id</text>
<polygon fill="none" stroke="#000000" points="8,-206.7 8,-225.7 100,-225.7 100,-206.7 8,-206.7"/>
<text text-anchor="start" x="11" y="-212.8" font-family="Helvetica,sans-Serif" font-size="11.00" fill="#000000">...</text>
<polygon fill="#ffffff" stroke="transparent" points="8,-187.7 8,-206.7 29,-206.7 29,-187.7 8,-187.7"/>
<polygon fill="none" stroke="#000000" points="8,-187.7 8,-206.7 29,-206.7 29,-187.7 8,-187.7"/>
<text text-anchor="start" x="10.7027" y="-193.8" font-family="Helvetica,sans-Serif" font-size="11.00" fill="#000000">&lt; 1</text>
<polygon fill="#ffffff" stroke="transparent" points="29,-187.7 29,-206.7 73,-206.7 73,-187.7 29,-187.7"/>
<polygon fill="none" stroke="#000000" points="29,-187.7 29,-206.7 73,-206.7 73,-187.7 29,-187.7"/>
<text text-anchor="start" x="31.7478" y="-193.8" font-family="Helvetica,sans-Serif" font-size="11.00" fill="#000000">18 rows</text>
<polygon fill="#ffffff" stroke="transparent" points="73,-187.7 73,-206.7 100,-206.7 100,-187.7 73,-187.7"/>
<polygon fill="none" stroke="#000000" points="73,-187.7 73,-206.7 100,-206.7 100,-187.7 73,-187.7"/>
<text text-anchor="start" x="75.6452" y="-193.8" font-family="Helvetica,sans-Serif" font-size="11.00" fill="#000000">56 &gt;</text>
</a>
</g>
</g>
<!-- job_request_application&#45;&gt;principal -->
<g id="edge1" class="edge">
<title>job_request_application:w&#45;&gt;principal:e</title>
<path fill="none" stroke="#000000" d="M135.6565,-223.2885C122.6245,-233.7952 122.3187,-258.7 100,-258.7"/>
<polygon fill="#000000" stroke="#000000" points="141.9063,-221.217 150.6327,-222.1172 145.7031,-219.9585 149.5,-218.7 149.5,-218.7 149.5,-218.7 145.7031,-219.9585 148.3673,-215.2828 141.9063,-221.217 141.9063,-221.217"/>
<ellipse fill="none" stroke="#000000" cx="138.8688" cy="-222.2238" rx="3.2" ry="3.2"/>
</g>
<!-- job_request_application&#45;&gt;principal -->
<g id="edge2" class="edge">
<title>job_request_application:w&#45;&gt;principal:e</title>
<path fill="none" stroke="#000000" d="M135.7351,-201.565C119.8028,-216.181 129.2002,-258.7 100,-258.7"/>
<polygon fill="#000000" stroke="#000000" points="141.9573,-199.3659 150.6997,-200.0942 145.7286,-198.033 149.5,-196.7 149.5,-196.7 149.5,-196.7 145.7286,-198.033 148.3003,-193.3058 141.9573,-199.3659 141.9573,-199.3659"/>
<ellipse fill="none" stroke="#000000" cx="138.9402" cy="-200.4323" rx="3.2" ry="3.2"/>
</g>
<!-- job_request_application_history -->
<g id="node3" class="node">
<title>job_request_application_history</title>
<g id="a_node3"><a xlink:href="../../tables/job_request_application_history.html" xlink:title="job_request_application_history" target="_top">
<polygon fill="#ffffff" stroke="transparent" points="357,-179.7 357,-401.7 633,-401.7 633,-179.7 357,-179.7"/>
<polygon fill="#f5f5f5" stroke="transparent" points="359,-376.7 359,-399.7 631,-399.7 631,-376.7 359,-376.7"/>
<polygon fill="none" stroke="#000000" points="359,-376.7 359,-399.7 631,-399.7 631,-376.7 359,-376.7"/>
<text text-anchor="start" x="364" y="-385.8" font-family="Helvetica,sans-Serif" font-weight="bold" font-size="11.00" fill="#000000">job_request_application_history</text>
<text text-anchor="start" x="596.0437" y="-384.8" font-family="Helvetica,sans-Serif" font-size="11.00" fill="#000000">[table]</text>
<polygon fill="none" stroke="#000000" points="359,-354.7 359,-376.7 564,-376.7 564,-354.7 359,-354.7"/>
<image xlink:href="../../images/primaryKeys.png" width="11px" height="12px" preserveAspectRatio="xMinYMin meet" x="364" y="-371.7"/>
<text text-anchor="start" x="379" y="-361.8" font-family="Helvetica,sans-Serif" font-size="11.00" fill="#000000">id</text>
<polygon fill="none" stroke="#000000" points="564,-354.7 564,-376.7 631,-376.7 631,-354.7 564,-354.7"/>
<text text-anchor="start" x="567" y="-362.4" font-family="Helvetica,sans-Serif" font-size="11.00" fill="#000000">bigint[19]</text>
<polygon fill="#ffffff" stroke="transparent" points="359,-332.7 359,-354.7 564,-354.7 564,-332.7 359,-332.7"/>
<polygon fill="none" stroke="#000000" points="359,-332.7 359,-354.7 564,-354.7 564,-332.7 359,-332.7"/>
<image xlink:href="../../images/foreignKeys.png" width="11px" height="12px" preserveAspectRatio="xMinYMin meet" x="364" y="-349.7"/>
<text text-anchor="start" x="379" y="-339.8" font-family="Helvetica,sans-Serif" font-size="11.00" fill="#000000">created_by</text>
<polygon fill="none" stroke="#000000" points="564,-332.7 564,-354.7 631,-354.7 631,-332.7 564,-332.7"/>
<text text-anchor="start" x="567" y="-340.4" font-family="Helvetica,sans-Serif" font-size="11.00" fill="#000000">bigint[19]</text>
<polygon fill="none" stroke="#000000" points="359,-310.7 359,-332.7 564,-332.7 564,-310.7 359,-310.7"/>
<text text-anchor="start" x="379" y="-317.8" font-family="Helvetica,sans-Serif" font-size="11.00" fill="#000000">creation_date</text>
<polygon fill="none" stroke="#000000" points="564,-310.7 564,-332.7 631,-332.7 631,-310.7 564,-310.7"/>
<text text-anchor="start" x="567" y="-318.4" font-family="Helvetica,sans-Serif" font-size="11.00" fill="#000000">datetime[26]</text>
<polygon fill="#ffffff" stroke="transparent" points="359,-288.7 359,-310.7 564,-310.7 564,-288.7 359,-288.7"/>
<polygon fill="none" stroke="#000000" points="359,-288.7 359,-310.7 564,-310.7 564,-288.7 359,-288.7"/>
<image xlink:href="../../images/foreignKeys.png" width="11px" height="12px" preserveAspectRatio="xMinYMin meet" x="364" y="-305.7"/>
<text text-anchor="start" x="379" y="-295.8" font-family="Helvetica,sans-Serif" font-size="11.00" fill="#000000">modified_by</text>
<polygon fill="none" stroke="#000000" points="564,-288.7 564,-310.7 631,-310.7 631,-288.7 564,-288.7"/>
<text text-anchor="start" x="567" y="-296.4" font-family="Helvetica,sans-Serif" font-size="11.00" fill="#000000">bigint[19]</text>
<polygon fill="none" stroke="#000000" points="359,-266.7 359,-288.7 564,-288.7 564,-266.7 359,-266.7"/>
<text text-anchor="start" x="379" y="-273.8" font-family="Helvetica,sans-Serif" font-size="11.00" fill="#000000">modification_date</text>
<polygon fill="none" stroke="#000000" points="564,-266.7 564,-288.7 631,-288.7 631,-266.7 564,-266.7"/>
<text text-anchor="start" x="567" y="-274.4" font-family="Helvetica,sans-Serif" font-size="11.00" fill="#000000">datetime[26]</text>
<polygon fill="none" stroke="#000000" points="359,-244.7 359,-266.7 564,-266.7 564,-244.7 359,-244.7"/>
<text text-anchor="start" x="379" y="-251.8" font-family="Helvetica,sans-Serif" font-size="11.00" fill="#000000">change_date</text>
<polygon fill="none" stroke="#000000" points="564,-244.7 564,-266.7 631,-266.7 631,-244.7 564,-244.7"/>
<text text-anchor="start" x="567" y="-252.4" font-family="Helvetica,sans-Serif" font-size="11.00" fill="#000000">datetime[26]</text>
<polygon fill="none" stroke="#000000" points="359,-222.7 359,-244.7 564,-244.7 564,-222.7 359,-222.7"/>
<text text-anchor="start" x="379" y="-229.8" font-family="Helvetica,sans-Serif" font-size="11.00" fill="#000000">stage</text>
<polygon fill="none" stroke="#000000" points="564,-222.7 564,-244.7 631,-244.7 631,-222.7 564,-222.7"/>
<text text-anchor="start" x="566.9365" y="-230.4" font-family="Helvetica,sans-Serif" font-size="11.00" fill="#000000">varchar[255]</text>
<polygon fill="#ffffff" stroke="transparent" points="359,-200.7 359,-222.7 564,-222.7 564,-200.7 359,-200.7"/>
<polygon fill="none" stroke="#000000" points="359,-200.7 359,-222.7 564,-222.7 564,-200.7 359,-200.7"/>
<image xlink:href="../../images/foreignKeys.png" width="11px" height="12px" preserveAspectRatio="xMinYMin meet" x="364" y="-217.7"/>
<text text-anchor="start" x="379" y="-207.8" font-family="Helvetica,sans-Serif" font-size="11.00" fill="#000000">job_request_application_id</text>
<polygon fill="none" stroke="#000000" points="564,-200.7 564,-222.7 631,-222.7 631,-200.7 564,-200.7"/>
<text text-anchor="start" x="567" y="-208.4" font-family="Helvetica,sans-Serif" font-size="11.00" fill="#000000">bigint[19]</text>
<polygon fill="#ffffff" stroke="transparent" points="359,-181.7 359,-200.7 450,-200.7 450,-181.7 359,-181.7"/>
<polygon fill="none" stroke="#000000" points="359,-181.7 359,-200.7 450,-200.7 450,-181.7 359,-181.7"/>
<text text-anchor="start" x="362" y="-187.8" font-family="Helvetica,sans-Serif" font-size="11.00" fill="#000000">&lt; 3</text>
<polygon fill="#ffffff" stroke="transparent" points="450,-181.7 450,-200.7 564,-200.7 564,-181.7 450,-181.7"/>
<polygon fill="none" stroke="#000000" points="450,-181.7 450,-200.7 564,-200.7 564,-181.7 450,-181.7"/>
<text text-anchor="start" x="522.4956" y="-187.8" font-family="Helvetica,sans-Serif" font-size="11.00" fill="#000000">34 rows</text>
<polygon fill="#ffffff" stroke="transparent" points="564,-181.7 564,-200.7 631,-200.7 631,-181.7 564,-181.7"/>
<polygon fill="none" stroke="#000000" points="564,-181.7 564,-200.7 631,-200.7 631,-181.7 564,-181.7"/>
<text text-anchor="start" x="612.4053" y="-187.8" font-family="Helvetica,sans-Serif" font-size="11.00" fill="#000000">0 &gt;</text>
<polygon fill="none" stroke="#000000" stroke-width="2" points="358,-180.7 358,-400.7 632,-400.7 632,-180.7 358,-180.7"/>
</a>
</g>
</g>
<!-- job_request_application_history&#45;&gt;job_request_application -->
<g id="edge4" class="edge">
<title>job_request_application_history:w&#45;&gt;job_request_application:e</title>
<path fill="none" stroke="#000000" d="M344.9572,-215.4912C332.2973,-223.352 328.5181,-240.7 308.5,-240.7"/>
<polygon fill="#000000" stroke="#000000" points="351.2765,-213.7852 359.9383,-215.1756 355.1383,-212.7426 359,-211.7 359,-211.7 359,-211.7 355.1383,-212.7426 358.0617,-208.2244 351.2765,-213.7852 351.2765,-213.7852"/>
<ellipse fill="none" stroke="#000000" cx="348.1871" cy="-214.6193" rx="3.2" ry="3.2"/>
</g>
<!-- job_request_application_history&#45;&gt;principal -->
<g id="edge3" class="edge">
<title>job_request_application_history:w&#45;&gt;principal:e</title>
<path fill="none" stroke="#000000" d="M344.5339,-343.8063C257.2519,-345.0662 221.5825,-356.2882 141,-309.7 115.8219,-295.1435 129.0831,-258.7 100,-258.7"/>
<polygon fill="#000000" stroke="#000000" points="351.0002,-343.7588 359.0265,-347.2999 355.0001,-343.7294 359,-343.7 359,-343.7 359,-343.7 355.0001,-343.7294 358.9735,-340.1001 351.0002,-343.7588 351.0002,-343.7588"/>
<ellipse fill="none" stroke="#000000" cx="347.8003" cy="-343.7824" rx="3.2" ry="3.2"/>
</g>
<!-- job_request_application_history&#45;&gt;principal -->
<g id="edge5" class="edge">
<title>job_request_application_history:w&#45;&gt;principal:e</title>
<path fill="none" stroke="#000000" d="M344.4549,-299.8264C258.7556,-301.3154 228.2955,-314.9433 141,-285.7 120.3114,-278.7695 121.8186,-258.7 100,-258.7"/>
<polygon fill="#000000" stroke="#000000" points="351.0003,-299.7696 359.0313,-303.2999 355.0002,-299.7348 359,-299.7 359,-299.7 359,-299.7 355.0002,-299.7348 358.9687,-296.1001 351.0003,-299.7696 351.0003,-299.7696"/>
<ellipse fill="none" stroke="#000000" cx="347.8004" cy="-299.7974" rx="3.2" ry="3.2"/>
</g>
</g>
</svg>
