<?xml version="1.0" encoding="UTF-8" standalone="no"?>
<!DOCTYPE svg PUBLIC "-//W3C//DTD SVG 1.1//EN"
 "http://www.w3.org/Graphics/SVG/1.1/DTD/svg11.dtd">
<!-- Generated by graphviz version 2.40.1 (20161225.0304)
 -->
<!-- Title: oneDegreeRelationshipsDiagram Pages: 1 -->
<svg width="574pt" height="667pt"
 viewBox="0.00 0.00 574.00 666.70" xmlns="http://www.w3.org/2000/svg" xmlns:xlink="http://www.w3.org/1999/xlink">
<g id="graph0" class="graph" transform="scale(1 1) rotate(0) translate(4 662.7)">
<title>oneDegreeRelationshipsDiagram</title>
<polygon fill="#ffffff" stroke="transparent" points="-4,4 -4,-662.7 570,-662.7 570,4 -4,4"/>
<text text-anchor="middle" x="72.4936" y="-7.3" font-family="Helvetica,sans-Serif" font-size="11.00" fill="#000000">Generated by SchemaSpy</text>
<!-- job_request -->
<g id="node1" class="node">
<title>job_request</title>
<g id="a_node1"><a xlink:href="../../tables/job_request.html" xlink:title="job_request" target="_top">
<polygon fill="#ffffff" stroke="transparent" points="149,-208.2 149,-533.2 315,-533.2 315,-208.2 149,-208.2"/>
<polygon fill="#f5f5f5" stroke="transparent" points="149,-509.7 149,-532.7 315,-532.7 315,-509.7 149,-509.7"/>
<polygon fill="none" stroke="#000000" points="149,-509.7 149,-532.7 315,-532.7 315,-509.7 149,-509.7"/>
<text text-anchor="start" x="154" y="-518.8" font-family="Helvetica,sans-Serif" font-weight="bold" font-size="11.00" fill="#000000">job_request</text>
<text text-anchor="start" x="280.0437" y="-517.8" font-family="Helvetica,sans-Serif" font-size="11.00" fill="#000000">[table]</text>
<polygon fill="none" stroke="#000000" points="149,-487.7 149,-509.7 315,-509.7 315,-487.7 149,-487.7"/>
<image xlink:href="../../images/primaryKeys.png" width="11px" height="12px" preserveAspectRatio="xMinYMin meet" x="154" y="-504.7"/>
<text text-anchor="start" x="169" y="-494.8" font-family="Helvetica,sans-Serif" font-size="11.00" fill="#000000">id</text>
<polygon fill="#ffffff" stroke="transparent" points="149,-465.7 149,-487.7 315,-487.7 315,-465.7 149,-465.7"/>
<polygon fill="none" stroke="#000000" points="149,-465.7 149,-487.7 315,-487.7 315,-465.7 149,-465.7"/>
<image xlink:href="../../images/foreignKeys.png" width="11px" height="12px" preserveAspectRatio="xMinYMin meet" x="154" y="-482.7"/>
<text text-anchor="start" x="169" y="-472.8" font-family="Helvetica,sans-Serif" font-size="11.00" fill="#000000">created_by</text>
<polygon fill="#ffffff" stroke="transparent" points="149,-443.7 149,-465.7 315,-465.7 315,-443.7 149,-443.7"/>
<polygon fill="none" stroke="#000000" points="149,-443.7 149,-465.7 315,-465.7 315,-443.7 149,-443.7"/>
<image xlink:href="../../images/foreignKeys.png" width="11px" height="12px" preserveAspectRatio="xMinYMin meet" x="154" y="-460.7"/>
<text text-anchor="start" x="169" y="-450.8" font-family="Helvetica,sans-Serif" font-size="11.00" fill="#000000">modified_by</text>
<polygon fill="#ffffff" stroke="transparent" points="149,-421.7 149,-443.7 315,-443.7 315,-421.7 149,-421.7"/>
<polygon fill="none" stroke="#000000" points="149,-421.7 149,-443.7 315,-443.7 315,-421.7 149,-421.7"/>
<image xlink:href="../../images/foreignKeys.png" width="11px" height="12px" preserveAspectRatio="xMinYMin meet" x="154" y="-438.7"/>
<text text-anchor="start" x="169" y="-428.8" font-family="Helvetica,sans-Serif" font-size="11.00" fill="#000000">location_id</text>
<polygon fill="#ffffff" stroke="transparent" points="149,-399.7 149,-421.7 315,-421.7 315,-399.7 149,-399.7"/>
<polygon fill="none" stroke="#000000" points="149,-399.7 149,-421.7 315,-421.7 315,-399.7 149,-399.7"/>
<image xlink:href="../../images/foreignKeys.png" width="11px" height="12px" preserveAspectRatio="xMinYMin meet" x="154" y="-416.7"/>
<text text-anchor="start" x="169" y="-406.8" font-family="Helvetica,sans-Serif" font-size="11.00" fill="#000000">rate_card_id</text>
<polygon fill="#ffffff" stroke="transparent" points="149,-377.7 149,-399.7 315,-399.7 315,-377.7 149,-377.7"/>
<polygon fill="none" stroke="#000000" points="149,-377.7 149,-399.7 315,-399.7 315,-377.7 149,-377.7"/>
<image xlink:href="../../images/foreignKeys.png" width="11px" height="12px" preserveAspectRatio="xMinYMin meet" x="154" y="-394.7"/>
<text text-anchor="start" x="169" y="-384.8" font-family="Helvetica,sans-Serif" font-size="11.00" fill="#000000">source_job_request_id</text>
<polygon fill="#ffffff" stroke="transparent" points="149,-355.7 149,-377.7 315,-377.7 315,-355.7 149,-355.7"/>
<polygon fill="none" stroke="#000000" points="149,-355.7 149,-377.7 315,-377.7 315,-355.7 149,-355.7"/>
<image xlink:href="../../images/foreignKeys.png" width="11px" height="12px" preserveAspectRatio="xMinYMin meet" x="154" y="-372.7"/>
<text text-anchor="start" x="169" y="-362.8" font-family="Helvetica,sans-Serif" font-size="11.00" fill="#000000">eworker_id</text>
<polygon fill="#ffffff" stroke="transparent" points="149,-333.7 149,-355.7 315,-355.7 315,-333.7 149,-333.7"/>
<polygon fill="none" stroke="#000000" points="149,-333.7 149,-355.7 315,-355.7 315,-333.7 149,-333.7"/>
<image xlink:href="../../images/foreignKeys.png" width="11px" height="12px" preserveAspectRatio="xMinYMin meet" x="154" y="-350.7"/>
<text text-anchor="start" x="169" y="-340.8" font-family="Helvetica,sans-Serif" font-size="11.00" fill="#000000">unit_id</text>
<polygon fill="#ffffff" stroke="transparent" points="149,-311.7 149,-333.7 315,-333.7 315,-311.7 149,-311.7"/>
<polygon fill="none" stroke="#000000" points="149,-311.7 149,-333.7 315,-333.7 315,-311.7 149,-311.7"/>
<image xlink:href="../../images/foreignKeys.png" width="11px" height="12px" preserveAspectRatio="xMinYMin meet" x="154" y="-328.7"/>
<text text-anchor="start" x="169" y="-318.8" font-family="Helvetica,sans-Serif" font-size="11.00" fill="#000000">closed_eworker_id</text>
<polygon fill="#ffffff" stroke="transparent" points="149,-289.7 149,-311.7 315,-311.7 315,-289.7 149,-289.7"/>
<polygon fill="none" stroke="#000000" points="149,-289.7 149,-311.7 315,-311.7 315,-289.7 149,-289.7"/>
<image xlink:href="../../images/foreignKeys.png" width="11px" height="12px" preserveAspectRatio="xMinYMin meet" x="154" y="-306.7"/>
<text text-anchor="start" x="169" y="-296.8" font-family="Helvetica,sans-Serif" font-size="11.00" fill="#000000">client_contact_id</text>
<polygon fill="#ffffff" stroke="transparent" points="149,-267.7 149,-289.7 315,-289.7 315,-267.7 149,-267.7"/>
<polygon fill="none" stroke="#000000" points="149,-267.7 149,-289.7 315,-289.7 315,-267.7 149,-267.7"/>
<image xlink:href="../../images/foreignKeys.png" width="11px" height="12px" preserveAspectRatio="xMinYMin meet" x="154" y="-284.7"/>
<text text-anchor="start" x="169" y="-274.8" font-family="Helvetica,sans-Serif" font-size="11.00" fill="#000000">client_id</text>
<polygon fill="#ffffff" stroke="transparent" points="149,-245.7 149,-267.7 315,-267.7 315,-245.7 149,-245.7"/>
<polygon fill="none" stroke="#000000" points="149,-245.7 149,-267.7 315,-267.7 315,-245.7 149,-245.7"/>
<image xlink:href="../../images/foreignKeys.png" width="11px" height="12px" preserveAspectRatio="xMinYMin meet" x="154" y="-262.7"/>
<text text-anchor="start" x="169" y="-252.8" font-family="Helvetica,sans-Serif" font-size="11.00" fill="#000000">role_id</text>
<polygon fill="none" stroke="#000000" points="149,-226.7 149,-245.7 315,-245.7 315,-226.7 149,-226.7"/>
<text text-anchor="start" x="152" y="-232.8" font-family="Helvetica,sans-Serif" font-size="11.00" fill="#000000">...</text>
<polygon fill="#ffffff" stroke="transparent" points="149,-207.7 149,-226.7 210,-226.7 210,-207.7 149,-207.7"/>
<polygon fill="none" stroke="#000000" points="149,-207.7 149,-226.7 210,-226.7 210,-207.7 149,-207.7"/>
<text text-anchor="start" x="152" y="-213.8" font-family="Helvetica,sans-Serif" font-size="11.00" fill="#000000">&lt; 11</text>
<polygon fill="#ffffff" stroke="transparent" points="210,-207.7 210,-226.7 277,-226.7 277,-207.7 210,-207.7"/>
<polygon fill="none" stroke="#000000" points="210,-207.7 210,-226.7 277,-226.7 277,-207.7 210,-207.7"/>
<text text-anchor="start" x="229.3807" y="-213.8" font-family="Helvetica,sans-Serif" font-size="11.00" fill="#000000">254 rows</text>
<polygon fill="#ffffff" stroke="transparent" points="277,-207.7 277,-226.7 315,-226.7 315,-207.7 277,-207.7"/>
<polygon fill="none" stroke="#000000" points="277,-207.7 277,-226.7 315,-226.7 315,-207.7 277,-207.7"/>
<text text-anchor="start" x="296.4053" y="-213.8" font-family="Helvetica,sans-Serif" font-size="11.00" fill="#000000">7 &gt;</text>
</a>
</g>
</g>
<!-- principal -->
<g id="node2" class="node">
<title>principal</title>
<g id="a_node2"><a xlink:href="../../tables/principal.html" xlink:title="principal" target="_top">
<polygon fill="#ffffff" stroke="transparent" points="8,-395.2 8,-500.2 100,-500.2 100,-395.2 8,-395.2"/>
<polygon fill="#f5f5f5" stroke="transparent" points="8,-476.7 8,-499.7 100,-499.7 100,-476.7 8,-476.7"/>
<polygon fill="none" stroke="#000000" points="8,-476.7 8,-499.7 100,-499.7 100,-476.7 8,-476.7"/>
<text text-anchor="start" x="13" y="-485.8" font-family="Helvetica,sans-Serif" font-weight="bold" font-size="11.00" fill="#000000">principal</text>
<text text-anchor="start" x="65.0437" y="-484.8" font-family="Helvetica,sans-Serif" font-size="11.00" fill="#000000">[table]</text>
<polygon fill="none" stroke="#000000" points="8,-454.7 8,-476.7 100,-476.7 100,-454.7 8,-454.7"/>
<image xlink:href="../../images/primaryKeys.png" width="11px" height="12px" preserveAspectRatio="xMinYMin meet" x="13" y="-471.7"/>
<text text-anchor="start" x="32" y="-461.8" font-family="Helvetica,sans-Serif" font-size="11.00" fill="#000000">id</text>
<polygon fill="#ffffff" stroke="transparent" points="8,-432.7 8,-454.7 100,-454.7 100,-432.7 8,-432.7"/>
<polygon fill="none" stroke="#000000" points="8,-432.7 8,-454.7 100,-454.7 100,-432.7 8,-432.7"/>
<image xlink:href="../../images/foreignKeys.png" width="11px" height="12px" preserveAspectRatio="xMinYMin meet" x="13" y="-449.7"/>
<text text-anchor="start" x="32" y="-439.8" font-family="Helvetica,sans-Serif" font-size="11.00" fill="#000000">eworker_id</text>
<polygon fill="none" stroke="#000000" points="8,-413.7 8,-432.7 100,-432.7 100,-413.7 8,-413.7"/>
<text text-anchor="start" x="11" y="-419.8" font-family="Helvetica,sans-Serif" font-size="11.00" fill="#000000">...</text>
<polygon fill="#ffffff" stroke="transparent" points="8,-394.7 8,-413.7 29,-413.7 29,-394.7 8,-394.7"/>
<polygon fill="none" stroke="#000000" points="8,-394.7 8,-413.7 29,-413.7 29,-394.7 8,-394.7"/>
<text text-anchor="start" x="10.7027" y="-400.8" font-family="Helvetica,sans-Serif" font-size="11.00" fill="#000000">&lt; 1</text>
<polygon fill="#ffffff" stroke="transparent" points="29,-394.7 29,-413.7 73,-413.7 73,-394.7 29,-394.7"/>
<polygon fill="none" stroke="#000000" points="29,-394.7 29,-413.7 73,-413.7 73,-394.7 29,-394.7"/>
<text text-anchor="start" x="31.7478" y="-400.8" font-family="Helvetica,sans-Serif" font-size="11.00" fill="#000000">18 rows</text>
<polygon fill="#ffffff" stroke="transparent" points="73,-394.7 73,-413.7 100,-413.7 100,-394.7 73,-394.7"/>
<polygon fill="none" stroke="#000000" points="73,-394.7 73,-413.7 100,-413.7 100,-394.7 73,-394.7"/>
<text text-anchor="start" x="75.6452" y="-400.8" font-family="Helvetica,sans-Serif" font-size="11.00" fill="#000000">56 &gt;</text>
</a>
</g>
</g>
<!-- job_request&#45;&gt;principal -->
<g id="edge1" class="edge">
<title>job_request:w&#45;&gt;principal:e</title>
<path fill="none" stroke="#000000" d="M134.7027,-474.8836C123.2382,-471.7593 116.5655,-465.7 100,-465.7"/>
<polygon fill="#000000" stroke="#000000" points="141.0638,-475.6917 148.5463,-480.2713 145.0319,-476.1958 149,-476.7 149,-476.7 149,-476.7 145.0319,-476.1958 149.4537,-473.1287 141.0638,-475.6917 141.0638,-475.6917"/>
<ellipse fill="none" stroke="#000000" cx="137.8893" cy="-475.2884" rx="3.2" ry="3.2"/>
</g>
<!-- job_request&#45;&gt;principal -->
<g id="edge2" class="edge">
<title>job_request:w&#45;&gt;principal:e</title>
<path fill="none" stroke="#000000" d="M134.7027,-456.5164C123.2382,-459.6407 116.5655,-465.7 100,-465.7"/>
<polygon fill="#000000" stroke="#000000" points="141.0638,-455.7083 149.4537,-458.2713 145.0319,-455.2042 149,-454.7 149,-454.7 149,-454.7 145.0319,-455.2042 148.5463,-451.1287 141.0638,-455.7083 141.0638,-455.7083"/>
<ellipse fill="none" stroke="#000000" cx="137.8893" cy="-456.1116" rx="3.2" ry="3.2"/>
</g>
<!-- job_request_skill -->
<g id="node3" class="node">
<title>job_request_skill</title>
<g id="a_node3"><a xlink:href="../../tables/job_request_skill.html" xlink:title="job_request_skill" target="_top">
<polygon fill="#ffffff" stroke="transparent" points="364,-432.7 364,-654.7 558,-654.7 558,-432.7 364,-432.7"/>
<polygon fill="#f5f5f5" stroke="transparent" points="366,-629.7 366,-652.7 556,-652.7 556,-629.7 366,-629.7"/>
<polygon fill="none" stroke="#000000" points="366,-629.7 366,-652.7 556,-652.7 556,-629.7 366,-629.7"/>
<text text-anchor="start" x="371" y="-638.8" font-family="Helvetica,sans-Serif" font-weight="bold" font-size="11.00" fill="#000000">job_request_skill</text>
<text text-anchor="start" x="521.0437" y="-637.8" font-family="Helvetica,sans-Serif" font-size="11.00" fill="#000000">[table]</text>
<polygon fill="none" stroke="#000000" points="366,-607.7 366,-629.7 489,-629.7 489,-607.7 366,-607.7"/>
<image xlink:href="../../images/primaryKeys.png" width="11px" height="12px" preserveAspectRatio="xMinYMin meet" x="371" y="-624.7"/>
<text text-anchor="start" x="386" y="-614.8" font-family="Helvetica,sans-Serif" font-size="11.00" fill="#000000">id</text>
<polygon fill="none" stroke="#000000" points="489,-607.7 489,-629.7 556,-629.7 556,-607.7 489,-607.7"/>
<text text-anchor="start" x="492" y="-615.4" font-family="Helvetica,sans-Serif" font-size="11.00" fill="#000000">bigint[19]</text>
<polygon fill="#ffffff" stroke="transparent" points="366,-585.7 366,-607.7 489,-607.7 489,-585.7 366,-585.7"/>
<polygon fill="none" stroke="#000000" points="366,-585.7 366,-607.7 489,-607.7 489,-585.7 366,-585.7"/>
<image xlink:href="../../images/foreignKeys.png" width="11px" height="12px" preserveAspectRatio="xMinYMin meet" x="371" y="-602.7"/>
<text text-anchor="start" x="386" y="-592.8" font-family="Helvetica,sans-Serif" font-size="11.00" fill="#000000">created_by</text>
<polygon fill="none" stroke="#000000" points="489,-585.7 489,-607.7 556,-607.7 556,-585.7 489,-585.7"/>
<text text-anchor="start" x="492" y="-593.4" font-family="Helvetica,sans-Serif" font-size="11.00" fill="#000000">bigint[19]</text>
<polygon fill="none" stroke="#000000" points="366,-563.7 366,-585.7 489,-585.7 489,-563.7 366,-563.7"/>
<text text-anchor="start" x="386" y="-570.8" font-family="Helvetica,sans-Serif" font-size="11.00" fill="#000000">creation_date</text>
<polygon fill="none" stroke="#000000" points="489,-563.7 489,-585.7 556,-585.7 556,-563.7 489,-563.7"/>
<text text-anchor="start" x="492" y="-571.4" font-family="Helvetica,sans-Serif" font-size="11.00" fill="#000000">datetime[26]</text>
<polygon fill="#ffffff" stroke="transparent" points="366,-541.7 366,-563.7 489,-563.7 489,-541.7 366,-541.7"/>
<polygon fill="none" stroke="#000000" points="366,-541.7 366,-563.7 489,-563.7 489,-541.7 366,-541.7"/>
<image xlink:href="../../images/foreignKeys.png" width="11px" height="12px" preserveAspectRatio="xMinYMin meet" x="371" y="-558.7"/>
<text text-anchor="start" x="386" y="-548.8" font-family="Helvetica,sans-Serif" font-size="11.00" fill="#000000">modified_by</text>
<polygon fill="none" stroke="#000000" points="489,-541.7 489,-563.7 556,-563.7 556,-541.7 489,-541.7"/>
<text text-anchor="start" x="492" y="-549.4" font-family="Helvetica,sans-Serif" font-size="11.00" fill="#000000">bigint[19]</text>
<polygon fill="none" stroke="#000000" points="366,-519.7 366,-541.7 489,-541.7 489,-519.7 366,-519.7"/>
<text text-anchor="start" x="386" y="-526.8" font-family="Helvetica,sans-Serif" font-size="11.00" fill="#000000">modification_date</text>
<polygon fill="none" stroke="#000000" points="489,-519.7 489,-541.7 556,-541.7 556,-519.7 489,-519.7"/>
<text text-anchor="start" x="492" y="-527.4" font-family="Helvetica,sans-Serif" font-size="11.00" fill="#000000">datetime[26]</text>
<polygon fill="none" stroke="#000000" points="366,-497.7 366,-519.7 489,-519.7 489,-497.7 366,-497.7"/>
<text text-anchor="start" x="386" y="-504.8" font-family="Helvetica,sans-Serif" font-size="11.00" fill="#000000">priority</text>
<polygon fill="none" stroke="#000000" points="489,-497.7 489,-519.7 556,-519.7 556,-497.7 489,-497.7"/>
<text text-anchor="start" x="491.9365" y="-505.4" font-family="Helvetica,sans-Serif" font-size="11.00" fill="#000000">varchar[255]</text>
<polygon fill="#ffffff" stroke="transparent" points="366,-475.7 366,-497.7 489,-497.7 489,-475.7 366,-475.7"/>
<polygon fill="none" stroke="#000000" points="366,-475.7 366,-497.7 489,-497.7 489,-475.7 366,-475.7"/>
<image xlink:href="../../images/foreignKeys.png" width="11px" height="12px" preserveAspectRatio="xMinYMin meet" x="371" y="-492.7"/>
<text text-anchor="start" x="386" y="-482.8" font-family="Helvetica,sans-Serif" font-size="11.00" fill="#000000">job_request_id</text>
<polygon fill="none" stroke="#000000" points="489,-475.7 489,-497.7 556,-497.7 556,-475.7 489,-475.7"/>
<text text-anchor="start" x="492" y="-483.4" font-family="Helvetica,sans-Serif" font-size="11.00" fill="#000000">bigint[19]</text>
<polygon fill="#ffffff" stroke="transparent" points="366,-453.7 366,-475.7 489,-475.7 489,-453.7 366,-453.7"/>
<polygon fill="none" stroke="#000000" points="366,-453.7 366,-475.7 489,-475.7 489,-453.7 366,-453.7"/>
<image xlink:href="../../images/foreignKeys.png" width="11px" height="12px" preserveAspectRatio="xMinYMin meet" x="371" y="-470.7"/>
<text text-anchor="start" x="386" y="-460.8" font-family="Helvetica,sans-Serif" font-size="11.00" fill="#000000">skill_id</text>
<polygon fill="none" stroke="#000000" points="489,-453.7 489,-475.7 556,-475.7 556,-453.7 489,-453.7"/>
<text text-anchor="start" x="492" y="-461.4" font-family="Helvetica,sans-Serif" font-size="11.00" fill="#000000">bigint[19]</text>
<polygon fill="#ffffff" stroke="transparent" points="366,-434.7 366,-453.7 413,-453.7 413,-434.7 366,-434.7"/>
<polygon fill="none" stroke="#000000" points="366,-434.7 366,-453.7 413,-453.7 413,-434.7 366,-434.7"/>
<text text-anchor="start" x="369" y="-440.8" font-family="Helvetica,sans-Serif" font-size="11.00" fill="#000000">&lt; 4</text>
<polygon fill="#ffffff" stroke="transparent" points="413,-434.7 413,-453.7 489,-453.7 489,-434.7 413,-434.7"/>
<polygon fill="none" stroke="#000000" points="413,-434.7 413,-453.7 489,-453.7 489,-434.7 413,-434.7"/>
<text text-anchor="start" x="441.3807" y="-440.8" font-family="Helvetica,sans-Serif" font-size="11.00" fill="#000000">494 rows</text>
<polygon fill="#ffffff" stroke="transparent" points="489,-434.7 489,-453.7 556,-453.7 556,-434.7 489,-434.7"/>
<polygon fill="none" stroke="#000000" points="489,-434.7 489,-453.7 556,-453.7 556,-434.7 489,-434.7"/>
<text text-anchor="start" x="537.4053" y="-440.8" font-family="Helvetica,sans-Serif" font-size="11.00" fill="#000000">0 &gt;</text>
<polygon fill="none" stroke="#000000" stroke-width="2" points="365,-433.7 365,-653.7 557,-653.7 557,-433.7 365,-433.7"/>
</a>
</g>
</g>
<!-- job_request_skill&#45;&gt;job_request -->
<g id="edge4" class="edge">
<title>job_request_skill:w&#45;&gt;job_request:e</title>
<path fill="none" stroke="#000000" d="M351.4822,-488.575C339.3214,-491.95 332.4642,-498.7 315,-498.7"/>
<polygon fill="#000000" stroke="#000000" points="358.0659,-487.7247 366.4611,-490.2703 362.0329,-487.2124 366,-486.7 366,-486.7 366,-486.7 362.0329,-487.2124 365.5389,-483.1297 358.0659,-487.7247 358.0659,-487.7247"/>
<ellipse fill="none" stroke="#000000" cx="354.8923" cy="-488.1346" rx="3.2" ry="3.2"/>
</g>
<!-- job_request_skill&#45;&gt;principal -->
<g id="edge3" class="edge">
<title>job_request_skill:w&#45;&gt;principal:e</title>
<path fill="none" stroke="#000000" d="M351.3434,-596.9276C260.6604,-599.7222 216.78,-626.3182 141,-567.7 102.354,-537.8061 148.8586,-465.7 100,-465.7"/>
<polygon fill="#000000" stroke="#000000" points="358.001,-596.8243 366.0559,-600.2996 362.0005,-596.7621 366,-596.7 366,-596.7 366,-596.7 362.0005,-596.7621 365.9441,-593.1004 358.001,-596.8243 358.001,-596.8243"/>
<ellipse fill="none" stroke="#000000" cx="354.8013" cy="-596.874" rx="3.2" ry="3.2"/>
</g>
<!-- job_request_skill&#45;&gt;principal -->
<g id="edge5" class="edge">
<title>job_request_skill:w&#45;&gt;principal:e</title>
<path fill="none" stroke="#000000" d="M351.3785,-553.0533C293.8273,-555.4182 179.67,-568.1284 141,-543.7 107.8892,-522.7834 139.1641,-465.7 100,-465.7"/>
<polygon fill="#000000" stroke="#000000" points="358.0023,-552.8933 366.087,-556.2989 362.0012,-552.7966 366,-552.7 366,-552.7 366,-552.7 362.0012,-552.7966 365.913,-549.1011 358.0023,-552.8933 358.0023,-552.8933"/>
<ellipse fill="none" stroke="#000000" cx="354.8033" cy="-552.9706" rx="3.2" ry="3.2"/>
</g>
<!-- skill -->
<g id="node4" class="node">
<title>skill</title>
<g id="a_node4"><a xlink:href="../../tables/skill.html" xlink:title="skill" target="_top">
<polygon fill="#ffffff" stroke="transparent" points="170.5,-38.2 170.5,-187.2 293.5,-187.2 293.5,-38.2 170.5,-38.2"/>
<polygon fill="#f5f5f5" stroke="transparent" points="171,-163.7 171,-186.7 294,-186.7 294,-163.7 171,-163.7"/>
<polygon fill="none" stroke="#000000" points="171,-163.7 171,-186.7 294,-186.7 294,-163.7 171,-163.7"/>
<text text-anchor="start" x="176" y="-172.8" font-family="Helvetica,sans-Serif" font-weight="bold" font-size="11.00" fill="#000000">skill</text>
<text text-anchor="start" x="259.0437" y="-171.8" font-family="Helvetica,sans-Serif" font-size="11.00" fill="#000000">[table]</text>
<polygon fill="none" stroke="#000000" points="171,-141.7 171,-163.7 294,-163.7 294,-141.7 171,-141.7"/>
<image xlink:href="../../images/primaryKeys.png" width="11px" height="12px" preserveAspectRatio="xMinYMin meet" x="176" y="-158.7"/>
<text text-anchor="start" x="191" y="-148.8" font-family="Helvetica,sans-Serif" font-size="11.00" fill="#000000">id</text>
<polygon fill="#ffffff" stroke="transparent" points="171,-119.7 171,-141.7 294,-141.7 294,-119.7 171,-119.7"/>
<polygon fill="none" stroke="#000000" points="171,-119.7 171,-141.7 294,-141.7 294,-119.7 171,-119.7"/>
<image xlink:href="../../images/foreignKeys.png" width="11px" height="12px" preserveAspectRatio="xMinYMin meet" x="176" y="-136.7"/>
<text text-anchor="start" x="191" y="-126.8" font-family="Helvetica,sans-Serif" font-size="11.00" fill="#000000">created_by</text>
<polygon fill="#ffffff" stroke="transparent" points="171,-97.7 171,-119.7 294,-119.7 294,-97.7 171,-97.7"/>
<polygon fill="none" stroke="#000000" points="171,-97.7 171,-119.7 294,-119.7 294,-97.7 171,-97.7"/>
<image xlink:href="../../images/foreignKeys.png" width="11px" height="12px" preserveAspectRatio="xMinYMin meet" x="176" y="-114.7"/>
<text text-anchor="start" x="191" y="-104.8" font-family="Helvetica,sans-Serif" font-size="11.00" fill="#000000">modified_by</text>
<polygon fill="#ffffff" stroke="transparent" points="171,-75.7 171,-97.7 294,-97.7 294,-75.7 171,-75.7"/>
<polygon fill="none" stroke="#000000" points="171,-75.7 171,-97.7 294,-97.7 294,-75.7 171,-75.7"/>
<text text-anchor="start" x="191" y="-82.8" font-family="Helvetica,sans-Serif" font-size="11.00" fill="#000000">name</text>
<polygon fill="none" stroke="#000000" points="171,-56.7 171,-75.7 294,-75.7 294,-56.7 171,-56.7"/>
<text text-anchor="start" x="174" y="-62.8" font-family="Helvetica,sans-Serif" font-size="11.00" fill="#000000">...</text>
<polygon fill="#ffffff" stroke="transparent" points="171,-37.7 171,-56.7 201,-56.7 201,-37.7 171,-37.7"/>
<polygon fill="none" stroke="#000000" points="171,-37.7 171,-56.7 201,-56.7 201,-37.7 171,-37.7"/>
<text text-anchor="start" x="174" y="-43.8" font-family="Helvetica,sans-Serif" font-size="11.00" fill="#000000">&lt; 2</text>
<polygon fill="#ffffff" stroke="transparent" points="201,-37.7 201,-56.7 268,-56.7 268,-37.7 201,-37.7"/>
<polygon fill="none" stroke="#000000" points="201,-37.7 201,-56.7 268,-56.7 268,-37.7 201,-37.7"/>
<text text-anchor="start" x="207.547" y="-43.8" font-family="Helvetica,sans-Serif" font-size="11.00" fill="#000000">2 737 rows</text>
<polygon fill="#ffffff" stroke="transparent" points="268,-37.7 268,-56.7 294,-56.7 294,-37.7 268,-37.7"/>
<polygon fill="none" stroke="#000000" points="268,-37.7 268,-56.7 294,-56.7 294,-37.7 268,-37.7"/>
<text text-anchor="start" x="275.4053" y="-43.8" font-family="Helvetica,sans-Serif" font-size="11.00" fill="#000000">5 &gt;</text>
</a>
</g>
</g>
<!-- job_request_skill&#45;&gt;skill -->
<g id="edge6" class="edge">
<title>job_request_skill:w&#45;&gt;skill:e</title>
<path fill="none" stroke="#000000" d="M352.3789,-459.7992C304.502,-420.1061 359.8745,-152.7 294,-152.7"/>
<polygon fill="#000000" stroke="#000000" points="358.4724,-461.9916 364.7812,-468.0874 362.2362,-463.3458 366,-464.7 366,-464.7 366,-464.7 362.2362,-463.3458 367.2188,-461.3126 358.4724,-461.9916 358.4724,-461.9916"/>
<ellipse fill="none" stroke="#000000" cx="355.4614" cy="-460.9082" rx="3.2" ry="3.2"/>
</g>
<!-- skill&#45;&gt;principal -->
<g id="edge7" class="edge">
<title>skill:w&#45;&gt;principal:e</title>
<path fill="none" stroke="#000000" d="M157.1716,-135.4357C105.5425,-176.1532 170.7474,-465.7 100,-465.7"/>
<polygon fill="#000000" stroke="#000000" points="163.4315,-133.2919 172.1664,-134.1058 167.2158,-131.996 171,-130.7 171,-130.7 171,-130.7 167.2158,-131.996 169.8336,-127.2942 163.4315,-133.2919 163.4315,-133.2919"/>
<ellipse fill="none" stroke="#000000" cx="160.4041" cy="-134.3287" rx="3.2" ry="3.2"/>
</g>
<!-- skill&#45;&gt;principal -->
<g id="edge8" class="edge">
<title>skill:w&#45;&gt;principal:e</title>
<path fill="none" stroke="#000000" d="M157.0562,-113.2138C101.4119,-154.5398 175.5157,-465.7 100,-465.7"/>
<polygon fill="#000000" stroke="#000000" points="163.3889,-111.1639 172.1087,-112.125 167.1944,-109.9319 171,-108.7 171,-108.7 171,-108.7 167.1944,-109.9319 169.8913,-105.275 163.3889,-111.1639 163.3889,-111.1639"/>
<ellipse fill="none" stroke="#000000" cx="160.3444" cy="-112.1494" rx="3.2" ry="3.2"/>
</g>
</g>
</svg>
