<?xml version="1.0" encoding="UTF-8" standalone="no"?>
<!DOCTYPE svg PUBLIC "-//W3C//DTD SVG 1.1//EN"
 "http://www.w3.org/Graphics/SVG/1.1/DTD/svg11.dtd">
<!-- Generated by graphviz version 2.40.1 (20161225.0304)
 -->
<!-- Title: twoDegreesRelationshipsDiagram Pages: 1 -->
<svg width="1047pt" height="737pt"
 viewBox="0.00 0.00 1046.99 737.20" xmlns="http://www.w3.org/2000/svg" xmlns:xlink="http://www.w3.org/1999/xlink">
<g id="graph0" class="graph" transform="scale(1 1) rotate(0) translate(4 733.2)">
<title>twoDegreesRelationshipsDiagram</title>
<polygon fill="#ffffff" stroke="transparent" points="-4,4 -4,-733.2 1042.9905,-733.2 1042.9905,4 -4,4"/>
<text text-anchor="middle" x="72.4936" y="-7.3" font-family="Helvetica,sans-Serif" font-size="11.00" fill="#000000">Generated by SchemaSpy</text>
<!-- client -->
<g id="node1" class="node">
<title>client</title>
<g id="a_node1"><a xlink:href="../../tables/client.html" xlink:title="client" target="_top">
<polygon fill="#ffffff" stroke="transparent" points="302.9905,-310.2 302.9905,-371.2 394.9905,-371.2 394.9905,-310.2 302.9905,-310.2"/>
<polygon fill="#f5f5f5" stroke="transparent" points="302.9905,-347.7 302.9905,-370.7 394.9905,-370.7 394.9905,-347.7 302.9905,-347.7"/>
<polygon fill="none" stroke="#000000" points="302.9905,-347.7 302.9905,-370.7 394.9905,-370.7 394.9905,-347.7 302.9905,-347.7"/>
<text text-anchor="start" x="307.9905" y="-356.8" font-family="Helvetica,sans-Serif" font-weight="bold" font-size="11.00" fill="#000000">client</text>
<text text-anchor="start" x="360.0342" y="-355.8" font-family="Helvetica,sans-Serif" font-size="11.00" fill="#000000">[table]</text>
<polygon fill="none" stroke="#000000" points="302.9905,-328.7 302.9905,-347.7 394.9905,-347.7 394.9905,-328.7 302.9905,-328.7"/>
<text text-anchor="start" x="305.9905" y="-334.8" font-family="Helvetica,sans-Serif" font-size="11.00" fill="#000000">...</text>
<polygon fill="#ffffff" stroke="transparent" points="302.9905,-309.7 302.9905,-328.7 323.9905,-328.7 323.9905,-309.7 302.9905,-309.7"/>
<polygon fill="none" stroke="#000000" points="302.9905,-309.7 302.9905,-328.7 323.9905,-328.7 323.9905,-309.7 302.9905,-309.7"/>
<text text-anchor="start" x="305.6932" y="-315.8" font-family="Helvetica,sans-Serif" font-size="11.00" fill="#000000">&lt; 9</text>
<polygon fill="#ffffff" stroke="transparent" points="323.9905,-309.7 323.9905,-328.7 373.9905,-328.7 373.9905,-309.7 323.9905,-309.7"/>
<polygon fill="none" stroke="#000000" points="323.9905,-309.7 323.9905,-328.7 373.9905,-328.7 373.9905,-309.7 323.9905,-309.7"/>
<text text-anchor="start" x="326.6809" y="-315.8" font-family="Helvetica,sans-Serif" font-size="11.00" fill="#000000">647 rows</text>
<polygon fill="#ffffff" stroke="transparent" points="373.9905,-309.7 373.9905,-328.7 394.9905,-328.7 394.9905,-309.7 373.9905,-309.7"/>
<polygon fill="none" stroke="#000000" points="373.9905,-309.7 373.9905,-328.7 394.9905,-328.7 394.9905,-309.7 373.9905,-309.7"/>
<text text-anchor="start" x="376.6932" y="-315.8" font-family="Helvetica,sans-Serif" font-size="11.00" fill="#000000">7 &gt;</text>
</a>
</g>
</g>
<!-- eworker -->
<g id="node2" class="node">
<title>eworker</title>
<g id="a_node2"><a xlink:href="../../tables/eworker.html" xlink:title="eworker" target="_top">
<polygon fill="#ffffff" stroke="transparent" points="161.9905,-349.2 161.9905,-410.2 253.9905,-410.2 253.9905,-349.2 161.9905,-349.2"/>
<polygon fill="#f5f5f5" stroke="transparent" points="161.9905,-386.7 161.9905,-409.7 253.9905,-409.7 253.9905,-386.7 161.9905,-386.7"/>
<polygon fill="none" stroke="#000000" points="161.9905,-386.7 161.9905,-409.7 253.9905,-409.7 253.9905,-386.7 161.9905,-386.7"/>
<text text-anchor="start" x="166.9905" y="-395.8" font-family="Helvetica,sans-Serif" font-weight="bold" font-size="11.00" fill="#000000">eworker</text>
<text text-anchor="start" x="219.0342" y="-394.8" font-family="Helvetica,sans-Serif" font-size="11.00" fill="#000000">[table]</text>
<polygon fill="none" stroke="#000000" points="161.9905,-367.7 161.9905,-386.7 253.9905,-386.7 253.9905,-367.7 161.9905,-367.7"/>
<text text-anchor="start" x="164.9905" y="-373.8" font-family="Helvetica,sans-Serif" font-size="11.00" fill="#000000">...</text>
<polygon fill="#ffffff" stroke="transparent" points="161.9905,-348.7 161.9905,-367.7 182.9905,-367.7 182.9905,-348.7 161.9905,-348.7"/>
<polygon fill="none" stroke="#000000" points="161.9905,-348.7 161.9905,-367.7 182.9905,-367.7 182.9905,-348.7 161.9905,-348.7"/>
<text text-anchor="start" x="164.6932" y="-354.8" font-family="Helvetica,sans-Serif" font-size="11.00" fill="#000000">&lt; 4</text>
<polygon fill="#ffffff" stroke="transparent" points="182.9905,-348.7 182.9905,-367.7 232.9905,-367.7 232.9905,-348.7 182.9905,-348.7"/>
<polygon fill="none" stroke="#000000" points="182.9905,-348.7 182.9905,-367.7 232.9905,-367.7 232.9905,-348.7 182.9905,-348.7"/>
<text text-anchor="start" x="185.6809" y="-354.8" font-family="Helvetica,sans-Serif" font-size="11.00" fill="#000000">347 rows</text>
<polygon fill="#ffffff" stroke="transparent" points="232.9905,-348.7 232.9905,-367.7 253.9905,-367.7 253.9905,-348.7 232.9905,-348.7"/>
<polygon fill="none" stroke="#000000" points="232.9905,-348.7 232.9905,-367.7 253.9905,-367.7 253.9905,-348.7 232.9905,-348.7"/>
<text text-anchor="start" x="235.6932" y="-354.8" font-family="Helvetica,sans-Serif" font-size="11.00" fill="#000000">9 &gt;</text>
</a>
</g>
</g>
<!-- client&#45;&gt;eworker -->
<g id="edge1" class="edge">
<title>client:w&#45;&gt;eworker:e</title>
<path fill="none" stroke="#000000" d="M288.5827,-335.9645C276.407,-341.0373 275.5182,-366.6453 253.9905,-376.7"/>
<polygon fill="#000000" stroke="#000000" points="295.048,-336.7432 302.56,-341.2742 299.0193,-337.2216 302.9905,-337.7 302.9905,-337.7 302.9905,-337.7 299.0193,-337.2216 303.4211,-334.1258 295.048,-336.7432 295.048,-336.7432"/>
<ellipse fill="none" stroke="#000000" cx="291.8709" cy="-336.3605" rx="3.2" ry="3.2"/>
</g>
<!-- client&#45;&gt;eworker -->
<g id="edge2" class="edge">
<title>client:w&#45;&gt;eworker:e</title>
<path fill="none" stroke="#000000" d="M288.9552,-342.4822C276.4229,-352.8963 275.7356,-376.7 253.9905,-376.7"/>
<polygon fill="#000000" stroke="#000000" points="295.418,-340.2802 304.1516,-341.1076 299.2043,-338.9901 302.9905,-337.7 302.9905,-337.7 302.9905,-337.7 299.2043,-338.9901 301.8295,-334.2924 295.418,-340.2802 295.418,-340.2802"/>
<ellipse fill="none" stroke="#000000" cx="292.389" cy="-341.3122" rx="3.2" ry="3.2"/>
</g>
<!-- client&#45;&gt;eworker -->
<g id="edge5" class="edge">
<title>client:w&#45;&gt;eworker:e</title>
<path fill="none" stroke="#000000" d="M291.346,-346.3113C276.4296,-362.5701 277.0403,-387.4656 253.9905,-376.7"/>
<polygon fill="#000000" stroke="#000000" points="296.5583,-342.4567 305.1311,-340.5945 299.7744,-340.0784 302.9905,-337.7 302.9905,-337.7 302.9905,-337.7 299.7744,-340.0784 300.85,-334.8055 296.5583,-342.4567 296.5583,-342.4567"/>
<ellipse fill="none" stroke="#000000" cx="293.9854" cy="-344.3594" rx="3.2" ry="3.2"/>
</g>
<!-- principal -->
<g id="node3" class="node">
<title>principal</title>
<g id="a_node3"><a xlink:href="../../tables/principal.html" xlink:title="principal" target="_top">
<polygon fill="#ffffff" stroke="transparent" points="18.9905,-291.2 18.9905,-352.2 110.9905,-352.2 110.9905,-291.2 18.9905,-291.2"/>
<polygon fill="#f5f5f5" stroke="transparent" points="18.9905,-328.7 18.9905,-351.7 110.9905,-351.7 110.9905,-328.7 18.9905,-328.7"/>
<polygon fill="none" stroke="#000000" points="18.9905,-328.7 18.9905,-351.7 110.9905,-351.7 110.9905,-328.7 18.9905,-328.7"/>
<text text-anchor="start" x="23.9905" y="-337.8" font-family="Helvetica,sans-Serif" font-weight="bold" font-size="11.00" fill="#000000">principal</text>
<text text-anchor="start" x="76.0342" y="-336.8" font-family="Helvetica,sans-Serif" font-size="11.00" fill="#000000">[table]</text>
<polygon fill="none" stroke="#000000" points="18.9905,-309.7 18.9905,-328.7 110.9905,-328.7 110.9905,-309.7 18.9905,-309.7"/>
<text text-anchor="start" x="21.9905" y="-315.8" font-family="Helvetica,sans-Serif" font-size="11.00" fill="#000000">...</text>
<polygon fill="#ffffff" stroke="transparent" points="18.9905,-290.7 18.9905,-309.7 39.9905,-309.7 39.9905,-290.7 18.9905,-290.7"/>
<polygon fill="none" stroke="#000000" points="18.9905,-290.7 18.9905,-309.7 39.9905,-309.7 39.9905,-290.7 18.9905,-290.7"/>
<text text-anchor="start" x="21.6932" y="-296.8" font-family="Helvetica,sans-Serif" font-size="11.00" fill="#000000">&lt; 1</text>
<polygon fill="#ffffff" stroke="transparent" points="39.9905,-290.7 39.9905,-309.7 83.9905,-309.7 83.9905,-290.7 39.9905,-290.7"/>
<polygon fill="none" stroke="#000000" points="39.9905,-290.7 39.9905,-309.7 83.9905,-309.7 83.9905,-290.7 39.9905,-290.7"/>
<text text-anchor="start" x="42.7383" y="-296.8" font-family="Helvetica,sans-Serif" font-size="11.00" fill="#000000">18 rows</text>
<polygon fill="#ffffff" stroke="transparent" points="83.9905,-290.7 83.9905,-309.7 110.9905,-309.7 110.9905,-290.7 83.9905,-290.7"/>
<polygon fill="none" stroke="#000000" points="83.9905,-290.7 83.9905,-309.7 110.9905,-309.7 110.9905,-290.7 83.9905,-290.7"/>
<text text-anchor="start" x="86.6357" y="-296.8" font-family="Helvetica,sans-Serif" font-size="11.00" fill="#000000">56 &gt;</text>
</a>
</g>
</g>
<!-- client&#45;&gt;principal -->
<g id="edge3" class="edge">
<title>client:w&#45;&gt;principal:e</title>
<path fill="none" stroke="#000000" d="M288.5631,-337.512C214.6141,-335.5387 191.7163,-318.7 110.9905,-318.7"/>
<polygon fill="#000000" stroke="#000000" points="294.9912,-337.5957 302.9436,-341.2997 298.9909,-337.6478 302.9905,-337.7 302.9905,-337.7 302.9905,-337.7 298.9909,-337.6478 303.0375,-334.1003 294.9912,-337.5957 294.9912,-337.5957"/>
<ellipse fill="none" stroke="#000000" cx="291.7915" cy="-337.554" rx="3.2" ry="3.2"/>
</g>
<!-- client&#45;&gt;principal -->
<g id="edge4" class="edge">
<title>client:w&#45;&gt;principal:e</title>
<path fill="none" stroke="#000000" d="M288.5631,-337.512C214.6141,-335.5387 191.7163,-318.7 110.9905,-318.7"/>
<polygon fill="#000000" stroke="#000000" points="294.9912,-337.5957 302.9436,-341.2997 298.9909,-337.6478 302.9905,-337.7 302.9905,-337.7 302.9905,-337.7 298.9909,-337.6478 303.0375,-334.1003 294.9912,-337.5957 294.9912,-337.5957"/>
<ellipse fill="none" stroke="#000000" cx="291.7915" cy="-337.554" rx="3.2" ry="3.2"/>
</g>
<!-- eworker&#45;&gt;principal -->
<g id="edge9" class="edge">
<title>eworker:w&#45;&gt;principal:e</title>
<path fill="none" stroke="#000000" d="M148.8339,-370.0602C132.0576,-353.3914 139.6849,-313.6844 110.9905,-318.7"/>
<polygon fill="#000000" stroke="#000000" points="154.8485,-373.0956 160.3686,-379.9139 158.4195,-374.8978 161.9905,-376.7 161.9905,-376.7 161.9905,-376.7 158.4195,-374.8978 163.6125,-373.4861 154.8485,-373.0956 154.8485,-373.0956"/>
<ellipse fill="none" stroke="#000000" cx="151.9917" cy="-371.6538" rx="3.2" ry="3.2"/>
</g>
<!-- eworker&#45;&gt;principal -->
<g id="edge10" class="edge">
<title>eworker:w&#45;&gt;principal:e</title>
<path fill="none" stroke="#000000" d="M147.479,-374.5467C132.4567,-363.743 138.8804,-324.3875 110.9905,-318.7"/>
<polygon fill="#000000" stroke="#000000" points="154.0772,-375.5257 161.4621,-380.261 158.0339,-376.1129 161.9905,-376.7 161.9905,-376.7 161.9905,-376.7 158.0339,-376.1129 162.519,-373.139 154.0772,-375.5257 154.0772,-375.5257"/>
<ellipse fill="none" stroke="#000000" cx="150.9119" cy="-375.056" rx="3.2" ry="3.2"/>
</g>
<!-- ework_unit -->
<g id="node5" class="node">
<title>ework_unit</title>
<g id="a_node5"><a xlink:href="../../tables/ework_unit.html" xlink:title="ework_unit" target="_top">
<polygon fill="#ffffff" stroke="transparent" points="16.9905,-637.2 16.9905,-698.2 112.9905,-698.2 112.9905,-637.2 16.9905,-637.2"/>
<polygon fill="#f5f5f5" stroke="transparent" points="16.9905,-674.7 16.9905,-697.7 112.9905,-697.7 112.9905,-674.7 16.9905,-674.7"/>
<polygon fill="none" stroke="#000000" points="16.9905,-674.7 16.9905,-697.7 112.9905,-697.7 112.9905,-674.7 16.9905,-674.7"/>
<text text-anchor="start" x="21.903" y="-683.8" font-family="Helvetica,sans-Serif" font-weight="bold" font-size="11.00" fill="#000000">ework_unit</text>
<text text-anchor="start" x="78.5124" y="-682.8" font-family="Helvetica,sans-Serif" font-size="11.00" fill="#000000">[table]</text>
<polygon fill="none" stroke="#000000" points="16.9905,-655.7 16.9905,-674.7 112.9905,-674.7 112.9905,-655.7 16.9905,-655.7"/>
<text text-anchor="start" x="19.9905" y="-661.8" font-family="Helvetica,sans-Serif" font-size="11.00" fill="#000000">...</text>
<polygon fill="#ffffff" stroke="transparent" points="16.9905,-636.7 16.9905,-655.7 42.9905,-655.7 42.9905,-636.7 16.9905,-636.7"/>
<polygon fill="none" stroke="#000000" points="16.9905,-636.7 16.9905,-655.7 42.9905,-655.7 42.9905,-636.7 16.9905,-636.7"/>
<text text-anchor="start" x="19.9905" y="-642.8" font-family="Helvetica,sans-Serif" font-size="11.00" fill="#000000">&lt; 1</text>
<polygon fill="#ffffff" stroke="transparent" points="42.9905,-636.7 42.9905,-655.7 88.9905,-655.7 88.9905,-636.7 42.9905,-636.7"/>
<polygon fill="none" stroke="#000000" points="42.9905,-636.7 42.9905,-655.7 88.9905,-655.7 88.9905,-636.7 42.9905,-636.7"/>
<text text-anchor="start" x="47.4861" y="-642.8" font-family="Helvetica,sans-Serif" font-size="11.00" fill="#000000">25 rows</text>
<polygon fill="#ffffff" stroke="transparent" points="88.9905,-636.7 88.9905,-655.7 112.9905,-655.7 112.9905,-636.7 88.9905,-636.7"/>
<polygon fill="none" stroke="#000000" points="88.9905,-636.7 88.9905,-655.7 112.9905,-655.7 112.9905,-636.7 88.9905,-636.7"/>
<text text-anchor="start" x="94.3958" y="-642.8" font-family="Helvetica,sans-Serif" font-size="11.00" fill="#000000">4 &gt;</text>
</a>
</g>
</g>
<!-- eworker&#45;&gt;ework_unit -->
<g id="edge11" class="edge">
<title>eworker:w&#45;&gt;ework_unit:e</title>
<path fill="none" stroke="#000000" d="M147.3847,-378.1809C49.2444,-400.3797 237.3777,-664.7 112.9905,-664.7"/>
<polygon fill="#000000" stroke="#000000" points="154.0314,-377.507 162.3537,-380.2816 158.011,-377.1035 161.9905,-376.7 161.9905,-376.7 161.9905,-376.7 158.011,-377.1035 161.6274,-373.1184 154.0314,-377.507 154.0314,-377.507"/>
<ellipse fill="none" stroke="#000000" cx="150.8477" cy="-377.8298" rx="3.2" ry="3.2"/>
</g>
<!-- principal&#45;&gt;eworker -->
<g id="edge39" class="edge">
<title>principal:w&#45;&gt;eworker:e</title>
<path fill="none" stroke="#000000" d="M5.9931,-311.8035C-10.7667,-290.3937 4.0419,-229.8491 118.9905,-287.2 142.1364,-298.7481 131.5434,-320.8465 153.9905,-333.7 173.4021,-344.8153 239.1044,-328.5039 253.9905,-345.2 263.3074,-355.6497 267.9905,-376.7 253.9905,-376.7"/>
<polygon fill="#000000" stroke="#000000" points="11.9237,-314.9503 17.3032,-321.8801 15.4571,-316.8252 18.9905,-318.7 18.9905,-318.7 18.9905,-318.7 15.4571,-316.8252 20.6779,-315.5199 11.9237,-314.9503 11.9237,-314.9503"/>
<ellipse fill="none" stroke="#000000" cx="9.097" cy="-313.4504" rx="3.2" ry="3.2"/>
</g>
<!-- client_contact -->
<g id="node4" class="node">
<title>client_contact</title>
<g id="a_node4"><a xlink:href="../../tables/client_contact.html" xlink:title="client_contact" target="_top">
<polygon fill="#ffffff" stroke="transparent" points="443.9905,-256.2 443.9905,-317.2 553.9905,-317.2 553.9905,-256.2 443.9905,-256.2"/>
<polygon fill="#f5f5f5" stroke="transparent" points="443.9905,-293.7 443.9905,-316.7 553.9905,-316.7 553.9905,-293.7 443.9905,-293.7"/>
<polygon fill="none" stroke="#000000" points="443.9905,-293.7 443.9905,-316.7 553.9905,-316.7 553.9905,-293.7 443.9905,-293.7"/>
<text text-anchor="start" x="448.8696" y="-302.8" font-family="Helvetica,sans-Serif" font-weight="bold" font-size="11.00" fill="#000000">client_contact</text>
<text text-anchor="start" x="519.5124" y="-301.8" font-family="Helvetica,sans-Serif" font-size="11.00" fill="#000000">[table]</text>
<polygon fill="none" stroke="#000000" points="443.9905,-274.7 443.9905,-293.7 553.9905,-293.7 553.9905,-274.7 443.9905,-274.7"/>
<text text-anchor="start" x="446.9905" y="-280.8" font-family="Helvetica,sans-Serif" font-size="11.00" fill="#000000">...</text>
<polygon fill="#ffffff" stroke="transparent" points="443.9905,-255.7 443.9905,-274.7 473.9905,-274.7 473.9905,-255.7 443.9905,-255.7"/>
<polygon fill="none" stroke="#000000" points="443.9905,-255.7 443.9905,-274.7 473.9905,-274.7 473.9905,-255.7 443.9905,-255.7"/>
<text text-anchor="start" x="446.9905" y="-261.8" font-family="Helvetica,sans-Serif" font-size="11.00" fill="#000000">&lt; 4</text>
<polygon fill="#ffffff" stroke="transparent" points="473.9905,-255.7 473.9905,-274.7 527.9905,-274.7 527.9905,-255.7 473.9905,-255.7"/>
<polygon fill="none" stroke="#000000" points="473.9905,-255.7 473.9905,-274.7 527.9905,-274.7 527.9905,-255.7 473.9905,-255.7"/>
<text text-anchor="start" x="480.3712" y="-261.8" font-family="Helvetica,sans-Serif" font-size="11.00" fill="#000000">561 rows</text>
<polygon fill="#ffffff" stroke="transparent" points="527.9905,-255.7 527.9905,-274.7 553.9905,-274.7 553.9905,-255.7 527.9905,-255.7"/>
<polygon fill="none" stroke="#000000" points="527.9905,-255.7 527.9905,-274.7 553.9905,-274.7 553.9905,-255.7 527.9905,-255.7"/>
<text text-anchor="start" x="535.3958" y="-261.8" font-family="Helvetica,sans-Serif" font-size="11.00" fill="#000000">2 &gt;</text>
</a>
</g>
</g>
<!-- client_contact&#45;&gt;client -->
<g id="edge6" class="edge">
<title>client_contact:w&#45;&gt;client:e</title>
<path fill="none" stroke="#000000" d="M430.2114,-288.6834C415.8182,-302.0516 421.322,-337.7 394.9905,-337.7"/>
<polygon fill="#000000" stroke="#000000" points="436.4674,-286.4209 445.2149,-287.0854 440.229,-285.0604 443.9905,-283.7 443.9905,-283.7 443.9905,-283.7 440.229,-285.0604 442.7662,-280.3146 436.4674,-286.4209 436.4674,-286.4209"/>
<ellipse fill="none" stroke="#000000" cx="433.4582" cy="-287.5092" rx="3.2" ry="3.2"/>
</g>
<!-- client_contact&#45;&gt;principal -->
<g id="edge7" class="edge">
<title>client_contact:w&#45;&gt;principal:e</title>
<path fill="none" stroke="#000000" d="M429.5708,-284.0578C348.0286,-287.7457 180.9657,-318.7 110.9905,-318.7"/>
<polygon fill="#000000" stroke="#000000" points="435.993,-283.8985 444.0799,-287.2989 439.9918,-283.7993 443.9905,-283.7 443.9905,-283.7 443.9905,-283.7 439.9918,-283.7993 443.9012,-280.1011 435.993,-283.8985 435.993,-283.8985"/>
<ellipse fill="none" stroke="#000000" cx="432.794" cy="-283.9779" rx="3.2" ry="3.2"/>
</g>
<!-- client_contact&#45;&gt;principal -->
<g id="edge8" class="edge">
<title>client_contact:w&#45;&gt;principal:e</title>
<path fill="none" stroke="#000000" d="M429.5341,-283.8132C292.7015,-285.9856 254.8647,-318.7 110.9905,-318.7"/>
<polygon fill="#000000" stroke="#000000" points="435.9908,-283.7627 444.0188,-287.2999 439.9907,-283.7313 443.9905,-283.7 443.9905,-283.7 443.9905,-283.7 439.9907,-283.7313 443.9623,-280.1001 435.9908,-283.7627 435.9908,-283.7627"/>
<ellipse fill="none" stroke="#000000" cx="432.7909" cy="-283.7878" rx="3.2" ry="3.2"/>
</g>
<!-- job_ad -->
<g id="node6" class="node">
<title>job_ad</title>
<g id="a_node6"><a xlink:href="../../tables/job_ad.html" xlink:title="job_ad" target="_top">
<polygon fill="#ffffff" stroke="transparent" points="881.4905,-652.2 881.4905,-713.2 967.4905,-713.2 967.4905,-652.2 881.4905,-652.2"/>
<polygon fill="#f5f5f5" stroke="transparent" points="881.4905,-689.7 881.4905,-712.7 967.4905,-712.7 967.4905,-689.7 881.4905,-689.7"/>
<polygon fill="none" stroke="#000000" points="881.4905,-689.7 881.4905,-712.7 967.4905,-712.7 967.4905,-689.7 881.4905,-689.7"/>
<text text-anchor="start" x="886.4905" y="-698.8" font-family="Helvetica,sans-Serif" font-weight="bold" font-size="11.00" fill="#000000">job_ad</text>
<text text-anchor="start" x="932.5342" y="-697.8" font-family="Helvetica,sans-Serif" font-size="11.00" fill="#000000">[table]</text>
<polygon fill="none" stroke="#000000" points="881.4905,-670.7 881.4905,-689.7 967.4905,-689.7 967.4905,-670.7 881.4905,-670.7"/>
<text text-anchor="start" x="884.4905" y="-676.8" font-family="Helvetica,sans-Serif" font-size="11.00" fill="#000000">...</text>
<polygon fill="#ffffff" stroke="transparent" points="881.4905,-651.7 881.4905,-670.7 902.4905,-670.7 902.4905,-651.7 881.4905,-651.7"/>
<polygon fill="none" stroke="#000000" points="881.4905,-651.7 881.4905,-670.7 902.4905,-670.7 902.4905,-651.7 881.4905,-651.7"/>
<text text-anchor="start" x="884.1932" y="-657.8" font-family="Helvetica,sans-Serif" font-size="11.00" fill="#000000">&lt; 4</text>
<polygon fill="#ffffff" stroke="transparent" points="902.4905,-651.7 902.4905,-670.7 946.4905,-670.7 946.4905,-651.7 902.4905,-651.7"/>
<polygon fill="none" stroke="#000000" points="902.4905,-651.7 902.4905,-670.7 946.4905,-670.7 946.4905,-651.7 902.4905,-651.7"/>
<text text-anchor="start" x="905.2383" y="-657.8" font-family="Helvetica,sans-Serif" font-size="11.00" fill="#000000">34 rows</text>
<polygon fill="#ffffff" stroke="transparent" points="946.4905,-651.7 946.4905,-670.7 967.4905,-670.7 967.4905,-651.7 946.4905,-651.7"/>
<polygon fill="none" stroke="#000000" points="946.4905,-651.7 946.4905,-670.7 967.4905,-670.7 967.4905,-651.7 946.4905,-651.7"/>
<text text-anchor="start" x="949.1932" y="-657.8" font-family="Helvetica,sans-Serif" font-size="11.00" fill="#000000">2 &gt;</text>
</a>
</g>
</g>
<!-- job_ad&#45;&gt;principal -->
<g id="edge12" class="edge">
<title>job_ad:w&#45;&gt;principal:e</title>
<path fill="none" stroke="#000000" d="M867.0792,-679.6997C616.3921,-679.6816 543.7005,-678.5745 294.9905,-611.7 231.4661,-594.6192 197.2056,-616.2941 153.9905,-566.7 117.2448,-524.5302 166.9239,-318.7 110.9905,-318.7"/>
<polygon fill="#000000" stroke="#000000" points="873.4905,-679.6998 881.4904,-683.3 877.4905,-679.6999 881.4905,-679.7 881.4905,-679.7 881.4905,-679.7 877.4905,-679.6999 881.4906,-676.1 873.4905,-679.6998 873.4905,-679.6998"/>
<ellipse fill="none" stroke="#000000" cx="870.2905" cy="-679.6997" rx="3.2" ry="3.2"/>
</g>
<!-- job_ad&#45;&gt;principal -->
<g id="edge15" class="edge">
<title>job_ad:w&#45;&gt;principal:e</title>
<path fill="none" stroke="#000000" d="M867.0672,-679.6991C616.1623,-679.6606 542.9777,-677.9692 294.9905,-607.7 231.7015,-589.7665 197.2739,-612.2344 153.9905,-562.7 117.7629,-521.2402 166.0483,-318.7 110.9905,-318.7"/>
<polygon fill="#000000" stroke="#000000" points="873.4905,-679.6995 881.4903,-683.3 877.4905,-679.6997 881.4905,-679.7 881.4905,-679.7 881.4905,-679.7 877.4905,-679.6997 881.4908,-676.1 873.4905,-679.6995 873.4905,-679.6995"/>
<ellipse fill="none" stroke="#000000" cx="870.2905" cy="-679.6992" rx="3.2" ry="3.2"/>
</g>
<!-- job_request -->
<g id="node7" class="node">
<title>job_request</title>
<g id="a_node7"><a xlink:href="../../tables/job_request.html" xlink:title="job_request" target="_top">
<polygon fill="#ffffff" stroke="transparent" points="602.9905,-299.2 602.9905,-624.2 768.9905,-624.2 768.9905,-299.2 602.9905,-299.2"/>
<polygon fill="#f5f5f5" stroke="transparent" points="602.9905,-600.7 602.9905,-623.7 768.9905,-623.7 768.9905,-600.7 602.9905,-600.7"/>
<polygon fill="none" stroke="#000000" points="602.9905,-600.7 602.9905,-623.7 768.9905,-623.7 768.9905,-600.7 602.9905,-600.7"/>
<text text-anchor="start" x="607.9905" y="-609.8" font-family="Helvetica,sans-Serif" font-weight="bold" font-size="11.00" fill="#000000">job_request</text>
<text text-anchor="start" x="734.0342" y="-608.8" font-family="Helvetica,sans-Serif" font-size="11.00" fill="#000000">[table]</text>
<polygon fill="none" stroke="#000000" points="602.9905,-578.7 602.9905,-600.7 768.9905,-600.7 768.9905,-578.7 602.9905,-578.7"/>
<image xlink:href="../../images/primaryKeys.png" width="11px" height="12px" preserveAspectRatio="xMinYMin meet" x="607.991" y="-595.7"/>
<text text-anchor="start" x="622.9905" y="-585.8" font-family="Helvetica,sans-Serif" font-size="11.00" fill="#000000">id</text>
<polygon fill="#ffffff" stroke="transparent" points="602.9905,-556.7 602.9905,-578.7 768.9905,-578.7 768.9905,-556.7 602.9905,-556.7"/>
<polygon fill="none" stroke="#000000" points="602.9905,-556.7 602.9905,-578.7 768.9905,-578.7 768.9905,-556.7 602.9905,-556.7"/>
<image xlink:href="../../images/foreignKeys.png" width="11px" height="12px" preserveAspectRatio="xMinYMin meet" x="607.991" y="-573.7"/>
<text text-anchor="start" x="622.9905" y="-563.8" font-family="Helvetica,sans-Serif" font-size="11.00" fill="#000000">created_by</text>
<polygon fill="#ffffff" stroke="transparent" points="602.9905,-534.7 602.9905,-556.7 768.9905,-556.7 768.9905,-534.7 602.9905,-534.7"/>
<polygon fill="none" stroke="#000000" points="602.9905,-534.7 602.9905,-556.7 768.9905,-556.7 768.9905,-534.7 602.9905,-534.7"/>
<image xlink:href="../../images/foreignKeys.png" width="11px" height="12px" preserveAspectRatio="xMinYMin meet" x="607.991" y="-551.7"/>
<text text-anchor="start" x="622.9905" y="-541.8" font-family="Helvetica,sans-Serif" font-size="11.00" fill="#000000">modified_by</text>
<polygon fill="#ffffff" stroke="transparent" points="602.9905,-512.7 602.9905,-534.7 768.9905,-534.7 768.9905,-512.7 602.9905,-512.7"/>
<polygon fill="none" stroke="#000000" points="602.9905,-512.7 602.9905,-534.7 768.9905,-534.7 768.9905,-512.7 602.9905,-512.7"/>
<image xlink:href="../../images/foreignKeys.png" width="11px" height="12px" preserveAspectRatio="xMinYMin meet" x="607.991" y="-529.7"/>
<text text-anchor="start" x="622.9905" y="-519.8" font-family="Helvetica,sans-Serif" font-size="11.00" fill="#000000">location_id</text>
<polygon fill="#ffffff" stroke="transparent" points="602.9905,-490.7 602.9905,-512.7 768.9905,-512.7 768.9905,-490.7 602.9905,-490.7"/>
<polygon fill="none" stroke="#000000" points="602.9905,-490.7 602.9905,-512.7 768.9905,-512.7 768.9905,-490.7 602.9905,-490.7"/>
<image xlink:href="../../images/foreignKeys.png" width="11px" height="12px" preserveAspectRatio="xMinYMin meet" x="607.991" y="-507.7"/>
<text text-anchor="start" x="622.9905" y="-497.8" font-family="Helvetica,sans-Serif" font-size="11.00" fill="#000000">rate_card_id</text>
<polygon fill="#ffffff" stroke="transparent" points="602.9905,-468.7 602.9905,-490.7 768.9905,-490.7 768.9905,-468.7 602.9905,-468.7"/>
<polygon fill="none" stroke="#000000" points="602.9905,-468.7 602.9905,-490.7 768.9905,-490.7 768.9905,-468.7 602.9905,-468.7"/>
<image xlink:href="../../images/foreignKeys.png" width="11px" height="12px" preserveAspectRatio="xMinYMin meet" x="607.991" y="-485.7"/>
<text text-anchor="start" x="622.9905" y="-475.8" font-family="Helvetica,sans-Serif" font-size="11.00" fill="#000000">source_job_request_id</text>
<polygon fill="#ffffff" stroke="transparent" points="602.9905,-446.7 602.9905,-468.7 768.9905,-468.7 768.9905,-446.7 602.9905,-446.7"/>
<polygon fill="none" stroke="#000000" points="602.9905,-446.7 602.9905,-468.7 768.9905,-468.7 768.9905,-446.7 602.9905,-446.7"/>
<image xlink:href="../../images/foreignKeys.png" width="11px" height="12px" preserveAspectRatio="xMinYMin meet" x="607.991" y="-463.7"/>
<text text-anchor="start" x="622.9905" y="-453.8" font-family="Helvetica,sans-Serif" font-size="11.00" fill="#000000">eworker_id</text>
<polygon fill="#ffffff" stroke="transparent" points="602.9905,-424.7 602.9905,-446.7 768.9905,-446.7 768.9905,-424.7 602.9905,-424.7"/>
<polygon fill="none" stroke="#000000" points="602.9905,-424.7 602.9905,-446.7 768.9905,-446.7 768.9905,-424.7 602.9905,-424.7"/>
<image xlink:href="../../images/foreignKeys.png" width="11px" height="12px" preserveAspectRatio="xMinYMin meet" x="607.991" y="-441.7"/>
<text text-anchor="start" x="622.9905" y="-431.8" font-family="Helvetica,sans-Serif" font-size="11.00" fill="#000000">unit_id</text>
<polygon fill="#ffffff" stroke="transparent" points="602.9905,-402.7 602.9905,-424.7 768.9905,-424.7 768.9905,-402.7 602.9905,-402.7"/>
<polygon fill="none" stroke="#000000" points="602.9905,-402.7 602.9905,-424.7 768.9905,-424.7 768.9905,-402.7 602.9905,-402.7"/>
<image xlink:href="../../images/foreignKeys.png" width="11px" height="12px" preserveAspectRatio="xMinYMin meet" x="607.991" y="-419.7"/>
<text text-anchor="start" x="622.9905" y="-409.8" font-family="Helvetica,sans-Serif" font-size="11.00" fill="#000000">closed_eworker_id</text>
<polygon fill="#ffffff" stroke="transparent" points="602.9905,-380.7 602.9905,-402.7 768.9905,-402.7 768.9905,-380.7 602.9905,-380.7"/>
<polygon fill="none" stroke="#000000" points="602.9905,-380.7 602.9905,-402.7 768.9905,-402.7 768.9905,-380.7 602.9905,-380.7"/>
<image xlink:href="../../images/foreignKeys.png" width="11px" height="12px" preserveAspectRatio="xMinYMin meet" x="607.991" y="-397.7"/>
<text text-anchor="start" x="622.9905" y="-387.8" font-family="Helvetica,sans-Serif" font-size="11.00" fill="#000000">client_contact_id</text>
<polygon fill="#ffffff" stroke="transparent" points="602.9905,-358.7 602.9905,-380.7 768.9905,-380.7 768.9905,-358.7 602.9905,-358.7"/>
<polygon fill="none" stroke="#000000" points="602.9905,-358.7 602.9905,-380.7 768.9905,-380.7 768.9905,-358.7 602.9905,-358.7"/>
<image xlink:href="../../images/foreignKeys.png" width="11px" height="12px" preserveAspectRatio="xMinYMin meet" x="607.991" y="-375.7"/>
<text text-anchor="start" x="622.9905" y="-365.8" font-family="Helvetica,sans-Serif" font-size="11.00" fill="#000000">client_id</text>
<polygon fill="#ffffff" stroke="transparent" points="602.9905,-336.7 602.9905,-358.7 768.9905,-358.7 768.9905,-336.7 602.9905,-336.7"/>
<polygon fill="none" stroke="#000000" points="602.9905,-336.7 602.9905,-358.7 768.9905,-358.7 768.9905,-336.7 602.9905,-336.7"/>
<image xlink:href="../../images/foreignKeys.png" width="11px" height="12px" preserveAspectRatio="xMinYMin meet" x="607.991" y="-353.7"/>
<text text-anchor="start" x="622.9905" y="-343.8" font-family="Helvetica,sans-Serif" font-size="11.00" fill="#000000">role_id</text>
<polygon fill="none" stroke="#000000" points="602.9905,-317.7 602.9905,-336.7 768.9905,-336.7 768.9905,-317.7 602.9905,-317.7"/>
<text text-anchor="start" x="605.9905" y="-323.8" font-family="Helvetica,sans-Serif" font-size="11.00" fill="#000000">...</text>
<polygon fill="#ffffff" stroke="transparent" points="602.9905,-298.7 602.9905,-317.7 663.9905,-317.7 663.9905,-298.7 602.9905,-298.7"/>
<polygon fill="none" stroke="#000000" points="602.9905,-298.7 602.9905,-317.7 663.9905,-317.7 663.9905,-298.7 602.9905,-298.7"/>
<text text-anchor="start" x="605.9905" y="-304.8" font-family="Helvetica,sans-Serif" font-size="11.00" fill="#000000">&lt; 11</text>
<polygon fill="#ffffff" stroke="transparent" points="663.9905,-298.7 663.9905,-317.7 730.9905,-317.7 730.9905,-298.7 663.9905,-298.7"/>
<polygon fill="none" stroke="#000000" points="663.9905,-298.7 663.9905,-317.7 730.9905,-317.7 730.9905,-298.7 663.9905,-298.7"/>
<text text-anchor="start" x="683.3712" y="-304.8" font-family="Helvetica,sans-Serif" font-size="11.00" fill="#000000">254 rows</text>
<polygon fill="#ffffff" stroke="transparent" points="730.9905,-298.7 730.9905,-317.7 768.9905,-317.7 768.9905,-298.7 730.9905,-298.7"/>
<polygon fill="none" stroke="#000000" points="730.9905,-298.7 730.9905,-317.7 768.9905,-317.7 768.9905,-298.7 730.9905,-298.7"/>
<text text-anchor="start" x="750.3958" y="-304.8" font-family="Helvetica,sans-Serif" font-size="11.00" fill="#000000">7 &gt;</text>
</a>
</g>
</g>
<!-- job_ad&#45;&gt;job_request -->
<g id="edge13" class="edge">
<title>job_ad:w&#45;&gt;job_request:e</title>
<path fill="none" stroke="#000000" d="M866.8573,-678.4795C842.1346,-673.9029 834.1939,-656.9814 809.9905,-636.7 788.7439,-618.8962 796.7105,-589.7 768.9905,-589.7"/>
<polygon fill="#000000" stroke="#000000" points="873.5182,-679.035 881.1913,-683.2875 877.5044,-679.3675 881.4905,-679.7 881.4905,-679.7 881.4905,-679.7 877.5044,-679.3675 881.7898,-676.1125 873.5182,-679.035 873.5182,-679.035"/>
<ellipse fill="none" stroke="#000000" cx="870.3293" cy="-678.7691" rx="3.2" ry="3.2"/>
</g>
<!-- location -->
<g id="node8" class="node">
<title>location</title>
<g id="a_node8"><a xlink:href="../../tables/location.html" xlink:title="location" target="_top">
<polygon fill="#ffffff" stroke="transparent" points="457.4905,-555.2 457.4905,-616.2 540.4905,-616.2 540.4905,-555.2 457.4905,-555.2"/>
<polygon fill="#f5f5f5" stroke="transparent" points="457.9905,-592.7 457.9905,-615.7 540.9905,-615.7 540.9905,-592.7 457.9905,-592.7"/>
<polygon fill="none" stroke="#000000" points="457.9905,-592.7 457.9905,-615.7 540.9905,-615.7 540.9905,-592.7 457.9905,-592.7"/>
<text text-anchor="start" x="462.9905" y="-601.8" font-family="Helvetica,sans-Serif" font-weight="bold" font-size="11.00" fill="#000000">location</text>
<text text-anchor="start" x="506.0342" y="-600.8" font-family="Helvetica,sans-Serif" font-size="11.00" fill="#000000">[table]</text>
<polygon fill="none" stroke="#000000" points="457.9905,-573.7 457.9905,-592.7 540.9905,-592.7 540.9905,-573.7 457.9905,-573.7"/>
<text text-anchor="start" x="460.9905" y="-579.8" font-family="Helvetica,sans-Serif" font-size="11.00" fill="#000000">...</text>
<polygon fill="#ffffff" stroke="transparent" points="457.9905,-554.7 457.9905,-573.7 469.9905,-573.7 469.9905,-554.7 457.9905,-554.7"/>
<polygon fill="none" stroke="#000000" points="457.9905,-554.7 457.9905,-573.7 469.9905,-573.7 469.9905,-554.7 457.9905,-554.7"/>
<text text-anchor="start" x="460.9336" y="-560.8" font-family="Helvetica,sans-Serif" font-size="11.00" fill="#000000"> &#160;</text>
<polygon fill="#ffffff" stroke="transparent" points="469.9905,-554.7 469.9905,-573.7 519.9905,-573.7 519.9905,-554.7 469.9905,-554.7"/>
<polygon fill="none" stroke="#000000" points="469.9905,-554.7 469.9905,-573.7 519.9905,-573.7 519.9905,-554.7 469.9905,-554.7"/>
<text text-anchor="start" x="472.6809" y="-560.8" font-family="Helvetica,sans-Serif" font-size="11.00" fill="#000000">541 rows</text>
<polygon fill="#ffffff" stroke="transparent" points="519.9905,-554.7 519.9905,-573.7 540.9905,-573.7 540.9905,-554.7 519.9905,-554.7"/>
<polygon fill="none" stroke="#000000" points="519.9905,-554.7 519.9905,-573.7 540.9905,-573.7 540.9905,-554.7 519.9905,-554.7"/>
<text text-anchor="start" x="522.6932" y="-560.8" font-family="Helvetica,sans-Serif" font-size="11.00" fill="#000000">4 &gt;</text>
</a>
</g>
</g>
<!-- job_ad&#45;&gt;location -->
<g id="edge14" class="edge">
<title>job_ad:w&#45;&gt;location:e</title>
<path fill="none" stroke="#000000" d="M867.163,-677.9134C809.7524,-669.9373 601.3031,-637.8367 594.9905,-634.7 565.1526,-619.8736 574.3091,-582.7 540.9905,-582.7"/>
<polygon fill="#000000" stroke="#000000" points="873.552,-678.7101 881.0451,-683.2723 877.5213,-679.205 881.4905,-679.7 881.4905,-679.7 881.4905,-679.7 877.5213,-679.205 881.936,-676.1277 873.552,-678.7101 873.552,-678.7101"/>
<ellipse fill="none" stroke="#000000" cx="870.3766" cy="-678.3141" rx="3.2" ry="3.2"/>
</g>
<!-- job_request&#45;&gt;client -->
<g id="edge17" class="edge">
<title>job_request:w&#45;&gt;client:e</title>
<path fill="none" stroke="#000000" d="M588.42,-369.6702C525.4274,-369.3816 503.8902,-366.7561 435.9905,-351.7 417.1919,-347.5316 414.2458,-337.7 394.9905,-337.7"/>
<polygon fill="#000000" stroke="#000000" points="594.9906,-369.6836 602.9832,-373.3 598.9906,-369.6918 602.9905,-369.7 602.9905,-369.7 602.9905,-369.7 598.9906,-369.6918 602.9979,-366.1 594.9906,-369.6836 594.9906,-369.6836"/>
<ellipse fill="none" stroke="#000000" cx="591.7906" cy="-369.677" rx="3.2" ry="3.2"/>
</g>
<!-- job_request&#45;&gt;eworker -->
<g id="edge18" class="edge">
<title>job_request:w&#45;&gt;eworker:e</title>
<path fill="none" stroke="#000000" d="M588.5136,-413.8324C462.9683,-416.1399 420.2445,-447.3182 294.9905,-405.7 273.8094,-398.6621 276.3103,-376.7 253.9905,-376.7"/>
<polygon fill="#000000" stroke="#000000" points="594.9909,-413.7732 603.0235,-417.2998 598.9907,-413.7366 602.9905,-413.7 602.9905,-413.7 602.9905,-413.7 598.9907,-413.7366 602.9576,-410.1002 594.9909,-413.7732 594.9909,-413.7732"/>
<ellipse fill="none" stroke="#000000" cx="591.791" cy="-413.8025" rx="3.2" ry="3.2"/>
</g>
<!-- job_request&#45;&gt;eworker -->
<g id="edge20" class="edge">
<title>job_request:w&#45;&gt;eworker:e</title>
<path fill="none" stroke="#000000" d="M588.4122,-457.8216C461.7388,-459.9306 412.1101,-487.9882 294.9905,-425.7 269.9198,-412.3665 282.3863,-376.7 253.9905,-376.7"/>
<polygon fill="#000000" stroke="#000000" points="594.9908,-457.7668 603.0206,-461.2999 598.9907,-457.7334 602.9905,-457.7 602.9905,-457.7 602.9905,-457.7 598.9907,-457.7334 602.9605,-454.1001 594.9908,-457.7668 594.9908,-457.7668"/>
<ellipse fill="none" stroke="#000000" cx="591.7909" cy="-457.7935" rx="3.2" ry="3.2"/>
</g>
<!-- job_request&#45;&gt;principal -->
<g id="edge19" class="edge">
<title>job_request:w&#45;&gt;principal:e</title>
<path fill="none" stroke="#000000" d="M589.0376,-572.5547C576.9096,-584.4448 584.5403,-614.9103 561.9905,-626.7 512.364,-652.6463 491.3783,-634.9579 435.9905,-626.7 427.8906,-625.4924 159.4705,-546.7859 153.9905,-540.7 86.7411,-466.0149 211.491,-318.7 110.9905,-318.7"/>
<polygon fill="#000000" stroke="#000000" points="595.4348,-570.3289 604.1736,-571.1001 599.2127,-569.0145 602.9905,-567.7 602.9905,-567.7 602.9905,-567.7 599.2127,-569.0145 601.8075,-564.2999 595.4348,-570.3289 595.4348,-570.3289"/>
<ellipse fill="none" stroke="#000000" cx="592.4125" cy="-571.3805" rx="3.2" ry="3.2"/>
</g>
<!-- job_request&#45;&gt;principal -->
<g id="edge22" class="edge">
<title>job_request:w&#45;&gt;principal:e</title>
<path fill="none" stroke="#000000" d="M588.4153,-545.376C476.2588,-540.7047 228.3252,-486.1176 153.9905,-420.7 117.0585,-388.1982 160.1876,-318.7 110.9905,-318.7"/>
<polygon fill="#000000" stroke="#000000" points="594.9925,-545.5222 602.9105,-549.2991 598.9915,-545.6111 602.9905,-545.7 602.9905,-545.7 602.9905,-545.7 598.9915,-545.6111 603.0706,-542.1009 594.9925,-545.5222 594.9925,-545.5222"/>
<ellipse fill="none" stroke="#000000" cx="591.7933" cy="-545.451" rx="3.2" ry="3.2"/>
</g>
<!-- job_request&#45;&gt;client_contact -->
<g id="edge16" class="edge">
<title>job_request:w&#45;&gt;client_contact:e</title>
<path fill="none" stroke="#000000" d="M588.9615,-387.8562C561.6632,-368.6172 600.7289,-283.7 553.9905,-283.7"/>
<polygon fill="#000000" stroke="#000000" points="595.2749,-389.586 602.0392,-395.172 599.1327,-390.643 602.9905,-391.7 602.9905,-391.7 602.9905,-391.7 599.1327,-390.643 603.9419,-388.228 595.2749,-389.586 595.2749,-389.586"/>
<ellipse fill="none" stroke="#000000" cx="592.1887" cy="-388.7404" rx="3.2" ry="3.2"/>
</g>
<!-- job_request&#45;&gt;ework_unit -->
<g id="edge25" class="edge">
<title>job_request:w&#45;&gt;ework_unit:e</title>
<path fill="none" stroke="#000000" d="M588.4888,-435.985C362.128,-444.9963 348.4477,-664.7 112.9905,-664.7"/>
<polygon fill="#000000" stroke="#000000" points="594.9921,-435.8572 603.0613,-439.2993 598.9913,-435.7786 602.9905,-435.7 602.9905,-435.7 602.9905,-435.7 598.9913,-435.7786 602.9198,-432.1007 594.9921,-435.8572 594.9921,-435.8572"/>
<ellipse fill="none" stroke="#000000" cx="591.7927" cy="-435.9201" rx="3.2" ry="3.2"/>
</g>
<!-- job_request&#45;&gt;location -->
<g id="edge21" class="edge">
<title>job_request:w&#45;&gt;location:e</title>
<path fill="none" stroke="#000000" d="M588.8659,-527.3907C568.0317,-540.3073 573.234,-582.7 540.9905,-582.7"/>
<polygon fill="#000000" stroke="#000000" points="595.2504,-525.7225 603.9007,-527.1831 599.1205,-524.7113 602.9905,-523.7 602.9905,-523.7 602.9905,-523.7 599.1205,-524.7113 602.0804,-520.2169 595.2504,-525.7225 595.2504,-525.7225"/>
<ellipse fill="none" stroke="#000000" cx="592.1544" cy="-526.5315" rx="3.2" ry="3.2"/>
</g>
<!-- rate_card -->
<g id="node9" class="node">
<title>rate_card</title>
<g id="a_node9"><a xlink:href="../../tables/rate_card.html" xlink:title="rate_card" target="_top">
<polygon fill="#ffffff" stroke="transparent" points="302.9905,-664.2 302.9905,-725.2 394.9905,-725.2 394.9905,-664.2 302.9905,-664.2"/>
<polygon fill="#f5f5f5" stroke="transparent" points="302.9905,-701.7 302.9905,-724.7 394.9905,-724.7 394.9905,-701.7 302.9905,-701.7"/>
<polygon fill="none" stroke="#000000" points="302.9905,-701.7 302.9905,-724.7 394.9905,-724.7 394.9905,-701.7 302.9905,-701.7"/>
<text text-anchor="start" x="307.9905" y="-710.8" font-family="Helvetica,sans-Serif" font-weight="bold" font-size="11.00" fill="#000000">rate_card</text>
<text text-anchor="start" x="360.0342" y="-709.8" font-family="Helvetica,sans-Serif" font-size="11.00" fill="#000000">[table]</text>
<polygon fill="none" stroke="#000000" points="302.9905,-682.7 302.9905,-701.7 394.9905,-701.7 394.9905,-682.7 302.9905,-682.7"/>
<text text-anchor="start" x="305.9905" y="-688.8" font-family="Helvetica,sans-Serif" font-size="11.00" fill="#000000">...</text>
<polygon fill="#ffffff" stroke="transparent" points="302.9905,-663.7 302.9905,-682.7 323.9905,-682.7 323.9905,-663.7 302.9905,-663.7"/>
<polygon fill="none" stroke="#000000" points="302.9905,-663.7 302.9905,-682.7 323.9905,-682.7 323.9905,-663.7 302.9905,-663.7"/>
<text text-anchor="start" x="305.6932" y="-669.8" font-family="Helvetica,sans-Serif" font-size="11.00" fill="#000000">&lt; 1</text>
<polygon fill="#ffffff" stroke="transparent" points="323.9905,-663.7 323.9905,-682.7 373.9905,-682.7 373.9905,-663.7 323.9905,-663.7"/>
<polygon fill="none" stroke="#000000" points="323.9905,-663.7 323.9905,-682.7 373.9905,-682.7 373.9905,-663.7 323.9905,-663.7"/>
<text text-anchor="start" x="326.6809" y="-669.8" font-family="Helvetica,sans-Serif" font-size="11.00" fill="#000000">239 rows</text>
<polygon fill="#ffffff" stroke="transparent" points="373.9905,-663.7 373.9905,-682.7 394.9905,-682.7 394.9905,-663.7 373.9905,-663.7"/>
<polygon fill="none" stroke="#000000" points="373.9905,-663.7 373.9905,-682.7 394.9905,-682.7 394.9905,-663.7 373.9905,-663.7"/>
<text text-anchor="start" x="376.6932" y="-669.8" font-family="Helvetica,sans-Serif" font-size="11.00" fill="#000000">1 &gt;</text>
</a>
</g>
</g>
<!-- job_request&#45;&gt;rate_card -->
<g id="edge23" class="edge">
<title>job_request:w&#45;&gt;rate_card:e</title>
<path fill="none" stroke="#000000" d="M588.2469,-501.581C521.5319,-500.569 487.0897,-494.6122 435.9905,-544.7 387.5527,-592.1792 462.8175,-691.7 394.9905,-691.7"/>
<polygon fill="#000000" stroke="#000000" points="594.9908,-501.6354 602.9615,-505.2999 598.9907,-501.6677 602.9905,-501.7 602.9905,-501.7 602.9905,-501.7 598.9907,-501.6677 603.0196,-498.1001 594.9908,-501.6354 594.9908,-501.6354"/>
<ellipse fill="none" stroke="#000000" cx="591.7909" cy="-501.6096" rx="3.2" ry="3.2"/>
</g>
<!-- skill_role -->
<g id="node10" class="node">
<title>skill_role</title>
<g id="a_node10"><a xlink:href="../../tables/skill_role.html" xlink:title="skill_role" target="_top">
<polygon fill="#ffffff" stroke="transparent" points="456.4905,-174.2 456.4905,-235.2 541.4905,-235.2 541.4905,-174.2 456.4905,-174.2"/>
<polygon fill="#f5f5f5" stroke="transparent" points="456.9905,-211.7 456.9905,-234.7 541.9905,-234.7 541.9905,-211.7 456.9905,-211.7"/>
<polygon fill="none" stroke="#000000" points="456.9905,-211.7 456.9905,-234.7 541.9905,-234.7 541.9905,-211.7 456.9905,-211.7"/>
<text text-anchor="start" x="461.6054" y="-220.8" font-family="Helvetica,sans-Serif" font-weight="bold" font-size="11.00" fill="#000000">skill_role</text>
<text text-anchor="start" x="507.5124" y="-219.8" font-family="Helvetica,sans-Serif" font-size="11.00" fill="#000000">[table]</text>
<polygon fill="none" stroke="#000000" points="456.9905,-192.7 456.9905,-211.7 541.9905,-211.7 541.9905,-192.7 456.9905,-192.7"/>
<text text-anchor="start" x="459.9905" y="-198.8" font-family="Helvetica,sans-Serif" font-size="11.00" fill="#000000">...</text>
<polygon fill="#ffffff" stroke="transparent" points="456.9905,-173.7 456.9905,-192.7 469.9905,-192.7 469.9905,-173.7 456.9905,-173.7"/>
<polygon fill="none" stroke="#000000" points="456.9905,-173.7 456.9905,-192.7 469.9905,-192.7 469.9905,-173.7 456.9905,-173.7"/>
<text text-anchor="start" x="459.9905" y="-179.8" font-family="Helvetica,sans-Serif" font-size="11.00" fill="#000000"> &#160;</text>
<polygon fill="#ffffff" stroke="transparent" points="469.9905,-173.7 469.9905,-192.7 519.9905,-192.7 519.9905,-173.7 469.9905,-173.7"/>
<polygon fill="none" stroke="#000000" points="469.9905,-173.7 469.9905,-192.7 519.9905,-192.7 519.9905,-173.7 469.9905,-173.7"/>
<text text-anchor="start" x="472.6809" y="-179.8" font-family="Helvetica,sans-Serif" font-size="11.00" fill="#000000">603 rows</text>
<polygon fill="#ffffff" stroke="transparent" points="519.9905,-173.7 519.9905,-192.7 541.9905,-192.7 541.9905,-173.7 519.9905,-173.7"/>
<polygon fill="none" stroke="#000000" points="519.9905,-173.7 519.9905,-192.7 541.9905,-192.7 541.9905,-173.7 519.9905,-173.7"/>
<text text-anchor="start" x="523.3958" y="-179.8" font-family="Helvetica,sans-Serif" font-size="11.00" fill="#000000">4 &gt;</text>
</a>
</g>
</g>
<!-- job_request&#45;&gt;skill_role -->
<g id="edge24" class="edge">
<title>job_request:w&#45;&gt;skill_role:e</title>
<path fill="none" stroke="#000000" d="M588.8272,-345.0413C544.4604,-325.2534 606.6839,-201.7 541.9905,-201.7"/>
<polygon fill="#000000" stroke="#000000" points="595.1279,-346.224 602.3263,-351.2382 599.0592,-346.962 602.9905,-347.7 602.9905,-347.7 602.9905,-347.7 599.0592,-346.962 603.6548,-344.1618 595.1279,-346.224 595.1279,-346.224"/>
<ellipse fill="none" stroke="#000000" cx="591.9828" cy="-345.6336" rx="3.2" ry="3.2"/>
</g>
<!-- rate_card&#45;&gt;ework_unit -->
<g id="edge40" class="edge">
<title>rate_card:w&#45;&gt;ework_unit:e</title>
<path fill="none" stroke="#000000" d="M288.5848,-691.6072C233.5062,-690.8551 214.6097,-685.5066 153.9905,-674.7 135.5253,-671.4082 131.7469,-664.7 112.9905,-664.7"/>
<polygon fill="#000000" stroke="#000000" points="294.9907,-691.6484 302.9673,-695.2999 298.9906,-691.6742 302.9905,-691.7 302.9905,-691.7 302.9905,-691.7 298.9906,-691.6742 303.0138,-688.1001 294.9907,-691.6484 294.9907,-691.6484"/>
<ellipse fill="none" stroke="#000000" cx="291.7908" cy="-691.6278" rx="3.2" ry="3.2"/>
</g>
<!-- job_request_application -->
<g id="node11" class="node">
<title>job_request_application</title>
<g id="a_node11"><a xlink:href="../../tables/job_request_application.html" xlink:title="job_request_application" target="_top">
<polygon fill="#ffffff" stroke="transparent" points="844.9905,-120.2 844.9905,-181.2 1003.9905,-181.2 1003.9905,-120.2 844.9905,-120.2"/>
<polygon fill="#f5f5f5" stroke="transparent" points="845.4905,-157.7 845.4905,-180.7 1004.4905,-180.7 1004.4905,-157.7 845.4905,-157.7"/>
<polygon fill="none" stroke="#000000" points="845.4905,-157.7 845.4905,-180.7 1004.4905,-180.7 1004.4905,-157.7 845.4905,-157.7"/>
<text text-anchor="start" x="850.4166" y="-166.8" font-family="Helvetica,sans-Serif" font-weight="bold" font-size="11.00" fill="#000000">job_request_application</text>
<text text-anchor="start" x="970.0124" y="-165.8" font-family="Helvetica,sans-Serif" font-size="11.00" fill="#000000">[table]</text>
<polygon fill="none" stroke="#000000" points="845.4905,-138.7 845.4905,-157.7 1004.4905,-157.7 1004.4905,-138.7 845.4905,-138.7"/>
<text text-anchor="start" x="848.4905" y="-144.8" font-family="Helvetica,sans-Serif" font-size="11.00" fill="#000000">...</text>
<polygon fill="#ffffff" stroke="transparent" points="845.4905,-119.7 845.4905,-138.7 902.4905,-138.7 902.4905,-119.7 845.4905,-119.7"/>
<polygon fill="none" stroke="#000000" points="845.4905,-119.7 845.4905,-138.7 902.4905,-138.7 902.4905,-119.7 845.4905,-119.7"/>
<text text-anchor="start" x="848.4905" y="-125.8" font-family="Helvetica,sans-Serif" font-size="11.00" fill="#000000">&lt; 6</text>
<polygon fill="#ffffff" stroke="transparent" points="902.4905,-119.7 902.4905,-138.7 964.4905,-138.7 964.4905,-119.7 902.4905,-119.7"/>
<polygon fill="none" stroke="#000000" points="902.4905,-119.7 902.4905,-138.7 964.4905,-138.7 964.4905,-119.7 902.4905,-119.7"/>
<text text-anchor="start" x="922.9861" y="-125.8" font-family="Helvetica,sans-Serif" font-size="11.00" fill="#000000">75 rows</text>
<polygon fill="#ffffff" stroke="transparent" points="964.4905,-119.7 964.4905,-138.7 1004.4905,-138.7 1004.4905,-119.7 964.4905,-119.7"/>
<polygon fill="none" stroke="#000000" points="964.4905,-119.7 964.4905,-138.7 1004.4905,-138.7 1004.4905,-119.7 964.4905,-119.7"/>
<text text-anchor="start" x="985.8958" y="-125.8" font-family="Helvetica,sans-Serif" font-size="11.00" fill="#000000">5 &gt;</text>
</a>
</g>
</g>
<!-- job_request_application&#45;&gt;principal -->
<g id="edge26" class="edge">
<title>job_request_application:w&#45;&gt;principal:e</title>
<path fill="none" stroke="#000000" d="M830.8506,-147.5689C687.8565,-144.9732 649.1709,-104.7 498.9905,-104.7 498.9905,-104.7 498.9905,-104.7 348.9905,-104.7 242.3007,-104.7 225.714,-165.716 153.9905,-244.7 128.4189,-272.8603 149.0289,-318.7 110.9905,-318.7"/>
<polygon fill="#000000" stroke="#000000" points="837.4909,-147.6283 845.4583,-151.2999 841.4907,-147.6642 845.4905,-147.7 845.4905,-147.7 845.4905,-147.7 841.4907,-147.6642 845.5228,-144.1001 837.4909,-147.6283 837.4909,-147.6283"/>
<ellipse fill="none" stroke="#000000" cx="834.291" cy="-147.5996" rx="3.2" ry="3.2"/>
</g>
<!-- job_request_application&#45;&gt;principal -->
<g id="edge28" class="edge">
<title>job_request_application:w&#45;&gt;principal:e</title>
<path fill="none" stroke="#000000" d="M830.9804,-147.6444C597.5101,-145.8537 523.1353,-101.877 294.9905,-176.7 228.1303,-198.6277 205.6652,-200.9418 153.9905,-248.7 127.1764,-273.4818 147.5027,-318.7 110.9905,-318.7"/>
<polygon fill="#000000" stroke="#000000" points="837.4906,-147.6693 845.4767,-151.3 841.4906,-147.6847 845.4905,-147.7 845.4905,-147.7 845.4905,-147.7 841.4906,-147.6847 845.5044,-144.1 837.4906,-147.6693 837.4906,-147.6693"/>
<ellipse fill="none" stroke="#000000" cx="834.2906" cy="-147.657" rx="3.2" ry="3.2"/>
</g>
<!-- job_request_application&#45;&gt;job_request -->
<g id="edge27" class="edge">
<title>job_request_application:w&#45;&gt;job_request:e</title>
<path fill="none" stroke="#000000" d="M831.2631,-150.8335C815.4501,-159.5679 817.9528,-185.1602 809.9905,-209.7 796.8841,-250.0942 811.4578,-589.7 768.9905,-589.7"/>
<polygon fill="#000000" stroke="#000000" points="837.6778,-149.4208 846.2649,-151.2157 841.5842,-148.5604 845.4905,-147.7 845.4905,-147.7 845.4905,-147.7 841.5842,-148.5604 844.7162,-144.1843 837.6778,-149.4208 837.6778,-149.4208"/>
<ellipse fill="none" stroke="#000000" cx="834.5527" cy="-150.1091" rx="3.2" ry="3.2"/>
</g>
<!-- job_request_attachment -->
<g id="node12" class="node">
<title>job_request_attachment</title>
<g id="a_node12"><a xlink:href="../../tables/job_request_attachment.html" xlink:title="job_request_attachment" target="_top">
<polygon fill="#ffffff" stroke="transparent" points="844.4905,-565.2 844.4905,-626.2 1004.4905,-626.2 1004.4905,-565.2 844.4905,-565.2"/>
<polygon fill="#f5f5f5" stroke="transparent" points="844.4905,-602.7 844.4905,-625.7 1004.4905,-625.7 1004.4905,-602.7 844.4905,-602.7"/>
<polygon fill="none" stroke="#000000" points="844.4905,-602.7 844.4905,-625.7 1004.4905,-625.7 1004.4905,-602.7 844.4905,-602.7"/>
<text text-anchor="start" x="848.9975" y="-611.8" font-family="Helvetica,sans-Serif" font-weight="bold" font-size="11.00" fill="#000000">job_request_attachment</text>
<text text-anchor="start" x="970.0124" y="-610.8" font-family="Helvetica,sans-Serif" font-size="11.00" fill="#000000">[table]</text>
<polygon fill="none" stroke="#000000" points="844.4905,-583.7 844.4905,-602.7 1004.4905,-602.7 1004.4905,-583.7 844.4905,-583.7"/>
<text text-anchor="start" x="847.4905" y="-589.8" font-family="Helvetica,sans-Serif" font-size="11.00" fill="#000000">...</text>
<polygon fill="#ffffff" stroke="transparent" points="844.4905,-564.7 844.4905,-583.7 909.4905,-583.7 909.4905,-564.7 844.4905,-564.7"/>
<polygon fill="none" stroke="#000000" points="844.4905,-564.7 844.4905,-583.7 909.4905,-583.7 909.4905,-564.7 844.4905,-564.7"/>
<text text-anchor="start" x="847.4905" y="-570.8" font-family="Helvetica,sans-Serif" font-size="11.00" fill="#000000">&lt; 2</text>
<polygon fill="#ffffff" stroke="transparent" points="909.4905,-564.7 909.4905,-583.7 969.4905,-583.7 969.4905,-564.7 909.4905,-564.7"/>
<polygon fill="none" stroke="#000000" points="909.4905,-564.7 909.4905,-583.7 969.4905,-583.7 969.4905,-564.7 909.4905,-564.7"/>
<text text-anchor="start" x="934.101" y="-570.8" font-family="Helvetica,sans-Serif" font-size="11.00" fill="#000000">4 rows</text>
<polygon fill="#ffffff" stroke="transparent" points="969.4905,-564.7 969.4905,-583.7 1004.4905,-583.7 1004.4905,-564.7 969.4905,-564.7"/>
<polygon fill="none" stroke="#000000" points="969.4905,-564.7 969.4905,-583.7 1004.4905,-583.7 1004.4905,-564.7 969.4905,-564.7"/>
<text text-anchor="start" x="995.3767" y="-570.8" font-family="Helvetica,sans-Serif" font-size="11.00" fill="#000000"> &#160;</text>
</a>
</g>
</g>
<!-- job_request_attachment&#45;&gt;job_request -->
<g id="edge29" class="edge">
<title>job_request_attachment:w&#45;&gt;job_request:e</title>
<path fill="none" stroke="#000000" d="M830.0907,-592.4938C807.5908,-591.816 797.1942,-589.7 768.9905,-589.7"/>
<polygon fill="#000000" stroke="#000000" points="836.4914,-592.5854 844.439,-596.2996 840.491,-592.6427 844.4905,-592.7 844.4905,-592.7 844.4905,-592.7 840.491,-592.6427 844.5421,-589.1004 836.4914,-592.5854 836.4914,-592.5854"/>
<ellipse fill="none" stroke="#000000" cx="833.2917" cy="-592.5396" rx="3.2" ry="3.2"/>
</g>
<!-- job_request_language -->
<g id="node13" class="node">
<title>job_request_language</title>
<g id="a_node13"><a xlink:href="../../tables/job_request_language.html" xlink:title="job_request_language" target="_top">
<polygon fill="#ffffff" stroke="transparent" points="817.9905,-409.7 817.9905,-543.7 1030.9905,-543.7 1030.9905,-409.7 817.9905,-409.7"/>
<polygon fill="#f5f5f5" stroke="transparent" points="820.4905,-518.7 820.4905,-541.7 1029.4905,-541.7 1029.4905,-518.7 820.4905,-518.7"/>
<polygon fill="none" stroke="#000000" points="820.4905,-518.7 820.4905,-541.7 1029.4905,-541.7 1029.4905,-518.7 820.4905,-518.7"/>
<text text-anchor="start" x="825.4905" y="-527.8" font-family="Helvetica,sans-Serif" font-weight="bold" font-size="11.00" fill="#000000">job_request_language</text>
<text text-anchor="start" x="994.5342" y="-526.8" font-family="Helvetica,sans-Serif" font-size="11.00" fill="#000000">[table]</text>
<polygon fill="none" stroke="#000000" points="820.4905,-496.7 820.4905,-518.7 968.4905,-518.7 968.4905,-496.7 820.4905,-496.7"/>
<image xlink:href="../../images/primaryKeys.png" width="11px" height="12px" preserveAspectRatio="xMinYMin meet" x="825.491" y="-513.7"/>
<text text-anchor="start" x="840.4905" y="-503.8" font-family="Helvetica,sans-Serif" font-size="11.00" fill="#000000">id</text>
<polygon fill="none" stroke="#000000" points="968.4905,-496.7 968.4905,-518.7 1029.4905,-518.7 1029.4905,-496.7 968.4905,-496.7"/>
<text text-anchor="start" x="971.4905" y="-504.4" font-family="Helvetica,sans-Serif" font-size="11.00" fill="#000000">bigint[19]</text>
<polygon fill="#ffffff" stroke="transparent" points="820.4905,-474.7 820.4905,-496.7 968.4905,-496.7 968.4905,-474.7 820.4905,-474.7"/>
<polygon fill="none" stroke="#000000" points="820.4905,-474.7 820.4905,-496.7 968.4905,-496.7 968.4905,-474.7 820.4905,-474.7"/>
<image xlink:href="../../images/foreignKeys.png" width="11px" height="12px" preserveAspectRatio="xMinYMin meet" x="825.491" y="-491.7"/>
<text text-anchor="start" x="840.4905" y="-481.8" font-family="Helvetica,sans-Serif" font-size="11.00" fill="#000000">job_request_id</text>
<polygon fill="none" stroke="#000000" points="968.4905,-474.7 968.4905,-496.7 1029.4905,-496.7 1029.4905,-474.7 968.4905,-474.7"/>
<text text-anchor="start" x="971.4905" y="-482.4" font-family="Helvetica,sans-Serif" font-size="11.00" fill="#000000">bigint[19]</text>
<polygon fill="none" stroke="#000000" points="820.4905,-452.7 820.4905,-474.7 968.4905,-474.7 968.4905,-452.7 820.4905,-452.7"/>
<text text-anchor="start" x="840.4905" y="-459.8" font-family="Helvetica,sans-Serif" font-size="11.00" fill="#000000">level</text>
<polygon fill="none" stroke="#000000" points="968.4905,-452.7 968.4905,-474.7 1029.4905,-474.7 1029.4905,-452.7 968.4905,-452.7"/>
<text text-anchor="start" x="971.4845" y="-460.4" font-family="Helvetica,sans-Serif" font-size="11.00" fill="#000000">varchar[15]</text>
<polygon fill="none" stroke="#000000" points="820.4905,-430.7 820.4905,-452.7 968.4905,-452.7 968.4905,-430.7 820.4905,-430.7"/>
<text text-anchor="start" x="840.4905" y="-437.8" font-family="Helvetica,sans-Serif" font-size="11.00" fill="#000000">language</text>
<polygon fill="none" stroke="#000000" points="968.4905,-430.7 968.4905,-452.7 1029.4905,-452.7 1029.4905,-430.7 968.4905,-430.7"/>
<text text-anchor="start" x="971.4905" y="-438.4" font-family="Helvetica,sans-Serif" font-size="11.00" fill="#000000">varchar[2]</text>
<polygon fill="#ffffff" stroke="transparent" points="820.4905,-411.7 820.4905,-430.7 882.4905,-430.7 882.4905,-411.7 820.4905,-411.7"/>
<polygon fill="none" stroke="#000000" points="820.4905,-411.7 820.4905,-430.7 882.4905,-430.7 882.4905,-411.7 820.4905,-411.7"/>
<text text-anchor="start" x="823.4905" y="-417.8" font-family="Helvetica,sans-Serif" font-size="11.00" fill="#000000">&lt; 1</text>
<polygon fill="#ffffff" stroke="transparent" points="882.4905,-411.7 882.4905,-430.7 968.4905,-430.7 968.4905,-411.7 882.4905,-411.7"/>
<polygon fill="none" stroke="#000000" points="882.4905,-411.7 882.4905,-430.7 968.4905,-430.7 968.4905,-411.7 882.4905,-411.7"/>
<text text-anchor="start" x="926.9861" y="-417.8" font-family="Helvetica,sans-Serif" font-size="11.00" fill="#000000">32 rows</text>
<polygon fill="#ffffff" stroke="transparent" points="968.4905,-411.7 968.4905,-430.7 1029.4905,-430.7 1029.4905,-411.7 968.4905,-411.7"/>
<polygon fill="none" stroke="#000000" points="968.4905,-411.7 968.4905,-430.7 1029.4905,-430.7 1029.4905,-411.7 968.4905,-411.7"/>
<text text-anchor="start" x="1010.8958" y="-417.8" font-family="Helvetica,sans-Serif" font-size="11.00" fill="#000000">0 &gt;</text>
<polygon fill="none" stroke="#000000" stroke-width="2" points="818.9905,-410.7 818.9905,-542.7 1029.9905,-542.7 1029.9905,-410.7 818.9905,-410.7"/>
</a>
</g>
</g>
<!-- job_request_language&#45;&gt;job_request -->
<g id="edge30" class="edge">
<title>job_request_language:w&#45;&gt;job_request:e</title>
<path fill="none" stroke="#000000" d="M806.2783,-489.6499C779.6011,-508.6468 814.5251,-589.7 768.9905,-589.7"/>
<polygon fill="#000000" stroke="#000000" points="812.7827,-487.8422 821.4546,-489.1685 816.6366,-486.7711 820.4905,-485.7 820.4905,-485.7 820.4905,-485.7 816.6366,-486.7711 819.5265,-482.2315 812.7827,-487.8422 812.7827,-487.8422"/>
<ellipse fill="none" stroke="#000000" cx="809.6995" cy="-488.6991" rx="3.2" ry="3.2"/>
</g>
<!-- job_request_skill -->
<g id="node14" class="node">
<title>job_request_skill</title>
<g id="a_node14"><a xlink:href="../../tables/job_request_skill.html" xlink:title="job_request_skill" target="_top">
<polygon fill="#ffffff" stroke="transparent" points="862.4905,-38.2 862.4905,-99.2 986.4905,-99.2 986.4905,-38.2 862.4905,-38.2"/>
<polygon fill="#f5f5f5" stroke="transparent" points="862.4905,-75.7 862.4905,-98.7 986.4905,-98.7 986.4905,-75.7 862.4905,-75.7"/>
<polygon fill="none" stroke="#000000" points="862.4905,-75.7 862.4905,-98.7 986.4905,-98.7 986.4905,-75.7 862.4905,-75.7"/>
<text text-anchor="start" x="867.0397" y="-84.8" font-family="Helvetica,sans-Serif" font-weight="bold" font-size="11.00" fill="#000000">job_request_skill</text>
<text text-anchor="start" x="952.0124" y="-83.8" font-family="Helvetica,sans-Serif" font-size="11.00" fill="#000000">[table]</text>
<polygon fill="none" stroke="#000000" points="862.4905,-56.7 862.4905,-75.7 986.4905,-75.7 986.4905,-56.7 862.4905,-56.7"/>
<text text-anchor="start" x="865.4905" y="-62.8" font-family="Helvetica,sans-Serif" font-size="11.00" fill="#000000">...</text>
<polygon fill="#ffffff" stroke="transparent" points="862.4905,-37.7 862.4905,-56.7 903.4905,-56.7 903.4905,-37.7 862.4905,-37.7"/>
<polygon fill="none" stroke="#000000" points="862.4905,-37.7 862.4905,-56.7 903.4905,-56.7 903.4905,-37.7 862.4905,-37.7"/>
<text text-anchor="start" x="865.4905" y="-43.8" font-family="Helvetica,sans-Serif" font-size="11.00" fill="#000000">&lt; 4</text>
<polygon fill="#ffffff" stroke="transparent" points="903.4905,-37.7 903.4905,-56.7 963.4905,-56.7 963.4905,-37.7 903.4905,-37.7"/>
<polygon fill="none" stroke="#000000" points="903.4905,-37.7 903.4905,-56.7 963.4905,-56.7 963.4905,-37.7 903.4905,-37.7"/>
<text text-anchor="start" x="915.8712" y="-43.8" font-family="Helvetica,sans-Serif" font-size="11.00" fill="#000000">494 rows</text>
<polygon fill="#ffffff" stroke="transparent" points="963.4905,-37.7 963.4905,-56.7 986.4905,-56.7 986.4905,-37.7 963.4905,-37.7"/>
<polygon fill="none" stroke="#000000" points="963.4905,-37.7 963.4905,-56.7 986.4905,-56.7 986.4905,-37.7 963.4905,-37.7"/>
<text text-anchor="start" x="977.3767" y="-43.8" font-family="Helvetica,sans-Serif" font-size="11.00" fill="#000000"> &#160;</text>
</a>
</g>
</g>
<!-- job_request_skill&#45;&gt;principal -->
<g id="edge31" class="edge">
<title>job_request_skill:w&#45;&gt;principal:e</title>
<path fill="none" stroke="#000000" d="M847.6923,-65.7C698.2924,-65.7 655.4975,-65.7 498.9905,-65.7 498.9905,-65.7 498.9905,-65.7 348.9905,-65.7 247.4605,-65.7 216.7757,-104.9105 153.9905,-184.7 115.3123,-233.8537 173.5373,-318.7 110.9905,-318.7"/>
<polygon fill="#000000" stroke="#000000" points="854.4905,-65.7001 862.4906,-69.3 858.4905,-65.7 862.4905,-65.7 862.4905,-65.7 862.4905,-65.7 858.4905,-65.7 862.4905,-62.1 854.4905,-65.7001 854.4905,-65.7001"/>
<ellipse fill="none" stroke="#000000" cx="851.2905" cy="-65.7001" rx="3.2" ry="3.2"/>
</g>
<!-- job_request_skill&#45;&gt;principal -->
<g id="edge33" class="edge">
<title>job_request_skill:w&#45;&gt;principal:e</title>
<path fill="none" stroke="#000000" d="M848.0862,-65.6325C538.0238,-62.7369 379.1531,31.2465 153.9905,-188.7 110.4573,-231.2248 171.847,-318.7 110.9905,-318.7"/>
<polygon fill="#000000" stroke="#000000" points="854.4906,-65.6625 862.4737,-69.3 858.4906,-65.6812 862.4905,-65.7 862.4905,-65.7 862.4905,-65.7 858.4906,-65.6812 862.5074,-62.1 854.4906,-65.6625 854.4906,-65.6625"/>
<ellipse fill="none" stroke="#000000" cx="851.2907" cy="-65.6474" rx="3.2" ry="3.2"/>
</g>
<!-- job_request_skill&#45;&gt;job_request -->
<g id="edge32" class="edge">
<title>job_request_skill:w&#45;&gt;job_request:e</title>
<path fill="none" stroke="#000000" d="M848.0864,-67.3049C828.9704,-72.1279 821.506,-87.5394 809.9905,-109.7 785.3091,-157.1976 822.5181,-589.7 768.9905,-589.7"/>
<polygon fill="#000000" stroke="#000000" points="854.5397,-66.5859 862.8892,-69.2779 858.5151,-66.143 862.4905,-65.7 862.4905,-65.7 862.4905,-65.7 858.5151,-66.143 862.0919,-62.1221 854.5397,-66.5859 854.5397,-66.5859"/>
<ellipse fill="none" stroke="#000000" cx="851.3594" cy="-66.9403" rx="3.2" ry="3.2"/>
</g>
<!-- presentation -->
<g id="node15" class="node">
<title>presentation</title>
<g id="a_node15"><a xlink:href="../../tables/presentation.html" xlink:title="presentation" target="_top">
<polygon fill="#ffffff" stroke="transparent" points="872.9905,-220.2 872.9905,-281.2 975.9905,-281.2 975.9905,-220.2 872.9905,-220.2"/>
<polygon fill="#f5f5f5" stroke="transparent" points="873.4905,-257.7 873.4905,-280.7 976.4905,-280.7 976.4905,-257.7 873.4905,-257.7"/>
<polygon fill="none" stroke="#000000" points="873.4905,-257.7 873.4905,-280.7 976.4905,-280.7 976.4905,-257.7 873.4905,-257.7"/>
<text text-anchor="start" x="878.2301" y="-266.8" font-family="Helvetica,sans-Serif" font-weight="bold" font-size="11.00" fill="#000000">presentation</text>
<text text-anchor="start" x="942.0124" y="-265.8" font-family="Helvetica,sans-Serif" font-size="11.00" fill="#000000">[table]</text>
<polygon fill="none" stroke="#000000" points="873.4905,-238.7 873.4905,-257.7 976.4905,-257.7 976.4905,-238.7 873.4905,-238.7"/>
<text text-anchor="start" x="876.4905" y="-244.8" font-family="Helvetica,sans-Serif" font-size="11.00" fill="#000000">...</text>
<polygon fill="#ffffff" stroke="transparent" points="873.4905,-219.7 873.4905,-238.7 902.4905,-238.7 902.4905,-219.7 873.4905,-219.7"/>
<polygon fill="none" stroke="#000000" points="873.4905,-219.7 873.4905,-238.7 902.4905,-238.7 902.4905,-219.7 873.4905,-219.7"/>
<text text-anchor="start" x="876.4905" y="-225.8" font-family="Helvetica,sans-Serif" font-size="11.00" fill="#000000">&lt; 5</text>
<polygon fill="#ffffff" stroke="transparent" points="902.4905,-219.7 902.4905,-238.7 950.4905,-238.7 950.4905,-219.7 902.4905,-219.7"/>
<polygon fill="none" stroke="#000000" points="902.4905,-219.7 902.4905,-238.7 950.4905,-238.7 950.4905,-219.7 902.4905,-219.7"/>
<text text-anchor="start" x="908.9861" y="-225.8" font-family="Helvetica,sans-Serif" font-size="11.00" fill="#000000">16 rows</text>
<polygon fill="#ffffff" stroke="transparent" points="950.4905,-219.7 950.4905,-238.7 976.4905,-238.7 976.4905,-219.7 950.4905,-219.7"/>
<polygon fill="none" stroke="#000000" points="950.4905,-219.7 950.4905,-238.7 976.4905,-238.7 976.4905,-219.7 950.4905,-219.7"/>
<text text-anchor="start" x="957.8958" y="-225.8" font-family="Helvetica,sans-Serif" font-size="11.00" fill="#000000">2 &gt;</text>
</a>
</g>
</g>
<!-- presentation&#45;&gt;client -->
<g id="edge38" class="edge">
<title>presentation:w&#45;&gt;client:e</title>
<path fill="none" stroke="#000000" d="M858.9409,-247.4684C745.3604,-243.8528 694.9148,-199.9978 594.9905,-264.7 568.4583,-281.88 588.5327,-310.5354 561.9905,-327.7 499.5537,-368.0774 469.3457,-337.7 394.9905,-337.7"/>
<polygon fill="#000000" stroke="#000000" points="865.4916,-247.5726 873.4332,-251.2995 869.4911,-247.6363 873.4905,-247.7 873.4905,-247.7 873.4905,-247.7 869.4911,-247.6363 873.5479,-244.1005 865.4916,-247.5726 865.4916,-247.5726"/>
<ellipse fill="none" stroke="#000000" cx="862.292" cy="-247.5217" rx="3.2" ry="3.2"/>
</g>
<!-- presentation&#45;&gt;eworker -->
<g id="edge37" class="edge">
<title>presentation:w&#45;&gt;eworker:e</title>
<path fill="none" stroke="#000000" d="M859.0964,-248.9344C802.5176,-254.9099 606.3581,-280.8646 594.9905,-288.7 570.2526,-305.7514 586.1658,-329.8599 561.9905,-347.7 503.8445,-390.6088 474.8543,-374.1023 402.9905,-381.7 355.2566,-386.7466 342.9022,-384.6107 294.9905,-381.7 276.6671,-380.5868 272.3478,-376.7 253.9905,-376.7"/>
<polygon fill="#000000" stroke="#000000" points="865.5198,-248.3836 873.7982,-251.2868 869.5052,-248.0418 873.4905,-247.7 873.4905,-247.7 873.4905,-247.7 869.5052,-248.0418 873.1829,-244.1132 865.5198,-248.3836 865.5198,-248.3836"/>
<ellipse fill="none" stroke="#000000" cx="862.3315" cy="-248.657" rx="3.2" ry="3.2"/>
</g>
<!-- presentation&#45;&gt;principal -->
<g id="edge34" class="edge">
<title>presentation:w&#45;&gt;principal:e</title>
<path fill="none" stroke="#000000" d="M859.1174,-245.8949C786.7797,-232.0848 538.8025,-143.7 498.9905,-143.7 498.9905,-143.7 498.9905,-143.7 348.9905,-143.7 316.1669,-143.7 143.8142,-318.7 110.9905,-318.7"/>
<polygon fill="#000000" stroke="#000000" points="865.5529,-246.7031 873.0419,-251.2719 869.5217,-247.2015 873.4905,-247.7 873.4905,-247.7 873.4905,-247.7 869.5217,-247.2015 873.9392,-244.1281 865.5529,-246.7031 865.5529,-246.7031"/>
<ellipse fill="none" stroke="#000000" cx="862.3778" cy="-246.3043" rx="3.2" ry="3.2"/>
</g>
<!-- presentation&#45;&gt;principal -->
<g id="edge36" class="edge">
<title>presentation:w&#45;&gt;principal:e</title>
<path fill="none" stroke="#000000" d="M859.1785,-245.8915C796.1487,-234.0542 594.3348,-167.9845 561.9905,-163.7 506.4755,-156.3462 490.61,-151.3421 435.9905,-163.7 426.2352,-165.9072 120.9925,-318.7 110.9905,-318.7"/>
<polygon fill="#000000" stroke="#000000" points="865.5537,-246.697 873.0392,-251.2716 869.5221,-247.1985 873.4905,-247.7 873.4905,-247.7 873.4905,-247.7 869.5221,-247.1985 873.9419,-244.1284 865.5537,-246.697 865.5537,-246.697"/>
<ellipse fill="none" stroke="#000000" cx="862.3789" cy="-246.2958" rx="3.2" ry="3.2"/>
</g>
<!-- presentation&#45;&gt;job_request -->
<g id="edge35" class="edge">
<title>presentation:w&#45;&gt;job_request:e</title>
<path fill="none" stroke="#000000" d="M862.7594,-248.3715C803.4647,-256.3297 830.759,-333.5299 809.9905,-399.7 797.0556,-440.9118 812.1846,-589.7 768.9905,-589.7"/>
<polygon fill="#000000" stroke="#000000" points="872.4423,-243.7578 872.9419,-251.7422 871.3451,-251.8421 870.8454,-243.8577 872.4423,-243.7578"/>
<polyline fill="none" stroke="#000000" points="873.4905,-247.7 869.4984,-247.9498 "/>
<ellipse fill="none" stroke="#000000" cx="866.3046" cy="-248.1497" rx="3.2" ry="3.2"/>
</g>
</g>
</svg>
