<?xml version="1.0" encoding="UTF-8" standalone="no"?>
<!DOCTYPE svg PUBLIC "-//W3C//DTD SVG 1.1//EN"
 "http://www.w3.org/Graphics/SVG/1.1/DTD/svg11.dtd">
<!-- Generated by graphviz version 2.40.1 (20161225.0304)
 -->
<!-- Title: twoDegreesRelationshipsDiagram Pages: 1 -->
<svg width="1508pt" height="890pt"
 viewBox="0.00 0.00 1508.21 890.13" xmlns="http://www.w3.org/2000/svg" xmlns:xlink="http://www.w3.org/1999/xlink">
<g id="graph0" class="graph" transform="scale(1 1) rotate(0) translate(4 886.1266)">
<title>twoDegreesRelationshipsDiagram</title>
<polygon fill="#ffffff" stroke="transparent" points="-4,4 -4,-886.1266 1504.2102,-886.1266 1504.2102,4 -4,4"/>
<text text-anchor="middle" x="72.4936" y="-7.3" font-family="Helvetica,sans-Serif" font-size="11.00" fill="#000000">Generated by SchemaSpy</text>
<!-- applicant -->
<g id="node1" class="node">
<title>applicant</title>
<g id="a_node1"><a xlink:href="../../tables/applicant.html" xlink:title="applicant" target="_top">
<polygon fill="#ffffff" stroke="transparent" points="668.7102,-553.7 668.7102,-614.7 755.7102,-614.7 755.7102,-553.7 668.7102,-553.7"/>
<polygon fill="#f5f5f5" stroke="transparent" points="669.2102,-591.2 669.2102,-614.2 756.2102,-614.2 756.2102,-591.2 669.2102,-591.2"/>
<polygon fill="none" stroke="#000000" points="669.2102,-591.2 669.2102,-614.2 756.2102,-614.2 756.2102,-591.2 669.2102,-591.2"/>
<text text-anchor="start" x="674.2036" y="-600.3" font-family="Helvetica,sans-Serif" font-weight="bold" font-size="11.00" fill="#000000">applicant</text>
<text text-anchor="start" x="721.732" y="-599.3" font-family="Helvetica,sans-Serif" font-size="11.00" fill="#000000">[table]</text>
<polygon fill="none" stroke="#000000" points="669.2102,-572.2 669.2102,-591.2 756.2102,-591.2 756.2102,-572.2 669.2102,-572.2"/>
<text text-anchor="start" x="672.2102" y="-578.3" font-family="Helvetica,sans-Serif" font-size="11.00" fill="#000000">...</text>
<polygon fill="#ffffff" stroke="transparent" points="669.2102,-553.2 669.2102,-572.2 690.2102,-572.2 690.2102,-553.2 669.2102,-553.2"/>
<polygon fill="none" stroke="#000000" points="669.2102,-553.2 669.2102,-572.2 690.2102,-572.2 690.2102,-553.2 669.2102,-553.2"/>
<text text-anchor="start" x="671.9128" y="-559.3" font-family="Helvetica,sans-Serif" font-size="11.00" fill="#000000">&lt; 4</text>
<polygon fill="#ffffff" stroke="transparent" points="690.2102,-553.2 690.2102,-572.2 734.2102,-572.2 734.2102,-553.2 690.2102,-553.2"/>
<polygon fill="none" stroke="#000000" points="690.2102,-553.2 690.2102,-572.2 734.2102,-572.2 734.2102,-553.2 690.2102,-553.2"/>
<text text-anchor="start" x="692.958" y="-559.3" font-family="Helvetica,sans-Serif" font-size="11.00" fill="#000000">90 rows</text>
<polygon fill="#ffffff" stroke="transparent" points="734.2102,-553.2 734.2102,-572.2 756.2102,-572.2 756.2102,-553.2 734.2102,-553.2"/>
<polygon fill="none" stroke="#000000" points="734.2102,-553.2 734.2102,-572.2 756.2102,-572.2 756.2102,-553.2 734.2102,-553.2"/>
<text text-anchor="start" x="737.6155" y="-559.3" font-family="Helvetica,sans-Serif" font-size="11.00" fill="#000000">5 &gt;</text>
</a>
</g>
</g>
<!-- file -->
<g id="node2" class="node">
<title>file</title>
<g id="a_node2"><a xlink:href="../../tables/file.html" xlink:title="file" target="_top">
<polygon fill="#ffffff" stroke="transparent" points="296.2102,-238.7 296.2102,-365.7 419.2102,-365.7 419.2102,-238.7 296.2102,-238.7"/>
<polygon fill="#f5f5f5" stroke="transparent" points="296.7102,-342.2 296.7102,-365.2 419.7102,-365.2 419.7102,-342.2 296.7102,-342.2"/>
<polygon fill="none" stroke="#000000" points="296.7102,-342.2 296.7102,-365.2 419.7102,-365.2 419.7102,-342.2 296.7102,-342.2"/>
<text text-anchor="start" x="301.7102" y="-351.3" font-family="Helvetica,sans-Serif" font-weight="bold" font-size="11.00" fill="#000000">file</text>
<text text-anchor="start" x="384.7539" y="-350.3" font-family="Helvetica,sans-Serif" font-size="11.00" fill="#000000">[table]</text>
<polygon fill="none" stroke="#000000" points="296.7102,-320.2 296.7102,-342.2 419.7102,-342.2 419.7102,-320.2 296.7102,-320.2"/>
<image xlink:href="../../images/primaryKeys.png" width="11px" height="12px" preserveAspectRatio="xMinYMin meet" x="301.71" y="-337.2"/>
<text text-anchor="start" x="316.7102" y="-327.3" font-family="Helvetica,sans-Serif" font-size="11.00" fill="#000000">id</text>
<polygon fill="#ffffff" stroke="transparent" points="296.7102,-298.2 296.7102,-320.2 419.7102,-320.2 419.7102,-298.2 296.7102,-298.2"/>
<polygon fill="none" stroke="#000000" points="296.7102,-298.2 296.7102,-320.2 419.7102,-320.2 419.7102,-298.2 296.7102,-298.2"/>
<image xlink:href="../../images/foreignKeys.png" width="11px" height="12px" preserveAspectRatio="xMinYMin meet" x="301.71" y="-315.2"/>
<text text-anchor="start" x="316.7102" y="-305.3" font-family="Helvetica,sans-Serif" font-size="11.00" fill="#000000">created_by</text>
<polygon fill="#ffffff" stroke="transparent" points="296.7102,-276.2 296.7102,-298.2 419.7102,-298.2 419.7102,-276.2 296.7102,-276.2"/>
<polygon fill="none" stroke="#000000" points="296.7102,-276.2 296.7102,-298.2 419.7102,-298.2 419.7102,-276.2 296.7102,-276.2"/>
<image xlink:href="../../images/foreignKeys.png" width="11px" height="12px" preserveAspectRatio="xMinYMin meet" x="301.71" y="-293.2"/>
<text text-anchor="start" x="316.7102" y="-283.3" font-family="Helvetica,sans-Serif" font-size="11.00" fill="#000000">modified_by</text>
<polygon fill="none" stroke="#000000" points="296.7102,-257.2 296.7102,-276.2 419.7102,-276.2 419.7102,-257.2 296.7102,-257.2"/>
<text text-anchor="start" x="299.7102" y="-263.3" font-family="Helvetica,sans-Serif" font-size="11.00" fill="#000000">...</text>
<polygon fill="#ffffff" stroke="transparent" points="296.7102,-238.2 296.7102,-257.2 329.7102,-257.2 329.7102,-238.2 296.7102,-238.2"/>
<polygon fill="none" stroke="#000000" points="296.7102,-238.2 296.7102,-257.2 329.7102,-257.2 329.7102,-238.2 296.7102,-238.2"/>
<text text-anchor="start" x="299.7102" y="-244.3" font-family="Helvetica,sans-Serif" font-size="11.00" fill="#000000">&lt; 2</text>
<polygon fill="#ffffff" stroke="transparent" points="329.7102,-238.2 329.7102,-257.2 385.7102,-257.2 385.7102,-238.2 329.7102,-238.2"/>
<polygon fill="none" stroke="#000000" points="329.7102,-238.2 329.7102,-257.2 385.7102,-257.2 385.7102,-238.2 329.7102,-238.2"/>
<text text-anchor="start" x="338.0909" y="-244.3" font-family="Helvetica,sans-Serif" font-size="11.00" fill="#000000">590 rows</text>
<polygon fill="#ffffff" stroke="transparent" points="385.7102,-238.2 385.7102,-257.2 419.7102,-257.2 419.7102,-238.2 385.7102,-238.2"/>
<polygon fill="none" stroke="#000000" points="385.7102,-238.2 385.7102,-257.2 419.7102,-257.2 419.7102,-238.2 385.7102,-238.2"/>
<text text-anchor="start" x="395.0006" y="-244.3" font-family="Helvetica,sans-Serif" font-size="11.00" fill="#000000">13 &gt;</text>
</a>
</g>
</g>
<!-- applicant&#45;&gt;file -->
<g id="edge1" class="edge">
<title>applicant:w&#45;&gt;file:e</title>
<path fill="none" stroke="#000000" d="M654.8221,-579.5714C599.3449,-565.0444 672.3018,-457.0519 616.2102,-406.2 563.8393,-358.7213 521.8526,-409.8 460.2102,-375.2 437.0331,-362.1907 446.2888,-331.2 419.7102,-331.2"/>
<polygon fill="#000000" stroke="#000000" points="661.261,-580.3002 668.8053,-584.7772 665.2356,-580.7501 669.2102,-581.2 669.2102,-581.2 669.2102,-581.2 665.2356,-580.7501 669.6151,-577.6228 661.261,-580.3002 661.261,-580.3002"/>
<ellipse fill="none" stroke="#000000" cx="658.0813" cy="-579.9402" rx="3.2" ry="3.2"/>
</g>
<!-- supplier -->
<g id="node3" class="node">
<title>supplier</title>
<g id="a_node3"><a xlink:href="../../tables/supplier.html" xlink:title="supplier" target="_top">
<polygon fill="#ffffff" stroke="transparent" points="492.2102,-553.7 492.2102,-614.7 584.2102,-614.7 584.2102,-553.7 492.2102,-553.7"/>
<polygon fill="#f5f5f5" stroke="transparent" points="492.2102,-591.2 492.2102,-614.2 584.2102,-614.2 584.2102,-591.2 492.2102,-591.2"/>
<polygon fill="none" stroke="#000000" points="492.2102,-591.2 492.2102,-614.2 584.2102,-614.2 584.2102,-591.2 492.2102,-591.2"/>
<text text-anchor="start" x="497.2102" y="-600.3" font-family="Helvetica,sans-Serif" font-weight="bold" font-size="11.00" fill="#000000">supplier</text>
<text text-anchor="start" x="549.2539" y="-599.3" font-family="Helvetica,sans-Serif" font-size="11.00" fill="#000000">[table]</text>
<polygon fill="none" stroke="#000000" points="492.2102,-572.2 492.2102,-591.2 584.2102,-591.2 584.2102,-572.2 492.2102,-572.2"/>
<text text-anchor="start" x="495.2102" y="-578.3" font-family="Helvetica,sans-Serif" font-size="11.00" fill="#000000">...</text>
<polygon fill="#ffffff" stroke="transparent" points="492.2102,-553.2 492.2102,-572.2 513.2102,-572.2 513.2102,-553.2 492.2102,-553.2"/>
<polygon fill="none" stroke="#000000" points="492.2102,-553.2 492.2102,-572.2 513.2102,-572.2 513.2102,-553.2 492.2102,-553.2"/>
<text text-anchor="start" x="494.9128" y="-559.3" font-family="Helvetica,sans-Serif" font-size="11.00" fill="#000000">&lt; 3</text>
<polygon fill="#ffffff" stroke="transparent" points="513.2102,-553.2 513.2102,-572.2 563.2102,-572.2 563.2102,-553.2 513.2102,-553.2"/>
<polygon fill="none" stroke="#000000" points="513.2102,-553.2 513.2102,-572.2 563.2102,-572.2 563.2102,-553.2 513.2102,-553.2"/>
<text text-anchor="start" x="515.9005" y="-559.3" font-family="Helvetica,sans-Serif" font-size="11.00" fill="#000000">201 rows</text>
<polygon fill="#ffffff" stroke="transparent" points="563.2102,-553.2 563.2102,-572.2 584.2102,-572.2 584.2102,-553.2 563.2102,-553.2"/>
<polygon fill="none" stroke="#000000" points="563.2102,-553.2 563.2102,-572.2 584.2102,-572.2 584.2102,-553.2 563.2102,-553.2"/>
<text text-anchor="start" x="565.9128" y="-559.3" font-family="Helvetica,sans-Serif" font-size="11.00" fill="#000000">4 &gt;</text>
</a>
</g>
</g>
<!-- applicant&#45;&gt;supplier -->
<g id="edge2" class="edge">
<title>applicant:w&#45;&gt;supplier:e</title>
<path fill="none" stroke="#000000" d="M654.796,-581.2C628.2159,-581.2 616.6755,-581.2 584.2102,-581.2"/>
<polygon fill="#000000" stroke="#000000" points="661.2102,-581.2001 669.2102,-584.8 665.2102,-581.2 669.2102,-581.2 669.2102,-581.2 669.2102,-581.2 665.2102,-581.2 669.2102,-577.6 661.2102,-581.2001 661.2102,-581.2001"/>
<ellipse fill="none" stroke="#000000" cx="658.0102" cy="-581.2001" rx="3.2" ry="3.2"/>
</g>
<!-- principal -->
<g id="node7" class="node">
<title>principal</title>
<g id="a_node7"><a xlink:href="../../tables/principal.html" xlink:title="principal" target="_top">
<polygon fill="#ffffff" stroke="transparent" points="155.2102,-180.7 155.2102,-241.7 247.2102,-241.7 247.2102,-180.7 155.2102,-180.7"/>
<polygon fill="#f5f5f5" stroke="transparent" points="155.2102,-218.2 155.2102,-241.2 247.2102,-241.2 247.2102,-218.2 155.2102,-218.2"/>
<polygon fill="none" stroke="#000000" points="155.2102,-218.2 155.2102,-241.2 247.2102,-241.2 247.2102,-218.2 155.2102,-218.2"/>
<text text-anchor="start" x="160.2102" y="-227.3" font-family="Helvetica,sans-Serif" font-weight="bold" font-size="11.00" fill="#000000">principal</text>
<text text-anchor="start" x="212.2539" y="-226.3" font-family="Helvetica,sans-Serif" font-size="11.00" fill="#000000">[table]</text>
<polygon fill="none" stroke="#000000" points="155.2102,-199.2 155.2102,-218.2 247.2102,-218.2 247.2102,-199.2 155.2102,-199.2"/>
<text text-anchor="start" x="158.2102" y="-205.3" font-family="Helvetica,sans-Serif" font-size="11.00" fill="#000000">...</text>
<polygon fill="#ffffff" stroke="transparent" points="155.2102,-180.2 155.2102,-199.2 176.2102,-199.2 176.2102,-180.2 155.2102,-180.2"/>
<polygon fill="none" stroke="#000000" points="155.2102,-180.2 155.2102,-199.2 176.2102,-199.2 176.2102,-180.2 155.2102,-180.2"/>
<text text-anchor="start" x="157.9128" y="-186.3" font-family="Helvetica,sans-Serif" font-size="11.00" fill="#000000">&lt; 1</text>
<polygon fill="#ffffff" stroke="transparent" points="176.2102,-180.2 176.2102,-199.2 220.2102,-199.2 220.2102,-180.2 176.2102,-180.2"/>
<polygon fill="none" stroke="#000000" points="176.2102,-180.2 176.2102,-199.2 220.2102,-199.2 220.2102,-180.2 176.2102,-180.2"/>
<text text-anchor="start" x="178.958" y="-186.3" font-family="Helvetica,sans-Serif" font-size="11.00" fill="#000000">18 rows</text>
<polygon fill="#ffffff" stroke="transparent" points="220.2102,-180.2 220.2102,-199.2 247.2102,-199.2 247.2102,-180.2 220.2102,-180.2"/>
<polygon fill="none" stroke="#000000" points="220.2102,-180.2 220.2102,-199.2 247.2102,-199.2 247.2102,-180.2 220.2102,-180.2"/>
<text text-anchor="start" x="222.8554" y="-186.3" font-family="Helvetica,sans-Serif" font-size="11.00" fill="#000000">56 &gt;</text>
</a>
</g>
</g>
<!-- file&#45;&gt;principal -->
<g id="edge19" class="edge">
<title>file:w&#45;&gt;principal:e</title>
<path fill="none" stroke="#000000" d="M282.6127,-305.1156C257.4725,-286.2201 291.1468,-208.2 247.2102,-208.2"/>
<polygon fill="#000000" stroke="#000000" points="289.0262,-306.9737 295.7084,-312.6578 292.8682,-308.0869 296.7102,-309.2 296.7102,-309.2 296.7102,-309.2 292.8682,-308.0869 297.712,-305.7422 289.0262,-306.9737 289.0262,-306.9737"/>
<ellipse fill="none" stroke="#000000" cx="285.9526" cy="-306.0832" rx="3.2" ry="3.2"/>
</g>
<!-- file&#45;&gt;principal -->
<g id="edge20" class="edge">
<title>file:w&#45;&gt;principal:e</title>
<path fill="none" stroke="#000000" d="M282.9806,-282.7263C263.359,-266.0143 282.6558,-208.2 247.2102,-208.2"/>
<polygon fill="#000000" stroke="#000000" points="289.1038,-284.7214 295.5949,-290.6229 292.907,-285.9607 296.7102,-287.2 296.7102,-287.2 296.7102,-287.2 292.907,-285.9607 297.8255,-283.7771 289.1038,-284.7214 289.1038,-284.7214"/>
<ellipse fill="none" stroke="#000000" cx="286.0613" cy="-283.73" rx="3.2" ry="3.2"/>
</g>
<!-- supplier&#45;&gt;file -->
<g id="edge48" class="edge">
<title>supplier:w&#45;&gt;file:e</title>
<path fill="none" stroke="#000000" d="M478.044,-577.2125C468.5593,-570.2043 467.2641,-554.9241 460.2102,-539.2 440.936,-496.2349 466.8005,-331.2 419.7102,-331.2"/>
<polygon fill="#000000" stroke="#000000" points="484.5095,-579.0323 491.2348,-584.6653 488.3598,-580.1162 492.2102,-581.2 492.2102,-581.2 492.2102,-581.2 488.3598,-580.1162 493.1856,-577.7347 484.5095,-579.0323 484.5095,-579.0323"/>
<ellipse fill="none" stroke="#000000" cx="481.4292" cy="-578.1653" rx="3.2" ry="3.2"/>
</g>
<!-- supplier&#45;&gt;principal -->
<g id="edge47" class="edge">
<title>supplier:w&#45;&gt;principal:e</title>
<path fill="none" stroke="#000000" d="M477.6682,-580.7792C362.6136,-573.9134 348.6329,-483.9276 288.2102,-376.2 250.612,-309.1662 324.0683,-208.2 247.2102,-208.2"/>
<polygon fill="#000000" stroke="#000000" points="484.2135,-580.9685 492.106,-584.7985 488.2119,-581.0843 492.2102,-581.2 492.2102,-581.2 492.2102,-581.2 488.2119,-581.0843 492.3144,-577.6015 484.2135,-580.9685 484.2135,-580.9685"/>
<ellipse fill="none" stroke="#000000" cx="481.0149" cy="-580.8759" rx="3.2" ry="3.2"/>
</g>
<!-- supplier&#45;&gt;principal -->
<g id="edge49" class="edge">
<title>supplier:w&#45;&gt;principal:e</title>
<path fill="none" stroke="#000000" d="M477.5329,-580.7667C361.4737,-573.6995 349.0076,-481.1122 288.2102,-372.2 251.5891,-306.5971 322.3423,-208.2 247.2102,-208.2"/>
<polygon fill="#000000" stroke="#000000" points="484.2137,-580.9639 492.104,-584.7984 488.2119,-581.082 492.2102,-581.2 492.2102,-581.2 492.2102,-581.2 488.2119,-581.082 492.3164,-577.6016 484.2137,-580.9639 484.2137,-580.9639"/>
<ellipse fill="none" stroke="#000000" cx="481.0151" cy="-580.8695" rx="3.2" ry="3.2"/>
</g>
<!-- applicant_document -->
<g id="node4" class="node">
<title>applicant_document</title>
<g id="a_node4"><a xlink:href="../../tables/applicant_document.html" xlink:title="applicant_document" target="_top">
<polygon fill="#ffffff" stroke="transparent" points="816.2102,-443.7 816.2102,-504.7 957.2102,-504.7 957.2102,-443.7 816.2102,-443.7"/>
<polygon fill="#f5f5f5" stroke="transparent" points="816.7102,-481.2 816.7102,-504.2 957.7102,-504.2 957.7102,-481.2 816.7102,-481.2"/>
<polygon fill="none" stroke="#000000" points="816.7102,-481.2 816.7102,-504.2 957.7102,-504.2 957.7102,-481.2 816.7102,-481.2"/>
<text text-anchor="start" x="821.4995" y="-490.3" font-family="Helvetica,sans-Serif" font-weight="bold" font-size="11.00" fill="#000000">applicant_document</text>
<text text-anchor="start" x="923.232" y="-489.3" font-family="Helvetica,sans-Serif" font-size="11.00" fill="#000000">[table]</text>
<polygon fill="none" stroke="#000000" points="816.7102,-462.2 816.7102,-481.2 957.7102,-481.2 957.7102,-462.2 816.7102,-462.2"/>
<text text-anchor="start" x="819.7102" y="-468.3" font-family="Helvetica,sans-Serif" font-size="11.00" fill="#000000">...</text>
<polygon fill="#ffffff" stroke="transparent" points="816.7102,-443.2 816.7102,-462.2 869.7102,-462.2 869.7102,-443.2 816.7102,-443.2"/>
<polygon fill="none" stroke="#000000" points="816.7102,-443.2 816.7102,-462.2 869.7102,-462.2 869.7102,-443.2 816.7102,-443.2"/>
<text text-anchor="start" x="819.7102" y="-449.3" font-family="Helvetica,sans-Serif" font-size="11.00" fill="#000000">&lt; 2</text>
<polygon fill="#ffffff" stroke="transparent" points="869.7102,-443.2 869.7102,-462.2 929.7102,-462.2 929.7102,-443.2 869.7102,-443.2"/>
<polygon fill="none" stroke="#000000" points="869.7102,-443.2 869.7102,-462.2 929.7102,-462.2 929.7102,-443.2 869.7102,-443.2"/>
<text text-anchor="start" x="888.2058" y="-449.3" font-family="Helvetica,sans-Serif" font-size="11.00" fill="#000000">91 rows</text>
<polygon fill="#ffffff" stroke="transparent" points="929.7102,-443.2 929.7102,-462.2 957.7102,-462.2 957.7102,-443.2 929.7102,-443.2"/>
<polygon fill="none" stroke="#000000" points="929.7102,-443.2 929.7102,-462.2 957.7102,-462.2 957.7102,-443.2 929.7102,-443.2"/>
<text text-anchor="start" x="948.5964" y="-449.3" font-family="Helvetica,sans-Serif" font-size="11.00" fill="#000000"> &#160;</text>
</a>
</g>
</g>
<!-- applicant_document&#45;&gt;applicant -->
<g id="edge3" class="edge">
<title>applicant_document:w&#45;&gt;applicant:e</title>
<path fill="none" stroke="#000000" d="M802.3723,-474.6127C770.5027,-493.1795 806.121,-581.2 756.2102,-581.2"/>
<polygon fill="#000000" stroke="#000000" points="808.9276,-473.0524 817.5438,-474.7022 812.8189,-472.1262 816.7102,-471.2 816.7102,-471.2 816.7102,-471.2 812.8189,-472.1262 815.8766,-467.6978 808.9276,-473.0524 808.9276,-473.0524"/>
<ellipse fill="none" stroke="#000000" cx="805.8146" cy="-473.7934" rx="3.2" ry="3.2"/>
</g>
<!-- applicant_document&#45;&gt;file -->
<g id="edge4" class="edge">
<title>applicant_document:w&#45;&gt;file:e</title>
<path fill="none" stroke="#000000" d="M802.2586,-471.7786C713.9894,-478.1467 519.4167,-534.0717 460.2102,-488.2 403.2451,-444.0649 491.7722,-331.2 419.7102,-331.2"/>
<polygon fill="#000000" stroke="#000000" points="808.7166,-471.5201 816.8542,-474.7971 812.7134,-471.36 816.7102,-471.2 816.7102,-471.2 816.7102,-471.2 812.7134,-471.36 816.5662,-467.6029 808.7166,-471.5201 808.7166,-471.5201"/>
<ellipse fill="none" stroke="#000000" cx="805.5192" cy="-471.6481" rx="3.2" ry="3.2"/>
</g>
<!-- client -->
<g id="node5" class="node">
<title>client</title>
<g id="a_node5"><a xlink:href="../../tables/client.html" xlink:title="client" target="_top">
<polygon fill="#ffffff" stroke="transparent" points="492.2102,-103.7 492.2102,-164.7 584.2102,-164.7 584.2102,-103.7 492.2102,-103.7"/>
<polygon fill="#f5f5f5" stroke="transparent" points="492.2102,-141.2 492.2102,-164.2 584.2102,-164.2 584.2102,-141.2 492.2102,-141.2"/>
<polygon fill="none" stroke="#000000" points="492.2102,-141.2 492.2102,-164.2 584.2102,-164.2 584.2102,-141.2 492.2102,-141.2"/>
<text text-anchor="start" x="497.2102" y="-150.3" font-family="Helvetica,sans-Serif" font-weight="bold" font-size="11.00" fill="#000000">client</text>
<text text-anchor="start" x="549.2539" y="-149.3" font-family="Helvetica,sans-Serif" font-size="11.00" fill="#000000">[table]</text>
<polygon fill="none" stroke="#000000" points="492.2102,-122.2 492.2102,-141.2 584.2102,-141.2 584.2102,-122.2 492.2102,-122.2"/>
<text text-anchor="start" x="495.2102" y="-128.3" font-family="Helvetica,sans-Serif" font-size="11.00" fill="#000000">...</text>
<polygon fill="#ffffff" stroke="transparent" points="492.2102,-103.2 492.2102,-122.2 513.2102,-122.2 513.2102,-103.2 492.2102,-103.2"/>
<polygon fill="none" stroke="#000000" points="492.2102,-103.2 492.2102,-122.2 513.2102,-122.2 513.2102,-103.2 492.2102,-103.2"/>
<text text-anchor="start" x="494.9128" y="-109.3" font-family="Helvetica,sans-Serif" font-size="11.00" fill="#000000">&lt; 9</text>
<polygon fill="#ffffff" stroke="transparent" points="513.2102,-103.2 513.2102,-122.2 563.2102,-122.2 563.2102,-103.2 513.2102,-103.2"/>
<polygon fill="none" stroke="#000000" points="513.2102,-103.2 513.2102,-122.2 563.2102,-122.2 563.2102,-103.2 513.2102,-103.2"/>
<text text-anchor="start" x="515.9005" y="-109.3" font-family="Helvetica,sans-Serif" font-size="11.00" fill="#000000">647 rows</text>
<polygon fill="#ffffff" stroke="transparent" points="563.2102,-103.2 563.2102,-122.2 584.2102,-122.2 584.2102,-103.2 563.2102,-103.2"/>
<polygon fill="none" stroke="#000000" points="563.2102,-103.2 563.2102,-122.2 584.2102,-122.2 584.2102,-103.2 563.2102,-103.2"/>
<text text-anchor="start" x="565.9128" y="-109.3" font-family="Helvetica,sans-Serif" font-size="11.00" fill="#000000">7 &gt;</text>
</a>
</g>
</g>
<!-- client&#45;&gt;file -->
<g id="edge5" class="edge">
<title>client:w&#45;&gt;file:e</title>
<path fill="none" stroke="#000000" d="M477.6801,-133.1795C410.6001,-153.9509 508.7192,-331.2 419.7102,-331.2"/>
<polygon fill="#000000" stroke="#000000" points="484.2834,-132.2799 492.6962,-134.7671 488.2468,-131.74 492.2102,-131.2 492.2102,-131.2 492.2102,-131.2 488.2468,-131.74 491.7242,-127.6329 484.2834,-132.2799 484.2834,-132.2799"/>
<ellipse fill="none" stroke="#000000" cx="481.1127" cy="-132.7119" rx="3.2" ry="3.2"/>
</g>
<!-- eworker -->
<g id="node6" class="node">
<title>eworker</title>
<g id="a_node6"><a xlink:href="../../tables/eworker.html" xlink:title="eworker" target="_top">
<polygon fill="#ffffff" stroke="transparent" points="14.2102,-96.7 14.2102,-157.7 106.2102,-157.7 106.2102,-96.7 14.2102,-96.7"/>
<polygon fill="#f5f5f5" stroke="transparent" points="14.2102,-134.2 14.2102,-157.2 106.2102,-157.2 106.2102,-134.2 14.2102,-134.2"/>
<polygon fill="none" stroke="#000000" points="14.2102,-134.2 14.2102,-157.2 106.2102,-157.2 106.2102,-134.2 14.2102,-134.2"/>
<text text-anchor="start" x="19.2102" y="-143.3" font-family="Helvetica,sans-Serif" font-weight="bold" font-size="11.00" fill="#000000">eworker</text>
<text text-anchor="start" x="71.2539" y="-142.3" font-family="Helvetica,sans-Serif" font-size="11.00" fill="#000000">[table]</text>
<polygon fill="none" stroke="#000000" points="14.2102,-115.2 14.2102,-134.2 106.2102,-134.2 106.2102,-115.2 14.2102,-115.2"/>
<text text-anchor="start" x="17.2102" y="-121.3" font-family="Helvetica,sans-Serif" font-size="11.00" fill="#000000">...</text>
<polygon fill="#ffffff" stroke="transparent" points="14.2102,-96.2 14.2102,-115.2 35.2102,-115.2 35.2102,-96.2 14.2102,-96.2"/>
<polygon fill="none" stroke="#000000" points="14.2102,-96.2 14.2102,-115.2 35.2102,-115.2 35.2102,-96.2 14.2102,-96.2"/>
<text text-anchor="start" x="16.9128" y="-102.3" font-family="Helvetica,sans-Serif" font-size="11.00" fill="#000000">&lt; 4</text>
<polygon fill="#ffffff" stroke="transparent" points="35.2102,-96.2 35.2102,-115.2 85.2102,-115.2 85.2102,-96.2 35.2102,-96.2"/>
<polygon fill="none" stroke="#000000" points="35.2102,-96.2 35.2102,-115.2 85.2102,-115.2 85.2102,-96.2 35.2102,-96.2"/>
<text text-anchor="start" x="37.9005" y="-102.3" font-family="Helvetica,sans-Serif" font-size="11.00" fill="#000000">347 rows</text>
<polygon fill="#ffffff" stroke="transparent" points="85.2102,-96.2 85.2102,-115.2 106.2102,-115.2 106.2102,-96.2 85.2102,-96.2"/>
<polygon fill="none" stroke="#000000" points="85.2102,-96.2 85.2102,-115.2 106.2102,-115.2 106.2102,-96.2 85.2102,-96.2"/>
<text text-anchor="start" x="87.9128" y="-102.3" font-family="Helvetica,sans-Serif" font-size="11.00" fill="#000000">9 &gt;</text>
</a>
</g>
</g>
<!-- client&#45;&gt;eworker -->
<g id="edge6" class="edge">
<title>client:w&#45;&gt;eworker:e</title>
<path fill="none" stroke="#000000" d="M477.4546,-131.1823C318.0062,-130.7959 272.7671,-124.2 106.2102,-124.2"/>
<polygon fill="#000000" stroke="#000000" points="484.2102,-131.1904 492.2059,-134.8 488.2102,-131.1952 492.2102,-131.2 492.2102,-131.2 492.2102,-131.2 488.2102,-131.1952 492.2145,-127.6 484.2102,-131.1904 484.2102,-131.1904"/>
<ellipse fill="none" stroke="#000000" cx="481.0102" cy="-131.1865" rx="3.2" ry="3.2"/>
</g>
<!-- client&#45;&gt;eworker -->
<g id="edge7" class="edge">
<title>client:w&#45;&gt;eworker:e</title>
<path fill="none" stroke="#000000" d="M477.4546,-130.6704C318.0062,-124.801 272.7671,-118.3758 106.2102,-124.2"/>
<polygon fill="#000000" stroke="#000000" points="484.2153,-130.913 492.0811,-134.7977 488.2128,-131.0565 492.2102,-131.2 492.2102,-131.2 492.2102,-131.2 488.2128,-131.0565 492.3393,-127.6023 484.2153,-130.913 484.2153,-130.913"/>
<ellipse fill="none" stroke="#000000" cx="481.0174" cy="-130.7982" rx="3.2" ry="3.2"/>
</g>
<!-- client&#45;&gt;eworker -->
<g id="edge10" class="edge">
<title>client:w&#45;&gt;eworker:e</title>
<path fill="none" stroke="#000000" d="M477.4546,-131.7795C318.0062,-137.7898 272.7671,-130.9949 106.2102,-124.2"/>
<polygon fill="#000000" stroke="#000000" points="484.2164,-131.514 492.3515,-134.7972 488.2133,-131.357 492.2102,-131.2 492.2102,-131.2 492.2102,-131.2 488.2133,-131.357 492.0689,-127.6028 484.2164,-131.514 484.2164,-131.514"/>
<ellipse fill="none" stroke="#000000" cx="481.0188" cy="-131.6396" rx="3.2" ry="3.2"/>
</g>
<!-- client&#45;&gt;principal -->
<g id="edge8" class="edge">
<title>client:w&#45;&gt;principal:e</title>
<path fill="none" stroke="#000000" d="M477.8791,-133.4369C431.7295,-143.6273 307.8291,-185.4512 288.2102,-192.2 269.7134,-198.5628 266.7708,-208.2 247.2102,-208.2"/>
<polygon fill="#000000" stroke="#000000" points="484.3059,-132.4338 492.7654,-134.7569 488.2581,-131.8169 492.2102,-131.2 492.2102,-131.2 492.2102,-131.2 488.2581,-131.8169 491.655,-127.6431 484.3059,-132.4338 484.3059,-132.4338"/>
<ellipse fill="none" stroke="#000000" cx="481.1442" cy="-132.9273" rx="3.2" ry="3.2"/>
</g>
<!-- client&#45;&gt;principal -->
<g id="edge9" class="edge">
<title>client:w&#45;&gt;principal:e</title>
<path fill="none" stroke="#000000" d="M478.2377,-135.0184C426.9478,-150.5554 253.3826,-208.2 247.2102,-208.2"/>
<polygon fill="#000000" stroke="#000000" points="484.4932,-133.309 493.1592,-134.6727 488.3517,-132.2545 492.2102,-131.2 492.2102,-131.2 492.2102,-131.2 488.3517,-132.2545 491.2612,-127.7273 484.4932,-133.309 484.4932,-133.309"/>
<ellipse fill="none" stroke="#000000" cx="481.4064" cy="-134.1526" rx="3.2" ry="3.2"/>
</g>
<!-- eworker&#45;&gt;file -->
<g id="edge15" class="edge">
<title>eworker:w&#45;&gt;file:e</title>
<path fill="none" stroke="#000000" d="M28.1148,-119.8201C55.592,-111.1647 114.2102,-92.7 114.2102,-92.7 170.3443,-138.409 109.9894,-190.1117 147.2102,-252.2 189.1528,-322.1649 211.5087,-341.9302 288.2102,-369.7 288.2102,-369.7 419.7102,-331.2 419.7102,-331.2"/>
<polygon fill="#000000" stroke="#000000" points="21.8406,-121.7964 13.1286,-120.7663 18.0254,-122.9982 14.2102,-124.2 14.2102,-124.2 14.2102,-124.2 18.0254,-122.9982 15.2918,-127.6337 21.8406,-121.7964 21.8406,-121.7964"/>
<ellipse fill="none" stroke="#000000" cx="24.8927" cy="-120.8349" rx="3.2" ry="3.2"/>
</g>
<!-- eworker&#45;&gt;principal -->
<g id="edge16" class="edge">
<title>eworker:w&#45;&gt;principal:e</title>
<path fill="none" stroke="#000000" d="M3.387,-114.4568C-8.7638,-89.3304 10.9063,-29.6171 114.2102,-86.7 138.3325,-100.0293 125.3941,-122.3592 147.2102,-139.2 184.096,-167.6737 219.6517,-133.1256 247.2102,-170.7 255.4901,-181.9891 261.2102,-202.2 247.2102,-208.2"/>
<polygon fill="#000000" stroke="#000000" points="8.2645,-118.8476 11.8016,-126.8756 11.2373,-121.5238 14.2102,-124.2 14.2102,-124.2 14.2102,-124.2 11.2373,-121.5238 16.6188,-121.5244 8.2645,-118.8476 8.2645,-118.8476"/>
<ellipse fill="none" stroke="#000000" cx="5.8862" cy="-116.7066" rx="3.2" ry="3.2"/>
</g>
<!-- eworker&#45;&gt;principal -->
<g id="edge17" class="edge">
<title>eworker:w&#45;&gt;principal:e</title>
<path fill="none" stroke="#000000" d="M1.7662,-116.9214C-6.5091,-96.4743 16.2413,-45.565 114.2102,-99.7 138.3325,-113.0293 125.3941,-135.3592 147.2102,-152.2 184.096,-180.6737 219.6517,-146.1256 247.2102,-183.7 255.4901,-194.9891 261.2102,-215.2 247.2102,-208.2"/>
<polygon fill="#000000" stroke="#000000" points="7.3047,-120.1609 12.3926,-127.3075 10.7574,-122.1804 14.2102,-124.2 14.2102,-124.2 14.2102,-124.2 10.7574,-122.1804 16.0278,-121.0925 7.3047,-120.1609 7.3047,-120.1609"/>
<ellipse fill="none" stroke="#000000" cx="4.5425" cy="-118.5452" rx="3.2" ry="3.2"/>
</g>
<!-- principal&#45;&gt;eworker -->
<g id="edge46" class="edge">
<title>principal:w&#45;&gt;eworker:e</title>
<path fill="none" stroke="#000000" d="M141.3131,-203.6838C120.9247,-186.2361 143.3532,-124.2 106.2102,-124.2"/>
<polygon fill="#000000" stroke="#000000" points="147.6019,-205.7274 154.0975,-211.6237 151.406,-206.9637 155.2102,-208.2 155.2102,-208.2 155.2102,-208.2 151.406,-206.9637 156.3229,-204.7763 147.6019,-205.7274 147.6019,-205.7274"/>
<ellipse fill="none" stroke="#000000" cx="144.5585" cy="-204.7384" rx="3.2" ry="3.2"/>
</g>
<!-- client_contact -->
<g id="node8" class="node">
<title>client_contact</title>
<g id="a_node8"><a xlink:href="../../tables/client_contact.html" xlink:title="client_contact" target="_top">
<polygon fill="#ffffff" stroke="transparent" points="657.2102,-142.7 657.2102,-203.7 767.2102,-203.7 767.2102,-142.7 657.2102,-142.7"/>
<polygon fill="#f5f5f5" stroke="transparent" points="657.2102,-180.2 657.2102,-203.2 767.2102,-203.2 767.2102,-180.2 657.2102,-180.2"/>
<polygon fill="none" stroke="#000000" points="657.2102,-180.2 657.2102,-203.2 767.2102,-203.2 767.2102,-180.2 657.2102,-180.2"/>
<text text-anchor="start" x="662.0892" y="-189.3" font-family="Helvetica,sans-Serif" font-weight="bold" font-size="11.00" fill="#000000">client_contact</text>
<text text-anchor="start" x="732.732" y="-188.3" font-family="Helvetica,sans-Serif" font-size="11.00" fill="#000000">[table]</text>
<polygon fill="none" stroke="#000000" points="657.2102,-161.2 657.2102,-180.2 767.2102,-180.2 767.2102,-161.2 657.2102,-161.2"/>
<text text-anchor="start" x="660.2102" y="-167.3" font-family="Helvetica,sans-Serif" font-size="11.00" fill="#000000">...</text>
<polygon fill="#ffffff" stroke="transparent" points="657.2102,-142.2 657.2102,-161.2 687.2102,-161.2 687.2102,-142.2 657.2102,-142.2"/>
<polygon fill="none" stroke="#000000" points="657.2102,-142.2 657.2102,-161.2 687.2102,-161.2 687.2102,-142.2 657.2102,-142.2"/>
<text text-anchor="start" x="660.2102" y="-148.3" font-family="Helvetica,sans-Serif" font-size="11.00" fill="#000000">&lt; 4</text>
<polygon fill="#ffffff" stroke="transparent" points="687.2102,-142.2 687.2102,-161.2 741.2102,-161.2 741.2102,-142.2 687.2102,-142.2"/>
<polygon fill="none" stroke="#000000" points="687.2102,-142.2 687.2102,-161.2 741.2102,-161.2 741.2102,-142.2 687.2102,-142.2"/>
<text text-anchor="start" x="693.5909" y="-148.3" font-family="Helvetica,sans-Serif" font-size="11.00" fill="#000000">561 rows</text>
<polygon fill="#ffffff" stroke="transparent" points="741.2102,-142.2 741.2102,-161.2 767.2102,-161.2 767.2102,-142.2 741.2102,-142.2"/>
<polygon fill="none" stroke="#000000" points="741.2102,-142.2 741.2102,-161.2 767.2102,-161.2 767.2102,-142.2 741.2102,-142.2"/>
<text text-anchor="start" x="748.6155" y="-148.3" font-family="Helvetica,sans-Serif" font-size="11.00" fill="#000000">2 &gt;</text>
</a>
</g>
</g>
<!-- client_contact&#45;&gt;file -->
<g id="edge11" class="edge">
<title>client_contact:w&#45;&gt;file:e</title>
<path fill="none" stroke="#000000" d="M642.766,-172.3206C599.4151,-187.7793 667.0475,-283.6665 616.2102,-324.2 547.8818,-378.6795 507.0989,-331.2 419.7102,-331.2"/>
<polygon fill="#000000" stroke="#000000" points="649.295,-171.3621 657.7331,-173.7618 653.2526,-170.781 657.2102,-170.2 657.2102,-170.2 657.2102,-170.2 653.2526,-170.781 656.6873,-166.6382 649.295,-171.3621 649.295,-171.3621"/>
<ellipse fill="none" stroke="#000000" cx="646.129" cy="-171.8269" rx="3.2" ry="3.2"/>
</g>
<!-- client_contact&#45;&gt;client -->
<g id="edge12" class="edge">
<title>client_contact:w&#45;&gt;client:e</title>
<path fill="none" stroke="#000000" d="M642.7352,-167.7604C619.7322,-159.2223 615.3907,-131.2 584.2102,-131.2"/>
<polygon fill="#000000" stroke="#000000" points="649.3215,-168.8704 656.6119,-173.7499 653.2658,-169.5352 657.2102,-170.2 657.2102,-170.2 657.2102,-170.2 653.2658,-169.5352 657.8085,-166.6501 649.3215,-168.8704 649.3215,-168.8704"/>
<ellipse fill="none" stroke="#000000" cx="646.166" cy="-168.3385" rx="3.2" ry="3.2"/>
</g>
<!-- client_contact&#45;&gt;principal -->
<g id="edge13" class="edge">
<title>client_contact:w&#45;&gt;principal:e</title>
<path fill="none" stroke="#000000" d="M642.6686,-171.0431C634.4807,-172.0924 628.4757,-173.904 616.2102,-175.2 452.4672,-192.5016 411.8647,-208.2 247.2102,-208.2"/>
<polygon fill="#000000" stroke="#000000" points="649.2236,-170.6631 657.4186,-173.794 653.2169,-170.4316 657.2102,-170.2 657.2102,-170.2 657.2102,-170.2 653.2169,-170.4316 657.0018,-166.606 649.2236,-170.6631 649.2236,-170.6631"/>
<ellipse fill="none" stroke="#000000" cx="646.029" cy="-170.8483" rx="3.2" ry="3.2"/>
</g>
<!-- client_contact&#45;&gt;principal -->
<g id="edge14" class="edge">
<title>client_contact:w&#45;&gt;principal:e</title>
<path fill="none" stroke="#000000" d="M642.5638,-170.4734C543.4337,-173.8909 334.1546,-208.2 247.2102,-208.2"/>
<polygon fill="#000000" stroke="#000000" points="649.2116,-170.3494 657.2774,-173.7994 653.2109,-170.2747 657.2102,-170.2 657.2102,-170.2 657.2102,-170.2 653.2109,-170.2747 657.143,-166.6006 649.2116,-170.3494 649.2116,-170.3494"/>
<ellipse fill="none" stroke="#000000" cx="646.0121" cy="-170.4091" rx="3.2" ry="3.2"/>
</g>
<!-- feedback -->
<g id="node9" class="node">
<title>feedback</title>
<g id="a_node9"><a xlink:href="../../tables/feedback.html" xlink:title="feedback" target="_top">
<polygon fill="#ffffff" stroke="transparent" points="1310.2102,-715.7 1310.2102,-776.7 1397.2102,-776.7 1397.2102,-715.7 1310.2102,-715.7"/>
<polygon fill="#f5f5f5" stroke="transparent" points="1310.7102,-753.2 1310.7102,-776.2 1397.7102,-776.2 1397.7102,-753.2 1310.7102,-753.2"/>
<polygon fill="none" stroke="#000000" points="1310.7102,-753.2 1310.7102,-776.2 1397.7102,-776.2 1397.7102,-753.2 1310.7102,-753.2"/>
<text text-anchor="start" x="1315.3945" y="-762.3" font-family="Helvetica,sans-Serif" font-weight="bold" font-size="11.00" fill="#000000">feedback</text>
<text text-anchor="start" x="1363.232" y="-761.3" font-family="Helvetica,sans-Serif" font-size="11.00" fill="#000000">[table]</text>
<polygon fill="none" stroke="#000000" points="1310.7102,-734.2 1310.7102,-753.2 1397.7102,-753.2 1397.7102,-734.2 1310.7102,-734.2"/>
<text text-anchor="start" x="1313.7102" y="-740.3" font-family="Helvetica,sans-Serif" font-size="11.00" fill="#000000">...</text>
<polygon fill="#ffffff" stroke="transparent" points="1310.7102,-715.2 1310.7102,-734.2 1331.7102,-734.2 1331.7102,-715.2 1310.7102,-715.2"/>
<polygon fill="none" stroke="#000000" points="1310.7102,-715.2 1310.7102,-734.2 1331.7102,-734.2 1331.7102,-715.2 1310.7102,-715.2"/>
<text text-anchor="start" x="1313.4128" y="-721.3" font-family="Helvetica,sans-Serif" font-size="11.00" fill="#000000">&lt; 1</text>
<polygon fill="#ffffff" stroke="transparent" points="1331.7102,-715.2 1331.7102,-734.2 1375.7102,-734.2 1375.7102,-715.2 1331.7102,-715.2"/>
<polygon fill="none" stroke="#000000" points="1331.7102,-715.2 1331.7102,-734.2 1375.7102,-734.2 1375.7102,-715.2 1331.7102,-715.2"/>
<text text-anchor="start" x="1334.458" y="-721.3" font-family="Helvetica,sans-Serif" font-size="11.00" fill="#000000">60 rows</text>
<polygon fill="#ffffff" stroke="transparent" points="1375.7102,-715.2 1375.7102,-734.2 1397.7102,-734.2 1397.7102,-715.2 1375.7102,-715.2"/>
<polygon fill="none" stroke="#000000" points="1375.7102,-715.2 1375.7102,-734.2 1397.7102,-734.2 1397.7102,-715.2 1375.7102,-715.2"/>
<text text-anchor="start" x="1379.1155" y="-721.3" font-family="Helvetica,sans-Serif" font-size="11.00" fill="#000000">1 &gt;</text>
</a>
</g>
</g>
<!-- job_request_application -->
<g id="node10" class="node">
<title>job_request_application</title>
<g id="a_node10"><a xlink:href="../../tables/job_request_application.html" xlink:title="job_request_application" target="_top">
<polygon fill="#ffffff" stroke="transparent" points="1006.7102,-511.7 1006.7102,-748.7 1165.7102,-748.7 1165.7102,-511.7 1006.7102,-511.7"/>
<polygon fill="#f5f5f5" stroke="transparent" points="1007.2102,-725.2 1007.2102,-748.2 1166.2102,-748.2 1166.2102,-725.2 1007.2102,-725.2"/>
<polygon fill="none" stroke="#000000" points="1007.2102,-725.2 1007.2102,-748.2 1166.2102,-748.2 1166.2102,-725.2 1007.2102,-725.2"/>
<text text-anchor="start" x="1012.1362" y="-734.3" font-family="Helvetica,sans-Serif" font-weight="bold" font-size="11.00" fill="#000000">job_request_application</text>
<text text-anchor="start" x="1131.732" y="-733.3" font-family="Helvetica,sans-Serif" font-size="11.00" fill="#000000">[table]</text>
<polygon fill="none" stroke="#000000" points="1007.2102,-703.2 1007.2102,-725.2 1166.2102,-725.2 1166.2102,-703.2 1007.2102,-703.2"/>
<image xlink:href="../../images/primaryKeys.png" width="11px" height="12px" preserveAspectRatio="xMinYMin meet" x="1012.21" y="-720.2"/>
<text text-anchor="start" x="1027.2102" y="-710.3" font-family="Helvetica,sans-Serif" font-size="11.00" fill="#000000">id</text>
<polygon fill="#ffffff" stroke="transparent" points="1007.2102,-681.2 1007.2102,-703.2 1166.2102,-703.2 1166.2102,-681.2 1007.2102,-681.2"/>
<polygon fill="none" stroke="#000000" points="1007.2102,-681.2 1007.2102,-703.2 1166.2102,-703.2 1166.2102,-681.2 1007.2102,-681.2"/>
<image xlink:href="../../images/foreignKeys.png" width="11px" height="12px" preserveAspectRatio="xMinYMin meet" x="1012.21" y="-698.2"/>
<text text-anchor="start" x="1027.2102" y="-688.3" font-family="Helvetica,sans-Serif" font-size="11.00" fill="#000000">created_by</text>
<polygon fill="#ffffff" stroke="transparent" points="1007.2102,-659.2 1007.2102,-681.2 1166.2102,-681.2 1166.2102,-659.2 1007.2102,-659.2"/>
<polygon fill="none" stroke="#000000" points="1007.2102,-659.2 1007.2102,-681.2 1166.2102,-681.2 1166.2102,-659.2 1007.2102,-659.2"/>
<image xlink:href="../../images/foreignKeys.png" width="11px" height="12px" preserveAspectRatio="xMinYMin meet" x="1012.21" y="-676.2"/>
<text text-anchor="start" x="1027.2102" y="-666.3" font-family="Helvetica,sans-Serif" font-size="11.00" fill="#000000">modified_by</text>
<polygon fill="#ffffff" stroke="transparent" points="1007.2102,-637.2 1007.2102,-659.2 1166.2102,-659.2 1166.2102,-637.2 1007.2102,-637.2"/>
<polygon fill="none" stroke="#000000" points="1007.2102,-637.2 1007.2102,-659.2 1166.2102,-659.2 1166.2102,-637.2 1007.2102,-637.2"/>
<image xlink:href="../../images/foreignKeys.png" width="11px" height="12px" preserveAspectRatio="xMinYMin meet" x="1012.21" y="-654.2"/>
<text text-anchor="start" x="1027.2102" y="-644.3" font-family="Helvetica,sans-Serif" font-size="11.00" fill="#000000">job_request_id</text>
<polygon fill="#ffffff" stroke="transparent" points="1007.2102,-615.2 1007.2102,-637.2 1166.2102,-637.2 1166.2102,-615.2 1007.2102,-615.2"/>
<polygon fill="none" stroke="#000000" points="1007.2102,-615.2 1007.2102,-637.2 1166.2102,-637.2 1166.2102,-615.2 1007.2102,-615.2"/>
<image xlink:href="../../images/foreignKeys.png" width="11px" height="12px" preserveAspectRatio="xMinYMin meet" x="1012.21" y="-632.2"/>
<text text-anchor="start" x="1027.2102" y="-622.3" font-family="Helvetica,sans-Serif" font-size="11.00" fill="#000000">supplier_id</text>
<polygon fill="#ffffff" stroke="transparent" points="1007.2102,-593.2 1007.2102,-615.2 1166.2102,-615.2 1166.2102,-593.2 1007.2102,-593.2"/>
<polygon fill="none" stroke="#000000" points="1007.2102,-593.2 1007.2102,-615.2 1166.2102,-615.2 1166.2102,-593.2 1007.2102,-593.2"/>
<text text-anchor="start" x="1027.2102" y="-600.3" font-family="Helvetica,sans-Serif" font-size="11.00" fill="#000000">marketplace_id</text>
<polygon fill="#ffffff" stroke="transparent" points="1007.2102,-571.2 1007.2102,-593.2 1166.2102,-593.2 1166.2102,-571.2 1007.2102,-571.2"/>
<polygon fill="none" stroke="#000000" points="1007.2102,-571.2 1007.2102,-593.2 1166.2102,-593.2 1166.2102,-571.2 1007.2102,-571.2"/>
<image xlink:href="../../images/foreignKeys.png" width="11px" height="12px" preserveAspectRatio="xMinYMin meet" x="1012.21" y="-588.2"/>
<text text-anchor="start" x="1027.2102" y="-578.3" font-family="Helvetica,sans-Serif" font-size="11.00" fill="#000000">applicant_id</text>
<polygon fill="#ffffff" stroke="transparent" points="1007.2102,-549.2 1007.2102,-571.2 1166.2102,-571.2 1166.2102,-549.2 1007.2102,-549.2"/>
<polygon fill="none" stroke="#000000" points="1007.2102,-549.2 1007.2102,-571.2 1166.2102,-571.2 1166.2102,-549.2 1007.2102,-549.2"/>
<image xlink:href="../../images/foreignKeys.png" width="11px" height="12px" preserveAspectRatio="xMinYMin meet" x="1012.21" y="-566.2"/>
<text text-anchor="start" x="1027.2102" y="-556.3" font-family="Helvetica,sans-Serif" font-size="11.00" fill="#000000">avatar_id</text>
<polygon fill="none" stroke="#000000" points="1007.2102,-530.2 1007.2102,-549.2 1166.2102,-549.2 1166.2102,-530.2 1007.2102,-530.2"/>
<text text-anchor="start" x="1010.2102" y="-536.3" font-family="Helvetica,sans-Serif" font-size="11.00" fill="#000000">...</text>
<polygon fill="#ffffff" stroke="transparent" points="1007.2102,-511.2 1007.2102,-530.2 1064.2102,-530.2 1064.2102,-511.2 1007.2102,-511.2"/>
<polygon fill="none" stroke="#000000" points="1007.2102,-511.2 1007.2102,-530.2 1064.2102,-530.2 1064.2102,-511.2 1007.2102,-511.2"/>
<text text-anchor="start" x="1010.2102" y="-517.3" font-family="Helvetica,sans-Serif" font-size="11.00" fill="#000000">&lt; 6</text>
<polygon fill="#ffffff" stroke="transparent" points="1064.2102,-511.2 1064.2102,-530.2 1126.2102,-530.2 1126.2102,-511.2 1064.2102,-511.2"/>
<polygon fill="none" stroke="#000000" points="1064.2102,-511.2 1064.2102,-530.2 1126.2102,-530.2 1126.2102,-511.2 1064.2102,-511.2"/>
<text text-anchor="start" x="1084.7058" y="-517.3" font-family="Helvetica,sans-Serif" font-size="11.00" fill="#000000">75 rows</text>
<polygon fill="#ffffff" stroke="transparent" points="1126.2102,-511.2 1126.2102,-530.2 1166.2102,-530.2 1166.2102,-511.2 1126.2102,-511.2"/>
<polygon fill="none" stroke="#000000" points="1126.2102,-511.2 1126.2102,-530.2 1166.2102,-530.2 1166.2102,-511.2 1126.2102,-511.2"/>
<text text-anchor="start" x="1147.6155" y="-517.3" font-family="Helvetica,sans-Serif" font-size="11.00" fill="#000000">5 &gt;</text>
</a>
</g>
</g>
<!-- feedback&#45;&gt;job_request_application -->
<g id="edge18" class="edge">
<title>feedback:w&#45;&gt;job_request_application:e</title>
<path fill="none" stroke="#000000" d="M1296.2607,-742.6967C1242.7815,-738.8458 1226.5956,-714.2 1166.2102,-714.2"/>
<polygon fill="#000000" stroke="#000000" points="1302.715,-742.9214 1310.5848,-746.7978 1306.7126,-743.0607 1310.7102,-743.2 1310.7102,-743.2 1310.7102,-743.2 1306.7126,-743.0607 1310.8356,-739.6022 1302.715,-742.9214 1302.715,-742.9214"/>
<ellipse fill="none" stroke="#000000" cx="1299.517" cy="-742.81" rx="3.2" ry="3.2"/>
</g>
<!-- job_request_application&#45;&gt;applicant -->
<g id="edge31" class="edge">
<title>job_request_application:w&#45;&gt;applicant:e</title>
<path fill="none" stroke="#000000" d="M992.6676,-582.1941C892.9794,-582.1122 862.7553,-581.2 756.2102,-581.2"/>
<polygon fill="#000000" stroke="#000000" points="999.2102,-582.1967 1007.2087,-585.8 1003.2102,-582.1984 1007.2102,-582.2 1007.2102,-582.2 1007.2102,-582.2 1003.2102,-582.1984 1007.2117,-578.6 999.2102,-582.1967 999.2102,-582.1967"/>
<ellipse fill="none" stroke="#000000" cx="996.0102" cy="-582.1954" rx="3.2" ry="3.2"/>
</g>
<!-- job_request_application&#45;&gt;file -->
<g id="edge32" class="edge">
<title>job_request_application:w&#45;&gt;file:e</title>
<path fill="none" stroke="#000000" d="M992.6305,-557.6135C959.3515,-542.7856 1005.715,-468.0182 965.2102,-433.2 792.5562,-284.7856 679.4874,-408.468 460.2102,-347.2 441.5704,-341.9919 439.064,-331.2 419.7102,-331.2"/>
<polygon fill="#000000" stroke="#000000" points="999.3332,-558.8026 1006.5814,-563.7447 1003.2717,-559.5013 1007.2102,-560.2 1007.2102,-560.2 1007.2102,-560.2 1003.2717,-559.5013 1007.839,-556.6553 999.3332,-558.8026 999.3332,-558.8026"/>
<ellipse fill="none" stroke="#000000" cx="996.1824" cy="-558.2436" rx="3.2" ry="3.2"/>
</g>
<!-- job_request_application&#45;&gt;supplier -->
<g id="edge36" class="edge">
<title>job_request_application:w&#45;&gt;supplier:e</title>
<path fill="none" stroke="#000000" d="M992.6158,-626.3301C845.0687,-628.9756 796.5139,-670.594 649.2102,-625.2 615.872,-614.9263 619.0955,-581.2 584.2102,-581.2"/>
<polygon fill="#000000" stroke="#000000" points="999.2105,-626.2714 1007.2423,-629.7999 1003.2104,-626.2357 1007.2102,-626.2 1007.2102,-626.2 1007.2102,-626.2 1003.2104,-626.2357 1007.1781,-622.6001 999.2105,-626.2714 999.2105,-626.2714"/>
<ellipse fill="none" stroke="#000000" cx="996.0106" cy="-626.2999" rx="3.2" ry="3.2"/>
</g>
<!-- job_request_application&#45;&gt;principal -->
<g id="edge33" class="edge">
<title>job_request_application:w&#45;&gt;principal:e</title>
<path fill="none" stroke="#000000" d="M992.6467,-692.2042C873.4591,-692.2747 838.3285,-693.2 712.2102,-693.2 712.2102,-693.2 712.2102,-693.2 538.2102,-693.2 426.8425,-693.2 367.7226,-754.1778 288.2102,-676.2 213.6736,-603.102 351.6085,-208.2 247.2102,-208.2"/>
<polygon fill="#000000" stroke="#000000" points="999.2102,-692.2024 1007.2113,-695.8 1003.2102,-692.2012 1007.2102,-692.2 1007.2102,-692.2 1007.2102,-692.2 1003.2102,-692.2012 1007.2091,-688.6 999.2102,-692.2024 999.2102,-692.2024"/>
<ellipse fill="none" stroke="#000000" cx="996.0102" cy="-692.2033" rx="3.2" ry="3.2"/>
</g>
<!-- job_request_application&#45;&gt;principal -->
<g id="edge35" class="edge">
<title>job_request_application:w&#45;&gt;principal:e</title>
<path fill="none" stroke="#000000" d="M992.6456,-670.183C873.4494,-669.9011 838.3394,-666.2 712.2102,-666.2 712.2102,-666.2 712.2102,-666.2 538.2102,-666.2 459.5614,-666.2 311.8863,-526.8135 288.2102,-485.2 257.4384,-431.1149 309.4364,-208.2 247.2102,-208.2"/>
<polygon fill="#000000" stroke="#000000" points="999.2102,-670.1906 1007.206,-673.8 1003.2102,-670.1953 1007.2102,-670.2 1007.2102,-670.2 1007.2102,-670.2 1003.2102,-670.1953 1007.2144,-666.6 999.2102,-670.1906 999.2102,-670.1906"/>
<ellipse fill="none" stroke="#000000" cx="996.0102" cy="-670.1869" rx="3.2" ry="3.2"/>
</g>
<!-- job_request -->
<g id="node13" class="node">
<title>job_request</title>
<g id="a_node13"><a xlink:href="../../tables/job_request.html" xlink:title="job_request" target="_top">
<polygon fill="#ffffff" stroke="transparent" points="836.7102,-65.7 836.7102,-126.7 936.7102,-126.7 936.7102,-65.7 836.7102,-65.7"/>
<polygon fill="#f5f5f5" stroke="transparent" points="836.7102,-103.2 836.7102,-126.2 936.7102,-126.2 936.7102,-103.2 836.7102,-103.2"/>
<polygon fill="none" stroke="#000000" points="836.7102,-103.2 836.7102,-126.2 936.7102,-126.2 936.7102,-103.2 836.7102,-103.2"/>
<text text-anchor="start" x="841.4782" y="-112.3" font-family="Helvetica,sans-Serif" font-weight="bold" font-size="11.00" fill="#000000">job_request</text>
<text text-anchor="start" x="902.232" y="-111.3" font-family="Helvetica,sans-Serif" font-size="11.00" fill="#000000">[table]</text>
<polygon fill="none" stroke="#000000" points="836.7102,-84.2 836.7102,-103.2 936.7102,-103.2 936.7102,-84.2 836.7102,-84.2"/>
<text text-anchor="start" x="839.7102" y="-90.3" font-family="Helvetica,sans-Serif" font-size="11.00" fill="#000000">...</text>
<polygon fill="#ffffff" stroke="transparent" points="836.7102,-65.2 836.7102,-84.2 864.7102,-84.2 864.7102,-65.2 836.7102,-65.2"/>
<polygon fill="none" stroke="#000000" points="836.7102,-65.2 836.7102,-84.2 864.7102,-84.2 864.7102,-65.2 836.7102,-65.2"/>
<text text-anchor="start" x="839.7102" y="-71.3" font-family="Helvetica,sans-Serif" font-size="11.00" fill="#000000">&lt; 11</text>
<polygon fill="#ffffff" stroke="transparent" points="864.7102,-65.2 864.7102,-84.2 914.7102,-84.2 914.7102,-65.2 864.7102,-65.2"/>
<polygon fill="none" stroke="#000000" points="864.7102,-65.2 864.7102,-84.2 914.7102,-84.2 914.7102,-65.2 864.7102,-65.2"/>
<text text-anchor="start" x="867.4005" y="-71.3" font-family="Helvetica,sans-Serif" font-size="11.00" fill="#000000">254 rows</text>
<polygon fill="#ffffff" stroke="transparent" points="914.7102,-65.2 914.7102,-84.2 936.7102,-84.2 936.7102,-65.2 914.7102,-65.2"/>
<polygon fill="none" stroke="#000000" points="914.7102,-65.2 914.7102,-84.2 936.7102,-84.2 936.7102,-65.2 914.7102,-65.2"/>
<text text-anchor="start" x="918.1155" y="-71.3" font-family="Helvetica,sans-Serif" font-size="11.00" fill="#000000">7 &gt;</text>
</a>
</g>
</g>
<!-- job_request_application&#45;&gt;job_request -->
<g id="edge34" class="edge">
<title>job_request_application:w&#45;&gt;job_request:e</title>
<path fill="none" stroke="#000000" d="M995.1913,-639.4823C952.3987,-568.8744 994.2588,-93.2 936.7102,-93.2"/>
<polygon fill="#000000" stroke="#000000" points="1000.7343,-643.5028 1005.0965,-651.1141 1003.9723,-645.8514 1007.2102,-648.2 1007.2102,-648.2 1007.2102,-648.2 1003.9723,-645.8514 1009.3239,-645.2859 1000.7343,-643.5028 1000.7343,-643.5028"/>
<ellipse fill="none" stroke="#000000" cx="998.144" cy="-641.624" rx="3.2" ry="3.2"/>
</g>
<!-- file_preview -->
<g id="node11" class="node">
<title>file_preview</title>
<g id="a_node11"><a xlink:href="../../tables/file_preview.html" xlink:title="file_preview" target="_top">
<polygon fill="#ffffff" stroke="transparent" points="487.7102,-252.7 487.7102,-313.7 588.7102,-313.7 588.7102,-252.7 487.7102,-252.7"/>
<polygon fill="#f5f5f5" stroke="transparent" points="488.2102,-290.2 488.2102,-313.2 589.2102,-313.2 589.2102,-290.2 488.2102,-290.2"/>
<polygon fill="none" stroke="#000000" points="488.2102,-290.2 488.2102,-313.2 589.2102,-313.2 589.2102,-290.2 488.2102,-290.2"/>
<text text-anchor="start" x="493.1817" y="-299.3" font-family="Helvetica,sans-Serif" font-weight="bold" font-size="11.00" fill="#000000">file_preview</text>
<text text-anchor="start" x="554.732" y="-298.3" font-family="Helvetica,sans-Serif" font-size="11.00" fill="#000000">[table]</text>
<polygon fill="none" stroke="#000000" points="488.2102,-271.2 488.2102,-290.2 589.2102,-290.2 589.2102,-271.2 488.2102,-271.2"/>
<text text-anchor="start" x="491.2102" y="-277.3" font-family="Helvetica,sans-Serif" font-size="11.00" fill="#000000">...</text>
<polygon fill="#ffffff" stroke="transparent" points="488.2102,-252.2 488.2102,-271.2 524.2102,-271.2 524.2102,-252.2 488.2102,-252.2"/>
<polygon fill="none" stroke="#000000" points="488.2102,-252.2 488.2102,-271.2 524.2102,-271.2 524.2102,-252.2 488.2102,-252.2"/>
<text text-anchor="start" x="491.2102" y="-258.3" font-family="Helvetica,sans-Serif" font-size="11.00" fill="#000000">&lt; 3</text>
<polygon fill="#ffffff" stroke="transparent" points="524.2102,-252.2 524.2102,-271.2 569.2102,-271.2 569.2102,-252.2 524.2102,-252.2"/>
<polygon fill="none" stroke="#000000" points="524.2102,-252.2 524.2102,-271.2 569.2102,-271.2 569.2102,-252.2 524.2102,-252.2"/>
<text text-anchor="start" x="533.8207" y="-258.3" font-family="Helvetica,sans-Serif" font-size="11.00" fill="#000000">0 rows</text>
<polygon fill="#ffffff" stroke="transparent" points="569.2102,-252.2 569.2102,-271.2 589.2102,-271.2 589.2102,-252.2 569.2102,-252.2"/>
<polygon fill="none" stroke="#000000" points="569.2102,-252.2 569.2102,-271.2 589.2102,-271.2 589.2102,-252.2 569.2102,-252.2"/>
<text text-anchor="start" x="580.0964" y="-258.3" font-family="Helvetica,sans-Serif" font-size="11.00" fill="#000000"> &#160;</text>
</a>
</g>
</g>
<!-- file_preview&#45;&gt;file -->
<g id="edge21" class="edge">
<title>file_preview:w&#45;&gt;file:e</title>
<path fill="none" stroke="#000000" d="M473.7011,-278.354C451.4597,-281.8571 451.8837,-320.1805 419.7102,-331.2"/>
<polygon fill="#000000" stroke="#000000" points="480.2742,-279.1902 487.7558,-283.7712 484.2422,-279.6951 488.2102,-280.2 488.2102,-280.2 488.2102,-280.2 484.2422,-279.6951 488.6646,-276.6288 480.2742,-279.1902 480.2742,-279.1902"/>
<ellipse fill="none" stroke="#000000" cx="477.0998" cy="-278.7863" rx="3.2" ry="3.2"/>
</g>
<!-- file_preview&#45;&gt;file -->
<g id="edge22" class="edge">
<title>file_preview:w&#45;&gt;file:e</title>
<path fill="none" stroke="#000000" d="M474.0101,-283.2376C451.4551,-294.2169 452.0319,-331.2 419.7102,-331.2"/>
<polygon fill="#000000" stroke="#000000" points="480.3872,-281.8735 488.9633,-283.7204 484.2987,-281.0367 488.2102,-280.2 488.2102,-280.2 488.2102,-280.2 484.2987,-281.0367 487.4571,-276.6796 480.3872,-281.8735 480.3872,-281.8735"/>
<ellipse fill="none" stroke="#000000" cx="477.258" cy="-282.5429" rx="3.2" ry="3.2"/>
</g>
<!-- file_preview&#45;&gt;file -->
<g id="edge23" class="edge">
<title>file_preview:w&#45;&gt;file:e</title>
<path fill="none" stroke="#000000" d="M475.2754,-287.1516C451.4229,-305.618 452.625,-342.4734 419.7102,-331.2"/>
<polygon fill="#000000" stroke="#000000" points="481.1634,-283.9872 489.9144,-283.3711 484.6868,-282.0936 488.2102,-280.2 488.2102,-280.2 488.2102,-280.2 484.6868,-282.0936 486.506,-277.0289 481.1634,-283.9872 481.1634,-283.9872"/>
<ellipse fill="none" stroke="#000000" cx="478.3447" cy="-285.5021" rx="3.2" ry="3.2"/>
</g>
<!-- invitation_document -->
<g id="node12" class="node">
<title>invitation_document</title>
<g id="a_node12"><a xlink:href="../../tables/invitation_document.html" xlink:title="invitation_document" target="_top">
<polygon fill="#ffffff" stroke="transparent" points="468.2102,-416.7 468.2102,-477.7 608.2102,-477.7 608.2102,-416.7 468.2102,-416.7"/>
<polygon fill="#f5f5f5" stroke="transparent" points="468.2102,-454.2 468.2102,-477.2 608.2102,-477.2 608.2102,-454.2 468.2102,-454.2"/>
<polygon fill="none" stroke="#000000" points="468.2102,-454.2 468.2102,-477.2 608.2102,-477.2 608.2102,-454.2 468.2102,-454.2"/>
<text text-anchor="start" x="472.808" y="-463.3" font-family="Helvetica,sans-Serif" font-weight="bold" font-size="11.00" fill="#000000">invitation_document</text>
<text text-anchor="start" x="573.732" y="-462.3" font-family="Helvetica,sans-Serif" font-size="11.00" fill="#000000">[table]</text>
<polygon fill="none" stroke="#000000" points="468.2102,-435.2 468.2102,-454.2 608.2102,-454.2 608.2102,-435.2 468.2102,-435.2"/>
<text text-anchor="start" x="471.2102" y="-441.3" font-family="Helvetica,sans-Serif" font-size="11.00" fill="#000000">...</text>
<polygon fill="#ffffff" stroke="transparent" points="468.2102,-416.2 468.2102,-435.2 523.2102,-435.2 523.2102,-416.2 468.2102,-416.2"/>
<polygon fill="none" stroke="#000000" points="468.2102,-416.2 468.2102,-435.2 523.2102,-435.2 523.2102,-416.2 468.2102,-416.2"/>
<text text-anchor="start" x="471.2102" y="-422.3" font-family="Helvetica,sans-Serif" font-size="11.00" fill="#000000">&lt; 2</text>
<polygon fill="#ffffff" stroke="transparent" points="523.2102,-416.2 523.2102,-435.2 578.2102,-435.2 578.2102,-416.2 523.2102,-416.2"/>
<polygon fill="none" stroke="#000000" points="523.2102,-416.2 523.2102,-435.2 578.2102,-435.2 578.2102,-416.2 523.2102,-416.2"/>
<text text-anchor="start" x="542.8207" y="-422.3" font-family="Helvetica,sans-Serif" font-size="11.00" fill="#000000">4 rows</text>
<polygon fill="#ffffff" stroke="transparent" points="578.2102,-416.2 578.2102,-435.2 608.2102,-435.2 608.2102,-416.2 578.2102,-416.2"/>
<polygon fill="none" stroke="#000000" points="578.2102,-416.2 578.2102,-435.2 608.2102,-435.2 608.2102,-416.2 578.2102,-416.2"/>
<text text-anchor="start" x="599.0964" y="-422.3" font-family="Helvetica,sans-Serif" font-size="11.00" fill="#000000"> &#160;</text>
</a>
</g>
</g>
<!-- invitation_document&#45;&gt;file -->
<g id="edge24" class="edge">
<title>invitation_document:w&#45;&gt;file:e</title>
<path fill="none" stroke="#000000" d="M454.1188,-440.4403C425.4775,-420.8331 468.3852,-331.2 419.7102,-331.2"/>
<polygon fill="#000000" stroke="#000000" points="460.4806,-442.1376 467.2821,-447.6783 464.3454,-443.1688 468.2102,-444.2 468.2102,-444.2 468.2102,-444.2 464.3454,-443.1688 469.1383,-440.7217 460.4806,-442.1376 460.4806,-442.1376"/>
<ellipse fill="none" stroke="#000000" cx="457.3887" cy="-441.3127" rx="3.2" ry="3.2"/>
</g>
<!-- job_request&#45;&gt;client -->
<g id="edge26" class="edge">
<title>job_request:w&#45;&gt;client:e</title>
<path fill="none" stroke="#000000" d="M822.2433,-93.4137C720.8107,-96.4665 692.709,-131.2 584.2102,-131.2"/>
<polygon fill="#000000" stroke="#000000" points="828.7111,-93.3182 836.7634,-96.7996 832.7106,-93.2591 836.7102,-93.2 836.7102,-93.2 836.7102,-93.2 832.7106,-93.2591 836.657,-89.6004 828.7111,-93.3182 828.7111,-93.3182"/>
<ellipse fill="none" stroke="#000000" cx="825.5114" cy="-93.3655" rx="3.2" ry="3.2"/>
</g>
<!-- job_request&#45;&gt;eworker -->
<g id="edge27" class="edge">
<title>job_request:w&#45;&gt;eworker:e</title>
<path fill="none" stroke="#000000" d="M822.1465,-91.1002C763.0166,-80.5899 553.1994,-34.2 538.2102,-34.2 538.2102,-34.2 538.2102,-34.2 357.7102,-34.2 238.9909,-34.2 224.9295,-124.2 106.2102,-124.2"/>
<polygon fill="#000000" stroke="#000000" points="828.7921,-92.0583 836.1964,-96.7632 832.7511,-92.6291 836.7102,-93.2 836.7102,-93.2 836.7102,-93.2 832.7511,-92.6291 837.224,-89.6368 828.7921,-92.0583 828.7921,-92.0583"/>
<ellipse fill="none" stroke="#000000" cx="825.6248" cy="-91.6016" rx="3.2" ry="3.2"/>
</g>
<!-- job_request&#45;&gt;eworker -->
<g id="edge29" class="edge">
<title>job_request:w&#45;&gt;eworker:e</title>
<path fill="none" stroke="#000000" d="M822.1898,-92.6471C805.6767,-91.2891 797.0747,-87.7854 775.2102,-86.2 635.5592,-76.0737 600.016,-73.5016 460.2102,-81.2 383.4171,-85.4286 364.5613,-90.9498 288.2102,-100.2 207.2133,-110.013 187.7994,-124.2 106.2102,-124.2"/>
<polygon fill="#000000" stroke="#000000" points="828.716,-92.8956 836.5732,-96.7974 832.7131,-93.0478 836.7102,-93.2 836.7102,-93.2 836.7102,-93.2 832.7131,-93.0478 836.8472,-89.6026 828.716,-92.8956 828.716,-92.8956"/>
<ellipse fill="none" stroke="#000000" cx="825.5183" cy="-92.7738" rx="3.2" ry="3.2"/>
</g>
<!-- job_request&#45;&gt;principal -->
<g id="edge28" class="edge">
<title>job_request:w&#45;&gt;principal:e</title>
<path fill="none" stroke="#000000" d="M821.8455,-93.1301C666.6075,-91.6602 620.4724,-67.7678 460.2102,-93.2 380.8097,-105.8002 352.736,-101.2455 288.2102,-149.2 262.581,-168.2472 279.1422,-208.2 247.2102,-208.2"/>
<polygon fill="#000000" stroke="#000000" points="828.7103,-93.1623 836.6932,-96.8 832.7102,-93.1812 836.7102,-93.2 836.7102,-93.2 836.7102,-93.2 832.7102,-93.1812 836.7272,-89.6 828.7103,-93.1623 828.7103,-93.1623"/>
<ellipse fill="none" stroke="#000000" cx="825.5103" cy="-93.1472" rx="3.2" ry="3.2"/>
</g>
<!-- job_request&#45;&gt;principal -->
<g id="edge30" class="edge">
<title>job_request:w&#45;&gt;principal:e</title>
<path fill="none" stroke="#000000" d="M821.8444,-93.1385C666.5909,-91.8471 620.3441,-70.9154 460.2102,-97.2 380.8777,-110.2218 353.525,-106.3258 288.2102,-153.2 263.4399,-170.9768 277.6992,-208.2 247.2102,-208.2"/>
<polygon fill="#000000" stroke="#000000" points="828.7103,-93.1669 836.6953,-96.8 832.7102,-93.1834 836.7102,-93.2 836.7102,-93.2 836.7102,-93.2 832.7102,-93.1834 836.7251,-89.6 828.7103,-93.1669 828.7103,-93.1669"/>
<ellipse fill="none" stroke="#000000" cx="825.5103" cy="-93.1536" rx="3.2" ry="3.2"/>
</g>
<!-- job_request&#45;&gt;client_contact -->
<g id="edge25" class="edge">
<title>job_request:w&#45;&gt;client_contact:e</title>
<path fill="none" stroke="#000000" d="M822.3788,-96.5086C795.2098,-111.2469 807.5484,-170.2 767.2102,-170.2"/>
<polygon fill="#000000" stroke="#000000" points="828.9152,-94.9996 837.52,-96.7077 832.8127,-94.0998 836.7102,-93.2 836.7102,-93.2 836.7102,-93.2 832.8127,-94.0998 835.9004,-89.6923 828.9152,-94.9996 828.9152,-94.9996"/>
<ellipse fill="none" stroke="#000000" cx="825.7972" cy="-95.7195" rx="3.2" ry="3.2"/>
</g>
<!-- job_request_application_document -->
<g id="node14" class="node">
<title>job_request_application_document</title>
<g id="a_node14"><a xlink:href="../../tables/job_request_application_document.html" xlink:title="job_request_application_document" target="_top">
<polygon fill="#ffffff" stroke="transparent" points="1215.2102,-440.2 1215.2102,-530.2 1492.2102,-530.2 1492.2102,-440.2 1215.2102,-440.2"/>
<polygon fill="#f5f5f5" stroke="transparent" points="1217.7102,-505.2 1217.7102,-528.2 1490.7102,-528.2 1490.7102,-505.2 1217.7102,-505.2"/>
<polygon fill="none" stroke="#000000" points="1217.7102,-505.2 1217.7102,-528.2 1490.7102,-528.2 1490.7102,-505.2 1217.7102,-505.2"/>
<text text-anchor="start" x="1222.7102" y="-514.3" font-family="Helvetica,sans-Serif" font-weight="bold" font-size="11.00" fill="#000000">job_request_application_document</text>
<text text-anchor="start" x="1455.7539" y="-513.3" font-family="Helvetica,sans-Serif" font-size="11.00" fill="#000000">[table]</text>
<polygon fill="#ffffff" stroke="transparent" points="1217.7102,-483.2 1217.7102,-505.2 1440.7102,-505.2 1440.7102,-483.2 1217.7102,-483.2"/>
<polygon fill="none" stroke="#000000" points="1217.7102,-483.2 1217.7102,-505.2 1440.7102,-505.2 1440.7102,-483.2 1217.7102,-483.2"/>
<image xlink:href="../../images/foreignKeys.png" width="11px" height="12px" preserveAspectRatio="xMinYMin meet" x="1222.71" y="-500.2"/>
<text text-anchor="start" x="1237.7102" y="-490.3" font-family="Helvetica,sans-Serif" font-size="11.00" fill="#000000">job_request_application_id</text>
<polygon fill="none" stroke="#000000" points="1440.7102,-483.2 1440.7102,-505.2 1490.7102,-505.2 1490.7102,-483.2 1440.7102,-483.2"/>
<text text-anchor="start" x="1443.3967" y="-490.9" font-family="Helvetica,sans-Serif" font-size="11.00" fill="#000000">bigint[19]</text>
<polygon fill="#ffffff" stroke="transparent" points="1217.7102,-461.2 1217.7102,-483.2 1440.7102,-483.2 1440.7102,-461.2 1217.7102,-461.2"/>
<polygon fill="none" stroke="#000000" points="1217.7102,-461.2 1217.7102,-483.2 1440.7102,-483.2 1440.7102,-461.2 1217.7102,-461.2"/>
<image xlink:href="../../images/foreignKeys.png" width="11px" height="12px" preserveAspectRatio="xMinYMin meet" x="1222.71" y="-478.2"/>
<text text-anchor="start" x="1237.7102" y="-468.3" font-family="Helvetica,sans-Serif" font-size="11.00" fill="#000000">file_id</text>
<polygon fill="none" stroke="#000000" points="1440.7102,-461.2 1440.7102,-483.2 1490.7102,-483.2 1490.7102,-461.2 1440.7102,-461.2"/>
<text text-anchor="start" x="1443.3967" y="-468.9" font-family="Helvetica,sans-Serif" font-size="11.00" fill="#000000">bigint[19]</text>
<polygon fill="#ffffff" stroke="transparent" points="1217.7102,-442.2 1217.7102,-461.2 1317.7102,-461.2 1317.7102,-442.2 1217.7102,-442.2"/>
<polygon fill="none" stroke="#000000" points="1217.7102,-442.2 1217.7102,-461.2 1317.7102,-461.2 1317.7102,-442.2 1217.7102,-442.2"/>
<text text-anchor="start" x="1220.7102" y="-448.3" font-family="Helvetica,sans-Serif" font-size="11.00" fill="#000000">&lt; 2</text>
<polygon fill="#ffffff" stroke="transparent" points="1317.7102,-442.2 1317.7102,-461.2 1440.7102,-461.2 1440.7102,-442.2 1317.7102,-442.2"/>
<polygon fill="none" stroke="#000000" points="1317.7102,-442.2 1317.7102,-461.2 1440.7102,-461.2 1440.7102,-442.2 1317.7102,-442.2"/>
<text text-anchor="start" x="1399.2058" y="-448.3" font-family="Helvetica,sans-Serif" font-size="11.00" fill="#000000">57 rows</text>
<polygon fill="#ffffff" stroke="transparent" points="1440.7102,-442.2 1440.7102,-461.2 1490.7102,-461.2 1490.7102,-442.2 1440.7102,-442.2"/>
<polygon fill="none" stroke="#000000" points="1440.7102,-442.2 1440.7102,-461.2 1490.7102,-461.2 1490.7102,-442.2 1440.7102,-442.2"/>
<text text-anchor="start" x="1472.1155" y="-448.3" font-family="Helvetica,sans-Serif" font-size="11.00" fill="#000000">0 &gt;</text>
<polygon fill="none" stroke="#000000" stroke-width="2" points="1216.2102,-441.2 1216.2102,-529.2 1491.2102,-529.2 1491.2102,-441.2 1216.2102,-441.2"/>
</a>
</g>
</g>
<!-- job_request_application_document&#45;&gt;file -->
<g id="edge37" class="edge">
<title>job_request_application_document:w&#45;&gt;file:e</title>
<path fill="none" stroke="#000000" d="M1203.2595,-472.2266C1116.4725,-472.5741 1088.3242,-476.6195 998.2102,-501.2 982.8398,-505.3926 980.8226,-512.0252 965.2102,-515.2 860.3707,-536.5191 501.2074,-539.6669 460.2102,-506.2 398.3661,-455.7154 499.5437,-331.2 419.7102,-331.2"/>
<polygon fill="#000000" stroke="#000000" points="1209.7102,-472.2148 1217.7168,-475.8 1213.7102,-472.2074 1217.7102,-472.2 1217.7102,-472.2 1217.7102,-472.2 1213.7102,-472.2074 1217.7035,-468.6 1209.7102,-472.2148 1209.7102,-472.2148"/>
<ellipse fill="none" stroke="#000000" cx="1206.5102" cy="-472.2207" rx="3.2" ry="3.2"/>
</g>
<!-- job_request_application_document&#45;&gt;job_request_application -->
<g id="edge38" class="edge">
<title>job_request_application_document:w&#45;&gt;job_request_application:e</title>
<path fill="none" stroke="#000000" d="M1203.3941,-496.1019C1132.8764,-517.6045 1261.1395,-714.2 1166.2102,-714.2"/>
<polygon fill="#000000" stroke="#000000" points="1209.7799,-495.2536 1218.1843,-497.7686 1213.745,-494.7268 1217.7102,-494.2 1217.7102,-494.2 1217.7102,-494.2 1213.745,-494.7268 1217.2361,-490.6314 1209.7799,-495.2536 1209.7799,-495.2536"/>
<ellipse fill="none" stroke="#000000" cx="1206.6077" cy="-495.675" rx="3.2" ry="3.2"/>
</g>
<!-- job_request_application_history -->
<g id="node15" class="node">
<title>job_request_application_history</title>
<g id="a_node15"><a xlink:href="../../tables/job_request_application_history.html" xlink:title="job_request_application_history" target="_top">
<polygon fill="#ffffff" stroke="transparent" points="1255.2102,-797.7 1255.2102,-858.7 1452.2102,-858.7 1452.2102,-797.7 1255.2102,-797.7"/>
<polygon fill="#f5f5f5" stroke="transparent" points="1255.7102,-835.2 1255.7102,-858.2 1452.7102,-858.2 1452.7102,-835.2 1255.7102,-835.2"/>
<polygon fill="none" stroke="#000000" points="1255.7102,-835.2 1255.7102,-858.2 1452.7102,-858.2 1452.7102,-835.2 1255.7102,-835.2"/>
<text text-anchor="start" x="1260.384" y="-844.3" font-family="Helvetica,sans-Serif" font-weight="bold" font-size="11.00" fill="#000000">job_request_application_history</text>
<text text-anchor="start" x="1418.232" y="-843.3" font-family="Helvetica,sans-Serif" font-size="11.00" fill="#000000">[table]</text>
<polygon fill="none" stroke="#000000" points="1255.7102,-816.2 1255.7102,-835.2 1452.7102,-835.2 1452.7102,-816.2 1255.7102,-816.2"/>
<text text-anchor="start" x="1258.7102" y="-822.3" font-family="Helvetica,sans-Serif" font-size="11.00" fill="#000000">...</text>
<polygon fill="#ffffff" stroke="transparent" points="1255.7102,-797.2 1255.7102,-816.2 1336.7102,-816.2 1336.7102,-797.2 1255.7102,-797.2"/>
<polygon fill="none" stroke="#000000" points="1255.7102,-797.2 1255.7102,-816.2 1336.7102,-816.2 1336.7102,-797.2 1255.7102,-797.2"/>
<text text-anchor="start" x="1258.7102" y="-803.3" font-family="Helvetica,sans-Serif" font-size="11.00" fill="#000000">&lt; 3</text>
<polygon fill="#ffffff" stroke="transparent" points="1336.7102,-797.2 1336.7102,-816.2 1410.7102,-816.2 1410.7102,-797.2 1336.7102,-797.2"/>
<polygon fill="none" stroke="#000000" points="1336.7102,-797.2 1336.7102,-816.2 1410.7102,-816.2 1410.7102,-797.2 1336.7102,-797.2"/>
<text text-anchor="start" x="1369.2058" y="-803.3" font-family="Helvetica,sans-Serif" font-size="11.00" fill="#000000">34 rows</text>
<polygon fill="#ffffff" stroke="transparent" points="1410.7102,-797.2 1410.7102,-816.2 1452.7102,-816.2 1452.7102,-797.2 1410.7102,-797.2"/>
<polygon fill="none" stroke="#000000" points="1410.7102,-797.2 1410.7102,-816.2 1452.7102,-816.2 1452.7102,-797.2 1410.7102,-797.2"/>
<text text-anchor="start" x="1443.5964" y="-803.3" font-family="Helvetica,sans-Serif" font-size="11.00" fill="#000000"> &#160;</text>
</a>
</g>
</g>
<!-- job_request_application_history&#45;&gt;principal -->
<g id="edge39" class="edge">
<title>job_request_application_history:w&#45;&gt;principal:e</title>
<path fill="none" stroke="#000000" d="M1241.1343,-825.1569C1088.9792,-824.2459 1045.8948,-809.2 886.7102,-809.2 886.7102,-809.2 886.7102,-809.2 538.2102,-809.2 417.8683,-809.2 359.0546,-802.4792 288.2102,-705.2 255.5908,-660.4091 302.62,-208.2 247.2102,-208.2"/>
<polygon fill="#000000" stroke="#000000" points="1247.7102,-825.1763 1255.6995,-828.8 1251.7102,-825.1881 1255.7102,-825.2 1255.7102,-825.2 1255.7102,-825.2 1251.7102,-825.1881 1255.7209,-821.6 1247.7102,-825.1763 1247.7102,-825.1763"/>
<ellipse fill="none" stroke="#000000" cx="1244.5102" cy="-825.1668" rx="3.2" ry="3.2"/>
</g>
<!-- job_request_application_history&#45;&gt;principal -->
<g id="edge41" class="edge">
<title>job_request_application_history:w&#45;&gt;principal:e</title>
<path fill="none" stroke="#000000" d="M1241.1794,-825.2706C816.9213,-829.3882 584.4926,-1010.9684 288.2102,-701.2 250.217,-661.4775 302.1771,-208.2 247.2102,-208.2"/>
<polygon fill="#000000" stroke="#000000" points="1247.7103,-825.2389 1255.7277,-828.8 1251.7102,-825.2195 1255.7102,-825.2 1255.7102,-825.2 1255.7102,-825.2 1251.7102,-825.2195 1255.6927,-821.6 1247.7103,-825.2389 1247.7103,-825.2389"/>
<ellipse fill="none" stroke="#000000" cx="1244.5103" cy="-825.2545" rx="3.2" ry="3.2"/>
</g>
<!-- job_request_application_history&#45;&gt;job_request_application -->
<g id="edge40" class="edge">
<title>job_request_application_history:w&#45;&gt;job_request_application:e</title>
<path fill="none" stroke="#000000" d="M1241.2351,-823.0302C1226.2923,-817.7787 1221.2778,-803.6009 1207.2102,-787.2 1182.9837,-758.9552 1203.4216,-714.2 1166.2102,-714.2"/>
<polygon fill="#000000" stroke="#000000" points="1247.7986,-824.014 1255.1765,-828.7602 1251.7544,-824.607 1255.7102,-825.2 1255.7102,-825.2 1255.7102,-825.2 1251.7544,-824.607 1256.2439,-821.6398 1247.7986,-824.014 1247.7986,-824.014"/>
<ellipse fill="none" stroke="#000000" cx="1244.6339" cy="-823.5396" rx="3.2" ry="3.2"/>
</g>
<!-- job_request_application_language -->
<g id="node16" class="node">
<title>job_request_application_language</title>
<g id="a_node16"><a xlink:href="../../tables/job_request_application_language.html" xlink:title="job_request_application_language" target="_top">
<polygon fill="#ffffff" stroke="transparent" points="1248.7102,-633.7 1248.7102,-694.7 1458.7102,-694.7 1458.7102,-633.7 1248.7102,-633.7"/>
<polygon fill="#f5f5f5" stroke="transparent" points="1248.7102,-671.2 1248.7102,-694.2 1458.7102,-694.2 1458.7102,-671.2 1248.7102,-671.2"/>
<polygon fill="none" stroke="#000000" points="1248.7102,-671.2 1248.7102,-694.2 1458.7102,-694.2 1458.7102,-671.2 1248.7102,-671.2"/>
<text text-anchor="start" x="1253.4562" y="-680.3" font-family="Helvetica,sans-Serif" font-weight="bold" font-size="11.00" fill="#000000">job_request_application_language</text>
<text text-anchor="start" x="1424.232" y="-679.3" font-family="Helvetica,sans-Serif" font-size="11.00" fill="#000000">[table]</text>
<polygon fill="none" stroke="#000000" points="1248.7102,-652.2 1248.7102,-671.2 1458.7102,-671.2 1458.7102,-652.2 1248.7102,-652.2"/>
<text text-anchor="start" x="1251.7102" y="-658.3" font-family="Helvetica,sans-Serif" font-size="11.00" fill="#000000">...</text>
<polygon fill="#ffffff" stroke="transparent" points="1248.7102,-633.2 1248.7102,-652.2 1335.7102,-652.2 1335.7102,-633.2 1248.7102,-633.2"/>
<polygon fill="none" stroke="#000000" points="1248.7102,-633.2 1248.7102,-652.2 1335.7102,-652.2 1335.7102,-633.2 1248.7102,-633.2"/>
<text text-anchor="start" x="1251.7102" y="-639.3" font-family="Helvetica,sans-Serif" font-size="11.00" fill="#000000">&lt; 1</text>
<polygon fill="#ffffff" stroke="transparent" points="1335.7102,-633.2 1335.7102,-652.2 1412.7102,-652.2 1412.7102,-633.2 1335.7102,-633.2"/>
<polygon fill="none" stroke="#000000" points="1335.7102,-633.2 1335.7102,-652.2 1412.7102,-652.2 1412.7102,-633.2 1335.7102,-633.2"/>
<text text-anchor="start" x="1371.2058" y="-639.3" font-family="Helvetica,sans-Serif" font-size="11.00" fill="#000000">70 rows</text>
<polygon fill="#ffffff" stroke="transparent" points="1412.7102,-633.2 1412.7102,-652.2 1458.7102,-652.2 1458.7102,-633.2 1412.7102,-633.2"/>
<polygon fill="none" stroke="#000000" points="1412.7102,-633.2 1412.7102,-652.2 1458.7102,-652.2 1458.7102,-633.2 1412.7102,-633.2"/>
<text text-anchor="start" x="1449.5964" y="-639.3" font-family="Helvetica,sans-Serif" font-size="11.00" fill="#000000"> &#160;</text>
</a>
</g>
</g>
<!-- job_request_application_language&#45;&gt;job_request_application -->
<g id="edge42" class="edge">
<title>job_request_application_language:w&#45;&gt;job_request_application:e</title>
<path fill="none" stroke="#000000" d="M1234.4403,-663.4773C1205.5409,-673.6219 1204.3436,-714.2 1166.2102,-714.2"/>
<polygon fill="#000000" stroke="#000000" points="1240.8102,-662.4608 1249.2776,-664.755 1244.7602,-661.8304 1248.7102,-661.2 1248.7102,-661.2 1248.7102,-661.2 1244.7602,-661.8304 1248.1428,-657.645 1240.8102,-662.4608 1240.8102,-662.4608"/>
<ellipse fill="none" stroke="#000000" cx="1237.6502" cy="-662.9651" rx="3.2" ry="3.2"/>
</g>
<!-- job_request_attachment -->
<g id="node17" class="node">
<title>job_request_attachment</title>
<g id="a_node17"><a xlink:href="../../tables/job_request_attachment.html" xlink:title="job_request_attachment" target="_top">
<polygon fill="#ffffff" stroke="transparent" points="1006.2102,-132.7 1006.2102,-193.7 1166.2102,-193.7 1166.2102,-132.7 1006.2102,-132.7"/>
<polygon fill="#f5f5f5" stroke="transparent" points="1006.2102,-170.2 1006.2102,-193.2 1166.2102,-193.2 1166.2102,-170.2 1006.2102,-170.2"/>
<polygon fill="none" stroke="#000000" points="1006.2102,-170.2 1006.2102,-193.2 1166.2102,-193.2 1166.2102,-170.2 1006.2102,-170.2"/>
<text text-anchor="start" x="1010.7172" y="-179.3" font-family="Helvetica,sans-Serif" font-weight="bold" font-size="11.00" fill="#000000">job_request_attachment</text>
<text text-anchor="start" x="1131.732" y="-178.3" font-family="Helvetica,sans-Serif" font-size="11.00" fill="#000000">[table]</text>
<polygon fill="none" stroke="#000000" points="1006.2102,-151.2 1006.2102,-170.2 1166.2102,-170.2 1166.2102,-151.2 1006.2102,-151.2"/>
<text text-anchor="start" x="1009.2102" y="-157.3" font-family="Helvetica,sans-Serif" font-size="11.00" fill="#000000">...</text>
<polygon fill="#ffffff" stroke="transparent" points="1006.2102,-132.2 1006.2102,-151.2 1071.2102,-151.2 1071.2102,-132.2 1006.2102,-132.2"/>
<polygon fill="none" stroke="#000000" points="1006.2102,-132.2 1006.2102,-151.2 1071.2102,-151.2 1071.2102,-132.2 1006.2102,-132.2"/>
<text text-anchor="start" x="1009.2102" y="-138.3" font-family="Helvetica,sans-Serif" font-size="11.00" fill="#000000">&lt; 2</text>
<polygon fill="#ffffff" stroke="transparent" points="1071.2102,-132.2 1071.2102,-151.2 1131.2102,-151.2 1131.2102,-132.2 1071.2102,-132.2"/>
<polygon fill="none" stroke="#000000" points="1071.2102,-132.2 1071.2102,-151.2 1131.2102,-151.2 1131.2102,-132.2 1071.2102,-132.2"/>
<text text-anchor="start" x="1095.8207" y="-138.3" font-family="Helvetica,sans-Serif" font-size="11.00" fill="#000000">4 rows</text>
<polygon fill="#ffffff" stroke="transparent" points="1131.2102,-132.2 1131.2102,-151.2 1166.2102,-151.2 1166.2102,-132.2 1131.2102,-132.2"/>
<polygon fill="none" stroke="#000000" points="1131.2102,-132.2 1131.2102,-151.2 1166.2102,-151.2 1166.2102,-132.2 1131.2102,-132.2"/>
<text text-anchor="start" x="1157.0964" y="-138.3" font-family="Helvetica,sans-Serif" font-size="11.00" fill="#000000"> &#160;</text>
</a>
</g>
</g>
<!-- job_request_attachment&#45;&gt;file -->
<g id="edge43" class="edge">
<title>job_request_attachment:w&#45;&gt;file:e</title>
<path fill="none" stroke="#000000" d="M991.6331,-160.4498C898.5323,-163.7217 874.3309,-198.2905 775.2102,-214.2 705.8223,-225.3372 517.561,-201.5848 460.2102,-242.2 424.7446,-267.3164 463.1687,-331.2 419.7102,-331.2"/>
<polygon fill="#000000" stroke="#000000" points="998.2114,-160.3371 1006.2719,-163.7995 1002.2108,-160.2686 1006.2102,-160.2 1006.2102,-160.2 1006.2102,-160.2 1002.2108,-160.2686 1006.1485,-156.6005 998.2114,-160.3371 998.2114,-160.3371"/>
<ellipse fill="none" stroke="#000000" cx="995.0118" cy="-160.392" rx="3.2" ry="3.2"/>
</g>
<!-- job_request_attachment&#45;&gt;job_request -->
<g id="edge44" class="edge">
<title>job_request_attachment:w&#45;&gt;job_request:e</title>
<path fill="none" stroke="#000000" d="M991.9713,-156.9685C966.593,-143.5849 973.9169,-93.2 936.7102,-93.2"/>
<polygon fill="#000000" stroke="#000000" points="998.4086,-158.4294 1005.4134,-163.7107 1002.3094,-159.3147 1006.2102,-160.2 1006.2102,-160.2 1006.2102,-160.2 1002.3094,-159.3147 1007.007,-156.6893 998.4086,-158.4294 998.4086,-158.4294"/>
<ellipse fill="none" stroke="#000000" cx="995.288" cy="-157.7211" rx="3.2" ry="3.2"/>
</g>
<!-- presentation_job_request_application -->
<g id="node18" class="node">
<title>presentation_job_request_application</title>
<g id="a_node18"><a xlink:href="../../tables/presentation_job_request_application.html" xlink:title="presentation_job_request_application" target="_top">
<polygon fill="#ffffff" stroke="transparent" points="1241.2102,-551.7 1241.2102,-612.7 1466.2102,-612.7 1466.2102,-551.7 1241.2102,-551.7"/>
<polygon fill="#f5f5f5" stroke="transparent" points="1241.7102,-589.2 1241.7102,-612.2 1466.7102,-612.2 1466.7102,-589.2 1241.7102,-589.2"/>
<polygon fill="none" stroke="#000000" points="1241.7102,-589.2 1241.7102,-612.2 1466.7102,-612.2 1466.7102,-589.2 1241.7102,-589.2"/>
<text text-anchor="start" x="1246.3183" y="-598.3" font-family="Helvetica,sans-Serif" font-weight="bold" font-size="11.00" fill="#000000">presentation_job_request_application</text>
<text text-anchor="start" x="1432.232" y="-597.3" font-family="Helvetica,sans-Serif" font-size="11.00" fill="#000000">[table]</text>
<polygon fill="none" stroke="#000000" points="1241.7102,-570.2 1241.7102,-589.2 1466.7102,-589.2 1466.7102,-570.2 1241.7102,-570.2"/>
<text text-anchor="start" x="1244.7102" y="-576.3" font-family="Helvetica,sans-Serif" font-size="11.00" fill="#000000">...</text>
<polygon fill="#ffffff" stroke="transparent" points="1241.7102,-551.2 1241.7102,-570.2 1336.7102,-570.2 1336.7102,-551.2 1241.7102,-551.2"/>
<polygon fill="none" stroke="#000000" points="1241.7102,-551.2 1241.7102,-570.2 1336.7102,-570.2 1336.7102,-551.2 1241.7102,-551.2"/>
<text text-anchor="start" x="1244.7102" y="-557.3" font-family="Helvetica,sans-Serif" font-size="11.00" fill="#000000">&lt; 2</text>
<polygon fill="#ffffff" stroke="transparent" points="1336.7102,-551.2 1336.7102,-570.2 1417.7102,-570.2 1417.7102,-551.2 1336.7102,-551.2"/>
<polygon fill="none" stroke="#000000" points="1336.7102,-551.2 1336.7102,-570.2 1417.7102,-570.2 1417.7102,-551.2 1336.7102,-551.2"/>
<text text-anchor="start" x="1376.2058" y="-557.3" font-family="Helvetica,sans-Serif" font-size="11.00" fill="#000000">16 rows</text>
<polygon fill="#ffffff" stroke="transparent" points="1417.7102,-551.2 1417.7102,-570.2 1466.7102,-570.2 1466.7102,-551.2 1417.7102,-551.2"/>
<polygon fill="none" stroke="#000000" points="1417.7102,-551.2 1417.7102,-570.2 1466.7102,-570.2 1466.7102,-551.2 1417.7102,-551.2"/>
<text text-anchor="start" x="1457.5964" y="-557.3" font-family="Helvetica,sans-Serif" font-size="11.00" fill="#000000"> &#160;</text>
</a>
</g>
</g>
<!-- presentation_job_request_application&#45;&gt;job_request_application -->
<g id="edge45" class="edge">
<title>presentation_job_request_application:w&#45;&gt;job_request_application:e</title>
<path fill="none" stroke="#000000" d="M1227.2872,-581.7763C1182.2552,-600.44 1229.3166,-714.2 1166.2102,-714.2"/>
<polygon fill="#000000" stroke="#000000" points="1233.8348,-580.6068 1242.3432,-582.7439 1237.7725,-579.9034 1241.7102,-579.2 1241.7102,-579.2 1241.7102,-579.2 1237.7725,-579.9034 1241.0772,-575.6561 1233.8348,-580.6068 1233.8348,-580.6068"/>
<ellipse fill="none" stroke="#000000" cx="1230.6847" cy="-581.1695" rx="3.2" ry="3.2"/>
</g>
</g>
</svg>
