<?xml version="1.0" encoding="UTF-8" standalone="no"?>
<!DOCTYPE svg PUBLIC "-//W3C//DTD SVG 1.1//EN"
 "http://www.w3.org/Graphics/SVG/1.1/DTD/svg11.dtd">
<!-- Generated by graphviz version 2.40.1 (20161225.0304)
 -->
<!-- Title: oneDegreeRelationshipsDiagram Pages: 1 -->
<svg width="681pt" height="368pt"
 viewBox="0.00 0.00 681.00 368.20" xmlns="http://www.w3.org/2000/svg" xmlns:xlink="http://www.w3.org/1999/xlink">
<g id="graph0" class="graph" transform="scale(1 1) rotate(0) translate(4 364.2)">
<title>oneDegreeRelationshipsDiagram</title>
<polygon fill="#ffffff" stroke="transparent" points="-4,4 -4,-364.2 677,-364.2 677,4 -4,4"/>
<text text-anchor="middle" x="72.4936" y="-7.3" font-family="Helvetica,sans-Serif" font-size="11.00" fill="#000000">Generated by SchemaSpy</text>
<!-- job_request_application -->
<g id="node1" class="node">
<title>job_request_application</title>
<g id="a_node1"><a xlink:href="../../tables/job_request_application.html" xlink:title="job_request_application" target="_top">
<polygon fill="#ffffff" stroke="transparent" points="180,-119.2 180,-356.2 339,-356.2 339,-119.2 180,-119.2"/>
<polygon fill="#f5f5f5" stroke="transparent" points="180.5,-332.7 180.5,-355.7 339.5,-355.7 339.5,-332.7 180.5,-332.7"/>
<polygon fill="none" stroke="#000000" points="180.5,-332.7 180.5,-355.7 339.5,-355.7 339.5,-332.7 180.5,-332.7"/>
<text text-anchor="start" x="185.4261" y="-341.8" font-family="Helvetica,sans-Serif" font-weight="bold" font-size="11.00" fill="#000000">job_request_application</text>
<text text-anchor="start" x="305.0219" y="-340.8" font-family="Helvetica,sans-Serif" font-size="11.00" fill="#000000">[table]</text>
<polygon fill="none" stroke="#000000" points="180.5,-310.7 180.5,-332.7 339.5,-332.7 339.5,-310.7 180.5,-310.7"/>
<image xlink:href="../../images/primaryKeys.png" width="11px" height="12px" preserveAspectRatio="xMinYMin meet" x="185.5" y="-327.7"/>
<text text-anchor="start" x="200.5" y="-317.8" font-family="Helvetica,sans-Serif" font-size="11.00" fill="#000000">id</text>
<polygon fill="#ffffff" stroke="transparent" points="180.5,-288.7 180.5,-310.7 339.5,-310.7 339.5,-288.7 180.5,-288.7"/>
<polygon fill="none" stroke="#000000" points="180.5,-288.7 180.5,-310.7 339.5,-310.7 339.5,-288.7 180.5,-288.7"/>
<image xlink:href="../../images/foreignKeys.png" width="11px" height="12px" preserveAspectRatio="xMinYMin meet" x="185.5" y="-305.7"/>
<text text-anchor="start" x="200.5" y="-295.8" font-family="Helvetica,sans-Serif" font-size="11.00" fill="#000000">created_by</text>
<polygon fill="#ffffff" stroke="transparent" points="180.5,-266.7 180.5,-288.7 339.5,-288.7 339.5,-266.7 180.5,-266.7"/>
<polygon fill="none" stroke="#000000" points="180.5,-266.7 180.5,-288.7 339.5,-288.7 339.5,-266.7 180.5,-266.7"/>
<image xlink:href="../../images/foreignKeys.png" width="11px" height="12px" preserveAspectRatio="xMinYMin meet" x="185.5" y="-283.7"/>
<text text-anchor="start" x="200.5" y="-273.8" font-family="Helvetica,sans-Serif" font-size="11.00" fill="#000000">modified_by</text>
<polygon fill="#ffffff" stroke="transparent" points="180.5,-244.7 180.5,-266.7 339.5,-266.7 339.5,-244.7 180.5,-244.7"/>
<polygon fill="none" stroke="#000000" points="180.5,-244.7 180.5,-266.7 339.5,-266.7 339.5,-244.7 180.5,-244.7"/>
<image xlink:href="../../images/foreignKeys.png" width="11px" height="12px" preserveAspectRatio="xMinYMin meet" x="185.5" y="-261.7"/>
<text text-anchor="start" x="200.5" y="-251.8" font-family="Helvetica,sans-Serif" font-size="11.00" fill="#000000">job_request_id</text>
<polygon fill="#ffffff" stroke="transparent" points="180.5,-222.7 180.5,-244.7 339.5,-244.7 339.5,-222.7 180.5,-222.7"/>
<polygon fill="none" stroke="#000000" points="180.5,-222.7 180.5,-244.7 339.5,-244.7 339.5,-222.7 180.5,-222.7"/>
<image xlink:href="../../images/foreignKeys.png" width="11px" height="12px" preserveAspectRatio="xMinYMin meet" x="185.5" y="-239.7"/>
<text text-anchor="start" x="200.5" y="-229.8" font-family="Helvetica,sans-Serif" font-size="11.00" fill="#000000">supplier_id</text>
<polygon fill="#ffffff" stroke="transparent" points="180.5,-200.7 180.5,-222.7 339.5,-222.7 339.5,-200.7 180.5,-200.7"/>
<polygon fill="none" stroke="#000000" points="180.5,-200.7 180.5,-222.7 339.5,-222.7 339.5,-200.7 180.5,-200.7"/>
<text text-anchor="start" x="200.5" y="-207.8" font-family="Helvetica,sans-Serif" font-size="11.00" fill="#000000">marketplace_id</text>
<polygon fill="#ffffff" stroke="transparent" points="180.5,-178.7 180.5,-200.7 339.5,-200.7 339.5,-178.7 180.5,-178.7"/>
<polygon fill="none" stroke="#000000" points="180.5,-178.7 180.5,-200.7 339.5,-200.7 339.5,-178.7 180.5,-178.7"/>
<image xlink:href="../../images/foreignKeys.png" width="11px" height="12px" preserveAspectRatio="xMinYMin meet" x="185.5" y="-195.7"/>
<text text-anchor="start" x="200.5" y="-185.8" font-family="Helvetica,sans-Serif" font-size="11.00" fill="#000000">applicant_id</text>
<polygon fill="#ffffff" stroke="transparent" points="180.5,-156.7 180.5,-178.7 339.5,-178.7 339.5,-156.7 180.5,-156.7"/>
<polygon fill="none" stroke="#000000" points="180.5,-156.7 180.5,-178.7 339.5,-178.7 339.5,-156.7 180.5,-156.7"/>
<image xlink:href="../../images/foreignKeys.png" width="11px" height="12px" preserveAspectRatio="xMinYMin meet" x="185.5" y="-173.7"/>
<text text-anchor="start" x="200.5" y="-163.8" font-family="Helvetica,sans-Serif" font-size="11.00" fill="#000000">avatar_id</text>
<polygon fill="none" stroke="#000000" points="180.5,-137.7 180.5,-156.7 339.5,-156.7 339.5,-137.7 180.5,-137.7"/>
<text text-anchor="start" x="183.5" y="-143.8" font-family="Helvetica,sans-Serif" font-size="11.00" fill="#000000">...</text>
<polygon fill="#ffffff" stroke="transparent" points="180.5,-118.7 180.5,-137.7 237.5,-137.7 237.5,-118.7 180.5,-118.7"/>
<polygon fill="none" stroke="#000000" points="180.5,-118.7 180.5,-137.7 237.5,-137.7 237.5,-118.7 180.5,-118.7"/>
<text text-anchor="start" x="183.5" y="-124.8" font-family="Helvetica,sans-Serif" font-size="11.00" fill="#000000">&lt; 6</text>
<polygon fill="#ffffff" stroke="transparent" points="237.5,-118.7 237.5,-137.7 299.5,-137.7 299.5,-118.7 237.5,-118.7"/>
<polygon fill="none" stroke="#000000" points="237.5,-118.7 237.5,-137.7 299.5,-137.7 299.5,-118.7 237.5,-118.7"/>
<text text-anchor="start" x="257.9956" y="-124.8" font-family="Helvetica,sans-Serif" font-size="11.00" fill="#000000">75 rows</text>
<polygon fill="#ffffff" stroke="transparent" points="299.5,-118.7 299.5,-137.7 339.5,-137.7 339.5,-118.7 299.5,-118.7"/>
<polygon fill="none" stroke="#000000" points="299.5,-118.7 299.5,-137.7 339.5,-137.7 339.5,-118.7 299.5,-118.7"/>
<text text-anchor="start" x="320.9053" y="-124.8" font-family="Helvetica,sans-Serif" font-size="11.00" fill="#000000">5 &gt;</text>
</a>
</g>
</g>
<!-- file -->
<g id="node2" class="node">
<title>file</title>
<g id="a_node2"><a xlink:href="../../tables/file.html" xlink:title="file" target="_top">
<polygon fill="#ffffff" stroke="transparent" points="8,-38.2 8,-165.2 131,-165.2 131,-38.2 8,-38.2"/>
<polygon fill="#f5f5f5" stroke="transparent" points="8.5,-141.7 8.5,-164.7 131.5,-164.7 131.5,-141.7 8.5,-141.7"/>
<polygon fill="none" stroke="#000000" points="8.5,-141.7 8.5,-164.7 131.5,-164.7 131.5,-141.7 8.5,-141.7"/>
<text text-anchor="start" x="13.5" y="-150.8" font-family="Helvetica,sans-Serif" font-weight="bold" font-size="11.00" fill="#000000">file</text>
<text text-anchor="start" x="96.5437" y="-149.8" font-family="Helvetica,sans-Serif" font-size="11.00" fill="#000000">[table]</text>
<polygon fill="none" stroke="#000000" points="8.5,-119.7 8.5,-141.7 131.5,-141.7 131.5,-119.7 8.5,-119.7"/>
<image xlink:href="../../images/primaryKeys.png" width="11px" height="12px" preserveAspectRatio="xMinYMin meet" x="13.5" y="-136.7"/>
<text text-anchor="start" x="28.5" y="-126.8" font-family="Helvetica,sans-Serif" font-size="11.00" fill="#000000">id</text>
<polygon fill="#ffffff" stroke="transparent" points="8.5,-97.7 8.5,-119.7 131.5,-119.7 131.5,-97.7 8.5,-97.7"/>
<polygon fill="none" stroke="#000000" points="8.5,-97.7 8.5,-119.7 131.5,-119.7 131.5,-97.7 8.5,-97.7"/>
<image xlink:href="../../images/foreignKeys.png" width="11px" height="12px" preserveAspectRatio="xMinYMin meet" x="13.5" y="-114.7"/>
<text text-anchor="start" x="28.5" y="-104.8" font-family="Helvetica,sans-Serif" font-size="11.00" fill="#000000">created_by</text>
<polygon fill="#ffffff" stroke="transparent" points="8.5,-75.7 8.5,-97.7 131.5,-97.7 131.5,-75.7 8.5,-75.7"/>
<polygon fill="none" stroke="#000000" points="8.5,-75.7 8.5,-97.7 131.5,-97.7 131.5,-75.7 8.5,-75.7"/>
<image xlink:href="../../images/foreignKeys.png" width="11px" height="12px" preserveAspectRatio="xMinYMin meet" x="13.5" y="-92.7"/>
<text text-anchor="start" x="28.5" y="-82.8" font-family="Helvetica,sans-Serif" font-size="11.00" fill="#000000">modified_by</text>
<polygon fill="none" stroke="#000000" points="8.5,-56.7 8.5,-75.7 131.5,-75.7 131.5,-56.7 8.5,-56.7"/>
<text text-anchor="start" x="11.5" y="-62.8" font-family="Helvetica,sans-Serif" font-size="11.00" fill="#000000">...</text>
<polygon fill="#ffffff" stroke="transparent" points="8.5,-37.7 8.5,-56.7 41.5,-56.7 41.5,-37.7 8.5,-37.7"/>
<polygon fill="none" stroke="#000000" points="8.5,-37.7 8.5,-56.7 41.5,-56.7 41.5,-37.7 8.5,-37.7"/>
<text text-anchor="start" x="11.5" y="-43.8" font-family="Helvetica,sans-Serif" font-size="11.00" fill="#000000">&lt; 2</text>
<polygon fill="#ffffff" stroke="transparent" points="41.5,-37.7 41.5,-56.7 97.5,-56.7 97.5,-37.7 41.5,-37.7"/>
<polygon fill="none" stroke="#000000" points="41.5,-37.7 41.5,-56.7 97.5,-56.7 97.5,-37.7 41.5,-37.7"/>
<text text-anchor="start" x="49.8807" y="-43.8" font-family="Helvetica,sans-Serif" font-size="11.00" fill="#000000">590 rows</text>
<polygon fill="#ffffff" stroke="transparent" points="97.5,-37.7 97.5,-56.7 131.5,-56.7 131.5,-37.7 97.5,-37.7"/>
<polygon fill="none" stroke="#000000" points="97.5,-37.7 97.5,-56.7 131.5,-56.7 131.5,-37.7 97.5,-37.7"/>
<text text-anchor="start" x="106.7904" y="-43.8" font-family="Helvetica,sans-Serif" font-size="11.00" fill="#000000">13 &gt;</text>
</a>
</g>
</g>
<!-- job_request_application&#45;&gt;file -->
<g id="edge1" class="edge">
<title>job_request_application:w&#45;&gt;file:e</title>
<path fill="none" stroke="#000000" d="M166.6217,-163.1631C154.0786,-153.283 152.8196,-130.7 131.5,-130.7"/>
<polygon fill="#000000" stroke="#000000" points="172.896,-165.2142 179.3814,-171.1218 176.698,-166.4571 180.5,-167.7 180.5,-167.7 180.5,-167.7 176.698,-166.4571 181.6186,-164.2782 172.896,-165.2142 172.896,-165.2142"/>
<ellipse fill="none" stroke="#000000" cx="169.8544" cy="-164.2198" rx="3.2" ry="3.2"/>
</g>
<!-- job_request_application_document -->
<g id="node3" class="node">
<title>job_request_application_document</title>
<g id="a_node3"><a xlink:href="../../tables/job_request_application_document.html" xlink:title="job_request_application_document" target="_top">
<polygon fill="#ffffff" stroke="transparent" points="388,-164.7 388,-254.7 665,-254.7 665,-164.7 388,-164.7"/>
<polygon fill="#f5f5f5" stroke="transparent" points="390.5,-229.7 390.5,-252.7 663.5,-252.7 663.5,-229.7 390.5,-229.7"/>
<polygon fill="none" stroke="#000000" points="390.5,-229.7 390.5,-252.7 663.5,-252.7 663.5,-229.7 390.5,-229.7"/>
<text text-anchor="start" x="395.5" y="-238.8" font-family="Helvetica,sans-Serif" font-weight="bold" font-size="11.00" fill="#000000">job_request_application_document</text>
<text text-anchor="start" x="628.5437" y="-237.8" font-family="Helvetica,sans-Serif" font-size="11.00" fill="#000000">[table]</text>
<polygon fill="#ffffff" stroke="transparent" points="390.5,-207.7 390.5,-229.7 613.5,-229.7 613.5,-207.7 390.5,-207.7"/>
<polygon fill="none" stroke="#000000" points="390.5,-207.7 390.5,-229.7 613.5,-229.7 613.5,-207.7 390.5,-207.7"/>
<image xlink:href="../../images/foreignKeys.png" width="11px" height="12px" preserveAspectRatio="xMinYMin meet" x="395.5" y="-224.7"/>
<text text-anchor="start" x="410.5" y="-214.8" font-family="Helvetica,sans-Serif" font-size="11.00" fill="#000000">job_request_application_id</text>
<polygon fill="none" stroke="#000000" points="613.5,-207.7 613.5,-229.7 663.5,-229.7 663.5,-207.7 613.5,-207.7"/>
<text text-anchor="start" x="616.1865" y="-215.4" font-family="Helvetica,sans-Serif" font-size="11.00" fill="#000000">bigint[19]</text>
<polygon fill="#ffffff" stroke="transparent" points="390.5,-185.7 390.5,-207.7 613.5,-207.7 613.5,-185.7 390.5,-185.7"/>
<polygon fill="none" stroke="#000000" points="390.5,-185.7 390.5,-207.7 613.5,-207.7 613.5,-185.7 390.5,-185.7"/>
<image xlink:href="../../images/foreignKeys.png" width="11px" height="12px" preserveAspectRatio="xMinYMin meet" x="395.5" y="-202.7"/>
<text text-anchor="start" x="410.5" y="-192.8" font-family="Helvetica,sans-Serif" font-size="11.00" fill="#000000">file_id</text>
<polygon fill="none" stroke="#000000" points="613.5,-185.7 613.5,-207.7 663.5,-207.7 663.5,-185.7 613.5,-185.7"/>
<text text-anchor="start" x="616.1865" y="-193.4" font-family="Helvetica,sans-Serif" font-size="11.00" fill="#000000">bigint[19]</text>
<polygon fill="#ffffff" stroke="transparent" points="390.5,-166.7 390.5,-185.7 490.5,-185.7 490.5,-166.7 390.5,-166.7"/>
<polygon fill="none" stroke="#000000" points="390.5,-166.7 390.5,-185.7 490.5,-185.7 490.5,-166.7 390.5,-166.7"/>
<text text-anchor="start" x="393.5" y="-172.8" font-family="Helvetica,sans-Serif" font-size="11.00" fill="#000000">&lt; 2</text>
<polygon fill="#ffffff" stroke="transparent" points="490.5,-166.7 490.5,-185.7 613.5,-185.7 613.5,-166.7 490.5,-166.7"/>
<polygon fill="none" stroke="#000000" points="490.5,-166.7 490.5,-185.7 613.5,-185.7 613.5,-166.7 490.5,-166.7"/>
<text text-anchor="start" x="571.9956" y="-172.8" font-family="Helvetica,sans-Serif" font-size="11.00" fill="#000000">57 rows</text>
<polygon fill="#ffffff" stroke="transparent" points="613.5,-166.7 613.5,-185.7 663.5,-185.7 663.5,-166.7 613.5,-166.7"/>
<polygon fill="none" stroke="#000000" points="613.5,-166.7 613.5,-185.7 663.5,-185.7 663.5,-166.7 613.5,-166.7"/>
<text text-anchor="start" x="644.9053" y="-172.8" font-family="Helvetica,sans-Serif" font-size="11.00" fill="#000000">0 &gt;</text>
<polygon fill="none" stroke="#000000" stroke-width="2" points="389,-165.7 389,-253.7 664,-253.7 664,-165.7 389,-165.7"/>
</a>
</g>
</g>
<!-- job_request_application_document&#45;&gt;job_request_application -->
<g id="edge3" class="edge">
<title>job_request_application_document:w&#45;&gt;job_request_application:e</title>
<path fill="none" stroke="#000000" d="M376.4248,-222.6119C350.0054,-241.4261 384.5959,-321.7 339.5,-321.7"/>
<polygon fill="#000000" stroke="#000000" points="382.7922,-220.8423 391.464,-222.1685 386.6461,-219.7711 390.5,-218.7 390.5,-218.7 390.5,-218.7 386.6461,-219.7711 389.536,-215.2315 382.7922,-220.8423 382.7922,-220.8423"/>
<ellipse fill="none" stroke="#000000" cx="379.709" cy="-221.6992" rx="3.2" ry="3.2"/>
</g>
<!-- job_request_application_document&#45;&gt;file -->
<g id="edge2" class="edge">
<title>job_request_application_document:w&#45;&gt;file:e</title>
<path fill="none" stroke="#000000" d="M376.4575,-193.1424C355.8625,-179.2545 378.8488,-128.484 347,-108.7 280.9316,-67.6592 247.3827,-89.5473 172,-108.7 152.1465,-113.7442 151.9843,-130.7 131.5,-130.7"/>
<polygon fill="#000000" stroke="#000000" points="382.745,-194.7353 389.6159,-200.1898 386.6225,-195.7176 390.5,-196.7 390.5,-196.7 390.5,-196.7 386.6225,-195.7176 391.3841,-193.2102 382.745,-194.7353 382.745,-194.7353"/>
<ellipse fill="none" stroke="#000000" cx="379.643" cy="-193.9494" rx="3.2" ry="3.2"/>
</g>
</g>
</svg>
