<?xml version="1.0" encoding="UTF-8" standalone="no"?>
<!DOCTYPE svg PUBLIC "-//W3C//DTD SVG 1.1//EN"
 "http://www.w3.org/Graphics/SVG/1.1/DTD/svg11.dtd">
<!-- Generated by graphviz version 2.40.1 (20161225.0304)
 -->
<!-- Title: oneDegreeRelationshipsDiagram Pages: 1 -->
<svg width="573pt" height="370pt"
 viewBox="0.00 0.00 573.00 369.70" xmlns="http://www.w3.org/2000/svg" xmlns:xlink="http://www.w3.org/1999/xlink">
<g id="graph0" class="graph" transform="scale(1 1) rotate(0) translate(4 365.7)">
<title>oneDegreeRelationshipsDiagram</title>
<polygon fill="#ffffff" stroke="transparent" points="-4,4 -4,-365.7 569,-365.7 569,4 -4,4"/>
<text text-anchor="middle" x="72.4936" y="-7.3" font-family="Helvetica,sans-Serif" font-size="11.00" fill="#000000">Generated by SchemaSpy</text>
<!-- job_ad -->
<g id="node1" class="node">
<title>job_ad</title>
<g id="a_node1"><a xlink:href="../../tables/job_ad.html" xlink:title="job_ad" target="_top">
<polygon fill="#ffffff" stroke="transparent" points="149,-38.2 149,-231.2 315,-231.2 315,-38.2 149,-38.2"/>
<polygon fill="#f5f5f5" stroke="transparent" points="149,-207.7 149,-230.7 315,-230.7 315,-207.7 149,-207.7"/>
<polygon fill="none" stroke="#000000" points="149,-207.7 149,-230.7 315,-230.7 315,-207.7 149,-207.7"/>
<text text-anchor="start" x="154" y="-216.8" font-family="Helvetica,sans-Serif" font-weight="bold" font-size="11.00" fill="#000000">job_ad</text>
<text text-anchor="start" x="280.0437" y="-215.8" font-family="Helvetica,sans-Serif" font-size="11.00" fill="#000000">[table]</text>
<polygon fill="none" stroke="#000000" points="149,-185.7 149,-207.7 315,-207.7 315,-185.7 149,-185.7"/>
<image xlink:href="../../images/primaryKeys.png" width="11px" height="12px" preserveAspectRatio="xMinYMin meet" x="154" y="-202.7"/>
<text text-anchor="start" x="169" y="-192.8" font-family="Helvetica,sans-Serif" font-size="11.00" fill="#000000">id</text>
<polygon fill="#ffffff" stroke="transparent" points="149,-163.7 149,-185.7 315,-185.7 315,-163.7 149,-163.7"/>
<polygon fill="none" stroke="#000000" points="149,-163.7 149,-185.7 315,-185.7 315,-163.7 149,-163.7"/>
<image xlink:href="../../images/foreignKeys.png" width="11px" height="12px" preserveAspectRatio="xMinYMin meet" x="154" y="-180.7"/>
<text text-anchor="start" x="169" y="-170.8" font-family="Helvetica,sans-Serif" font-size="11.00" fill="#000000">created_by</text>
<polygon fill="#ffffff" stroke="transparent" points="149,-141.7 149,-163.7 315,-163.7 315,-141.7 149,-141.7"/>
<polygon fill="none" stroke="#000000" points="149,-141.7 149,-163.7 315,-163.7 315,-141.7 149,-141.7"/>
<image xlink:href="../../images/foreignKeys.png" width="11px" height="12px" preserveAspectRatio="xMinYMin meet" x="154" y="-158.7"/>
<text text-anchor="start" x="169" y="-148.8" font-family="Helvetica,sans-Serif" font-size="11.00" fill="#000000">modified_by</text>
<polygon fill="#ffffff" stroke="transparent" points="149,-119.7 149,-141.7 315,-141.7 315,-119.7 149,-119.7"/>
<polygon fill="none" stroke="#000000" points="149,-119.7 149,-141.7 315,-141.7 315,-119.7 149,-119.7"/>
<text text-anchor="start" x="169" y="-126.8" font-family="Helvetica,sans-Serif" font-size="11.00" fill="#000000">marketplace_id</text>
<polygon fill="#ffffff" stroke="transparent" points="149,-97.7 149,-119.7 315,-119.7 315,-97.7 149,-97.7"/>
<polygon fill="none" stroke="#000000" points="149,-97.7 149,-119.7 315,-119.7 315,-97.7 149,-97.7"/>
<image xlink:href="../../images/foreignKeys.png" width="11px" height="12px" preserveAspectRatio="xMinYMin meet" x="154" y="-114.7"/>
<text text-anchor="start" x="169" y="-104.8" font-family="Helvetica,sans-Serif" font-size="11.00" fill="#000000">job_request_id</text>
<polygon fill="#ffffff" stroke="transparent" points="149,-75.7 149,-97.7 315,-97.7 315,-75.7 149,-75.7"/>
<polygon fill="none" stroke="#000000" points="149,-75.7 149,-97.7 315,-97.7 315,-75.7 149,-75.7"/>
<image xlink:href="../../images/foreignKeys.png" width="11px" height="12px" preserveAspectRatio="xMinYMin meet" x="154" y="-92.7"/>
<text text-anchor="start" x="169" y="-82.8" font-family="Helvetica,sans-Serif" font-size="11.00" fill="#000000">location_id</text>
<polygon fill="none" stroke="#000000" points="149,-56.7 149,-75.7 315,-75.7 315,-56.7 149,-56.7"/>
<text text-anchor="start" x="152" y="-62.8" font-family="Helvetica,sans-Serif" font-size="11.00" fill="#000000">...</text>
<polygon fill="#ffffff" stroke="transparent" points="149,-37.7 149,-56.7 210,-56.7 210,-37.7 149,-37.7"/>
<polygon fill="none" stroke="#000000" points="149,-37.7 149,-56.7 210,-56.7 210,-37.7 149,-37.7"/>
<text text-anchor="start" x="152" y="-43.8" font-family="Helvetica,sans-Serif" font-size="11.00" fill="#000000">&lt; 4</text>
<polygon fill="#ffffff" stroke="transparent" points="210,-37.7 210,-56.7 274,-56.7 274,-37.7 210,-37.7"/>
<polygon fill="none" stroke="#000000" points="210,-37.7 210,-56.7 274,-56.7 274,-37.7 210,-37.7"/>
<text text-anchor="start" x="232.4956" y="-43.8" font-family="Helvetica,sans-Serif" font-size="11.00" fill="#000000">34 rows</text>
<polygon fill="#ffffff" stroke="transparent" points="274,-37.7 274,-56.7 315,-56.7 315,-37.7 274,-37.7"/>
<polygon fill="none" stroke="#000000" points="274,-37.7 274,-56.7 315,-56.7 315,-37.7 274,-37.7"/>
<text text-anchor="start" x="296.4053" y="-43.8" font-family="Helvetica,sans-Serif" font-size="11.00" fill="#000000">2 &gt;</text>
</a>
</g>
</g>
<!-- principal -->
<g id="node2" class="node">
<title>principal</title>
<g id="a_node2"><a xlink:href="../../tables/principal.html" xlink:title="principal" target="_top">
<polygon fill="#ffffff" stroke="transparent" points="8,-144.2 8,-249.2 100,-249.2 100,-144.2 8,-144.2"/>
<polygon fill="#f5f5f5" stroke="transparent" points="8,-225.7 8,-248.7 100,-248.7 100,-225.7 8,-225.7"/>
<polygon fill="none" stroke="#000000" points="8,-225.7 8,-248.7 100,-248.7 100,-225.7 8,-225.7"/>
<text text-anchor="start" x="13" y="-234.8" font-family="Helvetica,sans-Serif" font-weight="bold" font-size="11.00" fill="#000000">principal</text>
<text text-anchor="start" x="65.0437" y="-233.8" font-family="Helvetica,sans-Serif" font-size="11.00" fill="#000000">[table]</text>
<polygon fill="none" stroke="#000000" points="8,-203.7 8,-225.7 100,-225.7 100,-203.7 8,-203.7"/>
<image xlink:href="../../images/primaryKeys.png" width="11px" height="12px" preserveAspectRatio="xMinYMin meet" x="13" y="-220.7"/>
<text text-anchor="start" x="32" y="-210.8" font-family="Helvetica,sans-Serif" font-size="11.00" fill="#000000">id</text>
<polygon fill="#ffffff" stroke="transparent" points="8,-181.7 8,-203.7 100,-203.7 100,-181.7 8,-181.7"/>
<polygon fill="none" stroke="#000000" points="8,-181.7 8,-203.7 100,-203.7 100,-181.7 8,-181.7"/>
<image xlink:href="../../images/foreignKeys.png" width="11px" height="12px" preserveAspectRatio="xMinYMin meet" x="13" y="-198.7"/>
<text text-anchor="start" x="32" y="-188.8" font-family="Helvetica,sans-Serif" font-size="11.00" fill="#000000">eworker_id</text>
<polygon fill="none" stroke="#000000" points="8,-162.7 8,-181.7 100,-181.7 100,-162.7 8,-162.7"/>
<text text-anchor="start" x="11" y="-168.8" font-family="Helvetica,sans-Serif" font-size="11.00" fill="#000000">...</text>
<polygon fill="#ffffff" stroke="transparent" points="8,-143.7 8,-162.7 29,-162.7 29,-143.7 8,-143.7"/>
<polygon fill="none" stroke="#000000" points="8,-143.7 8,-162.7 29,-162.7 29,-143.7 8,-143.7"/>
<text text-anchor="start" x="10.7027" y="-149.8" font-family="Helvetica,sans-Serif" font-size="11.00" fill="#000000">&lt; 1</text>
<polygon fill="#ffffff" stroke="transparent" points="29,-143.7 29,-162.7 73,-162.7 73,-143.7 29,-143.7"/>
<polygon fill="none" stroke="#000000" points="29,-143.7 29,-162.7 73,-162.7 73,-143.7 29,-143.7"/>
<text text-anchor="start" x="31.7478" y="-149.8" font-family="Helvetica,sans-Serif" font-size="11.00" fill="#000000">18 rows</text>
<polygon fill="#ffffff" stroke="transparent" points="73,-143.7 73,-162.7 100,-162.7 100,-143.7 73,-143.7"/>
<polygon fill="none" stroke="#000000" points="73,-143.7 73,-162.7 100,-162.7 100,-143.7 73,-143.7"/>
<text text-anchor="start" x="75.6452" y="-149.8" font-family="Helvetica,sans-Serif" font-size="11.00" fill="#000000">56 &gt;</text>
</a>
</g>
</g>
<!-- job_ad&#45;&gt;principal -->
<g id="edge1" class="edge">
<title>job_ad:w&#45;&gt;principal:e</title>
<path fill="none" stroke="#000000" d="M135.2637,-179.2885C122.3632,-189.7952 122.1826,-214.7 100,-214.7"/>
<polygon fill="#000000" stroke="#000000" points="141.4121,-177.2347 150.1406,-178.1145 145.2061,-175.9673 149,-174.7 149,-174.7 149,-174.7 145.2061,-175.9673 147.8594,-171.2855 141.4121,-177.2347 141.4121,-177.2347"/>
<ellipse fill="none" stroke="#000000" cx="138.377" cy="-178.2486" rx="3.2" ry="3.2"/>
</g>
<!-- job_ad&#45;&gt;principal -->
<g id="edge2" class="edge">
<title>job_ad:w&#45;&gt;principal:e</title>
<path fill="none" stroke="#000000" d="M135.3131,-157.565C119.5154,-172.181 129.0857,-214.7 100,-214.7"/>
<polygon fill="#000000" stroke="#000000" points="141.462,-155.3794 150.2057,-156.0921 145.231,-154.0397 149,-152.7 149,-152.7 149,-152.7 145.231,-154.0397 147.7943,-149.3079 141.462,-155.3794 141.462,-155.3794"/>
<ellipse fill="none" stroke="#000000" cx="138.4468" cy="-156.4512" rx="3.2" ry="3.2"/>
</g>
<!-- job_ad_language -->
<g id="node3" class="node">
<title>job_ad_language</title>
<g id="a_node3"><a xlink:href="../../tables/job_ad_language.html" xlink:title="job_ad_language" target="_top">
<polygon fill="#ffffff" stroke="transparent" points="364,-135.7 364,-357.7 557,-357.7 557,-135.7 364,-135.7"/>
<polygon fill="#f5f5f5" stroke="transparent" points="366.5,-332.7 366.5,-355.7 555.5,-355.7 555.5,-332.7 366.5,-332.7"/>
<polygon fill="none" stroke="#000000" points="366.5,-332.7 366.5,-355.7 555.5,-355.7 555.5,-332.7 366.5,-332.7"/>
<text text-anchor="start" x="371.5" y="-341.8" font-family="Helvetica,sans-Serif" font-weight="bold" font-size="11.00" fill="#000000">job_ad_language</text>
<text text-anchor="start" x="520.5437" y="-340.8" font-family="Helvetica,sans-Serif" font-size="11.00" fill="#000000">[table]</text>
<polygon fill="none" stroke="#000000" points="366.5,-310.7 366.5,-332.7 489.5,-332.7 489.5,-310.7 366.5,-310.7"/>
<image xlink:href="../../images/primaryKeys.png" width="11px" height="12px" preserveAspectRatio="xMinYMin meet" x="371.5" y="-327.7"/>
<text text-anchor="start" x="386.5" y="-317.8" font-family="Helvetica,sans-Serif" font-size="11.00" fill="#000000">id</text>
<polygon fill="none" stroke="#000000" points="489.5,-310.7 489.5,-332.7 555.5,-332.7 555.5,-310.7 489.5,-310.7"/>
<text text-anchor="start" x="492.5" y="-318.4" font-family="Helvetica,sans-Serif" font-size="11.00" fill="#000000">bigint[19]</text>
<polygon fill="#ffffff" stroke="transparent" points="366.5,-288.7 366.5,-310.7 489.5,-310.7 489.5,-288.7 366.5,-288.7"/>
<polygon fill="none" stroke="#000000" points="366.5,-288.7 366.5,-310.7 489.5,-310.7 489.5,-288.7 366.5,-288.7"/>
<image xlink:href="../../images/foreignKeys.png" width="11px" height="12px" preserveAspectRatio="xMinYMin meet" x="371.5" y="-305.7"/>
<text text-anchor="start" x="386.5" y="-295.8" font-family="Helvetica,sans-Serif" font-size="11.00" fill="#000000">created_by</text>
<polygon fill="none" stroke="#000000" points="489.5,-288.7 489.5,-310.7 555.5,-310.7 555.5,-288.7 489.5,-288.7"/>
<text text-anchor="start" x="492.5" y="-296.4" font-family="Helvetica,sans-Serif" font-size="11.00" fill="#000000">bigint[19]</text>
<polygon fill="none" stroke="#000000" points="366.5,-266.7 366.5,-288.7 489.5,-288.7 489.5,-266.7 366.5,-266.7"/>
<text text-anchor="start" x="386.5" y="-273.8" font-family="Helvetica,sans-Serif" font-size="11.00" fill="#000000">creation_date</text>
<polygon fill="none" stroke="#000000" points="489.5,-266.7 489.5,-288.7 555.5,-288.7 555.5,-266.7 489.5,-266.7"/>
<text text-anchor="start" x="492.2401" y="-274.4" font-family="Helvetica,sans-Serif" font-size="11.00" fill="#000000">datetime[26]</text>
<polygon fill="#ffffff" stroke="transparent" points="366.5,-244.7 366.5,-266.7 489.5,-266.7 489.5,-244.7 366.5,-244.7"/>
<polygon fill="none" stroke="#000000" points="366.5,-244.7 366.5,-266.7 489.5,-266.7 489.5,-244.7 366.5,-244.7"/>
<image xlink:href="../../images/foreignKeys.png" width="11px" height="12px" preserveAspectRatio="xMinYMin meet" x="371.5" y="-261.7"/>
<text text-anchor="start" x="386.5" y="-251.8" font-family="Helvetica,sans-Serif" font-size="11.00" fill="#000000">modified_by</text>
<polygon fill="none" stroke="#000000" points="489.5,-244.7 489.5,-266.7 555.5,-266.7 555.5,-244.7 489.5,-244.7"/>
<text text-anchor="start" x="492.5" y="-252.4" font-family="Helvetica,sans-Serif" font-size="11.00" fill="#000000">bigint[19]</text>
<polygon fill="none" stroke="#000000" points="366.5,-222.7 366.5,-244.7 489.5,-244.7 489.5,-222.7 366.5,-222.7"/>
<text text-anchor="start" x="386.5" y="-229.8" font-family="Helvetica,sans-Serif" font-size="11.00" fill="#000000">modification_date</text>
<polygon fill="none" stroke="#000000" points="489.5,-222.7 489.5,-244.7 555.5,-244.7 555.5,-222.7 489.5,-222.7"/>
<text text-anchor="start" x="492.2401" y="-230.4" font-family="Helvetica,sans-Serif" font-size="11.00" fill="#000000">datetime[26]</text>
<polygon fill="none" stroke="#000000" points="366.5,-200.7 366.5,-222.7 489.5,-222.7 489.5,-200.7 366.5,-200.7"/>
<text text-anchor="start" x="386.5" y="-207.8" font-family="Helvetica,sans-Serif" font-size="11.00" fill="#000000">level</text>
<polygon fill="none" stroke="#000000" points="489.5,-200.7 489.5,-222.7 555.5,-222.7 555.5,-200.7 489.5,-200.7"/>
<text text-anchor="start" x="492.5" y="-208.4" font-family="Helvetica,sans-Serif" font-size="11.00" fill="#000000">varchar[15]</text>
<polygon fill="none" stroke="#000000" points="366.5,-178.7 366.5,-200.7 489.5,-200.7 489.5,-178.7 366.5,-178.7"/>
<text text-anchor="start" x="386.5" y="-185.8" font-family="Helvetica,sans-Serif" font-size="11.00" fill="#000000">language</text>
<polygon fill="none" stroke="#000000" points="489.5,-178.7 489.5,-200.7 555.5,-200.7 555.5,-178.7 489.5,-178.7"/>
<text text-anchor="start" x="492.5" y="-186.4" font-family="Helvetica,sans-Serif" font-size="11.00" fill="#000000">varchar[2]</text>
<polygon fill="#ffffff" stroke="transparent" points="366.5,-156.7 366.5,-178.7 489.5,-178.7 489.5,-156.7 366.5,-156.7"/>
<polygon fill="none" stroke="#000000" points="366.5,-156.7 366.5,-178.7 489.5,-178.7 489.5,-156.7 366.5,-156.7"/>
<image xlink:href="../../images/foreignKeys.png" width="11px" height="12px" preserveAspectRatio="xMinYMin meet" x="371.5" y="-173.7"/>
<text text-anchor="start" x="386.5" y="-163.8" font-family="Helvetica,sans-Serif" font-size="11.00" fill="#000000">job_ad_id</text>
<polygon fill="none" stroke="#000000" points="489.5,-156.7 489.5,-178.7 555.5,-178.7 555.5,-156.7 489.5,-156.7"/>
<text text-anchor="start" x="492.5" y="-164.4" font-family="Helvetica,sans-Serif" font-size="11.00" fill="#000000">bigint[19]</text>
<polygon fill="#ffffff" stroke="transparent" points="366.5,-137.7 366.5,-156.7 419.5,-156.7 419.5,-137.7 366.5,-137.7"/>
<polygon fill="none" stroke="#000000" points="366.5,-137.7 366.5,-156.7 419.5,-156.7 419.5,-137.7 366.5,-137.7"/>
<text text-anchor="start" x="369.5" y="-143.8" font-family="Helvetica,sans-Serif" font-size="11.00" fill="#000000">&lt; 3</text>
<polygon fill="#ffffff" stroke="transparent" points="419.5,-137.7 419.5,-156.7 489.5,-156.7 489.5,-137.7 419.5,-137.7"/>
<polygon fill="none" stroke="#000000" points="419.5,-137.7 419.5,-156.7 489.5,-156.7 489.5,-137.7 419.5,-137.7"/>
<text text-anchor="start" x="454.1105" y="-143.8" font-family="Helvetica,sans-Serif" font-size="11.00" fill="#000000">2 rows</text>
<polygon fill="#ffffff" stroke="transparent" points="489.5,-137.7 489.5,-156.7 555.5,-156.7 555.5,-137.7 489.5,-137.7"/>
<polygon fill="none" stroke="#000000" points="489.5,-137.7 489.5,-156.7 555.5,-156.7 555.5,-137.7 489.5,-137.7"/>
<text text-anchor="start" x="536.9053" y="-143.8" font-family="Helvetica,sans-Serif" font-size="11.00" fill="#000000">0 &gt;</text>
<polygon fill="none" stroke="#000000" stroke-width="2" points="365,-136.7 365,-356.7 556,-356.7 556,-136.7 365,-136.7"/>
</a>
</g>
</g>
<!-- job_ad_language&#45;&gt;job_ad -->
<g id="edge4" class="edge">
<title>job_ad_language:w&#45;&gt;job_ad:e</title>
<path fill="none" stroke="#000000" d="M352.2154,-171.4912C339.2998,-179.352 335.3169,-196.7 315,-196.7"/>
<polygon fill="#000000" stroke="#000000" points="358.7677,-169.7523 367.4235,-171.1795 362.6339,-168.7261 366.5,-167.7 366.5,-167.7 366.5,-167.7 362.6339,-168.7261 365.5765,-164.2205 358.7677,-169.7523 358.7677,-169.7523"/>
<ellipse fill="none" stroke="#000000" cx="355.6748" cy="-170.5732" rx="3.2" ry="3.2"/>
</g>
<!-- job_ad_language&#45;&gt;principal -->
<g id="edge3" class="edge">
<title>job_ad_language:w&#45;&gt;principal:e</title>
<path fill="none" stroke="#000000" d="M351.826,-299.8125C261.4041,-301.178 224.4976,-313.6916 141,-265.7 115.7851,-251.2073 129.0831,-214.7 100,-214.7"/>
<polygon fill="#000000" stroke="#000000" points="358.5002,-299.7614 366.5276,-303.2999 362.5001,-299.7307 366.5,-299.7 366.5,-299.7 366.5,-299.7 362.5001,-299.7307 366.4724,-296.1001 358.5002,-299.7614 358.5002,-299.7614"/>
<ellipse fill="none" stroke="#000000" cx="355.3003" cy="-299.786" rx="3.2" ry="3.2"/>
</g>
<!-- job_ad_language&#45;&gt;principal -->
<g id="edge5" class="edge">
<title>job_ad_language:w&#45;&gt;principal:e</title>
<path fill="none" stroke="#000000" d="M352.005,-255.8241C262.9506,-257.3495 231.5048,-271.9113 141,-241.7 120.3041,-234.7915 121.8186,-214.7 100,-214.7"/>
<polygon fill="#000000" stroke="#000000" points="358.5003,-255.7685 366.5308,-259.2999 362.5001,-255.7343 366.5,-255.7 366.5,-255.7 366.5,-255.7 362.5001,-255.7343 366.4692,-252.1001 358.5003,-255.7685 358.5003,-255.7685"/>
<ellipse fill="none" stroke="#000000" cx="355.3004" cy="-255.796" rx="3.2" ry="3.2"/>
</g>
</g>
</svg>
