<?xml version="1.0" encoding="UTF-8" standalone="no"?>
<!DOCTYPE svg PUBLIC "-//W3C//DTD SVG 1.1//EN"
 "http://www.w3.org/Graphics/SVG/1.1/DTD/svg11.dtd">
<!-- Generated by graphviz version 2.40.1 (20161225.0304)
 -->
<!-- Title: twoDegreesRelationshipsDiagram Pages: 1 -->
<svg width="1661pt" height="1110pt"
 viewBox="0.00 0.00 1661.00 1110.04" xmlns="http://www.w3.org/2000/svg" xmlns:xlink="http://www.w3.org/1999/xlink">
<g id="graph0" class="graph" transform="scale(1 1) rotate(0) translate(4 1106.0367)">
<title>twoDegreesRelationshipsDiagram</title>
<polygon fill="#ffffff" stroke="transparent" points="-4,4 -4,-1106.0367 1657,-1106.0367 1657,4 -4,4"/>
<text text-anchor="middle" x="72.4936" y="-7.3" font-family="Helvetica,sans-Serif" font-size="11.00" fill="#000000">Generated by SchemaSpy</text>
<!-- applicant -->
<g id="node1" class="node">
<title>applicant</title>
<g id="a_node1"><a xlink:href="../../tables/applicant.html" xlink:title="applicant" target="_top">
<polygon fill="#ffffff" stroke="transparent" points="807.5,-317.0367 807.5,-378.0367 894.5,-378.0367 894.5,-317.0367 807.5,-317.0367"/>
<polygon fill="#f5f5f5" stroke="transparent" points="808,-354.5367 808,-377.5367 895,-377.5367 895,-354.5367 808,-354.5367"/>
<polygon fill="none" stroke="#000000" points="808,-354.5367 808,-377.5367 895,-377.5367 895,-354.5367 808,-354.5367"/>
<text text-anchor="start" x="812.9934" y="-363.6367" font-family="Helvetica,sans-Serif" font-weight="bold" font-size="11.00" fill="#000000">applicant</text>
<text text-anchor="start" x="860.5219" y="-362.6367" font-family="Helvetica,sans-Serif" font-size="11.00" fill="#000000">[table]</text>
<polygon fill="none" stroke="#000000" points="808,-335.5367 808,-354.5367 895,-354.5367 895,-335.5367 808,-335.5367"/>
<text text-anchor="start" x="811" y="-341.6367" font-family="Helvetica,sans-Serif" font-size="11.00" fill="#000000">...</text>
<polygon fill="#ffffff" stroke="transparent" points="808,-316.5367 808,-335.5367 829,-335.5367 829,-316.5367 808,-316.5367"/>
<polygon fill="none" stroke="#000000" points="808,-316.5367 808,-335.5367 829,-335.5367 829,-316.5367 808,-316.5367"/>
<text text-anchor="start" x="810.7026" y="-322.6367" font-family="Helvetica,sans-Serif" font-size="11.00" fill="#000000">&lt; 4</text>
<polygon fill="#ffffff" stroke="transparent" points="829,-316.5367 829,-335.5367 873,-335.5367 873,-316.5367 829,-316.5367"/>
<polygon fill="none" stroke="#000000" points="829,-316.5367 829,-335.5367 873,-335.5367 873,-316.5367 829,-316.5367"/>
<text text-anchor="start" x="831.7478" y="-322.6367" font-family="Helvetica,sans-Serif" font-size="11.00" fill="#000000">90 rows</text>
<polygon fill="#ffffff" stroke="transparent" points="873,-316.5367 873,-335.5367 895,-335.5367 895,-316.5367 873,-316.5367"/>
<polygon fill="none" stroke="#000000" points="873,-316.5367 873,-335.5367 895,-335.5367 895,-316.5367 873,-316.5367"/>
<text text-anchor="start" x="876.4053" y="-322.6367" font-family="Helvetica,sans-Serif" font-size="11.00" fill="#000000">5 &gt;</text>
</a>
</g>
</g>
<!-- location -->
<g id="node2" class="node">
<title>location</title>
<g id="a_node2"><a xlink:href="../../tables/location.html" xlink:title="location" target="_top">
<polygon fill="#ffffff" stroke="transparent" points="635.5,-795.0367 635.5,-856.0367 718.5,-856.0367 718.5,-795.0367 635.5,-795.0367"/>
<polygon fill="#f5f5f5" stroke="transparent" points="636,-832.5367 636,-855.5367 719,-855.5367 719,-832.5367 636,-832.5367"/>
<polygon fill="none" stroke="#000000" points="636,-832.5367 636,-855.5367 719,-855.5367 719,-832.5367 636,-832.5367"/>
<text text-anchor="start" x="641" y="-841.6367" font-family="Helvetica,sans-Serif" font-weight="bold" font-size="11.00" fill="#000000">location</text>
<text text-anchor="start" x="684.0437" y="-840.6367" font-family="Helvetica,sans-Serif" font-size="11.00" fill="#000000">[table]</text>
<polygon fill="none" stroke="#000000" points="636,-813.5367 636,-832.5367 719,-832.5367 719,-813.5367 636,-813.5367"/>
<text text-anchor="start" x="639" y="-819.6367" font-family="Helvetica,sans-Serif" font-size="11.00" fill="#000000">...</text>
<polygon fill="#ffffff" stroke="transparent" points="636,-794.5367 636,-813.5367 648,-813.5367 648,-794.5367 636,-794.5367"/>
<polygon fill="none" stroke="#000000" points="636,-794.5367 636,-813.5367 648,-813.5367 648,-794.5367 636,-794.5367"/>
<text text-anchor="start" x="638.9431" y="-800.6367" font-family="Helvetica,sans-Serif" font-size="11.00" fill="#000000"> &#160;</text>
<polygon fill="#ffffff" stroke="transparent" points="648,-794.5367 648,-813.5367 698,-813.5367 698,-794.5367 648,-794.5367"/>
<polygon fill="none" stroke="#000000" points="648,-794.5367 648,-813.5367 698,-813.5367 698,-794.5367 648,-794.5367"/>
<text text-anchor="start" x="650.6904" y="-800.6367" font-family="Helvetica,sans-Serif" font-size="11.00" fill="#000000">541 rows</text>
<polygon fill="#ffffff" stroke="transparent" points="698,-794.5367 698,-813.5367 719,-813.5367 719,-794.5367 698,-794.5367"/>
<polygon fill="none" stroke="#000000" points="698,-794.5367 698,-813.5367 719,-813.5367 719,-794.5367 698,-794.5367"/>
<text text-anchor="start" x="700.7026" y="-800.6367" font-family="Helvetica,sans-Serif" font-size="11.00" fill="#000000">4 &gt;</text>
</a>
</g>
</g>
<!-- applicant&#45;&gt;location -->
<g id="edge1" class="edge">
<title>applicant:w&#45;&gt;location:e</title>
<path fill="none" stroke="#000000" d="M793.7998,-347.8443C711.8033,-390.0768 821.772,-822.5367 719,-822.5367"/>
<polygon fill="#000000" stroke="#000000" points="800.2086,-346.3516 808.8167,-348.0429 804.1043,-345.4442 808,-344.5367 808,-344.5367 808,-344.5367 804.1043,-345.4442 807.1833,-341.0306 800.2086,-346.3516 800.2086,-346.3516"/>
<ellipse fill="none" stroke="#000000" cx="797.092" cy="-347.0776" rx="3.2" ry="3.2"/>
</g>
<!-- file -->
<g id="node3" class="node">
<title>file</title>
<g id="a_node3"><a xlink:href="../../tables/file.html" xlink:title="file" target="_top">
<polygon fill="#ffffff" stroke="transparent" points="435,-241.0367 435,-368.0367 558,-368.0367 558,-241.0367 435,-241.0367"/>
<polygon fill="#f5f5f5" stroke="transparent" points="435.5,-344.5367 435.5,-367.5367 558.5,-367.5367 558.5,-344.5367 435.5,-344.5367"/>
<polygon fill="none" stroke="#000000" points="435.5,-344.5367 435.5,-367.5367 558.5,-367.5367 558.5,-344.5367 435.5,-344.5367"/>
<text text-anchor="start" x="440.5" y="-353.6367" font-family="Helvetica,sans-Serif" font-weight="bold" font-size="11.00" fill="#000000">file</text>
<text text-anchor="start" x="523.5437" y="-352.6367" font-family="Helvetica,sans-Serif" font-size="11.00" fill="#000000">[table]</text>
<polygon fill="none" stroke="#000000" points="435.5,-322.5367 435.5,-344.5367 558.5,-344.5367 558.5,-322.5367 435.5,-322.5367"/>
<image xlink:href="../../images/primaryKeys.png" width="11px" height="12px" preserveAspectRatio="xMinYMin meet" x="440.5" y="-339.537"/>
<text text-anchor="start" x="455.5" y="-329.6367" font-family="Helvetica,sans-Serif" font-size="11.00" fill="#000000">id</text>
<polygon fill="#ffffff" stroke="transparent" points="435.5,-300.5367 435.5,-322.5367 558.5,-322.5367 558.5,-300.5367 435.5,-300.5367"/>
<polygon fill="none" stroke="#000000" points="435.5,-300.5367 435.5,-322.5367 558.5,-322.5367 558.5,-300.5367 435.5,-300.5367"/>
<image xlink:href="../../images/foreignKeys.png" width="11px" height="12px" preserveAspectRatio="xMinYMin meet" x="440.5" y="-317.537"/>
<text text-anchor="start" x="455.5" y="-307.6367" font-family="Helvetica,sans-Serif" font-size="11.00" fill="#000000">created_by</text>
<polygon fill="#ffffff" stroke="transparent" points="435.5,-278.5367 435.5,-300.5367 558.5,-300.5367 558.5,-278.5367 435.5,-278.5367"/>
<polygon fill="none" stroke="#000000" points="435.5,-278.5367 435.5,-300.5367 558.5,-300.5367 558.5,-278.5367 435.5,-278.5367"/>
<image xlink:href="../../images/foreignKeys.png" width="11px" height="12px" preserveAspectRatio="xMinYMin meet" x="440.5" y="-295.537"/>
<text text-anchor="start" x="455.5" y="-285.6367" font-family="Helvetica,sans-Serif" font-size="11.00" fill="#000000">modified_by</text>
<polygon fill="none" stroke="#000000" points="435.5,-259.5367 435.5,-278.5367 558.5,-278.5367 558.5,-259.5367 435.5,-259.5367"/>
<text text-anchor="start" x="438.5" y="-265.6367" font-family="Helvetica,sans-Serif" font-size="11.00" fill="#000000">...</text>
<polygon fill="#ffffff" stroke="transparent" points="435.5,-240.5367 435.5,-259.5367 468.5,-259.5367 468.5,-240.5367 435.5,-240.5367"/>
<polygon fill="none" stroke="#000000" points="435.5,-240.5367 435.5,-259.5367 468.5,-259.5367 468.5,-240.5367 435.5,-240.5367"/>
<text text-anchor="start" x="438.5" y="-246.6367" font-family="Helvetica,sans-Serif" font-size="11.00" fill="#000000">&lt; 2</text>
<polygon fill="#ffffff" stroke="transparent" points="468.5,-240.5367 468.5,-259.5367 524.5,-259.5367 524.5,-240.5367 468.5,-240.5367"/>
<polygon fill="none" stroke="#000000" points="468.5,-240.5367 468.5,-259.5367 524.5,-259.5367 524.5,-240.5367 468.5,-240.5367"/>
<text text-anchor="start" x="476.8807" y="-246.6367" font-family="Helvetica,sans-Serif" font-size="11.00" fill="#000000">590 rows</text>
<polygon fill="#ffffff" stroke="transparent" points="524.5,-240.5367 524.5,-259.5367 558.5,-259.5367 558.5,-240.5367 524.5,-240.5367"/>
<polygon fill="none" stroke="#000000" points="524.5,-240.5367 524.5,-259.5367 558.5,-259.5367 558.5,-240.5367 524.5,-240.5367"/>
<text text-anchor="start" x="533.7904" y="-246.6367" font-family="Helvetica,sans-Serif" font-size="11.00" fill="#000000">13 &gt;</text>
</a>
</g>
</g>
<!-- applicant&#45;&gt;file -->
<g id="edge2" class="edge">
<title>applicant:w&#45;&gt;file:e</title>
<path fill="none" stroke="#000000" d="M793.7974,-347.5189C779.6034,-354.4513 776.0519,-371.5185 755,-377.5367 688.3372,-396.5941 662.4928,-405.3895 599,-377.5367 574.6604,-366.8595 585.0786,-333.5367 558.5,-333.5367"/>
<polygon fill="#000000" stroke="#000000" points="800.1707,-346.1807 808.7398,-348.0599 804.0854,-345.3587 808,-344.5367 808,-344.5367 808,-344.5367 804.0854,-345.3587 807.2602,-341.0135 800.1707,-346.1807 800.1707,-346.1807"/>
<ellipse fill="none" stroke="#000000" cx="797.039" cy="-346.8383" rx="3.2" ry="3.2"/>
</g>
<!-- supplier -->
<g id="node4" class="node">
<title>supplier</title>
<g id="a_node4"><a xlink:href="../../tables/supplier.html" xlink:title="supplier" target="_top">
<polygon fill="#ffffff" stroke="transparent" points="631,-416.0367 631,-477.0367 723,-477.0367 723,-416.0367 631,-416.0367"/>
<polygon fill="#f5f5f5" stroke="transparent" points="631,-453.5367 631,-476.5367 723,-476.5367 723,-453.5367 631,-453.5367"/>
<polygon fill="none" stroke="#000000" points="631,-453.5367 631,-476.5367 723,-476.5367 723,-453.5367 631,-453.5367"/>
<text text-anchor="start" x="636" y="-462.6367" font-family="Helvetica,sans-Serif" font-weight="bold" font-size="11.00" fill="#000000">supplier</text>
<text text-anchor="start" x="688.0437" y="-461.6367" font-family="Helvetica,sans-Serif" font-size="11.00" fill="#000000">[table]</text>
<polygon fill="none" stroke="#000000" points="631,-434.5367 631,-453.5367 723,-453.5367 723,-434.5367 631,-434.5367"/>
<text text-anchor="start" x="634" y="-440.6367" font-family="Helvetica,sans-Serif" font-size="11.00" fill="#000000">...</text>
<polygon fill="#ffffff" stroke="transparent" points="631,-415.5367 631,-434.5367 652,-434.5367 652,-415.5367 631,-415.5367"/>
<polygon fill="none" stroke="#000000" points="631,-415.5367 631,-434.5367 652,-434.5367 652,-415.5367 631,-415.5367"/>
<text text-anchor="start" x="633.7026" y="-421.6367" font-family="Helvetica,sans-Serif" font-size="11.00" fill="#000000">&lt; 3</text>
<polygon fill="#ffffff" stroke="transparent" points="652,-415.5367 652,-434.5367 702,-434.5367 702,-415.5367 652,-415.5367"/>
<polygon fill="none" stroke="#000000" points="652,-415.5367 652,-434.5367 702,-434.5367 702,-415.5367 652,-415.5367"/>
<text text-anchor="start" x="654.6904" y="-421.6367" font-family="Helvetica,sans-Serif" font-size="11.00" fill="#000000">201 rows</text>
<polygon fill="#ffffff" stroke="transparent" points="702,-415.5367 702,-434.5367 723,-434.5367 723,-415.5367 702,-415.5367"/>
<polygon fill="none" stroke="#000000" points="702,-415.5367 702,-434.5367 723,-434.5367 723,-415.5367 702,-415.5367"/>
<text text-anchor="start" x="704.7026" y="-421.6367" font-family="Helvetica,sans-Serif" font-size="11.00" fill="#000000">4 &gt;</text>
</a>
</g>
</g>
<!-- applicant&#45;&gt;supplier -->
<g id="edge3" class="edge">
<title>applicant:w&#45;&gt;supplier:e</title>
<path fill="none" stroke="#000000" d="M793.3899,-347.1847C755.2105,-362.9285 775.3294,-443.5367 723,-443.5367"/>
<polygon fill="#000000" stroke="#000000" points="800.1282,-345.9635 808.642,-348.079 804.0641,-345.2501 808,-344.5367 808,-344.5367 808,-344.5367 804.0641,-345.2501 807.358,-340.9944 800.1282,-345.9635 800.1282,-345.9635"/>
<ellipse fill="none" stroke="#000000" cx="796.9795" cy="-346.5342" rx="3.2" ry="3.2"/>
</g>
<!-- principal -->
<g id="node8" class="node">
<title>principal</title>
<g id="a_node8"><a xlink:href="../../tables/principal.html" xlink:title="principal" target="_top">
<polygon fill="#ffffff" stroke="transparent" points="294,-585.0367 294,-646.0367 386,-646.0367 386,-585.0367 294,-585.0367"/>
<polygon fill="#f5f5f5" stroke="transparent" points="294,-622.5367 294,-645.5367 386,-645.5367 386,-622.5367 294,-622.5367"/>
<polygon fill="none" stroke="#000000" points="294,-622.5367 294,-645.5367 386,-645.5367 386,-622.5367 294,-622.5367"/>
<text text-anchor="start" x="299" y="-631.6367" font-family="Helvetica,sans-Serif" font-weight="bold" font-size="11.00" fill="#000000">principal</text>
<text text-anchor="start" x="351.0437" y="-630.6367" font-family="Helvetica,sans-Serif" font-size="11.00" fill="#000000">[table]</text>
<polygon fill="none" stroke="#000000" points="294,-603.5367 294,-622.5367 386,-622.5367 386,-603.5367 294,-603.5367"/>
<text text-anchor="start" x="297" y="-609.6367" font-family="Helvetica,sans-Serif" font-size="11.00" fill="#000000">...</text>
<polygon fill="#ffffff" stroke="transparent" points="294,-584.5367 294,-603.5367 315,-603.5367 315,-584.5367 294,-584.5367"/>
<polygon fill="none" stroke="#000000" points="294,-584.5367 294,-603.5367 315,-603.5367 315,-584.5367 294,-584.5367"/>
<text text-anchor="start" x="296.7027" y="-590.6367" font-family="Helvetica,sans-Serif" font-size="11.00" fill="#000000">&lt; 1</text>
<polygon fill="#ffffff" stroke="transparent" points="315,-584.5367 315,-603.5367 359,-603.5367 359,-584.5367 315,-584.5367"/>
<polygon fill="none" stroke="#000000" points="315,-584.5367 315,-603.5367 359,-603.5367 359,-584.5367 315,-584.5367"/>
<text text-anchor="start" x="317.7478" y="-590.6367" font-family="Helvetica,sans-Serif" font-size="11.00" fill="#000000">18 rows</text>
<polygon fill="#ffffff" stroke="transparent" points="359,-584.5367 359,-603.5367 386,-603.5367 386,-584.5367 359,-584.5367"/>
<polygon fill="none" stroke="#000000" points="359,-584.5367 359,-603.5367 386,-603.5367 386,-584.5367 359,-584.5367"/>
<text text-anchor="start" x="361.6452" y="-590.6367" font-family="Helvetica,sans-Serif" font-size="11.00" fill="#000000">56 &gt;</text>
</a>
</g>
</g>
<!-- file&#45;&gt;principal -->
<g id="edge20" class="edge">
<title>file:w&#45;&gt;principal:e</title>
<path fill="none" stroke="#000000" d="M422.0171,-317.0181C380.5114,-357.8136 448.3591,-612.5367 386,-612.5367"/>
<polygon fill="#000000" stroke="#000000" points="428.089,-314.5496 436.8558,-314.8717 431.7945,-313.0432 435.5,-311.5367 435.5,-311.5367 435.5,-311.5367 431.7945,-313.0432 434.1442,-308.2018 428.089,-314.5496 428.089,-314.5496"/>
<ellipse fill="none" stroke="#000000" cx="425.1246" cy="-315.7548" rx="3.2" ry="3.2"/>
</g>
<!-- file&#45;&gt;principal -->
<g id="edge21" class="edge">
<title>file:w&#45;&gt;principal:e</title>
<path fill="none" stroke="#000000" d="M421.976,-294.6103C376.1671,-335.7028 453.2263,-612.5367 386,-612.5367"/>
<polygon fill="#000000" stroke="#000000" points="428.0097,-292.3467 436.7645,-292.9073 431.7549,-290.9417 435.5,-289.5367 435.5,-289.5367 435.5,-289.5367 431.7549,-290.9417 434.2355,-286.1661 428.0097,-292.3467 428.0097,-292.3467"/>
<ellipse fill="none" stroke="#000000" cx="425.0136" cy="-293.4707" rx="3.2" ry="3.2"/>
</g>
<!-- supplier&#45;&gt;file -->
<g id="edge62" class="edge">
<title>supplier:w&#45;&gt;file:e</title>
<path fill="none" stroke="#000000" d="M616.6052,-440.5945C580.1756,-423.1014 611.3345,-333.5367 558.5,-333.5367"/>
<polygon fill="#000000" stroke="#000000" points="623.162,-441.9346 630.2791,-447.0638 627.081,-442.7357 631,-443.5367 631,-443.5367 631,-443.5367 627.081,-442.7357 631.7209,-440.0096 623.162,-441.9346 623.162,-441.9346"/>
<ellipse fill="none" stroke="#000000" cx="620.0269" cy="-441.2938" rx="3.2" ry="3.2"/>
</g>
<!-- supplier&#45;&gt;principal -->
<g id="edge61" class="edge">
<title>supplier:w&#45;&gt;principal:e</title>
<path fill="none" stroke="#000000" d="M616.4658,-443.6137C530.4698,-444.5953 493.6529,-455.7038 427,-518.5367 393.8345,-549.8014 431.5789,-612.5367 386,-612.5367"/>
<polygon fill="#000000" stroke="#000000" points="623.0001,-443.5791 631.0191,-447.1367 627.0001,-443.5579 631,-443.5367 631,-443.5367 631,-443.5367 627.0001,-443.5579 630.9809,-439.9368 623.0001,-443.5791 623.0001,-443.5791"/>
<ellipse fill="none" stroke="#000000" cx="619.8002" cy="-443.5961" rx="3.2" ry="3.2"/>
</g>
<!-- supplier&#45;&gt;principal -->
<g id="edge63" class="edge">
<title>supplier:w&#45;&gt;principal:e</title>
<path fill="none" stroke="#000000" d="M616.3814,-443.6412C529.9469,-444.9529 494.0547,-459.2622 427,-522.5367 395.031,-552.7035 429.9551,-612.5367 386,-612.5367"/>
<polygon fill="#000000" stroke="#000000" points="623.0002,-443.5939 631.0258,-447.1366 627.0001,-443.5653 631,-443.5367 631,-443.5367 631,-443.5367 627.0001,-443.5653 630.9742,-439.9368 623.0002,-443.5939 623.0002,-443.5939"/>
<ellipse fill="none" stroke="#000000" cx="619.8003" cy="-443.6168" rx="3.2" ry="3.2"/>
</g>
<!-- applicant_document -->
<g id="node5" class="node">
<title>applicant_document</title>
<g id="a_node5"><a xlink:href="../../tables/applicant_document.html" xlink:title="applicant_document" target="_top">
<polygon fill="#ffffff" stroke="transparent" points="967.5,-228.0367 967.5,-289.0367 1108.5,-289.0367 1108.5,-228.0367 967.5,-228.0367"/>
<polygon fill="#f5f5f5" stroke="transparent" points="968,-265.5367 968,-288.5367 1109,-288.5367 1109,-265.5367 968,-265.5367"/>
<polygon fill="none" stroke="#000000" points="968,-265.5367 968,-288.5367 1109,-288.5367 1109,-265.5367 968,-265.5367"/>
<text text-anchor="start" x="972.7893" y="-274.6367" font-family="Helvetica,sans-Serif" font-weight="bold" font-size="11.00" fill="#000000">applicant_document</text>
<text text-anchor="start" x="1074.5219" y="-273.6367" font-family="Helvetica,sans-Serif" font-size="11.00" fill="#000000">[table]</text>
<polygon fill="none" stroke="#000000" points="968,-246.5367 968,-265.5367 1109,-265.5367 1109,-246.5367 968,-246.5367"/>
<text text-anchor="start" x="971" y="-252.6367" font-family="Helvetica,sans-Serif" font-size="11.00" fill="#000000">...</text>
<polygon fill="#ffffff" stroke="transparent" points="968,-227.5367 968,-246.5367 1021,-246.5367 1021,-227.5367 968,-227.5367"/>
<polygon fill="none" stroke="#000000" points="968,-227.5367 968,-246.5367 1021,-246.5367 1021,-227.5367 968,-227.5367"/>
<text text-anchor="start" x="971" y="-233.6367" font-family="Helvetica,sans-Serif" font-size="11.00" fill="#000000">&lt; 2</text>
<polygon fill="#ffffff" stroke="transparent" points="1021,-227.5367 1021,-246.5367 1081,-246.5367 1081,-227.5367 1021,-227.5367"/>
<polygon fill="none" stroke="#000000" points="1021,-227.5367 1021,-246.5367 1081,-246.5367 1081,-227.5367 1021,-227.5367"/>
<text text-anchor="start" x="1039.4956" y="-233.6367" font-family="Helvetica,sans-Serif" font-size="11.00" fill="#000000">91 rows</text>
<polygon fill="#ffffff" stroke="transparent" points="1081,-227.5367 1081,-246.5367 1109,-246.5367 1109,-227.5367 1081,-227.5367"/>
<polygon fill="none" stroke="#000000" points="1081,-227.5367 1081,-246.5367 1109,-246.5367 1109,-227.5367 1081,-227.5367"/>
<text text-anchor="start" x="1099.8862" y="-233.6367" font-family="Helvetica,sans-Serif" font-size="11.00" fill="#000000"> &#160;</text>
</a>
</g>
</g>
<!-- applicant_document&#45;&gt;applicant -->
<g id="edge4" class="edge">
<title>applicant_document:w&#45;&gt;applicant:e</title>
<path fill="none" stroke="#000000" d="M953.891,-258.4979C922.2913,-273.9408 940.5638,-344.5367 895,-344.5367"/>
<polygon fill="#000000" stroke="#000000" points="960.1706,-257.18 968.7395,-259.06 964.0853,-256.3584 968,-255.5367 968,-255.5367 968,-255.5367 964.0853,-256.3584 967.2605,-252.0135 960.1706,-257.18 960.1706,-257.18"/>
<ellipse fill="none" stroke="#000000" cx="957.0388" cy="-257.8373" rx="3.2" ry="3.2"/>
</g>
<!-- applicant_document&#45;&gt;file -->
<g id="edge5" class="edge">
<title>applicant_document:w&#45;&gt;file:e</title>
<path fill="none" stroke="#000000" d="M953.5618,-254.7921C862.3387,-246.2536 662.4408,-167.9915 599,-213.5367 553.2745,-246.3639 614.7889,-333.5367 558.5,-333.5367"/>
<polygon fill="#000000" stroke="#000000" points="960.0106,-255.1246 967.8146,-259.1319 964.0053,-255.3307 968,-255.5367 968,-255.5367 968,-255.5367 964.0053,-255.3307 968.1854,-251.9415 960.0106,-255.1246 960.0106,-255.1246"/>
<ellipse fill="none" stroke="#000000" cx="956.8149" cy="-254.9598" rx="3.2" ry="3.2"/>
</g>
<!-- client -->
<g id="node6" class="node">
<title>client</title>
<g id="a_node6"><a xlink:href="../../tables/client.html" xlink:title="client" target="_top">
<polygon fill="#ffffff" stroke="transparent" points="631,-604.0367 631,-665.0367 723,-665.0367 723,-604.0367 631,-604.0367"/>
<polygon fill="#f5f5f5" stroke="transparent" points="631,-641.5367 631,-664.5367 723,-664.5367 723,-641.5367 631,-641.5367"/>
<polygon fill="none" stroke="#000000" points="631,-641.5367 631,-664.5367 723,-664.5367 723,-641.5367 631,-641.5367"/>
<text text-anchor="start" x="636" y="-650.6367" font-family="Helvetica,sans-Serif" font-weight="bold" font-size="11.00" fill="#000000">client</text>
<text text-anchor="start" x="688.0437" y="-649.6367" font-family="Helvetica,sans-Serif" font-size="11.00" fill="#000000">[table]</text>
<polygon fill="none" stroke="#000000" points="631,-622.5367 631,-641.5367 723,-641.5367 723,-622.5367 631,-622.5367"/>
<text text-anchor="start" x="634" y="-628.6367" font-family="Helvetica,sans-Serif" font-size="11.00" fill="#000000">...</text>
<polygon fill="#ffffff" stroke="transparent" points="631,-603.5367 631,-622.5367 652,-622.5367 652,-603.5367 631,-603.5367"/>
<polygon fill="none" stroke="#000000" points="631,-603.5367 631,-622.5367 652,-622.5367 652,-603.5367 631,-603.5367"/>
<text text-anchor="start" x="633.7026" y="-609.6367" font-family="Helvetica,sans-Serif" font-size="11.00" fill="#000000">&lt; 9</text>
<polygon fill="#ffffff" stroke="transparent" points="652,-603.5367 652,-622.5367 702,-622.5367 702,-603.5367 652,-603.5367"/>
<polygon fill="none" stroke="#000000" points="652,-603.5367 652,-622.5367 702,-622.5367 702,-603.5367 652,-603.5367"/>
<text text-anchor="start" x="654.6904" y="-609.6367" font-family="Helvetica,sans-Serif" font-size="11.00" fill="#000000">647 rows</text>
<polygon fill="#ffffff" stroke="transparent" points="702,-603.5367 702,-622.5367 723,-622.5367 723,-603.5367 702,-603.5367"/>
<polygon fill="none" stroke="#000000" points="702,-603.5367 702,-622.5367 723,-622.5367 723,-603.5367 702,-603.5367"/>
<text text-anchor="start" x="704.7026" y="-609.6367" font-family="Helvetica,sans-Serif" font-size="11.00" fill="#000000">7 &gt;</text>
</a>
</g>
</g>
<!-- client&#45;&gt;file -->
<g id="edge6" class="edge">
<title>client:w&#45;&gt;file:e</title>
<path fill="none" stroke="#000000" d="M617.3169,-626.3644C572.0107,-586.7931 621.3294,-333.5367 558.5,-333.5367"/>
<polygon fill="#000000" stroke="#000000" points="623.5168,-628.708 629.7271,-634.9042 627.2584,-630.1223 631,-631.5367 631,-631.5367 631,-631.5367 627.2584,-630.1223 632.2729,-628.1693 623.5168,-628.708 623.5168,-628.708"/>
<ellipse fill="none" stroke="#000000" cx="620.5235" cy="-627.5765" rx="3.2" ry="3.2"/>
</g>
<!-- eworker -->
<g id="node7" class="node">
<title>eworker</title>
<g id="a_node7"><a xlink:href="../../tables/eworker.html" xlink:title="eworker" target="_top">
<polygon fill="#ffffff" stroke="transparent" points="153,-657.0367 153,-718.0367 245,-718.0367 245,-657.0367 153,-657.0367"/>
<polygon fill="#f5f5f5" stroke="transparent" points="153,-694.5367 153,-717.5367 245,-717.5367 245,-694.5367 153,-694.5367"/>
<polygon fill="none" stroke="#000000" points="153,-694.5367 153,-717.5367 245,-717.5367 245,-694.5367 153,-694.5367"/>
<text text-anchor="start" x="158" y="-703.6367" font-family="Helvetica,sans-Serif" font-weight="bold" font-size="11.00" fill="#000000">eworker</text>
<text text-anchor="start" x="210.0437" y="-702.6367" font-family="Helvetica,sans-Serif" font-size="11.00" fill="#000000">[table]</text>
<polygon fill="none" stroke="#000000" points="153,-675.5367 153,-694.5367 245,-694.5367 245,-675.5367 153,-675.5367"/>
<text text-anchor="start" x="156" y="-681.6367" font-family="Helvetica,sans-Serif" font-size="11.00" fill="#000000">...</text>
<polygon fill="#ffffff" stroke="transparent" points="153,-656.5367 153,-675.5367 174,-675.5367 174,-656.5367 153,-656.5367"/>
<polygon fill="none" stroke="#000000" points="153,-656.5367 153,-675.5367 174,-675.5367 174,-656.5367 153,-656.5367"/>
<text text-anchor="start" x="155.7027" y="-662.6367" font-family="Helvetica,sans-Serif" font-size="11.00" fill="#000000">&lt; 4</text>
<polygon fill="#ffffff" stroke="transparent" points="174,-656.5367 174,-675.5367 224,-675.5367 224,-656.5367 174,-656.5367"/>
<polygon fill="none" stroke="#000000" points="174,-656.5367 174,-675.5367 224,-675.5367 224,-656.5367 174,-656.5367"/>
<text text-anchor="start" x="176.6904" y="-662.6367" font-family="Helvetica,sans-Serif" font-size="11.00" fill="#000000">347 rows</text>
<polygon fill="#ffffff" stroke="transparent" points="224,-656.5367 224,-675.5367 245,-675.5367 245,-656.5367 224,-656.5367"/>
<polygon fill="none" stroke="#000000" points="224,-656.5367 224,-675.5367 245,-675.5367 245,-656.5367 224,-656.5367"/>
<text text-anchor="start" x="226.7027" y="-662.6367" font-family="Helvetica,sans-Serif" font-size="11.00" fill="#000000">9 &gt;</text>
</a>
</g>
</g>
<!-- client&#45;&gt;eworker -->
<g id="edge7" class="edge">
<title>client:w&#45;&gt;eworker:e</title>
<path fill="none" stroke="#000000" d="M616.5764,-631.948C522.7239,-636.8811 327.1013,-684.5367 245,-684.5367"/>
<polygon fill="#000000" stroke="#000000" points="623.0032,-631.7648 631.1026,-635.1353 627.0016,-631.6507 631,-631.5367 631,-631.5367 631,-631.5367 627.0016,-631.6507 630.8974,-627.9382 623.0032,-631.7648 623.0032,-631.7648"/>
<ellipse fill="none" stroke="#000000" cx="619.8045" cy="-631.856" rx="3.2" ry="3.2"/>
</g>
<!-- client&#45;&gt;eworker -->
<g id="edge8" class="edge">
<title>client:w&#45;&gt;eworker:e</title>
<path fill="none" stroke="#000000" d="M616.6029,-631.1665C455.4809,-628.501 413.2611,-678.7066 245,-684.5367"/>
<polygon fill="#000000" stroke="#000000" points="623.0026,-631.331 630.9074,-635.1355 627.0013,-631.4339 631,-631.5367 631,-631.5367 631,-631.5367 627.0013,-631.4339 631.0926,-627.9379 623.0026,-631.331 623.0026,-631.331"/>
<ellipse fill="none" stroke="#000000" cx="619.8037" cy="-631.2487" rx="3.2" ry="3.2"/>
</g>
<!-- client&#45;&gt;eworker -->
<g id="edge11" class="edge">
<title>client:w&#45;&gt;eworker:e</title>
<path fill="none" stroke="#000000" d="M616.6029,-632.2397C455.4809,-641.4905 413.2611,-691.3385 245,-684.5367"/>
<polygon fill="#000000" stroke="#000000" points="623.0095,-631.9269 631.1756,-635.1324 627.0048,-631.7318 631,-631.5367 631,-631.5367 631,-631.5367 627.0048,-631.7318 630.8244,-627.941 623.0095,-631.9269 623.0095,-631.9269"/>
<ellipse fill="none" stroke="#000000" cx="619.8133" cy="-632.083" rx="3.2" ry="3.2"/>
</g>
<!-- client&#45;&gt;principal -->
<g id="edge9" class="edge">
<title>client:w&#45;&gt;principal:e</title>
<path fill="none" stroke="#000000" d="M616.4678,-631.4203C519.1712,-629.8326 490.203,-612.5367 386,-612.5367"/>
<polygon fill="#000000" stroke="#000000" points="623.0003,-631.4726 630.9711,-635.1366 627.0001,-631.5047 631,-631.5367 631,-631.5367 631,-631.5367 627.0001,-631.5047 631.0289,-627.9368 623.0003,-631.4726 623.0003,-631.4726"/>
<ellipse fill="none" stroke="#000000" cx="619.8004" cy="-631.4469" rx="3.2" ry="3.2"/>
</g>
<!-- client&#45;&gt;principal -->
<g id="edge10" class="edge">
<title>client:w&#45;&gt;principal:e</title>
<path fill="none" stroke="#000000" d="M616.4678,-631.4203C519.1712,-629.8326 490.203,-612.5367 386,-612.5367"/>
<polygon fill="#000000" stroke="#000000" points="623.0003,-631.4726 630.9711,-635.1366 627.0001,-631.5047 631,-631.5367 631,-631.5367 631,-631.5367 627.0001,-631.5047 631.0289,-627.9368 623.0003,-631.4726 623.0003,-631.4726"/>
<ellipse fill="none" stroke="#000000" cx="619.8004" cy="-631.4469" rx="3.2" ry="3.2"/>
</g>
<!-- eworker&#45;&gt;file -->
<g id="edge16" class="edge">
<title>eworker:w&#45;&gt;file:e</title>
<path fill="none" stroke="#000000" d="M139.2692,-679.2575C126.0415,-647.7345 365.7924,-484.3907 427,-444.5367 482.9276,-408.1207 524.5621,-429.5019 558.5,-372.0367 567.2014,-357.3032 575.6111,-333.5367 558.5,-333.5367"/>
<polygon fill="#000000" stroke="#000000" points="145.5329,-681.6658 151.7081,-687.8969 149.2664,-683.1012 153,-684.5367 153,-684.5367 153,-684.5367 149.2664,-683.1012 154.2919,-681.1765 145.5329,-681.6658 145.5329,-681.6658"/>
<ellipse fill="none" stroke="#000000" cx="142.546" cy="-680.5174" rx="3.2" ry="3.2"/>
</g>
<!-- eworker&#45;&gt;principal -->
<g id="edge17" class="edge">
<title>eworker:w&#45;&gt;principal:e</title>
<path fill="none" stroke="#000000" d="M138.66,-681.5437C99.874,-665.0226 219.3486,-591.9201 286,-575.0367 286,-575.0367 386,-606.5367 386,-612.5367"/>
<polygon fill="#000000" stroke="#000000" points="145.1688,-682.9021 152.2644,-688.0608 149.0844,-683.7194 153,-684.5367 153,-684.5367 153,-684.5367 149.0844,-683.7194 153.7356,-681.0127 145.1688,-682.9021 145.1688,-682.9021"/>
<ellipse fill="none" stroke="#000000" cx="142.0363" cy="-682.2483" rx="3.2" ry="3.2"/>
</g>
<!-- eworker&#45;&gt;principal -->
<g id="edge18" class="edge">
<title>eworker:w&#45;&gt;principal:e</title>
<path fill="none" stroke="#000000" d="M138.1735,-684.4015C100.8898,-677.4015 219.6322,-604.8483 286,-588.0367 286,-588.0367 386,-619.5367 386,-612.5367"/>
<polygon fill="#000000" stroke="#000000" points="145.0003,-684.4637 152.9671,-688.1366 149.0002,-684.5002 153,-684.5367 153,-684.5367 153,-684.5367 149.0002,-684.5002 153.0329,-680.9369 145.0003,-684.4637 145.0003,-684.4637"/>
<ellipse fill="none" stroke="#000000" cx="141.8005" cy="-684.4345" rx="3.2" ry="3.2"/>
</g>
<!-- ework_unit -->
<g id="node10" class="node">
<title>ework_unit</title>
<g id="a_node10"><a xlink:href="../../tables/ework_unit.html" xlink:title="ework_unit" target="_top">
<polygon fill="#ffffff" stroke="transparent" points="8,-789.0367 8,-850.0367 104,-850.0367 104,-789.0367 8,-789.0367"/>
<polygon fill="#f5f5f5" stroke="transparent" points="8,-826.5367 8,-849.5367 104,-849.5367 104,-826.5367 8,-826.5367"/>
<polygon fill="none" stroke="#000000" points="8,-826.5367 8,-849.5367 104,-849.5367 104,-826.5367 8,-826.5367"/>
<text text-anchor="start" x="12.9125" y="-835.6367" font-family="Helvetica,sans-Serif" font-weight="bold" font-size="11.00" fill="#000000">ework_unit</text>
<text text-anchor="start" x="69.5219" y="-834.6367" font-family="Helvetica,sans-Serif" font-size="11.00" fill="#000000">[table]</text>
<polygon fill="none" stroke="#000000" points="8,-807.5367 8,-826.5367 104,-826.5367 104,-807.5367 8,-807.5367"/>
<text text-anchor="start" x="11" y="-813.6367" font-family="Helvetica,sans-Serif" font-size="11.00" fill="#000000">...</text>
<polygon fill="#ffffff" stroke="transparent" points="8,-788.5367 8,-807.5367 34,-807.5367 34,-788.5367 8,-788.5367"/>
<polygon fill="none" stroke="#000000" points="8,-788.5367 8,-807.5367 34,-807.5367 34,-788.5367 8,-788.5367"/>
<text text-anchor="start" x="11" y="-794.6367" font-family="Helvetica,sans-Serif" font-size="11.00" fill="#000000">&lt; 1</text>
<polygon fill="#ffffff" stroke="transparent" points="34,-788.5367 34,-807.5367 80,-807.5367 80,-788.5367 34,-788.5367"/>
<polygon fill="none" stroke="#000000" points="34,-788.5367 34,-807.5367 80,-807.5367 80,-788.5367 34,-788.5367"/>
<text text-anchor="start" x="38.4956" y="-794.6367" font-family="Helvetica,sans-Serif" font-size="11.00" fill="#000000">25 rows</text>
<polygon fill="#ffffff" stroke="transparent" points="80,-788.5367 80,-807.5367 104,-807.5367 104,-788.5367 80,-788.5367"/>
<polygon fill="none" stroke="#000000" points="80,-788.5367 80,-807.5367 104,-807.5367 104,-788.5367 80,-788.5367"/>
<text text-anchor="start" x="85.4053" y="-794.6367" font-family="Helvetica,sans-Serif" font-size="11.00" fill="#000000">4 &gt;</text>
</a>
</g>
</g>
<!-- eworker&#45;&gt;ework_unit -->
<g id="edge19" class="edge">
<title>eworker:w&#45;&gt;ework_unit:e</title>
<path fill="none" stroke="#000000" d="M138.8293,-687.7997C103.4817,-708.1266 160.7116,-816.5367 104,-816.5367"/>
<polygon fill="#000000" stroke="#000000" points="145.204,-686.3319 153.8078,-688.0449 149.102,-685.4343 153,-684.5367 153,-684.5367 153,-684.5367 149.102,-685.4343 152.1922,-681.0285 145.204,-686.3319 145.204,-686.3319"/>
<ellipse fill="none" stroke="#000000" cx="142.0856" cy="-687.0499" rx="3.2" ry="3.2"/>
</g>
<!-- principal&#45;&gt;eworker -->
<g id="edge59" class="edge">
<title>principal:w&#45;&gt;eworker:e</title>
<path fill="none" stroke="#000000" d="M280.26,-617.2608C262.5334,-633.2789 277.6595,-684.5367 245,-684.5367"/>
<polygon fill="#000000" stroke="#000000" points="286.4347,-615.1379 295.1705,-615.9411 290.2173,-613.8373 294,-612.5367 294,-612.5367 294,-612.5367 290.2173,-613.8373 292.8295,-609.1323 286.4347,-615.1379 286.4347,-615.1379"/>
<ellipse fill="none" stroke="#000000" cx="283.4085" cy="-616.1783" rx="3.2" ry="3.2"/>
</g>
<!-- client_contact -->
<g id="node9" class="node">
<title>client_contact</title>
<g id="a_node9"><a xlink:href="../../tables/client_contact.html" xlink:title="client_contact" target="_top">
<polygon fill="#ffffff" stroke="transparent" points="796,-548.0367 796,-609.0367 906,-609.0367 906,-548.0367 796,-548.0367"/>
<polygon fill="#f5f5f5" stroke="transparent" points="796,-585.5367 796,-608.5367 906,-608.5367 906,-585.5367 796,-585.5367"/>
<polygon fill="none" stroke="#000000" points="796,-585.5367 796,-608.5367 906,-608.5367 906,-585.5367 796,-585.5367"/>
<text text-anchor="start" x="800.8791" y="-594.6367" font-family="Helvetica,sans-Serif" font-weight="bold" font-size="11.00" fill="#000000">client_contact</text>
<text text-anchor="start" x="871.5219" y="-593.6367" font-family="Helvetica,sans-Serif" font-size="11.00" fill="#000000">[table]</text>
<polygon fill="none" stroke="#000000" points="796,-566.5367 796,-585.5367 906,-585.5367 906,-566.5367 796,-566.5367"/>
<text text-anchor="start" x="799" y="-572.6367" font-family="Helvetica,sans-Serif" font-size="11.00" fill="#000000">...</text>
<polygon fill="#ffffff" stroke="transparent" points="796,-547.5367 796,-566.5367 826,-566.5367 826,-547.5367 796,-547.5367"/>
<polygon fill="none" stroke="#000000" points="796,-547.5367 796,-566.5367 826,-566.5367 826,-547.5367 796,-547.5367"/>
<text text-anchor="start" x="799" y="-553.6367" font-family="Helvetica,sans-Serif" font-size="11.00" fill="#000000">&lt; 4</text>
<polygon fill="#ffffff" stroke="transparent" points="826,-547.5367 826,-566.5367 880,-566.5367 880,-547.5367 826,-547.5367"/>
<polygon fill="none" stroke="#000000" points="826,-547.5367 826,-566.5367 880,-566.5367 880,-547.5367 826,-547.5367"/>
<text text-anchor="start" x="832.3807" y="-553.6367" font-family="Helvetica,sans-Serif" font-size="11.00" fill="#000000">561 rows</text>
<polygon fill="#ffffff" stroke="transparent" points="880,-547.5367 880,-566.5367 906,-566.5367 906,-547.5367 880,-547.5367"/>
<polygon fill="none" stroke="#000000" points="880,-547.5367 880,-566.5367 906,-566.5367 906,-547.5367 880,-547.5367"/>
<text text-anchor="start" x="887.4053" y="-553.6367" font-family="Helvetica,sans-Serif" font-size="11.00" fill="#000000">2 &gt;</text>
</a>
</g>
</g>
<!-- client_contact&#45;&gt;file -->
<g id="edge12" class="edge">
<title>client_contact:w&#45;&gt;file:e</title>
<path fill="none" stroke="#000000" d="M782.5471,-569.6622C738.1968,-550.0476 599.4082,-488.0175 599,-487.5367 553.1954,-433.5869 629.2718,-333.5367 558.5,-333.5367"/>
<polygon fill="#000000" stroke="#000000" points="788.6685,-572.3353 794.5593,-578.8359 792.3343,-573.936 796,-575.5367 796,-575.5367 796,-575.5367 792.3343,-573.936 797.4407,-572.2375 788.6685,-572.3353 788.6685,-572.3353"/>
<ellipse fill="none" stroke="#000000" cx="785.7359" cy="-571.0547" rx="3.2" ry="3.2"/>
</g>
<!-- client_contact&#45;&gt;client -->
<g id="edge13" class="edge">
<title>client_contact:w&#45;&gt;client:e</title>
<path fill="none" stroke="#000000" d="M781.7598,-578.3908C756.5817,-589.8025 758.3007,-631.5367 723,-631.5367"/>
<polygon fill="#000000" stroke="#000000" points="788.156,-577.1089 796.7075,-579.0665 792.078,-576.3228 796,-575.5367 796,-575.5367 796,-575.5367 792.078,-576.3228 795.2925,-572.0069 788.156,-577.1089 788.156,-577.1089"/>
<ellipse fill="none" stroke="#000000" cx="785.0184" cy="-577.7377" rx="3.2" ry="3.2"/>
</g>
<!-- client_contact&#45;&gt;principal -->
<g id="edge14" class="edge">
<title>client_contact:w&#45;&gt;principal:e</title>
<path fill="none" stroke="#000000" d="M781.5309,-576.1179C704.4818,-580.8251 428.3459,-612.5367 386,-612.5367"/>
<polygon fill="#000000" stroke="#000000" points="788.0064,-575.8578 796.1445,-579.1338 792.0032,-575.6973 796,-575.5367 796,-575.5367 796,-575.5367 792.0032,-575.6973 795.8555,-571.9396 788.0064,-575.8578 788.0064,-575.8578"/>
<ellipse fill="none" stroke="#000000" cx="784.809" cy="-575.9863" rx="3.2" ry="3.2"/>
</g>
<!-- client_contact&#45;&gt;principal -->
<g id="edge15" class="edge">
<title>client_contact:w&#45;&gt;principal:e</title>
<path fill="none" stroke="#000000" d="M781.5545,-575.6153C610.5698,-577.4973 564.0492,-612.5367 386,-612.5367"/>
<polygon fill="#000000" stroke="#000000" points="788.0001,-575.5803 796.0196,-579.1367 792.0001,-575.5585 796,-575.5367 796,-575.5367 796,-575.5367 792.0001,-575.5585 795.9804,-571.9368 788.0001,-575.5803 788.0001,-575.5803"/>
<ellipse fill="none" stroke="#000000" cx="784.8002" cy="-575.5978" rx="3.2" ry="3.2"/>
</g>
<!-- file_preview -->
<g id="node11" class="node">
<title>file_preview</title>
<g id="a_node11"><a xlink:href="../../tables/file_preview.html" xlink:title="file_preview" target="_top">
<polygon fill="#ffffff" stroke="transparent" points="626.5,-306.0367 626.5,-367.0367 727.5,-367.0367 727.5,-306.0367 626.5,-306.0367"/>
<polygon fill="#f5f5f5" stroke="transparent" points="627,-343.5367 627,-366.5367 728,-366.5367 728,-343.5367 627,-343.5367"/>
<polygon fill="none" stroke="#000000" points="627,-343.5367 627,-366.5367 728,-366.5367 728,-343.5367 627,-343.5367"/>
<text text-anchor="start" x="631.9716" y="-352.6367" font-family="Helvetica,sans-Serif" font-weight="bold" font-size="11.00" fill="#000000">file_preview</text>
<text text-anchor="start" x="693.5219" y="-351.6367" font-family="Helvetica,sans-Serif" font-size="11.00" fill="#000000">[table]</text>
<polygon fill="none" stroke="#000000" points="627,-324.5367 627,-343.5367 728,-343.5367 728,-324.5367 627,-324.5367"/>
<text text-anchor="start" x="630" y="-330.6367" font-family="Helvetica,sans-Serif" font-size="11.00" fill="#000000">...</text>
<polygon fill="#ffffff" stroke="transparent" points="627,-305.5367 627,-324.5367 663,-324.5367 663,-305.5367 627,-305.5367"/>
<polygon fill="none" stroke="#000000" points="627,-305.5367 627,-324.5367 663,-324.5367 663,-305.5367 627,-305.5367"/>
<text text-anchor="start" x="630" y="-311.6367" font-family="Helvetica,sans-Serif" font-size="11.00" fill="#000000">&lt; 3</text>
<polygon fill="#ffffff" stroke="transparent" points="663,-305.5367 663,-324.5367 708,-324.5367 708,-305.5367 663,-305.5367"/>
<polygon fill="none" stroke="#000000" points="663,-305.5367 663,-324.5367 708,-324.5367 708,-305.5367 663,-305.5367"/>
<text text-anchor="start" x="672.6105" y="-311.6367" font-family="Helvetica,sans-Serif" font-size="11.00" fill="#000000">0 rows</text>
<polygon fill="#ffffff" stroke="transparent" points="708,-305.5367 708,-324.5367 728,-324.5367 728,-305.5367 708,-305.5367"/>
<polygon fill="none" stroke="#000000" points="708,-305.5367 708,-324.5367 728,-324.5367 728,-305.5367 708,-305.5367"/>
<text text-anchor="start" x="718.8862" y="-311.6367" font-family="Helvetica,sans-Serif" font-size="11.00" fill="#000000"> &#160;</text>
</a>
</g>
</g>
<!-- file_preview&#45;&gt;file -->
<g id="edge22" class="edge">
<title>file_preview:w&#45;&gt;file:e</title>
<path fill="none" stroke="#000000" d="M613.3751,-328.0863C593.3545,-320.9035 583.8307,-322.7203 558.5,-333.5367"/>
<polygon fill="#000000" stroke="#000000" points="619.5723,-330.5653 625.6629,-336.8792 623.2861,-332.051 627,-333.5367 627,-333.5367 627,-333.5367 623.2861,-332.051 628.3371,-330.1942 619.5723,-330.5653 619.5723,-330.5653"/>
<ellipse fill="none" stroke="#000000" cx="616.6012" cy="-329.3768" rx="3.2" ry="3.2"/>
</g>
<!-- file_preview&#45;&gt;file -->
<g id="edge23" class="edge">
<title>file_preview:w&#45;&gt;file:e</title>
<path fill="none" stroke="#000000" d="M612.5353,-333.5367C593.0831,-333.5367 583.474,-333.5367 558.5,-333.5367"/>
<polygon fill="#000000" stroke="#000000" points="619,-333.5368 627,-337.1367 623,-333.5367 627,-333.5367 627,-333.5367 627,-333.5367 623,-333.5367 627,-329.9367 619,-333.5368 619,-333.5368"/>
<ellipse fill="none" stroke="#000000" cx="615.8" cy="-333.5368" rx="3.2" ry="3.2"/>
</g>
<!-- file_preview&#45;&gt;file -->
<g id="edge24" class="edge">
<title>file_preview:w&#45;&gt;file:e</title>
<path fill="none" stroke="#000000" d="M613.3751,-338.9872C593.3545,-346.1699 583.8307,-344.3531 558.5,-333.5367"/>
<polygon fill="#000000" stroke="#000000" points="619.5723,-336.5081 628.3371,-336.8792 623.2861,-335.0224 627,-333.5367 627,-333.5367 627,-333.5367 623.2861,-335.0224 625.6629,-330.1942 619.5723,-336.5081 619.5723,-336.5081"/>
<ellipse fill="none" stroke="#000000" cx="616.6012" cy="-337.6967" rx="3.2" ry="3.2"/>
</g>
<!-- invitation_document -->
<g id="node12" class="node">
<title>invitation_document</title>
<g id="a_node12"><a xlink:href="../../tables/invitation_document.html" xlink:title="invitation_document" target="_top">
<polygon fill="#ffffff" stroke="transparent" points="607,-224.0367 607,-285.0367 747,-285.0367 747,-224.0367 607,-224.0367"/>
<polygon fill="#f5f5f5" stroke="transparent" points="607,-261.5367 607,-284.5367 747,-284.5367 747,-261.5367 607,-261.5367"/>
<polygon fill="none" stroke="#000000" points="607,-261.5367 607,-284.5367 747,-284.5367 747,-261.5367 607,-261.5367"/>
<text text-anchor="start" x="611.5979" y="-270.6367" font-family="Helvetica,sans-Serif" font-weight="bold" font-size="11.00" fill="#000000">invitation_document</text>
<text text-anchor="start" x="712.5219" y="-269.6367" font-family="Helvetica,sans-Serif" font-size="11.00" fill="#000000">[table]</text>
<polygon fill="none" stroke="#000000" points="607,-242.5367 607,-261.5367 747,-261.5367 747,-242.5367 607,-242.5367"/>
<text text-anchor="start" x="610" y="-248.6367" font-family="Helvetica,sans-Serif" font-size="11.00" fill="#000000">...</text>
<polygon fill="#ffffff" stroke="transparent" points="607,-223.5367 607,-242.5367 662,-242.5367 662,-223.5367 607,-223.5367"/>
<polygon fill="none" stroke="#000000" points="607,-223.5367 607,-242.5367 662,-242.5367 662,-223.5367 607,-223.5367"/>
<text text-anchor="start" x="610" y="-229.6367" font-family="Helvetica,sans-Serif" font-size="11.00" fill="#000000">&lt; 2</text>
<polygon fill="#ffffff" stroke="transparent" points="662,-223.5367 662,-242.5367 717,-242.5367 717,-223.5367 662,-223.5367"/>
<polygon fill="none" stroke="#000000" points="662,-223.5367 662,-242.5367 717,-242.5367 717,-223.5367 662,-223.5367"/>
<text text-anchor="start" x="681.6105" y="-229.6367" font-family="Helvetica,sans-Serif" font-size="11.00" fill="#000000">4 rows</text>
<polygon fill="#ffffff" stroke="transparent" points="717,-223.5367 717,-242.5367 747,-242.5367 747,-223.5367 717,-223.5367"/>
<polygon fill="none" stroke="#000000" points="717,-223.5367 717,-242.5367 747,-242.5367 747,-223.5367 717,-223.5367"/>
<text text-anchor="start" x="737.8862" y="-229.6367" font-family="Helvetica,sans-Serif" font-size="11.00" fill="#000000"> &#160;</text>
</a>
</g>
</g>
<!-- invitation_document&#45;&gt;file -->
<g id="edge25" class="edge">
<title>invitation_document:w&#45;&gt;file:e</title>
<path fill="none" stroke="#000000" d="M593.0877,-256.1803C573.4771,-273.5269 594.7222,-333.5367 558.5,-333.5367"/>
<polygon fill="#000000" stroke="#000000" points="599.4115,-254.0696 608.1398,-254.9515 603.2058,-252.8032 607,-251.5367 607,-251.5367 607,-251.5367 603.2058,-252.8032 605.8602,-248.1219 599.4115,-254.0696 599.4115,-254.0696"/>
<ellipse fill="none" stroke="#000000" cx="596.3762" cy="-255.0828" rx="3.2" ry="3.2"/>
</g>
<!-- job_ad -->
<g id="node13" class="node">
<title>job_ad</title>
<g id="a_node13"><a xlink:href="../../tables/job_ad.html" xlink:title="job_ad" target="_top">
<polygon fill="#ffffff" stroke="transparent" points="1233.5,-1000.0367 1233.5,-1061.0367 1319.5,-1061.0367 1319.5,-1000.0367 1233.5,-1000.0367"/>
<polygon fill="#f5f5f5" stroke="transparent" points="1233.5,-1037.5367 1233.5,-1060.5367 1319.5,-1060.5367 1319.5,-1037.5367 1233.5,-1037.5367"/>
<polygon fill="none" stroke="#000000" points="1233.5,-1037.5367 1233.5,-1060.5367 1319.5,-1060.5367 1319.5,-1037.5367 1233.5,-1037.5367"/>
<text text-anchor="start" x="1238.5" y="-1046.6367" font-family="Helvetica,sans-Serif" font-weight="bold" font-size="11.00" fill="#000000">job_ad</text>
<text text-anchor="start" x="1284.5437" y="-1045.6367" font-family="Helvetica,sans-Serif" font-size="11.00" fill="#000000">[table]</text>
<polygon fill="none" stroke="#000000" points="1233.5,-1018.5367 1233.5,-1037.5367 1319.5,-1037.5367 1319.5,-1018.5367 1233.5,-1018.5367"/>
<text text-anchor="start" x="1236.5" y="-1024.6367" font-family="Helvetica,sans-Serif" font-size="11.00" fill="#000000">...</text>
<polygon fill="#ffffff" stroke="transparent" points="1233.5,-999.5367 1233.5,-1018.5367 1254.5,-1018.5367 1254.5,-999.5367 1233.5,-999.5367"/>
<polygon fill="none" stroke="#000000" points="1233.5,-999.5367 1233.5,-1018.5367 1254.5,-1018.5367 1254.5,-999.5367 1233.5,-999.5367"/>
<text text-anchor="start" x="1236.2027" y="-1005.6367" font-family="Helvetica,sans-Serif" font-size="11.00" fill="#000000">&lt; 4</text>
<polygon fill="#ffffff" stroke="transparent" points="1254.5,-999.5367 1254.5,-1018.5367 1298.5,-1018.5367 1298.5,-999.5367 1254.5,-999.5367"/>
<polygon fill="none" stroke="#000000" points="1254.5,-999.5367 1254.5,-1018.5367 1298.5,-1018.5367 1298.5,-999.5367 1254.5,-999.5367"/>
<text text-anchor="start" x="1257.2478" y="-1005.6367" font-family="Helvetica,sans-Serif" font-size="11.00" fill="#000000">34 rows</text>
<polygon fill="#ffffff" stroke="transparent" points="1298.5,-999.5367 1298.5,-1018.5367 1319.5,-1018.5367 1319.5,-999.5367 1298.5,-999.5367"/>
<polygon fill="none" stroke="#000000" points="1298.5,-999.5367 1298.5,-1018.5367 1319.5,-1018.5367 1319.5,-999.5367 1298.5,-999.5367"/>
<text text-anchor="start" x="1301.2027" y="-1005.6367" font-family="Helvetica,sans-Serif" font-size="11.00" fill="#000000">2 &gt;</text>
</a>
</g>
</g>
<!-- job_ad&#45;&gt;location -->
<g id="edge28" class="edge">
<title>job_ad:w&#45;&gt;location:e</title>
<path fill="none" stroke="#000000" d="M1218.8176,-1027.307C1095.6226,-1023.3609 1068.4612,-969.2881 947,-920.5367 844.64,-879.452 829.2975,-822.5367 719,-822.5367"/>
<polygon fill="#000000" stroke="#000000" points="1225.501,-1027.4115 1233.4437,-1031.1363 1229.5005,-1027.4741 1233.5,-1027.5367 1233.5,-1027.5367 1233.5,-1027.5367 1229.5005,-1027.4741 1233.5563,-1023.9372 1225.501,-1027.4115 1225.501,-1027.4115"/>
<ellipse fill="none" stroke="#000000" cx="1222.3014" cy="-1027.3614" rx="3.2" ry="3.2"/>
</g>
<!-- job_ad&#45;&gt;principal -->
<g id="edge26" class="edge">
<title>job_ad:w&#45;&gt;principal:e</title>
<path fill="none" stroke="#000000" d="M1219.0902,-1027.5646C946.0274,-1028.617 854.6649,-1058.4428 599,-945.5367 511.5888,-906.9344 477.9856,-897.3534 427,-816.5367 377.6556,-738.3215 478.4797,-612.5367 386,-612.5367"/>
<polygon fill="#000000" stroke="#000000" points="1225.5,-1027.5523 1233.507,-1031.1367 1229.5,-1027.5445 1233.5,-1027.5367 1233.5,-1027.5367 1233.5,-1027.5367 1229.5,-1027.5445 1233.493,-1023.9367 1225.5,-1027.5523 1225.5,-1027.5523"/>
<ellipse fill="none" stroke="#000000" cx="1222.3" cy="-1027.5585" rx="3.2" ry="3.2"/>
</g>
<!-- job_ad&#45;&gt;principal -->
<g id="edge29" class="edge">
<title>job_ad:w&#45;&gt;principal:e</title>
<path fill="none" stroke="#000000" d="M1219.0778,-1027.5635C945.7694,-1028.5734 853.7122,-1057.132 599,-941.5367 511.9859,-902.0474 478.1415,-893.2548 427,-812.5367 378.4371,-735.8886 476.7374,-612.5367 386,-612.5367"/>
<polygon fill="#000000" stroke="#000000" points="1225.5,-1027.5516 1233.5067,-1031.1367 1229.5,-1027.5442 1233.5,-1027.5367 1233.5,-1027.5367 1233.5,-1027.5367 1229.5,-1027.5442 1233.4933,-1023.9367 1225.5,-1027.5516 1225.5,-1027.5516"/>
<ellipse fill="none" stroke="#000000" cx="1222.3" cy="-1027.5576" rx="3.2" ry="3.2"/>
</g>
<!-- job_request -->
<g id="node14" class="node">
<title>job_request</title>
<g id="a_node14"><a xlink:href="../../tables/job_request.html" xlink:title="job_request" target="_top">
<polygon fill="#ffffff" stroke="transparent" points="955,-585.0367 955,-910.0367 1121,-910.0367 1121,-585.0367 955,-585.0367"/>
<polygon fill="#f5f5f5" stroke="transparent" points="955,-886.5367 955,-909.5367 1121,-909.5367 1121,-886.5367 955,-886.5367"/>
<polygon fill="none" stroke="#000000" points="955,-886.5367 955,-909.5367 1121,-909.5367 1121,-886.5367 955,-886.5367"/>
<text text-anchor="start" x="960" y="-895.6367" font-family="Helvetica,sans-Serif" font-weight="bold" font-size="11.00" fill="#000000">job_request</text>
<text text-anchor="start" x="1086.0437" y="-894.6367" font-family="Helvetica,sans-Serif" font-size="11.00" fill="#000000">[table]</text>
<polygon fill="none" stroke="#000000" points="955,-864.5367 955,-886.5367 1121,-886.5367 1121,-864.5367 955,-864.5367"/>
<image xlink:href="../../images/primaryKeys.png" width="11px" height="12px" preserveAspectRatio="xMinYMin meet" x="960" y="-881.537"/>
<text text-anchor="start" x="975" y="-871.6367" font-family="Helvetica,sans-Serif" font-size="11.00" fill="#000000">id</text>
<polygon fill="#ffffff" stroke="transparent" points="955,-842.5367 955,-864.5367 1121,-864.5367 1121,-842.5367 955,-842.5367"/>
<polygon fill="none" stroke="#000000" points="955,-842.5367 955,-864.5367 1121,-864.5367 1121,-842.5367 955,-842.5367"/>
<image xlink:href="../../images/foreignKeys.png" width="11px" height="12px" preserveAspectRatio="xMinYMin meet" x="960" y="-859.537"/>
<text text-anchor="start" x="975" y="-849.6367" font-family="Helvetica,sans-Serif" font-size="11.00" fill="#000000">created_by</text>
<polygon fill="#ffffff" stroke="transparent" points="955,-820.5367 955,-842.5367 1121,-842.5367 1121,-820.5367 955,-820.5367"/>
<polygon fill="none" stroke="#000000" points="955,-820.5367 955,-842.5367 1121,-842.5367 1121,-820.5367 955,-820.5367"/>
<image xlink:href="../../images/foreignKeys.png" width="11px" height="12px" preserveAspectRatio="xMinYMin meet" x="960" y="-837.537"/>
<text text-anchor="start" x="975" y="-827.6367" font-family="Helvetica,sans-Serif" font-size="11.00" fill="#000000">modified_by</text>
<polygon fill="#ffffff" stroke="transparent" points="955,-798.5367 955,-820.5367 1121,-820.5367 1121,-798.5367 955,-798.5367"/>
<polygon fill="none" stroke="#000000" points="955,-798.5367 955,-820.5367 1121,-820.5367 1121,-798.5367 955,-798.5367"/>
<image xlink:href="../../images/foreignKeys.png" width="11px" height="12px" preserveAspectRatio="xMinYMin meet" x="960" y="-815.537"/>
<text text-anchor="start" x="975" y="-805.6367" font-family="Helvetica,sans-Serif" font-size="11.00" fill="#000000">location_id</text>
<polygon fill="#ffffff" stroke="transparent" points="955,-776.5367 955,-798.5367 1121,-798.5367 1121,-776.5367 955,-776.5367"/>
<polygon fill="none" stroke="#000000" points="955,-776.5367 955,-798.5367 1121,-798.5367 1121,-776.5367 955,-776.5367"/>
<image xlink:href="../../images/foreignKeys.png" width="11px" height="12px" preserveAspectRatio="xMinYMin meet" x="960" y="-793.537"/>
<text text-anchor="start" x="975" y="-783.6367" font-family="Helvetica,sans-Serif" font-size="11.00" fill="#000000">rate_card_id</text>
<polygon fill="#ffffff" stroke="transparent" points="955,-754.5367 955,-776.5367 1121,-776.5367 1121,-754.5367 955,-754.5367"/>
<polygon fill="none" stroke="#000000" points="955,-754.5367 955,-776.5367 1121,-776.5367 1121,-754.5367 955,-754.5367"/>
<image xlink:href="../../images/foreignKeys.png" width="11px" height="12px" preserveAspectRatio="xMinYMin meet" x="960" y="-771.537"/>
<text text-anchor="start" x="975" y="-761.6367" font-family="Helvetica,sans-Serif" font-size="11.00" fill="#000000">source_job_request_id</text>
<polygon fill="#ffffff" stroke="transparent" points="955,-732.5367 955,-754.5367 1121,-754.5367 1121,-732.5367 955,-732.5367"/>
<polygon fill="none" stroke="#000000" points="955,-732.5367 955,-754.5367 1121,-754.5367 1121,-732.5367 955,-732.5367"/>
<image xlink:href="../../images/foreignKeys.png" width="11px" height="12px" preserveAspectRatio="xMinYMin meet" x="960" y="-749.537"/>
<text text-anchor="start" x="975" y="-739.6367" font-family="Helvetica,sans-Serif" font-size="11.00" fill="#000000">eworker_id</text>
<polygon fill="#ffffff" stroke="transparent" points="955,-710.5367 955,-732.5367 1121,-732.5367 1121,-710.5367 955,-710.5367"/>
<polygon fill="none" stroke="#000000" points="955,-710.5367 955,-732.5367 1121,-732.5367 1121,-710.5367 955,-710.5367"/>
<image xlink:href="../../images/foreignKeys.png" width="11px" height="12px" preserveAspectRatio="xMinYMin meet" x="960" y="-727.537"/>
<text text-anchor="start" x="975" y="-717.6367" font-family="Helvetica,sans-Serif" font-size="11.00" fill="#000000">unit_id</text>
<polygon fill="#ffffff" stroke="transparent" points="955,-688.5367 955,-710.5367 1121,-710.5367 1121,-688.5367 955,-688.5367"/>
<polygon fill="none" stroke="#000000" points="955,-688.5367 955,-710.5367 1121,-710.5367 1121,-688.5367 955,-688.5367"/>
<image xlink:href="../../images/foreignKeys.png" width="11px" height="12px" preserveAspectRatio="xMinYMin meet" x="960" y="-705.537"/>
<text text-anchor="start" x="975" y="-695.6367" font-family="Helvetica,sans-Serif" font-size="11.00" fill="#000000">closed_eworker_id</text>
<polygon fill="#ffffff" stroke="transparent" points="955,-666.5367 955,-688.5367 1121,-688.5367 1121,-666.5367 955,-666.5367"/>
<polygon fill="none" stroke="#000000" points="955,-666.5367 955,-688.5367 1121,-688.5367 1121,-666.5367 955,-666.5367"/>
<image xlink:href="../../images/foreignKeys.png" width="11px" height="12px" preserveAspectRatio="xMinYMin meet" x="960" y="-683.537"/>
<text text-anchor="start" x="975" y="-673.6367" font-family="Helvetica,sans-Serif" font-size="11.00" fill="#000000">client_contact_id</text>
<polygon fill="#ffffff" stroke="transparent" points="955,-644.5367 955,-666.5367 1121,-666.5367 1121,-644.5367 955,-644.5367"/>
<polygon fill="none" stroke="#000000" points="955,-644.5367 955,-666.5367 1121,-666.5367 1121,-644.5367 955,-644.5367"/>
<image xlink:href="../../images/foreignKeys.png" width="11px" height="12px" preserveAspectRatio="xMinYMin meet" x="960" y="-661.537"/>
<text text-anchor="start" x="975" y="-651.6367" font-family="Helvetica,sans-Serif" font-size="11.00" fill="#000000">client_id</text>
<polygon fill="#ffffff" stroke="transparent" points="955,-622.5367 955,-644.5367 1121,-644.5367 1121,-622.5367 955,-622.5367"/>
<polygon fill="none" stroke="#000000" points="955,-622.5367 955,-644.5367 1121,-644.5367 1121,-622.5367 955,-622.5367"/>
<image xlink:href="../../images/foreignKeys.png" width="11px" height="12px" preserveAspectRatio="xMinYMin meet" x="960" y="-639.537"/>
<text text-anchor="start" x="975" y="-629.6367" font-family="Helvetica,sans-Serif" font-size="11.00" fill="#000000">role_id</text>
<polygon fill="none" stroke="#000000" points="955,-603.5367 955,-622.5367 1121,-622.5367 1121,-603.5367 955,-603.5367"/>
<text text-anchor="start" x="958" y="-609.6367" font-family="Helvetica,sans-Serif" font-size="11.00" fill="#000000">...</text>
<polygon fill="#ffffff" stroke="transparent" points="955,-584.5367 955,-603.5367 1016,-603.5367 1016,-584.5367 955,-584.5367"/>
<polygon fill="none" stroke="#000000" points="955,-584.5367 955,-603.5367 1016,-603.5367 1016,-584.5367 955,-584.5367"/>
<text text-anchor="start" x="958" y="-590.6367" font-family="Helvetica,sans-Serif" font-size="11.00" fill="#000000">&lt; 11</text>
<polygon fill="#ffffff" stroke="transparent" points="1016,-584.5367 1016,-603.5367 1083,-603.5367 1083,-584.5367 1016,-584.5367"/>
<polygon fill="none" stroke="#000000" points="1016,-584.5367 1016,-603.5367 1083,-603.5367 1083,-584.5367 1016,-584.5367"/>
<text text-anchor="start" x="1035.3807" y="-590.6367" font-family="Helvetica,sans-Serif" font-size="11.00" fill="#000000">254 rows</text>
<polygon fill="#ffffff" stroke="transparent" points="1083,-584.5367 1083,-603.5367 1121,-603.5367 1121,-584.5367 1083,-584.5367"/>
<polygon fill="none" stroke="#000000" points="1083,-584.5367 1083,-603.5367 1121,-603.5367 1121,-584.5367 1083,-584.5367"/>
<text text-anchor="start" x="1102.4053" y="-590.6367" font-family="Helvetica,sans-Serif" font-size="11.00" fill="#000000">7 &gt;</text>
</a>
</g>
</g>
<!-- job_ad&#45;&gt;job_request -->
<g id="edge27" class="edge">
<title>job_ad:w&#45;&gt;job_request:e</title>
<path fill="none" stroke="#000000" d="M1218.9567,-1026.6291C1193.0572,-1023.0507 1182.3039,-1008.9101 1162,-984.5367 1128.8722,-944.7691 1172.7582,-875.5367 1121,-875.5367"/>
<polygon fill="#000000" stroke="#000000" points="1225.5155,-1027.0384 1233.2757,-1031.1297 1229.5078,-1027.2875 1233.5,-1027.5367 1233.5,-1027.5367 1233.5,-1027.5367 1229.5078,-1027.2875 1233.7243,-1023.9437 1225.5155,-1027.0384 1225.5155,-1027.0384"/>
<ellipse fill="none" stroke="#000000" cx="1222.3217" cy="-1026.839" rx="3.2" ry="3.2"/>
</g>
<!-- job_request&#45;&gt;location -->
<g id="edge35" class="edge">
<title>job_request:w&#45;&gt;location:e</title>
<path fill="none" stroke="#000000" d="M940.4462,-809.6232C847.2918,-810.7511 819.0212,-822.5367 719,-822.5367"/>
<polygon fill="#000000" stroke="#000000" points="947.0001,-809.5843 955.0214,-813.1367 951.0001,-809.5605 955,-809.5367 955,-809.5367 955,-809.5367 951.0001,-809.5605 954.9786,-805.9368 947.0001,-809.5843 947.0001,-809.5843"/>
<ellipse fill="none" stroke="#000000" cx="943.8002" cy="-809.6033" rx="3.2" ry="3.2"/>
</g>
<!-- job_request&#45;&gt;client -->
<g id="edge31" class="edge">
<title>job_request:w&#45;&gt;client:e</title>
<path fill="none" stroke="#000000" d="M940.4841,-655.4994C877.7625,-655.1541 856.7671,-652.3276 788,-643.5367 758.8601,-639.8116 752.3771,-631.5367 723,-631.5367"/>
<polygon fill="#000000" stroke="#000000" points="947,-655.5161 954.9907,-659.1367 951,-655.5264 955,-655.5367 955,-655.5367 955,-655.5367 951,-655.5264 955.0093,-651.9367 947,-655.5161 947,-655.5161"/>
<ellipse fill="none" stroke="#000000" cx="943.8" cy="-655.5078" rx="3.2" ry="3.2"/>
</g>
<!-- job_request&#45;&gt;eworker -->
<g id="edge32" class="edge">
<title>job_request:w&#45;&gt;eworker:e</title>
<path fill="none" stroke="#000000" d="M940.3357,-699.606C828.8842,-700.4452 355.7128,-708.4308 286,-697.5367 267.1129,-694.5852 264.1163,-684.5367 245,-684.5367"/>
<polygon fill="#000000" stroke="#000000" points="947.0001,-699.5746 955.017,-703.1367 951,-699.5557 955,-699.5367 955,-699.5367 955,-699.5367 951,-699.5557 954.983,-695.9368 947.0001,-699.5746 947.0001,-699.5746"/>
<ellipse fill="none" stroke="#000000" cx="943.8001" cy="-699.5897" rx="3.2" ry="3.2"/>
</g>
<!-- job_request&#45;&gt;eworker -->
<g id="edge34" class="edge">
<title>job_request:w&#45;&gt;eworker:e</title>
<path fill="none" stroke="#000000" d="M940.3877,-743.5637C782.7531,-744.1013 423.8012,-752.0384 286,-709.5367 265.6054,-703.2465 266.3426,-684.5367 245,-684.5367"/>
<polygon fill="#000000" stroke="#000000" points="947,-743.5515 955.0067,-747.1367 951,-743.5441 955,-743.5367 955,-743.5367 955,-743.5367 951,-743.5441 954.9933,-739.9367 947,-743.5515 947,-743.5515"/>
<ellipse fill="none" stroke="#000000" cx="943.8" cy="-743.5575" rx="3.2" ry="3.2"/>
</g>
<!-- job_request&#45;&gt;principal -->
<g id="edge33" class="edge">
<title>job_request:w&#45;&gt;principal:e</title>
<path fill="none" stroke="#000000" d="M940.5914,-855.1636C932.2741,-857.2647 926.4849,-860.9575 914,-863.5367 845.1962,-877.7506 654.7452,-933.2973 599,-890.5367 554.0907,-856.088 596.892,-814.9629 566,-767.5367 522.6984,-701.059 485.3882,-709.2502 427,-655.5367 407.5663,-637.6589 412.4061,-612.5367 386,-612.5367"/>
<polygon fill="#000000" stroke="#000000" points="947.0505,-854.4343 955.4039,-857.114 951.0253,-853.9855 955,-853.5367 955,-853.5367 955,-853.5367 951.0253,-853.9855 954.5961,-849.9594 947.0505,-854.4343 947.0505,-854.4343"/>
<ellipse fill="none" stroke="#000000" cx="943.8707" cy="-854.7934" rx="3.2" ry="3.2"/>
</g>
<!-- job_request&#45;&gt;principal -->
<g id="edge36" class="edge">
<title>job_request:w&#45;&gt;principal:e</title>
<path fill="none" stroke="#000000" d="M940.506,-832.3035C851.9327,-840.7561 656.0523,-915.3238 599,-866.5367 527.195,-805.1342 632.7697,-723.3801 566,-656.5367 521.7972,-612.2851 486.2779,-654.4924 427,-634.5367 407.401,-627.9388 406.6798,-612.5367 386,-612.5367"/>
<polygon fill="#000000" stroke="#000000" points="947.0112,-831.9594 955.1902,-835.1317 951.0056,-831.7481 955,-831.5367 955,-831.5367 955,-831.5367 951.0056,-831.7481 954.8098,-827.9417 947.0112,-831.9594 947.0112,-831.9594"/>
<ellipse fill="none" stroke="#000000" cx="943.8156" cy="-832.1285" rx="3.2" ry="3.2"/>
</g>
<!-- job_request&#45;&gt;client_contact -->
<g id="edge30" class="edge">
<title>job_request:w&#45;&gt;client_contact:e</title>
<path fill="none" stroke="#000000" d="M940.8495,-673.4119C915.7066,-654.3293 950.2028,-575.5367 906,-575.5367"/>
<polygon fill="#000000" stroke="#000000" points="947.3196,-675.2979 953.9925,-680.9929 951.1598,-676.4173 955,-677.5367 955,-677.5367 955,-677.5367 951.1598,-676.4173 956.0075,-674.0806 947.3196,-675.2979 947.3196,-675.2979"/>
<ellipse fill="none" stroke="#000000" cx="944.2475" cy="-674.4023" rx="3.2" ry="3.2"/>
</g>
<!-- job_request&#45;&gt;ework_unit -->
<g id="edge39" class="edge">
<title>job_request:w&#45;&gt;ework_unit:e</title>
<path fill="none" stroke="#000000" d="M940.3716,-721.584C572.0543,-723.9793 479.6472,-816.5367 104,-816.5367"/>
<polygon fill="#000000" stroke="#000000" points="947,-721.5626 955.0117,-725.1367 951,-721.5497 955,-721.5367 955,-721.5367 955,-721.5367 951,-721.5497 954.9883,-717.9367 947,-721.5626 947,-721.5626"/>
<ellipse fill="none" stroke="#000000" cx="943.8001" cy="-721.573" rx="3.2" ry="3.2"/>
</g>
<!-- rate_card -->
<g id="node15" class="node">
<title>rate_card</title>
<g id="a_node15"><a xlink:href="../../tables/rate_card.html" xlink:title="rate_card" target="_top">
<polygon fill="#ffffff" stroke="transparent" points="450.5,-1037.0367 450.5,-1098.0367 542.5,-1098.0367 542.5,-1037.0367 450.5,-1037.0367"/>
<polygon fill="#f5f5f5" stroke="transparent" points="450.5,-1074.5367 450.5,-1097.5367 542.5,-1097.5367 542.5,-1074.5367 450.5,-1074.5367"/>
<polygon fill="none" stroke="#000000" points="450.5,-1074.5367 450.5,-1097.5367 542.5,-1097.5367 542.5,-1074.5367 450.5,-1074.5367"/>
<text text-anchor="start" x="455.5" y="-1083.6367" font-family="Helvetica,sans-Serif" font-weight="bold" font-size="11.00" fill="#000000">rate_card</text>
<text text-anchor="start" x="507.5437" y="-1082.6367" font-family="Helvetica,sans-Serif" font-size="11.00" fill="#000000">[table]</text>
<polygon fill="none" stroke="#000000" points="450.5,-1055.5367 450.5,-1074.5367 542.5,-1074.5367 542.5,-1055.5367 450.5,-1055.5367"/>
<text text-anchor="start" x="453.5" y="-1061.6367" font-family="Helvetica,sans-Serif" font-size="11.00" fill="#000000">...</text>
<polygon fill="#ffffff" stroke="transparent" points="450.5,-1036.5367 450.5,-1055.5367 471.5,-1055.5367 471.5,-1036.5367 450.5,-1036.5367"/>
<polygon fill="none" stroke="#000000" points="450.5,-1036.5367 450.5,-1055.5367 471.5,-1055.5367 471.5,-1036.5367 450.5,-1036.5367"/>
<text text-anchor="start" x="453.2027" y="-1042.6367" font-family="Helvetica,sans-Serif" font-size="11.00" fill="#000000">&lt; 1</text>
<polygon fill="#ffffff" stroke="transparent" points="471.5,-1036.5367 471.5,-1055.5367 521.5,-1055.5367 521.5,-1036.5367 471.5,-1036.5367"/>
<polygon fill="none" stroke="#000000" points="471.5,-1036.5367 471.5,-1055.5367 521.5,-1055.5367 521.5,-1036.5367 471.5,-1036.5367"/>
<text text-anchor="start" x="474.1904" y="-1042.6367" font-family="Helvetica,sans-Serif" font-size="11.00" fill="#000000">239 rows</text>
<polygon fill="#ffffff" stroke="transparent" points="521.5,-1036.5367 521.5,-1055.5367 542.5,-1055.5367 542.5,-1036.5367 521.5,-1036.5367"/>
<polygon fill="none" stroke="#000000" points="521.5,-1036.5367 521.5,-1055.5367 542.5,-1055.5367 542.5,-1036.5367 521.5,-1036.5367"/>
<text text-anchor="start" x="524.2026" y="-1042.6367" font-family="Helvetica,sans-Serif" font-size="11.00" fill="#000000">1 &gt;</text>
</a>
</g>
</g>
<!-- job_request&#45;&gt;rate_card -->
<g id="edge37" class="edge">
<title>job_request:w&#45;&gt;rate_card:e</title>
<path fill="none" stroke="#000000" d="M940.5695,-787.07C852.3555,-781.9445 656.8171,-737.2209 599,-784.5367 500.7531,-864.939 669.4527,-1064.5367 542.5,-1064.5367"/>
<polygon fill="#000000" stroke="#000000" points="947.0042,-787.2781 954.8836,-791.1348 951.0021,-787.4074 955,-787.5367 955,-787.5367 955,-787.5367 951.0021,-787.4074 955.1164,-783.9386 947.0042,-787.2781 947.0042,-787.2781"/>
<ellipse fill="none" stroke="#000000" cx="943.8059" cy="-787.1746" rx="3.2" ry="3.2"/>
</g>
<!-- skill_role -->
<g id="node16" class="node">
<title>skill_role</title>
<g id="a_node16"><a xlink:href="../../tables/skill_role.html" xlink:title="skill_role" target="_top">
<polygon fill="#ffffff" stroke="transparent" points="808.5,-466.0367 808.5,-527.0367 893.5,-527.0367 893.5,-466.0367 808.5,-466.0367"/>
<polygon fill="#f5f5f5" stroke="transparent" points="809,-503.5367 809,-526.5367 894,-526.5367 894,-503.5367 809,-503.5367"/>
<polygon fill="none" stroke="#000000" points="809,-503.5367 809,-526.5367 894,-526.5367 894,-503.5367 809,-503.5367"/>
<text text-anchor="start" x="813.6149" y="-512.6367" font-family="Helvetica,sans-Serif" font-weight="bold" font-size="11.00" fill="#000000">skill_role</text>
<text text-anchor="start" x="859.5219" y="-511.6367" font-family="Helvetica,sans-Serif" font-size="11.00" fill="#000000">[table]</text>
<polygon fill="none" stroke="#000000" points="809,-484.5367 809,-503.5367 894,-503.5367 894,-484.5367 809,-484.5367"/>
<text text-anchor="start" x="812" y="-490.6367" font-family="Helvetica,sans-Serif" font-size="11.00" fill="#000000">...</text>
<polygon fill="#ffffff" stroke="transparent" points="809,-465.5367 809,-484.5367 822,-484.5367 822,-465.5367 809,-465.5367"/>
<polygon fill="none" stroke="#000000" points="809,-465.5367 809,-484.5367 822,-484.5367 822,-465.5367 809,-465.5367"/>
<text text-anchor="start" x="812" y="-471.6367" font-family="Helvetica,sans-Serif" font-size="11.00" fill="#000000"> &#160;</text>
<polygon fill="#ffffff" stroke="transparent" points="822,-465.5367 822,-484.5367 872,-484.5367 872,-465.5367 822,-465.5367"/>
<polygon fill="none" stroke="#000000" points="822,-465.5367 822,-484.5367 872,-484.5367 872,-465.5367 822,-465.5367"/>
<text text-anchor="start" x="824.6904" y="-471.6367" font-family="Helvetica,sans-Serif" font-size="11.00" fill="#000000">603 rows</text>
<polygon fill="#ffffff" stroke="transparent" points="872,-465.5367 872,-484.5367 894,-484.5367 894,-465.5367 872,-465.5367"/>
<polygon fill="none" stroke="#000000" points="872,-465.5367 872,-484.5367 894,-484.5367 894,-465.5367 872,-465.5367"/>
<text text-anchor="start" x="875.4053" y="-471.6367" font-family="Helvetica,sans-Serif" font-size="11.00" fill="#000000">4 &gt;</text>
</a>
</g>
</g>
<!-- job_request&#45;&gt;skill_role -->
<g id="edge38" class="edge">
<title>job_request:w&#45;&gt;skill_role:e</title>
<path fill="none" stroke="#000000" d="M940.7482,-630.7402C898.6767,-611.0086 956.1719,-493.5367 894,-493.5367"/>
<polygon fill="#000000" stroke="#000000" points="947.1497,-631.9962 954.3068,-637.0694 951.0749,-632.7665 955,-633.5367 955,-633.5367 955,-633.5367 951.0749,-632.7665 955.6932,-630.0041 947.1497,-631.9962 947.1497,-631.9962"/>
<ellipse fill="none" stroke="#000000" cx="944.0096" cy="-631.3801" rx="3.2" ry="3.2"/>
</g>
<!-- rate_card&#45;&gt;ework_unit -->
<g id="edge60" class="edge">
<title>rate_card:w&#45;&gt;ework_unit:e</title>
<path fill="none" stroke="#000000" d="M435.7087,-1064.4887C371.4865,-1064.0027 345.9833,-1059.1954 286,-1022.5367 233.8783,-990.6826 165.0848,-816.5367 104,-816.5367"/>
<polygon fill="#000000" stroke="#000000" points="442.5,-1064.5107 450.4883,-1068.1367 446.5,-1064.5237 450.5,-1064.5367 450.5,-1064.5367 450.5,-1064.5367 446.5,-1064.5237 450.5117,-1060.9367 442.5,-1064.5107 442.5,-1064.5107"/>
<ellipse fill="none" stroke="#000000" cx="439.3001" cy="-1064.5003" rx="3.2" ry="3.2"/>
</g>
<!-- job_request_application -->
<g id="node17" class="node">
<title>job_request_application</title>
<g id="a_node17"><a xlink:href="../../tables/job_request_application.html" xlink:title="job_request_application" target="_top">
<polygon fill="#ffffff" stroke="transparent" points="1197,-375.0367 1197,-436.0367 1356,-436.0367 1356,-375.0367 1197,-375.0367"/>
<polygon fill="#f5f5f5" stroke="transparent" points="1197.5,-412.5367 1197.5,-435.5367 1356.5,-435.5367 1356.5,-412.5367 1197.5,-412.5367"/>
<polygon fill="none" stroke="#000000" points="1197.5,-412.5367 1197.5,-435.5367 1356.5,-435.5367 1356.5,-412.5367 1197.5,-412.5367"/>
<text text-anchor="start" x="1202.4261" y="-421.6367" font-family="Helvetica,sans-Serif" font-weight="bold" font-size="11.00" fill="#000000">job_request_application</text>
<text text-anchor="start" x="1322.0219" y="-420.6367" font-family="Helvetica,sans-Serif" font-size="11.00" fill="#000000">[table]</text>
<polygon fill="none" stroke="#000000" points="1197.5,-393.5367 1197.5,-412.5367 1356.5,-412.5367 1356.5,-393.5367 1197.5,-393.5367"/>
<text text-anchor="start" x="1200.5" y="-399.6367" font-family="Helvetica,sans-Serif" font-size="11.00" fill="#000000">...</text>
<polygon fill="#ffffff" stroke="transparent" points="1197.5,-374.5367 1197.5,-393.5367 1254.5,-393.5367 1254.5,-374.5367 1197.5,-374.5367"/>
<polygon fill="none" stroke="#000000" points="1197.5,-374.5367 1197.5,-393.5367 1254.5,-393.5367 1254.5,-374.5367 1197.5,-374.5367"/>
<text text-anchor="start" x="1200.5" y="-380.6367" font-family="Helvetica,sans-Serif" font-size="11.00" fill="#000000">&lt; 6</text>
<polygon fill="#ffffff" stroke="transparent" points="1254.5,-374.5367 1254.5,-393.5367 1316.5,-393.5367 1316.5,-374.5367 1254.5,-374.5367"/>
<polygon fill="none" stroke="#000000" points="1254.5,-374.5367 1254.5,-393.5367 1316.5,-393.5367 1316.5,-374.5367 1254.5,-374.5367"/>
<text text-anchor="start" x="1274.9956" y="-380.6367" font-family="Helvetica,sans-Serif" font-size="11.00" fill="#000000">75 rows</text>
<polygon fill="#ffffff" stroke="transparent" points="1316.5,-374.5367 1316.5,-393.5367 1356.5,-393.5367 1356.5,-374.5367 1316.5,-374.5367"/>
<polygon fill="none" stroke="#000000" points="1316.5,-374.5367 1316.5,-393.5367 1356.5,-393.5367 1356.5,-374.5367 1316.5,-374.5367"/>
<text text-anchor="start" x="1337.9053" y="-380.6367" font-family="Helvetica,sans-Serif" font-size="11.00" fill="#000000">5 &gt;</text>
</a>
</g>
</g>
<!-- job_request_application&#45;&gt;applicant -->
<g id="edge40" class="edge">
<title>job_request_application:w&#45;&gt;applicant:e</title>
<path fill="none" stroke="#000000" d="M1182.935,-401.103C1121.148,-392.1715 926.0149,-344.5367 895,-344.5367"/>
<polygon fill="#000000" stroke="#000000" points="1189.5385,-401.753 1197.1473,-406.1194 1193.5192,-402.1448 1197.5,-402.5367 1197.5,-402.5367 1197.5,-402.5367 1193.5192,-402.1448 1197.8527,-398.954 1189.5385,-401.753 1189.5385,-401.753"/>
<ellipse fill="none" stroke="#000000" cx="1186.3539" cy="-401.4395" rx="3.2" ry="3.2"/>
</g>
<!-- job_request_application&#45;&gt;file -->
<g id="edge41" class="edge">
<title>job_request_application:w&#45;&gt;file:e</title>
<path fill="none" stroke="#000000" d="M1183.056,-401.0324C1120.4015,-386.2495 1195.0546,-266.4577 1129,-217.5367 1081.6358,-182.4581 646.1812,-160.2123 599,-195.5367 547.8319,-233.8461 622.4201,-333.5367 558.5,-333.5367"/>
<polygon fill="#000000" stroke="#000000" points="1189.543,-401.708 1197.1271,-406.1174 1193.5215,-402.1223 1197.5,-402.5367 1197.5,-402.5367 1197.5,-402.5367 1193.5215,-402.1223 1197.8729,-398.9561 1189.543,-401.708 1189.543,-401.708"/>
<ellipse fill="none" stroke="#000000" cx="1186.3603" cy="-401.3764" rx="3.2" ry="3.2"/>
</g>
<!-- job_request_application&#45;&gt;supplier -->
<g id="edge45" class="edge">
<title>job_request_application:w&#45;&gt;supplier:e</title>
<path fill="none" stroke="#000000" d="M1182.8513,-402.4961C1012.5811,-401.5516 961.7283,-384.7547 788,-419.5367 757.804,-425.5822 753.7952,-443.5367 723,-443.5367"/>
<polygon fill="#000000" stroke="#000000" points="1189.5,-402.5145 1197.49,-406.1367 1193.5,-402.5256 1197.5,-402.5367 1197.5,-402.5367 1197.5,-402.5367 1193.5,-402.5256 1197.51,-398.9367 1189.5,-402.5145 1189.5,-402.5145"/>
<ellipse fill="none" stroke="#000000" cx="1186.3" cy="-402.5056" rx="3.2" ry="3.2"/>
</g>
<!-- job_request_application&#45;&gt;principal -->
<g id="edge42" class="edge">
<title>job_request_application:w&#45;&gt;principal:e</title>
<path fill="none" stroke="#000000" d="M1183.1524,-403.9272C1111.1713,-411.8464 797.2819,-451.0603 788,-455.5367 769.5983,-464.4113 772.4802,-476.962 755,-487.5367 623.6823,-566.9774 570.8765,-542.1072 427,-595.5367 408.5074,-602.4041 405.7265,-612.5367 386,-612.5367"/>
<polygon fill="#000000" stroke="#000000" points="1189.5373,-403.3085 1197.8473,-406.1199 1193.5187,-402.9226 1197.5,-402.5367 1197.5,-402.5367 1197.5,-402.5367 1193.5187,-402.9226 1197.1527,-398.9535 1189.5373,-403.3085 1189.5373,-403.3085"/>
<ellipse fill="none" stroke="#000000" cx="1186.3522" cy="-403.6172" rx="3.2" ry="3.2"/>
</g>
<!-- job_request_application&#45;&gt;principal -->
<g id="edge44" class="edge">
<title>job_request_application:w&#45;&gt;principal:e</title>
<path fill="none" stroke="#000000" d="M1182.9529,-403.1691C1105.4521,-408.3213 827.4391,-443.6216 788,-459.5367 771.1824,-466.3232 771.0645,-475.1212 755,-483.5367 750.1908,-486.0561 391.4292,-612.5367 386,-612.5367"/>
<polygon fill="#000000" stroke="#000000" points="1189.5075,-402.8842 1197.6564,-406.1333 1193.5038,-402.7105 1197.5,-402.5367 1197.5,-402.5367 1197.5,-402.5367 1193.5038,-402.7105 1197.3436,-398.9401 1189.5075,-402.8842 1189.5075,-402.8842"/>
<ellipse fill="none" stroke="#000000" cx="1186.3106" cy="-403.0232" rx="3.2" ry="3.2"/>
</g>
<!-- job_request_application&#45;&gt;job_request -->
<g id="edge43" class="edge">
<title>job_request_application:w&#45;&gt;job_request:e</title>
<path fill="none" stroke="#000000" d="M1183.0946,-406.0721C1104.2552,-449.356 1222.0699,-875.5367 1121,-875.5367"/>
<polygon fill="#000000" stroke="#000000" points="1189.7306,-404.4435 1198.3581,-406.033 1193.6153,-403.4901 1197.5,-402.5367 1197.5,-402.5367 1197.5,-402.5367 1193.6153,-403.4901 1196.6419,-399.0405 1189.7306,-404.4435 1189.7306,-404.4435"/>
<ellipse fill="none" stroke="#000000" cx="1186.6228" cy="-405.2062" rx="3.2" ry="3.2"/>
</g>
<!-- job_request_application_document -->
<g id="node18" class="node">
<title>job_request_application_document</title>
<g id="a_node18"><a xlink:href="../../tables/job_request_application_document.html" xlink:title="job_request_application_document" target="_top">
<polygon fill="#ffffff" stroke="transparent" points="1432,-237.0367 1432,-298.0367 1645,-298.0367 1645,-237.0367 1432,-237.0367"/>
<polygon fill="#f5f5f5" stroke="transparent" points="1432.5,-274.5367 1432.5,-297.5367 1645.5,-297.5367 1645.5,-274.5367 1432.5,-274.5367"/>
<polygon fill="none" stroke="#000000" points="1432.5,-274.5367 1432.5,-297.5367 1645.5,-297.5367 1645.5,-274.5367 1432.5,-274.5367"/>
<text text-anchor="start" x="1437.222" y="-283.6367" font-family="Helvetica,sans-Serif" font-weight="bold" font-size="11.00" fill="#000000">job_request_application_document</text>
<text text-anchor="start" x="1611.0219" y="-282.6367" font-family="Helvetica,sans-Serif" font-size="11.00" fill="#000000">[table]</text>
<polygon fill="none" stroke="#000000" points="1432.5,-255.5367 1432.5,-274.5367 1645.5,-274.5367 1645.5,-255.5367 1432.5,-255.5367"/>
<text text-anchor="start" x="1435.5" y="-261.6367" font-family="Helvetica,sans-Serif" font-size="11.00" fill="#000000">...</text>
<polygon fill="#ffffff" stroke="transparent" points="1432.5,-236.5367 1432.5,-255.5367 1521.5,-255.5367 1521.5,-236.5367 1432.5,-236.5367"/>
<polygon fill="none" stroke="#000000" points="1432.5,-236.5367 1432.5,-255.5367 1521.5,-255.5367 1521.5,-236.5367 1432.5,-236.5367"/>
<text text-anchor="start" x="1435.5" y="-242.6367" font-family="Helvetica,sans-Serif" font-size="11.00" fill="#000000">&lt; 2</text>
<polygon fill="#ffffff" stroke="transparent" points="1521.5,-236.5367 1521.5,-255.5367 1599.5,-255.5367 1599.5,-236.5367 1521.5,-236.5367"/>
<polygon fill="none" stroke="#000000" points="1521.5,-236.5367 1521.5,-255.5367 1599.5,-255.5367 1599.5,-236.5367 1521.5,-236.5367"/>
<text text-anchor="start" x="1557.9956" y="-242.6367" font-family="Helvetica,sans-Serif" font-size="11.00" fill="#000000">57 rows</text>
<polygon fill="#ffffff" stroke="transparent" points="1599.5,-236.5367 1599.5,-255.5367 1645.5,-255.5367 1645.5,-236.5367 1599.5,-236.5367"/>
<polygon fill="none" stroke="#000000" points="1599.5,-236.5367 1599.5,-255.5367 1645.5,-255.5367 1645.5,-236.5367 1599.5,-236.5367"/>
<text text-anchor="start" x="1636.3862" y="-242.6367" font-family="Helvetica,sans-Serif" font-size="11.00" fill="#000000"> &#160;</text>
</a>
</g>
</g>
<!-- job_request_application_document&#45;&gt;file -->
<g id="edge46" class="edge">
<title>job_request_application_document:w&#45;&gt;file:e</title>
<path fill="none" stroke="#000000" d="M1418.2889,-260.3143C1403.4091,-248.1282 1414.8307,-212.679 1391,-195.5367 1294.1831,-125.8927 1247.4951,-151.0537 1129,-137.5367 978.4184,-120.3595 939.5576,-135.1358 788,-135.5367 703.9991,-135.7589 663.9636,-83.2833 599,-136.5367 529.8715,-193.2044 647.8867,-333.5367 558.5,-333.5367"/>
<polygon fill="#000000" stroke="#000000" points="1424.8313,-262.2581 1431.4746,-267.9876 1428.6657,-263.3974 1432.5,-264.5367 1432.5,-264.5367 1432.5,-264.5367 1428.6657,-263.3974 1433.5254,-261.0858 1424.8313,-262.2581 1424.8313,-262.2581"/>
<ellipse fill="none" stroke="#000000" cx="1421.7639" cy="-261.3467" rx="3.2" ry="3.2"/>
</g>
<!-- job_request_application_document&#45;&gt;job_request_application -->
<g id="edge47" class="edge">
<title>job_request_application_document:w&#45;&gt;job_request_application:e</title>
<path fill="none" stroke="#000000" d="M1418.1202,-267.0498C1371.8772,-285.7534 1420.9124,-402.5367 1356.5,-402.5367"/>
<polygon fill="#000000" stroke="#000000" points="1424.6194,-265.914 1433.1198,-268.083 1428.5597,-265.2254 1432.5,-264.5367 1432.5,-264.5367 1432.5,-264.5367 1428.5597,-265.2254 1431.8802,-260.9905 1424.6194,-265.914 1424.6194,-265.914"/>
<ellipse fill="none" stroke="#000000" cx="1421.4672" cy="-266.4649" rx="3.2" ry="3.2"/>
</g>
<!-- job_request_attachment -->
<g id="node19" class="node">
<title>job_request_attachment</title>
<g id="a_node19"><a xlink:href="../../tables/job_request_attachment.html" xlink:title="job_request_attachment" target="_top">
<polygon fill="#ffffff" stroke="transparent" points="1170,-205.5367 1170,-295.5367 1383,-295.5367 1383,-205.5367 1170,-205.5367"/>
<polygon fill="#f5f5f5" stroke="transparent" points="1172.5,-270.5367 1172.5,-293.5367 1381.5,-293.5367 1381.5,-270.5367 1172.5,-270.5367"/>
<polygon fill="none" stroke="#000000" points="1172.5,-270.5367 1172.5,-293.5367 1381.5,-293.5367 1381.5,-270.5367 1172.5,-270.5367"/>
<text text-anchor="start" x="1177.5" y="-279.6367" font-family="Helvetica,sans-Serif" font-weight="bold" font-size="11.00" fill="#000000">job_request_attachment</text>
<text text-anchor="start" x="1346.5437" y="-278.6367" font-family="Helvetica,sans-Serif" font-size="11.00" fill="#000000">[table]</text>
<polygon fill="none" stroke="#000000" points="1172.5,-248.5367 1172.5,-270.5367 1331.5,-270.5367 1331.5,-248.5367 1172.5,-248.5367"/>
<image xlink:href="../../images/primaryKeys.png" width="11px" height="12px" preserveAspectRatio="xMinYMin meet" x="1177.5" y="-265.537"/>
<text text-anchor="start" x="1192.5" y="-255.6367" font-family="Helvetica,sans-Serif" font-size="11.00" fill="#000000">job_request_id</text>
<polygon fill="none" stroke="#000000" points="1331.5,-248.5367 1331.5,-270.5367 1381.5,-270.5367 1381.5,-248.5367 1331.5,-248.5367"/>
<text text-anchor="start" x="1334.1865" y="-256.2367" font-family="Helvetica,sans-Serif" font-size="11.00" fill="#000000">bigint[19]</text>
<polygon fill="none" stroke="#000000" points="1172.5,-226.5367 1172.5,-248.5367 1331.5,-248.5367 1331.5,-226.5367 1172.5,-226.5367"/>
<image xlink:href="../../images/primaryKeys.png" width="11px" height="12px" preserveAspectRatio="xMinYMin meet" x="1177.5" y="-243.537"/>
<text text-anchor="start" x="1192.5" y="-233.6367" font-family="Helvetica,sans-Serif" font-size="11.00" fill="#000000">file_id</text>
<polygon fill="none" stroke="#000000" points="1331.5,-226.5367 1331.5,-248.5367 1381.5,-248.5367 1381.5,-226.5367 1331.5,-226.5367"/>
<text text-anchor="start" x="1334.1865" y="-234.2367" font-family="Helvetica,sans-Serif" font-size="11.00" fill="#000000">bigint[19]</text>
<polygon fill="#ffffff" stroke="transparent" points="1172.5,-207.5367 1172.5,-226.5367 1243.5,-226.5367 1243.5,-207.5367 1172.5,-207.5367"/>
<polygon fill="none" stroke="#000000" points="1172.5,-207.5367 1172.5,-226.5367 1243.5,-226.5367 1243.5,-207.5367 1172.5,-207.5367"/>
<text text-anchor="start" x="1175.5" y="-213.6367" font-family="Helvetica,sans-Serif" font-size="11.00" fill="#000000">&lt; 2</text>
<polygon fill="#ffffff" stroke="transparent" points="1243.5,-207.5367 1243.5,-226.5367 1331.5,-226.5367 1331.5,-207.5367 1243.5,-207.5367"/>
<polygon fill="none" stroke="#000000" points="1243.5,-207.5367 1243.5,-226.5367 1331.5,-226.5367 1331.5,-207.5367 1243.5,-207.5367"/>
<text text-anchor="start" x="1296.1105" y="-213.6367" font-family="Helvetica,sans-Serif" font-size="11.00" fill="#000000">4 rows</text>
<polygon fill="#ffffff" stroke="transparent" points="1331.5,-207.5367 1331.5,-226.5367 1381.5,-226.5367 1381.5,-207.5367 1331.5,-207.5367"/>
<polygon fill="none" stroke="#000000" points="1331.5,-207.5367 1331.5,-226.5367 1381.5,-226.5367 1381.5,-207.5367 1331.5,-207.5367"/>
<text text-anchor="start" x="1362.9053" y="-213.6367" font-family="Helvetica,sans-Serif" font-size="11.00" fill="#000000">0 &gt;</text>
<polygon fill="none" stroke="#000000" stroke-width="2" points="1171,-206.5367 1171,-294.5367 1382,-294.5367 1382,-206.5367 1171,-206.5367"/>
</a>
</g>
</g>
<!-- job_request_attachment&#45;&gt;file -->
<g id="edge48" class="edge">
<title>job_request_attachment:w&#45;&gt;file:e</title>
<path fill="none" stroke="#000000" d="M1158.3722,-233.4412C1141.6288,-220.2218 1156.9126,-178.6151 1129,-162.5367 1077.9715,-133.1429 645.1906,-126.0082 599,-162.5367 537.7389,-210.9834 636.6025,-333.5367 558.5,-333.5367"/>
<polygon fill="#000000" stroke="#000000" points="1164.8163,-235.3093 1171.4977,-240.9944 1168.6582,-236.423 1172.5,-237.5367 1172.5,-237.5367 1172.5,-237.5367 1168.6582,-236.423 1173.5023,-234.0791 1164.8163,-235.3093 1164.8163,-235.3093"/>
<ellipse fill="none" stroke="#000000" cx="1161.7429" cy="-234.4183" rx="3.2" ry="3.2"/>
</g>
<!-- job_request_attachment&#45;&gt;job_request -->
<g id="edge49" class="edge">
<title>job_request_attachment:w&#45;&gt;job_request:e</title>
<path fill="none" stroke="#000000" d="M1160.4825,-267.7789C1114.8341,-340.8769 1184.9881,-875.5367 1121,-875.5367"/>
<polygon fill="#000000" stroke="#000000" points="1165.9026,-264.0616 1174.5362,-262.5056 1169.2013,-261.7991 1172.5,-259.5367 1172.5,-259.5367 1172.5,-259.5367 1169.2013,-261.7991 1170.4638,-256.5679 1165.9026,-264.0616 1165.9026,-264.0616"/>
<ellipse fill="none" stroke="#000000" cx="1163.2636" cy="-265.8715" rx="3.2" ry="3.2"/>
</g>
<!-- job_request_language -->
<g id="node20" class="node">
<title>job_request_language</title>
<g id="a_node20"><a xlink:href="../../tables/job_request_language.html" xlink:title="job_request_language" target="_top">
<polygon fill="#ffffff" stroke="transparent" points="1201,-831.0367 1201,-892.0367 1352,-892.0367 1352,-831.0367 1201,-831.0367"/>
<polygon fill="#f5f5f5" stroke="transparent" points="1201.5,-868.5367 1201.5,-891.5367 1352.5,-891.5367 1352.5,-868.5367 1201.5,-868.5367"/>
<polygon fill="none" stroke="#000000" points="1201.5,-868.5367 1201.5,-891.5367 1352.5,-891.5367 1352.5,-868.5367 1201.5,-868.5367"/>
<text text-anchor="start" x="1206.088" y="-877.6367" font-family="Helvetica,sans-Serif" font-weight="bold" font-size="11.00" fill="#000000">job_request_language</text>
<text text-anchor="start" x="1318.0219" y="-876.6367" font-family="Helvetica,sans-Serif" font-size="11.00" fill="#000000">[table]</text>
<polygon fill="none" stroke="#000000" points="1201.5,-849.5367 1201.5,-868.5367 1352.5,-868.5367 1352.5,-849.5367 1201.5,-849.5367"/>
<text text-anchor="start" x="1204.5" y="-855.6367" font-family="Helvetica,sans-Serif" font-size="11.00" fill="#000000">...</text>
<polygon fill="#ffffff" stroke="transparent" points="1201.5,-830.5367 1201.5,-849.5367 1259.5,-849.5367 1259.5,-830.5367 1201.5,-830.5367"/>
<polygon fill="none" stroke="#000000" points="1201.5,-830.5367 1201.5,-849.5367 1259.5,-849.5367 1259.5,-830.5367 1201.5,-830.5367"/>
<text text-anchor="start" x="1204.5" y="-836.6367" font-family="Helvetica,sans-Serif" font-size="11.00" fill="#000000">&lt; 1</text>
<polygon fill="#ffffff" stroke="transparent" points="1259.5,-830.5367 1259.5,-849.5367 1321.5,-849.5367 1321.5,-830.5367 1259.5,-830.5367"/>
<polygon fill="none" stroke="#000000" points="1259.5,-830.5367 1259.5,-849.5367 1321.5,-849.5367 1321.5,-830.5367 1259.5,-830.5367"/>
<text text-anchor="start" x="1279.9956" y="-836.6367" font-family="Helvetica,sans-Serif" font-size="11.00" fill="#000000">32 rows</text>
<polygon fill="#ffffff" stroke="transparent" points="1321.5,-830.5367 1321.5,-849.5367 1352.5,-849.5367 1352.5,-830.5367 1321.5,-830.5367"/>
<polygon fill="none" stroke="#000000" points="1321.5,-830.5367 1321.5,-849.5367 1352.5,-849.5367 1352.5,-830.5367 1321.5,-830.5367"/>
<text text-anchor="start" x="1343.3862" y="-836.6367" font-family="Helvetica,sans-Serif" font-size="11.00" fill="#000000"> &#160;</text>
</a>
</g>
</g>
<!-- job_request_language&#45;&gt;job_request -->
<g id="edge50" class="edge">
<title>job_request_language:w&#45;&gt;job_request:e</title>
<path fill="none" stroke="#000000" d="M1186.9555,-859.5492C1162.1029,-863.209 1152.139,-875.5367 1121,-875.5367"/>
<polygon fill="#000000" stroke="#000000" points="1193.5193,-859.0923 1201.75,-862.128 1197.5097,-858.8145 1201.5,-858.5367 1201.5,-858.5367 1201.5,-858.5367 1197.5097,-858.8145 1201.25,-854.9454 1193.5193,-859.0923 1193.5193,-859.0923"/>
<ellipse fill="none" stroke="#000000" cx="1190.327" cy="-859.3146" rx="3.2" ry="3.2"/>
</g>
<!-- job_request_skill -->
<g id="node21" class="node">
<title>job_request_skill</title>
<g id="a_node21"><a xlink:href="../../tables/job_request_skill.html" xlink:title="job_request_skill" target="_top">
<polygon fill="#ffffff" stroke="transparent" points="1214.5,-40.0367 1214.5,-101.0367 1338.5,-101.0367 1338.5,-40.0367 1214.5,-40.0367"/>
<polygon fill="#f5f5f5" stroke="transparent" points="1214.5,-77.5367 1214.5,-100.5367 1338.5,-100.5367 1338.5,-77.5367 1214.5,-77.5367"/>
<polygon fill="none" stroke="#000000" points="1214.5,-77.5367 1214.5,-100.5367 1338.5,-100.5367 1338.5,-77.5367 1214.5,-77.5367"/>
<text text-anchor="start" x="1219.0492" y="-86.6367" font-family="Helvetica,sans-Serif" font-weight="bold" font-size="11.00" fill="#000000">job_request_skill</text>
<text text-anchor="start" x="1304.0219" y="-85.6367" font-family="Helvetica,sans-Serif" font-size="11.00" fill="#000000">[table]</text>
<polygon fill="none" stroke="#000000" points="1214.5,-58.5367 1214.5,-77.5367 1338.5,-77.5367 1338.5,-58.5367 1214.5,-58.5367"/>
<text text-anchor="start" x="1217.5" y="-64.6367" font-family="Helvetica,sans-Serif" font-size="11.00" fill="#000000">...</text>
<polygon fill="#ffffff" stroke="transparent" points="1214.5,-39.5367 1214.5,-58.5367 1255.5,-58.5367 1255.5,-39.5367 1214.5,-39.5367"/>
<polygon fill="none" stroke="#000000" points="1214.5,-39.5367 1214.5,-58.5367 1255.5,-58.5367 1255.5,-39.5367 1214.5,-39.5367"/>
<text text-anchor="start" x="1217.5" y="-45.6367" font-family="Helvetica,sans-Serif" font-size="11.00" fill="#000000">&lt; 4</text>
<polygon fill="#ffffff" stroke="transparent" points="1255.5,-39.5367 1255.5,-58.5367 1315.5,-58.5367 1315.5,-39.5367 1255.5,-39.5367"/>
<polygon fill="none" stroke="#000000" points="1255.5,-39.5367 1255.5,-58.5367 1315.5,-58.5367 1315.5,-39.5367 1255.5,-39.5367"/>
<text text-anchor="start" x="1267.8807" y="-45.6367" font-family="Helvetica,sans-Serif" font-size="11.00" fill="#000000">494 rows</text>
<polygon fill="#ffffff" stroke="transparent" points="1315.5,-39.5367 1315.5,-58.5367 1338.5,-58.5367 1338.5,-39.5367 1315.5,-39.5367"/>
<polygon fill="none" stroke="#000000" points="1315.5,-39.5367 1315.5,-58.5367 1338.5,-58.5367 1338.5,-39.5367 1315.5,-39.5367"/>
<text text-anchor="start" x="1329.3862" y="-45.6367" font-family="Helvetica,sans-Serif" font-size="11.00" fill="#000000"> &#160;</text>
</a>
</g>
</g>
<!-- job_request_skill&#45;&gt;principal -->
<g id="edge51" class="edge">
<title>job_request_skill:w&#45;&gt;principal:e</title>
<path fill="none" stroke="#000000" d="M1199.6943,-67.5711C1050.2245,-68.275 1007.5922,-79.5367 851,-79.5367 851,-79.5367 851,-79.5367 677,-79.5367 592.2897,-79.5367 431.7049,-222.5849 427,-230.5367 383.5247,-304.0149 471.3764,-612.5367 386,-612.5367"/>
<polygon fill="#000000" stroke="#000000" points="1206.5,-67.5554 1214.5084,-71.1367 1210.5,-67.546 1214.5,-67.5367 1214.5,-67.5367 1214.5,-67.5367 1210.5,-67.546 1214.4916,-63.9367 1206.5,-67.5554 1206.5,-67.5554"/>
<ellipse fill="none" stroke="#000000" cx="1203.3" cy="-67.5628" rx="3.2" ry="3.2"/>
</g>
<!-- job_request_skill&#45;&gt;principal -->
<g id="edge53" class="edge">
<title>job_request_skill:w&#45;&gt;principal:e</title>
<path fill="none" stroke="#000000" d="M1199.8858,-67.4585C849.9008,-63.7322 604.5155,70.4565 427,-234.5367 384.4976,-307.5611 470.4927,-612.5367 386,-612.5367"/>
<polygon fill="#000000" stroke="#000000" points="1206.5001,-67.4938 1214.4807,-71.1367 1210.5001,-67.5153 1214.5,-67.5367 1214.5,-67.5367 1214.5,-67.5367 1210.5001,-67.5153 1214.5193,-63.9368 1206.5001,-67.4938 1206.5001,-67.4938"/>
<ellipse fill="none" stroke="#000000" cx="1203.3002" cy="-67.4767" rx="3.2" ry="3.2"/>
</g>
<!-- job_request_skill&#45;&gt;job_request -->
<g id="edge52" class="edge">
<title>job_request_skill:w&#45;&gt;job_request:e</title>
<path fill="none" stroke="#000000" d="M1200.1562,-69.0622C1156.7192,-79.4373 1174.4977,-140.863 1162,-195.5367 1153.5663,-232.4315 1158.8464,-875.5367 1121,-875.5367"/>
<polygon fill="#000000" stroke="#000000" points="1206.5449,-68.3828 1214.8807,-71.1165 1210.5224,-67.9598 1214.5,-67.5367 1214.5,-67.5367 1214.5,-67.5367 1210.5224,-67.9598 1214.1193,-63.9569 1206.5449,-68.3828 1206.5449,-68.3828"/>
<ellipse fill="none" stroke="#000000" cx="1203.3628" cy="-68.7212" rx="3.2" ry="3.2"/>
</g>
<!-- presentation -->
<g id="node22" class="node">
<title>presentation</title>
<g id="a_node22"><a xlink:href="../../tables/presentation.html" xlink:title="presentation" target="_top">
<polygon fill="#ffffff" stroke="transparent" points="1225,-913.0367 1225,-974.0367 1328,-974.0367 1328,-913.0367 1225,-913.0367"/>
<polygon fill="#f5f5f5" stroke="transparent" points="1225.5,-950.5367 1225.5,-973.5367 1328.5,-973.5367 1328.5,-950.5367 1225.5,-950.5367"/>
<polygon fill="none" stroke="#000000" points="1225.5,-950.5367 1225.5,-973.5367 1328.5,-973.5367 1328.5,-950.5367 1225.5,-950.5367"/>
<text text-anchor="start" x="1230.2396" y="-959.6367" font-family="Helvetica,sans-Serif" font-weight="bold" font-size="11.00" fill="#000000">presentation</text>
<text text-anchor="start" x="1294.0219" y="-958.6367" font-family="Helvetica,sans-Serif" font-size="11.00" fill="#000000">[table]</text>
<polygon fill="none" stroke="#000000" points="1225.5,-931.5367 1225.5,-950.5367 1328.5,-950.5367 1328.5,-931.5367 1225.5,-931.5367"/>
<text text-anchor="start" x="1228.5" y="-937.6367" font-family="Helvetica,sans-Serif" font-size="11.00" fill="#000000">...</text>
<polygon fill="#ffffff" stroke="transparent" points="1225.5,-912.5367 1225.5,-931.5367 1254.5,-931.5367 1254.5,-912.5367 1225.5,-912.5367"/>
<polygon fill="none" stroke="#000000" points="1225.5,-912.5367 1225.5,-931.5367 1254.5,-931.5367 1254.5,-912.5367 1225.5,-912.5367"/>
<text text-anchor="start" x="1228.5" y="-918.6367" font-family="Helvetica,sans-Serif" font-size="11.00" fill="#000000">&lt; 5</text>
<polygon fill="#ffffff" stroke="transparent" points="1254.5,-912.5367 1254.5,-931.5367 1302.5,-931.5367 1302.5,-912.5367 1254.5,-912.5367"/>
<polygon fill="none" stroke="#000000" points="1254.5,-912.5367 1254.5,-931.5367 1302.5,-931.5367 1302.5,-912.5367 1254.5,-912.5367"/>
<text text-anchor="start" x="1260.9956" y="-918.6367" font-family="Helvetica,sans-Serif" font-size="11.00" fill="#000000">16 rows</text>
<polygon fill="#ffffff" stroke="transparent" points="1302.5,-912.5367 1302.5,-931.5367 1328.5,-931.5367 1328.5,-912.5367 1302.5,-912.5367"/>
<polygon fill="none" stroke="#000000" points="1302.5,-912.5367 1302.5,-931.5367 1328.5,-931.5367 1328.5,-912.5367 1302.5,-912.5367"/>
<text text-anchor="start" x="1309.9053" y="-918.6367" font-family="Helvetica,sans-Serif" font-size="11.00" fill="#000000">2 &gt;</text>
</a>
</g>
</g>
<!-- presentation&#45;&gt;client -->
<g id="edge58" class="edge">
<title>presentation:w&#45;&gt;client:e</title>
<path fill="none" stroke="#000000" d="M1210.8293,-939.8397C1058.6351,-924.5699 1226.45,-662.6742 1129,-574.5367 1069.0083,-520.2779 1019.1537,-537.9737 947,-574.5367 924.8769,-585.7474 935.7606,-607.6377 914,-619.5367 839.3723,-660.3444 808.0563,-631.5367 723,-631.5367"/>
<polygon fill="#000000" stroke="#000000" points="1217.509,-940.157 1225.3291,-944.1327 1221.5045,-940.3468 1225.5,-940.5367 1225.5,-940.5367 1225.5,-940.5367 1221.5045,-940.3468 1225.6709,-936.9408 1217.509,-940.157 1217.509,-940.157"/>
<ellipse fill="none" stroke="#000000" cx="1214.3126" cy="-940.0051" rx="3.2" ry="3.2"/>
</g>
<!-- presentation&#45;&gt;eworker -->
<g id="edge57" class="edge">
<title>presentation:w&#45;&gt;eworker:e</title>
<path fill="none" stroke="#000000" d="M1210.9398,-941.2087C1178.8498,-944.3437 1167.3445,-957.5881 1129,-962.5367 895.2618,-992.7023 819.0452,-1029.9383 599,-945.5367 440.954,-884.9158 413.9897,-839.3161 286,-728.5367 265.7894,-711.0438 271.7296,-684.5367 245,-684.5367"/>
<polygon fill="#000000" stroke="#000000" points="1217.5085,-940.9056 1225.666,-944.1329 1221.5043,-940.7212 1225.5,-940.5367 1225.5,-940.5367 1225.5,-940.5367 1221.5043,-940.7212 1225.334,-936.9405 1217.5085,-940.9056 1217.5085,-940.9056"/>
<ellipse fill="none" stroke="#000000" cx="1214.3119" cy="-941.0531" rx="3.2" ry="3.2"/>
</g>
<!-- presentation&#45;&gt;principal -->
<g id="edge54" class="edge">
<title>presentation:w&#45;&gt;principal:e</title>
<path fill="none" stroke="#000000" d="M1210.8972,-940.6193C1062.3799,-942.1824 721.0309,-964.7712 599,-907.5367 497.0607,-859.7255 486.1436,-817.3467 427,-721.5367 399.8125,-677.4941 437.7582,-612.5367 386,-612.5367"/>
<polygon fill="#000000" stroke="#000000" points="1217.5001,-940.582 1225.5204,-944.1367 1221.5001,-940.5594 1225.5,-940.5367 1225.5,-940.5367 1225.5,-940.5367 1221.5001,-940.5594 1225.4796,-936.9368 1217.5001,-940.582 1217.5001,-940.582"/>
<ellipse fill="none" stroke="#000000" cx="1214.3002" cy="-940.6001" rx="3.2" ry="3.2"/>
</g>
<!-- presentation&#45;&gt;principal -->
<g id="edge56" class="edge">
<title>presentation:w&#45;&gt;principal:e</title>
<path fill="none" stroke="#000000" d="M1210.9591,-940.6114C943.1675,-943.3659 846.7229,-1020.6859 599,-903.5367 497.2134,-855.4014 486.741,-812.9754 427,-717.5367 400.4187,-675.0719 436.0982,-612.5367 386,-612.5367"/>
<polygon fill="#000000" stroke="#000000" points="1217.5001,-940.5779 1225.5185,-944.1367 1221.5001,-940.5573 1225.5,-940.5367 1225.5,-940.5367 1225.5,-940.5367 1221.5001,-940.5573 1225.4815,-936.9368 1217.5001,-940.5779 1217.5001,-940.5779"/>
<ellipse fill="none" stroke="#000000" cx="1214.3001" cy="-940.5943" rx="3.2" ry="3.2"/>
</g>
<!-- presentation&#45;&gt;job_request -->
<g id="edge55" class="edge">
<title>presentation:w&#45;&gt;job_request:e</title>
<path fill="none" stroke="#000000" d="M1215.0897,-939.7297C1191.6192,-935.7718 1186.5879,-917.9798 1162,-902.5367 1143.5235,-890.9321 1142.8186,-875.5367 1121,-875.5367"/>
<polygon fill="#000000" stroke="#000000" points="1225.0116,-936.4868 1224.3932,-944.4629 1222.798,-944.3392 1223.4164,-936.3632 1225.0116,-936.4868"/>
<polyline fill="none" stroke="#000000" points="1225.5,-940.5367 1221.512,-940.2275 "/>
<ellipse fill="none" stroke="#000000" cx="1218.3215" cy="-939.9802" rx="3.2" ry="3.2"/>
</g>
</g>
</svg>
