<?xml version="1.0" encoding="UTF-8" standalone="no"?>
<!DOCTYPE svg PUBLIC "-//W3C//DTD SVG 1.1//EN"
 "http://www.w3.org/Graphics/SVG/1.1/DTD/svg11.dtd">
<!-- Generated by graphviz version 2.40.1 (20161225.0304)
 -->
<!-- Title: twoDegreesRelationshipsDiagram Pages: 1 -->
<svg width="1088pt" height="519pt"
 viewBox="0.00 0.00 1088.00 518.64" xmlns="http://www.w3.org/2000/svg" xmlns:xlink="http://www.w3.org/1999/xlink">
<g id="graph0" class="graph" transform="scale(1 1) rotate(0) translate(4 514.6434)">
<title>twoDegreesRelationshipsDiagram</title>
<polygon fill="#ffffff" stroke="transparent" points="-4,4 -4,-514.6434 1084,-514.6434 1084,4 -4,4"/>
<text text-anchor="middle" x="72.4936" y="-7.3" font-family="Helvetica,sans-Serif" font-size="11.00" fill="#000000">Generated by SchemaSpy</text>
<!-- applicant -->
<g id="node1" class="node">
<title>applicant</title>
<g id="a_node1"><a xlink:href="../../tables/applicant.html" xlink:title="applicant" target="_top">
<polygon fill="#ffffff" stroke="transparent" points="439,-177.6434 439,-238.6434 526,-238.6434 526,-177.6434 439,-177.6434"/>
<polygon fill="#f5f5f5" stroke="transparent" points="439.5,-215.1434 439.5,-238.1434 526.5,-238.1434 526.5,-215.1434 439.5,-215.1434"/>
<polygon fill="none" stroke="#000000" points="439.5,-215.1434 439.5,-238.1434 526.5,-238.1434 526.5,-215.1434 439.5,-215.1434"/>
<text text-anchor="start" x="444.4934" y="-224.2434" font-family="Helvetica,sans-Serif" font-weight="bold" font-size="11.00" fill="#000000">applicant</text>
<text text-anchor="start" x="492.0219" y="-223.2434" font-family="Helvetica,sans-Serif" font-size="11.00" fill="#000000">[table]</text>
<polygon fill="none" stroke="#000000" points="439.5,-196.1434 439.5,-215.1434 526.5,-215.1434 526.5,-196.1434 439.5,-196.1434"/>
<text text-anchor="start" x="442.5" y="-202.2434" font-family="Helvetica,sans-Serif" font-size="11.00" fill="#000000">...</text>
<polygon fill="#ffffff" stroke="transparent" points="439.5,-177.1434 439.5,-196.1434 460.5,-196.1434 460.5,-177.1434 439.5,-177.1434"/>
<polygon fill="none" stroke="#000000" points="439.5,-177.1434 439.5,-196.1434 460.5,-196.1434 460.5,-177.1434 439.5,-177.1434"/>
<text text-anchor="start" x="442.2027" y="-183.2434" font-family="Helvetica,sans-Serif" font-size="11.00" fill="#000000">&lt; 4</text>
<polygon fill="#ffffff" stroke="transparent" points="460.5,-177.1434 460.5,-196.1434 504.5,-196.1434 504.5,-177.1434 460.5,-177.1434"/>
<polygon fill="none" stroke="#000000" points="460.5,-177.1434 460.5,-196.1434 504.5,-196.1434 504.5,-177.1434 460.5,-177.1434"/>
<text text-anchor="start" x="463.2478" y="-183.2434" font-family="Helvetica,sans-Serif" font-size="11.00" fill="#000000">90 rows</text>
<polygon fill="#ffffff" stroke="transparent" points="504.5,-177.1434 504.5,-196.1434 526.5,-196.1434 526.5,-177.1434 504.5,-177.1434"/>
<polygon fill="none" stroke="#000000" points="504.5,-177.1434 504.5,-196.1434 526.5,-196.1434 526.5,-177.1434 504.5,-177.1434"/>
<text text-anchor="start" x="507.9053" y="-183.2434" font-family="Helvetica,sans-Serif" font-size="11.00" fill="#000000">5 &gt;</text>
</a>
</g>
</g>
<!-- file -->
<g id="node2" class="node">
<title>file</title>
<g id="a_node2"><a xlink:href="../../tables/file.html" xlink:title="file" target="_top">
<polygon fill="#ffffff" stroke="transparent" points="150,-125.6434 150,-186.6434 248,-186.6434 248,-125.6434 150,-125.6434"/>
<polygon fill="#f5f5f5" stroke="transparent" points="150,-163.1434 150,-186.1434 248,-186.1434 248,-163.1434 150,-163.1434"/>
<polygon fill="none" stroke="#000000" points="150,-163.1434 150,-186.1434 248,-186.1434 248,-163.1434 150,-163.1434"/>
<text text-anchor="start" x="155" y="-172.2434" font-family="Helvetica,sans-Serif" font-weight="bold" font-size="11.00" fill="#000000">file</text>
<text text-anchor="start" x="213.0437" y="-171.2434" font-family="Helvetica,sans-Serif" font-size="11.00" fill="#000000">[table]</text>
<polygon fill="none" stroke="#000000" points="150,-144.1434 150,-163.1434 248,-163.1434 248,-144.1434 150,-144.1434"/>
<text text-anchor="start" x="153" y="-150.2434" font-family="Helvetica,sans-Serif" font-size="11.00" fill="#000000">...</text>
<polygon fill="#ffffff" stroke="transparent" points="150,-125.1434 150,-144.1434 171,-144.1434 171,-125.1434 150,-125.1434"/>
<polygon fill="none" stroke="#000000" points="150,-125.1434 150,-144.1434 171,-144.1434 171,-125.1434 150,-125.1434"/>
<text text-anchor="start" x="152.7027" y="-131.2434" font-family="Helvetica,sans-Serif" font-size="11.00" fill="#000000">&lt; 2</text>
<polygon fill="#ffffff" stroke="transparent" points="171,-125.1434 171,-144.1434 221,-144.1434 221,-125.1434 171,-125.1434"/>
<polygon fill="none" stroke="#000000" points="171,-125.1434 171,-144.1434 221,-144.1434 221,-125.1434 171,-125.1434"/>
<text text-anchor="start" x="173.6904" y="-131.2434" font-family="Helvetica,sans-Serif" font-size="11.00" fill="#000000">590 rows</text>
<polygon fill="#ffffff" stroke="transparent" points="221,-125.1434 221,-144.1434 248,-144.1434 248,-125.1434 221,-125.1434"/>
<polygon fill="none" stroke="#000000" points="221,-125.1434 221,-144.1434 248,-144.1434 248,-125.1434 221,-125.1434"/>
<text text-anchor="start" x="223.6452" y="-131.2434" font-family="Helvetica,sans-Serif" font-size="11.00" fill="#000000">13 &gt;</text>
</a>
</g>
</g>
<!-- applicant&#45;&gt;file -->
<g id="edge1" class="edge">
<title>applicant:w&#45;&gt;file:e</title>
<path fill="none" stroke="#000000" d="M425.2752,-201.4869C381.2584,-189.6506 250.3093,-153.1434 248,-153.1434"/>
<polygon fill="#000000" stroke="#000000" points="431.7519,-203.1517 438.6037,-208.6301 435.6259,-204.1476 439.5,-205.1434 439.5,-205.1434 439.5,-205.1434 435.6259,-204.1476 440.3963,-201.6568 431.7519,-203.1517 431.7519,-203.1517"/>
<ellipse fill="none" stroke="#000000" cx="428.6526" cy="-202.355" rx="3.2" ry="3.2"/>
</g>
<!-- supplier -->
<g id="node3" class="node">
<title>supplier</title>
<g id="a_node3"><a xlink:href="../../tables/supplier.html" xlink:title="supplier" target="_top">
<polygon fill="#ffffff" stroke="transparent" points="298,-204.6434 298,-265.6434 390,-265.6434 390,-204.6434 298,-204.6434"/>
<polygon fill="#f5f5f5" stroke="transparent" points="298,-242.1434 298,-265.1434 390,-265.1434 390,-242.1434 298,-242.1434"/>
<polygon fill="none" stroke="#000000" points="298,-242.1434 298,-265.1434 390,-265.1434 390,-242.1434 298,-242.1434"/>
<text text-anchor="start" x="303" y="-251.2434" font-family="Helvetica,sans-Serif" font-weight="bold" font-size="11.00" fill="#000000">supplier</text>
<text text-anchor="start" x="355.0437" y="-250.2434" font-family="Helvetica,sans-Serif" font-size="11.00" fill="#000000">[table]</text>
<polygon fill="none" stroke="#000000" points="298,-223.1434 298,-242.1434 390,-242.1434 390,-223.1434 298,-223.1434"/>
<text text-anchor="start" x="301" y="-229.2434" font-family="Helvetica,sans-Serif" font-size="11.00" fill="#000000">...</text>
<polygon fill="#ffffff" stroke="transparent" points="298,-204.1434 298,-223.1434 319,-223.1434 319,-204.1434 298,-204.1434"/>
<polygon fill="none" stroke="#000000" points="298,-204.1434 298,-223.1434 319,-223.1434 319,-204.1434 298,-204.1434"/>
<text text-anchor="start" x="300.7027" y="-210.2434" font-family="Helvetica,sans-Serif" font-size="11.00" fill="#000000">&lt; 3</text>
<polygon fill="#ffffff" stroke="transparent" points="319,-204.1434 319,-223.1434 369,-223.1434 369,-204.1434 319,-204.1434"/>
<polygon fill="none" stroke="#000000" points="319,-204.1434 319,-223.1434 369,-223.1434 369,-204.1434 319,-204.1434"/>
<text text-anchor="start" x="321.6904" y="-210.2434" font-family="Helvetica,sans-Serif" font-size="11.00" fill="#000000">201 rows</text>
<polygon fill="#ffffff" stroke="transparent" points="369,-204.1434 369,-223.1434 390,-223.1434 390,-204.1434 369,-204.1434"/>
<polygon fill="none" stroke="#000000" points="369,-204.1434 369,-223.1434 390,-223.1434 390,-204.1434 369,-204.1434"/>
<text text-anchor="start" x="371.7027" y="-210.2434" font-family="Helvetica,sans-Serif" font-size="11.00" fill="#000000">4 &gt;</text>
</a>
</g>
</g>
<!-- applicant&#45;&gt;supplier -->
<g id="edge2" class="edge">
<title>applicant:w&#45;&gt;supplier:e</title>
<path fill="none" stroke="#000000" d="M425.4504,-208.8977C413.32,-216.3165 409.1865,-232.1434 390,-232.1434"/>
<polygon fill="#000000" stroke="#000000" points="431.7712,-207.2087 440.4294,-208.6214 435.6356,-206.1761 439.5,-205.1434 439.5,-205.1434 439.5,-205.1434 435.6356,-206.1761 438.5706,-201.6654 431.7712,-207.2087 431.7712,-207.2087"/>
<ellipse fill="none" stroke="#000000" cx="428.6796" cy="-208.0348" rx="3.2" ry="3.2"/>
</g>
<!-- principal -->
<g id="node6" class="node">
<title>principal</title>
<g id="a_node6"><a xlink:href="../../tables/principal.html" xlink:title="principal" target="_top">
<polygon fill="#ffffff" stroke="transparent" points="8,-189.6434 8,-250.6434 100,-250.6434 100,-189.6434 8,-189.6434"/>
<polygon fill="#f5f5f5" stroke="transparent" points="8,-227.1434 8,-250.1434 100,-250.1434 100,-227.1434 8,-227.1434"/>
<polygon fill="none" stroke="#000000" points="8,-227.1434 8,-250.1434 100,-250.1434 100,-227.1434 8,-227.1434"/>
<text text-anchor="start" x="13" y="-236.2434" font-family="Helvetica,sans-Serif" font-weight="bold" font-size="11.00" fill="#000000">principal</text>
<text text-anchor="start" x="65.0437" y="-235.2434" font-family="Helvetica,sans-Serif" font-size="11.00" fill="#000000">[table]</text>
<polygon fill="none" stroke="#000000" points="8,-208.1434 8,-227.1434 100,-227.1434 100,-208.1434 8,-208.1434"/>
<text text-anchor="start" x="11" y="-214.2434" font-family="Helvetica,sans-Serif" font-size="11.00" fill="#000000">...</text>
<polygon fill="#ffffff" stroke="transparent" points="8,-189.1434 8,-208.1434 29,-208.1434 29,-189.1434 8,-189.1434"/>
<polygon fill="none" stroke="#000000" points="8,-189.1434 8,-208.1434 29,-208.1434 29,-189.1434 8,-189.1434"/>
<text text-anchor="start" x="10.7027" y="-195.2434" font-family="Helvetica,sans-Serif" font-size="11.00" fill="#000000">&lt; 1</text>
<polygon fill="#ffffff" stroke="transparent" points="29,-189.1434 29,-208.1434 73,-208.1434 73,-189.1434 29,-189.1434"/>
<polygon fill="none" stroke="#000000" points="29,-189.1434 29,-208.1434 73,-208.1434 73,-189.1434 29,-189.1434"/>
<text text-anchor="start" x="31.7478" y="-195.2434" font-family="Helvetica,sans-Serif" font-size="11.00" fill="#000000">18 rows</text>
<polygon fill="#ffffff" stroke="transparent" points="73,-189.1434 73,-208.1434 100,-208.1434 100,-189.1434 73,-189.1434"/>
<polygon fill="none" stroke="#000000" points="73,-189.1434 73,-208.1434 100,-208.1434 100,-189.1434 73,-189.1434"/>
<text text-anchor="start" x="75.6452" y="-195.2434" font-family="Helvetica,sans-Serif" font-size="11.00" fill="#000000">56 &gt;</text>
</a>
</g>
</g>
<!-- file&#45;&gt;principal -->
<g id="edge4" class="edge">
<title>file:w&#45;&gt;principal:e</title>
<path fill="none" stroke="#000000" d="M135.5116,-155.9468C119.9973,-168.2707 129.6099,-212.2215 100,-217.1434"/>
<polygon fill="#000000" stroke="#000000" points="142.1457,-154.6632 150.6839,-156.6779 146.0728,-153.9033 150,-153.1434 150,-153.1434 150,-153.1434 146.0728,-153.9033 149.3161,-149.609 142.1457,-154.6632 142.1457,-154.6632"/>
<ellipse fill="none" stroke="#000000" cx="139.004" cy="-155.2711" rx="3.2" ry="3.2"/>
</g>
<!-- file&#45;&gt;principal -->
<g id="edge5" class="edge">
<title>file:w&#45;&gt;principal:e</title>
<path fill="none" stroke="#000000" d="M137.1492,-159.8587C119.3129,-177.9956 130.5969,-223.077 100,-217.1434"/>
<polygon fill="#000000" stroke="#000000" points="142.9097,-156.8486 151.6673,-156.3341 146.4549,-154.996 150,-153.1434 150,-153.1434 150,-153.1434 146.4549,-154.996 148.3327,-149.9528 142.9097,-156.8486 142.9097,-156.8486"/>
<ellipse fill="none" stroke="#000000" cx="140.0736" cy="-158.3306" rx="3.2" ry="3.2"/>
</g>
<!-- supplier&#45;&gt;file -->
<g id="edge22" class="edge">
<title>supplier:w&#45;&gt;file:e</title>
<path fill="none" stroke="#000000" d="M284.2109,-227.6697C264.4573,-210.9577 283.5469,-153.1434 248,-153.1434"/>
<polygon fill="#000000" stroke="#000000" points="290.3905,-229.6746 296.889,-235.5677 294.1952,-230.909 298,-232.1434 298,-232.1434 298,-232.1434 294.1952,-230.909 299.111,-228.7191 290.3905,-229.6746 290.3905,-229.6746"/>
<ellipse fill="none" stroke="#000000" cx="287.3467" cy="-228.687" rx="3.2" ry="3.2"/>
</g>
<!-- supplier&#45;&gt;principal -->
<g id="edge21" class="edge">
<title>supplier:w&#45;&gt;principal:e</title>
<path fill="none" stroke="#000000" d="M283.1476,-231.995C206.9996,-230.4371 183.0811,-217.1434 100,-217.1434"/>
<polygon fill="#000000" stroke="#000000" points="290.0004,-232.0634 297.964,-235.7432 294.0002,-232.1034 298,-232.1434 298,-232.1434 298,-232.1434 294.0002,-232.1034 298.036,-228.5436 290.0004,-232.0634 290.0004,-232.0634"/>
<ellipse fill="none" stroke="#000000" cx="286.8006" cy="-232.0314" rx="3.2" ry="3.2"/>
</g>
<!-- supplier&#45;&gt;principal -->
<g id="edge23" class="edge">
<title>supplier:w&#45;&gt;principal:e</title>
<path fill="none" stroke="#000000" d="M283.1476,-231.995C206.9996,-230.4371 183.0811,-217.1434 100,-217.1434"/>
<polygon fill="#000000" stroke="#000000" points="290.0004,-232.0634 297.964,-235.7432 294.0002,-232.1034 298,-232.1434 298,-232.1434 298,-232.1434 294.0002,-232.1034 298.036,-228.5436 290.0004,-232.0634 290.0004,-232.0634"/>
<ellipse fill="none" stroke="#000000" cx="286.8006" cy="-232.0314" rx="3.2" ry="3.2"/>
</g>
<!-- feedback -->
<g id="node4" class="node">
<title>feedback</title>
<g id="a_node4"><a xlink:href="../../tables/feedback.html" xlink:title="feedback" target="_top">
<polygon fill="#ffffff" stroke="transparent" points="884,-445.6434 884,-506.6434 971,-506.6434 971,-445.6434 884,-445.6434"/>
<polygon fill="#f5f5f5" stroke="transparent" points="884.5,-483.1434 884.5,-506.1434 971.5,-506.1434 971.5,-483.1434 884.5,-483.1434"/>
<polygon fill="none" stroke="#000000" points="884.5,-483.1434 884.5,-506.1434 971.5,-506.1434 971.5,-483.1434 884.5,-483.1434"/>
<text text-anchor="start" x="889.1843" y="-492.2434" font-family="Helvetica,sans-Serif" font-weight="bold" font-size="11.00" fill="#000000">feedback</text>
<text text-anchor="start" x="937.0219" y="-491.2434" font-family="Helvetica,sans-Serif" font-size="11.00" fill="#000000">[table]</text>
<polygon fill="none" stroke="#000000" points="884.5,-464.1434 884.5,-483.1434 971.5,-483.1434 971.5,-464.1434 884.5,-464.1434"/>
<text text-anchor="start" x="887.5" y="-470.2434" font-family="Helvetica,sans-Serif" font-size="11.00" fill="#000000">...</text>
<polygon fill="#ffffff" stroke="transparent" points="884.5,-445.1434 884.5,-464.1434 905.5,-464.1434 905.5,-445.1434 884.5,-445.1434"/>
<polygon fill="none" stroke="#000000" points="884.5,-445.1434 884.5,-464.1434 905.5,-464.1434 905.5,-445.1434 884.5,-445.1434"/>
<text text-anchor="start" x="887.2027" y="-451.2434" font-family="Helvetica,sans-Serif" font-size="11.00" fill="#000000">&lt; 1</text>
<polygon fill="#ffffff" stroke="transparent" points="905.5,-445.1434 905.5,-464.1434 949.5,-464.1434 949.5,-445.1434 905.5,-445.1434"/>
<polygon fill="none" stroke="#000000" points="905.5,-445.1434 905.5,-464.1434 949.5,-464.1434 949.5,-445.1434 905.5,-445.1434"/>
<text text-anchor="start" x="908.2478" y="-451.2434" font-family="Helvetica,sans-Serif" font-size="11.00" fill="#000000">60 rows</text>
<polygon fill="#ffffff" stroke="transparent" points="949.5,-445.1434 949.5,-464.1434 971.5,-464.1434 971.5,-445.1434 949.5,-445.1434"/>
<polygon fill="none" stroke="#000000" points="949.5,-445.1434 949.5,-464.1434 971.5,-464.1434 971.5,-445.1434 949.5,-445.1434"/>
<text text-anchor="start" x="952.9053" y="-451.2434" font-family="Helvetica,sans-Serif" font-size="11.00" fill="#000000">1 &gt;</text>
</a>
</g>
</g>
<!-- job_request_application -->
<g id="node5" class="node">
<title>job_request_application</title>
<g id="a_node5"><a xlink:href="../../tables/job_request_application.html" xlink:title="job_request_application" target="_top">
<polygon fill="#ffffff" stroke="transparent" points="575,-150.6434 575,-387.6434 734,-387.6434 734,-150.6434 575,-150.6434"/>
<polygon fill="#f5f5f5" stroke="transparent" points="575.5,-364.1434 575.5,-387.1434 734.5,-387.1434 734.5,-364.1434 575.5,-364.1434"/>
<polygon fill="none" stroke="#000000" points="575.5,-364.1434 575.5,-387.1434 734.5,-387.1434 734.5,-364.1434 575.5,-364.1434"/>
<text text-anchor="start" x="580.4261" y="-373.2434" font-family="Helvetica,sans-Serif" font-weight="bold" font-size="11.00" fill="#000000">job_request_application</text>
<text text-anchor="start" x="700.0219" y="-372.2434" font-family="Helvetica,sans-Serif" font-size="11.00" fill="#000000">[table]</text>
<polygon fill="none" stroke="#000000" points="575.5,-342.1434 575.5,-364.1434 734.5,-364.1434 734.5,-342.1434 575.5,-342.1434"/>
<image xlink:href="../../images/primaryKeys.png" width="11px" height="12px" preserveAspectRatio="xMinYMin meet" x="580.5" y="-359.143"/>
<text text-anchor="start" x="595.5" y="-349.2434" font-family="Helvetica,sans-Serif" font-size="11.00" fill="#000000">id</text>
<polygon fill="#ffffff" stroke="transparent" points="575.5,-320.1434 575.5,-342.1434 734.5,-342.1434 734.5,-320.1434 575.5,-320.1434"/>
<polygon fill="none" stroke="#000000" points="575.5,-320.1434 575.5,-342.1434 734.5,-342.1434 734.5,-320.1434 575.5,-320.1434"/>
<image xlink:href="../../images/foreignKeys.png" width="11px" height="12px" preserveAspectRatio="xMinYMin meet" x="580.5" y="-337.143"/>
<text text-anchor="start" x="595.5" y="-327.2434" font-family="Helvetica,sans-Serif" font-size="11.00" fill="#000000">created_by</text>
<polygon fill="#ffffff" stroke="transparent" points="575.5,-298.1434 575.5,-320.1434 734.5,-320.1434 734.5,-298.1434 575.5,-298.1434"/>
<polygon fill="none" stroke="#000000" points="575.5,-298.1434 575.5,-320.1434 734.5,-320.1434 734.5,-298.1434 575.5,-298.1434"/>
<image xlink:href="../../images/foreignKeys.png" width="11px" height="12px" preserveAspectRatio="xMinYMin meet" x="580.5" y="-315.143"/>
<text text-anchor="start" x="595.5" y="-305.2434" font-family="Helvetica,sans-Serif" font-size="11.00" fill="#000000">modified_by</text>
<polygon fill="#ffffff" stroke="transparent" points="575.5,-276.1434 575.5,-298.1434 734.5,-298.1434 734.5,-276.1434 575.5,-276.1434"/>
<polygon fill="none" stroke="#000000" points="575.5,-276.1434 575.5,-298.1434 734.5,-298.1434 734.5,-276.1434 575.5,-276.1434"/>
<image xlink:href="../../images/foreignKeys.png" width="11px" height="12px" preserveAspectRatio="xMinYMin meet" x="580.5" y="-293.143"/>
<text text-anchor="start" x="595.5" y="-283.2434" font-family="Helvetica,sans-Serif" font-size="11.00" fill="#000000">job_request_id</text>
<polygon fill="#ffffff" stroke="transparent" points="575.5,-254.1434 575.5,-276.1434 734.5,-276.1434 734.5,-254.1434 575.5,-254.1434"/>
<polygon fill="none" stroke="#000000" points="575.5,-254.1434 575.5,-276.1434 734.5,-276.1434 734.5,-254.1434 575.5,-254.1434"/>
<image xlink:href="../../images/foreignKeys.png" width="11px" height="12px" preserveAspectRatio="xMinYMin meet" x="580.5" y="-271.143"/>
<text text-anchor="start" x="595.5" y="-261.2434" font-family="Helvetica,sans-Serif" font-size="11.00" fill="#000000">supplier_id</text>
<polygon fill="#ffffff" stroke="transparent" points="575.5,-232.1434 575.5,-254.1434 734.5,-254.1434 734.5,-232.1434 575.5,-232.1434"/>
<polygon fill="none" stroke="#000000" points="575.5,-232.1434 575.5,-254.1434 734.5,-254.1434 734.5,-232.1434 575.5,-232.1434"/>
<text text-anchor="start" x="595.5" y="-239.2434" font-family="Helvetica,sans-Serif" font-size="11.00" fill="#000000">marketplace_id</text>
<polygon fill="#ffffff" stroke="transparent" points="575.5,-210.1434 575.5,-232.1434 734.5,-232.1434 734.5,-210.1434 575.5,-210.1434"/>
<polygon fill="none" stroke="#000000" points="575.5,-210.1434 575.5,-232.1434 734.5,-232.1434 734.5,-210.1434 575.5,-210.1434"/>
<image xlink:href="../../images/foreignKeys.png" width="11px" height="12px" preserveAspectRatio="xMinYMin meet" x="580.5" y="-227.143"/>
<text text-anchor="start" x="595.5" y="-217.2434" font-family="Helvetica,sans-Serif" font-size="11.00" fill="#000000">applicant_id</text>
<polygon fill="#ffffff" stroke="transparent" points="575.5,-188.1434 575.5,-210.1434 734.5,-210.1434 734.5,-188.1434 575.5,-188.1434"/>
<polygon fill="none" stroke="#000000" points="575.5,-188.1434 575.5,-210.1434 734.5,-210.1434 734.5,-188.1434 575.5,-188.1434"/>
<image xlink:href="../../images/foreignKeys.png" width="11px" height="12px" preserveAspectRatio="xMinYMin meet" x="580.5" y="-205.143"/>
<text text-anchor="start" x="595.5" y="-195.2434" font-family="Helvetica,sans-Serif" font-size="11.00" fill="#000000">avatar_id</text>
<polygon fill="none" stroke="#000000" points="575.5,-169.1434 575.5,-188.1434 734.5,-188.1434 734.5,-169.1434 575.5,-169.1434"/>
<text text-anchor="start" x="578.5" y="-175.2434" font-family="Helvetica,sans-Serif" font-size="11.00" fill="#000000">...</text>
<polygon fill="#ffffff" stroke="transparent" points="575.5,-150.1434 575.5,-169.1434 632.5,-169.1434 632.5,-150.1434 575.5,-150.1434"/>
<polygon fill="none" stroke="#000000" points="575.5,-150.1434 575.5,-169.1434 632.5,-169.1434 632.5,-150.1434 575.5,-150.1434"/>
<text text-anchor="start" x="578.5" y="-156.2434" font-family="Helvetica,sans-Serif" font-size="11.00" fill="#000000">&lt; 6</text>
<polygon fill="#ffffff" stroke="transparent" points="632.5,-150.1434 632.5,-169.1434 694.5,-169.1434 694.5,-150.1434 632.5,-150.1434"/>
<polygon fill="none" stroke="#000000" points="632.5,-150.1434 632.5,-169.1434 694.5,-169.1434 694.5,-150.1434 632.5,-150.1434"/>
<text text-anchor="start" x="652.9956" y="-156.2434" font-family="Helvetica,sans-Serif" font-size="11.00" fill="#000000">75 rows</text>
<polygon fill="#ffffff" stroke="transparent" points="694.5,-150.1434 694.5,-169.1434 734.5,-169.1434 734.5,-150.1434 694.5,-150.1434"/>
<polygon fill="none" stroke="#000000" points="694.5,-150.1434 694.5,-169.1434 734.5,-169.1434 734.5,-150.1434 694.5,-150.1434"/>
<text text-anchor="start" x="715.9053" y="-156.2434" font-family="Helvetica,sans-Serif" font-size="11.00" fill="#000000">5 &gt;</text>
</a>
</g>
</g>
<!-- feedback&#45;&gt;job_request_application -->
<g id="edge3" class="edge">
<title>feedback:w&#45;&gt;job_request_application:e</title>
<path fill="none" stroke="#000000" d="M870.0125,-473.0009C828.9379,-472.0641 809.7778,-465.833 775,-435.1434 744.5226,-408.2487 775.1472,-353.1434 734.5,-353.1434"/>
<polygon fill="#000000" stroke="#000000" points="876.5004,-473.0647 884.4646,-476.7432 880.5002,-473.1041 884.5,-473.1434 884.5,-473.1434 884.5,-473.1434 880.5002,-473.1041 884.5354,-469.5436 876.5004,-473.0647 876.5004,-473.0647"/>
<ellipse fill="none" stroke="#000000" cx="873.3005" cy="-473.0332" rx="3.2" ry="3.2"/>
</g>
<!-- job_request_application&#45;&gt;applicant -->
<g id="edge8" class="edge">
<title>job_request_application:w&#45;&gt;applicant:e</title>
<path fill="none" stroke="#000000" d="M561.0387,-218.5013C549.639,-213.9569 543.5031,-205.1434 526.5,-205.1434"/>
<polygon fill="#000000" stroke="#000000" points="567.6303,-219.7056 574.853,-224.6848 571.5651,-220.4245 575.5,-221.1434 575.5,-221.1434 575.5,-221.1434 571.5651,-220.4245 576.147,-217.602 567.6303,-219.7056 567.6303,-219.7056"/>
<ellipse fill="none" stroke="#000000" cx="564.4824" cy="-219.1304" rx="3.2" ry="3.2"/>
</g>
<!-- job_request_application&#45;&gt;file -->
<g id="edge9" class="edge">
<title>job_request_application:w&#45;&gt;file:e</title>
<path fill="none" stroke="#000000" d="M561.6591,-194.8207C552.347,-187.5416 550.0503,-173.0548 534,-167.1434 414.5787,-123.1603 375.2633,-153.1434 248,-153.1434"/>
<polygon fill="#000000" stroke="#000000" points="567.8638,-196.7585 574.4268,-202.5797 571.6819,-197.9509 575.5,-199.1434 575.5,-199.1434 575.5,-199.1434 571.6819,-197.9509 576.5732,-195.7071 567.8638,-196.7585 567.8638,-196.7585"/>
<ellipse fill="none" stroke="#000000" cx="564.8093" cy="-195.8045" rx="3.2" ry="3.2"/>
</g>
<!-- job_request_application&#45;&gt;supplier -->
<g id="edge13" class="edge">
<title>job_request_application:w&#45;&gt;supplier:e</title>
<path fill="none" stroke="#000000" d="M560.8399,-265.1368C507.8233,-265.0541 488.568,-263.9453 431,-249.1434 411.8949,-244.2311 409.7265,-232.1434 390,-232.1434"/>
<polygon fill="#000000" stroke="#000000" points="567.5,-265.1398 575.4984,-268.7434 571.5,-265.1416 575.5,-265.1434 575.5,-265.1434 575.5,-265.1434 571.5,-265.1416 575.5016,-261.5434 567.5,-265.1398 567.5,-265.1398"/>
<ellipse fill="none" stroke="#000000" cx="564.3" cy="-265.1383" rx="3.2" ry="3.2"/>
</g>
<!-- job_request_application&#45;&gt;principal -->
<g id="edge10" class="edge">
<title>job_request_application:w&#45;&gt;principal:e</title>
<path fill="none" stroke="#000000" d="M561.1959,-333.3842C552.7087,-336.3143 547.0695,-341.2918 534,-343.1434 361.0603,-367.6449 282.3304,-445.7794 141,-343.1434 93.3494,-308.5389 158.8901,-217.1434 100,-217.1434"/>
<polygon fill="#000000" stroke="#000000" points="567.5964,-332.3816 576.0572,-334.7 571.5482,-331.7625 575.5,-331.1434 575.5,-331.1434 575.5,-331.1434 571.5482,-331.7625 574.9428,-327.5868 567.5964,-332.3816 567.5964,-332.3816"/>
<ellipse fill="none" stroke="#000000" cx="564.4349" cy="-332.8768" rx="3.2" ry="3.2"/>
</g>
<!-- job_request_application&#45;&gt;principal -->
<g id="edge12" class="edge">
<title>job_request_application:w&#45;&gt;principal:e</title>
<path fill="none" stroke="#000000" d="M560.8899,-309.547C455.1318,-314.8912 217.2704,-370.6871 141,-319.1434 100.5187,-291.7861 148.8586,-217.1434 100,-217.1434"/>
<polygon fill="#000000" stroke="#000000" points="567.5031,-309.3644 575.5994,-312.7421 571.5015,-309.2539 575.5,-309.1434 575.5,-309.1434 575.5,-309.1434 571.5015,-309.2539 575.4006,-305.5448 567.5031,-309.3644 567.5031,-309.3644"/>
<ellipse fill="none" stroke="#000000" cx="564.3043" cy="-309.4528" rx="3.2" ry="3.2"/>
</g>
<!-- job_request -->
<g id="node7" class="node">
<title>job_request</title>
<g id="a_node7"><a xlink:href="../../tables/job_request.html" xlink:title="job_request" target="_top">
<polygon fill="#ffffff" stroke="transparent" points="149,-247.6434 149,-308.6434 249,-308.6434 249,-247.6434 149,-247.6434"/>
<polygon fill="#f5f5f5" stroke="transparent" points="149,-285.1434 149,-308.1434 249,-308.1434 249,-285.1434 149,-285.1434"/>
<polygon fill="none" stroke="#000000" points="149,-285.1434 149,-308.1434 249,-308.1434 249,-285.1434 149,-285.1434"/>
<text text-anchor="start" x="153.768" y="-294.2434" font-family="Helvetica,sans-Serif" font-weight="bold" font-size="11.00" fill="#000000">job_request</text>
<text text-anchor="start" x="214.5219" y="-293.2434" font-family="Helvetica,sans-Serif" font-size="11.00" fill="#000000">[table]</text>
<polygon fill="none" stroke="#000000" points="149,-266.1434 149,-285.1434 249,-285.1434 249,-266.1434 149,-266.1434"/>
<text text-anchor="start" x="152" y="-272.2434" font-family="Helvetica,sans-Serif" font-size="11.00" fill="#000000">...</text>
<polygon fill="#ffffff" stroke="transparent" points="149,-247.1434 149,-266.1434 177,-266.1434 177,-247.1434 149,-247.1434"/>
<polygon fill="none" stroke="#000000" points="149,-247.1434 149,-266.1434 177,-266.1434 177,-247.1434 149,-247.1434"/>
<text text-anchor="start" x="152" y="-253.2434" font-family="Helvetica,sans-Serif" font-size="11.00" fill="#000000">&lt; 11</text>
<polygon fill="#ffffff" stroke="transparent" points="177,-247.1434 177,-266.1434 227,-266.1434 227,-247.1434 177,-247.1434"/>
<polygon fill="none" stroke="#000000" points="177,-247.1434 177,-266.1434 227,-266.1434 227,-247.1434 177,-247.1434"/>
<text text-anchor="start" x="179.6904" y="-253.2434" font-family="Helvetica,sans-Serif" font-size="11.00" fill="#000000">254 rows</text>
<polygon fill="#ffffff" stroke="transparent" points="227,-247.1434 227,-266.1434 249,-266.1434 249,-247.1434 227,-247.1434"/>
<polygon fill="none" stroke="#000000" points="227,-247.1434 227,-266.1434 249,-266.1434 249,-247.1434 227,-247.1434"/>
<text text-anchor="start" x="230.4053" y="-253.2434" font-family="Helvetica,sans-Serif" font-size="11.00" fill="#000000">7 &gt;</text>
</a>
</g>
</g>
<!-- job_request_application&#45;&gt;job_request -->
<g id="edge11" class="edge">
<title>job_request_application:w&#45;&gt;job_request:e</title>
<path fill="none" stroke="#000000" d="M560.7618,-286.8702C495.3323,-285.084 282.0407,-275.1434 249,-275.1434"/>
<polygon fill="#000000" stroke="#000000" points="567.5014,-286.9951 575.4333,-290.7428 571.5007,-287.0693 575.5,-287.1434 575.5,-287.1434 575.5,-287.1434 571.5007,-287.0693 575.5667,-283.544 567.5014,-286.9951 567.5014,-286.9951"/>
<ellipse fill="none" stroke="#000000" cx="564.3019" cy="-286.9358" rx="3.2" ry="3.2"/>
</g>
<!-- job_request&#45;&gt;principal -->
<g id="edge6" class="edge">
<title>job_request:w&#45;&gt;principal:e</title>
<path fill="none" stroke="#000000" d="M136.1476,-268.5036C119.9158,-251.8348 128.2092,-212.1278 100,-217.1434"/>
<polygon fill="#000000" stroke="#000000" points="141.8925,-271.4715 147.3476,-278.3418 145.4462,-273.3075 149,-275.1434 149,-275.1434 149,-275.1434 145.4462,-273.3075 150.6524,-271.945 141.8925,-271.4715 141.8925,-271.4715"/>
<ellipse fill="none" stroke="#000000" cx="139.0494" cy="-270.0027" rx="3.2" ry="3.2"/>
</g>
<!-- job_request&#45;&gt;principal -->
<g id="edge7" class="edge">
<title>job_request:w&#45;&gt;principal:e</title>
<path fill="none" stroke="#000000" d="M134.4268,-272.6706C120.4848,-261.4327 127.1547,-222.7762 100,-217.1434"/>
<polygon fill="#000000" stroke="#000000" points="141.1127,-273.805 148.3977,-278.6927 145.0564,-274.4742 149,-275.1434 149,-275.1434 149,-275.1434 145.0564,-274.4742 149.6023,-271.5942 141.1127,-273.805 141.1127,-273.805"/>
<ellipse fill="none" stroke="#000000" cx="137.9578" cy="-273.2697" rx="3.2" ry="3.2"/>
</g>
<!-- job_request_application_document -->
<g id="node8" class="node">
<title>job_request_application_document</title>
<g id="a_node8"><a xlink:href="../../tables/job_request_application_document.html" xlink:title="job_request_application_document" target="_top">
<polygon fill="#ffffff" stroke="transparent" points="821,-147.6434 821,-208.6434 1034,-208.6434 1034,-147.6434 821,-147.6434"/>
<polygon fill="#f5f5f5" stroke="transparent" points="821.5,-185.1434 821.5,-208.1434 1034.5,-208.1434 1034.5,-185.1434 821.5,-185.1434"/>
<polygon fill="none" stroke="#000000" points="821.5,-185.1434 821.5,-208.1434 1034.5,-208.1434 1034.5,-185.1434 821.5,-185.1434"/>
<text text-anchor="start" x="826.222" y="-194.2434" font-family="Helvetica,sans-Serif" font-weight="bold" font-size="11.00" fill="#000000">job_request_application_document</text>
<text text-anchor="start" x="1000.0219" y="-193.2434" font-family="Helvetica,sans-Serif" font-size="11.00" fill="#000000">[table]</text>
<polygon fill="none" stroke="#000000" points="821.5,-166.1434 821.5,-185.1434 1034.5,-185.1434 1034.5,-166.1434 821.5,-166.1434"/>
<text text-anchor="start" x="824.5" y="-172.2434" font-family="Helvetica,sans-Serif" font-size="11.00" fill="#000000">...</text>
<polygon fill="#ffffff" stroke="transparent" points="821.5,-147.1434 821.5,-166.1434 910.5,-166.1434 910.5,-147.1434 821.5,-147.1434"/>
<polygon fill="none" stroke="#000000" points="821.5,-147.1434 821.5,-166.1434 910.5,-166.1434 910.5,-147.1434 821.5,-147.1434"/>
<text text-anchor="start" x="824.5" y="-153.2434" font-family="Helvetica,sans-Serif" font-size="11.00" fill="#000000">&lt; 2</text>
<polygon fill="#ffffff" stroke="transparent" points="910.5,-147.1434 910.5,-166.1434 988.5,-166.1434 988.5,-147.1434 910.5,-147.1434"/>
<polygon fill="none" stroke="#000000" points="910.5,-147.1434 910.5,-166.1434 988.5,-166.1434 988.5,-147.1434 910.5,-147.1434"/>
<text text-anchor="start" x="946.9956" y="-153.2434" font-family="Helvetica,sans-Serif" font-size="11.00" fill="#000000">57 rows</text>
<polygon fill="#ffffff" stroke="transparent" points="988.5,-147.1434 988.5,-166.1434 1034.5,-166.1434 1034.5,-147.1434 988.5,-147.1434"/>
<polygon fill="none" stroke="#000000" points="988.5,-147.1434 988.5,-166.1434 1034.5,-166.1434 1034.5,-147.1434 988.5,-147.1434"/>
<text text-anchor="start" x="1025.3862" y="-153.2434" font-family="Helvetica,sans-Serif" font-size="11.00" fill="#000000"> &#160;</text>
</a>
</g>
</g>
<!-- job_request_application_document&#45;&gt;file -->
<g id="edge14" class="edge">
<title>job_request_application_document:w&#45;&gt;file:e</title>
<path fill="none" stroke="#000000" d="M807.1236,-173.6669C781.3324,-167.9128 774.4663,-146.9738 742,-140.1434 709.308,-133.2656 355.3478,-131.8708 290,-141.1434 270.7789,-143.8708 267.4136,-153.1434 248,-153.1434"/>
<polygon fill="#000000" stroke="#000000" points="813.5419,-174.326 821.1322,-178.7246 817.5209,-174.7347 821.5,-175.1434 821.5,-175.1434 821.5,-175.1434 817.5209,-174.7347 821.8678,-171.5623 813.5419,-174.326 813.5419,-174.326"/>
<ellipse fill="none" stroke="#000000" cx="810.3586" cy="-173.9991" rx="3.2" ry="3.2"/>
</g>
<!-- job_request_application_document&#45;&gt;job_request_application -->
<g id="edge15" class="edge">
<title>job_request_application_document:w&#45;&gt;job_request_application:e</title>
<path fill="none" stroke="#000000" d="M806.9885,-177.4644C791.3005,-183.3663 786.9138,-199.853 775,-219.1434 742.3075,-272.0779 796.7163,-353.1434 734.5,-353.1434"/>
<polygon fill="#000000" stroke="#000000" points="813.6004,-176.407 822.0686,-178.6982 817.5502,-175.7752 821.5,-175.1434 821.5,-175.1434 821.5,-175.1434 817.5502,-175.7752 820.9314,-171.5886 813.6004,-176.407 813.6004,-176.407"/>
<ellipse fill="none" stroke="#000000" cx="810.4406" cy="-176.9124" rx="3.2" ry="3.2"/>
</g>
<!-- job_request_application_history -->
<g id="node9" class="node">
<title>job_request_application_history</title>
<g id="a_node9"><a xlink:href="../../tables/job_request_application_history.html" xlink:title="job_request_application_history" target="_top">
<polygon fill="#ffffff" stroke="transparent" points="829,-65.6434 829,-126.6434 1026,-126.6434 1026,-65.6434 829,-65.6434"/>
<polygon fill="#f5f5f5" stroke="transparent" points="829.5,-103.1434 829.5,-126.1434 1026.5,-126.1434 1026.5,-103.1434 829.5,-103.1434"/>
<polygon fill="none" stroke="#000000" points="829.5,-103.1434 829.5,-126.1434 1026.5,-126.1434 1026.5,-103.1434 829.5,-103.1434"/>
<text text-anchor="start" x="834.1739" y="-112.2434" font-family="Helvetica,sans-Serif" font-weight="bold" font-size="11.00" fill="#000000">job_request_application_history</text>
<text text-anchor="start" x="992.0219" y="-111.2434" font-family="Helvetica,sans-Serif" font-size="11.00" fill="#000000">[table]</text>
<polygon fill="none" stroke="#000000" points="829.5,-84.1434 829.5,-103.1434 1026.5,-103.1434 1026.5,-84.1434 829.5,-84.1434"/>
<text text-anchor="start" x="832.5" y="-90.2434" font-family="Helvetica,sans-Serif" font-size="11.00" fill="#000000">...</text>
<polygon fill="#ffffff" stroke="transparent" points="829.5,-65.1434 829.5,-84.1434 910.5,-84.1434 910.5,-65.1434 829.5,-65.1434"/>
<polygon fill="none" stroke="#000000" points="829.5,-65.1434 829.5,-84.1434 910.5,-84.1434 910.5,-65.1434 829.5,-65.1434"/>
<text text-anchor="start" x="832.5" y="-71.2434" font-family="Helvetica,sans-Serif" font-size="11.00" fill="#000000">&lt; 3</text>
<polygon fill="#ffffff" stroke="transparent" points="910.5,-65.1434 910.5,-84.1434 984.5,-84.1434 984.5,-65.1434 910.5,-65.1434"/>
<polygon fill="none" stroke="#000000" points="910.5,-65.1434 910.5,-84.1434 984.5,-84.1434 984.5,-65.1434 910.5,-65.1434"/>
<text text-anchor="start" x="942.9956" y="-71.2434" font-family="Helvetica,sans-Serif" font-size="11.00" fill="#000000">34 rows</text>
<polygon fill="#ffffff" stroke="transparent" points="984.5,-65.1434 984.5,-84.1434 1026.5,-84.1434 1026.5,-65.1434 984.5,-65.1434"/>
<polygon fill="none" stroke="#000000" points="984.5,-65.1434 984.5,-84.1434 1026.5,-84.1434 1026.5,-65.1434 984.5,-65.1434"/>
<text text-anchor="start" x="1017.3862" y="-71.2434" font-family="Helvetica,sans-Serif" font-size="11.00" fill="#000000"> &#160;</text>
</a>
</g>
</g>
<!-- job_request_application_history&#45;&gt;job_request_application -->
<g id="edge17" class="edge">
<title>job_request_application_history:w&#45;&gt;job_request_application:e</title>
<path fill="none" stroke="#000000" d="M815.1073,-94.7022C795.5015,-99.5085 788.1584,-115.1156 775,-137.1434 749.9554,-179.0692 783.3365,-353.1434 734.5,-353.1434"/>
<polygon fill="#000000" stroke="#000000" points="821.5465,-94.0049 829.8877,-96.7225 825.5233,-93.5741 829.5,-93.1434 829.5,-93.1434 829.5,-93.1434 825.5233,-93.5741 829.1123,-89.5644 821.5465,-94.0049 821.5465,-94.0049"/>
<ellipse fill="none" stroke="#000000" cx="818.3651" cy="-94.3494" rx="3.2" ry="3.2"/>
</g>
<!-- job_request_application_history&#45;&gt;principal -->
<g id="edge16" class="edge">
<title>job_request_application_history:w&#45;&gt;principal:e</title>
<path fill="none" stroke="#000000" d="M814.9425,-93.1434C672.6726,-93.1434 631.7522,-93.1434 482.5,-93.1434 482.5,-93.1434 482.5,-93.1434 344,-93.1434 253.2495,-93.1434 213.3395,-60.347 141,-115.1434 102.0536,-144.6449 148.8586,-217.1434 100,-217.1434"/>
<polygon fill="#000000" stroke="#000000" points="821.5,-93.1435 829.5,-96.7434 825.5,-93.1435 829.5,-93.1434 829.5,-93.1434 829.5,-93.1434 825.5,-93.1435 829.5,-89.5434 821.5,-93.1435 821.5,-93.1435"/>
<ellipse fill="none" stroke="#000000" cx="818.3" cy="-93.1435" rx="3.2" ry="3.2"/>
</g>
<!-- job_request_application_history&#45;&gt;principal -->
<g id="edge18" class="edge">
<title>job_request_application_history:w&#45;&gt;principal:e</title>
<path fill="none" stroke="#000000" d="M814.833,-93.0298C519.0411,-88.4431 388.6092,52.5006 141,-119.1434 102.1976,-146.0415 147.2137,-217.1434 100,-217.1434"/>
<polygon fill="#000000" stroke="#000000" points="821.5002,-93.0814 829.4721,-96.7433 825.5001,-93.1124 829.5,-93.1434 829.5,-93.1434 829.5,-93.1434 825.5001,-93.1124 829.5279,-89.5435 821.5002,-93.0814 821.5002,-93.0814"/>
<ellipse fill="none" stroke="#000000" cx="818.3003" cy="-93.0566" rx="3.2" ry="3.2"/>
</g>
<!-- job_request_application_language -->
<g id="node10" class="node">
<title>job_request_application_language</title>
<g id="a_node10"><a xlink:href="../../tables/job_request_application_language.html" xlink:title="job_request_application_language" target="_top">
<polygon fill="#ffffff" stroke="transparent" points="783,-312.1434 783,-424.1434 1072,-424.1434 1072,-312.1434 783,-312.1434"/>
<polygon fill="#f5f5f5" stroke="transparent" points="785.5,-399.1434 785.5,-422.1434 1070.5,-422.1434 1070.5,-399.1434 785.5,-399.1434"/>
<polygon fill="none" stroke="#000000" points="785.5,-399.1434 785.5,-422.1434 1070.5,-422.1434 1070.5,-399.1434 785.5,-399.1434"/>
<text text-anchor="start" x="790.5" y="-408.2434" font-family="Helvetica,sans-Serif" font-weight="bold" font-size="11.00" fill="#000000">job_request_application_language</text>
<text text-anchor="start" x="1035.5437" y="-407.2434" font-family="Helvetica,sans-Serif" font-size="11.00" fill="#000000">[table]</text>
<polygon fill="#ffffff" stroke="transparent" points="785.5,-377.1434 785.5,-399.1434 1003.5,-399.1434 1003.5,-377.1434 785.5,-377.1434"/>
<polygon fill="none" stroke="#000000" points="785.5,-377.1434 785.5,-399.1434 1003.5,-399.1434 1003.5,-377.1434 785.5,-377.1434"/>
<image xlink:href="../../images/foreignKeys.png" width="11px" height="12px" preserveAspectRatio="xMinYMin meet" x="790.5" y="-394.143"/>
<text text-anchor="start" x="805.5" y="-384.2434" font-family="Helvetica,sans-Serif" font-size="11.00" fill="#000000">job_request_application_id</text>
<polygon fill="none" stroke="#000000" points="1003.5,-377.1434 1003.5,-399.1434 1070.5,-399.1434 1070.5,-377.1434 1003.5,-377.1434"/>
<text text-anchor="start" x="1006.5" y="-384.8434" font-family="Helvetica,sans-Serif" font-size="11.00" fill="#000000">bigint[19]</text>
<polygon fill="none" stroke="#000000" points="785.5,-355.1434 785.5,-377.1434 1003.5,-377.1434 1003.5,-355.1434 785.5,-355.1434"/>
<text text-anchor="start" x="805.5" y="-362.2434" font-family="Helvetica,sans-Serif" font-size="11.00" fill="#000000">level</text>
<polygon fill="none" stroke="#000000" points="1003.5,-355.1434 1003.5,-377.1434 1070.5,-377.1434 1070.5,-355.1434 1003.5,-355.1434"/>
<text text-anchor="start" x="1006.4365" y="-362.8434" font-family="Helvetica,sans-Serif" font-size="11.00" fill="#000000">varchar[100]</text>
<polygon fill="none" stroke="#000000" points="785.5,-333.1434 785.5,-355.1434 1003.5,-355.1434 1003.5,-333.1434 785.5,-333.1434"/>
<text text-anchor="start" x="805.5" y="-340.2434" font-family="Helvetica,sans-Serif" font-size="11.00" fill="#000000">language</text>
<polygon fill="none" stroke="#000000" points="1003.5,-333.1434 1003.5,-355.1434 1070.5,-355.1434 1070.5,-333.1434 1003.5,-333.1434"/>
<text text-anchor="start" x="1006.5" y="-340.8434" font-family="Helvetica,sans-Serif" font-size="11.00" fill="#000000">varchar[2]</text>
<polygon fill="#ffffff" stroke="transparent" points="785.5,-314.1434 785.5,-333.1434 882.5,-333.1434 882.5,-314.1434 785.5,-314.1434"/>
<polygon fill="none" stroke="#000000" points="785.5,-314.1434 785.5,-333.1434 882.5,-333.1434 882.5,-314.1434 785.5,-314.1434"/>
<text text-anchor="start" x="788.5" y="-320.2434" font-family="Helvetica,sans-Serif" font-size="11.00" fill="#000000">&lt; 1</text>
<polygon fill="#ffffff" stroke="transparent" points="882.5,-314.1434 882.5,-333.1434 1003.5,-333.1434 1003.5,-314.1434 882.5,-314.1434"/>
<polygon fill="none" stroke="#000000" points="882.5,-314.1434 882.5,-333.1434 1003.5,-333.1434 1003.5,-314.1434 882.5,-314.1434"/>
<text text-anchor="start" x="961.9956" y="-320.2434" font-family="Helvetica,sans-Serif" font-size="11.00" fill="#000000">70 rows</text>
<polygon fill="#ffffff" stroke="transparent" points="1003.5,-314.1434 1003.5,-333.1434 1070.5,-333.1434 1070.5,-314.1434 1003.5,-314.1434"/>
<polygon fill="none" stroke="#000000" points="1003.5,-314.1434 1003.5,-333.1434 1070.5,-333.1434 1070.5,-314.1434 1003.5,-314.1434"/>
<text text-anchor="start" x="1051.9053" y="-320.2434" font-family="Helvetica,sans-Serif" font-size="11.00" fill="#000000">0 &gt;</text>
<polygon fill="none" stroke="#000000" stroke-width="2" points="784,-313.1434 784,-423.1434 1071,-423.1434 1071,-313.1434 784,-313.1434"/>
</a>
</g>
</g>
<!-- job_request_application_language&#45;&gt;job_request_application -->
<g id="edge19" class="edge">
<title>job_request_application_language:w&#45;&gt;job_request_application:e</title>
<path fill="none" stroke="#000000" d="M771.3182,-383.8517C758.2451,-374.5057 755.9773,-353.1434 734.5,-353.1434"/>
<polygon fill="#000000" stroke="#000000" points="777.8429,-385.8262 784.4572,-391.5891 781.6715,-386.9848 785.5,-388.1434 785.5,-388.1434 785.5,-388.1434 781.6715,-386.9848 786.5428,-384.6977 777.8429,-385.8262 777.8429,-385.8262"/>
<ellipse fill="none" stroke="#000000" cx="774.7801" cy="-384.8993" rx="3.2" ry="3.2"/>
</g>
<!-- presentation_job_request_application -->
<g id="node11" class="node">
<title>presentation_job_request_application</title>
<g id="a_node11"><a xlink:href="../../tables/presentation_job_request_application.html" xlink:title="presentation_job_request_application" target="_top">
<polygon fill="#ffffff" stroke="transparent" points="815,-229.6434 815,-290.6434 1040,-290.6434 1040,-229.6434 815,-229.6434"/>
<polygon fill="#f5f5f5" stroke="transparent" points="815.5,-267.1434 815.5,-290.1434 1040.5,-290.1434 1040.5,-267.1434 815.5,-267.1434"/>
<polygon fill="none" stroke="#000000" points="815.5,-267.1434 815.5,-290.1434 1040.5,-290.1434 1040.5,-267.1434 815.5,-267.1434"/>
<text text-anchor="start" x="820.1082" y="-276.2434" font-family="Helvetica,sans-Serif" font-weight="bold" font-size="11.00" fill="#000000">presentation_job_request_application</text>
<text text-anchor="start" x="1006.0219" y="-275.2434" font-family="Helvetica,sans-Serif" font-size="11.00" fill="#000000">[table]</text>
<polygon fill="none" stroke="#000000" points="815.5,-248.1434 815.5,-267.1434 1040.5,-267.1434 1040.5,-248.1434 815.5,-248.1434"/>
<text text-anchor="start" x="818.5" y="-254.2434" font-family="Helvetica,sans-Serif" font-size="11.00" fill="#000000">...</text>
<polygon fill="#ffffff" stroke="transparent" points="815.5,-229.1434 815.5,-248.1434 910.5,-248.1434 910.5,-229.1434 815.5,-229.1434"/>
<polygon fill="none" stroke="#000000" points="815.5,-229.1434 815.5,-248.1434 910.5,-248.1434 910.5,-229.1434 815.5,-229.1434"/>
<text text-anchor="start" x="818.5" y="-235.2434" font-family="Helvetica,sans-Serif" font-size="11.00" fill="#000000">&lt; 2</text>
<polygon fill="#ffffff" stroke="transparent" points="910.5,-229.1434 910.5,-248.1434 991.5,-248.1434 991.5,-229.1434 910.5,-229.1434"/>
<polygon fill="none" stroke="#000000" points="910.5,-229.1434 910.5,-248.1434 991.5,-248.1434 991.5,-229.1434 910.5,-229.1434"/>
<text text-anchor="start" x="949.9956" y="-235.2434" font-family="Helvetica,sans-Serif" font-size="11.00" fill="#000000">16 rows</text>
<polygon fill="#ffffff" stroke="transparent" points="991.5,-229.1434 991.5,-248.1434 1040.5,-248.1434 1040.5,-229.1434 991.5,-229.1434"/>
<polygon fill="none" stroke="#000000" points="991.5,-229.1434 991.5,-248.1434 1040.5,-248.1434 1040.5,-229.1434 991.5,-229.1434"/>
<text text-anchor="start" x="1031.3862" y="-235.2434" font-family="Helvetica,sans-Serif" font-size="11.00" fill="#000000"> &#160;</text>
</a>
</g>
</g>
<!-- presentation_job_request_application&#45;&gt;job_request_application -->
<g id="edge20" class="edge">
<title>presentation_job_request_application:w&#45;&gt;job_request_application:e</title>
<path fill="none" stroke="#000000" d="M801.3344,-260.5794C789.2205,-268.0237 788.4383,-286.2528 775,-302.1434 756.3097,-324.2444 763.4444,-353.1434 734.5,-353.1434"/>
<polygon fill="#000000" stroke="#000000" points="807.7254,-259.0292 816.3486,-260.642 811.6127,-258.0863 815.5,-257.1434 815.5,-257.1434 815.5,-257.1434 811.6127,-258.0863 814.6514,-253.6449 807.7254,-259.0292 807.7254,-259.0292"/>
<ellipse fill="none" stroke="#000000" cx="804.6156" cy="-259.7836" rx="3.2" ry="3.2"/>
</g>
</g>
</svg>
