<?xml version="1.0" encoding="UTF-8" standalone="no"?>
<!DOCTYPE svg PUBLIC "-//W3C//DTD SVG 1.1//EN"
 "http://www.w3.org/Graphics/SVG/1.1/DTD/svg11.dtd">
<!-- Generated by graphviz version 2.40.1 (20161225.0304)
 -->
<!-- Title: oneDegreeRelationshipsDiagram Pages: 1 -->
<svg width="521pt" height="289pt"
 viewBox="0.00 0.00 521.00 288.70" xmlns="http://www.w3.org/2000/svg" xmlns:xlink="http://www.w3.org/1999/xlink">
<g id="graph0" class="graph" transform="scale(1 1) rotate(0) translate(4 284.7)">
<title>oneDegreeRelationshipsDiagram</title>
<polygon fill="#ffffff" stroke="transparent" points="-4,4 -4,-284.7 517,-284.7 517,4 -4,4"/>
<text text-anchor="middle" x="72.4936" y="-7.3" font-family="Helvetica,sans-Serif" font-size="11.00" fill="#000000">Generated by SchemaSpy</text>
<!-- job_request_application_language -->
<g id="node1" class="node">
<title>job_request_application_language</title>
<g id="a_node1"><a xlink:href="../../tables/job_request_application_language.html" xlink:title="job_request_application_language" target="_top">
<polygon fill="#ffffff" stroke="transparent" points="216,-164.7 216,-276.7 505,-276.7 505,-164.7 216,-164.7"/>
<polygon fill="#f5f5f5" stroke="transparent" points="218.5,-251.7 218.5,-274.7 503.5,-274.7 503.5,-251.7 218.5,-251.7"/>
<polygon fill="none" stroke="#000000" points="218.5,-251.7 218.5,-274.7 503.5,-274.7 503.5,-251.7 218.5,-251.7"/>
<text text-anchor="start" x="223.5" y="-260.8" font-family="Helvetica,sans-Serif" font-weight="bold" font-size="11.00" fill="#000000">job_request_application_language</text>
<text text-anchor="start" x="468.5437" y="-259.8" font-family="Helvetica,sans-Serif" font-size="11.00" fill="#000000">[table]</text>
<polygon fill="#ffffff" stroke="transparent" points="218.5,-229.7 218.5,-251.7 436.5,-251.7 436.5,-229.7 218.5,-229.7"/>
<polygon fill="none" stroke="#000000" points="218.5,-229.7 218.5,-251.7 436.5,-251.7 436.5,-229.7 218.5,-229.7"/>
<image xlink:href="../../images/foreignKeys.png" width="11px" height="12px" preserveAspectRatio="xMinYMin meet" x="223.5" y="-246.7"/>
<text text-anchor="start" x="238.5" y="-236.8" font-family="Helvetica,sans-Serif" font-size="11.00" fill="#000000">job_request_application_id</text>
<polygon fill="none" stroke="#000000" points="436.5,-229.7 436.5,-251.7 503.5,-251.7 503.5,-229.7 436.5,-229.7"/>
<text text-anchor="start" x="439.5" y="-237.4" font-family="Helvetica,sans-Serif" font-size="11.00" fill="#000000">bigint[19]</text>
<polygon fill="none" stroke="#000000" points="218.5,-207.7 218.5,-229.7 436.5,-229.7 436.5,-207.7 218.5,-207.7"/>
<text text-anchor="start" x="238.5" y="-214.8" font-family="Helvetica,sans-Serif" font-size="11.00" fill="#000000">level</text>
<polygon fill="none" stroke="#000000" points="436.5,-207.7 436.5,-229.7 503.5,-229.7 503.5,-207.7 436.5,-207.7"/>
<text text-anchor="start" x="439.4365" y="-215.4" font-family="Helvetica,sans-Serif" font-size="11.00" fill="#000000">varchar[100]</text>
<polygon fill="none" stroke="#000000" points="218.5,-185.7 218.5,-207.7 436.5,-207.7 436.5,-185.7 218.5,-185.7"/>
<text text-anchor="start" x="238.5" y="-192.8" font-family="Helvetica,sans-Serif" font-size="11.00" fill="#000000">language</text>
<polygon fill="none" stroke="#000000" points="436.5,-185.7 436.5,-207.7 503.5,-207.7 503.5,-185.7 436.5,-185.7"/>
<text text-anchor="start" x="439.5" y="-193.4" font-family="Helvetica,sans-Serif" font-size="11.00" fill="#000000">varchar[2]</text>
<polygon fill="#ffffff" stroke="transparent" points="218.5,-166.7 218.5,-185.7 315.5,-185.7 315.5,-166.7 218.5,-166.7"/>
<polygon fill="none" stroke="#000000" points="218.5,-166.7 218.5,-185.7 315.5,-185.7 315.5,-166.7 218.5,-166.7"/>
<text text-anchor="start" x="221.5" y="-172.8" font-family="Helvetica,sans-Serif" font-size="11.00" fill="#000000">&lt; 1</text>
<polygon fill="#ffffff" stroke="transparent" points="315.5,-166.7 315.5,-185.7 436.5,-185.7 436.5,-166.7 315.5,-166.7"/>
<polygon fill="none" stroke="#000000" points="315.5,-166.7 315.5,-185.7 436.5,-185.7 436.5,-166.7 315.5,-166.7"/>
<text text-anchor="start" x="394.9956" y="-172.8" font-family="Helvetica,sans-Serif" font-size="11.00" fill="#000000">70 rows</text>
<polygon fill="#ffffff" stroke="transparent" points="436.5,-166.7 436.5,-185.7 503.5,-185.7 503.5,-166.7 436.5,-166.7"/>
<polygon fill="none" stroke="#000000" points="436.5,-166.7 436.5,-185.7 503.5,-185.7 503.5,-166.7 436.5,-166.7"/>
<text text-anchor="start" x="484.9053" y="-172.8" font-family="Helvetica,sans-Serif" font-size="11.00" fill="#000000">0 &gt;</text>
<polygon fill="none" stroke="#000000" stroke-width="2" points="217,-165.7 217,-275.7 504,-275.7 504,-165.7 217,-165.7"/>
</a>
</g>
</g>
<!-- job_request_application -->
<g id="node2" class="node">
<title>job_request_application</title>
<g id="a_node2"><a xlink:href="../../tables/job_request_application.html" xlink:title="job_request_application" target="_top">
<polygon fill="#ffffff" stroke="transparent" points="8,-38.2 8,-275.2 167,-275.2 167,-38.2 8,-38.2"/>
<polygon fill="#f5f5f5" stroke="transparent" points="8.5,-251.7 8.5,-274.7 167.5,-274.7 167.5,-251.7 8.5,-251.7"/>
<polygon fill="none" stroke="#000000" points="8.5,-251.7 8.5,-274.7 167.5,-274.7 167.5,-251.7 8.5,-251.7"/>
<text text-anchor="start" x="13.4261" y="-260.8" font-family="Helvetica,sans-Serif" font-weight="bold" font-size="11.00" fill="#000000">job_request_application</text>
<text text-anchor="start" x="133.0219" y="-259.8" font-family="Helvetica,sans-Serif" font-size="11.00" fill="#000000">[table]</text>
<polygon fill="none" stroke="#000000" points="8.5,-229.7 8.5,-251.7 167.5,-251.7 167.5,-229.7 8.5,-229.7"/>
<image xlink:href="../../images/primaryKeys.png" width="11px" height="12px" preserveAspectRatio="xMinYMin meet" x="13.5" y="-246.7"/>
<text text-anchor="start" x="28.5" y="-236.8" font-family="Helvetica,sans-Serif" font-size="11.00" fill="#000000">id</text>
<polygon fill="#ffffff" stroke="transparent" points="8.5,-207.7 8.5,-229.7 167.5,-229.7 167.5,-207.7 8.5,-207.7"/>
<polygon fill="none" stroke="#000000" points="8.5,-207.7 8.5,-229.7 167.5,-229.7 167.5,-207.7 8.5,-207.7"/>
<image xlink:href="../../images/foreignKeys.png" width="11px" height="12px" preserveAspectRatio="xMinYMin meet" x="13.5" y="-224.7"/>
<text text-anchor="start" x="28.5" y="-214.8" font-family="Helvetica,sans-Serif" font-size="11.00" fill="#000000">created_by</text>
<polygon fill="#ffffff" stroke="transparent" points="8.5,-185.7 8.5,-207.7 167.5,-207.7 167.5,-185.7 8.5,-185.7"/>
<polygon fill="none" stroke="#000000" points="8.5,-185.7 8.5,-207.7 167.5,-207.7 167.5,-185.7 8.5,-185.7"/>
<image xlink:href="../../images/foreignKeys.png" width="11px" height="12px" preserveAspectRatio="xMinYMin meet" x="13.5" y="-202.7"/>
<text text-anchor="start" x="28.5" y="-192.8" font-family="Helvetica,sans-Serif" font-size="11.00" fill="#000000">modified_by</text>
<polygon fill="#ffffff" stroke="transparent" points="8.5,-163.7 8.5,-185.7 167.5,-185.7 167.5,-163.7 8.5,-163.7"/>
<polygon fill="none" stroke="#000000" points="8.5,-163.7 8.5,-185.7 167.5,-185.7 167.5,-163.7 8.5,-163.7"/>
<image xlink:href="../../images/foreignKeys.png" width="11px" height="12px" preserveAspectRatio="xMinYMin meet" x="13.5" y="-180.7"/>
<text text-anchor="start" x="28.5" y="-170.8" font-family="Helvetica,sans-Serif" font-size="11.00" fill="#000000">job_request_id</text>
<polygon fill="#ffffff" stroke="transparent" points="8.5,-141.7 8.5,-163.7 167.5,-163.7 167.5,-141.7 8.5,-141.7"/>
<polygon fill="none" stroke="#000000" points="8.5,-141.7 8.5,-163.7 167.5,-163.7 167.5,-141.7 8.5,-141.7"/>
<image xlink:href="../../images/foreignKeys.png" width="11px" height="12px" preserveAspectRatio="xMinYMin meet" x="13.5" y="-158.7"/>
<text text-anchor="start" x="28.5" y="-148.8" font-family="Helvetica,sans-Serif" font-size="11.00" fill="#000000">supplier_id</text>
<polygon fill="#ffffff" stroke="transparent" points="8.5,-119.7 8.5,-141.7 167.5,-141.7 167.5,-119.7 8.5,-119.7"/>
<polygon fill="none" stroke="#000000" points="8.5,-119.7 8.5,-141.7 167.5,-141.7 167.5,-119.7 8.5,-119.7"/>
<text text-anchor="start" x="28.5" y="-126.8" font-family="Helvetica,sans-Serif" font-size="11.00" fill="#000000">marketplace_id</text>
<polygon fill="#ffffff" stroke="transparent" points="8.5,-97.7 8.5,-119.7 167.5,-119.7 167.5,-97.7 8.5,-97.7"/>
<polygon fill="none" stroke="#000000" points="8.5,-97.7 8.5,-119.7 167.5,-119.7 167.5,-97.7 8.5,-97.7"/>
<image xlink:href="../../images/foreignKeys.png" width="11px" height="12px" preserveAspectRatio="xMinYMin meet" x="13.5" y="-114.7"/>
<text text-anchor="start" x="28.5" y="-104.8" font-family="Helvetica,sans-Serif" font-size="11.00" fill="#000000">applicant_id</text>
<polygon fill="#ffffff" stroke="transparent" points="8.5,-75.7 8.5,-97.7 167.5,-97.7 167.5,-75.7 8.5,-75.7"/>
<polygon fill="none" stroke="#000000" points="8.5,-75.7 8.5,-97.7 167.5,-97.7 167.5,-75.7 8.5,-75.7"/>
<image xlink:href="../../images/foreignKeys.png" width="11px" height="12px" preserveAspectRatio="xMinYMin meet" x="13.5" y="-92.7"/>
<text text-anchor="start" x="28.5" y="-82.8" font-family="Helvetica,sans-Serif" font-size="11.00" fill="#000000">avatar_id</text>
<polygon fill="none" stroke="#000000" points="8.5,-56.7 8.5,-75.7 167.5,-75.7 167.5,-56.7 8.5,-56.7"/>
<text text-anchor="start" x="11.5" y="-62.8" font-family="Helvetica,sans-Serif" font-size="11.00" fill="#000000">...</text>
<polygon fill="#ffffff" stroke="transparent" points="8.5,-37.7 8.5,-56.7 65.5,-56.7 65.5,-37.7 8.5,-37.7"/>
<polygon fill="none" stroke="#000000" points="8.5,-37.7 8.5,-56.7 65.5,-56.7 65.5,-37.7 8.5,-37.7"/>
<text text-anchor="start" x="11.5" y="-43.8" font-family="Helvetica,sans-Serif" font-size="11.00" fill="#000000">&lt; 6</text>
<polygon fill="#ffffff" stroke="transparent" points="65.5,-37.7 65.5,-56.7 127.5,-56.7 127.5,-37.7 65.5,-37.7"/>
<polygon fill="none" stroke="#000000" points="65.5,-37.7 65.5,-56.7 127.5,-56.7 127.5,-37.7 65.5,-37.7"/>
<text text-anchor="start" x="85.9956" y="-43.8" font-family="Helvetica,sans-Serif" font-size="11.00" fill="#000000">75 rows</text>
<polygon fill="#ffffff" stroke="transparent" points="127.5,-37.7 127.5,-56.7 167.5,-56.7 167.5,-37.7 127.5,-37.7"/>
<polygon fill="none" stroke="#000000" points="127.5,-37.7 127.5,-56.7 167.5,-56.7 167.5,-37.7 127.5,-37.7"/>
<text text-anchor="start" x="148.9053" y="-43.8" font-family="Helvetica,sans-Serif" font-size="11.00" fill="#000000">5 &gt;</text>
</a>
</g>
</g>
<!-- job_request_application_language&#45;&gt;job_request_application -->
<g id="edge1" class="edge">
<title>job_request_application_language:w&#45;&gt;job_request_application:e</title>
<path fill="none" stroke="#000000" d="M203.776,-240.7C191.7815,-240.7 184.3229,-240.7 167.5,-240.7"/>
<polygon fill="#000000" stroke="#000000" points="210.5,-240.7001 218.5,-244.3 214.5,-240.7 218.5,-240.7 218.5,-240.7 218.5,-240.7 214.5,-240.7 218.5,-237.1 210.5,-240.7001 210.5,-240.7001"/>
<ellipse fill="none" stroke="#000000" cx="207.3" cy="-240.7001" rx="3.2" ry="3.2"/>
</g>
</g>
</svg>
