<?xml version="1.0" encoding="UTF-8" standalone="no"?>
<!DOCTYPE svg PUBLIC "-//W3C//DTD SVG 1.1//EN"
 "http://www.w3.org/Graphics/SVG/1.1/DTD/svg11.dtd">
<!-- Generated by graphviz version 2.40.1 (20161225.0304)
 -->
<!-- Title: oneDegreeRelationshipsDiagram Pages: 1 -->
<svg width="596pt" height="826pt"
 viewBox="0.00 0.00 596.00 825.93" xmlns="http://www.w3.org/2000/svg" xmlns:xlink="http://www.w3.org/1999/xlink">
<g id="graph0" class="graph" transform="scale(1 1) rotate(0) translate(4 821.9283)">
<title>oneDegreeRelationshipsDiagram</title>
<polygon fill="#ffffff" stroke="transparent" points="-4,4 -4,-821.9283 592,-821.9283 592,4 -4,4"/>
<text text-anchor="middle" x="72.4936" y="-7.3" font-family="Helvetica,sans-Serif" font-size="11.00" fill="#000000">Generated by SchemaSpy</text>
<!-- applicant -->
<g id="node1" class="node">
<title>applicant</title>
<g id="a_node1"><a xlink:href="../../tables/applicant.html" xlink:title="applicant" target="_top">
<polygon fill="#ffffff" stroke="transparent" points="212,-598.9283 212,-813.9283 352,-813.9283 352,-598.9283 212,-598.9283"/>
<polygon fill="#f5f5f5" stroke="transparent" points="212,-790.4283 212,-813.4283 352,-813.4283 352,-790.4283 212,-790.4283"/>
<polygon fill="none" stroke="#000000" points="212,-790.4283 212,-813.4283 352,-813.4283 352,-790.4283 212,-790.4283"/>
<text text-anchor="start" x="217" y="-799.5283" font-family="Helvetica,sans-Serif" font-weight="bold" font-size="11.00" fill="#000000">applicant</text>
<text text-anchor="start" x="317.0437" y="-798.5283" font-family="Helvetica,sans-Serif" font-size="11.00" fill="#000000">[table]</text>
<polygon fill="none" stroke="#000000" points="212,-768.4283 212,-790.4283 352,-790.4283 352,-768.4283 212,-768.4283"/>
<image xlink:href="../../images/primaryKeys.png" width="11px" height="12px" preserveAspectRatio="xMinYMin meet" x="217" y="-785.428"/>
<text text-anchor="start" x="232" y="-775.5283" font-family="Helvetica,sans-Serif" font-size="11.00" fill="#000000">id</text>
<polygon fill="#ffffff" stroke="transparent" points="212,-746.4283 212,-768.4283 352,-768.4283 352,-746.4283 212,-746.4283"/>
<polygon fill="none" stroke="#000000" points="212,-746.4283 212,-768.4283 352,-768.4283 352,-746.4283 212,-746.4283"/>
<text text-anchor="start" x="232" y="-753.5283" font-family="Helvetica,sans-Serif" font-size="11.00" fill="#000000">created_by</text>
<polygon fill="#ffffff" stroke="transparent" points="212,-724.4283 212,-746.4283 352,-746.4283 352,-724.4283 212,-724.4283"/>
<polygon fill="none" stroke="#000000" points="212,-724.4283 212,-746.4283 352,-746.4283 352,-724.4283 212,-724.4283"/>
<text text-anchor="start" x="232" y="-731.5283" font-family="Helvetica,sans-Serif" font-size="11.00" fill="#000000">modified_by</text>
<polygon fill="#ffffff" stroke="transparent" points="212,-702.4283 212,-724.4283 352,-724.4283 352,-702.4283 212,-702.4283"/>
<polygon fill="none" stroke="#000000" points="212,-702.4283 212,-724.4283 352,-724.4283 352,-702.4283 212,-702.4283"/>
<image xlink:href="../../images/foreignKeys.png" width="11px" height="12px" preserveAspectRatio="xMinYMin meet" x="217" y="-719.428"/>
<text text-anchor="start" x="232" y="-709.5283" font-family="Helvetica,sans-Serif" font-size="11.00" fill="#000000">address_id</text>
<polygon fill="#ffffff" stroke="transparent" points="212,-680.4283 212,-702.4283 352,-702.4283 352,-680.4283 212,-680.4283"/>
<polygon fill="none" stroke="#000000" points="212,-680.4283 212,-702.4283 352,-702.4283 352,-680.4283 212,-680.4283"/>
<image xlink:href="../../images/foreignKeys.png" width="11px" height="12px" preserveAspectRatio="xMinYMin meet" x="217" y="-697.428"/>
<text text-anchor="start" x="232" y="-687.5283" font-family="Helvetica,sans-Serif" font-size="11.00" fill="#000000">avatar_id</text>
<polygon fill="#ffffff" stroke="transparent" points="212,-658.4283 212,-680.4283 352,-680.4283 352,-658.4283 212,-658.4283"/>
<polygon fill="none" stroke="#000000" points="212,-658.4283 212,-680.4283 352,-680.4283 352,-658.4283 212,-658.4283"/>
<image xlink:href="../../images/foreignKeys.png" width="11px" height="12px" preserveAspectRatio="xMinYMin meet" x="217" y="-675.428"/>
<text text-anchor="start" x="232" y="-665.5283" font-family="Helvetica,sans-Serif" font-size="11.00" fill="#000000">contact_person_id</text>
<polygon fill="#ffffff" stroke="transparent" points="212,-636.4283 212,-658.4283 352,-658.4283 352,-636.4283 212,-636.4283"/>
<polygon fill="none" stroke="#000000" points="212,-636.4283 212,-658.4283 352,-658.4283 352,-636.4283 212,-636.4283"/>
<image xlink:href="../../images/foreignKeys.png" width="11px" height="12px" preserveAspectRatio="xMinYMin meet" x="217" y="-653.428"/>
<text text-anchor="start" x="232" y="-643.5283" font-family="Helvetica,sans-Serif" font-size="11.00" fill="#000000">supplier_id</text>
<polygon fill="none" stroke="#000000" points="212,-617.4283 212,-636.4283 352,-636.4283 352,-617.4283 212,-617.4283"/>
<text text-anchor="start" x="215" y="-623.5283" font-family="Helvetica,sans-Serif" font-size="11.00" fill="#000000">...</text>
<polygon fill="#ffffff" stroke="transparent" points="212,-598.4283 212,-617.4283 260,-617.4283 260,-598.4283 212,-598.4283"/>
<polygon fill="none" stroke="#000000" points="212,-598.4283 212,-617.4283 260,-617.4283 260,-598.4283 212,-598.4283"/>
<text text-anchor="start" x="215" y="-604.5283" font-family="Helvetica,sans-Serif" font-size="11.00" fill="#000000">&lt; 4</text>
<polygon fill="#ffffff" stroke="transparent" points="260,-598.4283 260,-617.4283 317,-617.4283 317,-598.4283 260,-598.4283"/>
<polygon fill="none" stroke="#000000" points="260,-598.4283 260,-617.4283 317,-617.4283 317,-598.4283 260,-598.4283"/>
<text text-anchor="start" x="275.4956" y="-604.5283" font-family="Helvetica,sans-Serif" font-size="11.00" fill="#000000">90 rows</text>
<polygon fill="#ffffff" stroke="transparent" points="317,-598.4283 317,-617.4283 352,-617.4283 352,-598.4283 317,-598.4283"/>
<polygon fill="none" stroke="#000000" points="317,-598.4283 317,-617.4283 352,-617.4283 352,-598.4283 317,-598.4283"/>
<text text-anchor="start" x="333.4053" y="-604.5283" font-family="Helvetica,sans-Serif" font-size="11.00" fill="#000000">5 &gt;</text>
</a>
</g>
</g>
<!-- location -->
<g id="node2" class="node">
<title>location</title>
<g id="a_node2"><a xlink:href="../../tables/location.html" xlink:title="location" target="_top">
<polygon fill="#ffffff" stroke="transparent" points="8,-338.4283 8,-450.4283 150,-450.4283 150,-338.4283 8,-338.4283"/>
<polygon fill="#f5f5f5" stroke="transparent" points="10,-425.4283 10,-448.4283 148,-448.4283 148,-425.4283 10,-425.4283"/>
<polygon fill="none" stroke="#000000" points="10,-425.4283 10,-448.4283 148,-448.4283 148,-425.4283 10,-425.4283"/>
<text text-anchor="start" x="15" y="-434.5283" font-family="Helvetica,sans-Serif" font-weight="bold" font-size="11.00" fill="#000000">location</text>
<text text-anchor="start" x="113.0437" y="-433.5283" font-family="Helvetica,sans-Serif" font-size="11.00" fill="#000000">[table]</text>
<polygon fill="none" stroke="#000000" points="10,-403.4283 10,-425.4283 81,-425.4283 81,-403.4283 10,-403.4283"/>
<image xlink:href="../../images/primaryKeys.png" width="11px" height="12px" preserveAspectRatio="xMinYMin meet" x="15" y="-420.428"/>
<text text-anchor="start" x="32" y="-410.5283" font-family="Helvetica,sans-Serif" font-size="11.00" fill="#000000">id</text>
<polygon fill="none" stroke="#000000" points="81,-403.4283 81,-425.4283 148,-425.4283 148,-403.4283 81,-403.4283"/>
<text text-anchor="start" x="84" y="-411.1283" font-family="Helvetica,sans-Serif" font-size="11.00" fill="#000000">bigint[19]</text>
<polygon fill="none" stroke="#000000" points="10,-381.4283 10,-403.4283 81,-403.4283 81,-381.4283 10,-381.4283"/>
<text text-anchor="start" x="32" y="-388.5283" font-family="Helvetica,sans-Serif" font-size="11.00" fill="#000000">city</text>
<polygon fill="none" stroke="#000000" points="81,-381.4283 81,-403.4283 148,-403.4283 148,-381.4283 81,-381.4283"/>
<text text-anchor="start" x="83.9365" y="-389.1283" font-family="Helvetica,sans-Serif" font-size="11.00" fill="#000000">varchar[255]</text>
<polygon fill="none" stroke="#000000" points="10,-359.4283 10,-381.4283 81,-381.4283 81,-359.4283 10,-359.4283"/>
<text text-anchor="start" x="32" y="-366.5283" font-family="Helvetica,sans-Serif" font-size="11.00" fill="#000000">country</text>
<polygon fill="none" stroke="#000000" points="81,-359.4283 81,-381.4283 148,-381.4283 148,-359.4283 81,-359.4283"/>
<text text-anchor="start" x="83.9365" y="-367.1283" font-family="Helvetica,sans-Serif" font-size="11.00" fill="#000000">varchar[255]</text>
<polygon fill="#ffffff" stroke="transparent" points="10,-340.4283 10,-359.4283 31,-359.4283 31,-340.4283 10,-340.4283"/>
<polygon fill="none" stroke="#000000" points="10,-340.4283 10,-359.4283 31,-359.4283 31,-340.4283 10,-340.4283"/>
<text text-anchor="start" x="12.7027" y="-346.5283" font-family="Helvetica,sans-Serif" font-size="11.00" fill="#000000">&lt; 0</text>
<polygon fill="#ffffff" stroke="transparent" points="31,-340.4283 31,-359.4283 81,-359.4283 81,-340.4283 31,-340.4283"/>
<polygon fill="none" stroke="#000000" points="31,-340.4283 31,-359.4283 81,-359.4283 81,-340.4283 31,-340.4283"/>
<text text-anchor="start" x="33.6903" y="-346.5283" font-family="Helvetica,sans-Serif" font-size="11.00" fill="#000000">541 rows</text>
<polygon fill="#ffffff" stroke="transparent" points="81,-340.4283 81,-359.4283 148,-359.4283 148,-340.4283 81,-340.4283"/>
<polygon fill="none" stroke="#000000" points="81,-340.4283 81,-359.4283 148,-359.4283 148,-340.4283 81,-340.4283"/>
<text text-anchor="start" x="129.4053" y="-346.5283" font-family="Helvetica,sans-Serif" font-size="11.00" fill="#000000">4 &gt;</text>
<polygon fill="none" stroke="#000000" stroke-width="2" points="9,-339.4283 9,-449.4283 149,-449.4283 149,-339.4283 9,-339.4283"/>
</a>
</g>
</g>
<!-- applicant&#45;&gt;location -->
<g id="edge1" class="edge">
<title>applicant:w&#45;&gt;location:e</title>
<path fill="none" stroke="#000000" d="M198.5017,-708.2386C154.4311,-668.5345 210.641,-414.4283 148,-414.4283"/>
<polygon fill="#000000" stroke="#000000" points="204.5329,-710.5574 210.7081,-716.7885 208.2664,-711.9928 212,-713.4283 212,-713.4283 212,-713.4283 208.2664,-711.9928 213.2919,-710.0681 204.5329,-710.5574 204.5329,-710.5574"/>
<ellipse fill="none" stroke="#000000" cx="201.546" cy="-709.409" rx="3.2" ry="3.2"/>
</g>
<!-- invitation -->
<g id="node3" class="node">
<title>invitation</title>
<g id="a_node3"><a xlink:href="../../tables/invitation.html" xlink:title="invitation" target="_top">
<polygon fill="#ffffff" stroke="transparent" points="218.5,-428.9283 218.5,-577.9283 345.5,-577.9283 345.5,-428.9283 218.5,-428.9283"/>
<polygon fill="#f5f5f5" stroke="transparent" points="219,-554.4283 219,-577.4283 346,-577.4283 346,-554.4283 219,-554.4283"/>
<polygon fill="none" stroke="#000000" points="219,-554.4283 219,-577.4283 346,-577.4283 346,-554.4283 219,-554.4283"/>
<text text-anchor="start" x="224" y="-563.5283" font-family="Helvetica,sans-Serif" font-weight="bold" font-size="11.00" fill="#000000">invitation</text>
<text text-anchor="start" x="311.0437" y="-562.5283" font-family="Helvetica,sans-Serif" font-size="11.00" fill="#000000">[table]</text>
<polygon fill="none" stroke="#000000" points="219,-532.4283 219,-554.4283 346,-554.4283 346,-532.4283 219,-532.4283"/>
<image xlink:href="../../images/primaryKeys.png" width="11px" height="12px" preserveAspectRatio="xMinYMin meet" x="224" y="-549.428"/>
<text text-anchor="start" x="239" y="-539.5283" font-family="Helvetica,sans-Serif" font-size="11.00" fill="#000000">id</text>
<polygon fill="#ffffff" stroke="transparent" points="219,-510.4283 219,-532.4283 346,-532.4283 346,-510.4283 219,-510.4283"/>
<polygon fill="none" stroke="#000000" points="219,-510.4283 219,-532.4283 346,-532.4283 346,-510.4283 219,-510.4283"/>
<image xlink:href="../../images/foreignKeys.png" width="11px" height="12px" preserveAspectRatio="xMinYMin meet" x="224" y="-527.428"/>
<text text-anchor="start" x="239" y="-517.5283" font-family="Helvetica,sans-Serif" font-size="11.00" fill="#000000">location_id</text>
<polygon fill="#ffffff" stroke="transparent" points="219,-488.4283 219,-510.4283 346,-510.4283 346,-488.4283 219,-488.4283"/>
<polygon fill="none" stroke="#000000" points="219,-488.4283 219,-510.4283 346,-510.4283 346,-488.4283 219,-488.4283"/>
<image xlink:href="../../images/foreignKeys.png" width="11px" height="12px" preserveAspectRatio="xMinYMin meet" x="224" y="-505.428"/>
<text text-anchor="start" x="239" y="-495.5283" font-family="Helvetica,sans-Serif" font-size="11.00" fill="#000000">role_id</text>
<polygon fill="#ffffff" stroke="transparent" points="219,-466.4283 219,-488.4283 346,-488.4283 346,-466.4283 219,-466.4283"/>
<polygon fill="none" stroke="#000000" points="219,-466.4283 219,-488.4283 346,-488.4283 346,-466.4283 219,-466.4283"/>
<image xlink:href="../../images/foreignKeys.png" width="11px" height="12px" preserveAspectRatio="xMinYMin meet" x="224" y="-483.428"/>
<text text-anchor="start" x="239" y="-473.5283" font-family="Helvetica,sans-Serif" font-size="11.00" fill="#000000">contact_person_id</text>
<polygon fill="none" stroke="#000000" points="219,-447.4283 219,-466.4283 346,-466.4283 346,-447.4283 219,-447.4283"/>
<text text-anchor="start" x="222" y="-453.5283" font-family="Helvetica,sans-Serif" font-size="11.00" fill="#000000">...</text>
<polygon fill="#ffffff" stroke="transparent" points="219,-428.4283 219,-447.4283 263,-447.4283 263,-428.4283 219,-428.4283"/>
<polygon fill="none" stroke="#000000" points="219,-428.4283 219,-447.4283 263,-447.4283 263,-428.4283 219,-428.4283"/>
<text text-anchor="start" x="222" y="-434.5283" font-family="Helvetica,sans-Serif" font-size="11.00" fill="#000000">&lt; 3</text>
<polygon fill="#ffffff" stroke="transparent" points="263,-428.4283 263,-447.4283 313,-447.4283 313,-428.4283 263,-428.4283"/>
<polygon fill="none" stroke="#000000" points="263,-428.4283 263,-447.4283 313,-447.4283 313,-428.4283 263,-428.4283"/>
<text text-anchor="start" x="277.6105" y="-434.5283" font-family="Helvetica,sans-Serif" font-size="11.00" fill="#000000">4 rows</text>
<polygon fill="#ffffff" stroke="transparent" points="313,-428.4283 313,-447.4283 346,-447.4283 346,-428.4283 313,-428.4283"/>
<polygon fill="none" stroke="#000000" points="313,-428.4283 313,-447.4283 346,-447.4283 346,-428.4283 313,-428.4283"/>
<text text-anchor="start" x="327.4053" y="-434.5283" font-family="Helvetica,sans-Serif" font-size="11.00" fill="#000000">2 &gt;</text>
</a>
</g>
</g>
<!-- invitation&#45;&gt;location -->
<g id="edge2" class="edge">
<title>invitation:w&#45;&gt;location:e</title>
<path fill="none" stroke="#000000" d="M204.5019,-518.3414C169.6575,-500.7976 199.2762,-414.4283 148,-414.4283"/>
<polygon fill="#000000" stroke="#000000" points="211.1754,-519.7622 218.2503,-524.9494 215.0877,-520.5953 219,-521.4283 219,-521.4283 219,-521.4283 215.0877,-520.5953 219.7497,-517.9072 211.1754,-519.7622 211.1754,-519.7622"/>
<ellipse fill="none" stroke="#000000" cx="208.0456" cy="-519.0958" rx="3.2" ry="3.2"/>
</g>
<!-- job_ad -->
<g id="node4" class="node">
<title>job_ad</title>
<g id="a_node4"><a xlink:href="../../tables/job_ad.html" xlink:title="job_ad" target="_top">
<polygon fill="#ffffff" stroke="transparent" points="414,-155.9283 414,-348.9283 580,-348.9283 580,-155.9283 414,-155.9283"/>
<polygon fill="#f5f5f5" stroke="transparent" points="414,-325.4283 414,-348.4283 580,-348.4283 580,-325.4283 414,-325.4283"/>
<polygon fill="none" stroke="#000000" points="414,-325.4283 414,-348.4283 580,-348.4283 580,-325.4283 414,-325.4283"/>
<text text-anchor="start" x="419" y="-334.5283" font-family="Helvetica,sans-Serif" font-weight="bold" font-size="11.00" fill="#000000">job_ad</text>
<text text-anchor="start" x="545.0437" y="-333.5283" font-family="Helvetica,sans-Serif" font-size="11.00" fill="#000000">[table]</text>
<polygon fill="none" stroke="#000000" points="414,-303.4283 414,-325.4283 580,-325.4283 580,-303.4283 414,-303.4283"/>
<image xlink:href="../../images/primaryKeys.png" width="11px" height="12px" preserveAspectRatio="xMinYMin meet" x="419" y="-320.428"/>
<text text-anchor="start" x="434" y="-310.5283" font-family="Helvetica,sans-Serif" font-size="11.00" fill="#000000">id</text>
<polygon fill="#ffffff" stroke="transparent" points="414,-281.4283 414,-303.4283 580,-303.4283 580,-281.4283 414,-281.4283"/>
<polygon fill="none" stroke="#000000" points="414,-281.4283 414,-303.4283 580,-303.4283 580,-281.4283 414,-281.4283"/>
<image xlink:href="../../images/foreignKeys.png" width="11px" height="12px" preserveAspectRatio="xMinYMin meet" x="419" y="-298.428"/>
<text text-anchor="start" x="434" y="-288.5283" font-family="Helvetica,sans-Serif" font-size="11.00" fill="#000000">created_by</text>
<polygon fill="#ffffff" stroke="transparent" points="414,-259.4283 414,-281.4283 580,-281.4283 580,-259.4283 414,-259.4283"/>
<polygon fill="none" stroke="#000000" points="414,-259.4283 414,-281.4283 580,-281.4283 580,-259.4283 414,-259.4283"/>
<image xlink:href="../../images/foreignKeys.png" width="11px" height="12px" preserveAspectRatio="xMinYMin meet" x="419" y="-276.428"/>
<text text-anchor="start" x="434" y="-266.5283" font-family="Helvetica,sans-Serif" font-size="11.00" fill="#000000">modified_by</text>
<polygon fill="#ffffff" stroke="transparent" points="414,-237.4283 414,-259.4283 580,-259.4283 580,-237.4283 414,-237.4283"/>
<polygon fill="none" stroke="#000000" points="414,-237.4283 414,-259.4283 580,-259.4283 580,-237.4283 414,-237.4283"/>
<text text-anchor="start" x="434" y="-244.5283" font-family="Helvetica,sans-Serif" font-size="11.00" fill="#000000">marketplace_id</text>
<polygon fill="#ffffff" stroke="transparent" points="414,-215.4283 414,-237.4283 580,-237.4283 580,-215.4283 414,-215.4283"/>
<polygon fill="none" stroke="#000000" points="414,-215.4283 414,-237.4283 580,-237.4283 580,-215.4283 414,-215.4283"/>
<image xlink:href="../../images/foreignKeys.png" width="11px" height="12px" preserveAspectRatio="xMinYMin meet" x="419" y="-232.428"/>
<text text-anchor="start" x="434" y="-222.5283" font-family="Helvetica,sans-Serif" font-size="11.00" fill="#000000">job_request_id</text>
<polygon fill="#ffffff" stroke="transparent" points="414,-193.4283 414,-215.4283 580,-215.4283 580,-193.4283 414,-193.4283"/>
<polygon fill="none" stroke="#000000" points="414,-193.4283 414,-215.4283 580,-215.4283 580,-193.4283 414,-193.4283"/>
<image xlink:href="../../images/foreignKeys.png" width="11px" height="12px" preserveAspectRatio="xMinYMin meet" x="419" y="-210.428"/>
<text text-anchor="start" x="434" y="-200.5283" font-family="Helvetica,sans-Serif" font-size="11.00" fill="#000000">location_id</text>
<polygon fill="none" stroke="#000000" points="414,-174.4283 414,-193.4283 580,-193.4283 580,-174.4283 414,-174.4283"/>
<text text-anchor="start" x="417" y="-180.5283" font-family="Helvetica,sans-Serif" font-size="11.00" fill="#000000">...</text>
<polygon fill="#ffffff" stroke="transparent" points="414,-155.4283 414,-174.4283 475,-174.4283 475,-155.4283 414,-155.4283"/>
<polygon fill="none" stroke="#000000" points="414,-155.4283 414,-174.4283 475,-174.4283 475,-155.4283 414,-155.4283"/>
<text text-anchor="start" x="417" y="-161.5283" font-family="Helvetica,sans-Serif" font-size="11.00" fill="#000000">&lt; 4</text>
<polygon fill="#ffffff" stroke="transparent" points="475,-155.4283 475,-174.4283 539,-174.4283 539,-155.4283 475,-155.4283"/>
<polygon fill="none" stroke="#000000" points="475,-155.4283 475,-174.4283 539,-174.4283 539,-155.4283 475,-155.4283"/>
<text text-anchor="start" x="497.4956" y="-161.5283" font-family="Helvetica,sans-Serif" font-size="11.00" fill="#000000">34 rows</text>
<polygon fill="#ffffff" stroke="transparent" points="539,-155.4283 539,-174.4283 580,-174.4283 580,-155.4283 539,-155.4283"/>
<polygon fill="none" stroke="#000000" points="539,-155.4283 539,-174.4283 580,-174.4283 580,-155.4283 539,-155.4283"/>
<text text-anchor="start" x="561.4053" y="-161.5283" font-family="Helvetica,sans-Serif" font-size="11.00" fill="#000000">2 &gt;</text>
</a>
</g>
</g>
<!-- job_ad&#45;&gt;location -->
<g id="edge4" class="edge">
<title>job_ad:w&#45;&gt;location:e</title>
<path fill="none" stroke="#000000" d="M399.5263,-201.8381C365.0816,-186.3264 417.6329,-105.3014 373,-72.4283 307.87,-24.4586 251.6599,-18.9176 191,-72.4283 133.5576,-123.1006 224.5984,-414.4283 148,-414.4283"/>
<polygon fill="#000000" stroke="#000000" points="406.1251,-203.019 413.3658,-207.972 410.0626,-203.7236 414,-204.4283 414,-204.4283 414,-204.4283 410.0626,-203.7236 414.6342,-200.8846 406.1251,-203.019 406.1251,-203.019"/>
<ellipse fill="none" stroke="#000000" cx="402.9751" cy="-202.4552" rx="3.2" ry="3.2"/>
</g>
<!-- job_request -->
<g id="node5" class="node">
<title>job_request</title>
<g id="a_node5"><a xlink:href="../../tables/job_request.html" xlink:title="job_request" target="_top">
<polygon fill="#ffffff" stroke="transparent" points="199,-82.9283 199,-407.9283 365,-407.9283 365,-82.9283 199,-82.9283"/>
<polygon fill="#f5f5f5" stroke="transparent" points="199,-384.4283 199,-407.4283 365,-407.4283 365,-384.4283 199,-384.4283"/>
<polygon fill="none" stroke="#000000" points="199,-384.4283 199,-407.4283 365,-407.4283 365,-384.4283 199,-384.4283"/>
<text text-anchor="start" x="204" y="-393.5283" font-family="Helvetica,sans-Serif" font-weight="bold" font-size="11.00" fill="#000000">job_request</text>
<text text-anchor="start" x="330.0437" y="-392.5283" font-family="Helvetica,sans-Serif" font-size="11.00" fill="#000000">[table]</text>
<polygon fill="none" stroke="#000000" points="199,-362.4283 199,-384.4283 365,-384.4283 365,-362.4283 199,-362.4283"/>
<image xlink:href="../../images/primaryKeys.png" width="11px" height="12px" preserveAspectRatio="xMinYMin meet" x="204" y="-379.428"/>
<text text-anchor="start" x="219" y="-369.5283" font-family="Helvetica,sans-Serif" font-size="11.00" fill="#000000">id</text>
<polygon fill="#ffffff" stroke="transparent" points="199,-340.4283 199,-362.4283 365,-362.4283 365,-340.4283 199,-340.4283"/>
<polygon fill="none" stroke="#000000" points="199,-340.4283 199,-362.4283 365,-362.4283 365,-340.4283 199,-340.4283"/>
<image xlink:href="../../images/foreignKeys.png" width="11px" height="12px" preserveAspectRatio="xMinYMin meet" x="204" y="-357.428"/>
<text text-anchor="start" x="219" y="-347.5283" font-family="Helvetica,sans-Serif" font-size="11.00" fill="#000000">created_by</text>
<polygon fill="#ffffff" stroke="transparent" points="199,-318.4283 199,-340.4283 365,-340.4283 365,-318.4283 199,-318.4283"/>
<polygon fill="none" stroke="#000000" points="199,-318.4283 199,-340.4283 365,-340.4283 365,-318.4283 199,-318.4283"/>
<image xlink:href="../../images/foreignKeys.png" width="11px" height="12px" preserveAspectRatio="xMinYMin meet" x="204" y="-335.428"/>
<text text-anchor="start" x="219" y="-325.5283" font-family="Helvetica,sans-Serif" font-size="11.00" fill="#000000">modified_by</text>
<polygon fill="#ffffff" stroke="transparent" points="199,-296.4283 199,-318.4283 365,-318.4283 365,-296.4283 199,-296.4283"/>
<polygon fill="none" stroke="#000000" points="199,-296.4283 199,-318.4283 365,-318.4283 365,-296.4283 199,-296.4283"/>
<image xlink:href="../../images/foreignKeys.png" width="11px" height="12px" preserveAspectRatio="xMinYMin meet" x="204" y="-313.428"/>
<text text-anchor="start" x="219" y="-303.5283" font-family="Helvetica,sans-Serif" font-size="11.00" fill="#000000">location_id</text>
<polygon fill="#ffffff" stroke="transparent" points="199,-274.4283 199,-296.4283 365,-296.4283 365,-274.4283 199,-274.4283"/>
<polygon fill="none" stroke="#000000" points="199,-274.4283 199,-296.4283 365,-296.4283 365,-274.4283 199,-274.4283"/>
<image xlink:href="../../images/foreignKeys.png" width="11px" height="12px" preserveAspectRatio="xMinYMin meet" x="204" y="-291.428"/>
<text text-anchor="start" x="219" y="-281.5283" font-family="Helvetica,sans-Serif" font-size="11.00" fill="#000000">rate_card_id</text>
<polygon fill="#ffffff" stroke="transparent" points="199,-252.4283 199,-274.4283 365,-274.4283 365,-252.4283 199,-252.4283"/>
<polygon fill="none" stroke="#000000" points="199,-252.4283 199,-274.4283 365,-274.4283 365,-252.4283 199,-252.4283"/>
<image xlink:href="../../images/foreignKeys.png" width="11px" height="12px" preserveAspectRatio="xMinYMin meet" x="204" y="-269.428"/>
<text text-anchor="start" x="219" y="-259.5283" font-family="Helvetica,sans-Serif" font-size="11.00" fill="#000000">source_job_request_id</text>
<polygon fill="#ffffff" stroke="transparent" points="199,-230.4283 199,-252.4283 365,-252.4283 365,-230.4283 199,-230.4283"/>
<polygon fill="none" stroke="#000000" points="199,-230.4283 199,-252.4283 365,-252.4283 365,-230.4283 199,-230.4283"/>
<image xlink:href="../../images/foreignKeys.png" width="11px" height="12px" preserveAspectRatio="xMinYMin meet" x="204" y="-247.428"/>
<text text-anchor="start" x="219" y="-237.5283" font-family="Helvetica,sans-Serif" font-size="11.00" fill="#000000">eworker_id</text>
<polygon fill="#ffffff" stroke="transparent" points="199,-208.4283 199,-230.4283 365,-230.4283 365,-208.4283 199,-208.4283"/>
<polygon fill="none" stroke="#000000" points="199,-208.4283 199,-230.4283 365,-230.4283 365,-208.4283 199,-208.4283"/>
<image xlink:href="../../images/foreignKeys.png" width="11px" height="12px" preserveAspectRatio="xMinYMin meet" x="204" y="-225.428"/>
<text text-anchor="start" x="219" y="-215.5283" font-family="Helvetica,sans-Serif" font-size="11.00" fill="#000000">unit_id</text>
<polygon fill="#ffffff" stroke="transparent" points="199,-186.4283 199,-208.4283 365,-208.4283 365,-186.4283 199,-186.4283"/>
<polygon fill="none" stroke="#000000" points="199,-186.4283 199,-208.4283 365,-208.4283 365,-186.4283 199,-186.4283"/>
<image xlink:href="../../images/foreignKeys.png" width="11px" height="12px" preserveAspectRatio="xMinYMin meet" x="204" y="-203.428"/>
<text text-anchor="start" x="219" y="-193.5283" font-family="Helvetica,sans-Serif" font-size="11.00" fill="#000000">closed_eworker_id</text>
<polygon fill="#ffffff" stroke="transparent" points="199,-164.4283 199,-186.4283 365,-186.4283 365,-164.4283 199,-164.4283"/>
<polygon fill="none" stroke="#000000" points="199,-164.4283 199,-186.4283 365,-186.4283 365,-164.4283 199,-164.4283"/>
<image xlink:href="../../images/foreignKeys.png" width="11px" height="12px" preserveAspectRatio="xMinYMin meet" x="204" y="-181.428"/>
<text text-anchor="start" x="219" y="-171.5283" font-family="Helvetica,sans-Serif" font-size="11.00" fill="#000000">client_contact_id</text>
<polygon fill="#ffffff" stroke="transparent" points="199,-142.4283 199,-164.4283 365,-164.4283 365,-142.4283 199,-142.4283"/>
<polygon fill="none" stroke="#000000" points="199,-142.4283 199,-164.4283 365,-164.4283 365,-142.4283 199,-142.4283"/>
<image xlink:href="../../images/foreignKeys.png" width="11px" height="12px" preserveAspectRatio="xMinYMin meet" x="204" y="-159.428"/>
<text text-anchor="start" x="219" y="-149.5283" font-family="Helvetica,sans-Serif" font-size="11.00" fill="#000000">client_id</text>
<polygon fill="#ffffff" stroke="transparent" points="199,-120.4283 199,-142.4283 365,-142.4283 365,-120.4283 199,-120.4283"/>
<polygon fill="none" stroke="#000000" points="199,-120.4283 199,-142.4283 365,-142.4283 365,-120.4283 199,-120.4283"/>
<image xlink:href="../../images/foreignKeys.png" width="11px" height="12px" preserveAspectRatio="xMinYMin meet" x="204" y="-137.428"/>
<text text-anchor="start" x="219" y="-127.5283" font-family="Helvetica,sans-Serif" font-size="11.00" fill="#000000">role_id</text>
<polygon fill="none" stroke="#000000" points="199,-101.4283 199,-120.4283 365,-120.4283 365,-101.4283 199,-101.4283"/>
<text text-anchor="start" x="202" y="-107.5283" font-family="Helvetica,sans-Serif" font-size="11.00" fill="#000000">...</text>
<polygon fill="#ffffff" stroke="transparent" points="199,-82.4283 199,-101.4283 260,-101.4283 260,-82.4283 199,-82.4283"/>
<polygon fill="none" stroke="#000000" points="199,-82.4283 199,-101.4283 260,-101.4283 260,-82.4283 199,-82.4283"/>
<text text-anchor="start" x="202" y="-88.5283" font-family="Helvetica,sans-Serif" font-size="11.00" fill="#000000">&lt; 11</text>
<polygon fill="#ffffff" stroke="transparent" points="260,-82.4283 260,-101.4283 327,-101.4283 327,-82.4283 260,-82.4283"/>
<polygon fill="none" stroke="#000000" points="260,-82.4283 260,-101.4283 327,-101.4283 327,-82.4283 260,-82.4283"/>
<text text-anchor="start" x="279.3807" y="-88.5283" font-family="Helvetica,sans-Serif" font-size="11.00" fill="#000000">254 rows</text>
<polygon fill="#ffffff" stroke="transparent" points="327,-82.4283 327,-101.4283 365,-101.4283 365,-82.4283 327,-82.4283"/>
<polygon fill="none" stroke="#000000" points="327,-82.4283 327,-101.4283 365,-101.4283 365,-82.4283 327,-82.4283"/>
<text text-anchor="start" x="346.4053" y="-88.5283" font-family="Helvetica,sans-Serif" font-size="11.00" fill="#000000">7 &gt;</text>
</a>
</g>
</g>
<!-- job_ad&#45;&gt;job_request -->
<g id="edge3" class="edge">
<title>job_ad:w&#45;&gt;job_request:e</title>
<path fill="none" stroke="#000000" d="M399.7968,-229.3647C358.9257,-250.0828 428.0836,-373.4283 365,-373.4283"/>
<polygon fill="#000000" stroke="#000000" points="406.1657,-228.048 414.7289,-229.9537 410.0828,-227.2381 414,-226.4283 414,-226.4283 414,-226.4283 410.0828,-227.2381 413.2711,-222.9028 406.1657,-228.048 406.1657,-228.048"/>
<ellipse fill="none" stroke="#000000" cx="403.0319" cy="-228.6959" rx="3.2" ry="3.2"/>
</g>
<!-- job_request&#45;&gt;location -->
<g id="edge5" class="edge">
<title>job_request:w&#45;&gt;location:e</title>
<path fill="none" stroke="#000000" d="M184.9064,-311.2365C157.2616,-330.2974 194.7134,-414.4283 148,-414.4283"/>
<polygon fill="#000000" stroke="#000000" points="191.277,-309.5151 199.9391,-310.9036 195.1385,-308.4717 199,-307.4283 199,-307.4283 199,-307.4283 195.1385,-308.4717 198.0609,-303.9529 191.277,-309.5151 191.277,-309.5151"/>
<ellipse fill="none" stroke="#000000" cx="188.1878" cy="-310.3499" rx="3.2" ry="3.2"/>
</g>
</g>
</svg>
