<?xml version="1.0" encoding="UTF-8" standalone="no"?>
<!DOCTYPE svg PUBLIC "-//W3C//DTD SVG 1.1//EN"
 "http://www.w3.org/Graphics/SVG/1.1/DTD/svg11.dtd">
<!-- Generated by graphviz version 2.40.1 (20161225.0304)
 -->
<!-- Title: oneDegreeRelationshipsDiagram Pages: 1 -->
<svg width="434pt" height="465pt"
 viewBox="0.00 0.00 434.00 464.70" xmlns="http://www.w3.org/2000/svg" xmlns:xlink="http://www.w3.org/1999/xlink">
<g id="graph0" class="graph" transform="scale(1 1) rotate(0) translate(4 460.7)">
<title>oneDegreeRelationshipsDiagram</title>
<polygon fill="#ffffff" stroke="transparent" points="-4,4 -4,-460.7 430,-460.7 430,4 -4,4"/>
<text text-anchor="middle" x="72.4936" y="-7.3" font-family="Helvetica,sans-Serif" font-size="11.00" fill="#000000">Generated by SchemaSpy</text>
<!-- paycode -->
<g id="node1" class="node">
<title>paycode</title>
<g id="a_node1"><a xlink:href="../../tables/paycode.html" xlink:title="paycode" target="_top">
<polygon fill="#ffffff" stroke="transparent" points="220,-142.7 220,-452.7 418,-452.7 418,-142.7 220,-142.7"/>
<polygon fill="#f5f5f5" stroke="transparent" points="222,-427.7 222,-450.7 416,-450.7 416,-427.7 222,-427.7"/>
<polygon fill="none" stroke="#000000" points="222,-427.7 222,-450.7 416,-450.7 416,-427.7 222,-427.7"/>
<text text-anchor="start" x="227" y="-436.8" font-family="Helvetica,sans-Serif" font-weight="bold" font-size="11.00" fill="#000000">paycode</text>
<text text-anchor="start" x="381.0437" y="-435.8" font-family="Helvetica,sans-Serif" font-size="11.00" fill="#000000">[table]</text>
<polygon fill="none" stroke="#000000" points="222,-405.7 222,-427.7 345,-427.7 345,-405.7 222,-405.7"/>
<image xlink:href="../../images/primaryKeys.png" width="11px" height="12px" preserveAspectRatio="xMinYMin meet" x="227" y="-422.7"/>
<text text-anchor="start" x="242" y="-412.8" font-family="Helvetica,sans-Serif" font-size="11.00" fill="#000000">id</text>
<polygon fill="none" stroke="#000000" points="345,-405.7 345,-427.7 416,-427.7 416,-405.7 345,-405.7"/>
<text text-anchor="start" x="348" y="-413.4" font-family="Helvetica,sans-Serif" font-size="11.00" fill="#000000">bigint[19]</text>
<polygon fill="#ffffff" stroke="transparent" points="222,-383.7 222,-405.7 345,-405.7 345,-383.7 222,-383.7"/>
<polygon fill="none" stroke="#000000" points="222,-383.7 222,-405.7 345,-405.7 345,-383.7 222,-383.7"/>
<image xlink:href="../../images/foreignKeys.png" width="11px" height="12px" preserveAspectRatio="xMinYMin meet" x="227" y="-400.7"/>
<text text-anchor="start" x="242" y="-390.8" font-family="Helvetica,sans-Serif" font-size="11.00" fill="#000000">created_by</text>
<polygon fill="none" stroke="#000000" points="345,-383.7 345,-405.7 416,-405.7 416,-383.7 345,-383.7"/>
<text text-anchor="start" x="348" y="-391.4" font-family="Helvetica,sans-Serif" font-size="11.00" fill="#000000">bigint[19]</text>
<polygon fill="none" stroke="#000000" points="222,-361.7 222,-383.7 345,-383.7 345,-361.7 222,-361.7"/>
<text text-anchor="start" x="242" y="-368.8" font-family="Helvetica,sans-Serif" font-size="11.00" fill="#000000">creation_date</text>
<polygon fill="none" stroke="#000000" points="345,-361.7 345,-383.7 416,-383.7 416,-361.7 345,-361.7"/>
<text text-anchor="start" x="348" y="-369.4" font-family="Helvetica,sans-Serif" font-size="11.00" fill="#000000">datetime[26]</text>
<polygon fill="#ffffff" stroke="transparent" points="222,-339.7 222,-361.7 345,-361.7 345,-339.7 222,-339.7"/>
<polygon fill="none" stroke="#000000" points="222,-339.7 222,-361.7 345,-361.7 345,-339.7 222,-339.7"/>
<image xlink:href="../../images/foreignKeys.png" width="11px" height="12px" preserveAspectRatio="xMinYMin meet" x="227" y="-356.7"/>
<text text-anchor="start" x="242" y="-346.8" font-family="Helvetica,sans-Serif" font-size="11.00" fill="#000000">modified_by</text>
<polygon fill="none" stroke="#000000" points="345,-339.7 345,-361.7 416,-361.7 416,-339.7 345,-339.7"/>
<text text-anchor="start" x="348" y="-347.4" font-family="Helvetica,sans-Serif" font-size="11.00" fill="#000000">bigint[19]</text>
<polygon fill="none" stroke="#000000" points="222,-317.7 222,-339.7 345,-339.7 345,-317.7 222,-317.7"/>
<text text-anchor="start" x="242" y="-324.8" font-family="Helvetica,sans-Serif" font-size="11.00" fill="#000000">modification_date</text>
<polygon fill="none" stroke="#000000" points="345,-317.7 345,-339.7 416,-339.7 416,-317.7 345,-317.7"/>
<text text-anchor="start" x="348" y="-325.4" font-family="Helvetica,sans-Serif" font-size="11.00" fill="#000000">datetime[26]</text>
<polygon fill="#ffffff" stroke="transparent" points="222,-295.7 222,-317.7 345,-317.7 345,-295.7 222,-295.7"/>
<polygon fill="none" stroke="#000000" points="222,-295.7 222,-317.7 345,-317.7 345,-295.7 222,-295.7"/>
<text text-anchor="start" x="242" y="-302.8" font-family="Helvetica,sans-Serif" font-size="11.00" fill="#000000">type</text>
<polygon fill="none" stroke="#000000" points="345,-295.7 345,-317.7 416,-317.7 416,-295.7 345,-295.7"/>
<text text-anchor="start" x="348" y="-303.4" font-family="Helvetica,sans-Serif" font-size="11.00" fill="#000000">varchar[25]</text>
<polygon fill="none" stroke="#000000" points="222,-273.7 222,-295.7 345,-295.7 345,-273.7 222,-273.7"/>
<text text-anchor="start" x="242" y="-280.8" font-family="Helvetica,sans-Serif" font-size="11.00" fill="#000000">value</text>
<polygon fill="none" stroke="#000000" points="345,-273.7 345,-295.7 416,-295.7 416,-273.7 345,-273.7"/>
<text text-anchor="start" x="347.7981" y="-281.4" font-family="Helvetica,sans-Serif" font-size="11.00" fill="#000000">decimal[19,2]</text>
<polygon fill="none" stroke="#000000" points="222,-251.7 222,-273.7 345,-273.7 345,-251.7 222,-251.7"/>
<text text-anchor="start" x="242" y="-258.8" font-family="Helvetica,sans-Serif" font-size="11.00" fill="#000000">value_type</text>
<polygon fill="none" stroke="#000000" points="345,-251.7 345,-273.7 416,-273.7 416,-251.7 345,-251.7"/>
<text text-anchor="start" x="348" y="-259.4" font-family="Helvetica,sans-Serif" font-size="11.00" fill="#000000">varchar[25]</text>
<polygon fill="none" stroke="#000000" points="222,-229.7 222,-251.7 345,-251.7 345,-229.7 222,-229.7"/>
<text text-anchor="start" x="242" y="-236.8" font-family="Helvetica,sans-Serif" font-size="11.00" fill="#000000">currency</text>
<polygon fill="none" stroke="#000000" points="345,-229.7 345,-251.7 416,-251.7 416,-229.7 345,-229.7"/>
<text text-anchor="start" x="348" y="-237.4" font-family="Helvetica,sans-Serif" font-size="11.00" fill="#000000">varchar[10]</text>
<polygon fill="none" stroke="#000000" points="222,-207.7 222,-229.7 345,-229.7 345,-207.7 222,-207.7"/>
<text text-anchor="start" x="242" y="-214.8" font-family="Helvetica,sans-Serif" font-size="11.00" fill="#000000">unit</text>
<polygon fill="none" stroke="#000000" points="345,-207.7 345,-229.7 416,-229.7 416,-207.7 345,-207.7"/>
<text text-anchor="start" x="348" y="-215.4" font-family="Helvetica,sans-Serif" font-size="11.00" fill="#000000">varchar[25]</text>
<polygon fill="#ffffff" stroke="transparent" points="222,-185.7 222,-207.7 345,-207.7 345,-185.7 222,-185.7"/>
<polygon fill="none" stroke="#000000" points="222,-185.7 222,-207.7 345,-207.7 345,-185.7 222,-185.7"/>
<text text-anchor="start" x="242" y="-192.8" font-family="Helvetica,sans-Serif" font-size="11.00" fill="#000000">order</text>
<polygon fill="none" stroke="#000000" points="345,-185.7 345,-207.7 416,-207.7 416,-185.7 345,-185.7"/>
<text text-anchor="start" x="348" y="-193.4" font-family="Helvetica,sans-Serif" font-size="11.00" fill="#000000">int[10]</text>
<polygon fill="#ffffff" stroke="transparent" points="222,-163.7 222,-185.7 345,-185.7 345,-163.7 222,-163.7"/>
<polygon fill="none" stroke="#000000" points="222,-163.7 222,-185.7 345,-185.7 345,-163.7 222,-163.7"/>
<image xlink:href="../../images/foreignKeys.png" width="11px" height="12px" preserveAspectRatio="xMinYMin meet" x="227" y="-180.7"/>
<text text-anchor="start" x="242" y="-170.8" font-family="Helvetica,sans-Serif" font-size="11.00" fill="#000000">client_unit_id</text>
<polygon fill="none" stroke="#000000" points="345,-163.7 345,-185.7 416,-185.7 416,-163.7 345,-163.7"/>
<text text-anchor="start" x="348" y="-171.4" font-family="Helvetica,sans-Serif" font-size="11.00" fill="#000000">bigint[19]</text>
<polygon fill="#ffffff" stroke="transparent" points="222,-144.7 222,-163.7 275,-163.7 275,-144.7 222,-144.7"/>
<polygon fill="none" stroke="#000000" points="222,-144.7 222,-163.7 275,-163.7 275,-144.7 222,-144.7"/>
<text text-anchor="start" x="225" y="-150.8" font-family="Helvetica,sans-Serif" font-size="11.00" fill="#000000">&lt; 3</text>
<polygon fill="#ffffff" stroke="transparent" points="275,-144.7 275,-163.7 345,-163.7 345,-144.7 275,-144.7"/>
<polygon fill="none" stroke="#000000" points="275,-144.7 275,-163.7 345,-163.7 345,-144.7 275,-144.7"/>
<text text-anchor="start" x="309.6105" y="-150.8" font-family="Helvetica,sans-Serif" font-size="11.00" fill="#000000">2 rows</text>
<polygon fill="#ffffff" stroke="transparent" points="345,-144.7 345,-163.7 416,-163.7 416,-144.7 345,-144.7"/>
<polygon fill="none" stroke="#000000" points="345,-144.7 345,-163.7 416,-163.7 416,-144.7 345,-144.7"/>
<text text-anchor="start" x="397.4053" y="-150.8" font-family="Helvetica,sans-Serif" font-size="11.00" fill="#000000">0 &gt;</text>
<polygon fill="none" stroke="#000000" stroke-width="2" points="221,-143.7 221,-451.7 417,-451.7 417,-143.7 221,-143.7"/>
</a>
</g>
</g>
<!-- client_unit -->
<g id="node2" class="node">
<title>client_unit</title>
<g id="a_node2"><a xlink:href="../../tables/client_unit.html" xlink:title="client_unit" target="_top">
<polygon fill="#ffffff" stroke="transparent" points="8,-38.2 8,-209.2 171,-209.2 171,-38.2 8,-38.2"/>
<polygon fill="#f5f5f5" stroke="transparent" points="8.5,-185.7 8.5,-208.7 171.5,-208.7 171.5,-185.7 8.5,-185.7"/>
<polygon fill="none" stroke="#000000" points="8.5,-185.7 8.5,-208.7 171.5,-208.7 171.5,-185.7 8.5,-185.7"/>
<text text-anchor="start" x="13.5" y="-194.8" font-family="Helvetica,sans-Serif" font-weight="bold" font-size="11.00" fill="#000000">client_unit</text>
<text text-anchor="start" x="136.5437" y="-193.8" font-family="Helvetica,sans-Serif" font-size="11.00" fill="#000000">[table]</text>
<polygon fill="none" stroke="#000000" points="8.5,-163.7 8.5,-185.7 171.5,-185.7 171.5,-163.7 8.5,-163.7"/>
<image xlink:href="../../images/primaryKeys.png" width="11px" height="12px" preserveAspectRatio="xMinYMin meet" x="13.5" y="-180.7"/>
<text text-anchor="start" x="28.5" y="-170.8" font-family="Helvetica,sans-Serif" font-size="11.00" fill="#000000">id</text>
<polygon fill="#ffffff" stroke="transparent" points="8.5,-141.7 8.5,-163.7 171.5,-163.7 171.5,-141.7 8.5,-141.7"/>
<polygon fill="none" stroke="#000000" points="8.5,-141.7 8.5,-163.7 171.5,-163.7 171.5,-141.7 8.5,-141.7"/>
<text text-anchor="start" x="28.5" y="-148.8" font-family="Helvetica,sans-Serif" font-size="11.00" fill="#000000">name</text>
<polygon fill="#ffffff" stroke="transparent" points="8.5,-119.7 8.5,-141.7 171.5,-141.7 171.5,-119.7 8.5,-119.7"/>
<polygon fill="none" stroke="#000000" points="8.5,-119.7 8.5,-141.7 171.5,-141.7 171.5,-119.7 8.5,-119.7"/>
<text text-anchor="start" x="28.5" y="-126.8" font-family="Helvetica,sans-Serif" font-size="11.00" fill="#000000">vat_number</text>
<polygon fill="#ffffff" stroke="transparent" points="8.5,-97.7 8.5,-119.7 171.5,-119.7 171.5,-97.7 8.5,-97.7"/>
<polygon fill="none" stroke="#000000" points="8.5,-97.7 8.5,-119.7 171.5,-119.7 171.5,-97.7 8.5,-97.7"/>
<image xlink:href="../../images/foreignKeys.png" width="11px" height="12px" preserveAspectRatio="xMinYMin meet" x="13.5" y="-114.7"/>
<text text-anchor="start" x="28.5" y="-104.8" font-family="Helvetica,sans-Serif" font-size="11.00" fill="#000000">client_id</text>
<polygon fill="#ffffff" stroke="transparent" points="8.5,-75.7 8.5,-97.7 171.5,-97.7 171.5,-75.7 8.5,-75.7"/>
<polygon fill="none" stroke="#000000" points="8.5,-75.7 8.5,-97.7 171.5,-97.7 171.5,-75.7 8.5,-75.7"/>
<image xlink:href="../../images/foreignKeys.png" width="11px" height="12px" preserveAspectRatio="xMinYMin meet" x="13.5" y="-92.7"/>
<text text-anchor="start" x="28.5" y="-82.8" font-family="Helvetica,sans-Serif" font-size="11.00" fill="#000000">time_report_schedule_id</text>
<polygon fill="none" stroke="#000000" points="8.5,-56.7 8.5,-75.7 171.5,-75.7 171.5,-56.7 8.5,-56.7"/>
<text text-anchor="start" x="11.5" y="-62.8" font-family="Helvetica,sans-Serif" font-size="11.00" fill="#000000">...</text>
<polygon fill="#ffffff" stroke="transparent" points="8.5,-37.7 8.5,-56.7 64.5,-56.7 64.5,-37.7 8.5,-37.7"/>
<polygon fill="none" stroke="#000000" points="8.5,-37.7 8.5,-56.7 64.5,-56.7 64.5,-37.7 8.5,-37.7"/>
<text text-anchor="start" x="11.5" y="-43.8" font-family="Helvetica,sans-Serif" font-size="11.00" fill="#000000">&lt; 2</text>
<polygon fill="#ffffff" stroke="transparent" points="64.5,-37.7 64.5,-56.7 132.5,-56.7 132.5,-37.7 64.5,-37.7"/>
<polygon fill="none" stroke="#000000" points="64.5,-37.7 64.5,-56.7 132.5,-56.7 132.5,-37.7 64.5,-37.7"/>
<text text-anchor="start" x="84.8807" y="-43.8" font-family="Helvetica,sans-Serif" font-size="11.00" fill="#000000">117 rows</text>
<polygon fill="#ffffff" stroke="transparent" points="132.5,-37.7 132.5,-56.7 171.5,-56.7 171.5,-37.7 132.5,-37.7"/>
<polygon fill="none" stroke="#000000" points="132.5,-37.7 132.5,-56.7 171.5,-56.7 171.5,-37.7 132.5,-37.7"/>
<text text-anchor="start" x="152.9053" y="-43.8" font-family="Helvetica,sans-Serif" font-size="11.00" fill="#000000">4 &gt;</text>
</a>
</g>
</g>
<!-- paycode&#45;&gt;client_unit -->
<g id="edge1" class="edge">
<title>paycode:w&#45;&gt;client_unit:e</title>
<path fill="none" stroke="#000000" d="M207.4203,-174.7C195.5435,-174.7 188.158,-174.7 171.5,-174.7"/>
<polygon fill="#000000" stroke="#000000" points="214,-174.7001 222,-178.3 218,-174.7 222,-174.7 222,-174.7 222,-174.7 218,-174.7 222,-171.1 214,-174.7001 214,-174.7001"/>
<ellipse fill="none" stroke="#000000" cx="210.8" cy="-174.7001" rx="3.2" ry="3.2"/>
</g>
<!-- principal -->
<g id="node3" class="node">
<title>principal</title>
<g id="a_node3"><a xlink:href="../../tables/principal.html" xlink:title="principal" target="_top">
<polygon fill="#ffffff" stroke="transparent" points="43.5,-302.2 43.5,-407.2 135.5,-407.2 135.5,-302.2 43.5,-302.2"/>
<polygon fill="#f5f5f5" stroke="transparent" points="43.5,-383.7 43.5,-406.7 135.5,-406.7 135.5,-383.7 43.5,-383.7"/>
<polygon fill="none" stroke="#000000" points="43.5,-383.7 43.5,-406.7 135.5,-406.7 135.5,-383.7 43.5,-383.7"/>
<text text-anchor="start" x="48.5" y="-392.8" font-family="Helvetica,sans-Serif" font-weight="bold" font-size="11.00" fill="#000000">principal</text>
<text text-anchor="start" x="100.5437" y="-391.8" font-family="Helvetica,sans-Serif" font-size="11.00" fill="#000000">[table]</text>
<polygon fill="none" stroke="#000000" points="43.5,-361.7 43.5,-383.7 135.5,-383.7 135.5,-361.7 43.5,-361.7"/>
<image xlink:href="../../images/primaryKeys.png" width="11px" height="12px" preserveAspectRatio="xMinYMin meet" x="48.5" y="-378.7"/>
<text text-anchor="start" x="67.5" y="-368.8" font-family="Helvetica,sans-Serif" font-size="11.00" fill="#000000">id</text>
<polygon fill="#ffffff" stroke="transparent" points="43.5,-339.7 43.5,-361.7 135.5,-361.7 135.5,-339.7 43.5,-339.7"/>
<polygon fill="none" stroke="#000000" points="43.5,-339.7 43.5,-361.7 135.5,-361.7 135.5,-339.7 43.5,-339.7"/>
<image xlink:href="../../images/foreignKeys.png" width="11px" height="12px" preserveAspectRatio="xMinYMin meet" x="48.5" y="-356.7"/>
<text text-anchor="start" x="67.5" y="-346.8" font-family="Helvetica,sans-Serif" font-size="11.00" fill="#000000">eworker_id</text>
<polygon fill="none" stroke="#000000" points="43.5,-320.7 43.5,-339.7 135.5,-339.7 135.5,-320.7 43.5,-320.7"/>
<text text-anchor="start" x="46.5" y="-326.8" font-family="Helvetica,sans-Serif" font-size="11.00" fill="#000000">...</text>
<polygon fill="#ffffff" stroke="transparent" points="43.5,-301.7 43.5,-320.7 64.5,-320.7 64.5,-301.7 43.5,-301.7"/>
<polygon fill="none" stroke="#000000" points="43.5,-301.7 43.5,-320.7 64.5,-320.7 64.5,-301.7 43.5,-301.7"/>
<text text-anchor="start" x="46.2027" y="-307.8" font-family="Helvetica,sans-Serif" font-size="11.00" fill="#000000">&lt; 1</text>
<polygon fill="#ffffff" stroke="transparent" points="64.5,-301.7 64.5,-320.7 108.5,-320.7 108.5,-301.7 64.5,-301.7"/>
<polygon fill="none" stroke="#000000" points="64.5,-301.7 64.5,-320.7 108.5,-320.7 108.5,-301.7 64.5,-301.7"/>
<text text-anchor="start" x="67.2478" y="-307.8" font-family="Helvetica,sans-Serif" font-size="11.00" fill="#000000">18 rows</text>
<polygon fill="#ffffff" stroke="transparent" points="108.5,-301.7 108.5,-320.7 135.5,-320.7 135.5,-301.7 108.5,-301.7"/>
<polygon fill="none" stroke="#000000" points="108.5,-301.7 108.5,-320.7 135.5,-320.7 135.5,-301.7 108.5,-301.7"/>
<text text-anchor="start" x="111.1452" y="-307.8" font-family="Helvetica,sans-Serif" font-size="11.00" fill="#000000">56 &gt;</text>
</a>
</g>
</g>
<!-- paycode&#45;&gt;principal -->
<g id="edge2" class="edge">
<title>paycode:w&#45;&gt;principal:e</title>
<path fill="none" stroke="#000000" d="M207.3864,-393.5788C179.7653,-389.0956 169.745,-372.7 135.5,-372.7"/>
<polygon fill="#000000" stroke="#000000" points="214.0234,-394.0879 221.7246,-398.2895 218.0117,-394.394 222,-394.7 222,-394.7 222,-394.7 218.0117,-394.394 222.2754,-391.1105 214.0234,-394.0879 214.0234,-394.0879"/>
<ellipse fill="none" stroke="#000000" cx="210.8328" cy="-393.8431" rx="3.2" ry="3.2"/>
</g>
<!-- paycode&#45;&gt;principal -->
<g id="edge3" class="edge">
<title>paycode:w&#45;&gt;principal:e</title>
<path fill="none" stroke="#000000" d="M207.3864,-351.8212C179.7653,-356.3044 169.745,-372.7 135.5,-372.7"/>
<polygon fill="#000000" stroke="#000000" points="214.0234,-351.3121 222.2754,-354.2895 218.0117,-351.006 222,-350.7 222,-350.7 222,-350.7 218.0117,-351.006 221.7246,-347.1105 214.0234,-351.3121 214.0234,-351.3121"/>
<ellipse fill="none" stroke="#000000" cx="210.8328" cy="-351.5569" rx="3.2" ry="3.2"/>
</g>
</g>
</svg>
