<?xml version="1.0" encoding="UTF-8" standalone="no"?>
<!DOCTYPE svg PUBLIC "-//W3C//DTD SVG 1.1//EN"
 "http://www.w3.org/Graphics/SVG/1.1/DTD/svg11.dtd">
<!-- Generated by graphviz version 2.40.1 (20161225.0304)
 -->
<!-- Title: oneDegreeRelationshipsDiagram Pages: 1 -->
<svg width="523pt" height="501pt"
 viewBox="0.00 0.00 523.00 501.20" xmlns="http://www.w3.org/2000/svg" xmlns:xlink="http://www.w3.org/1999/xlink">
<g id="graph0" class="graph" transform="scale(1 1) rotate(0) translate(4 497.2)">
<title>oneDegreeRelationshipsDiagram</title>
<polygon fill="#ffffff" stroke="transparent" points="-4,4 -4,-497.2 519,-497.2 519,4 -4,4"/>
<text text-anchor="middle" x="72.4936" y="-7.3" font-family="Helvetica,sans-Serif" font-size="11.00" fill="#000000">Generated by SchemaSpy</text>
<!-- presentation_job_request_application -->
<g id="node1" class="node">
<title>presentation_job_request_application</title>
<g id="a_node1"><a xlink:href="../../tables/presentation_job_request_application.html" xlink:title="presentation_job_request_application" target="_top">
<polygon fill="#ffffff" stroke="transparent" points="216,-304.7 216,-394.7 507,-394.7 507,-304.7 216,-304.7"/>
<polygon fill="#f5f5f5" stroke="transparent" points="218.5,-369.7 218.5,-392.7 505.5,-392.7 505.5,-369.7 218.5,-369.7"/>
<polygon fill="none" stroke="#000000" points="218.5,-369.7 218.5,-392.7 505.5,-392.7 505.5,-369.7 218.5,-369.7"/>
<text text-anchor="start" x="223.5" y="-378.8" font-family="Helvetica,sans-Serif" font-weight="bold" font-size="11.00" fill="#000000">presentation_job_request_application</text>
<text text-anchor="start" x="470.5437" y="-377.8" font-family="Helvetica,sans-Serif" font-size="11.00" fill="#000000">[table]</text>
<polygon fill="#ffffff" stroke="transparent" points="218.5,-347.7 218.5,-369.7 455.5,-369.7 455.5,-347.7 218.5,-347.7"/>
<polygon fill="none" stroke="#000000" points="218.5,-347.7 218.5,-369.7 455.5,-369.7 455.5,-347.7 218.5,-347.7"/>
<image xlink:href="../../images/foreignKeys.png" width="11px" height="12px" preserveAspectRatio="xMinYMin meet" x="223.5" y="-364.7"/>
<text text-anchor="start" x="238.5" y="-354.8" font-family="Helvetica,sans-Serif" font-size="11.00" fill="#000000">presentation_id</text>
<polygon fill="none" stroke="#000000" points="455.5,-347.7 455.5,-369.7 505.5,-369.7 505.5,-347.7 455.5,-347.7"/>
<text text-anchor="start" x="458.1865" y="-355.4" font-family="Helvetica,sans-Serif" font-size="11.00" fill="#000000">bigint[19]</text>
<polygon fill="#ffffff" stroke="transparent" points="218.5,-325.7 218.5,-347.7 455.5,-347.7 455.5,-325.7 218.5,-325.7"/>
<polygon fill="none" stroke="#000000" points="218.5,-325.7 218.5,-347.7 455.5,-347.7 455.5,-325.7 218.5,-325.7"/>
<image xlink:href="../../images/foreignKeys.png" width="11px" height="12px" preserveAspectRatio="xMinYMin meet" x="223.5" y="-342.7"/>
<text text-anchor="start" x="238.5" y="-332.8" font-family="Helvetica,sans-Serif" font-size="11.00" fill="#000000">job_request_application_id</text>
<polygon fill="none" stroke="#000000" points="455.5,-325.7 455.5,-347.7 505.5,-347.7 505.5,-325.7 455.5,-325.7"/>
<text text-anchor="start" x="458.1865" y="-333.4" font-family="Helvetica,sans-Serif" font-size="11.00" fill="#000000">bigint[19]</text>
<polygon fill="#ffffff" stroke="transparent" points="218.5,-306.7 218.5,-325.7 325.5,-325.7 325.5,-306.7 218.5,-306.7"/>
<polygon fill="none" stroke="#000000" points="218.5,-306.7 218.5,-325.7 325.5,-325.7 325.5,-306.7 218.5,-306.7"/>
<text text-anchor="start" x="221.5" y="-312.8" font-family="Helvetica,sans-Serif" font-size="11.00" fill="#000000">&lt; 2</text>
<polygon fill="#ffffff" stroke="transparent" points="325.5,-306.7 325.5,-325.7 455.5,-325.7 455.5,-306.7 325.5,-306.7"/>
<polygon fill="none" stroke="#000000" points="325.5,-306.7 325.5,-325.7 455.5,-325.7 455.5,-306.7 325.5,-306.7"/>
<text text-anchor="start" x="413.9956" y="-312.8" font-family="Helvetica,sans-Serif" font-size="11.00" fill="#000000">16 rows</text>
<polygon fill="#ffffff" stroke="transparent" points="455.5,-306.7 455.5,-325.7 505.5,-325.7 505.5,-306.7 455.5,-306.7"/>
<polygon fill="none" stroke="#000000" points="455.5,-306.7 455.5,-325.7 505.5,-325.7 505.5,-306.7 455.5,-306.7"/>
<text text-anchor="start" x="486.9053" y="-312.8" font-family="Helvetica,sans-Serif" font-size="11.00" fill="#000000">0 &gt;</text>
<polygon fill="none" stroke="#000000" stroke-width="2" points="217,-305.7 217,-393.7 506,-393.7 506,-305.7 217,-305.7"/>
</a>
</g>
</g>
<!-- job_request_application -->
<g id="node2" class="node">
<title>job_request_application</title>
<g id="a_node2"><a xlink:href="../../tables/job_request_application.html" xlink:title="job_request_application" target="_top">
<polygon fill="#ffffff" stroke="transparent" points="8,-38.2 8,-275.2 167,-275.2 167,-38.2 8,-38.2"/>
<polygon fill="#f5f5f5" stroke="transparent" points="8.5,-251.7 8.5,-274.7 167.5,-274.7 167.5,-251.7 8.5,-251.7"/>
<polygon fill="none" stroke="#000000" points="8.5,-251.7 8.5,-274.7 167.5,-274.7 167.5,-251.7 8.5,-251.7"/>
<text text-anchor="start" x="13.4261" y="-260.8" font-family="Helvetica,sans-Serif" font-weight="bold" font-size="11.00" fill="#000000">job_request_application</text>
<text text-anchor="start" x="133.0219" y="-259.8" font-family="Helvetica,sans-Serif" font-size="11.00" fill="#000000">[table]</text>
<polygon fill="none" stroke="#000000" points="8.5,-229.7 8.5,-251.7 167.5,-251.7 167.5,-229.7 8.5,-229.7"/>
<image xlink:href="../../images/primaryKeys.png" width="11px" height="12px" preserveAspectRatio="xMinYMin meet" x="13.5" y="-246.7"/>
<text text-anchor="start" x="28.5" y="-236.8" font-family="Helvetica,sans-Serif" font-size="11.00" fill="#000000">id</text>
<polygon fill="#ffffff" stroke="transparent" points="8.5,-207.7 8.5,-229.7 167.5,-229.7 167.5,-207.7 8.5,-207.7"/>
<polygon fill="none" stroke="#000000" points="8.5,-207.7 8.5,-229.7 167.5,-229.7 167.5,-207.7 8.5,-207.7"/>
<image xlink:href="../../images/foreignKeys.png" width="11px" height="12px" preserveAspectRatio="xMinYMin meet" x="13.5" y="-224.7"/>
<text text-anchor="start" x="28.5" y="-214.8" font-family="Helvetica,sans-Serif" font-size="11.00" fill="#000000">created_by</text>
<polygon fill="#ffffff" stroke="transparent" points="8.5,-185.7 8.5,-207.7 167.5,-207.7 167.5,-185.7 8.5,-185.7"/>
<polygon fill="none" stroke="#000000" points="8.5,-185.7 8.5,-207.7 167.5,-207.7 167.5,-185.7 8.5,-185.7"/>
<image xlink:href="../../images/foreignKeys.png" width="11px" height="12px" preserveAspectRatio="xMinYMin meet" x="13.5" y="-202.7"/>
<text text-anchor="start" x="28.5" y="-192.8" font-family="Helvetica,sans-Serif" font-size="11.00" fill="#000000">modified_by</text>
<polygon fill="#ffffff" stroke="transparent" points="8.5,-163.7 8.5,-185.7 167.5,-185.7 167.5,-163.7 8.5,-163.7"/>
<polygon fill="none" stroke="#000000" points="8.5,-163.7 8.5,-185.7 167.5,-185.7 167.5,-163.7 8.5,-163.7"/>
<image xlink:href="../../images/foreignKeys.png" width="11px" height="12px" preserveAspectRatio="xMinYMin meet" x="13.5" y="-180.7"/>
<text text-anchor="start" x="28.5" y="-170.8" font-family="Helvetica,sans-Serif" font-size="11.00" fill="#000000">job_request_id</text>
<polygon fill="#ffffff" stroke="transparent" points="8.5,-141.7 8.5,-163.7 167.5,-163.7 167.5,-141.7 8.5,-141.7"/>
<polygon fill="none" stroke="#000000" points="8.5,-141.7 8.5,-163.7 167.5,-163.7 167.5,-141.7 8.5,-141.7"/>
<image xlink:href="../../images/foreignKeys.png" width="11px" height="12px" preserveAspectRatio="xMinYMin meet" x="13.5" y="-158.7"/>
<text text-anchor="start" x="28.5" y="-148.8" font-family="Helvetica,sans-Serif" font-size="11.00" fill="#000000">supplier_id</text>
<polygon fill="#ffffff" stroke="transparent" points="8.5,-119.7 8.5,-141.7 167.5,-141.7 167.5,-119.7 8.5,-119.7"/>
<polygon fill="none" stroke="#000000" points="8.5,-119.7 8.5,-141.7 167.5,-141.7 167.5,-119.7 8.5,-119.7"/>
<text text-anchor="start" x="28.5" y="-126.8" font-family="Helvetica,sans-Serif" font-size="11.00" fill="#000000">marketplace_id</text>
<polygon fill="#ffffff" stroke="transparent" points="8.5,-97.7 8.5,-119.7 167.5,-119.7 167.5,-97.7 8.5,-97.7"/>
<polygon fill="none" stroke="#000000" points="8.5,-97.7 8.5,-119.7 167.5,-119.7 167.5,-97.7 8.5,-97.7"/>
<image xlink:href="../../images/foreignKeys.png" width="11px" height="12px" preserveAspectRatio="xMinYMin meet" x="13.5" y="-114.7"/>
<text text-anchor="start" x="28.5" y="-104.8" font-family="Helvetica,sans-Serif" font-size="11.00" fill="#000000">applicant_id</text>
<polygon fill="#ffffff" stroke="transparent" points="8.5,-75.7 8.5,-97.7 167.5,-97.7 167.5,-75.7 8.5,-75.7"/>
<polygon fill="none" stroke="#000000" points="8.5,-75.7 8.5,-97.7 167.5,-97.7 167.5,-75.7 8.5,-75.7"/>
<image xlink:href="../../images/foreignKeys.png" width="11px" height="12px" preserveAspectRatio="xMinYMin meet" x="13.5" y="-92.7"/>
<text text-anchor="start" x="28.5" y="-82.8" font-family="Helvetica,sans-Serif" font-size="11.00" fill="#000000">avatar_id</text>
<polygon fill="none" stroke="#000000" points="8.5,-56.7 8.5,-75.7 167.5,-75.7 167.5,-56.7 8.5,-56.7"/>
<text text-anchor="start" x="11.5" y="-62.8" font-family="Helvetica,sans-Serif" font-size="11.00" fill="#000000">...</text>
<polygon fill="#ffffff" stroke="transparent" points="8.5,-37.7 8.5,-56.7 65.5,-56.7 65.5,-37.7 8.5,-37.7"/>
<polygon fill="none" stroke="#000000" points="8.5,-37.7 8.5,-56.7 65.5,-56.7 65.5,-37.7 8.5,-37.7"/>
<text text-anchor="start" x="11.5" y="-43.8" font-family="Helvetica,sans-Serif" font-size="11.00" fill="#000000">&lt; 6</text>
<polygon fill="#ffffff" stroke="transparent" points="65.5,-37.7 65.5,-56.7 127.5,-56.7 127.5,-37.7 65.5,-37.7"/>
<polygon fill="none" stroke="#000000" points="65.5,-37.7 65.5,-56.7 127.5,-56.7 127.5,-37.7 65.5,-37.7"/>
<text text-anchor="start" x="85.9956" y="-43.8" font-family="Helvetica,sans-Serif" font-size="11.00" fill="#000000">75 rows</text>
<polygon fill="#ffffff" stroke="transparent" points="127.5,-37.7 127.5,-56.7 167.5,-56.7 167.5,-37.7 127.5,-37.7"/>
<polygon fill="none" stroke="#000000" points="127.5,-37.7 127.5,-56.7 167.5,-56.7 167.5,-37.7 127.5,-37.7"/>
<text text-anchor="start" x="148.9053" y="-43.8" font-family="Helvetica,sans-Serif" font-size="11.00" fill="#000000">5 &gt;</text>
</a>
</g>
</g>
<!-- presentation_job_request_application&#45;&gt;job_request_application -->
<g id="edge1" class="edge">
<title>presentation_job_request_application:w&#45;&gt;job_request_application:e</title>
<path fill="none" stroke="#000000" d="M204.4189,-332.575C180.1253,-314.2 209.7746,-240.7 167.5,-240.7"/>
<polygon fill="#000000" stroke="#000000" points="210.8226,-334.4509 217.4879,-340.1548 214.6613,-335.5755 218.5,-336.7 218.5,-336.7 218.5,-336.7 214.6613,-335.5755 219.5121,-333.2452 210.8226,-334.4509 210.8226,-334.4509"/>
<ellipse fill="none" stroke="#000000" cx="207.7517" cy="-333.5513" rx="3.2" ry="3.2"/>
</g>
<!-- presentation -->
<g id="node3" class="node">
<title>presentation</title>
<g id="a_node3"><a xlink:href="../../tables/presentation.html" xlink:title="presentation" target="_top">
<polygon fill="#ffffff" stroke="transparent" points="14,-296.2 14,-489.2 161,-489.2 161,-296.2 14,-296.2"/>
<polygon fill="#f5f5f5" stroke="transparent" points="14.5,-465.7 14.5,-488.7 161.5,-488.7 161.5,-465.7 14.5,-465.7"/>
<polygon fill="none" stroke="#000000" points="14.5,-465.7 14.5,-488.7 161.5,-488.7 161.5,-465.7 14.5,-465.7"/>
<text text-anchor="start" x="19.5" y="-474.8" font-family="Helvetica,sans-Serif" font-weight="bold" font-size="11.00" fill="#000000">presentation</text>
<text text-anchor="start" x="126.5437" y="-473.8" font-family="Helvetica,sans-Serif" font-size="11.00" fill="#000000">[table]</text>
<polygon fill="none" stroke="#000000" points="14.5,-443.7 14.5,-465.7 161.5,-465.7 161.5,-443.7 14.5,-443.7"/>
<image xlink:href="../../images/primaryKeys.png" width="11px" height="12px" preserveAspectRatio="xMinYMin meet" x="19.5" y="-460.7"/>
<text text-anchor="start" x="34.5" y="-450.8" font-family="Helvetica,sans-Serif" font-size="11.00" fill="#000000">id</text>
<polygon fill="#ffffff" stroke="transparent" points="14.5,-421.7 14.5,-443.7 161.5,-443.7 161.5,-421.7 14.5,-421.7"/>
<polygon fill="none" stroke="#000000" points="14.5,-421.7 14.5,-443.7 161.5,-443.7 161.5,-421.7 14.5,-421.7"/>
<image xlink:href="../../images/foreignKeys.png" width="11px" height="12px" preserveAspectRatio="xMinYMin meet" x="19.5" y="-438.7"/>
<text text-anchor="start" x="34.5" y="-428.8" font-family="Helvetica,sans-Serif" font-size="11.00" fill="#000000">created_by</text>
<polygon fill="#ffffff" stroke="transparent" points="14.5,-399.7 14.5,-421.7 161.5,-421.7 161.5,-399.7 14.5,-399.7"/>
<polygon fill="none" stroke="#000000" points="14.5,-399.7 14.5,-421.7 161.5,-421.7 161.5,-399.7 14.5,-399.7"/>
<image xlink:href="../../images/foreignKeys.png" width="11px" height="12px" preserveAspectRatio="xMinYMin meet" x="19.5" y="-416.7"/>
<text text-anchor="start" x="34.5" y="-406.8" font-family="Helvetica,sans-Serif" font-size="11.00" fill="#000000">modified_by</text>
<polygon fill="#ffffff" stroke="transparent" points="14.5,-377.7 14.5,-399.7 161.5,-399.7 161.5,-377.7 14.5,-377.7"/>
<polygon fill="none" stroke="#000000" points="14.5,-377.7 14.5,-399.7 161.5,-399.7 161.5,-377.7 14.5,-377.7"/>
<image xlink:href="../../images/foreignKeys.png" width="11px" height="12px" preserveAspectRatio="xMinYMin meet" x="19.5" y="-394.7"/>
<text text-anchor="start" x="34.5" y="-384.8" font-family="Helvetica,sans-Serif" font-size="11.00" fill="#000000">job_request_id</text>
<polygon fill="#ffffff" stroke="transparent" points="14.5,-355.7 14.5,-377.7 161.5,-377.7 161.5,-355.7 14.5,-355.7"/>
<polygon fill="none" stroke="#000000" points="14.5,-355.7 14.5,-377.7 161.5,-377.7 161.5,-355.7 14.5,-355.7"/>
<image xlink:href="../../images/foreignKeys.png" width="11px" height="12px" preserveAspectRatio="xMinYMin meet" x="19.5" y="-372.7"/>
<text text-anchor="start" x="34.5" y="-362.8" font-family="Helvetica,sans-Serif" font-size="11.00" fill="#000000">presenter_id</text>
<polygon fill="#ffffff" stroke="transparent" points="14.5,-333.7 14.5,-355.7 161.5,-355.7 161.5,-333.7 14.5,-333.7"/>
<polygon fill="none" stroke="#000000" points="14.5,-333.7 14.5,-355.7 161.5,-355.7 161.5,-333.7 14.5,-333.7"/>
<image xlink:href="../../images/foreignKeys.png" width="11px" height="12px" preserveAspectRatio="xMinYMin meet" x="19.5" y="-350.7"/>
<text text-anchor="start" x="34.5" y="-340.8" font-family="Helvetica,sans-Serif" font-size="11.00" fill="#000000">recipient_company_id</text>
<polygon fill="none" stroke="#000000" points="14.5,-314.7 14.5,-333.7 161.5,-333.7 161.5,-314.7 14.5,-314.7"/>
<text text-anchor="start" x="17.5" y="-320.8" font-family="Helvetica,sans-Serif" font-size="11.00" fill="#000000">...</text>
<polygon fill="#ffffff" stroke="transparent" points="14.5,-295.7 14.5,-314.7 65.5,-314.7 65.5,-295.7 14.5,-295.7"/>
<polygon fill="none" stroke="#000000" points="14.5,-295.7 14.5,-314.7 65.5,-314.7 65.5,-295.7 14.5,-295.7"/>
<text text-anchor="start" x="17.5" y="-301.8" font-family="Helvetica,sans-Serif" font-size="11.00" fill="#000000">&lt; 5</text>
<polygon fill="#ffffff" stroke="transparent" points="65.5,-295.7 65.5,-314.7 124.5,-314.7 124.5,-295.7 65.5,-295.7"/>
<polygon fill="none" stroke="#000000" points="65.5,-295.7 65.5,-314.7 124.5,-314.7 124.5,-295.7 65.5,-295.7"/>
<text text-anchor="start" x="82.9956" y="-301.8" font-family="Helvetica,sans-Serif" font-size="11.00" fill="#000000">16 rows</text>
<polygon fill="#ffffff" stroke="transparent" points="124.5,-295.7 124.5,-314.7 161.5,-314.7 161.5,-295.7 124.5,-295.7"/>
<polygon fill="none" stroke="#000000" points="124.5,-295.7 124.5,-314.7 161.5,-314.7 161.5,-295.7 124.5,-295.7"/>
<text text-anchor="start" x="142.9053" y="-301.8" font-family="Helvetica,sans-Serif" font-size="11.00" fill="#000000">2 &gt;</text>
</a>
</g>
</g>
<!-- presentation_job_request_application&#45;&gt;presentation -->
<g id="edge2" class="edge">
<title>presentation_job_request_application:w&#45;&gt;presentation:e</title>
<path fill="none" stroke="#000000" d="M204.5441,-362.3461C177.518,-379.8816 205.3058,-454.7 161.5,-454.7"/>
<polygon fill="#000000" stroke="#000000" points="210.7598,-360.7222 219.41,-362.1831 214.6299,-359.7111 218.5,-358.7 218.5,-358.7 218.5,-358.7 214.6299,-359.7111 217.59,-355.2169 210.7598,-360.7222 210.7598,-360.7222"/>
<ellipse fill="none" stroke="#000000" cx="207.6637" cy="-361.5311" rx="3.2" ry="3.2"/>
</g>
</g>
</svg>
