<?xml version="1.0" encoding="UTF-8" standalone="no"?>
<!DOCTYPE svg PUBLIC "-//W3C//DTD SVG 1.1//EN"
 "http://www.w3.org/Graphics/SVG/1.1/DTD/svg11.dtd">
<!-- Generated by graphviz version 2.40.1 (20161225.0304)
 -->
<!-- Title: twoDegreesRelationshipsDiagram Pages: 1 -->
<svg width="1255pt" height="614pt"
 viewBox="0.00 0.00 1254.98 613.59" xmlns="http://www.w3.org/2000/svg" xmlns:xlink="http://www.w3.org/1999/xlink">
<g id="graph0" class="graph" transform="scale(1 1) rotate(0) translate(4 609.5883)">
<title>twoDegreesRelationshipsDiagram</title>
<polygon fill="#ffffff" stroke="transparent" points="-4,4 -4,-609.5883 1250.9845,-609.5883 1250.9845,4 -4,4"/>
<text text-anchor="middle" x="72.4936" y="-7.3" font-family="Helvetica,sans-Serif" font-size="11.00" fill="#000000">Generated by SchemaSpy</text>
<!-- applicant -->
<g id="node1" class="node">
<title>applicant</title>
<g id="a_node1"><a xlink:href="../../tables/applicant.html" xlink:title="applicant" target="_top">
<polygon fill="#ffffff" stroke="transparent" points="597.4845,-205.5883 597.4845,-266.5883 684.4845,-266.5883 684.4845,-205.5883 597.4845,-205.5883"/>
<polygon fill="#f5f5f5" stroke="transparent" points="597.9845,-243.0883 597.9845,-266.0883 684.9845,-266.0883 684.9845,-243.0883 597.9845,-243.0883"/>
<polygon fill="none" stroke="#000000" points="597.9845,-243.0883 597.9845,-266.0883 684.9845,-266.0883 684.9845,-243.0883 597.9845,-243.0883"/>
<text text-anchor="start" x="602.9779" y="-252.1883" font-family="Helvetica,sans-Serif" font-weight="bold" font-size="11.00" fill="#000000">applicant</text>
<text text-anchor="start" x="650.5063" y="-251.1883" font-family="Helvetica,sans-Serif" font-size="11.00" fill="#000000">[table]</text>
<polygon fill="none" stroke="#000000" points="597.9845,-224.0883 597.9845,-243.0883 684.9845,-243.0883 684.9845,-224.0883 597.9845,-224.0883"/>
<text text-anchor="start" x="600.9845" y="-230.1883" font-family="Helvetica,sans-Serif" font-size="11.00" fill="#000000">...</text>
<polygon fill="#ffffff" stroke="transparent" points="597.9845,-205.0883 597.9845,-224.0883 618.9845,-224.0883 618.9845,-205.0883 597.9845,-205.0883"/>
<polygon fill="none" stroke="#000000" points="597.9845,-205.0883 597.9845,-224.0883 618.9845,-224.0883 618.9845,-205.0883 597.9845,-205.0883"/>
<text text-anchor="start" x="600.6871" y="-211.1883" font-family="Helvetica,sans-Serif" font-size="11.00" fill="#000000">&lt; 4</text>
<polygon fill="#ffffff" stroke="transparent" points="618.9845,-205.0883 618.9845,-224.0883 662.9845,-224.0883 662.9845,-205.0883 618.9845,-205.0883"/>
<polygon fill="none" stroke="#000000" points="618.9845,-205.0883 618.9845,-224.0883 662.9845,-224.0883 662.9845,-205.0883 618.9845,-205.0883"/>
<text text-anchor="start" x="621.7323" y="-211.1883" font-family="Helvetica,sans-Serif" font-size="11.00" fill="#000000">90 rows</text>
<polygon fill="#ffffff" stroke="transparent" points="662.9845,-205.0883 662.9845,-224.0883 684.9845,-224.0883 684.9845,-205.0883 662.9845,-205.0883"/>
<polygon fill="none" stroke="#000000" points="662.9845,-205.0883 662.9845,-224.0883 684.9845,-224.0883 684.9845,-205.0883 662.9845,-205.0883"/>
<text text-anchor="start" x="666.3898" y="-211.1883" font-family="Helvetica,sans-Serif" font-size="11.00" fill="#000000">5 &gt;</text>
</a>
</g>
</g>
<!-- file -->
<g id="node2" class="node">
<title>file</title>
<g id="a_node2"><a xlink:href="../../tables/file.html" xlink:title="file" target="_top">
<polygon fill="#ffffff" stroke="transparent" points="302.9845,-212.5883 302.9845,-273.5883 400.9845,-273.5883 400.9845,-212.5883 302.9845,-212.5883"/>
<polygon fill="#f5f5f5" stroke="transparent" points="302.9845,-250.0883 302.9845,-273.0883 400.9845,-273.0883 400.9845,-250.0883 302.9845,-250.0883"/>
<polygon fill="none" stroke="#000000" points="302.9845,-250.0883 302.9845,-273.0883 400.9845,-273.0883 400.9845,-250.0883 302.9845,-250.0883"/>
<text text-anchor="start" x="307.9845" y="-259.1883" font-family="Helvetica,sans-Serif" font-weight="bold" font-size="11.00" fill="#000000">file</text>
<text text-anchor="start" x="366.0282" y="-258.1883" font-family="Helvetica,sans-Serif" font-size="11.00" fill="#000000">[table]</text>
<polygon fill="none" stroke="#000000" points="302.9845,-231.0883 302.9845,-250.0883 400.9845,-250.0883 400.9845,-231.0883 302.9845,-231.0883"/>
<text text-anchor="start" x="305.9845" y="-237.1883" font-family="Helvetica,sans-Serif" font-size="11.00" fill="#000000">...</text>
<polygon fill="#ffffff" stroke="transparent" points="302.9845,-212.0883 302.9845,-231.0883 323.9845,-231.0883 323.9845,-212.0883 302.9845,-212.0883"/>
<polygon fill="none" stroke="#000000" points="302.9845,-212.0883 302.9845,-231.0883 323.9845,-231.0883 323.9845,-212.0883 302.9845,-212.0883"/>
<text text-anchor="start" x="305.6871" y="-218.1883" font-family="Helvetica,sans-Serif" font-size="11.00" fill="#000000">&lt; 2</text>
<polygon fill="#ffffff" stroke="transparent" points="323.9845,-212.0883 323.9845,-231.0883 373.9845,-231.0883 373.9845,-212.0883 323.9845,-212.0883"/>
<polygon fill="none" stroke="#000000" points="323.9845,-212.0883 323.9845,-231.0883 373.9845,-231.0883 373.9845,-212.0883 323.9845,-212.0883"/>
<text text-anchor="start" x="326.6748" y="-218.1883" font-family="Helvetica,sans-Serif" font-size="11.00" fill="#000000">590 rows</text>
<polygon fill="#ffffff" stroke="transparent" points="373.9845,-212.0883 373.9845,-231.0883 400.9845,-231.0883 400.9845,-212.0883 373.9845,-212.0883"/>
<polygon fill="none" stroke="#000000" points="373.9845,-212.0883 373.9845,-231.0883 400.9845,-231.0883 400.9845,-212.0883 373.9845,-212.0883"/>
<text text-anchor="start" x="376.6297" y="-218.1883" font-family="Helvetica,sans-Serif" font-size="11.00" fill="#000000">13 &gt;</text>
</a>
</g>
</g>
<!-- applicant&#45;&gt;file -->
<g id="edge1" class="edge">
<title>applicant:w&#45;&gt;file:e</title>
<path fill="none" stroke="#000000" d="M583.2357,-233.1575C507.5955,-233.8845 483.4618,-240.0883 400.9845,-240.0883"/>
<polygon fill="#000000" stroke="#000000" points="589.9846,-233.1259 598.0014,-236.6882 593.9845,-233.1071 597.9845,-233.0883 597.9845,-233.0883 597.9845,-233.0883 593.9845,-233.1071 597.9675,-229.4883 589.9846,-233.1259 589.9846,-233.1259"/>
<ellipse fill="none" stroke="#000000" cx="586.7846" cy="-233.1409" rx="3.2" ry="3.2"/>
</g>
<!-- supplier -->
<g id="node3" class="node">
<title>supplier</title>
<g id="a_node3"><a xlink:href="../../tables/supplier.html" xlink:title="supplier" target="_top">
<polygon fill="#ffffff" stroke="transparent" points="449.9845,-129.5883 449.9845,-190.5883 541.9845,-190.5883 541.9845,-129.5883 449.9845,-129.5883"/>
<polygon fill="#f5f5f5" stroke="transparent" points="449.9845,-167.0883 449.9845,-190.0883 541.9845,-190.0883 541.9845,-167.0883 449.9845,-167.0883"/>
<polygon fill="none" stroke="#000000" points="449.9845,-167.0883 449.9845,-190.0883 541.9845,-190.0883 541.9845,-167.0883 449.9845,-167.0883"/>
<text text-anchor="start" x="454.9845" y="-176.1883" font-family="Helvetica,sans-Serif" font-weight="bold" font-size="11.00" fill="#000000">supplier</text>
<text text-anchor="start" x="507.0282" y="-175.1883" font-family="Helvetica,sans-Serif" font-size="11.00" fill="#000000">[table]</text>
<polygon fill="none" stroke="#000000" points="449.9845,-148.0883 449.9845,-167.0883 541.9845,-167.0883 541.9845,-148.0883 449.9845,-148.0883"/>
<text text-anchor="start" x="452.9845" y="-154.1883" font-family="Helvetica,sans-Serif" font-size="11.00" fill="#000000">...</text>
<polygon fill="#ffffff" stroke="transparent" points="449.9845,-129.0883 449.9845,-148.0883 470.9845,-148.0883 470.9845,-129.0883 449.9845,-129.0883"/>
<polygon fill="none" stroke="#000000" points="449.9845,-129.0883 449.9845,-148.0883 470.9845,-148.0883 470.9845,-129.0883 449.9845,-129.0883"/>
<text text-anchor="start" x="452.6871" y="-135.1883" font-family="Helvetica,sans-Serif" font-size="11.00" fill="#000000">&lt; 3</text>
<polygon fill="#ffffff" stroke="transparent" points="470.9845,-129.0883 470.9845,-148.0883 520.9845,-148.0883 520.9845,-129.0883 470.9845,-129.0883"/>
<polygon fill="none" stroke="#000000" points="470.9845,-129.0883 470.9845,-148.0883 520.9845,-148.0883 520.9845,-129.0883 470.9845,-129.0883"/>
<text text-anchor="start" x="473.6748" y="-135.1883" font-family="Helvetica,sans-Serif" font-size="11.00" fill="#000000">201 rows</text>
<polygon fill="#ffffff" stroke="transparent" points="520.9845,-129.0883 520.9845,-148.0883 541.9845,-148.0883 541.9845,-129.0883 520.9845,-129.0883"/>
<polygon fill="none" stroke="#000000" points="520.9845,-129.0883 520.9845,-148.0883 541.9845,-148.0883 541.9845,-129.0883 520.9845,-129.0883"/>
<text text-anchor="start" x="523.6871" y="-135.1883" font-family="Helvetica,sans-Serif" font-size="11.00" fill="#000000">4 &gt;</text>
</a>
</g>
</g>
<!-- applicant&#45;&gt;supplier -->
<g id="edge2" class="edge">
<title>applicant:w&#45;&gt;supplier:e</title>
<path fill="none" stroke="#000000" d="M584.0404,-229.0022C562.4965,-213.2162 578.0413,-157.0883 541.9845,-157.0883"/>
<polygon fill="#000000" stroke="#000000" points="590.3073,-230.8385 596.9721,-236.543 594.1459,-231.9634 597.9845,-233.0883 597.9845,-233.0883 597.9845,-233.0883 594.1459,-231.9634 598.9968,-229.6335 590.3073,-230.8385 590.3073,-230.8385"/>
<ellipse fill="none" stroke="#000000" cx="587.2364" cy="-229.9387" rx="3.2" ry="3.2"/>
</g>
<!-- principal -->
<g id="node6" class="node">
<title>principal</title>
<g id="a_node6"><a xlink:href="../../tables/principal.html" xlink:title="principal" target="_top">
<polygon fill="#ffffff" stroke="transparent" points="161.9845,-305.5883 161.9845,-366.5883 253.9845,-366.5883 253.9845,-305.5883 161.9845,-305.5883"/>
<polygon fill="#f5f5f5" stroke="transparent" points="161.9845,-343.0883 161.9845,-366.0883 253.9845,-366.0883 253.9845,-343.0883 161.9845,-343.0883"/>
<polygon fill="none" stroke="#000000" points="161.9845,-343.0883 161.9845,-366.0883 253.9845,-366.0883 253.9845,-343.0883 161.9845,-343.0883"/>
<text text-anchor="start" x="166.9845" y="-352.1883" font-family="Helvetica,sans-Serif" font-weight="bold" font-size="11.00" fill="#000000">principal</text>
<text text-anchor="start" x="219.0282" y="-351.1883" font-family="Helvetica,sans-Serif" font-size="11.00" fill="#000000">[table]</text>
<polygon fill="none" stroke="#000000" points="161.9845,-324.0883 161.9845,-343.0883 253.9845,-343.0883 253.9845,-324.0883 161.9845,-324.0883"/>
<text text-anchor="start" x="164.9845" y="-330.1883" font-family="Helvetica,sans-Serif" font-size="11.00" fill="#000000">...</text>
<polygon fill="#ffffff" stroke="transparent" points="161.9845,-305.0883 161.9845,-324.0883 182.9845,-324.0883 182.9845,-305.0883 161.9845,-305.0883"/>
<polygon fill="none" stroke="#000000" points="161.9845,-305.0883 161.9845,-324.0883 182.9845,-324.0883 182.9845,-305.0883 161.9845,-305.0883"/>
<text text-anchor="start" x="164.6871" y="-311.1883" font-family="Helvetica,sans-Serif" font-size="11.00" fill="#000000">&lt; 1</text>
<polygon fill="#ffffff" stroke="transparent" points="182.9845,-305.0883 182.9845,-324.0883 226.9845,-324.0883 226.9845,-305.0883 182.9845,-305.0883"/>
<polygon fill="none" stroke="#000000" points="182.9845,-305.0883 182.9845,-324.0883 226.9845,-324.0883 226.9845,-305.0883 182.9845,-305.0883"/>
<text text-anchor="start" x="185.7323" y="-311.1883" font-family="Helvetica,sans-Serif" font-size="11.00" fill="#000000">18 rows</text>
<polygon fill="#ffffff" stroke="transparent" points="226.9845,-305.0883 226.9845,-324.0883 253.9845,-324.0883 253.9845,-305.0883 226.9845,-305.0883"/>
<polygon fill="none" stroke="#000000" points="226.9845,-305.0883 226.9845,-324.0883 253.9845,-324.0883 253.9845,-305.0883 226.9845,-305.0883"/>
<text text-anchor="start" x="229.6297" y="-311.1883" font-family="Helvetica,sans-Serif" font-size="11.00" fill="#000000">56 &gt;</text>
</a>
</g>
</g>
<!-- file&#45;&gt;principal -->
<g id="edge13" class="edge">
<title>file:w&#45;&gt;principal:e</title>
<path fill="none" stroke="#000000" d="M288.7664,-242.5007C266.4611,-257.2568 294.4991,-327.8851 253.9845,-333.0883"/>
<polygon fill="#000000" stroke="#000000" points="295.0972,-241.4266 303.5867,-243.6375 299.0408,-240.7574 302.9845,-240.0883 302.9845,-240.0883 302.9845,-240.0883 299.0408,-240.7574 302.3822,-236.539 295.0972,-241.4266 295.0972,-241.4266"/>
<ellipse fill="none" stroke="#000000" cx="291.9423" cy="-241.9619" rx="3.2" ry="3.2"/>
</g>
<!-- file&#45;&gt;principal -->
<g id="edge14" class="edge">
<title>file:w&#45;&gt;principal:e</title>
<path fill="none" stroke="#000000" d="M289.6986,-246.0842C265.6908,-268.1453 295.0466,-339.2406 253.9845,-333.0883"/>
<polygon fill="#000000" stroke="#000000" points="295.6926,-243.3791 304.4653,-243.3696 299.3386,-241.7337 302.9845,-240.0883 302.9845,-240.0883 302.9845,-240.0883 299.3386,-241.7337 301.5036,-236.8069 295.6926,-243.3791 295.6926,-243.3791"/>
<ellipse fill="none" stroke="#000000" cx="292.7759" cy="-244.6954" rx="3.2" ry="3.2"/>
</g>
<!-- supplier&#45;&gt;file -->
<g id="edge42" class="edge">
<title>supplier:w&#45;&gt;file:e</title>
<path fill="none" stroke="#000000" d="M436.1873,-161.5507C415.8894,-178.7907 437.7981,-240.0883 400.9845,-240.0883"/>
<polygon fill="#000000" stroke="#000000" points="442.3727,-159.5502 451.0923,-160.5136 446.1786,-158.3192 449.9845,-157.0883 449.9845,-157.0883 449.9845,-157.0883 446.1786,-158.3192 448.8766,-153.663 442.3727,-159.5502 442.3727,-159.5502"/>
<ellipse fill="none" stroke="#000000" cx="439.328" cy="-160.535" rx="3.2" ry="3.2"/>
</g>
<!-- supplier&#45;&gt;principal -->
<g id="edge41" class="edge">
<title>supplier:w&#45;&gt;principal:e</title>
<path fill="none" stroke="#000000" d="M435.4217,-157.0323C373.6533,-156.6317 342.6282,-155.4237 294.9845,-202.0883 251.4003,-244.7767 314.9917,-333.0883 253.9845,-333.0883"/>
<polygon fill="#000000" stroke="#000000" points="441.9845,-157.0575 449.9706,-160.6882 445.9845,-157.0729 449.9845,-157.0883 449.9845,-157.0883 449.9845,-157.0883 445.9845,-157.0729 449.9983,-153.4883 441.9845,-157.0575 441.9845,-157.0575"/>
<ellipse fill="none" stroke="#000000" cx="438.7846" cy="-157.0451" rx="3.2" ry="3.2"/>
</g>
<!-- supplier&#45;&gt;principal -->
<g id="edge43" class="edge">
<title>supplier:w&#45;&gt;principal:e</title>
<path fill="none" stroke="#000000" d="M435.3276,-157.0786C373.2069,-157.0779 342.6245,-158.7372 294.9845,-206.0883 252.9165,-247.901 313.2974,-333.0883 253.9845,-333.0883"/>
<polygon fill="#000000" stroke="#000000" points="441.9845,-157.083 449.9821,-160.6883 445.9845,-157.0856 449.9845,-157.0883 449.9845,-157.0883 449.9845,-157.0883 445.9845,-157.0856 449.9869,-153.4883 441.9845,-157.083 441.9845,-157.083"/>
<ellipse fill="none" stroke="#000000" cx="438.7845" cy="-157.0808" rx="3.2" ry="3.2"/>
</g>
<!-- client -->
<g id="node4" class="node">
<title>client</title>
<g id="a_node4"><a xlink:href="../../tables/client.html" xlink:title="client" target="_top">
<polygon fill="#ffffff" stroke="transparent" points="449.9845,-427.5883 449.9845,-488.5883 541.9845,-488.5883 541.9845,-427.5883 449.9845,-427.5883"/>
<polygon fill="#f5f5f5" stroke="transparent" points="449.9845,-465.0883 449.9845,-488.0883 541.9845,-488.0883 541.9845,-465.0883 449.9845,-465.0883"/>
<polygon fill="none" stroke="#000000" points="449.9845,-465.0883 449.9845,-488.0883 541.9845,-488.0883 541.9845,-465.0883 449.9845,-465.0883"/>
<text text-anchor="start" x="454.9845" y="-474.1883" font-family="Helvetica,sans-Serif" font-weight="bold" font-size="11.00" fill="#000000">client</text>
<text text-anchor="start" x="507.0282" y="-473.1883" font-family="Helvetica,sans-Serif" font-size="11.00" fill="#000000">[table]</text>
<polygon fill="none" stroke="#000000" points="449.9845,-446.0883 449.9845,-465.0883 541.9845,-465.0883 541.9845,-446.0883 449.9845,-446.0883"/>
<text text-anchor="start" x="452.9845" y="-452.1883" font-family="Helvetica,sans-Serif" font-size="11.00" fill="#000000">...</text>
<polygon fill="#ffffff" stroke="transparent" points="449.9845,-427.0883 449.9845,-446.0883 470.9845,-446.0883 470.9845,-427.0883 449.9845,-427.0883"/>
<polygon fill="none" stroke="#000000" points="449.9845,-427.0883 449.9845,-446.0883 470.9845,-446.0883 470.9845,-427.0883 449.9845,-427.0883"/>
<text text-anchor="start" x="452.6871" y="-433.1883" font-family="Helvetica,sans-Serif" font-size="11.00" fill="#000000">&lt; 9</text>
<polygon fill="#ffffff" stroke="transparent" points="470.9845,-427.0883 470.9845,-446.0883 520.9845,-446.0883 520.9845,-427.0883 470.9845,-427.0883"/>
<polygon fill="none" stroke="#000000" points="470.9845,-427.0883 470.9845,-446.0883 520.9845,-446.0883 520.9845,-427.0883 470.9845,-427.0883"/>
<text text-anchor="start" x="473.6748" y="-433.1883" font-family="Helvetica,sans-Serif" font-size="11.00" fill="#000000">647 rows</text>
<polygon fill="#ffffff" stroke="transparent" points="520.9845,-427.0883 520.9845,-446.0883 541.9845,-446.0883 541.9845,-427.0883 520.9845,-427.0883"/>
<polygon fill="none" stroke="#000000" points="520.9845,-427.0883 520.9845,-446.0883 541.9845,-446.0883 541.9845,-427.0883 520.9845,-427.0883"/>
<text text-anchor="start" x="523.6871" y="-433.1883" font-family="Helvetica,sans-Serif" font-size="11.00" fill="#000000">7 &gt;</text>
</a>
</g>
</g>
<!-- client&#45;&gt;file -->
<g id="edge3" class="edge">
<title>client:w&#45;&gt;file:e</title>
<path fill="none" stroke="#000000" d="M435.6003,-453.0971C367.8463,-431.4225 493.4392,-240.0883 400.9845,-240.0883"/>
<polygon fill="#000000" stroke="#000000" points="442.06,-453.9913 449.4908,-458.6543 446.0223,-454.5398 449.9845,-455.0883 449.9845,-455.0883 449.9845,-455.0883 446.0223,-454.5398 450.4781,-451.5223 442.06,-453.9913 442.06,-453.9913"/>
<ellipse fill="none" stroke="#000000" cx="438.8903" cy="-453.5525" rx="3.2" ry="3.2"/>
</g>
<!-- eworker -->
<g id="node5" class="node">
<title>eworker</title>
<g id="a_node5"><a xlink:href="../../tables/eworker.html" xlink:title="eworker" target="_top">
<polygon fill="#ffffff" stroke="transparent" points="20.9845,-369.5883 20.9845,-430.5883 112.9845,-430.5883 112.9845,-369.5883 20.9845,-369.5883"/>
<polygon fill="#f5f5f5" stroke="transparent" points="20.9845,-407.0883 20.9845,-430.0883 112.9845,-430.0883 112.9845,-407.0883 20.9845,-407.0883"/>
<polygon fill="none" stroke="#000000" points="20.9845,-407.0883 20.9845,-430.0883 112.9845,-430.0883 112.9845,-407.0883 20.9845,-407.0883"/>
<text text-anchor="start" x="25.9845" y="-416.1883" font-family="Helvetica,sans-Serif" font-weight="bold" font-size="11.00" fill="#000000">eworker</text>
<text text-anchor="start" x="78.0282" y="-415.1883" font-family="Helvetica,sans-Serif" font-size="11.00" fill="#000000">[table]</text>
<polygon fill="none" stroke="#000000" points="20.9845,-388.0883 20.9845,-407.0883 112.9845,-407.0883 112.9845,-388.0883 20.9845,-388.0883"/>
<text text-anchor="start" x="23.9845" y="-394.1883" font-family="Helvetica,sans-Serif" font-size="11.00" fill="#000000">...</text>
<polygon fill="#ffffff" stroke="transparent" points="20.9845,-369.0883 20.9845,-388.0883 41.9845,-388.0883 41.9845,-369.0883 20.9845,-369.0883"/>
<polygon fill="none" stroke="#000000" points="20.9845,-369.0883 20.9845,-388.0883 41.9845,-388.0883 41.9845,-369.0883 20.9845,-369.0883"/>
<text text-anchor="start" x="23.6871" y="-375.1883" font-family="Helvetica,sans-Serif" font-size="11.00" fill="#000000">&lt; 4</text>
<polygon fill="#ffffff" stroke="transparent" points="41.9845,-369.0883 41.9845,-388.0883 91.9845,-388.0883 91.9845,-369.0883 41.9845,-369.0883"/>
<polygon fill="none" stroke="#000000" points="41.9845,-369.0883 41.9845,-388.0883 91.9845,-388.0883 91.9845,-369.0883 41.9845,-369.0883"/>
<text text-anchor="start" x="44.6748" y="-375.1883" font-family="Helvetica,sans-Serif" font-size="11.00" fill="#000000">347 rows</text>
<polygon fill="#ffffff" stroke="transparent" points="91.9845,-369.0883 91.9845,-388.0883 112.9845,-388.0883 112.9845,-369.0883 91.9845,-369.0883"/>
<polygon fill="none" stroke="#000000" points="91.9845,-369.0883 91.9845,-388.0883 112.9845,-388.0883 112.9845,-369.0883 91.9845,-369.0883"/>
<text text-anchor="start" x="94.6871" y="-375.1883" font-family="Helvetica,sans-Serif" font-size="11.00" fill="#000000">9 &gt;</text>
</a>
</g>
</g>
<!-- client&#45;&gt;eworker -->
<g id="edge4" class="edge">
<title>client:w&#45;&gt;eworker:e</title>
<path fill="none" stroke="#000000" d="M435.2197,-455.0512C314.3393,-454.42 277.6153,-445.5151 153.9845,-413.0883 135.0639,-408.1256 132.5451,-397.0883 112.9845,-397.0883"/>
<polygon fill="#000000" stroke="#000000" points="441.9845,-455.0681 449.9754,-458.6882 445.9845,-455.0782 449.9845,-455.0883 449.9845,-455.0883 449.9845,-455.0883 445.9845,-455.0782 449.9935,-451.4883 441.9845,-455.0681 441.9845,-455.0681"/>
<ellipse fill="none" stroke="#000000" cx="438.7845" cy="-455.0601" rx="3.2" ry="3.2"/>
</g>
<!-- client&#45;&gt;eworker -->
<g id="edge5" class="edge">
<title>client:w&#45;&gt;eworker:e</title>
<path fill="none" stroke="#000000" d="M435.5668,-454.3747C314.2727,-447.8088 279.1041,-430.9954 153.9845,-403.0883 135.4532,-398.955 131.9711,-391.0883 112.9845,-397.0883"/>
<polygon fill="#000000" stroke="#000000" points="441.9943,-454.6928 449.8065,-458.6839 445.9894,-454.8905 449.9845,-455.0883 449.9845,-455.0883 449.9845,-455.0883 445.9894,-454.8905 450.1624,-451.4927 441.9943,-454.6928 441.9943,-454.6928"/>
<ellipse fill="none" stroke="#000000" cx="438.7982" cy="-454.5346" rx="3.2" ry="3.2"/>
</g>
<!-- client&#45;&gt;eworker -->
<g id="edge8" class="edge">
<title>client:w&#45;&gt;eworker:e</title>
<path fill="none" stroke="#000000" d="M435.5668,-455.7689C314.2727,-460.8088 279.1041,-443.9954 153.9845,-416.0883 135.4532,-411.955 131.9711,-404.0883 112.9845,-397.0883"/>
<polygon fill="#000000" stroke="#000000" points="441.9934,-455.4656 450.1543,-458.6843 445.9889,-455.2769 449.9845,-455.0883 449.9845,-455.0883 449.9845,-455.0883 445.9889,-455.2769 449.8147,-451.4923 441.9934,-455.4656 441.9934,-455.4656"/>
<ellipse fill="none" stroke="#000000" cx="438.7969" cy="-455.6165" rx="3.2" ry="3.2"/>
</g>
<!-- client&#45;&gt;principal -->
<g id="edge6" class="edge">
<title>client:w&#45;&gt;principal:e</title>
<path fill="none" stroke="#000000" d="M435.3018,-454.6324C370.1021,-450.3927 353.4714,-417.0439 294.9845,-374.0883 274.2144,-358.8337 279.7546,-333.0883 253.9845,-333.0883"/>
<polygon fill="#000000" stroke="#000000" points="441.9883,-454.8399 449.8727,-458.6865 445.9864,-454.9641 449.9845,-455.0883 449.9845,-455.0883 449.9845,-455.0883 445.9864,-454.9641 450.0962,-451.49 441.9883,-454.8399 441.9883,-454.8399"/>
<ellipse fill="none" stroke="#000000" cx="438.7899" cy="-454.7406" rx="3.2" ry="3.2"/>
</g>
<!-- client&#45;&gt;principal -->
<g id="edge7" class="edge">
<title>client:w&#45;&gt;principal:e</title>
<path fill="none" stroke="#000000" d="M435.5859,-454.6051C369.6051,-449.9733 354.8977,-412.6696 294.9845,-370.0883 274.9775,-355.8689 278.5297,-333.0883 253.9845,-333.0883"/>
<polygon fill="#000000" stroke="#000000" points="441.989,-454.8199 449.8637,-458.6862 445.9867,-454.9541 449.9845,-455.0883 449.9845,-455.0883 449.9845,-455.0883 445.9867,-454.9541 450.1052,-451.4903 441.989,-454.8199 441.989,-454.8199"/>
<ellipse fill="none" stroke="#000000" cx="438.7908" cy="-454.7126" rx="3.2" ry="3.2"/>
</g>
<!-- eworker&#45;&gt;file -->
<g id="edge9" class="edge">
<title>eworker:w&#45;&gt;file:e</title>
<path fill="none" stroke="#000000" d="M13.2958,-384.671C14.4121,-378.5424 17.6939,-371.2662 20.9845,-365.5883 91.3595,-244.1547 159.3553,-244.6921 294.9845,-208.5883 294.9845,-208.5883 400.9845,-240.0883 400.9845,-240.0883"/>
<polygon fill="#000000" stroke="#000000" points="16.7729,-390.2866 17.9237,-398.9835 18.8787,-393.6874 20.9845,-397.0883 20.9845,-397.0883 20.9845,-397.0883 18.8787,-393.6874 24.0452,-395.193 16.7729,-390.2866 16.7729,-390.2866"/>
<ellipse fill="none" stroke="#000000" cx="15.0883" cy="-387.5659" rx="3.2" ry="3.2"/>
</g>
<!-- eworker&#45;&gt;principal -->
<g id="edge10" class="edge">
<title>eworker:w&#45;&gt;principal:e</title>
<path fill="none" stroke="#000000" d="M6.6502,-394.0036C-29.0859,-377.9218 89.1325,-310.38 153.9845,-295.5883 153.9845,-295.5883 253.9845,-327.0883 253.9845,-333.0883"/>
<polygon fill="#000000" stroke="#000000" points="13.1635,-395.4052 20.2271,-400.6077 17.074,-396.2467 20.9845,-397.0883 20.9845,-397.0883 20.9845,-397.0883 17.074,-396.2467 21.7419,-393.5688 13.1635,-395.4052 13.1635,-395.4052"/>
<ellipse fill="none" stroke="#000000" cx="10.0351" cy="-394.7319" rx="3.2" ry="3.2"/>
</g>
<!-- eworker&#45;&gt;principal -->
<g id="edge11" class="edge">
<title>eworker:w&#45;&gt;principal:e</title>
<path fill="none" stroke="#000000" d="M6.2005,-396.9931C-28.0765,-390.3455 89.4096,-323.3168 153.9845,-308.5883 153.9845,-308.5883 253.9845,-340.0883 253.9845,-333.0883"/>
<polygon fill="#000000" stroke="#000000" points="12.9846,-397.0367 20.9613,-400.6882 16.9846,-397.0625 20.9845,-397.0883 20.9845,-397.0883 20.9845,-397.0883 16.9846,-397.0625 21.0077,-393.4883 12.9846,-397.0367 12.9846,-397.0367"/>
<ellipse fill="none" stroke="#000000" cx="9.7847" cy="-397.0161" rx="3.2" ry="3.2"/>
</g>
<!-- principal&#45;&gt;eworker -->
<g id="edge40" class="edge">
<title>principal:w&#45;&gt;eworker:e</title>
<path fill="none" stroke="#000000" d="M148.1009,-338.1102C132.2184,-353.1976 142.6512,-397.0883 112.9845,-397.0883"/>
<polygon fill="#000000" stroke="#000000" points="154.4615,-335.8095 163.209,-336.4736 158.223,-334.4489 161.9845,-333.0883 161.9845,-333.0883 161.9845,-333.0883 158.223,-334.4489 160.7599,-329.7029 154.4615,-335.8095 154.4615,-335.8095"/>
<ellipse fill="none" stroke="#000000" cx="151.4523" cy="-336.898" rx="3.2" ry="3.2"/>
</g>
<!-- feedback -->
<g id="node7" class="node">
<title>feedback</title>
<g id="a_node7"><a xlink:href="../../tables/feedback.html" xlink:title="feedback" target="_top">
<polygon fill="#ffffff" stroke="transparent" points="1049.9845,-182.5883 1049.9845,-243.5883 1136.9845,-243.5883 1136.9845,-182.5883 1049.9845,-182.5883"/>
<polygon fill="#f5f5f5" stroke="transparent" points="1050.4845,-220.0883 1050.4845,-243.0883 1137.4845,-243.0883 1137.4845,-220.0883 1050.4845,-220.0883"/>
<polygon fill="none" stroke="#000000" points="1050.4845,-220.0883 1050.4845,-243.0883 1137.4845,-243.0883 1137.4845,-220.0883 1050.4845,-220.0883"/>
<text text-anchor="start" x="1055.1688" y="-229.1883" font-family="Helvetica,sans-Serif" font-weight="bold" font-size="11.00" fill="#000000">feedback</text>
<text text-anchor="start" x="1103.0063" y="-228.1883" font-family="Helvetica,sans-Serif" font-size="11.00" fill="#000000">[table]</text>
<polygon fill="none" stroke="#000000" points="1050.4845,-201.0883 1050.4845,-220.0883 1137.4845,-220.0883 1137.4845,-201.0883 1050.4845,-201.0883"/>
<text text-anchor="start" x="1053.4845" y="-207.1883" font-family="Helvetica,sans-Serif" font-size="11.00" fill="#000000">...</text>
<polygon fill="#ffffff" stroke="transparent" points="1050.4845,-182.0883 1050.4845,-201.0883 1071.4845,-201.0883 1071.4845,-182.0883 1050.4845,-182.0883"/>
<polygon fill="none" stroke="#000000" points="1050.4845,-182.0883 1050.4845,-201.0883 1071.4845,-201.0883 1071.4845,-182.0883 1050.4845,-182.0883"/>
<text text-anchor="start" x="1053.1871" y="-188.1883" font-family="Helvetica,sans-Serif" font-size="11.00" fill="#000000">&lt; 1</text>
<polygon fill="#ffffff" stroke="transparent" points="1071.4845,-182.0883 1071.4845,-201.0883 1115.4845,-201.0883 1115.4845,-182.0883 1071.4845,-182.0883"/>
<polygon fill="none" stroke="#000000" points="1071.4845,-182.0883 1071.4845,-201.0883 1115.4845,-201.0883 1115.4845,-182.0883 1071.4845,-182.0883"/>
<text text-anchor="start" x="1074.2323" y="-188.1883" font-family="Helvetica,sans-Serif" font-size="11.00" fill="#000000">60 rows</text>
<polygon fill="#ffffff" stroke="transparent" points="1115.4845,-182.0883 1115.4845,-201.0883 1137.4845,-201.0883 1137.4845,-182.0883 1115.4845,-182.0883"/>
<polygon fill="none" stroke="#000000" points="1115.4845,-182.0883 1115.4845,-201.0883 1137.4845,-201.0883 1137.4845,-182.0883 1115.4845,-182.0883"/>
<text text-anchor="start" x="1118.8898" y="-188.1883" font-family="Helvetica,sans-Serif" font-size="11.00" fill="#000000">1 &gt;</text>
</a>
</g>
</g>
<!-- job_request_application -->
<g id="node8" class="node">
<title>job_request_application</title>
<g id="a_node8"><a xlink:href="../../tables/job_request_application.html" xlink:title="job_request_application" target="_top">
<polygon fill="#ffffff" stroke="transparent" points="739.9845,-112.5883 739.9845,-349.5883 898.9845,-349.5883 898.9845,-112.5883 739.9845,-112.5883"/>
<polygon fill="#f5f5f5" stroke="transparent" points="740.4845,-326.0883 740.4845,-349.0883 899.4845,-349.0883 899.4845,-326.0883 740.4845,-326.0883"/>
<polygon fill="none" stroke="#000000" points="740.4845,-326.0883 740.4845,-349.0883 899.4845,-349.0883 899.4845,-326.0883 740.4845,-326.0883"/>
<text text-anchor="start" x="745.4105" y="-335.1883" font-family="Helvetica,sans-Serif" font-weight="bold" font-size="11.00" fill="#000000">job_request_application</text>
<text text-anchor="start" x="865.0063" y="-334.1883" font-family="Helvetica,sans-Serif" font-size="11.00" fill="#000000">[table]</text>
<polygon fill="none" stroke="#000000" points="740.4845,-304.0883 740.4845,-326.0883 899.4845,-326.0883 899.4845,-304.0883 740.4845,-304.0883"/>
<image xlink:href="../../images/primaryKeys.png" width="11px" height="12px" preserveAspectRatio="xMinYMin meet" x="745.484" y="-321.088"/>
<text text-anchor="start" x="760.4845" y="-311.1883" font-family="Helvetica,sans-Serif" font-size="11.00" fill="#000000">id</text>
<polygon fill="#ffffff" stroke="transparent" points="740.4845,-282.0883 740.4845,-304.0883 899.4845,-304.0883 899.4845,-282.0883 740.4845,-282.0883"/>
<polygon fill="none" stroke="#000000" points="740.4845,-282.0883 740.4845,-304.0883 899.4845,-304.0883 899.4845,-282.0883 740.4845,-282.0883"/>
<image xlink:href="../../images/foreignKeys.png" width="11px" height="12px" preserveAspectRatio="xMinYMin meet" x="745.484" y="-299.088"/>
<text text-anchor="start" x="760.4845" y="-289.1883" font-family="Helvetica,sans-Serif" font-size="11.00" fill="#000000">created_by</text>
<polygon fill="#ffffff" stroke="transparent" points="740.4845,-260.0883 740.4845,-282.0883 899.4845,-282.0883 899.4845,-260.0883 740.4845,-260.0883"/>
<polygon fill="none" stroke="#000000" points="740.4845,-260.0883 740.4845,-282.0883 899.4845,-282.0883 899.4845,-260.0883 740.4845,-260.0883"/>
<image xlink:href="../../images/foreignKeys.png" width="11px" height="12px" preserveAspectRatio="xMinYMin meet" x="745.484" y="-277.088"/>
<text text-anchor="start" x="760.4845" y="-267.1883" font-family="Helvetica,sans-Serif" font-size="11.00" fill="#000000">modified_by</text>
<polygon fill="#ffffff" stroke="transparent" points="740.4845,-238.0883 740.4845,-260.0883 899.4845,-260.0883 899.4845,-238.0883 740.4845,-238.0883"/>
<polygon fill="none" stroke="#000000" points="740.4845,-238.0883 740.4845,-260.0883 899.4845,-260.0883 899.4845,-238.0883 740.4845,-238.0883"/>
<image xlink:href="../../images/foreignKeys.png" width="11px" height="12px" preserveAspectRatio="xMinYMin meet" x="745.484" y="-255.088"/>
<text text-anchor="start" x="760.4845" y="-245.1883" font-family="Helvetica,sans-Serif" font-size="11.00" fill="#000000">job_request_id</text>
<polygon fill="#ffffff" stroke="transparent" points="740.4845,-216.0883 740.4845,-238.0883 899.4845,-238.0883 899.4845,-216.0883 740.4845,-216.0883"/>
<polygon fill="none" stroke="#000000" points="740.4845,-216.0883 740.4845,-238.0883 899.4845,-238.0883 899.4845,-216.0883 740.4845,-216.0883"/>
<image xlink:href="../../images/foreignKeys.png" width="11px" height="12px" preserveAspectRatio="xMinYMin meet" x="745.484" y="-233.088"/>
<text text-anchor="start" x="760.4845" y="-223.1883" font-family="Helvetica,sans-Serif" font-size="11.00" fill="#000000">supplier_id</text>
<polygon fill="#ffffff" stroke="transparent" points="740.4845,-194.0883 740.4845,-216.0883 899.4845,-216.0883 899.4845,-194.0883 740.4845,-194.0883"/>
<polygon fill="none" stroke="#000000" points="740.4845,-194.0883 740.4845,-216.0883 899.4845,-216.0883 899.4845,-194.0883 740.4845,-194.0883"/>
<text text-anchor="start" x="760.4845" y="-201.1883" font-family="Helvetica,sans-Serif" font-size="11.00" fill="#000000">marketplace_id</text>
<polygon fill="#ffffff" stroke="transparent" points="740.4845,-172.0883 740.4845,-194.0883 899.4845,-194.0883 899.4845,-172.0883 740.4845,-172.0883"/>
<polygon fill="none" stroke="#000000" points="740.4845,-172.0883 740.4845,-194.0883 899.4845,-194.0883 899.4845,-172.0883 740.4845,-172.0883"/>
<image xlink:href="../../images/foreignKeys.png" width="11px" height="12px" preserveAspectRatio="xMinYMin meet" x="745.484" y="-189.088"/>
<text text-anchor="start" x="760.4845" y="-179.1883" font-family="Helvetica,sans-Serif" font-size="11.00" fill="#000000">applicant_id</text>
<polygon fill="#ffffff" stroke="transparent" points="740.4845,-150.0883 740.4845,-172.0883 899.4845,-172.0883 899.4845,-150.0883 740.4845,-150.0883"/>
<polygon fill="none" stroke="#000000" points="740.4845,-150.0883 740.4845,-172.0883 899.4845,-172.0883 899.4845,-150.0883 740.4845,-150.0883"/>
<image xlink:href="../../images/foreignKeys.png" width="11px" height="12px" preserveAspectRatio="xMinYMin meet" x="745.484" y="-167.088"/>
<text text-anchor="start" x="760.4845" y="-157.1883" font-family="Helvetica,sans-Serif" font-size="11.00" fill="#000000">avatar_id</text>
<polygon fill="none" stroke="#000000" points="740.4845,-131.0883 740.4845,-150.0883 899.4845,-150.0883 899.4845,-131.0883 740.4845,-131.0883"/>
<text text-anchor="start" x="743.4845" y="-137.1883" font-family="Helvetica,sans-Serif" font-size="11.00" fill="#000000">...</text>
<polygon fill="#ffffff" stroke="transparent" points="740.4845,-112.0883 740.4845,-131.0883 797.4845,-131.0883 797.4845,-112.0883 740.4845,-112.0883"/>
<polygon fill="none" stroke="#000000" points="740.4845,-112.0883 740.4845,-131.0883 797.4845,-131.0883 797.4845,-112.0883 740.4845,-112.0883"/>
<text text-anchor="start" x="743.4845" y="-118.1883" font-family="Helvetica,sans-Serif" font-size="11.00" fill="#000000">&lt; 6</text>
<polygon fill="#ffffff" stroke="transparent" points="797.4845,-112.0883 797.4845,-131.0883 859.4845,-131.0883 859.4845,-112.0883 797.4845,-112.0883"/>
<polygon fill="none" stroke="#000000" points="797.4845,-112.0883 797.4845,-131.0883 859.4845,-131.0883 859.4845,-112.0883 797.4845,-112.0883"/>
<text text-anchor="start" x="817.9801" y="-118.1883" font-family="Helvetica,sans-Serif" font-size="11.00" fill="#000000">75 rows</text>
<polygon fill="#ffffff" stroke="transparent" points="859.4845,-112.0883 859.4845,-131.0883 899.4845,-131.0883 899.4845,-112.0883 859.4845,-112.0883"/>
<polygon fill="none" stroke="#000000" points="859.4845,-112.0883 859.4845,-131.0883 899.4845,-131.0883 899.4845,-112.0883 859.4845,-112.0883"/>
<text text-anchor="start" x="880.8898" y="-118.1883" font-family="Helvetica,sans-Serif" font-size="11.00" fill="#000000">5 &gt;</text>
</a>
</g>
</g>
<!-- feedback&#45;&gt;job_request_application -->
<g id="edge12" class="edge">
<title>feedback:w&#45;&gt;job_request_application:e</title>
<path fill="none" stroke="#000000" d="M1035.9788,-210.4051C994.1487,-212.3913 977.0194,-224.0281 939.9845,-254.0883 914.7175,-274.5967 932.0269,-315.0883 899.4845,-315.0883"/>
<polygon fill="#000000" stroke="#000000" points="1042.4864,-210.263 1050.5631,-213.6874 1046.4854,-210.1756 1050.4845,-210.0883 1050.4845,-210.0883 1050.4845,-210.0883 1046.4854,-210.1756 1050.4058,-206.4891 1042.4864,-210.263 1042.4864,-210.263"/>
<ellipse fill="none" stroke="#000000" cx="1039.2871" cy="-210.3329" rx="3.2" ry="3.2"/>
</g>
<!-- job_request_application&#45;&gt;applicant -->
<g id="edge20" class="edge">
<title>job_request_application:w&#45;&gt;applicant:e</title>
<path fill="none" stroke="#000000" d="M726.3474,-187.3512C709.7776,-199.4426 712.2192,-233.0883 684.9845,-233.0883"/>
<polygon fill="#000000" stroke="#000000" points="732.8251,-185.3979 741.5238,-186.535 736.6548,-184.2431 740.4845,-183.0883 740.4845,-183.0883 740.4845,-183.0883 736.6548,-184.2431 739.4451,-179.6416 732.8251,-185.3979 732.8251,-185.3979"/>
<ellipse fill="none" stroke="#000000" cx="729.7614" cy="-186.3218" rx="3.2" ry="3.2"/>
</g>
<!-- job_request_application&#45;&gt;file -->
<g id="edge21" class="edge">
<title>job_request_application:w&#45;&gt;file:e</title>
<path fill="none" stroke="#000000" d="M725.7873,-161.3605C666.262,-163.659 647.7099,-180.1037 582.9845,-195.0883 572.8373,-197.4374 411.4001,-240.0883 400.9845,-240.0883"/>
<polygon fill="#000000" stroke="#000000" points="732.4858,-161.2365 740.5512,-164.6876 736.4852,-161.1624 740.4845,-161.0883 740.4845,-161.0883 740.4845,-161.0883 736.4852,-161.1624 740.4178,-157.4889 732.4858,-161.2365 732.4858,-161.2365"/>
<ellipse fill="none" stroke="#000000" cx="729.2864" cy="-161.2958" rx="3.2" ry="3.2"/>
</g>
<!-- job_request_application&#45;&gt;supplier -->
<g id="edge25" class="edge">
<title>job_request_application:w&#45;&gt;supplier:e</title>
<path fill="none" stroke="#000000" d="M726.5107,-223.0798C716.998,-216.2752 714.407,-202.4844 698.9845,-195.0883 634.2508,-164.0443 613.777,-157.0883 541.9845,-157.0883"/>
<polygon fill="#000000" stroke="#000000" points="732.7946,-224.8823 739.4918,-230.5487 736.6395,-225.9853 740.4845,-227.0883 740.4845,-227.0883 740.4845,-227.0883 736.6395,-225.9853 741.4771,-223.6278 732.7946,-224.8823 732.7946,-224.8823"/>
<ellipse fill="none" stroke="#000000" cx="729.7186" cy="-224" rx="3.2" ry="3.2"/>
</g>
<!-- job_request_application&#45;&gt;principal -->
<g id="edge22" class="edge">
<title>job_request_application:w&#45;&gt;principal:e</title>
<path fill="none" stroke="#000000" d="M725.9957,-294.5111C717.5875,-296.3232 711.6422,-299.4191 698.9845,-301.0883 502.3978,-327.0116 452.273,-333.0883 253.9845,-333.0883"/>
<polygon fill="#000000" stroke="#000000" points="732.5228,-293.8702 740.8363,-296.671 736.5036,-293.4792 740.4845,-293.0883 740.4845,-293.0883 740.4845,-293.0883 736.5036,-293.4792 740.1326,-289.5055 732.5228,-293.8702 732.5228,-293.8702"/>
<ellipse fill="none" stroke="#000000" cx="729.3381" cy="-294.1829" rx="3.2" ry="3.2"/>
</g>
<!-- job_request_application&#45;&gt;principal -->
<g id="edge24" class="edge">
<title>job_request_application:w&#45;&gt;principal:e</title>
<path fill="none" stroke="#000000" d="M726.029,-272.0183C717.5885,-273.2292 711.5371,-275.3912 698.9845,-277.0883 695.8979,-277.5056 257.0991,-333.0883 253.9845,-333.0883"/>
<polygon fill="#000000" stroke="#000000" points="732.501,-271.602 740.7156,-274.6808 736.4927,-271.3451 740.4845,-271.0883 740.4845,-271.0883 740.4845,-271.0883 736.4927,-271.3451 740.2533,-267.4957 732.501,-271.602 732.501,-271.602"/>
<ellipse fill="none" stroke="#000000" cx="729.3076" cy="-271.8075" rx="3.2" ry="3.2"/>
</g>
<!-- job_request -->
<g id="node9" class="node">
<title>job_request</title>
<g id="a_node9"><a xlink:href="../../tables/job_request.html" xlink:title="job_request" target="_top">
<polygon fill="#ffffff" stroke="transparent" points="590.9845,-369.5883 590.9845,-430.5883 690.9845,-430.5883 690.9845,-369.5883 590.9845,-369.5883"/>
<polygon fill="#f5f5f5" stroke="transparent" points="590.9845,-407.0883 590.9845,-430.0883 690.9845,-430.0883 690.9845,-407.0883 590.9845,-407.0883"/>
<polygon fill="none" stroke="#000000" points="590.9845,-407.0883 590.9845,-430.0883 690.9845,-430.0883 690.9845,-407.0883 590.9845,-407.0883"/>
<text text-anchor="start" x="595.7525" y="-416.1883" font-family="Helvetica,sans-Serif" font-weight="bold" font-size="11.00" fill="#000000">job_request</text>
<text text-anchor="start" x="656.5063" y="-415.1883" font-family="Helvetica,sans-Serif" font-size="11.00" fill="#000000">[table]</text>
<polygon fill="none" stroke="#000000" points="590.9845,-388.0883 590.9845,-407.0883 690.9845,-407.0883 690.9845,-388.0883 590.9845,-388.0883"/>
<text text-anchor="start" x="593.9845" y="-394.1883" font-family="Helvetica,sans-Serif" font-size="11.00" fill="#000000">...</text>
<polygon fill="#ffffff" stroke="transparent" points="590.9845,-369.0883 590.9845,-388.0883 618.9845,-388.0883 618.9845,-369.0883 590.9845,-369.0883"/>
<polygon fill="none" stroke="#000000" points="590.9845,-369.0883 590.9845,-388.0883 618.9845,-388.0883 618.9845,-369.0883 590.9845,-369.0883"/>
<text text-anchor="start" x="593.9845" y="-375.1883" font-family="Helvetica,sans-Serif" font-size="11.00" fill="#000000">&lt; 11</text>
<polygon fill="#ffffff" stroke="transparent" points="618.9845,-369.0883 618.9845,-388.0883 668.9845,-388.0883 668.9845,-369.0883 618.9845,-369.0883"/>
<polygon fill="none" stroke="#000000" points="618.9845,-369.0883 618.9845,-388.0883 668.9845,-388.0883 668.9845,-369.0883 618.9845,-369.0883"/>
<text text-anchor="start" x="621.6748" y="-375.1883" font-family="Helvetica,sans-Serif" font-size="11.00" fill="#000000">254 rows</text>
<polygon fill="#ffffff" stroke="transparent" points="668.9845,-369.0883 668.9845,-388.0883 690.9845,-388.0883 690.9845,-369.0883 668.9845,-369.0883"/>
<polygon fill="none" stroke="#000000" points="668.9845,-369.0883 668.9845,-388.0883 690.9845,-388.0883 690.9845,-369.0883 668.9845,-369.0883"/>
<text text-anchor="start" x="672.3898" y="-375.1883" font-family="Helvetica,sans-Serif" font-size="11.00" fill="#000000">7 &gt;</text>
</a>
</g>
</g>
<!-- job_request_application&#45;&gt;job_request -->
<g id="edge23" class="edge">
<title>job_request_application:w&#45;&gt;job_request:e</title>
<path fill="none" stroke="#000000" d="M726.1768,-252.0446C684.9926,-272.9037 754.5187,-397.0883 690.9845,-397.0883"/>
<polygon fill="#000000" stroke="#000000" points="732.65,-250.7071 741.213,-252.6138 736.5672,-249.8977 740.4845,-249.0883 740.4845,-249.0883 740.4845,-249.0883 736.5672,-249.8977 739.756,-245.5627 732.65,-250.7071 732.65,-250.7071"/>
<ellipse fill="none" stroke="#000000" cx="729.5162" cy="-251.3547" rx="3.2" ry="3.2"/>
</g>
<!-- job_request&#45;&gt;client -->
<g id="edge15" class="edge">
<title>job_request:w&#45;&gt;client:e</title>
<path fill="none" stroke="#000000" d="M577.2472,-402.0333C562.1975,-416.0593 569.6664,-455.0883 541.9845,-455.0883"/>
<polygon fill="#000000" stroke="#000000" points="583.4573,-399.7979 592.2038,-400.4755 587.2209,-398.4431 590.9845,-397.0883 590.9845,-397.0883 590.9845,-397.0883 587.2209,-398.4431 589.7651,-393.701 583.4573,-399.7979 583.4573,-399.7979"/>
<ellipse fill="none" stroke="#000000" cx="580.4464" cy="-400.8817" rx="3.2" ry="3.2"/>
</g>
<!-- job_request&#45;&gt;eworker -->
<g id="edge16" class="edge">
<title>job_request:w&#45;&gt;eworker:e</title>
<path fill="none" stroke="#000000" d="M576.3054,-397.0883C375.9629,-397.0883 320.4497,-397.0883 112.9845,-397.0883"/>
<polygon fill="#000000" stroke="#000000" points="582.9845,-397.0883 590.9845,-400.6883 586.9845,-397.0883 590.9845,-397.0883 590.9845,-397.0883 590.9845,-397.0883 586.9845,-397.0883 590.9844,-393.4883 582.9845,-397.0883 582.9845,-397.0883"/>
<ellipse fill="none" stroke="#000000" cx="579.7845" cy="-397.0883" rx="3.2" ry="3.2"/>
</g>
<!-- job_request&#45;&gt;eworker -->
<g id="edge18" class="edge">
<title>job_request:w&#45;&gt;eworker:e</title>
<path fill="none" stroke="#000000" d="M576.3054,-397.0883C375.9629,-397.0883 320.4497,-397.0883 112.9845,-397.0883"/>
<polygon fill="#000000" stroke="#000000" points="582.9845,-397.0883 590.9845,-400.6883 586.9845,-397.0883 590.9845,-397.0883 590.9845,-397.0883 590.9845,-397.0883 586.9845,-397.0883 590.9844,-393.4883 582.9845,-397.0883 582.9845,-397.0883"/>
<ellipse fill="none" stroke="#000000" cx="579.7845" cy="-397.0883" rx="3.2" ry="3.2"/>
</g>
<!-- job_request&#45;&gt;principal -->
<g id="edge17" class="edge">
<title>job_request:w&#45;&gt;principal:e</title>
<path fill="none" stroke="#000000" d="M576.6084,-394.4146C568.2264,-390.8636 562.958,-384.6288 549.9845,-381.0883 485.6983,-363.5444 320.6215,-333.0883 253.9845,-333.0883"/>
<polygon fill="#000000" stroke="#000000" points="583.1193,-395.6254 590.3262,-400.6276 587.0519,-396.3569 590.9845,-397.0883 590.9845,-397.0883 590.9845,-397.0883 587.0519,-396.3569 591.6427,-393.5489 583.1193,-395.6254 583.1193,-395.6254"/>
<ellipse fill="none" stroke="#000000" cx="579.9733" cy="-395.0403" rx="3.2" ry="3.2"/>
</g>
<!-- job_request&#45;&gt;principal -->
<g id="edge19" class="edge">
<title>job_request:w&#45;&gt;principal:e</title>
<path fill="none" stroke="#000000" d="M576.499,-395.0863C568.2049,-392.5112 562.5517,-388.0217 549.9845,-385.0883 419.9109,-354.7263 387.5546,-333.0883 253.9845,-333.0883"/>
<polygon fill="#000000" stroke="#000000" points="583.0598,-395.993 590.4916,-400.6544 587.0221,-396.5406 590.9845,-397.0883 590.9845,-397.0883 590.9845,-397.0883 587.0221,-396.5406 591.4773,-393.5222 583.0598,-395.993 583.0598,-395.993"/>
<ellipse fill="none" stroke="#000000" cx="579.8899" cy="-395.5549" rx="3.2" ry="3.2"/>
</g>
<!-- job_request_application_document -->
<g id="node10" class="node">
<title>job_request_application_document</title>
<g id="a_node10"><a xlink:href="../../tables/job_request_application_document.html" xlink:title="job_request_application_document" target="_top">
<polygon fill="#ffffff" stroke="transparent" points="986.9845,-346.5883 986.9845,-407.5883 1199.9845,-407.5883 1199.9845,-346.5883 986.9845,-346.5883"/>
<polygon fill="#f5f5f5" stroke="transparent" points="987.4845,-384.0883 987.4845,-407.0883 1200.4845,-407.0883 1200.4845,-384.0883 987.4845,-384.0883"/>
<polygon fill="none" stroke="#000000" points="987.4845,-384.0883 987.4845,-407.0883 1200.4845,-407.0883 1200.4845,-384.0883 987.4845,-384.0883"/>
<text text-anchor="start" x="992.2064" y="-393.1883" font-family="Helvetica,sans-Serif" font-weight="bold" font-size="11.00" fill="#000000">job_request_application_document</text>
<text text-anchor="start" x="1166.0063" y="-392.1883" font-family="Helvetica,sans-Serif" font-size="11.00" fill="#000000">[table]</text>
<polygon fill="none" stroke="#000000" points="987.4845,-365.0883 987.4845,-384.0883 1200.4845,-384.0883 1200.4845,-365.0883 987.4845,-365.0883"/>
<text text-anchor="start" x="990.4845" y="-371.1883" font-family="Helvetica,sans-Serif" font-size="11.00" fill="#000000">...</text>
<polygon fill="#ffffff" stroke="transparent" points="987.4845,-346.0883 987.4845,-365.0883 1076.4845,-365.0883 1076.4845,-346.0883 987.4845,-346.0883"/>
<polygon fill="none" stroke="#000000" points="987.4845,-346.0883 987.4845,-365.0883 1076.4845,-365.0883 1076.4845,-346.0883 987.4845,-346.0883"/>
<text text-anchor="start" x="990.4845" y="-352.1883" font-family="Helvetica,sans-Serif" font-size="11.00" fill="#000000">&lt; 2</text>
<polygon fill="#ffffff" stroke="transparent" points="1076.4845,-346.0883 1076.4845,-365.0883 1154.4845,-365.0883 1154.4845,-346.0883 1076.4845,-346.0883"/>
<polygon fill="none" stroke="#000000" points="1076.4845,-346.0883 1076.4845,-365.0883 1154.4845,-365.0883 1154.4845,-346.0883 1076.4845,-346.0883"/>
<text text-anchor="start" x="1112.9801" y="-352.1883" font-family="Helvetica,sans-Serif" font-size="11.00" fill="#000000">57 rows</text>
<polygon fill="#ffffff" stroke="transparent" points="1154.4845,-346.0883 1154.4845,-365.0883 1200.4845,-365.0883 1200.4845,-346.0883 1154.4845,-346.0883"/>
<polygon fill="none" stroke="#000000" points="1154.4845,-346.0883 1154.4845,-365.0883 1200.4845,-365.0883 1200.4845,-346.0883 1154.4845,-346.0883"/>
<text text-anchor="start" x="1191.3707" y="-352.1883" font-family="Helvetica,sans-Serif" font-size="11.00" fill="#000000"> &#160;</text>
</a>
</g>
</g>
<!-- job_request_application_document&#45;&gt;file -->
<g id="edge26" class="edge">
<title>job_request_application_document:w&#45;&gt;file:e</title>
<path fill="none" stroke="#000000" d="M972.9604,-374.1355C870.935,-374.7952 838.5178,-381.8245 731.9845,-360.0883 693.6541,-352.2676 440.1046,-240.0883 400.9845,-240.0883"/>
<polygon fill="#000000" stroke="#000000" points="979.4845,-374.1143 987.4962,-377.6882 983.4845,-374.1013 987.4845,-374.0883 987.4845,-374.0883 987.4845,-374.0883 983.4845,-374.1013 987.4727,-370.4883 979.4845,-374.1143 979.4845,-374.1143"/>
<ellipse fill="none" stroke="#000000" cx="976.2845" cy="-374.1247" rx="3.2" ry="3.2"/>
</g>
<!-- job_request_application_document&#45;&gt;job_request_application -->
<g id="edge27" class="edge">
<title>job_request_application_document:w&#45;&gt;job_request_application:e</title>
<path fill="none" stroke="#000000" d="M972.9531,-371.8474C941.1125,-361.0704 941.0544,-315.0883 899.4845,-315.0883"/>
<polygon fill="#000000" stroke="#000000" points="979.5779,-372.869 986.9358,-377.6462 983.5312,-373.4786 987.4845,-374.0883 987.4845,-374.0883 987.4845,-374.0883 983.5312,-373.4786 988.0331,-370.5303 979.5779,-372.869 979.5779,-372.869"/>
<ellipse fill="none" stroke="#000000" cx="976.4153" cy="-372.3813" rx="3.2" ry="3.2"/>
</g>
<!-- job_request_application_history -->
<g id="node11" class="node">
<title>job_request_application_history</title>
<g id="a_node11"><a xlink:href="../../tables/job_request_application_history.html" xlink:title="job_request_application_history" target="_top">
<polygon fill="#ffffff" stroke="transparent" points="994.9845,-54.5883 994.9845,-115.5883 1191.9845,-115.5883 1191.9845,-54.5883 994.9845,-54.5883"/>
<polygon fill="#f5f5f5" stroke="transparent" points="995.4845,-92.0883 995.4845,-115.0883 1192.4845,-115.0883 1192.4845,-92.0883 995.4845,-92.0883"/>
<polygon fill="none" stroke="#000000" points="995.4845,-92.0883 995.4845,-115.0883 1192.4845,-115.0883 1192.4845,-92.0883 995.4845,-92.0883"/>
<text text-anchor="start" x="1000.1583" y="-101.1883" font-family="Helvetica,sans-Serif" font-weight="bold" font-size="11.00" fill="#000000">job_request_application_history</text>
<text text-anchor="start" x="1158.0063" y="-100.1883" font-family="Helvetica,sans-Serif" font-size="11.00" fill="#000000">[table]</text>
<polygon fill="none" stroke="#000000" points="995.4845,-73.0883 995.4845,-92.0883 1192.4845,-92.0883 1192.4845,-73.0883 995.4845,-73.0883"/>
<text text-anchor="start" x="998.4845" y="-79.1883" font-family="Helvetica,sans-Serif" font-size="11.00" fill="#000000">...</text>
<polygon fill="#ffffff" stroke="transparent" points="995.4845,-54.0883 995.4845,-73.0883 1076.4845,-73.0883 1076.4845,-54.0883 995.4845,-54.0883"/>
<polygon fill="none" stroke="#000000" points="995.4845,-54.0883 995.4845,-73.0883 1076.4845,-73.0883 1076.4845,-54.0883 995.4845,-54.0883"/>
<text text-anchor="start" x="998.4845" y="-60.1883" font-family="Helvetica,sans-Serif" font-size="11.00" fill="#000000">&lt; 3</text>
<polygon fill="#ffffff" stroke="transparent" points="1076.4845,-54.0883 1076.4845,-73.0883 1150.4845,-73.0883 1150.4845,-54.0883 1076.4845,-54.0883"/>
<polygon fill="none" stroke="#000000" points="1076.4845,-54.0883 1076.4845,-73.0883 1150.4845,-73.0883 1150.4845,-54.0883 1076.4845,-54.0883"/>
<text text-anchor="start" x="1108.9801" y="-60.1883" font-family="Helvetica,sans-Serif" font-size="11.00" fill="#000000">34 rows</text>
<polygon fill="#ffffff" stroke="transparent" points="1150.4845,-54.0883 1150.4845,-73.0883 1192.4845,-73.0883 1192.4845,-54.0883 1150.4845,-54.0883"/>
<polygon fill="none" stroke="#000000" points="1150.4845,-54.0883 1150.4845,-73.0883 1192.4845,-73.0883 1192.4845,-54.0883 1150.4845,-54.0883"/>
<text text-anchor="start" x="1183.3707" y="-60.1883" font-family="Helvetica,sans-Serif" font-size="11.00" fill="#000000"> &#160;</text>
</a>
</g>
</g>
<!-- job_request_application_history&#45;&gt;principal -->
<g id="edge28" class="edge">
<title>job_request_application_history:w&#45;&gt;principal:e</title>
<path fill="none" stroke="#000000" d="M981.0526,-82.0883C835.3517,-82.0883 793.6164,-82.0883 640.9845,-82.0883 640.9845,-82.0883 640.9845,-82.0883 495.9845,-82.0883 400.9419,-82.0883 357.9683,-83.9116 294.9845,-155.0883 241.1855,-215.8853 335.1671,-333.0883 253.9845,-333.0883"/>
<polygon fill="#000000" stroke="#000000" points="987.4845,-82.0883 995.4845,-85.6883 991.4845,-82.0883 995.4845,-82.0883 995.4845,-82.0883 995.4845,-82.0883 991.4845,-82.0883 995.4844,-78.4883 987.4845,-82.0883 987.4845,-82.0883"/>
<ellipse fill="none" stroke="#000000" cx="984.2845" cy="-82.0883" rx="3.2" ry="3.2"/>
</g>
<!-- job_request_application_history&#45;&gt;principal -->
<g id="edge30" class="edge">
<title>job_request_application_history:w&#45;&gt;principal:e</title>
<path fill="none" stroke="#000000" d="M980.9072,-81.9817C676.9627,-77.5471 509.2289,62.6261 294.9845,-159.0883 239.7747,-216.223 333.4357,-333.0883 253.9845,-333.0883"/>
<polygon fill="#000000" stroke="#000000" points="987.4847,-82.0297 995.4581,-85.6882 991.4846,-82.059 995.4845,-82.0883 995.4845,-82.0883 995.4845,-82.0883 991.4846,-82.059 995.5108,-78.4884 987.4847,-82.0297 987.4847,-82.0297"/>
<ellipse fill="none" stroke="#000000" cx="984.2848" cy="-82.0063" rx="3.2" ry="3.2"/>
</g>
<!-- job_request_application_history&#45;&gt;job_request_application -->
<g id="edge29" class="edge">
<title>job_request_application_history:w&#45;&gt;job_request_application:e</title>
<path fill="none" stroke="#000000" d="M981.1885,-83.9418C950.5277,-93.0451 956.6845,-134.1109 939.9845,-172.0883 913.3947,-232.5556 965.5398,-315.0883 899.4845,-315.0883"/>
<polygon fill="#000000" stroke="#000000" points="987.5509,-83.117 995.9474,-85.6584 991.5177,-82.6026 995.4845,-82.0883 995.4845,-82.0883 995.4845,-82.0883 991.5177,-82.6026 995.0216,-78.5181 987.5509,-83.117 987.5509,-83.117"/>
<ellipse fill="none" stroke="#000000" cx="984.3774" cy="-83.5284" rx="3.2" ry="3.2"/>
</g>
<!-- job_request_application_language -->
<g id="node12" class="node">
<title>job_request_application_language</title>
<g id="a_node12"><a xlink:href="../../tables/job_request_application_language.html" xlink:title="job_request_application_language" target="_top">
<polygon fill="#ffffff" stroke="transparent" points="988.4845,-264.5883 988.4845,-325.5883 1198.4845,-325.5883 1198.4845,-264.5883 988.4845,-264.5883"/>
<polygon fill="#f5f5f5" stroke="transparent" points="988.4845,-302.0883 988.4845,-325.0883 1198.4845,-325.0883 1198.4845,-302.0883 988.4845,-302.0883"/>
<polygon fill="none" stroke="#000000" points="988.4845,-302.0883 988.4845,-325.0883 1198.4845,-325.0883 1198.4845,-302.0883 988.4845,-302.0883"/>
<text text-anchor="start" x="993.2305" y="-311.1883" font-family="Helvetica,sans-Serif" font-weight="bold" font-size="11.00" fill="#000000">job_request_application_language</text>
<text text-anchor="start" x="1164.0063" y="-310.1883" font-family="Helvetica,sans-Serif" font-size="11.00" fill="#000000">[table]</text>
<polygon fill="none" stroke="#000000" points="988.4845,-283.0883 988.4845,-302.0883 1198.4845,-302.0883 1198.4845,-283.0883 988.4845,-283.0883"/>
<text text-anchor="start" x="991.4845" y="-289.1883" font-family="Helvetica,sans-Serif" font-size="11.00" fill="#000000">...</text>
<polygon fill="#ffffff" stroke="transparent" points="988.4845,-264.0883 988.4845,-283.0883 1075.4845,-283.0883 1075.4845,-264.0883 988.4845,-264.0883"/>
<polygon fill="none" stroke="#000000" points="988.4845,-264.0883 988.4845,-283.0883 1075.4845,-283.0883 1075.4845,-264.0883 988.4845,-264.0883"/>
<text text-anchor="start" x="991.4845" y="-270.1883" font-family="Helvetica,sans-Serif" font-size="11.00" fill="#000000">&lt; 1</text>
<polygon fill="#ffffff" stroke="transparent" points="1075.4845,-264.0883 1075.4845,-283.0883 1152.4845,-283.0883 1152.4845,-264.0883 1075.4845,-264.0883"/>
<polygon fill="none" stroke="#000000" points="1075.4845,-264.0883 1075.4845,-283.0883 1152.4845,-283.0883 1152.4845,-264.0883 1075.4845,-264.0883"/>
<text text-anchor="start" x="1110.9801" y="-270.1883" font-family="Helvetica,sans-Serif" font-size="11.00" fill="#000000">70 rows</text>
<polygon fill="#ffffff" stroke="transparent" points="1152.4845,-264.0883 1152.4845,-283.0883 1198.4845,-283.0883 1198.4845,-264.0883 1152.4845,-264.0883"/>
<polygon fill="none" stroke="#000000" points="1152.4845,-264.0883 1152.4845,-283.0883 1198.4845,-283.0883 1198.4845,-264.0883 1152.4845,-264.0883"/>
<text text-anchor="start" x="1189.3707" y="-270.1883" font-family="Helvetica,sans-Serif" font-size="11.00" fill="#000000"> &#160;</text>
</a>
</g>
</g>
<!-- job_request_application_language&#45;&gt;job_request_application -->
<g id="edge31" class="edge">
<title>job_request_application_language:w&#45;&gt;job_request_application:e</title>
<path fill="none" stroke="#000000" d="M973.8252,-293.1976C945.101,-297.7919 934.9135,-315.0883 899.4845,-315.0883"/>
<polygon fill="#000000" stroke="#000000" points="980.5073,-292.692 988.7561,-295.678 984.4959,-292.3901 988.4845,-292.0883 988.4845,-292.0883 988.4845,-292.0883 984.4959,-292.3901 988.2128,-288.4985 980.5073,-292.692 980.5073,-292.692"/>
<ellipse fill="none" stroke="#000000" cx="977.3164" cy="-292.9335" rx="3.2" ry="3.2"/>
</g>
<!-- presentation -->
<g id="node13" class="node">
<title>presentation</title>
<g id="a_node13"><a xlink:href="../../tables/presentation.html" xlink:title="presentation" target="_top">
<polygon fill="#ffffff" stroke="transparent" points="745.9845,-403.5883 745.9845,-596.5883 892.9845,-596.5883 892.9845,-403.5883 745.9845,-403.5883"/>
<polygon fill="#f5f5f5" stroke="transparent" points="746.4845,-573.0883 746.4845,-596.0883 893.4845,-596.0883 893.4845,-573.0883 746.4845,-573.0883"/>
<polygon fill="none" stroke="#000000" points="746.4845,-573.0883 746.4845,-596.0883 893.4845,-596.0883 893.4845,-573.0883 746.4845,-573.0883"/>
<text text-anchor="start" x="751.4845" y="-582.1883" font-family="Helvetica,sans-Serif" font-weight="bold" font-size="11.00" fill="#000000">presentation</text>
<text text-anchor="start" x="858.5282" y="-581.1883" font-family="Helvetica,sans-Serif" font-size="11.00" fill="#000000">[table]</text>
<polygon fill="none" stroke="#000000" points="746.4845,-551.0883 746.4845,-573.0883 893.4845,-573.0883 893.4845,-551.0883 746.4845,-551.0883"/>
<image xlink:href="../../images/primaryKeys.png" width="11px" height="12px" preserveAspectRatio="xMinYMin meet" x="751.484" y="-568.088"/>
<text text-anchor="start" x="766.4845" y="-558.1883" font-family="Helvetica,sans-Serif" font-size="11.00" fill="#000000">id</text>
<polygon fill="#ffffff" stroke="transparent" points="746.4845,-529.0883 746.4845,-551.0883 893.4845,-551.0883 893.4845,-529.0883 746.4845,-529.0883"/>
<polygon fill="none" stroke="#000000" points="746.4845,-529.0883 746.4845,-551.0883 893.4845,-551.0883 893.4845,-529.0883 746.4845,-529.0883"/>
<image xlink:href="../../images/foreignKeys.png" width="11px" height="12px" preserveAspectRatio="xMinYMin meet" x="751.484" y="-546.088"/>
<text text-anchor="start" x="766.4845" y="-536.1883" font-family="Helvetica,sans-Serif" font-size="11.00" fill="#000000">created_by</text>
<polygon fill="#ffffff" stroke="transparent" points="746.4845,-507.0883 746.4845,-529.0883 893.4845,-529.0883 893.4845,-507.0883 746.4845,-507.0883"/>
<polygon fill="none" stroke="#000000" points="746.4845,-507.0883 746.4845,-529.0883 893.4845,-529.0883 893.4845,-507.0883 746.4845,-507.0883"/>
<image xlink:href="../../images/foreignKeys.png" width="11px" height="12px" preserveAspectRatio="xMinYMin meet" x="751.484" y="-524.088"/>
<text text-anchor="start" x="766.4845" y="-514.1883" font-family="Helvetica,sans-Serif" font-size="11.00" fill="#000000">modified_by</text>
<polygon fill="#ffffff" stroke="transparent" points="746.4845,-485.0883 746.4845,-507.0883 893.4845,-507.0883 893.4845,-485.0883 746.4845,-485.0883"/>
<polygon fill="none" stroke="#000000" points="746.4845,-485.0883 746.4845,-507.0883 893.4845,-507.0883 893.4845,-485.0883 746.4845,-485.0883"/>
<image xlink:href="../../images/foreignKeys.png" width="11px" height="12px" preserveAspectRatio="xMinYMin meet" x="751.484" y="-502.088"/>
<text text-anchor="start" x="766.4845" y="-492.1883" font-family="Helvetica,sans-Serif" font-size="11.00" fill="#000000">job_request_id</text>
<polygon fill="#ffffff" stroke="transparent" points="746.4845,-463.0883 746.4845,-485.0883 893.4845,-485.0883 893.4845,-463.0883 746.4845,-463.0883"/>
<polygon fill="none" stroke="#000000" points="746.4845,-463.0883 746.4845,-485.0883 893.4845,-485.0883 893.4845,-463.0883 746.4845,-463.0883"/>
<image xlink:href="../../images/foreignKeys.png" width="11px" height="12px" preserveAspectRatio="xMinYMin meet" x="751.484" y="-480.088"/>
<text text-anchor="start" x="766.4845" y="-470.1883" font-family="Helvetica,sans-Serif" font-size="11.00" fill="#000000">presenter_id</text>
<polygon fill="#ffffff" stroke="transparent" points="746.4845,-441.0883 746.4845,-463.0883 893.4845,-463.0883 893.4845,-441.0883 746.4845,-441.0883"/>
<polygon fill="none" stroke="#000000" points="746.4845,-441.0883 746.4845,-463.0883 893.4845,-463.0883 893.4845,-441.0883 746.4845,-441.0883"/>
<image xlink:href="../../images/foreignKeys.png" width="11px" height="12px" preserveAspectRatio="xMinYMin meet" x="751.484" y="-458.088"/>
<text text-anchor="start" x="766.4845" y="-448.1883" font-family="Helvetica,sans-Serif" font-size="11.00" fill="#000000">recipient_company_id</text>
<polygon fill="none" stroke="#000000" points="746.4845,-422.0883 746.4845,-441.0883 893.4845,-441.0883 893.4845,-422.0883 746.4845,-422.0883"/>
<text text-anchor="start" x="749.4845" y="-428.1883" font-family="Helvetica,sans-Serif" font-size="11.00" fill="#000000">...</text>
<polygon fill="#ffffff" stroke="transparent" points="746.4845,-403.0883 746.4845,-422.0883 797.4845,-422.0883 797.4845,-403.0883 746.4845,-403.0883"/>
<polygon fill="none" stroke="#000000" points="746.4845,-403.0883 746.4845,-422.0883 797.4845,-422.0883 797.4845,-403.0883 746.4845,-403.0883"/>
<text text-anchor="start" x="749.4845" y="-409.1883" font-family="Helvetica,sans-Serif" font-size="11.00" fill="#000000">&lt; 5</text>
<polygon fill="#ffffff" stroke="transparent" points="797.4845,-403.0883 797.4845,-422.0883 856.4845,-422.0883 856.4845,-403.0883 797.4845,-403.0883"/>
<polygon fill="none" stroke="#000000" points="797.4845,-403.0883 797.4845,-422.0883 856.4845,-422.0883 856.4845,-403.0883 797.4845,-403.0883"/>
<text text-anchor="start" x="814.9801" y="-409.1883" font-family="Helvetica,sans-Serif" font-size="11.00" fill="#000000">16 rows</text>
<polygon fill="#ffffff" stroke="transparent" points="856.4845,-403.0883 856.4845,-422.0883 893.4845,-422.0883 893.4845,-403.0883 856.4845,-403.0883"/>
<polygon fill="none" stroke="#000000" points="856.4845,-403.0883 856.4845,-422.0883 893.4845,-422.0883 893.4845,-403.0883 856.4845,-403.0883"/>
<text text-anchor="start" x="874.8898" y="-409.1883" font-family="Helvetica,sans-Serif" font-size="11.00" fill="#000000">2 &gt;</text>
</a>
</g>
</g>
<!-- presentation&#45;&gt;client -->
<g id="edge36" class="edge">
<title>presentation:w&#45;&gt;client:e</title>
<path fill="none" stroke="#000000" d="M731.6704,-452.116C652.7952,-452.4185 627.7346,-455.0883 541.9845,-455.0883"/>
<polygon fill="#000000" stroke="#000000" points="738.4845,-452.1033 746.4912,-455.6883 742.4845,-452.0958 746.4845,-452.0883 746.4845,-452.0883 746.4845,-452.0883 742.4845,-452.0958 746.4777,-448.4883 738.4845,-452.1033 738.4845,-452.1033"/>
<ellipse fill="none" stroke="#000000" cx="735.2845" cy="-452.1093" rx="3.2" ry="3.2"/>
</g>
<!-- presentation&#45;&gt;eworker -->
<g id="edge35" class="edge">
<title>presentation:w&#45;&gt;eworker:e</title>
<path fill="none" stroke="#000000" d="M731.6766,-474.2817C655.802,-476.318 632.6975,-493.8477 549.9845,-499.0883 502.0805,-502.1233 489.7721,-503.5989 441.9845,-499.0883 312.2479,-486.8425 266.9861,-508.9894 153.9845,-444.0883 129.947,-430.2826 140.7044,-397.0883 112.9845,-397.0883"/>
<polygon fill="#000000" stroke="#000000" points="738.4852,-474.1928 746.5315,-477.688 742.4848,-474.1405 746.4845,-474.0883 746.4845,-474.0883 746.4845,-474.0883 742.4848,-474.1405 746.4374,-470.4886 738.4852,-474.1928 738.4852,-474.1928"/>
<ellipse fill="none" stroke="#000000" cx="735.2854" cy="-474.2346" rx="3.2" ry="3.2"/>
</g>
<!-- presentation&#45;&gt;principal -->
<g id="edge32" class="edge">
<title>presentation:w&#45;&gt;principal:e</title>
<path fill="none" stroke="#000000" d="M731.8224,-540.2329C538.7466,-544.0247 433.474,-619.9611 294.9845,-479.0883 247.7345,-431.0252 321.3834,-333.0883 253.9845,-333.0883"/>
<polygon fill="#000000" stroke="#000000" points="738.4849,-540.1672 746.52,-543.6881 742.4847,-540.1277 746.4845,-540.0883 746.4845,-540.0883 746.4845,-540.0883 742.4847,-540.1277 746.4489,-536.4884 738.4849,-540.1672 738.4849,-540.1672"/>
<ellipse fill="none" stroke="#000000" cx="735.285" cy="-540.1988" rx="3.2" ry="3.2"/>
</g>
<!-- presentation&#45;&gt;principal -->
<g id="edge34" class="edge">
<title>presentation:w&#45;&gt;principal:e</title>
<path fill="none" stroke="#000000" d="M731.778,-518.1672C607.8639,-519.4971 567.0088,-536.7187 441.9845,-499.0883 425.7787,-494.2106 423.9772,-487.9392 408.9845,-480.0883 359.3185,-454.0806 334.0856,-466.2655 294.9845,-426.0883 263.4797,-393.7164 299.1563,-333.0883 253.9845,-333.0883"/>
<polygon fill="#000000" stroke="#000000" points="738.4846,-518.1312 746.5038,-521.6882 742.4845,-518.1097 746.4845,-518.0883 746.4845,-518.0883 746.4845,-518.0883 742.4845,-518.1097 746.4651,-514.4883 738.4846,-518.1312 738.4846,-518.1312"/>
<ellipse fill="none" stroke="#000000" cx="735.2846" cy="-518.1484" rx="3.2" ry="3.2"/>
</g>
<!-- presentation&#45;&gt;job_request -->
<g id="edge33" class="edge">
<title>presentation:w&#45;&gt;job_request:e</title>
<path fill="none" stroke="#000000" d="M735.8996,-494.199C702.8431,-480.5123 737.2891,-397.0883 690.9845,-397.0883"/>
<polygon fill="#000000" stroke="#000000" points="746.3998,-492.0099 744.994,-499.8855 743.4189,-499.6043 744.8247,-491.7288 746.3998,-492.0099"/>
<polyline fill="none" stroke="#000000" points="746.4845,-496.0883 742.5467,-495.3854 "/>
<ellipse fill="none" stroke="#000000" cx="739.3965" cy="-494.8231" rx="3.2" ry="3.2"/>
</g>
<!-- presentation_job_request_application -->
<g id="node14" class="node">
<title>presentation_job_request_application</title>
<g id="a_node14"><a xlink:href="../../tables/presentation_job_request_application.html" xlink:title="presentation_job_request_application" target="_top">
<polygon fill="#ffffff" stroke="transparent" points="947.9845,-429.0883 947.9845,-519.0883 1238.9845,-519.0883 1238.9845,-429.0883 947.9845,-429.0883"/>
<polygon fill="#f5f5f5" stroke="transparent" points="950.4845,-494.0883 950.4845,-517.0883 1237.4845,-517.0883 1237.4845,-494.0883 950.4845,-494.0883"/>
<polygon fill="none" stroke="#000000" points="950.4845,-494.0883 950.4845,-517.0883 1237.4845,-517.0883 1237.4845,-494.0883 950.4845,-494.0883"/>
<text text-anchor="start" x="955.4845" y="-503.1883" font-family="Helvetica,sans-Serif" font-weight="bold" font-size="11.00" fill="#000000">presentation_job_request_application</text>
<text text-anchor="start" x="1202.5282" y="-502.1883" font-family="Helvetica,sans-Serif" font-size="11.00" fill="#000000">[table]</text>
<polygon fill="#ffffff" stroke="transparent" points="950.4845,-472.0883 950.4845,-494.0883 1187.4845,-494.0883 1187.4845,-472.0883 950.4845,-472.0883"/>
<polygon fill="none" stroke="#000000" points="950.4845,-472.0883 950.4845,-494.0883 1187.4845,-494.0883 1187.4845,-472.0883 950.4845,-472.0883"/>
<image xlink:href="../../images/foreignKeys.png" width="11px" height="12px" preserveAspectRatio="xMinYMin meet" x="955.484" y="-489.088"/>
<text text-anchor="start" x="970.4845" y="-479.1883" font-family="Helvetica,sans-Serif" font-size="11.00" fill="#000000">presentation_id</text>
<polygon fill="none" stroke="#000000" points="1187.4845,-472.0883 1187.4845,-494.0883 1237.4845,-494.0883 1237.4845,-472.0883 1187.4845,-472.0883"/>
<text text-anchor="start" x="1190.171" y="-479.7883" font-family="Helvetica,sans-Serif" font-size="11.00" fill="#000000">bigint[19]</text>
<polygon fill="#ffffff" stroke="transparent" points="950.4845,-450.0883 950.4845,-472.0883 1187.4845,-472.0883 1187.4845,-450.0883 950.4845,-450.0883"/>
<polygon fill="none" stroke="#000000" points="950.4845,-450.0883 950.4845,-472.0883 1187.4845,-472.0883 1187.4845,-450.0883 950.4845,-450.0883"/>
<image xlink:href="../../images/foreignKeys.png" width="11px" height="12px" preserveAspectRatio="xMinYMin meet" x="955.484" y="-467.088"/>
<text text-anchor="start" x="970.4845" y="-457.1883" font-family="Helvetica,sans-Serif" font-size="11.00" fill="#000000">job_request_application_id</text>
<polygon fill="none" stroke="#000000" points="1187.4845,-450.0883 1187.4845,-472.0883 1237.4845,-472.0883 1237.4845,-450.0883 1187.4845,-450.0883"/>
<text text-anchor="start" x="1190.171" y="-457.7883" font-family="Helvetica,sans-Serif" font-size="11.00" fill="#000000">bigint[19]</text>
<polygon fill="#ffffff" stroke="transparent" points="950.4845,-431.0883 950.4845,-450.0883 1057.4845,-450.0883 1057.4845,-431.0883 950.4845,-431.0883"/>
<polygon fill="none" stroke="#000000" points="950.4845,-431.0883 950.4845,-450.0883 1057.4845,-450.0883 1057.4845,-431.0883 950.4845,-431.0883"/>
<text text-anchor="start" x="953.4845" y="-437.1883" font-family="Helvetica,sans-Serif" font-size="11.00" fill="#000000">&lt; 2</text>
<polygon fill="#ffffff" stroke="transparent" points="1057.4845,-431.0883 1057.4845,-450.0883 1187.4845,-450.0883 1187.4845,-431.0883 1057.4845,-431.0883"/>
<polygon fill="none" stroke="#000000" points="1057.4845,-431.0883 1057.4845,-450.0883 1187.4845,-450.0883 1187.4845,-431.0883 1057.4845,-431.0883"/>
<text text-anchor="start" x="1145.9801" y="-437.1883" font-family="Helvetica,sans-Serif" font-size="11.00" fill="#000000">16 rows</text>
<polygon fill="#ffffff" stroke="transparent" points="1187.4845,-431.0883 1187.4845,-450.0883 1237.4845,-450.0883 1237.4845,-431.0883 1187.4845,-431.0883"/>
<polygon fill="none" stroke="#000000" points="1187.4845,-431.0883 1187.4845,-450.0883 1237.4845,-450.0883 1237.4845,-431.0883 1187.4845,-431.0883"/>
<text text-anchor="start" x="1218.8898" y="-437.1883" font-family="Helvetica,sans-Serif" font-size="11.00" fill="#000000">0 &gt;</text>
<polygon fill="none" stroke="#000000" stroke-width="2" points="948.9845,-430.0883 948.9845,-518.0883 1237.9845,-518.0883 1237.9845,-430.0883 948.9845,-430.0883"/>
</a>
</g>
</g>
<!-- presentation_job_request_application&#45;&gt;job_request_application -->
<g id="edge37" class="edge">
<title>presentation_job_request_application:w&#45;&gt;job_request_application:e</title>
<path fill="none" stroke="#000000" d="M936.267,-458.1719C895.1798,-437.5946 962.4458,-315.0883 899.4845,-315.0883"/>
<polygon fill="#000000" stroke="#000000" points="942.6476,-459.4807 949.7611,-464.6148 946.5661,-460.2845 950.4845,-461.0883 950.4845,-461.0883 950.4845,-461.0883 946.5661,-460.2845 951.2079,-457.5617 942.6476,-459.4807 942.6476,-459.4807"/>
<ellipse fill="none" stroke="#000000" cx="939.5129" cy="-458.8376" rx="3.2" ry="3.2"/>
</g>
<!-- presentation_job_request_application&#45;&gt;presentation -->
<g id="edge38" class="edge">
<title>presentation_job_request_application:w&#45;&gt;presentation:e</title>
<path fill="none" stroke="#000000" d="M936.441,-487.1145C913.9175,-503.2132 930.8613,-562.0883 893.4845,-562.0883"/>
<polygon fill="#000000" stroke="#000000" points="942.7943,-485.2931 951.4766,-486.5488 946.6394,-484.1907 950.4845,-483.0883 950.4845,-483.0883 950.4845,-483.0883 946.6394,-484.1907 949.4923,-479.6277 942.7943,-485.2931 942.7943,-485.2931"/>
<ellipse fill="none" stroke="#000000" cx="939.7182" cy="-486.175" rx="3.2" ry="3.2"/>
</g>
<!-- presentation_recipient -->
<g id="node15" class="node">
<title>presentation_recipient</title>
<g id="a_node15"><a xlink:href="../../tables/presentation_recipient.html" xlink:title="presentation_recipient" target="_top">
<polygon fill="#ffffff" stroke="transparent" points="1017.9845,-540.5883 1017.9845,-601.5883 1168.9845,-601.5883 1168.9845,-540.5883 1017.9845,-540.5883"/>
<polygon fill="#f5f5f5" stroke="transparent" points="1018.4845,-578.0883 1018.4845,-601.0883 1169.4845,-601.0883 1169.4845,-578.0883 1018.4845,-578.0883"/>
<polygon fill="none" stroke="#000000" points="1018.4845,-578.0883 1018.4845,-601.0883 1169.4845,-601.0883 1169.4845,-578.0883 1018.4845,-578.0883"/>
<text text-anchor="start" x="1023.3865" y="-587.1883" font-family="Helvetica,sans-Serif" font-weight="bold" font-size="11.00" fill="#000000">presentation_recipient</text>
<text text-anchor="start" x="1135.0063" y="-586.1883" font-family="Helvetica,sans-Serif" font-size="11.00" fill="#000000">[table]</text>
<polygon fill="none" stroke="#000000" points="1018.4845,-559.0883 1018.4845,-578.0883 1169.4845,-578.0883 1169.4845,-559.0883 1018.4845,-559.0883"/>
<text text-anchor="start" x="1021.4845" y="-565.1883" font-family="Helvetica,sans-Serif" font-size="11.00" fill="#000000">...</text>
<polygon fill="#ffffff" stroke="transparent" points="1018.4845,-540.0883 1018.4845,-559.0883 1076.4845,-559.0883 1076.4845,-540.0883 1018.4845,-540.0883"/>
<polygon fill="none" stroke="#000000" points="1018.4845,-540.0883 1018.4845,-559.0883 1076.4845,-559.0883 1076.4845,-540.0883 1018.4845,-540.0883"/>
<text text-anchor="start" x="1021.4845" y="-546.1883" font-family="Helvetica,sans-Serif" font-size="11.00" fill="#000000">&lt; 2</text>
<polygon fill="#ffffff" stroke="transparent" points="1076.4845,-540.0883 1076.4845,-559.0883 1138.4845,-559.0883 1138.4845,-540.0883 1076.4845,-540.0883"/>
<polygon fill="none" stroke="#000000" points="1076.4845,-540.0883 1076.4845,-559.0883 1138.4845,-559.0883 1138.4845,-540.0883 1076.4845,-540.0883"/>
<text text-anchor="start" x="1096.9801" y="-546.1883" font-family="Helvetica,sans-Serif" font-size="11.00" fill="#000000">16 rows</text>
<polygon fill="#ffffff" stroke="transparent" points="1138.4845,-540.0883 1138.4845,-559.0883 1169.4845,-559.0883 1169.4845,-540.0883 1138.4845,-540.0883"/>
<polygon fill="none" stroke="#000000" points="1138.4845,-540.0883 1138.4845,-559.0883 1169.4845,-559.0883 1169.4845,-540.0883 1138.4845,-540.0883"/>
<text text-anchor="start" x="1160.3707" y="-546.1883" font-family="Helvetica,sans-Serif" font-size="11.00" fill="#000000"> &#160;</text>
</a>
</g>
</g>
<!-- presentation_recipient&#45;&gt;presentation -->
<g id="edge39" class="edge">
<title>presentation_recipient:w&#45;&gt;presentation:e</title>
<path fill="none" stroke="#000000" d="M1003.8762,-567.9399C959.9169,-567.016 943.8897,-562.0883 893.4845,-562.0883"/>
<polygon fill="#000000" stroke="#000000" points="1010.4849,-568.007 1018.4479,-571.6881 1014.4847,-568.0476 1018.4845,-568.0883 1018.4845,-568.0883 1018.4845,-568.0883 1014.4847,-568.0476 1018.521,-564.4884 1010.4849,-568.007 1010.4849,-568.007"/>
<ellipse fill="none" stroke="#000000" cx="1007.285" cy="-567.9745" rx="3.2" ry="3.2"/>
</g>
</g>
</svg>
