<?xml version="1.0" encoding="UTF-8" standalone="no"?>
<!DOCTYPE svg PUBLIC "-//W3C//DTD SVG 1.1//EN"
 "http://www.w3.org/Graphics/SVG/1.1/DTD/svg11.dtd">
<!-- Generated by graphviz version 2.40.1 (20161225.0304)
 -->
<!-- Title: twoDegreesRelationshipsDiagram Pages: 1 -->
<svg width="1358pt" height="461pt"
 viewBox="0.00 0.00 1358.46 460.55" xmlns="http://www.w3.org/2000/svg" xmlns:xlink="http://www.w3.org/1999/xlink">
<g id="graph0" class="graph" transform="scale(1 1) rotate(0) translate(4 456.553)">
<title>twoDegreesRelationshipsDiagram</title>
<polygon fill="#ffffff" stroke="transparent" points="-4,4 -4,-456.553 1354.4582,-456.553 1354.4582,4 -4,4"/>
<text text-anchor="middle" x="72.4936" y="-7.3" font-family="Helvetica,sans-Serif" font-size="11.00" fill="#000000">Generated by SchemaSpy</text>
<!-- client -->
<g id="node1" class="node">
<title>client</title>
<g id="a_node1"><a xlink:href="../../tables/client.html" xlink:title="client" target="_top">
<polygon fill="#ffffff" stroke="transparent" points="438.4582,-65.3464 438.4582,-126.3464 530.4582,-126.3464 530.4582,-65.3464 438.4582,-65.3464"/>
<polygon fill="#f5f5f5" stroke="transparent" points="438.4582,-102.8464 438.4582,-125.8464 530.4582,-125.8464 530.4582,-102.8464 438.4582,-102.8464"/>
<polygon fill="none" stroke="#000000" points="438.4582,-102.8464 438.4582,-125.8464 530.4582,-125.8464 530.4582,-102.8464 438.4582,-102.8464"/>
<text text-anchor="start" x="443.4582" y="-111.9464" font-family="Helvetica,sans-Serif" font-weight="bold" font-size="11.00" fill="#000000">client</text>
<text text-anchor="start" x="495.5019" y="-110.9464" font-family="Helvetica,sans-Serif" font-size="11.00" fill="#000000">[table]</text>
<polygon fill="none" stroke="#000000" points="438.4582,-83.8464 438.4582,-102.8464 530.4582,-102.8464 530.4582,-83.8464 438.4582,-83.8464"/>
<text text-anchor="start" x="441.4582" y="-89.9464" font-family="Helvetica,sans-Serif" font-size="11.00" fill="#000000">...</text>
<polygon fill="#ffffff" stroke="transparent" points="438.4582,-64.8464 438.4582,-83.8464 459.4582,-83.8464 459.4582,-64.8464 438.4582,-64.8464"/>
<polygon fill="none" stroke="#000000" points="438.4582,-64.8464 438.4582,-83.8464 459.4582,-83.8464 459.4582,-64.8464 438.4582,-64.8464"/>
<text text-anchor="start" x="441.1609" y="-70.9464" font-family="Helvetica,sans-Serif" font-size="11.00" fill="#000000">&lt; 9</text>
<polygon fill="#ffffff" stroke="transparent" points="459.4582,-64.8464 459.4582,-83.8464 509.4582,-83.8464 509.4582,-64.8464 459.4582,-64.8464"/>
<polygon fill="none" stroke="#000000" points="459.4582,-64.8464 459.4582,-83.8464 509.4582,-83.8464 509.4582,-64.8464 459.4582,-64.8464"/>
<text text-anchor="start" x="462.1486" y="-70.9464" font-family="Helvetica,sans-Serif" font-size="11.00" fill="#000000">647 rows</text>
<polygon fill="#ffffff" stroke="transparent" points="509.4582,-64.8464 509.4582,-83.8464 530.4582,-83.8464 530.4582,-64.8464 509.4582,-64.8464"/>
<polygon fill="none" stroke="#000000" points="509.4582,-64.8464 509.4582,-83.8464 530.4582,-83.8464 530.4582,-64.8464 509.4582,-64.8464"/>
<text text-anchor="start" x="512.1609" y="-70.9464" font-family="Helvetica,sans-Serif" font-size="11.00" fill="#000000">7 &gt;</text>
</a>
</g>
</g>
<!-- file -->
<g id="node2" class="node">
<title>file</title>
<g id="a_node2"><a xlink:href="../../tables/file.html" xlink:title="file" target="_top">
<polygon fill="#ffffff" stroke="transparent" points="291.4582,-129.3464 291.4582,-190.3464 389.4582,-190.3464 389.4582,-129.3464 291.4582,-129.3464"/>
<polygon fill="#f5f5f5" stroke="transparent" points="291.4582,-166.8464 291.4582,-189.8464 389.4582,-189.8464 389.4582,-166.8464 291.4582,-166.8464"/>
<polygon fill="none" stroke="#000000" points="291.4582,-166.8464 291.4582,-189.8464 389.4582,-189.8464 389.4582,-166.8464 291.4582,-166.8464"/>
<text text-anchor="start" x="296.4582" y="-175.9464" font-family="Helvetica,sans-Serif" font-weight="bold" font-size="11.00" fill="#000000">file</text>
<text text-anchor="start" x="354.5019" y="-174.9464" font-family="Helvetica,sans-Serif" font-size="11.00" fill="#000000">[table]</text>
<polygon fill="none" stroke="#000000" points="291.4582,-147.8464 291.4582,-166.8464 389.4582,-166.8464 389.4582,-147.8464 291.4582,-147.8464"/>
<text text-anchor="start" x="294.4582" y="-153.9464" font-family="Helvetica,sans-Serif" font-size="11.00" fill="#000000">...</text>
<polygon fill="#ffffff" stroke="transparent" points="291.4582,-128.8464 291.4582,-147.8464 312.4582,-147.8464 312.4582,-128.8464 291.4582,-128.8464"/>
<polygon fill="none" stroke="#000000" points="291.4582,-128.8464 291.4582,-147.8464 312.4582,-147.8464 312.4582,-128.8464 291.4582,-128.8464"/>
<text text-anchor="start" x="294.1609" y="-134.9464" font-family="Helvetica,sans-Serif" font-size="11.00" fill="#000000">&lt; 2</text>
<polygon fill="#ffffff" stroke="transparent" points="312.4582,-128.8464 312.4582,-147.8464 362.4582,-147.8464 362.4582,-128.8464 312.4582,-128.8464"/>
<polygon fill="none" stroke="#000000" points="312.4582,-128.8464 312.4582,-147.8464 362.4582,-147.8464 362.4582,-128.8464 312.4582,-128.8464"/>
<text text-anchor="start" x="315.1486" y="-134.9464" font-family="Helvetica,sans-Serif" font-size="11.00" fill="#000000">590 rows</text>
<polygon fill="#ffffff" stroke="transparent" points="362.4582,-128.8464 362.4582,-147.8464 389.4582,-147.8464 389.4582,-128.8464 362.4582,-128.8464"/>
<polygon fill="none" stroke="#000000" points="362.4582,-128.8464 362.4582,-147.8464 389.4582,-147.8464 389.4582,-128.8464 362.4582,-128.8464"/>
<text text-anchor="start" x="365.1034" y="-134.9464" font-family="Helvetica,sans-Serif" font-size="11.00" fill="#000000">13 &gt;</text>
</a>
</g>
</g>
<!-- client&#45;&gt;file -->
<g id="edge1" class="edge">
<title>client:w&#45;&gt;file:e</title>
<path fill="none" stroke="#000000" d="M424.5747,-97.8684C408.6921,-112.9558 419.125,-156.8464 389.4582,-156.8464"/>
<polygon fill="#000000" stroke="#000000" points="430.9352,-95.5677 439.6828,-96.2318 434.6967,-94.2071 438.4582,-92.8464 438.4582,-92.8464 438.4582,-92.8464 434.6967,-94.2071 437.2336,-89.4611 430.9352,-95.5677 430.9352,-95.5677"/>
<ellipse fill="none" stroke="#000000" cx="427.9261" cy="-96.6562" rx="3.2" ry="3.2"/>
</g>
<!-- eworker -->
<g id="node3" class="node">
<title>eworker</title>
<g id="a_node3"><a xlink:href="../../tables/eworker.html" xlink:title="eworker" target="_top">
<polygon fill="#ffffff" stroke="transparent" points="9.4582,-226.3464 9.4582,-287.3464 101.4582,-287.3464 101.4582,-226.3464 9.4582,-226.3464"/>
<polygon fill="#f5f5f5" stroke="transparent" points="9.4582,-263.8464 9.4582,-286.8464 101.4582,-286.8464 101.4582,-263.8464 9.4582,-263.8464"/>
<polygon fill="none" stroke="#000000" points="9.4582,-263.8464 9.4582,-286.8464 101.4582,-286.8464 101.4582,-263.8464 9.4582,-263.8464"/>
<text text-anchor="start" x="14.4582" y="-272.9464" font-family="Helvetica,sans-Serif" font-weight="bold" font-size="11.00" fill="#000000">eworker</text>
<text text-anchor="start" x="66.5019" y="-271.9464" font-family="Helvetica,sans-Serif" font-size="11.00" fill="#000000">[table]</text>
<polygon fill="none" stroke="#000000" points="9.4582,-244.8464 9.4582,-263.8464 101.4582,-263.8464 101.4582,-244.8464 9.4582,-244.8464"/>
<text text-anchor="start" x="12.4582" y="-250.9464" font-family="Helvetica,sans-Serif" font-size="11.00" fill="#000000">...</text>
<polygon fill="#ffffff" stroke="transparent" points="9.4582,-225.8464 9.4582,-244.8464 30.4582,-244.8464 30.4582,-225.8464 9.4582,-225.8464"/>
<polygon fill="none" stroke="#000000" points="9.4582,-225.8464 9.4582,-244.8464 30.4582,-244.8464 30.4582,-225.8464 9.4582,-225.8464"/>
<text text-anchor="start" x="12.1609" y="-231.9464" font-family="Helvetica,sans-Serif" font-size="11.00" fill="#000000">&lt; 4</text>
<polygon fill="#ffffff" stroke="transparent" points="30.4582,-225.8464 30.4582,-244.8464 80.4582,-244.8464 80.4582,-225.8464 30.4582,-225.8464"/>
<polygon fill="none" stroke="#000000" points="30.4582,-225.8464 30.4582,-244.8464 80.4582,-244.8464 80.4582,-225.8464 30.4582,-225.8464"/>
<text text-anchor="start" x="33.1486" y="-231.9464" font-family="Helvetica,sans-Serif" font-size="11.00" fill="#000000">347 rows</text>
<polygon fill="#ffffff" stroke="transparent" points="80.4582,-225.8464 80.4582,-244.8464 101.4582,-244.8464 101.4582,-225.8464 80.4582,-225.8464"/>
<polygon fill="none" stroke="#000000" points="80.4582,-225.8464 80.4582,-244.8464 101.4582,-244.8464 101.4582,-225.8464 80.4582,-225.8464"/>
<text text-anchor="start" x="83.1609" y="-231.9464" font-family="Helvetica,sans-Serif" font-size="11.00" fill="#000000">9 &gt;</text>
</a>
</g>
</g>
<!-- client&#45;&gt;eworker -->
<g id="edge2" class="edge">
<title>client:w&#45;&gt;eworker:e</title>
<path fill="none" stroke="#000000" d="M423.9994,-92.6533C301.3943,-89.3921 241.0824,-46.9526 142.4582,-127.8464 96.9253,-165.1936 160.3484,-253.8464 101.4582,-253.8464"/>
<polygon fill="#000000" stroke="#000000" points="430.4589,-92.7395 438.4101,-96.4461 434.4586,-92.793 438.4582,-92.8464 438.4582,-92.8464 438.4582,-92.8464 434.4586,-92.793 438.5063,-89.2468 430.4589,-92.7395 430.4589,-92.7395"/>
<ellipse fill="none" stroke="#000000" cx="427.2592" cy="-92.6967" rx="3.2" ry="3.2"/>
</g>
<!-- client&#45;&gt;eworker -->
<g id="edge3" class="edge">
<title>client:w&#45;&gt;eworker:e</title>
<path fill="none" stroke="#000000" d="M423.9767,-92.0246C301.1909,-83.6599 241.097,-44.6359 142.4582,-125.8464 98.2974,-162.2046 158.6605,-247.8464 101.4582,-253.8464"/>
<polygon fill="#000000" stroke="#000000" points="430.4711,-92.3931 438.2542,-96.4407 434.4646,-92.6198 438.4582,-92.8464 438.4582,-92.8464 438.4582,-92.8464 434.4646,-92.6198 438.6622,-89.2522 430.4711,-92.3931 430.4711,-92.3931"/>
<ellipse fill="none" stroke="#000000" cx="427.2762" cy="-92.2118" rx="3.2" ry="3.2"/>
</g>
<!-- client&#45;&gt;eworker -->
<g id="edge6" class="edge">
<title>client:w&#45;&gt;eworker:e</title>
<path fill="none" stroke="#000000" d="M423.9767,-93.4188C301.1909,-96.6599 241.097,-57.6359 142.4582,-138.8464 98.2974,-175.2046 158.6605,-260.8464 101.4582,-253.8464"/>
<polygon fill="#000000" stroke="#000000" points="430.4645,-93.1624 438.6004,-96.4436 434.4613,-93.0044 438.4582,-92.8464 438.4582,-92.8464 438.4582,-92.8464 434.4613,-93.0044 438.316,-89.2492 430.4645,-93.1624 430.4645,-93.1624"/>
<ellipse fill="none" stroke="#000000" cx="427.2669" cy="-93.2888" rx="3.2" ry="3.2"/>
</g>
<!-- principal -->
<g id="node4" class="node">
<title>principal</title>
<g id="a_node4"><a xlink:href="../../tables/principal.html" xlink:title="principal" target="_top">
<polygon fill="#ffffff" stroke="transparent" points="150.4582,-226.3464 150.4582,-287.3464 242.4582,-287.3464 242.4582,-226.3464 150.4582,-226.3464"/>
<polygon fill="#f5f5f5" stroke="transparent" points="150.4582,-263.8464 150.4582,-286.8464 242.4582,-286.8464 242.4582,-263.8464 150.4582,-263.8464"/>
<polygon fill="none" stroke="#000000" points="150.4582,-263.8464 150.4582,-286.8464 242.4582,-286.8464 242.4582,-263.8464 150.4582,-263.8464"/>
<text text-anchor="start" x="155.4582" y="-272.9464" font-family="Helvetica,sans-Serif" font-weight="bold" font-size="11.00" fill="#000000">principal</text>
<text text-anchor="start" x="207.5019" y="-271.9464" font-family="Helvetica,sans-Serif" font-size="11.00" fill="#000000">[table]</text>
<polygon fill="none" stroke="#000000" points="150.4582,-244.8464 150.4582,-263.8464 242.4582,-263.8464 242.4582,-244.8464 150.4582,-244.8464"/>
<text text-anchor="start" x="153.4582" y="-250.9464" font-family="Helvetica,sans-Serif" font-size="11.00" fill="#000000">...</text>
<polygon fill="#ffffff" stroke="transparent" points="150.4582,-225.8464 150.4582,-244.8464 171.4582,-244.8464 171.4582,-225.8464 150.4582,-225.8464"/>
<polygon fill="none" stroke="#000000" points="150.4582,-225.8464 150.4582,-244.8464 171.4582,-244.8464 171.4582,-225.8464 150.4582,-225.8464"/>
<text text-anchor="start" x="153.1609" y="-231.9464" font-family="Helvetica,sans-Serif" font-size="11.00" fill="#000000">&lt; 1</text>
<polygon fill="#ffffff" stroke="transparent" points="171.4582,-225.8464 171.4582,-244.8464 215.4582,-244.8464 215.4582,-225.8464 171.4582,-225.8464"/>
<polygon fill="none" stroke="#000000" points="171.4582,-225.8464 171.4582,-244.8464 215.4582,-244.8464 215.4582,-225.8464 171.4582,-225.8464"/>
<text text-anchor="start" x="174.206" y="-231.9464" font-family="Helvetica,sans-Serif" font-size="11.00" fill="#000000">18 rows</text>
<polygon fill="#ffffff" stroke="transparent" points="215.4582,-225.8464 215.4582,-244.8464 242.4582,-244.8464 242.4582,-225.8464 215.4582,-225.8464"/>
<polygon fill="none" stroke="#000000" points="215.4582,-225.8464 215.4582,-244.8464 242.4582,-244.8464 242.4582,-225.8464 215.4582,-225.8464"/>
<text text-anchor="start" x="218.1034" y="-231.9464" font-family="Helvetica,sans-Serif" font-size="11.00" fill="#000000">56 &gt;</text>
</a>
</g>
</g>
<!-- client&#45;&gt;principal -->
<g id="edge4" class="edge">
<title>client:w&#45;&gt;principal:e</title>
<path fill="none" stroke="#000000" d="M424.1758,-95.6501C397.0337,-109.2903 430.0383,-169.3352 397.4582,-200.8464 390.9167,-207.1733 251.5588,-253.8464 242.4582,-253.8464"/>
<polygon fill="#000000" stroke="#000000" points="430.608,-94.3875 439.1517,-96.379 434.5331,-93.617 438.4582,-92.8464 438.4582,-92.8464 438.4582,-92.8464 434.5331,-93.617 437.7647,-89.3139 430.608,-94.3875 430.608,-94.3875"/>
<ellipse fill="none" stroke="#000000" cx="427.468" cy="-95.0039" rx="3.2" ry="3.2"/>
</g>
<!-- client&#45;&gt;principal -->
<g id="edge5" class="edge">
<title>client:w&#45;&gt;principal:e</title>
<path fill="none" stroke="#000000" d="M424.2314,-95.7096C398.3139,-109.1177 428.6912,-166.3277 397.4582,-196.8464 384.3337,-209.6708 260.808,-253.8464 242.4582,-253.8464"/>
<polygon fill="#000000" stroke="#000000" points="430.6155,-94.4249 439.1685,-96.3757 434.5368,-93.6356 438.4582,-92.8464 438.4582,-92.8464 438.4582,-92.8464 434.5368,-93.6356 437.7479,-89.3172 430.6155,-94.4249 430.6155,-94.4249"/>
<ellipse fill="none" stroke="#000000" cx="427.4784" cy="-95.0562" rx="3.2" ry="3.2"/>
</g>
<!-- file&#45;&gt;principal -->
<g id="edge14" class="edge">
<title>file:w&#45;&gt;principal:e</title>
<path fill="none" stroke="#000000" d="M277.1496,-159.2452C253.8368,-174.3421 284.5316,-248.6199 242.4582,-253.8464"/>
<polygon fill="#000000" stroke="#000000" points="283.5683,-158.1692 292.0534,-160.3969 287.5133,-157.5078 291.4582,-156.8464 291.4582,-156.8464 291.4582,-156.8464 287.5133,-157.5078 290.863,-153.296 283.5683,-158.1692 283.5683,-158.1692"/>
<ellipse fill="none" stroke="#000000" cx="280.4124" cy="-158.6983" rx="3.2" ry="3.2"/>
</g>
<!-- file&#45;&gt;principal -->
<g id="edge15" class="edge">
<title>file:w&#45;&gt;principal:e</title>
<path fill="none" stroke="#000000" d="M278.1202,-162.703C252.9978,-185.1526 285.0976,-260.0261 242.4582,-253.8464"/>
<polygon fill="#000000" stroke="#000000" points="284.1332,-160.0628 292.9056,-160.1427 287.7957,-158.4546 291.4582,-156.8464 291.4582,-156.8464 291.4582,-156.8464 287.7957,-158.4546 290.0108,-153.5502 284.1332,-160.0628 284.1332,-160.0628"/>
<ellipse fill="none" stroke="#000000" cx="281.2032" cy="-161.3493" rx="3.2" ry="3.2"/>
</g>
<!-- eworker&#45;&gt;file -->
<g id="edge11" class="edge">
<title>eworker:w&#45;&gt;file:e</title>
<path fill="none" stroke="#000000" d="M1.2554,-241.7753C2.1372,-235.4477 5.5442,-227.8841 9.4582,-222.3464 84.0208,-116.8532 156.1395,-147.2177 283.4582,-125.3464 283.4582,-125.3464 389.4582,-156.8464 389.4582,-156.8464"/>
<polygon fill="#000000" stroke="#000000" points="4.9618,-247.2296 6.4806,-255.8698 7.21,-250.538 9.4582,-253.8464 9.4582,-253.8464 9.4582,-253.8464 7.21,-250.538 12.4358,-251.823 4.9618,-247.2296 4.9618,-247.2296"/>
<ellipse fill="none" stroke="#000000" cx="3.1632" cy="-244.5829" rx="3.2" ry="3.2"/>
</g>
<!-- eworker&#45;&gt;principal -->
<g id="edge12" class="edge">
<title>eworker:w&#45;&gt;principal:e</title>
<path fill="none" stroke="#000000" d="M.7486,-242.2786C-.7486,-233.5612 3.1937,-222.611 9.4582,-216.3464 46.0706,-179.734 205.8458,-179.734 242.4582,-216.3464 252.3577,-226.2459 256.4582,-247.8464 242.4582,-253.8464"/>
<polygon fill="#000000" stroke="#000000" points="4.6463,-247.4554 6.5822,-256.0118 7.0522,-250.6509 9.4582,-253.8464 9.4582,-253.8464 9.4582,-253.8464 7.0522,-250.6509 12.3342,-251.6811 4.6463,-247.4554 4.6463,-247.4554"/>
<ellipse fill="none" stroke="#000000" cx="2.7215" cy="-244.8989" rx="3.2" ry="3.2"/>
</g>
<!-- eworker&#45;&gt;principal -->
<g id="edge13" class="edge">
<title>eworker:w&#45;&gt;principal:e</title>
<path fill="none" stroke="#000000" d="M2.021,-241.4469C3.586,-237.1028 6.2099,-232.5947 9.4582,-229.3464 46.0706,-192.734 205.8458,-192.734 242.4582,-229.3464 252.3577,-239.2459 256.4582,-260.8464 242.4582,-253.8464"/>
<polygon fill="#000000" stroke="#000000" points="5.3433,-246.9859 6.371,-255.6982 7.4007,-250.4161 9.4582,-253.8464 9.4582,-253.8464 9.4582,-253.8464 7.4007,-250.4161 12.5455,-251.9947 5.3433,-246.9859 5.3433,-246.9859"/>
<ellipse fill="none" stroke="#000000" cx="3.6973" cy="-244.2416" rx="3.2" ry="3.2"/>
</g>
<!-- principal&#45;&gt;eworker -->
<g id="edge30" class="edge">
<title>principal:w&#45;&gt;eworker:e</title>
<path fill="none" stroke="#000000" d="M135.9491,-253.8464C124.6356,-253.8464 117.4513,-253.8464 101.4582,-253.8464"/>
<polygon fill="#000000" stroke="#000000" points="142.4582,-253.8465 150.4582,-257.4464 146.4582,-253.8465 150.4582,-253.8464 150.4582,-253.8464 150.4582,-253.8464 146.4582,-253.8465 150.4582,-250.2464 142.4582,-253.8465 142.4582,-253.8465"/>
<ellipse fill="none" stroke="#000000" cx="139.2582" cy="-253.8465" rx="3.2" ry="3.2"/>
</g>
<!-- client_contact -->
<g id="node5" class="node">
<title>client_contact</title>
<g id="a_node5"><a xlink:href="../../tables/client_contact.html" xlink:title="client_contact" target="_top">
<polygon fill="#ffffff" stroke="transparent" points="579.4582,-90.3464 579.4582,-283.3464 723.4582,-283.3464 723.4582,-90.3464 579.4582,-90.3464"/>
<polygon fill="#f5f5f5" stroke="transparent" points="579.4582,-259.8464 579.4582,-282.8464 723.4582,-282.8464 723.4582,-259.8464 579.4582,-259.8464"/>
<polygon fill="none" stroke="#000000" points="579.4582,-259.8464 579.4582,-282.8464 723.4582,-282.8464 723.4582,-259.8464 579.4582,-259.8464"/>
<text text-anchor="start" x="584.4582" y="-268.9464" font-family="Helvetica,sans-Serif" font-weight="bold" font-size="11.00" fill="#000000">client_contact</text>
<text text-anchor="start" x="688.5019" y="-267.9464" font-family="Helvetica,sans-Serif" font-size="11.00" fill="#000000">[table]</text>
<polygon fill="none" stroke="#000000" points="579.4582,-237.8464 579.4582,-259.8464 723.4582,-259.8464 723.4582,-237.8464 579.4582,-237.8464"/>
<image xlink:href="../../images/primaryKeys.png" width="11px" height="12px" preserveAspectRatio="xMinYMin meet" x="584.458" y="-254.846"/>
<text text-anchor="start" x="599.4582" y="-244.9464" font-family="Helvetica,sans-Serif" font-size="11.00" fill="#000000">id</text>
<polygon fill="#ffffff" stroke="transparent" points="579.4582,-215.8464 579.4582,-237.8464 723.4582,-237.8464 723.4582,-215.8464 579.4582,-215.8464"/>
<polygon fill="none" stroke="#000000" points="579.4582,-215.8464 579.4582,-237.8464 723.4582,-237.8464 723.4582,-215.8464 579.4582,-215.8464"/>
<image xlink:href="../../images/foreignKeys.png" width="11px" height="12px" preserveAspectRatio="xMinYMin meet" x="584.458" y="-232.846"/>
<text text-anchor="start" x="599.4582" y="-222.9464" font-family="Helvetica,sans-Serif" font-size="11.00" fill="#000000">created_by</text>
<polygon fill="#ffffff" stroke="transparent" points="579.4582,-193.8464 579.4582,-215.8464 723.4582,-215.8464 723.4582,-193.8464 579.4582,-193.8464"/>
<polygon fill="none" stroke="#000000" points="579.4582,-193.8464 579.4582,-215.8464 723.4582,-215.8464 723.4582,-193.8464 579.4582,-193.8464"/>
<image xlink:href="../../images/foreignKeys.png" width="11px" height="12px" preserveAspectRatio="xMinYMin meet" x="584.458" y="-210.846"/>
<text text-anchor="start" x="599.4582" y="-200.9464" font-family="Helvetica,sans-Serif" font-size="11.00" fill="#000000">modified_by</text>
<polygon fill="#ffffff" stroke="transparent" points="579.4582,-171.8464 579.4582,-193.8464 723.4582,-193.8464 723.4582,-171.8464 579.4582,-171.8464"/>
<polygon fill="none" stroke="#000000" points="579.4582,-171.8464 579.4582,-193.8464 723.4582,-193.8464 723.4582,-171.8464 579.4582,-171.8464"/>
<text text-anchor="start" x="599.4582" y="-178.9464" font-family="Helvetica,sans-Serif" font-size="11.00" fill="#000000">email</text>
<polygon fill="#ffffff" stroke="transparent" points="579.4582,-149.8464 579.4582,-171.8464 723.4582,-171.8464 723.4582,-149.8464 579.4582,-149.8464"/>
<polygon fill="none" stroke="#000000" points="579.4582,-149.8464 579.4582,-171.8464 723.4582,-171.8464 723.4582,-149.8464 579.4582,-149.8464"/>
<image xlink:href="../../images/foreignKeys.png" width="11px" height="12px" preserveAspectRatio="xMinYMin meet" x="584.458" y="-166.846"/>
<text text-anchor="start" x="599.4582" y="-156.9464" font-family="Helvetica,sans-Serif" font-size="11.00" fill="#000000">client_id</text>
<polygon fill="#ffffff" stroke="transparent" points="579.4582,-127.8464 579.4582,-149.8464 723.4582,-149.8464 723.4582,-127.8464 579.4582,-127.8464"/>
<polygon fill="none" stroke="#000000" points="579.4582,-127.8464 579.4582,-149.8464 723.4582,-149.8464 723.4582,-127.8464 579.4582,-127.8464"/>
<image xlink:href="../../images/foreignKeys.png" width="11px" height="12px" preserveAspectRatio="xMinYMin meet" x="584.458" y="-144.846"/>
<text text-anchor="start" x="599.4582" y="-134.9464" font-family="Helvetica,sans-Serif" font-size="11.00" fill="#000000">avatar_id</text>
<polygon fill="none" stroke="#000000" points="579.4582,-108.8464 579.4582,-127.8464 723.4582,-127.8464 723.4582,-108.8464 579.4582,-108.8464"/>
<text text-anchor="start" x="582.4582" y="-114.9464" font-family="Helvetica,sans-Serif" font-size="11.00" fill="#000000">...</text>
<polygon fill="#ffffff" stroke="transparent" points="579.4582,-89.8464 579.4582,-108.8464 626.4582,-108.8464 626.4582,-89.8464 579.4582,-89.8464"/>
<polygon fill="none" stroke="#000000" points="579.4582,-89.8464 579.4582,-108.8464 626.4582,-108.8464 626.4582,-89.8464 579.4582,-89.8464"/>
<text text-anchor="start" x="582.4582" y="-95.9464" font-family="Helvetica,sans-Serif" font-size="11.00" fill="#000000">&lt; 4</text>
<polygon fill="#ffffff" stroke="transparent" points="626.4582,-89.8464 626.4582,-108.8464 689.4582,-108.8464 689.4582,-89.8464 626.4582,-89.8464"/>
<polygon fill="none" stroke="#000000" points="626.4582,-89.8464 626.4582,-108.8464 689.4582,-108.8464 689.4582,-89.8464 626.4582,-89.8464"/>
<text text-anchor="start" x="641.8389" y="-95.9464" font-family="Helvetica,sans-Serif" font-size="11.00" fill="#000000">561 rows</text>
<polygon fill="#ffffff" stroke="transparent" points="689.4582,-89.8464 689.4582,-108.8464 723.4582,-108.8464 723.4582,-89.8464 689.4582,-89.8464"/>
<polygon fill="none" stroke="#000000" points="689.4582,-89.8464 689.4582,-108.8464 723.4582,-108.8464 723.4582,-89.8464 689.4582,-89.8464"/>
<text text-anchor="start" x="704.8635" y="-95.9464" font-family="Helvetica,sans-Serif" font-size="11.00" fill="#000000">2 &gt;</text>
</a>
</g>
</g>
<!-- client_contact&#45;&gt;client -->
<g id="edge8" class="edge">
<title>client_contact:w&#45;&gt;client:e</title>
<path fill="none" stroke="#000000" d="M565.6367,-155.956C548.8859,-140.3643 561.5979,-92.8464 530.4582,-92.8464"/>
<polygon fill="#000000" stroke="#000000" points="571.9164,-158.1779 578.2574,-164.2403 575.6873,-159.5122 579.4582,-160.8464 579.4582,-160.8464 579.4582,-160.8464 575.6873,-159.5122 580.659,-157.4526 571.9164,-158.1779 571.9164,-158.1779"/>
<ellipse fill="none" stroke="#000000" cx="568.8996" cy="-157.1105" rx="3.2" ry="3.2"/>
</g>
<!-- client_contact&#45;&gt;file -->
<g id="edge7" class="edge">
<title>client_contact:w&#45;&gt;file:e</title>
<path fill="none" stroke="#000000" d="M564.7314,-139.0364C491.9345,-140.9601 469.145,-156.8464 389.4582,-156.8464"/>
<polygon fill="#000000" stroke="#000000" points="571.4589,-138.9497 579.5047,-142.4461 575.4585,-138.8981 579.4582,-138.8464 579.4582,-138.8464 579.4582,-138.8464 575.4585,-138.8981 579.4118,-135.2467 571.4589,-138.9497 571.4589,-138.9497"/>
<ellipse fill="none" stroke="#000000" cx="568.2591" cy="-138.991" rx="3.2" ry="3.2"/>
</g>
<!-- client_contact&#45;&gt;principal -->
<g id="edge9" class="edge">
<title>client_contact:w&#45;&gt;principal:e</title>
<path fill="none" stroke="#000000" d="M565.6211,-231.6525C556.2896,-240.0941 555.4617,-257.3084 538.4582,-263.8464 432.6752,-304.5209 395.9817,-277.3706 283.4582,-263.8464 264.8358,-261.6082 261.2146,-253.8464 242.4582,-253.8464"/>
<polygon fill="#000000" stroke="#000000" points="571.9011,-229.4713 580.6394,-230.2471 575.6796,-228.1589 579.4582,-226.8464 579.4582,-226.8464 579.4582,-226.8464 575.6796,-228.1589 578.277,-223.4457 571.9011,-229.4713 571.9011,-229.4713"/>
<ellipse fill="none" stroke="#000000" cx="568.8782" cy="-230.5213" rx="3.2" ry="3.2"/>
</g>
<!-- client_contact&#45;&gt;principal -->
<g id="edge10" class="edge">
<title>client_contact:w&#45;&gt;principal:e</title>
<path fill="none" stroke="#000000" d="M564.7958,-205.0553C494.8755,-207.1133 473.534,-223.9185 397.4582,-234.8464 328.7588,-244.7148 311.8627,-253.8464 242.4582,-253.8464"/>
<polygon fill="#000000" stroke="#000000" points="571.459,-204.9604 579.5095,-208.4461 575.4586,-204.9034 579.4582,-204.8464 579.4582,-204.8464 579.4582,-204.8464 575.4586,-204.9034 579.4069,-201.2468 571.459,-204.9604 571.459,-204.9604"/>
<ellipse fill="none" stroke="#000000" cx="568.2593" cy="-205.006" rx="3.2" ry="3.2"/>
</g>
<!-- job_request -->
<g id="node6" class="node">
<title>job_request</title>
<g id="a_node6"><a xlink:href="../../tables/job_request.html" xlink:title="job_request" target="_top">
<polygon fill="#ffffff" stroke="transparent" points="772.4582,-261.3464 772.4582,-322.3464 872.4582,-322.3464 872.4582,-261.3464 772.4582,-261.3464"/>
<polygon fill="#f5f5f5" stroke="transparent" points="772.4582,-298.8464 772.4582,-321.8464 872.4582,-321.8464 872.4582,-298.8464 772.4582,-298.8464"/>
<polygon fill="none" stroke="#000000" points="772.4582,-298.8464 772.4582,-321.8464 872.4582,-321.8464 872.4582,-298.8464 772.4582,-298.8464"/>
<text text-anchor="start" x="777.2262" y="-307.9464" font-family="Helvetica,sans-Serif" font-weight="bold" font-size="11.00" fill="#000000">job_request</text>
<text text-anchor="start" x="837.9801" y="-306.9464" font-family="Helvetica,sans-Serif" font-size="11.00" fill="#000000">[table]</text>
<polygon fill="none" stroke="#000000" points="772.4582,-279.8464 772.4582,-298.8464 872.4582,-298.8464 872.4582,-279.8464 772.4582,-279.8464"/>
<text text-anchor="start" x="775.4582" y="-285.9464" font-family="Helvetica,sans-Serif" font-size="11.00" fill="#000000">...</text>
<polygon fill="#ffffff" stroke="transparent" points="772.4582,-260.8464 772.4582,-279.8464 800.4582,-279.8464 800.4582,-260.8464 772.4582,-260.8464"/>
<polygon fill="none" stroke="#000000" points="772.4582,-260.8464 772.4582,-279.8464 800.4582,-279.8464 800.4582,-260.8464 772.4582,-260.8464"/>
<text text-anchor="start" x="775.4582" y="-266.9464" font-family="Helvetica,sans-Serif" font-size="11.00" fill="#000000">&lt; 11</text>
<polygon fill="#ffffff" stroke="transparent" points="800.4582,-260.8464 800.4582,-279.8464 850.4582,-279.8464 850.4582,-260.8464 800.4582,-260.8464"/>
<polygon fill="none" stroke="#000000" points="800.4582,-260.8464 800.4582,-279.8464 850.4582,-279.8464 850.4582,-260.8464 800.4582,-260.8464"/>
<text text-anchor="start" x="803.1486" y="-266.9464" font-family="Helvetica,sans-Serif" font-size="11.00" fill="#000000">254 rows</text>
<polygon fill="#ffffff" stroke="transparent" points="850.4582,-260.8464 850.4582,-279.8464 872.4582,-279.8464 872.4582,-260.8464 850.4582,-260.8464"/>
<polygon fill="none" stroke="#000000" points="850.4582,-260.8464 850.4582,-279.8464 872.4582,-279.8464 872.4582,-260.8464 850.4582,-260.8464"/>
<text text-anchor="start" x="853.8635" y="-266.9464" font-family="Helvetica,sans-Serif" font-size="11.00" fill="#000000">7 &gt;</text>
</a>
</g>
</g>
<!-- job_request&#45;&gt;client -->
<g id="edge17" class="edge">
<title>job_request:w&#45;&gt;client:e</title>
<path fill="none" stroke="#000000" d="M758.0146,-287.3611C691.9666,-271.7073 800.2688,-136.4699 731.4582,-79.8464 676.5481,-34.6616 641.7329,-68.9721 571.4582,-79.8464 552.5668,-82.7697 549.5745,-92.8464 530.4582,-92.8464"/>
<polygon fill="#000000" stroke="#000000" points="764.5002,-288.028 772.0899,-292.4275 768.4792,-288.4372 772.4582,-288.8464 772.4582,-288.8464 772.4582,-288.8464 768.4792,-288.4372 772.8265,-285.2653 764.5002,-288.028 764.5002,-288.028"/>
<ellipse fill="none" stroke="#000000" cx="761.317" cy="-287.7006" rx="3.2" ry="3.2"/>
</g>
<!-- job_request&#45;&gt;eworker -->
<g id="edge18" class="edge">
<title>job_request:w&#45;&gt;eworker:e</title>
<path fill="none" stroke="#000000" d="M758.2244,-292.0773C749.5139,-296.7481 744.9482,-305.42 731.4582,-310.8464 625.7121,-353.3831 598.4389,-379.8464 484.4582,-379.8464 484.4582,-379.8464 484.4582,-379.8464 340.4582,-379.8464 316.2085,-379.8464 214.5988,-348.1048 142.4582,-297.8464 120.5263,-282.5671 128.1878,-253.8464 101.4582,-253.8464"/>
<polygon fill="#000000" stroke="#000000" points="764.6567,-290.6173 773.2551,-292.3571 768.5574,-289.7319 772.4582,-288.8464 772.4582,-288.8464 772.4582,-288.8464 768.5574,-289.7319 771.6613,-285.3357 764.6567,-290.6173 764.6567,-290.6173"/>
<ellipse fill="none" stroke="#000000" cx="761.536" cy="-291.3257" rx="3.2" ry="3.2"/>
</g>
<!-- job_request&#45;&gt;eworker -->
<g id="edge20" class="edge">
<title>job_request:w&#45;&gt;eworker:e</title>
<path fill="none" stroke="#000000" d="M758.267,-291.772C749.7598,-295.8046 744.7523,-303.0072 731.4582,-306.8464 587.2527,-348.4919 547.1427,-345.7046 397.4582,-356.8464 346.9313,-360.6074 333.0107,-367.4133 283.4582,-356.8464 216.33,-342.5317 199.2377,-332.4107 142.4582,-293.8464 121.3986,-279.5429 126.916,-253.8464 101.4582,-253.8464"/>
<polygon fill="#000000" stroke="#000000" points="764.623,-290.4617 773.1851,-292.3723 768.5406,-289.6541 772.4582,-288.8464 772.4582,-288.8464 772.4582,-288.8464 768.5406,-289.6541 771.7313,-285.3206 764.623,-290.4617 764.623,-290.4617"/>
<ellipse fill="none" stroke="#000000" cx="761.4889" cy="-291.1078" rx="3.2" ry="3.2"/>
</g>
<!-- job_request&#45;&gt;principal -->
<g id="edge19" class="edge">
<title>job_request:w&#45;&gt;principal:e</title>
<path fill="none" stroke="#000000" d="M757.9314,-289.8666C749.7587,-291.0985 743.7693,-293.0985 731.4582,-293.8464 532.6536,-305.9239 472.0818,-346.8016 283.4582,-282.8464 262.3204,-275.6794 264.778,-253.8464 242.4582,-253.8464"/>
<polygon fill="#000000" stroke="#000000" points="764.4779,-289.4069 772.7104,-292.4376 768.468,-289.1267 772.4582,-288.8464 772.4582,-288.8464 772.4582,-288.8464 768.468,-289.1267 772.206,-285.2553 764.4779,-289.4069 764.4779,-289.4069"/>
<ellipse fill="none" stroke="#000000" cx="761.2857" cy="-289.6311" rx="3.2" ry="3.2"/>
</g>
<!-- job_request&#45;&gt;principal -->
<g id="edge21" class="edge">
<title>job_request:w&#45;&gt;principal:e</title>
<path fill="none" stroke="#000000" d="M757.9679,-289.0505C749.7743,-289.297 743.704,-289.6971 731.4582,-289.8464 532.3019,-292.2748 474.1485,-336.3472 283.4582,-278.8464 263.0244,-272.6848 263.8008,-253.8464 242.4582,-253.8464"/>
<polygon fill="#000000" stroke="#000000" points="764.459,-288.9592 772.5089,-292.4461 768.4586,-288.9028 772.4582,-288.8464 772.4582,-288.8464 772.4582,-288.8464 768.4586,-288.9028 772.4075,-285.2468 764.459,-288.9592 764.459,-288.9592"/>
<ellipse fill="none" stroke="#000000" cx="761.2593" cy="-289.0043" rx="3.2" ry="3.2"/>
</g>
<!-- job_request&#45;&gt;client_contact -->
<g id="edge16" class="edge">
<title>job_request:w&#45;&gt;client_contact:e</title>
<path fill="none" stroke="#000000" d="M758.7219,-284.2579C745.8214,-273.7512 745.6408,-248.8464 723.4582,-248.8464"/>
<polygon fill="#000000" stroke="#000000" points="764.8704,-286.3117 771.3176,-292.261 768.6643,-287.5791 772.4582,-288.8464 772.4582,-288.8464 772.4582,-288.8464 768.6643,-287.5791 773.5988,-285.4319 764.8704,-286.3117 764.8704,-286.3117"/>
<ellipse fill="none" stroke="#000000" cx="761.8352" cy="-285.2979" rx="3.2" ry="3.2"/>
</g>
<!-- presentation -->
<g id="node7" class="node">
<title>presentation</title>
<g id="a_node7"><a xlink:href="../../tables/presentation.html" xlink:title="presentation" target="_top">
<polygon fill="#ffffff" stroke="transparent" points="921.4582,-214.3464 921.4582,-407.3464 1068.4582,-407.3464 1068.4582,-214.3464 921.4582,-214.3464"/>
<polygon fill="#f5f5f5" stroke="transparent" points="921.9582,-383.8464 921.9582,-406.8464 1068.9582,-406.8464 1068.9582,-383.8464 921.9582,-383.8464"/>
<polygon fill="none" stroke="#000000" points="921.9582,-383.8464 921.9582,-406.8464 1068.9582,-406.8464 1068.9582,-383.8464 921.9582,-383.8464"/>
<text text-anchor="start" x="926.9582" y="-392.9464" font-family="Helvetica,sans-Serif" font-weight="bold" font-size="11.00" fill="#000000">presentation</text>
<text text-anchor="start" x="1034.0019" y="-391.9464" font-family="Helvetica,sans-Serif" font-size="11.00" fill="#000000">[table]</text>
<polygon fill="none" stroke="#000000" points="921.9582,-361.8464 921.9582,-383.8464 1068.9582,-383.8464 1068.9582,-361.8464 921.9582,-361.8464"/>
<image xlink:href="../../images/primaryKeys.png" width="11px" height="12px" preserveAspectRatio="xMinYMin meet" x="926.958" y="-378.846"/>
<text text-anchor="start" x="941.9582" y="-368.9464" font-family="Helvetica,sans-Serif" font-size="11.00" fill="#000000">id</text>
<polygon fill="#ffffff" stroke="transparent" points="921.9582,-339.8464 921.9582,-361.8464 1068.9582,-361.8464 1068.9582,-339.8464 921.9582,-339.8464"/>
<polygon fill="none" stroke="#000000" points="921.9582,-339.8464 921.9582,-361.8464 1068.9582,-361.8464 1068.9582,-339.8464 921.9582,-339.8464"/>
<image xlink:href="../../images/foreignKeys.png" width="11px" height="12px" preserveAspectRatio="xMinYMin meet" x="926.958" y="-356.846"/>
<text text-anchor="start" x="941.9582" y="-346.9464" font-family="Helvetica,sans-Serif" font-size="11.00" fill="#000000">created_by</text>
<polygon fill="#ffffff" stroke="transparent" points="921.9582,-317.8464 921.9582,-339.8464 1068.9582,-339.8464 1068.9582,-317.8464 921.9582,-317.8464"/>
<polygon fill="none" stroke="#000000" points="921.9582,-317.8464 921.9582,-339.8464 1068.9582,-339.8464 1068.9582,-317.8464 921.9582,-317.8464"/>
<image xlink:href="../../images/foreignKeys.png" width="11px" height="12px" preserveAspectRatio="xMinYMin meet" x="926.958" y="-334.846"/>
<text text-anchor="start" x="941.9582" y="-324.9464" font-family="Helvetica,sans-Serif" font-size="11.00" fill="#000000">modified_by</text>
<polygon fill="#ffffff" stroke="transparent" points="921.9582,-295.8464 921.9582,-317.8464 1068.9582,-317.8464 1068.9582,-295.8464 921.9582,-295.8464"/>
<polygon fill="none" stroke="#000000" points="921.9582,-295.8464 921.9582,-317.8464 1068.9582,-317.8464 1068.9582,-295.8464 921.9582,-295.8464"/>
<image xlink:href="../../images/foreignKeys.png" width="11px" height="12px" preserveAspectRatio="xMinYMin meet" x="926.958" y="-312.846"/>
<text text-anchor="start" x="941.9582" y="-302.9464" font-family="Helvetica,sans-Serif" font-size="11.00" fill="#000000">job_request_id</text>
<polygon fill="#ffffff" stroke="transparent" points="921.9582,-273.8464 921.9582,-295.8464 1068.9582,-295.8464 1068.9582,-273.8464 921.9582,-273.8464"/>
<polygon fill="none" stroke="#000000" points="921.9582,-273.8464 921.9582,-295.8464 1068.9582,-295.8464 1068.9582,-273.8464 921.9582,-273.8464"/>
<image xlink:href="../../images/foreignKeys.png" width="11px" height="12px" preserveAspectRatio="xMinYMin meet" x="926.958" y="-290.846"/>
<text text-anchor="start" x="941.9582" y="-280.9464" font-family="Helvetica,sans-Serif" font-size="11.00" fill="#000000">presenter_id</text>
<polygon fill="#ffffff" stroke="transparent" points="921.9582,-251.8464 921.9582,-273.8464 1068.9582,-273.8464 1068.9582,-251.8464 921.9582,-251.8464"/>
<polygon fill="none" stroke="#000000" points="921.9582,-251.8464 921.9582,-273.8464 1068.9582,-273.8464 1068.9582,-251.8464 921.9582,-251.8464"/>
<image xlink:href="../../images/foreignKeys.png" width="11px" height="12px" preserveAspectRatio="xMinYMin meet" x="926.958" y="-268.846"/>
<text text-anchor="start" x="941.9582" y="-258.9464" font-family="Helvetica,sans-Serif" font-size="11.00" fill="#000000">recipient_company_id</text>
<polygon fill="none" stroke="#000000" points="921.9582,-232.8464 921.9582,-251.8464 1068.9582,-251.8464 1068.9582,-232.8464 921.9582,-232.8464"/>
<text text-anchor="start" x="924.9582" y="-238.9464" font-family="Helvetica,sans-Serif" font-size="11.00" fill="#000000">...</text>
<polygon fill="#ffffff" stroke="transparent" points="921.9582,-213.8464 921.9582,-232.8464 972.9582,-232.8464 972.9582,-213.8464 921.9582,-213.8464"/>
<polygon fill="none" stroke="#000000" points="921.9582,-213.8464 921.9582,-232.8464 972.9582,-232.8464 972.9582,-213.8464 921.9582,-213.8464"/>
<text text-anchor="start" x="924.9582" y="-219.9464" font-family="Helvetica,sans-Serif" font-size="11.00" fill="#000000">&lt; 5</text>
<polygon fill="#ffffff" stroke="transparent" points="972.9582,-213.8464 972.9582,-232.8464 1031.9582,-232.8464 1031.9582,-213.8464 972.9582,-213.8464"/>
<polygon fill="none" stroke="#000000" points="972.9582,-213.8464 972.9582,-232.8464 1031.9582,-232.8464 1031.9582,-213.8464 972.9582,-213.8464"/>
<text text-anchor="start" x="990.4538" y="-219.9464" font-family="Helvetica,sans-Serif" font-size="11.00" fill="#000000">16 rows</text>
<polygon fill="#ffffff" stroke="transparent" points="1031.9582,-213.8464 1031.9582,-232.8464 1068.9582,-232.8464 1068.9582,-213.8464 1031.9582,-213.8464"/>
<polygon fill="none" stroke="#000000" points="1031.9582,-213.8464 1031.9582,-232.8464 1068.9582,-232.8464 1068.9582,-213.8464 1031.9582,-213.8464"/>
<text text-anchor="start" x="1050.3635" y="-219.9464" font-family="Helvetica,sans-Serif" font-size="11.00" fill="#000000">2 &gt;</text>
</a>
</g>
</g>
<!-- presentation&#45;&gt;client -->
<g id="edge26" class="edge">
<title>presentation:w&#45;&gt;client:e</title>
<path fill="none" stroke="#000000" d="M907.5091,-259.8158C848.6223,-235.9196 784.4557,-78.1739 731.4582,-54.8464 666.373,-26.1984 637.6609,-28.8851 571.4582,-54.8464 548.3279,-63.917 555.3034,-92.8464 530.4582,-92.8464"/>
<polygon fill="#000000" stroke="#000000" points="914.1286,-261.2042 921.2192,-266.3698 918.0434,-262.0253 921.9582,-262.8464 921.9582,-262.8464 921.9582,-262.8464 918.0434,-262.0253 922.6972,-259.3231 914.1286,-261.2042 914.1286,-261.2042"/>
<ellipse fill="none" stroke="#000000" cx="910.9967" cy="-260.5473" rx="3.2" ry="3.2"/>
</g>
<!-- presentation&#45;&gt;eworker -->
<g id="edge25" class="edge">
<title>presentation:w&#45;&gt;eworker:e</title>
<path fill="none" stroke="#000000" d="M907.9953,-288.962C893.9603,-300.2178 902.4316,-331.7431 880.4582,-347.8464 795.1225,-410.3852 757.2565,-412.8464 651.4582,-412.8464 651.4582,-412.8464 651.4582,-412.8464 340.4582,-412.8464 246.1983,-412.8464 212.1146,-400.3517 142.4582,-336.8464 112.0534,-309.1266 142.6023,-253.8464 101.4582,-253.8464"/>
<polygon fill="#000000" stroke="#000000" points="914.2846,-287.1083 922.976,-288.2996 918.1214,-285.9774 921.9582,-284.8464 921.9582,-284.8464 921.9582,-284.8464 918.1214,-285.9774 920.9404,-281.3933 914.2846,-287.1083 914.2846,-287.1083"/>
<ellipse fill="none" stroke="#000000" cx="911.2152" cy="-288.013" rx="3.2" ry="3.2"/>
</g>
<!-- presentation&#45;&gt;principal -->
<g id="edge22" class="edge">
<title>presentation:w&#45;&gt;principal:e</title>
<path fill="none" stroke="#000000" d="M907.9363,-355.054C892.4914,-367.8755 906.3566,-406.573 880.4582,-422.8464 794.044,-477.1454 753.5161,-439.8464 651.4582,-439.8464 651.4582,-439.8464 651.4582,-439.8464 484.4582,-439.8464 387.8081,-439.8464 351.3622,-425.6235 283.4582,-356.8464 248.8415,-321.7846 291.7294,-253.8464 242.4582,-253.8464"/>
<polygon fill="#000000" stroke="#000000" points="914.2957,-353.1457 922.9929,-354.2945 918.127,-351.9961 921.9582,-350.8464 921.9582,-350.8464 921.9582,-350.8464 918.127,-351.9961 920.9235,-347.3983 914.2957,-353.1457 914.2957,-353.1457"/>
<ellipse fill="none" stroke="#000000" cx="911.2308" cy="-354.0655" rx="3.2" ry="3.2"/>
</g>
<!-- presentation&#45;&gt;principal -->
<g id="edge24" class="edge">
<title>presentation:w&#45;&gt;principal:e</title>
<path fill="none" stroke="#000000" d="M907.5509,-329.5104C899.1133,-330.3652 893.0139,-331.8578 880.4582,-332.8464 778.805,-340.8502 753.426,-346.8464 651.4582,-346.8464 651.4582,-346.8464 651.4582,-346.8464 484.4582,-346.8464 393.3731,-346.8464 360.9,-354.797 283.4582,-306.8464 258.1379,-291.1686 272.2393,-253.8464 242.4582,-253.8464"/>
<polygon fill="#000000" stroke="#000000" points="913.9667,-329.2148 922.124,-332.4426 917.9625,-329.0306 921.9582,-328.8464 921.9582,-328.8464 921.9582,-328.8464 917.9625,-329.0306 921.7924,-325.2503 913.9667,-329.2148 913.9667,-329.2148"/>
<ellipse fill="none" stroke="#000000" cx="910.7701" cy="-329.3621" rx="3.2" ry="3.2"/>
</g>
<!-- presentation&#45;&gt;job_request -->
<g id="edge23" class="edge">
<title>presentation:w&#45;&gt;job_request:e</title>
<path fill="none" stroke="#000000" d="M911.5142,-305.434C897.0148,-301.1907 891.8441,-288.8464 872.4582,-288.8464"/>
<polygon fill="#000000" stroke="#000000" points="921.7015,-302.7753 920.6293,-310.7031 919.0438,-310.4887 920.116,-302.5609 921.7015,-302.7753"/>
<polyline fill="none" stroke="#000000" points="921.9582,-306.8464 917.9943,-306.3103 "/>
<ellipse fill="none" stroke="#000000" cx="914.8232" cy="-305.8814" rx="3.2" ry="3.2"/>
</g>
<!-- presentation_job_request_application -->
<g id="node8" class="node">
<title>presentation_job_request_application</title>
<g id="a_node8"><a xlink:href="../../tables/presentation_job_request_application.html" xlink:title="presentation_job_request_application" target="_top">
<polygon fill="#ffffff" stroke="transparent" points="1117.4582,-345.3464 1117.4582,-406.3464 1342.4582,-406.3464 1342.4582,-345.3464 1117.4582,-345.3464"/>
<polygon fill="#f5f5f5" stroke="transparent" points="1117.9582,-382.8464 1117.9582,-405.8464 1342.9582,-405.8464 1342.9582,-382.8464 1117.9582,-382.8464"/>
<polygon fill="none" stroke="#000000" points="1117.9582,-382.8464 1117.9582,-405.8464 1342.9582,-405.8464 1342.9582,-382.8464 1117.9582,-382.8464"/>
<text text-anchor="start" x="1122.5664" y="-391.9464" font-family="Helvetica,sans-Serif" font-weight="bold" font-size="11.00" fill="#000000">presentation_job_request_application</text>
<text text-anchor="start" x="1308.4801" y="-390.9464" font-family="Helvetica,sans-Serif" font-size="11.00" fill="#000000">[table]</text>
<polygon fill="none" stroke="#000000" points="1117.9582,-363.8464 1117.9582,-382.8464 1342.9582,-382.8464 1342.9582,-363.8464 1117.9582,-363.8464"/>
<text text-anchor="start" x="1120.9582" y="-369.9464" font-family="Helvetica,sans-Serif" font-size="11.00" fill="#000000">...</text>
<polygon fill="#ffffff" stroke="transparent" points="1117.9582,-344.8464 1117.9582,-363.8464 1212.9582,-363.8464 1212.9582,-344.8464 1117.9582,-344.8464"/>
<polygon fill="none" stroke="#000000" points="1117.9582,-344.8464 1117.9582,-363.8464 1212.9582,-363.8464 1212.9582,-344.8464 1117.9582,-344.8464"/>
<text text-anchor="start" x="1120.9582" y="-350.9464" font-family="Helvetica,sans-Serif" font-size="11.00" fill="#000000">&lt; 2</text>
<polygon fill="#ffffff" stroke="transparent" points="1212.9582,-344.8464 1212.9582,-363.8464 1293.9582,-363.8464 1293.9582,-344.8464 1212.9582,-344.8464"/>
<polygon fill="none" stroke="#000000" points="1212.9582,-344.8464 1212.9582,-363.8464 1293.9582,-363.8464 1293.9582,-344.8464 1212.9582,-344.8464"/>
<text text-anchor="start" x="1252.4538" y="-350.9464" font-family="Helvetica,sans-Serif" font-size="11.00" fill="#000000">16 rows</text>
<polygon fill="#ffffff" stroke="transparent" points="1293.9582,-344.8464 1293.9582,-363.8464 1342.9582,-363.8464 1342.9582,-344.8464 1293.9582,-344.8464"/>
<polygon fill="none" stroke="#000000" points="1293.9582,-344.8464 1293.9582,-363.8464 1342.9582,-363.8464 1342.9582,-344.8464 1293.9582,-344.8464"/>
<text text-anchor="start" x="1333.8444" y="-350.9464" font-family="Helvetica,sans-Serif" font-size="11.00" fill="#000000"> &#160;</text>
</a>
</g>
</g>
<!-- presentation_job_request_application&#45;&gt;presentation -->
<g id="edge27" class="edge">
<title>presentation_job_request_application:w&#45;&gt;presentation:e</title>
<path fill="none" stroke="#000000" d="M1103.4491,-372.8464C1092.1356,-372.8464 1084.9513,-372.8464 1068.9582,-372.8464"/>
<polygon fill="#000000" stroke="#000000" points="1109.9582,-372.8465 1117.9582,-376.4464 1113.9582,-372.8465 1117.9582,-372.8464 1117.9582,-372.8464 1117.9582,-372.8464 1113.9582,-372.8465 1117.9582,-369.2464 1109.9582,-372.8465 1109.9582,-372.8465"/>
<ellipse fill="none" stroke="#000000" cx="1106.7582" cy="-372.8465" rx="3.2" ry="3.2"/>
</g>
<!-- presentation_recipient -->
<g id="node9" class="node">
<title>presentation_recipient</title>
<g id="a_node9"><a xlink:href="../../tables/presentation_recipient.html" xlink:title="presentation_recipient" target="_top">
<polygon fill="#ffffff" stroke="transparent" points="1128.4582,-97.8464 1128.4582,-187.8464 1331.4582,-187.8464 1331.4582,-97.8464 1128.4582,-97.8464"/>
<polygon fill="#f5f5f5" stroke="transparent" points="1130.9582,-162.8464 1130.9582,-185.8464 1329.9582,-185.8464 1329.9582,-162.8464 1130.9582,-162.8464"/>
<polygon fill="none" stroke="#000000" points="1130.9582,-162.8464 1130.9582,-185.8464 1329.9582,-185.8464 1329.9582,-162.8464 1130.9582,-162.8464"/>
<text text-anchor="start" x="1135.9582" y="-171.9464" font-family="Helvetica,sans-Serif" font-weight="bold" font-size="11.00" fill="#000000">presentation_recipient</text>
<text text-anchor="start" x="1295.0019" y="-170.9464" font-family="Helvetica,sans-Serif" font-size="11.00" fill="#000000">[table]</text>
<polygon fill="#ffffff" stroke="transparent" points="1130.9582,-140.8464 1130.9582,-162.8464 1279.9582,-162.8464 1279.9582,-140.8464 1130.9582,-140.8464"/>
<polygon fill="none" stroke="#000000" points="1130.9582,-140.8464 1130.9582,-162.8464 1279.9582,-162.8464 1279.9582,-140.8464 1130.9582,-140.8464"/>
<image xlink:href="../../images/foreignKeys.png" width="11px" height="12px" preserveAspectRatio="xMinYMin meet" x="1135.96" y="-157.846"/>
<text text-anchor="start" x="1150.9582" y="-147.9464" font-family="Helvetica,sans-Serif" font-size="11.00" fill="#000000">presentation_id</text>
<polygon fill="none" stroke="#000000" points="1279.9582,-140.8464 1279.9582,-162.8464 1329.9582,-162.8464 1329.9582,-140.8464 1279.9582,-140.8464"/>
<text text-anchor="start" x="1282.6447" y="-148.5464" font-family="Helvetica,sans-Serif" font-size="11.00" fill="#000000">bigint[19]</text>
<polygon fill="#ffffff" stroke="transparent" points="1130.9582,-118.8464 1130.9582,-140.8464 1279.9582,-140.8464 1279.9582,-118.8464 1130.9582,-118.8464"/>
<polygon fill="none" stroke="#000000" points="1130.9582,-118.8464 1130.9582,-140.8464 1279.9582,-140.8464 1279.9582,-118.8464 1130.9582,-118.8464"/>
<image xlink:href="../../images/foreignKeys.png" width="11px" height="12px" preserveAspectRatio="xMinYMin meet" x="1135.96" y="-135.846"/>
<text text-anchor="start" x="1150.9582" y="-125.9464" font-family="Helvetica,sans-Serif" font-size="11.00" fill="#000000">recipient_id</text>
<polygon fill="none" stroke="#000000" points="1279.9582,-118.8464 1279.9582,-140.8464 1329.9582,-140.8464 1329.9582,-118.8464 1279.9582,-118.8464"/>
<text text-anchor="start" x="1282.6447" y="-126.5464" font-family="Helvetica,sans-Serif" font-size="11.00" fill="#000000">bigint[19]</text>
<polygon fill="#ffffff" stroke="transparent" points="1130.9582,-99.8464 1130.9582,-118.8464 1193.9582,-118.8464 1193.9582,-99.8464 1130.9582,-99.8464"/>
<polygon fill="none" stroke="#000000" points="1130.9582,-99.8464 1130.9582,-118.8464 1193.9582,-118.8464 1193.9582,-99.8464 1130.9582,-99.8464"/>
<text text-anchor="start" x="1133.9582" y="-105.9464" font-family="Helvetica,sans-Serif" font-size="11.00" fill="#000000">&lt; 2</text>
<polygon fill="#ffffff" stroke="transparent" points="1193.9582,-99.8464 1193.9582,-118.8464 1279.9582,-118.8464 1279.9582,-99.8464 1193.9582,-99.8464"/>
<polygon fill="none" stroke="#000000" points="1193.9582,-99.8464 1193.9582,-118.8464 1279.9582,-118.8464 1279.9582,-99.8464 1193.9582,-99.8464"/>
<text text-anchor="start" x="1238.4538" y="-105.9464" font-family="Helvetica,sans-Serif" font-size="11.00" fill="#000000">16 rows</text>
<polygon fill="#ffffff" stroke="transparent" points="1279.9582,-99.8464 1279.9582,-118.8464 1329.9582,-118.8464 1329.9582,-99.8464 1279.9582,-99.8464"/>
<polygon fill="none" stroke="#000000" points="1279.9582,-99.8464 1279.9582,-118.8464 1329.9582,-118.8464 1329.9582,-99.8464 1279.9582,-99.8464"/>
<text text-anchor="start" x="1311.3635" y="-105.9464" font-family="Helvetica,sans-Serif" font-size="11.00" fill="#000000">0 &gt;</text>
<polygon fill="none" stroke="#000000" stroke-width="2" points="1129.4582,-98.8464 1129.4582,-186.8464 1330.4582,-186.8464 1330.4582,-98.8464 1129.4582,-98.8464"/>
</a>
</g>
</g>
<!-- presentation_recipient&#45;&gt;client_contact -->
<g id="edge29" class="edge">
<title>presentation_recipient:w&#45;&gt;client_contact:e</title>
<path fill="none" stroke="#000000" d="M1116.3585,-130.0903C940.5826,-136.0391 907.1589,-248.8464 723.4582,-248.8464"/>
<polygon fill="#000000" stroke="#000000" points="1122.9593,-129.9801 1131.0184,-133.4459 1126.9588,-129.9133 1130.9582,-129.8464 1130.9582,-129.8464 1130.9582,-129.8464 1126.9588,-129.9133 1130.8981,-126.2469 1122.9593,-129.9801 1122.9593,-129.9801"/>
<ellipse fill="none" stroke="#000000" cx="1119.7598" cy="-130.0335" rx="3.2" ry="3.2"/>
</g>
<!-- presentation_recipient&#45;&gt;presentation -->
<g id="edge28" class="edge">
<title>presentation_recipient:w&#45;&gt;presentation:e</title>
<path fill="none" stroke="#000000" d="M1116.3313,-153.757C1043.7484,-175.3574 1165.3936,-372.8464 1068.9582,-372.8464"/>
<polygon fill="#000000" stroke="#000000" points="1123.0256,-152.8826 1131.4245,-155.4161 1126.9919,-152.3645 1130.9582,-151.8464 1130.9582,-151.8464 1130.9582,-151.8464 1126.9919,-152.3645 1130.4919,-148.2768 1123.0256,-152.8826 1123.0256,-152.8826"/>
<ellipse fill="none" stroke="#000000" cx="1119.8525" cy="-153.2971" rx="3.2" ry="3.2"/>
</g>
</g>
</svg>
