<?xml version="1.0" encoding="UTF-8" standalone="no"?>
<!DOCTYPE svg PUBLIC "-//W3C//DTD SVG 1.1//EN"
 "http://www.w3.org/Graphics/SVG/1.1/DTD/svg11.dtd">
<!-- Generated by graphviz version 2.40.1 (20161225.0304)
 -->
<!-- Title: oneDegreeRelationshipsDiagram Pages: 1 -->
<svg width="423pt" height="457pt"
 viewBox="0.00 0.00 423.00 457.20" xmlns="http://www.w3.org/2000/svg" xmlns:xlink="http://www.w3.org/1999/xlink">
<g id="graph0" class="graph" transform="scale(1 1) rotate(0) translate(4 453.2)">
<title>oneDegreeRelationshipsDiagram</title>
<polygon fill="#ffffff" stroke="transparent" points="-4,4 -4,-453.2 419,-453.2 419,4 -4,4"/>
<text text-anchor="middle" x="72.4936" y="-7.3" font-family="Helvetica,sans-Serif" font-size="11.00" fill="#000000">Generated by SchemaSpy</text>
<!-- presentation_recipient -->
<g id="node1" class="node">
<title>presentation_recipient</title>
<g id="a_node1"><a xlink:href="../../tables/presentation_recipient.html" xlink:title="presentation_recipient" target="_top">
<polygon fill="#ffffff" stroke="transparent" points="204,-260.7 204,-350.7 407,-350.7 407,-260.7 204,-260.7"/>
<polygon fill="#f5f5f5" stroke="transparent" points="206.5,-325.7 206.5,-348.7 405.5,-348.7 405.5,-325.7 206.5,-325.7"/>
<polygon fill="none" stroke="#000000" points="206.5,-325.7 206.5,-348.7 405.5,-348.7 405.5,-325.7 206.5,-325.7"/>
<text text-anchor="start" x="211.5" y="-334.8" font-family="Helvetica,sans-Serif" font-weight="bold" font-size="11.00" fill="#000000">presentation_recipient</text>
<text text-anchor="start" x="370.5437" y="-333.8" font-family="Helvetica,sans-Serif" font-size="11.00" fill="#000000">[table]</text>
<polygon fill="#ffffff" stroke="transparent" points="206.5,-303.7 206.5,-325.7 355.5,-325.7 355.5,-303.7 206.5,-303.7"/>
<polygon fill="none" stroke="#000000" points="206.5,-303.7 206.5,-325.7 355.5,-325.7 355.5,-303.7 206.5,-303.7"/>
<image xlink:href="../../images/foreignKeys.png" width="11px" height="12px" preserveAspectRatio="xMinYMin meet" x="211.5" y="-320.7"/>
<text text-anchor="start" x="226.5" y="-310.8" font-family="Helvetica,sans-Serif" font-size="11.00" fill="#000000">presentation_id</text>
<polygon fill="none" stroke="#000000" points="355.5,-303.7 355.5,-325.7 405.5,-325.7 405.5,-303.7 355.5,-303.7"/>
<text text-anchor="start" x="358.1865" y="-311.4" font-family="Helvetica,sans-Serif" font-size="11.00" fill="#000000">bigint[19]</text>
<polygon fill="#ffffff" stroke="transparent" points="206.5,-281.7 206.5,-303.7 355.5,-303.7 355.5,-281.7 206.5,-281.7"/>
<polygon fill="none" stroke="#000000" points="206.5,-281.7 206.5,-303.7 355.5,-303.7 355.5,-281.7 206.5,-281.7"/>
<image xlink:href="../../images/foreignKeys.png" width="11px" height="12px" preserveAspectRatio="xMinYMin meet" x="211.5" y="-298.7"/>
<text text-anchor="start" x="226.5" y="-288.8" font-family="Helvetica,sans-Serif" font-size="11.00" fill="#000000">recipient_id</text>
<polygon fill="none" stroke="#000000" points="355.5,-281.7 355.5,-303.7 405.5,-303.7 405.5,-281.7 355.5,-281.7"/>
<text text-anchor="start" x="358.1865" y="-289.4" font-family="Helvetica,sans-Serif" font-size="11.00" fill="#000000">bigint[19]</text>
<polygon fill="#ffffff" stroke="transparent" points="206.5,-262.7 206.5,-281.7 269.5,-281.7 269.5,-262.7 206.5,-262.7"/>
<polygon fill="none" stroke="#000000" points="206.5,-262.7 206.5,-281.7 269.5,-281.7 269.5,-262.7 206.5,-262.7"/>
<text text-anchor="start" x="209.5" y="-268.8" font-family="Helvetica,sans-Serif" font-size="11.00" fill="#000000">&lt; 2</text>
<polygon fill="#ffffff" stroke="transparent" points="269.5,-262.7 269.5,-281.7 355.5,-281.7 355.5,-262.7 269.5,-262.7"/>
<polygon fill="none" stroke="#000000" points="269.5,-262.7 269.5,-281.7 355.5,-281.7 355.5,-262.7 269.5,-262.7"/>
<text text-anchor="start" x="313.9956" y="-268.8" font-family="Helvetica,sans-Serif" font-size="11.00" fill="#000000">16 rows</text>
<polygon fill="#ffffff" stroke="transparent" points="355.5,-262.7 355.5,-281.7 405.5,-281.7 405.5,-262.7 355.5,-262.7"/>
<polygon fill="none" stroke="#000000" points="355.5,-262.7 355.5,-281.7 405.5,-281.7 405.5,-262.7 355.5,-262.7"/>
<text text-anchor="start" x="386.9053" y="-268.8" font-family="Helvetica,sans-Serif" font-size="11.00" fill="#000000">0 &gt;</text>
<polygon fill="none" stroke="#000000" stroke-width="2" points="205,-261.7 205,-349.7 406,-349.7 406,-261.7 205,-261.7"/>
</a>
</g>
</g>
<!-- presentation -->
<g id="node2" class="node">
<title>presentation</title>
<g id="a_node2"><a xlink:href="../../tables/presentation.html" xlink:title="presentation" target="_top">
<polygon fill="#ffffff" stroke="transparent" points="8,-252.2 8,-445.2 155,-445.2 155,-252.2 8,-252.2"/>
<polygon fill="#f5f5f5" stroke="transparent" points="8.5,-421.7 8.5,-444.7 155.5,-444.7 155.5,-421.7 8.5,-421.7"/>
<polygon fill="none" stroke="#000000" points="8.5,-421.7 8.5,-444.7 155.5,-444.7 155.5,-421.7 8.5,-421.7"/>
<text text-anchor="start" x="13.5" y="-430.8" font-family="Helvetica,sans-Serif" font-weight="bold" font-size="11.00" fill="#000000">presentation</text>
<text text-anchor="start" x="120.5437" y="-429.8" font-family="Helvetica,sans-Serif" font-size="11.00" fill="#000000">[table]</text>
<polygon fill="none" stroke="#000000" points="8.5,-399.7 8.5,-421.7 155.5,-421.7 155.5,-399.7 8.5,-399.7"/>
<image xlink:href="../../images/primaryKeys.png" width="11px" height="12px" preserveAspectRatio="xMinYMin meet" x="13.5" y="-416.7"/>
<text text-anchor="start" x="28.5" y="-406.8" font-family="Helvetica,sans-Serif" font-size="11.00" fill="#000000">id</text>
<polygon fill="#ffffff" stroke="transparent" points="8.5,-377.7 8.5,-399.7 155.5,-399.7 155.5,-377.7 8.5,-377.7"/>
<polygon fill="none" stroke="#000000" points="8.5,-377.7 8.5,-399.7 155.5,-399.7 155.5,-377.7 8.5,-377.7"/>
<image xlink:href="../../images/foreignKeys.png" width="11px" height="12px" preserveAspectRatio="xMinYMin meet" x="13.5" y="-394.7"/>
<text text-anchor="start" x="28.5" y="-384.8" font-family="Helvetica,sans-Serif" font-size="11.00" fill="#000000">created_by</text>
<polygon fill="#ffffff" stroke="transparent" points="8.5,-355.7 8.5,-377.7 155.5,-377.7 155.5,-355.7 8.5,-355.7"/>
<polygon fill="none" stroke="#000000" points="8.5,-355.7 8.5,-377.7 155.5,-377.7 155.5,-355.7 8.5,-355.7"/>
<image xlink:href="../../images/foreignKeys.png" width="11px" height="12px" preserveAspectRatio="xMinYMin meet" x="13.5" y="-372.7"/>
<text text-anchor="start" x="28.5" y="-362.8" font-family="Helvetica,sans-Serif" font-size="11.00" fill="#000000">modified_by</text>
<polygon fill="#ffffff" stroke="transparent" points="8.5,-333.7 8.5,-355.7 155.5,-355.7 155.5,-333.7 8.5,-333.7"/>
<polygon fill="none" stroke="#000000" points="8.5,-333.7 8.5,-355.7 155.5,-355.7 155.5,-333.7 8.5,-333.7"/>
<image xlink:href="../../images/foreignKeys.png" width="11px" height="12px" preserveAspectRatio="xMinYMin meet" x="13.5" y="-350.7"/>
<text text-anchor="start" x="28.5" y="-340.8" font-family="Helvetica,sans-Serif" font-size="11.00" fill="#000000">job_request_id</text>
<polygon fill="#ffffff" stroke="transparent" points="8.5,-311.7 8.5,-333.7 155.5,-333.7 155.5,-311.7 8.5,-311.7"/>
<polygon fill="none" stroke="#000000" points="8.5,-311.7 8.5,-333.7 155.5,-333.7 155.5,-311.7 8.5,-311.7"/>
<image xlink:href="../../images/foreignKeys.png" width="11px" height="12px" preserveAspectRatio="xMinYMin meet" x="13.5" y="-328.7"/>
<text text-anchor="start" x="28.5" y="-318.8" font-family="Helvetica,sans-Serif" font-size="11.00" fill="#000000">presenter_id</text>
<polygon fill="#ffffff" stroke="transparent" points="8.5,-289.7 8.5,-311.7 155.5,-311.7 155.5,-289.7 8.5,-289.7"/>
<polygon fill="none" stroke="#000000" points="8.5,-289.7 8.5,-311.7 155.5,-311.7 155.5,-289.7 8.5,-289.7"/>
<image xlink:href="../../images/foreignKeys.png" width="11px" height="12px" preserveAspectRatio="xMinYMin meet" x="13.5" y="-306.7"/>
<text text-anchor="start" x="28.5" y="-296.8" font-family="Helvetica,sans-Serif" font-size="11.00" fill="#000000">recipient_company_id</text>
<polygon fill="none" stroke="#000000" points="8.5,-270.7 8.5,-289.7 155.5,-289.7 155.5,-270.7 8.5,-270.7"/>
<text text-anchor="start" x="11.5" y="-276.8" font-family="Helvetica,sans-Serif" font-size="11.00" fill="#000000">...</text>
<polygon fill="#ffffff" stroke="transparent" points="8.5,-251.7 8.5,-270.7 59.5,-270.7 59.5,-251.7 8.5,-251.7"/>
<polygon fill="none" stroke="#000000" points="8.5,-251.7 8.5,-270.7 59.5,-270.7 59.5,-251.7 8.5,-251.7"/>
<text text-anchor="start" x="11.5" y="-257.8" font-family="Helvetica,sans-Serif" font-size="11.00" fill="#000000">&lt; 5</text>
<polygon fill="#ffffff" stroke="transparent" points="59.5,-251.7 59.5,-270.7 118.5,-270.7 118.5,-251.7 59.5,-251.7"/>
<polygon fill="none" stroke="#000000" points="59.5,-251.7 59.5,-270.7 118.5,-270.7 118.5,-251.7 59.5,-251.7"/>
<text text-anchor="start" x="76.9956" y="-257.8" font-family="Helvetica,sans-Serif" font-size="11.00" fill="#000000">16 rows</text>
<polygon fill="#ffffff" stroke="transparent" points="118.5,-251.7 118.5,-270.7 155.5,-270.7 155.5,-251.7 118.5,-251.7"/>
<polygon fill="none" stroke="#000000" points="118.5,-251.7 118.5,-270.7 155.5,-270.7 155.5,-251.7 118.5,-251.7"/>
<text text-anchor="start" x="136.9053" y="-257.8" font-family="Helvetica,sans-Serif" font-size="11.00" fill="#000000">2 &gt;</text>
</a>
</g>
</g>
<!-- presentation_recipient&#45;&gt;presentation -->
<g id="edge1" class="edge">
<title>presentation_recipient:w&#45;&gt;presentation:e</title>
<path fill="none" stroke="#000000" d="M192.4189,-318.825C168.1253,-337.2 197.7746,-410.7 155.5,-410.7"/>
<polygon fill="#000000" stroke="#000000" points="198.8226,-316.9491 207.5121,-318.1548 202.6613,-315.8245 206.5,-314.7 206.5,-314.7 206.5,-314.7 202.6613,-315.8245 205.4879,-311.2452 198.8226,-316.9491 198.8226,-316.9491"/>
<ellipse fill="none" stroke="#000000" cx="195.7517" cy="-317.8487" rx="3.2" ry="3.2"/>
</g>
<!-- client_contact -->
<g id="node3" class="node">
<title>client_contact</title>
<g id="a_node3"><a xlink:href="../../tables/client_contact.html" xlink:title="client_contact" target="_top">
<polygon fill="#ffffff" stroke="transparent" points="9.5,-38.2 9.5,-231.2 153.5,-231.2 153.5,-38.2 9.5,-38.2"/>
<polygon fill="#f5f5f5" stroke="transparent" points="9.5,-207.7 9.5,-230.7 153.5,-230.7 153.5,-207.7 9.5,-207.7"/>
<polygon fill="none" stroke="#000000" points="9.5,-207.7 9.5,-230.7 153.5,-230.7 153.5,-207.7 9.5,-207.7"/>
<text text-anchor="start" x="14.5" y="-216.8" font-family="Helvetica,sans-Serif" font-weight="bold" font-size="11.00" fill="#000000">client_contact</text>
<text text-anchor="start" x="118.5437" y="-215.8" font-family="Helvetica,sans-Serif" font-size="11.00" fill="#000000">[table]</text>
<polygon fill="none" stroke="#000000" points="9.5,-185.7 9.5,-207.7 153.5,-207.7 153.5,-185.7 9.5,-185.7"/>
<image xlink:href="../../images/primaryKeys.png" width="11px" height="12px" preserveAspectRatio="xMinYMin meet" x="14.5" y="-202.7"/>
<text text-anchor="start" x="29.5" y="-192.8" font-family="Helvetica,sans-Serif" font-size="11.00" fill="#000000">id</text>
<polygon fill="#ffffff" stroke="transparent" points="9.5,-163.7 9.5,-185.7 153.5,-185.7 153.5,-163.7 9.5,-163.7"/>
<polygon fill="none" stroke="#000000" points="9.5,-163.7 9.5,-185.7 153.5,-185.7 153.5,-163.7 9.5,-163.7"/>
<image xlink:href="../../images/foreignKeys.png" width="11px" height="12px" preserveAspectRatio="xMinYMin meet" x="14.5" y="-180.7"/>
<text text-anchor="start" x="29.5" y="-170.8" font-family="Helvetica,sans-Serif" font-size="11.00" fill="#000000">created_by</text>
<polygon fill="#ffffff" stroke="transparent" points="9.5,-141.7 9.5,-163.7 153.5,-163.7 153.5,-141.7 9.5,-141.7"/>
<polygon fill="none" stroke="#000000" points="9.5,-141.7 9.5,-163.7 153.5,-163.7 153.5,-141.7 9.5,-141.7"/>
<image xlink:href="../../images/foreignKeys.png" width="11px" height="12px" preserveAspectRatio="xMinYMin meet" x="14.5" y="-158.7"/>
<text text-anchor="start" x="29.5" y="-148.8" font-family="Helvetica,sans-Serif" font-size="11.00" fill="#000000">modified_by</text>
<polygon fill="#ffffff" stroke="transparent" points="9.5,-119.7 9.5,-141.7 153.5,-141.7 153.5,-119.7 9.5,-119.7"/>
<polygon fill="none" stroke="#000000" points="9.5,-119.7 9.5,-141.7 153.5,-141.7 153.5,-119.7 9.5,-119.7"/>
<text text-anchor="start" x="29.5" y="-126.8" font-family="Helvetica,sans-Serif" font-size="11.00" fill="#000000">email</text>
<polygon fill="#ffffff" stroke="transparent" points="9.5,-97.7 9.5,-119.7 153.5,-119.7 153.5,-97.7 9.5,-97.7"/>
<polygon fill="none" stroke="#000000" points="9.5,-97.7 9.5,-119.7 153.5,-119.7 153.5,-97.7 9.5,-97.7"/>
<image xlink:href="../../images/foreignKeys.png" width="11px" height="12px" preserveAspectRatio="xMinYMin meet" x="14.5" y="-114.7"/>
<text text-anchor="start" x="29.5" y="-104.8" font-family="Helvetica,sans-Serif" font-size="11.00" fill="#000000">client_id</text>
<polygon fill="#ffffff" stroke="transparent" points="9.5,-75.7 9.5,-97.7 153.5,-97.7 153.5,-75.7 9.5,-75.7"/>
<polygon fill="none" stroke="#000000" points="9.5,-75.7 9.5,-97.7 153.5,-97.7 153.5,-75.7 9.5,-75.7"/>
<image xlink:href="../../images/foreignKeys.png" width="11px" height="12px" preserveAspectRatio="xMinYMin meet" x="14.5" y="-92.7"/>
<text text-anchor="start" x="29.5" y="-82.8" font-family="Helvetica,sans-Serif" font-size="11.00" fill="#000000">avatar_id</text>
<polygon fill="none" stroke="#000000" points="9.5,-56.7 9.5,-75.7 153.5,-75.7 153.5,-56.7 9.5,-56.7"/>
<text text-anchor="start" x="12.5" y="-62.8" font-family="Helvetica,sans-Serif" font-size="11.00" fill="#000000">...</text>
<polygon fill="#ffffff" stroke="transparent" points="9.5,-37.7 9.5,-56.7 56.5,-56.7 56.5,-37.7 9.5,-37.7"/>
<polygon fill="none" stroke="#000000" points="9.5,-37.7 9.5,-56.7 56.5,-56.7 56.5,-37.7 9.5,-37.7"/>
<text text-anchor="start" x="12.5" y="-43.8" font-family="Helvetica,sans-Serif" font-size="11.00" fill="#000000">&lt; 4</text>
<polygon fill="#ffffff" stroke="transparent" points="56.5,-37.7 56.5,-56.7 119.5,-56.7 119.5,-37.7 56.5,-37.7"/>
<polygon fill="none" stroke="#000000" points="56.5,-37.7 56.5,-56.7 119.5,-56.7 119.5,-37.7 56.5,-37.7"/>
<text text-anchor="start" x="71.8807" y="-43.8" font-family="Helvetica,sans-Serif" font-size="11.00" fill="#000000">561 rows</text>
<polygon fill="#ffffff" stroke="transparent" points="119.5,-37.7 119.5,-56.7 153.5,-56.7 153.5,-37.7 119.5,-37.7"/>
<polygon fill="none" stroke="#000000" points="119.5,-37.7 119.5,-56.7 153.5,-56.7 153.5,-37.7 119.5,-37.7"/>
<text text-anchor="start" x="134.9053" y="-43.8" font-family="Helvetica,sans-Serif" font-size="11.00" fill="#000000">2 &gt;</text>
</a>
</g>
</g>
<!-- presentation_recipient&#45;&gt;client_contact -->
<g id="edge2" class="edge">
<title>presentation_recipient:w&#45;&gt;client_contact:e</title>
<path fill="none" stroke="#000000" d="M192.5642,-288.8178C167.1672,-270.8577 196.3354,-196.7 153.5,-196.7"/>
<polygon fill="#000000" stroke="#000000" points="198.7934,-290.5531 205.5339,-296.1679 202.6467,-291.6265 206.5,-292.7 206.5,-292.7 206.5,-292.7 202.6467,-291.6265 207.4661,-289.2321 198.7934,-290.5531 198.7934,-290.5531"/>
<ellipse fill="none" stroke="#000000" cx="195.7108" cy="-289.6943" rx="3.2" ry="3.2"/>
</g>
</g>
</svg>
