<?xml version="1.0" encoding="UTF-8" standalone="no"?>
<!DOCTYPE svg PUBLIC "-//W3C//DTD SVG 1.1//EN"
 "http://www.w3.org/Graphics/SVG/1.1/DTD/svg11.dtd">
<!-- Generated by graphviz version 2.40.1 (20161225.0304)
 -->
<!-- Title: oneDegreeRelationshipsDiagram Pages: 1 -->
<svg width="1313pt" height="728pt"
 viewBox="0.00 0.00 1312.63 728.15" xmlns="http://www.w3.org/2000/svg" xmlns:xlink="http://www.w3.org/1999/xlink">
<g id="graph0" class="graph" transform="scale(1 1) rotate(0) translate(4 724.1506)">
<title>oneDegreeRelationshipsDiagram</title>
<polygon fill="#ffffff" stroke="transparent" points="-4,4 -4,-724.1506 1308.634,-724.1506 1308.634,4 -4,4"/>
<text text-anchor="middle" x="72.4936" y="-7.3" font-family="Helvetica,sans-Serif" font-size="11.00" fill="#000000">Generated by SchemaSpy</text>
<!-- client -->
<g id="node1" class="node">
<title>client</title>
<g id="a_node1"><a xlink:href="../../tables/client.html" xlink:title="client" target="_top">
<polygon fill="#ffffff" stroke="transparent" points="327.634,-104.6506 327.634,-473.6506 528.634,-473.6506 528.634,-104.6506 327.634,-104.6506"/>
<polygon fill="#f5f5f5" stroke="transparent" points="328.134,-450.1506 328.134,-473.1506 529.134,-473.1506 529.134,-450.1506 328.134,-450.1506"/>
<polygon fill="none" stroke="#000000" points="328.134,-450.1506 328.134,-473.1506 529.134,-473.1506 529.134,-450.1506 328.134,-450.1506"/>
<text text-anchor="start" x="333.134" y="-459.2506" font-family="Helvetica,sans-Serif" font-weight="bold" font-size="11.00" fill="#000000">client</text>
<text text-anchor="start" x="494.1777" y="-458.2506" font-family="Helvetica,sans-Serif" font-size="11.00" fill="#000000">[table]</text>
<polygon fill="none" stroke="#000000" points="328.134,-428.1506 328.134,-450.1506 529.134,-450.1506 529.134,-428.1506 328.134,-428.1506"/>
<image xlink:href="../../images/primaryKeys.png" width="11px" height="12px" preserveAspectRatio="xMinYMin meet" x="333.134" y="-445.151"/>
<text text-anchor="start" x="348.134" y="-435.2506" font-family="Helvetica,sans-Serif" font-size="11.00" fill="#000000">id</text>
<polygon fill="#ffffff" stroke="transparent" points="328.134,-406.1506 328.134,-428.1506 529.134,-428.1506 529.134,-406.1506 328.134,-406.1506"/>
<polygon fill="none" stroke="#000000" points="328.134,-406.1506 328.134,-428.1506 529.134,-428.1506 529.134,-406.1506 328.134,-406.1506"/>
<image xlink:href="../../images/foreignKeys.png" width="11px" height="12px" preserveAspectRatio="xMinYMin meet" x="333.134" y="-423.151"/>
<text text-anchor="start" x="348.134" y="-413.2506" font-family="Helvetica,sans-Serif" font-size="11.00" fill="#000000">created_by</text>
<polygon fill="#ffffff" stroke="transparent" points="328.134,-384.1506 328.134,-406.1506 529.134,-406.1506 529.134,-384.1506 328.134,-384.1506"/>
<polygon fill="none" stroke="#000000" points="328.134,-384.1506 328.134,-406.1506 529.134,-406.1506 529.134,-384.1506 328.134,-384.1506"/>
<image xlink:href="../../images/foreignKeys.png" width="11px" height="12px" preserveAspectRatio="xMinYMin meet" x="333.134" y="-401.151"/>
<text text-anchor="start" x="348.134" y="-391.2506" font-family="Helvetica,sans-Serif" font-size="11.00" fill="#000000">modified_by</text>
<polygon fill="#ffffff" stroke="transparent" points="328.134,-362.1506 328.134,-384.1506 529.134,-384.1506 529.134,-362.1506 328.134,-362.1506"/>
<polygon fill="none" stroke="#000000" points="328.134,-362.1506 328.134,-384.1506 529.134,-384.1506 529.134,-362.1506 328.134,-362.1506"/>
<text text-anchor="start" x="348.134" y="-369.2506" font-family="Helvetica,sans-Serif" font-size="11.00" fill="#000000">marketplace_id</text>
<polygon fill="#ffffff" stroke="transparent" points="328.134,-340.1506 328.134,-362.1506 529.134,-362.1506 529.134,-340.1506 328.134,-340.1506"/>
<polygon fill="none" stroke="#000000" points="328.134,-340.1506 328.134,-362.1506 529.134,-362.1506 529.134,-340.1506 328.134,-340.1506"/>
<text text-anchor="start" x="348.134" y="-347.2506" font-family="Helvetica,sans-Serif" font-size="11.00" fill="#000000">name</text>
<polygon fill="#ffffff" stroke="transparent" points="328.134,-318.1506 328.134,-340.1506 529.134,-340.1506 529.134,-318.1506 328.134,-318.1506"/>
<polygon fill="none" stroke="#000000" points="328.134,-318.1506 328.134,-340.1506 529.134,-340.1506 529.134,-318.1506 328.134,-318.1506"/>
<text text-anchor="start" x="348.134" y="-325.2506" font-family="Helvetica,sans-Serif" font-size="11.00" fill="#000000">organizational_number</text>
<polygon fill="#ffffff" stroke="transparent" points="328.134,-296.1506 328.134,-318.1506 529.134,-318.1506 529.134,-296.1506 328.134,-296.1506"/>
<polygon fill="none" stroke="#000000" points="328.134,-296.1506 328.134,-318.1506 529.134,-318.1506 529.134,-296.1506 328.134,-296.1506"/>
<text text-anchor="start" x="348.134" y="-303.2506" font-family="Helvetica,sans-Serif" font-size="11.00" fill="#000000">vat_number</text>
<polygon fill="#ffffff" stroke="transparent" points="328.134,-274.1506 328.134,-296.1506 529.134,-296.1506 529.134,-274.1506 328.134,-274.1506"/>
<polygon fill="none" stroke="#000000" points="328.134,-274.1506 328.134,-296.1506 529.134,-296.1506 529.134,-274.1506 328.134,-274.1506"/>
<image xlink:href="../../images/foreignKeys.png" width="11px" height="12px" preserveAspectRatio="xMinYMin meet" x="333.134" y="-291.151"/>
<text text-anchor="start" x="348.134" y="-281.2506" font-family="Helvetica,sans-Serif" font-size="11.00" fill="#000000">client_group_id</text>
<polygon fill="#ffffff" stroke="transparent" points="328.134,-252.1506 328.134,-274.1506 529.134,-274.1506 529.134,-252.1506 328.134,-252.1506"/>
<polygon fill="none" stroke="#000000" points="328.134,-252.1506 328.134,-274.1506 529.134,-274.1506 529.134,-252.1506 328.134,-252.1506"/>
<image xlink:href="../../images/foreignKeys.png" width="11px" height="12px" preserveAspectRatio="xMinYMin meet" x="333.134" y="-269.151"/>
<text text-anchor="start" x="348.134" y="-259.2506" font-family="Helvetica,sans-Serif" font-size="11.00" fill="#000000">client_operations_developer_id</text>
<polygon fill="#ffffff" stroke="transparent" points="328.134,-230.1506 328.134,-252.1506 529.134,-252.1506 529.134,-230.1506 328.134,-230.1506"/>
<polygon fill="none" stroke="#000000" points="328.134,-230.1506 328.134,-252.1506 529.134,-252.1506 529.134,-230.1506 328.134,-230.1506"/>
<image xlink:href="../../images/foreignKeys.png" width="11px" height="12px" preserveAspectRatio="xMinYMin meet" x="333.134" y="-247.151"/>
<text text-anchor="start" x="348.134" y="-237.2506" font-family="Helvetica,sans-Serif" font-size="11.00" fill="#000000">responsible_bo_partner_id</text>
<polygon fill="#ffffff" stroke="transparent" points="328.134,-208.1506 328.134,-230.1506 529.134,-230.1506 529.134,-208.1506 328.134,-208.1506"/>
<polygon fill="none" stroke="#000000" points="328.134,-208.1506 328.134,-230.1506 529.134,-230.1506 529.134,-208.1506 328.134,-208.1506"/>
<image xlink:href="../../images/foreignKeys.png" width="11px" height="12px" preserveAspectRatio="xMinYMin meet" x="333.134" y="-225.151"/>
<text text-anchor="start" x="348.134" y="-215.2506" font-family="Helvetica,sans-Serif" font-size="11.00" fill="#000000">client_responsible_id</text>
<polygon fill="#ffffff" stroke="transparent" points="328.134,-186.1506 328.134,-208.1506 529.134,-208.1506 529.134,-186.1506 328.134,-186.1506"/>
<polygon fill="none" stroke="#000000" points="328.134,-186.1506 328.134,-208.1506 529.134,-208.1506 529.134,-186.1506 328.134,-186.1506"/>
<image xlink:href="../../images/foreignKeys.png" width="11px" height="12px" preserveAspectRatio="xMinYMin meet" x="333.134" y="-203.151"/>
<text text-anchor="start" x="348.134" y="-193.2506" font-family="Helvetica,sans-Serif" font-size="11.00" fill="#000000">responsible_bo_team_id</text>
<polygon fill="#ffffff" stroke="transparent" points="328.134,-164.1506 328.134,-186.1506 529.134,-186.1506 529.134,-164.1506 328.134,-164.1506"/>
<polygon fill="none" stroke="#000000" points="328.134,-164.1506 328.134,-186.1506 529.134,-186.1506 529.134,-164.1506 328.134,-164.1506"/>
<image xlink:href="../../images/foreignKeys.png" width="11px" height="12px" preserveAspectRatio="xMinYMin meet" x="333.134" y="-181.151"/>
<text text-anchor="start" x="348.134" y="-171.2506" font-family="Helvetica,sans-Serif" font-size="11.00" fill="#000000">responsible_co_team_id</text>
<polygon fill="#ffffff" stroke="transparent" points="328.134,-142.1506 328.134,-164.1506 529.134,-164.1506 529.134,-142.1506 328.134,-142.1506"/>
<polygon fill="none" stroke="#000000" points="328.134,-142.1506 328.134,-164.1506 529.134,-164.1506 529.134,-142.1506 328.134,-142.1506"/>
<image xlink:href="../../images/foreignKeys.png" width="11px" height="12px" preserveAspectRatio="xMinYMin meet" x="333.134" y="-159.151"/>
<text text-anchor="start" x="348.134" y="-149.2506" font-family="Helvetica,sans-Serif" font-size="11.00" fill="#000000">avatar_id</text>
<polygon fill="none" stroke="#000000" points="328.134,-123.1506 328.134,-142.1506 529.134,-142.1506 529.134,-123.1506 328.134,-123.1506"/>
<text text-anchor="start" x="331.134" y="-129.2506" font-family="Helvetica,sans-Serif" font-size="11.00" fill="#000000">...</text>
<polygon fill="#ffffff" stroke="transparent" points="328.134,-104.1506 328.134,-123.1506 403.134,-123.1506 403.134,-104.1506 328.134,-104.1506"/>
<polygon fill="none" stroke="#000000" points="328.134,-104.1506 328.134,-123.1506 403.134,-123.1506 403.134,-104.1506 328.134,-104.1506"/>
<text text-anchor="start" x="331.134" y="-110.2506" font-family="Helvetica,sans-Serif" font-size="11.00" fill="#000000">&lt; 9</text>
<polygon fill="#ffffff" stroke="transparent" points="403.134,-104.1506 403.134,-123.1506 480.134,-123.1506 480.134,-104.1506 403.134,-104.1506"/>
<polygon fill="none" stroke="#000000" points="403.134,-104.1506 403.134,-123.1506 480.134,-123.1506 480.134,-104.1506 403.134,-104.1506"/>
<text text-anchor="start" x="432.5147" y="-110.2506" font-family="Helvetica,sans-Serif" font-size="11.00" fill="#000000">647 rows</text>
<polygon fill="#ffffff" stroke="transparent" points="480.134,-104.1506 480.134,-123.1506 529.134,-123.1506 529.134,-104.1506 480.134,-104.1506"/>
<polygon fill="none" stroke="#000000" points="480.134,-104.1506 480.134,-123.1506 529.134,-123.1506 529.134,-104.1506 480.134,-104.1506"/>
<text text-anchor="start" x="510.5393" y="-110.2506" font-family="Helvetica,sans-Serif" font-size="11.00" fill="#000000">7 &gt;</text>
</a>
</g>
</g>
<!-- eworker -->
<g id="node2" class="node">
<title>eworker</title>
<g id="a_node2"><a xlink:href="../../tables/eworker.html" xlink:title="eworker" target="_top">
<polygon fill="#ffffff" stroke="transparent" points="155.634,-104.6506 155.634,-297.6506 278.634,-297.6506 278.634,-104.6506 155.634,-104.6506"/>
<polygon fill="#f5f5f5" stroke="transparent" points="156.134,-274.1506 156.134,-297.1506 279.134,-297.1506 279.134,-274.1506 156.134,-274.1506"/>
<polygon fill="none" stroke="#000000" points="156.134,-274.1506 156.134,-297.1506 279.134,-297.1506 279.134,-274.1506 156.134,-274.1506"/>
<text text-anchor="start" x="161.134" y="-283.2506" font-family="Helvetica,sans-Serif" font-weight="bold" font-size="11.00" fill="#000000">eworker</text>
<text text-anchor="start" x="244.1777" y="-282.2506" font-family="Helvetica,sans-Serif" font-size="11.00" fill="#000000">[table]</text>
<polygon fill="none" stroke="#000000" points="156.134,-252.1506 156.134,-274.1506 279.134,-274.1506 279.134,-252.1506 156.134,-252.1506"/>
<image xlink:href="../../images/primaryKeys.png" width="11px" height="12px" preserveAspectRatio="xMinYMin meet" x="161.134" y="-269.151"/>
<text text-anchor="start" x="176.134" y="-259.2506" font-family="Helvetica,sans-Serif" font-size="11.00" fill="#000000">id</text>
<polygon fill="#ffffff" stroke="transparent" points="156.134,-230.1506 156.134,-252.1506 279.134,-252.1506 279.134,-230.1506 156.134,-230.1506"/>
<polygon fill="none" stroke="#000000" points="156.134,-230.1506 156.134,-252.1506 279.134,-252.1506 279.134,-230.1506 156.134,-230.1506"/>
<image xlink:href="../../images/foreignKeys.png" width="11px" height="12px" preserveAspectRatio="xMinYMin meet" x="161.134" y="-247.151"/>
<text text-anchor="start" x="176.134" y="-237.2506" font-family="Helvetica,sans-Serif" font-size="11.00" fill="#000000">created_by</text>
<polygon fill="#ffffff" stroke="transparent" points="156.134,-208.1506 156.134,-230.1506 279.134,-230.1506 279.134,-208.1506 156.134,-208.1506"/>
<polygon fill="none" stroke="#000000" points="156.134,-208.1506 156.134,-230.1506 279.134,-230.1506 279.134,-208.1506 156.134,-208.1506"/>
<image xlink:href="../../images/foreignKeys.png" width="11px" height="12px" preserveAspectRatio="xMinYMin meet" x="161.134" y="-225.151"/>
<text text-anchor="start" x="176.134" y="-215.2506" font-family="Helvetica,sans-Serif" font-size="11.00" fill="#000000">modified_by</text>
<polygon fill="#ffffff" stroke="transparent" points="156.134,-186.1506 156.134,-208.1506 279.134,-208.1506 279.134,-186.1506 156.134,-186.1506"/>
<polygon fill="none" stroke="#000000" points="156.134,-186.1506 156.134,-208.1506 279.134,-208.1506 279.134,-186.1506 156.134,-186.1506"/>
<text text-anchor="start" x="176.134" y="-193.2506" font-family="Helvetica,sans-Serif" font-size="11.00" fill="#000000">email</text>
<polygon fill="#ffffff" stroke="transparent" points="156.134,-164.1506 156.134,-186.1506 279.134,-186.1506 279.134,-164.1506 156.134,-164.1506"/>
<polygon fill="none" stroke="#000000" points="156.134,-164.1506 156.134,-186.1506 279.134,-186.1506 279.134,-164.1506 156.134,-164.1506"/>
<image xlink:href="../../images/foreignKeys.png" width="11px" height="12px" preserveAspectRatio="xMinYMin meet" x="161.134" y="-181.151"/>
<text text-anchor="start" x="176.134" y="-171.2506" font-family="Helvetica,sans-Serif" font-size="11.00" fill="#000000">avatar_id</text>
<polygon fill="#ffffff" stroke="transparent" points="156.134,-142.1506 156.134,-164.1506 279.134,-164.1506 279.134,-142.1506 156.134,-142.1506"/>
<polygon fill="none" stroke="#000000" points="156.134,-142.1506 156.134,-164.1506 279.134,-164.1506 279.134,-142.1506 156.134,-142.1506"/>
<image xlink:href="../../images/foreignKeys.png" width="11px" height="12px" preserveAspectRatio="xMinYMin meet" x="161.134" y="-159.151"/>
<text text-anchor="start" x="176.134" y="-149.2506" font-family="Helvetica,sans-Serif" font-size="11.00" fill="#000000">unit_id</text>
<polygon fill="none" stroke="#000000" points="156.134,-123.1506 156.134,-142.1506 279.134,-142.1506 279.134,-123.1506 156.134,-123.1506"/>
<text text-anchor="start" x="159.134" y="-129.2506" font-family="Helvetica,sans-Serif" font-size="11.00" fill="#000000">...</text>
<polygon fill="#ffffff" stroke="transparent" points="156.134,-104.1506 156.134,-123.1506 192.134,-123.1506 192.134,-104.1506 156.134,-104.1506"/>
<polygon fill="none" stroke="#000000" points="156.134,-104.1506 156.134,-123.1506 192.134,-123.1506 192.134,-104.1506 156.134,-104.1506"/>
<text text-anchor="start" x="159.134" y="-110.2506" font-family="Helvetica,sans-Serif" font-size="11.00" fill="#000000">&lt; 4</text>
<polygon fill="#ffffff" stroke="transparent" points="192.134,-104.1506 192.134,-123.1506 250.134,-123.1506 250.134,-104.1506 192.134,-104.1506"/>
<polygon fill="none" stroke="#000000" points="192.134,-104.1506 192.134,-123.1506 250.134,-123.1506 250.134,-104.1506 192.134,-104.1506"/>
<text text-anchor="start" x="202.5147" y="-110.2506" font-family="Helvetica,sans-Serif" font-size="11.00" fill="#000000">347 rows</text>
<polygon fill="#ffffff" stroke="transparent" points="250.134,-104.1506 250.134,-123.1506 279.134,-123.1506 279.134,-104.1506 250.134,-104.1506"/>
<polygon fill="none" stroke="#000000" points="250.134,-104.1506 250.134,-123.1506 279.134,-123.1506 279.134,-104.1506 250.134,-104.1506"/>
<text text-anchor="start" x="260.5393" y="-110.2506" font-family="Helvetica,sans-Serif" font-size="11.00" fill="#000000">9 &gt;</text>
</a>
</g>
</g>
<!-- client&#45;&gt;eworker -->
<g id="edge1" class="edge">
<title>client:w&#45;&gt;eworker:e</title>
<path fill="none" stroke="#000000" d="M313.6249,-263.1506C302.3114,-263.1506 295.127,-263.1506 279.134,-263.1506"/>
<polygon fill="#000000" stroke="#000000" points="320.134,-263.1507 328.134,-266.7506 324.134,-263.1506 328.134,-263.1506 328.134,-263.1506 328.134,-263.1506 324.134,-263.1506 328.134,-259.5506 320.134,-263.1507 320.134,-263.1507"/>
<ellipse fill="none" stroke="#000000" cx="316.934" cy="-263.1507" rx="3.2" ry="3.2"/>
</g>
<!-- client&#45;&gt;eworker -->
<g id="edge2" class="edge">
<title>client:w&#45;&gt;eworker:e</title>
<path fill="none" stroke="#000000" d="M314.4511,-223.8594C301.1385,-235.2102 302.458,-263.1506 279.134,-263.1506"/>
<polygon fill="#000000" stroke="#000000" points="320.5694,-221.7539 329.3055,-222.5547 324.3517,-220.4523 328.134,-219.1506 328.134,-219.1506 328.134,-219.1506 324.3517,-220.4523 326.9625,-215.7465 320.5694,-221.7539 320.5694,-221.7539"/>
<ellipse fill="none" stroke="#000000" cx="317.5436" cy="-222.7952" rx="3.2" ry="3.2"/>
</g>
<!-- client&#45;&gt;eworker -->
<g id="edge5" class="edge">
<title>client:w&#45;&gt;eworker:e</title>
<path fill="none" stroke="#000000" d="M313.7637,-244.5881C302.2205,-250.7756 297.0381,-263.1506 279.134,-263.1506"/>
<polygon fill="#000000" stroke="#000000" points="320.3535,-243.0118 328.9715,-244.6518 324.2437,-242.0812 328.134,-241.1506 328.134,-241.1506 328.134,-241.1506 324.2437,-242.0812 327.2964,-237.6494 320.3535,-243.0118 320.3535,-243.0118"/>
<ellipse fill="none" stroke="#000000" cx="317.2413" cy="-243.7563" rx="3.2" ry="3.2"/>
</g>
<!-- principal -->
<g id="node3" class="node">
<title>principal</title>
<g id="a_node3"><a xlink:href="../../tables/principal.html" xlink:title="principal" target="_top">
<polygon fill="#ffffff" stroke="transparent" points="14.634,-351.6506 14.634,-456.6506 106.634,-456.6506 106.634,-351.6506 14.634,-351.6506"/>
<polygon fill="#f5f5f5" stroke="transparent" points="14.634,-433.1506 14.634,-456.1506 106.634,-456.1506 106.634,-433.1506 14.634,-433.1506"/>
<polygon fill="none" stroke="#000000" points="14.634,-433.1506 14.634,-456.1506 106.634,-456.1506 106.634,-433.1506 14.634,-433.1506"/>
<text text-anchor="start" x="19.634" y="-442.2506" font-family="Helvetica,sans-Serif" font-weight="bold" font-size="11.00" fill="#000000">principal</text>
<text text-anchor="start" x="71.6777" y="-441.2506" font-family="Helvetica,sans-Serif" font-size="11.00" fill="#000000">[table]</text>
<polygon fill="none" stroke="#000000" points="14.634,-411.1506 14.634,-433.1506 106.634,-433.1506 106.634,-411.1506 14.634,-411.1506"/>
<image xlink:href="../../images/primaryKeys.png" width="11px" height="12px" preserveAspectRatio="xMinYMin meet" x="19.634" y="-428.151"/>
<text text-anchor="start" x="38.634" y="-418.2506" font-family="Helvetica,sans-Serif" font-size="11.00" fill="#000000">id</text>
<polygon fill="#ffffff" stroke="transparent" points="14.634,-389.1506 14.634,-411.1506 106.634,-411.1506 106.634,-389.1506 14.634,-389.1506"/>
<polygon fill="none" stroke="#000000" points="14.634,-389.1506 14.634,-411.1506 106.634,-411.1506 106.634,-389.1506 14.634,-389.1506"/>
<image xlink:href="../../images/foreignKeys.png" width="11px" height="12px" preserveAspectRatio="xMinYMin meet" x="19.634" y="-406.151"/>
<text text-anchor="start" x="38.634" y="-396.2506" font-family="Helvetica,sans-Serif" font-size="11.00" fill="#000000">eworker_id</text>
<polygon fill="none" stroke="#000000" points="14.634,-370.1506 14.634,-389.1506 106.634,-389.1506 106.634,-370.1506 14.634,-370.1506"/>
<text text-anchor="start" x="17.634" y="-376.2506" font-family="Helvetica,sans-Serif" font-size="11.00" fill="#000000">...</text>
<polygon fill="#ffffff" stroke="transparent" points="14.634,-351.1506 14.634,-370.1506 35.634,-370.1506 35.634,-351.1506 14.634,-351.1506"/>
<polygon fill="none" stroke="#000000" points="14.634,-351.1506 14.634,-370.1506 35.634,-370.1506 35.634,-351.1506 14.634,-351.1506"/>
<text text-anchor="start" x="17.3366" y="-357.2506" font-family="Helvetica,sans-Serif" font-size="11.00" fill="#000000">&lt; 1</text>
<polygon fill="#ffffff" stroke="transparent" points="35.634,-351.1506 35.634,-370.1506 79.634,-370.1506 79.634,-351.1506 35.634,-351.1506"/>
<polygon fill="none" stroke="#000000" points="35.634,-351.1506 35.634,-370.1506 79.634,-370.1506 79.634,-351.1506 35.634,-351.1506"/>
<text text-anchor="start" x="38.3818" y="-357.2506" font-family="Helvetica,sans-Serif" font-size="11.00" fill="#000000">18 rows</text>
<polygon fill="#ffffff" stroke="transparent" points="79.634,-351.1506 79.634,-370.1506 106.634,-370.1506 106.634,-351.1506 79.634,-351.1506"/>
<polygon fill="none" stroke="#000000" points="79.634,-351.1506 79.634,-370.1506 106.634,-370.1506 106.634,-351.1506 79.634,-351.1506"/>
<text text-anchor="start" x="82.2792" y="-357.2506" font-family="Helvetica,sans-Serif" font-size="11.00" fill="#000000">56 &gt;</text>
</a>
</g>
</g>
<!-- client&#45;&gt;principal -->
<g id="edge3" class="edge">
<title>client:w&#45;&gt;principal:e</title>
<path fill="none" stroke="#000000" d="M313.6852,-417.188C226.9794,-417.6455 200.1031,-422.1506 106.634,-422.1506"/>
<polygon fill="#000000" stroke="#000000" points="320.134,-417.1714 328.1433,-420.7506 324.134,-417.161 328.134,-417.1506 328.134,-417.1506 328.134,-417.1506 324.134,-417.161 328.1247,-413.5506 320.134,-417.1714 320.134,-417.1714"/>
<ellipse fill="none" stroke="#000000" cx="316.934" cy="-417.1797" rx="3.2" ry="3.2"/>
</g>
<!-- client&#45;&gt;principal -->
<g id="edge4" class="edge">
<title>client:w&#45;&gt;principal:e</title>
<path fill="none" stroke="#000000" d="M313.6839,-395.2517C244.7036,-396.2552 222.5651,-404.612 147.634,-415.1506 129.3283,-417.7252 125.1199,-422.1506 106.634,-422.1506"/>
<polygon fill="#000000" stroke="#000000" points="320.1342,-395.2066 328.1592,-398.7505 324.1341,-395.1786 328.134,-395.1506 328.134,-395.1506 328.134,-395.1506 324.1341,-395.1786 328.1088,-391.5507 320.1342,-395.2066 320.1342,-395.2066"/>
<ellipse fill="none" stroke="#000000" cx="316.9343" cy="-395.2291" rx="3.2" ry="3.2"/>
</g>
<!-- eworker&#45;&gt;principal -->
<g id="edge6" class="edge">
<title>eworker:w&#45;&gt;principal:e</title>
<path fill="none" stroke="#000000" d="M141.7161,-243.5724C87.8343,-265.0509 184.3314,-422.1506 106.634,-422.1506"/>
<polygon fill="#000000" stroke="#000000" points="148.2445,-242.4759 156.7304,-244.7009 152.1893,-241.8132 156.134,-241.1506 156.134,-241.1506 156.134,-241.1506 152.1893,-241.8132 155.5376,-237.6004 148.2445,-242.4759 148.2445,-242.4759"/>
<ellipse fill="none" stroke="#000000" cx="145.0887" cy="-243.006" rx="3.2" ry="3.2"/>
</g>
<!-- eworker&#45;&gt;principal -->
<g id="edge7" class="edge">
<title>eworker:w&#45;&gt;principal:e</title>
<path fill="none" stroke="#000000" d="M141.6837,-221.293C78.9252,-242.9885 193.877,-422.1506 106.634,-422.1506"/>
<polygon fill="#000000" stroke="#000000" points="148.2205,-220.3239 156.662,-222.7117 152.1772,-219.7373 156.134,-219.1506 156.134,-219.1506 156.134,-219.1506 152.1772,-219.7373 155.606,-215.5895 148.2205,-220.3239 148.2205,-220.3239"/>
<ellipse fill="none" stroke="#000000" cx="145.0551" cy="-220.7933" rx="3.2" ry="3.2"/>
</g>
<!-- principal&#45;&gt;eworker -->
<g id="edge20" class="edge">
<title>principal:w&#45;&gt;eworker:e</title>
<path fill="none" stroke="#000000" d="M1.9017,-393.0738C-3.4923,-381.9916 3.8389,-360.4852 14.634,-347.6506 91.4385,-256.336 202.3295,-392.9652 279.134,-301.6506 290.1481,-288.5556 296.2451,-263.1506 279.134,-263.1506"/>
<polygon fill="#000000" stroke="#000000" points="7.6415,-396.2641 12.885,-403.2972 11.1377,-398.2073 14.634,-400.1506 14.634,-400.1506 14.634,-400.1506 11.1377,-398.2073 16.3829,-397.004 7.6415,-396.2641 7.6415,-396.2641"/>
<ellipse fill="none" stroke="#000000" cx="4.8445" cy="-394.7094" rx="3.2" ry="3.2"/>
</g>
<!-- job_request -->
<g id="node4" class="node">
<title>job_request</title>
<g id="a_node4"><a xlink:href="../../tables/job_request.html" xlink:title="job_request" target="_top">
<polygon fill="#ffffff" stroke="transparent" points="577.634,-229.6506 577.634,-554.6506 743.634,-554.6506 743.634,-229.6506 577.634,-229.6506"/>
<polygon fill="#f5f5f5" stroke="transparent" points="577.634,-531.1506 577.634,-554.1506 743.634,-554.1506 743.634,-531.1506 577.634,-531.1506"/>
<polygon fill="none" stroke="#000000" points="577.634,-531.1506 577.634,-554.1506 743.634,-554.1506 743.634,-531.1506 577.634,-531.1506"/>
<text text-anchor="start" x="582.634" y="-540.2506" font-family="Helvetica,sans-Serif" font-weight="bold" font-size="11.00" fill="#000000">job_request</text>
<text text-anchor="start" x="708.6777" y="-539.2506" font-family="Helvetica,sans-Serif" font-size="11.00" fill="#000000">[table]</text>
<polygon fill="none" stroke="#000000" points="577.634,-509.1506 577.634,-531.1506 743.634,-531.1506 743.634,-509.1506 577.634,-509.1506"/>
<image xlink:href="../../images/primaryKeys.png" width="11px" height="12px" preserveAspectRatio="xMinYMin meet" x="582.634" y="-526.151"/>
<text text-anchor="start" x="597.634" y="-516.2506" font-family="Helvetica,sans-Serif" font-size="11.00" fill="#000000">id</text>
<polygon fill="#ffffff" stroke="transparent" points="577.634,-487.1506 577.634,-509.1506 743.634,-509.1506 743.634,-487.1506 577.634,-487.1506"/>
<polygon fill="none" stroke="#000000" points="577.634,-487.1506 577.634,-509.1506 743.634,-509.1506 743.634,-487.1506 577.634,-487.1506"/>
<image xlink:href="../../images/foreignKeys.png" width="11px" height="12px" preserveAspectRatio="xMinYMin meet" x="582.634" y="-504.151"/>
<text text-anchor="start" x="597.634" y="-494.2506" font-family="Helvetica,sans-Serif" font-size="11.00" fill="#000000">created_by</text>
<polygon fill="#ffffff" stroke="transparent" points="577.634,-465.1506 577.634,-487.1506 743.634,-487.1506 743.634,-465.1506 577.634,-465.1506"/>
<polygon fill="none" stroke="#000000" points="577.634,-465.1506 577.634,-487.1506 743.634,-487.1506 743.634,-465.1506 577.634,-465.1506"/>
<image xlink:href="../../images/foreignKeys.png" width="11px" height="12px" preserveAspectRatio="xMinYMin meet" x="582.634" y="-482.151"/>
<text text-anchor="start" x="597.634" y="-472.2506" font-family="Helvetica,sans-Serif" font-size="11.00" fill="#000000">modified_by</text>
<polygon fill="#ffffff" stroke="transparent" points="577.634,-443.1506 577.634,-465.1506 743.634,-465.1506 743.634,-443.1506 577.634,-443.1506"/>
<polygon fill="none" stroke="#000000" points="577.634,-443.1506 577.634,-465.1506 743.634,-465.1506 743.634,-443.1506 577.634,-443.1506"/>
<image xlink:href="../../images/foreignKeys.png" width="11px" height="12px" preserveAspectRatio="xMinYMin meet" x="582.634" y="-460.151"/>
<text text-anchor="start" x="597.634" y="-450.2506" font-family="Helvetica,sans-Serif" font-size="11.00" fill="#000000">location_id</text>
<polygon fill="#ffffff" stroke="transparent" points="577.634,-421.1506 577.634,-443.1506 743.634,-443.1506 743.634,-421.1506 577.634,-421.1506"/>
<polygon fill="none" stroke="#000000" points="577.634,-421.1506 577.634,-443.1506 743.634,-443.1506 743.634,-421.1506 577.634,-421.1506"/>
<image xlink:href="../../images/foreignKeys.png" width="11px" height="12px" preserveAspectRatio="xMinYMin meet" x="582.634" y="-438.151"/>
<text text-anchor="start" x="597.634" y="-428.2506" font-family="Helvetica,sans-Serif" font-size="11.00" fill="#000000">rate_card_id</text>
<polygon fill="#ffffff" stroke="transparent" points="577.634,-399.1506 577.634,-421.1506 743.634,-421.1506 743.634,-399.1506 577.634,-399.1506"/>
<polygon fill="none" stroke="#000000" points="577.634,-399.1506 577.634,-421.1506 743.634,-421.1506 743.634,-399.1506 577.634,-399.1506"/>
<image xlink:href="../../images/foreignKeys.png" width="11px" height="12px" preserveAspectRatio="xMinYMin meet" x="582.634" y="-416.151"/>
<text text-anchor="start" x="597.634" y="-406.2506" font-family="Helvetica,sans-Serif" font-size="11.00" fill="#000000">source_job_request_id</text>
<polygon fill="#ffffff" stroke="transparent" points="577.634,-377.1506 577.634,-399.1506 743.634,-399.1506 743.634,-377.1506 577.634,-377.1506"/>
<polygon fill="none" stroke="#000000" points="577.634,-377.1506 577.634,-399.1506 743.634,-399.1506 743.634,-377.1506 577.634,-377.1506"/>
<image xlink:href="../../images/foreignKeys.png" width="11px" height="12px" preserveAspectRatio="xMinYMin meet" x="582.634" y="-394.151"/>
<text text-anchor="start" x="597.634" y="-384.2506" font-family="Helvetica,sans-Serif" font-size="11.00" fill="#000000">eworker_id</text>
<polygon fill="#ffffff" stroke="transparent" points="577.634,-355.1506 577.634,-377.1506 743.634,-377.1506 743.634,-355.1506 577.634,-355.1506"/>
<polygon fill="none" stroke="#000000" points="577.634,-355.1506 577.634,-377.1506 743.634,-377.1506 743.634,-355.1506 577.634,-355.1506"/>
<image xlink:href="../../images/foreignKeys.png" width="11px" height="12px" preserveAspectRatio="xMinYMin meet" x="582.634" y="-372.151"/>
<text text-anchor="start" x="597.634" y="-362.2506" font-family="Helvetica,sans-Serif" font-size="11.00" fill="#000000">unit_id</text>
<polygon fill="#ffffff" stroke="transparent" points="577.634,-333.1506 577.634,-355.1506 743.634,-355.1506 743.634,-333.1506 577.634,-333.1506"/>
<polygon fill="none" stroke="#000000" points="577.634,-333.1506 577.634,-355.1506 743.634,-355.1506 743.634,-333.1506 577.634,-333.1506"/>
<image xlink:href="../../images/foreignKeys.png" width="11px" height="12px" preserveAspectRatio="xMinYMin meet" x="582.634" y="-350.151"/>
<text text-anchor="start" x="597.634" y="-340.2506" font-family="Helvetica,sans-Serif" font-size="11.00" fill="#000000">closed_eworker_id</text>
<polygon fill="#ffffff" stroke="transparent" points="577.634,-311.1506 577.634,-333.1506 743.634,-333.1506 743.634,-311.1506 577.634,-311.1506"/>
<polygon fill="none" stroke="#000000" points="577.634,-311.1506 577.634,-333.1506 743.634,-333.1506 743.634,-311.1506 577.634,-311.1506"/>
<image xlink:href="../../images/foreignKeys.png" width="11px" height="12px" preserveAspectRatio="xMinYMin meet" x="582.634" y="-328.151"/>
<text text-anchor="start" x="597.634" y="-318.2506" font-family="Helvetica,sans-Serif" font-size="11.00" fill="#000000">client_contact_id</text>
<polygon fill="#ffffff" stroke="transparent" points="577.634,-289.1506 577.634,-311.1506 743.634,-311.1506 743.634,-289.1506 577.634,-289.1506"/>
<polygon fill="none" stroke="#000000" points="577.634,-289.1506 577.634,-311.1506 743.634,-311.1506 743.634,-289.1506 577.634,-289.1506"/>
<image xlink:href="../../images/foreignKeys.png" width="11px" height="12px" preserveAspectRatio="xMinYMin meet" x="582.634" y="-306.151"/>
<text text-anchor="start" x="597.634" y="-296.2506" font-family="Helvetica,sans-Serif" font-size="11.00" fill="#000000">client_id</text>
<polygon fill="#ffffff" stroke="transparent" points="577.634,-267.1506 577.634,-289.1506 743.634,-289.1506 743.634,-267.1506 577.634,-267.1506"/>
<polygon fill="none" stroke="#000000" points="577.634,-267.1506 577.634,-289.1506 743.634,-289.1506 743.634,-267.1506 577.634,-267.1506"/>
<image xlink:href="../../images/foreignKeys.png" width="11px" height="12px" preserveAspectRatio="xMinYMin meet" x="582.634" y="-284.151"/>
<text text-anchor="start" x="597.634" y="-274.2506" font-family="Helvetica,sans-Serif" font-size="11.00" fill="#000000">role_id</text>
<polygon fill="none" stroke="#000000" points="577.634,-248.1506 577.634,-267.1506 743.634,-267.1506 743.634,-248.1506 577.634,-248.1506"/>
<text text-anchor="start" x="580.634" y="-254.2506" font-family="Helvetica,sans-Serif" font-size="11.00" fill="#000000">...</text>
<polygon fill="#ffffff" stroke="transparent" points="577.634,-229.1506 577.634,-248.1506 638.634,-248.1506 638.634,-229.1506 577.634,-229.1506"/>
<polygon fill="none" stroke="#000000" points="577.634,-229.1506 577.634,-248.1506 638.634,-248.1506 638.634,-229.1506 577.634,-229.1506"/>
<text text-anchor="start" x="580.634" y="-235.2506" font-family="Helvetica,sans-Serif" font-size="11.00" fill="#000000">&lt; 11</text>
<polygon fill="#ffffff" stroke="transparent" points="638.634,-229.1506 638.634,-248.1506 705.634,-248.1506 705.634,-229.1506 638.634,-229.1506"/>
<polygon fill="none" stroke="#000000" points="638.634,-229.1506 638.634,-248.1506 705.634,-248.1506 705.634,-229.1506 638.634,-229.1506"/>
<text text-anchor="start" x="658.0147" y="-235.2506" font-family="Helvetica,sans-Serif" font-size="11.00" fill="#000000">254 rows</text>
<polygon fill="#ffffff" stroke="transparent" points="705.634,-229.1506 705.634,-248.1506 743.634,-248.1506 743.634,-229.1506 705.634,-229.1506"/>
<polygon fill="none" stroke="#000000" points="705.634,-229.1506 705.634,-248.1506 743.634,-248.1506 743.634,-229.1506 705.634,-229.1506"/>
<text text-anchor="start" x="725.0393" y="-235.2506" font-family="Helvetica,sans-Serif" font-size="11.00" fill="#000000">7 &gt;</text>
</a>
</g>
</g>
<!-- job_request&#45;&gt;client -->
<g id="edge8" class="edge">
<title>job_request:w&#45;&gt;client:e</title>
<path fill="none" stroke="#000000" d="M563.363,-303.315C525.8098,-324.0052 588.6859,-439.1506 529.134,-439.1506"/>
<polygon fill="#000000" stroke="#000000" points="569.8237,-301.8825 578.4133,-303.6653 573.7288,-301.0165 577.634,-300.1506 577.634,-300.1506 577.634,-300.1506 573.7288,-301.0165 576.8547,-296.636 569.8237,-301.8825 569.8237,-301.8825"/>
<ellipse fill="none" stroke="#000000" cx="566.6996" cy="-302.5752" rx="3.2" ry="3.2"/>
</g>
<!-- job_request&#45;&gt;eworker -->
<g id="edge9" class="edge">
<title>job_request:w&#45;&gt;eworker:e</title>
<path fill="none" stroke="#000000" d="M564.2157,-338.4046C531.7405,-304.1297 575.3527,-127.0367 536.634,-94.1506 499.88,-62.9333 357.4976,-64.2888 319.634,-94.1506 258.9876,-141.9805 356.3718,-263.1506 279.134,-263.1506"/>
<polygon fill="#000000" stroke="#000000" points="570.2799,-341.0014 576.2168,-347.46 573.9569,-342.576 577.634,-344.1506 577.634,-344.1506 577.634,-344.1506 573.9569,-342.576 579.0511,-340.8413 570.2799,-341.0014 570.2799,-341.0014"/>
<ellipse fill="none" stroke="#000000" cx="567.3383" cy="-339.7417" rx="3.2" ry="3.2"/>
</g>
<!-- job_request&#45;&gt;eworker -->
<g id="edge11" class="edge">
<title>job_request:w&#45;&gt;eworker:e</title>
<path fill="none" stroke="#000000" d="M563.5318,-391.6078C541.4951,-406.0686 570.2083,-461.9815 536.634,-484.1506 496.3928,-510.7218 356.6782,-515.0231 319.634,-484.1506 242.9233,-420.2203 378.9919,-263.1506 279.134,-263.1506"/>
<polygon fill="#000000" stroke="#000000" points="569.8641,-390.0554 578.4912,-391.6471 573.749,-389.103 577.634,-388.1506 577.634,-388.1506 577.634,-388.1506 573.749,-389.103 576.7768,-384.6541 569.8641,-390.0554 569.8641,-390.0554"/>
<ellipse fill="none" stroke="#000000" cx="566.7561" cy="-390.8174" rx="3.2" ry="3.2"/>
</g>
<!-- job_request&#45;&gt;principal -->
<g id="edge10" class="edge">
<title>job_request:w&#45;&gt;principal:e</title>
<path fill="none" stroke="#000000" d="M563.7969,-502.9567C554.4654,-511.3983 553.6375,-528.6126 536.634,-535.1506 455.9485,-566.1748 218.4202,-584.7687 147.634,-535.1506 103.8855,-504.4848 160.0598,-422.1506 106.634,-422.1506"/>
<polygon fill="#000000" stroke="#000000" points="570.0769,-500.7755 578.8152,-501.5513 573.8554,-499.4631 577.634,-498.1506 577.634,-498.1506 577.634,-498.1506 573.8554,-499.4631 576.4528,-494.7499 570.0769,-500.7755 570.0769,-500.7755"/>
<ellipse fill="none" stroke="#000000" cx="567.054" cy="-501.8255" rx="3.2" ry="3.2"/>
</g>
<!-- job_request&#45;&gt;principal -->
<g id="edge12" class="edge">
<title>job_request:w&#45;&gt;principal:e</title>
<path fill="none" stroke="#000000" d="M563.7066,-480.4385C554.9392,-487.0529 551.7876,-499.4699 536.634,-504.1506 444.4853,-532.6139 414.4549,-521.7722 319.634,-504.1506 269.768,-494.8835 157.3537,-422.1506 106.634,-422.1506"/>
<polygon fill="#000000" stroke="#000000" points="569.9881,-478.5046 578.6933,-479.5912 573.8111,-477.3276 577.634,-476.1506 577.634,-476.1506 577.634,-476.1506 573.8111,-477.3276 576.5747,-472.71 569.9881,-478.5046 569.9881,-478.5046"/>
<ellipse fill="none" stroke="#000000" cx="566.9298" cy="-479.4462" rx="3.2" ry="3.2"/>
</g>
<!-- presentation -->
<g id="node5" class="node">
<title>presentation</title>
<g id="a_node5"><a xlink:href="../../tables/presentation.html" xlink:title="presentation" target="_top">
<polygon fill="#ffffff" stroke="transparent" points="792.634,-288.1506 792.634,-664.1506 1010.634,-664.1506 1010.634,-288.1506 792.634,-288.1506"/>
<polygon fill="#f5f5f5" stroke="transparent" points="794.634,-639.1506 794.634,-662.1506 1008.634,-662.1506 1008.634,-639.1506 794.634,-639.1506"/>
<polygon fill="none" stroke="#000000" points="794.634,-639.1506 794.634,-662.1506 1008.634,-662.1506 1008.634,-639.1506 794.634,-639.1506"/>
<text text-anchor="start" x="799.634" y="-648.2506" font-family="Helvetica,sans-Serif" font-weight="bold" font-size="11.00" fill="#000000">presentation</text>
<text text-anchor="start" x="973.6777" y="-647.2506" font-family="Helvetica,sans-Serif" font-size="11.00" fill="#000000">[table]</text>
<polygon fill="none" stroke="#000000" points="794.634,-617.1506 794.634,-639.1506 941.634,-639.1506 941.634,-617.1506 794.634,-617.1506"/>
<image xlink:href="../../images/primaryKeys.png" width="11px" height="12px" preserveAspectRatio="xMinYMin meet" x="799.634" y="-634.151"/>
<text text-anchor="start" x="814.634" y="-624.2506" font-family="Helvetica,sans-Serif" font-size="11.00" fill="#000000">id</text>
<polygon fill="none" stroke="#000000" points="941.634,-617.1506 941.634,-639.1506 1008.634,-639.1506 1008.634,-617.1506 941.634,-617.1506"/>
<text text-anchor="start" x="944.634" y="-624.8506" font-family="Helvetica,sans-Serif" font-size="11.00" fill="#000000">bigint[19]</text>
<polygon fill="#ffffff" stroke="transparent" points="794.634,-595.1506 794.634,-617.1506 941.634,-617.1506 941.634,-595.1506 794.634,-595.1506"/>
<polygon fill="none" stroke="#000000" points="794.634,-595.1506 794.634,-617.1506 941.634,-617.1506 941.634,-595.1506 794.634,-595.1506"/>
<image xlink:href="../../images/foreignKeys.png" width="11px" height="12px" preserveAspectRatio="xMinYMin meet" x="799.634" y="-612.151"/>
<text text-anchor="start" x="814.634" y="-602.2506" font-family="Helvetica,sans-Serif" font-size="11.00" fill="#000000">created_by</text>
<polygon fill="none" stroke="#000000" points="941.634,-595.1506 941.634,-617.1506 1008.634,-617.1506 1008.634,-595.1506 941.634,-595.1506"/>
<text text-anchor="start" x="944.634" y="-602.8506" font-family="Helvetica,sans-Serif" font-size="11.00" fill="#000000">bigint[19]</text>
<polygon fill="none" stroke="#000000" points="794.634,-573.1506 794.634,-595.1506 941.634,-595.1506 941.634,-573.1506 794.634,-573.1506"/>
<text text-anchor="start" x="814.634" y="-580.2506" font-family="Helvetica,sans-Serif" font-size="11.00" fill="#000000">creation_date</text>
<polygon fill="none" stroke="#000000" points="941.634,-573.1506 941.634,-595.1506 1008.634,-595.1506 1008.634,-573.1506 941.634,-573.1506"/>
<text text-anchor="start" x="944.634" y="-580.8506" font-family="Helvetica,sans-Serif" font-size="11.00" fill="#000000">datetime[26]</text>
<polygon fill="none" stroke="#000000" points="794.634,-551.1506 794.634,-573.1506 941.634,-573.1506 941.634,-551.1506 794.634,-551.1506"/>
<text text-anchor="start" x="814.634" y="-558.2506" font-family="Helvetica,sans-Serif" font-size="11.00" fill="#000000">modification_date</text>
<polygon fill="none" stroke="#000000" points="941.634,-551.1506 941.634,-573.1506 1008.634,-573.1506 1008.634,-551.1506 941.634,-551.1506"/>
<text text-anchor="start" x="944.634" y="-558.8506" font-family="Helvetica,sans-Serif" font-size="11.00" fill="#000000">datetime[26]</text>
<polygon fill="#ffffff" stroke="transparent" points="794.634,-529.1506 794.634,-551.1506 941.634,-551.1506 941.634,-529.1506 794.634,-529.1506"/>
<polygon fill="none" stroke="#000000" points="794.634,-529.1506 794.634,-551.1506 941.634,-551.1506 941.634,-529.1506 794.634,-529.1506"/>
<image xlink:href="../../images/foreignKeys.png" width="11px" height="12px" preserveAspectRatio="xMinYMin meet" x="799.634" y="-546.151"/>
<text text-anchor="start" x="814.634" y="-536.2506" font-family="Helvetica,sans-Serif" font-size="11.00" fill="#000000">modified_by</text>
<polygon fill="none" stroke="#000000" points="941.634,-529.1506 941.634,-551.1506 1008.634,-551.1506 1008.634,-529.1506 941.634,-529.1506"/>
<text text-anchor="start" x="944.634" y="-536.8506" font-family="Helvetica,sans-Serif" font-size="11.00" fill="#000000">bigint[19]</text>
<polygon fill="#ffffff" stroke="transparent" points="794.634,-507.1506 794.634,-529.1506 941.634,-529.1506 941.634,-507.1506 794.634,-507.1506"/>
<polygon fill="none" stroke="#000000" points="794.634,-507.1506 794.634,-529.1506 941.634,-529.1506 941.634,-507.1506 794.634,-507.1506"/>
<image xlink:href="../../images/foreignKeys.png" width="11px" height="12px" preserveAspectRatio="xMinYMin meet" x="799.634" y="-524.151"/>
<text text-anchor="start" x="814.634" y="-514.2506" font-family="Helvetica,sans-Serif" font-size="11.00" fill="#000000">job_request_id</text>
<polygon fill="none" stroke="#000000" points="941.634,-507.1506 941.634,-529.1506 1008.634,-529.1506 1008.634,-507.1506 941.634,-507.1506"/>
<text text-anchor="start" x="944.634" y="-514.8506" font-family="Helvetica,sans-Serif" font-size="11.00" fill="#000000">bigint[19]</text>
<polygon fill="none" stroke="#000000" points="794.634,-485.1506 794.634,-507.1506 941.634,-507.1506 941.634,-485.1506 794.634,-485.1506"/>
<text text-anchor="start" x="814.634" y="-492.2506" font-family="Helvetica,sans-Serif" font-size="11.00" fill="#000000">title</text>
<polygon fill="none" stroke="#000000" points="941.634,-485.1506 941.634,-507.1506 1008.634,-507.1506 1008.634,-485.1506 941.634,-485.1506"/>
<text text-anchor="start" x="944.5705" y="-492.8506" font-family="Helvetica,sans-Serif" font-size="11.00" fill="#000000">varchar[255]</text>
<polygon fill="#ffffff" stroke="transparent" points="794.634,-463.1506 794.634,-485.1506 941.634,-485.1506 941.634,-463.1506 794.634,-463.1506"/>
<polygon fill="none" stroke="#000000" points="794.634,-463.1506 794.634,-485.1506 941.634,-485.1506 941.634,-463.1506 794.634,-463.1506"/>
<image xlink:href="../../images/foreignKeys.png" width="11px" height="12px" preserveAspectRatio="xMinYMin meet" x="799.634" y="-480.151"/>
<text text-anchor="start" x="814.634" y="-470.2506" font-family="Helvetica,sans-Serif" font-size="11.00" fill="#000000">presenter_id</text>
<polygon fill="none" stroke="#000000" points="941.634,-463.1506 941.634,-485.1506 1008.634,-485.1506 1008.634,-463.1506 941.634,-463.1506"/>
<text text-anchor="start" x="944.634" y="-470.8506" font-family="Helvetica,sans-Serif" font-size="11.00" fill="#000000">bigint[19]</text>
<polygon fill="#ffffff" stroke="transparent" points="794.634,-441.1506 794.634,-463.1506 941.634,-463.1506 941.634,-441.1506 794.634,-441.1506"/>
<polygon fill="none" stroke="#000000" points="794.634,-441.1506 794.634,-463.1506 941.634,-463.1506 941.634,-441.1506 794.634,-441.1506"/>
<image xlink:href="../../images/foreignKeys.png" width="11px" height="12px" preserveAspectRatio="xMinYMin meet" x="799.634" y="-458.151"/>
<text text-anchor="start" x="814.634" y="-448.2506" font-family="Helvetica,sans-Serif" font-size="11.00" fill="#000000">recipient_company_id</text>
<polygon fill="none" stroke="#000000" points="941.634,-441.1506 941.634,-463.1506 1008.634,-463.1506 1008.634,-441.1506 941.634,-441.1506"/>
<text text-anchor="start" x="944.634" y="-448.8506" font-family="Helvetica,sans-Serif" font-size="11.00" fill="#000000">bigint[19]</text>
<polygon fill="none" stroke="#000000" points="794.634,-419.1506 794.634,-441.1506 941.634,-441.1506 941.634,-419.1506 794.634,-419.1506"/>
<text text-anchor="start" x="814.634" y="-426.2506" font-family="Helvetica,sans-Serif" font-size="11.00" fill="#000000">sent</text>
<polygon fill="none" stroke="#000000" points="941.634,-419.1506 941.634,-441.1506 1008.634,-441.1506 1008.634,-419.1506 941.634,-419.1506"/>
<text text-anchor="start" x="944.634" y="-426.8506" font-family="Helvetica,sans-Serif" font-size="11.00" fill="#000000">datetime[26]</text>
<polygon fill="none" stroke="#000000" points="794.634,-397.1506 794.634,-419.1506 941.634,-419.1506 941.634,-397.1506 794.634,-397.1506"/>
<text text-anchor="start" x="814.634" y="-404.2506" font-family="Helvetica,sans-Serif" font-size="11.00" fill="#000000">last_opened</text>
<polygon fill="none" stroke="#000000" points="941.634,-397.1506 941.634,-419.1506 1008.634,-419.1506 1008.634,-397.1506 941.634,-397.1506"/>
<text text-anchor="start" x="944.634" y="-404.8506" font-family="Helvetica,sans-Serif" font-size="11.00" fill="#000000">datetime[26]</text>
<polygon fill="none" stroke="#000000" points="794.634,-375.1506 794.634,-397.1506 941.634,-397.1506 941.634,-375.1506 794.634,-375.1506"/>
<text text-anchor="start" x="814.634" y="-382.2506" font-family="Helvetica,sans-Serif" font-size="11.00" fill="#000000">opened_count</text>
<polygon fill="none" stroke="#000000" points="941.634,-375.1506 941.634,-397.1506 1008.634,-397.1506 1008.634,-375.1506 941.634,-375.1506"/>
<text text-anchor="start" x="944.634" y="-382.8506" font-family="Helvetica,sans-Serif" font-size="11.00" fill="#000000">int[10]</text>
<polygon fill="none" stroke="#000000" points="794.634,-353.1506 794.634,-375.1506 941.634,-375.1506 941.634,-353.1506 794.634,-353.1506"/>
<text text-anchor="start" x="814.634" y="-360.2506" font-family="Helvetica,sans-Serif" font-size="11.00" fill="#000000">client_portal_id</text>
<polygon fill="none" stroke="#000000" points="941.634,-353.1506 941.634,-375.1506 1008.634,-375.1506 1008.634,-353.1506 941.634,-353.1506"/>
<text text-anchor="start" x="944.634" y="-360.8506" font-family="Helvetica,sans-Serif" font-size="11.00" fill="#000000">bigint[19]</text>
<polygon fill="none" stroke="#000000" points="794.634,-331.1506 794.634,-353.1506 941.634,-353.1506 941.634,-331.1506 794.634,-331.1506"/>
<text text-anchor="start" x="814.634" y="-338.2506" font-family="Helvetica,sans-Serif" font-size="11.00" fill="#000000">client_portal_token</text>
<polygon fill="none" stroke="#000000" points="941.634,-331.1506 941.634,-353.1506 1008.634,-353.1506 1008.634,-331.1506 941.634,-331.1506"/>
<text text-anchor="start" x="944.5705" y="-338.8506" font-family="Helvetica,sans-Serif" font-size="11.00" fill="#000000">varchar[255]</text>
<polygon fill="none" stroke="#000000" points="794.634,-309.1506 794.634,-331.1506 941.634,-331.1506 941.634,-309.1506 794.634,-309.1506"/>
<text text-anchor="start" x="814.634" y="-316.2506" font-family="Helvetica,sans-Serif" font-size="11.00" fill="#000000">presentation_stage</text>
<polygon fill="none" stroke="#000000" points="941.634,-309.1506 941.634,-331.1506 1008.634,-331.1506 1008.634,-309.1506 941.634,-309.1506"/>
<text text-anchor="start" x="944.634" y="-316.8506" font-family="Helvetica,sans-Serif" font-size="11.00" fill="#000000">varchar[50]</text>
<polygon fill="#ffffff" stroke="transparent" points="794.634,-290.1506 794.634,-309.1506 856.634,-309.1506 856.634,-290.1506 794.634,-290.1506"/>
<polygon fill="none" stroke="#000000" points="794.634,-290.1506 794.634,-309.1506 856.634,-309.1506 856.634,-290.1506 794.634,-290.1506"/>
<text text-anchor="start" x="797.634" y="-296.2506" font-family="Helvetica,sans-Serif" font-size="11.00" fill="#000000">&lt; 5</text>
<polygon fill="#ffffff" stroke="transparent" points="856.634,-290.1506 856.634,-309.1506 941.634,-309.1506 941.634,-290.1506 856.634,-290.1506"/>
<polygon fill="none" stroke="#000000" points="856.634,-290.1506 856.634,-309.1506 941.634,-309.1506 941.634,-290.1506 856.634,-290.1506"/>
<text text-anchor="start" x="900.1296" y="-296.2506" font-family="Helvetica,sans-Serif" font-size="11.00" fill="#000000">16 rows</text>
<polygon fill="#ffffff" stroke="transparent" points="941.634,-290.1506 941.634,-309.1506 1008.634,-309.1506 1008.634,-290.1506 941.634,-290.1506"/>
<polygon fill="none" stroke="#000000" points="941.634,-290.1506 941.634,-309.1506 1008.634,-309.1506 1008.634,-290.1506 941.634,-290.1506"/>
<text text-anchor="start" x="990.0393" y="-296.2506" font-family="Helvetica,sans-Serif" font-size="11.00" fill="#000000">2 &gt;</text>
<polygon fill="none" stroke="#000000" stroke-width="2" points="793.634,-289.1506 793.634,-663.1506 1009.634,-663.1506 1009.634,-289.1506 793.634,-289.1506"/>
</a>
</g>
</g>
<!-- presentation&#45;&gt;client -->
<g id="edge17" class="edge">
<title>presentation:w&#45;&gt;client:e</title>
<path fill="none" stroke="#000000" d="M779.9787,-450.8075C703.8137,-434.9547 828.3025,-282.9646 751.634,-219.1506 689.463,-167.4034 631.7935,-167.3896 569.634,-219.1506 493.2335,-282.7703 628.5548,-439.1506 529.134,-439.1506"/>
<polygon fill="#000000" stroke="#000000" points="786.6674,-451.4204 794.3054,-455.7356 790.6507,-451.7855 794.634,-452.1506 794.634,-452.1506 794.634,-452.1506 790.6507,-451.7855 794.9626,-448.5656 786.6674,-451.4204 786.6674,-451.4204"/>
<ellipse fill="none" stroke="#000000" cx="783.4807" cy="-451.1284" rx="3.2" ry="3.2"/>
</g>
<!-- presentation&#45;&gt;eworker -->
<g id="edge16" class="edge">
<title>presentation:w&#45;&gt;eworker:e</title>
<path fill="none" stroke="#000000" d="M781.0314,-469.0075C744.9755,-436.83 779.4892,-263.1544 751.634,-219.1506 689.3155,-120.7041 647.7843,-104.0922 536.634,-69.1506 444.6286,-40.2275 394.475,-8.3201 319.634,-69.1506 251.2829,-124.706 367.215,-263.1506 279.134,-263.1506"/>
<polygon fill="#000000" stroke="#000000" points="787.151,-471.3213 793.3608,-477.518 790.8925,-472.7359 794.634,-474.1506 794.634,-474.1506 794.634,-474.1506 790.8925,-472.7359 795.9072,-470.7833 787.151,-471.3213 787.151,-471.3213"/>
<ellipse fill="none" stroke="#000000" cx="784.1578" cy="-470.1895" rx="3.2" ry="3.2"/>
</g>
<!-- presentation&#45;&gt;principal -->
<g id="edge13" class="edge">
<title>presentation:w&#45;&gt;principal:e</title>
<path fill="none" stroke="#000000" d="M780.0183,-606.2913C502.3274,-611.6373 367.8109,-766.5298 147.634,-589.1506 88.1186,-541.2037 183.0603,-422.1506 106.634,-422.1506"/>
<polygon fill="#000000" stroke="#000000" points="786.6344,-606.2277 794.6687,-609.7504 790.6342,-606.1891 794.634,-606.1506 794.634,-606.1506 794.634,-606.1506 790.6342,-606.1891 794.5993,-602.5508 786.6344,-606.2277 786.6344,-606.2277"/>
<ellipse fill="none" stroke="#000000" cx="783.4345" cy="-606.2585" rx="3.2" ry="3.2"/>
</g>
<!-- presentation&#45;&gt;principal -->
<g id="edge15" class="edge">
<title>presentation:w&#45;&gt;principal:e</title>
<path fill="none" stroke="#000000" d="M780.6528,-543.7983C771.1446,-549.667 767.142,-560.9701 751.634,-565.1506 693.7592,-580.7521 190.4808,-592.5155 147.634,-560.1506 96.5793,-521.5858 170.617,-422.1506 106.634,-422.1506"/>
<polygon fill="#000000" stroke="#000000" points="786.8931,-542.1702 795.5428,-543.634 790.7635,-541.1604 794.634,-540.1506 794.634,-540.1506 794.634,-540.1506 790.7635,-541.1604 793.7252,-536.6672 786.8931,-542.1702 786.8931,-542.1702"/>
<ellipse fill="none" stroke="#000000" cx="783.7967" cy="-542.9781" rx="3.2" ry="3.2"/>
</g>
<!-- presentation&#45;&gt;job_request -->
<g id="edge14" class="edge">
<title>presentation:w&#45;&gt;job_request:e</title>
<path fill="none" stroke="#000000" d="M783.8597,-518.3211C769.3754,-518.8048 762.242,-520.1506 743.634,-520.1506"/>
<polygon fill="#000000" stroke="#000000" points="793.7708,-514.1638 793.8974,-522.1628 792.2976,-522.1881 792.171,-514.1891 793.7708,-514.1638"/>
<polyline fill="none" stroke="#000000" points="794.634,-518.1506 790.6345,-518.2139 "/>
<ellipse fill="none" stroke="#000000" cx="787.4349" cy="-518.2646" rx="3.2" ry="3.2"/>
</g>
<!-- presentation_job_request_application -->
<g id="node6" class="node">
<title>presentation_job_request_application</title>
<g id="a_node6"><a xlink:href="../../tables/presentation_job_request_application.html" xlink:title="presentation_job_request_application" target="_top">
<polygon fill="#ffffff" stroke="transparent" points="1059.634,-630.1506 1059.634,-716.1506 1296.634,-716.1506 1296.634,-630.1506 1059.634,-630.1506"/>
<polygon fill="#f5f5f5" stroke="transparent" points="1060.134,-693.1506 1060.134,-716.1506 1297.134,-716.1506 1297.134,-693.1506 1060.134,-693.1506"/>
<polygon fill="none" stroke="#000000" points="1060.134,-693.1506 1060.134,-716.1506 1297.134,-716.1506 1297.134,-693.1506 1060.134,-693.1506"/>
<text text-anchor="start" x="1065.134" y="-702.2506" font-family="Helvetica,sans-Serif" font-weight="bold" font-size="11.00" fill="#000000">presentation_job_request_application</text>
<text text-anchor="start" x="1262.1777" y="-701.2506" font-family="Helvetica,sans-Serif" font-size="11.00" fill="#000000">[table]</text>
<polygon fill="#ffffff" stroke="transparent" points="1060.134,-671.1506 1060.134,-693.1506 1297.134,-693.1506 1297.134,-671.1506 1060.134,-671.1506"/>
<polygon fill="none" stroke="#000000" points="1060.134,-671.1506 1060.134,-693.1506 1297.134,-693.1506 1297.134,-671.1506 1060.134,-671.1506"/>
<image xlink:href="../../images/foreignKeys.png" width="11px" height="12px" preserveAspectRatio="xMinYMin meet" x="1065.13" y="-688.151"/>
<text text-anchor="start" x="1080.134" y="-678.2506" font-family="Helvetica,sans-Serif" font-size="11.00" fill="#000000">presentation_id</text>
<polygon fill="#ffffff" stroke="transparent" points="1060.134,-649.1506 1060.134,-671.1506 1297.134,-671.1506 1297.134,-649.1506 1060.134,-649.1506"/>
<polygon fill="none" stroke="#000000" points="1060.134,-649.1506 1060.134,-671.1506 1297.134,-671.1506 1297.134,-649.1506 1060.134,-649.1506"/>
<image xlink:href="../../images/foreignKeys.png" width="11px" height="12px" preserveAspectRatio="xMinYMin meet" x="1065.13" y="-666.151"/>
<text text-anchor="start" x="1080.134" y="-656.2506" font-family="Helvetica,sans-Serif" font-size="11.00" fill="#000000">job_request_application_id</text>
<polygon fill="#ffffff" stroke="transparent" points="1060.134,-630.1506 1060.134,-649.1506 1161.134,-649.1506 1161.134,-630.1506 1060.134,-630.1506"/>
<polygon fill="none" stroke="#000000" points="1060.134,-630.1506 1060.134,-649.1506 1161.134,-649.1506 1161.134,-630.1506 1060.134,-630.1506"/>
<text text-anchor="start" x="1063.134" y="-636.2506" font-family="Helvetica,sans-Serif" font-size="11.00" fill="#000000">&lt; 2</text>
<polygon fill="#ffffff" stroke="transparent" points="1161.134,-630.1506 1161.134,-649.1506 1245.134,-649.1506 1245.134,-630.1506 1161.134,-630.1506"/>
<polygon fill="none" stroke="#000000" points="1161.134,-630.1506 1161.134,-649.1506 1245.134,-649.1506 1245.134,-630.1506 1161.134,-630.1506"/>
<text text-anchor="start" x="1203.6296" y="-636.2506" font-family="Helvetica,sans-Serif" font-size="11.00" fill="#000000">16 rows</text>
<polygon fill="#ffffff" stroke="transparent" points="1245.134,-630.1506 1245.134,-649.1506 1297.134,-649.1506 1297.134,-630.1506 1245.134,-630.1506"/>
<polygon fill="none" stroke="#000000" points="1245.134,-630.1506 1245.134,-649.1506 1297.134,-649.1506 1297.134,-630.1506 1245.134,-630.1506"/>
<text text-anchor="start" x="1288.0202" y="-636.2506" font-family="Helvetica,sans-Serif" font-size="11.00" fill="#000000"> &#160;</text>
</a>
</g>
</g>
<!-- presentation_job_request_application&#45;&gt;presentation -->
<g id="edge18" class="edge">
<title>presentation_job_request_application:w&#45;&gt;presentation:e</title>
<path fill="none" stroke="#000000" d="M1046.3481,-677.5466C1030.749,-664.4879 1035.8395,-628.1506 1008.634,-628.1506"/>
<polygon fill="#000000" stroke="#000000" points="1052.546,-679.6164 1058.9936,-685.5652 1056.34,-680.8835 1060.134,-682.1506 1060.134,-682.1506 1060.134,-682.1506 1056.34,-680.8835 1061.2744,-678.736 1052.546,-679.6164 1052.546,-679.6164"/>
<ellipse fill="none" stroke="#000000" cx="1049.5107" cy="-678.6028" rx="3.2" ry="3.2"/>
</g>
<!-- presentation_recipient -->
<g id="node7" class="node">
<title>presentation_recipient</title>
<g id="a_node7"><a xlink:href="../../tables/presentation_recipient.html" xlink:title="presentation_recipient" target="_top">
<polygon fill="#ffffff" stroke="transparent" points="1102.634,-523.1506 1102.634,-609.1506 1253.634,-609.1506 1253.634,-523.1506 1102.634,-523.1506"/>
<polygon fill="#f5f5f5" stroke="transparent" points="1103.134,-586.1506 1103.134,-609.1506 1254.134,-609.1506 1254.134,-586.1506 1103.134,-586.1506"/>
<polygon fill="none" stroke="#000000" points="1103.134,-586.1506 1103.134,-609.1506 1254.134,-609.1506 1254.134,-586.1506 1103.134,-586.1506"/>
<text text-anchor="start" x="1108.036" y="-595.2506" font-family="Helvetica,sans-Serif" font-weight="bold" font-size="11.00" fill="#000000">presentation_recipient</text>
<text text-anchor="start" x="1219.6558" y="-594.2506" font-family="Helvetica,sans-Serif" font-size="11.00" fill="#000000">[table]</text>
<polygon fill="#ffffff" stroke="transparent" points="1103.134,-564.1506 1103.134,-586.1506 1254.134,-586.1506 1254.134,-564.1506 1103.134,-564.1506"/>
<polygon fill="none" stroke="#000000" points="1103.134,-564.1506 1103.134,-586.1506 1254.134,-586.1506 1254.134,-564.1506 1103.134,-564.1506"/>
<image xlink:href="../../images/foreignKeys.png" width="11px" height="12px" preserveAspectRatio="xMinYMin meet" x="1108.13" y="-581.151"/>
<text text-anchor="start" x="1124.134" y="-571.2506" font-family="Helvetica,sans-Serif" font-size="11.00" fill="#000000">presentation_id</text>
<polygon fill="#ffffff" stroke="transparent" points="1103.134,-542.1506 1103.134,-564.1506 1254.134,-564.1506 1254.134,-542.1506 1103.134,-542.1506"/>
<polygon fill="none" stroke="#000000" points="1103.134,-542.1506 1103.134,-564.1506 1254.134,-564.1506 1254.134,-542.1506 1103.134,-542.1506"/>
<image xlink:href="../../images/foreignKeys.png" width="11px" height="12px" preserveAspectRatio="xMinYMin meet" x="1108.13" y="-559.151"/>
<text text-anchor="start" x="1124.134" y="-549.2506" font-family="Helvetica,sans-Serif" font-size="11.00" fill="#000000">recipient_id</text>
<polygon fill="#ffffff" stroke="transparent" points="1103.134,-523.1506 1103.134,-542.1506 1161.134,-542.1506 1161.134,-523.1506 1103.134,-523.1506"/>
<polygon fill="none" stroke="#000000" points="1103.134,-523.1506 1103.134,-542.1506 1161.134,-542.1506 1161.134,-523.1506 1103.134,-523.1506"/>
<text text-anchor="start" x="1106.134" y="-529.2506" font-family="Helvetica,sans-Serif" font-size="11.00" fill="#000000">&lt; 2</text>
<polygon fill="#ffffff" stroke="transparent" points="1161.134,-523.1506 1161.134,-542.1506 1223.134,-542.1506 1223.134,-523.1506 1161.134,-523.1506"/>
<polygon fill="none" stroke="#000000" points="1161.134,-523.1506 1161.134,-542.1506 1223.134,-542.1506 1223.134,-523.1506 1161.134,-523.1506"/>
<text text-anchor="start" x="1181.6296" y="-529.2506" font-family="Helvetica,sans-Serif" font-size="11.00" fill="#000000">16 rows</text>
<polygon fill="#ffffff" stroke="transparent" points="1223.134,-523.1506 1223.134,-542.1506 1254.134,-542.1506 1254.134,-523.1506 1223.134,-523.1506"/>
<polygon fill="none" stroke="#000000" points="1223.134,-523.1506 1223.134,-542.1506 1254.134,-542.1506 1254.134,-523.1506 1223.134,-523.1506"/>
<text text-anchor="start" x="1245.0202" y="-529.2506" font-family="Helvetica,sans-Serif" font-size="11.00" fill="#000000"> &#160;</text>
</a>
</g>
</g>
<!-- presentation_recipient&#45;&gt;presentation -->
<g id="edge19" class="edge">
<title>presentation_recipient:w&#45;&gt;presentation:e</title>
<path fill="none" stroke="#000000" d="M1088.5472,-577.0369C1054.7481,-586.4783 1051.3336,-628.1506 1008.634,-628.1506"/>
<polygon fill="#000000" stroke="#000000" points="1095.2001,-576.1766 1103.5957,-578.7209 1099.167,-575.6636 1103.134,-575.1506 1103.134,-575.1506 1103.134,-575.1506 1099.167,-575.6636 1102.6723,-571.5803 1095.2001,-576.1766 1095.2001,-576.1766"/>
<ellipse fill="none" stroke="#000000" cx="1092.0265" cy="-576.5871" rx="3.2" ry="3.2"/>
</g>
</g>
</svg>
