<?xml version="1.0" encoding="UTF-8" standalone="no"?>
<!DOCTYPE svg PUBLIC "-//W3C//DTD SVG 1.1//EN"
 "http://www.w3.org/Graphics/SVG/1.1/DTD/svg11.dtd">
<!-- Generated by graphviz version 2.40.1 (20161225.0304)
 -->
<!-- Title: oneDegreeRelationshipsDiagram Pages: 1 -->
<svg width="358pt" height="316pt"
 viewBox="0.00 0.00 358.00 316.20" xmlns="http://www.w3.org/2000/svg" xmlns:xlink="http://www.w3.org/1999/xlink">
<g id="graph0" class="graph" transform="scale(1 1) rotate(0) translate(4 312.2)">
<title>oneDegreeRelationshipsDiagram</title>
<polygon fill="#ffffff" stroke="transparent" points="-4,4 -4,-312.2 354,-312.2 354,4 -4,4"/>
<text text-anchor="middle" x="72.4936" y="-7.3" font-family="Helvetica,sans-Serif" font-size="11.00" fill="#000000">Generated by SchemaSpy</text>
<!-- principal_token -->
<g id="node1" class="node">
<title>principal_token</title>
<g id="a_node1"><a xlink:href="../../tables/principal_token.html" xlink:title="principal_token" target="_top">
<polygon fill="#ffffff" stroke="transparent" points="149,-38.2 149,-304.2 342,-304.2 342,-38.2 149,-38.2"/>
<polygon fill="#f5f5f5" stroke="transparent" points="151.5,-279.2 151.5,-302.2 340.5,-302.2 340.5,-279.2 151.5,-279.2"/>
<polygon fill="none" stroke="#000000" points="151.5,-279.2 151.5,-302.2 340.5,-302.2 340.5,-279.2 151.5,-279.2"/>
<text text-anchor="start" x="156.5" y="-288.3" font-family="Helvetica,sans-Serif" font-weight="bold" font-size="11.00" fill="#000000">principal_token</text>
<text text-anchor="start" x="305.5437" y="-287.3" font-family="Helvetica,sans-Serif" font-size="11.00" fill="#000000">[table]</text>
<polygon fill="none" stroke="#000000" points="151.5,-257.2 151.5,-279.2 274.5,-279.2 274.5,-257.2 151.5,-257.2"/>
<image xlink:href="../../images/primaryKeys.png" width="11px" height="12px" preserveAspectRatio="xMinYMin meet" x="156.5" y="-274.2"/>
<text text-anchor="start" x="171.5" y="-264.3" font-family="Helvetica,sans-Serif" font-size="11.00" fill="#000000">id</text>
<polygon fill="none" stroke="#000000" points="274.5,-257.2 274.5,-279.2 340.5,-279.2 340.5,-257.2 274.5,-257.2"/>
<text text-anchor="start" x="277.5" y="-264.9" font-family="Helvetica,sans-Serif" font-size="11.00" fill="#000000">bigint[19]</text>
<polygon fill="#ffffff" stroke="transparent" points="151.5,-235.2 151.5,-257.2 274.5,-257.2 274.5,-235.2 151.5,-235.2"/>
<polygon fill="none" stroke="#000000" points="151.5,-235.2 151.5,-257.2 274.5,-257.2 274.5,-235.2 151.5,-235.2"/>
<image xlink:href="../../images/foreignKeys.png" width="11px" height="12px" preserveAspectRatio="xMinYMin meet" x="156.5" y="-252.2"/>
<text text-anchor="start" x="171.5" y="-242.3" font-family="Helvetica,sans-Serif" font-size="11.00" fill="#000000">created_by</text>
<polygon fill="none" stroke="#000000" points="274.5,-235.2 274.5,-257.2 340.5,-257.2 340.5,-235.2 274.5,-235.2"/>
<text text-anchor="start" x="277.5" y="-242.9" font-family="Helvetica,sans-Serif" font-size="11.00" fill="#000000">bigint[19]</text>
<polygon fill="none" stroke="#000000" points="151.5,-213.2 151.5,-235.2 274.5,-235.2 274.5,-213.2 151.5,-213.2"/>
<text text-anchor="start" x="171.5" y="-220.3" font-family="Helvetica,sans-Serif" font-size="11.00" fill="#000000">creation_date</text>
<polygon fill="none" stroke="#000000" points="274.5,-213.2 274.5,-235.2 340.5,-235.2 340.5,-213.2 274.5,-213.2"/>
<text text-anchor="start" x="277.2401" y="-220.9" font-family="Helvetica,sans-Serif" font-size="11.00" fill="#000000">datetime[26]</text>
<polygon fill="#ffffff" stroke="transparent" points="151.5,-191.2 151.5,-213.2 274.5,-213.2 274.5,-191.2 151.5,-191.2"/>
<polygon fill="none" stroke="#000000" points="151.5,-191.2 151.5,-213.2 274.5,-213.2 274.5,-191.2 151.5,-191.2"/>
<image xlink:href="../../images/foreignKeys.png" width="11px" height="12px" preserveAspectRatio="xMinYMin meet" x="156.5" y="-208.2"/>
<text text-anchor="start" x="171.5" y="-198.3" font-family="Helvetica,sans-Serif" font-size="11.00" fill="#000000">modified_by</text>
<polygon fill="none" stroke="#000000" points="274.5,-191.2 274.5,-213.2 340.5,-213.2 340.5,-191.2 274.5,-191.2"/>
<text text-anchor="start" x="277.5" y="-198.9" font-family="Helvetica,sans-Serif" font-size="11.00" fill="#000000">bigint[19]</text>
<polygon fill="none" stroke="#000000" points="151.5,-169.2 151.5,-191.2 274.5,-191.2 274.5,-169.2 151.5,-169.2"/>
<text text-anchor="start" x="171.5" y="-176.3" font-family="Helvetica,sans-Serif" font-size="11.00" fill="#000000">modification_date</text>
<polygon fill="none" stroke="#000000" points="274.5,-169.2 274.5,-191.2 340.5,-191.2 340.5,-169.2 274.5,-169.2"/>
<text text-anchor="start" x="277.2401" y="-176.9" font-family="Helvetica,sans-Serif" font-size="11.00" fill="#000000">datetime[26]</text>
<polygon fill="none" stroke="#000000" points="151.5,-147.2 151.5,-169.2 274.5,-169.2 274.5,-147.2 151.5,-147.2"/>
<text text-anchor="start" x="171.5" y="-154.3" font-family="Helvetica,sans-Serif" font-size="11.00" fill="#000000">device_name</text>
<polygon fill="none" stroke="#000000" points="274.5,-147.2 274.5,-169.2 340.5,-169.2 340.5,-147.2 274.5,-147.2"/>
<text text-anchor="start" x="277.5" y="-154.9" font-family="Helvetica,sans-Serif" font-size="11.00" fill="#000000">varchar[50]</text>
<polygon fill="none" stroke="#000000" points="151.5,-125.2 151.5,-147.2 274.5,-147.2 274.5,-125.2 151.5,-125.2"/>
<text text-anchor="start" x="171.5" y="-132.3" font-family="Helvetica,sans-Serif" font-size="11.00" fill="#000000">expiration_date</text>
<polygon fill="none" stroke="#000000" points="274.5,-125.2 274.5,-147.2 340.5,-147.2 340.5,-125.2 274.5,-125.2"/>
<text text-anchor="start" x="277.2401" y="-132.9" font-family="Helvetica,sans-Serif" font-size="11.00" fill="#000000">datetime[26]</text>
<polygon fill="none" stroke="#000000" points="151.5,-103.2 151.5,-125.2 274.5,-125.2 274.5,-103.2 151.5,-103.2"/>
<text text-anchor="start" x="171.5" y="-110.3" font-family="Helvetica,sans-Serif" font-size="11.00" fill="#000000">status</text>
<polygon fill="none" stroke="#000000" points="274.5,-103.2 274.5,-125.2 340.5,-125.2 340.5,-103.2 274.5,-103.2"/>
<text text-anchor="start" x="277.5" y="-110.9" font-family="Helvetica,sans-Serif" font-size="11.00" fill="#000000">varchar[20]</text>
<polygon fill="#ffffff" stroke="transparent" points="151.5,-81.2 151.5,-103.2 274.5,-103.2 274.5,-81.2 151.5,-81.2"/>
<polygon fill="none" stroke="#000000" points="151.5,-81.2 151.5,-103.2 274.5,-103.2 274.5,-81.2 151.5,-81.2"/>
<image xlink:href="../../images/foreignKeys.png" width="11px" height="12px" preserveAspectRatio="xMinYMin meet" x="156.5" y="-98.2"/>
<text text-anchor="start" x="171.5" y="-88.3" font-family="Helvetica,sans-Serif" font-size="11.00" fill="#000000">principal_id</text>
<polygon fill="none" stroke="#000000" points="274.5,-81.2 274.5,-103.2 340.5,-103.2 340.5,-81.2 274.5,-81.2"/>
<text text-anchor="start" x="277.5" y="-88.9" font-family="Helvetica,sans-Serif" font-size="11.00" fill="#000000">bigint[19]</text>
<polygon fill="#ffffff" stroke="transparent" points="151.5,-59.2 151.5,-81.2 274.5,-81.2 274.5,-59.2 151.5,-59.2"/>
<polygon fill="none" stroke="#000000" points="151.5,-59.2 151.5,-81.2 274.5,-81.2 274.5,-59.2 151.5,-59.2"/>
<text text-anchor="start" x="171.5" y="-66.3" font-family="Helvetica,sans-Serif" font-size="11.00" fill="#000000">token_id</text>
<polygon fill="none" stroke="#000000" points="274.5,-59.2 274.5,-81.2 340.5,-81.2 340.5,-59.2 274.5,-59.2"/>
<text text-anchor="start" x="277.5" y="-66.9" font-family="Helvetica,sans-Serif" font-size="11.00" fill="#000000">varchar[36]</text>
<polygon fill="#ffffff" stroke="transparent" points="151.5,-40.2 151.5,-59.2 198.5,-59.2 198.5,-40.2 151.5,-40.2"/>
<polygon fill="none" stroke="#000000" points="151.5,-40.2 151.5,-59.2 198.5,-59.2 198.5,-40.2 151.5,-40.2"/>
<text text-anchor="start" x="154.5" y="-46.3" font-family="Helvetica,sans-Serif" font-size="11.00" fill="#000000">&lt; 3</text>
<polygon fill="#ffffff" stroke="transparent" points="198.5,-40.2 198.5,-59.2 274.5,-59.2 274.5,-40.2 198.5,-40.2"/>
<polygon fill="none" stroke="#000000" points="198.5,-40.2 198.5,-59.2 274.5,-59.2 274.5,-40.2 198.5,-40.2"/>
<text text-anchor="start" x="226.8807" y="-46.3" font-family="Helvetica,sans-Serif" font-size="11.00" fill="#000000">856 rows</text>
<polygon fill="#ffffff" stroke="transparent" points="274.5,-40.2 274.5,-59.2 340.5,-59.2 340.5,-40.2 274.5,-40.2"/>
<polygon fill="none" stroke="#000000" points="274.5,-40.2 274.5,-59.2 340.5,-59.2 340.5,-40.2 274.5,-40.2"/>
<text text-anchor="start" x="321.9053" y="-46.3" font-family="Helvetica,sans-Serif" font-size="11.00" fill="#000000">0 &gt;</text>
<polygon fill="none" stroke="#000000" stroke-width="2" points="150,-39.2 150,-303.2 341,-303.2 341,-39.2 150,-39.2"/>
</a>
</g>
</g>
<!-- principal -->
<g id="node2" class="node">
<title>principal</title>
<g id="a_node2"><a xlink:href="../../tables/principal.html" xlink:title="principal" target="_top">
<polygon fill="#ffffff" stroke="transparent" points="8,-131.7 8,-236.7 100,-236.7 100,-131.7 8,-131.7"/>
<polygon fill="#f5f5f5" stroke="transparent" points="8,-213.2 8,-236.2 100,-236.2 100,-213.2 8,-213.2"/>
<polygon fill="none" stroke="#000000" points="8,-213.2 8,-236.2 100,-236.2 100,-213.2 8,-213.2"/>
<text text-anchor="start" x="13" y="-222.3" font-family="Helvetica,sans-Serif" font-weight="bold" font-size="11.00" fill="#000000">principal</text>
<text text-anchor="start" x="65.0437" y="-221.3" font-family="Helvetica,sans-Serif" font-size="11.00" fill="#000000">[table]</text>
<polygon fill="none" stroke="#000000" points="8,-191.2 8,-213.2 100,-213.2 100,-191.2 8,-191.2"/>
<image xlink:href="../../images/primaryKeys.png" width="11px" height="12px" preserveAspectRatio="xMinYMin meet" x="13" y="-208.2"/>
<text text-anchor="start" x="32" y="-198.3" font-family="Helvetica,sans-Serif" font-size="11.00" fill="#000000">id</text>
<polygon fill="#ffffff" stroke="transparent" points="8,-169.2 8,-191.2 100,-191.2 100,-169.2 8,-169.2"/>
<polygon fill="none" stroke="#000000" points="8,-169.2 8,-191.2 100,-191.2 100,-169.2 8,-169.2"/>
<image xlink:href="../../images/foreignKeys.png" width="11px" height="12px" preserveAspectRatio="xMinYMin meet" x="13" y="-186.2"/>
<text text-anchor="start" x="32" y="-176.3" font-family="Helvetica,sans-Serif" font-size="11.00" fill="#000000">eworker_id</text>
<polygon fill="none" stroke="#000000" points="8,-150.2 8,-169.2 100,-169.2 100,-150.2 8,-150.2"/>
<text text-anchor="start" x="11" y="-156.3" font-family="Helvetica,sans-Serif" font-size="11.00" fill="#000000">...</text>
<polygon fill="#ffffff" stroke="transparent" points="8,-131.2 8,-150.2 29,-150.2 29,-131.2 8,-131.2"/>
<polygon fill="none" stroke="#000000" points="8,-131.2 8,-150.2 29,-150.2 29,-131.2 8,-131.2"/>
<text text-anchor="start" x="10.7027" y="-137.3" font-family="Helvetica,sans-Serif" font-size="11.00" fill="#000000">&lt; 1</text>
<polygon fill="#ffffff" stroke="transparent" points="29,-131.2 29,-150.2 73,-150.2 73,-131.2 29,-131.2"/>
<polygon fill="none" stroke="#000000" points="29,-131.2 29,-150.2 73,-150.2 73,-131.2 29,-131.2"/>
<text text-anchor="start" x="31.7478" y="-137.3" font-family="Helvetica,sans-Serif" font-size="11.00" fill="#000000">18 rows</text>
<polygon fill="#ffffff" stroke="transparent" points="73,-131.2 73,-150.2 100,-150.2 100,-131.2 73,-131.2"/>
<polygon fill="none" stroke="#000000" points="73,-131.2 73,-150.2 100,-150.2 100,-131.2 73,-131.2"/>
<text text-anchor="start" x="75.6452" y="-137.3" font-family="Helvetica,sans-Serif" font-size="11.00" fill="#000000">56 &gt;</text>
</a>
</g>
</g>
<!-- principal_token&#45;&gt;principal -->
<g id="edge1" class="edge">
<title>principal_token:w&#45;&gt;principal:e</title>
<path fill="none" stroke="#000000" d="M137.7239,-241.8203C123.3166,-230.691 124.2253,-202.2 100,-202.2"/>
<polygon fill="#000000" stroke="#000000" points="143.876,-243.7761 150.4093,-249.6308 147.688,-244.9881 151.5,-246.2 151.5,-246.2 151.5,-246.2 147.688,-244.9881 152.5907,-242.7692 143.876,-243.7761 143.876,-243.7761"/>
<ellipse fill="none" stroke="#000000" cx="140.8264" cy="-242.8066" rx="3.2" ry="3.2"/>
</g>
<!-- principal_token&#45;&gt;principal -->
<g id="edge2" class="edge">
<title>principal_token:w&#45;&gt;principal:e</title>
<path fill="none" stroke="#000000" d="M137.0156,-202.2C124.6771,-202.2 117.1667,-202.2 100,-202.2"/>
<polygon fill="#000000" stroke="#000000" points="143.5,-202.2001 151.5,-205.8 147.5,-202.2 151.5,-202.2 151.5,-202.2 151.5,-202.2 147.5,-202.2 151.5,-198.6 143.5,-202.2001 143.5,-202.2001"/>
<ellipse fill="none" stroke="#000000" cx="140.3" cy="-202.2001" rx="3.2" ry="3.2"/>
</g>
<!-- principal_token&#45;&gt;principal -->
<g id="edge3" class="edge">
<title>principal_token:w&#45;&gt;principal:e</title>
<path fill="none" stroke="#000000" d="M137.462,-95.8599C108.5484,-114.9466 148.0775,-202.2 100,-202.2"/>
<polygon fill="#000000" stroke="#000000" points="143.7588,-94.2183 152.4082,-95.6836 147.6294,-93.2091 151.5,-92.2 151.5,-92.2 151.5,-92.2 147.6294,-93.2091 150.5918,-88.7164 143.7588,-94.2183 143.7588,-94.2183"/>
<ellipse fill="none" stroke="#000000" cx="140.6623" cy="-95.0256" rx="3.2" ry="3.2"/>
</g>
</g>
</svg>
