<?xml version="1.0" encoding="UTF-8" standalone="no"?>
<!DOCTYPE svg PUBLIC "-//W3C//DTD SVG 1.1//EN"
 "http://www.w3.org/Graphics/SVG/1.1/DTD/svg11.dtd">
<!-- Generated by graphviz version 2.40.1 (20161225.0304)
 -->
<!-- Title: oneDegreeRelationshipsDiagram Pages: 1 -->
<svg width="587pt" height="375pt"
 viewBox="0.00 0.00 587.00 375.20" xmlns="http://www.w3.org/2000/svg" xmlns:xlink="http://www.w3.org/1999/xlink">
<g id="graph0" class="graph" transform="scale(1 1) rotate(0) translate(4 371.2)">
<title>oneDegreeRelationshipsDiagram</title>
<polygon fill="#ffffff" stroke="transparent" points="-4,4 -4,-371.2 583,-371.2 583,4 -4,4"/>
<text text-anchor="middle" x="72.4936" y="-7.3" font-family="Helvetica,sans-Serif" font-size="11.00" fill="#000000">Generated by SchemaSpy</text>
<!-- job_request -->
<g id="node1" class="node">
<title>job_request</title>
<g id="a_node1"><a xlink:href="../../tables/job_request.html" xlink:title="job_request" target="_top">
<polygon fill="#ffffff" stroke="transparent" points="405,-38.2 405,-363.2 571,-363.2 571,-38.2 405,-38.2"/>
<polygon fill="#f5f5f5" stroke="transparent" points="405,-339.7 405,-362.7 571,-362.7 571,-339.7 405,-339.7"/>
<polygon fill="none" stroke="#000000" points="405,-339.7 405,-362.7 571,-362.7 571,-339.7 405,-339.7"/>
<text text-anchor="start" x="410" y="-348.8" font-family="Helvetica,sans-Serif" font-weight="bold" font-size="11.00" fill="#000000">job_request</text>
<text text-anchor="start" x="536.0437" y="-347.8" font-family="Helvetica,sans-Serif" font-size="11.00" fill="#000000">[table]</text>
<polygon fill="none" stroke="#000000" points="405,-317.7 405,-339.7 571,-339.7 571,-317.7 405,-317.7"/>
<image xlink:href="../../images/primaryKeys.png" width="11px" height="12px" preserveAspectRatio="xMinYMin meet" x="410" y="-334.7"/>
<text text-anchor="start" x="425" y="-324.8" font-family="Helvetica,sans-Serif" font-size="11.00" fill="#000000">id</text>
<polygon fill="#ffffff" stroke="transparent" points="405,-295.7 405,-317.7 571,-317.7 571,-295.7 405,-295.7"/>
<polygon fill="none" stroke="#000000" points="405,-295.7 405,-317.7 571,-317.7 571,-295.7 405,-295.7"/>
<image xlink:href="../../images/foreignKeys.png" width="11px" height="12px" preserveAspectRatio="xMinYMin meet" x="410" y="-312.7"/>
<text text-anchor="start" x="425" y="-302.8" font-family="Helvetica,sans-Serif" font-size="11.00" fill="#000000">created_by</text>
<polygon fill="#ffffff" stroke="transparent" points="405,-273.7 405,-295.7 571,-295.7 571,-273.7 405,-273.7"/>
<polygon fill="none" stroke="#000000" points="405,-273.7 405,-295.7 571,-295.7 571,-273.7 405,-273.7"/>
<image xlink:href="../../images/foreignKeys.png" width="11px" height="12px" preserveAspectRatio="xMinYMin meet" x="410" y="-290.7"/>
<text text-anchor="start" x="425" y="-280.8" font-family="Helvetica,sans-Serif" font-size="11.00" fill="#000000">modified_by</text>
<polygon fill="#ffffff" stroke="transparent" points="405,-251.7 405,-273.7 571,-273.7 571,-251.7 405,-251.7"/>
<polygon fill="none" stroke="#000000" points="405,-251.7 405,-273.7 571,-273.7 571,-251.7 405,-251.7"/>
<image xlink:href="../../images/foreignKeys.png" width="11px" height="12px" preserveAspectRatio="xMinYMin meet" x="410" y="-268.7"/>
<text text-anchor="start" x="425" y="-258.8" font-family="Helvetica,sans-Serif" font-size="11.00" fill="#000000">location_id</text>
<polygon fill="#ffffff" stroke="transparent" points="405,-229.7 405,-251.7 571,-251.7 571,-229.7 405,-229.7"/>
<polygon fill="none" stroke="#000000" points="405,-229.7 405,-251.7 571,-251.7 571,-229.7 405,-229.7"/>
<image xlink:href="../../images/foreignKeys.png" width="11px" height="12px" preserveAspectRatio="xMinYMin meet" x="410" y="-246.7"/>
<text text-anchor="start" x="425" y="-236.8" font-family="Helvetica,sans-Serif" font-size="11.00" fill="#000000">rate_card_id</text>
<polygon fill="#ffffff" stroke="transparent" points="405,-207.7 405,-229.7 571,-229.7 571,-207.7 405,-207.7"/>
<polygon fill="none" stroke="#000000" points="405,-207.7 405,-229.7 571,-229.7 571,-207.7 405,-207.7"/>
<image xlink:href="../../images/foreignKeys.png" width="11px" height="12px" preserveAspectRatio="xMinYMin meet" x="410" y="-224.7"/>
<text text-anchor="start" x="425" y="-214.8" font-family="Helvetica,sans-Serif" font-size="11.00" fill="#000000">source_job_request_id</text>
<polygon fill="#ffffff" stroke="transparent" points="405,-185.7 405,-207.7 571,-207.7 571,-185.7 405,-185.7"/>
<polygon fill="none" stroke="#000000" points="405,-185.7 405,-207.7 571,-207.7 571,-185.7 405,-185.7"/>
<image xlink:href="../../images/foreignKeys.png" width="11px" height="12px" preserveAspectRatio="xMinYMin meet" x="410" y="-202.7"/>
<text text-anchor="start" x="425" y="-192.8" font-family="Helvetica,sans-Serif" font-size="11.00" fill="#000000">eworker_id</text>
<polygon fill="#ffffff" stroke="transparent" points="405,-163.7 405,-185.7 571,-185.7 571,-163.7 405,-163.7"/>
<polygon fill="none" stroke="#000000" points="405,-163.7 405,-185.7 571,-185.7 571,-163.7 405,-163.7"/>
<image xlink:href="../../images/foreignKeys.png" width="11px" height="12px" preserveAspectRatio="xMinYMin meet" x="410" y="-180.7"/>
<text text-anchor="start" x="425" y="-170.8" font-family="Helvetica,sans-Serif" font-size="11.00" fill="#000000">unit_id</text>
<polygon fill="#ffffff" stroke="transparent" points="405,-141.7 405,-163.7 571,-163.7 571,-141.7 405,-141.7"/>
<polygon fill="none" stroke="#000000" points="405,-141.7 405,-163.7 571,-163.7 571,-141.7 405,-141.7"/>
<image xlink:href="../../images/foreignKeys.png" width="11px" height="12px" preserveAspectRatio="xMinYMin meet" x="410" y="-158.7"/>
<text text-anchor="start" x="425" y="-148.8" font-family="Helvetica,sans-Serif" font-size="11.00" fill="#000000">closed_eworker_id</text>
<polygon fill="#ffffff" stroke="transparent" points="405,-119.7 405,-141.7 571,-141.7 571,-119.7 405,-119.7"/>
<polygon fill="none" stroke="#000000" points="405,-119.7 405,-141.7 571,-141.7 571,-119.7 405,-119.7"/>
<image xlink:href="../../images/foreignKeys.png" width="11px" height="12px" preserveAspectRatio="xMinYMin meet" x="410" y="-136.7"/>
<text text-anchor="start" x="425" y="-126.8" font-family="Helvetica,sans-Serif" font-size="11.00" fill="#000000">client_contact_id</text>
<polygon fill="#ffffff" stroke="transparent" points="405,-97.7 405,-119.7 571,-119.7 571,-97.7 405,-97.7"/>
<polygon fill="none" stroke="#000000" points="405,-97.7 405,-119.7 571,-119.7 571,-97.7 405,-97.7"/>
<image xlink:href="../../images/foreignKeys.png" width="11px" height="12px" preserveAspectRatio="xMinYMin meet" x="410" y="-114.7"/>
<text text-anchor="start" x="425" y="-104.8" font-family="Helvetica,sans-Serif" font-size="11.00" fill="#000000">client_id</text>
<polygon fill="#ffffff" stroke="transparent" points="405,-75.7 405,-97.7 571,-97.7 571,-75.7 405,-75.7"/>
<polygon fill="none" stroke="#000000" points="405,-75.7 405,-97.7 571,-97.7 571,-75.7 405,-75.7"/>
<image xlink:href="../../images/foreignKeys.png" width="11px" height="12px" preserveAspectRatio="xMinYMin meet" x="410" y="-92.7"/>
<text text-anchor="start" x="425" y="-82.8" font-family="Helvetica,sans-Serif" font-size="11.00" fill="#000000">role_id</text>
<polygon fill="none" stroke="#000000" points="405,-56.7 405,-75.7 571,-75.7 571,-56.7 405,-56.7"/>
<text text-anchor="start" x="408" y="-62.8" font-family="Helvetica,sans-Serif" font-size="11.00" fill="#000000">...</text>
<polygon fill="#ffffff" stroke="transparent" points="405,-37.7 405,-56.7 466,-56.7 466,-37.7 405,-37.7"/>
<polygon fill="none" stroke="#000000" points="405,-37.7 405,-56.7 466,-56.7 466,-37.7 405,-37.7"/>
<text text-anchor="start" x="408" y="-43.8" font-family="Helvetica,sans-Serif" font-size="11.00" fill="#000000">&lt; 11</text>
<polygon fill="#ffffff" stroke="transparent" points="466,-37.7 466,-56.7 533,-56.7 533,-37.7 466,-37.7"/>
<polygon fill="none" stroke="#000000" points="466,-37.7 466,-56.7 533,-56.7 533,-37.7 466,-37.7"/>
<text text-anchor="start" x="485.3807" y="-43.8" font-family="Helvetica,sans-Serif" font-size="11.00" fill="#000000">254 rows</text>
<polygon fill="#ffffff" stroke="transparent" points="533,-37.7 533,-56.7 571,-56.7 571,-37.7 533,-37.7"/>
<polygon fill="none" stroke="#000000" points="533,-37.7 533,-56.7 571,-56.7 571,-37.7 533,-37.7"/>
<text text-anchor="start" x="552.4053" y="-43.8" font-family="Helvetica,sans-Serif" font-size="11.00" fill="#000000">7 &gt;</text>
</a>
</g>
</g>
<!-- rate_card -->
<g id="node2" class="node">
<title>rate_card</title>
<g id="a_node2"><a xlink:href="../../tables/rate_card.html" xlink:title="rate_card" target="_top">
<polygon fill="#ffffff" stroke="transparent" points="180,-159.7 180,-315.7 356,-315.7 356,-159.7 180,-159.7"/>
<polygon fill="#f5f5f5" stroke="transparent" points="182,-290.7 182,-313.7 354,-313.7 354,-290.7 182,-290.7"/>
<polygon fill="none" stroke="#000000" points="182,-290.7 182,-313.7 354,-313.7 354,-290.7 182,-290.7"/>
<text text-anchor="start" x="187" y="-299.8" font-family="Helvetica,sans-Serif" font-weight="bold" font-size="11.00" fill="#000000">rate_card</text>
<text text-anchor="start" x="319.0437" y="-298.8" font-family="Helvetica,sans-Serif" font-size="11.00" fill="#000000">[table]</text>
<polygon fill="none" stroke="#000000" points="182,-268.7 182,-290.7 283,-290.7 283,-268.7 182,-268.7"/>
<image xlink:href="../../images/primaryKeys.png" width="11px" height="12px" preserveAspectRatio="xMinYMin meet" x="187" y="-285.7"/>
<text text-anchor="start" x="202" y="-275.8" font-family="Helvetica,sans-Serif" font-size="11.00" fill="#000000">id</text>
<polygon fill="none" stroke="#000000" points="283,-268.7 283,-290.7 354,-290.7 354,-268.7 283,-268.7"/>
<text text-anchor="start" x="286" y="-276.4" font-family="Helvetica,sans-Serif" font-size="11.00" fill="#000000">bigint[19]</text>
<polygon fill="none" stroke="#000000" points="182,-246.7 182,-268.7 283,-268.7 283,-246.7 182,-246.7"/>
<text text-anchor="start" x="202" y="-253.8" font-family="Helvetica,sans-Serif" font-size="11.00" fill="#000000">currency</text>
<polygon fill="none" stroke="#000000" points="283,-246.7 283,-268.7 354,-268.7 354,-246.7 283,-246.7"/>
<text text-anchor="start" x="286" y="-254.4" font-family="Helvetica,sans-Serif" font-size="11.00" fill="#000000">varchar[255]</text>
<polygon fill="#ffffff" stroke="transparent" points="182,-224.7 182,-246.7 283,-246.7 283,-224.7 182,-224.7"/>
<polygon fill="none" stroke="#000000" points="182,-224.7 182,-246.7 283,-246.7 283,-224.7 182,-224.7"/>
<text text-anchor="start" x="202" y="-231.8" font-family="Helvetica,sans-Serif" font-size="11.00" fill="#000000">name</text>
<polygon fill="none" stroke="#000000" points="283,-224.7 283,-246.7 354,-246.7 354,-224.7 283,-224.7"/>
<text text-anchor="start" x="286" y="-232.4" font-family="Helvetica,sans-Serif" font-size="11.00" fill="#000000">varchar[100]</text>
<polygon fill="none" stroke="#000000" points="182,-202.7 182,-224.7 283,-224.7 283,-202.7 182,-202.7"/>
<text text-anchor="start" x="202" y="-209.8" font-family="Helvetica,sans-Serif" font-size="11.00" fill="#000000">rate_per_hour</text>
<polygon fill="none" stroke="#000000" points="283,-202.7 283,-224.7 354,-224.7 354,-202.7 283,-202.7"/>
<text text-anchor="start" x="285.7981" y="-210.4" font-family="Helvetica,sans-Serif" font-size="11.00" fill="#000000">decimal[19,2]</text>
<polygon fill="#ffffff" stroke="transparent" points="182,-180.7 182,-202.7 283,-202.7 283,-180.7 182,-180.7"/>
<polygon fill="none" stroke="#000000" points="182,-180.7 182,-202.7 283,-202.7 283,-180.7 182,-180.7"/>
<image xlink:href="../../images/foreignKeys.png" width="11px" height="12px" preserveAspectRatio="xMinYMin meet" x="187" y="-197.7"/>
<text text-anchor="start" x="202" y="-187.8" font-family="Helvetica,sans-Serif" font-size="11.00" fill="#000000">unit_id</text>
<polygon fill="none" stroke="#000000" points="283,-180.7 283,-202.7 354,-202.7 354,-180.7 283,-180.7"/>
<text text-anchor="start" x="286" y="-188.4" font-family="Helvetica,sans-Serif" font-size="11.00" fill="#000000">bigint[19]</text>
<polygon fill="#ffffff" stroke="transparent" points="182,-161.7 182,-180.7 218,-180.7 218,-161.7 182,-161.7"/>
<polygon fill="none" stroke="#000000" points="182,-161.7 182,-180.7 218,-180.7 218,-161.7 182,-161.7"/>
<text text-anchor="start" x="185" y="-167.8" font-family="Helvetica,sans-Serif" font-size="11.00" fill="#000000">&lt; 1</text>
<polygon fill="#ffffff" stroke="transparent" points="218,-161.7 218,-180.7 283,-180.7 283,-161.7 218,-161.7"/>
<polygon fill="none" stroke="#000000" points="218,-161.7 218,-180.7 283,-180.7 283,-161.7 218,-161.7"/>
<text text-anchor="start" x="235.3807" y="-167.8" font-family="Helvetica,sans-Serif" font-size="11.00" fill="#000000">239 rows</text>
<polygon fill="#ffffff" stroke="transparent" points="283,-161.7 283,-180.7 354,-180.7 354,-161.7 283,-161.7"/>
<polygon fill="none" stroke="#000000" points="283,-161.7 283,-180.7 354,-180.7 354,-161.7 283,-161.7"/>
<text text-anchor="start" x="335.4053" y="-167.8" font-family="Helvetica,sans-Serif" font-size="11.00" fill="#000000">1 &gt;</text>
<polygon fill="none" stroke="#000000" stroke-width="2" points="181,-160.7 181,-314.7 355,-314.7 355,-160.7 181,-160.7"/>
</a>
</g>
</g>
<!-- job_request&#45;&gt;rate_card -->
<g id="edge1" class="edge">
<title>job_request:w&#45;&gt;rate_card:e</title>
<path fill="none" stroke="#000000" d="M390.9125,-245.1738C377.4862,-255.4178 376.5156,-279.7 354,-279.7"/>
<polygon fill="#000000" stroke="#000000" points="397.3752,-243.1214 406.0896,-244.1311 401.1876,-241.9107 405,-240.7 405,-240.7 405,-240.7 401.1876,-241.9107 403.9104,-237.2689 397.3752,-243.1214 397.3752,-243.1214"/>
<ellipse fill="none" stroke="#000000" cx="394.3253" cy="-244.09" rx="3.2" ry="3.2"/>
</g>
<!-- ework_unit -->
<g id="node3" class="node">
<title>ework_unit</title>
<g id="a_node3"><a xlink:href="../../tables/ework_unit.html" xlink:title="ework_unit" target="_top">
<polygon fill="#ffffff" stroke="transparent" points="8,-93.2 8,-198.2 131,-198.2 131,-93.2 8,-93.2"/>
<polygon fill="#f5f5f5" stroke="transparent" points="8.5,-174.7 8.5,-197.7 131.5,-197.7 131.5,-174.7 8.5,-174.7"/>
<polygon fill="none" stroke="#000000" points="8.5,-174.7 8.5,-197.7 131.5,-197.7 131.5,-174.7 8.5,-174.7"/>
<text text-anchor="start" x="13.5" y="-183.8" font-family="Helvetica,sans-Serif" font-weight="bold" font-size="11.00" fill="#000000">ework_unit</text>
<text text-anchor="start" x="96.5437" y="-182.8" font-family="Helvetica,sans-Serif" font-size="11.00" fill="#000000">[table]</text>
<polygon fill="none" stroke="#000000" points="8.5,-152.7 8.5,-174.7 131.5,-174.7 131.5,-152.7 8.5,-152.7"/>
<image xlink:href="../../images/primaryKeys.png" width="11px" height="12px" preserveAspectRatio="xMinYMin meet" x="13.5" y="-169.7"/>
<text text-anchor="start" x="28.5" y="-159.8" font-family="Helvetica,sans-Serif" font-size="11.00" fill="#000000">id</text>
<polygon fill="#ffffff" stroke="transparent" points="8.5,-130.7 8.5,-152.7 131.5,-152.7 131.5,-130.7 8.5,-130.7"/>
<polygon fill="none" stroke="#000000" points="8.5,-130.7 8.5,-152.7 131.5,-152.7 131.5,-130.7 8.5,-130.7"/>
<image xlink:href="../../images/foreignKeys.png" width="11px" height="12px" preserveAspectRatio="xMinYMin meet" x="13.5" y="-147.7"/>
<text text-anchor="start" x="28.5" y="-137.8" font-family="Helvetica,sans-Serif" font-size="11.00" fill="#000000">site_id</text>
<polygon fill="none" stroke="#000000" points="8.5,-111.7 8.5,-130.7 131.5,-130.7 131.5,-111.7 8.5,-111.7"/>
<text text-anchor="start" x="11.5" y="-117.8" font-family="Helvetica,sans-Serif" font-size="11.00" fill="#000000">...</text>
<polygon fill="#ffffff" stroke="transparent" points="8.5,-92.7 8.5,-111.7 47.5,-111.7 47.5,-92.7 8.5,-92.7"/>
<polygon fill="none" stroke="#000000" points="8.5,-92.7 8.5,-111.7 47.5,-111.7 47.5,-92.7 8.5,-92.7"/>
<text text-anchor="start" x="11.5" y="-98.8" font-family="Helvetica,sans-Serif" font-size="11.00" fill="#000000">&lt; 1</text>
<polygon fill="#ffffff" stroke="transparent" points="47.5,-92.7 47.5,-111.7 100.5,-111.7 100.5,-92.7 47.5,-92.7"/>
<polygon fill="none" stroke="#000000" points="47.5,-92.7 47.5,-111.7 100.5,-111.7 100.5,-92.7 47.5,-92.7"/>
<text text-anchor="start" x="58.9956" y="-98.8" font-family="Helvetica,sans-Serif" font-size="11.00" fill="#000000">25 rows</text>
<polygon fill="#ffffff" stroke="transparent" points="100.5,-92.7 100.5,-111.7 131.5,-111.7 131.5,-92.7 100.5,-92.7"/>
<polygon fill="none" stroke="#000000" points="100.5,-92.7 100.5,-111.7 131.5,-111.7 131.5,-92.7 100.5,-92.7"/>
<text text-anchor="start" x="112.9053" y="-98.8" font-family="Helvetica,sans-Serif" font-size="11.00" fill="#000000">4 &gt;</text>
</a>
</g>
</g>
<!-- job_request&#45;&gt;ework_unit -->
<g id="edge2" class="edge">
<title>job_request:w&#45;&gt;ework_unit:e</title>
<path fill="none" stroke="#000000" d="M391.0103,-170.6692C382.3808,-164.7075 378.6081,-153.8024 364,-149.7 281.8449,-126.6281 256.1545,-135.5651 172,-149.7 153.218,-152.8547 150.5451,-163.7 131.5,-163.7"/>
<polygon fill="#000000" stroke="#000000" points="397.3127,-172.4851 404.0033,-178.1593 401.1564,-173.5925 405,-174.7 405,-174.7 405,-174.7 401.1564,-173.5925 405.9967,-171.2407 397.3127,-172.4851 397.3127,-172.4851"/>
<ellipse fill="none" stroke="#000000" cx="394.2378" cy="-171.5991" rx="3.2" ry="3.2"/>
</g>
<!-- rate_card&#45;&gt;ework_unit -->
<g id="edge3" class="edge">
<title>rate_card:w&#45;&gt;ework_unit:e</title>
<path fill="none" stroke="#000000" d="M168.02,-188.0395C155.3515,-180.4498 151.3491,-163.7 131.5,-163.7"/>
<polygon fill="#000000" stroke="#000000" points="174.2609,-189.6736 181.0881,-195.1826 178.1304,-190.6868 182,-191.7 182,-191.7 182,-191.7 178.1304,-190.6868 182.9119,-188.2174 174.2609,-189.6736 174.2609,-189.6736"/>
<ellipse fill="none" stroke="#000000" cx="171.1653" cy="-188.863" rx="3.2" ry="3.2"/>
</g>
</g>
</svg>
