<?xml version="1.0" encoding="UTF-8" standalone="no"?>
<!DOCTYPE svg PUBLIC "-//W3C//DTD SVG 1.1//EN"
 "http://www.w3.org/Graphics/SVG/1.1/DTD/svg11.dtd">
<!-- Generated by graphviz version 2.40.1 (20161225.0304)
 -->
<!-- Title: twoDegreesRelationshipsDiagram Pages: 1 -->
<svg width="1412pt" height="934pt"
 viewBox="0.00 0.00 1412.33 933.68" xmlns="http://www.w3.org/2000/svg" xmlns:xlink="http://www.w3.org/1999/xlink">
<g id="graph0" class="graph" transform="scale(1 1) rotate(0) translate(4 929.6802)">
<title>twoDegreesRelationshipsDiagram</title>
<polygon fill="#ffffff" stroke="transparent" points="-4,4 -4,-929.6802 1408.3315,-929.6802 1408.3315,4 -4,4"/>
<text text-anchor="middle" x="72.4936" y="-7.3" font-family="Helvetica,sans-Serif" font-size="11.00" fill="#000000">Generated by SchemaSpy</text>
<!-- client -->
<g id="node1" class="node">
<title>client</title>
<g id="a_node1"><a xlink:href="../../tables/client.html" xlink:title="client" target="_top">
<polygon fill="#ffffff" stroke="transparent" points="662.3315,-245.2 662.3315,-306.2 754.3315,-306.2 754.3315,-245.2 662.3315,-245.2"/>
<polygon fill="#f5f5f5" stroke="transparent" points="662.3315,-282.7 662.3315,-305.7 754.3315,-305.7 754.3315,-282.7 662.3315,-282.7"/>
<polygon fill="none" stroke="#000000" points="662.3315,-282.7 662.3315,-305.7 754.3315,-305.7 754.3315,-282.7 662.3315,-282.7"/>
<text text-anchor="start" x="667.3315" y="-291.8" font-family="Helvetica,sans-Serif" font-weight="bold" font-size="11.00" fill="#000000">client</text>
<text text-anchor="start" x="719.3752" y="-290.8" font-family="Helvetica,sans-Serif" font-size="11.00" fill="#000000">[table]</text>
<polygon fill="none" stroke="#000000" points="662.3315,-263.7 662.3315,-282.7 754.3315,-282.7 754.3315,-263.7 662.3315,-263.7"/>
<text text-anchor="start" x="665.3315" y="-269.8" font-family="Helvetica,sans-Serif" font-size="11.00" fill="#000000">...</text>
<polygon fill="#ffffff" stroke="transparent" points="662.3315,-244.7 662.3315,-263.7 683.3315,-263.7 683.3315,-244.7 662.3315,-244.7"/>
<polygon fill="none" stroke="#000000" points="662.3315,-244.7 662.3315,-263.7 683.3315,-263.7 683.3315,-244.7 662.3315,-244.7"/>
<text text-anchor="start" x="665.0341" y="-250.8" font-family="Helvetica,sans-Serif" font-size="11.00" fill="#000000">&lt; 9</text>
<polygon fill="#ffffff" stroke="transparent" points="683.3315,-244.7 683.3315,-263.7 733.3315,-263.7 733.3315,-244.7 683.3315,-244.7"/>
<polygon fill="none" stroke="#000000" points="683.3315,-244.7 683.3315,-263.7 733.3315,-263.7 733.3315,-244.7 683.3315,-244.7"/>
<text text-anchor="start" x="686.0218" y="-250.8" font-family="Helvetica,sans-Serif" font-size="11.00" fill="#000000">647 rows</text>
<polygon fill="#ffffff" stroke="transparent" points="733.3315,-244.7 733.3315,-263.7 754.3315,-263.7 754.3315,-244.7 733.3315,-244.7"/>
<polygon fill="none" stroke="#000000" points="733.3315,-244.7 733.3315,-263.7 754.3315,-263.7 754.3315,-244.7 733.3315,-244.7"/>
<text text-anchor="start" x="736.0341" y="-250.8" font-family="Helvetica,sans-Serif" font-size="11.00" fill="#000000">7 &gt;</text>
</a>
</g>
</g>
<!-- eworker -->
<g id="node2" class="node">
<title>eworker</title>
<g id="a_node2"><a xlink:href="../../tables/eworker.html" xlink:title="eworker" target="_top">
<polygon fill="#ffffff" stroke="transparent" points="479.3315,-293.2 479.3315,-354.2 571.3315,-354.2 571.3315,-293.2 479.3315,-293.2"/>
<polygon fill="#f5f5f5" stroke="transparent" points="479.3315,-330.7 479.3315,-353.7 571.3315,-353.7 571.3315,-330.7 479.3315,-330.7"/>
<polygon fill="none" stroke="#000000" points="479.3315,-330.7 479.3315,-353.7 571.3315,-353.7 571.3315,-330.7 479.3315,-330.7"/>
<text text-anchor="start" x="484.3315" y="-339.8" font-family="Helvetica,sans-Serif" font-weight="bold" font-size="11.00" fill="#000000">eworker</text>
<text text-anchor="start" x="536.3752" y="-338.8" font-family="Helvetica,sans-Serif" font-size="11.00" fill="#000000">[table]</text>
<polygon fill="none" stroke="#000000" points="479.3315,-311.7 479.3315,-330.7 571.3315,-330.7 571.3315,-311.7 479.3315,-311.7"/>
<text text-anchor="start" x="482.3315" y="-317.8" font-family="Helvetica,sans-Serif" font-size="11.00" fill="#000000">...</text>
<polygon fill="#ffffff" stroke="transparent" points="479.3315,-292.7 479.3315,-311.7 500.3315,-311.7 500.3315,-292.7 479.3315,-292.7"/>
<polygon fill="none" stroke="#000000" points="479.3315,-292.7 479.3315,-311.7 500.3315,-311.7 500.3315,-292.7 479.3315,-292.7"/>
<text text-anchor="start" x="482.0341" y="-298.8" font-family="Helvetica,sans-Serif" font-size="11.00" fill="#000000">&lt; 4</text>
<polygon fill="#ffffff" stroke="transparent" points="500.3315,-292.7 500.3315,-311.7 550.3315,-311.7 550.3315,-292.7 500.3315,-292.7"/>
<polygon fill="none" stroke="#000000" points="500.3315,-292.7 500.3315,-311.7 550.3315,-311.7 550.3315,-292.7 500.3315,-292.7"/>
<text text-anchor="start" x="503.0218" y="-298.8" font-family="Helvetica,sans-Serif" font-size="11.00" fill="#000000">347 rows</text>
<polygon fill="#ffffff" stroke="transparent" points="550.3315,-292.7 550.3315,-311.7 571.3315,-311.7 571.3315,-292.7 550.3315,-292.7"/>
<polygon fill="none" stroke="#000000" points="550.3315,-292.7 550.3315,-311.7 571.3315,-311.7 571.3315,-292.7 550.3315,-292.7"/>
<text text-anchor="start" x="553.0341" y="-298.8" font-family="Helvetica,sans-Serif" font-size="11.00" fill="#000000">9 &gt;</text>
</a>
</g>
</g>
<!-- client&#45;&gt;eworker -->
<g id="edge1" class="edge">
<title>client:w&#45;&gt;eworker:e</title>
<path fill="none" stroke="#000000" d="M648.0098,-270.4883C616.0773,-270.4693 611.6989,-309.2234 571.3315,-320.7"/>
<polygon fill="#000000" stroke="#000000" points="654.4252,-271.479 661.782,-276.2578 658.3783,-272.0895 662.3315,-272.7 662.3315,-272.7 662.3315,-272.7 658.3783,-272.0895 662.8809,-269.1422 654.4252,-271.479 654.4252,-271.479"/>
<ellipse fill="none" stroke="#000000" cx="651.2627" cy="-270.9906" rx="3.2" ry="3.2"/>
</g>
<!-- client&#45;&gt;eworker -->
<g id="edge2" class="edge">
<title>client:w&#45;&gt;eworker:e</title>
<path fill="none" stroke="#000000" d="M648.0098,-274.523C616.0773,-283.2908 611.6989,-320.7 571.3315,-320.7"/>
<polygon fill="#000000" stroke="#000000" points="654.3955,-273.7102 662.7861,-276.2712 658.3635,-273.2051 662.3315,-272.7 662.3315,-272.7 662.3315,-272.7 658.3635,-273.2051 661.8769,-269.1288 654.3955,-273.7102 654.3955,-273.7102"/>
<ellipse fill="none" stroke="#000000" cx="651.2211" cy="-274.1143" rx="3.2" ry="3.2"/>
</g>
<!-- client&#45;&gt;eworker -->
<g id="edge5" class="edge">
<title>client:w&#45;&gt;eworker:e</title>
<path fill="none" stroke="#000000" d="M648.8641,-278.0961C616.1519,-295.4703 612.0562,-332.2781 571.3315,-320.7"/>
<polygon fill="#000000" stroke="#000000" points="654.9054,-275.6755 663.6705,-276.0417 658.6184,-274.1878 662.3315,-272.7 662.3315,-272.7 662.3315,-272.7 658.6184,-274.1878 660.9925,-269.3583 654.9054,-275.6755 654.9054,-275.6755"/>
<ellipse fill="none" stroke="#000000" cx="651.935" cy="-276.8657" rx="3.2" ry="3.2"/>
</g>
<!-- principal -->
<g id="node3" class="node">
<title>principal</title>
<g id="a_node3"><a xlink:href="../../tables/principal.html" xlink:title="principal" target="_top">
<polygon fill="#ffffff" stroke="transparent" points="22.3315,-235.2 22.3315,-296.2 114.3315,-296.2 114.3315,-235.2 22.3315,-235.2"/>
<polygon fill="#f5f5f5" stroke="transparent" points="22.3315,-272.7 22.3315,-295.7 114.3315,-295.7 114.3315,-272.7 22.3315,-272.7"/>
<polygon fill="none" stroke="#000000" points="22.3315,-272.7 22.3315,-295.7 114.3315,-295.7 114.3315,-272.7 22.3315,-272.7"/>
<text text-anchor="start" x="27.3315" y="-281.8" font-family="Helvetica,sans-Serif" font-weight="bold" font-size="11.00" fill="#000000">principal</text>
<text text-anchor="start" x="79.3752" y="-280.8" font-family="Helvetica,sans-Serif" font-size="11.00" fill="#000000">[table]</text>
<polygon fill="none" stroke="#000000" points="22.3315,-253.7 22.3315,-272.7 114.3315,-272.7 114.3315,-253.7 22.3315,-253.7"/>
<text text-anchor="start" x="25.3315" y="-259.8" font-family="Helvetica,sans-Serif" font-size="11.00" fill="#000000">...</text>
<polygon fill="#ffffff" stroke="transparent" points="22.3315,-234.7 22.3315,-253.7 43.3315,-253.7 43.3315,-234.7 22.3315,-234.7"/>
<polygon fill="none" stroke="#000000" points="22.3315,-234.7 22.3315,-253.7 43.3315,-253.7 43.3315,-234.7 22.3315,-234.7"/>
<text text-anchor="start" x="25.0341" y="-240.8" font-family="Helvetica,sans-Serif" font-size="11.00" fill="#000000">&lt; 1</text>
<polygon fill="#ffffff" stroke="transparent" points="43.3315,-234.7 43.3315,-253.7 87.3315,-253.7 87.3315,-234.7 43.3315,-234.7"/>
<polygon fill="none" stroke="#000000" points="43.3315,-234.7 43.3315,-253.7 87.3315,-253.7 87.3315,-234.7 43.3315,-234.7"/>
<text text-anchor="start" x="46.0793" y="-240.8" font-family="Helvetica,sans-Serif" font-size="11.00" fill="#000000">18 rows</text>
<polygon fill="#ffffff" stroke="transparent" points="87.3315,-234.7 87.3315,-253.7 114.3315,-253.7 114.3315,-234.7 87.3315,-234.7"/>
<polygon fill="none" stroke="#000000" points="87.3315,-234.7 87.3315,-253.7 114.3315,-253.7 114.3315,-234.7 87.3315,-234.7"/>
<text text-anchor="start" x="89.9767" y="-240.8" font-family="Helvetica,sans-Serif" font-size="11.00" fill="#000000">56 &gt;</text>
</a>
</g>
</g>
<!-- client&#45;&gt;principal -->
<g id="edge3" class="edge">
<title>client:w&#45;&gt;principal:e</title>
<path fill="none" stroke="#000000" d="M647.9183,-272.6881C416.2274,-272.3036 353.0509,-262.7 114.3315,-262.7"/>
<polygon fill="#000000" stroke="#000000" points="654.3315,-272.6934 662.3285,-276.3 658.3315,-272.6967 662.3315,-272.7 662.3315,-272.7 662.3315,-272.7 658.3315,-272.6967 662.3345,-269.1 654.3315,-272.6934 654.3315,-272.6934"/>
<ellipse fill="none" stroke="#000000" cx="651.1315" cy="-272.6907" rx="3.2" ry="3.2"/>
</g>
<!-- client&#45;&gt;principal -->
<g id="edge4" class="edge">
<title>client:w&#45;&gt;principal:e</title>
<path fill="none" stroke="#000000" d="M647.9183,-272.6881C416.2274,-272.3036 353.0509,-262.7 114.3315,-262.7"/>
<polygon fill="#000000" stroke="#000000" points="654.3315,-272.6934 662.3285,-276.3 658.3315,-272.6967 662.3315,-272.7 662.3315,-272.7 662.3315,-272.7 658.3315,-272.6967 662.3345,-269.1 654.3315,-272.6934 654.3315,-272.6934"/>
<ellipse fill="none" stroke="#000000" cx="651.1315" cy="-272.6907" rx="3.2" ry="3.2"/>
</g>
<!-- eworker&#45;&gt;principal -->
<g id="edge14" class="edge">
<title>eworker:w&#45;&gt;principal:e</title>
<path fill="none" stroke="#000000" d="M464.8092,-320.678C331.4008,-320.2543 291.1965,-313.4628 155.3315,-278.7 136.3813,-273.8514 133.8921,-262.7 114.3315,-262.7"/>
<polygon fill="#000000" stroke="#000000" points="471.3315,-320.6878 479.326,-324.3 475.3315,-320.6939 479.3315,-320.7 479.3315,-320.7 479.3315,-320.7 475.3315,-320.6939 479.337,-317.1 471.3315,-320.6878 471.3315,-320.6878"/>
<ellipse fill="none" stroke="#000000" cx="468.1315" cy="-320.6829" rx="3.2" ry="3.2"/>
</g>
<!-- eworker&#45;&gt;principal -->
<g id="edge15" class="edge">
<title>eworker:w&#45;&gt;principal:e</title>
<path fill="none" stroke="#000000" d="M464.7914,-320.6465C331.2759,-319.638 292.6333,-304.3787 155.3315,-274.7 136.7734,-270.6885 133.3181,-262.7 114.3315,-262.7"/>
<polygon fill="#000000" stroke="#000000" points="471.3315,-320.6705 479.3182,-324.3 475.3315,-320.6852 479.3315,-320.7 479.3315,-320.7 479.3315,-320.7 475.3315,-320.6852 479.3448,-317.1 471.3315,-320.6705 471.3315,-320.6705"/>
<ellipse fill="none" stroke="#000000" cx="468.1315" cy="-320.6587" rx="3.2" ry="3.2"/>
</g>
<!-- ework_unit -->
<g id="node6" class="node">
<title>ework_unit</title>
<g id="a_node6"><a xlink:href="../../tables/ework_unit.html" xlink:title="ework_unit" target="_top">
<polygon fill="#ffffff" stroke="transparent" points="307.3315,-350.2 307.3315,-455.2 430.3315,-455.2 430.3315,-350.2 307.3315,-350.2"/>
<polygon fill="#f5f5f5" stroke="transparent" points="307.8315,-431.7 307.8315,-454.7 430.8315,-454.7 430.8315,-431.7 307.8315,-431.7"/>
<polygon fill="none" stroke="#000000" points="307.8315,-431.7 307.8315,-454.7 430.8315,-454.7 430.8315,-431.7 307.8315,-431.7"/>
<text text-anchor="start" x="312.8315" y="-440.8" font-family="Helvetica,sans-Serif" font-weight="bold" font-size="11.00" fill="#000000">ework_unit</text>
<text text-anchor="start" x="395.8752" y="-439.8" font-family="Helvetica,sans-Serif" font-size="11.00" fill="#000000">[table]</text>
<polygon fill="none" stroke="#000000" points="307.8315,-409.7 307.8315,-431.7 430.8315,-431.7 430.8315,-409.7 307.8315,-409.7"/>
<image xlink:href="../../images/primaryKeys.png" width="11px" height="12px" preserveAspectRatio="xMinYMin meet" x="312.831" y="-426.7"/>
<text text-anchor="start" x="327.8315" y="-416.8" font-family="Helvetica,sans-Serif" font-size="11.00" fill="#000000">id</text>
<polygon fill="#ffffff" stroke="transparent" points="307.8315,-387.7 307.8315,-409.7 430.8315,-409.7 430.8315,-387.7 307.8315,-387.7"/>
<polygon fill="none" stroke="#000000" points="307.8315,-387.7 307.8315,-409.7 430.8315,-409.7 430.8315,-387.7 307.8315,-387.7"/>
<image xlink:href="../../images/foreignKeys.png" width="11px" height="12px" preserveAspectRatio="xMinYMin meet" x="312.831" y="-404.7"/>
<text text-anchor="start" x="327.8315" y="-394.8" font-family="Helvetica,sans-Serif" font-size="11.00" fill="#000000">site_id</text>
<polygon fill="none" stroke="#000000" points="307.8315,-368.7 307.8315,-387.7 430.8315,-387.7 430.8315,-368.7 307.8315,-368.7"/>
<text text-anchor="start" x="310.8315" y="-374.8" font-family="Helvetica,sans-Serif" font-size="11.00" fill="#000000">...</text>
<polygon fill="#ffffff" stroke="transparent" points="307.8315,-349.7 307.8315,-368.7 346.8315,-368.7 346.8315,-349.7 307.8315,-349.7"/>
<polygon fill="none" stroke="#000000" points="307.8315,-349.7 307.8315,-368.7 346.8315,-368.7 346.8315,-349.7 307.8315,-349.7"/>
<text text-anchor="start" x="310.8315" y="-355.8" font-family="Helvetica,sans-Serif" font-size="11.00" fill="#000000">&lt; 1</text>
<polygon fill="#ffffff" stroke="transparent" points="346.8315,-349.7 346.8315,-368.7 399.8315,-368.7 399.8315,-349.7 346.8315,-349.7"/>
<polygon fill="none" stroke="#000000" points="346.8315,-349.7 346.8315,-368.7 399.8315,-368.7 399.8315,-349.7 346.8315,-349.7"/>
<text text-anchor="start" x="358.3271" y="-355.8" font-family="Helvetica,sans-Serif" font-size="11.00" fill="#000000">25 rows</text>
<polygon fill="#ffffff" stroke="transparent" points="399.8315,-349.7 399.8315,-368.7 430.8315,-368.7 430.8315,-349.7 399.8315,-349.7"/>
<polygon fill="none" stroke="#000000" points="399.8315,-349.7 399.8315,-368.7 430.8315,-368.7 430.8315,-349.7 399.8315,-349.7"/>
<text text-anchor="start" x="412.2368" y="-355.8" font-family="Helvetica,sans-Serif" font-size="11.00" fill="#000000">4 &gt;</text>
</a>
</g>
</g>
<!-- eworker&#45;&gt;ework_unit -->
<g id="edge16" class="edge">
<title>eworker:w&#45;&gt;ework_unit:e</title>
<path fill="none" stroke="#000000" d="M465.4182,-324.744C440.6539,-343.4524 474.2458,-420.7 430.8315,-420.7"/>
<polygon fill="#000000" stroke="#000000" points="471.6494,-322.9329 480.3363,-324.1569 475.4904,-321.8164 479.3315,-320.7 479.3315,-320.7 479.3315,-320.7 475.4904,-321.8164 478.3267,-317.2431 471.6494,-322.9329 471.6494,-322.9329"/>
<ellipse fill="none" stroke="#000000" cx="468.5766" cy="-323.826" rx="3.2" ry="3.2"/>
</g>
<!-- principal&#45;&gt;eworker -->
<g id="edge44" class="edge">
<title>principal:w&#45;&gt;eworker:e</title>
<path fill="none" stroke="#000000" d="M8.8517,-256.962C-12.3751,-236.6982 -2.6061,-172.7771 122.3315,-231.2 143.0537,-240.8901 134.8861,-260.4387 155.3315,-270.7 212.6198,-299.4523 235.3037,-275.6858 299.3315,-278.7 314.4371,-279.4111 560.8466,-278.3026 571.3315,-289.2 581.0382,-299.2886 585.3315,-320.7 571.3315,-320.7"/>
<polygon fill="#000000" stroke="#000000" points="14.9706,-259.5667 20.9215,-266.0124 18.651,-261.1333 22.3315,-262.7 22.3315,-262.7 22.3315,-262.7 18.651,-261.1333 23.7415,-259.3876 14.9706,-259.5667 14.9706,-259.5667"/>
<ellipse fill="none" stroke="#000000" cx="12.0262" cy="-258.3133" rx="3.2" ry="3.2"/>
</g>
<!-- client_contact -->
<g id="node4" class="node">
<title>client_contact</title>
<g id="a_node4"><a xlink:href="../../tables/client_contact.html" xlink:title="client_contact" target="_top">
<polygon fill="#ffffff" stroke="transparent" points="853.8315,-187.2 853.8315,-248.2 963.8315,-248.2 963.8315,-187.2 853.8315,-187.2"/>
<polygon fill="#f5f5f5" stroke="transparent" points="853.8315,-224.7 853.8315,-247.7 963.8315,-247.7 963.8315,-224.7 853.8315,-224.7"/>
<polygon fill="none" stroke="#000000" points="853.8315,-224.7 853.8315,-247.7 963.8315,-247.7 963.8315,-224.7 853.8315,-224.7"/>
<text text-anchor="start" x="858.7105" y="-233.8" font-family="Helvetica,sans-Serif" font-weight="bold" font-size="11.00" fill="#000000">client_contact</text>
<text text-anchor="start" x="929.3533" y="-232.8" font-family="Helvetica,sans-Serif" font-size="11.00" fill="#000000">[table]</text>
<polygon fill="none" stroke="#000000" points="853.8315,-205.7 853.8315,-224.7 963.8315,-224.7 963.8315,-205.7 853.8315,-205.7"/>
<text text-anchor="start" x="856.8315" y="-211.8" font-family="Helvetica,sans-Serif" font-size="11.00" fill="#000000">...</text>
<polygon fill="#ffffff" stroke="transparent" points="853.8315,-186.7 853.8315,-205.7 883.8315,-205.7 883.8315,-186.7 853.8315,-186.7"/>
<polygon fill="none" stroke="#000000" points="853.8315,-186.7 853.8315,-205.7 883.8315,-205.7 883.8315,-186.7 853.8315,-186.7"/>
<text text-anchor="start" x="856.8315" y="-192.8" font-family="Helvetica,sans-Serif" font-size="11.00" fill="#000000">&lt; 4</text>
<polygon fill="#ffffff" stroke="transparent" points="883.8315,-186.7 883.8315,-205.7 937.8315,-205.7 937.8315,-186.7 883.8315,-186.7"/>
<polygon fill="none" stroke="#000000" points="883.8315,-186.7 883.8315,-205.7 937.8315,-205.7 937.8315,-186.7 883.8315,-186.7"/>
<text text-anchor="start" x="890.2122" y="-192.8" font-family="Helvetica,sans-Serif" font-size="11.00" fill="#000000">561 rows</text>
<polygon fill="#ffffff" stroke="transparent" points="937.8315,-186.7 937.8315,-205.7 963.8315,-205.7 963.8315,-186.7 937.8315,-186.7"/>
<polygon fill="none" stroke="#000000" points="937.8315,-186.7 937.8315,-205.7 963.8315,-205.7 963.8315,-186.7 937.8315,-186.7"/>
<text text-anchor="start" x="945.2368" y="-192.8" font-family="Helvetica,sans-Serif" font-size="11.00" fill="#000000">2 &gt;</text>
</a>
</g>
</g>
<!-- client_contact&#45;&gt;client -->
<g id="edge6" class="edge">
<title>client_contact:w&#45;&gt;client:e</title>
<path fill="none" stroke="#000000" d="M839.3128,-216.4994C802.6494,-226.2892 800.1198,-272.7 754.3315,-272.7"/>
<polygon fill="#000000" stroke="#000000" points="845.8922,-215.684 854.2743,-218.2727 849.8618,-215.192 853.8315,-214.7 853.8315,-214.7 853.8315,-214.7 849.8618,-215.192 853.3887,-211.1273 845.8922,-215.684 845.8922,-215.684"/>
<ellipse fill="none" stroke="#000000" cx="842.7165" cy="-216.0776" rx="3.2" ry="3.2"/>
</g>
<!-- client_contact&#45;&gt;principal -->
<g id="edge7" class="edge">
<title>client_contact:w&#45;&gt;principal:e</title>
<path fill="none" stroke="#000000" d="M839.2358,-214.7C705.2084,-214.7 666.3412,-214.7 525.3315,-214.7 525.3315,-214.7 525.3315,-214.7 368.8315,-214.7 253.7262,-214.7 229.4368,-262.7 114.3315,-262.7"/>
<polygon fill="#000000" stroke="#000000" points="845.8315,-214.7001 853.8315,-218.3 849.8315,-214.7 853.8315,-214.7 853.8315,-214.7 853.8315,-214.7 849.8315,-214.7 853.8314,-211.1 845.8315,-214.7001 845.8315,-214.7001"/>
<ellipse fill="none" stroke="#000000" cx="842.6315" cy="-214.7001" rx="3.2" ry="3.2"/>
</g>
<!-- client_contact&#45;&gt;principal -->
<g id="edge8" class="edge">
<title>client_contact:w&#45;&gt;principal:e</title>
<path fill="none" stroke="#000000" d="M839.0444,-214.7327C521.9706,-216.1421 438.7044,-262.7 114.3315,-262.7"/>
<polygon fill="#000000" stroke="#000000" points="845.8315,-214.7177 853.8394,-218.3 849.8315,-214.7089 853.8315,-214.7 853.8315,-214.7 853.8315,-214.7 849.8315,-214.7089 853.8235,-211.1 845.8315,-214.7177 845.8315,-214.7177"/>
<ellipse fill="none" stroke="#000000" cx="842.6315" cy="-214.7248" rx="3.2" ry="3.2"/>
</g>
<!-- client_ework_unit -->
<g id="node5" class="node">
<title>client_ework_unit</title>
<g id="a_node5"><a xlink:href="../../tables/client_ework_unit.html" xlink:title="client_ework_unit" target="_top">
<polygon fill="#ffffff" stroke="transparent" points="845.3315,-434.2 845.3315,-495.2 972.3315,-495.2 972.3315,-434.2 845.3315,-434.2"/>
<polygon fill="#f5f5f5" stroke="transparent" points="845.8315,-471.7 845.8315,-494.7 972.8315,-494.7 972.8315,-471.7 845.8315,-471.7"/>
<polygon fill="none" stroke="#000000" points="845.8315,-471.7 845.8315,-494.7 972.8315,-494.7 972.8315,-471.7 845.8315,-471.7"/>
<text text-anchor="start" x="850.3522" y="-480.8" font-family="Helvetica,sans-Serif" font-weight="bold" font-size="11.00" fill="#000000">client_ework_unit</text>
<text text-anchor="start" x="938.3533" y="-479.8" font-family="Helvetica,sans-Serif" font-size="11.00" fill="#000000">[table]</text>
<polygon fill="none" stroke="#000000" points="845.8315,-452.7 845.8315,-471.7 972.8315,-471.7 972.8315,-452.7 845.8315,-452.7"/>
<text text-anchor="start" x="848.8315" y="-458.8" font-family="Helvetica,sans-Serif" font-size="11.00" fill="#000000">...</text>
<polygon fill="#ffffff" stroke="transparent" points="845.8315,-433.7 845.8315,-452.7 891.8315,-452.7 891.8315,-433.7 845.8315,-433.7"/>
<polygon fill="none" stroke="#000000" points="845.8315,-433.7 845.8315,-452.7 891.8315,-452.7 891.8315,-433.7 845.8315,-433.7"/>
<text text-anchor="start" x="848.8315" y="-439.8" font-family="Helvetica,sans-Serif" font-size="11.00" fill="#000000">&lt; 2</text>
<polygon fill="#ffffff" stroke="transparent" points="891.8315,-433.7 891.8315,-452.7 947.8315,-452.7 947.8315,-433.7 891.8315,-433.7"/>
<polygon fill="none" stroke="#000000" points="891.8315,-433.7 891.8315,-452.7 947.8315,-452.7 947.8315,-433.7 891.8315,-433.7"/>
<text text-anchor="start" x="906.3271" y="-439.8" font-family="Helvetica,sans-Serif" font-size="11.00" fill="#000000">16 rows</text>
<polygon fill="#ffffff" stroke="transparent" points="947.8315,-433.7 947.8315,-452.7 972.8315,-452.7 972.8315,-433.7 947.8315,-433.7"/>
<polygon fill="none" stroke="#000000" points="947.8315,-433.7 947.8315,-452.7 972.8315,-452.7 972.8315,-433.7 947.8315,-433.7"/>
<text text-anchor="start" x="963.7177" y="-439.8" font-family="Helvetica,sans-Serif" font-size="11.00" fill="#000000"> &#160;</text>
</a>
</g>
</g>
<!-- client_ework_unit&#45;&gt;client -->
<g id="edge9" class="edge">
<title>client_ework_unit:w&#45;&gt;client:e</title>
<path fill="none" stroke="#000000" d="M832.5713,-455.8364C799.0142,-423.9352 796.0731,-272.7 754.3315,-272.7"/>
<polygon fill="#000000" stroke="#000000" points="838.5149,-458.4646 844.3755,-464.9925 842.1732,-460.0823 845.8315,-461.7 845.8315,-461.7 845.8315,-461.7 842.1732,-460.0823 847.2874,-458.4075 838.5149,-458.4646 838.5149,-458.4646"/>
<ellipse fill="none" stroke="#000000" cx="835.5883" cy="-457.1704" rx="3.2" ry="3.2"/>
</g>
<!-- client_ework_unit&#45;&gt;ework_unit -->
<g id="edge10" class="edge">
<title>client_ework_unit:w&#45;&gt;ework_unit:e</title>
<path fill="none" stroke="#000000" d="M831.1988,-461.6129C658.0072,-459.5274 611.1964,-420.7 430.8315,-420.7"/>
<polygon fill="#000000" stroke="#000000" points="837.8316,-461.6523 845.81,-465.2999 841.8315,-461.6762 845.8315,-461.7 845.8315,-461.7 845.8315,-461.7 841.8315,-461.6762 845.8529,-458.1001 837.8316,-461.6523 837.8316,-461.6523"/>
<ellipse fill="none" stroke="#000000" cx="834.6317" cy="-461.6332" rx="3.2" ry="3.2"/>
</g>
<!-- ework_site -->
<g id="node7" class="node">
<title>ework_site</title>
<g id="a_node7"><a xlink:href="../../tables/ework_site.html" xlink:title="ework_site" target="_top">
<polygon fill="#ffffff" stroke="transparent" points="163.3315,-344.2 163.3315,-405.2 258.3315,-405.2 258.3315,-344.2 163.3315,-344.2"/>
<polygon fill="#f5f5f5" stroke="transparent" points="163.8315,-381.7 163.8315,-404.7 258.8315,-404.7 258.8315,-381.7 163.8315,-381.7"/>
<polygon fill="none" stroke="#000000" points="163.8315,-381.7 163.8315,-404.7 258.8315,-404.7 258.8315,-381.7 163.8315,-381.7"/>
<text text-anchor="start" x="168.5514" y="-390.8" font-family="Helvetica,sans-Serif" font-weight="bold" font-size="11.00" fill="#000000">ework_site</text>
<text text-anchor="start" x="224.3533" y="-389.8" font-family="Helvetica,sans-Serif" font-size="11.00" fill="#000000">[table]</text>
<polygon fill="none" stroke="#000000" points="163.8315,-362.7 163.8315,-381.7 258.8315,-381.7 258.8315,-362.7 163.8315,-362.7"/>
<text text-anchor="start" x="166.8315" y="-368.8" font-family="Helvetica,sans-Serif" font-size="11.00" fill="#000000">...</text>
<polygon fill="#ffffff" stroke="transparent" points="163.8315,-343.7 163.8315,-362.7 191.8315,-362.7 191.8315,-343.7 163.8315,-343.7"/>
<polygon fill="none" stroke="#000000" points="163.8315,-343.7 163.8315,-362.7 191.8315,-362.7 191.8315,-343.7 163.8315,-343.7"/>
<text text-anchor="start" x="166.8315" y="-349.8" font-family="Helvetica,sans-Serif" font-size="11.00" fill="#000000">&lt; 3</text>
<polygon fill="#ffffff" stroke="transparent" points="191.8315,-343.7 191.8315,-362.7 233.8315,-362.7 233.8315,-343.7 191.8315,-343.7"/>
<polygon fill="none" stroke="#000000" points="191.8315,-343.7 191.8315,-362.7 233.8315,-362.7 233.8315,-343.7 191.8315,-343.7"/>
<text text-anchor="start" x="198.442" y="-349.8" font-family="Helvetica,sans-Serif" font-size="11.00" fill="#000000">9 rows</text>
<polygon fill="#ffffff" stroke="transparent" points="233.8315,-343.7 233.8315,-362.7 258.8315,-362.7 258.8315,-343.7 233.8315,-343.7"/>
<polygon fill="none" stroke="#000000" points="233.8315,-343.7 233.8315,-362.7 258.8315,-362.7 258.8315,-343.7 233.8315,-343.7"/>
<text text-anchor="start" x="240.2368" y="-349.8" font-family="Helvetica,sans-Serif" font-size="11.00" fill="#000000">1 &gt;</text>
</a>
</g>
</g>
<!-- ework_unit&#45;&gt;ework_site -->
<g id="edge13" class="edge">
<title>ework_unit:w&#45;&gt;ework_site:e</title>
<path fill="none" stroke="#000000" d="M293.9071,-394.9458C281.9027,-387.5269 277.8688,-371.7 258.8315,-371.7"/>
<polygon fill="#000000" stroke="#000000" points="300.1073,-396.6174 306.8943,-402.1759 303.9694,-397.6587 307.8315,-398.7 307.8315,-398.7 307.8315,-398.7 303.9694,-397.6587 308.7686,-395.2241 300.1073,-396.6174 300.1073,-396.6174"/>
<ellipse fill="none" stroke="#000000" cx="297.0176" cy="-395.7844" rx="3.2" ry="3.2"/>
</g>
<!-- ework_site&#45;&gt;principal -->
<g id="edge11" class="edge">
<title>ework_site:w&#45;&gt;principal:e</title>
<path fill="none" stroke="#000000" d="M150.0371,-366.32C121.7577,-343.232 161.7179,-257.3563 114.3315,-262.7"/>
<polygon fill="#000000" stroke="#000000" points="156.3783,-368.7931 162.5234,-375.0539 160.1049,-370.2465 163.8315,-371.7 163.8315,-371.7 163.8315,-371.7 160.1049,-370.2465 165.1396,-368.3461 156.3783,-368.7931 156.3783,-368.7931"/>
<ellipse fill="none" stroke="#000000" cx="153.397" cy="-367.6303" rx="3.2" ry="3.2"/>
</g>
<!-- ework_site&#45;&gt;principal -->
<g id="edge12" class="edge">
<title>ework_site:w&#45;&gt;principal:e</title>
<path fill="none" stroke="#000000" d="M149.3086,-369.7327C122.4521,-354.5539 161.3023,-268.8797 114.3315,-262.7"/>
<polygon fill="#000000" stroke="#000000" points="155.9039,-370.6261 163.3482,-375.2674 159.8677,-371.163 163.8315,-371.7 163.8315,-371.7 163.8315,-371.7 159.8677,-371.163 164.3147,-368.1326 155.9039,-370.6261 155.9039,-370.6261"/>
<ellipse fill="none" stroke="#000000" cx="152.7328" cy="-370.1965" rx="3.2" ry="3.2"/>
</g>
<!-- job_ad -->
<g id="node8" class="node">
<title>job_ad</title>
<g id="a_node8"><a xlink:href="../../tables/job_ad.html" xlink:title="job_ad" target="_top">
<polygon fill="#ffffff" stroke="transparent" points="1273.3315,-799.2 1273.3315,-860.2 1359.3315,-860.2 1359.3315,-799.2 1273.3315,-799.2"/>
<polygon fill="#f5f5f5" stroke="transparent" points="1273.3315,-836.7 1273.3315,-859.7 1359.3315,-859.7 1359.3315,-836.7 1273.3315,-836.7"/>
<polygon fill="none" stroke="#000000" points="1273.3315,-836.7 1273.3315,-859.7 1359.3315,-859.7 1359.3315,-836.7 1273.3315,-836.7"/>
<text text-anchor="start" x="1278.3315" y="-845.8" font-family="Helvetica,sans-Serif" font-weight="bold" font-size="11.00" fill="#000000">job_ad</text>
<text text-anchor="start" x="1324.3752" y="-844.8" font-family="Helvetica,sans-Serif" font-size="11.00" fill="#000000">[table]</text>
<polygon fill="none" stroke="#000000" points="1273.3315,-817.7 1273.3315,-836.7 1359.3315,-836.7 1359.3315,-817.7 1273.3315,-817.7"/>
<text text-anchor="start" x="1276.3315" y="-823.8" font-family="Helvetica,sans-Serif" font-size="11.00" fill="#000000">...</text>
<polygon fill="#ffffff" stroke="transparent" points="1273.3315,-798.7 1273.3315,-817.7 1294.3315,-817.7 1294.3315,-798.7 1273.3315,-798.7"/>
<polygon fill="none" stroke="#000000" points="1273.3315,-798.7 1273.3315,-817.7 1294.3315,-817.7 1294.3315,-798.7 1273.3315,-798.7"/>
<text text-anchor="start" x="1276.0341" y="-804.8" font-family="Helvetica,sans-Serif" font-size="11.00" fill="#000000">&lt; 4</text>
<polygon fill="#ffffff" stroke="transparent" points="1294.3315,-798.7 1294.3315,-817.7 1338.3315,-817.7 1338.3315,-798.7 1294.3315,-798.7"/>
<polygon fill="none" stroke="#000000" points="1294.3315,-798.7 1294.3315,-817.7 1338.3315,-817.7 1338.3315,-798.7 1294.3315,-798.7"/>
<text text-anchor="start" x="1297.0793" y="-804.8" font-family="Helvetica,sans-Serif" font-size="11.00" fill="#000000">34 rows</text>
<polygon fill="#ffffff" stroke="transparent" points="1338.3315,-798.7 1338.3315,-817.7 1359.3315,-817.7 1359.3315,-798.7 1338.3315,-798.7"/>
<polygon fill="none" stroke="#000000" points="1338.3315,-798.7 1338.3315,-817.7 1359.3315,-817.7 1359.3315,-798.7 1338.3315,-798.7"/>
<text text-anchor="start" x="1341.0341" y="-804.8" font-family="Helvetica,sans-Serif" font-size="11.00" fill="#000000">2 &gt;</text>
</a>
</g>
</g>
<!-- job_ad&#45;&gt;principal -->
<g id="edge17" class="edge">
<title>job_ad:w&#45;&gt;principal:e</title>
<path fill="none" stroke="#000000" d="M1258.9215,-826.7593C1108.5081,-828.0119 1066.2131,-848.7 908.8315,-848.7 908.8315,-848.7 908.8315,-848.7 368.8315,-848.7 262.8911,-848.7 214.9387,-830.2805 155.3315,-742.7 125.2143,-698.449 167.859,-262.7 114.3315,-262.7"/>
<polygon fill="#000000" stroke="#000000" points="1265.3315,-826.733 1273.3463,-830.3 1269.3315,-826.7165 1273.3315,-826.7 1273.3315,-826.7 1273.3315,-826.7 1269.3315,-826.7165 1273.3166,-823.1 1265.3315,-826.733 1265.3315,-826.733"/>
<ellipse fill="none" stroke="#000000" cx="1262.1316" cy="-826.7461" rx="3.2" ry="3.2"/>
</g>
<!-- job_ad&#45;&gt;principal -->
<g id="edge20" class="edge">
<title>job_ad:w&#45;&gt;principal:e</title>
<path fill="none" stroke="#000000" d="M1258.7927,-826.7771C769.524,-831.9586 496.3391,-1095.5104 155.3315,-738.7 118.6544,-700.3232 167.4162,-262.7 114.3315,-262.7"/>
<polygon fill="#000000" stroke="#000000" points="1265.3316,-826.7425 1273.3506,-830.2999 1269.3315,-826.7212 1273.3315,-826.7 1273.3315,-826.7 1273.3315,-826.7 1269.3315,-826.7212 1273.3124,-823.1001 1265.3316,-826.7425 1265.3316,-826.7425"/>
<ellipse fill="none" stroke="#000000" cx="1262.1316" cy="-826.7594" rx="3.2" ry="3.2"/>
</g>
<!-- job_request -->
<g id="node9" class="node">
<title>job_request</title>
<g id="a_node9"><a xlink:href="../../tables/job_request.html" xlink:title="job_request" target="_top">
<polygon fill="#ffffff" stroke="transparent" points="1021.3315,-395.2 1021.3315,-720.2 1187.3315,-720.2 1187.3315,-395.2 1021.3315,-395.2"/>
<polygon fill="#f5f5f5" stroke="transparent" points="1021.3315,-696.7 1021.3315,-719.7 1187.3315,-719.7 1187.3315,-696.7 1021.3315,-696.7"/>
<polygon fill="none" stroke="#000000" points="1021.3315,-696.7 1021.3315,-719.7 1187.3315,-719.7 1187.3315,-696.7 1021.3315,-696.7"/>
<text text-anchor="start" x="1026.3315" y="-705.8" font-family="Helvetica,sans-Serif" font-weight="bold" font-size="11.00" fill="#000000">job_request</text>
<text text-anchor="start" x="1152.3752" y="-704.8" font-family="Helvetica,sans-Serif" font-size="11.00" fill="#000000">[table]</text>
<polygon fill="none" stroke="#000000" points="1021.3315,-674.7 1021.3315,-696.7 1187.3315,-696.7 1187.3315,-674.7 1021.3315,-674.7"/>
<image xlink:href="../../images/primaryKeys.png" width="11px" height="12px" preserveAspectRatio="xMinYMin meet" x="1026.33" y="-691.7"/>
<text text-anchor="start" x="1041.3315" y="-681.8" font-family="Helvetica,sans-Serif" font-size="11.00" fill="#000000">id</text>
<polygon fill="#ffffff" stroke="transparent" points="1021.3315,-652.7 1021.3315,-674.7 1187.3315,-674.7 1187.3315,-652.7 1021.3315,-652.7"/>
<polygon fill="none" stroke="#000000" points="1021.3315,-652.7 1021.3315,-674.7 1187.3315,-674.7 1187.3315,-652.7 1021.3315,-652.7"/>
<image xlink:href="../../images/foreignKeys.png" width="11px" height="12px" preserveAspectRatio="xMinYMin meet" x="1026.33" y="-669.7"/>
<text text-anchor="start" x="1041.3315" y="-659.8" font-family="Helvetica,sans-Serif" font-size="11.00" fill="#000000">created_by</text>
<polygon fill="#ffffff" stroke="transparent" points="1021.3315,-630.7 1021.3315,-652.7 1187.3315,-652.7 1187.3315,-630.7 1021.3315,-630.7"/>
<polygon fill="none" stroke="#000000" points="1021.3315,-630.7 1021.3315,-652.7 1187.3315,-652.7 1187.3315,-630.7 1021.3315,-630.7"/>
<image xlink:href="../../images/foreignKeys.png" width="11px" height="12px" preserveAspectRatio="xMinYMin meet" x="1026.33" y="-647.7"/>
<text text-anchor="start" x="1041.3315" y="-637.8" font-family="Helvetica,sans-Serif" font-size="11.00" fill="#000000">modified_by</text>
<polygon fill="#ffffff" stroke="transparent" points="1021.3315,-608.7 1021.3315,-630.7 1187.3315,-630.7 1187.3315,-608.7 1021.3315,-608.7"/>
<polygon fill="none" stroke="#000000" points="1021.3315,-608.7 1021.3315,-630.7 1187.3315,-630.7 1187.3315,-608.7 1021.3315,-608.7"/>
<image xlink:href="../../images/foreignKeys.png" width="11px" height="12px" preserveAspectRatio="xMinYMin meet" x="1026.33" y="-625.7"/>
<text text-anchor="start" x="1041.3315" y="-615.8" font-family="Helvetica,sans-Serif" font-size="11.00" fill="#000000">location_id</text>
<polygon fill="#ffffff" stroke="transparent" points="1021.3315,-586.7 1021.3315,-608.7 1187.3315,-608.7 1187.3315,-586.7 1021.3315,-586.7"/>
<polygon fill="none" stroke="#000000" points="1021.3315,-586.7 1021.3315,-608.7 1187.3315,-608.7 1187.3315,-586.7 1021.3315,-586.7"/>
<image xlink:href="../../images/foreignKeys.png" width="11px" height="12px" preserveAspectRatio="xMinYMin meet" x="1026.33" y="-603.7"/>
<text text-anchor="start" x="1041.3315" y="-593.8" font-family="Helvetica,sans-Serif" font-size="11.00" fill="#000000">rate_card_id</text>
<polygon fill="#ffffff" stroke="transparent" points="1021.3315,-564.7 1021.3315,-586.7 1187.3315,-586.7 1187.3315,-564.7 1021.3315,-564.7"/>
<polygon fill="none" stroke="#000000" points="1021.3315,-564.7 1021.3315,-586.7 1187.3315,-586.7 1187.3315,-564.7 1021.3315,-564.7"/>
<image xlink:href="../../images/foreignKeys.png" width="11px" height="12px" preserveAspectRatio="xMinYMin meet" x="1026.33" y="-581.7"/>
<text text-anchor="start" x="1041.3315" y="-571.8" font-family="Helvetica,sans-Serif" font-size="11.00" fill="#000000">source_job_request_id</text>
<polygon fill="#ffffff" stroke="transparent" points="1021.3315,-542.7 1021.3315,-564.7 1187.3315,-564.7 1187.3315,-542.7 1021.3315,-542.7"/>
<polygon fill="none" stroke="#000000" points="1021.3315,-542.7 1021.3315,-564.7 1187.3315,-564.7 1187.3315,-542.7 1021.3315,-542.7"/>
<image xlink:href="../../images/foreignKeys.png" width="11px" height="12px" preserveAspectRatio="xMinYMin meet" x="1026.33" y="-559.7"/>
<text text-anchor="start" x="1041.3315" y="-549.8" font-family="Helvetica,sans-Serif" font-size="11.00" fill="#000000">eworker_id</text>
<polygon fill="#ffffff" stroke="transparent" points="1021.3315,-520.7 1021.3315,-542.7 1187.3315,-542.7 1187.3315,-520.7 1021.3315,-520.7"/>
<polygon fill="none" stroke="#000000" points="1021.3315,-520.7 1021.3315,-542.7 1187.3315,-542.7 1187.3315,-520.7 1021.3315,-520.7"/>
<image xlink:href="../../images/foreignKeys.png" width="11px" height="12px" preserveAspectRatio="xMinYMin meet" x="1026.33" y="-537.7"/>
<text text-anchor="start" x="1041.3315" y="-527.8" font-family="Helvetica,sans-Serif" font-size="11.00" fill="#000000">unit_id</text>
<polygon fill="#ffffff" stroke="transparent" points="1021.3315,-498.7 1021.3315,-520.7 1187.3315,-520.7 1187.3315,-498.7 1021.3315,-498.7"/>
<polygon fill="none" stroke="#000000" points="1021.3315,-498.7 1021.3315,-520.7 1187.3315,-520.7 1187.3315,-498.7 1021.3315,-498.7"/>
<image xlink:href="../../images/foreignKeys.png" width="11px" height="12px" preserveAspectRatio="xMinYMin meet" x="1026.33" y="-515.7"/>
<text text-anchor="start" x="1041.3315" y="-505.8" font-family="Helvetica,sans-Serif" font-size="11.00" fill="#000000">closed_eworker_id</text>
<polygon fill="#ffffff" stroke="transparent" points="1021.3315,-476.7 1021.3315,-498.7 1187.3315,-498.7 1187.3315,-476.7 1021.3315,-476.7"/>
<polygon fill="none" stroke="#000000" points="1021.3315,-476.7 1021.3315,-498.7 1187.3315,-498.7 1187.3315,-476.7 1021.3315,-476.7"/>
<image xlink:href="../../images/foreignKeys.png" width="11px" height="12px" preserveAspectRatio="xMinYMin meet" x="1026.33" y="-493.7"/>
<text text-anchor="start" x="1041.3315" y="-483.8" font-family="Helvetica,sans-Serif" font-size="11.00" fill="#000000">client_contact_id</text>
<polygon fill="#ffffff" stroke="transparent" points="1021.3315,-454.7 1021.3315,-476.7 1187.3315,-476.7 1187.3315,-454.7 1021.3315,-454.7"/>
<polygon fill="none" stroke="#000000" points="1021.3315,-454.7 1021.3315,-476.7 1187.3315,-476.7 1187.3315,-454.7 1021.3315,-454.7"/>
<image xlink:href="../../images/foreignKeys.png" width="11px" height="12px" preserveAspectRatio="xMinYMin meet" x="1026.33" y="-471.7"/>
<text text-anchor="start" x="1041.3315" y="-461.8" font-family="Helvetica,sans-Serif" font-size="11.00" fill="#000000">client_id</text>
<polygon fill="#ffffff" stroke="transparent" points="1021.3315,-432.7 1021.3315,-454.7 1187.3315,-454.7 1187.3315,-432.7 1021.3315,-432.7"/>
<polygon fill="none" stroke="#000000" points="1021.3315,-432.7 1021.3315,-454.7 1187.3315,-454.7 1187.3315,-432.7 1021.3315,-432.7"/>
<image xlink:href="../../images/foreignKeys.png" width="11px" height="12px" preserveAspectRatio="xMinYMin meet" x="1026.33" y="-449.7"/>
<text text-anchor="start" x="1041.3315" y="-439.8" font-family="Helvetica,sans-Serif" font-size="11.00" fill="#000000">role_id</text>
<polygon fill="none" stroke="#000000" points="1021.3315,-413.7 1021.3315,-432.7 1187.3315,-432.7 1187.3315,-413.7 1021.3315,-413.7"/>
<text text-anchor="start" x="1024.3315" y="-419.8" font-family="Helvetica,sans-Serif" font-size="11.00" fill="#000000">...</text>
<polygon fill="#ffffff" stroke="transparent" points="1021.3315,-394.7 1021.3315,-413.7 1082.3315,-413.7 1082.3315,-394.7 1021.3315,-394.7"/>
<polygon fill="none" stroke="#000000" points="1021.3315,-394.7 1021.3315,-413.7 1082.3315,-413.7 1082.3315,-394.7 1021.3315,-394.7"/>
<text text-anchor="start" x="1024.3315" y="-400.8" font-family="Helvetica,sans-Serif" font-size="11.00" fill="#000000">&lt; 11</text>
<polygon fill="#ffffff" stroke="transparent" points="1082.3315,-394.7 1082.3315,-413.7 1149.3315,-413.7 1149.3315,-394.7 1082.3315,-394.7"/>
<polygon fill="none" stroke="#000000" points="1082.3315,-394.7 1082.3315,-413.7 1149.3315,-413.7 1149.3315,-394.7 1082.3315,-394.7"/>
<text text-anchor="start" x="1101.7122" y="-400.8" font-family="Helvetica,sans-Serif" font-size="11.00" fill="#000000">254 rows</text>
<polygon fill="#ffffff" stroke="transparent" points="1149.3315,-394.7 1149.3315,-413.7 1187.3315,-413.7 1187.3315,-394.7 1149.3315,-394.7"/>
<polygon fill="none" stroke="#000000" points="1149.3315,-394.7 1149.3315,-413.7 1187.3315,-413.7 1187.3315,-394.7 1149.3315,-394.7"/>
<text text-anchor="start" x="1168.7368" y="-400.8" font-family="Helvetica,sans-Serif" font-size="11.00" fill="#000000">7 &gt;</text>
</a>
</g>
</g>
<!-- job_ad&#45;&gt;job_request -->
<g id="edge18" class="edge">
<title>job_ad:w&#45;&gt;job_request:e</title>
<path fill="none" stroke="#000000" d="M1262.3873,-817.0085C1239.9836,-785.1526 1202.7433,-685.7 1187.3315,-685.7"/>
<polygon fill="#000000" stroke="#000000" points="1267.3422,-821.3963 1270.9448,-829.3952 1270.3369,-824.0481 1273.3315,-826.7 1273.3315,-826.7 1273.3315,-826.7 1270.3369,-824.0481 1275.7181,-824.0048 1267.3422,-821.3963 1267.3422,-821.3963"/>
<ellipse fill="none" stroke="#000000" cx="1264.9465" cy="-819.2748" rx="3.2" ry="3.2"/>
</g>
<!-- location -->
<g id="node10" class="node">
<title>location</title>
<g id="a_node10"><a xlink:href="../../tables/location.html" xlink:title="location" target="_top">
<polygon fill="#ffffff" stroke="transparent" points="867.3315,-757.2 867.3315,-818.2 950.3315,-818.2 950.3315,-757.2 867.3315,-757.2"/>
<polygon fill="#f5f5f5" stroke="transparent" points="867.8315,-794.7 867.8315,-817.7 950.8315,-817.7 950.8315,-794.7 867.8315,-794.7"/>
<polygon fill="none" stroke="#000000" points="867.8315,-794.7 867.8315,-817.7 950.8315,-817.7 950.8315,-794.7 867.8315,-794.7"/>
<text text-anchor="start" x="872.8315" y="-803.8" font-family="Helvetica,sans-Serif" font-weight="bold" font-size="11.00" fill="#000000">location</text>
<text text-anchor="start" x="915.8752" y="-802.8" font-family="Helvetica,sans-Serif" font-size="11.00" fill="#000000">[table]</text>
<polygon fill="none" stroke="#000000" points="867.8315,-775.7 867.8315,-794.7 950.8315,-794.7 950.8315,-775.7 867.8315,-775.7"/>
<text text-anchor="start" x="870.8315" y="-781.8" font-family="Helvetica,sans-Serif" font-size="11.00" fill="#000000">...</text>
<polygon fill="#ffffff" stroke="transparent" points="867.8315,-756.7 867.8315,-775.7 879.8315,-775.7 879.8315,-756.7 867.8315,-756.7"/>
<polygon fill="none" stroke="#000000" points="867.8315,-756.7 867.8315,-775.7 879.8315,-775.7 879.8315,-756.7 867.8315,-756.7"/>
<text text-anchor="start" x="870.7746" y="-762.8" font-family="Helvetica,sans-Serif" font-size="11.00" fill="#000000"> &#160;</text>
<polygon fill="#ffffff" stroke="transparent" points="879.8315,-756.7 879.8315,-775.7 929.8315,-775.7 929.8315,-756.7 879.8315,-756.7"/>
<polygon fill="none" stroke="#000000" points="879.8315,-756.7 879.8315,-775.7 929.8315,-775.7 929.8315,-756.7 879.8315,-756.7"/>
<text text-anchor="start" x="882.5218" y="-762.8" font-family="Helvetica,sans-Serif" font-size="11.00" fill="#000000">541 rows</text>
<polygon fill="#ffffff" stroke="transparent" points="929.8315,-756.7 929.8315,-775.7 950.8315,-775.7 950.8315,-756.7 929.8315,-756.7"/>
<polygon fill="none" stroke="#000000" points="929.8315,-756.7 929.8315,-775.7 950.8315,-775.7 950.8315,-756.7 929.8315,-756.7"/>
<text text-anchor="start" x="932.5341" y="-762.8" font-family="Helvetica,sans-Serif" font-size="11.00" fill="#000000">4 &gt;</text>
</a>
</g>
</g>
<!-- job_ad&#45;&gt;location -->
<g id="edge19" class="edge">
<title>job_ad:w&#45;&gt;location:e</title>
<path fill="none" stroke="#000000" d="M1258.8907,-826.5562C1126.3739,-823.878 1090.4347,-784.7 950.8315,-784.7"/>
<polygon fill="#000000" stroke="#000000" points="1265.3319,-826.6203 1273.2956,-830.2998 1269.3317,-826.6601 1273.3315,-826.7 1273.3315,-826.7 1273.3315,-826.7 1269.3317,-826.6601 1273.3674,-823.1002 1265.3319,-826.6203 1265.3319,-826.6203"/>
<ellipse fill="none" stroke="#000000" cx="1262.132" cy="-826.5884" rx="3.2" ry="3.2"/>
</g>
<!-- job_request&#45;&gt;client -->
<g id="edge22" class="edge">
<title>job_request:w&#45;&gt;client:e</title>
<path fill="none" stroke="#000000" d="M1007.4576,-461.1564C997.3203,-452.3717 997.7234,-433.0977 980.3315,-423.7 923.3549,-392.9129 891.315,-431.4765 837.3315,-395.7 782.3591,-359.2682 820.2802,-272.7 754.3315,-272.7"/>
<polygon fill="#000000" stroke="#000000" points="1013.7288,-463.2101 1020.211,-469.1212 1017.5301,-464.4551 1021.3315,-465.7 1021.3315,-465.7 1021.3315,-465.7 1017.5301,-464.4551 1022.4519,-462.2788 1013.7288,-463.2101 1013.7288,-463.2101"/>
<ellipse fill="none" stroke="#000000" cx="1010.6877" cy="-462.2142" rx="3.2" ry="3.2"/>
</g>
<!-- job_request&#45;&gt;eworker -->
<g id="edge23" class="edge">
<title>job_request:w&#45;&gt;eworker:e</title>
<path fill="none" stroke="#000000" d="M1006.5916,-510.0519C935.7584,-513.4489 906.1329,-539.5661 837.3315,-505.7 816.3447,-495.3697 821.8659,-480.1824 804.3315,-464.7 792.9247,-454.6281 586.5485,-320.7 571.3315,-320.7"/>
<polygon fill="#000000" stroke="#000000" points="1013.3338,-509.891 1021.4174,-513.299 1017.3326,-509.7955 1021.3315,-509.7 1021.3315,-509.7 1021.3315,-509.7 1017.3326,-509.7955 1021.2455,-506.101 1013.3338,-509.891 1013.3338,-509.891"/>
<ellipse fill="none" stroke="#000000" cx="1010.1347" cy="-509.9674" rx="3.2" ry="3.2"/>
</g>
<!-- job_request&#45;&gt;eworker -->
<g id="edge25" class="edge">
<title>job_request:w&#45;&gt;eworker:e</title>
<path fill="none" stroke="#000000" d="M1006.8714,-553.7679C935.0187,-554.4109 906.8787,-558.6625 837.3315,-523.7 819.0782,-514.5238 821.4433,-502.861 804.3315,-491.7 727.1847,-441.3817 678.409,-477.8664 612.3315,-413.7 579.925,-382.2308 616.5033,-320.7 571.3315,-320.7"/>
<polygon fill="#000000" stroke="#000000" points="1013.3316,-553.7376 1021.3484,-557.3 1017.3315,-553.7188 1021.3315,-553.7 1021.3315,-553.7 1021.3315,-553.7 1017.3315,-553.7188 1021.3145,-550.1 1013.3316,-553.7376 1013.3316,-553.7376"/>
<ellipse fill="none" stroke="#000000" cx="1010.1316" cy="-553.7527" rx="3.2" ry="3.2"/>
</g>
<!-- job_request&#45;&gt;principal -->
<g id="edge24" class="edge">
<title>job_request:w&#45;&gt;principal:e</title>
<path fill="none" stroke="#000000" d="M1007.4392,-668.5439C996.3024,-679.2918 1000.6965,-705.0258 980.3315,-715.7 873.05,-771.9308 829.4562,-732.7 708.3315,-732.7 708.3315,-732.7 708.3315,-732.7 368.8315,-732.7 273.6423,-732.7 223.003,-782.6444 155.3315,-715.7 83.4734,-644.6141 215.4096,-262.7 114.3315,-262.7"/>
<polygon fill="#000000" stroke="#000000" points="1013.7775,-666.3339 1022.5167,-667.0993 1017.5545,-665.017 1021.3315,-663.7 1021.3315,-663.7 1021.3315,-663.7 1017.5545,-665.017 1020.1462,-660.3007 1013.7775,-666.3339 1013.7775,-666.3339"/>
<ellipse fill="none" stroke="#000000" cx="1010.7559" cy="-667.3875" rx="3.2" ry="3.2"/>
</g>
<!-- job_request&#45;&gt;principal -->
<g id="edge27" class="edge">
<title>job_request:w&#45;&gt;principal:e</title>
<path fill="none" stroke="#000000" d="M1006.7651,-641.9317C877.1619,-646.1209 845.3291,-705.7 708.3315,-705.7 708.3315,-705.7 708.3315,-705.7 368.8315,-705.7 208.7807,-705.7 224.6912,-559.941 155.3315,-415.7 124.8232,-352.2548 184.7307,-262.7 114.3315,-262.7"/>
<polygon fill="#000000" stroke="#000000" points="1013.3325,-641.8273 1021.3888,-645.2995 1017.332,-641.7637 1021.3315,-641.7 1021.3315,-641.7 1021.3315,-641.7 1017.332,-641.7637 1021.2742,-638.1005 1013.3325,-641.8273 1013.3325,-641.8273"/>
<ellipse fill="none" stroke="#000000" cx="1010.1329" cy="-641.8782" rx="3.2" ry="3.2"/>
</g>
<!-- job_request&#45;&gt;client_contact -->
<g id="edge21" class="edge">
<title>job_request:w&#45;&gt;client_contact:e</title>
<path fill="none" stroke="#000000" d="M1008.0314,-481.998C969.8137,-442.7943 1020.5013,-214.7 963.8315,-214.7"/>
<polygon fill="#000000" stroke="#000000" points="1013.9787,-484.5477 1019.9129,-491.0087 1017.6551,-486.1238 1021.3315,-487.7 1021.3315,-487.7 1021.3315,-487.7 1017.6551,-486.1238 1022.75,-484.3913 1013.9787,-484.5477 1013.9787,-484.5477"/>
<ellipse fill="none" stroke="#000000" cx="1011.0376" cy="-483.2868" rx="3.2" ry="3.2"/>
</g>
<!-- job_request&#45;&gt;ework_unit -->
<g id="edge30" class="edge">
<title>job_request:w&#45;&gt;ework_unit:e</title>
<path fill="none" stroke="#000000" d="M1006.9778,-534.867C998.6996,-539.0097 993.6324,-546.0518 980.3315,-548.7 917.9993,-561.1103 896.0491,-573.0217 837.3315,-548.7 818.1685,-540.7625 822.4278,-525.8363 804.3315,-515.7 737.9326,-478.5082 544.1441,-457.8443 471.3315,-435.7 452.9671,-430.1149 450.0264,-420.7 430.8315,-420.7"/>
<polygon fill="#000000" stroke="#000000" points="1013.5194,-533.4237 1022.1071,-535.2154 1017.4254,-532.5619 1021.3315,-531.7 1021.3315,-531.7 1021.3315,-531.7 1017.4254,-532.5619 1020.5558,-528.1846 1013.5194,-533.4237 1013.5194,-533.4237"/>
<ellipse fill="none" stroke="#000000" cx="1010.3945" cy="-534.1132" rx="3.2" ry="3.2"/>
</g>
<!-- job_request&#45;&gt;location -->
<g id="edge26" class="edge">
<title>job_request:w&#45;&gt;location:e</title>
<path fill="none" stroke="#000000" d="M1006.8952,-622.0325C953.2652,-642.0874 1024.9711,-784.7 950.8315,-784.7"/>
<polygon fill="#000000" stroke="#000000" points="1013.4339,-620.9761 1021.9057,-623.2539 1017.3827,-620.338 1021.3315,-619.7 1021.3315,-619.7 1021.3315,-619.7 1017.3827,-620.338 1020.7572,-616.1461 1013.4339,-620.9761 1013.4339,-620.9761"/>
<ellipse fill="none" stroke="#000000" cx="1010.2749" cy="-621.4865" rx="3.2" ry="3.2"/>
</g>
<!-- rate_card -->
<g id="node11" class="node">
<title>rate_card</title>
<g id="a_node11"><a xlink:href="../../tables/rate_card.html" xlink:title="rate_card" target="_top">
<polygon fill="#ffffff" stroke="transparent" points="620.3315,-525.7 620.3315,-681.7 796.3315,-681.7 796.3315,-525.7 620.3315,-525.7"/>
<polygon fill="#f5f5f5" stroke="transparent" points="622.3315,-656.7 622.3315,-679.7 794.3315,-679.7 794.3315,-656.7 622.3315,-656.7"/>
<polygon fill="none" stroke="#000000" points="622.3315,-656.7 622.3315,-679.7 794.3315,-679.7 794.3315,-656.7 622.3315,-656.7"/>
<text text-anchor="start" x="627.3315" y="-665.8" font-family="Helvetica,sans-Serif" font-weight="bold" font-size="11.00" fill="#000000">rate_card</text>
<text text-anchor="start" x="759.3752" y="-664.8" font-family="Helvetica,sans-Serif" font-size="11.00" fill="#000000">[table]</text>
<polygon fill="none" stroke="#000000" points="622.3315,-634.7 622.3315,-656.7 723.3315,-656.7 723.3315,-634.7 622.3315,-634.7"/>
<image xlink:href="../../images/primaryKeys.png" width="11px" height="12px" preserveAspectRatio="xMinYMin meet" x="627.331" y="-651.7"/>
<text text-anchor="start" x="642.3315" y="-641.8" font-family="Helvetica,sans-Serif" font-size="11.00" fill="#000000">id</text>
<polygon fill="none" stroke="#000000" points="723.3315,-634.7 723.3315,-656.7 794.3315,-656.7 794.3315,-634.7 723.3315,-634.7"/>
<text text-anchor="start" x="726.3315" y="-642.4" font-family="Helvetica,sans-Serif" font-size="11.00" fill="#000000">bigint[19]</text>
<polygon fill="none" stroke="#000000" points="622.3315,-612.7 622.3315,-634.7 723.3315,-634.7 723.3315,-612.7 622.3315,-612.7"/>
<text text-anchor="start" x="642.3315" y="-619.8" font-family="Helvetica,sans-Serif" font-size="11.00" fill="#000000">currency</text>
<polygon fill="none" stroke="#000000" points="723.3315,-612.7 723.3315,-634.7 794.3315,-634.7 794.3315,-612.7 723.3315,-612.7"/>
<text text-anchor="start" x="726.3315" y="-620.4" font-family="Helvetica,sans-Serif" font-size="11.00" fill="#000000">varchar[255]</text>
<polygon fill="#ffffff" stroke="transparent" points="622.3315,-590.7 622.3315,-612.7 723.3315,-612.7 723.3315,-590.7 622.3315,-590.7"/>
<polygon fill="none" stroke="#000000" points="622.3315,-590.7 622.3315,-612.7 723.3315,-612.7 723.3315,-590.7 622.3315,-590.7"/>
<text text-anchor="start" x="642.3315" y="-597.8" font-family="Helvetica,sans-Serif" font-size="11.00" fill="#000000">name</text>
<polygon fill="none" stroke="#000000" points="723.3315,-590.7 723.3315,-612.7 794.3315,-612.7 794.3315,-590.7 723.3315,-590.7"/>
<text text-anchor="start" x="726.3315" y="-598.4" font-family="Helvetica,sans-Serif" font-size="11.00" fill="#000000">varchar[100]</text>
<polygon fill="none" stroke="#000000" points="622.3315,-568.7 622.3315,-590.7 723.3315,-590.7 723.3315,-568.7 622.3315,-568.7"/>
<text text-anchor="start" x="642.3315" y="-575.8" font-family="Helvetica,sans-Serif" font-size="11.00" fill="#000000">rate_per_hour</text>
<polygon fill="none" stroke="#000000" points="723.3315,-568.7 723.3315,-590.7 794.3315,-590.7 794.3315,-568.7 723.3315,-568.7"/>
<text text-anchor="start" x="726.1296" y="-576.4" font-family="Helvetica,sans-Serif" font-size="11.00" fill="#000000">decimal[19,2]</text>
<polygon fill="#ffffff" stroke="transparent" points="622.3315,-546.7 622.3315,-568.7 723.3315,-568.7 723.3315,-546.7 622.3315,-546.7"/>
<polygon fill="none" stroke="#000000" points="622.3315,-546.7 622.3315,-568.7 723.3315,-568.7 723.3315,-546.7 622.3315,-546.7"/>
<image xlink:href="../../images/foreignKeys.png" width="11px" height="12px" preserveAspectRatio="xMinYMin meet" x="627.331" y="-563.7"/>
<text text-anchor="start" x="642.3315" y="-553.8" font-family="Helvetica,sans-Serif" font-size="11.00" fill="#000000">unit_id</text>
<polygon fill="none" stroke="#000000" points="723.3315,-546.7 723.3315,-568.7 794.3315,-568.7 794.3315,-546.7 723.3315,-546.7"/>
<text text-anchor="start" x="726.3315" y="-554.4" font-family="Helvetica,sans-Serif" font-size="11.00" fill="#000000">bigint[19]</text>
<polygon fill="#ffffff" stroke="transparent" points="622.3315,-527.7 622.3315,-546.7 658.3315,-546.7 658.3315,-527.7 622.3315,-527.7"/>
<polygon fill="none" stroke="#000000" points="622.3315,-527.7 622.3315,-546.7 658.3315,-546.7 658.3315,-527.7 622.3315,-527.7"/>
<text text-anchor="start" x="625.3315" y="-533.8" font-family="Helvetica,sans-Serif" font-size="11.00" fill="#000000">&lt; 1</text>
<polygon fill="#ffffff" stroke="transparent" points="658.3315,-527.7 658.3315,-546.7 723.3315,-546.7 723.3315,-527.7 658.3315,-527.7"/>
<polygon fill="none" stroke="#000000" points="658.3315,-527.7 658.3315,-546.7 723.3315,-546.7 723.3315,-527.7 658.3315,-527.7"/>
<text text-anchor="start" x="675.7122" y="-533.8" font-family="Helvetica,sans-Serif" font-size="11.00" fill="#000000">239 rows</text>
<polygon fill="#ffffff" stroke="transparent" points="723.3315,-527.7 723.3315,-546.7 794.3315,-546.7 794.3315,-527.7 723.3315,-527.7"/>
<polygon fill="none" stroke="#000000" points="723.3315,-527.7 723.3315,-546.7 794.3315,-546.7 794.3315,-527.7 723.3315,-527.7"/>
<text text-anchor="start" x="775.7368" y="-533.8" font-family="Helvetica,sans-Serif" font-size="11.00" fill="#000000">1 &gt;</text>
<polygon fill="none" stroke="#000000" stroke-width="2" points="621.3315,-526.7 621.3315,-680.7 795.3315,-680.7 795.3315,-526.7 621.3315,-526.7"/>
</a>
</g>
</g>
<!-- job_request&#45;&gt;rate_card -->
<g id="edge28" class="edge">
<title>job_request:w&#45;&gt;rate_card:e</title>
<path fill="none" stroke="#000000" d="M1006.7959,-598.0321C915.988,-602.2731 892.4161,-645.7 794.3315,-645.7"/>
<polygon fill="#000000" stroke="#000000" points="1013.3336,-597.8828 1021.4137,-601.2991 1017.3325,-597.7914 1021.3315,-597.7 1021.3315,-597.7 1021.3315,-597.7 1017.3325,-597.7914 1021.2492,-594.1009 1013.3336,-597.8828 1013.3336,-597.8828"/>
<ellipse fill="none" stroke="#000000" cx="1010.1344" cy="-597.9559" rx="3.2" ry="3.2"/>
</g>
<!-- skill_role -->
<g id="node12" class="node">
<title>skill_role</title>
<g id="a_node12"><a xlink:href="../../tables/skill_role.html" xlink:title="skill_role" target="_top">
<polygon fill="#ffffff" stroke="transparent" points="866.3315,-324.2 866.3315,-385.2 951.3315,-385.2 951.3315,-324.2 866.3315,-324.2"/>
<polygon fill="#f5f5f5" stroke="transparent" points="866.8315,-361.7 866.8315,-384.7 951.8315,-384.7 951.8315,-361.7 866.8315,-361.7"/>
<polygon fill="none" stroke="#000000" points="866.8315,-361.7 866.8315,-384.7 951.8315,-384.7 951.8315,-361.7 866.8315,-361.7"/>
<text text-anchor="start" x="871.4464" y="-370.8" font-family="Helvetica,sans-Serif" font-weight="bold" font-size="11.00" fill="#000000">skill_role</text>
<text text-anchor="start" x="917.3533" y="-369.8" font-family="Helvetica,sans-Serif" font-size="11.00" fill="#000000">[table]</text>
<polygon fill="none" stroke="#000000" points="866.8315,-342.7 866.8315,-361.7 951.8315,-361.7 951.8315,-342.7 866.8315,-342.7"/>
<text text-anchor="start" x="869.8315" y="-348.8" font-family="Helvetica,sans-Serif" font-size="11.00" fill="#000000">...</text>
<polygon fill="#ffffff" stroke="transparent" points="866.8315,-323.7 866.8315,-342.7 879.8315,-342.7 879.8315,-323.7 866.8315,-323.7"/>
<polygon fill="none" stroke="#000000" points="866.8315,-323.7 866.8315,-342.7 879.8315,-342.7 879.8315,-323.7 866.8315,-323.7"/>
<text text-anchor="start" x="869.8315" y="-329.8" font-family="Helvetica,sans-Serif" font-size="11.00" fill="#000000"> &#160;</text>
<polygon fill="#ffffff" stroke="transparent" points="879.8315,-323.7 879.8315,-342.7 929.8315,-342.7 929.8315,-323.7 879.8315,-323.7"/>
<polygon fill="none" stroke="#000000" points="879.8315,-323.7 879.8315,-342.7 929.8315,-342.7 929.8315,-323.7 879.8315,-323.7"/>
<text text-anchor="start" x="882.5218" y="-329.8" font-family="Helvetica,sans-Serif" font-size="11.00" fill="#000000">603 rows</text>
<polygon fill="#ffffff" stroke="transparent" points="929.8315,-323.7 929.8315,-342.7 951.8315,-342.7 951.8315,-323.7 929.8315,-323.7"/>
<polygon fill="none" stroke="#000000" points="929.8315,-323.7 929.8315,-342.7 951.8315,-342.7 951.8315,-323.7 929.8315,-323.7"/>
<text text-anchor="start" x="933.2368" y="-329.8" font-family="Helvetica,sans-Serif" font-size="11.00" fill="#000000">4 &gt;</text>
</a>
</g>
</g>
<!-- job_request&#45;&gt;skill_role -->
<g id="edge29" class="edge">
<title>job_request:w&#45;&gt;skill_role:e</title>
<path fill="none" stroke="#000000" d="M1006.9142,-440.4257C976.48,-424.0369 997.2712,-351.7 951.8315,-351.7"/>
<polygon fill="#000000" stroke="#000000" points="1013.5301,-441.9282 1020.5342,-447.2106 1017.4308,-442.8141 1021.3315,-443.7 1021.3315,-443.7 1021.3315,-443.7 1017.4308,-442.8141 1022.1288,-440.1894 1013.5301,-441.9282 1013.5301,-441.9282"/>
<ellipse fill="none" stroke="#000000" cx="1010.4096" cy="-441.2195" rx="3.2" ry="3.2"/>
</g>
<!-- rate_card&#45;&gt;ework_unit -->
<g id="edge45" class="edge">
<title>rate_card:w&#45;&gt;ework_unit:e</title>
<path fill="none" stroke="#000000" d="M607.753,-557.6894C547.9612,-557.522 520.0966,-554.8065 471.3315,-511.7 438.1633,-482.3806 475.1006,-420.7 430.8315,-420.7"/>
<polygon fill="#000000" stroke="#000000" points="614.3315,-557.6941 622.3288,-561.3 618.3315,-557.6971 622.3315,-557.7 622.3315,-557.7 622.3315,-557.7 618.3315,-557.6971 622.3341,-554.1 614.3315,-557.6941 614.3315,-557.6941"/>
<ellipse fill="none" stroke="#000000" cx="611.1315" cy="-557.6918" rx="3.2" ry="3.2"/>
</g>
<!-- job_request_application -->
<g id="node13" class="node">
<title>job_request_application</title>
<g id="a_node13"><a xlink:href="../../tables/job_request_application.html" xlink:title="job_request_application" target="_top">
<polygon fill="#ffffff" stroke="transparent" points="1236.8315,-202.2 1236.8315,-263.2 1395.8315,-263.2 1395.8315,-202.2 1236.8315,-202.2"/>
<polygon fill="#f5f5f5" stroke="transparent" points="1237.3315,-239.7 1237.3315,-262.7 1396.3315,-262.7 1396.3315,-239.7 1237.3315,-239.7"/>
<polygon fill="none" stroke="#000000" points="1237.3315,-239.7 1237.3315,-262.7 1396.3315,-262.7 1396.3315,-239.7 1237.3315,-239.7"/>
<text text-anchor="start" x="1242.2575" y="-248.8" font-family="Helvetica,sans-Serif" font-weight="bold" font-size="11.00" fill="#000000">job_request_application</text>
<text text-anchor="start" x="1361.8533" y="-247.8" font-family="Helvetica,sans-Serif" font-size="11.00" fill="#000000">[table]</text>
<polygon fill="none" stroke="#000000" points="1237.3315,-220.7 1237.3315,-239.7 1396.3315,-239.7 1396.3315,-220.7 1237.3315,-220.7"/>
<text text-anchor="start" x="1240.3315" y="-226.8" font-family="Helvetica,sans-Serif" font-size="11.00" fill="#000000">...</text>
<polygon fill="#ffffff" stroke="transparent" points="1237.3315,-201.7 1237.3315,-220.7 1294.3315,-220.7 1294.3315,-201.7 1237.3315,-201.7"/>
<polygon fill="none" stroke="#000000" points="1237.3315,-201.7 1237.3315,-220.7 1294.3315,-220.7 1294.3315,-201.7 1237.3315,-201.7"/>
<text text-anchor="start" x="1240.3315" y="-207.8" font-family="Helvetica,sans-Serif" font-size="11.00" fill="#000000">&lt; 6</text>
<polygon fill="#ffffff" stroke="transparent" points="1294.3315,-201.7 1294.3315,-220.7 1356.3315,-220.7 1356.3315,-201.7 1294.3315,-201.7"/>
<polygon fill="none" stroke="#000000" points="1294.3315,-201.7 1294.3315,-220.7 1356.3315,-220.7 1356.3315,-201.7 1294.3315,-201.7"/>
<text text-anchor="start" x="1314.8271" y="-207.8" font-family="Helvetica,sans-Serif" font-size="11.00" fill="#000000">75 rows</text>
<polygon fill="#ffffff" stroke="transparent" points="1356.3315,-201.7 1356.3315,-220.7 1396.3315,-220.7 1396.3315,-201.7 1356.3315,-201.7"/>
<polygon fill="none" stroke="#000000" points="1356.3315,-201.7 1356.3315,-220.7 1396.3315,-220.7 1396.3315,-201.7 1356.3315,-201.7"/>
<text text-anchor="start" x="1377.7368" y="-207.8" font-family="Helvetica,sans-Serif" font-size="11.00" fill="#000000">5 &gt;</text>
</a>
</g>
</g>
<!-- job_request_application&#45;&gt;principal -->
<g id="edge31" class="edge">
<title>job_request_application:w&#45;&gt;principal:e</title>
<path fill="none" stroke="#000000" d="M1222.7915,-229.5001C1118.4016,-226.5663 1090.879,-192.0966 980.3315,-176.7 860.2751,-159.979 829.5467,-156.7 708.3315,-156.7 708.3315,-156.7 708.3315,-156.7 368.8315,-156.7 307.5665,-156.7 175.5964,-262.7 114.3315,-262.7"/>
<polygon fill="#000000" stroke="#000000" points="1229.3322,-229.59 1237.282,-233.2997 1233.3319,-229.645 1237.3315,-229.7 1237.3315,-229.7 1237.3315,-229.7 1233.3319,-229.645 1237.381,-226.1003 1229.3322,-229.59 1229.3322,-229.59"/>
<ellipse fill="none" stroke="#000000" cx="1226.1325" cy="-229.546" rx="3.2" ry="3.2"/>
</g>
<!-- job_request_application&#45;&gt;principal -->
<g id="edge33" class="edge">
<title>job_request_application:w&#45;&gt;principal:e</title>
<path fill="none" stroke="#000000" d="M1222.8337,-229.4943C1118.7394,-226.4791 1091.1215,-191.1674 980.3315,-180.7 917.0577,-174.7219 900.7892,-177.1751 837.3315,-180.7 532.8135,-197.6149 457.8181,-217.7244 155.3315,-256.7 137.0662,-259.0535 132.7478,-262.7 114.3315,-262.7"/>
<polygon fill="#000000" stroke="#000000" points="1229.3323,-229.5865 1237.2804,-233.2996 1233.3319,-229.6432 1237.3315,-229.7 1237.3315,-229.7 1237.3315,-229.7 1233.3319,-229.6432 1237.3826,-226.1004 1229.3323,-229.5865 1229.3323,-229.5865"/>
<ellipse fill="none" stroke="#000000" cx="1226.1326" cy="-229.5411" rx="3.2" ry="3.2"/>
</g>
<!-- job_request_application&#45;&gt;job_request -->
<g id="edge32" class="edge">
<title>job_request_application:w&#45;&gt;job_request:e</title>
<path fill="none" stroke="#000000" d="M1223.2634,-233.3705C1150.9091,-276.5257 1283.8964,-685.7 1187.3315,-685.7"/>
<polygon fill="#000000" stroke="#000000" points="1229.5906,-231.7197 1238.2403,-233.1834 1233.461,-230.7099 1237.3315,-229.7 1237.3315,-229.7 1237.3315,-229.7 1233.461,-230.7099 1236.4226,-226.2166 1229.5906,-231.7197 1229.5906,-231.7197"/>
<ellipse fill="none" stroke="#000000" cx="1226.4943" cy="-232.5276" rx="3.2" ry="3.2"/>
</g>
<!-- job_request_attachment -->
<g id="node14" class="node">
<title>job_request_attachment</title>
<g id="a_node14"><a xlink:href="../../tables/job_request_attachment.html" xlink:title="job_request_attachment" target="_top">
<polygon fill="#ffffff" stroke="transparent" points="1236.3315,-680.2 1236.3315,-741.2 1396.3315,-741.2 1396.3315,-680.2 1236.3315,-680.2"/>
<polygon fill="#f5f5f5" stroke="transparent" points="1236.3315,-717.7 1236.3315,-740.7 1396.3315,-740.7 1396.3315,-717.7 1236.3315,-717.7"/>
<polygon fill="none" stroke="#000000" points="1236.3315,-717.7 1236.3315,-740.7 1396.3315,-740.7 1396.3315,-717.7 1236.3315,-717.7"/>
<text text-anchor="start" x="1240.8385" y="-726.8" font-family="Helvetica,sans-Serif" font-weight="bold" font-size="11.00" fill="#000000">job_request_attachment</text>
<text text-anchor="start" x="1361.8533" y="-725.8" font-family="Helvetica,sans-Serif" font-size="11.00" fill="#000000">[table]</text>
<polygon fill="none" stroke="#000000" points="1236.3315,-698.7 1236.3315,-717.7 1396.3315,-717.7 1396.3315,-698.7 1236.3315,-698.7"/>
<text text-anchor="start" x="1239.3315" y="-704.8" font-family="Helvetica,sans-Serif" font-size="11.00" fill="#000000">...</text>
<polygon fill="#ffffff" stroke="transparent" points="1236.3315,-679.7 1236.3315,-698.7 1301.3315,-698.7 1301.3315,-679.7 1236.3315,-679.7"/>
<polygon fill="none" stroke="#000000" points="1236.3315,-679.7 1236.3315,-698.7 1301.3315,-698.7 1301.3315,-679.7 1236.3315,-679.7"/>
<text text-anchor="start" x="1239.3315" y="-685.8" font-family="Helvetica,sans-Serif" font-size="11.00" fill="#000000">&lt; 2</text>
<polygon fill="#ffffff" stroke="transparent" points="1301.3315,-679.7 1301.3315,-698.7 1361.3315,-698.7 1361.3315,-679.7 1301.3315,-679.7"/>
<polygon fill="none" stroke="#000000" points="1301.3315,-679.7 1301.3315,-698.7 1361.3315,-698.7 1361.3315,-679.7 1301.3315,-679.7"/>
<text text-anchor="start" x="1325.942" y="-685.8" font-family="Helvetica,sans-Serif" font-size="11.00" fill="#000000">4 rows</text>
<polygon fill="#ffffff" stroke="transparent" points="1361.3315,-679.7 1361.3315,-698.7 1396.3315,-698.7 1396.3315,-679.7 1361.3315,-679.7"/>
<polygon fill="none" stroke="#000000" points="1361.3315,-679.7 1361.3315,-698.7 1396.3315,-698.7 1396.3315,-679.7 1361.3315,-679.7"/>
<text text-anchor="start" x="1387.2177" y="-685.8" font-family="Helvetica,sans-Serif" font-size="11.00" fill="#000000"> &#160;</text>
</a>
</g>
</g>
<!-- job_request_attachment&#45;&gt;job_request -->
<g id="edge34" class="edge">
<title>job_request_attachment:w&#45;&gt;job_request:e</title>
<path fill="none" stroke="#000000" d="M1221.9612,-704.2625C1210.418,-698.075 1205.2355,-685.7 1187.3315,-685.7"/>
<polygon fill="#000000" stroke="#000000" points="1228.551,-705.8388 1235.4939,-711.2012 1232.4412,-706.7694 1236.3315,-707.7 1236.3315,-707.7 1236.3315,-707.7 1232.4412,-706.7694 1237.169,-704.1988 1228.551,-705.8388 1228.551,-705.8388"/>
<ellipse fill="none" stroke="#000000" cx="1225.4388" cy="-705.0943" rx="3.2" ry="3.2"/>
</g>
<!-- job_request_language -->
<g id="node15" class="node">
<title>job_request_language</title>
<g id="a_node15"><a xlink:href="../../tables/job_request_language.html" xlink:title="job_request_language" target="_top">
<polygon fill="#ffffff" stroke="transparent" points="1240.8315,-598.2 1240.8315,-659.2 1391.8315,-659.2 1391.8315,-598.2 1240.8315,-598.2"/>
<polygon fill="#f5f5f5" stroke="transparent" points="1241.3315,-635.7 1241.3315,-658.7 1392.3315,-658.7 1392.3315,-635.7 1241.3315,-635.7"/>
<polygon fill="none" stroke="#000000" points="1241.3315,-635.7 1241.3315,-658.7 1392.3315,-658.7 1392.3315,-635.7 1241.3315,-635.7"/>
<text text-anchor="start" x="1245.9194" y="-644.8" font-family="Helvetica,sans-Serif" font-weight="bold" font-size="11.00" fill="#000000">job_request_language</text>
<text text-anchor="start" x="1357.8533" y="-643.8" font-family="Helvetica,sans-Serif" font-size="11.00" fill="#000000">[table]</text>
<polygon fill="none" stroke="#000000" points="1241.3315,-616.7 1241.3315,-635.7 1392.3315,-635.7 1392.3315,-616.7 1241.3315,-616.7"/>
<text text-anchor="start" x="1244.3315" y="-622.8" font-family="Helvetica,sans-Serif" font-size="11.00" fill="#000000">...</text>
<polygon fill="#ffffff" stroke="transparent" points="1241.3315,-597.7 1241.3315,-616.7 1299.3315,-616.7 1299.3315,-597.7 1241.3315,-597.7"/>
<polygon fill="none" stroke="#000000" points="1241.3315,-597.7 1241.3315,-616.7 1299.3315,-616.7 1299.3315,-597.7 1241.3315,-597.7"/>
<text text-anchor="start" x="1244.3315" y="-603.8" font-family="Helvetica,sans-Serif" font-size="11.00" fill="#000000">&lt; 1</text>
<polygon fill="#ffffff" stroke="transparent" points="1299.3315,-597.7 1299.3315,-616.7 1361.3315,-616.7 1361.3315,-597.7 1299.3315,-597.7"/>
<polygon fill="none" stroke="#000000" points="1299.3315,-597.7 1299.3315,-616.7 1361.3315,-616.7 1361.3315,-597.7 1299.3315,-597.7"/>
<text text-anchor="start" x="1319.8271" y="-603.8" font-family="Helvetica,sans-Serif" font-size="11.00" fill="#000000">32 rows</text>
<polygon fill="#ffffff" stroke="transparent" points="1361.3315,-597.7 1361.3315,-616.7 1392.3315,-616.7 1392.3315,-597.7 1361.3315,-597.7"/>
<polygon fill="none" stroke="#000000" points="1361.3315,-597.7 1361.3315,-616.7 1392.3315,-616.7 1392.3315,-597.7 1361.3315,-597.7"/>
<text text-anchor="start" x="1383.2177" y="-603.8" font-family="Helvetica,sans-Serif" font-size="11.00" fill="#000000"> &#160;</text>
</a>
</g>
</g>
<!-- job_request_language&#45;&gt;job_request -->
<g id="edge35" class="edge">
<title>job_request_language:w&#45;&gt;job_request:e</title>
<path fill="none" stroke="#000000" d="M1227.5305,-630.0151C1209.8367,-643.7725 1217.3218,-685.7 1187.3315,-685.7"/>
<polygon fill="#000000" stroke="#000000" points="1233.696,-628.0874 1242.4058,-629.136 1237.5137,-626.8937 1241.3315,-625.7 1241.3315,-625.7 1241.3315,-625.7 1237.5137,-626.8937 1240.2572,-622.264 1233.696,-628.0874 1233.696,-628.0874"/>
<ellipse fill="none" stroke="#000000" cx="1230.6418" cy="-629.0423" rx="3.2" ry="3.2"/>
</g>
<!-- job_request_skill -->
<g id="node16" class="node">
<title>job_request_skill</title>
<g id="a_node16"><a xlink:href="../../tables/job_request_skill.html" xlink:title="job_request_skill" target="_top">
<polygon fill="#ffffff" stroke="transparent" points="1254.3315,-120.2 1254.3315,-181.2 1378.3315,-181.2 1378.3315,-120.2 1254.3315,-120.2"/>
<polygon fill="#f5f5f5" stroke="transparent" points="1254.3315,-157.7 1254.3315,-180.7 1378.3315,-180.7 1378.3315,-157.7 1254.3315,-157.7"/>
<polygon fill="none" stroke="#000000" points="1254.3315,-157.7 1254.3315,-180.7 1378.3315,-180.7 1378.3315,-157.7 1254.3315,-157.7"/>
<text text-anchor="start" x="1258.8807" y="-166.8" font-family="Helvetica,sans-Serif" font-weight="bold" font-size="11.00" fill="#000000">job_request_skill</text>
<text text-anchor="start" x="1343.8533" y="-165.8" font-family="Helvetica,sans-Serif" font-size="11.00" fill="#000000">[table]</text>
<polygon fill="none" stroke="#000000" points="1254.3315,-138.7 1254.3315,-157.7 1378.3315,-157.7 1378.3315,-138.7 1254.3315,-138.7"/>
<text text-anchor="start" x="1257.3315" y="-144.8" font-family="Helvetica,sans-Serif" font-size="11.00" fill="#000000">...</text>
<polygon fill="#ffffff" stroke="transparent" points="1254.3315,-119.7 1254.3315,-138.7 1295.3315,-138.7 1295.3315,-119.7 1254.3315,-119.7"/>
<polygon fill="none" stroke="#000000" points="1254.3315,-119.7 1254.3315,-138.7 1295.3315,-138.7 1295.3315,-119.7 1254.3315,-119.7"/>
<text text-anchor="start" x="1257.3315" y="-125.8" font-family="Helvetica,sans-Serif" font-size="11.00" fill="#000000">&lt; 4</text>
<polygon fill="#ffffff" stroke="transparent" points="1295.3315,-119.7 1295.3315,-138.7 1355.3315,-138.7 1355.3315,-119.7 1295.3315,-119.7"/>
<polygon fill="none" stroke="#000000" points="1295.3315,-119.7 1295.3315,-138.7 1355.3315,-138.7 1355.3315,-119.7 1295.3315,-119.7"/>
<text text-anchor="start" x="1307.7122" y="-125.8" font-family="Helvetica,sans-Serif" font-size="11.00" fill="#000000">494 rows</text>
<polygon fill="#ffffff" stroke="transparent" points="1355.3315,-119.7 1355.3315,-138.7 1378.3315,-138.7 1378.3315,-119.7 1355.3315,-119.7"/>
<polygon fill="none" stroke="#000000" points="1355.3315,-119.7 1355.3315,-138.7 1378.3315,-138.7 1378.3315,-119.7 1355.3315,-119.7"/>
<text text-anchor="start" x="1369.2177" y="-125.8" font-family="Helvetica,sans-Serif" font-size="11.00" fill="#000000"> &#160;</text>
</a>
</g>
</g>
<!-- job_request_skill&#45;&gt;principal -->
<g id="edge36" class="edge">
<title>job_request_skill:w&#45;&gt;principal:e</title>
<path fill="none" stroke="#000000" d="M1239.6071,-147.6627C1008.7635,-146.4821 946.3801,-117.7 708.3315,-117.7 708.3315,-117.7 708.3315,-117.7 368.8315,-117.7 366.7974,-117.7 116.3656,-262.7 114.3315,-262.7"/>
<polygon fill="#000000" stroke="#000000" points="1246.3315,-147.6797 1254.3223,-151.3 1250.3315,-147.6898 1254.3315,-147.7 1254.3315,-147.7 1254.3315,-147.7 1250.3315,-147.6898 1254.3406,-144.1 1246.3315,-147.6797 1246.3315,-147.6797"/>
<ellipse fill="none" stroke="#000000" cx="1243.1315" cy="-147.6715" rx="3.2" ry="3.2"/>
</g>
<!-- job_request_skill&#45;&gt;principal -->
<g id="edge38" class="edge">
<title>job_request_skill:w&#45;&gt;principal:e</title>
<path fill="none" stroke="#000000" d="M1239.8077,-147.7021C826.2782,-147.8247 715.3475,-153.5259 299.3315,-215.7 234.9314,-225.3247 217.1495,-222.2419 155.3315,-242.7 136.0835,-249.07 134.6061,-262.7 114.3315,-262.7"/>
<polygon fill="#000000" stroke="#000000" points="1246.3315,-147.7012 1254.332,-151.3 1250.3315,-147.7006 1254.3315,-147.7 1254.3315,-147.7 1254.3315,-147.7 1250.3315,-147.7006 1254.3309,-144.1 1246.3315,-147.7012 1246.3315,-147.7012"/>
<ellipse fill="none" stroke="#000000" cx="1243.1315" cy="-147.7017" rx="3.2" ry="3.2"/>
</g>
<!-- job_request_skill&#45;&gt;job_request -->
<g id="edge37" class="edge">
<title>job_request_skill:w&#45;&gt;job_request:e</title>
<path fill="none" stroke="#000000" d="M1240.593,-152.492C1232.815,-160.219 1233.2848,-176.1435 1228.3315,-191.7 1211.621,-244.1815 1242.4091,-685.7 1187.3315,-685.7"/>
<polygon fill="#000000" stroke="#000000" points="1246.7778,-150.3348 1255.5171,-151.0992 1250.5546,-149.0174 1254.3315,-147.7 1254.3315,-147.7 1254.3315,-147.7 1250.5546,-149.0174 1253.1458,-144.3008 1246.7778,-150.3348 1246.7778,-150.3348"/>
<ellipse fill="none" stroke="#000000" cx="1243.7563" cy="-151.3887" rx="3.2" ry="3.2"/>
</g>
<!-- presentation -->
<g id="node17" class="node">
<title>presentation</title>
<g id="a_node17"><a xlink:href="../../tables/presentation.html" xlink:title="presentation" target="_top">
<polygon fill="#ffffff" stroke="transparent" points="1264.8315,-38.2 1264.8315,-99.2 1367.8315,-99.2 1367.8315,-38.2 1264.8315,-38.2"/>
<polygon fill="#f5f5f5" stroke="transparent" points="1265.3315,-75.7 1265.3315,-98.7 1368.3315,-98.7 1368.3315,-75.7 1265.3315,-75.7"/>
<polygon fill="none" stroke="#000000" points="1265.3315,-75.7 1265.3315,-98.7 1368.3315,-98.7 1368.3315,-75.7 1265.3315,-75.7"/>
<text text-anchor="start" x="1270.071" y="-84.8" font-family="Helvetica,sans-Serif" font-weight="bold" font-size="11.00" fill="#000000">presentation</text>
<text text-anchor="start" x="1333.8533" y="-83.8" font-family="Helvetica,sans-Serif" font-size="11.00" fill="#000000">[table]</text>
<polygon fill="none" stroke="#000000" points="1265.3315,-56.7 1265.3315,-75.7 1368.3315,-75.7 1368.3315,-56.7 1265.3315,-56.7"/>
<text text-anchor="start" x="1268.3315" y="-62.8" font-family="Helvetica,sans-Serif" font-size="11.00" fill="#000000">...</text>
<polygon fill="#ffffff" stroke="transparent" points="1265.3315,-37.7 1265.3315,-56.7 1294.3315,-56.7 1294.3315,-37.7 1265.3315,-37.7"/>
<polygon fill="none" stroke="#000000" points="1265.3315,-37.7 1265.3315,-56.7 1294.3315,-56.7 1294.3315,-37.7 1265.3315,-37.7"/>
<text text-anchor="start" x="1268.3315" y="-43.8" font-family="Helvetica,sans-Serif" font-size="11.00" fill="#000000">&lt; 5</text>
<polygon fill="#ffffff" stroke="transparent" points="1294.3315,-37.7 1294.3315,-56.7 1342.3315,-56.7 1342.3315,-37.7 1294.3315,-37.7"/>
<polygon fill="none" stroke="#000000" points="1294.3315,-37.7 1294.3315,-56.7 1342.3315,-56.7 1342.3315,-37.7 1294.3315,-37.7"/>
<text text-anchor="start" x="1300.8271" y="-43.8" font-family="Helvetica,sans-Serif" font-size="11.00" fill="#000000">16 rows</text>
<polygon fill="#ffffff" stroke="transparent" points="1342.3315,-37.7 1342.3315,-56.7 1368.3315,-56.7 1368.3315,-37.7 1342.3315,-37.7"/>
<polygon fill="none" stroke="#000000" points="1342.3315,-37.7 1342.3315,-56.7 1368.3315,-56.7 1368.3315,-37.7 1342.3315,-37.7"/>
<text text-anchor="start" x="1349.7368" y="-43.8" font-family="Helvetica,sans-Serif" font-size="11.00" fill="#000000">2 &gt;</text>
</a>
</g>
</g>
<!-- presentation&#45;&gt;client -->
<g id="edge43" class="edge">
<title>presentation:w&#45;&gt;client:e</title>
<path fill="none" stroke="#000000" d="M1250.8096,-67.4819C1172.5935,-85.5557 1048.3455,-235.5128 980.3315,-258.7 885.0778,-291.1737 854.9685,-272.7 754.3315,-272.7"/>
<polygon fill="#000000" stroke="#000000" points="1257.391,-66.6744 1265.7699,-69.2732 1261.3612,-66.1872 1265.3315,-65.7 1265.3315,-65.7 1265.3315,-65.7 1261.3612,-66.1872 1264.893,-62.1268 1257.391,-66.6744 1257.391,-66.6744"/>
<ellipse fill="none" stroke="#000000" cx="1254.2148" cy="-67.0641" rx="3.2" ry="3.2"/>
</g>
<!-- presentation&#45;&gt;eworker -->
<g id="edge42" class="edge">
<title>presentation:w&#45;&gt;eworker:e</title>
<path fill="none" stroke="#000000" d="M1250.9585,-67.5004C1211.4383,-78.8342 1233.3924,-141.0462 1195.3315,-178.7 1120.4129,-252.8173 1080.2341,-245.1494 980.3315,-278.7 904.4705,-304.1767 883.8284,-307.525 804.3315,-316.7 701.4436,-328.5747 674.9023,-320.7 571.3315,-320.7"/>
<polygon fill="#000000" stroke="#000000" points="1257.3935,-66.6944 1265.779,-69.2721 1261.3625,-66.1972 1265.3315,-65.7 1265.3315,-65.7 1265.3315,-65.7 1261.3625,-66.1972 1264.884,-62.1279 1257.3935,-66.6944 1257.3935,-66.6944"/>
<ellipse fill="none" stroke="#000000" cx="1254.2183" cy="-67.0922" rx="3.2" ry="3.2"/>
</g>
<!-- presentation&#45;&gt;principal -->
<g id="edge39" class="edge">
<title>presentation:w&#45;&gt;principal:e</title>
<path fill="none" stroke="#000000" d="M1250.8182,-65.7C1104.2953,-65.7 1062.3245,-65.7 908.8315,-65.7 908.8315,-65.7 908.8315,-65.7 368.8315,-65.7 252.3512,-65.7 242.4947,-140.4328 155.3315,-217.7 135.0849,-235.6479 141.3879,-262.7 114.3315,-262.7"/>
<polygon fill="#000000" stroke="#000000" points="1257.3315,-65.7001 1265.3315,-69.3 1261.3315,-65.7 1265.3315,-65.7 1265.3315,-65.7 1265.3315,-65.7 1261.3315,-65.7 1265.3314,-62.1 1257.3315,-65.7001 1257.3315,-65.7001"/>
<ellipse fill="none" stroke="#000000" cx="1254.1315" cy="-65.7001" rx="3.2" ry="3.2"/>
</g>
<!-- presentation&#45;&gt;principal -->
<g id="edge41" class="edge">
<title>presentation:w&#45;&gt;principal:e</title>
<path fill="none" stroke="#000000" d="M1250.8182,-65.7C1104.2953,-65.7 1062.3245,-65.7 908.8315,-65.7 908.8315,-65.7 908.8315,-65.7 525.3315,-65.7 346.8683,-65.7 303.4048,-122.0838 155.3315,-221.7 133.9497,-236.0846 140.1016,-262.7 114.3315,-262.7"/>
<polygon fill="#000000" stroke="#000000" points="1257.3315,-65.7001 1265.3315,-69.3 1261.3315,-65.7 1265.3315,-65.7 1265.3315,-65.7 1265.3315,-65.7 1261.3315,-65.7 1265.3314,-62.1 1257.3315,-65.7001 1257.3315,-65.7001"/>
<ellipse fill="none" stroke="#000000" cx="1254.1315" cy="-65.7001" rx="3.2" ry="3.2"/>
</g>
<!-- presentation&#45;&gt;job_request -->
<g id="edge40" class="edge">
<title>presentation:w&#45;&gt;job_request:e</title>
<path fill="none" stroke="#000000" d="M1254.9705,-67.1236C1239.0133,-72.1323 1236.4305,-89.7207 1228.3315,-109.7 1204.2273,-169.1621 1251.4934,-685.7 1187.3315,-685.7"/>
<polygon fill="#000000" stroke="#000000" points="1263.9944,-61.8461 1265.0834,-69.7717 1263.4983,-69.9895 1262.4093,-62.064 1263.9944,-61.8461"/>
<polyline fill="none" stroke="#000000" points="1265.3315,-65.7 1261.3687,-66.2445 "/>
<ellipse fill="none" stroke="#000000" cx="1258.1985" cy="-66.6802" rx="3.2" ry="3.2"/>
</g>
</g>
</svg>
