<?xml version="1.0" encoding="UTF-8" standalone="no"?>
<!DOCTYPE svg PUBLIC "-//W3C//DTD SVG 1.1//EN"
 "http://www.w3.org/Graphics/SVG/1.1/DTD/svg11.dtd">
<!-- Generated by graphviz version 2.40.1 (20161225.0304)
 -->
<!-- Title: oneDegreeRelationshipsDiagram Pages: 1 -->
<svg width="353pt" height="307pt"
 viewBox="0.00 0.00 353.00 306.70" xmlns="http://www.w3.org/2000/svg" xmlns:xlink="http://www.w3.org/1999/xlink">
<g id="graph0" class="graph" transform="scale(1 1) rotate(0) translate(4 302.7)">
<title>oneDegreeRelationshipsDiagram</title>
<polygon fill="#ffffff" stroke="transparent" points="-4,4 -4,-302.7 349,-302.7 349,4 -4,4"/>
<text text-anchor="middle" x="72.4936" y="-7.3" font-family="Helvetica,sans-Serif" font-size="11.00" fill="#000000">Generated by SchemaSpy</text>
<!-- skill_role_skill -->
<g id="node1" class="node">
<title>skill_role_skill</title>
<g id="a_node1"><a xlink:href="../../tables/skill_role_skill.html" xlink:title="skill_role_skill" target="_top">
<polygon fill="#ffffff" stroke="transparent" points="180,-132.2 180,-244.2 337,-244.2 337,-132.2 180,-132.2"/>
<polygon fill="#f5f5f5" stroke="transparent" points="182.5,-219.2 182.5,-242.2 335.5,-242.2 335.5,-219.2 182.5,-219.2"/>
<polygon fill="none" stroke="#000000" points="182.5,-219.2 182.5,-242.2 335.5,-242.2 335.5,-219.2 182.5,-219.2"/>
<text text-anchor="start" x="187.5" y="-228.3" font-family="Helvetica,sans-Serif" font-weight="bold" font-size="11.00" fill="#000000">skill_role_skill</text>
<text text-anchor="start" x="300.5437" y="-227.3" font-family="Helvetica,sans-Serif" font-size="11.00" fill="#000000">[table]</text>
<polygon fill="none" stroke="#000000" points="182.5,-197.2 182.5,-219.2 285.5,-219.2 285.5,-197.2 182.5,-197.2"/>
<image xlink:href="../../images/primaryKeys.png" width="11px" height="12px" preserveAspectRatio="xMinYMin meet" x="187.5" y="-214.2"/>
<text text-anchor="start" x="202.5" y="-204.3" font-family="Helvetica,sans-Serif" font-size="11.00" fill="#000000">id</text>
<polygon fill="none" stroke="#000000" points="285.5,-197.2 285.5,-219.2 335.5,-219.2 335.5,-197.2 285.5,-197.2"/>
<text text-anchor="start" x="288.1865" y="-204.9" font-family="Helvetica,sans-Serif" font-size="11.00" fill="#000000">bigint[19]</text>
<polygon fill="#ffffff" stroke="transparent" points="182.5,-175.2 182.5,-197.2 285.5,-197.2 285.5,-175.2 182.5,-175.2"/>
<polygon fill="none" stroke="#000000" points="182.5,-175.2 182.5,-197.2 285.5,-197.2 285.5,-175.2 182.5,-175.2"/>
<image xlink:href="../../images/foreignKeys.png" width="11px" height="12px" preserveAspectRatio="xMinYMin meet" x="187.5" y="-192.2"/>
<text text-anchor="start" x="202.5" y="-182.3" font-family="Helvetica,sans-Serif" font-size="11.00" fill="#000000">skill_id</text>
<polygon fill="none" stroke="#000000" points="285.5,-175.2 285.5,-197.2 335.5,-197.2 335.5,-175.2 285.5,-175.2"/>
<text text-anchor="start" x="288.1865" y="-182.9" font-family="Helvetica,sans-Serif" font-size="11.00" fill="#000000">bigint[19]</text>
<polygon fill="#ffffff" stroke="transparent" points="182.5,-153.2 182.5,-175.2 285.5,-175.2 285.5,-153.2 182.5,-153.2"/>
<polygon fill="none" stroke="#000000" points="182.5,-153.2 182.5,-175.2 285.5,-175.2 285.5,-153.2 182.5,-153.2"/>
<image xlink:href="../../images/foreignKeys.png" width="11px" height="12px" preserveAspectRatio="xMinYMin meet" x="187.5" y="-170.2"/>
<text text-anchor="start" x="202.5" y="-160.3" font-family="Helvetica,sans-Serif" font-size="11.00" fill="#000000">skill_role_id</text>
<polygon fill="none" stroke="#000000" points="285.5,-153.2 285.5,-175.2 335.5,-175.2 335.5,-153.2 285.5,-153.2"/>
<text text-anchor="start" x="288.1865" y="-160.9" font-family="Helvetica,sans-Serif" font-size="11.00" fill="#000000">bigint[19]</text>
<polygon fill="#ffffff" stroke="transparent" points="182.5,-134.2 182.5,-153.2 212.5,-153.2 212.5,-134.2 182.5,-134.2"/>
<polygon fill="none" stroke="#000000" points="182.5,-134.2 182.5,-153.2 212.5,-153.2 212.5,-134.2 182.5,-134.2"/>
<text text-anchor="start" x="185.5" y="-140.3" font-family="Helvetica,sans-Serif" font-size="11.00" fill="#000000">&lt; 2</text>
<polygon fill="#ffffff" stroke="transparent" points="212.5,-134.2 212.5,-153.2 285.5,-153.2 285.5,-134.2 212.5,-134.2"/>
<polygon fill="none" stroke="#000000" points="212.5,-134.2 212.5,-153.2 285.5,-153.2 285.5,-134.2 212.5,-134.2"/>
<text text-anchor="start" x="225.047" y="-140.3" font-family="Helvetica,sans-Serif" font-size="11.00" fill="#000000">8 110 rows</text>
<polygon fill="#ffffff" stroke="transparent" points="285.5,-134.2 285.5,-153.2 335.5,-153.2 335.5,-134.2 285.5,-134.2"/>
<polygon fill="none" stroke="#000000" points="285.5,-134.2 285.5,-153.2 335.5,-153.2 335.5,-134.2 285.5,-134.2"/>
<text text-anchor="start" x="316.9053" y="-140.3" font-family="Helvetica,sans-Serif" font-size="11.00" fill="#000000">0 &gt;</text>
<polygon fill="none" stroke="#000000" stroke-width="2" points="181,-133.2 181,-243.2 336,-243.2 336,-133.2 181,-133.2"/>
</a>
</g>
</g>
<!-- skill -->
<g id="node2" class="node">
<title>skill</title>
<g id="a_node2"><a xlink:href="../../tables/skill.html" xlink:title="skill" target="_top">
<polygon fill="#ffffff" stroke="transparent" points="8,-145.7 8,-294.7 131,-294.7 131,-145.7 8,-145.7"/>
<polygon fill="#f5f5f5" stroke="transparent" points="8.5,-271.2 8.5,-294.2 131.5,-294.2 131.5,-271.2 8.5,-271.2"/>
<polygon fill="none" stroke="#000000" points="8.5,-271.2 8.5,-294.2 131.5,-294.2 131.5,-271.2 8.5,-271.2"/>
<text text-anchor="start" x="13.5" y="-280.3" font-family="Helvetica,sans-Serif" font-weight="bold" font-size="11.00" fill="#000000">skill</text>
<text text-anchor="start" x="96.5437" y="-279.3" font-family="Helvetica,sans-Serif" font-size="11.00" fill="#000000">[table]</text>
<polygon fill="none" stroke="#000000" points="8.5,-249.2 8.5,-271.2 131.5,-271.2 131.5,-249.2 8.5,-249.2"/>
<image xlink:href="../../images/primaryKeys.png" width="11px" height="12px" preserveAspectRatio="xMinYMin meet" x="13.5" y="-266.2"/>
<text text-anchor="start" x="28.5" y="-256.3" font-family="Helvetica,sans-Serif" font-size="11.00" fill="#000000">id</text>
<polygon fill="#ffffff" stroke="transparent" points="8.5,-227.2 8.5,-249.2 131.5,-249.2 131.5,-227.2 8.5,-227.2"/>
<polygon fill="none" stroke="#000000" points="8.5,-227.2 8.5,-249.2 131.5,-249.2 131.5,-227.2 8.5,-227.2"/>
<image xlink:href="../../images/foreignKeys.png" width="11px" height="12px" preserveAspectRatio="xMinYMin meet" x="13.5" y="-244.2"/>
<text text-anchor="start" x="28.5" y="-234.3" font-family="Helvetica,sans-Serif" font-size="11.00" fill="#000000">created_by</text>
<polygon fill="#ffffff" stroke="transparent" points="8.5,-205.2 8.5,-227.2 131.5,-227.2 131.5,-205.2 8.5,-205.2"/>
<polygon fill="none" stroke="#000000" points="8.5,-205.2 8.5,-227.2 131.5,-227.2 131.5,-205.2 8.5,-205.2"/>
<image xlink:href="../../images/foreignKeys.png" width="11px" height="12px" preserveAspectRatio="xMinYMin meet" x="13.5" y="-222.2"/>
<text text-anchor="start" x="28.5" y="-212.3" font-family="Helvetica,sans-Serif" font-size="11.00" fill="#000000">modified_by</text>
<polygon fill="#ffffff" stroke="transparent" points="8.5,-183.2 8.5,-205.2 131.5,-205.2 131.5,-183.2 8.5,-183.2"/>
<polygon fill="none" stroke="#000000" points="8.5,-183.2 8.5,-205.2 131.5,-205.2 131.5,-183.2 8.5,-183.2"/>
<text text-anchor="start" x="28.5" y="-190.3" font-family="Helvetica,sans-Serif" font-size="11.00" fill="#000000">name</text>
<polygon fill="none" stroke="#000000" points="8.5,-164.2 8.5,-183.2 131.5,-183.2 131.5,-164.2 8.5,-164.2"/>
<text text-anchor="start" x="11.5" y="-170.3" font-family="Helvetica,sans-Serif" font-size="11.00" fill="#000000">...</text>
<polygon fill="#ffffff" stroke="transparent" points="8.5,-145.2 8.5,-164.2 38.5,-164.2 38.5,-145.2 8.5,-145.2"/>
<polygon fill="none" stroke="#000000" points="8.5,-145.2 8.5,-164.2 38.5,-164.2 38.5,-145.2 8.5,-145.2"/>
<text text-anchor="start" x="11.5" y="-151.3" font-family="Helvetica,sans-Serif" font-size="11.00" fill="#000000">&lt; 2</text>
<polygon fill="#ffffff" stroke="transparent" points="38.5,-145.2 38.5,-164.2 105.5,-164.2 105.5,-145.2 38.5,-145.2"/>
<polygon fill="none" stroke="#000000" points="38.5,-145.2 38.5,-164.2 105.5,-164.2 105.5,-145.2 38.5,-145.2"/>
<text text-anchor="start" x="45.047" y="-151.3" font-family="Helvetica,sans-Serif" font-size="11.00" fill="#000000">2 737 rows</text>
<polygon fill="#ffffff" stroke="transparent" points="105.5,-145.2 105.5,-164.2 131.5,-164.2 131.5,-145.2 105.5,-145.2"/>
<polygon fill="none" stroke="#000000" points="105.5,-145.2 105.5,-164.2 131.5,-164.2 131.5,-145.2 105.5,-145.2"/>
<text text-anchor="start" x="112.9053" y="-151.3" font-family="Helvetica,sans-Serif" font-size="11.00" fill="#000000">5 &gt;</text>
</a>
</g>
</g>
<!-- skill_role_skill&#45;&gt;skill -->
<g id="edge1" class="edge">
<title>skill_role_skill:w&#45;&gt;skill:e</title>
<path fill="none" stroke="#000000" d="M168.5503,-190.829C149.7607,-207.0294 165.3581,-260.2 131.5,-260.2"/>
<polygon fill="#000000" stroke="#000000" points="174.9071,-188.7196 183.6338,-189.6168 178.7036,-187.4598 182.5,-186.2 182.5,-186.2 182.5,-186.2 178.7036,-187.4598 181.3662,-182.7832 174.9071,-188.7196 174.9071,-188.7196"/>
<ellipse fill="none" stroke="#000000" cx="171.87" cy="-189.7275" rx="3.2" ry="3.2"/>
</g>
<!-- skill_role -->
<g id="node3" class="node">
<title>skill_role</title>
<g id="a_node3"><a xlink:href="../../tables/skill_role.html" xlink:title="skill_role" target="_top">
<polygon fill="#ffffff" stroke="transparent" points="27,-38.2 27,-124.2 112,-124.2 112,-38.2 27,-38.2"/>
<polygon fill="#f5f5f5" stroke="transparent" points="27.5,-101.2 27.5,-124.2 112.5,-124.2 112.5,-101.2 27.5,-101.2"/>
<polygon fill="none" stroke="#000000" points="27.5,-101.2 27.5,-124.2 112.5,-124.2 112.5,-101.2 27.5,-101.2"/>
<text text-anchor="start" x="32.1149" y="-110.3" font-family="Helvetica,sans-Serif" font-weight="bold" font-size="11.00" fill="#000000">skill_role</text>
<text text-anchor="start" x="78.0219" y="-109.3" font-family="Helvetica,sans-Serif" font-size="11.00" fill="#000000">[table]</text>
<polygon fill="none" stroke="#000000" points="27.5,-79.2 27.5,-101.2 112.5,-101.2 112.5,-79.2 27.5,-79.2"/>
<image xlink:href="../../images/primaryKeys.png" width="11px" height="12px" preserveAspectRatio="xMinYMin meet" x="32.5" y="-96.2"/>
<text text-anchor="start" x="53.5" y="-86.3" font-family="Helvetica,sans-Serif" font-size="11.00" fill="#000000">id</text>
<polygon fill="#ffffff" stroke="transparent" points="27.5,-57.2 27.5,-79.2 112.5,-79.2 112.5,-57.2 27.5,-57.2"/>
<polygon fill="none" stroke="#000000" points="27.5,-57.2 27.5,-79.2 112.5,-79.2 112.5,-57.2 27.5,-57.2"/>
<text text-anchor="start" x="53.5" y="-64.3" font-family="Helvetica,sans-Serif" font-size="11.00" fill="#000000">name</text>
<polygon fill="#ffffff" stroke="transparent" points="27.5,-38.2 27.5,-57.2 40.5,-57.2 40.5,-38.2 27.5,-38.2"/>
<polygon fill="none" stroke="#000000" points="27.5,-38.2 27.5,-57.2 40.5,-57.2 40.5,-38.2 27.5,-38.2"/>
<text text-anchor="start" x="30.5" y="-44.3" font-family="Helvetica,sans-Serif" font-size="11.00" fill="#000000"> &#160;</text>
<polygon fill="#ffffff" stroke="transparent" points="40.5,-38.2 40.5,-57.2 90.5,-57.2 90.5,-38.2 40.5,-38.2"/>
<polygon fill="none" stroke="#000000" points="40.5,-38.2 40.5,-57.2 90.5,-57.2 90.5,-38.2 40.5,-38.2"/>
<text text-anchor="start" x="43.1903" y="-44.3" font-family="Helvetica,sans-Serif" font-size="11.00" fill="#000000">603 rows</text>
<polygon fill="#ffffff" stroke="transparent" points="90.5,-38.2 90.5,-57.2 112.5,-57.2 112.5,-38.2 90.5,-38.2"/>
<polygon fill="none" stroke="#000000" points="90.5,-38.2 90.5,-57.2 112.5,-57.2 112.5,-38.2 90.5,-38.2"/>
<text text-anchor="start" x="93.9053" y="-44.3" font-family="Helvetica,sans-Serif" font-size="11.00" fill="#000000">4 &gt;</text>
</a>
</g>
</g>
<!-- skill_role_skill&#45;&gt;skill_role -->
<g id="edge2" class="edge">
<title>skill_role_skill:w&#45;&gt;skill_role:e</title>
<path fill="none" stroke="#000000" d="M168.351,-161.0203C141.3355,-146.8563 152.1133,-90.2 112.5,-90.2"/>
<polygon fill="#000000" stroke="#000000" points="174.6947,-162.4459 181.7106,-167.7124 178.5973,-163.3229 182.5,-164.2 182.5,-164.2 182.5,-164.2 178.5973,-163.3229 183.2894,-160.6876 174.6947,-162.4459 174.6947,-162.4459"/>
<ellipse fill="none" stroke="#000000" cx="171.5725" cy="-161.7442" rx="3.2" ry="3.2"/>
</g>
</g>
</svg>
