<?xml version="1.0" encoding="UTF-8" standalone="no"?>
<!DOCTYPE svg PUBLIC "-//W3C//DTD SVG 1.1//EN"
 "http://www.w3.org/Graphics/SVG/1.1/DTD/svg11.dtd">
<!-- Generated by graphviz version 2.40.1 (20161225.0304)
 -->
<!-- Title: oneDegreeRelationshipsDiagram Pages: 1 -->
<svg width="532pt" height="776pt"
 viewBox="0.00 0.00 532.00 776.20" xmlns="http://www.w3.org/2000/svg" xmlns:xlink="http://www.w3.org/1999/xlink">
<g id="graph0" class="graph" transform="scale(1 1) rotate(0) translate(4 772.2)">
<title>oneDegreeRelationshipsDiagram</title>
<polygon fill="#ffffff" stroke="transparent" points="-4,4 -4,-772.2 528,-772.2 528,4 -4,4"/>
<text text-anchor="middle" x="72.4936" y="-7.3" font-family="Helvetica,sans-Serif" font-size="11.00" fill="#000000">Generated by SchemaSpy</text>
<!-- applicant_skill -->
<g id="node1" class="node">
<title>applicant_skill</title>
<g id="a_node1"><a xlink:href="../../tables/applicant_skill.html" xlink:title="applicant_skill" target="_top">
<polygon fill="#ffffff" stroke="transparent" points="398.5,-467.2 398.5,-572.2 509.5,-572.2 509.5,-467.2 398.5,-467.2"/>
<polygon fill="#f5f5f5" stroke="transparent" points="399,-548.7 399,-571.7 510,-571.7 510,-548.7 399,-548.7"/>
<polygon fill="none" stroke="#000000" points="399,-548.7 399,-571.7 510,-571.7 510,-548.7 399,-548.7"/>
<text text-anchor="start" x="403.7746" y="-557.8" font-family="Helvetica,sans-Serif" font-weight="bold" font-size="11.00" fill="#000000">applicant_skill</text>
<text text-anchor="start" x="475.5219" y="-556.8" font-family="Helvetica,sans-Serif" font-size="11.00" fill="#000000">[table]</text>
<polygon fill="#ffffff" stroke="transparent" points="399,-526.7 399,-548.7 510,-548.7 510,-526.7 399,-526.7"/>
<polygon fill="none" stroke="#000000" points="399,-526.7 399,-548.7 510,-548.7 510,-526.7 399,-526.7"/>
<image xlink:href="../../images/foreignKeys.png" width="11px" height="12px" preserveAspectRatio="xMinYMin meet" x="404" y="-543.7"/>
<text text-anchor="start" x="423" y="-533.8" font-family="Helvetica,sans-Serif" font-size="11.00" fill="#000000">applicant_id</text>
<polygon fill="#ffffff" stroke="transparent" points="399,-504.7 399,-526.7 510,-526.7 510,-504.7 399,-504.7"/>
<polygon fill="none" stroke="#000000" points="399,-504.7 399,-526.7 510,-526.7 510,-504.7 399,-504.7"/>
<image xlink:href="../../images/foreignKeys.png" width="11px" height="12px" preserveAspectRatio="xMinYMin meet" x="404" y="-521.7"/>
<text text-anchor="start" x="423" y="-511.8" font-family="Helvetica,sans-Serif" font-size="11.00" fill="#000000">skill_id</text>
<polygon fill="none" stroke="#000000" points="399,-485.7 399,-504.7 510,-504.7 510,-485.7 399,-485.7"/>
<text text-anchor="start" x="402" y="-491.8" font-family="Helvetica,sans-Serif" font-size="11.00" fill="#000000">...</text>
<polygon fill="#ffffff" stroke="transparent" points="399,-466.7 399,-485.7 434,-485.7 434,-466.7 399,-466.7"/>
<polygon fill="none" stroke="#000000" points="399,-466.7 399,-485.7 434,-485.7 434,-466.7 399,-466.7"/>
<text text-anchor="start" x="402" y="-472.8" font-family="Helvetica,sans-Serif" font-size="11.00" fill="#000000">&lt; 2</text>
<polygon fill="#ffffff" stroke="transparent" points="434,-466.7 434,-485.7 491,-485.7 491,-466.7 434,-466.7"/>
<polygon fill="none" stroke="#000000" points="434,-466.7 434,-485.7 491,-485.7 491,-466.7 434,-466.7"/>
<text text-anchor="start" x="443.3807" y="-472.8" font-family="Helvetica,sans-Serif" font-size="11.00" fill="#000000">181 rows</text>
<polygon fill="#ffffff" stroke="transparent" points="491,-466.7 491,-485.7 510,-485.7 510,-466.7 491,-466.7"/>
<polygon fill="none" stroke="#000000" points="491,-466.7 491,-485.7 510,-485.7 510,-466.7 491,-466.7"/>
<text text-anchor="start" x="500.8862" y="-472.8" font-family="Helvetica,sans-Serif" font-size="11.00" fill="#000000"> &#160;</text>
</a>
</g>
</g>
<!-- skill -->
<g id="node2" class="node">
<title>skill</title>
<g id="a_node2"><a xlink:href="../../tables/skill.html" xlink:title="skill" target="_top">
<polygon fill="#ffffff" stroke="transparent" points="149,-225.7 149,-425.7 343,-425.7 343,-225.7 149,-225.7"/>
<polygon fill="#f5f5f5" stroke="transparent" points="151,-400.7 151,-423.7 341,-423.7 341,-400.7 151,-400.7"/>
<polygon fill="none" stroke="#000000" points="151,-400.7 151,-423.7 341,-423.7 341,-400.7 151,-400.7"/>
<text text-anchor="start" x="156" y="-409.8" font-family="Helvetica,sans-Serif" font-weight="bold" font-size="11.00" fill="#000000">skill</text>
<text text-anchor="start" x="306.0437" y="-408.8" font-family="Helvetica,sans-Serif" font-size="11.00" fill="#000000">[table]</text>
<polygon fill="none" stroke="#000000" points="151,-378.7 151,-400.7 274,-400.7 274,-378.7 151,-378.7"/>
<image xlink:href="../../images/primaryKeys.png" width="11px" height="12px" preserveAspectRatio="xMinYMin meet" x="156" y="-395.7"/>
<text text-anchor="start" x="171" y="-385.8" font-family="Helvetica,sans-Serif" font-size="11.00" fill="#000000">id</text>
<polygon fill="none" stroke="#000000" points="274,-378.7 274,-400.7 341,-400.7 341,-378.7 274,-378.7"/>
<text text-anchor="start" x="277" y="-386.4" font-family="Helvetica,sans-Serif" font-size="11.00" fill="#000000">bigint[19]</text>
<polygon fill="#ffffff" stroke="transparent" points="151,-356.7 151,-378.7 274,-378.7 274,-356.7 151,-356.7"/>
<polygon fill="none" stroke="#000000" points="151,-356.7 151,-378.7 274,-378.7 274,-356.7 151,-356.7"/>
<image xlink:href="../../images/foreignKeys.png" width="11px" height="12px" preserveAspectRatio="xMinYMin meet" x="156" y="-373.7"/>
<text text-anchor="start" x="171" y="-363.8" font-family="Helvetica,sans-Serif" font-size="11.00" fill="#000000">created_by</text>
<polygon fill="none" stroke="#000000" points="274,-356.7 274,-378.7 341,-378.7 341,-356.7 274,-356.7"/>
<text text-anchor="start" x="277" y="-364.4" font-family="Helvetica,sans-Serif" font-size="11.00" fill="#000000">bigint[19]</text>
<polygon fill="none" stroke="#000000" points="151,-334.7 151,-356.7 274,-356.7 274,-334.7 151,-334.7"/>
<text text-anchor="start" x="171" y="-341.8" font-family="Helvetica,sans-Serif" font-size="11.00" fill="#000000">creation_date</text>
<polygon fill="none" stroke="#000000" points="274,-334.7 274,-356.7 341,-356.7 341,-334.7 274,-334.7"/>
<text text-anchor="start" x="277" y="-342.4" font-family="Helvetica,sans-Serif" font-size="11.00" fill="#000000">datetime[26]</text>
<polygon fill="#ffffff" stroke="transparent" points="151,-312.7 151,-334.7 274,-334.7 274,-312.7 151,-312.7"/>
<polygon fill="none" stroke="#000000" points="151,-312.7 151,-334.7 274,-334.7 274,-312.7 151,-312.7"/>
<image xlink:href="../../images/foreignKeys.png" width="11px" height="12px" preserveAspectRatio="xMinYMin meet" x="156" y="-329.7"/>
<text text-anchor="start" x="171" y="-319.8" font-family="Helvetica,sans-Serif" font-size="11.00" fill="#000000">modified_by</text>
<polygon fill="none" stroke="#000000" points="274,-312.7 274,-334.7 341,-334.7 341,-312.7 274,-312.7"/>
<text text-anchor="start" x="277" y="-320.4" font-family="Helvetica,sans-Serif" font-size="11.00" fill="#000000">bigint[19]</text>
<polygon fill="none" stroke="#000000" points="151,-290.7 151,-312.7 274,-312.7 274,-290.7 151,-290.7"/>
<text text-anchor="start" x="171" y="-297.8" font-family="Helvetica,sans-Serif" font-size="11.00" fill="#000000">modification_date</text>
<polygon fill="none" stroke="#000000" points="274,-290.7 274,-312.7 341,-312.7 341,-290.7 274,-290.7"/>
<text text-anchor="start" x="277" y="-298.4" font-family="Helvetica,sans-Serif" font-size="11.00" fill="#000000">datetime[26]</text>
<polygon fill="none" stroke="#000000" points="151,-268.7 151,-290.7 274,-290.7 274,-268.7 151,-268.7"/>
<text text-anchor="start" x="171" y="-275.8" font-family="Helvetica,sans-Serif" font-size="11.00" fill="#000000">active</text>
<polygon fill="none" stroke="#000000" points="274,-268.7 274,-290.7 341,-290.7 341,-268.7 274,-268.7"/>
<text text-anchor="start" x="277" y="-276.4" font-family="Helvetica,sans-Serif" font-size="11.00" fill="#000000">bit[1]</text>
<polygon fill="#ffffff" stroke="transparent" points="151,-246.7 151,-268.7 274,-268.7 274,-246.7 151,-246.7"/>
<polygon fill="none" stroke="#000000" points="151,-246.7 151,-268.7 274,-268.7 274,-246.7 151,-246.7"/>
<text text-anchor="start" x="171" y="-253.8" font-family="Helvetica,sans-Serif" font-size="11.00" fill="#000000">name</text>
<polygon fill="none" stroke="#000000" points="274,-246.7 274,-268.7 341,-268.7 341,-246.7 274,-246.7"/>
<text text-anchor="start" x="276.9365" y="-254.4" font-family="Helvetica,sans-Serif" font-size="11.00" fill="#000000">varchar[100]</text>
<polygon fill="#ffffff" stroke="transparent" points="151,-227.7 151,-246.7 191,-246.7 191,-227.7 151,-227.7"/>
<polygon fill="none" stroke="#000000" points="151,-227.7 151,-246.7 191,-246.7 191,-227.7 151,-227.7"/>
<text text-anchor="start" x="154" y="-233.8" font-family="Helvetica,sans-Serif" font-size="11.00" fill="#000000">&lt; 2</text>
<polygon fill="#ffffff" stroke="transparent" points="191,-227.7 191,-246.7 274,-246.7 274,-227.7 191,-227.7"/>
<polygon fill="none" stroke="#000000" points="191,-227.7 191,-246.7 274,-246.7 274,-227.7 191,-227.7"/>
<text text-anchor="start" x="213.547" y="-233.8" font-family="Helvetica,sans-Serif" font-size="11.00" fill="#000000">2 737 rows</text>
<polygon fill="#ffffff" stroke="transparent" points="274,-227.7 274,-246.7 341,-246.7 341,-227.7 274,-227.7"/>
<polygon fill="none" stroke="#000000" points="274,-227.7 274,-246.7 341,-246.7 341,-227.7 274,-227.7"/>
<text text-anchor="start" x="322.4053" y="-233.8" font-family="Helvetica,sans-Serif" font-size="11.00" fill="#000000">5 &gt;</text>
<polygon fill="none" stroke="#000000" stroke-width="2" points="150,-226.7 150,-424.7 342,-424.7 342,-226.7 150,-226.7"/>
</a>
</g>
</g>
<!-- applicant_skill&#45;&gt;skill -->
<g id="edge1" class="edge">
<title>applicant_skill:w&#45;&gt;skill:e</title>
<path fill="none" stroke="#000000" d="M384.7994,-512.5854C348.4792,-493.1824 396.8686,-389.7 341,-389.7"/>
<polygon fill="#000000" stroke="#000000" points="391.1857,-513.986 398.2287,-519.2164 395.0929,-514.843 399,-515.7 399,-515.7 399,-515.7 395.0929,-514.843 399.7713,-512.1836 391.1857,-513.986 391.1857,-513.986"/>
<ellipse fill="none" stroke="#000000" cx="388.06" cy="-513.3005" rx="3.2" ry="3.2"/>
</g>
<!-- principal -->
<g id="node5" class="node">
<title>principal</title>
<g id="a_node5"><a xlink:href="../../tables/principal.html" xlink:title="principal" target="_top">
<polygon fill="#ffffff" stroke="transparent" points="8,-275.2 8,-380.2 100,-380.2 100,-275.2 8,-275.2"/>
<polygon fill="#f5f5f5" stroke="transparent" points="8,-356.7 8,-379.7 100,-379.7 100,-356.7 8,-356.7"/>
<polygon fill="none" stroke="#000000" points="8,-356.7 8,-379.7 100,-379.7 100,-356.7 8,-356.7"/>
<text text-anchor="start" x="13" y="-365.8" font-family="Helvetica,sans-Serif" font-weight="bold" font-size="11.00" fill="#000000">principal</text>
<text text-anchor="start" x="65.0437" y="-364.8" font-family="Helvetica,sans-Serif" font-size="11.00" fill="#000000">[table]</text>
<polygon fill="none" stroke="#000000" points="8,-334.7 8,-356.7 100,-356.7 100,-334.7 8,-334.7"/>
<image xlink:href="../../images/primaryKeys.png" width="11px" height="12px" preserveAspectRatio="xMinYMin meet" x="13" y="-351.7"/>
<text text-anchor="start" x="32" y="-341.8" font-family="Helvetica,sans-Serif" font-size="11.00" fill="#000000">id</text>
<polygon fill="#ffffff" stroke="transparent" points="8,-312.7 8,-334.7 100,-334.7 100,-312.7 8,-312.7"/>
<polygon fill="none" stroke="#000000" points="8,-312.7 8,-334.7 100,-334.7 100,-312.7 8,-312.7"/>
<image xlink:href="../../images/foreignKeys.png" width="11px" height="12px" preserveAspectRatio="xMinYMin meet" x="13" y="-329.7"/>
<text text-anchor="start" x="32" y="-319.8" font-family="Helvetica,sans-Serif" font-size="11.00" fill="#000000">eworker_id</text>
<polygon fill="none" stroke="#000000" points="8,-293.7 8,-312.7 100,-312.7 100,-293.7 8,-293.7"/>
<text text-anchor="start" x="11" y="-299.8" font-family="Helvetica,sans-Serif" font-size="11.00" fill="#000000">...</text>
<polygon fill="#ffffff" stroke="transparent" points="8,-274.7 8,-293.7 29,-293.7 29,-274.7 8,-274.7"/>
<polygon fill="none" stroke="#000000" points="8,-274.7 8,-293.7 29,-293.7 29,-274.7 8,-274.7"/>
<text text-anchor="start" x="10.7027" y="-280.8" font-family="Helvetica,sans-Serif" font-size="11.00" fill="#000000">&lt; 1</text>
<polygon fill="#ffffff" stroke="transparent" points="29,-274.7 29,-293.7 73,-293.7 73,-274.7 29,-274.7"/>
<polygon fill="none" stroke="#000000" points="29,-274.7 29,-293.7 73,-293.7 73,-274.7 29,-274.7"/>
<text text-anchor="start" x="31.7478" y="-280.8" font-family="Helvetica,sans-Serif" font-size="11.00" fill="#000000">18 rows</text>
<polygon fill="#ffffff" stroke="transparent" points="73,-274.7 73,-293.7 100,-293.7 100,-274.7 73,-274.7"/>
<polygon fill="none" stroke="#000000" points="73,-274.7 73,-293.7 100,-293.7 100,-274.7 73,-274.7"/>
<text text-anchor="start" x="75.6452" y="-280.8" font-family="Helvetica,sans-Serif" font-size="11.00" fill="#000000">56 &gt;</text>
</a>
</g>
</g>
<!-- skill&#45;&gt;principal -->
<g id="edge9" class="edge">
<title>skill:w&#45;&gt;principal:e</title>
<path fill="none" stroke="#000000" d="M136.8489,-364.641C124.2843,-358.596 118.9,-345.7 100,-345.7"/>
<polygon fill="#000000" stroke="#000000" points="143.1806,-366.0097 150.2393,-371.2187 147.0903,-366.8548 151,-367.7 151,-367.7 151,-367.7 147.0903,-366.8548 151.7607,-364.1813 143.1806,-366.0097 143.1806,-366.0097"/>
<ellipse fill="none" stroke="#000000" cx="140.0528" cy="-365.3335" rx="3.2" ry="3.2"/>
</g>
<!-- skill&#45;&gt;principal -->
<g id="edge10" class="edge">
<title>skill:w&#45;&gt;principal:e</title>
<path fill="none" stroke="#000000" d="M136.8489,-326.759C124.2843,-332.804 118.9,-345.7 100,-345.7"/>
<polygon fill="#000000" stroke="#000000" points="143.1806,-325.3903 151.7607,-327.2187 147.0903,-324.5452 151,-323.7 151,-323.7 151,-323.7 147.0903,-324.5452 150.2393,-320.1813 143.1806,-325.3903 143.1806,-325.3903"/>
<ellipse fill="none" stroke="#000000" cx="140.0528" cy="-326.0665" rx="3.2" ry="3.2"/>
</g>
<!-- invitation_skill -->
<g id="node3" class="node">
<title>invitation_skill</title>
<g id="a_node3"><a xlink:href="../../tables/invitation_skill.html" xlink:title="invitation_skill" target="_top">
<polygon fill="#ffffff" stroke="transparent" points="399,-359.7 399,-445.7 509,-445.7 509,-359.7 399,-359.7"/>
<polygon fill="#f5f5f5" stroke="transparent" points="399,-422.7 399,-445.7 509,-445.7 509,-422.7 399,-422.7"/>
<polygon fill="none" stroke="#000000" points="399,-422.7 399,-445.7 509,-445.7 509,-422.7 399,-422.7"/>
<text text-anchor="start" x="403.5832" y="-431.8" font-family="Helvetica,sans-Serif" font-weight="bold" font-size="11.00" fill="#000000">invitation_skill</text>
<text text-anchor="start" x="474.5219" y="-430.8" font-family="Helvetica,sans-Serif" font-size="11.00" fill="#000000">[table]</text>
<polygon fill="#ffffff" stroke="transparent" points="399,-400.7 399,-422.7 509,-422.7 509,-400.7 399,-400.7"/>
<polygon fill="none" stroke="#000000" points="399,-400.7 399,-422.7 509,-422.7 509,-400.7 399,-400.7"/>
<image xlink:href="../../images/foreignKeys.png" width="11px" height="12px" preserveAspectRatio="xMinYMin meet" x="404" y="-417.7"/>
<text text-anchor="start" x="422" y="-407.8" font-family="Helvetica,sans-Serif" font-size="11.00" fill="#000000">invitation_id</text>
<polygon fill="#ffffff" stroke="transparent" points="399,-378.7 399,-400.7 509,-400.7 509,-378.7 399,-378.7"/>
<polygon fill="none" stroke="#000000" points="399,-378.7 399,-400.7 509,-400.7 509,-378.7 399,-378.7"/>
<image xlink:href="../../images/foreignKeys.png" width="11px" height="12px" preserveAspectRatio="xMinYMin meet" x="404" y="-395.7"/>
<text text-anchor="start" x="422" y="-385.8" font-family="Helvetica,sans-Serif" font-size="11.00" fill="#000000">skill_id</text>
<polygon fill="#ffffff" stroke="transparent" points="399,-359.7 399,-378.7 439,-378.7 439,-359.7 399,-359.7"/>
<polygon fill="none" stroke="#000000" points="399,-359.7 399,-378.7 439,-378.7 439,-359.7 399,-359.7"/>
<text text-anchor="start" x="402" y="-365.8" font-family="Helvetica,sans-Serif" font-size="11.00" fill="#000000">&lt; 2</text>
<polygon fill="#ffffff" stroke="transparent" points="439,-359.7 439,-378.7 487,-378.7 487,-359.7 439,-359.7"/>
<polygon fill="none" stroke="#000000" points="439,-359.7 439,-378.7 487,-378.7 487,-359.7 439,-359.7"/>
<text text-anchor="start" x="451.6105" y="-365.8" font-family="Helvetica,sans-Serif" font-size="11.00" fill="#000000">4 rows</text>
<polygon fill="#ffffff" stroke="transparent" points="487,-359.7 487,-378.7 509,-378.7 509,-359.7 487,-359.7"/>
<polygon fill="none" stroke="#000000" points="487,-359.7 487,-378.7 509,-378.7 509,-359.7 487,-359.7"/>
<text text-anchor="start" x="499.8862" y="-365.8" font-family="Helvetica,sans-Serif" font-size="11.00" fill="#000000"> &#160;</text>
</a>
</g>
</g>
<!-- invitation_skill&#45;&gt;skill -->
<g id="edge2" class="edge">
<title>invitation_skill:w&#45;&gt;skill:e</title>
<path fill="none" stroke="#000000" d="M384.454,-389.7C369.4776,-389.7 361.1389,-389.7 341,-389.7"/>
<polygon fill="#000000" stroke="#000000" points="391,-389.7001 399,-393.3 395,-389.7 399,-389.7 399,-389.7 399,-389.7 395,-389.7 399,-386.1 391,-389.7001 391,-389.7001"/>
<ellipse fill="none" stroke="#000000" cx="387.8" cy="-389.7001" rx="3.2" ry="3.2"/>
</g>
<!-- job_ad_skill -->
<g id="node4" class="node">
<title>job_ad_skill</title>
<g id="a_node4"><a xlink:href="../../tables/job_ad_skill.html" xlink:title="job_ad_skill" target="_top">
<polygon fill="#ffffff" stroke="transparent" points="392.5,-593.2 392.5,-764.2 515.5,-764.2 515.5,-593.2 392.5,-593.2"/>
<polygon fill="#f5f5f5" stroke="transparent" points="393,-740.7 393,-763.7 516,-763.7 516,-740.7 393,-740.7"/>
<polygon fill="none" stroke="#000000" points="393,-740.7 393,-763.7 516,-763.7 516,-740.7 393,-740.7"/>
<text text-anchor="start" x="398" y="-749.8" font-family="Helvetica,sans-Serif" font-weight="bold" font-size="11.00" fill="#000000">job_ad_skill</text>
<text text-anchor="start" x="481.0437" y="-748.8" font-family="Helvetica,sans-Serif" font-size="11.00" fill="#000000">[table]</text>
<polygon fill="none" stroke="#000000" points="393,-718.7 393,-740.7 516,-740.7 516,-718.7 393,-718.7"/>
<image xlink:href="../../images/primaryKeys.png" width="11px" height="12px" preserveAspectRatio="xMinYMin meet" x="398" y="-735.7"/>
<text text-anchor="start" x="413" y="-725.8" font-family="Helvetica,sans-Serif" font-size="11.00" fill="#000000">id</text>
<polygon fill="#ffffff" stroke="transparent" points="393,-696.7 393,-718.7 516,-718.7 516,-696.7 393,-696.7"/>
<polygon fill="none" stroke="#000000" points="393,-696.7 393,-718.7 516,-718.7 516,-696.7 393,-696.7"/>
<image xlink:href="../../images/foreignKeys.png" width="11px" height="12px" preserveAspectRatio="xMinYMin meet" x="398" y="-713.7"/>
<text text-anchor="start" x="413" y="-703.8" font-family="Helvetica,sans-Serif" font-size="11.00" fill="#000000">created_by</text>
<polygon fill="#ffffff" stroke="transparent" points="393,-674.7 393,-696.7 516,-696.7 516,-674.7 393,-674.7"/>
<polygon fill="none" stroke="#000000" points="393,-674.7 393,-696.7 516,-696.7 516,-674.7 393,-674.7"/>
<image xlink:href="../../images/foreignKeys.png" width="11px" height="12px" preserveAspectRatio="xMinYMin meet" x="398" y="-691.7"/>
<text text-anchor="start" x="413" y="-681.8" font-family="Helvetica,sans-Serif" font-size="11.00" fill="#000000">modified_by</text>
<polygon fill="#ffffff" stroke="transparent" points="393,-652.7 393,-674.7 516,-674.7 516,-652.7 393,-652.7"/>
<polygon fill="none" stroke="#000000" points="393,-652.7 393,-674.7 516,-674.7 516,-652.7 393,-652.7"/>
<image xlink:href="../../images/foreignKeys.png" width="11px" height="12px" preserveAspectRatio="xMinYMin meet" x="398" y="-669.7"/>
<text text-anchor="start" x="413" y="-659.8" font-family="Helvetica,sans-Serif" font-size="11.00" fill="#000000">job_ad_id</text>
<polygon fill="#ffffff" stroke="transparent" points="393,-630.7 393,-652.7 516,-652.7 516,-630.7 393,-630.7"/>
<polygon fill="none" stroke="#000000" points="393,-630.7 393,-652.7 516,-652.7 516,-630.7 393,-630.7"/>
<image xlink:href="../../images/foreignKeys.png" width="11px" height="12px" preserveAspectRatio="xMinYMin meet" x="398" y="-647.7"/>
<text text-anchor="start" x="413" y="-637.8" font-family="Helvetica,sans-Serif" font-size="11.00" fill="#000000">skill_id</text>
<polygon fill="none" stroke="#000000" points="393,-611.7 393,-630.7 516,-630.7 516,-611.7 393,-611.7"/>
<text text-anchor="start" x="396" y="-617.8" font-family="Helvetica,sans-Serif" font-size="11.00" fill="#000000">...</text>
<polygon fill="#ffffff" stroke="transparent" points="393,-592.7 393,-611.7 434,-611.7 434,-592.7 393,-592.7"/>
<polygon fill="none" stroke="#000000" points="393,-592.7 393,-611.7 434,-611.7 434,-592.7 393,-592.7"/>
<text text-anchor="start" x="396" y="-598.8" font-family="Helvetica,sans-Serif" font-size="11.00" fill="#000000">&lt; 4</text>
<polygon fill="#ffffff" stroke="transparent" points="434,-592.7 434,-611.7 494,-611.7 494,-592.7 434,-592.7"/>
<polygon fill="none" stroke="#000000" points="434,-592.7 434,-611.7 494,-611.7 494,-592.7 434,-592.7"/>
<text text-anchor="start" x="446.3807" y="-598.8" font-family="Helvetica,sans-Serif" font-size="11.00" fill="#000000">138 rows</text>
<polygon fill="#ffffff" stroke="transparent" points="494,-592.7 494,-611.7 516,-611.7 516,-592.7 494,-592.7"/>
<polygon fill="none" stroke="#000000" points="494,-592.7 494,-611.7 516,-611.7 516,-592.7 494,-592.7"/>
<text text-anchor="start" x="506.8862" y="-598.8" font-family="Helvetica,sans-Serif" font-size="11.00" fill="#000000"> &#160;</text>
</a>
</g>
</g>
<!-- job_ad_skill&#45;&gt;skill -->
<g id="edge5" class="edge">
<title>job_ad_skill:w&#45;&gt;skill:e</title>
<path fill="none" stroke="#000000" d="M378.5189,-640.0242C294.8865,-618.1598 449.8873,-389.7 341,-389.7"/>
<polygon fill="#000000" stroke="#000000" points="385.053,-640.7803 392.5861,-645.2761 389.0265,-641.2401 393,-641.7 393,-641.7 393,-641.7 389.0265,-641.2401 393.4139,-638.1239 385.053,-640.7803 385.053,-640.7803"/>
<ellipse fill="none" stroke="#000000" cx="381.8743" cy="-640.4124" rx="3.2" ry="3.2"/>
</g>
<!-- job_ad_skill&#45;&gt;principal -->
<g id="edge3" class="edge">
<title>job_ad_skill:w&#45;&gt;principal:e</title>
<path fill="none" stroke="#000000" d="M378.5012,-707.5568C262.3662,-705.188 212.8107,-672.9489 141,-574.7 110.4936,-532.9621 151.6981,-345.7 100,-345.7"/>
<polygon fill="#000000" stroke="#000000" points="385.0004,-707.6209 392.9644,-711.2998 389.0002,-707.6605 393,-707.7 393,-707.7 393,-707.7 389.0002,-707.6605 393.0356,-704.1002 385.0004,-707.6209 385.0004,-707.6209"/>
<ellipse fill="none" stroke="#000000" cx="381.8005" cy="-707.5893" rx="3.2" ry="3.2"/>
</g>
<!-- job_ad_skill&#45;&gt;principal -->
<g id="edge4" class="edge">
<title>job_ad_skill:w&#45;&gt;principal:e</title>
<path fill="none" stroke="#000000" d="M378.6387,-683.1793C349.4499,-670.3947 380.0123,-611.9152 351,-575.7 281.0209,-488.3471 213.5071,-521.9662 141,-436.7 112.2633,-402.9065 144.3599,-345.7 100,-345.7"/>
<polygon fill="#000000" stroke="#000000" points="385.1205,-684.3169 392.3776,-689.2458 389.0602,-685.0085 393,-685.7 393,-685.7 393,-685.7 389.0602,-685.0085 393.6224,-682.1542 385.1205,-684.3169 385.1205,-684.3169"/>
<ellipse fill="none" stroke="#000000" cx="381.9686" cy="-683.7637" rx="3.2" ry="3.2"/>
</g>
<!-- job_request_skill -->
<g id="node6" class="node">
<title>job_request_skill</title>
<g id="a_node6"><a xlink:href="../../tables/job_request_skill.html" xlink:title="job_request_skill" target="_top">
<polygon fill="#ffffff" stroke="transparent" points="392,-38.2 392,-209.2 516,-209.2 516,-38.2 392,-38.2"/>
<polygon fill="#f5f5f5" stroke="transparent" points="392,-185.7 392,-208.7 516,-208.7 516,-185.7 392,-185.7"/>
<polygon fill="none" stroke="#000000" points="392,-185.7 392,-208.7 516,-208.7 516,-185.7 392,-185.7"/>
<text text-anchor="start" x="396.5492" y="-194.8" font-family="Helvetica,sans-Serif" font-weight="bold" font-size="11.00" fill="#000000">job_request_skill</text>
<text text-anchor="start" x="481.5219" y="-193.8" font-family="Helvetica,sans-Serif" font-size="11.00" fill="#000000">[table]</text>
<polygon fill="none" stroke="#000000" points="392,-163.7 392,-185.7 516,-185.7 516,-163.7 392,-163.7"/>
<image xlink:href="../../images/primaryKeys.png" width="11px" height="12px" preserveAspectRatio="xMinYMin meet" x="397" y="-180.7"/>
<text text-anchor="start" x="413" y="-170.8" font-family="Helvetica,sans-Serif" font-size="11.00" fill="#000000">id</text>
<polygon fill="#ffffff" stroke="transparent" points="392,-141.7 392,-163.7 516,-163.7 516,-141.7 392,-141.7"/>
<polygon fill="none" stroke="#000000" points="392,-141.7 392,-163.7 516,-163.7 516,-141.7 392,-141.7"/>
<image xlink:href="../../images/foreignKeys.png" width="11px" height="12px" preserveAspectRatio="xMinYMin meet" x="397" y="-158.7"/>
<text text-anchor="start" x="413" y="-148.8" font-family="Helvetica,sans-Serif" font-size="11.00" fill="#000000">created_by</text>
<polygon fill="#ffffff" stroke="transparent" points="392,-119.7 392,-141.7 516,-141.7 516,-119.7 392,-119.7"/>
<polygon fill="none" stroke="#000000" points="392,-119.7 392,-141.7 516,-141.7 516,-119.7 392,-119.7"/>
<image xlink:href="../../images/foreignKeys.png" width="11px" height="12px" preserveAspectRatio="xMinYMin meet" x="397" y="-136.7"/>
<text text-anchor="start" x="413" y="-126.8" font-family="Helvetica,sans-Serif" font-size="11.00" fill="#000000">modified_by</text>
<polygon fill="#ffffff" stroke="transparent" points="392,-97.7 392,-119.7 516,-119.7 516,-97.7 392,-97.7"/>
<polygon fill="none" stroke="#000000" points="392,-97.7 392,-119.7 516,-119.7 516,-97.7 392,-97.7"/>
<image xlink:href="../../images/foreignKeys.png" width="11px" height="12px" preserveAspectRatio="xMinYMin meet" x="397" y="-114.7"/>
<text text-anchor="start" x="413" y="-104.8" font-family="Helvetica,sans-Serif" font-size="11.00" fill="#000000">job_request_id</text>
<polygon fill="#ffffff" stroke="transparent" points="392,-75.7 392,-97.7 516,-97.7 516,-75.7 392,-75.7"/>
<polygon fill="none" stroke="#000000" points="392,-75.7 392,-97.7 516,-97.7 516,-75.7 392,-75.7"/>
<image xlink:href="../../images/foreignKeys.png" width="11px" height="12px" preserveAspectRatio="xMinYMin meet" x="397" y="-92.7"/>
<text text-anchor="start" x="413" y="-82.8" font-family="Helvetica,sans-Serif" font-size="11.00" fill="#000000">skill_id</text>
<polygon fill="none" stroke="#000000" points="392,-56.7 392,-75.7 516,-75.7 516,-56.7 392,-56.7"/>
<text text-anchor="start" x="395" y="-62.8" font-family="Helvetica,sans-Serif" font-size="11.00" fill="#000000">...</text>
<polygon fill="#ffffff" stroke="transparent" points="392,-37.7 392,-56.7 433,-56.7 433,-37.7 392,-37.7"/>
<polygon fill="none" stroke="#000000" points="392,-37.7 392,-56.7 433,-56.7 433,-37.7 392,-37.7"/>
<text text-anchor="start" x="395" y="-43.8" font-family="Helvetica,sans-Serif" font-size="11.00" fill="#000000">&lt; 4</text>
<polygon fill="#ffffff" stroke="transparent" points="433,-37.7 433,-56.7 493,-56.7 493,-37.7 433,-37.7"/>
<polygon fill="none" stroke="#000000" points="433,-37.7 433,-56.7 493,-56.7 493,-37.7 433,-37.7"/>
<text text-anchor="start" x="445.3807" y="-43.8" font-family="Helvetica,sans-Serif" font-size="11.00" fill="#000000">494 rows</text>
<polygon fill="#ffffff" stroke="transparent" points="493,-37.7 493,-56.7 516,-56.7 516,-37.7 493,-37.7"/>
<polygon fill="none" stroke="#000000" points="493,-37.7 493,-56.7 516,-56.7 516,-37.7 493,-37.7"/>
<text text-anchor="start" x="506.8862" y="-43.8" font-family="Helvetica,sans-Serif" font-size="11.00" fill="#000000"> &#160;</text>
</a>
</g>
</g>
<!-- job_request_skill&#45;&gt;skill -->
<g id="edge8" class="edge">
<title>job_request_skill:w&#45;&gt;skill:e</title>
<path fill="none" stroke="#000000" d="M378.3982,-92.2178C336.4361,-133.2844 403.8127,-389.7 341,-389.7"/>
<polygon fill="#000000" stroke="#000000" points="384.5868,-89.7073 393.3533,-90.036 388.2934,-88.2037 392,-86.7 392,-86.7 392,-86.7 388.2934,-88.2037 390.6467,-83.364 384.5868,-89.7073 384.5868,-89.7073"/>
<ellipse fill="none" stroke="#000000" cx="381.6215" cy="-90.9103" rx="3.2" ry="3.2"/>
</g>
<!-- job_request_skill&#45;&gt;principal -->
<g id="edge6" class="edge">
<title>job_request_skill:w&#45;&gt;principal:e</title>
<path fill="none" stroke="#000000" d="M377.3206,-153.0914C312.0731,-156.2453 179.6616,-178.3333 141,-214.7 96.5627,-256.4996 161.0072,-345.7 100,-345.7"/>
<polygon fill="#000000" stroke="#000000" points="384.0028,-152.9133 392.096,-156.2987 388.0014,-152.8066 392,-152.7 392,-152.7 392,-152.7 388.0014,-152.8066 391.904,-149.1013 384.0028,-152.9133 384.0028,-152.9133"/>
<ellipse fill="none" stroke="#000000" cx="380.804" cy="-152.9986" rx="3.2" ry="3.2"/>
</g>
<!-- job_request_skill&#45;&gt;principal -->
<g id="edge7" class="edge">
<title>job_request_skill:w&#45;&gt;principal:e</title>
<path fill="none" stroke="#000000" d="M377.5586,-130.4127C275.1136,-126.355 221.175,-81.7475 141,-152.7 75.3306,-210.8155 187.6919,-345.7 100,-345.7"/>
<polygon fill="#000000" stroke="#000000" points="384.0016,-130.5408 391.9284,-134.2993 388.0008,-130.6204 392,-130.7 392,-130.7 392,-130.7 388.0008,-130.6204 392.0716,-127.1007 384.0016,-130.5408 384.0016,-130.5408"/>
<ellipse fill="none" stroke="#000000" cx="380.8022" cy="-130.4771" rx="3.2" ry="3.2"/>
</g>
<!-- skill_role_skill -->
<g id="node7" class="node">
<title>skill_role_skill</title>
<g id="a_node7"><a xlink:href="../../tables/skill_role_skill.html" xlink:title="skill_role_skill" target="_top">
<polygon fill="#ffffff" stroke="transparent" points="399,-230.7 399,-338.7 509,-338.7 509,-230.7 399,-230.7"/>
<polygon fill="#f5f5f5" stroke="transparent" points="399,-315.7 399,-338.7 509,-338.7 509,-315.7 399,-315.7"/>
<polygon fill="none" stroke="#000000" points="399,-315.7 399,-338.7 509,-338.7 509,-315.7 399,-315.7"/>
<text text-anchor="start" x="403.8961" y="-324.8" font-family="Helvetica,sans-Serif" font-weight="bold" font-size="11.00" fill="#000000">skill_role_skill</text>
<text text-anchor="start" x="474.5219" y="-323.8" font-family="Helvetica,sans-Serif" font-size="11.00" fill="#000000">[table]</text>
<polygon fill="none" stroke="#000000" points="399,-293.7 399,-315.7 509,-315.7 509,-293.7 399,-293.7"/>
<image xlink:href="../../images/primaryKeys.png" width="11px" height="12px" preserveAspectRatio="xMinYMin meet" x="404" y="-310.7"/>
<text text-anchor="start" x="423" y="-300.8" font-family="Helvetica,sans-Serif" font-size="11.00" fill="#000000">id</text>
<polygon fill="#ffffff" stroke="transparent" points="399,-271.7 399,-293.7 509,-293.7 509,-271.7 399,-271.7"/>
<polygon fill="none" stroke="#000000" points="399,-271.7 399,-293.7 509,-293.7 509,-271.7 399,-271.7"/>
<image xlink:href="../../images/foreignKeys.png" width="11px" height="12px" preserveAspectRatio="xMinYMin meet" x="404" y="-288.7"/>
<text text-anchor="start" x="423" y="-278.8" font-family="Helvetica,sans-Serif" font-size="11.00" fill="#000000">skill_id</text>
<polygon fill="#ffffff" stroke="transparent" points="399,-249.7 399,-271.7 509,-271.7 509,-249.7 399,-249.7"/>
<polygon fill="none" stroke="#000000" points="399,-249.7 399,-271.7 509,-271.7 509,-249.7 399,-249.7"/>
<image xlink:href="../../images/foreignKeys.png" width="11px" height="12px" preserveAspectRatio="xMinYMin meet" x="404" y="-266.7"/>
<text text-anchor="start" x="423" y="-256.8" font-family="Helvetica,sans-Serif" font-size="11.00" fill="#000000">skill_role_id</text>
<polygon fill="#ffffff" stroke="transparent" points="399,-230.7 399,-249.7 427,-249.7 427,-230.7 399,-230.7"/>
<polygon fill="none" stroke="#000000" points="399,-230.7 399,-249.7 427,-249.7 427,-230.7 399,-230.7"/>
<text text-anchor="start" x="402" y="-236.8" font-family="Helvetica,sans-Serif" font-size="11.00" fill="#000000">&lt; 2</text>
<polygon fill="#ffffff" stroke="transparent" points="427,-230.7 427,-249.7 493,-249.7 493,-230.7 427,-230.7"/>
<polygon fill="none" stroke="#000000" points="427,-230.7 427,-249.7 493,-249.7 493,-230.7 427,-230.7"/>
<text text-anchor="start" x="432.547" y="-236.8" font-family="Helvetica,sans-Serif" font-size="11.00" fill="#000000">8 110 rows</text>
<polygon fill="#ffffff" stroke="transparent" points="493,-230.7 493,-249.7 509,-249.7 509,-230.7 493,-230.7"/>
<polygon fill="none" stroke="#000000" points="493,-230.7 493,-249.7 509,-249.7 509,-230.7 493,-230.7"/>
<text text-anchor="start" x="499.8862" y="-236.8" font-family="Helvetica,sans-Serif" font-size="11.00" fill="#000000"> &#160;</text>
</a>
</g>
</g>
<!-- skill_role_skill&#45;&gt;skill -->
<g id="edge11" class="edge">
<title>skill_role_skill:w&#45;&gt;skill:e</title>
<path fill="none" stroke="#000000" d="M384.7203,-286.2601C354.6379,-304.8262 389.1763,-389.7 341,-389.7"/>
<polygon fill="#000000" stroke="#000000" points="391.2376,-284.6353 399.8709,-286.1931 395.1188,-283.6676 399,-282.7 399,-282.7 399,-282.7 395.1188,-283.6676 398.1291,-279.2069 391.2376,-284.6353 391.2376,-284.6353"/>
<ellipse fill="none" stroke="#000000" cx="388.1326" cy="-285.4094" rx="3.2" ry="3.2"/>
</g>
</g>
</svg>
