<?xml version="1.0" encoding="UTF-8" standalone="no"?>
<!DOCTYPE svg PUBLIC "-//W3C//DTD SVG 1.1//EN"
 "http://www.w3.org/Graphics/SVG/1.1/DTD/svg11.dtd">
<!-- Generated by graphviz version 2.40.1 (20161225.0304)
 -->
<!-- Title: oneDegreeRelationshipsDiagram Pages: 1 -->
<svg width="383pt" height="801pt"
 viewBox="0.00 0.00 383.00 800.70" xmlns="http://www.w3.org/2000/svg" xmlns:xlink="http://www.w3.org/1999/xlink">
<g id="graph0" class="graph" transform="scale(1 1) rotate(0) translate(4 796.7)">
<title>oneDegreeRelationshipsDiagram</title>
<polygon fill="#ffffff" stroke="transparent" points="-4,4 -4,-796.7 379,-796.7 379,4 -4,4"/>
<text text-anchor="middle" x="72.4936" y="-7.3" font-family="Helvetica,sans-Serif" font-size="11.00" fill="#000000">Generated by SchemaSpy</text>
<!-- applicant_role -->
<g id="node1" class="node">
<title>applicant_role</title>
<g id="a_node1"><a xlink:href="../../tables/applicant_role.html" xlink:title="applicant_role" target="_top">
<polygon fill="#ffffff" stroke="transparent" points="228.5,-683.7 228.5,-788.7 339.5,-788.7 339.5,-683.7 228.5,-683.7"/>
<polygon fill="#f5f5f5" stroke="transparent" points="229,-765.2 229,-788.2 340,-788.2 340,-765.2 229,-765.2"/>
<polygon fill="none" stroke="#000000" points="229,-765.2 229,-788.2 340,-788.2 340,-765.2 229,-765.2"/>
<text text-anchor="start" x="233.7697" y="-774.3" font-family="Helvetica,sans-Serif" font-weight="bold" font-size="11.00" fill="#000000">applicant_role</text>
<text text-anchor="start" x="305.5219" y="-773.3" font-family="Helvetica,sans-Serif" font-size="11.00" fill="#000000">[table]</text>
<polygon fill="#ffffff" stroke="transparent" points="229,-743.2 229,-765.2 340,-765.2 340,-743.2 229,-743.2"/>
<polygon fill="none" stroke="#000000" points="229,-743.2 229,-765.2 340,-765.2 340,-743.2 229,-743.2"/>
<image xlink:href="../../images/foreignKeys.png" width="11px" height="12px" preserveAspectRatio="xMinYMin meet" x="234" y="-760.2"/>
<text text-anchor="start" x="254" y="-750.3" font-family="Helvetica,sans-Serif" font-size="11.00" fill="#000000">applicant_id</text>
<polygon fill="#ffffff" stroke="transparent" points="229,-721.2 229,-743.2 340,-743.2 340,-721.2 229,-721.2"/>
<polygon fill="none" stroke="#000000" points="229,-721.2 229,-743.2 340,-743.2 340,-721.2 229,-721.2"/>
<image xlink:href="../../images/foreignKeys.png" width="11px" height="12px" preserveAspectRatio="xMinYMin meet" x="234" y="-738.2"/>
<text text-anchor="start" x="254" y="-728.3" font-family="Helvetica,sans-Serif" font-size="11.00" fill="#000000">role_id</text>
<polygon fill="none" stroke="#000000" points="229,-702.2 229,-721.2 340,-721.2 340,-702.2 229,-702.2"/>
<text text-anchor="start" x="232" y="-708.3" font-family="Helvetica,sans-Serif" font-size="11.00" fill="#000000">...</text>
<polygon fill="#ffffff" stroke="transparent" points="229,-683.2 229,-702.2 267,-702.2 267,-683.2 229,-683.2"/>
<polygon fill="none" stroke="#000000" points="229,-683.2 229,-702.2 267,-702.2 267,-683.2 229,-683.2"/>
<text text-anchor="start" x="232" y="-689.3" font-family="Helvetica,sans-Serif" font-size="11.00" fill="#000000">&lt; 2</text>
<polygon fill="#ffffff" stroke="transparent" points="267,-683.2 267,-702.2 319,-702.2 319,-683.2 267,-683.2"/>
<polygon fill="none" stroke="#000000" points="267,-683.2 267,-702.2 319,-702.2 319,-683.2 267,-683.2"/>
<text text-anchor="start" x="277.4956" y="-689.3" font-family="Helvetica,sans-Serif" font-size="11.00" fill="#000000">91 rows</text>
<polygon fill="#ffffff" stroke="transparent" points="319,-683.2 319,-702.2 340,-702.2 340,-683.2 319,-683.2"/>
<polygon fill="none" stroke="#000000" points="319,-683.2 319,-702.2 340,-702.2 340,-683.2 319,-683.2"/>
<text text-anchor="start" x="330.8862" y="-689.3" font-family="Helvetica,sans-Serif" font-size="11.00" fill="#000000"> &#160;</text>
</a>
</g>
</g>
<!-- skill_role -->
<g id="node2" class="node">
<title>skill_role</title>
<g id="a_node2"><a xlink:href="../../tables/skill_role.html" xlink:title="skill_role" target="_top">
<polygon fill="#ffffff" stroke="transparent" points="8,-346.2 8,-436.2 152,-436.2 152,-346.2 8,-346.2"/>
<polygon fill="#f5f5f5" stroke="transparent" points="10,-411.2 10,-434.2 150,-434.2 150,-411.2 10,-411.2"/>
<polygon fill="none" stroke="#000000" points="10,-411.2 10,-434.2 150,-434.2 150,-411.2 10,-411.2"/>
<text text-anchor="start" x="15" y="-420.3" font-family="Helvetica,sans-Serif" font-weight="bold" font-size="11.00" fill="#000000">skill_role</text>
<text text-anchor="start" x="115.0437" y="-419.3" font-family="Helvetica,sans-Serif" font-size="11.00" fill="#000000">[table]</text>
<polygon fill="none" stroke="#000000" points="10,-389.2 10,-411.2 83,-411.2 83,-389.2 10,-389.2"/>
<image xlink:href="../../images/primaryKeys.png" width="11px" height="12px" preserveAspectRatio="xMinYMin meet" x="15" y="-406.2"/>
<text text-anchor="start" x="30" y="-396.3" font-family="Helvetica,sans-Serif" font-size="11.00" fill="#000000">id</text>
<polygon fill="none" stroke="#000000" points="83,-389.2 83,-411.2 150,-411.2 150,-389.2 83,-389.2"/>
<text text-anchor="start" x="86" y="-396.9" font-family="Helvetica,sans-Serif" font-size="11.00" fill="#000000">bigint[19]</text>
<polygon fill="#ffffff" stroke="transparent" points="10,-367.2 10,-389.2 83,-389.2 83,-367.2 10,-367.2"/>
<polygon fill="none" stroke="#000000" points="10,-367.2 10,-389.2 83,-389.2 83,-367.2 10,-367.2"/>
<text text-anchor="start" x="30" y="-374.3" font-family="Helvetica,sans-Serif" font-size="11.00" fill="#000000">name</text>
<polygon fill="none" stroke="#000000" points="83,-367.2 83,-389.2 150,-389.2 150,-367.2 83,-367.2"/>
<text text-anchor="start" x="85.9365" y="-374.9" font-family="Helvetica,sans-Serif" font-size="11.00" fill="#000000">varchar[100]</text>
<polygon fill="#ffffff" stroke="transparent" points="10,-348.2 10,-367.2 32,-367.2 32,-348.2 10,-348.2"/>
<polygon fill="none" stroke="#000000" points="10,-348.2 10,-367.2 32,-367.2 32,-348.2 10,-348.2"/>
<text text-anchor="start" x="13" y="-354.3" font-family="Helvetica,sans-Serif" font-size="11.00" fill="#000000">&lt; 0</text>
<polygon fill="#ffffff" stroke="transparent" points="32,-348.2 32,-367.2 83,-367.2 83,-348.2 32,-348.2"/>
<polygon fill="none" stroke="#000000" points="32,-348.2 32,-367.2 83,-367.2 83,-348.2 32,-348.2"/>
<text text-anchor="start" x="35.3807" y="-354.3" font-family="Helvetica,sans-Serif" font-size="11.00" fill="#000000">603 rows</text>
<polygon fill="#ffffff" stroke="transparent" points="83,-348.2 83,-367.2 150,-367.2 150,-348.2 83,-348.2"/>
<polygon fill="none" stroke="#000000" points="83,-348.2 83,-367.2 150,-367.2 150,-348.2 83,-348.2"/>
<text text-anchor="start" x="131.4053" y="-354.3" font-family="Helvetica,sans-Serif" font-size="11.00" fill="#000000">4 &gt;</text>
<polygon fill="none" stroke="#000000" stroke-width="2" points="9,-347.2 9,-435.2 151,-435.2 151,-347.2 9,-347.2"/>
</a>
</g>
</g>
<!-- applicant_role&#45;&gt;skill_role -->
<g id="edge1" class="edge">
<title>applicant_role:w&#45;&gt;skill_role:e</title>
<path fill="none" stroke="#000000" d="M214.7373,-728.9825C199.7496,-720.4673 201.5234,-696.4025 193,-673.2 171.8232,-615.552 211.4146,-400.2 150,-400.2"/>
<polygon fill="#000000" stroke="#000000" points="221.1961,-730.4395 228.2078,-735.7118 225.0981,-731.3197 229,-732.2 229,-732.2 229,-732.2 225.0981,-731.3197 229.7922,-728.6882 221.1961,-730.4395 221.1961,-730.4395"/>
<ellipse fill="none" stroke="#000000" cx="218.0746" cy="-729.7353" rx="3.2" ry="3.2"/>
</g>
<!-- invitation -->
<g id="node3" class="node">
<title>invitation</title>
<g id="a_node3"><a xlink:href="../../tables/invitation.html" xlink:title="invitation" target="_top">
<polygon fill="#ffffff" stroke="transparent" points="220.5,-513.7 220.5,-662.7 347.5,-662.7 347.5,-513.7 220.5,-513.7"/>
<polygon fill="#f5f5f5" stroke="transparent" points="221,-639.2 221,-662.2 348,-662.2 348,-639.2 221,-639.2"/>
<polygon fill="none" stroke="#000000" points="221,-639.2 221,-662.2 348,-662.2 348,-639.2 221,-639.2"/>
<text text-anchor="start" x="226" y="-648.3" font-family="Helvetica,sans-Serif" font-weight="bold" font-size="11.00" fill="#000000">invitation</text>
<text text-anchor="start" x="313.0437" y="-647.3" font-family="Helvetica,sans-Serif" font-size="11.00" fill="#000000">[table]</text>
<polygon fill="none" stroke="#000000" points="221,-617.2 221,-639.2 348,-639.2 348,-617.2 221,-617.2"/>
<image xlink:href="../../images/primaryKeys.png" width="11px" height="12px" preserveAspectRatio="xMinYMin meet" x="226" y="-634.2"/>
<text text-anchor="start" x="241" y="-624.3" font-family="Helvetica,sans-Serif" font-size="11.00" fill="#000000">id</text>
<polygon fill="#ffffff" stroke="transparent" points="221,-595.2 221,-617.2 348,-617.2 348,-595.2 221,-595.2"/>
<polygon fill="none" stroke="#000000" points="221,-595.2 221,-617.2 348,-617.2 348,-595.2 221,-595.2"/>
<image xlink:href="../../images/foreignKeys.png" width="11px" height="12px" preserveAspectRatio="xMinYMin meet" x="226" y="-612.2"/>
<text text-anchor="start" x="241" y="-602.3" font-family="Helvetica,sans-Serif" font-size="11.00" fill="#000000">location_id</text>
<polygon fill="#ffffff" stroke="transparent" points="221,-573.2 221,-595.2 348,-595.2 348,-573.2 221,-573.2"/>
<polygon fill="none" stroke="#000000" points="221,-573.2 221,-595.2 348,-595.2 348,-573.2 221,-573.2"/>
<image xlink:href="../../images/foreignKeys.png" width="11px" height="12px" preserveAspectRatio="xMinYMin meet" x="226" y="-590.2"/>
<text text-anchor="start" x="241" y="-580.3" font-family="Helvetica,sans-Serif" font-size="11.00" fill="#000000">role_id</text>
<polygon fill="#ffffff" stroke="transparent" points="221,-551.2 221,-573.2 348,-573.2 348,-551.2 221,-551.2"/>
<polygon fill="none" stroke="#000000" points="221,-551.2 221,-573.2 348,-573.2 348,-551.2 221,-551.2"/>
<image xlink:href="../../images/foreignKeys.png" width="11px" height="12px" preserveAspectRatio="xMinYMin meet" x="226" y="-568.2"/>
<text text-anchor="start" x="241" y="-558.3" font-family="Helvetica,sans-Serif" font-size="11.00" fill="#000000">contact_person_id</text>
<polygon fill="none" stroke="#000000" points="221,-532.2 221,-551.2 348,-551.2 348,-532.2 221,-532.2"/>
<text text-anchor="start" x="224" y="-538.3" font-family="Helvetica,sans-Serif" font-size="11.00" fill="#000000">...</text>
<polygon fill="#ffffff" stroke="transparent" points="221,-513.2 221,-532.2 265,-532.2 265,-513.2 221,-513.2"/>
<polygon fill="none" stroke="#000000" points="221,-513.2 221,-532.2 265,-532.2 265,-513.2 221,-513.2"/>
<text text-anchor="start" x="224" y="-519.3" font-family="Helvetica,sans-Serif" font-size="11.00" fill="#000000">&lt; 3</text>
<polygon fill="#ffffff" stroke="transparent" points="265,-513.2 265,-532.2 315,-532.2 315,-513.2 265,-513.2"/>
<polygon fill="none" stroke="#000000" points="265,-513.2 265,-532.2 315,-532.2 315,-513.2 265,-513.2"/>
<text text-anchor="start" x="279.6105" y="-519.3" font-family="Helvetica,sans-Serif" font-size="11.00" fill="#000000">4 rows</text>
<polygon fill="#ffffff" stroke="transparent" points="315,-513.2 315,-532.2 348,-532.2 348,-513.2 315,-513.2"/>
<polygon fill="none" stroke="#000000" points="315,-513.2 315,-532.2 348,-532.2 348,-513.2 315,-513.2"/>
<text text-anchor="start" x="329.4053" y="-519.3" font-family="Helvetica,sans-Serif" font-size="11.00" fill="#000000">2 &gt;</text>
</a>
</g>
</g>
<!-- invitation&#45;&gt;skill_role -->
<g id="edge2" class="edge">
<title>invitation:w&#45;&gt;skill_role:e</title>
<path fill="none" stroke="#000000" d="M206.7206,-582.1336C145.6341,-561.9188 232.1763,-400.2 150,-400.2"/>
<polygon fill="#000000" stroke="#000000" points="213.0825,-583.0542 220.4844,-587.7629 217.0412,-583.6271 221,-584.2 221,-584.2 221,-584.2 217.0412,-583.6271 221.5156,-580.6371 213.0825,-583.0542 213.0825,-583.0542"/>
<ellipse fill="none" stroke="#000000" cx="209.9155" cy="-582.5959" rx="3.2" ry="3.2"/>
</g>
<!-- job_request -->
<g id="node4" class="node">
<title>job_request</title>
<g id="a_node4"><a xlink:href="../../tables/job_request.html" xlink:title="job_request" target="_top">
<polygon fill="#ffffff" stroke="transparent" points="201,-167.7 201,-492.7 367,-492.7 367,-167.7 201,-167.7"/>
<polygon fill="#f5f5f5" stroke="transparent" points="201,-469.2 201,-492.2 367,-492.2 367,-469.2 201,-469.2"/>
<polygon fill="none" stroke="#000000" points="201,-469.2 201,-492.2 367,-492.2 367,-469.2 201,-469.2"/>
<text text-anchor="start" x="206" y="-478.3" font-family="Helvetica,sans-Serif" font-weight="bold" font-size="11.00" fill="#000000">job_request</text>
<text text-anchor="start" x="332.0437" y="-477.3" font-family="Helvetica,sans-Serif" font-size="11.00" fill="#000000">[table]</text>
<polygon fill="none" stroke="#000000" points="201,-447.2 201,-469.2 367,-469.2 367,-447.2 201,-447.2"/>
<image xlink:href="../../images/primaryKeys.png" width="11px" height="12px" preserveAspectRatio="xMinYMin meet" x="206" y="-464.2"/>
<text text-anchor="start" x="221" y="-454.3" font-family="Helvetica,sans-Serif" font-size="11.00" fill="#000000">id</text>
<polygon fill="#ffffff" stroke="transparent" points="201,-425.2 201,-447.2 367,-447.2 367,-425.2 201,-425.2"/>
<polygon fill="none" stroke="#000000" points="201,-425.2 201,-447.2 367,-447.2 367,-425.2 201,-425.2"/>
<image xlink:href="../../images/foreignKeys.png" width="11px" height="12px" preserveAspectRatio="xMinYMin meet" x="206" y="-442.2"/>
<text text-anchor="start" x="221" y="-432.3" font-family="Helvetica,sans-Serif" font-size="11.00" fill="#000000">created_by</text>
<polygon fill="#ffffff" stroke="transparent" points="201,-403.2 201,-425.2 367,-425.2 367,-403.2 201,-403.2"/>
<polygon fill="none" stroke="#000000" points="201,-403.2 201,-425.2 367,-425.2 367,-403.2 201,-403.2"/>
<image xlink:href="../../images/foreignKeys.png" width="11px" height="12px" preserveAspectRatio="xMinYMin meet" x="206" y="-420.2"/>
<text text-anchor="start" x="221" y="-410.3" font-family="Helvetica,sans-Serif" font-size="11.00" fill="#000000">modified_by</text>
<polygon fill="#ffffff" stroke="transparent" points="201,-381.2 201,-403.2 367,-403.2 367,-381.2 201,-381.2"/>
<polygon fill="none" stroke="#000000" points="201,-381.2 201,-403.2 367,-403.2 367,-381.2 201,-381.2"/>
<image xlink:href="../../images/foreignKeys.png" width="11px" height="12px" preserveAspectRatio="xMinYMin meet" x="206" y="-398.2"/>
<text text-anchor="start" x="221" y="-388.3" font-family="Helvetica,sans-Serif" font-size="11.00" fill="#000000">location_id</text>
<polygon fill="#ffffff" stroke="transparent" points="201,-359.2 201,-381.2 367,-381.2 367,-359.2 201,-359.2"/>
<polygon fill="none" stroke="#000000" points="201,-359.2 201,-381.2 367,-381.2 367,-359.2 201,-359.2"/>
<image xlink:href="../../images/foreignKeys.png" width="11px" height="12px" preserveAspectRatio="xMinYMin meet" x="206" y="-376.2"/>
<text text-anchor="start" x="221" y="-366.3" font-family="Helvetica,sans-Serif" font-size="11.00" fill="#000000">rate_card_id</text>
<polygon fill="#ffffff" stroke="transparent" points="201,-337.2 201,-359.2 367,-359.2 367,-337.2 201,-337.2"/>
<polygon fill="none" stroke="#000000" points="201,-337.2 201,-359.2 367,-359.2 367,-337.2 201,-337.2"/>
<image xlink:href="../../images/foreignKeys.png" width="11px" height="12px" preserveAspectRatio="xMinYMin meet" x="206" y="-354.2"/>
<text text-anchor="start" x="221" y="-344.3" font-family="Helvetica,sans-Serif" font-size="11.00" fill="#000000">source_job_request_id</text>
<polygon fill="#ffffff" stroke="transparent" points="201,-315.2 201,-337.2 367,-337.2 367,-315.2 201,-315.2"/>
<polygon fill="none" stroke="#000000" points="201,-315.2 201,-337.2 367,-337.2 367,-315.2 201,-315.2"/>
<image xlink:href="../../images/foreignKeys.png" width="11px" height="12px" preserveAspectRatio="xMinYMin meet" x="206" y="-332.2"/>
<text text-anchor="start" x="221" y="-322.3" font-family="Helvetica,sans-Serif" font-size="11.00" fill="#000000">eworker_id</text>
<polygon fill="#ffffff" stroke="transparent" points="201,-293.2 201,-315.2 367,-315.2 367,-293.2 201,-293.2"/>
<polygon fill="none" stroke="#000000" points="201,-293.2 201,-315.2 367,-315.2 367,-293.2 201,-293.2"/>
<image xlink:href="../../images/foreignKeys.png" width="11px" height="12px" preserveAspectRatio="xMinYMin meet" x="206" y="-310.2"/>
<text text-anchor="start" x="221" y="-300.3" font-family="Helvetica,sans-Serif" font-size="11.00" fill="#000000">unit_id</text>
<polygon fill="#ffffff" stroke="transparent" points="201,-271.2 201,-293.2 367,-293.2 367,-271.2 201,-271.2"/>
<polygon fill="none" stroke="#000000" points="201,-271.2 201,-293.2 367,-293.2 367,-271.2 201,-271.2"/>
<image xlink:href="../../images/foreignKeys.png" width="11px" height="12px" preserveAspectRatio="xMinYMin meet" x="206" y="-288.2"/>
<text text-anchor="start" x="221" y="-278.3" font-family="Helvetica,sans-Serif" font-size="11.00" fill="#000000">closed_eworker_id</text>
<polygon fill="#ffffff" stroke="transparent" points="201,-249.2 201,-271.2 367,-271.2 367,-249.2 201,-249.2"/>
<polygon fill="none" stroke="#000000" points="201,-249.2 201,-271.2 367,-271.2 367,-249.2 201,-249.2"/>
<image xlink:href="../../images/foreignKeys.png" width="11px" height="12px" preserveAspectRatio="xMinYMin meet" x="206" y="-266.2"/>
<text text-anchor="start" x="221" y="-256.3" font-family="Helvetica,sans-Serif" font-size="11.00" fill="#000000">client_contact_id</text>
<polygon fill="#ffffff" stroke="transparent" points="201,-227.2 201,-249.2 367,-249.2 367,-227.2 201,-227.2"/>
<polygon fill="none" stroke="#000000" points="201,-227.2 201,-249.2 367,-249.2 367,-227.2 201,-227.2"/>
<image xlink:href="../../images/foreignKeys.png" width="11px" height="12px" preserveAspectRatio="xMinYMin meet" x="206" y="-244.2"/>
<text text-anchor="start" x="221" y="-234.3" font-family="Helvetica,sans-Serif" font-size="11.00" fill="#000000">client_id</text>
<polygon fill="#ffffff" stroke="transparent" points="201,-205.2 201,-227.2 367,-227.2 367,-205.2 201,-205.2"/>
<polygon fill="none" stroke="#000000" points="201,-205.2 201,-227.2 367,-227.2 367,-205.2 201,-205.2"/>
<image xlink:href="../../images/foreignKeys.png" width="11px" height="12px" preserveAspectRatio="xMinYMin meet" x="206" y="-222.2"/>
<text text-anchor="start" x="221" y="-212.3" font-family="Helvetica,sans-Serif" font-size="11.00" fill="#000000">role_id</text>
<polygon fill="none" stroke="#000000" points="201,-186.2 201,-205.2 367,-205.2 367,-186.2 201,-186.2"/>
<text text-anchor="start" x="204" y="-192.3" font-family="Helvetica,sans-Serif" font-size="11.00" fill="#000000">...</text>
<polygon fill="#ffffff" stroke="transparent" points="201,-167.2 201,-186.2 262,-186.2 262,-167.2 201,-167.2"/>
<polygon fill="none" stroke="#000000" points="201,-167.2 201,-186.2 262,-186.2 262,-167.2 201,-167.2"/>
<text text-anchor="start" x="204" y="-173.3" font-family="Helvetica,sans-Serif" font-size="11.00" fill="#000000">&lt; 11</text>
<polygon fill="#ffffff" stroke="transparent" points="262,-167.2 262,-186.2 329,-186.2 329,-167.2 262,-167.2"/>
<polygon fill="none" stroke="#000000" points="262,-167.2 262,-186.2 329,-186.2 329,-167.2 262,-167.2"/>
<text text-anchor="start" x="281.3807" y="-173.3" font-family="Helvetica,sans-Serif" font-size="11.00" fill="#000000">254 rows</text>
<polygon fill="#ffffff" stroke="transparent" points="329,-167.2 329,-186.2 367,-186.2 367,-167.2 329,-167.2"/>
<polygon fill="none" stroke="#000000" points="329,-167.2 329,-186.2 367,-186.2 367,-167.2 329,-167.2"/>
<text text-anchor="start" x="348.4053" y="-173.3" font-family="Helvetica,sans-Serif" font-size="11.00" fill="#000000">7 &gt;</text>
</a>
</g>
</g>
<!-- job_request&#45;&gt;skill_role -->
<g id="edge3" class="edge">
<title>job_request:w&#45;&gt;skill_role:e</title>
<path fill="none" stroke="#000000" d="M186.6681,-218.5264C131.009,-239.8261 229.2257,-400.2 150,-400.2"/>
<polygon fill="#000000" stroke="#000000" points="193.1034,-217.4819 201.5768,-219.7535 197.0517,-216.8409 201,-216.2 201,-216.2 201,-216.2 197.0517,-216.8409 200.4232,-212.6465 193.1034,-217.4819 193.1034,-217.4819"/>
<ellipse fill="none" stroke="#000000" cx="189.9447" cy="-217.9946" rx="3.2" ry="3.2"/>
</g>
<!-- skill_role_skill -->
<g id="node5" class="node">
<title>skill_role_skill</title>
<g id="a_node5"><a xlink:href="../../tables/skill_role_skill.html" xlink:title="skill_role_skill" target="_top">
<polygon fill="#ffffff" stroke="transparent" points="229,-38.2 229,-146.2 339,-146.2 339,-38.2 229,-38.2"/>
<polygon fill="#f5f5f5" stroke="transparent" points="229,-123.2 229,-146.2 339,-146.2 339,-123.2 229,-123.2"/>
<polygon fill="none" stroke="#000000" points="229,-123.2 229,-146.2 339,-146.2 339,-123.2 229,-123.2"/>
<text text-anchor="start" x="233.8961" y="-132.3" font-family="Helvetica,sans-Serif" font-weight="bold" font-size="11.00" fill="#000000">skill_role_skill</text>
<text text-anchor="start" x="304.5219" y="-131.3" font-family="Helvetica,sans-Serif" font-size="11.00" fill="#000000">[table]</text>
<polygon fill="none" stroke="#000000" points="229,-101.2 229,-123.2 339,-123.2 339,-101.2 229,-101.2"/>
<image xlink:href="../../images/primaryKeys.png" width="11px" height="12px" preserveAspectRatio="xMinYMin meet" x="234" y="-118.2"/>
<text text-anchor="start" x="253" y="-108.3" font-family="Helvetica,sans-Serif" font-size="11.00" fill="#000000">id</text>
<polygon fill="#ffffff" stroke="transparent" points="229,-79.2 229,-101.2 339,-101.2 339,-79.2 229,-79.2"/>
<polygon fill="none" stroke="#000000" points="229,-79.2 229,-101.2 339,-101.2 339,-79.2 229,-79.2"/>
<image xlink:href="../../images/foreignKeys.png" width="11px" height="12px" preserveAspectRatio="xMinYMin meet" x="234" y="-96.2"/>
<text text-anchor="start" x="253" y="-86.3" font-family="Helvetica,sans-Serif" font-size="11.00" fill="#000000">skill_id</text>
<polygon fill="#ffffff" stroke="transparent" points="229,-57.2 229,-79.2 339,-79.2 339,-57.2 229,-57.2"/>
<polygon fill="none" stroke="#000000" points="229,-57.2 229,-79.2 339,-79.2 339,-57.2 229,-57.2"/>
<image xlink:href="../../images/foreignKeys.png" width="11px" height="12px" preserveAspectRatio="xMinYMin meet" x="234" y="-74.2"/>
<text text-anchor="start" x="253" y="-64.3" font-family="Helvetica,sans-Serif" font-size="11.00" fill="#000000">skill_role_id</text>
<polygon fill="#ffffff" stroke="transparent" points="229,-38.2 229,-57.2 257,-57.2 257,-38.2 229,-38.2"/>
<polygon fill="none" stroke="#000000" points="229,-38.2 229,-57.2 257,-57.2 257,-38.2 229,-38.2"/>
<text text-anchor="start" x="232" y="-44.3" font-family="Helvetica,sans-Serif" font-size="11.00" fill="#000000">&lt; 2</text>
<polygon fill="#ffffff" stroke="transparent" points="257,-38.2 257,-57.2 323,-57.2 323,-38.2 257,-38.2"/>
<polygon fill="none" stroke="#000000" points="257,-38.2 257,-57.2 323,-57.2 323,-38.2 257,-38.2"/>
<text text-anchor="start" x="262.547" y="-44.3" font-family="Helvetica,sans-Serif" font-size="11.00" fill="#000000">8 110 rows</text>
<polygon fill="#ffffff" stroke="transparent" points="323,-38.2 323,-57.2 339,-57.2 339,-38.2 323,-38.2"/>
<polygon fill="none" stroke="#000000" points="323,-38.2 323,-57.2 339,-57.2 339,-38.2 323,-38.2"/>
<text text-anchor="start" x="329.8862" y="-44.3" font-family="Helvetica,sans-Serif" font-size="11.00" fill="#000000"> &#160;</text>
</a>
</g>
</g>
<!-- skill_role_skill&#45;&gt;skill_role -->
<g id="edge4" class="edge">
<title>skill_role_skill:w&#45;&gt;skill_role:e</title>
<path fill="none" stroke="#000000" d="M215.1024,-72.8933C162.648,-113.2461 220.5054,-400.2 150,-400.2"/>
<polygon fill="#000000" stroke="#000000" points="221.4205,-70.7596 230.1518,-71.6108 225.2103,-69.4798 229,-68.2 229,-68.2 229,-68.2 225.2103,-69.4798 227.8482,-64.7892 221.4205,-70.7596 221.4205,-70.7596"/>
<ellipse fill="none" stroke="#000000" cx="218.3887" cy="-71.7835" rx="3.2" ry="3.2"/>
</g>
</g>
</svg>
