<?xml version="1.0" encoding="UTF-8" standalone="no"?>
<!DOCTYPE svg PUBLIC "-//W3C//DTD SVG 1.1//EN"
 "http://www.w3.org/Graphics/SVG/1.1/DTD/svg11.dtd">
<!-- Generated by graphviz version 2.40.1 (20161225.0304)
 -->
<!-- Title: twoDegreesRelationshipsDiagram Pages: 1 -->
<svg width="494pt" height="570pt"
 viewBox="0.00 0.00 494.00 570.20" xmlns="http://www.w3.org/2000/svg" xmlns:xlink="http://www.w3.org/1999/xlink">
<g id="graph0" class="graph" transform="scale(1 1) rotate(0) translate(4 566.2)">
<title>twoDegreesRelationshipsDiagram</title>
<polygon fill="#ffffff" stroke="transparent" points="-4,4 -4,-566.2 490,-566.2 490,4 -4,4"/>
<text text-anchor="middle" x="72.4936" y="-7.3" font-family="Helvetica,sans-Serif" font-size="11.00" fill="#000000">Generated by SchemaSpy</text>
<!-- applicant_role -->
<g id="node1" class="node">
<title>applicant_role</title>
<g id="a_node1"><a xlink:href="../../tables/applicant_role.html" xlink:title="applicant_role" target="_top">
<polygon fill="#ffffff" stroke="transparent" points="155,-497.2 155,-558.2 266,-558.2 266,-497.2 155,-497.2"/>
<polygon fill="#f5f5f5" stroke="transparent" points="155.5,-534.7 155.5,-557.7 266.5,-557.7 266.5,-534.7 155.5,-534.7"/>
<polygon fill="none" stroke="#000000" points="155.5,-534.7 155.5,-557.7 266.5,-557.7 266.5,-534.7 155.5,-534.7"/>
<text text-anchor="start" x="160.2697" y="-543.8" font-family="Helvetica,sans-Serif" font-weight="bold" font-size="11.00" fill="#000000">applicant_role</text>
<text text-anchor="start" x="232.0219" y="-542.8" font-family="Helvetica,sans-Serif" font-size="11.00" fill="#000000">[table]</text>
<polygon fill="none" stroke="#000000" points="155.5,-515.7 155.5,-534.7 266.5,-534.7 266.5,-515.7 155.5,-515.7"/>
<text text-anchor="start" x="158.5" y="-521.8" font-family="Helvetica,sans-Serif" font-size="11.00" fill="#000000">...</text>
<polygon fill="#ffffff" stroke="transparent" points="155.5,-496.7 155.5,-515.7 193.5,-515.7 193.5,-496.7 155.5,-496.7"/>
<polygon fill="none" stroke="#000000" points="155.5,-496.7 155.5,-515.7 193.5,-515.7 193.5,-496.7 155.5,-496.7"/>
<text text-anchor="start" x="158.5" y="-502.8" font-family="Helvetica,sans-Serif" font-size="11.00" fill="#000000">&lt; 2</text>
<polygon fill="#ffffff" stroke="transparent" points="193.5,-496.7 193.5,-515.7 245.5,-515.7 245.5,-496.7 193.5,-496.7"/>
<polygon fill="none" stroke="#000000" points="193.5,-496.7 193.5,-515.7 245.5,-515.7 245.5,-496.7 193.5,-496.7"/>
<text text-anchor="start" x="203.9956" y="-502.8" font-family="Helvetica,sans-Serif" font-size="11.00" fill="#000000">91 rows</text>
<polygon fill="#ffffff" stroke="transparent" points="245.5,-496.7 245.5,-515.7 266.5,-515.7 266.5,-496.7 245.5,-496.7"/>
<polygon fill="none" stroke="#000000" points="245.5,-496.7 245.5,-515.7 266.5,-515.7 266.5,-496.7 245.5,-496.7"/>
<text text-anchor="start" x="257.3862" y="-502.8" font-family="Helvetica,sans-Serif" font-size="11.00" fill="#000000"> &#160;</text>
</a>
</g>
</g>
<!-- skill_role -->
<g id="node2" class="node">
<title>skill_role</title>
<g id="a_node2"><a xlink:href="../../tables/skill_role.html" xlink:title="skill_role" target="_top">
<polygon fill="#ffffff" stroke="transparent" points="11.5,-364.7 11.5,-450.7 96.5,-450.7 96.5,-364.7 11.5,-364.7"/>
<polygon fill="#f5f5f5" stroke="transparent" points="12,-427.7 12,-450.7 97,-450.7 97,-427.7 12,-427.7"/>
<polygon fill="none" stroke="#000000" points="12,-427.7 12,-450.7 97,-450.7 97,-427.7 12,-427.7"/>
<text text-anchor="start" x="16.6149" y="-436.8" font-family="Helvetica,sans-Serif" font-weight="bold" font-size="11.00" fill="#000000">skill_role</text>
<text text-anchor="start" x="62.5219" y="-435.8" font-family="Helvetica,sans-Serif" font-size="11.00" fill="#000000">[table]</text>
<polygon fill="none" stroke="#000000" points="12,-405.7 12,-427.7 97,-427.7 97,-405.7 12,-405.7"/>
<image xlink:href="../../images/primaryKeys.png" width="11px" height="12px" preserveAspectRatio="xMinYMin meet" x="17" y="-422.7"/>
<text text-anchor="start" x="38" y="-412.8" font-family="Helvetica,sans-Serif" font-size="11.00" fill="#000000">id</text>
<polygon fill="#ffffff" stroke="transparent" points="12,-383.7 12,-405.7 97,-405.7 97,-383.7 12,-383.7"/>
<polygon fill="none" stroke="#000000" points="12,-383.7 12,-405.7 97,-405.7 97,-383.7 12,-383.7"/>
<text text-anchor="start" x="38" y="-390.8" font-family="Helvetica,sans-Serif" font-size="11.00" fill="#000000">name</text>
<polygon fill="#ffffff" stroke="transparent" points="12,-364.7 12,-383.7 25,-383.7 25,-364.7 12,-364.7"/>
<polygon fill="none" stroke="#000000" points="12,-364.7 12,-383.7 25,-383.7 25,-364.7 12,-364.7"/>
<text text-anchor="start" x="15" y="-370.8" font-family="Helvetica,sans-Serif" font-size="11.00" fill="#000000"> &#160;</text>
<polygon fill="#ffffff" stroke="transparent" points="25,-364.7 25,-383.7 75,-383.7 75,-364.7 25,-364.7"/>
<polygon fill="none" stroke="#000000" points="25,-364.7 25,-383.7 75,-383.7 75,-364.7 25,-364.7"/>
<text text-anchor="start" x="27.6904" y="-370.8" font-family="Helvetica,sans-Serif" font-size="11.00" fill="#000000">603 rows</text>
<polygon fill="#ffffff" stroke="transparent" points="75,-364.7 75,-383.7 97,-383.7 97,-364.7 75,-364.7"/>
<polygon fill="none" stroke="#000000" points="75,-364.7 75,-383.7 97,-383.7 97,-364.7 75,-364.7"/>
<text text-anchor="start" x="78.4053" y="-370.8" font-family="Helvetica,sans-Serif" font-size="11.00" fill="#000000">4 &gt;</text>
</a>
</g>
</g>
<!-- applicant_role&#45;&gt;skill_role -->
<g id="edge1" class="edge">
<title>applicant_role:w&#45;&gt;skill_role:e</title>
<path fill="none" stroke="#000000" d="M141.4935,-521.3493C110.4297,-503.1201 145.8319,-416.7 97,-416.7"/>
<polygon fill="#000000" stroke="#000000" points="147.7195,-522.8387 154.6624,-528.2012 151.6098,-523.7694 155.5,-524.7 155.5,-524.7 155.5,-524.7 151.6098,-523.7694 156.3376,-521.1988 147.7195,-522.8387 147.7195,-522.8387"/>
<ellipse fill="none" stroke="#000000" cx="144.6073" cy="-522.0942" rx="3.2" ry="3.2"/>
</g>
<!-- applicant_skill -->
<g id="node3" class="node">
<title>applicant_skill</title>
<g id="a_node3"><a xlink:href="../../tables/applicant_skill.html" xlink:title="applicant_skill" target="_top">
<polygon fill="#ffffff" stroke="transparent" points="344,-202.2 344,-263.2 455,-263.2 455,-202.2 344,-202.2"/>
<polygon fill="#f5f5f5" stroke="transparent" points="344.5,-239.7 344.5,-262.7 455.5,-262.7 455.5,-239.7 344.5,-239.7"/>
<polygon fill="none" stroke="#000000" points="344.5,-239.7 344.5,-262.7 455.5,-262.7 455.5,-239.7 344.5,-239.7"/>
<text text-anchor="start" x="349.2746" y="-248.8" font-family="Helvetica,sans-Serif" font-weight="bold" font-size="11.00" fill="#000000">applicant_skill</text>
<text text-anchor="start" x="421.0219" y="-247.8" font-family="Helvetica,sans-Serif" font-size="11.00" fill="#000000">[table]</text>
<polygon fill="none" stroke="#000000" points="344.5,-220.7 344.5,-239.7 455.5,-239.7 455.5,-220.7 344.5,-220.7"/>
<text text-anchor="start" x="347.5" y="-226.8" font-family="Helvetica,sans-Serif" font-size="11.00" fill="#000000">...</text>
<polygon fill="#ffffff" stroke="transparent" points="344.5,-201.7 344.5,-220.7 379.5,-220.7 379.5,-201.7 344.5,-201.7"/>
<polygon fill="none" stroke="#000000" points="344.5,-201.7 344.5,-220.7 379.5,-220.7 379.5,-201.7 344.5,-201.7"/>
<text text-anchor="start" x="347.5" y="-207.8" font-family="Helvetica,sans-Serif" font-size="11.00" fill="#000000">&lt; 2</text>
<polygon fill="#ffffff" stroke="transparent" points="379.5,-201.7 379.5,-220.7 436.5,-220.7 436.5,-201.7 379.5,-201.7"/>
<polygon fill="none" stroke="#000000" points="379.5,-201.7 379.5,-220.7 436.5,-220.7 436.5,-201.7 379.5,-201.7"/>
<text text-anchor="start" x="388.8807" y="-207.8" font-family="Helvetica,sans-Serif" font-size="11.00" fill="#000000">181 rows</text>
<polygon fill="#ffffff" stroke="transparent" points="436.5,-201.7 436.5,-220.7 455.5,-220.7 455.5,-201.7 436.5,-201.7"/>
<polygon fill="none" stroke="#000000" points="436.5,-201.7 436.5,-220.7 455.5,-220.7 455.5,-201.7 436.5,-201.7"/>
<text text-anchor="start" x="446.3862" y="-207.8" font-family="Helvetica,sans-Serif" font-size="11.00" fill="#000000"> &#160;</text>
</a>
</g>
</g>
<!-- skill -->
<g id="node4" class="node">
<title>skill</title>
<g id="a_node4"><a xlink:href="../../tables/skill.html" xlink:title="skill" target="_top">
<polygon fill="#ffffff" stroke="transparent" points="149,-217.2 149,-366.2 272,-366.2 272,-217.2 149,-217.2"/>
<polygon fill="#f5f5f5" stroke="transparent" points="149.5,-342.7 149.5,-365.7 272.5,-365.7 272.5,-342.7 149.5,-342.7"/>
<polygon fill="none" stroke="#000000" points="149.5,-342.7 149.5,-365.7 272.5,-365.7 272.5,-342.7 149.5,-342.7"/>
<text text-anchor="start" x="154.5" y="-351.8" font-family="Helvetica,sans-Serif" font-weight="bold" font-size="11.00" fill="#000000">skill</text>
<text text-anchor="start" x="237.5437" y="-350.8" font-family="Helvetica,sans-Serif" font-size="11.00" fill="#000000">[table]</text>
<polygon fill="none" stroke="#000000" points="149.5,-320.7 149.5,-342.7 272.5,-342.7 272.5,-320.7 149.5,-320.7"/>
<image xlink:href="../../images/primaryKeys.png" width="11px" height="12px" preserveAspectRatio="xMinYMin meet" x="154.5" y="-337.7"/>
<text text-anchor="start" x="169.5" y="-327.8" font-family="Helvetica,sans-Serif" font-size="11.00" fill="#000000">id</text>
<polygon fill="#ffffff" stroke="transparent" points="149.5,-298.7 149.5,-320.7 272.5,-320.7 272.5,-298.7 149.5,-298.7"/>
<polygon fill="none" stroke="#000000" points="149.5,-298.7 149.5,-320.7 272.5,-320.7 272.5,-298.7 149.5,-298.7"/>
<image xlink:href="../../images/foreignKeys.png" width="11px" height="12px" preserveAspectRatio="xMinYMin meet" x="154.5" y="-315.7"/>
<text text-anchor="start" x="169.5" y="-305.8" font-family="Helvetica,sans-Serif" font-size="11.00" fill="#000000">created_by</text>
<polygon fill="#ffffff" stroke="transparent" points="149.5,-276.7 149.5,-298.7 272.5,-298.7 272.5,-276.7 149.5,-276.7"/>
<polygon fill="none" stroke="#000000" points="149.5,-276.7 149.5,-298.7 272.5,-298.7 272.5,-276.7 149.5,-276.7"/>
<image xlink:href="../../images/foreignKeys.png" width="11px" height="12px" preserveAspectRatio="xMinYMin meet" x="154.5" y="-293.7"/>
<text text-anchor="start" x="169.5" y="-283.8" font-family="Helvetica,sans-Serif" font-size="11.00" fill="#000000">modified_by</text>
<polygon fill="#ffffff" stroke="transparent" points="149.5,-254.7 149.5,-276.7 272.5,-276.7 272.5,-254.7 149.5,-254.7"/>
<polygon fill="none" stroke="#000000" points="149.5,-254.7 149.5,-276.7 272.5,-276.7 272.5,-254.7 149.5,-254.7"/>
<text text-anchor="start" x="169.5" y="-261.8" font-family="Helvetica,sans-Serif" font-size="11.00" fill="#000000">name</text>
<polygon fill="none" stroke="#000000" points="149.5,-235.7 149.5,-254.7 272.5,-254.7 272.5,-235.7 149.5,-235.7"/>
<text text-anchor="start" x="152.5" y="-241.8" font-family="Helvetica,sans-Serif" font-size="11.00" fill="#000000">...</text>
<polygon fill="#ffffff" stroke="transparent" points="149.5,-216.7 149.5,-235.7 179.5,-235.7 179.5,-216.7 149.5,-216.7"/>
<polygon fill="none" stroke="#000000" points="149.5,-216.7 149.5,-235.7 179.5,-235.7 179.5,-216.7 149.5,-216.7"/>
<text text-anchor="start" x="152.5" y="-222.8" font-family="Helvetica,sans-Serif" font-size="11.00" fill="#000000">&lt; 2</text>
<polygon fill="#ffffff" stroke="transparent" points="179.5,-216.7 179.5,-235.7 246.5,-235.7 246.5,-216.7 179.5,-216.7"/>
<polygon fill="none" stroke="#000000" points="179.5,-216.7 179.5,-235.7 246.5,-235.7 246.5,-216.7 179.5,-216.7"/>
<text text-anchor="start" x="186.047" y="-222.8" font-family="Helvetica,sans-Serif" font-size="11.00" fill="#000000">2 737 rows</text>
<polygon fill="#ffffff" stroke="transparent" points="246.5,-216.7 246.5,-235.7 272.5,-235.7 272.5,-216.7 246.5,-216.7"/>
<polygon fill="none" stroke="#000000" points="246.5,-216.7 246.5,-235.7 272.5,-235.7 272.5,-216.7 246.5,-216.7"/>
<text text-anchor="start" x="253.9053" y="-222.8" font-family="Helvetica,sans-Serif" font-size="11.00" fill="#000000">5 &gt;</text>
</a>
</g>
</g>
<!-- applicant_skill&#45;&gt;skill -->
<g id="edge2" class="edge">
<title>applicant_skill:w&#45;&gt;skill:e</title>
<path fill="none" stroke="#000000" d="M330.3184,-232.6427C295.9535,-249.3666 322.3541,-331.7 272.5,-331.7"/>
<polygon fill="#000000" stroke="#000000" points="336.6669,-231.3254 345.2314,-233.2249 340.5834,-230.5127 344.5,-229.7 344.5,-229.7 344.5,-229.7 340.5834,-230.5127 343.7686,-226.1751 336.6669,-231.3254 336.6669,-231.3254"/>
<ellipse fill="none" stroke="#000000" cx="333.5336" cy="-231.9756" rx="3.2" ry="3.2"/>
</g>
<!-- principal -->
<g id="node8" class="node">
<title>principal</title>
<g id="a_node8"><a xlink:href="../../tables/principal.html" xlink:title="principal" target="_top">
<polygon fill="#ffffff" stroke="transparent" points="8,-106.2 8,-167.2 100,-167.2 100,-106.2 8,-106.2"/>
<polygon fill="#f5f5f5" stroke="transparent" points="8,-143.7 8,-166.7 100,-166.7 100,-143.7 8,-143.7"/>
<polygon fill="none" stroke="#000000" points="8,-143.7 8,-166.7 100,-166.7 100,-143.7 8,-143.7"/>
<text text-anchor="start" x="13" y="-152.8" font-family="Helvetica,sans-Serif" font-weight="bold" font-size="11.00" fill="#000000">principal</text>
<text text-anchor="start" x="65.0437" y="-151.8" font-family="Helvetica,sans-Serif" font-size="11.00" fill="#000000">[table]</text>
<polygon fill="none" stroke="#000000" points="8,-124.7 8,-143.7 100,-143.7 100,-124.7 8,-124.7"/>
<text text-anchor="start" x="11" y="-130.8" font-family="Helvetica,sans-Serif" font-size="11.00" fill="#000000">...</text>
<polygon fill="#ffffff" stroke="transparent" points="8,-105.7 8,-124.7 29,-124.7 29,-105.7 8,-105.7"/>
<polygon fill="none" stroke="#000000" points="8,-105.7 8,-124.7 29,-124.7 29,-105.7 8,-105.7"/>
<text text-anchor="start" x="10.7027" y="-111.8" font-family="Helvetica,sans-Serif" font-size="11.00" fill="#000000">&lt; 1</text>
<polygon fill="#ffffff" stroke="transparent" points="29,-105.7 29,-124.7 73,-124.7 73,-105.7 29,-105.7"/>
<polygon fill="none" stroke="#000000" points="29,-105.7 29,-124.7 73,-124.7 73,-105.7 29,-105.7"/>
<text text-anchor="start" x="31.7478" y="-111.8" font-family="Helvetica,sans-Serif" font-size="11.00" fill="#000000">18 rows</text>
<polygon fill="#ffffff" stroke="transparent" points="73,-105.7 73,-124.7 100,-124.7 100,-105.7 73,-105.7"/>
<polygon fill="none" stroke="#000000" points="73,-105.7 73,-124.7 100,-124.7 100,-105.7 73,-105.7"/>
<text text-anchor="start" x="75.6452" y="-111.8" font-family="Helvetica,sans-Serif" font-size="11.00" fill="#000000">56 &gt;</text>
</a>
</g>
</g>
<!-- skill&#45;&gt;principal -->
<g id="edge16" class="edge">
<title>skill:w&#45;&gt;principal:e</title>
<path fill="none" stroke="#000000" d="M135.1061,-307.212C83.1751,-285.8201 175.5437,-133.7 100,-133.7"/>
<polygon fill="#000000" stroke="#000000" points="141.6169,-308.3374 148.8868,-313.2474 145.5584,-309.0187 149.5,-309.7 149.5,-309.7 149.5,-309.7 145.5584,-309.0187 150.1132,-306.1526 141.6169,-308.3374 141.6169,-308.3374"/>
<ellipse fill="none" stroke="#000000" cx="138.4637" cy="-307.7923" rx="3.2" ry="3.2"/>
</g>
<!-- skill&#45;&gt;principal -->
<g id="edge17" class="edge">
<title>skill:w&#45;&gt;principal:e</title>
<path fill="none" stroke="#000000" d="M135.255,-284.8956C91.6417,-264.0235 166.1362,-133.7 100,-133.7"/>
<polygon fill="#000000" stroke="#000000" points="141.6507,-286.1547 148.8046,-291.2322 145.5753,-286.9273 149.5,-287.7 149.5,-287.7 149.5,-287.7 145.5753,-286.9273 150.1954,-284.1678 141.6507,-286.1547 141.6507,-286.1547"/>
<ellipse fill="none" stroke="#000000" cx="138.5109" cy="-285.5365" rx="3.2" ry="3.2"/>
</g>
<!-- invitation -->
<g id="node5" class="node">
<title>invitation</title>
<g id="a_node5"><a xlink:href="../../tables/invitation.html" xlink:title="invitation" target="_top">
<polygon fill="#ffffff" stroke="transparent" points="167.5,-415.2 167.5,-476.2 253.5,-476.2 253.5,-415.2 167.5,-415.2"/>
<polygon fill="#f5f5f5" stroke="transparent" points="167.5,-452.7 167.5,-475.7 253.5,-475.7 253.5,-452.7 167.5,-452.7"/>
<polygon fill="none" stroke="#000000" points="167.5,-452.7 167.5,-475.7 253.5,-475.7 253.5,-452.7 167.5,-452.7"/>
<text text-anchor="start" x="172.302" y="-461.8" font-family="Helvetica,sans-Serif" font-weight="bold" font-size="11.00" fill="#000000">invitation</text>
<text text-anchor="start" x="219.0219" y="-460.8" font-family="Helvetica,sans-Serif" font-size="11.00" fill="#000000">[table]</text>
<polygon fill="none" stroke="#000000" points="167.5,-433.7 167.5,-452.7 253.5,-452.7 253.5,-433.7 167.5,-433.7"/>
<text text-anchor="start" x="170.5" y="-439.8" font-family="Helvetica,sans-Serif" font-size="11.00" fill="#000000">...</text>
<polygon fill="#ffffff" stroke="transparent" points="167.5,-414.7 167.5,-433.7 191.5,-433.7 191.5,-414.7 167.5,-414.7"/>
<polygon fill="none" stroke="#000000" points="167.5,-414.7 167.5,-433.7 191.5,-433.7 191.5,-414.7 167.5,-414.7"/>
<text text-anchor="start" x="170.5" y="-420.8" font-family="Helvetica,sans-Serif" font-size="11.00" fill="#000000">&lt; 3</text>
<polygon fill="#ffffff" stroke="transparent" points="191.5,-414.7 191.5,-433.7 230.5,-433.7 230.5,-414.7 191.5,-414.7"/>
<polygon fill="none" stroke="#000000" points="191.5,-414.7 191.5,-433.7 230.5,-433.7 230.5,-414.7 191.5,-414.7"/>
<text text-anchor="start" x="195.1105" y="-420.8" font-family="Helvetica,sans-Serif" font-size="11.00" fill="#000000">4 rows</text>
<polygon fill="#ffffff" stroke="transparent" points="230.5,-414.7 230.5,-433.7 253.5,-433.7 253.5,-414.7 230.5,-414.7"/>
<polygon fill="none" stroke="#000000" points="230.5,-414.7 230.5,-433.7 253.5,-433.7 253.5,-414.7 230.5,-414.7"/>
<text text-anchor="start" x="234.9053" y="-420.8" font-family="Helvetica,sans-Serif" font-size="11.00" fill="#000000">2 &gt;</text>
</a>
</g>
</g>
<!-- invitation&#45;&gt;skill_role -->
<g id="edge3" class="edge">
<title>invitation:w&#45;&gt;skill_role:e</title>
<path fill="none" stroke="#000000" d="M153.1979,-440.8301C132.0881,-434.8686 124.9172,-416.7 97,-416.7"/>
<polygon fill="#000000" stroke="#000000" points="159.5675,-441.6629 167.0333,-446.2696 163.5338,-442.1814 167.5,-442.7 167.5,-442.7 167.5,-442.7 163.5338,-442.1814 167.9667,-439.1304 159.5675,-441.6629 159.5675,-441.6629"/>
<ellipse fill="none" stroke="#000000" cx="156.3945" cy="-441.248" rx="3.2" ry="3.2"/>
</g>
<!-- invitation_skill -->
<g id="node6" class="node">
<title>invitation_skill</title>
<g id="a_node6"><a xlink:href="../../tables/invitation_skill.html" xlink:title="invitation_skill" target="_top">
<polygon fill="#ffffff" stroke="transparent" points="344.5,-418.2 344.5,-479.2 454.5,-479.2 454.5,-418.2 344.5,-418.2"/>
<polygon fill="#f5f5f5" stroke="transparent" points="344.5,-455.7 344.5,-478.7 454.5,-478.7 454.5,-455.7 344.5,-455.7"/>
<polygon fill="none" stroke="#000000" points="344.5,-455.7 344.5,-478.7 454.5,-478.7 454.5,-455.7 344.5,-455.7"/>
<text text-anchor="start" x="349.0832" y="-464.8" font-family="Helvetica,sans-Serif" font-weight="bold" font-size="11.00" fill="#000000">invitation_skill</text>
<text text-anchor="start" x="420.0219" y="-463.8" font-family="Helvetica,sans-Serif" font-size="11.00" fill="#000000">[table]</text>
<polygon fill="none" stroke="#000000" points="344.5,-436.7 344.5,-455.7 454.5,-455.7 454.5,-436.7 344.5,-436.7"/>
<text text-anchor="start" x="347.5" y="-442.8" font-family="Helvetica,sans-Serif" font-size="11.00" fill="#000000">...</text>
<polygon fill="#ffffff" stroke="transparent" points="344.5,-417.7 344.5,-436.7 384.5,-436.7 384.5,-417.7 344.5,-417.7"/>
<polygon fill="none" stroke="#000000" points="344.5,-417.7 344.5,-436.7 384.5,-436.7 384.5,-417.7 344.5,-417.7"/>
<text text-anchor="start" x="347.5" y="-423.8" font-family="Helvetica,sans-Serif" font-size="11.00" fill="#000000">&lt; 2</text>
<polygon fill="#ffffff" stroke="transparent" points="384.5,-417.7 384.5,-436.7 432.5,-436.7 432.5,-417.7 384.5,-417.7"/>
<polygon fill="none" stroke="#000000" points="384.5,-417.7 384.5,-436.7 432.5,-436.7 432.5,-417.7 384.5,-417.7"/>
<text text-anchor="start" x="397.1105" y="-423.8" font-family="Helvetica,sans-Serif" font-size="11.00" fill="#000000">4 rows</text>
<polygon fill="#ffffff" stroke="transparent" points="432.5,-417.7 432.5,-436.7 454.5,-436.7 454.5,-417.7 432.5,-417.7"/>
<polygon fill="none" stroke="#000000" points="432.5,-417.7 432.5,-436.7 454.5,-436.7 454.5,-417.7 432.5,-417.7"/>
<text text-anchor="start" x="445.3862" y="-423.8" font-family="Helvetica,sans-Serif" font-size="11.00" fill="#000000"> &#160;</text>
</a>
</g>
</g>
<!-- invitation_skill&#45;&gt;skill -->
<g id="edge5" class="edge">
<title>invitation_skill:w&#45;&gt;skill:e</title>
<path fill="none" stroke="#000000" d="M330.31,-442.882C292.5991,-425.327 326.8078,-331.7 272.5,-331.7"/>
<polygon fill="#000000" stroke="#000000" points="336.6532,-444.1417 343.7987,-449.231 340.5766,-444.9208 344.5,-445.7 344.5,-445.7 344.5,-445.7 340.5766,-444.9208 345.2013,-442.169 336.6532,-444.1417 336.6532,-444.1417"/>
<ellipse fill="none" stroke="#000000" cx="333.5145" cy="-443.5183" rx="3.2" ry="3.2"/>
</g>
<!-- invitation_skill&#45;&gt;invitation -->
<g id="edge4" class="edge">
<title>invitation_skill:w&#45;&gt;invitation:e</title>
<path fill="none" stroke="#000000" d="M329.8429,-445.5553C300.8233,-444.956 288.592,-442.7 253.5,-442.7"/>
<polygon fill="#000000" stroke="#000000" points="336.5004,-445.621 344.4644,-449.2998 340.5002,-445.6605 344.5,-445.7 344.5,-445.7 344.5,-445.7 340.5002,-445.6605 344.5356,-442.1002 336.5004,-445.621 336.5004,-445.621"/>
<ellipse fill="none" stroke="#000000" cx="333.3005" cy="-445.5894" rx="3.2" ry="3.2"/>
</g>
<!-- job_ad_skill -->
<g id="node7" class="node">
<title>job_ad_skill</title>
<g id="a_node7"><a xlink:href="../../tables/job_ad_skill.html" xlink:title="job_ad_skill" target="_top">
<polygon fill="#ffffff" stroke="transparent" points="349.5,-38.2 349.5,-99.2 449.5,-99.2 449.5,-38.2 349.5,-38.2"/>
<polygon fill="#f5f5f5" stroke="transparent" points="349.5,-75.7 349.5,-98.7 449.5,-98.7 449.5,-75.7 349.5,-75.7"/>
<polygon fill="none" stroke="#000000" points="349.5,-75.7 349.5,-98.7 449.5,-98.7 449.5,-75.7 349.5,-75.7"/>
<text text-anchor="start" x="354.2735" y="-84.8" font-family="Helvetica,sans-Serif" font-weight="bold" font-size="11.00" fill="#000000">job_ad_skill</text>
<text text-anchor="start" x="415.0219" y="-83.8" font-family="Helvetica,sans-Serif" font-size="11.00" fill="#000000">[table]</text>
<polygon fill="none" stroke="#000000" points="349.5,-56.7 349.5,-75.7 449.5,-75.7 449.5,-56.7 349.5,-56.7"/>
<text text-anchor="start" x="352.5" y="-62.8" font-family="Helvetica,sans-Serif" font-size="11.00" fill="#000000">...</text>
<polygon fill="#ffffff" stroke="transparent" points="349.5,-37.7 349.5,-56.7 378.5,-56.7 378.5,-37.7 349.5,-37.7"/>
<polygon fill="none" stroke="#000000" points="349.5,-37.7 349.5,-56.7 378.5,-56.7 378.5,-37.7 349.5,-37.7"/>
<text text-anchor="start" x="352.5" y="-43.8" font-family="Helvetica,sans-Serif" font-size="11.00" fill="#000000">&lt; 4</text>
<polygon fill="#ffffff" stroke="transparent" points="378.5,-37.7 378.5,-56.7 432.5,-56.7 432.5,-37.7 378.5,-37.7"/>
<polygon fill="none" stroke="#000000" points="378.5,-37.7 378.5,-56.7 432.5,-56.7 432.5,-37.7 378.5,-37.7"/>
<text text-anchor="start" x="384.8807" y="-43.8" font-family="Helvetica,sans-Serif" font-size="11.00" fill="#000000">138 rows</text>
<polygon fill="#ffffff" stroke="transparent" points="432.5,-37.7 432.5,-56.7 449.5,-56.7 449.5,-37.7 432.5,-37.7"/>
<polygon fill="none" stroke="#000000" points="432.5,-37.7 432.5,-56.7 449.5,-56.7 449.5,-37.7 432.5,-37.7"/>
<text text-anchor="start" x="440.3862" y="-43.8" font-family="Helvetica,sans-Serif" font-size="11.00" fill="#000000"> &#160;</text>
</a>
</g>
</g>
<!-- job_ad_skill&#45;&gt;skill -->
<g id="edge8" class="edge">
<title>job_ad_skill:w&#45;&gt;skill:e</title>
<path fill="none" stroke="#000000" d="M335.3078,-68.9128C323.3567,-75.6442 321.2238,-92.0706 313,-109.7 291.8003,-155.1461 322.6476,-331.7 272.5,-331.7"/>
<polygon fill="#000000" stroke="#000000" points="341.6974,-67.4664 350.2949,-69.2112 345.5987,-66.5832 349.5,-65.7 349.5,-65.7 349.5,-65.7 345.5987,-66.5832 348.7051,-62.1888 341.6974,-67.4664 341.6974,-67.4664"/>
<ellipse fill="none" stroke="#000000" cx="338.5764" cy="-68.1729" rx="3.2" ry="3.2"/>
</g>
<!-- job_ad_skill&#45;&gt;principal -->
<g id="edge6" class="edge">
<title>job_ad_skill:w&#45;&gt;principal:e</title>
<path fill="none" stroke="#000000" d="M334.9443,-65.9316C251.2896,-68.679 228.1847,-95.3954 141,-120.7 122.6414,-126.0284 119.1163,-133.7 100,-133.7"/>
<polygon fill="#000000" stroke="#000000" points="341.501,-65.8273 349.5573,-69.2995 345.5005,-65.7637 349.5,-65.7 349.5,-65.7 349.5,-65.7 345.5005,-65.7637 349.4427,-62.1005 341.501,-65.8273 341.501,-65.8273"/>
<ellipse fill="none" stroke="#000000" cx="338.3014" cy="-65.8783" rx="3.2" ry="3.2"/>
</g>
<!-- job_ad_skill&#45;&gt;principal -->
<g id="edge7" class="edge">
<title>job_ad_skill:w&#45;&gt;principal:e</title>
<path fill="none" stroke="#000000" d="M335.2437,-68.6219C283.1666,-81.6375 112.5709,-133.7 100,-133.7"/>
<polygon fill="#000000" stroke="#000000" points="341.6629,-67.3063 350.2228,-69.2267 345.5815,-66.5031 349.5,-65.7 349.5,-65.7 349.5,-65.7 345.5815,-66.5031 348.7772,-62.1733 341.6629,-67.3063 341.6629,-67.3063"/>
<ellipse fill="none" stroke="#000000" cx="338.5281" cy="-67.9488" rx="3.2" ry="3.2"/>
</g>
<!-- job_request -->
<g id="node9" class="node">
<title>job_request</title>
<g id="a_node9"><a xlink:href="../../tables/job_request.html" xlink:title="job_request" target="_top">
<polygon fill="#ffffff" stroke="transparent" points="160.5,-135.2 160.5,-196.2 260.5,-196.2 260.5,-135.2 160.5,-135.2"/>
<polygon fill="#f5f5f5" stroke="transparent" points="160.5,-172.7 160.5,-195.7 260.5,-195.7 260.5,-172.7 160.5,-172.7"/>
<polygon fill="none" stroke="#000000" points="160.5,-172.7 160.5,-195.7 260.5,-195.7 260.5,-172.7 160.5,-172.7"/>
<text text-anchor="start" x="165.268" y="-181.8" font-family="Helvetica,sans-Serif" font-weight="bold" font-size="11.00" fill="#000000">job_request</text>
<text text-anchor="start" x="226.0219" y="-180.8" font-family="Helvetica,sans-Serif" font-size="11.00" fill="#000000">[table]</text>
<polygon fill="none" stroke="#000000" points="160.5,-153.7 160.5,-172.7 260.5,-172.7 260.5,-153.7 160.5,-153.7"/>
<text text-anchor="start" x="163.5" y="-159.8" font-family="Helvetica,sans-Serif" font-size="11.00" fill="#000000">...</text>
<polygon fill="#ffffff" stroke="transparent" points="160.5,-134.7 160.5,-153.7 188.5,-153.7 188.5,-134.7 160.5,-134.7"/>
<polygon fill="none" stroke="#000000" points="160.5,-134.7 160.5,-153.7 188.5,-153.7 188.5,-134.7 160.5,-134.7"/>
<text text-anchor="start" x="163.5" y="-140.8" font-family="Helvetica,sans-Serif" font-size="11.00" fill="#000000">&lt; 11</text>
<polygon fill="#ffffff" stroke="transparent" points="188.5,-134.7 188.5,-153.7 238.5,-153.7 238.5,-134.7 188.5,-134.7"/>
<polygon fill="none" stroke="#000000" points="188.5,-134.7 188.5,-153.7 238.5,-153.7 238.5,-134.7 188.5,-134.7"/>
<text text-anchor="start" x="191.1904" y="-140.8" font-family="Helvetica,sans-Serif" font-size="11.00" fill="#000000">254 rows</text>
<polygon fill="#ffffff" stroke="transparent" points="238.5,-134.7 238.5,-153.7 260.5,-153.7 260.5,-134.7 238.5,-134.7"/>
<polygon fill="none" stroke="#000000" points="238.5,-134.7 238.5,-153.7 260.5,-153.7 260.5,-134.7 238.5,-134.7"/>
<text text-anchor="start" x="241.9053" y="-140.8" font-family="Helvetica,sans-Serif" font-size="11.00" fill="#000000">7 &gt;</text>
</a>
</g>
</g>
<!-- job_request&#45;&gt;skill_role -->
<g id="edge11" class="edge">
<title>job_request:w&#45;&gt;skill_role:e</title>
<path fill="none" stroke="#000000" d="M145.9601,-164.322C59.3743,-185.9544 207.9087,-416.7 97,-416.7"/>
<polygon fill="#000000" stroke="#000000" points="152.5493,-163.587 160.8991,-166.2778 156.5247,-163.1435 160.5,-162.7 160.5,-162.7 160.5,-162.7 156.5247,-163.1435 160.1009,-159.1222 152.5493,-163.587 152.5493,-163.587"/>
<ellipse fill="none" stroke="#000000" cx="149.369" cy="-163.9418" rx="3.2" ry="3.2"/>
</g>
<!-- job_request&#45;&gt;principal -->
<g id="edge9" class="edge">
<title>job_request:w&#45;&gt;principal:e</title>
<path fill="none" stroke="#000000" d="M146.8947,-157.5743C129.4365,-147.4082 124.4604,-128.7781 100,-133.7"/>
<polygon fill="#000000" stroke="#000000" points="153.0137,-159.8795 159.2308,-166.0688 156.7568,-161.2898 160.5,-162.7 160.5,-162.7 160.5,-162.7 156.7568,-161.2898 161.7692,-159.3312 153.0137,-159.8795 153.0137,-159.8795"/>
<ellipse fill="none" stroke="#000000" cx="150.0191" cy="-158.7513" rx="3.2" ry="3.2"/>
</g>
<!-- job_request&#45;&gt;principal -->
<g id="edge10" class="edge">
<title>job_request:w&#45;&gt;principal:e</title>
<path fill="none" stroke="#000000" d="M145.9105,-163.1138C129.2399,-159.2111 123.9945,-139.3328 100,-133.7"/>
<polygon fill="#000000" stroke="#000000" points="152.5032,-162.9269 160.6021,-166.2986 156.5016,-162.8134 160.5,-162.7 160.5,-162.7 160.5,-162.7 156.5016,-162.8134 160.3979,-159.1014 152.5032,-162.9269 152.5032,-162.9269"/>
<ellipse fill="none" stroke="#000000" cx="149.3045" cy="-163.0176" rx="3.2" ry="3.2"/>
</g>
<!-- job_request_skill -->
<g id="node10" class="node">
<title>job_request_skill</title>
<g id="a_node10"><a xlink:href="../../tables/job_request_skill.html" xlink:title="job_request_skill" target="_top">
<polygon fill="#ffffff" stroke="transparent" points="337.5,-120.2 337.5,-181.2 461.5,-181.2 461.5,-120.2 337.5,-120.2"/>
<polygon fill="#f5f5f5" stroke="transparent" points="337.5,-157.7 337.5,-180.7 461.5,-180.7 461.5,-157.7 337.5,-157.7"/>
<polygon fill="none" stroke="#000000" points="337.5,-157.7 337.5,-180.7 461.5,-180.7 461.5,-157.7 337.5,-157.7"/>
<text text-anchor="start" x="342.0492" y="-166.8" font-family="Helvetica,sans-Serif" font-weight="bold" font-size="11.00" fill="#000000">job_request_skill</text>
<text text-anchor="start" x="427.0219" y="-165.8" font-family="Helvetica,sans-Serif" font-size="11.00" fill="#000000">[table]</text>
<polygon fill="none" stroke="#000000" points="337.5,-138.7 337.5,-157.7 461.5,-157.7 461.5,-138.7 337.5,-138.7"/>
<text text-anchor="start" x="340.5" y="-144.8" font-family="Helvetica,sans-Serif" font-size="11.00" fill="#000000">...</text>
<polygon fill="#ffffff" stroke="transparent" points="337.5,-119.7 337.5,-138.7 378.5,-138.7 378.5,-119.7 337.5,-119.7"/>
<polygon fill="none" stroke="#000000" points="337.5,-119.7 337.5,-138.7 378.5,-138.7 378.5,-119.7 337.5,-119.7"/>
<text text-anchor="start" x="340.5" y="-125.8" font-family="Helvetica,sans-Serif" font-size="11.00" fill="#000000">&lt; 4</text>
<polygon fill="#ffffff" stroke="transparent" points="378.5,-119.7 378.5,-138.7 438.5,-138.7 438.5,-119.7 378.5,-119.7"/>
<polygon fill="none" stroke="#000000" points="378.5,-119.7 378.5,-138.7 438.5,-138.7 438.5,-119.7 378.5,-119.7"/>
<text text-anchor="start" x="390.8807" y="-125.8" font-family="Helvetica,sans-Serif" font-size="11.00" fill="#000000">494 rows</text>
<polygon fill="#ffffff" stroke="transparent" points="438.5,-119.7 438.5,-138.7 461.5,-138.7 461.5,-119.7 438.5,-119.7"/>
<polygon fill="none" stroke="#000000" points="438.5,-119.7 438.5,-138.7 461.5,-138.7 461.5,-119.7 438.5,-119.7"/>
<text text-anchor="start" x="452.3862" y="-125.8" font-family="Helvetica,sans-Serif" font-size="11.00" fill="#000000"> &#160;</text>
</a>
</g>
</g>
<!-- job_request_skill&#45;&gt;skill -->
<g id="edge15" class="edge">
<title>job_request_skill:w&#45;&gt;skill:e</title>
<path fill="none" stroke="#000000" d="M323.0579,-149.8946C263.94,-170.6544 353.6404,-331.7 272.5,-331.7"/>
<polygon fill="#000000" stroke="#000000" points="329.5908,-148.9019 338.0409,-151.2591 333.5454,-148.301 337.5,-147.7 337.5,-147.7 337.5,-147.7 333.5454,-148.301 336.9591,-144.1409 329.5908,-148.9019 329.5908,-148.9019"/>
<ellipse fill="none" stroke="#000000" cx="326.4271" cy="-149.3827" rx="3.2" ry="3.2"/>
</g>
<!-- job_request_skill&#45;&gt;principal -->
<g id="edge12" class="edge">
<title>job_request_skill:w&#45;&gt;principal:e</title>
<path fill="none" stroke="#000000" d="M322.9062,-145.6098C307.6606,-140.7529 301.3264,-128.8071 280,-124.7 219.3369,-113.0174 202.4176,-118.0384 141,-124.7 122.4527,-126.7117 118.6561,-133.7 100,-133.7"/>
<polygon fill="#000000" stroke="#000000" points="329.5808,-146.5657 336.9896,-151.2636 333.5404,-147.1329 337.5,-147.7 337.5,-147.7 337.5,-147.7 333.5404,-147.1329 338.0104,-144.1364 329.5808,-146.5657 329.5808,-146.5657"/>
<ellipse fill="none" stroke="#000000" cx="326.4131" cy="-146.112" rx="3.2" ry="3.2"/>
</g>
<!-- job_request_skill&#45;&gt;principal -->
<g id="edge14" class="edge">
<title>job_request_skill:w&#45;&gt;principal:e</title>
<path fill="none" stroke="#000000" d="M323.0985,-145.9709C307.8887,-141.9534 300.9675,-132.0745 280,-128.7 219.0071,-118.8839 202.6641,-124.9539 141,-128.7 122.6766,-129.8132 118.3572,-133.7 100,-133.7"/>
<polygon fill="#000000" stroke="#000000" points="329.557,-146.7463 337.0708,-151.2743 333.5285,-147.2231 337.5,-147.7 337.5,-147.7 337.5,-147.7 333.5285,-147.2231 337.9292,-144.1257 329.557,-146.7463 329.557,-146.7463"/>
<ellipse fill="none" stroke="#000000" cx="326.3799" cy="-146.3648" rx="3.2" ry="3.2"/>
</g>
<!-- job_request_skill&#45;&gt;job_request -->
<g id="edge13" class="edge">
<title>job_request_skill:w&#45;&gt;job_request:e</title>
<path fill="none" stroke="#000000" d="M322.9675,-148.6842C299.6892,-152.0213 289.9178,-162.7 260.5,-162.7"/>
<polygon fill="#000000" stroke="#000000" points="329.5183,-148.2406 337.7433,-151.2918 333.5091,-147.9703 337.5,-147.7 337.5,-147.7 337.5,-147.7 333.5091,-147.9703 337.2567,-144.1082 329.5183,-148.2406 329.5183,-148.2406"/>
<ellipse fill="none" stroke="#000000" cx="326.3256" cy="-148.4568" rx="3.2" ry="3.2"/>
</g>
<!-- skill_role_skill -->
<g id="node11" class="node">
<title>skill_role_skill</title>
<g id="a_node11"><a xlink:href="../../tables/skill_role_skill.html" xlink:title="skill_role_skill" target="_top">
<polygon fill="#ffffff" stroke="transparent" points="321,-284.7 321,-396.7 478,-396.7 478,-284.7 321,-284.7"/>
<polygon fill="#f5f5f5" stroke="transparent" points="323.5,-371.7 323.5,-394.7 476.5,-394.7 476.5,-371.7 323.5,-371.7"/>
<polygon fill="none" stroke="#000000" points="323.5,-371.7 323.5,-394.7 476.5,-394.7 476.5,-371.7 323.5,-371.7"/>
<text text-anchor="start" x="328.5" y="-380.8" font-family="Helvetica,sans-Serif" font-weight="bold" font-size="11.00" fill="#000000">skill_role_skill</text>
<text text-anchor="start" x="441.5437" y="-379.8" font-family="Helvetica,sans-Serif" font-size="11.00" fill="#000000">[table]</text>
<polygon fill="none" stroke="#000000" points="323.5,-349.7 323.5,-371.7 426.5,-371.7 426.5,-349.7 323.5,-349.7"/>
<image xlink:href="../../images/primaryKeys.png" width="11px" height="12px" preserveAspectRatio="xMinYMin meet" x="328.5" y="-366.7"/>
<text text-anchor="start" x="343.5" y="-356.8" font-family="Helvetica,sans-Serif" font-size="11.00" fill="#000000">id</text>
<polygon fill="none" stroke="#000000" points="426.5,-349.7 426.5,-371.7 476.5,-371.7 476.5,-349.7 426.5,-349.7"/>
<text text-anchor="start" x="429.1865" y="-357.4" font-family="Helvetica,sans-Serif" font-size="11.00" fill="#000000">bigint[19]</text>
<polygon fill="#ffffff" stroke="transparent" points="323.5,-327.7 323.5,-349.7 426.5,-349.7 426.5,-327.7 323.5,-327.7"/>
<polygon fill="none" stroke="#000000" points="323.5,-327.7 323.5,-349.7 426.5,-349.7 426.5,-327.7 323.5,-327.7"/>
<image xlink:href="../../images/foreignKeys.png" width="11px" height="12px" preserveAspectRatio="xMinYMin meet" x="328.5" y="-344.7"/>
<text text-anchor="start" x="343.5" y="-334.8" font-family="Helvetica,sans-Serif" font-size="11.00" fill="#000000">skill_id</text>
<polygon fill="none" stroke="#000000" points="426.5,-327.7 426.5,-349.7 476.5,-349.7 476.5,-327.7 426.5,-327.7"/>
<text text-anchor="start" x="429.1865" y="-335.4" font-family="Helvetica,sans-Serif" font-size="11.00" fill="#000000">bigint[19]</text>
<polygon fill="#ffffff" stroke="transparent" points="323.5,-305.7 323.5,-327.7 426.5,-327.7 426.5,-305.7 323.5,-305.7"/>
<polygon fill="none" stroke="#000000" points="323.5,-305.7 323.5,-327.7 426.5,-327.7 426.5,-305.7 323.5,-305.7"/>
<image xlink:href="../../images/foreignKeys.png" width="11px" height="12px" preserveAspectRatio="xMinYMin meet" x="328.5" y="-322.7"/>
<text text-anchor="start" x="343.5" y="-312.8" font-family="Helvetica,sans-Serif" font-size="11.00" fill="#000000">skill_role_id</text>
<polygon fill="none" stroke="#000000" points="426.5,-305.7 426.5,-327.7 476.5,-327.7 476.5,-305.7 426.5,-305.7"/>
<text text-anchor="start" x="429.1865" y="-313.4" font-family="Helvetica,sans-Serif" font-size="11.00" fill="#000000">bigint[19]</text>
<polygon fill="#ffffff" stroke="transparent" points="323.5,-286.7 323.5,-305.7 353.5,-305.7 353.5,-286.7 323.5,-286.7"/>
<polygon fill="none" stroke="#000000" points="323.5,-286.7 323.5,-305.7 353.5,-305.7 353.5,-286.7 323.5,-286.7"/>
<text text-anchor="start" x="326.5" y="-292.8" font-family="Helvetica,sans-Serif" font-size="11.00" fill="#000000">&lt; 2</text>
<polygon fill="#ffffff" stroke="transparent" points="353.5,-286.7 353.5,-305.7 426.5,-305.7 426.5,-286.7 353.5,-286.7"/>
<polygon fill="none" stroke="#000000" points="353.5,-286.7 353.5,-305.7 426.5,-305.7 426.5,-286.7 353.5,-286.7"/>
<text text-anchor="start" x="366.047" y="-292.8" font-family="Helvetica,sans-Serif" font-size="11.00" fill="#000000">8 110 rows</text>
<polygon fill="#ffffff" stroke="transparent" points="426.5,-286.7 426.5,-305.7 476.5,-305.7 476.5,-286.7 426.5,-286.7"/>
<polygon fill="none" stroke="#000000" points="426.5,-286.7 426.5,-305.7 476.5,-305.7 476.5,-286.7 426.5,-286.7"/>
<text text-anchor="start" x="457.9053" y="-292.8" font-family="Helvetica,sans-Serif" font-size="11.00" fill="#000000">0 &gt;</text>
<polygon fill="none" stroke="#000000" stroke-width="2" points="322,-285.7 322,-395.7 477,-395.7 477,-285.7 322,-285.7"/>
</a>
</g>
</g>
<!-- skill_role_skill&#45;&gt;skill_role -->
<g id="edge19" class="edge">
<title>skill_role_skill:w&#45;&gt;skill_role:e</title>
<path fill="none" stroke="#000000" d="M309.6292,-320.7113C295.4157,-331.6655 302.5144,-362.2329 280,-376.7 226.9831,-410.767 202.3229,-390.1789 141,-404.7 121.2757,-409.3707 117.2698,-416.7 97,-416.7"/>
<polygon fill="#000000" stroke="#000000" points="315.8149,-318.9225 324.5001,-320.1583 319.6574,-317.8112 323.5,-316.7 323.5,-316.7 323.5,-316.7 319.6574,-317.8112 322.4999,-313.2417 315.8149,-318.9225 315.8149,-318.9225"/>
<ellipse fill="none" stroke="#000000" cx="312.7409" cy="-319.8115" rx="3.2" ry="3.2"/>
</g>
<!-- skill_role_skill&#45;&gt;skill -->
<g id="edge18" class="edge">
<title>skill_role_skill:w&#45;&gt;skill:e</title>
<path fill="none" stroke="#000000" d="M309.0965,-337.6063C296.8977,-335.6375 289.6594,-331.7 272.5,-331.7"/>
<polygon fill="#000000" stroke="#000000" points="315.523,-338.0942 323.2274,-342.2897 319.5115,-338.3971 323.5,-338.7 323.5,-338.7 323.5,-338.7 319.5115,-338.3971 323.7726,-335.1103 315.523,-338.0942 315.523,-338.0942"/>
<ellipse fill="none" stroke="#000000" cx="312.3322" cy="-337.8519" rx="3.2" ry="3.2"/>
</g>
</g>
</svg>
