<?xml version="1.0" encoding="UTF-8" standalone="no"?>
<!DOCTYPE svg PUBLIC "-//W3C//DTD SVG 1.1//EN"
 "http://www.w3.org/Graphics/SVG/1.1/DTD/svg11.dtd">
<!-- Generated by graphviz version 2.40.1 (20161225.0304)
 -->
<!-- Title: oneDegreeRelationshipsDiagram Pages: 1 -->
<svg width="964pt" height="836pt"
 viewBox="0.00 0.00 964.00 835.53" xmlns="http://www.w3.org/2000/svg" xmlns:xlink="http://www.w3.org/1999/xlink">
<g id="graph0" class="graph" transform="scale(1 1) rotate(0) translate(4 831.5325)">
<title>oneDegreeRelationshipsDiagram</title>
<polygon fill="#ffffff" stroke="transparent" points="-4,4 -4,-831.5325 960,-831.5325 960,4 -4,4"/>
<text text-anchor="middle" x="72.4936" y="-7.3" font-family="Helvetica,sans-Serif" font-size="11.00" fill="#000000">Generated by SchemaSpy</text>
<!-- applicant -->
<g id="node1" class="node">
<title>applicant</title>
<g id="a_node1"><a xlink:href="../../tables/applicant.html" xlink:title="applicant" target="_top">
<polygon fill="#ffffff" stroke="transparent" points="598,-341.2 598,-556.2 738,-556.2 738,-341.2 598,-341.2"/>
<polygon fill="#f5f5f5" stroke="transparent" points="598,-532.7 598,-555.7 738,-555.7 738,-532.7 598,-532.7"/>
<polygon fill="none" stroke="#000000" points="598,-532.7 598,-555.7 738,-555.7 738,-532.7 598,-532.7"/>
<text text-anchor="start" x="603" y="-541.8" font-family="Helvetica,sans-Serif" font-weight="bold" font-size="11.00" fill="#000000">applicant</text>
<text text-anchor="start" x="703.0437" y="-540.8" font-family="Helvetica,sans-Serif" font-size="11.00" fill="#000000">[table]</text>
<polygon fill="none" stroke="#000000" points="598,-510.7 598,-532.7 738,-532.7 738,-510.7 598,-510.7"/>
<image xlink:href="../../images/primaryKeys.png" width="11px" height="12px" preserveAspectRatio="xMinYMin meet" x="603" y="-527.7"/>
<text text-anchor="start" x="618" y="-517.8" font-family="Helvetica,sans-Serif" font-size="11.00" fill="#000000">id</text>
<polygon fill="#ffffff" stroke="transparent" points="598,-488.7 598,-510.7 738,-510.7 738,-488.7 598,-488.7"/>
<polygon fill="none" stroke="#000000" points="598,-488.7 598,-510.7 738,-510.7 738,-488.7 598,-488.7"/>
<text text-anchor="start" x="618" y="-495.8" font-family="Helvetica,sans-Serif" font-size="11.00" fill="#000000">created_by</text>
<polygon fill="#ffffff" stroke="transparent" points="598,-466.7 598,-488.7 738,-488.7 738,-466.7 598,-466.7"/>
<polygon fill="none" stroke="#000000" points="598,-466.7 598,-488.7 738,-488.7 738,-466.7 598,-466.7"/>
<text text-anchor="start" x="618" y="-473.8" font-family="Helvetica,sans-Serif" font-size="11.00" fill="#000000">modified_by</text>
<polygon fill="#ffffff" stroke="transparent" points="598,-444.7 598,-466.7 738,-466.7 738,-444.7 598,-444.7"/>
<polygon fill="none" stroke="#000000" points="598,-444.7 598,-466.7 738,-466.7 738,-444.7 598,-444.7"/>
<image xlink:href="../../images/foreignKeys.png" width="11px" height="12px" preserveAspectRatio="xMinYMin meet" x="603" y="-461.7"/>
<text text-anchor="start" x="618" y="-451.8" font-family="Helvetica,sans-Serif" font-size="11.00" fill="#000000">address_id</text>
<polygon fill="#ffffff" stroke="transparent" points="598,-422.7 598,-444.7 738,-444.7 738,-422.7 598,-422.7"/>
<polygon fill="none" stroke="#000000" points="598,-422.7 598,-444.7 738,-444.7 738,-422.7 598,-422.7"/>
<image xlink:href="../../images/foreignKeys.png" width="11px" height="12px" preserveAspectRatio="xMinYMin meet" x="603" y="-439.7"/>
<text text-anchor="start" x="618" y="-429.8" font-family="Helvetica,sans-Serif" font-size="11.00" fill="#000000">avatar_id</text>
<polygon fill="#ffffff" stroke="transparent" points="598,-400.7 598,-422.7 738,-422.7 738,-400.7 598,-400.7"/>
<polygon fill="none" stroke="#000000" points="598,-400.7 598,-422.7 738,-422.7 738,-400.7 598,-400.7"/>
<image xlink:href="../../images/foreignKeys.png" width="11px" height="12px" preserveAspectRatio="xMinYMin meet" x="603" y="-417.7"/>
<text text-anchor="start" x="618" y="-407.8" font-family="Helvetica,sans-Serif" font-size="11.00" fill="#000000">contact_person_id</text>
<polygon fill="#ffffff" stroke="transparent" points="598,-378.7 598,-400.7 738,-400.7 738,-378.7 598,-378.7"/>
<polygon fill="none" stroke="#000000" points="598,-378.7 598,-400.7 738,-400.7 738,-378.7 598,-378.7"/>
<image xlink:href="../../images/foreignKeys.png" width="11px" height="12px" preserveAspectRatio="xMinYMin meet" x="603" y="-395.7"/>
<text text-anchor="start" x="618" y="-385.8" font-family="Helvetica,sans-Serif" font-size="11.00" fill="#000000">supplier_id</text>
<polygon fill="none" stroke="#000000" points="598,-359.7 598,-378.7 738,-378.7 738,-359.7 598,-359.7"/>
<text text-anchor="start" x="601" y="-365.8" font-family="Helvetica,sans-Serif" font-size="11.00" fill="#000000">...</text>
<polygon fill="#ffffff" stroke="transparent" points="598,-340.7 598,-359.7 646,-359.7 646,-340.7 598,-340.7"/>
<polygon fill="none" stroke="#000000" points="598,-340.7 598,-359.7 646,-359.7 646,-340.7 598,-340.7"/>
<text text-anchor="start" x="601" y="-346.8" font-family="Helvetica,sans-Serif" font-size="11.00" fill="#000000">&lt; 4</text>
<polygon fill="#ffffff" stroke="transparent" points="646,-340.7 646,-359.7 703,-359.7 703,-340.7 646,-340.7"/>
<polygon fill="none" stroke="#000000" points="646,-340.7 646,-359.7 703,-359.7 703,-340.7 646,-340.7"/>
<text text-anchor="start" x="661.4956" y="-346.8" font-family="Helvetica,sans-Serif" font-size="11.00" fill="#000000">90 rows</text>
<polygon fill="#ffffff" stroke="transparent" points="703,-340.7 703,-359.7 738,-359.7 738,-340.7 703,-340.7"/>
<polygon fill="none" stroke="#000000" points="703,-340.7 703,-359.7 738,-359.7 738,-340.7 703,-340.7"/>
<text text-anchor="start" x="719.4053" y="-346.8" font-family="Helvetica,sans-Serif" font-size="11.00" fill="#000000">5 &gt;</text>
</a>
</g>
</g>
<!-- file -->
<g id="node2" class="node">
<title>file</title>
<g id="a_node2"><a xlink:href="../../tables/file.html" xlink:title="file" target="_top">
<polygon fill="#ffffff" stroke="transparent" points="149,-217.2 149,-344.2 272,-344.2 272,-217.2 149,-217.2"/>
<polygon fill="#f5f5f5" stroke="transparent" points="149.5,-320.7 149.5,-343.7 272.5,-343.7 272.5,-320.7 149.5,-320.7"/>
<polygon fill="none" stroke="#000000" points="149.5,-320.7 149.5,-343.7 272.5,-343.7 272.5,-320.7 149.5,-320.7"/>
<text text-anchor="start" x="154.5" y="-329.8" font-family="Helvetica,sans-Serif" font-weight="bold" font-size="11.00" fill="#000000">file</text>
<text text-anchor="start" x="237.5437" y="-328.8" font-family="Helvetica,sans-Serif" font-size="11.00" fill="#000000">[table]</text>
<polygon fill="none" stroke="#000000" points="149.5,-298.7 149.5,-320.7 272.5,-320.7 272.5,-298.7 149.5,-298.7"/>
<image xlink:href="../../images/primaryKeys.png" width="11px" height="12px" preserveAspectRatio="xMinYMin meet" x="154.5" y="-315.7"/>
<text text-anchor="start" x="169.5" y="-305.8" font-family="Helvetica,sans-Serif" font-size="11.00" fill="#000000">id</text>
<polygon fill="#ffffff" stroke="transparent" points="149.5,-276.7 149.5,-298.7 272.5,-298.7 272.5,-276.7 149.5,-276.7"/>
<polygon fill="none" stroke="#000000" points="149.5,-276.7 149.5,-298.7 272.5,-298.7 272.5,-276.7 149.5,-276.7"/>
<image xlink:href="../../images/foreignKeys.png" width="11px" height="12px" preserveAspectRatio="xMinYMin meet" x="154.5" y="-293.7"/>
<text text-anchor="start" x="169.5" y="-283.8" font-family="Helvetica,sans-Serif" font-size="11.00" fill="#000000">created_by</text>
<polygon fill="#ffffff" stroke="transparent" points="149.5,-254.7 149.5,-276.7 272.5,-276.7 272.5,-254.7 149.5,-254.7"/>
<polygon fill="none" stroke="#000000" points="149.5,-254.7 149.5,-276.7 272.5,-276.7 272.5,-254.7 149.5,-254.7"/>
<image xlink:href="../../images/foreignKeys.png" width="11px" height="12px" preserveAspectRatio="xMinYMin meet" x="154.5" y="-271.7"/>
<text text-anchor="start" x="169.5" y="-261.8" font-family="Helvetica,sans-Serif" font-size="11.00" fill="#000000">modified_by</text>
<polygon fill="none" stroke="#000000" points="149.5,-235.7 149.5,-254.7 272.5,-254.7 272.5,-235.7 149.5,-235.7"/>
<text text-anchor="start" x="152.5" y="-241.8" font-family="Helvetica,sans-Serif" font-size="11.00" fill="#000000">...</text>
<polygon fill="#ffffff" stroke="transparent" points="149.5,-216.7 149.5,-235.7 182.5,-235.7 182.5,-216.7 149.5,-216.7"/>
<polygon fill="none" stroke="#000000" points="149.5,-216.7 149.5,-235.7 182.5,-235.7 182.5,-216.7 149.5,-216.7"/>
<text text-anchor="start" x="152.5" y="-222.8" font-family="Helvetica,sans-Serif" font-size="11.00" fill="#000000">&lt; 2</text>
<polygon fill="#ffffff" stroke="transparent" points="182.5,-216.7 182.5,-235.7 238.5,-235.7 238.5,-216.7 182.5,-216.7"/>
<polygon fill="none" stroke="#000000" points="182.5,-216.7 182.5,-235.7 238.5,-235.7 238.5,-216.7 182.5,-216.7"/>
<text text-anchor="start" x="190.8807" y="-222.8" font-family="Helvetica,sans-Serif" font-size="11.00" fill="#000000">590 rows</text>
<polygon fill="#ffffff" stroke="transparent" points="238.5,-216.7 238.5,-235.7 272.5,-235.7 272.5,-216.7 238.5,-216.7"/>
<polygon fill="none" stroke="#000000" points="238.5,-216.7 238.5,-235.7 272.5,-235.7 272.5,-216.7 238.5,-216.7"/>
<text text-anchor="start" x="247.7904" y="-222.8" font-family="Helvetica,sans-Serif" font-size="11.00" fill="#000000">13 &gt;</text>
</a>
</g>
</g>
<!-- applicant&#45;&gt;file -->
<g id="edge1" class="edge">
<title>applicant:w&#45;&gt;file:e</title>
<path fill="none" stroke="#000000" d="M583.401,-431.9828C526.0819,-416.1847 617.5746,-295.5782 555,-245.7 512.9472,-212.1797 360.1091,-219.762 313,-245.7 283.5128,-261.9355 306.1613,-309.7 272.5,-309.7"/>
<polygon fill="#000000" stroke="#000000" points="590.0548,-432.7654 597.5794,-437.2754 594.0274,-433.2327 598,-433.7 598,-433.7 598,-433.7 594.0274,-433.2327 598.4206,-430.1246 590.0548,-432.7654 590.0548,-432.7654"/>
<ellipse fill="none" stroke="#000000" cx="586.8767" cy="-432.3916" rx="3.2" ry="3.2"/>
</g>
<!-- supplier -->
<g id="node3" class="node">
<title>supplier</title>
<g id="a_node3"><a xlink:href="../../tables/supplier.html" xlink:title="supplier" target="_top">
<polygon fill="#ffffff" stroke="transparent" points="321,-255.7 321,-697.7 547,-697.7 547,-255.7 321,-255.7"/>
<polygon fill="#f5f5f5" stroke="transparent" points="323,-672.7 323,-695.7 545,-695.7 545,-672.7 323,-672.7"/>
<polygon fill="none" stroke="#000000" points="323,-672.7 323,-695.7 545,-695.7 545,-672.7 323,-672.7"/>
<text text-anchor="start" x="328" y="-681.8" font-family="Helvetica,sans-Serif" font-weight="bold" font-size="11.00" fill="#000000">supplier</text>
<text text-anchor="start" x="510.0437" y="-680.8" font-family="Helvetica,sans-Serif" font-size="11.00" fill="#000000">[table]</text>
<polygon fill="none" stroke="#000000" points="323,-650.7 323,-672.7 478,-672.7 478,-650.7 323,-650.7"/>
<image xlink:href="../../images/primaryKeys.png" width="11px" height="12px" preserveAspectRatio="xMinYMin meet" x="328" y="-667.7"/>
<text text-anchor="start" x="343" y="-657.8" font-family="Helvetica,sans-Serif" font-size="11.00" fill="#000000">id</text>
<polygon fill="none" stroke="#000000" points="478,-650.7 478,-672.7 545,-672.7 545,-650.7 478,-650.7"/>
<text text-anchor="start" x="481" y="-658.4" font-family="Helvetica,sans-Serif" font-size="11.00" fill="#000000">bigint[19]</text>
<polygon fill="#ffffff" stroke="transparent" points="323,-628.7 323,-650.7 478,-650.7 478,-628.7 323,-628.7"/>
<polygon fill="none" stroke="#000000" points="323,-628.7 323,-650.7 478,-650.7 478,-628.7 323,-628.7"/>
<image xlink:href="../../images/foreignKeys.png" width="11px" height="12px" preserveAspectRatio="xMinYMin meet" x="328" y="-645.7"/>
<text text-anchor="start" x="343" y="-635.8" font-family="Helvetica,sans-Serif" font-size="11.00" fill="#000000">created_by</text>
<polygon fill="none" stroke="#000000" points="478,-628.7 478,-650.7 545,-650.7 545,-628.7 478,-628.7"/>
<text text-anchor="start" x="481" y="-636.4" font-family="Helvetica,sans-Serif" font-size="11.00" fill="#000000">bigint[19]</text>
<polygon fill="none" stroke="#000000" points="323,-606.7 323,-628.7 478,-628.7 478,-606.7 323,-606.7"/>
<text text-anchor="start" x="343" y="-613.8" font-family="Helvetica,sans-Serif" font-size="11.00" fill="#000000">creation_date</text>
<polygon fill="none" stroke="#000000" points="478,-606.7 478,-628.7 545,-628.7 545,-606.7 478,-606.7"/>
<text text-anchor="start" x="481" y="-614.4" font-family="Helvetica,sans-Serif" font-size="11.00" fill="#000000">datetime[26]</text>
<polygon fill="#ffffff" stroke="transparent" points="323,-584.7 323,-606.7 478,-606.7 478,-584.7 323,-584.7"/>
<polygon fill="none" stroke="#000000" points="323,-584.7 323,-606.7 478,-606.7 478,-584.7 323,-584.7"/>
<image xlink:href="../../images/foreignKeys.png" width="11px" height="12px" preserveAspectRatio="xMinYMin meet" x="328" y="-601.7"/>
<text text-anchor="start" x="343" y="-591.8" font-family="Helvetica,sans-Serif" font-size="11.00" fill="#000000">modified_by</text>
<polygon fill="none" stroke="#000000" points="478,-584.7 478,-606.7 545,-606.7 545,-584.7 478,-584.7"/>
<text text-anchor="start" x="481" y="-592.4" font-family="Helvetica,sans-Serif" font-size="11.00" fill="#000000">bigint[19]</text>
<polygon fill="none" stroke="#000000" points="323,-562.7 323,-584.7 478,-584.7 478,-562.7 323,-562.7"/>
<text text-anchor="start" x="343" y="-569.8" font-family="Helvetica,sans-Serif" font-size="11.00" fill="#000000">modification_date</text>
<polygon fill="none" stroke="#000000" points="478,-562.7 478,-584.7 545,-584.7 545,-562.7 478,-562.7"/>
<text text-anchor="start" x="481" y="-570.4" font-family="Helvetica,sans-Serif" font-size="11.00" fill="#000000">datetime[26]</text>
<polygon fill="none" stroke="#000000" points="323,-540.7 323,-562.7 478,-562.7 478,-540.7 323,-540.7"/>
<text text-anchor="start" x="343" y="-547.8" font-family="Helvetica,sans-Serif" font-size="11.00" fill="#000000">system_id</text>
<polygon fill="none" stroke="#000000" points="478,-540.7 478,-562.7 545,-562.7 545,-540.7 478,-540.7"/>
<text text-anchor="start" x="480.9365" y="-548.4" font-family="Helvetica,sans-Serif" font-size="11.00" fill="#000000">varchar[255]</text>
<polygon fill="#ffffff" stroke="transparent" points="323,-518.7 323,-540.7 478,-540.7 478,-518.7 323,-518.7"/>
<polygon fill="none" stroke="#000000" points="323,-518.7 323,-540.7 478,-540.7 478,-518.7 323,-518.7"/>
<text text-anchor="start" x="343" y="-525.8" font-family="Helvetica,sans-Serif" font-size="11.00" fill="#000000">marketplace_id</text>
<polygon fill="none" stroke="#000000" points="478,-518.7 478,-540.7 545,-540.7 545,-518.7 478,-518.7"/>
<text text-anchor="start" x="481" y="-526.4" font-family="Helvetica,sans-Serif" font-size="11.00" fill="#000000">bigint[19]</text>
<polygon fill="none" stroke="#000000" points="323,-496.7 323,-518.7 478,-518.7 478,-496.7 323,-496.7"/>
<text text-anchor="start" x="343" y="-503.8" font-family="Helvetica,sans-Serif" font-size="11.00" fill="#000000">additional_info</text>
<polygon fill="none" stroke="#000000" points="478,-496.7 478,-518.7 545,-518.7 545,-496.7 478,-496.7"/>
<text text-anchor="start" x="481" y="-504.4" font-family="Helvetica,sans-Serif" font-size="11.00" fill="#000000">text[65535]</text>
<polygon fill="none" stroke="#000000" points="323,-474.7 323,-496.7 478,-496.7 478,-474.7 323,-474.7"/>
<text text-anchor="start" x="343" y="-481.8" font-family="Helvetica,sans-Serif" font-size="11.00" fill="#000000">name</text>
<polygon fill="none" stroke="#000000" points="478,-474.7 478,-496.7 545,-496.7 545,-474.7 478,-474.7"/>
<text text-anchor="start" x="480.9365" y="-482.4" font-family="Helvetica,sans-Serif" font-size="11.00" fill="#000000">varchar[255]</text>
<polygon fill="none" stroke="#000000" points="323,-452.7 323,-474.7 478,-474.7 478,-452.7 323,-452.7"/>
<text text-anchor="start" x="343" y="-459.8" font-family="Helvetica,sans-Serif" font-size="11.00" fill="#000000">country_of_registration</text>
<polygon fill="none" stroke="#000000" points="478,-452.7 478,-474.7 545,-474.7 545,-452.7 478,-452.7"/>
<text text-anchor="start" x="480.9365" y="-460.4" font-family="Helvetica,sans-Serif" font-size="11.00" fill="#000000">varchar[255]</text>
<polygon fill="none" stroke="#000000" points="323,-430.7 323,-452.7 478,-452.7 478,-430.7 323,-430.7"/>
<text text-anchor="start" x="343" y="-437.8" font-family="Helvetica,sans-Serif" font-size="11.00" fill="#000000">vat_number</text>
<polygon fill="none" stroke="#000000" points="478,-430.7 478,-452.7 545,-452.7 545,-430.7 478,-430.7"/>
<text text-anchor="start" x="481" y="-438.4" font-family="Helvetica,sans-Serif" font-size="11.00" fill="#000000">varchar[25]</text>
<polygon fill="none" stroke="#000000" points="323,-408.7 323,-430.7 478,-430.7 478,-408.7 323,-408.7"/>
<text text-anchor="start" x="343" y="-415.8" font-family="Helvetica,sans-Serif" font-size="11.00" fill="#000000">status</text>
<polygon fill="none" stroke="#000000" points="478,-408.7 478,-430.7 545,-430.7 545,-408.7 478,-408.7"/>
<text text-anchor="start" x="480.9365" y="-416.4" font-family="Helvetica,sans-Serif" font-size="11.00" fill="#000000">varchar[255]</text>
<polygon fill="none" stroke="#000000" points="323,-386.7 323,-408.7 478,-408.7 478,-386.7 323,-386.7"/>
<text text-anchor="start" x="343" y="-393.8" font-family="Helvetica,sans-Serif" font-size="11.00" fill="#000000">org_number</text>
<polygon fill="none" stroke="#000000" points="478,-386.7 478,-408.7 545,-408.7 545,-386.7 478,-386.7"/>
<text text-anchor="start" x="481" y="-394.4" font-family="Helvetica,sans-Serif" font-size="11.00" fill="#000000">varchar[25]</text>
<polygon fill="none" stroke="#000000" points="323,-364.7 323,-386.7 478,-386.7 478,-364.7 323,-364.7"/>
<text text-anchor="start" x="343" y="-371.8" font-family="Helvetica,sans-Serif" font-size="11.00" fill="#000000">phone_code</text>
<polygon fill="none" stroke="#000000" points="478,-364.7 478,-386.7 545,-386.7 545,-364.7 478,-364.7"/>
<text text-anchor="start" x="481" y="-372.4" font-family="Helvetica,sans-Serif" font-size="11.00" fill="#000000">varchar[2]</text>
<polygon fill="none" stroke="#000000" points="323,-342.7 323,-364.7 478,-364.7 478,-342.7 323,-342.7"/>
<text text-anchor="start" x="343" y="-349.8" font-family="Helvetica,sans-Serif" font-size="11.00" fill="#000000">phone_number</text>
<polygon fill="none" stroke="#000000" points="478,-342.7 478,-364.7 545,-364.7 545,-342.7 478,-342.7"/>
<text text-anchor="start" x="481" y="-350.4" font-family="Helvetica,sans-Serif" font-size="11.00" fill="#000000">varchar[50]</text>
<polygon fill="none" stroke="#000000" points="323,-320.7 323,-342.7 478,-342.7 478,-320.7 323,-320.7"/>
<text text-anchor="start" x="343" y="-327.8" font-family="Helvetica,sans-Serif" font-size="11.00" fill="#000000">quality_assured</text>
<polygon fill="none" stroke="#000000" points="478,-320.7 478,-342.7 545,-342.7 545,-320.7 478,-320.7"/>
<text text-anchor="start" x="481" y="-328.4" font-family="Helvetica,sans-Serif" font-size="11.00" fill="#000000">bit[1]</text>
<polygon fill="#ffffff" stroke="transparent" points="323,-298.7 323,-320.7 478,-320.7 478,-298.7 323,-298.7"/>
<polygon fill="none" stroke="#000000" points="323,-298.7 323,-320.7 478,-320.7 478,-298.7 323,-298.7"/>
<image xlink:href="../../images/foreignKeys.png" width="11px" height="12px" preserveAspectRatio="xMinYMin meet" x="328" y="-315.7"/>
<text text-anchor="start" x="343" y="-305.8" font-family="Helvetica,sans-Serif" font-size="11.00" fill="#000000">logo_id</text>
<polygon fill="none" stroke="#000000" points="478,-298.7 478,-320.7 545,-320.7 545,-298.7 478,-298.7"/>
<text text-anchor="start" x="481" y="-306.4" font-family="Helvetica,sans-Serif" font-size="11.00" fill="#000000">bigint[19]</text>
<polygon fill="none" stroke="#000000" points="323,-276.7 323,-298.7 478,-298.7 478,-276.7 323,-276.7"/>
<text text-anchor="start" x="343" y="-283.8" font-family="Helvetica,sans-Serif" font-size="11.00" fill="#000000">location_id</text>
<polygon fill="none" stroke="#000000" points="478,-276.7 478,-298.7 545,-298.7 545,-276.7 478,-276.7"/>
<text text-anchor="start" x="481" y="-284.4" font-family="Helvetica,sans-Serif" font-size="11.00" fill="#000000">bigint[19]</text>
<polygon fill="#ffffff" stroke="transparent" points="323,-257.7 323,-276.7 386,-276.7 386,-257.7 323,-257.7"/>
<polygon fill="none" stroke="#000000" points="323,-257.7 323,-276.7 386,-276.7 386,-257.7 323,-257.7"/>
<text text-anchor="start" x="326" y="-263.8" font-family="Helvetica,sans-Serif" font-size="11.00" fill="#000000">&lt; 3</text>
<polygon fill="#ffffff" stroke="transparent" points="386,-257.7 386,-276.7 478,-276.7 478,-257.7 386,-257.7"/>
<polygon fill="none" stroke="#000000" points="386,-257.7 386,-276.7 478,-276.7 478,-257.7 386,-257.7"/>
<text text-anchor="start" x="430.3807" y="-263.8" font-family="Helvetica,sans-Serif" font-size="11.00" fill="#000000">201 rows</text>
<polygon fill="#ffffff" stroke="transparent" points="478,-257.7 478,-276.7 545,-276.7 545,-257.7 478,-257.7"/>
<polygon fill="none" stroke="#000000" points="478,-257.7 478,-276.7 545,-276.7 545,-257.7 478,-257.7"/>
<text text-anchor="start" x="526.4053" y="-263.8" font-family="Helvetica,sans-Serif" font-size="11.00" fill="#000000">4 &gt;</text>
<polygon fill="none" stroke="#000000" stroke-width="2" points="322,-256.7 322,-696.7 546,-696.7 546,-256.7 322,-256.7"/>
</a>
</g>
</g>
<!-- applicant&#45;&gt;supplier -->
<g id="edge2" class="edge">
<title>applicant:w&#45;&gt;supplier:e</title>
<path fill="none" stroke="#000000" d="M584.6369,-395.6341C547.7343,-435.4114 601.1688,-661.7 545,-661.7"/>
<polygon fill="#000000" stroke="#000000" points="590.6885,-392.9468 599.4611,-392.9902 594.3442,-391.3234 598,-389.7 598,-389.7 598,-389.7 594.3442,-391.3234 596.5389,-386.4098 590.6885,-392.9468 590.6885,-392.9468"/>
<ellipse fill="none" stroke="#000000" cx="587.7639" cy="-394.2456" rx="3.2" ry="3.2"/>
</g>
<!-- principal -->
<g id="node5" class="node">
<title>principal</title>
<g id="a_node5"><a xlink:href="../../tables/principal.html" xlink:title="principal" target="_top">
<polygon fill="#ffffff" stroke="transparent" points="8,-525.2 8,-630.2 100,-630.2 100,-525.2 8,-525.2"/>
<polygon fill="#f5f5f5" stroke="transparent" points="8,-606.7 8,-629.7 100,-629.7 100,-606.7 8,-606.7"/>
<polygon fill="none" stroke="#000000" points="8,-606.7 8,-629.7 100,-629.7 100,-606.7 8,-606.7"/>
<text text-anchor="start" x="13" y="-615.8" font-family="Helvetica,sans-Serif" font-weight="bold" font-size="11.00" fill="#000000">principal</text>
<text text-anchor="start" x="65.0437" y="-614.8" font-family="Helvetica,sans-Serif" font-size="11.00" fill="#000000">[table]</text>
<polygon fill="none" stroke="#000000" points="8,-584.7 8,-606.7 100,-606.7 100,-584.7 8,-584.7"/>
<image xlink:href="../../images/primaryKeys.png" width="11px" height="12px" preserveAspectRatio="xMinYMin meet" x="13" y="-601.7"/>
<text text-anchor="start" x="32" y="-591.8" font-family="Helvetica,sans-Serif" font-size="11.00" fill="#000000">id</text>
<polygon fill="#ffffff" stroke="transparent" points="8,-562.7 8,-584.7 100,-584.7 100,-562.7 8,-562.7"/>
<polygon fill="none" stroke="#000000" points="8,-562.7 8,-584.7 100,-584.7 100,-562.7 8,-562.7"/>
<image xlink:href="../../images/foreignKeys.png" width="11px" height="12px" preserveAspectRatio="xMinYMin meet" x="13" y="-579.7"/>
<text text-anchor="start" x="32" y="-569.8" font-family="Helvetica,sans-Serif" font-size="11.00" fill="#000000">eworker_id</text>
<polygon fill="none" stroke="#000000" points="8,-543.7 8,-562.7 100,-562.7 100,-543.7 8,-543.7"/>
<text text-anchor="start" x="11" y="-549.8" font-family="Helvetica,sans-Serif" font-size="11.00" fill="#000000">...</text>
<polygon fill="#ffffff" stroke="transparent" points="8,-524.7 8,-543.7 29,-543.7 29,-524.7 8,-524.7"/>
<polygon fill="none" stroke="#000000" points="8,-524.7 8,-543.7 29,-543.7 29,-524.7 8,-524.7"/>
<text text-anchor="start" x="10.7027" y="-530.8" font-family="Helvetica,sans-Serif" font-size="11.00" fill="#000000">&lt; 1</text>
<polygon fill="#ffffff" stroke="transparent" points="29,-524.7 29,-543.7 73,-543.7 73,-524.7 29,-524.7"/>
<polygon fill="none" stroke="#000000" points="29,-524.7 29,-543.7 73,-543.7 73,-524.7 29,-524.7"/>
<text text-anchor="start" x="31.7478" y="-530.8" font-family="Helvetica,sans-Serif" font-size="11.00" fill="#000000">18 rows</text>
<polygon fill="#ffffff" stroke="transparent" points="73,-524.7 73,-543.7 100,-543.7 100,-524.7 73,-524.7"/>
<polygon fill="none" stroke="#000000" points="73,-524.7 73,-543.7 100,-543.7 100,-524.7 73,-524.7"/>
<text text-anchor="start" x="75.6452" y="-530.8" font-family="Helvetica,sans-Serif" font-size="11.00" fill="#000000">56 &gt;</text>
</a>
</g>
</g>
<!-- file&#45;&gt;principal -->
<g id="edge5" class="edge">
<title>file:w&#45;&gt;principal:e</title>
<path fill="none" stroke="#000000" d="M134.8862,-289.0732C28.0916,-311.2925 233.2296,-595.7 100,-595.7"/>
<polygon fill="#000000" stroke="#000000" points="141.5351,-288.4485 149.8368,-291.2842 145.5175,-288.0742 149.5,-287.7 149.5,-287.7 149.5,-287.7 145.5175,-288.0742 149.1632,-284.1158 141.5351,-288.4485 141.5351,-288.4485"/>
<ellipse fill="none" stroke="#000000" cx="138.3491" cy="-288.7479" rx="3.2" ry="3.2"/>
</g>
<!-- file&#45;&gt;principal -->
<g id="edge6" class="edge">
<title>file:w&#45;&gt;principal:e</title>
<path fill="none" stroke="#000000" d="M134.9352,-266.9614C18.5342,-289.1168 242.9487,-595.7 100,-595.7"/>
<polygon fill="#000000" stroke="#000000" points="141.5298,-266.3903 149.8106,-269.2866 145.5149,-266.0452 149.5,-265.7 149.5,-265.7 149.5,-265.7 145.5149,-266.0452 149.1894,-262.1134 141.5298,-266.3903 141.5298,-266.3903"/>
<ellipse fill="none" stroke="#000000" cx="138.3418" cy="-266.6664" rx="3.2" ry="3.2"/>
</g>
<!-- supplier&#45;&gt;file -->
<g id="edge13" class="edge">
<title>supplier:w&#45;&gt;file:e</title>
<path fill="none" stroke="#000000" d="M308.4203,-309.7C296.5435,-309.7 289.158,-309.7 272.5,-309.7"/>
<polygon fill="#000000" stroke="#000000" points="315,-309.7001 323,-313.3 319,-309.7 323,-309.7 323,-309.7 323,-309.7 319,-309.7 323,-306.1 315,-309.7001 315,-309.7001"/>
<ellipse fill="none" stroke="#000000" cx="311.8" cy="-309.7001" rx="3.2" ry="3.2"/>
</g>
<!-- supplier&#45;&gt;principal -->
<g id="edge12" class="edge">
<title>supplier:w&#45;&gt;principal:e</title>
<path fill="none" stroke="#000000" d="M308.2792,-639.5084C238.0646,-637.6115 216.4188,-621.9294 141,-605.7 122.6634,-601.7541 118.7564,-595.7 100,-595.7"/>
<polygon fill="#000000" stroke="#000000" points="315.0007,-639.5958 322.9531,-643.2997 319.0003,-639.6479 323,-639.7 323,-639.7 323,-639.7 319.0003,-639.6479 323.0469,-636.1003 315.0007,-639.5958 315.0007,-639.5958"/>
<ellipse fill="none" stroke="#000000" cx="311.8009" cy="-639.5541" rx="3.2" ry="3.2"/>
</g>
<!-- supplier&#45;&gt;principal -->
<g id="edge14" class="edge">
<title>supplier:w&#45;&gt;principal:e</title>
<path fill="none" stroke="#000000" d="M308.4566,-595.7C221.1807,-595.7 194.0781,-595.7 100,-595.7"/>
<polygon fill="#000000" stroke="#000000" points="315,-595.7001 323,-599.3 319,-595.7 323,-595.7 323,-595.7 323,-595.7 319,-595.7 323,-592.1 315,-595.7001 315,-595.7001"/>
<ellipse fill="none" stroke="#000000" cx="311.8" cy="-595.7001" rx="3.2" ry="3.2"/>
</g>
<!-- feed -->
<g id="node4" class="node">
<title>feed</title>
<g id="a_node4"><a xlink:href="../../tables/feed.html" xlink:title="feed" target="_top">
<polygon fill="#ffffff" stroke="transparent" points="606.5,-605.2 606.5,-732.2 729.5,-732.2 729.5,-605.2 606.5,-605.2"/>
<polygon fill="#f5f5f5" stroke="transparent" points="607,-708.7 607,-731.7 730,-731.7 730,-708.7 607,-708.7"/>
<polygon fill="none" stroke="#000000" points="607,-708.7 607,-731.7 730,-731.7 730,-708.7 607,-708.7"/>
<text text-anchor="start" x="612" y="-717.8" font-family="Helvetica,sans-Serif" font-weight="bold" font-size="11.00" fill="#000000">feed</text>
<text text-anchor="start" x="695.0437" y="-716.8" font-family="Helvetica,sans-Serif" font-size="11.00" fill="#000000">[table]</text>
<polygon fill="none" stroke="#000000" points="607,-686.7 607,-708.7 730,-708.7 730,-686.7 607,-686.7"/>
<image xlink:href="../../images/primaryKeys.png" width="11px" height="12px" preserveAspectRatio="xMinYMin meet" x="612" y="-703.7"/>
<text text-anchor="start" x="627" y="-693.8" font-family="Helvetica,sans-Serif" font-size="11.00" fill="#000000">id</text>
<polygon fill="#ffffff" stroke="transparent" points="607,-664.7 607,-686.7 730,-686.7 730,-664.7 607,-664.7"/>
<polygon fill="none" stroke="#000000" points="607,-664.7 607,-686.7 730,-686.7 730,-664.7 607,-664.7"/>
<image xlink:href="../../images/foreignKeys.png" width="11px" height="12px" preserveAspectRatio="xMinYMin meet" x="612" y="-681.7"/>
<text text-anchor="start" x="627" y="-671.8" font-family="Helvetica,sans-Serif" font-size="11.00" fill="#000000">created_by</text>
<polygon fill="#ffffff" stroke="transparent" points="607,-642.7 607,-664.7 730,-664.7 730,-642.7 607,-642.7"/>
<polygon fill="none" stroke="#000000" points="607,-642.7 607,-664.7 730,-664.7 730,-642.7 607,-642.7"/>
<image xlink:href="../../images/foreignKeys.png" width="11px" height="12px" preserveAspectRatio="xMinYMin meet" x="612" y="-659.7"/>
<text text-anchor="start" x="627" y="-649.8" font-family="Helvetica,sans-Serif" font-size="11.00" fill="#000000">supplier_id</text>
<polygon fill="none" stroke="#000000" points="607,-623.7 607,-642.7 730,-642.7 730,-623.7 607,-623.7"/>
<text text-anchor="start" x="610" y="-629.8" font-family="Helvetica,sans-Serif" font-size="11.00" fill="#000000">...</text>
<polygon fill="#ffffff" stroke="transparent" points="607,-604.7 607,-623.7 648,-623.7 648,-604.7 607,-604.7"/>
<polygon fill="none" stroke="#000000" points="607,-604.7 607,-623.7 648,-623.7 648,-604.7 607,-604.7"/>
<text text-anchor="start" x="610" y="-610.8" font-family="Helvetica,sans-Serif" font-size="11.00" fill="#000000">&lt; 2</text>
<polygon fill="#ffffff" stroke="transparent" points="648,-604.7 648,-623.7 708,-623.7 708,-604.7 648,-604.7"/>
<polygon fill="none" stroke="#000000" points="648,-604.7 648,-623.7 708,-623.7 708,-604.7 648,-604.7"/>
<text text-anchor="start" x="660.3807" y="-610.8" font-family="Helvetica,sans-Serif" font-size="11.00" fill="#000000">221 rows</text>
<polygon fill="#ffffff" stroke="transparent" points="708,-604.7 708,-623.7 730,-623.7 730,-604.7 708,-604.7"/>
<polygon fill="none" stroke="#000000" points="708,-604.7 708,-623.7 730,-623.7 730,-604.7 708,-604.7"/>
<text text-anchor="start" x="720.8862" y="-610.8" font-family="Helvetica,sans-Serif" font-size="11.00" fill="#000000"> &#160;</text>
</a>
</g>
</g>
<!-- feed&#45;&gt;supplier -->
<g id="edge4" class="edge">
<title>feed:w&#45;&gt;supplier:e</title>
<path fill="none" stroke="#000000" d="M592.3542,-654.5561C575.722,-656.6199 567.1404,-661.7 545,-661.7"/>
<polygon fill="#000000" stroke="#000000" points="599.0136,-654.1669 607.2101,-657.2939 603.0068,-653.9335 607,-653.7 607,-653.7 607,-653.7 603.0068,-653.9335 606.7899,-650.1061 599.0136,-654.1669 599.0136,-654.1669"/>
<ellipse fill="none" stroke="#000000" cx="595.8191" cy="-654.3537" rx="3.2" ry="3.2"/>
</g>
<!-- feed&#45;&gt;principal -->
<g id="edge3" class="edge">
<title>feed:w&#45;&gt;principal:e</title>
<path fill="none" stroke="#000000" d="M592.608,-678.89C579.0159,-685.9482 575.5354,-702.7339 555,-708.7 451.715,-738.7069 418.1278,-731.4234 313,-708.7 230.957,-690.9664 211.8396,-675.7254 141,-630.7 120.7798,-617.8482 123.9588,-595.7 100,-595.7"/>
<polygon fill="#000000" stroke="#000000" points="599.1896,-677.4312 607.7791,-679.2147 603.0948,-676.5656 607,-675.7 607,-675.7 607,-675.7 603.0948,-676.5656 606.2209,-672.1853 599.1896,-677.4312 599.1896,-677.4312"/>
<ellipse fill="none" stroke="#000000" cx="596.0654" cy="-678.1237" rx="3.2" ry="3.2"/>
</g>
<!-- job_request_application -->
<g id="node6" class="node">
<title>job_request_application</title>
<g id="a_node6"><a xlink:href="../../tables/job_request_application.html" xlink:title="job_request_application" target="_top">
<polygon fill="#ffffff" stroke="transparent" points="789,-466.2 789,-703.2 948,-703.2 948,-466.2 789,-466.2"/>
<polygon fill="#f5f5f5" stroke="transparent" points="789.5,-679.7 789.5,-702.7 948.5,-702.7 948.5,-679.7 789.5,-679.7"/>
<polygon fill="none" stroke="#000000" points="789.5,-679.7 789.5,-702.7 948.5,-702.7 948.5,-679.7 789.5,-679.7"/>
<text text-anchor="start" x="794.4261" y="-688.8" font-family="Helvetica,sans-Serif" font-weight="bold" font-size="11.00" fill="#000000">job_request_application</text>
<text text-anchor="start" x="914.0219" y="-687.8" font-family="Helvetica,sans-Serif" font-size="11.00" fill="#000000">[table]</text>
<polygon fill="none" stroke="#000000" points="789.5,-657.7 789.5,-679.7 948.5,-679.7 948.5,-657.7 789.5,-657.7"/>
<image xlink:href="../../images/primaryKeys.png" width="11px" height="12px" preserveAspectRatio="xMinYMin meet" x="794.5" y="-674.7"/>
<text text-anchor="start" x="809.5" y="-664.8" font-family="Helvetica,sans-Serif" font-size="11.00" fill="#000000">id</text>
<polygon fill="#ffffff" stroke="transparent" points="789.5,-635.7 789.5,-657.7 948.5,-657.7 948.5,-635.7 789.5,-635.7"/>
<polygon fill="none" stroke="#000000" points="789.5,-635.7 789.5,-657.7 948.5,-657.7 948.5,-635.7 789.5,-635.7"/>
<image xlink:href="../../images/foreignKeys.png" width="11px" height="12px" preserveAspectRatio="xMinYMin meet" x="794.5" y="-652.7"/>
<text text-anchor="start" x="809.5" y="-642.8" font-family="Helvetica,sans-Serif" font-size="11.00" fill="#000000">created_by</text>
<polygon fill="#ffffff" stroke="transparent" points="789.5,-613.7 789.5,-635.7 948.5,-635.7 948.5,-613.7 789.5,-613.7"/>
<polygon fill="none" stroke="#000000" points="789.5,-613.7 789.5,-635.7 948.5,-635.7 948.5,-613.7 789.5,-613.7"/>
<image xlink:href="../../images/foreignKeys.png" width="11px" height="12px" preserveAspectRatio="xMinYMin meet" x="794.5" y="-630.7"/>
<text text-anchor="start" x="809.5" y="-620.8" font-family="Helvetica,sans-Serif" font-size="11.00" fill="#000000">modified_by</text>
<polygon fill="#ffffff" stroke="transparent" points="789.5,-591.7 789.5,-613.7 948.5,-613.7 948.5,-591.7 789.5,-591.7"/>
<polygon fill="none" stroke="#000000" points="789.5,-591.7 789.5,-613.7 948.5,-613.7 948.5,-591.7 789.5,-591.7"/>
<image xlink:href="../../images/foreignKeys.png" width="11px" height="12px" preserveAspectRatio="xMinYMin meet" x="794.5" y="-608.7"/>
<text text-anchor="start" x="809.5" y="-598.8" font-family="Helvetica,sans-Serif" font-size="11.00" fill="#000000">job_request_id</text>
<polygon fill="#ffffff" stroke="transparent" points="789.5,-569.7 789.5,-591.7 948.5,-591.7 948.5,-569.7 789.5,-569.7"/>
<polygon fill="none" stroke="#000000" points="789.5,-569.7 789.5,-591.7 948.5,-591.7 948.5,-569.7 789.5,-569.7"/>
<image xlink:href="../../images/foreignKeys.png" width="11px" height="12px" preserveAspectRatio="xMinYMin meet" x="794.5" y="-586.7"/>
<text text-anchor="start" x="809.5" y="-576.8" font-family="Helvetica,sans-Serif" font-size="11.00" fill="#000000">supplier_id</text>
<polygon fill="#ffffff" stroke="transparent" points="789.5,-547.7 789.5,-569.7 948.5,-569.7 948.5,-547.7 789.5,-547.7"/>
<polygon fill="none" stroke="#000000" points="789.5,-547.7 789.5,-569.7 948.5,-569.7 948.5,-547.7 789.5,-547.7"/>
<text text-anchor="start" x="809.5" y="-554.8" font-family="Helvetica,sans-Serif" font-size="11.00" fill="#000000">marketplace_id</text>
<polygon fill="#ffffff" stroke="transparent" points="789.5,-525.7 789.5,-547.7 948.5,-547.7 948.5,-525.7 789.5,-525.7"/>
<polygon fill="none" stroke="#000000" points="789.5,-525.7 789.5,-547.7 948.5,-547.7 948.5,-525.7 789.5,-525.7"/>
<image xlink:href="../../images/foreignKeys.png" width="11px" height="12px" preserveAspectRatio="xMinYMin meet" x="794.5" y="-542.7"/>
<text text-anchor="start" x="809.5" y="-532.8" font-family="Helvetica,sans-Serif" font-size="11.00" fill="#000000">applicant_id</text>
<polygon fill="#ffffff" stroke="transparent" points="789.5,-503.7 789.5,-525.7 948.5,-525.7 948.5,-503.7 789.5,-503.7"/>
<polygon fill="none" stroke="#000000" points="789.5,-503.7 789.5,-525.7 948.5,-525.7 948.5,-503.7 789.5,-503.7"/>
<image xlink:href="../../images/foreignKeys.png" width="11px" height="12px" preserveAspectRatio="xMinYMin meet" x="794.5" y="-520.7"/>
<text text-anchor="start" x="809.5" y="-510.8" font-family="Helvetica,sans-Serif" font-size="11.00" fill="#000000">avatar_id</text>
<polygon fill="none" stroke="#000000" points="789.5,-484.7 789.5,-503.7 948.5,-503.7 948.5,-484.7 789.5,-484.7"/>
<text text-anchor="start" x="792.5" y="-490.8" font-family="Helvetica,sans-Serif" font-size="11.00" fill="#000000">...</text>
<polygon fill="#ffffff" stroke="transparent" points="789.5,-465.7 789.5,-484.7 846.5,-484.7 846.5,-465.7 789.5,-465.7"/>
<polygon fill="none" stroke="#000000" points="789.5,-465.7 789.5,-484.7 846.5,-484.7 846.5,-465.7 789.5,-465.7"/>
<text text-anchor="start" x="792.5" y="-471.8" font-family="Helvetica,sans-Serif" font-size="11.00" fill="#000000">&lt; 6</text>
<polygon fill="#ffffff" stroke="transparent" points="846.5,-465.7 846.5,-484.7 908.5,-484.7 908.5,-465.7 846.5,-465.7"/>
<polygon fill="none" stroke="#000000" points="846.5,-465.7 846.5,-484.7 908.5,-484.7 908.5,-465.7 846.5,-465.7"/>
<text text-anchor="start" x="866.9956" y="-471.8" font-family="Helvetica,sans-Serif" font-size="11.00" fill="#000000">75 rows</text>
<polygon fill="#ffffff" stroke="transparent" points="908.5,-465.7 908.5,-484.7 948.5,-484.7 948.5,-465.7 908.5,-465.7"/>
<polygon fill="none" stroke="#000000" points="908.5,-465.7 908.5,-484.7 948.5,-484.7 948.5,-465.7 908.5,-465.7"/>
<text text-anchor="start" x="929.9053" y="-471.8" font-family="Helvetica,sans-Serif" font-size="11.00" fill="#000000">5 &gt;</text>
</a>
</g>
</g>
<!-- job_request_application&#45;&gt;applicant -->
<g id="edge7" class="edge">
<title>job_request_application:w&#45;&gt;applicant:e</title>
<path fill="none" stroke="#000000" d="M775.1328,-534.4867C762.6354,-530.3142 756.0663,-521.7 738,-521.7"/>
<polygon fill="#000000" stroke="#000000" points="781.5933,-535.4819 788.9519,-540.258 785.5466,-536.091 789.5,-536.7 789.5,-536.7 789.5,-536.7 785.5466,-536.091 790.0481,-533.142 781.5933,-535.4819 781.5933,-535.4819"/>
<ellipse fill="none" stroke="#000000" cx="778.4306" cy="-534.9947" rx="3.2" ry="3.2"/>
</g>
<!-- job_request_application&#45;&gt;file -->
<g id="edge8" class="edge">
<title>job_request_application:w&#45;&gt;file:e</title>
<path fill="none" stroke="#000000" d="M775.0333,-513.2069C717.2723,-499.4401 794.447,-393.6928 748,-330.7 689.2758,-251.0566 650.6021,-245.2311 555,-219.7 451.0861,-191.9492 403.3199,-161.3004 313,-219.7 276.1656,-243.5166 316.3634,-309.7 272.5,-309.7"/>
<polygon fill="#000000" stroke="#000000" points="781.5423,-513.8786 789.1304,-518.281 785.5211,-514.2893 789.5,-514.7 789.5,-514.7 789.5,-514.7 785.5211,-514.2893 789.8696,-511.119 781.5423,-513.8786 781.5423,-513.8786"/>
<ellipse fill="none" stroke="#000000" cx="778.3592" cy="-513.5501" rx="3.2" ry="3.2"/>
</g>
<!-- job_request_application&#45;&gt;supplier -->
<g id="edge11" class="edge">
<title>job_request_application:w&#45;&gt;supplier:e</title>
<path fill="none" stroke="#000000" d="M774.7601,-580.4142C695.6842,-577.3516 660.8624,-551.5385 588,-594.7 557.5574,-612.7333 580.3829,-661.7 545,-661.7"/>
<polygon fill="#000000" stroke="#000000" points="781.5015,-580.5449 789.4302,-584.2993 785.5008,-580.6224 789.5,-580.7 789.5,-580.7 789.5,-580.7 785.5008,-580.6224 789.5698,-577.1007 781.5015,-580.5449 781.5015,-580.5449"/>
<ellipse fill="none" stroke="#000000" cx="778.3021" cy="-580.4828" rx="3.2" ry="3.2"/>
</g>
<!-- job_request_application&#45;&gt;principal -->
<g id="edge9" class="edge">
<title>job_request_application:w&#45;&gt;principal:e</title>
<path fill="none" stroke="#000000" d="M775.2968,-649.4456C744.7242,-664.5 789.1169,-737.4133 748,-766.7 638.1322,-844.9565 246.9182,-850.2246 141,-766.7 79.6315,-718.3063 178.154,-595.7 100,-595.7"/>
<polygon fill="#000000" stroke="#000000" points="781.6454,-648.2184 790.1833,-650.2346 785.5727,-647.4592 789.5,-646.7 789.5,-646.7 789.5,-646.7 785.5727,-647.4592 788.8167,-643.1654 781.6454,-648.2184 781.6454,-648.2184"/>
<ellipse fill="none" stroke="#000000" cx="778.5036" cy="-648.8258" rx="3.2" ry="3.2"/>
</g>
<!-- job_request_application&#45;&gt;principal -->
<g id="edge10" class="edge">
<title>job_request_application:w&#45;&gt;principal:e</title>
<path fill="none" stroke="#000000" d="M775.0998,-627.599C745.6592,-642.8403 788.4034,-714.0804 748,-742.7 715.9601,-765.3954 398.0835,-742.8926 313,-727.7 234.2542,-713.639 202.4125,-725.9555 141,-674.7 110.6297,-649.3527 139.5581,-595.7 100,-595.7"/>
<polygon fill="#000000" stroke="#000000" points="781.6573,-626.2789 790.2105,-628.2292 785.5787,-625.4894 789.5,-624.7 789.5,-624.7 789.5,-624.7 785.5787,-625.4894 788.7895,-621.1708 781.6573,-626.2789 781.6573,-626.2789"/>
<ellipse fill="none" stroke="#000000" cx="778.5203" cy="-626.9104" rx="3.2" ry="3.2"/>
</g>
<!-- supplier_settings -->
<g id="node7" class="node">
<title>supplier_settings</title>
<g id="a_node7"><a xlink:href="../../tables/supplier_settings.html" xlink:title="supplier_settings" target="_top">
<polygon fill="#ffffff" stroke="transparent" points="596,-38.2 596,-187.2 740,-187.2 740,-38.2 596,-38.2"/>
<polygon fill="#f5f5f5" stroke="transparent" points="596,-163.7 596,-186.7 740,-186.7 740,-163.7 596,-163.7"/>
<polygon fill="none" stroke="#000000" points="596,-163.7 596,-186.7 740,-186.7 740,-163.7 596,-163.7"/>
<text text-anchor="start" x="601" y="-172.8" font-family="Helvetica,sans-Serif" font-weight="bold" font-size="11.00" fill="#000000">supplier_settings</text>
<text text-anchor="start" x="705.0437" y="-171.8" font-family="Helvetica,sans-Serif" font-size="11.00" fill="#000000">[table]</text>
<polygon fill="none" stroke="#000000" points="596,-141.7 596,-163.7 740,-163.7 740,-141.7 596,-141.7"/>
<image xlink:href="../../images/primaryKeys.png" width="11px" height="12px" preserveAspectRatio="xMinYMin meet" x="601" y="-158.7"/>
<text text-anchor="start" x="616" y="-148.8" font-family="Helvetica,sans-Serif" font-size="11.00" fill="#000000">id</text>
<polygon fill="#ffffff" stroke="transparent" points="596,-119.7 596,-141.7 740,-141.7 740,-119.7 596,-119.7"/>
<polygon fill="none" stroke="#000000" points="596,-119.7 596,-141.7 740,-141.7 740,-119.7 596,-119.7"/>
<image xlink:href="../../images/foreignKeys.png" width="11px" height="12px" preserveAspectRatio="xMinYMin meet" x="601" y="-136.7"/>
<text text-anchor="start" x="616" y="-126.8" font-family="Helvetica,sans-Serif" font-size="11.00" fill="#000000">created_by</text>
<polygon fill="#ffffff" stroke="transparent" points="596,-97.7 596,-119.7 740,-119.7 740,-97.7 596,-97.7"/>
<polygon fill="none" stroke="#000000" points="596,-97.7 596,-119.7 740,-119.7 740,-97.7 596,-97.7"/>
<image xlink:href="../../images/foreignKeys.png" width="11px" height="12px" preserveAspectRatio="xMinYMin meet" x="601" y="-114.7"/>
<text text-anchor="start" x="616" y="-104.8" font-family="Helvetica,sans-Serif" font-size="11.00" fill="#000000">modified_by</text>
<polygon fill="#ffffff" stroke="transparent" points="596,-75.7 596,-97.7 740,-97.7 740,-75.7 596,-75.7"/>
<polygon fill="none" stroke="#000000" points="596,-75.7 596,-97.7 740,-97.7 740,-75.7 596,-75.7"/>
<image xlink:href="../../images/foreignKeys.png" width="11px" height="12px" preserveAspectRatio="xMinYMin meet" x="601" y="-92.7"/>
<text text-anchor="start" x="616" y="-82.8" font-family="Helvetica,sans-Serif" font-size="11.00" fill="#000000">supplier_id</text>
<polygon fill="none" stroke="#000000" points="596,-56.7 596,-75.7 740,-75.7 740,-56.7 596,-56.7"/>
<text text-anchor="start" x="599" y="-62.8" font-family="Helvetica,sans-Serif" font-size="11.00" fill="#000000">...</text>
<polygon fill="#ffffff" stroke="transparent" points="596,-37.7 596,-56.7 653,-56.7 653,-37.7 596,-37.7"/>
<polygon fill="none" stroke="#000000" points="596,-37.7 596,-56.7 653,-56.7 653,-37.7 596,-37.7"/>
<text text-anchor="start" x="599" y="-43.8" font-family="Helvetica,sans-Serif" font-size="11.00" fill="#000000">&lt; 3</text>
<polygon fill="#ffffff" stroke="transparent" points="653,-37.7 653,-56.7 709,-56.7 709,-37.7 653,-37.7"/>
<polygon fill="none" stroke="#000000" points="653,-37.7 653,-56.7 709,-56.7 709,-37.7 653,-37.7"/>
<text text-anchor="start" x="673.6105" y="-43.8" font-family="Helvetica,sans-Serif" font-size="11.00" fill="#000000">7 rows</text>
<polygon fill="#ffffff" stroke="transparent" points="709,-37.7 709,-56.7 740,-56.7 740,-37.7 709,-37.7"/>
<polygon fill="none" stroke="#000000" points="709,-37.7 709,-56.7 740,-56.7 740,-37.7 709,-37.7"/>
<text text-anchor="start" x="730.8862" y="-43.8" font-family="Helvetica,sans-Serif" font-size="11.00" fill="#000000"> &#160;</text>
</a>
</g>
</g>
<!-- supplier_settings&#45;&gt;supplier -->
<g id="edge17" class="edge">
<title>supplier_settings:w&#45;&gt;supplier:e</title>
<path fill="none" stroke="#000000" d="M586.6997,-91.6709C539.8898,-147.871 605.6321,-661.7 545,-661.7"/>
<polygon fill="#000000" stroke="#000000" points="593.4089,-83.5494 597.18,-90.6048 595.7689,-91.359 591.9978,-84.3036 593.4089,-83.5494"/>
<polyline fill="none" stroke="#000000" points="596,-86.7 592.4723,-88.5855 "/>
<ellipse fill="none" stroke="#000000" cx="589.6501" cy="-90.094" rx="3.2" ry="3.2"/>
</g>
<!-- supplier_settings&#45;&gt;principal -->
<g id="edge15" class="edge">
<title>supplier_settings:w&#45;&gt;principal:e</title>
<path fill="none" stroke="#000000" d="M581.4773,-130.714C469.0924,-130.9606 208.1739,-135.3344 141,-206.7 81.4229,-269.9947 186.9233,-595.7 100,-595.7"/>
<polygon fill="#000000" stroke="#000000" points="588,-130.7077 596.0035,-134.3 592,-130.7039 596,-130.7 596,-130.7 596,-130.7 592,-130.7039 595.9965,-127.1 588,-130.7077 588,-130.7077"/>
<ellipse fill="none" stroke="#000000" cx="584.8" cy="-130.7108" rx="3.2" ry="3.2"/>
</g>
<!-- supplier_settings&#45;&gt;principal -->
<g id="edge16" class="edge">
<title>supplier_settings:w&#45;&gt;principal:e</title>
<path fill="none" stroke="#000000" d="M581.592,-108.5252C387.8184,-103.8357 280.9787,-7.5122 141,-147.7 70.3622,-218.4433 199.9716,-595.7 100,-595.7"/>
<polygon fill="#000000" stroke="#000000" points="588.0006,-108.6029 595.9563,-112.2997 592.0003,-108.6514 596,-108.7 596,-108.7 596,-108.7 592.0003,-108.6514 596.0437,-105.1003 588.0006,-108.6029 588.0006,-108.6029"/>
<ellipse fill="none" stroke="#000000" cx="584.8008" cy="-108.564" rx="3.2" ry="3.2"/>
</g>
</g>
</svg>
