<?xml version="1.0" encoding="UTF-8" standalone="no"?>
<!DOCTYPE svg PUBLIC "-//W3C//DTD SVG 1.1//EN"
 "http://www.w3.org/Graphics/SVG/1.1/DTD/svg11.dtd">
<!-- Generated by graphviz version 2.40.1 (20161225.0304)
 -->
<!-- Title: oneDegreeRelationshipsDiagram Pages: 1 -->
<svg width="583pt" height="348pt"
 viewBox="0.00 0.00 583.00 347.70" xmlns="http://www.w3.org/2000/svg" xmlns:xlink="http://www.w3.org/1999/xlink">
<g id="graph0" class="graph" transform="scale(1 1) rotate(0) translate(4 343.7)">
<title>oneDegreeRelationshipsDiagram</title>
<polygon fill="#ffffff" stroke="transparent" points="-4,4 -4,-343.7 579,-343.7 579,4 -4,4"/>
<text text-anchor="middle" x="72.4936" y="-7.3" font-family="Helvetica,sans-Serif" font-size="11.00" fill="#000000">Generated by SchemaSpy</text>
<!-- supplier -->
<g id="node1" class="node">
<title>supplier</title>
<g id="a_node1"><a xlink:href="../../tables/supplier.html" xlink:title="supplier" target="_top">
<polygon fill="#ffffff" stroke="transparent" points="149,-38.2 149,-209.2 304,-209.2 304,-38.2 149,-38.2"/>
<polygon fill="#f5f5f5" stroke="transparent" points="149.5,-185.7 149.5,-208.7 304.5,-208.7 304.5,-185.7 149.5,-185.7"/>
<polygon fill="none" stroke="#000000" points="149.5,-185.7 149.5,-208.7 304.5,-208.7 304.5,-185.7 149.5,-185.7"/>
<text text-anchor="start" x="154.5" y="-194.8" font-family="Helvetica,sans-Serif" font-weight="bold" font-size="11.00" fill="#000000">supplier</text>
<text text-anchor="start" x="269.5437" y="-193.8" font-family="Helvetica,sans-Serif" font-size="11.00" fill="#000000">[table]</text>
<polygon fill="none" stroke="#000000" points="149.5,-163.7 149.5,-185.7 304.5,-185.7 304.5,-163.7 149.5,-163.7"/>
<image xlink:href="../../images/primaryKeys.png" width="11px" height="12px" preserveAspectRatio="xMinYMin meet" x="154.5" y="-180.7"/>
<text text-anchor="start" x="169.5" y="-170.8" font-family="Helvetica,sans-Serif" font-size="11.00" fill="#000000">id</text>
<polygon fill="#ffffff" stroke="transparent" points="149.5,-141.7 149.5,-163.7 304.5,-163.7 304.5,-141.7 149.5,-141.7"/>
<polygon fill="none" stroke="#000000" points="149.5,-141.7 149.5,-163.7 304.5,-163.7 304.5,-141.7 149.5,-141.7"/>
<image xlink:href="../../images/foreignKeys.png" width="11px" height="12px" preserveAspectRatio="xMinYMin meet" x="154.5" y="-158.7"/>
<text text-anchor="start" x="169.5" y="-148.8" font-family="Helvetica,sans-Serif" font-size="11.00" fill="#000000">created_by</text>
<polygon fill="#ffffff" stroke="transparent" points="149.5,-119.7 149.5,-141.7 304.5,-141.7 304.5,-119.7 149.5,-119.7"/>
<polygon fill="none" stroke="#000000" points="149.5,-119.7 149.5,-141.7 304.5,-141.7 304.5,-119.7 149.5,-119.7"/>
<image xlink:href="../../images/foreignKeys.png" width="11px" height="12px" preserveAspectRatio="xMinYMin meet" x="154.5" y="-136.7"/>
<text text-anchor="start" x="169.5" y="-126.8" font-family="Helvetica,sans-Serif" font-size="11.00" fill="#000000">modified_by</text>
<polygon fill="#ffffff" stroke="transparent" points="149.5,-97.7 149.5,-119.7 304.5,-119.7 304.5,-97.7 149.5,-97.7"/>
<polygon fill="none" stroke="#000000" points="149.5,-97.7 149.5,-119.7 304.5,-119.7 304.5,-97.7 149.5,-97.7"/>
<text text-anchor="start" x="169.5" y="-104.8" font-family="Helvetica,sans-Serif" font-size="11.00" fill="#000000">marketplace_id</text>
<polygon fill="#ffffff" stroke="transparent" points="149.5,-75.7 149.5,-97.7 304.5,-97.7 304.5,-75.7 149.5,-75.7"/>
<polygon fill="none" stroke="#000000" points="149.5,-75.7 149.5,-97.7 304.5,-97.7 304.5,-75.7 149.5,-75.7"/>
<image xlink:href="../../images/foreignKeys.png" width="11px" height="12px" preserveAspectRatio="xMinYMin meet" x="154.5" y="-92.7"/>
<text text-anchor="start" x="169.5" y="-82.8" font-family="Helvetica,sans-Serif" font-size="11.00" fill="#000000">logo_id</text>
<polygon fill="none" stroke="#000000" points="149.5,-56.7 149.5,-75.7 304.5,-75.7 304.5,-56.7 149.5,-56.7"/>
<text text-anchor="start" x="152.5" y="-62.8" font-family="Helvetica,sans-Serif" font-size="11.00" fill="#000000">...</text>
<polygon fill="#ffffff" stroke="transparent" points="149.5,-37.7 149.5,-56.7 201.5,-56.7 201.5,-37.7 149.5,-37.7"/>
<polygon fill="none" stroke="#000000" points="149.5,-37.7 149.5,-56.7 201.5,-56.7 201.5,-37.7 149.5,-37.7"/>
<text text-anchor="start" x="152.5" y="-43.8" font-family="Helvetica,sans-Serif" font-size="11.00" fill="#000000">&lt; 3</text>
<polygon fill="#ffffff" stroke="transparent" points="201.5,-37.7 201.5,-56.7 267.5,-56.7 267.5,-37.7 201.5,-37.7"/>
<polygon fill="none" stroke="#000000" points="201.5,-37.7 201.5,-56.7 267.5,-56.7 267.5,-37.7 201.5,-37.7"/>
<text text-anchor="start" x="219.8807" y="-43.8" font-family="Helvetica,sans-Serif" font-size="11.00" fill="#000000">201 rows</text>
<polygon fill="#ffffff" stroke="transparent" points="267.5,-37.7 267.5,-56.7 304.5,-56.7 304.5,-37.7 267.5,-37.7"/>
<polygon fill="none" stroke="#000000" points="267.5,-37.7 267.5,-56.7 304.5,-56.7 304.5,-37.7 267.5,-37.7"/>
<text text-anchor="start" x="285.9053" y="-43.8" font-family="Helvetica,sans-Serif" font-size="11.00" fill="#000000">4 &gt;</text>
</a>
</g>
</g>
<!-- principal -->
<g id="node2" class="node">
<title>principal</title>
<g id="a_node2"><a xlink:href="../../tables/principal.html" xlink:title="principal" target="_top">
<polygon fill="#ffffff" stroke="transparent" points="8,-122.2 8,-227.2 100,-227.2 100,-122.2 8,-122.2"/>
<polygon fill="#f5f5f5" stroke="transparent" points="8,-203.7 8,-226.7 100,-226.7 100,-203.7 8,-203.7"/>
<polygon fill="none" stroke="#000000" points="8,-203.7 8,-226.7 100,-226.7 100,-203.7 8,-203.7"/>
<text text-anchor="start" x="13" y="-212.8" font-family="Helvetica,sans-Serif" font-weight="bold" font-size="11.00" fill="#000000">principal</text>
<text text-anchor="start" x="65.0437" y="-211.8" font-family="Helvetica,sans-Serif" font-size="11.00" fill="#000000">[table]</text>
<polygon fill="none" stroke="#000000" points="8,-181.7 8,-203.7 100,-203.7 100,-181.7 8,-181.7"/>
<image xlink:href="../../images/primaryKeys.png" width="11px" height="12px" preserveAspectRatio="xMinYMin meet" x="13" y="-198.7"/>
<text text-anchor="start" x="32" y="-188.8" font-family="Helvetica,sans-Serif" font-size="11.00" fill="#000000">id</text>
<polygon fill="#ffffff" stroke="transparent" points="8,-159.7 8,-181.7 100,-181.7 100,-159.7 8,-159.7"/>
<polygon fill="none" stroke="#000000" points="8,-159.7 8,-181.7 100,-181.7 100,-159.7 8,-159.7"/>
<image xlink:href="../../images/foreignKeys.png" width="11px" height="12px" preserveAspectRatio="xMinYMin meet" x="13" y="-176.7"/>
<text text-anchor="start" x="32" y="-166.8" font-family="Helvetica,sans-Serif" font-size="11.00" fill="#000000">eworker_id</text>
<polygon fill="none" stroke="#000000" points="8,-140.7 8,-159.7 100,-159.7 100,-140.7 8,-140.7"/>
<text text-anchor="start" x="11" y="-146.8" font-family="Helvetica,sans-Serif" font-size="11.00" fill="#000000">...</text>
<polygon fill="#ffffff" stroke="transparent" points="8,-121.7 8,-140.7 29,-140.7 29,-121.7 8,-121.7"/>
<polygon fill="none" stroke="#000000" points="8,-121.7 8,-140.7 29,-140.7 29,-121.7 8,-121.7"/>
<text text-anchor="start" x="10.7027" y="-127.8" font-family="Helvetica,sans-Serif" font-size="11.00" fill="#000000">&lt; 1</text>
<polygon fill="#ffffff" stroke="transparent" points="29,-121.7 29,-140.7 73,-140.7 73,-121.7 29,-121.7"/>
<polygon fill="none" stroke="#000000" points="29,-121.7 29,-140.7 73,-140.7 73,-121.7 29,-121.7"/>
<text text-anchor="start" x="31.7478" y="-127.8" font-family="Helvetica,sans-Serif" font-size="11.00" fill="#000000">18 rows</text>
<polygon fill="#ffffff" stroke="transparent" points="73,-121.7 73,-140.7 100,-140.7 100,-121.7 73,-121.7"/>
<polygon fill="none" stroke="#000000" points="73,-121.7 73,-140.7 100,-140.7 100,-121.7 73,-121.7"/>
<text text-anchor="start" x="75.6452" y="-127.8" font-family="Helvetica,sans-Serif" font-size="11.00" fill="#000000">56 &gt;</text>
</a>
</g>
</g>
<!-- supplier&#45;&gt;principal -->
<g id="edge1" class="edge">
<title>supplier:w&#45;&gt;principal:e</title>
<path fill="none" stroke="#000000" d="M135.6565,-157.2885C122.6245,-167.7952 122.3187,-192.7 100,-192.7"/>
<polygon fill="#000000" stroke="#000000" points="141.9063,-155.217 150.6327,-156.1172 145.7031,-153.9585 149.5,-152.7 149.5,-152.7 149.5,-152.7 145.7031,-153.9585 148.3673,-149.2828 141.9063,-155.217 141.9063,-155.217"/>
<ellipse fill="none" stroke="#000000" cx="138.8688" cy="-156.2238" rx="3.2" ry="3.2"/>
</g>
<!-- supplier&#45;&gt;principal -->
<g id="edge2" class="edge">
<title>supplier:w&#45;&gt;principal:e</title>
<path fill="none" stroke="#000000" d="M135.7351,-135.565C119.8028,-150.181 129.2002,-192.7 100,-192.7"/>
<polygon fill="#000000" stroke="#000000" points="141.9573,-133.3659 150.6997,-134.0942 145.7286,-132.033 149.5,-130.7 149.5,-130.7 149.5,-130.7 145.7286,-132.033 148.3003,-127.3058 141.9573,-133.3659 141.9573,-133.3659"/>
<ellipse fill="none" stroke="#000000" cx="138.9402" cy="-134.4323" rx="3.2" ry="3.2"/>
</g>
<!-- supplier_settings -->
<g id="node3" class="node">
<title>supplier_settings</title>
<g id="a_node3"><a xlink:href="../../tables/supplier_settings.html" xlink:title="supplier_settings" target="_top">
<polygon fill="#ffffff" stroke="transparent" points="353,-113.7 353,-335.7 567,-335.7 567,-113.7 353,-113.7"/>
<polygon fill="#f5f5f5" stroke="transparent" points="355,-310.7 355,-333.7 565,-333.7 565,-310.7 355,-310.7"/>
<polygon fill="none" stroke="#000000" points="355,-310.7 355,-333.7 565,-333.7 565,-310.7 355,-310.7"/>
<text text-anchor="start" x="360" y="-319.8" font-family="Helvetica,sans-Serif" font-weight="bold" font-size="11.00" fill="#000000">supplier_settings</text>
<text text-anchor="start" x="530.0437" y="-318.8" font-family="Helvetica,sans-Serif" font-size="11.00" fill="#000000">[table]</text>
<polygon fill="none" stroke="#000000" points="355,-288.7 355,-310.7 499,-310.7 499,-288.7 355,-288.7"/>
<image xlink:href="../../images/primaryKeys.png" width="11px" height="12px" preserveAspectRatio="xMinYMin meet" x="360" y="-305.7"/>
<text text-anchor="start" x="375" y="-295.8" font-family="Helvetica,sans-Serif" font-size="11.00" fill="#000000">id</text>
<polygon fill="none" stroke="#000000" points="499,-288.7 499,-310.7 565,-310.7 565,-288.7 499,-288.7"/>
<text text-anchor="start" x="502" y="-296.4" font-family="Helvetica,sans-Serif" font-size="11.00" fill="#000000">bigint[19]</text>
<polygon fill="#ffffff" stroke="transparent" points="355,-266.7 355,-288.7 499,-288.7 499,-266.7 355,-266.7"/>
<polygon fill="none" stroke="#000000" points="355,-266.7 355,-288.7 499,-288.7 499,-266.7 355,-266.7"/>
<image xlink:href="../../images/foreignKeys.png" width="11px" height="12px" preserveAspectRatio="xMinYMin meet" x="360" y="-283.7"/>
<text text-anchor="start" x="375" y="-273.8" font-family="Helvetica,sans-Serif" font-size="11.00" fill="#000000">created_by</text>
<polygon fill="none" stroke="#000000" points="499,-266.7 499,-288.7 565,-288.7 565,-266.7 499,-266.7"/>
<text text-anchor="start" x="502" y="-274.4" font-family="Helvetica,sans-Serif" font-size="11.00" fill="#000000">bigint[19]</text>
<polygon fill="none" stroke="#000000" points="355,-244.7 355,-266.7 499,-266.7 499,-244.7 355,-244.7"/>
<text text-anchor="start" x="375" y="-251.8" font-family="Helvetica,sans-Serif" font-size="11.00" fill="#000000">creation_date</text>
<polygon fill="none" stroke="#000000" points="499,-244.7 499,-266.7 565,-266.7 565,-244.7 499,-244.7"/>
<text text-anchor="start" x="501.7401" y="-252.4" font-family="Helvetica,sans-Serif" font-size="11.00" fill="#000000">datetime[26]</text>
<polygon fill="#ffffff" stroke="transparent" points="355,-222.7 355,-244.7 499,-244.7 499,-222.7 355,-222.7"/>
<polygon fill="none" stroke="#000000" points="355,-222.7 355,-244.7 499,-244.7 499,-222.7 355,-222.7"/>
<image xlink:href="../../images/foreignKeys.png" width="11px" height="12px" preserveAspectRatio="xMinYMin meet" x="360" y="-239.7"/>
<text text-anchor="start" x="375" y="-229.8" font-family="Helvetica,sans-Serif" font-size="11.00" fill="#000000">modified_by</text>
<polygon fill="none" stroke="#000000" points="499,-222.7 499,-244.7 565,-244.7 565,-222.7 499,-222.7"/>
<text text-anchor="start" x="502" y="-230.4" font-family="Helvetica,sans-Serif" font-size="11.00" fill="#000000">bigint[19]</text>
<polygon fill="none" stroke="#000000" points="355,-200.7 355,-222.7 499,-222.7 499,-200.7 355,-200.7"/>
<text text-anchor="start" x="375" y="-207.8" font-family="Helvetica,sans-Serif" font-size="11.00" fill="#000000">modification_date</text>
<polygon fill="none" stroke="#000000" points="499,-200.7 499,-222.7 565,-222.7 565,-200.7 499,-200.7"/>
<text text-anchor="start" x="501.7401" y="-208.4" font-family="Helvetica,sans-Serif" font-size="11.00" fill="#000000">datetime[26]</text>
<polygon fill="none" stroke="#000000" points="355,-178.7 355,-200.7 499,-200.7 499,-178.7 355,-178.7"/>
<text text-anchor="start" x="375" y="-185.8" font-family="Helvetica,sans-Serif" font-size="11.00" fill="#000000">pay_express_allowed</text>
<polygon fill="none" stroke="#000000" points="499,-178.7 499,-200.7 565,-200.7 565,-178.7 499,-178.7"/>
<text text-anchor="start" x="502" y="-186.4" font-family="Helvetica,sans-Serif" font-size="11.00" fill="#000000">bit[1]</text>
<polygon fill="none" stroke="#000000" points="355,-156.7 355,-178.7 499,-178.7 499,-156.7 355,-156.7"/>
<text text-anchor="start" x="375" y="-163.8" font-family="Helvetica,sans-Serif" font-size="11.00" fill="#000000">self_billing_allowed</text>
<polygon fill="none" stroke="#000000" points="499,-156.7 499,-178.7 565,-178.7 565,-156.7 499,-156.7"/>
<text text-anchor="start" x="502" y="-164.4" font-family="Helvetica,sans-Serif" font-size="11.00" fill="#000000">bit[1]</text>
<polygon fill="#ffffff" stroke="transparent" points="355,-134.7 355,-156.7 499,-156.7 499,-134.7 355,-134.7"/>
<polygon fill="none" stroke="#000000" points="355,-134.7 355,-156.7 499,-156.7 499,-134.7 355,-134.7"/>
<image xlink:href="../../images/foreignKeys.png" width="11px" height="12px" preserveAspectRatio="xMinYMin meet" x="360" y="-151.7"/>
<text text-anchor="start" x="375" y="-141.8" font-family="Helvetica,sans-Serif" font-size="11.00" fill="#000000">supplier_id</text>
<polygon fill="none" stroke="#000000" points="499,-134.7 499,-156.7 565,-156.7 565,-134.7 499,-134.7"/>
<text text-anchor="start" x="502" y="-142.4" font-family="Helvetica,sans-Serif" font-size="11.00" fill="#000000">bigint[19]</text>
<polygon fill="#ffffff" stroke="transparent" points="355,-115.7 355,-134.7 418,-134.7 418,-115.7 355,-115.7"/>
<polygon fill="none" stroke="#000000" points="355,-115.7 355,-134.7 418,-134.7 418,-115.7 355,-115.7"/>
<text text-anchor="start" x="358" y="-121.8" font-family="Helvetica,sans-Serif" font-size="11.00" fill="#000000">&lt; 3</text>
<polygon fill="#ffffff" stroke="transparent" points="418,-115.7 418,-134.7 499,-134.7 499,-115.7 418,-115.7"/>
<polygon fill="none" stroke="#000000" points="418,-115.7 418,-134.7 499,-134.7 499,-115.7 418,-115.7"/>
<text text-anchor="start" x="463.6105" y="-121.8" font-family="Helvetica,sans-Serif" font-size="11.00" fill="#000000">7 rows</text>
<polygon fill="#ffffff" stroke="transparent" points="499,-115.7 499,-134.7 565,-134.7 565,-115.7 499,-115.7"/>
<polygon fill="none" stroke="#000000" points="499,-115.7 499,-134.7 565,-134.7 565,-115.7 499,-115.7"/>
<text text-anchor="start" x="546.4053" y="-121.8" font-family="Helvetica,sans-Serif" font-size="11.00" fill="#000000">0 &gt;</text>
<polygon fill="none" stroke="#000000" stroke-width="2" points="354,-114.7 354,-334.7 566,-334.7 566,-114.7 354,-114.7"/>
</a>
</g>
</g>
<!-- supplier_settings&#45;&gt;supplier -->
<g id="edge5" class="edge">
<title>supplier_settings:w&#45;&gt;supplier:e</title>
<path fill="none" stroke="#000000" d="M344.6489,-147.6028C328.8503,-154.0545 326.3379,-174.7 304.5,-174.7"/>
<polygon fill="#000000" stroke="#000000" points="353.49,-141.9106 354.9364,-149.7787 353.3628,-150.068 351.9163,-142.1998 353.49,-141.9106"/>
<polyline fill="none" stroke="#000000" points="355,-145.7 351.0659,-146.4232 "/>
<ellipse fill="none" stroke="#000000" cx="347.9186" cy="-147.0018" rx="3.2" ry="3.2"/>
</g>
<!-- supplier_settings&#45;&gt;principal -->
<g id="edge3" class="edge">
<title>supplier_settings:w&#45;&gt;principal:e</title>
<path fill="none" stroke="#000000" d="M340.5287,-277.8044C255.0049,-279.0145 219.9928,-289.5192 141,-243.7 115.8427,-229.1077 129.0831,-192.7 100,-192.7"/>
<polygon fill="#000000" stroke="#000000" points="347.0002,-277.7578 355.026,-281.2999 351.0001,-277.7289 355,-277.7 355,-277.7 355,-277.7 351.0001,-277.7289 354.974,-274.1001 347.0002,-277.7578 347.0002,-277.7578"/>
<ellipse fill="none" stroke="#000000" cx="343.8003" cy="-277.7809" rx="3.2" ry="3.2"/>
</g>
<!-- supplier_settings&#45;&gt;principal -->
<g id="edge4" class="edge">
<title>supplier_settings:w&#45;&gt;principal:e</title>
<path fill="none" stroke="#000000" d="M340.4609,-233.827C256.5256,-235.2925 226.5949,-248.4305 141,-219.7 120.3156,-212.7571 121.8186,-192.7 100,-192.7"/>
<polygon fill="#000000" stroke="#000000" points="347.0003,-233.7699 355.0315,-237.2999 351.0002,-233.735 355,-233.7 355,-233.7 355,-233.7 351.0002,-233.735 354.9685,-230.1001 347.0003,-233.7699 347.0003,-233.7699"/>
<ellipse fill="none" stroke="#000000" cx="343.8004" cy="-233.7979" rx="3.2" ry="3.2"/>
</g>
</g>
</svg>
