<?xml version="1.0" encoding="UTF-8" standalone="no"?>
<!DOCTYPE svg PUBLIC "-//W3C//DTD SVG 1.1//EN"
 "http://www.w3.org/Graphics/SVG/1.1/DTD/svg11.dtd">
<!-- Generated by graphviz version 2.40.1 (20161225.0304)
 -->
<!-- Title: oneDegreeRelationshipsDiagram Pages: 1 -->
<svg width="622pt" height="316pt"
 viewBox="0.00 0.00 622.00 316.20" xmlns="http://www.w3.org/2000/svg" xmlns:xlink="http://www.w3.org/1999/xlink">
<g id="graph0" class="graph" transform="scale(1 1) rotate(0) translate(4 312.2)">
<title>oneDegreeRelationshipsDiagram</title>
<polygon fill="#ffffff" stroke="transparent" points="-4,4 -4,-312.2 618,-312.2 618,4 -4,4"/>
<text text-anchor="middle" x="72.4936" y="-7.3" font-family="Helvetica,sans-Serif" font-size="11.00" fill="#000000">Generated by SchemaSpy</text>
<!-- time_report_schedule -->
<g id="node1" class="node">
<title>time_report_schedule</title>
<g id="a_node1"><a xlink:href="../../tables/time_report_schedule.html" xlink:title="time_report_schedule" target="_top">
<polygon fill="#ffffff" stroke="transparent" points="149,-65.7 149,-192.7 297,-192.7 297,-65.7 149,-65.7"/>
<polygon fill="#f5f5f5" stroke="transparent" points="149,-169.2 149,-192.2 297,-192.2 297,-169.2 149,-169.2"/>
<polygon fill="none" stroke="#000000" points="149,-169.2 149,-192.2 297,-192.2 297,-169.2 149,-169.2"/>
<text text-anchor="start" x="153.6274" y="-178.3" font-family="Helvetica,sans-Serif" font-weight="bold" font-size="11.00" fill="#000000">time_report_schedule</text>
<text text-anchor="start" x="262.5219" y="-177.3" font-family="Helvetica,sans-Serif" font-size="11.00" fill="#000000">[table]</text>
<polygon fill="none" stroke="#000000" points="149,-147.2 149,-169.2 297,-169.2 297,-147.2 149,-147.2"/>
<image xlink:href="../../images/primaryKeys.png" width="11px" height="12px" preserveAspectRatio="xMinYMin meet" x="154" y="-164.2"/>
<text text-anchor="start" x="171" y="-154.3" font-family="Helvetica,sans-Serif" font-size="11.00" fill="#000000">id</text>
<polygon fill="#ffffff" stroke="transparent" points="149,-125.2 149,-147.2 297,-147.2 297,-125.2 149,-125.2"/>
<polygon fill="none" stroke="#000000" points="149,-125.2 149,-147.2 297,-147.2 297,-125.2 149,-125.2"/>
<image xlink:href="../../images/foreignKeys.png" width="11px" height="12px" preserveAspectRatio="xMinYMin meet" x="154" y="-142.2"/>
<text text-anchor="start" x="171" y="-132.3" font-family="Helvetica,sans-Serif" font-size="11.00" fill="#000000">created_by</text>
<polygon fill="#ffffff" stroke="transparent" points="149,-103.2 149,-125.2 297,-125.2 297,-103.2 149,-103.2"/>
<polygon fill="none" stroke="#000000" points="149,-103.2 149,-125.2 297,-125.2 297,-103.2 149,-103.2"/>
<image xlink:href="../../images/foreignKeys.png" width="11px" height="12px" preserveAspectRatio="xMinYMin meet" x="154" y="-120.2"/>
<text text-anchor="start" x="171" y="-110.3" font-family="Helvetica,sans-Serif" font-size="11.00" fill="#000000">modified_by</text>
<polygon fill="none" stroke="#000000" points="149,-84.2 149,-103.2 297,-103.2 297,-84.2 149,-84.2"/>
<text text-anchor="start" x="152" y="-90.3" font-family="Helvetica,sans-Serif" font-size="11.00" fill="#000000">...</text>
<polygon fill="#ffffff" stroke="transparent" points="149,-65.2 149,-84.2 204,-84.2 204,-65.2 149,-65.2"/>
<polygon fill="none" stroke="#000000" points="149,-65.2 149,-84.2 204,-84.2 204,-65.2 149,-65.2"/>
<text text-anchor="start" x="152" y="-71.3" font-family="Helvetica,sans-Serif" font-size="11.00" fill="#000000">&lt; 2</text>
<polygon fill="#ffffff" stroke="transparent" points="204,-65.2 204,-84.2 259,-84.2 259,-65.2 204,-65.2"/>
<polygon fill="none" stroke="#000000" points="204,-65.2 204,-84.2 259,-84.2 259,-65.2 204,-65.2"/>
<text text-anchor="start" x="223.6105" y="-71.3" font-family="Helvetica,sans-Serif" font-size="11.00" fill="#000000">0 rows</text>
<polygon fill="#ffffff" stroke="transparent" points="259,-65.2 259,-84.2 297,-84.2 297,-65.2 259,-65.2"/>
<polygon fill="none" stroke="#000000" points="259,-65.2 259,-84.2 297,-84.2 297,-65.2 259,-65.2"/>
<text text-anchor="start" x="278.4053" y="-71.3" font-family="Helvetica,sans-Serif" font-size="11.00" fill="#000000">2 &gt;</text>
</a>
</g>
</g>
<!-- principal -->
<g id="node2" class="node">
<title>principal</title>
<g id="a_node2"><a xlink:href="../../tables/principal.html" xlink:title="principal" target="_top">
<polygon fill="#ffffff" stroke="transparent" points="8,-105.7 8,-210.7 100,-210.7 100,-105.7 8,-105.7"/>
<polygon fill="#f5f5f5" stroke="transparent" points="8,-187.2 8,-210.2 100,-210.2 100,-187.2 8,-187.2"/>
<polygon fill="none" stroke="#000000" points="8,-187.2 8,-210.2 100,-210.2 100,-187.2 8,-187.2"/>
<text text-anchor="start" x="13" y="-196.3" font-family="Helvetica,sans-Serif" font-weight="bold" font-size="11.00" fill="#000000">principal</text>
<text text-anchor="start" x="65.0437" y="-195.3" font-family="Helvetica,sans-Serif" font-size="11.00" fill="#000000">[table]</text>
<polygon fill="none" stroke="#000000" points="8,-165.2 8,-187.2 100,-187.2 100,-165.2 8,-165.2"/>
<image xlink:href="../../images/primaryKeys.png" width="11px" height="12px" preserveAspectRatio="xMinYMin meet" x="13" y="-182.2"/>
<text text-anchor="start" x="32" y="-172.3" font-family="Helvetica,sans-Serif" font-size="11.00" fill="#000000">id</text>
<polygon fill="#ffffff" stroke="transparent" points="8,-143.2 8,-165.2 100,-165.2 100,-143.2 8,-143.2"/>
<polygon fill="none" stroke="#000000" points="8,-143.2 8,-165.2 100,-165.2 100,-143.2 8,-143.2"/>
<image xlink:href="../../images/foreignKeys.png" width="11px" height="12px" preserveAspectRatio="xMinYMin meet" x="13" y="-160.2"/>
<text text-anchor="start" x="32" y="-150.3" font-family="Helvetica,sans-Serif" font-size="11.00" fill="#000000">eworker_id</text>
<polygon fill="none" stroke="#000000" points="8,-124.2 8,-143.2 100,-143.2 100,-124.2 8,-124.2"/>
<text text-anchor="start" x="11" y="-130.3" font-family="Helvetica,sans-Serif" font-size="11.00" fill="#000000">...</text>
<polygon fill="#ffffff" stroke="transparent" points="8,-105.2 8,-124.2 29,-124.2 29,-105.2 8,-105.2"/>
<polygon fill="none" stroke="#000000" points="8,-105.2 8,-124.2 29,-124.2 29,-105.2 8,-105.2"/>
<text text-anchor="start" x="10.7027" y="-111.3" font-family="Helvetica,sans-Serif" font-size="11.00" fill="#000000">&lt; 1</text>
<polygon fill="#ffffff" stroke="transparent" points="29,-105.2 29,-124.2 73,-124.2 73,-105.2 29,-105.2"/>
<polygon fill="none" stroke="#000000" points="29,-105.2 29,-124.2 73,-124.2 73,-105.2 29,-105.2"/>
<text text-anchor="start" x="31.7478" y="-111.3" font-family="Helvetica,sans-Serif" font-size="11.00" fill="#000000">18 rows</text>
<polygon fill="#ffffff" stroke="transparent" points="73,-105.2 73,-124.2 100,-124.2 100,-105.2 73,-105.2"/>
<polygon fill="none" stroke="#000000" points="73,-105.2 73,-124.2 100,-124.2 100,-105.2 73,-105.2"/>
<text text-anchor="start" x="75.6452" y="-111.3" font-family="Helvetica,sans-Serif" font-size="11.00" fill="#000000">56 &gt;</text>
</a>
</g>
</g>
<!-- time_report_schedule&#45;&gt;principal -->
<g id="edge1" class="edge">
<title>time_report_schedule:w&#45;&gt;principal:e</title>
<path fill="none" stroke="#000000" d="M135.2637,-140.7885C122.3632,-151.2952 122.1826,-176.2 100,-176.2"/>
<polygon fill="#000000" stroke="#000000" points="141.4121,-138.7347 150.1406,-139.6145 145.2061,-137.4673 149,-136.2 149,-136.2 149,-136.2 145.2061,-137.4673 147.8594,-132.7855 141.4121,-138.7347 141.4121,-138.7347"/>
<ellipse fill="none" stroke="#000000" cx="138.377" cy="-139.7486" rx="3.2" ry="3.2"/>
</g>
<!-- time_report_schedule&#45;&gt;principal -->
<g id="edge2" class="edge">
<title>time_report_schedule:w&#45;&gt;principal:e</title>
<path fill="none" stroke="#000000" d="M135.3131,-119.065C119.5154,-133.681 129.0857,-176.2 100,-176.2"/>
<polygon fill="#000000" stroke="#000000" points="141.462,-116.8794 150.2057,-117.5921 145.231,-115.5397 149,-114.2 149,-114.2 149,-114.2 145.231,-115.5397 147.7943,-110.8079 141.462,-116.8794 141.462,-116.8794"/>
<ellipse fill="none" stroke="#000000" cx="138.4468" cy="-117.9512" rx="3.2" ry="3.2"/>
</g>
<!-- time_report_schedule_period -->
<g id="node3" class="node">
<title>time_report_schedule_period</title>
<g id="a_node3"><a xlink:href="../../tables/time_report_schedule_period.html" xlink:title="time_report_schedule_period" target="_top">
<polygon fill="#ffffff" stroke="transparent" points="346,-38.2 346,-304.2 606,-304.2 606,-38.2 346,-38.2"/>
<polygon fill="#f5f5f5" stroke="transparent" points="348,-279.2 348,-302.2 604,-302.2 604,-279.2 348,-279.2"/>
<polygon fill="none" stroke="#000000" points="348,-279.2 348,-302.2 604,-302.2 604,-279.2 348,-279.2"/>
<text text-anchor="start" x="353" y="-288.3" font-family="Helvetica,sans-Serif" font-weight="bold" font-size="11.00" fill="#000000">time_report_schedule_period</text>
<text text-anchor="start" x="569.0437" y="-287.3" font-family="Helvetica,sans-Serif" font-size="11.00" fill="#000000">[table]</text>
<polygon fill="none" stroke="#000000" points="348,-257.2 348,-279.2 537,-279.2 537,-257.2 348,-257.2"/>
<image xlink:href="../../images/primaryKeys.png" width="11px" height="12px" preserveAspectRatio="xMinYMin meet" x="353" y="-274.2"/>
<text text-anchor="start" x="368" y="-264.3" font-family="Helvetica,sans-Serif" font-size="11.00" fill="#000000">id</text>
<polygon fill="none" stroke="#000000" points="537,-257.2 537,-279.2 604,-279.2 604,-257.2 537,-257.2"/>
<text text-anchor="start" x="540" y="-264.9" font-family="Helvetica,sans-Serif" font-size="11.00" fill="#000000">bigint[19]</text>
<polygon fill="#ffffff" stroke="transparent" points="348,-235.2 348,-257.2 537,-257.2 537,-235.2 348,-235.2"/>
<polygon fill="none" stroke="#000000" points="348,-235.2 348,-257.2 537,-257.2 537,-235.2 348,-235.2"/>
<image xlink:href="../../images/foreignKeys.png" width="11px" height="12px" preserveAspectRatio="xMinYMin meet" x="353" y="-252.2"/>
<text text-anchor="start" x="368" y="-242.3" font-family="Helvetica,sans-Serif" font-size="11.00" fill="#000000">created_by</text>
<polygon fill="none" stroke="#000000" points="537,-235.2 537,-257.2 604,-257.2 604,-235.2 537,-235.2"/>
<text text-anchor="start" x="540" y="-242.9" font-family="Helvetica,sans-Serif" font-size="11.00" fill="#000000">bigint[19]</text>
<polygon fill="none" stroke="#000000" points="348,-213.2 348,-235.2 537,-235.2 537,-213.2 348,-213.2"/>
<text text-anchor="start" x="368" y="-220.3" font-family="Helvetica,sans-Serif" font-size="11.00" fill="#000000">creation_date</text>
<polygon fill="none" stroke="#000000" points="537,-213.2 537,-235.2 604,-235.2 604,-213.2 537,-213.2"/>
<text text-anchor="start" x="540" y="-220.9" font-family="Helvetica,sans-Serif" font-size="11.00" fill="#000000">datetime[26]</text>
<polygon fill="#ffffff" stroke="transparent" points="348,-191.2 348,-213.2 537,-213.2 537,-191.2 348,-191.2"/>
<polygon fill="none" stroke="#000000" points="348,-191.2 348,-213.2 537,-213.2 537,-191.2 348,-191.2"/>
<image xlink:href="../../images/foreignKeys.png" width="11px" height="12px" preserveAspectRatio="xMinYMin meet" x="353" y="-208.2"/>
<text text-anchor="start" x="368" y="-198.3" font-family="Helvetica,sans-Serif" font-size="11.00" fill="#000000">modified_by</text>
<polygon fill="none" stroke="#000000" points="537,-191.2 537,-213.2 604,-213.2 604,-191.2 537,-191.2"/>
<text text-anchor="start" x="540" y="-198.9" font-family="Helvetica,sans-Serif" font-size="11.00" fill="#000000">bigint[19]</text>
<polygon fill="none" stroke="#000000" points="348,-169.2 348,-191.2 537,-191.2 537,-169.2 348,-169.2"/>
<text text-anchor="start" x="368" y="-176.3" font-family="Helvetica,sans-Serif" font-size="11.00" fill="#000000">modification_date</text>
<polygon fill="none" stroke="#000000" points="537,-169.2 537,-191.2 604,-191.2 604,-169.2 537,-169.2"/>
<text text-anchor="start" x="540" y="-176.9" font-family="Helvetica,sans-Serif" font-size="11.00" fill="#000000">datetime[26]</text>
<polygon fill="#ffffff" stroke="transparent" points="348,-147.2 348,-169.2 537,-169.2 537,-147.2 348,-147.2"/>
<polygon fill="none" stroke="#000000" points="348,-147.2 348,-169.2 537,-169.2 537,-147.2 348,-147.2"/>
<image xlink:href="../../images/foreignKeys.png" width="11px" height="12px" preserveAspectRatio="xMinYMin meet" x="353" y="-164.2"/>
<text text-anchor="start" x="368" y="-154.3" font-family="Helvetica,sans-Serif" font-size="11.00" fill="#000000">time_report_schedule_id</text>
<polygon fill="none" stroke="#000000" points="537,-147.2 537,-169.2 604,-169.2 604,-147.2 537,-147.2"/>
<text text-anchor="start" x="540" y="-154.9" font-family="Helvetica,sans-Serif" font-size="11.00" fill="#000000">bigint[19]</text>
<polygon fill="none" stroke="#000000" points="348,-125.2 348,-147.2 537,-147.2 537,-125.2 348,-125.2"/>
<text text-anchor="start" x="368" y="-132.3" font-family="Helvetica,sans-Serif" font-size="11.00" fill="#000000">start_date</text>
<polygon fill="none" stroke="#000000" points="537,-125.2 537,-147.2 604,-147.2 604,-125.2 537,-125.2"/>
<text text-anchor="start" x="540" y="-132.9" font-family="Helvetica,sans-Serif" font-size="11.00" fill="#000000">datetime[26]</text>
<polygon fill="none" stroke="#000000" points="348,-103.2 348,-125.2 537,-125.2 537,-103.2 348,-103.2"/>
<text text-anchor="start" x="368" y="-110.3" font-family="Helvetica,sans-Serif" font-size="11.00" fill="#000000">end_date</text>
<polygon fill="none" stroke="#000000" points="537,-103.2 537,-125.2 604,-125.2 604,-103.2 537,-103.2"/>
<text text-anchor="start" x="540" y="-110.9" font-family="Helvetica,sans-Serif" font-size="11.00" fill="#000000">datetime[26]</text>
<polygon fill="none" stroke="#000000" points="348,-81.2 348,-103.2 537,-103.2 537,-81.2 348,-81.2"/>
<text text-anchor="start" x="368" y="-88.3" font-family="Helvetica,sans-Serif" font-size="11.00" fill="#000000">period</text>
<polygon fill="none" stroke="#000000" points="537,-81.2 537,-103.2 604,-103.2 604,-81.2 537,-81.2"/>
<text text-anchor="start" x="540" y="-88.9" font-family="Helvetica,sans-Serif" font-size="11.00" fill="#000000">datetime[26]</text>
<polygon fill="none" stroke="#000000" points="348,-59.2 348,-81.2 537,-81.2 537,-59.2 348,-59.2"/>
<text text-anchor="start" x="368" y="-66.3" font-family="Helvetica,sans-Serif" font-size="11.00" fill="#000000">name</text>
<polygon fill="none" stroke="#000000" points="537,-59.2 537,-81.2 604,-81.2 604,-59.2 537,-59.2"/>
<text text-anchor="start" x="539.9365" y="-66.9" font-family="Helvetica,sans-Serif" font-size="11.00" fill="#000000">varchar[100]</text>
<polygon fill="#ffffff" stroke="transparent" points="348,-40.2 348,-59.2 434,-59.2 434,-40.2 348,-40.2"/>
<polygon fill="none" stroke="#000000" points="348,-40.2 348,-59.2 434,-59.2 434,-40.2 348,-40.2"/>
<text text-anchor="start" x="351" y="-46.3" font-family="Helvetica,sans-Serif" font-size="11.00" fill="#000000">&lt; 3</text>
<polygon fill="#ffffff" stroke="transparent" points="434,-40.2 434,-59.2 537,-59.2 537,-40.2 434,-40.2"/>
<polygon fill="none" stroke="#000000" points="434,-40.2 434,-59.2 537,-59.2 537,-40.2 434,-40.2"/>
<text text-anchor="start" x="501.6105" y="-46.3" font-family="Helvetica,sans-Serif" font-size="11.00" fill="#000000">0 rows</text>
<polygon fill="#ffffff" stroke="transparent" points="537,-40.2 537,-59.2 604,-59.2 604,-40.2 537,-40.2"/>
<polygon fill="none" stroke="#000000" points="537,-40.2 537,-59.2 604,-59.2 604,-40.2 537,-40.2"/>
<text text-anchor="start" x="585.4053" y="-46.3" font-family="Helvetica,sans-Serif" font-size="11.00" fill="#000000">0 &gt;</text>
<polygon fill="none" stroke="#000000" stroke-width="2" points="347,-39.2 347,-303.2 605,-303.2 605,-39.2 347,-39.2"/>
</a>
</g>
</g>
<!-- time_report_schedule_period&#45;&gt;time_report_schedule -->
<g id="edge5" class="edge">
<title>time_report_schedule_period:w&#45;&gt;time_report_schedule:e</title>
<path fill="none" stroke="#000000" d="M333.276,-158.2C321.2815,-158.2 313.8229,-158.2 297,-158.2"/>
<polygon fill="#000000" stroke="#000000" points="340,-158.2001 348,-161.8 344,-158.2 348,-158.2 348,-158.2 348,-158.2 344,-158.2 348,-154.6 340,-158.2001 340,-158.2001"/>
<ellipse fill="none" stroke="#000000" cx="336.8" cy="-158.2001" rx="3.2" ry="3.2"/>
</g>
<!-- time_report_schedule_period&#45;&gt;principal -->
<g id="edge3" class="edge">
<title>time_report_schedule_period:w&#45;&gt;principal:e</title>
<path fill="none" stroke="#000000" d="M333.3562,-246.4063C251.8367,-248.6961 217.9508,-268.502 141,-227.2 115.3747,-213.4461 129.0831,-176.2 100,-176.2"/>
<polygon fill="#000000" stroke="#000000" points="340.0008,-246.3128 348.0507,-249.7996 344.0004,-246.2564 348,-246.2 348,-246.2 348,-246.2 344.0004,-246.2564 347.9493,-242.6004 340.0008,-246.3128 340.0008,-246.3128"/>
<ellipse fill="none" stroke="#000000" cx="336.8011" cy="-246.3579" rx="3.2" ry="3.2"/>
</g>
<!-- time_report_schedule_period&#45;&gt;principal -->
<g id="edge4" class="edge">
<title>time_report_schedule_period:w&#45;&gt;principal:e</title>
<path fill="none" stroke="#000000" d="M333.4698,-202.4327C252.8768,-205.0372 224.3089,-228.1672 141,-203.2 120.0999,-196.9363 121.8186,-176.2 100,-176.2"/>
<polygon fill="#000000" stroke="#000000" points="340.001,-202.3281 348.0577,-205.7995 344.0005,-202.2641 348,-202.2 348,-202.2 348,-202.2 344.0005,-202.2641 347.9423,-198.6005 340.001,-202.3281 340.001,-202.3281"/>
<ellipse fill="none" stroke="#000000" cx="336.8014" cy="-202.3794" rx="3.2" ry="3.2"/>
</g>
</g>
</svg>
