<?xml version="1.0" encoding="UTF-8" standalone="no"?>
<!DOCTYPE svg PUBLIC "-//W3C//DTD SVG 1.1//EN"
 "http://www.w3.org/Graphics/SVG/1.1/DTD/svg11.dtd">
<!-- Generated by graphviz version 2.40.1 (20161225.0304)
 -->
<!-- Title: oneDegreeRelationshipsDiagram Pages: 1 -->
<svg width="615pt" height="707pt"
 viewBox="0.00 0.00 615.00 706.70" xmlns="http://www.w3.org/2000/svg" xmlns:xlink="http://www.w3.org/1999/xlink">
<g id="graph0" class="graph" transform="scale(1 1) rotate(0) translate(4 702.7)">
<title>oneDegreeRelationshipsDiagram</title>
<polygon fill="#ffffff" stroke="transparent" points="-4,4 -4,-702.7 611,-702.7 611,4 -4,4"/>
<text text-anchor="middle" x="72.4936" y="-7.3" font-family="Helvetica,sans-Serif" font-size="11.00" fill="#000000">Generated by SchemaSpy</text>
<!-- time_and_expense_settings -->
<g id="node1" class="node">
<title>time_and_expense_settings</title>
<g id="a_node1"><a xlink:href="../../tables/time_and_expense_settings.html" xlink:title="time_and_expense_settings" target="_top">
<polygon fill="#ffffff" stroke="transparent" points="220,-98.7 220,-694.7 599,-694.7 599,-98.7 220,-98.7"/>
<polygon fill="#f5f5f5" stroke="transparent" points="222.5,-669.7 222.5,-692.7 597.5,-692.7 597.5,-669.7 222.5,-669.7"/>
<polygon fill="none" stroke="#000000" points="222.5,-669.7 222.5,-692.7 597.5,-692.7 597.5,-669.7 222.5,-669.7"/>
<text text-anchor="start" x="227.5" y="-678.8" font-family="Helvetica,sans-Serif" font-weight="bold" font-size="11.00" fill="#000000">time_and_expense_settings</text>
<text text-anchor="start" x="562.5437" y="-677.8" font-family="Helvetica,sans-Serif" font-size="11.00" fill="#000000">[table]</text>
<polygon fill="none" stroke="#000000" points="222.5,-647.7 222.5,-669.7 531.5,-669.7 531.5,-647.7 222.5,-647.7"/>
<image xlink:href="../../images/primaryKeys.png" width="11px" height="12px" preserveAspectRatio="xMinYMin meet" x="227.5" y="-664.7"/>
<text text-anchor="start" x="242.5" y="-654.8" font-family="Helvetica,sans-Serif" font-size="11.00" fill="#000000">id</text>
<polygon fill="none" stroke="#000000" points="531.5,-647.7 531.5,-669.7 597.5,-669.7 597.5,-647.7 531.5,-647.7"/>
<text text-anchor="start" x="534.5" y="-655.4" font-family="Helvetica,sans-Serif" font-size="11.00" fill="#000000">bigint[19]</text>
<polygon fill="#ffffff" stroke="transparent" points="222.5,-625.7 222.5,-647.7 531.5,-647.7 531.5,-625.7 222.5,-625.7"/>
<polygon fill="none" stroke="#000000" points="222.5,-625.7 222.5,-647.7 531.5,-647.7 531.5,-625.7 222.5,-625.7"/>
<image xlink:href="../../images/foreignKeys.png" width="11px" height="12px" preserveAspectRatio="xMinYMin meet" x="227.5" y="-642.7"/>
<text text-anchor="start" x="242.5" y="-632.8" font-family="Helvetica,sans-Serif" font-size="11.00" fill="#000000">created_by</text>
<polygon fill="none" stroke="#000000" points="531.5,-625.7 531.5,-647.7 597.5,-647.7 597.5,-625.7 531.5,-625.7"/>
<text text-anchor="start" x="534.5" y="-633.4" font-family="Helvetica,sans-Serif" font-size="11.00" fill="#000000">bigint[19]</text>
<polygon fill="none" stroke="#000000" points="222.5,-603.7 222.5,-625.7 531.5,-625.7 531.5,-603.7 222.5,-603.7"/>
<text text-anchor="start" x="242.5" y="-610.8" font-family="Helvetica,sans-Serif" font-size="11.00" fill="#000000">creation_date</text>
<polygon fill="none" stroke="#000000" points="531.5,-603.7 531.5,-625.7 597.5,-625.7 597.5,-603.7 531.5,-603.7"/>
<text text-anchor="start" x="534.2401" y="-611.4" font-family="Helvetica,sans-Serif" font-size="11.00" fill="#000000">datetime[26]</text>
<polygon fill="#ffffff" stroke="transparent" points="222.5,-581.7 222.5,-603.7 531.5,-603.7 531.5,-581.7 222.5,-581.7"/>
<polygon fill="none" stroke="#000000" points="222.5,-581.7 222.5,-603.7 531.5,-603.7 531.5,-581.7 222.5,-581.7"/>
<image xlink:href="../../images/foreignKeys.png" width="11px" height="12px" preserveAspectRatio="xMinYMin meet" x="227.5" y="-598.7"/>
<text text-anchor="start" x="242.5" y="-588.8" font-family="Helvetica,sans-Serif" font-size="11.00" fill="#000000">modified_by</text>
<polygon fill="none" stroke="#000000" points="531.5,-581.7 531.5,-603.7 597.5,-603.7 597.5,-581.7 531.5,-581.7"/>
<text text-anchor="start" x="534.5" y="-589.4" font-family="Helvetica,sans-Serif" font-size="11.00" fill="#000000">bigint[19]</text>
<polygon fill="none" stroke="#000000" points="222.5,-559.7 222.5,-581.7 531.5,-581.7 531.5,-559.7 222.5,-559.7"/>
<text text-anchor="start" x="242.5" y="-566.8" font-family="Helvetica,sans-Serif" font-size="11.00" fill="#000000">modification_date</text>
<polygon fill="none" stroke="#000000" points="531.5,-559.7 531.5,-581.7 597.5,-581.7 597.5,-559.7 531.5,-559.7"/>
<text text-anchor="start" x="534.2401" y="-567.4" font-family="Helvetica,sans-Serif" font-size="11.00" fill="#000000">datetime[26]</text>
<polygon fill="none" stroke="#000000" points="222.5,-537.7 222.5,-559.7 531.5,-559.7 531.5,-537.7 222.5,-537.7"/>
<text text-anchor="start" x="242.5" y="-544.8" font-family="Helvetica,sans-Serif" font-size="11.00" fill="#000000">expenses_allowed</text>
<polygon fill="none" stroke="#000000" points="531.5,-537.7 531.5,-559.7 597.5,-559.7 597.5,-537.7 531.5,-537.7"/>
<text text-anchor="start" x="534.5" y="-545.4" font-family="Helvetica,sans-Serif" font-size="11.00" fill="#000000">bit[1]</text>
<polygon fill="none" stroke="#000000" points="222.5,-515.7 222.5,-537.7 531.5,-537.7 531.5,-515.7 222.5,-515.7"/>
<text text-anchor="start" x="242.5" y="-522.8" font-family="Helvetica,sans-Serif" font-size="11.00" fill="#000000">allowed_to_invoice_expenses</text>
<polygon fill="none" stroke="#000000" points="531.5,-515.7 531.5,-537.7 597.5,-537.7 597.5,-515.7 531.5,-515.7"/>
<text text-anchor="start" x="534.5" y="-523.4" font-family="Helvetica,sans-Serif" font-size="11.00" fill="#000000">bit[1]</text>
<polygon fill="none" stroke="#000000" points="222.5,-493.7 222.5,-515.7 531.5,-515.7 531.5,-493.7 222.5,-493.7"/>
<text text-anchor="start" x="242.5" y="-500.8" font-family="Helvetica,sans-Serif" font-size="11.00" fill="#000000">multiple_expense_reports_per_period</text>
<polygon fill="none" stroke="#000000" points="531.5,-493.7 531.5,-515.7 597.5,-515.7 597.5,-493.7 531.5,-493.7"/>
<text text-anchor="start" x="534.5" y="-501.4" font-family="Helvetica,sans-Serif" font-size="11.00" fill="#000000">bit[1]</text>
<polygon fill="none" stroke="#000000" points="222.5,-471.7 222.5,-493.7 531.5,-493.7 531.5,-471.7 222.5,-471.7"/>
<text text-anchor="start" x="242.5" y="-478.8" font-family="Helvetica,sans-Serif" font-size="11.00" fill="#000000">pay_express_allowed</text>
<polygon fill="none" stroke="#000000" points="531.5,-471.7 531.5,-493.7 597.5,-493.7 597.5,-471.7 531.5,-471.7"/>
<text text-anchor="start" x="534.5" y="-479.4" font-family="Helvetica,sans-Serif" font-size="11.00" fill="#000000">bit[1]</text>
<polygon fill="none" stroke="#000000" points="222.5,-449.7 222.5,-471.7 531.5,-471.7 531.5,-449.7 222.5,-449.7"/>
<text text-anchor="start" x="242.5" y="-456.8" font-family="Helvetica,sans-Serif" font-size="11.00" fill="#000000">assignment_budget</text>
<polygon fill="none" stroke="#000000" points="531.5,-449.7 531.5,-471.7 597.5,-471.7 597.5,-449.7 531.5,-449.7"/>
<text text-anchor="start" x="534.5" y="-457.4" font-family="Helvetica,sans-Serif" font-size="11.00" fill="#000000">bit[1]</text>
<polygon fill="none" stroke="#000000" points="222.5,-427.7 222.5,-449.7 531.5,-449.7 531.5,-427.7 222.5,-427.7"/>
<text text-anchor="start" x="242.5" y="-434.8" font-family="Helvetica,sans-Serif" font-size="11.00" fill="#000000">hours_limit</text>
<polygon fill="none" stroke="#000000" points="531.5,-427.7 531.5,-449.7 597.5,-449.7 597.5,-427.7 531.5,-427.7"/>
<text text-anchor="start" x="534.5" y="-435.4" font-family="Helvetica,sans-Serif" font-size="11.00" fill="#000000">bit[1]</text>
<polygon fill="none" stroke="#000000" points="222.5,-405.7 222.5,-427.7 531.5,-427.7 531.5,-405.7 222.5,-405.7"/>
<text text-anchor="start" x="242.5" y="-412.8" font-family="Helvetica,sans-Serif" font-size="11.00" fill="#000000">time_report_approval_type</text>
<polygon fill="none" stroke="#000000" points="531.5,-405.7 531.5,-427.7 597.5,-427.7 597.5,-405.7 531.5,-405.7"/>
<text text-anchor="start" x="534.5" y="-413.4" font-family="Helvetica,sans-Serif" font-size="11.00" fill="#000000">varchar[30]</text>
<polygon fill="none" stroke="#000000" points="222.5,-383.7 222.5,-405.7 531.5,-405.7 531.5,-383.7 222.5,-383.7"/>
<text text-anchor="start" x="242.5" y="-390.8" font-family="Helvetica,sans-Serif" font-size="11.00" fill="#000000">expense_report_approval_type</text>
<polygon fill="none" stroke="#000000" points="531.5,-383.7 531.5,-405.7 597.5,-405.7 597.5,-383.7 531.5,-383.7"/>
<text text-anchor="start" x="534.5" y="-391.4" font-family="Helvetica,sans-Serif" font-size="11.00" fill="#000000">varchar[30]</text>
<polygon fill="none" stroke="#000000" points="222.5,-361.7 222.5,-383.7 531.5,-383.7 531.5,-361.7 222.5,-361.7"/>
<text text-anchor="start" x="242.5" y="-368.8" font-family="Helvetica,sans-Serif" font-size="11.00" fill="#000000">time_report_reminders</text>
<polygon fill="none" stroke="#000000" points="531.5,-361.7 531.5,-383.7 597.5,-383.7 597.5,-361.7 531.5,-361.7"/>
<text text-anchor="start" x="534.5" y="-369.4" font-family="Helvetica,sans-Serif" font-size="11.00" fill="#000000">bit[1]</text>
<polygon fill="none" stroke="#000000" points="222.5,-339.7 222.5,-361.7 531.5,-361.7 531.5,-339.7 222.5,-339.7"/>
<text text-anchor="start" x="242.5" y="-346.8" font-family="Helvetica,sans-Serif" font-size="11.00" fill="#000000">allowed_to_report_expenses_in_previous_periods</text>
<polygon fill="none" stroke="#000000" points="531.5,-339.7 531.5,-361.7 597.5,-361.7 597.5,-339.7 531.5,-339.7"/>
<text text-anchor="start" x="534.5" y="-347.4" font-family="Helvetica,sans-Serif" font-size="11.00" fill="#000000">bit[1]</text>
<polygon fill="none" stroke="#000000" points="222.5,-317.7 222.5,-339.7 531.5,-339.7 531.5,-317.7 222.5,-317.7"/>
<text text-anchor="start" x="242.5" y="-324.8" font-family="Helvetica,sans-Serif" font-size="11.00" fill="#000000">time_report_journal_mandatory</text>
<polygon fill="none" stroke="#000000" points="531.5,-317.7 531.5,-339.7 597.5,-339.7 597.5,-317.7 531.5,-317.7"/>
<text text-anchor="start" x="534.5" y="-325.4" font-family="Helvetica,sans-Serif" font-size="11.00" fill="#000000">bit[1]</text>
<polygon fill="none" stroke="#000000" points="222.5,-295.7 222.5,-317.7 531.5,-317.7 531.5,-295.7 222.5,-295.7"/>
<text text-anchor="start" x="242.5" y="-302.8" font-family="Helvetica,sans-Serif" font-size="11.00" fill="#000000">millage_allowed</text>
<polygon fill="none" stroke="#000000" points="531.5,-295.7 531.5,-317.7 597.5,-317.7 597.5,-295.7 531.5,-295.7"/>
<text text-anchor="start" x="534.5" y="-303.4" font-family="Helvetica,sans-Serif" font-size="11.00" fill="#000000">bit[1]</text>
<polygon fill="none" stroke="#000000" points="222.5,-273.7 222.5,-295.7 531.5,-295.7 531.5,-273.7 222.5,-273.7"/>
<text text-anchor="start" x="242.5" y="-280.8" font-family="Helvetica,sans-Serif" font-size="11.00" fill="#000000">time_report_schedule</text>
<polygon fill="none" stroke="#000000" points="531.5,-273.7 531.5,-295.7 597.5,-295.7 597.5,-273.7 531.5,-273.7"/>
<text text-anchor="start" x="534.5" y="-281.4" font-family="Helvetica,sans-Serif" font-size="11.00" fill="#000000">varchar[30]</text>
<polygon fill="none" stroke="#000000" points="222.5,-251.7 222.5,-273.7 531.5,-273.7 531.5,-251.7 222.5,-251.7"/>
<text text-anchor="start" x="242.5" y="-258.8" font-family="Helvetica,sans-Serif" font-size="11.00" fill="#000000">possible_to_add_activities</text>
<polygon fill="none" stroke="#000000" points="531.5,-251.7 531.5,-273.7 597.5,-273.7 597.5,-251.7 531.5,-251.7"/>
<text text-anchor="start" x="534.5" y="-259.4" font-family="Helvetica,sans-Serif" font-size="11.00" fill="#000000">bit[1]</text>
<polygon fill="none" stroke="#000000" points="222.5,-229.7 222.5,-251.7 531.5,-251.7 531.5,-229.7 222.5,-229.7"/>
<text text-anchor="start" x="242.5" y="-236.8" font-family="Helvetica,sans-Serif" font-size="11.00" fill="#000000">import_of_time_apply</text>
<polygon fill="none" stroke="#000000" points="531.5,-229.7 531.5,-251.7 597.5,-251.7 597.5,-229.7 531.5,-229.7"/>
<text text-anchor="start" x="534.5" y="-237.4" font-family="Helvetica,sans-Serif" font-size="11.00" fill="#000000">bit[1]</text>
<polygon fill="none" stroke="#000000" points="222.5,-207.7 222.5,-229.7 531.5,-229.7 531.5,-207.7 222.5,-207.7"/>
<text text-anchor="start" x="242.5" y="-214.8" font-family="Helvetica,sans-Serif" font-size="11.00" fill="#000000">notify_spend_reached_flag</text>
<polygon fill="none" stroke="#000000" points="531.5,-207.7 531.5,-229.7 597.5,-229.7 597.5,-207.7 531.5,-207.7"/>
<text text-anchor="start" x="534.5" y="-215.4" font-family="Helvetica,sans-Serif" font-size="11.00" fill="#000000">bit[1]</text>
<polygon fill="none" stroke="#000000" points="222.5,-185.7 222.5,-207.7 531.5,-207.7 531.5,-185.7 222.5,-185.7"/>
<text text-anchor="start" x="242.5" y="-192.8" font-family="Helvetica,sans-Serif" font-size="11.00" fill="#000000">notify_assignment_end_date_flag</text>
<polygon fill="none" stroke="#000000" points="531.5,-185.7 531.5,-207.7 597.5,-207.7 597.5,-185.7 531.5,-185.7"/>
<text text-anchor="start" x="534.5" y="-193.4" font-family="Helvetica,sans-Serif" font-size="11.00" fill="#000000">bit[1]</text>
<polygon fill="#ffffff" stroke="transparent" points="222.5,-163.7 222.5,-185.7 531.5,-185.7 531.5,-163.7 222.5,-163.7"/>
<polygon fill="none" stroke="#000000" points="222.5,-163.7 222.5,-185.7 531.5,-185.7 531.5,-163.7 222.5,-163.7"/>
<image xlink:href="../../images/foreignKeys.png" width="11px" height="12px" preserveAspectRatio="xMinYMin meet" x="227.5" y="-180.7"/>
<text text-anchor="start" x="242.5" y="-170.8" font-family="Helvetica,sans-Serif" font-size="11.00" fill="#000000">unit_id</text>
<polygon fill="none" stroke="#000000" points="531.5,-163.7 531.5,-185.7 597.5,-185.7 597.5,-163.7 531.5,-163.7"/>
<text text-anchor="start" x="534.5" y="-171.4" font-family="Helvetica,sans-Serif" font-size="11.00" fill="#000000">bigint[19]</text>
<polygon fill="none" stroke="#000000" points="222.5,-141.7 222.5,-163.7 531.5,-163.7 531.5,-141.7 222.5,-141.7"/>
<text text-anchor="start" x="242.5" y="-148.8" font-family="Helvetica,sans-Serif" font-size="11.00" fill="#000000">notify_spend_reached</text>
<polygon fill="none" stroke="#000000" points="531.5,-141.7 531.5,-163.7 597.5,-163.7 597.5,-141.7 531.5,-141.7"/>
<text text-anchor="start" x="534.5" y="-149.4" font-family="Helvetica,sans-Serif" font-size="11.00" fill="#000000">int[10]</text>
<polygon fill="none" stroke="#000000" points="222.5,-119.7 222.5,-141.7 531.5,-141.7 531.5,-119.7 222.5,-119.7"/>
<text text-anchor="start" x="242.5" y="-126.8" font-family="Helvetica,sans-Serif" font-size="11.00" fill="#000000">notify_assignment_end_date</text>
<polygon fill="none" stroke="#000000" points="531.5,-119.7 531.5,-141.7 597.5,-141.7 597.5,-119.7 531.5,-119.7"/>
<text text-anchor="start" x="534.5" y="-127.4" font-family="Helvetica,sans-Serif" font-size="11.00" fill="#000000">int[10]</text>
<polygon fill="#ffffff" stroke="transparent" points="222.5,-100.7 222.5,-119.7 365.5,-119.7 365.5,-100.7 222.5,-100.7"/>
<polygon fill="none" stroke="#000000" points="222.5,-100.7 222.5,-119.7 365.5,-119.7 365.5,-100.7 222.5,-100.7"/>
<text text-anchor="start" x="225.5" y="-106.8" font-family="Helvetica,sans-Serif" font-size="11.00" fill="#000000">&lt; 3</text>
<polygon fill="#ffffff" stroke="transparent" points="365.5,-100.7 365.5,-119.7 531.5,-119.7 531.5,-100.7 365.5,-100.7"/>
<polygon fill="none" stroke="#000000" points="365.5,-100.7 365.5,-119.7 531.5,-119.7 531.5,-100.7 365.5,-100.7"/>
<text text-anchor="start" x="489.9956" y="-106.8" font-family="Helvetica,sans-Serif" font-size="11.00" fill="#000000">12 rows</text>
<polygon fill="#ffffff" stroke="transparent" points="531.5,-100.7 531.5,-119.7 597.5,-119.7 597.5,-100.7 531.5,-100.7"/>
<polygon fill="none" stroke="#000000" points="531.5,-100.7 531.5,-119.7 597.5,-119.7 597.5,-100.7 531.5,-100.7"/>
<text text-anchor="start" x="578.9053" y="-106.8" font-family="Helvetica,sans-Serif" font-size="11.00" fill="#000000">0 &gt;</text>
<polygon fill="none" stroke="#000000" stroke-width="2" points="221,-99.7 221,-693.7 598,-693.7 598,-99.7 221,-99.7"/>
</a>
</g>
</g>
<!-- principal -->
<g id="node2" class="node">
<title>principal</title>
<g id="a_node2"><a xlink:href="../../tables/principal.html" xlink:title="principal" target="_top">
<polygon fill="#ffffff" stroke="transparent" points="43.5,-544.2 43.5,-649.2 135.5,-649.2 135.5,-544.2 43.5,-544.2"/>
<polygon fill="#f5f5f5" stroke="transparent" points="43.5,-625.7 43.5,-648.7 135.5,-648.7 135.5,-625.7 43.5,-625.7"/>
<polygon fill="none" stroke="#000000" points="43.5,-625.7 43.5,-648.7 135.5,-648.7 135.5,-625.7 43.5,-625.7"/>
<text text-anchor="start" x="48.5" y="-634.8" font-family="Helvetica,sans-Serif" font-weight="bold" font-size="11.00" fill="#000000">principal</text>
<text text-anchor="start" x="100.5437" y="-633.8" font-family="Helvetica,sans-Serif" font-size="11.00" fill="#000000">[table]</text>
<polygon fill="none" stroke="#000000" points="43.5,-603.7 43.5,-625.7 135.5,-625.7 135.5,-603.7 43.5,-603.7"/>
<image xlink:href="../../images/primaryKeys.png" width="11px" height="12px" preserveAspectRatio="xMinYMin meet" x="48.5" y="-620.7"/>
<text text-anchor="start" x="67.5" y="-610.8" font-family="Helvetica,sans-Serif" font-size="11.00" fill="#000000">id</text>
<polygon fill="#ffffff" stroke="transparent" points="43.5,-581.7 43.5,-603.7 135.5,-603.7 135.5,-581.7 43.5,-581.7"/>
<polygon fill="none" stroke="#000000" points="43.5,-581.7 43.5,-603.7 135.5,-603.7 135.5,-581.7 43.5,-581.7"/>
<image xlink:href="../../images/foreignKeys.png" width="11px" height="12px" preserveAspectRatio="xMinYMin meet" x="48.5" y="-598.7"/>
<text text-anchor="start" x="67.5" y="-588.8" font-family="Helvetica,sans-Serif" font-size="11.00" fill="#000000">eworker_id</text>
<polygon fill="none" stroke="#000000" points="43.5,-562.7 43.5,-581.7 135.5,-581.7 135.5,-562.7 43.5,-562.7"/>
<text text-anchor="start" x="46.5" y="-568.8" font-family="Helvetica,sans-Serif" font-size="11.00" fill="#000000">...</text>
<polygon fill="#ffffff" stroke="transparent" points="43.5,-543.7 43.5,-562.7 64.5,-562.7 64.5,-543.7 43.5,-543.7"/>
<polygon fill="none" stroke="#000000" points="43.5,-543.7 43.5,-562.7 64.5,-562.7 64.5,-543.7 43.5,-543.7"/>
<text text-anchor="start" x="46.2027" y="-549.8" font-family="Helvetica,sans-Serif" font-size="11.00" fill="#000000">&lt; 1</text>
<polygon fill="#ffffff" stroke="transparent" points="64.5,-543.7 64.5,-562.7 108.5,-562.7 108.5,-543.7 64.5,-543.7"/>
<polygon fill="none" stroke="#000000" points="64.5,-543.7 64.5,-562.7 108.5,-562.7 108.5,-543.7 64.5,-543.7"/>
<text text-anchor="start" x="67.2478" y="-549.8" font-family="Helvetica,sans-Serif" font-size="11.00" fill="#000000">18 rows</text>
<polygon fill="#ffffff" stroke="transparent" points="108.5,-543.7 108.5,-562.7 135.5,-562.7 135.5,-543.7 108.5,-543.7"/>
<polygon fill="none" stroke="#000000" points="108.5,-543.7 108.5,-562.7 135.5,-562.7 135.5,-543.7 108.5,-543.7"/>
<text text-anchor="start" x="111.1452" y="-549.8" font-family="Helvetica,sans-Serif" font-size="11.00" fill="#000000">56 &gt;</text>
</a>
</g>
</g>
<!-- time_and_expense_settings&#45;&gt;principal -->
<g id="edge1" class="edge">
<title>time_and_expense_settings:w&#45;&gt;principal:e</title>
<path fill="none" stroke="#000000" d="M207.8055,-635.5788C180.0283,-631.0956 169.9309,-614.7 135.5,-614.7"/>
<polygon fill="#000000" stroke="#000000" points="214.5232,-636.0913 222.2261,-640.2896 218.5116,-636.3956 222.5,-636.7 222.5,-636.7 222.5,-636.7 218.5116,-636.3956 222.7739,-633.1104 214.5232,-636.0913 214.5232,-636.0913"/>
<ellipse fill="none" stroke="#000000" cx="211.3325" cy="-635.8478" rx="3.2" ry="3.2"/>
</g>
<!-- time_and_expense_settings&#45;&gt;principal -->
<g id="edge2" class="edge">
<title>time_and_expense_settings:w&#45;&gt;principal:e</title>
<path fill="none" stroke="#000000" d="M207.8055,-593.8212C180.0283,-598.3044 169.9309,-614.7 135.5,-614.7"/>
<polygon fill="#000000" stroke="#000000" points="214.5232,-593.3087 222.7739,-596.2896 218.5116,-593.0044 222.5,-592.7 222.5,-592.7 222.5,-592.7 218.5116,-593.0044 222.2261,-589.1104 214.5232,-593.3087 214.5232,-593.3087"/>
<ellipse fill="none" stroke="#000000" cx="211.3325" cy="-593.5522" rx="3.2" ry="3.2"/>
</g>
<!-- client_unit -->
<g id="node3" class="node">
<title>client_unit</title>
<g id="a_node3"><a xlink:href="../../tables/client_unit.html" xlink:title="client_unit" target="_top">
<polygon fill="#ffffff" stroke="transparent" points="8,-38.2 8,-209.2 171,-209.2 171,-38.2 8,-38.2"/>
<polygon fill="#f5f5f5" stroke="transparent" points="8.5,-185.7 8.5,-208.7 171.5,-208.7 171.5,-185.7 8.5,-185.7"/>
<polygon fill="none" stroke="#000000" points="8.5,-185.7 8.5,-208.7 171.5,-208.7 171.5,-185.7 8.5,-185.7"/>
<text text-anchor="start" x="13.5" y="-194.8" font-family="Helvetica,sans-Serif" font-weight="bold" font-size="11.00" fill="#000000">client_unit</text>
<text text-anchor="start" x="136.5437" y="-193.8" font-family="Helvetica,sans-Serif" font-size="11.00" fill="#000000">[table]</text>
<polygon fill="none" stroke="#000000" points="8.5,-163.7 8.5,-185.7 171.5,-185.7 171.5,-163.7 8.5,-163.7"/>
<image xlink:href="../../images/primaryKeys.png" width="11px" height="12px" preserveAspectRatio="xMinYMin meet" x="13.5" y="-180.7"/>
<text text-anchor="start" x="28.5" y="-170.8" font-family="Helvetica,sans-Serif" font-size="11.00" fill="#000000">id</text>
<polygon fill="#ffffff" stroke="transparent" points="8.5,-141.7 8.5,-163.7 171.5,-163.7 171.5,-141.7 8.5,-141.7"/>
<polygon fill="none" stroke="#000000" points="8.5,-141.7 8.5,-163.7 171.5,-163.7 171.5,-141.7 8.5,-141.7"/>
<text text-anchor="start" x="28.5" y="-148.8" font-family="Helvetica,sans-Serif" font-size="11.00" fill="#000000">name</text>
<polygon fill="#ffffff" stroke="transparent" points="8.5,-119.7 8.5,-141.7 171.5,-141.7 171.5,-119.7 8.5,-119.7"/>
<polygon fill="none" stroke="#000000" points="8.5,-119.7 8.5,-141.7 171.5,-141.7 171.5,-119.7 8.5,-119.7"/>
<text text-anchor="start" x="28.5" y="-126.8" font-family="Helvetica,sans-Serif" font-size="11.00" fill="#000000">vat_number</text>
<polygon fill="#ffffff" stroke="transparent" points="8.5,-97.7 8.5,-119.7 171.5,-119.7 171.5,-97.7 8.5,-97.7"/>
<polygon fill="none" stroke="#000000" points="8.5,-97.7 8.5,-119.7 171.5,-119.7 171.5,-97.7 8.5,-97.7"/>
<image xlink:href="../../images/foreignKeys.png" width="11px" height="12px" preserveAspectRatio="xMinYMin meet" x="13.5" y="-114.7"/>
<text text-anchor="start" x="28.5" y="-104.8" font-family="Helvetica,sans-Serif" font-size="11.00" fill="#000000">client_id</text>
<polygon fill="#ffffff" stroke="transparent" points="8.5,-75.7 8.5,-97.7 171.5,-97.7 171.5,-75.7 8.5,-75.7"/>
<polygon fill="none" stroke="#000000" points="8.5,-75.7 8.5,-97.7 171.5,-97.7 171.5,-75.7 8.5,-75.7"/>
<image xlink:href="../../images/foreignKeys.png" width="11px" height="12px" preserveAspectRatio="xMinYMin meet" x="13.5" y="-92.7"/>
<text text-anchor="start" x="28.5" y="-82.8" font-family="Helvetica,sans-Serif" font-size="11.00" fill="#000000">time_report_schedule_id</text>
<polygon fill="none" stroke="#000000" points="8.5,-56.7 8.5,-75.7 171.5,-75.7 171.5,-56.7 8.5,-56.7"/>
<text text-anchor="start" x="11.5" y="-62.8" font-family="Helvetica,sans-Serif" font-size="11.00" fill="#000000">...</text>
<polygon fill="#ffffff" stroke="transparent" points="8.5,-37.7 8.5,-56.7 64.5,-56.7 64.5,-37.7 8.5,-37.7"/>
<polygon fill="none" stroke="#000000" points="8.5,-37.7 8.5,-56.7 64.5,-56.7 64.5,-37.7 8.5,-37.7"/>
<text text-anchor="start" x="11.5" y="-43.8" font-family="Helvetica,sans-Serif" font-size="11.00" fill="#000000">&lt; 2</text>
<polygon fill="#ffffff" stroke="transparent" points="64.5,-37.7 64.5,-56.7 132.5,-56.7 132.5,-37.7 64.5,-37.7"/>
<polygon fill="none" stroke="#000000" points="64.5,-37.7 64.5,-56.7 132.5,-56.7 132.5,-37.7 64.5,-37.7"/>
<text text-anchor="start" x="84.8807" y="-43.8" font-family="Helvetica,sans-Serif" font-size="11.00" fill="#000000">117 rows</text>
<polygon fill="#ffffff" stroke="transparent" points="132.5,-37.7 132.5,-56.7 171.5,-56.7 171.5,-37.7 132.5,-37.7"/>
<polygon fill="none" stroke="#000000" points="132.5,-37.7 132.5,-56.7 171.5,-56.7 171.5,-37.7 132.5,-37.7"/>
<text text-anchor="start" x="152.9053" y="-43.8" font-family="Helvetica,sans-Serif" font-size="11.00" fill="#000000">4 &gt;</text>
</a>
</g>
</g>
<!-- time_and_expense_settings&#45;&gt;client_unit -->
<g id="edge3" class="edge">
<title>time_and_expense_settings:w&#45;&gt;client_unit:e</title>
<path fill="none" stroke="#000000" d="M211.7307,-174.7C197.248,-174.7 190.0938,-174.7 171.5,-174.7"/>
<polygon fill="#000000" stroke="#000000" points="221.7,-170.7 221.7,-178.7 220.1,-178.7 220.1,-170.7 221.7,-170.7"/>
<polyline fill="none" stroke="#000000" points="222.5,-174.7 218.5,-174.7 "/>
<ellipse fill="none" stroke="#000000" cx="215.3" cy="-174.7001" rx="3.2" ry="3.2"/>
</g>
</g>
</svg>
