<?xml version="1.0" encoding="UTF-8" standalone="no"?>
<!DOCTYPE svg PUBLIC "-//W3C//DTD SVG 1.1//EN"
 "http://www.w3.org/Graphics/SVG/1.1/DTD/svg11.dtd">
<!-- Generated by graphviz version 2.40.1 (20161225.0304)
 -->
<!-- Title: oneDegreeRelationshipsDiagram Pages: 1 -->
<svg width="619pt" height="400pt"
 viewBox="0.00 0.00 619.00 399.70" xmlns="http://www.w3.org/2000/svg" xmlns:xlink="http://www.w3.org/1999/xlink">
<g id="graph0" class="graph" transform="scale(1 1) rotate(0) translate(4 395.7)">
<title>oneDegreeRelationshipsDiagram</title>
<polygon fill="#ffffff" stroke="transparent" points="-4,4 -4,-395.7 615,-395.7 615,4 -4,4"/>
<text text-anchor="middle" x="72.4936" y="-7.3" font-family="Helvetica,sans-Serif" font-size="11.00" fill="#000000">Generated by SchemaSpy</text>
<!-- client_unit -->
<g id="node1" class="node">
<title>client_unit</title>
<g id="a_node1"><a xlink:href="../../tables/client_unit.html" xlink:title="client_unit" target="_top">
<polygon fill="#ffffff" stroke="transparent" points="427,-46.7 427,-217.7 590,-217.7 590,-46.7 427,-46.7"/>
<polygon fill="#f5f5f5" stroke="transparent" points="427.5,-194.2 427.5,-217.2 590.5,-217.2 590.5,-194.2 427.5,-194.2"/>
<polygon fill="none" stroke="#000000" points="427.5,-194.2 427.5,-217.2 590.5,-217.2 590.5,-194.2 427.5,-194.2"/>
<text text-anchor="start" x="432.5" y="-203.3" font-family="Helvetica,sans-Serif" font-weight="bold" font-size="11.00" fill="#000000">client_unit</text>
<text text-anchor="start" x="555.5437" y="-202.3" font-family="Helvetica,sans-Serif" font-size="11.00" fill="#000000">[table]</text>
<polygon fill="none" stroke="#000000" points="427.5,-172.2 427.5,-194.2 590.5,-194.2 590.5,-172.2 427.5,-172.2"/>
<image xlink:href="../../images/primaryKeys.png" width="11px" height="12px" preserveAspectRatio="xMinYMin meet" x="432.5" y="-189.2"/>
<text text-anchor="start" x="447.5" y="-179.3" font-family="Helvetica,sans-Serif" font-size="11.00" fill="#000000">id</text>
<polygon fill="#ffffff" stroke="transparent" points="427.5,-150.2 427.5,-172.2 590.5,-172.2 590.5,-150.2 427.5,-150.2"/>
<polygon fill="none" stroke="#000000" points="427.5,-150.2 427.5,-172.2 590.5,-172.2 590.5,-150.2 427.5,-150.2"/>
<text text-anchor="start" x="447.5" y="-157.3" font-family="Helvetica,sans-Serif" font-size="11.00" fill="#000000">name</text>
<polygon fill="#ffffff" stroke="transparent" points="427.5,-128.2 427.5,-150.2 590.5,-150.2 590.5,-128.2 427.5,-128.2"/>
<polygon fill="none" stroke="#000000" points="427.5,-128.2 427.5,-150.2 590.5,-150.2 590.5,-128.2 427.5,-128.2"/>
<text text-anchor="start" x="447.5" y="-135.3" font-family="Helvetica,sans-Serif" font-size="11.00" fill="#000000">vat_number</text>
<polygon fill="#ffffff" stroke="transparent" points="427.5,-106.2 427.5,-128.2 590.5,-128.2 590.5,-106.2 427.5,-106.2"/>
<polygon fill="none" stroke="#000000" points="427.5,-106.2 427.5,-128.2 590.5,-128.2 590.5,-106.2 427.5,-106.2"/>
<image xlink:href="../../images/foreignKeys.png" width="11px" height="12px" preserveAspectRatio="xMinYMin meet" x="432.5" y="-123.2"/>
<text text-anchor="start" x="447.5" y="-113.3" font-family="Helvetica,sans-Serif" font-size="11.00" fill="#000000">client_id</text>
<polygon fill="#ffffff" stroke="transparent" points="427.5,-84.2 427.5,-106.2 590.5,-106.2 590.5,-84.2 427.5,-84.2"/>
<polygon fill="none" stroke="#000000" points="427.5,-84.2 427.5,-106.2 590.5,-106.2 590.5,-84.2 427.5,-84.2"/>
<image xlink:href="../../images/foreignKeys.png" width="11px" height="12px" preserveAspectRatio="xMinYMin meet" x="432.5" y="-101.2"/>
<text text-anchor="start" x="447.5" y="-91.3" font-family="Helvetica,sans-Serif" font-size="11.00" fill="#000000">time_report_schedule_id</text>
<polygon fill="none" stroke="#000000" points="427.5,-65.2 427.5,-84.2 590.5,-84.2 590.5,-65.2 427.5,-65.2"/>
<text text-anchor="start" x="430.5" y="-71.3" font-family="Helvetica,sans-Serif" font-size="11.00" fill="#000000">...</text>
<polygon fill="#ffffff" stroke="transparent" points="427.5,-46.2 427.5,-65.2 483.5,-65.2 483.5,-46.2 427.5,-46.2"/>
<polygon fill="none" stroke="#000000" points="427.5,-46.2 427.5,-65.2 483.5,-65.2 483.5,-46.2 427.5,-46.2"/>
<text text-anchor="start" x="430.5" y="-52.3" font-family="Helvetica,sans-Serif" font-size="11.00" fill="#000000">&lt; 2</text>
<polygon fill="#ffffff" stroke="transparent" points="483.5,-46.2 483.5,-65.2 551.5,-65.2 551.5,-46.2 483.5,-46.2"/>
<polygon fill="none" stroke="#000000" points="483.5,-46.2 483.5,-65.2 551.5,-65.2 551.5,-46.2 483.5,-46.2"/>
<text text-anchor="start" x="503.8807" y="-52.3" font-family="Helvetica,sans-Serif" font-size="11.00" fill="#000000">117 rows</text>
<polygon fill="#ffffff" stroke="transparent" points="551.5,-46.2 551.5,-65.2 590.5,-65.2 590.5,-46.2 551.5,-46.2"/>
<polygon fill="none" stroke="#000000" points="551.5,-46.2 551.5,-65.2 590.5,-65.2 590.5,-46.2 551.5,-46.2"/>
<text text-anchor="start" x="571.9053" y="-52.3" font-family="Helvetica,sans-Serif" font-size="11.00" fill="#000000">4 &gt;</text>
</a>
</g>
</g>
<!-- time_report_schedule -->
<g id="node2" class="node">
<title>time_report_schedule</title>
<g id="a_node2"><a xlink:href="../../tables/time_report_schedule.html" xlink:title="time_report_schedule" target="_top">
<polygon fill="#ffffff" stroke="transparent" points="149,-38.2 149,-282.2 365,-282.2 365,-38.2 149,-38.2"/>
<polygon fill="#f5f5f5" stroke="transparent" points="151,-257.2 151,-280.2 363,-280.2 363,-257.2 151,-257.2"/>
<polygon fill="none" stroke="#000000" points="151,-257.2 151,-280.2 363,-280.2 363,-257.2 151,-257.2"/>
<text text-anchor="start" x="156" y="-266.3" font-family="Helvetica,sans-Serif" font-weight="bold" font-size="11.00" fill="#000000">time_report_schedule</text>
<text text-anchor="start" x="328.0437" y="-265.3" font-family="Helvetica,sans-Serif" font-size="11.00" fill="#000000">[table]</text>
<polygon fill="none" stroke="#000000" points="151,-235.2 151,-257.2 296,-257.2 296,-235.2 151,-235.2"/>
<image xlink:href="../../images/primaryKeys.png" width="11px" height="12px" preserveAspectRatio="xMinYMin meet" x="156" y="-252.2"/>
<text text-anchor="start" x="171" y="-242.3" font-family="Helvetica,sans-Serif" font-size="11.00" fill="#000000">id</text>
<polygon fill="none" stroke="#000000" points="296,-235.2 296,-257.2 363,-257.2 363,-235.2 296,-235.2"/>
<text text-anchor="start" x="299" y="-242.9" font-family="Helvetica,sans-Serif" font-size="11.00" fill="#000000">bigint[19]</text>
<polygon fill="#ffffff" stroke="transparent" points="151,-213.2 151,-235.2 296,-235.2 296,-213.2 151,-213.2"/>
<polygon fill="none" stroke="#000000" points="151,-213.2 151,-235.2 296,-235.2 296,-213.2 151,-213.2"/>
<image xlink:href="../../images/foreignKeys.png" width="11px" height="12px" preserveAspectRatio="xMinYMin meet" x="156" y="-230.2"/>
<text text-anchor="start" x="171" y="-220.3" font-family="Helvetica,sans-Serif" font-size="11.00" fill="#000000">created_by</text>
<polygon fill="none" stroke="#000000" points="296,-213.2 296,-235.2 363,-235.2 363,-213.2 296,-213.2"/>
<text text-anchor="start" x="299" y="-220.9" font-family="Helvetica,sans-Serif" font-size="11.00" fill="#000000">bigint[19]</text>
<polygon fill="none" stroke="#000000" points="151,-191.2 151,-213.2 296,-213.2 296,-191.2 151,-191.2"/>
<text text-anchor="start" x="171" y="-198.3" font-family="Helvetica,sans-Serif" font-size="11.00" fill="#000000">creation_date</text>
<polygon fill="none" stroke="#000000" points="296,-191.2 296,-213.2 363,-213.2 363,-191.2 296,-191.2"/>
<text text-anchor="start" x="299" y="-198.9" font-family="Helvetica,sans-Serif" font-size="11.00" fill="#000000">datetime[26]</text>
<polygon fill="#ffffff" stroke="transparent" points="151,-169.2 151,-191.2 296,-191.2 296,-169.2 151,-169.2"/>
<polygon fill="none" stroke="#000000" points="151,-169.2 151,-191.2 296,-191.2 296,-169.2 151,-169.2"/>
<image xlink:href="../../images/foreignKeys.png" width="11px" height="12px" preserveAspectRatio="xMinYMin meet" x="156" y="-186.2"/>
<text text-anchor="start" x="171" y="-176.3" font-family="Helvetica,sans-Serif" font-size="11.00" fill="#000000">modified_by</text>
<polygon fill="none" stroke="#000000" points="296,-169.2 296,-191.2 363,-191.2 363,-169.2 296,-169.2"/>
<text text-anchor="start" x="299" y="-176.9" font-family="Helvetica,sans-Serif" font-size="11.00" fill="#000000">bigint[19]</text>
<polygon fill="none" stroke="#000000" points="151,-147.2 151,-169.2 296,-169.2 296,-147.2 151,-147.2"/>
<text text-anchor="start" x="171" y="-154.3" font-family="Helvetica,sans-Serif" font-size="11.00" fill="#000000">modification_date</text>
<polygon fill="none" stroke="#000000" points="296,-147.2 296,-169.2 363,-169.2 363,-147.2 296,-147.2"/>
<text text-anchor="start" x="299" y="-154.9" font-family="Helvetica,sans-Serif" font-size="11.00" fill="#000000">datetime[26]</text>
<polygon fill="none" stroke="#000000" points="151,-125.2 151,-147.2 296,-147.2 296,-125.2 151,-125.2"/>
<text text-anchor="start" x="171" y="-132.3" font-family="Helvetica,sans-Serif" font-size="11.00" fill="#000000">name</text>
<polygon fill="none" stroke="#000000" points="296,-125.2 296,-147.2 363,-147.2 363,-125.2 296,-125.2"/>
<text text-anchor="start" x="298.9365" y="-132.9" font-family="Helvetica,sans-Serif" font-size="11.00" fill="#000000">varchar[255]</text>
<polygon fill="none" stroke="#000000" points="151,-103.2 151,-125.2 296,-125.2 296,-103.2 151,-103.2"/>
<text text-anchor="start" x="171" y="-110.3" font-family="Helvetica,sans-Serif" font-size="11.00" fill="#000000">system_defined</text>
<polygon fill="none" stroke="#000000" points="296,-103.2 296,-125.2 363,-125.2 363,-103.2 296,-103.2"/>
<text text-anchor="start" x="299" y="-110.9" font-family="Helvetica,sans-Serif" font-size="11.00" fill="#000000">bit[1]</text>
<polygon fill="none" stroke="#000000" points="151,-81.2 151,-103.2 296,-103.2 296,-81.2 151,-81.2"/>
<text text-anchor="start" x="171" y="-88.3" font-family="Helvetica,sans-Serif" font-size="11.00" fill="#000000">active</text>
<polygon fill="none" stroke="#000000" points="296,-81.2 296,-103.2 363,-103.2 363,-81.2 296,-81.2"/>
<text text-anchor="start" x="299" y="-88.9" font-family="Helvetica,sans-Serif" font-size="11.00" fill="#000000">bit[1]</text>
<polygon fill="none" stroke="#000000" points="151,-59.2 151,-81.2 296,-81.2 296,-59.2 151,-59.2"/>
<text text-anchor="start" x="171" y="-66.3" font-family="Helvetica,sans-Serif" font-size="11.00" fill="#000000">description</text>
<polygon fill="none" stroke="#000000" points="296,-59.2 296,-81.2 363,-81.2 363,-59.2 296,-59.2"/>
<text text-anchor="start" x="298.9365" y="-66.9" font-family="Helvetica,sans-Serif" font-size="11.00" fill="#000000">varchar[255]</text>
<polygon fill="#ffffff" stroke="transparent" points="151,-40.2 151,-59.2 215,-59.2 215,-40.2 151,-40.2"/>
<polygon fill="none" stroke="#000000" points="151,-40.2 151,-59.2 215,-59.2 215,-40.2 151,-40.2"/>
<text text-anchor="start" x="154" y="-46.3" font-family="Helvetica,sans-Serif" font-size="11.00" fill="#000000">&lt; 2</text>
<polygon fill="#ffffff" stroke="transparent" points="215,-40.2 215,-59.2 296,-59.2 296,-40.2 215,-40.2"/>
<polygon fill="none" stroke="#000000" points="215,-40.2 215,-59.2 296,-59.2 296,-40.2 215,-40.2"/>
<text text-anchor="start" x="260.6105" y="-46.3" font-family="Helvetica,sans-Serif" font-size="11.00" fill="#000000">0 rows</text>
<polygon fill="#ffffff" stroke="transparent" points="296,-40.2 296,-59.2 363,-59.2 363,-40.2 296,-40.2"/>
<polygon fill="none" stroke="#000000" points="296,-40.2 296,-59.2 363,-59.2 363,-40.2 296,-40.2"/>
<text text-anchor="start" x="344.4053" y="-46.3" font-family="Helvetica,sans-Serif" font-size="11.00" fill="#000000">2 &gt;</text>
<polygon fill="none" stroke="#000000" stroke-width="2" points="150,-39.2 150,-281.2 364,-281.2 364,-39.2 150,-39.2"/>
</a>
</g>
</g>
<!-- client_unit&#45;&gt;time_report_schedule -->
<g id="edge1" class="edge">
<title>client_unit:w&#45;&gt;time_report_schedule:e</title>
<path fill="none" stroke="#000000" d="M413.0764,-97.8209C366.3074,-117.8721 430.2759,-246.2 363,-246.2"/>
<polygon fill="#000000" stroke="#000000" points="419.6289,-96.6303 428.1436,-98.742 423.5644,-95.9151 427.5,-95.2 427.5,-95.2 427.5,-95.2 423.5644,-95.9151 426.8564,-91.658 419.6289,-96.6303 419.6289,-96.6303"/>
<ellipse fill="none" stroke="#000000" cx="416.4804" cy="-97.2024" rx="3.2" ry="3.2"/>
</g>
<!-- principal -->
<g id="node3" class="node">
<title>principal</title>
<g id="a_node3"><a xlink:href="../../tables/principal.html" xlink:title="principal" target="_top">
<polygon fill="#ffffff" stroke="transparent" points="8,-194.7 8,-299.7 100,-299.7 100,-194.7 8,-194.7"/>
<polygon fill="#f5f5f5" stroke="transparent" points="8,-276.2 8,-299.2 100,-299.2 100,-276.2 8,-276.2"/>
<polygon fill="none" stroke="#000000" points="8,-276.2 8,-299.2 100,-299.2 100,-276.2 8,-276.2"/>
<text text-anchor="start" x="13" y="-285.3" font-family="Helvetica,sans-Serif" font-weight="bold" font-size="11.00" fill="#000000">principal</text>
<text text-anchor="start" x="65.0437" y="-284.3" font-family="Helvetica,sans-Serif" font-size="11.00" fill="#000000">[table]</text>
<polygon fill="none" stroke="#000000" points="8,-254.2 8,-276.2 100,-276.2 100,-254.2 8,-254.2"/>
<image xlink:href="../../images/primaryKeys.png" width="11px" height="12px" preserveAspectRatio="xMinYMin meet" x="13" y="-271.2"/>
<text text-anchor="start" x="32" y="-261.3" font-family="Helvetica,sans-Serif" font-size="11.00" fill="#000000">id</text>
<polygon fill="#ffffff" stroke="transparent" points="8,-232.2 8,-254.2 100,-254.2 100,-232.2 8,-232.2"/>
<polygon fill="none" stroke="#000000" points="8,-232.2 8,-254.2 100,-254.2 100,-232.2 8,-232.2"/>
<image xlink:href="../../images/foreignKeys.png" width="11px" height="12px" preserveAspectRatio="xMinYMin meet" x="13" y="-249.2"/>
<text text-anchor="start" x="32" y="-239.3" font-family="Helvetica,sans-Serif" font-size="11.00" fill="#000000">eworker_id</text>
<polygon fill="none" stroke="#000000" points="8,-213.2 8,-232.2 100,-232.2 100,-213.2 8,-213.2"/>
<text text-anchor="start" x="11" y="-219.3" font-family="Helvetica,sans-Serif" font-size="11.00" fill="#000000">...</text>
<polygon fill="#ffffff" stroke="transparent" points="8,-194.2 8,-213.2 29,-213.2 29,-194.2 8,-194.2"/>
<polygon fill="none" stroke="#000000" points="8,-194.2 8,-213.2 29,-213.2 29,-194.2 8,-194.2"/>
<text text-anchor="start" x="10.7027" y="-200.3" font-family="Helvetica,sans-Serif" font-size="11.00" fill="#000000">&lt; 1</text>
<polygon fill="#ffffff" stroke="transparent" points="29,-194.2 29,-213.2 73,-213.2 73,-194.2 29,-194.2"/>
<polygon fill="none" stroke="#000000" points="29,-194.2 29,-213.2 73,-213.2 73,-194.2 29,-194.2"/>
<text text-anchor="start" x="31.7478" y="-200.3" font-family="Helvetica,sans-Serif" font-size="11.00" fill="#000000">18 rows</text>
<polygon fill="#ffffff" stroke="transparent" points="73,-194.2 73,-213.2 100,-213.2 100,-194.2 73,-194.2"/>
<polygon fill="none" stroke="#000000" points="73,-194.2 73,-213.2 100,-213.2 100,-194.2 73,-194.2"/>
<text text-anchor="start" x="75.6452" y="-200.3" font-family="Helvetica,sans-Serif" font-size="11.00" fill="#000000">56 &gt;</text>
</a>
</g>
</g>
<!-- time_report_schedule&#45;&gt;principal -->
<g id="edge2" class="edge">
<title>time_report_schedule:w&#45;&gt;principal:e</title>
<path fill="none" stroke="#000000" d="M137.1568,-228.5877C123.3325,-239.1646 123.1756,-265.2 100,-265.2"/>
<polygon fill="#000000" stroke="#000000" points="143.3739,-226.6172 152.0877,-227.6317 147.1869,-225.4086 151,-224.2 151,-224.2 151,-224.2 147.1869,-225.4086 149.9123,-220.7683 143.3739,-226.6172 143.3739,-226.6172"/>
<ellipse fill="none" stroke="#000000" cx="140.3235" cy="-227.5841" rx="3.2" ry="3.2"/>
</g>
<!-- time_report_schedule&#45;&gt;principal -->
<g id="edge3" class="edge">
<title>time_report_schedule:w&#45;&gt;principal:e</title>
<path fill="none" stroke="#000000" d="M137.0669,-184.532C115.5746,-201.8534 138.0328,-265.2 100,-265.2"/>
<polygon fill="#000000" stroke="#000000" points="143.3607,-182.5752 152.0688,-183.6377 147.1804,-181.3876 151,-180.2 151,-180.2 151,-180.2 147.1804,-181.3876 149.9312,-176.7623 143.3607,-182.5752 143.3607,-182.5752"/>
<ellipse fill="none" stroke="#000000" cx="140.305" cy="-183.5253" rx="3.2" ry="3.2"/>
</g>
<!-- time_report_schedule_period -->
<g id="node4" class="node">
<title>time_report_schedule_period</title>
<g id="a_node4"><a xlink:href="../../tables/time_report_schedule_period.html" xlink:title="time_report_schedule_period" target="_top">
<polygon fill="#ffffff" stroke="transparent" points="414,-238.7 414,-387.7 603,-387.7 603,-238.7 414,-238.7"/>
<polygon fill="#f5f5f5" stroke="transparent" points="414.5,-364.2 414.5,-387.2 603.5,-387.2 603.5,-364.2 414.5,-364.2"/>
<polygon fill="none" stroke="#000000" points="414.5,-364.2 414.5,-387.2 603.5,-387.2 603.5,-364.2 414.5,-364.2"/>
<text text-anchor="start" x="419.5" y="-373.3" font-family="Helvetica,sans-Serif" font-weight="bold" font-size="11.00" fill="#000000">time_report_schedule_period</text>
<text text-anchor="start" x="568.5437" y="-372.3" font-family="Helvetica,sans-Serif" font-size="11.00" fill="#000000">[table]</text>
<polygon fill="none" stroke="#000000" points="414.5,-342.2 414.5,-364.2 603.5,-364.2 603.5,-342.2 414.5,-342.2"/>
<image xlink:href="../../images/primaryKeys.png" width="11px" height="12px" preserveAspectRatio="xMinYMin meet" x="419.5" y="-359.2"/>
<text text-anchor="start" x="434.5" y="-349.3" font-family="Helvetica,sans-Serif" font-size="11.00" fill="#000000">id</text>
<polygon fill="#ffffff" stroke="transparent" points="414.5,-320.2 414.5,-342.2 603.5,-342.2 603.5,-320.2 414.5,-320.2"/>
<polygon fill="none" stroke="#000000" points="414.5,-320.2 414.5,-342.2 603.5,-342.2 603.5,-320.2 414.5,-320.2"/>
<image xlink:href="../../images/foreignKeys.png" width="11px" height="12px" preserveAspectRatio="xMinYMin meet" x="419.5" y="-337.2"/>
<text text-anchor="start" x="434.5" y="-327.3" font-family="Helvetica,sans-Serif" font-size="11.00" fill="#000000">created_by</text>
<polygon fill="#ffffff" stroke="transparent" points="414.5,-298.2 414.5,-320.2 603.5,-320.2 603.5,-298.2 414.5,-298.2"/>
<polygon fill="none" stroke="#000000" points="414.5,-298.2 414.5,-320.2 603.5,-320.2 603.5,-298.2 414.5,-298.2"/>
<image xlink:href="../../images/foreignKeys.png" width="11px" height="12px" preserveAspectRatio="xMinYMin meet" x="419.5" y="-315.2"/>
<text text-anchor="start" x="434.5" y="-305.3" font-family="Helvetica,sans-Serif" font-size="11.00" fill="#000000">modified_by</text>
<polygon fill="#ffffff" stroke="transparent" points="414.5,-276.2 414.5,-298.2 603.5,-298.2 603.5,-276.2 414.5,-276.2"/>
<polygon fill="none" stroke="#000000" points="414.5,-276.2 414.5,-298.2 603.5,-298.2 603.5,-276.2 414.5,-276.2"/>
<image xlink:href="../../images/foreignKeys.png" width="11px" height="12px" preserveAspectRatio="xMinYMin meet" x="419.5" y="-293.2"/>
<text text-anchor="start" x="434.5" y="-283.3" font-family="Helvetica,sans-Serif" font-size="11.00" fill="#000000">time_report_schedule_id</text>
<polygon fill="none" stroke="#000000" points="414.5,-257.2 414.5,-276.2 603.5,-276.2 603.5,-257.2 414.5,-257.2"/>
<text text-anchor="start" x="417.5" y="-263.3" font-family="Helvetica,sans-Serif" font-size="11.00" fill="#000000">...</text>
<polygon fill="#ffffff" stroke="transparent" points="414.5,-238.2 414.5,-257.2 494.5,-257.2 494.5,-238.2 414.5,-238.2"/>
<polygon fill="none" stroke="#000000" points="414.5,-238.2 414.5,-257.2 494.5,-257.2 494.5,-238.2 414.5,-238.2"/>
<text text-anchor="start" x="417.5" y="-244.3" font-family="Helvetica,sans-Serif" font-size="11.00" fill="#000000">&lt; 3</text>
<polygon fill="#ffffff" stroke="transparent" points="494.5,-238.2 494.5,-257.2 561.5,-257.2 561.5,-238.2 494.5,-238.2"/>
<polygon fill="none" stroke="#000000" points="494.5,-238.2 494.5,-257.2 561.5,-257.2 561.5,-238.2 494.5,-238.2"/>
<text text-anchor="start" x="526.1105" y="-244.3" font-family="Helvetica,sans-Serif" font-size="11.00" fill="#000000">0 rows</text>
<polygon fill="#ffffff" stroke="transparent" points="561.5,-238.2 561.5,-257.2 603.5,-257.2 603.5,-238.2 561.5,-238.2"/>
<polygon fill="none" stroke="#000000" points="561.5,-238.2 561.5,-257.2 603.5,-257.2 603.5,-238.2 561.5,-238.2"/>
<text text-anchor="start" x="594.3862" y="-244.3" font-family="Helvetica,sans-Serif" font-size="11.00" fill="#000000"> &#160;</text>
</a>
</g>
</g>
<!-- time_report_schedule_period&#45;&gt;time_report_schedule -->
<g id="edge6" class="edge">
<title>time_report_schedule_period:w&#45;&gt;time_report_schedule:e</title>
<path fill="none" stroke="#000000" d="M400.5533,-282.8123C386.596,-272.2354 386.3139,-246.2 363,-246.2"/>
<polygon fill="#000000" stroke="#000000" points="406.8687,-284.7991 413.4196,-290.6341 410.6844,-285.9996 414.5,-287.2 414.5,-287.2 414.5,-287.2 410.6844,-285.9996 415.5804,-283.7659 406.8687,-284.7991 406.8687,-284.7991"/>
<ellipse fill="none" stroke="#000000" cx="403.8162" cy="-283.8388" rx="3.2" ry="3.2"/>
</g>
<!-- time_report_schedule_period&#45;&gt;principal -->
<g id="edge4" class="edge">
<title>time_report_schedule_period:w&#45;&gt;principal:e</title>
<path fill="none" stroke="#000000" d="M399.9057,-331.3954C289.0878,-334.368 244.8617,-369.512 141,-316.2 115.1264,-302.9191 129.0831,-265.2 100,-265.2"/>
<polygon fill="#000000" stroke="#000000" points="406.5007,-331.3072 414.5482,-334.7997 410.5004,-331.2536 414.5,-331.2 414.5,-331.2 414.5,-331.2 410.5004,-331.2536 414.4518,-327.6003 406.5007,-331.3072 406.5007,-331.3072"/>
<ellipse fill="none" stroke="#000000" cx="403.301" cy="-331.35" rx="3.2" ry="3.2"/>
</g>
<!-- time_report_schedule_period&#45;&gt;principal -->
<g id="edge5" class="edge">
<title>time_report_schedule_period:w&#45;&gt;principal:e</title>
<path fill="none" stroke="#000000" d="M399.9364,-309.3118C289.6103,-311.0075 251.5137,-330.9062 141,-293.2 120.116,-286.0746 122.0661,-265.2 100,-265.2"/>
<polygon fill="#000000" stroke="#000000" points="406.5002,-309.2614 414.5276,-312.7999 410.5001,-309.2307 414.5,-309.2 414.5,-309.2 414.5,-309.2 410.5001,-309.2307 414.4724,-305.6001 406.5002,-309.2614 406.5002,-309.2614"/>
<ellipse fill="none" stroke="#000000" cx="403.3003" cy="-309.286" rx="3.2" ry="3.2"/>
</g>
</g>
</svg>
