<?xml version="1.0" encoding="UTF-8" standalone="no"?>
<!DOCTYPE svg PUBLIC "-//W3C//DTD SVG 1.1//EN"
 "http://www.w3.org/Graphics/SVG/1.1/DTD/svg11.dtd">
<!-- Generated by graphviz version 2.40.1 (20161225.0304)
 -->
<!-- Title: twoDegreesRelationshipsDiagram Pages: 1 -->
<svg width="1085pt" height="586pt"
 viewBox="0.00 0.00 1085.00 586.25" xmlns="http://www.w3.org/2000/svg" xmlns:xlink="http://www.w3.org/1999/xlink">
<g id="graph0" class="graph" transform="scale(1 1) rotate(0) translate(4 582.2474)">
<title>twoDegreesRelationshipsDiagram</title>
<polygon fill="#ffffff" stroke="transparent" points="-4,4 -4,-582.2474 1081,-582.2474 1081,4 -4,4"/>
<text text-anchor="middle" x="72.4936" y="-7.3" font-family="Helvetica,sans-Serif" font-size="11.00" fill="#000000">Generated by SchemaSpy</text>
<!-- client -->
<g id="node1" class="node">
<title>client</title>
<g id="a_node1"><a xlink:href="../../tables/client.html" xlink:title="client" target="_top">
<polygon fill="#ffffff" stroke="transparent" points="676,-295.6824 676,-356.6824 768,-356.6824 768,-295.6824 676,-295.6824"/>
<polygon fill="#f5f5f5" stroke="transparent" points="676,-333.1824 676,-356.1824 768,-356.1824 768,-333.1824 676,-333.1824"/>
<polygon fill="none" stroke="#000000" points="676,-333.1824 676,-356.1824 768,-356.1824 768,-333.1824 676,-333.1824"/>
<text text-anchor="start" x="681" y="-342.2824" font-family="Helvetica,sans-Serif" font-weight="bold" font-size="11.00" fill="#000000">client</text>
<text text-anchor="start" x="733.0437" y="-341.2824" font-family="Helvetica,sans-Serif" font-size="11.00" fill="#000000">[table]</text>
<polygon fill="none" stroke="#000000" points="676,-314.1824 676,-333.1824 768,-333.1824 768,-314.1824 676,-314.1824"/>
<text text-anchor="start" x="679" y="-320.2824" font-family="Helvetica,sans-Serif" font-size="11.00" fill="#000000">...</text>
<polygon fill="#ffffff" stroke="transparent" points="676,-295.1824 676,-314.1824 697,-314.1824 697,-295.1824 676,-295.1824"/>
<polygon fill="none" stroke="#000000" points="676,-295.1824 676,-314.1824 697,-314.1824 697,-295.1824 676,-295.1824"/>
<text text-anchor="start" x="678.7026" y="-301.2824" font-family="Helvetica,sans-Serif" font-size="11.00" fill="#000000">&lt; 9</text>
<polygon fill="#ffffff" stroke="transparent" points="697,-295.1824 697,-314.1824 747,-314.1824 747,-295.1824 697,-295.1824"/>
<polygon fill="none" stroke="#000000" points="697,-295.1824 697,-314.1824 747,-314.1824 747,-295.1824 697,-295.1824"/>
<text text-anchor="start" x="699.6904" y="-301.2824" font-family="Helvetica,sans-Serif" font-size="11.00" fill="#000000">647 rows</text>
<polygon fill="#ffffff" stroke="transparent" points="747,-295.1824 747,-314.1824 768,-314.1824 768,-295.1824 747,-295.1824"/>
<polygon fill="none" stroke="#000000" points="747,-295.1824 747,-314.1824 768,-314.1824 768,-295.1824 747,-295.1824"/>
<text text-anchor="start" x="749.7026" y="-301.2824" font-family="Helvetica,sans-Serif" font-size="11.00" fill="#000000">7 &gt;</text>
</a>
</g>
</g>
<!-- file -->
<g id="node2" class="node">
<title>file</title>
<g id="a_node2"><a xlink:href="../../tables/file.html" xlink:title="file" target="_top">
<polygon fill="#ffffff" stroke="transparent" points="529,-120.6824 529,-181.6824 627,-181.6824 627,-120.6824 529,-120.6824"/>
<polygon fill="#f5f5f5" stroke="transparent" points="529,-158.1824 529,-181.1824 627,-181.1824 627,-158.1824 529,-158.1824"/>
<polygon fill="none" stroke="#000000" points="529,-158.1824 529,-181.1824 627,-181.1824 627,-158.1824 529,-158.1824"/>
<text text-anchor="start" x="534" y="-167.2824" font-family="Helvetica,sans-Serif" font-weight="bold" font-size="11.00" fill="#000000">file</text>
<text text-anchor="start" x="592.0437" y="-166.2824" font-family="Helvetica,sans-Serif" font-size="11.00" fill="#000000">[table]</text>
<polygon fill="none" stroke="#000000" points="529,-139.1824 529,-158.1824 627,-158.1824 627,-139.1824 529,-139.1824"/>
<text text-anchor="start" x="532" y="-145.2824" font-family="Helvetica,sans-Serif" font-size="11.00" fill="#000000">...</text>
<polygon fill="#ffffff" stroke="transparent" points="529,-120.1824 529,-139.1824 550,-139.1824 550,-120.1824 529,-120.1824"/>
<polygon fill="none" stroke="#000000" points="529,-120.1824 529,-139.1824 550,-139.1824 550,-120.1824 529,-120.1824"/>
<text text-anchor="start" x="531.7026" y="-126.2824" font-family="Helvetica,sans-Serif" font-size="11.00" fill="#000000">&lt; 2</text>
<polygon fill="#ffffff" stroke="transparent" points="550,-120.1824 550,-139.1824 600,-139.1824 600,-120.1824 550,-120.1824"/>
<polygon fill="none" stroke="#000000" points="550,-120.1824 550,-139.1824 600,-139.1824 600,-120.1824 550,-120.1824"/>
<text text-anchor="start" x="552.6904" y="-126.2824" font-family="Helvetica,sans-Serif" font-size="11.00" fill="#000000">590 rows</text>
<polygon fill="#ffffff" stroke="transparent" points="600,-120.1824 600,-139.1824 627,-139.1824 627,-120.1824 600,-120.1824"/>
<polygon fill="none" stroke="#000000" points="600,-120.1824 600,-139.1824 627,-139.1824 627,-120.1824 600,-120.1824"/>
<text text-anchor="start" x="602.6452" y="-126.2824" font-family="Helvetica,sans-Serif" font-size="11.00" fill="#000000">13 &gt;</text>
</a>
</g>
</g>
<!-- client&#45;&gt;file -->
<g id="edge1" class="edge">
<title>client:w&#45;&gt;file:e</title>
<path fill="none" stroke="#000000" d="M661.6954,-320.7086C610.1009,-299.4382 702.0901,-148.1824 627,-148.1824"/>
<polygon fill="#000000" stroke="#000000" points="668.117,-321.8191 675.3865,-326.7298 672.0585,-322.5008 676,-323.1824 676,-323.1824 676,-323.1824 672.0585,-322.5008 676.6135,-319.6351 668.117,-321.8191 668.117,-321.8191"/>
<ellipse fill="none" stroke="#000000" cx="664.9638" cy="-321.2738" rx="3.2" ry="3.2"/>
</g>
<!-- eworker -->
<g id="node3" class="node">
<title>eworker</title>
<g id="a_node3"><a xlink:href="../../tables/eworker.html" xlink:title="eworker" target="_top">
<polygon fill="#ffffff" stroke="transparent" points="153,-222.6824 153,-415.6824 276,-415.6824 276,-222.6824 153,-222.6824"/>
<polygon fill="#f5f5f5" stroke="transparent" points="153.5,-392.1824 153.5,-415.1824 276.5,-415.1824 276.5,-392.1824 153.5,-392.1824"/>
<polygon fill="none" stroke="#000000" points="153.5,-392.1824 153.5,-415.1824 276.5,-415.1824 276.5,-392.1824 153.5,-392.1824"/>
<text text-anchor="start" x="158.5" y="-401.2824" font-family="Helvetica,sans-Serif" font-weight="bold" font-size="11.00" fill="#000000">eworker</text>
<text text-anchor="start" x="241.5437" y="-400.2824" font-family="Helvetica,sans-Serif" font-size="11.00" fill="#000000">[table]</text>
<polygon fill="none" stroke="#000000" points="153.5,-370.1824 153.5,-392.1824 276.5,-392.1824 276.5,-370.1824 153.5,-370.1824"/>
<image xlink:href="../../images/primaryKeys.png" width="11px" height="12px" preserveAspectRatio="xMinYMin meet" x="158.5" y="-387.182"/>
<text text-anchor="start" x="173.5" y="-377.2824" font-family="Helvetica,sans-Serif" font-size="11.00" fill="#000000">id</text>
<polygon fill="#ffffff" stroke="transparent" points="153.5,-348.1824 153.5,-370.1824 276.5,-370.1824 276.5,-348.1824 153.5,-348.1824"/>
<polygon fill="none" stroke="#000000" points="153.5,-348.1824 153.5,-370.1824 276.5,-370.1824 276.5,-348.1824 153.5,-348.1824"/>
<image xlink:href="../../images/foreignKeys.png" width="11px" height="12px" preserveAspectRatio="xMinYMin meet" x="158.5" y="-365.182"/>
<text text-anchor="start" x="173.5" y="-355.2824" font-family="Helvetica,sans-Serif" font-size="11.00" fill="#000000">created_by</text>
<polygon fill="#ffffff" stroke="transparent" points="153.5,-326.1824 153.5,-348.1824 276.5,-348.1824 276.5,-326.1824 153.5,-326.1824"/>
<polygon fill="none" stroke="#000000" points="153.5,-326.1824 153.5,-348.1824 276.5,-348.1824 276.5,-326.1824 153.5,-326.1824"/>
<image xlink:href="../../images/foreignKeys.png" width="11px" height="12px" preserveAspectRatio="xMinYMin meet" x="158.5" y="-343.182"/>
<text text-anchor="start" x="173.5" y="-333.2824" font-family="Helvetica,sans-Serif" font-size="11.00" fill="#000000">modified_by</text>
<polygon fill="#ffffff" stroke="transparent" points="153.5,-304.1824 153.5,-326.1824 276.5,-326.1824 276.5,-304.1824 153.5,-304.1824"/>
<polygon fill="none" stroke="#000000" points="153.5,-304.1824 153.5,-326.1824 276.5,-326.1824 276.5,-304.1824 153.5,-304.1824"/>
<text text-anchor="start" x="173.5" y="-311.2824" font-family="Helvetica,sans-Serif" font-size="11.00" fill="#000000">email</text>
<polygon fill="#ffffff" stroke="transparent" points="153.5,-282.1824 153.5,-304.1824 276.5,-304.1824 276.5,-282.1824 153.5,-282.1824"/>
<polygon fill="none" stroke="#000000" points="153.5,-282.1824 153.5,-304.1824 276.5,-304.1824 276.5,-282.1824 153.5,-282.1824"/>
<image xlink:href="../../images/foreignKeys.png" width="11px" height="12px" preserveAspectRatio="xMinYMin meet" x="158.5" y="-299.182"/>
<text text-anchor="start" x="173.5" y="-289.2824" font-family="Helvetica,sans-Serif" font-size="11.00" fill="#000000">avatar_id</text>
<polygon fill="#ffffff" stroke="transparent" points="153.5,-260.1824 153.5,-282.1824 276.5,-282.1824 276.5,-260.1824 153.5,-260.1824"/>
<polygon fill="none" stroke="#000000" points="153.5,-260.1824 153.5,-282.1824 276.5,-282.1824 276.5,-260.1824 153.5,-260.1824"/>
<image xlink:href="../../images/foreignKeys.png" width="11px" height="12px" preserveAspectRatio="xMinYMin meet" x="158.5" y="-277.182"/>
<text text-anchor="start" x="173.5" y="-267.2824" font-family="Helvetica,sans-Serif" font-size="11.00" fill="#000000">unit_id</text>
<polygon fill="none" stroke="#000000" points="153.5,-241.1824 153.5,-260.1824 276.5,-260.1824 276.5,-241.1824 153.5,-241.1824"/>
<text text-anchor="start" x="156.5" y="-247.2824" font-family="Helvetica,sans-Serif" font-size="11.00" fill="#000000">...</text>
<polygon fill="#ffffff" stroke="transparent" points="153.5,-222.1824 153.5,-241.1824 189.5,-241.1824 189.5,-222.1824 153.5,-222.1824"/>
<polygon fill="none" stroke="#000000" points="153.5,-222.1824 153.5,-241.1824 189.5,-241.1824 189.5,-222.1824 153.5,-222.1824"/>
<text text-anchor="start" x="156.5" y="-228.2824" font-family="Helvetica,sans-Serif" font-size="11.00" fill="#000000">&lt; 4</text>
<polygon fill="#ffffff" stroke="transparent" points="189.5,-222.1824 189.5,-241.1824 247.5,-241.1824 247.5,-222.1824 189.5,-222.1824"/>
<polygon fill="none" stroke="#000000" points="189.5,-222.1824 189.5,-241.1824 247.5,-241.1824 247.5,-222.1824 189.5,-222.1824"/>
<text text-anchor="start" x="199.8807" y="-228.2824" font-family="Helvetica,sans-Serif" font-size="11.00" fill="#000000">347 rows</text>
<polygon fill="#ffffff" stroke="transparent" points="247.5,-222.1824 247.5,-241.1824 276.5,-241.1824 276.5,-222.1824 247.5,-222.1824"/>
<polygon fill="none" stroke="#000000" points="247.5,-222.1824 247.5,-241.1824 276.5,-241.1824 276.5,-222.1824 247.5,-222.1824"/>
<text text-anchor="start" x="257.9053" y="-228.2824" font-family="Helvetica,sans-Serif" font-size="11.00" fill="#000000">9 &gt;</text>
</a>
</g>
</g>
<!-- client&#45;&gt;eworker -->
<g id="edge2" class="edge">
<title>client:w&#45;&gt;eworker:e</title>
<path fill="none" stroke="#000000" d="M661.2834,-323.4035C588.6008,-325.6563 566.8521,-344.6109 488,-356.1824 394.3486,-369.9257 371.1544,-381.1824 276.5,-381.1824"/>
<polygon fill="#000000" stroke="#000000" points="668.0009,-323.3026 676.0541,-326.782 672.0005,-323.2425 676,-323.1824 676,-323.1824 676,-323.1824 672.0005,-323.2425 675.9459,-319.5828 668.0009,-323.3026 668.0009,-323.3026"/>
<ellipse fill="none" stroke="#000000" cx="664.8013" cy="-323.3507" rx="3.2" ry="3.2"/>
</g>
<!-- client&#45;&gt;eworker -->
<g id="edge3" class="edge">
<title>client:w&#45;&gt;eworker:e</title>
<path fill="none" stroke="#000000" d="M661.327,-322.3374C588.825,-319.2014 566.5954,-334.733 488,-346.1824 394.1115,-359.8597 371.3795,-375.1824 276.5,-381.1824"/>
<polygon fill="#000000" stroke="#000000" points="668.0132,-322.7224 675.793,-326.7765 672.0066,-322.9524 676,-323.1824 676,-323.1824 676,-323.1824 672.0066,-322.9524 676.207,-319.5884 668.0132,-322.7224 668.0132,-322.7224"/>
<ellipse fill="none" stroke="#000000" cx="664.8185" cy="-322.5384" rx="3.2" ry="3.2"/>
</g>
<!-- client&#45;&gt;eworker -->
<g id="edge6" class="edge">
<title>client:w&#45;&gt;eworker:e</title>
<path fill="none" stroke="#000000" d="M661.327,-324.5586C588.825,-332.2014 566.5954,-347.733 488,-359.1824 394.1115,-372.8597 371.3795,-388.1824 276.5,-381.1824"/>
<polygon fill="#000000" stroke="#000000" points="668.035,-323.9295 676.3362,-326.7667 672.0175,-323.556 676,-323.1824 676,-323.1824 676,-323.1824 672.0175,-323.556 675.6638,-319.5982 668.035,-323.9295 668.035,-323.9295"/>
<ellipse fill="none" stroke="#000000" cx="664.8489" cy="-324.2284" rx="3.2" ry="3.2"/>
</g>
<!-- principal -->
<g id="node4" class="node">
<title>principal</title>
<g id="a_node4"><a xlink:href="../../tables/principal.html" xlink:title="principal" target="_top">
<polygon fill="#ffffff" stroke="transparent" points="356.5,-62.6824 356.5,-123.6824 448.5,-123.6824 448.5,-62.6824 356.5,-62.6824"/>
<polygon fill="#f5f5f5" stroke="transparent" points="356.5,-100.1824 356.5,-123.1824 448.5,-123.1824 448.5,-100.1824 356.5,-100.1824"/>
<polygon fill="none" stroke="#000000" points="356.5,-100.1824 356.5,-123.1824 448.5,-123.1824 448.5,-100.1824 356.5,-100.1824"/>
<text text-anchor="start" x="361.5" y="-109.2824" font-family="Helvetica,sans-Serif" font-weight="bold" font-size="11.00" fill="#000000">principal</text>
<text text-anchor="start" x="413.5437" y="-108.2824" font-family="Helvetica,sans-Serif" font-size="11.00" fill="#000000">[table]</text>
<polygon fill="none" stroke="#000000" points="356.5,-81.1824 356.5,-100.1824 448.5,-100.1824 448.5,-81.1824 356.5,-81.1824"/>
<text text-anchor="start" x="359.5" y="-87.2824" font-family="Helvetica,sans-Serif" font-size="11.00" fill="#000000">...</text>
<polygon fill="#ffffff" stroke="transparent" points="356.5,-62.1824 356.5,-81.1824 377.5,-81.1824 377.5,-62.1824 356.5,-62.1824"/>
<polygon fill="none" stroke="#000000" points="356.5,-62.1824 356.5,-81.1824 377.5,-81.1824 377.5,-62.1824 356.5,-62.1824"/>
<text text-anchor="start" x="359.2027" y="-68.2824" font-family="Helvetica,sans-Serif" font-size="11.00" fill="#000000">&lt; 1</text>
<polygon fill="#ffffff" stroke="transparent" points="377.5,-62.1824 377.5,-81.1824 421.5,-81.1824 421.5,-62.1824 377.5,-62.1824"/>
<polygon fill="none" stroke="#000000" points="377.5,-62.1824 377.5,-81.1824 421.5,-81.1824 421.5,-62.1824 377.5,-62.1824"/>
<text text-anchor="start" x="380.2478" y="-68.2824" font-family="Helvetica,sans-Serif" font-size="11.00" fill="#000000">18 rows</text>
<polygon fill="#ffffff" stroke="transparent" points="421.5,-62.1824 421.5,-81.1824 448.5,-81.1824 448.5,-62.1824 421.5,-62.1824"/>
<polygon fill="none" stroke="#000000" points="421.5,-62.1824 421.5,-81.1824 448.5,-81.1824 448.5,-62.1824 421.5,-62.1824"/>
<text text-anchor="start" x="424.1452" y="-68.2824" font-family="Helvetica,sans-Serif" font-size="11.00" fill="#000000">56 &gt;</text>
</a>
</g>
</g>
<!-- client&#45;&gt;principal -->
<g id="edge4" class="edge">
<title>client:w&#45;&gt;principal:e</title>
<path fill="none" stroke="#000000" d="M661.4508,-322.5972C584.857,-316.154 575.617,-257.428 521,-192.1824 485.2994,-149.5345 504.1182,-90.1824 448.5,-90.1824"/>
<polygon fill="#000000" stroke="#000000" points="668.0065,-322.8608 675.8553,-326.7795 672.0032,-323.0216 676,-323.1824 676,-323.1824 676,-323.1824 672.0032,-323.0216 676.1447,-319.5853 668.0065,-322.8608 668.0065,-322.8608"/>
<ellipse fill="none" stroke="#000000" cx="664.8091" cy="-322.7322" rx="3.2" ry="3.2"/>
</g>
<!-- client&#45;&gt;principal -->
<g id="edge5" class="edge">
<title>client:w&#45;&gt;principal:e</title>
<path fill="none" stroke="#000000" d="M661.2879,-322.5636C583.9705,-315.7542 576.8857,-253.7861 521,-188.1824 503.0059,-167.0593 504.5412,-157.4617 488,-135.1824 472.1362,-113.8157 475.112,-90.1824 448.5,-90.1824"/>
<polygon fill="#000000" stroke="#000000" points="668.0071,-322.8462 675.8487,-326.7793 672.0035,-323.0143 676,-323.1824 676,-323.1824 676,-323.1824 672.0035,-323.0143 676.1513,-319.5856 668.0071,-322.8462 668.0071,-322.8462"/>
<ellipse fill="none" stroke="#000000" cx="664.8099" cy="-322.7117" rx="3.2" ry="3.2"/>
</g>
<!-- file&#45;&gt;principal -->
<g id="edge12" class="edge">
<title>file:w&#45;&gt;principal:e</title>
<path fill="none" stroke="#000000" d="M515.0748,-143.9212C486.007,-129.074 487.2571,-84.909 448.5,-90.1824"/>
<polygon fill="#000000" stroke="#000000" points="521.3502,-145.8415 527.9466,-151.6249 525.1751,-147.012 529,-148.1824 529,-148.1824 529,-148.1824 525.1751,-147.012 530.0534,-144.74 521.3502,-145.8415 521.3502,-145.8415"/>
<ellipse fill="none" stroke="#000000" cx="518.2902" cy="-144.9051" rx="3.2" ry="3.2"/>
</g>
<!-- file&#45;&gt;principal -->
<g id="edge13" class="edge">
<title>file:w&#45;&gt;principal:e</title>
<path fill="none" stroke="#000000" d="M514.3068,-147.8977C486.026,-141.0768 486.9126,-96.2801 448.5,-90.1824"/>
<polygon fill="#000000" stroke="#000000" points="521.0015,-148.0274 528.9302,-151.7818 525.0008,-148.1049 529,-148.1824 529,-148.1824 529,-148.1824 525.0008,-148.1049 529.0698,-144.5831 521.0015,-148.0274 521.0015,-148.0274"/>
<ellipse fill="none" stroke="#000000" cx="517.8021" cy="-147.9653" rx="3.2" ry="3.2"/>
</g>
<!-- eworker&#45;&gt;file -->
<g id="edge7" class="edge">
<title>eworker:w&#45;&gt;file:e</title>
<path fill="none" stroke="#000000" d="M139.7833,-288.5891C128.1207,-276.5564 143.4157,-243.3445 153.5,-218.6824 192.7534,-122.6845 221.3628,-92.3069 317,-52.1824 387.0819,-22.7796 413.7861,-35.8025 488,-52.1824 554.5043,-66.8607 590.3535,-59.2777 627,-116.6824 634.5333,-128.4829 641,-148.1824 627,-148.1824"/>
<polygon fill="#000000" stroke="#000000" points="145.914,-290.6421 152.3568,-296.5961 149.707,-291.9122 153.5,-293.1824 153.5,-293.1824 153.5,-293.1824 149.707,-291.9122 154.6432,-289.7688 145.914,-290.6421 145.914,-290.6421"/>
<ellipse fill="none" stroke="#000000" cx="142.8797" cy="-289.6259" rx="3.2" ry="3.2"/>
</g>
<!-- eworker&#45;&gt;principal -->
<g id="edge8" class="edge">
<title>eworker:w&#45;&gt;principal:e</title>
<path fill="none" stroke="#000000" d="M142.7186,-368.9634C123.6675,-408.6348 138.3961,-549.3736 284,-419.6824 331.5267,-377.3499 301.0662,-196.8018 317,-135.1824 326.2053,-99.5838 317.9486,-79.1425 348.5,-58.6824 348.5,-58.6824 448.5,-90.1824 448.5,-90.1824"/>
<polygon fill="#000000" stroke="#000000" points="147.5749,-364.5577 155.9189,-361.8487 150.5375,-361.8701 153.5,-359.1824 153.5,-359.1824 153.5,-359.1824 150.5375,-361.8701 151.0811,-356.5161 147.5749,-364.5577 147.5749,-364.5577"/>
<ellipse fill="none" stroke="#000000" cx="145.2049" cy="-366.7078" rx="3.2" ry="3.2"/>
</g>
<!-- eworker&#45;&gt;principal -->
<g id="edge9" class="edge">
<title>eworker:w&#45;&gt;principal:e</title>
<path fill="none" stroke="#000000" d="M144.2752,-348.3923C131.0973,-390.8693 155.802,-533.8699 284,-419.6824 331.5267,-377.3499 301.0662,-196.8018 317,-135.1824 326.2053,-99.5838 317.9486,-79.1425 348.5,-58.6824 348.5,-58.6824 448.5,-90.1824 448.5,-90.1824"/>
<polygon fill="#000000" stroke="#000000" points="148.4166,-343.3598 156.2798,-339.47 150.9583,-340.2711 153.5,-337.1824 153.5,-337.1824 153.5,-337.1824 150.9583,-340.2711 150.7202,-334.8949 148.4166,-343.3598 148.4166,-343.3598"/>
<ellipse fill="none" stroke="#000000" cx="146.3832" cy="-345.8307" rx="3.2" ry="3.2"/>
</g>
<!-- ework_unit -->
<g id="node5" class="node">
<title>ework_unit</title>
<g id="a_node5"><a xlink:href="../../tables/ework_unit.html" xlink:title="ework_unit" target="_top">
<polygon fill="#ffffff" stroke="transparent" points="8,-378.6824 8,-439.6824 104,-439.6824 104,-378.6824 8,-378.6824"/>
<polygon fill="#f5f5f5" stroke="transparent" points="8,-416.1824 8,-439.1824 104,-439.1824 104,-416.1824 8,-416.1824"/>
<polygon fill="none" stroke="#000000" points="8,-416.1824 8,-439.1824 104,-439.1824 104,-416.1824 8,-416.1824"/>
<text text-anchor="start" x="12.9125" y="-425.2824" font-family="Helvetica,sans-Serif" font-weight="bold" font-size="11.00" fill="#000000">ework_unit</text>
<text text-anchor="start" x="69.5219" y="-424.2824" font-family="Helvetica,sans-Serif" font-size="11.00" fill="#000000">[table]</text>
<polygon fill="none" stroke="#000000" points="8,-397.1824 8,-416.1824 104,-416.1824 104,-397.1824 8,-397.1824"/>
<text text-anchor="start" x="11" y="-403.2824" font-family="Helvetica,sans-Serif" font-size="11.00" fill="#000000">...</text>
<polygon fill="#ffffff" stroke="transparent" points="8,-378.1824 8,-397.1824 34,-397.1824 34,-378.1824 8,-378.1824"/>
<polygon fill="none" stroke="#000000" points="8,-378.1824 8,-397.1824 34,-397.1824 34,-378.1824 8,-378.1824"/>
<text text-anchor="start" x="11" y="-384.2824" font-family="Helvetica,sans-Serif" font-size="11.00" fill="#000000">&lt; 1</text>
<polygon fill="#ffffff" stroke="transparent" points="34,-378.1824 34,-397.1824 80,-397.1824 80,-378.1824 34,-378.1824"/>
<polygon fill="none" stroke="#000000" points="34,-378.1824 34,-397.1824 80,-397.1824 80,-378.1824 34,-378.1824"/>
<text text-anchor="start" x="38.4956" y="-384.2824" font-family="Helvetica,sans-Serif" font-size="11.00" fill="#000000">25 rows</text>
<polygon fill="#ffffff" stroke="transparent" points="80,-378.1824 80,-397.1824 104,-397.1824 104,-378.1824 80,-378.1824"/>
<polygon fill="none" stroke="#000000" points="80,-378.1824 80,-397.1824 104,-397.1824 104,-378.1824 80,-378.1824"/>
<text text-anchor="start" x="85.4053" y="-384.2824" font-family="Helvetica,sans-Serif" font-size="11.00" fill="#000000">4 &gt;</text>
</a>
</g>
</g>
<!-- eworker&#45;&gt;ework_unit -->
<g id="edge10" class="edge">
<title>eworker:w&#45;&gt;ework_unit:e</title>
<path fill="none" stroke="#000000" d="M139.0419,-274.5195C103.0274,-295.3084 161.915,-406.1824 104,-406.1824"/>
<polygon fill="#000000" stroke="#000000" points="145.7049,-272.9817 154.3097,-274.6902 149.6025,-272.0821 153.5,-271.1824 153.5,-271.1824 153.5,-271.1824 149.6025,-272.0821 152.6903,-267.6747 145.7049,-272.9817 145.7049,-272.9817"/>
<ellipse fill="none" stroke="#000000" cx="142.5869" cy="-273.7014" rx="3.2" ry="3.2"/>
</g>
<!-- principal&#45;&gt;eworker -->
<g id="edge25" class="edge">
<title>principal:w&#45;&gt;eworker:e</title>
<path fill="none" stroke="#000000" d="M342.2734,-93.0023C328.7552,-99.494 325.8891,-116.3879 317,-135.1824 293.3124,-185.2658 331.9026,-381.1824 276.5,-381.1824"/>
<polygon fill="#000000" stroke="#000000" points="348.6527,-91.7379 357.2,-93.7137 352.5763,-90.9602 356.5,-90.1824 356.5,-90.1824 356.5,-90.1824 352.5763,-90.9602 355.8,-86.6511 348.6527,-91.7379 348.6527,-91.7379"/>
<ellipse fill="none" stroke="#000000" cx="345.5137" cy="-92.3601" rx="3.2" ry="3.2"/>
</g>
<!-- eworker_role -->
<g id="node6" class="node">
<title>eworker_role</title>
<g id="a_node6"><a xlink:href="../../tables/eworker_role.html" xlink:title="eworker_role" target="_top">
<polygon fill="#ffffff" stroke="transparent" points="349.5,-456.6824 349.5,-517.6824 455.5,-517.6824 455.5,-456.6824 349.5,-456.6824"/>
<polygon fill="#f5f5f5" stroke="transparent" points="349.5,-494.1824 349.5,-517.1824 455.5,-517.1824 455.5,-494.1824 349.5,-494.1824"/>
<polygon fill="none" stroke="#000000" points="349.5,-494.1824 349.5,-517.1824 455.5,-517.1824 455.5,-494.1824 349.5,-494.1824"/>
<text text-anchor="start" x="354.2216" y="-503.2824" font-family="Helvetica,sans-Serif" font-weight="bold" font-size="11.00" fill="#000000">eworker_role</text>
<text text-anchor="start" x="421.0219" y="-502.2824" font-family="Helvetica,sans-Serif" font-size="11.00" fill="#000000">[table]</text>
<polygon fill="none" stroke="#000000" points="349.5,-475.1824 349.5,-494.1824 455.5,-494.1824 455.5,-475.1824 349.5,-475.1824"/>
<text text-anchor="start" x="352.5" y="-481.2824" font-family="Helvetica,sans-Serif" font-size="11.00" fill="#000000">...</text>
<polygon fill="#ffffff" stroke="transparent" points="349.5,-456.1824 349.5,-475.1824 387.5,-475.1824 387.5,-456.1824 349.5,-456.1824"/>
<polygon fill="none" stroke="#000000" points="349.5,-456.1824 349.5,-475.1824 387.5,-475.1824 387.5,-456.1824 349.5,-456.1824"/>
<text text-anchor="start" x="352.5" y="-462.2824" font-family="Helvetica,sans-Serif" font-size="11.00" fill="#000000">&lt; 1</text>
<polygon fill="#ffffff" stroke="transparent" points="387.5,-456.1824 387.5,-475.1824 434.5,-475.1824 434.5,-456.1824 387.5,-456.1824"/>
<polygon fill="none" stroke="#000000" points="387.5,-456.1824 387.5,-475.1824 434.5,-475.1824 434.5,-456.1824 387.5,-456.1824"/>
<text text-anchor="start" x="399.1105" y="-462.2824" font-family="Helvetica,sans-Serif" font-size="11.00" fill="#000000">0 rows</text>
<polygon fill="#ffffff" stroke="transparent" points="434.5,-456.1824 434.5,-475.1824 455.5,-475.1824 455.5,-456.1824 434.5,-456.1824"/>
<polygon fill="none" stroke="#000000" points="434.5,-456.1824 434.5,-475.1824 455.5,-475.1824 455.5,-456.1824 434.5,-456.1824"/>
<text text-anchor="start" x="446.3862" y="-462.2824" font-family="Helvetica,sans-Serif" font-size="11.00" fill="#000000"> &#160;</text>
</a>
</g>
</g>
<!-- eworker_role&#45;&gt;eworker -->
<g id="edge11" class="edge">
<title>eworker_role:w&#45;&gt;eworker:e</title>
<path fill="none" stroke="#000000" d="M335.1544,-481.2109C300.3737,-464.323 326.9106,-381.1824 276.5,-381.1824"/>
<polygon fill="#000000" stroke="#000000" points="341.6663,-482.5597 348.7698,-487.7076 345.5831,-483.3711 349.5,-484.1824 349.5,-484.1824 349.5,-484.1824 345.5831,-483.3711 350.2302,-480.6573 341.6663,-482.5597 341.6663,-482.5597"/>
<ellipse fill="none" stroke="#000000" cx="338.5328" cy="-481.9107" rx="3.2" ry="3.2"/>
</g>
<!-- job_request -->
<g id="node7" class="node">
<title>job_request</title>
<g id="a_node7"><a xlink:href="../../tables/job_request.html" xlink:title="job_request" target="_top">
<polygon fill="#ffffff" stroke="transparent" points="817,-359.6824 817,-420.6824 917,-420.6824 917,-359.6824 817,-359.6824"/>
<polygon fill="#f5f5f5" stroke="transparent" points="817,-397.1824 817,-420.1824 917,-420.1824 917,-397.1824 817,-397.1824"/>
<polygon fill="none" stroke="#000000" points="817,-397.1824 817,-420.1824 917,-420.1824 917,-397.1824 817,-397.1824"/>
<text text-anchor="start" x="821.768" y="-406.2824" font-family="Helvetica,sans-Serif" font-weight="bold" font-size="11.00" fill="#000000">job_request</text>
<text text-anchor="start" x="882.5219" y="-405.2824" font-family="Helvetica,sans-Serif" font-size="11.00" fill="#000000">[table]</text>
<polygon fill="none" stroke="#000000" points="817,-378.1824 817,-397.1824 917,-397.1824 917,-378.1824 817,-378.1824"/>
<text text-anchor="start" x="820" y="-384.2824" font-family="Helvetica,sans-Serif" font-size="11.00" fill="#000000">...</text>
<polygon fill="#ffffff" stroke="transparent" points="817,-359.1824 817,-378.1824 845,-378.1824 845,-359.1824 817,-359.1824"/>
<polygon fill="none" stroke="#000000" points="817,-359.1824 817,-378.1824 845,-378.1824 845,-359.1824 817,-359.1824"/>
<text text-anchor="start" x="820" y="-365.2824" font-family="Helvetica,sans-Serif" font-size="11.00" fill="#000000">&lt; 11</text>
<polygon fill="#ffffff" stroke="transparent" points="845,-359.1824 845,-378.1824 895,-378.1824 895,-359.1824 845,-359.1824"/>
<polygon fill="none" stroke="#000000" points="845,-359.1824 845,-378.1824 895,-378.1824 895,-359.1824 845,-359.1824"/>
<text text-anchor="start" x="847.6904" y="-365.2824" font-family="Helvetica,sans-Serif" font-size="11.00" fill="#000000">254 rows</text>
<polygon fill="#ffffff" stroke="transparent" points="895,-359.1824 895,-378.1824 917,-378.1824 917,-359.1824 895,-359.1824"/>
<polygon fill="none" stroke="#000000" points="895,-359.1824 895,-378.1824 917,-378.1824 917,-359.1824 895,-359.1824"/>
<text text-anchor="start" x="898.4053" y="-365.2824" font-family="Helvetica,sans-Serif" font-size="11.00" fill="#000000">7 &gt;</text>
</a>
</g>
</g>
<!-- job_request&#45;&gt;client -->
<g id="edge14" class="edge">
<title>job_request:w&#45;&gt;client:e</title>
<path fill="none" stroke="#000000" d="M803.1165,-382.1605C787.2339,-367.0731 797.6667,-323.1824 768,-323.1824"/>
<polygon fill="#000000" stroke="#000000" points="809.477,-384.4612 815.7754,-390.5678 813.2385,-385.8218 817,-387.1824 817,-387.1824 817,-387.1824 813.2385,-385.8218 818.2246,-383.7971 809.477,-384.4612 809.477,-384.4612"/>
<ellipse fill="none" stroke="#000000" cx="806.4678" cy="-383.3727" rx="3.2" ry="3.2"/>
</g>
<!-- job_request&#45;&gt;eworker -->
<g id="edge15" class="edge">
<title>job_request:w&#45;&gt;eworker:e</title>
<path fill="none" stroke="#000000" d="M802.6445,-389.1349C794.3846,-391.5881 788.6574,-395.6612 776,-397.1824 728.343,-402.9103 715.9951,-397.866 668,-397.1824 511.9525,-394.96 472.4624,-400.8641 317,-387.1824 298.8736,-385.5872 294.6965,-381.1824 276.5,-381.1824"/>
<polygon fill="#000000" stroke="#000000" points="809.073,-388.2606 817.4852,-390.7496 813.0365,-387.7215 817,-387.1824 817,-387.1824 817,-387.1824 813.0365,-387.7215 816.5148,-383.6153 809.073,-388.2606 809.073,-388.2606"/>
<ellipse fill="none" stroke="#000000" cx="805.9022" cy="-388.6919" rx="3.2" ry="3.2"/>
</g>
<!-- job_request&#45;&gt;eworker -->
<g id="edge17" class="edge">
<title>job_request:w&#45;&gt;eworker:e</title>
<path fill="none" stroke="#000000" d="M802.4565,-388.4064C794.2933,-389.8845 788.3408,-392.2842 776,-393.1824 728.1266,-396.6668 715.9951,-393.866 668,-393.1824 511.9525,-390.96 472.9452,-389.2537 317,-383.1824 298.9917,-382.4813 294.5219,-381.1824 276.5,-381.1824"/>
<polygon fill="#000000" stroke="#000000" points="809.0282,-387.8534 817.3019,-390.7698 813.0141,-387.5179 817,-387.1824 817,-387.1824 817,-387.1824 813.0141,-387.5179 816.6981,-383.5951 809.0282,-387.8534 809.0282,-387.8534"/>
<ellipse fill="none" stroke="#000000" cx="805.8395" cy="-388.1217" rx="3.2" ry="3.2"/>
</g>
<!-- job_request&#45;&gt;principal -->
<g id="edge16" class="edge">
<title>job_request:w&#45;&gt;principal:e</title>
<path fill="none" stroke="#000000" d="M802.2977,-387.1671C670.0743,-386.843 599.4439,-380.2624 521,-268.1824 472.019,-198.1989 533.9215,-90.1824 448.5,-90.1824"/>
<polygon fill="#000000" stroke="#000000" points="809,-387.174 816.9962,-390.7824 813,-387.1782 817,-387.1824 817,-387.1824 817,-387.1824 813,-387.1782 817.0038,-383.5824 809,-387.174 809,-387.174"/>
<ellipse fill="none" stroke="#000000" cx="805.8" cy="-387.1707" rx="3.2" ry="3.2"/>
</g>
<!-- job_request&#45;&gt;principal -->
<g id="edge18" class="edge">
<title>job_request:w&#45;&gt;principal:e</title>
<path fill="none" stroke="#000000" d="M802.2307,-387.1562C669.4296,-386.6351 599.1814,-377.2357 521,-264.1824 473.3484,-195.2764 532.2778,-90.1824 448.5,-90.1824"/>
<polygon fill="#000000" stroke="#000000" points="809,-387.1682 816.9936,-390.7824 813,-387.1753 817,-387.1824 817,-387.1824 817,-387.1824 813,-387.1753 817.0064,-383.5824 809,-387.1682 809,-387.1682"/>
<ellipse fill="none" stroke="#000000" cx="805.8" cy="-387.1625" rx="3.2" ry="3.2"/>
</g>
<!-- job_request&#45;&gt;ework_unit -->
<g id="edge19" class="edge">
<title>job_request:w&#45;&gt;ework_unit:e</title>
<path fill="none" stroke="#000000" d="M803.8356,-393.2586C754.4856,-421.9159 591.9402,-542.1824 578,-542.1824 578,-542.1824 578,-542.1824 402.5,-542.1824 363.9939,-542.1824 353.2859,-541.0683 317,-528.1824 304.1493,-523.6189 117.6369,-406.1824 104,-406.1824"/>
<polygon fill="#000000" stroke="#000000" points="809.7364,-390.5351 818.5087,-390.4511 813.3682,-388.8588 817,-387.1824 817,-387.1824 817,-387.1824 813.3682,-388.8588 815.4913,-383.9138 809.7364,-390.5351 809.7364,-390.5351"/>
<ellipse fill="none" stroke="#000000" cx="806.8309" cy="-391.8761" rx="3.2" ry="3.2"/>
</g>
<!-- presentation -->
<g id="node8" class="node">
<title>presentation</title>
<g id="a_node8"><a xlink:href="../../tables/presentation.html" xlink:title="presentation" target="_top">
<polygon fill="#ffffff" stroke="transparent" points="966,-295.6824 966,-356.6824 1069,-356.6824 1069,-295.6824 966,-295.6824"/>
<polygon fill="#f5f5f5" stroke="transparent" points="966.5,-333.1824 966.5,-356.1824 1069.5,-356.1824 1069.5,-333.1824 966.5,-333.1824"/>
<polygon fill="none" stroke="#000000" points="966.5,-333.1824 966.5,-356.1824 1069.5,-356.1824 1069.5,-333.1824 966.5,-333.1824"/>
<text text-anchor="start" x="971.2396" y="-342.2824" font-family="Helvetica,sans-Serif" font-weight="bold" font-size="11.00" fill="#000000">presentation</text>
<text text-anchor="start" x="1035.0219" y="-341.2824" font-family="Helvetica,sans-Serif" font-size="11.00" fill="#000000">[table]</text>
<polygon fill="none" stroke="#000000" points="966.5,-314.1824 966.5,-333.1824 1069.5,-333.1824 1069.5,-314.1824 966.5,-314.1824"/>
<text text-anchor="start" x="969.5" y="-320.2824" font-family="Helvetica,sans-Serif" font-size="11.00" fill="#000000">...</text>
<polygon fill="#ffffff" stroke="transparent" points="966.5,-295.1824 966.5,-314.1824 995.5,-314.1824 995.5,-295.1824 966.5,-295.1824"/>
<polygon fill="none" stroke="#000000" points="966.5,-295.1824 966.5,-314.1824 995.5,-314.1824 995.5,-295.1824 966.5,-295.1824"/>
<text text-anchor="start" x="969.5" y="-301.2824" font-family="Helvetica,sans-Serif" font-size="11.00" fill="#000000">&lt; 5</text>
<polygon fill="#ffffff" stroke="transparent" points="995.5,-295.1824 995.5,-314.1824 1043.5,-314.1824 1043.5,-295.1824 995.5,-295.1824"/>
<polygon fill="none" stroke="#000000" points="995.5,-295.1824 995.5,-314.1824 1043.5,-314.1824 1043.5,-295.1824 995.5,-295.1824"/>
<text text-anchor="start" x="1001.9956" y="-301.2824" font-family="Helvetica,sans-Serif" font-size="11.00" fill="#000000">16 rows</text>
<polygon fill="#ffffff" stroke="transparent" points="1043.5,-295.1824 1043.5,-314.1824 1069.5,-314.1824 1069.5,-295.1824 1043.5,-295.1824"/>
<polygon fill="none" stroke="#000000" points="1043.5,-295.1824 1043.5,-314.1824 1069.5,-314.1824 1069.5,-295.1824 1043.5,-295.1824"/>
<text text-anchor="start" x="1050.9053" y="-301.2824" font-family="Helvetica,sans-Serif" font-size="11.00" fill="#000000">2 &gt;</text>
</a>
</g>
</g>
<!-- presentation&#45;&gt;client -->
<g id="edge24" class="edge">
<title>presentation:w&#45;&gt;client:e</title>
<path fill="none" stroke="#000000" d="M951.6471,-323.1824C875.466,-323.1824 851.053,-323.1824 768,-323.1824"/>
<polygon fill="#000000" stroke="#000000" points="958.5,-323.1825 966.5,-326.7824 962.5,-323.1825 966.5,-323.1824 966.5,-323.1824 966.5,-323.1824 962.5,-323.1825 966.5,-319.5824 958.5,-323.1825 958.5,-323.1825"/>
<ellipse fill="none" stroke="#000000" cx="955.3" cy="-323.1825" rx="3.2" ry="3.2"/>
</g>
<!-- presentation&#45;&gt;eworker -->
<g id="edge23" class="edge">
<title>presentation:w&#45;&gt;eworker:e</title>
<path fill="none" stroke="#000000" d="M951.9331,-325.7707C923.5167,-338.4009 951.6638,-394.4426 925,-431.1824 860.9212,-519.4759 831.0955,-569.1824 722,-569.1824 722,-569.1824 722,-569.1824 578,-569.1824 460.5775,-569.1824 404.5875,-606.3904 317,-528.1824 266.451,-483.0466 344.2676,-381.1824 276.5,-381.1824"/>
<polygon fill="#000000" stroke="#000000" points="958.6234,-324.582 967.1298,-326.7269 962.5617,-323.8822 966.5,-323.1824 966.5,-323.1824 966.5,-323.1824 962.5617,-323.8822 965.8702,-319.638 958.6234,-324.582 958.6234,-324.582"/>
<ellipse fill="none" stroke="#000000" cx="955.4727" cy="-325.1418" rx="3.2" ry="3.2"/>
</g>
<!-- presentation&#45;&gt;principal -->
<g id="edge20" class="edge">
<title>presentation:w&#45;&gt;principal:e</title>
<path fill="none" stroke="#000000" d="M952.0556,-322.8158C791.7328,-314.4937 795.4829,-166.7652 635,-110.1824 556.3795,-82.4626 531.8641,-90.1824 448.5,-90.1824"/>
<polygon fill="#000000" stroke="#000000" points="958.5026,-322.9794 966.4086,-326.7813 962.5013,-323.0809 966.5,-323.1824 966.5,-323.1824 966.5,-323.1824 962.5013,-323.0809 966.5914,-319.5836 958.5026,-322.9794 958.5026,-322.9794"/>
<ellipse fill="none" stroke="#000000" cx="955.3036" cy="-322.8981" rx="3.2" ry="3.2"/>
</g>
<!-- presentation&#45;&gt;principal -->
<g id="edge22" class="edge">
<title>presentation:w&#45;&gt;principal:e</title>
<path fill="none" stroke="#000000" d="M951.6486,-322.8021C792.5675,-314.4684 794.0914,-171.4008 635,-114.1824 556.3592,-85.8987 532.0724,-90.1824 448.5,-90.1824"/>
<polygon fill="#000000" stroke="#000000" points="958.5026,-322.9776 966.4078,-326.7813 962.5013,-323.08 966.5,-323.1824 966.5,-323.1824 966.5,-323.1824 962.5013,-323.08 966.5922,-319.5836 958.5026,-322.9776 958.5026,-322.9776"/>
<ellipse fill="none" stroke="#000000" cx="955.3037" cy="-322.8956" rx="3.2" ry="3.2"/>
</g>
<!-- presentation&#45;&gt;job_request -->
<g id="edge21" class="edge">
<title>presentation:w&#45;&gt;job_request:e</title>
<path fill="none" stroke="#000000" d="M956.0752,-325.6132C934.9932,-337.3035 948.7455,-387.1824 917,-387.1824"/>
<polygon fill="#000000" stroke="#000000" points="964.8126,-319.4686 966.6292,-327.2596 965.071,-327.6229 963.2544,-319.8319 964.8126,-319.4686"/>
<polyline fill="none" stroke="#000000" points="966.5,-323.1824 962.6045,-324.0908 "/>
<ellipse fill="none" stroke="#000000" cx="959.4881" cy="-324.8174" rx="3.2" ry="3.2"/>
</g>
<!-- token -->
<g id="node9" class="node">
<title>token</title>
<g id="a_node9"><a xlink:href="../../tables/token.html" xlink:title="token" target="_top">
<polygon fill="#ffffff" stroke="transparent" points="325,-145.1824 325,-345.1824 480,-345.1824 480,-145.1824 325,-145.1824"/>
<polygon fill="#f5f5f5" stroke="transparent" points="327.5,-320.1824 327.5,-343.1824 478.5,-343.1824 478.5,-320.1824 327.5,-320.1824"/>
<polygon fill="none" stroke="#000000" points="327.5,-320.1824 327.5,-343.1824 478.5,-343.1824 478.5,-320.1824 327.5,-320.1824"/>
<text text-anchor="start" x="332.5" y="-329.2824" font-family="Helvetica,sans-Serif" font-weight="bold" font-size="11.00" fill="#000000">token</text>
<text text-anchor="start" x="443.5437" y="-328.2824" font-family="Helvetica,sans-Serif" font-size="11.00" fill="#000000">[table]</text>
<polygon fill="none" stroke="#000000" points="327.5,-298.1824 327.5,-320.1824 411.5,-320.1824 411.5,-298.1824 327.5,-298.1824"/>
<image xlink:href="../../images/primaryKeys.png" width="11px" height="12px" preserveAspectRatio="xMinYMin meet" x="332.5" y="-315.182"/>
<text text-anchor="start" x="347.5" y="-305.2824" font-family="Helvetica,sans-Serif" font-size="11.00" fill="#000000">id</text>
<polygon fill="none" stroke="#000000" points="411.5,-298.1824 411.5,-320.1824 478.5,-320.1824 478.5,-298.1824 411.5,-298.1824"/>
<text text-anchor="start" x="414.5" y="-305.8824" font-family="Helvetica,sans-Serif" font-size="11.00" fill="#000000">bigint[19]</text>
<polygon fill="none" stroke="#000000" points="327.5,-276.1824 327.5,-298.1824 411.5,-298.1824 411.5,-276.1824 327.5,-276.1824"/>
<text text-anchor="start" x="347.5" y="-283.2824" font-family="Helvetica,sans-Serif" font-size="11.00" fill="#000000">created</text>
<polygon fill="none" stroke="#000000" points="411.5,-276.1824 411.5,-298.1824 478.5,-298.1824 478.5,-276.1824 411.5,-276.1824"/>
<text text-anchor="start" x="414.5" y="-283.8824" font-family="Helvetica,sans-Serif" font-size="11.00" fill="#000000">datetime[26]</text>
<polygon fill="none" stroke="#000000" points="327.5,-254.1824 327.5,-276.1824 411.5,-276.1824 411.5,-254.1824 327.5,-254.1824"/>
<text text-anchor="start" x="347.5" y="-261.2824" font-family="Helvetica,sans-Serif" font-size="11.00" fill="#000000">expires_on</text>
<polygon fill="none" stroke="#000000" points="411.5,-254.1824 411.5,-276.1824 478.5,-276.1824 478.5,-254.1824 411.5,-254.1824"/>
<text text-anchor="start" x="414.5" y="-261.8824" font-family="Helvetica,sans-Serif" font-size="11.00" fill="#000000">datetime[26]</text>
<polygon fill="#ffffff" stroke="transparent" points="327.5,-232.1824 327.5,-254.1824 411.5,-254.1824 411.5,-232.1824 327.5,-232.1824"/>
<polygon fill="none" stroke="#000000" points="327.5,-232.1824 327.5,-254.1824 411.5,-254.1824 411.5,-232.1824 327.5,-232.1824"/>
<text text-anchor="start" x="347.5" y="-239.2824" font-family="Helvetica,sans-Serif" font-size="11.00" fill="#000000">token</text>
<polygon fill="none" stroke="#000000" points="411.5,-232.1824 411.5,-254.1824 478.5,-254.1824 478.5,-232.1824 411.5,-232.1824"/>
<text text-anchor="start" x="414.4365" y="-239.8824" font-family="Helvetica,sans-Serif" font-size="11.00" fill="#000000">varchar[100]</text>
<polygon fill="none" stroke="#000000" points="327.5,-210.1824 327.5,-232.1824 411.5,-232.1824 411.5,-210.1824 327.5,-210.1824"/>
<text text-anchor="start" x="347.5" y="-217.2824" font-family="Helvetica,sans-Serif" font-size="11.00" fill="#000000">type</text>
<polygon fill="none" stroke="#000000" points="411.5,-210.1824 411.5,-232.1824 478.5,-232.1824 478.5,-210.1824 411.5,-210.1824"/>
<text text-anchor="start" x="414.4365" y="-217.8824" font-family="Helvetica,sans-Serif" font-size="11.00" fill="#000000">varchar[255]</text>
<polygon fill="none" stroke="#000000" points="327.5,-188.1824 327.5,-210.1824 411.5,-210.1824 411.5,-188.1824 327.5,-188.1824"/>
<text text-anchor="start" x="347.5" y="-195.2824" font-family="Helvetica,sans-Serif" font-size="11.00" fill="#000000">used</text>
<polygon fill="none" stroke="#000000" points="411.5,-188.1824 411.5,-210.1824 478.5,-210.1824 478.5,-188.1824 411.5,-188.1824"/>
<text text-anchor="start" x="414.5" y="-195.8824" font-family="Helvetica,sans-Serif" font-size="11.00" fill="#000000">bit[1]</text>
<polygon fill="#ffffff" stroke="transparent" points="327.5,-166.1824 327.5,-188.1824 411.5,-188.1824 411.5,-166.1824 327.5,-166.1824"/>
<polygon fill="none" stroke="#000000" points="327.5,-166.1824 327.5,-188.1824 411.5,-188.1824 411.5,-166.1824 327.5,-166.1824"/>
<image xlink:href="../../images/foreignKeys.png" width="11px" height="12px" preserveAspectRatio="xMinYMin meet" x="332.5" y="-183.182"/>
<text text-anchor="start" x="347.5" y="-173.2824" font-family="Helvetica,sans-Serif" font-size="11.00" fill="#000000">eworker_id</text>
<polygon fill="none" stroke="#000000" points="411.5,-166.1824 411.5,-188.1824 478.5,-188.1824 478.5,-166.1824 411.5,-166.1824"/>
<text text-anchor="start" x="414.5" y="-173.8824" font-family="Helvetica,sans-Serif" font-size="11.00" fill="#000000">bigint[19]</text>
<polygon fill="#ffffff" stroke="transparent" points="327.5,-147.1824 327.5,-166.1824 360.5,-166.1824 360.5,-147.1824 327.5,-147.1824"/>
<polygon fill="none" stroke="#000000" points="327.5,-147.1824 327.5,-166.1824 360.5,-166.1824 360.5,-147.1824 327.5,-147.1824"/>
<text text-anchor="start" x="330.5" y="-153.2824" font-family="Helvetica,sans-Serif" font-size="11.00" fill="#000000">&lt; 1</text>
<polygon fill="#ffffff" stroke="transparent" points="360.5,-147.1824 360.5,-166.1824 411.5,-166.1824 411.5,-147.1824 360.5,-147.1824"/>
<polygon fill="none" stroke="#000000" points="360.5,-147.1824 360.5,-166.1824 411.5,-166.1824 411.5,-147.1824 360.5,-147.1824"/>
<text text-anchor="start" x="376.1105" y="-153.2824" font-family="Helvetica,sans-Serif" font-size="11.00" fill="#000000">0 rows</text>
<polygon fill="#ffffff" stroke="transparent" points="411.5,-147.1824 411.5,-166.1824 478.5,-166.1824 478.5,-147.1824 411.5,-147.1824"/>
<polygon fill="none" stroke="#000000" points="411.5,-147.1824 411.5,-166.1824 478.5,-166.1824 478.5,-147.1824 411.5,-147.1824"/>
<text text-anchor="start" x="459.9053" y="-153.2824" font-family="Helvetica,sans-Serif" font-size="11.00" fill="#000000">0 &gt;</text>
<polygon fill="none" stroke="#000000" stroke-width="2" points="326,-146.1824 326,-344.1824 479,-344.1824 479,-146.1824 326,-146.1824"/>
</a>
</g>
</g>
<!-- token&#45;&gt;eworker -->
<g id="edge26" class="edge">
<title>token:w&#45;&gt;eworker:e</title>
<path fill="none" stroke="#000000" d="M312.9452,-179.3354C249.6604,-201.1377 364.2985,-381.1824 276.5,-381.1824"/>
<polygon fill="#000000" stroke="#000000" points="319.5861,-178.3531 328.0268,-180.7437 323.5431,-177.7678 327.5,-177.1824 327.5,-177.1824 327.5,-177.1824 323.5431,-177.7678 326.9732,-173.6212 319.5861,-178.3531 319.5861,-178.3531"/>
<ellipse fill="none" stroke="#000000" cx="316.4206" cy="-178.8214" rx="3.2" ry="3.2"/>
</g>
</g>
</svg>
