<?xml version="1.0" encoding="UTF-8" standalone="no"?>
<!DOCTYPE svg PUBLIC "-//W3C//DTD SVG 1.1//EN"
 "http://www.w3.org/Graphics/SVG/1.1/DTD/svg11.dtd">
<!-- Generated by graphviz version 2.40.1 (20161225.0304)
 -->
<!-- Title: oneDegreeRelationshipsDiagram Pages: 1 -->
<svg width="351pt" height="377pt"
 viewBox="0.00 0.00 351.00 376.70" xmlns="http://www.w3.org/2000/svg" xmlns:xlink="http://www.w3.org/1999/xlink">
<g id="graph0" class="graph" transform="scale(1 1) rotate(0) translate(4 372.7)">
<title>oneDegreeRelationshipsDiagram</title>
<polygon fill="#ffffff" stroke="transparent" points="-4,4 -4,-372.7 347,-372.7 347,4 -4,4"/>
<text text-anchor="middle" x="72.4936" y="-7.3" font-family="Helvetica,sans-Serif" font-size="11.00" fill="#000000">Generated by SchemaSpy</text>
<!-- token -->
<g id="node1" class="node">
<title>token</title>
<g id="a_node1"><a xlink:href="../../tables/token.html" xlink:title="token" target="_top">
<polygon fill="#ffffff" stroke="transparent" points="180,-164.7 180,-364.7 335,-364.7 335,-164.7 180,-164.7"/>
<polygon fill="#f5f5f5" stroke="transparent" points="182.5,-339.7 182.5,-362.7 333.5,-362.7 333.5,-339.7 182.5,-339.7"/>
<polygon fill="none" stroke="#000000" points="182.5,-339.7 182.5,-362.7 333.5,-362.7 333.5,-339.7 182.5,-339.7"/>
<text text-anchor="start" x="187.5" y="-348.8" font-family="Helvetica,sans-Serif" font-weight="bold" font-size="11.00" fill="#000000">token</text>
<text text-anchor="start" x="298.5437" y="-347.8" font-family="Helvetica,sans-Serif" font-size="11.00" fill="#000000">[table]</text>
<polygon fill="none" stroke="#000000" points="182.5,-317.7 182.5,-339.7 266.5,-339.7 266.5,-317.7 182.5,-317.7"/>
<image xlink:href="../../images/primaryKeys.png" width="11px" height="12px" preserveAspectRatio="xMinYMin meet" x="187.5" y="-334.7"/>
<text text-anchor="start" x="202.5" y="-324.8" font-family="Helvetica,sans-Serif" font-size="11.00" fill="#000000">id</text>
<polygon fill="none" stroke="#000000" points="266.5,-317.7 266.5,-339.7 333.5,-339.7 333.5,-317.7 266.5,-317.7"/>
<text text-anchor="start" x="269.5" y="-325.4" font-family="Helvetica,sans-Serif" font-size="11.00" fill="#000000">bigint[19]</text>
<polygon fill="none" stroke="#000000" points="182.5,-295.7 182.5,-317.7 266.5,-317.7 266.5,-295.7 182.5,-295.7"/>
<text text-anchor="start" x="202.5" y="-302.8" font-family="Helvetica,sans-Serif" font-size="11.00" fill="#000000">created</text>
<polygon fill="none" stroke="#000000" points="266.5,-295.7 266.5,-317.7 333.5,-317.7 333.5,-295.7 266.5,-295.7"/>
<text text-anchor="start" x="269.5" y="-303.4" font-family="Helvetica,sans-Serif" font-size="11.00" fill="#000000">datetime[26]</text>
<polygon fill="none" stroke="#000000" points="182.5,-273.7 182.5,-295.7 266.5,-295.7 266.5,-273.7 182.5,-273.7"/>
<text text-anchor="start" x="202.5" y="-280.8" font-family="Helvetica,sans-Serif" font-size="11.00" fill="#000000">expires_on</text>
<polygon fill="none" stroke="#000000" points="266.5,-273.7 266.5,-295.7 333.5,-295.7 333.5,-273.7 266.5,-273.7"/>
<text text-anchor="start" x="269.5" y="-281.4" font-family="Helvetica,sans-Serif" font-size="11.00" fill="#000000">datetime[26]</text>
<polygon fill="#ffffff" stroke="transparent" points="182.5,-251.7 182.5,-273.7 266.5,-273.7 266.5,-251.7 182.5,-251.7"/>
<polygon fill="none" stroke="#000000" points="182.5,-251.7 182.5,-273.7 266.5,-273.7 266.5,-251.7 182.5,-251.7"/>
<text text-anchor="start" x="202.5" y="-258.8" font-family="Helvetica,sans-Serif" font-size="11.00" fill="#000000">token</text>
<polygon fill="none" stroke="#000000" points="266.5,-251.7 266.5,-273.7 333.5,-273.7 333.5,-251.7 266.5,-251.7"/>
<text text-anchor="start" x="269.4365" y="-259.4" font-family="Helvetica,sans-Serif" font-size="11.00" fill="#000000">varchar[100]</text>
<polygon fill="none" stroke="#000000" points="182.5,-229.7 182.5,-251.7 266.5,-251.7 266.5,-229.7 182.5,-229.7"/>
<text text-anchor="start" x="202.5" y="-236.8" font-family="Helvetica,sans-Serif" font-size="11.00" fill="#000000">type</text>
<polygon fill="none" stroke="#000000" points="266.5,-229.7 266.5,-251.7 333.5,-251.7 333.5,-229.7 266.5,-229.7"/>
<text text-anchor="start" x="269.4365" y="-237.4" font-family="Helvetica,sans-Serif" font-size="11.00" fill="#000000">varchar[255]</text>
<polygon fill="none" stroke="#000000" points="182.5,-207.7 182.5,-229.7 266.5,-229.7 266.5,-207.7 182.5,-207.7"/>
<text text-anchor="start" x="202.5" y="-214.8" font-family="Helvetica,sans-Serif" font-size="11.00" fill="#000000">used</text>
<polygon fill="none" stroke="#000000" points="266.5,-207.7 266.5,-229.7 333.5,-229.7 333.5,-207.7 266.5,-207.7"/>
<text text-anchor="start" x="269.5" y="-215.4" font-family="Helvetica,sans-Serif" font-size="11.00" fill="#000000">bit[1]</text>
<polygon fill="#ffffff" stroke="transparent" points="182.5,-185.7 182.5,-207.7 266.5,-207.7 266.5,-185.7 182.5,-185.7"/>
<polygon fill="none" stroke="#000000" points="182.5,-185.7 182.5,-207.7 266.5,-207.7 266.5,-185.7 182.5,-185.7"/>
<image xlink:href="../../images/foreignKeys.png" width="11px" height="12px" preserveAspectRatio="xMinYMin meet" x="187.5" y="-202.7"/>
<text text-anchor="start" x="202.5" y="-192.8" font-family="Helvetica,sans-Serif" font-size="11.00" fill="#000000">eworker_id</text>
<polygon fill="none" stroke="#000000" points="266.5,-185.7 266.5,-207.7 333.5,-207.7 333.5,-185.7 266.5,-185.7"/>
<text text-anchor="start" x="269.5" y="-193.4" font-family="Helvetica,sans-Serif" font-size="11.00" fill="#000000">bigint[19]</text>
<polygon fill="#ffffff" stroke="transparent" points="182.5,-166.7 182.5,-185.7 215.5,-185.7 215.5,-166.7 182.5,-166.7"/>
<polygon fill="none" stroke="#000000" points="182.5,-166.7 182.5,-185.7 215.5,-185.7 215.5,-166.7 182.5,-166.7"/>
<text text-anchor="start" x="185.5" y="-172.8" font-family="Helvetica,sans-Serif" font-size="11.00" fill="#000000">&lt; 1</text>
<polygon fill="#ffffff" stroke="transparent" points="215.5,-166.7 215.5,-185.7 266.5,-185.7 266.5,-166.7 215.5,-166.7"/>
<polygon fill="none" stroke="#000000" points="215.5,-166.7 215.5,-185.7 266.5,-185.7 266.5,-166.7 215.5,-166.7"/>
<text text-anchor="start" x="231.1105" y="-172.8" font-family="Helvetica,sans-Serif" font-size="11.00" fill="#000000">0 rows</text>
<polygon fill="#ffffff" stroke="transparent" points="266.5,-166.7 266.5,-185.7 333.5,-185.7 333.5,-166.7 266.5,-166.7"/>
<polygon fill="none" stroke="#000000" points="266.5,-166.7 266.5,-185.7 333.5,-185.7 333.5,-166.7 266.5,-166.7"/>
<text text-anchor="start" x="314.9053" y="-172.8" font-family="Helvetica,sans-Serif" font-size="11.00" fill="#000000">0 &gt;</text>
<polygon fill="none" stroke="#000000" stroke-width="2" points="181,-165.7 181,-363.7 334,-363.7 334,-165.7 181,-165.7"/>
</a>
</g>
</g>
<!-- eworker -->
<g id="node2" class="node">
<title>eworker</title>
<g id="a_node2"><a xlink:href="../../tables/eworker.html" xlink:title="eworker" target="_top">
<polygon fill="#ffffff" stroke="transparent" points="8,-38.2 8,-231.2 131,-231.2 131,-38.2 8,-38.2"/>
<polygon fill="#f5f5f5" stroke="transparent" points="8.5,-207.7 8.5,-230.7 131.5,-230.7 131.5,-207.7 8.5,-207.7"/>
<polygon fill="none" stroke="#000000" points="8.5,-207.7 8.5,-230.7 131.5,-230.7 131.5,-207.7 8.5,-207.7"/>
<text text-anchor="start" x="13.5" y="-216.8" font-family="Helvetica,sans-Serif" font-weight="bold" font-size="11.00" fill="#000000">eworker</text>
<text text-anchor="start" x="96.5437" y="-215.8" font-family="Helvetica,sans-Serif" font-size="11.00" fill="#000000">[table]</text>
<polygon fill="none" stroke="#000000" points="8.5,-185.7 8.5,-207.7 131.5,-207.7 131.5,-185.7 8.5,-185.7"/>
<image xlink:href="../../images/primaryKeys.png" width="11px" height="12px" preserveAspectRatio="xMinYMin meet" x="13.5" y="-202.7"/>
<text text-anchor="start" x="28.5" y="-192.8" font-family="Helvetica,sans-Serif" font-size="11.00" fill="#000000">id</text>
<polygon fill="#ffffff" stroke="transparent" points="8.5,-163.7 8.5,-185.7 131.5,-185.7 131.5,-163.7 8.5,-163.7"/>
<polygon fill="none" stroke="#000000" points="8.5,-163.7 8.5,-185.7 131.5,-185.7 131.5,-163.7 8.5,-163.7"/>
<image xlink:href="../../images/foreignKeys.png" width="11px" height="12px" preserveAspectRatio="xMinYMin meet" x="13.5" y="-180.7"/>
<text text-anchor="start" x="28.5" y="-170.8" font-family="Helvetica,sans-Serif" font-size="11.00" fill="#000000">created_by</text>
<polygon fill="#ffffff" stroke="transparent" points="8.5,-141.7 8.5,-163.7 131.5,-163.7 131.5,-141.7 8.5,-141.7"/>
<polygon fill="none" stroke="#000000" points="8.5,-141.7 8.5,-163.7 131.5,-163.7 131.5,-141.7 8.5,-141.7"/>
<image xlink:href="../../images/foreignKeys.png" width="11px" height="12px" preserveAspectRatio="xMinYMin meet" x="13.5" y="-158.7"/>
<text text-anchor="start" x="28.5" y="-148.8" font-family="Helvetica,sans-Serif" font-size="11.00" fill="#000000">modified_by</text>
<polygon fill="#ffffff" stroke="transparent" points="8.5,-119.7 8.5,-141.7 131.5,-141.7 131.5,-119.7 8.5,-119.7"/>
<polygon fill="none" stroke="#000000" points="8.5,-119.7 8.5,-141.7 131.5,-141.7 131.5,-119.7 8.5,-119.7"/>
<text text-anchor="start" x="28.5" y="-126.8" font-family="Helvetica,sans-Serif" font-size="11.00" fill="#000000">email</text>
<polygon fill="#ffffff" stroke="transparent" points="8.5,-97.7 8.5,-119.7 131.5,-119.7 131.5,-97.7 8.5,-97.7"/>
<polygon fill="none" stroke="#000000" points="8.5,-97.7 8.5,-119.7 131.5,-119.7 131.5,-97.7 8.5,-97.7"/>
<image xlink:href="../../images/foreignKeys.png" width="11px" height="12px" preserveAspectRatio="xMinYMin meet" x="13.5" y="-114.7"/>
<text text-anchor="start" x="28.5" y="-104.8" font-family="Helvetica,sans-Serif" font-size="11.00" fill="#000000">avatar_id</text>
<polygon fill="#ffffff" stroke="transparent" points="8.5,-75.7 8.5,-97.7 131.5,-97.7 131.5,-75.7 8.5,-75.7"/>
<polygon fill="none" stroke="#000000" points="8.5,-75.7 8.5,-97.7 131.5,-97.7 131.5,-75.7 8.5,-75.7"/>
<image xlink:href="../../images/foreignKeys.png" width="11px" height="12px" preserveAspectRatio="xMinYMin meet" x="13.5" y="-92.7"/>
<text text-anchor="start" x="28.5" y="-82.8" font-family="Helvetica,sans-Serif" font-size="11.00" fill="#000000">unit_id</text>
<polygon fill="none" stroke="#000000" points="8.5,-56.7 8.5,-75.7 131.5,-75.7 131.5,-56.7 8.5,-56.7"/>
<text text-anchor="start" x="11.5" y="-62.8" font-family="Helvetica,sans-Serif" font-size="11.00" fill="#000000">...</text>
<polygon fill="#ffffff" stroke="transparent" points="8.5,-37.7 8.5,-56.7 44.5,-56.7 44.5,-37.7 8.5,-37.7"/>
<polygon fill="none" stroke="#000000" points="8.5,-37.7 8.5,-56.7 44.5,-56.7 44.5,-37.7 8.5,-37.7"/>
<text text-anchor="start" x="11.5" y="-43.8" font-family="Helvetica,sans-Serif" font-size="11.00" fill="#000000">&lt; 4</text>
<polygon fill="#ffffff" stroke="transparent" points="44.5,-37.7 44.5,-56.7 102.5,-56.7 102.5,-37.7 44.5,-37.7"/>
<polygon fill="none" stroke="#000000" points="44.5,-37.7 44.5,-56.7 102.5,-56.7 102.5,-37.7 44.5,-37.7"/>
<text text-anchor="start" x="54.8807" y="-43.8" font-family="Helvetica,sans-Serif" font-size="11.00" fill="#000000">347 rows</text>
<polygon fill="#ffffff" stroke="transparent" points="102.5,-37.7 102.5,-56.7 131.5,-56.7 131.5,-37.7 102.5,-37.7"/>
<polygon fill="none" stroke="#000000" points="102.5,-37.7 102.5,-56.7 131.5,-56.7 131.5,-37.7 102.5,-37.7"/>
<text text-anchor="start" x="112.9053" y="-43.8" font-family="Helvetica,sans-Serif" font-size="11.00" fill="#000000">9 &gt;</text>
</a>
</g>
</g>
<!-- token&#45;&gt;eworker -->
<g id="edge1" class="edge">
<title>token:w&#45;&gt;eworker:e</title>
<path fill="none" stroke="#000000" d="M167.776,-196.7C155.7815,-196.7 148.3229,-196.7 131.5,-196.7"/>
<polygon fill="#000000" stroke="#000000" points="174.5,-196.7001 182.5,-200.3 178.5,-196.7 182.5,-196.7 182.5,-196.7 182.5,-196.7 178.5,-196.7 182.5,-193.1 174.5,-196.7001 174.5,-196.7001"/>
<ellipse fill="none" stroke="#000000" cx="171.3" cy="-196.7001" rx="3.2" ry="3.2"/>
</g>
</g>
</svg>
