<?xml version="1.0" encoding="UTF-8" standalone="no"?>
<!DOCTYPE svg PUBLIC "-//W3C//DTD SVG 1.1//EN"
 "http://www.w3.org/Graphics/SVG/1.1/DTD/svg11.dtd">
<!-- Generated by graphviz version 2.40.1 (20161225.0304)
 -->
<!-- Title: databasechangelog Pages: 1 -->
<svg width="228pt" height="370pt"
 viewBox="0.00 0.00 228.00 370.00" xmlns="http://www.w3.org/2000/svg" xmlns:xlink="http://www.w3.org/1999/xlink">
<g id="graph0" class="graph" transform="scale(1 1) rotate(0) translate(4 366)">
<title>databasechangelog</title>
<polygon fill="#ffffff" stroke="transparent" points="-4,4 -4,-366 224,-366 224,4 -4,4"/>
<!-- databasechangelog -->
<g id="node1" class="node">
<title>databasechangelog</title>
<g id="a_node1"><a xlink:href="../../tables/databasechangelog.html" xlink:title="databasechangelog" target="_top">
<polygon fill="#ffffff" stroke="transparent" points="8,-4 8,-358 212,-358 212,-4 8,-4"/>
<polygon fill="#f5f5f5" stroke="transparent" points="10,-333 10,-356 210,-356 210,-333 10,-333"/>
<polygon fill="none" stroke="#000000" points="10,-333 10,-356 210,-356 210,-333 10,-333"/>
<text text-anchor="start" x="15" y="-342.1" font-family="Helvetica,sans-Serif" font-weight="bold" font-size="11.00" fill="#000000">databasechangelog</text>
<text text-anchor="start" x="175.0437" y="-341.1" font-family="Helvetica,sans-Serif" font-size="11.00" fill="#000000">[table]</text>
<polygon fill="none" stroke="#000000" points="10,-311 10,-333 143,-333 143,-311 10,-311"/>
<text text-anchor="start" x="30" y="-318.1" font-family="Helvetica,sans-Serif" font-size="11.00" fill="#000000">ID</text>
<polygon fill="none" stroke="#000000" points="143,-311 143,-333 210,-333 210,-311 143,-311"/>
<text text-anchor="start" x="145.9365" y="-318.7" font-family="Helvetica,sans-Serif" font-size="11.00" fill="#000000">varchar[255]</text>
<polygon fill="none" stroke="#000000" points="10,-289 10,-311 143,-311 143,-289 10,-289"/>
<text text-anchor="start" x="30" y="-296.1" font-family="Helvetica,sans-Serif" font-size="11.00" fill="#000000">AUTHOR</text>
<polygon fill="none" stroke="#000000" points="143,-289 143,-311 210,-311 210,-289 143,-289"/>
<text text-anchor="start" x="145.9365" y="-296.7" font-family="Helvetica,sans-Serif" font-size="11.00" fill="#000000">varchar[255]</text>
<polygon fill="none" stroke="#000000" points="10,-267 10,-289 143,-289 143,-267 10,-267"/>
<text text-anchor="start" x="30" y="-274.1" font-family="Helvetica,sans-Serif" font-size="11.00" fill="#000000">FILENAME</text>
<polygon fill="none" stroke="#000000" points="143,-267 143,-289 210,-289 210,-267 143,-267"/>
<text text-anchor="start" x="145.9365" y="-274.7" font-family="Helvetica,sans-Serif" font-size="11.00" fill="#000000">varchar[255]</text>
<polygon fill="none" stroke="#000000" points="10,-245 10,-267 143,-267 143,-245 10,-245"/>
<text text-anchor="start" x="30" y="-252.1" font-family="Helvetica,sans-Serif" font-size="11.00" fill="#000000">DATEEXECUTED</text>
<polygon fill="none" stroke="#000000" points="143,-245 143,-267 210,-267 210,-245 143,-245"/>
<text text-anchor="start" x="146" y="-252.7" font-family="Helvetica,sans-Serif" font-size="11.00" fill="#000000">datetime[19]</text>
<polygon fill="none" stroke="#000000" points="10,-223 10,-245 143,-245 143,-223 10,-223"/>
<text text-anchor="start" x="30" y="-230.1" font-family="Helvetica,sans-Serif" font-size="11.00" fill="#000000">ORDEREXECUTED</text>
<polygon fill="none" stroke="#000000" points="143,-223 143,-245 210,-245 210,-223 143,-223"/>
<text text-anchor="start" x="146" y="-230.7" font-family="Helvetica,sans-Serif" font-size="11.00" fill="#000000">int[10]</text>
<polygon fill="none" stroke="#000000" points="10,-201 10,-223 143,-223 143,-201 10,-201"/>
<text text-anchor="start" x="30" y="-208.1" font-family="Helvetica,sans-Serif" font-size="11.00" fill="#000000">EXECTYPE</text>
<polygon fill="none" stroke="#000000" points="143,-201 143,-223 210,-223 210,-201 143,-201"/>
<text text-anchor="start" x="146" y="-208.7" font-family="Helvetica,sans-Serif" font-size="11.00" fill="#000000">varchar[10]</text>
<polygon fill="none" stroke="#000000" points="10,-179 10,-201 143,-201 143,-179 10,-179"/>
<text text-anchor="start" x="30" y="-186.1" font-family="Helvetica,sans-Serif" font-size="11.00" fill="#000000">MD5SUM</text>
<polygon fill="none" stroke="#000000" points="143,-179 143,-201 210,-201 210,-179 143,-179"/>
<text text-anchor="start" x="146" y="-186.7" font-family="Helvetica,sans-Serif" font-size="11.00" fill="#000000">varchar[35]</text>
<polygon fill="none" stroke="#000000" points="10,-157 10,-179 143,-179 143,-157 10,-157"/>
<text text-anchor="start" x="30" y="-164.1" font-family="Helvetica,sans-Serif" font-size="11.00" fill="#000000">DESCRIPTION</text>
<polygon fill="none" stroke="#000000" points="143,-157 143,-179 210,-179 210,-157 143,-157"/>
<text text-anchor="start" x="145.9365" y="-164.7" font-family="Helvetica,sans-Serif" font-size="11.00" fill="#000000">varchar[255]</text>
<polygon fill="none" stroke="#000000" points="10,-135 10,-157 143,-157 143,-135 10,-135"/>
<text text-anchor="start" x="30" y="-142.1" font-family="Helvetica,sans-Serif" font-size="11.00" fill="#000000">COMMENTS</text>
<polygon fill="none" stroke="#000000" points="143,-135 143,-157 210,-157 210,-135 143,-135"/>
<text text-anchor="start" x="145.9365" y="-142.7" font-family="Helvetica,sans-Serif" font-size="11.00" fill="#000000">varchar[255]</text>
<polygon fill="none" stroke="#000000" points="10,-113 10,-135 143,-135 143,-113 10,-113"/>
<text text-anchor="start" x="30" y="-120.1" font-family="Helvetica,sans-Serif" font-size="11.00" fill="#000000">TAG</text>
<polygon fill="none" stroke="#000000" points="143,-113 143,-135 210,-135 210,-113 143,-113"/>
<text text-anchor="start" x="145.9365" y="-120.7" font-family="Helvetica,sans-Serif" font-size="11.00" fill="#000000">varchar[255]</text>
<polygon fill="none" stroke="#000000" points="10,-91 10,-113 143,-113 143,-91 10,-91"/>
<text text-anchor="start" x="30" y="-98.1" font-family="Helvetica,sans-Serif" font-size="11.00" fill="#000000">LIQUIBASE</text>
<polygon fill="none" stroke="#000000" points="143,-91 143,-113 210,-113 210,-91 143,-91"/>
<text text-anchor="start" x="146" y="-98.7" font-family="Helvetica,sans-Serif" font-size="11.00" fill="#000000">varchar[20]</text>
<polygon fill="none" stroke="#000000" points="10,-69 10,-91 143,-91 143,-69 10,-69"/>
<text text-anchor="start" x="30" y="-76.1" font-family="Helvetica,sans-Serif" font-size="11.00" fill="#000000">CONTEXTS</text>
<polygon fill="none" stroke="#000000" points="143,-69 143,-91 210,-91 210,-69 143,-69"/>
<text text-anchor="start" x="145.9365" y="-76.7" font-family="Helvetica,sans-Serif" font-size="11.00" fill="#000000">varchar[255]</text>
<polygon fill="none" stroke="#000000" points="10,-47 10,-69 143,-69 143,-47 10,-47"/>
<text text-anchor="start" x="30" y="-54.1" font-family="Helvetica,sans-Serif" font-size="11.00" fill="#000000">LABELS</text>
<polygon fill="none" stroke="#000000" points="143,-47 143,-69 210,-69 210,-47 143,-47"/>
<text text-anchor="start" x="145.9365" y="-54.7" font-family="Helvetica,sans-Serif" font-size="11.00" fill="#000000">varchar[255]</text>
<polygon fill="none" stroke="#000000" points="10,-25 10,-47 143,-47 143,-25 10,-25"/>
<text text-anchor="start" x="30" y="-32.1" font-family="Helvetica,sans-Serif" font-size="11.00" fill="#000000">DEPLOYMENT_ID</text>
<polygon fill="none" stroke="#000000" points="143,-25 143,-47 210,-47 210,-25 143,-25"/>
<text text-anchor="start" x="146" y="-32.7" font-family="Helvetica,sans-Serif" font-size="11.00" fill="#000000">varchar[10]</text>
<polygon fill="#ffffff" stroke="transparent" points="10,-6 10,-25 62,-25 62,-6 10,-6"/>
<polygon fill="none" stroke="#000000" points="10,-6 10,-25 62,-25 62,-6 10,-6"/>
<text text-anchor="start" x="13" y="-12.1" font-family="Helvetica,sans-Serif" font-size="11.00" fill="#000000">&lt; 0</text>
<polygon fill="#ffffff" stroke="transparent" points="62,-6 62,-25 143,-25 143,-6 62,-6"/>
<polygon fill="none" stroke="#000000" points="62,-6 62,-25 143,-25 143,-6 62,-6"/>
<text text-anchor="start" x="95.3807" y="-12.1" font-family="Helvetica,sans-Serif" font-size="11.00" fill="#000000">338 rows</text>
<polygon fill="#ffffff" stroke="transparent" points="143,-6 143,-25 210,-25 210,-6 143,-6"/>
<polygon fill="none" stroke="#000000" points="143,-6 143,-25 210,-25 210,-6 143,-6"/>
<text text-anchor="start" x="191.4053" y="-12.1" font-family="Helvetica,sans-Serif" font-size="11.00" fill="#000000">0 &gt;</text>
<polygon fill="none" stroke="#000000" stroke-width="2" points="9,-5 9,-357 211,-357 211,-5 9,-5"/>
</a>
</g>
</g>
</g>
</svg>
