<?xml version="1.0" encoding="UTF-8" standalone="no"?>
<!DOCTYPE svg PUBLIC "-//W3C//DTD SVG 1.1//EN"
 "http://www.w3.org/Graphics/SVG/1.1/DTD/svg11.dtd">
<!-- Generated by graphviz version 2.40.1 (20161225.0304)
 -->
<!-- Title: databasechangeloglock Pages: 1 -->
<svg width="252pt" height="150pt"
 viewBox="0.00 0.00 252.00 150.00" xmlns="http://www.w3.org/2000/svg" xmlns:xlink="http://www.w3.org/1999/xlink">
<g id="graph0" class="graph" transform="scale(1 1) rotate(0) translate(4 146)">
<title>databasechangeloglock</title>
<polygon fill="#ffffff" stroke="transparent" points="-4,4 -4,-146 248,-146 248,4 -4,4"/>
<!-- databasechangeloglock -->
<g id="node1" class="node">
<title>databasechangeloglock</title>
<g id="a_node1"><a xlink:href="../../tables/databasechangeloglock.html" xlink:title="databasechangeloglock" target="_top">
<polygon fill="#ffffff" stroke="transparent" points="8,-4 8,-138 236,-138 236,-4 8,-4"/>
<polygon fill="#f5f5f5" stroke="transparent" points="10,-113 10,-136 234,-136 234,-113 10,-113"/>
<polygon fill="none" stroke="#000000" points="10,-113 10,-136 234,-136 234,-113 10,-113"/>
<text text-anchor="start" x="15" y="-122.1" font-family="Helvetica,sans-Serif" font-weight="bold" font-size="11.00" fill="#000000">databasechangeloglock</text>
<text text-anchor="start" x="199.0437" y="-121.1" font-family="Helvetica,sans-Serif" font-size="11.00" fill="#000000">[table]</text>
<polygon fill="none" stroke="#000000" points="10,-91 10,-113 167,-113 167,-91 10,-91"/>
<image xlink:href="../../images/primaryKeys.png" width="11px" height="12px" preserveAspectRatio="xMinYMin meet" x="15" y="-108"/>
<text text-anchor="start" x="30" y="-98.1" font-family="Helvetica,sans-Serif" font-size="11.00" fill="#000000">ID</text>
<polygon fill="none" stroke="#000000" points="167,-91 167,-113 234,-113 234,-91 167,-91"/>
<text text-anchor="start" x="170" y="-98.7" font-family="Helvetica,sans-Serif" font-size="11.00" fill="#000000">int[10]</text>
<polygon fill="none" stroke="#000000" points="10,-69 10,-91 167,-91 167,-69 10,-69"/>
<text text-anchor="start" x="30" y="-76.1" font-family="Helvetica,sans-Serif" font-size="11.00" fill="#000000">LOCKED</text>
<polygon fill="none" stroke="#000000" points="167,-69 167,-91 234,-91 234,-69 167,-69"/>
<text text-anchor="start" x="170" y="-76.7" font-family="Helvetica,sans-Serif" font-size="11.00" fill="#000000">bit[1]</text>
<polygon fill="none" stroke="#000000" points="10,-47 10,-69 167,-69 167,-47 10,-47"/>
<text text-anchor="start" x="30" y="-54.1" font-family="Helvetica,sans-Serif" font-size="11.00" fill="#000000">LOCKGRANTED</text>
<polygon fill="none" stroke="#000000" points="167,-47 167,-69 234,-69 234,-47 167,-47"/>
<text text-anchor="start" x="170" y="-54.7" font-family="Helvetica,sans-Serif" font-size="11.00" fill="#000000">datetime[19]</text>
<polygon fill="none" stroke="#000000" points="10,-25 10,-47 167,-47 167,-25 10,-25"/>
<text text-anchor="start" x="30" y="-32.1" font-family="Helvetica,sans-Serif" font-size="11.00" fill="#000000">LOCKEDBY</text>
<polygon fill="none" stroke="#000000" points="167,-25 167,-47 234,-47 234,-25 167,-25"/>
<text text-anchor="start" x="169.9365" y="-32.7" font-family="Helvetica,sans-Serif" font-size="11.00" fill="#000000">varchar[255]</text>
<polygon fill="#ffffff" stroke="transparent" points="10,-6 10,-25 80,-25 80,-6 10,-6"/>
<polygon fill="none" stroke="#000000" points="10,-6 10,-25 80,-25 80,-6 10,-6"/>
<text text-anchor="start" x="13" y="-12.1" font-family="Helvetica,sans-Serif" font-size="11.00" fill="#000000">&lt; 0</text>
<polygon fill="#ffffff" stroke="transparent" points="80,-6 80,-25 167,-25 167,-6 80,-6"/>
<polygon fill="none" stroke="#000000" points="80,-6 80,-25 167,-25 167,-6 80,-6"/>
<text text-anchor="start" x="131.6105" y="-12.1" font-family="Helvetica,sans-Serif" font-size="11.00" fill="#000000">0 rows</text>
<polygon fill="#ffffff" stroke="transparent" points="167,-6 167,-25 234,-25 234,-6 167,-6"/>
<polygon fill="none" stroke="#000000" points="167,-6 167,-25 234,-25 234,-6 167,-6"/>
<text text-anchor="start" x="215.4053" y="-12.1" font-family="Helvetica,sans-Serif" font-size="11.00" fill="#000000">0 &gt;</text>
<polygon fill="none" stroke="#000000" stroke-width="2" points="9,-5 9,-137 235,-137 235,-5 9,-5"/>
</a>
</g>
</g>
</g>
</svg>
