<?xml version="1.0" encoding="UTF-8" standalone="no"?>
<!DOCTYPE svg PUBLIC "-//W3C//DTD SVG 1.1//EN"
 "http://www.w3.org/Graphics/SVG/1.1/DTD/svg11.dtd">
<!-- Generated by graphviz version 2.40.1 (20161225.0304)
 -->
<!-- Title: invitation_language Pages: 1 -->
<svg width="222pt" height="150pt"
 viewBox="0.00 0.00 222.00 150.00" xmlns="http://www.w3.org/2000/svg" xmlns:xlink="http://www.w3.org/1999/xlink">
<g id="graph0" class="graph" transform="scale(1 1) rotate(0) translate(4 146)">
<title>invitation_language</title>
<polygon fill="#ffffff" stroke="transparent" points="-4,4 -4,-146 218,-146 218,4 -4,4"/>
<!-- invitation_language -->
<g id="node1" class="node">
<title>invitation_language</title>
<g id="a_node1"><a xlink:href="../../tables/invitation_language.html" xlink:title="invitation_language" target="_top">
<polygon fill="#ffffff" stroke="transparent" points="8,-4 8,-138 206,-138 206,-4 8,-4"/>
<polygon fill="#f5f5f5" stroke="transparent" points="10,-113 10,-136 204,-136 204,-113 10,-113"/>
<polygon fill="none" stroke="#000000" points="10,-113 10,-136 204,-136 204,-113 10,-113"/>
<text text-anchor="start" x="15" y="-122.1" font-family="Helvetica,sans-Serif" font-weight="bold" font-size="11.00" fill="#000000">invitation_language</text>
<text text-anchor="start" x="169.0437" y="-121.1" font-family="Helvetica,sans-Serif" font-size="11.00" fill="#000000">[table]</text>
<polygon fill="none" stroke="#000000" points="10,-91 10,-113 143,-113 143,-91 10,-91"/>
<image xlink:href="../../images/primaryKeys.png" width="11px" height="12px" preserveAspectRatio="xMinYMin meet" x="15" y="-108"/>
<text text-anchor="start" x="30" y="-98.1" font-family="Helvetica,sans-Serif" font-size="11.00" fill="#000000">id</text>
<polygon fill="none" stroke="#000000" points="143,-91 143,-113 204,-113 204,-91 143,-91"/>
<text text-anchor="start" x="146" y="-98.7" font-family="Helvetica,sans-Serif" font-size="11.00" fill="#000000">bigint[19]</text>
<polygon fill="none" stroke="#000000" points="10,-69 10,-91 143,-91 143,-69 10,-69"/>
<text text-anchor="start" x="30" y="-76.1" font-family="Helvetica,sans-Serif" font-size="11.00" fill="#000000">invitation_id</text>
<polygon fill="none" stroke="#000000" points="143,-69 143,-91 204,-91 204,-69 143,-69"/>
<text text-anchor="start" x="146" y="-76.7" font-family="Helvetica,sans-Serif" font-size="11.00" fill="#000000">bigint[19]</text>
<polygon fill="none" stroke="#000000" points="10,-47 10,-69 143,-69 143,-47 10,-47"/>
<text text-anchor="start" x="30" y="-54.1" font-family="Helvetica,sans-Serif" font-size="11.00" fill="#000000">language</text>
<polygon fill="none" stroke="#000000" points="143,-47 143,-69 204,-69 204,-47 143,-47"/>
<text text-anchor="start" x="146" y="-54.7" font-family="Helvetica,sans-Serif" font-size="11.00" fill="#000000">varchar[2]</text>
<polygon fill="none" stroke="#000000" points="10,-25 10,-47 143,-47 143,-25 10,-25"/>
<text text-anchor="start" x="30" y="-32.1" font-family="Helvetica,sans-Serif" font-size="11.00" fill="#000000">level</text>
<polygon fill="none" stroke="#000000" points="143,-25 143,-47 204,-47 204,-25 143,-25"/>
<text text-anchor="start" x="145.994" y="-32.7" font-family="Helvetica,sans-Serif" font-size="11.00" fill="#000000">varchar[15]</text>
<polygon fill="#ffffff" stroke="transparent" points="10,-6 10,-25 68,-25 68,-6 10,-6"/>
<polygon fill="none" stroke="#000000" points="10,-6 10,-25 68,-25 68,-6 10,-6"/>
<text text-anchor="start" x="13" y="-12.1" font-family="Helvetica,sans-Serif" font-size="11.00" fill="#000000">&lt; 0</text>
<polygon fill="#ffffff" stroke="transparent" points="68,-6 68,-25 143,-25 143,-6 68,-6"/>
<polygon fill="none" stroke="#000000" points="68,-6 68,-25 143,-25 143,-6 68,-6"/>
<text text-anchor="start" x="107.6105" y="-12.1" font-family="Helvetica,sans-Serif" font-size="11.00" fill="#000000">4 rows</text>
<polygon fill="#ffffff" stroke="transparent" points="143,-6 143,-25 204,-25 204,-6 143,-6"/>
<polygon fill="none" stroke="#000000" points="143,-6 143,-25 204,-25 204,-6 143,-6"/>
<text text-anchor="start" x="185.4053" y="-12.1" font-family="Helvetica,sans-Serif" font-size="11.00" fill="#000000">0 &gt;</text>
<polygon fill="none" stroke="#000000" stroke-width="2" points="9,-5 9,-137 205,-137 205,-5 9,-5"/>
</a>
</g>
</g>
</g>
</svg>
