<?xml version="1.0" encoding="UTF-8" standalone="no"?>
<!DOCTYPE svg PUBLIC "-//W3C//DTD SVG 1.1//EN"
 "http://www.w3.org/Graphics/SVG/1.1/DTD/svg11.dtd">
<!-- Generated by graphviz version 2.40.1 (20161225.0304)
 -->
<!-- Title: language Pages: 1 -->
<svg width="168pt" height="106pt"
 viewBox="0.00 0.00 168.00 106.00" xmlns="http://www.w3.org/2000/svg" xmlns:xlink="http://www.w3.org/1999/xlink">
<g id="graph0" class="graph" transform="scale(1 1) rotate(0) translate(4 102)">
<title>language</title>
<polygon fill="#ffffff" stroke="transparent" points="-4,4 -4,-102 164,-102 164,4 -4,4"/>
<!-- language -->
<g id="node1" class="node">
<title>language</title>
<g id="a_node1"><a xlink:href="../../tables/language.html" xlink:title="language" target="_top">
<polygon fill="#ffffff" stroke="transparent" points="8,-4 8,-94 152,-94 152,-4 8,-4"/>
<polygon fill="#f5f5f5" stroke="transparent" points="10,-69 10,-92 150,-92 150,-69 10,-69"/>
<polygon fill="none" stroke="#000000" points="10,-69 10,-92 150,-92 150,-69 10,-69"/>
<text text-anchor="start" x="15" y="-78.1" font-family="Helvetica,sans-Serif" font-weight="bold" font-size="11.00" fill="#000000">language</text>
<text text-anchor="start" x="115.0437" y="-77.1" font-family="Helvetica,sans-Serif" font-size="11.00" fill="#000000">[table]</text>
<polygon fill="none" stroke="#000000" points="10,-47 10,-69 83,-69 83,-47 10,-47"/>
<image xlink:href="../../images/primaryKeys.png" width="11px" height="12px" preserveAspectRatio="xMinYMin meet" x="15" y="-64"/>
<text text-anchor="start" x="30" y="-54.1" font-family="Helvetica,sans-Serif" font-size="11.00" fill="#000000">id</text>
<polygon fill="none" stroke="#000000" points="83,-47 83,-69 150,-69 150,-47 83,-47"/>
<text text-anchor="start" x="86" y="-54.7" font-family="Helvetica,sans-Serif" font-size="11.00" fill="#000000">bigint[19]</text>
<polygon fill="#ffffff" stroke="transparent" points="10,-25 10,-47 83,-47 83,-25 10,-25"/>
<polygon fill="none" stroke="#000000" points="10,-25 10,-47 83,-47 83,-25 10,-25"/>
<text text-anchor="start" x="30" y="-32.1" font-family="Helvetica,sans-Serif" font-size="11.00" fill="#000000">name</text>
<polygon fill="none" stroke="#000000" points="83,-25 83,-47 150,-47 150,-25 83,-25"/>
<text text-anchor="start" x="85.9365" y="-32.7" font-family="Helvetica,sans-Serif" font-size="11.00" fill="#000000">varchar[100]</text>
<polygon fill="#ffffff" stroke="transparent" points="10,-6 10,-25 35,-25 35,-6 10,-6"/>
<polygon fill="none" stroke="#000000" points="10,-6 10,-25 35,-25 35,-6 10,-6"/>
<text text-anchor="start" x="13" y="-12.1" font-family="Helvetica,sans-Serif" font-size="11.00" fill="#000000">&lt; 0</text>
<polygon fill="#ffffff" stroke="transparent" points="35,-6 35,-25 83,-25 83,-6 35,-6"/>
<polygon fill="none" stroke="#000000" points="35,-6 35,-25 83,-25 83,-6 35,-6"/>
<text text-anchor="start" x="41.4956" y="-12.1" font-family="Helvetica,sans-Serif" font-size="11.00" fill="#000000">15 rows</text>
<polygon fill="#ffffff" stroke="transparent" points="83,-6 83,-25 150,-25 150,-6 83,-6"/>
<polygon fill="none" stroke="#000000" points="83,-6 83,-25 150,-25 150,-6 83,-6"/>
<text text-anchor="start" x="131.4053" y="-12.1" font-family="Helvetica,sans-Serif" font-size="11.00" fill="#000000">0 &gt;</text>
<polygon fill="none" stroke="#000000" stroke-width="2" points="9,-5 9,-93 151,-93 151,-5 9,-5"/>
</a>
</g>
</g>
</g>
</svg>
